<?xml version="1.0" encoding="UTF-8" standalone="no"?>
<!-- Generator: Adobe Illustrator 13.0.0, SVG Export Plug-In . SVG Version: 6.00 Build 14948)  -->

<svg
   version="1.2"
   id="Layer_3"
   x="0px"
   y="0px"
   width="582.80139"
   height="257.80566"
   viewBox="0 0 582.80137 257.80566"
   xml:space="preserve"
   sodipodi:docname="controller.svg"
   inkscape:version="1.1.2 (0a00cf5339, 2022-02-04)"
   xmlns:inkscape="http://www.inkscape.org/namespaces/inkscape"
   xmlns:sodipodi="http://sodipodi.sourceforge.net/DTD/sodipodi-0.dtd"
   xmlns="http://www.w3.org/2000/svg"
   xmlns:svg="http://www.w3.org/2000/svg"
   xmlns:rdf="http://www.w3.org/1999/02/22-rdf-syntax-ns#"
   xmlns:cc="http://creativecommons.org/ns#"
   xmlns:dc="http://purl.org/dc/elements/1.1/"
   xmlns:ns="&amp;ns_sfw;"><defs
   id="defs30">
	
	
</defs><sodipodi:namedview
   id="namedview28"
   pagecolor="#ffffff"
   bordercolor="#666666"
   borderopacity="1.0"
   inkscape:pageshadow="2"
   inkscape:pageopacity="0.0"
   inkscape:pagecheckerboard="0"
   showgrid="false"
   fit-margin-top="0"
   fit-margin-left="0"
   fit-margin-right="0"
   fit-margin-bottom="0"
   inkscape:zoom="1.0263804"
   inkscape:cx="148.58039"
   inkscape:cy="147.6061"
   inkscape:window-width="1920"
   inkscape:window-height="996"
   inkscape:window-x="0"
   inkscape:window-y="0"
   inkscape:window-maximized="1"
   inkscape:current-layer="Layer_3" />
<metadata
   id="metadata55">
	<rdf:RDF>
		<cc:Work
   rdf:about="">
			<dc:format>image/svg+xml</dc:format>
			<dc:type
   rdf:resource="http://purl.org/dc/dcmitype/StillImage" />
			
		</cc:Work>
	</rdf:RDF>
	<ns:sfw>
		<ns:slices />
		<ns:sliceSourceBounds
   x="-7231"
   y="-7652"
   width="16383"
   height="16383"
   bottomLeftOrigin="true" />
	</ns:sfw>
</metadata>
<path
   id="path868"
   style="fill:#000000"
   d="m 568.29871,0.02610062 c -57.25499,-0.02238 -114.51074,-0.0025 -171.76602,-0.0086 -128.40804,0.0048 -256.81634,-0.006 -385.224216,0.0086 C 5.6850455,0.15073862 0.56431124,4.8840696 0.10674764,10.510159 c -0.2219614,2.455139 -0.01665,4.924435 -0.091243,7.385864 0.00243,76.224414 -0.00662,152.449157 0.013723,228.673357 0.1410482,5.5241 4.73936786,10.54008 10.24650036,11.10797 2.497837,0.25797 5.013571,0.0335 7.519465,0.11243 184.549447,-8.8e-4 369.099017,0.003 553.648387,-0.009 5.49717,-0.0799 10.55845,-4.57168 11.20476,-10.04782 0.30057,-2.4863 0.0502,-4.99664 0.13672,-7.49372 -3.7e-4,-76.32377 0.009,-152.647863 -0.0137,-228.971416 -0.13647,-5.5638024 -4.78321,-10.64785738 -10.35099,-11.14908038 -1.36707,-0.171974 -2.74806,-0.112253 -4.12165,-0.09279 z M 12.06824,9.9011006 c 45.645736,0.0046 91.29168,6.51e-4 136.9375,0.002 0,2.8776044 0,5.7552084 0,8.6328124 10.67187,0 21.34375,0 32.01562,0 0,-2.877604 0,-5.755208 0,-8.6328124 130.04492,-0.0011 260.08985,8.98e-4 390.13477,0.0059 1.19578,0.04219 1.95322,1.3307404 1.74414,2.4382814 0.004,77.952215 8.9e-4,155.904428 -0.008,233.856648 -0.0596,1.17765 -1.31645,1.90104 -2.40743,1.70117 -186.27051,-0.004 -372.54126,0.003 -558.811621,-0.008 -1.196349,-0.0251 -1.9840255,-1.2934 -1.7731385,-2.40901 -0.0011,-77.93841 8.62e-4,-155.876823 0.0059,-233.815237 0.03429,-1.059871 1.1273745,-1.9137704 2.1621095,-1.7714844 z M 450.79285,41.006569 c -141.7359,0.004 -283.47196,-0.0054 -425.207751,0.007 -4.586875,0.08703 -8.659555,4.312763 -8.450697,8.920175 -0.06362,7.878117 -0.0076,15.757233 -0.0271,23.635763 0.0047,52.635243 -0.01085,105.270873 0.01758,157.905863 0.204793,4.54694 4.438705,8.51171 9.014061,8.26251 45.666906,0.0399 91.333857,0.005 137.000777,0.0164 131.2023,-0.004 262.40477,0.006 393.60697,-0.007 4.58589,-0.089 8.6593,-4.31467 8.45067,-8.92213 0.0637,-7.84413 0.008,-15.68926 0.0271,-23.53381 -0.005,-52.66987 0.0109,-105.34014 -0.0176,-158.009772 -0.20753,-4.547717 -4.44165,-8.503467 -9.01563,-8.263801 -35.13281,-0.01204 -70.26562,-0.01575 -105.39843,-0.01159 z m -265.68946,9.884766 c 0.0301,4.696005 -0.0835,9.397515 0.0801,14.089842 0.57773,5.6896 5.44533,10.63202 11.15847,11.17982 0.58117,0.044 -0.55028,0.0861 -0.80436,0.17489 -5.29725,0.93729 -9.74748,5.54188 -10.31785,10.92194 -0.26706,2.53499 -0.0422,5.08829 -0.11406,7.63155 0.0465,2.68632 -0.16421,5.395853 0.2028,8.064463 0.71379,3.91336 3.39916,7.37822 6.95899,9.13086 -4.05262,1.95856 -6.94256,6.16583 -7.12644,10.68811 -0.11553,2.42168 0.01,4.84865 -0.0339,7.27282 0.0365,2.53258 -0.15839,5.09034 0.21115,7.60352 0.8625,4.82142 4.84937,8.9318 9.56445,10.00195 -4.8373,2.09672 -8.40088,6.93815 -8.7362,12.2287 -0.16479,3.00648 -0.0176,6.0211 -0.0689,9.03107 0.0152,10.29815 -0.0403,20.59818 0.0423,30.89513 0.38828,6.16568 5.10515,11.76298 11.12505,13.17217 3.12434,0.74449 6.35741,0.31344 9.53303,0.43078 44.28048,-0.003 88.56151,0.0135 132.84164,-0.0197 5.92694,-0.20945 11.38166,-4.52661 13.09118,-10.18345 0.89237,-0.62411 0.96341,-1.79312 0.8789,-2.78515 -0.0128,-13.44398 0.0361,-26.88934 -0.0359,-40.33243 -0.31007,-5.34294 -3.8551,-10.32466 -8.75906,-12.44101 4.97241,-1.17444 9.05707,-5.55991 9.63682,-10.67243 0.28434,-2.49391 0.0465,-5.00908 0.12318,-7.51233 -0.0517,-2.75228 0.16938,-5.528 -0.20336,-8.26251 -0.71452,-3.91316 -3.39911,-7.38066 -6.96094,-9.13086 4.05366,-1.95722 6.94404,-6.16561 7.12839,-10.68811 0.11553,-2.421683 -0.01,-4.848653 0.0339,-7.272823 -0.0366,-2.53388 0.15848,-5.09295 -0.21116,-7.60743 -0.97642,-5.41122 -5.81331,-9.91066 -11.33203,-10.29101 5.60208,-0.45283 10.57588,-5.05259 11.37267,-10.6328 0.3719,-2.60538 0.0844,-5.244206 0.17811,-7.864468 0,-2.273698 0,-4.547396 0,-6.821094 66.92644,-0.0011 133.85287,8.95e-4 200.7793,0.0059 10e-4,59.656905 -8.1e-4,119.313805 -0.006,178.970705 -66.92513,0 -133.85026,0 -200.77539,0 0.0941,-2.70453 -0.0193,-5.52156 -1.2832,-7.97852 -2.15001,-4.49276 -7.11032,-7.45081 -12.08945,-7.16797 -47.98855,0.003 -95.97767,-0.0144 -143.96585,0.018 -5.77739,0.18384 -11.04862,4.82861 -11.92234,10.55045 -0.25042,1.51214 -0.22172,3.05085 -0.19228,4.57802 -52.70443,0.001 -105.408855,-9e-4 -158.113282,-0.006 -0.0011,-59.6569 8.19e-4,-119.3138 0.0059,-178.970705 52.701823,0 105.403642,0 158.105462,0 z m 159.57227,0 c -0.0214,4.407549 0.0561,8.820535 -0.0586,13.224612 -0.29638,1.5028 -1.88256,2.47905 -3.36445,2.26172 -47.90246,-0.002 -95.80601,0.0125 -143.7078,-0.0188 -1.63813,-0.12073 -2.80123,-1.82288 -2.55665,-3.40234 0,-4.021742 0,-8.043487 0,-12.065232 49.89583,0 99.79167,0 149.6875,0 z m -146.5332,35.125002 c 47.98553,0.01 95.97154,-0.01 143.95703,0.01 1.59731,0.13841 2.80263,1.74994 2.57005,3.32188 -0.0306,3.97522 0.0813,7.95771 -0.0681,11.928123 -0.32996,1.5202 -1.96403,2.43751 -3.45234,2.20314 -47.86796,-0.002 -95.737,0.0125 -143.60429,-0.0188 -1.63605,-0.12127 -2.80509,-1.82023 -2.55822,-3.40038 0.0324,-3.938403 -0.0723,-7.882723 0.0641,-11.817193 0.29721,-1.36459 1.70456,-2.37312 3.0918,-2.22656 z m -78.12696,2.86719 c -10.61708,0.0313 -21.235947,-0.0112 -31.85351,0.0156 -5.65852,0.18411 -10.928608,4.26486 -12.522714,9.69857 -0.958213,3.152043 -0.479609,6.480093 -0.596427,9.718233 0,4.44896 0,8.89791 0,13.34687 -6.795206,0.0258 -13.593611,-0.0694 -20.386718,0.0606 -6.016163,0.50531 -11.342802,5.45643 -12.192114,11.4505 -0.392446,2.71963 -0.09438,5.47509 -0.190874,8.21083 0.01643,9.37063 -0.04332,18.74331 0.04305,28.11265 0.381271,6.0481 5.273634,11.4783 11.272286,12.42156 2.780764,0.44421 5.606084,0.12018 8.406712,0.22243 4.349219,0 8.698437,0 13.047656,0 0.02579,6.79586 -0.06935,13.5949 0.06055,20.38867 0.502953,5.95352 5.352774,11.23083 11.266755,12.16397 2.777538,0.4361 5.597635,0.1191 8.394571,0.21902 9.358957,-0.0158 18.719797,0.0419 28.077557,-0.042 6.01714,-0.37921 11.42566,-5.21647 12.41137,-11.17548 0.46743,-2.81174 0.13476,-5.67271 0.23841,-8.50653 1e-5,-4.34987 0,-8.69974 0,-13.04961 6.80433,-0.0258 13.61184,0.0694 20.41407,-0.0605 5.98201,-0.50232 11.28792,-5.39705 12.1782,-11.34981 0.41827,-2.75051 0.10751,-5.54101 0.20674,-8.30957 -0.0182,-9.37063 0.047,-18.74332 -0.043,-28.11265 -0.38052,-6.01509 -5.21855,-11.42122 -11.1757,-12.40651 -2.81128,-0.47108 -5.67188,-0.13466 -8.50525,-0.23943 -4.35769,0 -8.71537,0 -13.07305,0 -0.0171,-6.74914 0.0539,-13.50113 -0.0532,-20.24842 -0.4389,-6.068823 -5.42181,-11.472853 -11.45982,-12.328463 -1.30978,-0.21072 -2.64225,-0.21694 -3.96552,-0.20046 z M 100.49402,104.6179 c -3.220307,3.24056 -6.477277,6.4433 -9.701171,9.67969 6.51e-4,-3.22722 0.0013,-6.45443 0.002,-9.68164 3.229934,0.002 6.485014,-0.006 9.699221,0.002 z m 19.2793,-0.004 c -1e-5,3.22657 0,6.45313 0,9.67969 -3.22516,-3.23594 -6.46591,-6.45386 -9.70118,-9.67969 3.23373,0 6.46745,0 9.70118,0 z m -11.19336,12.50391 c 0,1.8763 0,3.7526 0,5.62891 -2.19597,0 -4.39193,0 -6.5879,0 0,-1.88607 1e-5,-3.77214 0,-5.65821 1.0931,-1.0931 2.1862,-2.18619 3.2793,-3.27929 1.10287,1.10286 2.20573,2.20573 3.3086,3.30859 z m 89.5625,3.55469 c 47.98229,0.008 95.96496,-0.007 143.94726,0.008 1.60196,0.134 2.81288,1.74794 2.57982,3.32383 -0.0297,3.96948 0.0755,7.94523 -0.0642,11.91055 -0.31923,1.47833 -1.89806,2.40059 -3.35469,2.18946 -47.90379,-0.002 -95.80857,0.012 -143.71174,-0.0184 -1.6284,-0.11638 -2.80297,-1.79517 -2.5522,-3.37187 0.0355,-3.94133 -0.0795,-7.89023 0.0698,-11.82656 0.29397,-1.35951 1.70747,-2.36026 3.08594,-2.21484 z m -106.035158,3.41406 c 0,2.84831 0,5.69662 0,8.54492 8.786458,0 17.572918,0 26.359368,0 0,-2.8483 0,-5.69661 0,-8.54492 0.48285,0.12011 1.56804,-0.35612 1.3075,0.49998 0.0288,2.67608 -0.28312,5.54012 1.04944,7.98265 0.39291,0.80004 0.96648,1.50657 1.54541,2.16386 0.17384,1.42947 1.73034,2.36479 3.0918,2.02539 1.09014,0.30808 2.17992,0.67629 3.33418,0.62348 1.42091,0.056 2.84371,0.0339 4.26542,0.0249 -0.12015,0.48467 0.35613,1.56576 -0.5,1.31446 -2.68229,0 -5.36458,0 -8.04687,0 0,8.7858 0,17.57161 0,26.35742 2.84896,0 5.69792,0 8.54687,0 -0.12028,0.48535 0.3561,1.57299 -0.49997,1.31561 -2.52887,0.0442 -5.23076,-0.29553 -7.54511,0.96109 -2.03048,0.86778 -3.57956,2.60596 -4.45267,4.61031 -1.1335,2.36116 -0.7101,5.03021 -0.78935,7.55361 -0.071,0.21477 -1.45193,0.40523 -1.31055,-0.13711 0,-2.74765 0,-5.49531 0,-8.24297 -8.78711,1e-5 -17.57422,0 -26.361327,0 0,2.84766 0,5.69532 0,8.54297 -0.492872,-0.12113 -1.590477,0.35639 -1.340653,-0.49997 -0.0363,-2.68362 0.297578,-5.56689 -1.090851,-7.99805 -1.479143,-2.84252 -4.551808,-4.74575 -7.762721,-4.76476 -1.476654,-0.0985 -2.956694,0.0141 -4.434681,-0.0204 0.120244,-0.48588 -0.35611,-1.56835 0.5,-1.31836 2.68164,0 5.363281,0 8.044922,0 0,-8.78646 0,-17.57292 0,-26.35937 -2.848308,0 -5.696615,0 -8.544922,0 0.120193,-0.48409 -0.356098,-1.57056 0.499975,-1.31148 2.696457,-0.0397 5.586332,0.29917 8.048853,-1.04399 2.805378,-1.44868 4.640924,-4.46609 4.738481,-7.6098 0.117795,-1.55452 -0.03172,-3.11332 0.03105,-4.6695 0.438802,0 0.877604,0 1.316406,0 z M 104.54089,135.735 c -6.524467,0.2128 -12.620959,4.82793 -14.613095,11.04338 -1.99651,5.80372 -0.286264,12.66645 4.217028,16.84248 4.3485,4.1925 11.139137,5.60089 16.782557,3.42087 5.84185,-2.13551 10.1545,-7.8928 10.48656,-14.11533 0.44935,-6.19259 -3.03469,-12.46935 -8.56343,-15.31459 -2.53795,-1.35015 -5.43723,-2.0064 -8.30962,-1.87681 z m -37.351556,2.16015 c -3.062034,3.071 -6.111088,6.15426 -9.195313,9.20313 0,-3.22852 0,-6.45703 0,-9.68555 3.226563,-6.5e-4 6.453125,-0.001 9.679688,-0.002 -0.161459,0.16146 -0.322917,0.32292 -0.484375,0.48437 z m 85.351556,-0.48437 c 0.005,3.22719 -0.006,6.45441 0,9.68164 -3.22721,-3.22721 -6.45442,-6.45443 -9.68164,-9.68164 3.22722,0 6.45443,0 9.68164,0 z m 276.57227,6.56836 c -16.40225,-0.01 -32.80506,-0.0169 -49.20703,0.006 -4.67194,0.20144 -8.80742,4.42021 -8.74292,9.12921 -0.0619,5.8622 -0.008,11.72646 -0.0275,17.58954 0.0127,12.20119 -0.0335,24.40407 0.0397,36.60419 0.31128,4.73862 4.78016,8.77913 9.54402,8.50257 17.30069,0.0294 34.60171,0.0286 51.90225,0.005 1.83128,0.0735 3.7231,-0.12151 5.34234,-1.04787 3.18483,-1.65539 5.28025,-5.22462 5.01531,-8.82756 0.015,-17.73701 0.0294,-35.47481 -0.003,-53.21133 -0.20529,-4.66806 -4.42321,-8.79471 -9.12726,-8.7312 -1.57779,-0.0553 -3.15758,-0.0306 -4.73602,-0.0188 z m 74.17578,0 c -16.4029,-0.01 -32.80636,-0.0169 -49.20898,0.006 -4.67344,0.19923 -8.80977,4.41949 -8.74487,9.12921 -0.0619,5.8622 -0.008,11.72646 -0.0275,17.58954 0.0127,12.20119 -0.0335,24.40407 0.0397,36.60419 0.31013,4.74011 4.78224,8.77858 9.54597,8.50257 17.30134,0.0294 34.60301,0.0286 51.9042,0.005 1.83151,0.0745 3.72248,-0.12314 5.34235,-1.04787 3.18482,-1.65539 5.28024,-5.22462 5.0153,-8.82756 0.015,-17.73701 0.0294,-35.47481 -0.003,-53.21133 -0.2051,-4.66811 -4.42326,-8.79468 -9.12725,-8.7312 -1.5778,-0.0553 -3.15759,-0.0306 -4.73603,-0.0188 z m -397.63086,1.64258 c 3.14998,0.098 5.8926,2.98704 5.90381,6.08822 0.14038,3.2391 -2.57715,6.31953 -5.8436,6.44783 -2.9746,0.24446 -5.959067,-1.87677 -6.566067,-4.82512 -0.6402,-2.69723 0.65901,-5.74065 3.168947,-6.99058 1.01929,-0.53966 2.18549,-0.79233 3.33691,-0.72035 z m 33.9043,2.97656 c 0.74711,-0.17012 1.06313,0.69 1.58246,1.06425 0.74139,0.74095 1.48278,1.48191 2.22418,2.22286 -1.10352,1.10286 -2.20703,2.20573 -3.31055,3.30859 -1.88607,0 -3.77213,0 -5.6582,0 0,-2.19531 0,-4.39062 0,-6.58593 1.72059,-0.0115 3.44196,0.0209 5.16211,-0.01 z m -67.976562,0.008 c 1.514974,0 3.029948,0 4.544922,0 0,2.19531 0,4.39063 0,6.58594 -1.876302,0 -3.752604,0 -5.628906,0 -1.102865,-1.10352 -2.20573,-2.20703 -3.308594,-3.31055 1.093099,-1.09179 2.186198,-2.18359 3.279297,-3.27539 0.371094,0 0.742187,0 1.113281,0 z m 320.466792,5.25196 c -4.56905,2.61551 -8.40602,6.47722 -11.03125,11.0371 0.004,-3.67903 0.008,-7.35807 0.0117,-11.0371 3.67318,0 7.34635,-1e-5 11.01953,0 z m 41.05274,0 c 0,3.68164 0,7.36328 0,11.04492 -2.61835,-4.57158 -6.47528,-8.41713 -11.03907,-11.04492 3.67969,-1e-5 7.35938,0 11.03907,0 z m 33.13281,0 c -4.56961,2.61474 -8.40844,6.47103 -11.04102,11.02734 0.004,-3.67578 0.008,-7.35156 0.0117,-11.02734 3.67643,0 7.35287,-1e-5 11.0293,0 z m 41.04101,0 c 0,3.68359 0,7.36718 0,11.05078 -2.60936,-4.57743 -6.47046,-8.41675 -11.02929,-11.05078 3.67643,0 7.35286,-1e-5 11.02929,0 z m -448.248039,3.86122 c 2.883239,2.89347 5.758998,5.7928 8.654296,8.67383 -3.230468,-6.5e-4 -6.460937,-0.001 -9.691406,-0.002 0,-3.23633 0,-6.47266 0,-9.70899 0.345703,0.34571 0.691406,0.69141 1.03711,1.03711 z m 93.507809,8.67188 c -3.23372,6.5e-4 -6.46745,10e-4 -9.70117,0.002 3.24516,-3.22226 6.48459,-6.45035 9.70117,-9.70117 0,3.23307 0,6.46615 0,9.69922 z m 254.52148,-6.66797 c 5.47512,-0.0414 10.89178,2.33255 14.65235,6.29687 0.14219,0.14619 0.61854,0.66704 0.87146,0.98207 4.7745,5.62996 6.01052,13.97574 3.07758,20.74741 -2.84654,6.97044 -9.90271,11.97017 -17.42624,12.32949 -6.45252,0.40809 -13.00922,-2.50533 -16.99003,-7.60916 -4.2085,-5.27244 -5.51232,-12.70505 -3.28378,-19.08076 2.10024,-6.21244 7.37537,-11.26671 13.73533,-12.94365 1.74425,-0.48152 3.55408,-0.72198 5.36333,-0.72227 z m 74.19727,0 c 5.26842,-0.0403 10.47972,2.16317 14.21289,5.86328 0.24902,0.2638 0.61319,0.61663 0.98719,1.06291 4.51841,5.09991 6.07737,12.56031 4.11136,19.06707 -2.08051,7.1929 -8.49357,12.90816 -15.89153,14.10212 -6.68452,1.19684 -13.88655,-1.27239 -18.40664,-6.3476 -4.47022,-4.8883 -6.27509,-12.04698 -4.62297,-18.46635 1.61771,-6.54301 6.70589,-12.11642 13.12498,-14.21894 2.08338,-0.70776 4.28506,-1.06242 6.48472,-1.06249 z m -142.68164,2.91406 c 0.004,11.50717 10e-4,23.01433 -0.01,34.52149 -45.82422,0.001 -91.64843,-7.8e-4 -137.47265,-0.006 0.003,-11.50521 -0.0144,-23.01044 0.0156,-34.51563 45.82227,0 91.64453,0 137.4668,0 z m -92.05664,2.78321 c -9.77278,0.0597 -19.54868,-0.0307 -29.32102,0.0538 -5.86341,0.32245 -11.21936,4.73492 -12.66661,10.4264 -1.53382,5.4643 0.64134,11.73858 5.26013,15.04973 2.81724,2.11669 6.42536,2.97544 9.91109,2.75729 9.45828,-0.0184 18.91855,0.0474 28.37556,-0.0427 5.90732,-0.3757 11.26119,-4.90145 12.61272,-10.66636 1.40518,-5.40641 -0.77542,-11.53855 -5.32191,-14.80059 -2.53029,-1.8832 -5.70781,-2.82229 -8.84996,-2.77753 z m 74.50195,0 c -9.77212,0.0597 -19.54738,-0.0307 -29.31907,0.0538 -5.86341,0.32245 -11.21935,4.73492 -12.6666,10.4264 -1.53256,5.46142 0.63829,11.735 5.25561,15.04469 2.81473,2.1224 6.42565,2.97968 9.9117,2.76233 9.45893,-0.0184 18.91986,0.0474 28.37751,-0.0427 5.93288,-0.37557 11.3018,-4.94157 12.63031,-10.73667 1.38137,-5.42857 -0.84912,-11.56245 -5.43165,-14.79883 -2.51831,-1.83716 -5.65222,-2.7509 -8.75781,-2.70898 z m -73.85937,9.90624 c 2.55834,0.054 4.64892,2.78046 3.93681,5.26163 -0.47851,1.90025 -2.35123,3.38809 -4.34111,3.21494 -8.15227,0.0416 -16.30582,0.0181 -24.45858,0.017 -1.69685,-0.0562 -3.40942,0.0807 -5.09611,-0.1029 -2.37622,-0.53949 -3.95602,-3.33621 -2.99893,-5.62162 0.68203,-1.83376 2.66846,-3.01253 4.60714,-2.76519 9.45026,-0.001 18.90052,-0.003 28.35078,-0.004 z m 74.49218,0 c 2.58801,0.0454 4.69471,2.83259 3.92955,5.32961 -0.50671,1.89092 -2.40436,3.34506 -4.38775,3.14403 -8.1723,0.0475 -16.34564,0.0171 -24.51835,0.0216 -1.65501,-0.0571 -3.32587,0.0796 -4.97071,-0.10464 -2.37495,-0.54056 -3.95501,-3.33642 -2.99894,-5.62162 0.68203,-1.83376 2.66847,-3.01253 4.60714,-2.76519 9.44636,-0.001 18.89271,-0.003 28.33906,-0.004 z m -213.07812,5.69727 c 0,1.88607 0,3.77214 0,5.6582 -1.10352,1.10287 -2.20703,2.20573 -3.31055,3.3086 -1.0931,-1.0931 -2.1862,-2.1862 -3.27929,-3.2793 6.5e-4,-1.89583 0.001,-3.79167 0.002,-5.6875 2.19596,0 4.39193,0 6.58789,0 z m -8.09766,18.13867 c -3.238277,0 -6.476557,0 -9.714838,0 -6.51e-4,-3.23763 -0.0013,-6.47526 -0.002,-9.71289 3.238931,3.23763 6.477861,6.47526 9.716788,9.71289 z m 19.29493,0.004 c -3.22852,-0.002 -6.45702,-0.004 -9.68555,-0.002 3.24147,-3.21492 6.44866,-6.46409 9.68555,-9.6836 0,3.22852 -1e-5,6.45703 0,9.68555 z m 261.38085,-4.00586 c 2.60308,4.45186 6.38403,8.19509 10.8418,10.7832 -3.6582,-0.005 -7.31641,-0.009 -10.97461,-0.0137 0,-3.66732 0,-7.33463 0,-11.00195 0.0443,0.0775 0.0885,0.15495 0.13281,0.23242 z m 74.20704,0.0566 c 2.60558,4.42875 6.37913,8.15264 10.82421,10.72656 -3.66276,-0.005 -7.32552,-0.009 -10.98828,-0.0137 0,-3.66602 0,-7.33203 0,-10.99805 0.0547,0.0951 0.10938,0.19011 0.16407,0.28516 z m -22.25586,10.72461 c -3.66602,0 -7.33203,0 -10.99805,0 4.55183,-2.616 8.37697,-6.4618 10.99805,-11.00781 0,3.66927 0,7.33854 0,11.00781 z m 74.17382,0 c -3.6608,0 -7.32161,0 -10.98242,0 4.5464,-2.61729 8.36528,-6.46186 10.98242,-11.00586 0,3.66862 0,7.33724 0,11.00586 z m -309.13281,18.66797 c 47.9811,0.004 95.96234,-0.008 143.94336,0.006 1.59945,0.13209 2.81466,1.74699 2.58041,3.32187 5.4e-4,0.64336 0.001,1.28672 0.002,1.93008 -49.89583,0 -99.79166,0 -149.6875,0 0.0443,-1.22723 -0.18242,-2.53856 0.30469,-3.69726 0.53814,-1.01565 1.70447,-1.68103 2.85742,-1.56055 z" /><path
   id="path3"
   d="m 11.794802,4.0163346 c -4.2820005,0 -7.7792975,3.499297 -7.7792975,7.7792974 V 246.03978 c 0,4.282 3.497297,7.75 7.7792975,7.75 H 571.03503 c 4.282,0 7.75,-3.468 7.75,-7.75 V 11.795632 c 0,-4.2810004 -3.46895,-7.7792974 -7.75195,-7.7792974 z m 0,1.886719 H 571.03503 c 3.264,0 5.86524,2.630578 5.86524,5.8925784 V 246.03978 c 0,3.263 -2.60224,5.86523 -5.86524,5.86523 H 11.794802 c -3.2640005,0 -5.8945315,-2.60423 -5.8945315,-5.86523 V 11.793679 c 10e-4,-3.2620004 2.631531,-5.8916254 5.8945315,-5.8906254 z m 141.210938,1.648437 v 6.0410164 0.943359 h 0.94336 22.1289 0.94336 V 13.592507 7.5514906 H 175.1366 V 12.651101 H 154.8905 V 7.5514906 Z M 25.939334,45.006569 c -2.666,0 -4.832032,2.196282 -4.832032,4.863282 V 230.89134 c 0,2.665 2.166032,4.86328 4.832032,4.86328 H 556.39246 c 2.665,0 4.83203,-2.19828 4.83203,-4.86328 V 49.869851 c 0,-2.667 -2.16703,-4.863282 -4.83203,-4.863282 z m 0,1.884766 H 189.10144 v 16.621092 c 0,4.821 3.93195,8.75195 8.75195,8.75195 h 143.95313 c 4.824,0 8.7539,-3.93195 8.7539,-8.75195 V 46.891335 h 205.83204 c 1.644,0 2.94726,1.331516 2.94726,2.978516 V 230.89134 c 0,1.646 -1.30426,2.97656 -2.94726,2.97656 H 350.55847 v -6.39453 c 0,-4.821 -3.9299,-8.75195 -8.75391,-8.75195 H 197.85339 c -4.821,0 -8.75195,3.92995 -8.75195,8.75195 v 6.39453 H 25.939334 c -1.647,0 -2.947266,-1.33056 -2.947266,-2.97656 V 49.869851 c 0,-1.647 1.301266,-2.978516 2.947266,-2.978516 z m 165.048826,0 h 157.68555 v 16.621092 c 0,3.803 -3.06319,6.86524 -6.86719,6.86524 H 197.85339 c -3.801,0 -6.86523,-3.06324 -6.86523,-6.86524 z m 6.86523,33.240232 c -4.821,0 -8.75195,3.93096 -8.75195,8.75196 v 11.730463 c 0,4.822 3.93095,8.75196 8.75195,8.75196 h 143.95117 c 4.82401,0 8.75391,-3.93096 8.75391,-8.75196 V 88.881567 c 0,-4.82 -3.9299,-8.75 -8.75391,-8.75 z m 0,1.88672 h 143.95117 c 3.80701,0 6.86719,3.06424 6.86719,6.86524 v 11.730463 c 0,3.803 -3.06118,6.86524 -6.86719,6.86524 H 197.85339 c -3.802,0 -6.86718,-3.06224 -6.86718,-6.86524 V 88.883527 c 0,-3.801 3.06618,-6.86524 6.86718,-6.86524 z M 88.765505,92.891337 c -5.361,0.002 -9.720656,4.36361 -9.722656,9.724613 v 23.04492 H 55.995974 c -5.361,10e-4 -9.720656,4.36361 -9.722656,9.72461 v 33.0332 c 0.002,5.361 4.361656,9.72066 9.722656,9.72266 h 23.044922 v 23.04687 c 0.002,5.361 4.363609,9.72161 9.724609,9.72461 h 33.003905 c 5.361,-0.002 9.72165,-4.36261 9.72265,-9.72461 v -23.04687 h 23.07422 c 5.362,-0.001 9.72261,-4.36066 9.72461,-9.72266 v -33.0332 c -0.002,-5.362 -4.36361,-9.72261 -9.72461,-9.72461 h -23.07226 v -23.04492 c 0,-5.358003 -4.36666,-9.720663 -9.72266,-9.722663 H 88.767459 Z m 0,1.88672 h 33.003905 c 4.344,0.002 7.83589,3.49489 7.83789,7.837893 v 23.98828 0.94141 h 0.94336 24.01758 c 4.344,0.002 7.83589,3.49389 7.83789,7.83789 v 33.0332 c -0.002,4.344 -3.49489,7.83884 -7.83789,7.83984 h -24.01758 -0.94336 v 0.94141 23.98633 c -0.002,4.345 -3.49589,7.83784 -7.83789,7.83984 H 88.765505 c -4.343999,-0.003 -7.83489,-3.49584 -7.83789,-7.83984 v -23.98633 -0.94141 h -0.94336 -23.988281 c -4.344,-0.002 -7.83589,-3.49684 -7.83789,-7.83984 v -33.0332 c 10e-4,-4.344 3.49589,-7.8359 7.83789,-7.83789 h 23.988281 0.941407 v -0.94141 -23.98828 c 0.003,-4.343003 3.495843,-7.835893 7.839843,-7.837893 z m 0,3.94922 c -2.125,0.003 -3.856328,1.766623 -3.861328,3.890623 v 25.48828 0.0606 0.0293 c -0.009,0.567 -0.0597,1.13546 -0.470703,1.85546 -0.339,0.615 -1.272578,1.18688 -1.767578,1.29688 l -0.0293,0.0293 c -0.449,0.119 -0.822281,0.14743 -1.238281,0.14843 H 55.995974 c -2.124,0.004 -3.884672,1.73438 -3.888672,3.85938 v 33.0332 c 0.004,2.125 1.764672,3.85538 3.888672,3.85938 h 25.519531 0.03125 0.05859 c 0.733,0 1.775016,0.31225 2.416016,1.03125 0.694,0.772 0.857469,1.67831 0.855469,2.44531 v 25.43159 c 0.004,2.125 1.764671,3.86033 3.888671,3.86133 h 33.003909 c 2.125,-0.003 3.88562,-1.73733 3.89062,-3.86133 v -25.43164 c -0.009,-0.884 0.357,-1.87791 1,-2.50391 0.647,-0.644 1.58827,-0.97765 2.44727,-0.97265 h 25.45898 c 2.124,-0.004 3.85733,-1.73633 3.86133,-3.86133 v -0.0273 -33.00585 c -0.003,-2.125 -1.73733,-3.85738 -3.86133,-3.85938 H 129.1073 c -0.583,-0.006 -1.14747,-0.0664 -1.85547,-0.44141 -0.585,-0.294 -1.26201,-1.15398 -1.41601,-1.70898 v -0.0293 c -0.141,-0.452 -0.16797,-0.87554 -0.16797,-1.31054 v -25.40235 c -0.004,-2.124 -1.76758,-3.887673 -3.89258,-3.888673 H 88.771365 Z m 0,1.886713 h 33.003905 c 1.106,0 2.00191,0.89591 2.00391,2.00391 v 25.40039 0.0293 c 0.002,0.541 0.0596,1.15212 0.26562,1.82812 0.002,0.008 -0.002,0.0203 0,0.0293 0.326,1.148 1.15812,2.22513 2.32812,2.82813 v 0.0293 c 0.006,0.004 0.0223,-0.003 0.0293,0 1.043,0.542 2.03794,0.64144 2.71094,0.64844 h 25.45898 c 1.107,0.001 1.97261,0.86561 1.97461,1.97461 v 33.00586 c -10e-4,1.107 -0.86561,1.99995 -1.97461,2.00195 H 129.1073 c -1.341,-0.007 -2.70919,0.5152 -3.74219,1.5332 h -0.0293 c -1.046,1.029 -1.5765,2.44108 -1.5625,3.83008 v 25.43164 c -0.002,1.107 -0.89791,1.97557 -2.00391,1.97657 H 88.765505 c -1.105999,-0.001 -2.000906,-0.86757 -2.003906,-1.97657 v -25.43164 c 0.003,-1.074 -0.242172,-2.50489 -1.326172,-3.71289 -1.091,-1.227 -2.615078,-1.65039 -3.830078,-1.65039 -0.021,0 -0.05489,-0.001 -0.08789,0 h -0.03125 -25.490235 c -1.11,-0.002 -2.001906,-0.86561 -2.003906,-1.97461 v -33.0332 c 0.002,-1.108 0.896906,-1.97261 2.003906,-1.97461 h 25.402344 c 0.49,-0.001 1.076984,-0.0411 1.708984,-0.20508 0.008,-0.002 0.0213,0.002 0.0293,0 1.099,-0.254 2.265266,-1.00123 2.947266,-2.24023 0.628,-1.098 0.697031,-2.12749 0.707031,-2.77149 v -0.0273 c -10e-4,-0.074 0,-0.0606 0,-0.0606 V 102.6179 c 0.003,-1.106 0.86761,-2.00191 1.974609,-2.00391 z m 16.505855,4.85743 -0.64648,0.67773 -12.347656,12.31641 -1.621093,1.62109 h 2.269532 3.18164 v 7.60156 0.94336 h 0.94336 16.472657 0.94335 v -0.94336 -7.60156 h 3.15235 2.26953 l -1.58984,-1.62109 -12.34961,-12.31641 z m 0,2.68164 10.04883,10.04882 h -1.79687 -0.94336 v 0.94141 7.60352 H 97.992063 v -7.60352 -0.94141 h -0.9414 -1.82813 z m 92.58203,6.63476 c -4.821,0 -8.75195,3.92996 -8.75195,8.75196 v 11.72851 c 0,4.823 3.93095,8.72266 8.75195,8.72266 h 143.95117 c 4.82401,0 8.75391,-3.89966 8.75391,-8.72266 v -11.72851 c 0,-4.822 -3.9299,-8.75196 -8.75391,-8.75196 z m 0,1.88672 h 143.95117 c 3.80701,0 6.86719,3.06224 6.86719,6.86524 v 11.72851 c 0,3.802 -3.06118,6.83594 -6.86719,6.83594 H 197.85339 c -3.802,0 -6.86718,-3.03494 -6.86718,-6.83594 v -11.72851 c 0,-3.803 3.06618,-6.86524 6.86718,-6.86524 z m -124.380853,20.59375 -1.621094,1.62109 -12.318359,12.34766 -0.677735,0.64844 0.677735,0.67773 12.318359,12.34766 1.621094,1.5918 v -2.26953 -3.15235 h 7.601562 0.94336 v -0.94336 -16.47461 -0.9414 h -0.94336 -7.601562 v -3.1836 z m 63.587883,0 v 2.26953 3.1836 h -7.60351 -0.94336 v 0.9414 16.47461 0.94141 h 0.94336 7.60351 v 3.15234 2.27149 l 1.6211,-1.59375 12.34765,-12.34571 0.64844,-0.67773 -0.64844,-0.64844 -12.34765,-12.34766 z m -31.78906,2.45117 c -6.708997,0 -12.169917,5.46093 -12.169917,12.16992 0,6.708 5.46192,12.16993 12.169917,12.16993 6.708,0 12.16992,-5.46193 12.16992,-12.16993 0,-6.70899 -5.46192,-12.16992 -12.16992,-12.16992 z m 0,1.88868 c 5.689,0 10.28516,4.59225 10.28516,10.28124 0,5.688 -4.59516,10.28516 -10.28516,10.28516 -5.689997,0 -10.283197,-4.59716 -10.283197,-10.28516 0.001,-5.68899 4.5942,-10.28124 10.283197,-10.28124 z m 33.67383,0.19921 10.08008,10.07813 -10.08008,10.07812 v -1.82617 -0.94336 h -0.94141 -7.60351 v -14.58593 h 7.60351 0.94141 v -0.94336 z m -67.359372,0.0312 v 1.82422 0.94336 h 0.941406 7.603516 v 14.58594 h -7.603516 -0.941406 v 0.94336 1.79687 L 61.53699,151.88157 Z m 308.882812,6.13282 c -2.934,0 -5.33203,2.39903 -5.33203,5.33203 v 53.18945 c 0,2.936 2.39803,5.33594 5.33203,5.33594 h 53.18945 c 2.936,0 5.33398,-2.39994 5.33398,-5.33594 V 153.3034 c 0,-2.933 -2.39798,-5.33203 -5.33398,-5.33203 z m 74.17383,0 c -2.935,0 -5.33399,2.39903 -5.33399,5.33203 v 53.18945 c 0,2.936 2.40099,5.33594 5.33399,5.33594 h 53.1914 c 2.934,0 5.33399,-2.39994 5.33399,-5.33594 V 153.3034 c 0,-2.933 -2.39999,-5.33203 -5.33399,-5.33203 z m -74.17383,1.88672 h 53.18945 c 1.916,0 3.44727,1.53331 3.44727,3.44531 v 53.18945 c 0,1.916 -1.53127,3.44922 -3.44727,3.44922 h -53.18945 c -1.912,0 -3.44727,-1.53322 -3.44727,-3.44922 V 153.3034 c -0.001,-1.912 1.53527,-3.44531 3.44727,-3.44531 z m 74.17383,0 h 53.1914 c 1.915,0 3.44531,1.53331 3.44531,3.44531 v 53.18945 c 0,1.916 -1.53031,3.44922 -3.44531,3.44922 h -53.1914 c -1.915,0 -3.44532,-1.53322 -3.44532,-3.44922 V 153.3034 c 0,-1.912 1.53032,-3.44531 3.44532,-3.44531 z m -253.86524,0.55664 c -5.901,0 -10.69922,4.79631 -10.69922,10.69531 v 37.57226 c 0,5.9 4.79922,10.72657 10.69922,10.72657 h 138.11719 c 5.566,0 9.98928,-4.34525 10.48828,-9.78125 h 0.20703 v -0.94532 -37.57031 c 0,-5.899 -4.79631,-10.69726 -10.69531,-10.69726 z m 0,1.88476 h 138.11719 c 4.882,0 8.80859,3.93055 8.80859,8.81055 v 36.63086 0.9414 c 0,4.88 -3.92659,8.83985 -8.80859,8.83985 H 200.77722 c -4.881,0 -8.81055,-3.95985 -8.81055,-8.83985 v -37.57226 c 0,-4.88 3.92855,-8.81055 8.81055,-8.81055 z m 206.27539,1.53711 c -14.391,0 -26.04883,11.68913 -26.04883,26.07813 0,14.388 11.65783,26.07812 26.04883,26.07812 14.388,0 26.07813,-11.69012 26.07813,-26.07812 0,-14.388 -11.69113,-26.07813 -26.07813,-26.07813 z m 74.19336,0 c -14.39,0 -26.07812,11.68913 -26.07812,26.07813 0,14.388 11.68812,26.07812 26.07812,26.07812 14.388,0 26.04883,-11.69012 26.04883,-26.07812 0,-14.388 -11.66083,-26.07813 -26.04883,-26.07813 z m -74.19336,1.88672 c 13.37,0 24.18945,10.82141 24.18945,24.19141 0,13.37 -10.81945,24.19336 -24.18945,24.19336 -13.369,0 -24.16211,-10.82336 -24.16211,-24.19336 0,-13.37 10.79111,-24.19141 24.16211,-24.19141 z m 74.19336,0 c 13.369,0 24.16016,10.82141 24.16016,24.19141 0,13.37 -10.79116,24.19336 -24.16016,24.19336 -13.37,0 -24.19336,-10.82336 -24.19336,-24.19336 0,-13.37 10.82336,-24.19141 24.19336,-24.19141 z m -281.67578,1.02734 c -2.397,0 -4.36133,1.96438 -4.36133,4.35938 v 37.57031 c 0,2.398 1.96533,4.36328 4.36133,4.36328 h 140.53125 c 2.396,0 4.36133,-1.96628 4.36133,-4.36328 v -37.56836 c 0,-2.396 -1.96533,-4.36133 -4.36133,-4.36133 z m 0,1.88672 h 140.53125 c 1.377,0 2.47461,1.10061 2.47461,2.47461 v 37.57031 c 0,1.379 -1.09761,2.47657 -2.47461,2.47657 H 199.57019 c -1.376,0 -2.47656,-1.09857 -2.47656,-2.47657 v -37.57031 c 0.001,-1.374 1.09856,-2.47461 2.47656,-2.47461 z m 18.61328,10.80274 c -5.597,0 -10.13281,4.53481 -10.13281,10.13281 0,5.599 4.53581,10.13476 10.13281,10.13476 h 0.004 28.78906 c 5.595,0 10.13086,-4.53576 10.13086,-10.13476 0,-5.598 -4.53486,-10.13281 -10.13086,-10.13281 z m 74.50391,0 c -5.597,0 -10.13282,4.53481 -10.13282,10.13281 1e-5,5.599 4.53782,10.13476 10.13282,10.13476 h 28.79101 c 5.594,0 10.13086,-4.53576 10.13086,-10.13476 0,-5.598 -4.53686,-10.13281 -10.13086,-10.13281 z m -74.50391,1.88671 h 28.79102 c 4.554,0.01 8.23904,3.69305 8.24804,8.24805 -0.009,4.557 -3.69504,8.23805 -8.24804,8.24805 h -28.78711 -0.004 c -4.556,-0.01 -8.24005,-3.69105 -8.24805,-8.24805 0.009,-4.555 3.69305,-8.23805 8.24805,-8.24805 z m 74.50391,0 h 28.79101 c 4.552,0.01 8.2381,3.69305 8.2461,8.24805 -0.008,4.557 -3.6941,8.23805 -8.2461,8.24805 h -28.79101 c -4.553,-0.01 -8.23905,-3.69105 -8.24805,-8.24805 0.009,-4.555 3.69305,-8.23805 8.24805,-8.24805 z m -196.585937,3.8125 v 0.94141 7.60156 h -3.18164 -2.269532 l 1.623047,1.62305 12.345702,12.34766 0.64844,0.64648 0.67773,-0.64648 12.34961,-12.34766 1.58984,-1.62305 h -2.26953 -3.15234 v -7.60156 -0.94141 h -0.94336 -16.472657 z m 1.88672,1.88477 h 14.587887 v 7.60352 0.9414 h 0.94141 1.82812 L 105.2655,195.64715 95.187383,185.56902 h 1.85547 0.94336 v -0.9414 z m 99.865227,43.58594 h 143.95117 c 3.80701,0 6.86719,3.06128 6.86719,6.86328 v 6.39453 H 190.98621 v -6.39453 c 0,-3.802 3.06618,-6.86328 6.86718,-6.86328 z"
   style="fill:#ffffff" />



















</svg>
