<?xml version="1.0" encoding="UTF-8" standalone="no"?>
<!-- Generator: Adobe Illustrator 13.0.0, SVG Export Plug-In . SVG Version: 6.00 Build 14948)  -->

<svg
   version="1.1"
   id="Ebene_1"
   x="0px"
   y="0px"
   width="293.60962"
   height="93.827957"
   viewBox="23.577 0 293.60962 93.827955"
   enable-background="new 23.577 0 290.5 85.789"
   xml:space="preserve"
   sodipodi:docname="system_color.svg"
   inkscape:version="1.1.2 (0a00cf5339, 2022-02-04)"
   xmlns:inkscape="http://www.inkscape.org/namespaces/inkscape"
   xmlns:sodipodi="http://sodipodi.sourceforge.net/DTD/sodipodi-0.dtd"
   xmlns="http://www.w3.org/2000/svg"
   xmlns:svg="http://www.w3.org/2000/svg"
   xmlns:ns="ns_sfw;"><defs
   id="defs71">
	
	
	
	
	
	
	
	
	
	
	

	
	
	
	
	
	
	
	
	
	
	
	
	
	
	
	
	
	
	

		
	
	
	
	
	
	
	
	
	
	
	
	

	
	
	
	
	
	
	
	
	
	
	
	
	
	
	
	
	
	
	
</defs><sodipodi:namedview
   id="namedview69"
   pagecolor="#ffffff"
   bordercolor="#666666"
   borderopacity="1.0"
   inkscape:pageshadow="2"
   inkscape:pageopacity="0.0"
   inkscape:pagecheckerboard="0"
   showgrid="false"
   inkscape:zoom="1.8024529"
   inkscape:cx="118.4497"
   inkscape:cy="26.907777"
   inkscape:window-width="1920"
   inkscape:window-height="996"
   inkscape:window-x="0"
   inkscape:window-y="0"
   inkscape:window-maximized="1"
   inkscape:current-layer="Ebene_1"
   fit-margin-top="0"
   fit-margin-left="0"
   fit-margin-right="0"
   fit-margin-bottom="0" />
<metadata
   id="metadata2">
	<ns:sfw>
		<ns:slices />
		<ns:sliceSourceBounds
   x="816.781"
   y="517.325"
   width="285.603"
   height="85.789"
   bottomLeftOrigin="true" />
	</ns:sfw>
</metadata>
<path
   id="path1027"
   d="M 276.66273,0.01311954 C 205.04819,0.01553132 133.43332,0.00650677 61.81898,0.02679141 50.765736,0.23934379 39.954604,5.4692805 32.858042,13.934995 c -6.645224,7.802958 -10.026266,18.285648 -9.142578,28.501953 0.837354,10.774057 6.399107,21.070066 14.945313,27.683594 1.934426,1.516325 4.014075,2.850938 6.199218,3.976562 H 31.793589 c 0.05245,4.407633 -0.09066,8.820468 0.08594,13.22461 0.331566,3.091811 2.804361,5.869653 5.929688,6.292968 2.344512,0.38289 4.727414,0.09047 7.089844,0.185547 10.438361,-0.0013 20.873722,0.0017 31.310547,0.002 v -2.910156 c 1.653601,2.337079 4.705766,3.096918 7.43164,2.908203 29.712285,0.0028 59.424575,-0.0015 89.142575,0 0.6519,-0.04363 1.5515,0.05932 2.30079,0.0039 11.69005,-0.01036 23.37956,6.46e-4 35.06835,-0.002 v -9.103515 c 1.26331,0.01222 2.59408,-0.02417 3.81641,0.01758 -0.36439,0.94094 0.005,1.959019 -0.11328,2.9375 v 6.150391 c 4.86533,-0.04912 9.73587,0.09643 14.59766,-0.08789 1.89878,-0.236524 3.7244,-1.19196 4.9082,-2.708985 v 2.794922 c 7.72177,-0.02591 15.43985,0.05232 23.16211,-0.04102 2.09093,-0.105456 4.15099,-1.094285 5.44726,-2.753907 v 2.794922 h 10.60157 v -2.908203 c 1.65402,2.335546 4.706,3.095604 7.43164,2.90625 h 27.68164 c -0.0529,-4.407635 0.092,-8.820508 -0.0879,-13.224609 -0.3298,-3.059025 -2.75213,-5.825937 -5.84375,-6.275391 -1.92238,-0.379568 -3.88608,-0.129452 -5.82813,-0.203125 9.39024,-4.815512 16.69419,-13.557067 19.63867,-23.703125 2.99363,-9.964216 1.81543,-21.11752 -3.3125,-30.183593 C 307.28604,11.243279 298.70082,4.3369876 288.82093,1.5521821 284.87996,0.41521692 280.76164,-0.0901121 276.66273,0.01311954 Z M 62.856089,16.345151 c 71.915571,0.0026 143.830691,-0.0072 215.746091,0.01367 7.46106,0.137732 14.68006,4.252173 18.64258,10.568359 3.88846,5.940102 4.69981,13.737174 2.14258,20.357422 -2.47479,6.730298 -8.31037,12.092958 -15.22852,13.984375 -1.71875,0.494069 -3.49616,0.783106 -5.2832,0.857422 -0.4432,0.02728 -1.25187,0.01983 -1.83789,0.0078 -71.6438,1.63e-4 -143.28805,0.0068 -214.931641,-0.01367 -3.402341,-0.104032 -6.778798,-0.969017 -9.796875,-2.546875 H 69.514292 V 45.671323 c 2.9912,4.634332 5.98527,9.266813 8.974609,13.902344 h 47.005859 c 0.008,-5.967441 -0.0264,-11.935016 0.0195,-17.902344 0.3928,-0.338597 1.25868,-0.561896 1.02539,0.257813 v 17.644531 h 33.91602 v -5.13086 c 4.60662,5.522594 12.46619,7.660962 19.375,6.109375 3.65968,-0.788707 7.11527,-2.622427 9.70508,-5.341796 v 5.121093 h 17.77734 c 0.008,-5.96744 -0.0264,-11.935017 0.0195,-17.902343 0.39126,-0.340905 1.25901,-0.564216 1.02539,0.255859 -1e-5,5.88151 0,11.763021 0,17.644531 h 18.02735 v -4.5 c 2.96973,3.033363 7.24821,4.832879 11.51562,4.4375 1.54175,-0.04586 3.04046,-0.484476 4.55078,-0.693359 h 14.81641 v -4.492188 c 4.59267,5.028476 11.99606,6.897762 18.56055,5.519531 5.69932,-1.144616 11.06736,-4.958203 13.18359,-10.49414 1.55709,-3.870229 1.3084,-8.410156 -0.73633,-12.056641 -2.95351,-5.396997 -8.93456,-8.679883 -14.97265,-9.140625 -5.83735,-0.493133 -11.9903,1.501697 -16.03516,5.828125 V 19.059995 h -17.7793 v 10.052734 c -4.49278,-0.884082 -9.32446,0.464405 -12.73242,3.517578 -1.00772,0.879756 -1.90196,1.887256 -2.66406,2.986329 -2.05284,-2.385189 -4.72198,-4.266191 -7.66797,-5.375 -1.67916,-0.648696 -3.4916,-0.715995 -5.26758,-0.658204 -1.74676,-0.02078 -3.54256,0.199837 -5.11328,1.009766 -1.10133,-0.561823 -2.37229,-0.142151 -3.55273,-0.263672 h -12.95508 v 4.335938 c -4.7642,-5.070127 -12.37661,-6.850793 -19.04688,-5.267578 -1.70314,0.404816 -3.35985,1.017866 -4.89844,1.855468 V 26.63812 h -5.13476 v -4.646484 c -6.00651,-2e-6 -12.01302,-1e-6 -18.01953,0 v 4.646484 h -5.13672 c -0.0185,1.347036 0.0369,2.82152 -0.0273,4.089844 -2.09744,-1.239675 -4.51742,-2.021935 -6.97266,-1.890625 -2.06462,-0.08297 -4.20516,0.03842 -6.08008,0.99414 -1.1011,-0.555261 -2.36828,-0.139078 -3.54687,-0.259765 H 110.34046 V 19.059995 H 76.670542 v 12.960937 c -2.741792,-4.32015 -5.481381,-8.6417 -8.224609,-12.960937 H 52.022105 c 3.315442,-1.774308 7.06912,-2.744583 10.833984,-2.714844 z m -11.121094,2.871094 v 1.84375 38.207031 C 45.069647,55.624106 40.465873,48.484053 39.977183,40.893979 39.414765,33.69106 42.527178,26.32654 48.092417,21.716245 c 1.128479,-0.949479 2.352643,-1.785612 3.642578,-2.5 z M 175.50062,38.612729 c 0.0367,-0.04129 0.0624,-0.03576 0.0684,0.123047 0.0396,0.294954 -0.59215,0.312381 -0.20703,0.03516 0.0542,-0.0292 0.10193,-0.116918 0.13867,-0.158203 z" /><path
   fill="#d61616"
   d="M 277.9645,74.465175 H 62.815497 c -19.423,0 -35.228,-15.804 -35.228,-35.228 0,-19.424 15.807,-35.2240002 35.228,-35.2240002 H 277.9615 c 19.426,0 35.229,15.8020002 35.229,35.2260002 0,19.423 -15.801,35.226 -35.226,35.226 z m -215.149003,-62.119 c -14.829,0 -26.895,12.063 -26.895,26.895 0,14.828 12.064,26.895 26.895,26.895 H 277.9615 c 14.826,0 26.896,-12.065 26.896,-26.895 0,-14.83 -12.068,-26.895 -26.896,-26.895 z"
   id="path4"
   style="fill:#ffffff" /><path
   fill="#d61616"
   d="m 90.447497,55.575175 v -32.515 h -9.778 v 22.735 l -14.424,-22.735 h -10.512 v 32.515 h 9.779 v -23.469 l 15.154,23.469 z"
   id="path6"
   style="fill:#ffffff" /><path
   fill="#d61616"
   d="m 106.3395,55.575175 v -22.002 h -9.778003 v 22.002 z"
   id="path8"
   style="fill:#ffffff" /><path
   fill="#d61616"
   d="m 106.3395,28.927175 v -5.867 h -9.778003 v 5.867 z"
   id="path10"
   style="fill:#ffffff" /><path
   id="_x33_162"
   fill="#d61616"
   d="m 140.5635,55.575175 v -15.159 c 0,-3.178 -6.112,-7.577 -9.289,-7.577 h -2.935 c -2.199,0 -4.646,1.956 -6.846,2.934 v -2.2 h -9.778 v 22.002 h 9.778 v -15.159 c 0,-1.467 3.422,-3.178 4.891,-3.178 1.467,0 4.154,1.711 4.154,3.178 v 15.158 z"
   style="fill:#ffffff" /><path
   id="_x33_162_1_"
   fill="#d61616"
   d="m 222.3845,56.332175 v -15.157 c 0,-3.18 -6.109,-7.578 -9.293,-7.578 h -2.932 c -2.201,0 -4.646,1.956 -6.849,2.933 v -2.199 h -9.776 v 22.002 h 9.776 v -15.158 c 0,-1.467 3.425,-3.18 4.892,-3.18 1.467,0 4.154,1.713 4.154,3.18 v 15.156 h 10.028 z"
   style="fill:#ffffff" /><path
   fill="#d61616"
   d="m 156.4545,55.575175 v -22.002 h 5.135 v -2.934 h -5.135 v -4.646 h -10.021 v 4.646 h -5.135 v 2.934 h 5.135 v 22.002 z"
   id="path14"
   style="fill:#ffffff" /><path
   fill="#d61616"
   d="m 175.2785,32.839175 c -7.823,0 -14.423,5.378 -14.423,11.979 0,6.846 6.6,12.223 14.423,12.223 6.846,0 12.469,-3.91 13.936,-9.045 h -10.021 v 2.935 c 0,2.444 -1.709,3.18 -3.91,3.18 -2.199,0 -3.668,-0.734 -3.668,-3.18 v -6.111 h 18.094 c -0.005,-6.602 -6.361,-11.981 -14.431,-11.981 z m 0,2.2 c 2.201,0 3.912,1.468 3.912,3.912 v 2.199 h -7.578 v -2.199 c 0,-2.445 1.467,-3.912 3.666,-3.912 z"
   id="path16"
   style="fill:#ffffff" /><path
   fill="#d61616"
   d="m 271.6045,32.839175 c -8.07,0 -14.427,5.378 -14.427,11.979 0,6.846 6.354,12.223 14.427,12.223 7.817,0 14.422,-5.377 14.422,-12.223 -0.004,-6.6 -6.603,-11.979 -14.422,-11.979 z m 0,2.2 c 2.194,0 3.666,1.468 3.666,3.912 v 11.979 c 0,2.443 -1.472,3.179 -3.666,3.179 -2.445,0 -3.914,-0.734 -3.914,-3.179 v -11.979 c -0.002,-2.445 1.467,-3.912 3.914,-3.912 z"
   id="path18"
   style="fill:#ffffff" /><path
   fill="#d61616"
   d="m 243.4875,23.060175 v 11.979 c 0,0 -2.937,-2.199 -6.849,-2.199 -6.11,0 -11.244,5.378 -11.244,11.246 0,6.111 5.136,12.224 11.244,12.224 3.912,0 6.849,-1.467 6.849,-1.467 v 0.731 h 9.778 v -32.514 z m -3.668,13.446 c 2.198,0 3.668,1.712 3.668,3.912 v 9.045 c 0,2.2 -1.47,2.934 -3.668,2.934 -2.443,0 -3.912,-0.732 -3.912,-2.934 v -9.045 c 0,-2.2 1.469,-3.912 3.912,-3.912 z"
   id="path20"
   style="fill:#ffffff" />
<g
   id="g66"
   transform="translate(0.72949691,4.0131748)"
   style="fill:#ffffff">
	<path
   fill="#8c8c8c"
   d="m 48.071,85.789 h -9.103 c -2.601,0 -3.901,-1.301 -3.901,-3.901 v -7.803 h 13.004 v 2.602 H 37.667 v 1.95 H 48.07 v 2.601 H 37.667 v 0.65 c 0,0.867 0.434,1.301 1.301,1.301 h 9.103 z"
   id="path28"
   style="fill:#ffffff" />
	<path
   fill="#8c8c8c"
   d="M 49.372,85.789 V 74.085 h 9.103 c 2.601,0 3.901,1.301 3.901,3.901 v 7.803 h -2.601 v -7.803 c 0,-0.866 -0.434,-1.3 -1.3,-1.3 h -6.502 v 9.103 z"
   id="path30"
   style="fill:#ffffff" />
	<path
   fill="#8c8c8c"
   d="M 63.676,74.085 H 76.68 v 2.602 h -5.202 v 9.103 h -2.601 v -9.103 h -5.202 v -2.602 z"
   id="path32"
   style="fill:#ffffff" />
	<path
   fill="#8c8c8c"
   d="m 90.984,85.789 h -9.103 c -2.601,0 -3.901,-1.301 -3.901,-3.901 v -7.803 h 13.004 v 2.602 H 80.581 v 1.95 h 10.403 v 2.601 H 80.581 v 0.65 c 0,0.867 0.434,1.301 1.301,1.301 h 9.103 v 2.6 z"
   id="path34"
   style="fill:#ffffff" />
	<path
   fill="#8c8c8c"
   d="M 94.886,81.238 V 85.79 H 92.285 V 74.085 h 9.103 c 2.601,0 3.901,1.188 3.901,3.563 0,1.127 -0.187,1.955 -0.559,2.483 0.373,0.616 0.559,1.418 0.559,2.406 v 3.251 h -2.601 v -3.251 c 0,-0.867 -0.434,-1.301 -1.3,-1.301 h -6.502 z m 0,-2.601 h 7.803 v -1.95 h -7.803 z"
   id="path36"
   style="fill:#ffffff" />
	<path
   fill="#8c8c8c"
   d="m 106.589,74.085 h 13.004 v 2.602 h -5.202 v 9.103 h -2.601 v -9.103 h -5.202 v -2.602 z"
   id="path38"
   style="fill:#ffffff" />
	<path
   fill="#8c8c8c"
   d="m 123.495,82.538 v 3.251 h -2.601 v -7.803 c 0,-2.601 1.3,-3.901 3.901,-3.901 h 5.202 c 2.601,0 3.901,1.301 3.901,3.901 v 7.803 h -2.601 v -3.251 z m 7.802,-2.6 v -1.951 c 0,-0.866 -0.434,-1.3 -1.3,-1.3 h -5.202 c -0.867,0 -1.301,0.434 -1.301,1.3 v 1.951 z"
   id="path40"
   style="fill:#ffffff" />
	<path
   fill="#8c8c8c"
   d="M 135.199,85.789 V 74.085 h 2.601 v 11.704 z"
   id="path42"
   style="fill:#ffffff" />
	<path
   fill="#8c8c8c"
   d="M 139.1,85.789 V 74.085 h 9.103 c 2.601,0 3.901,1.301 3.901,3.901 v 7.803 h -2.601 v -7.803 c 0,-0.866 -0.434,-1.3 -1.3,-1.3 h -6.502 v 9.103 H 139.1 Z"
   id="path44"
   style="fill:#ffffff" />
	<path
   fill="#8c8c8c"
   d="M 153.404,85.789 V 74.085 h 10.403 c 2.602,0 3.901,1.301 3.901,3.901 v 7.803 h -2.601 v -7.803 c 0,-0.866 -0.434,-1.3 -1.301,-1.3 h -1.95 v 9.103 h -2.601 v -9.103 h -3.251 v 9.103 z"
   id="path46"
   style="fill:#ffffff" />
	<path
   fill="#8c8c8c"
   d="m 182.013,85.789 h -9.103 c -2.601,0 -3.901,-1.301 -3.901,-3.901 v -7.803 h 13.004 v 2.602 H 171.61 v 1.95 h 10.403 v 2.601 H 171.61 v 0.65 c 0,0.867 0.434,1.301 1.301,1.301 h 9.103 v 2.6 z"
   id="path48"
   style="fill:#ffffff" />
	<path
   fill="#8c8c8c"
   d="M 183.314,85.789 V 74.085 h 9.103 c 2.602,0 3.901,1.301 3.901,3.901 v 7.803 h -2.601 v -7.803 c 0,-0.866 -0.434,-1.3 -1.301,-1.3 h -6.502 v 9.103 z"
   id="path50"
   style="fill:#ffffff" />
	<path
   fill="#8c8c8c"
   d="m 197.619,74.085 h 13.004 v 2.602 h -5.201 v 9.103 h -2.602 v -9.103 h -5.201 z"
   id="path52"
   style="fill:#ffffff" />
	<path
   fill="#8c8c8c"
   d="m 217.125,83.189 h 10.403 v -1.951 h -6.502 c -2.601,0 -3.901,-1.175 -3.901,-3.523 0,-2.419 1.301,-3.629 3.901,-3.629 h 9.103 v 2.602 h -10.403 v 1.95 h 6.502 c 2.602,0 3.901,1.192 3.901,3.576 0,2.384 -1.3,3.576 -3.901,3.576 h -9.103 z"
   id="path54"
   style="fill:#ffffff" />
	<path
   fill="#8c8c8c"
   d="m 236.63,81.238 h -1.3 c -2.601,0 -3.901,-1.3 -3.901,-3.901 v -3.251 h 2.601 v 3.251 c 0,0.867 0.434,1.301 1.301,1.301 h 5.201 c 0.867,0 1.301,-0.434 1.301,-1.301 v -3.251 h 2.601 v 3.251 c 0,2.602 -1.3,3.901 -3.901,3.901 h -1.3 v 4.552 h -2.602 v -4.552 z"
   id="path56"
   style="fill:#ffffff" />
	<path
   fill="#8c8c8c"
   d="m 245.734,83.189 h 10.403 v -1.951 h -6.502 c -2.601,0 -3.901,-1.175 -3.901,-3.523 0,-2.419 1.301,-3.629 3.901,-3.629 h 9.103 v 2.602 h -10.403 v 1.95 h 6.502 c 2.602,0 3.901,1.192 3.901,3.576 0,2.384 -1.3,3.576 -3.901,3.576 h -9.103 z"
   id="path58"
   style="fill:#ffffff" />
	<path
   fill="#8c8c8c"
   d="m 260.039,74.085 h 13.004 v 2.602 h -5.201 v 9.103 h -2.602 v -9.103 h -5.201 z"
   id="path60"
   style="fill:#ffffff" />
	<path
   fill="#8c8c8c"
   d="m 287.346,85.789 h -9.103 c -2.601,0 -3.901,-1.301 -3.901,-3.901 v -7.803 h 13.004 v 2.602 h -10.403 v 1.95 h 10.403 v 2.601 h -10.403 v 0.65 c 0,0.867 0.434,1.301 1.301,1.301 h 9.103 v 2.6 z"
   id="path62"
   style="fill:#ffffff" />
	<path
   fill="#8c8c8c"
   d="M 288.647,85.789 V 74.085 h 10.403 c 2.601,0 3.901,1.301 3.901,3.901 v 7.803 h -2.601 v -7.803 c 0,-0.866 -0.434,-1.3 -1.301,-1.3 h -1.95 v 9.103 h -2.602 v -9.103 h -3.251 v 9.103 z"
   id="path64"
   style="fill:#ffffff" />
</g>
</svg>
