<?xml version="1.0" encoding="UTF-8" standalone="no"?>
<!-- Generator: Adobe Illustrator 13.0.0, SVG Export Plug-In . SVG Version: 6.00 Build 14948)  -->

<svg
   version="1.2"
   id="Layer_3"
   x="0px"
   y="0px"
   width="478.44348"
   height="229.5486"
   viewBox="0 0 478.44346 229.54859"
   xml:space="preserve"
   sodipodi:docname="controller.svg"
   inkscape:version="1.1.2 (0a00cf5339, 2022-02-04)"
   xmlns:inkscape="http://www.inkscape.org/namespaces/inkscape"
   xmlns:sodipodi="http://sodipodi.sourceforge.net/DTD/sodipodi-0.dtd"
   xmlns="http://www.w3.org/2000/svg"
   xmlns:svg="http://www.w3.org/2000/svg"
   xmlns:rdf="http://www.w3.org/1999/02/22-rdf-syntax-ns#"
   xmlns:cc="http://creativecommons.org/ns#"
   xmlns:dc="http://purl.org/dc/elements/1.1/"><metadata
   id="metadata23"><rdf:RDF><cc:Work
       rdf:about=""><dc:format>image/svg+xml</dc:format><dc:type
         rdf:resource="http://purl.org/dc/dcmitype/StillImage" /></cc:Work></rdf:RDF></metadata><defs
   id="defs21" /><sodipodi:namedview
   pagecolor="#ffffff"
   bordercolor="#666666"
   borderopacity="1"
   objecttolerance="10"
   gridtolerance="10"
   guidetolerance="10"
   inkscape:pageopacity="0"
   inkscape:pageshadow="2"
   inkscape:window-width="1920"
   inkscape:window-height="996"
   id="namedview19"
   showgrid="false"
   inkscape:zoom="0.67378517"
   inkscape:cx="218.91251"
   inkscape:cy="113.53767"
   inkscape:window-x="0"
   inkscape:window-y="0"
   inkscape:window-maximized="1"
   inkscape:current-layer="Layer_3"
   inkscape:pagecheckerboard="0"
   fit-margin-top="0"
   fit-margin-left="0"
   fit-margin-right="0"
   fit-margin-bottom="0" />















<path
   id="path891"
   style="fill:#000000;stroke-width:0.809915"
   d="m 175.54865,0.00550332 c -2.05793,0.278012 -4.3005,-0.08228 -6.15606,1.06533798 -2.23122,1.203547 -3.60363,3.667184 -3.65242,6.179081 -0.0569,0.804519 -0.0468,1.611849 -0.0294,2.417691 C 121.59073,15.164771 77.489296,20.810538 33.394365,26.505503 c -7.755284,1.032876 -15.520644,2.018717 -23.259444,3.155748 -2.7264656,0.672778 -5.0418786,2.509261 -6.8323526,4.615737 -2.39704598,2.950723 -3.50757498,6.822461 -3.27148398,10.597651 0.0042,56.863451 -0.01018,113.727351 0.01637,170.590521 0.158614,6.1478 4.66808698,11.86322 10.59147858,13.49475 3.244318,0.92462 6.649185,0.45247 9.971444,0.56903 147.868323,-0.002 295.736803,0.006 443.605023,-0.0107 6.20145,-0.11449 12.00111,-4.64251 13.64263,-10.62069 0.92095,-3.23741 0.44887,-6.63493 0.56567,-9.94981 -0.003,-55.38155 0.0141,-110.763461 -0.0201,-166.144791 -0.2223,-5.552891 -3.92387,-10.860936 -9.14074,-12.831137 -4.75306,-0.863471 -9.56024,-1.386726 -14.34324,-2.055166 -41.88335,-5.558961 -83.80015,-10.8613 -125.71857,-16.163046 -5.48441,-0.684412 -10.96875,-1.369872 -16.45313,-2.0546867 0.0975,-2.402433 -0.0219,-5.042711 -1.65429,-6.96875 -1.57898,-2.01228298 -4.27843,-2.74199598 -6.74375,-2.52734398 -42.52357,0 -85.04714,0 -127.57071,0 -0.38901,-0.176229 -0.80733,-0.220054 -1.23046,-0.197266 z M 303.18341,9.7652693 c -0.009,20.5690047 0.0338,41.1385597 -0.0293,61.7072197 -0.0566,2.36148 -0.25638,4.71871 -0.58004,7.05841 -0.0637,0.37447 -0.1633,1.12246 -0.23418,1.51836 -0.81655,4.94762 -2.2222,9.79628 -4.16426,14.41914 -0.20214,0.47339 -0.54844,1.27409 -0.82369,1.8648 -6.13321,13.464611 -17.13884,24.603541 -30.48048,30.983491 -14.43098,7.01124 -31.53366,8.16201 -46.82125,3.35192 -13.8582,-4.29556 -26.06964,-13.548 -34.08707,-25.62524 -6.87885,-10.243171 -10.57885,-22.533251 -10.69176,-34.859101 0.008,-20.13944 0.002,-40.279374 0.01,-60.4189997 42.63411,0 85.26823,0 127.90234,0 z M 165.71075,69.624639 c -0.0427,15.80781 5.20655,31.574661 14.74928,44.180721 9.73149,12.96153 23.83627,22.59409 39.50143,26.79932 16.94543,4.60414 35.5392,2.92667 51.32379,-4.8001 15.9211,-7.69139 28.87479,-21.32205 35.71151,-37.632811 4.10398,-9.68571 6.00144,-20.25934 5.75306,-30.76548 0,-16.01901 0,-32.038025 0,-48.057036 37.89664,4.693505 75.78957,9.556629 113.64744,14.448332 13.31111,1.732067 26.63522,3.465434 39.9092,5.338778 1.71556,0.906416 2.6399,2.895856 2.55054,4.796036 -0.0125,57.089441 0.005,114.180741 -0.0173,171.270681 -0.12119,2.76335 -2.83546,5.07561 -5.58944,4.74631 -27.79565,0.0461 -55.59141,0.006 -83.38711,0.019 -121.85219,-0.003 -243.70457,0.006 -365.556646,-0.0117 -2.682336,-0.1506 -4.9703816,-2.726 -4.6963106,-5.42358 -0.05185,-9.61257 -0.0072,-19.22599 -0.02244,-28.83892 0.002,-47.47698 -0.005,-94.954391 0.01355,-142.431091 0.08675,-1.79869 1.1966406,-3.641768 2.9077606,-4.298713 16.729793,-2.334787 33.476712,-4.416528 50.222072,-6.598138 34.3177,-4.420832 68.644444,-8.77131 102.979664,-13.054094 0,16.770833 1e-5,33.541665 0,50.312495 z M 54.704896,45.562139 c -3.00244,0.14213 -6.01993,0.0752 -9.0191,0.29213 -5.576416,0.64446 -10.567753,4.76107 -12.223092,10.1317 -1.057481,3.36325 -0.574434,6.92602 -0.680032,10.38828 0.01331,13.60261 -0.03672,27.20634 0.03903,40.808231 0.15435,3.75618 1.776995,7.74262 5.176754,9.66097 1.985274,1.14894 4.35166,1.54349 6.61855,1.30463 -10.305998,7.46702 -17.328525,19.29028 -18.900447,31.92442 -1.43609,10.96055 1.090904,22.41136 7.148719,31.67409 6.798552,10.54135 17.948188,18.19723 30.275338,20.59894 10.90001,2.19423 22.56149,0.41187 32.26154,-5.0412 -2.68112,4.07731 -2.64099,9.76383 0.21685,13.74386 2.42338,3.53334 6.771374,5.57202 11.034714,5.28349 100.62223,-0.003 201.24462,0.007 301.86674,-0.0121 11.48844,-0.16461 22.76406,-5.43884 30.31374,-14.0906 6.99605,-7.91325 10.79141,-18.57062 10.30111,-29.12854 -0.2955,-7.25801 -2.54493,-14.42011 -6.42846,-20.55592 0.0287,-13.43261 0.004,-26.87101 0.0134,-40.30586 -0.0101,-17.553671 0.0101,-35.108491 -0.0281,-52.661431 -0.26626,-6.10381 -4.80518,-11.7112 -10.70289,-13.28614 -3.24564,-0.87884 -6.63619,-0.418 -9.95187,-0.53375 -28.36869,0.004 -56.73819,-0.016 -85.10638,0.0241 -4.98447,0.15833 -9.80689,3.10083 -12.06616,7.57485 -1.84827,3.38537 -2.18017,7.33617 -2.03118,11.12342 0.0626,6.30445 -0.0697,12.64251 -1.19186,18.8634 -2.8363,16.829571 -11.03644,32.686521 -23.08118,44.772041 -11.87983,11.96762 -27.43125,20.2697 -44.03655,23.28383 -1.39756,0.26601 -2.80475,0.47704 -4.21365,0.67292 -0.47558,0.0579 -1.30437,0.16534 -1.91777,0.23071 -9.36388,1.0187 -18.89555,0.45688 -28.07637,-1.64672 -0.38717,-0.0902 -1.15046,-0.27708 -1.68164,-0.4043 -16.05505,-4.02281 -30.789,-13.01929 -41.79427,-25.37117 -10.43157,-11.60461 -17.47043,-26.206471 -20.05519,-41.595611 -1.05747,-5.95834 -1.28628,-12.02443 -1.18172,-18.06443 0.0244,-4.02998 0.11051,-8.24471 -1.66082,-11.97228 -1.57106,-3.62981 -4.96856,-6.37753 -8.85681,-7.12174 -2.97529,-0.64177 -6.03409,-0.26865 -9.04923,-0.36501 -26.67045,0 -53.340894,0 -80.011334,0 -0.44028,-0.059 -0.87614,-0.19214 -1.32031,-0.19922 z m 284.269534,9.75 c 10.36615,0.0304 20.73425,6.9e-4 31.10117,0.0104 19.49678,0.003 38.9943,-0.005 58.49062,0.0228 2.6548,0.21732 4.8711,2.80462 4.57178,5.47615 0.0552,14.92239 0.008,29.84508 0.0226,44.767601 -0.003,15.28398 0.008,30.56797 0.0131,45.85195 -5.89867,-5.5427 -13.87602,-8.74066 -21.95676,-8.94251 -18.89812,-0.0131 -37.79865,-0.0172 -56.69754,0.0109 -10.07914,0.22533 -19.88433,5.34852 -25.89063,13.43555 -5.71059,7.54374 -7.97183,17.56336 -6.06157,26.82968 1.81934,9.12882 7.62236,17.36841 15.61571,22.14269 1.13938,0.68745 2.3205,1.30721 3.53571,1.84989 -75.4694,0 -150.9388,0 -226.40821,0 13.21637,-11.07311 21.76138,-27.52077 23.21015,-44.70312 1.40796,-15.24446 -2.67776,-30.93571 -11.4093,-43.51839 -8.67654,-12.61998 -21.81725,-22.118901 -36.577904,-26.248431 -15.89185,-4.51851 -33.48724,-2.875 -48.17998,4.72385 0.0108,-12.40543 -0.032,-24.81227 0.0332,-37.2168 0.27515,-2.63904 2.88119,-4.76234 5.52889,-4.46017 15.13736,-0.0556 30.27502,-0.008 45.41251,-0.0242 16.340294,0.01 32.682204,-0.0198 49.021484,0.0148 1.23419,0.0454 2.54933,0.66659 2.92459,1.93072 1.11689,2.73015 0.66824,5.7432 0.76361,8.61503 -0.11422,7.68649 0.42156,15.40721 2.07246,22.92738 3.78973,17.780361 12.97097,34.350581 25.99501,47.029601 12.66325,12.39033 28.9167,21.09782 46.29121,24.61725 -6.86037,0.0205 -13.72321,-0.051 -20.58203,0.0469 -6.10879,0.42205 -11.67842,4.88373 -13.45117,10.74219 -1.85199,5.71511 0.034,12.43227 4.65238,16.29356 3.12557,2.73312 7.37321,3.98625 11.48824,3.72167 6.7965,-0.0334 13.59632,0.0747 20.39063,-0.066 6.25086,-0.51755 11.87176,-5.26609 13.43164,-11.34179 1.57556,-5.70043 -0.5037,-12.21398 -5.13792,-15.90385 -1.18874,-0.98843 -2.5402,-1.77682 -3.97341,-2.35396 8.17461,1.05517 16.48958,1.02028 24.65625,-0.0918 -4.97439,1.92352 -8.80329,6.55062 -9.62973,11.83608 -0.8968,5.27427 1.16887,10.94905 5.32712,14.33831 3.11592,2.63912 7.28933,3.8403 11.33777,3.58303 6.7965,-0.0334 13.59631,0.0747 20.39062,-0.066 6.24559,-0.51677 11.86622,-5.27143 13.40807,-11.34768 1.60737,-5.79541 -0.58093,-12.42804 -5.3624,-16.09082 -3.06143,-2.45717 -7.07512,-3.53845 -10.96559,-3.29987 -6.13281,0.002 -12.26565,-0.0113 -18.39844,0.0118 17.90515,-3.60491 34.61723,-12.72564 47.44228,-25.71571 12.48621,-12.53602 21.25949,-28.71429 24.9217,-46.026851 1.60969,-7.36117 2.18844,-14.91543 2.05399,-22.44103 0.0625,-2.22269 -0.1592,-4.48088 0.26172,-6.67578 0.39863,-1.90053 1.69671,-3.83106 3.74414,-4.13867 0.84539,-0.1727 1.71371,-0.16123 2.57227,-0.15626 z M 72.441216,118.59925 c 2.3435,0.009 4.68828,0.21478 6.99024,0.65821 0.0318,7.63343 -0.0192,15.267 0.0332,22.90039 -4.3317,-2.20312 -9.71566,-2.24194 -14.03906,0.004 0.0519,-2.59359 -0.006,-5.19021 0.0188,-7.78554 0.003,-5.03959 -0.0129,-10.07921 0.0124,-15.11875 2.30052,-0.43881 4.64315,-0.64576 6.98437,-0.65821 z m -16.5625,20.98438 c -5.71484,0 -11.42968,0 -17.144528,0 3.634678,-7.38047 9.757078,-13.50909 17.144528,-17.13281 0,5.71093 0,11.42187 0,17.13281 z m 33.56641,-16.91406 c 7.18319,3.66012 13.141894,9.6797 16.697274,16.91797 -5.7129,-6.6e-4 -11.425794,-10e-4 -17.138684,-0.002 0,-5.71094 0,-11.42187 0,-17.13281 0.14714,0.0723 0.29427,0.14453 0.44141,0.2168 z m -31.16602,26.79297 c -2.05921,4.27348 -1.958,9.46894 0.16602,13.69726 -2.52179,-0.0445 -5.04672,0.009 -7.57031,-0.015 -5.10742,-7e-4 -10.21487,0.008 -15.322268,-0.0104 -0.868824,-4.6071 -0.874914,-9.37668 -0.0078,-13.98437 7.633448,-0.0245 15.266998,0.0221 22.900388,-0.0293 -0.0553,0.11393 -0.11068,0.22786 -0.16602,0.3418 z m 28.63086,-0.31055 c 7.46946,-0.013 14.941524,-0.005 22.412114,0.006 0.86052,4.60289 0.89461,9.37162 0.004,13.97265 -7.63146,0.0418 -15.263084,-0.0168 -22.894534,0.0332 2.23593,-4.32874 2.2212,-9.71608 -0.0137,-14.04297 0.16406,0.0104 0.32812,0.0208 0.49218,0.0312 z m -14.14843,0.91015 c 3.32722,0.0797 6.16277,3.32845 5.75459,6.64312 -0.24614,3.02263 -2.99667,5.62775 -6.06045,5.52876 -2.82269,0.0421 -5.51174,-2.08997 -5.98953,-4.89523 -0.51284,-2.5673 0.74927,-5.399 3.12166,-6.57694 0.96887,-0.51399 2.07823,-0.76047 3.17373,-0.69971 z m 324.214844,1.99219 c -7.03836,3.85714 -12.19636,10.94701 -13.65838,18.84382 -0.17385,0.88987 -0.30122,1.78897 -0.38849,2.69134 -0.68104,-7.5877 -4.65956,-14.80848 -10.74879,-19.39611 -1.03927,-0.78963 -2.13209,-1.51104 -3.27661,-2.13905 9.35743,-0.002 18.71485,-0.002 28.07227,0 z m 14.16602,9.69727 c 5.74331,0.23878 11.07503,4.31145 12.8469,9.77601 1.68795,5.00485 0.39138,10.89762 -3.36133,14.64276 -3.63655,3.75986 -9.39662,5.26331 -14.4019,3.72348 -5.18488,-1.52672 -9.3121,-6.17153 -10.08981,-11.53977 -0.81245,-5.05854 1.27096,-10.488 5.37505,-13.59058 2.70984,-2.1157 6.19823,-3.20764 9.63109,-3.0119 z m -54.82032,0 c 5.82259,0.23926 11.22491,4.42483 12.92031,9.9997 1.59676,4.98748 0.24323,10.80262 -3.50055,14.49077 -3.65635,3.72442 -9.40909,5.19402 -14.39677,3.63107 -5.13248,-1.53551 -9.20989,-6.13142 -10.00981,-11.4448 -0.84334,-5.04876 1.21295,-10.48433 5.29097,-13.60867 2.71722,-2.15594 6.23401,-3.26063 9.69585,-3.06807 z m -290.882814,8.39648 c 4.33802,2.18588 9.69432,2.22185 14.02539,-0.002 -0.0658,2.58768 0.007,5.1782 -0.0228,7.76758 -0.003,5.04101 0.0126,10.08208 -0.0163,15.12304 -4.6015,0.86636 -9.3638,0.86513 -13.9668,0.01 -0.0419,-7.63537 0.017,-15.2709 -0.0332,-22.90625 z m -9.55859,2.56055 c 0,5.71549 0,11.43099 0,17.14648 -7.38473,-3.63293 -13.51565,-9.75866 -17.144534,-17.14648 5.714844,0 11.429684,0 17.144534,0 z m 50.261724,0.002 c -3.62489,7.38905 -9.750764,13.5196 -17.136724,17.15039 0,-5.71679 0,-11.43359 0,-17.15039 5.71224,0 11.424484,0 17.136724,0 z m 95.32226,1.37891 c 6.75254,0.0232 13.50819,-0.0268 20.25928,0.0249 1.38889,0.20172 1.98929,2.22001 0.82158,3.07165 -0.89829,0.74109 -2.12063,0.30215 -3.175,0.41966 -6.2455,-0.0151 -12.49484,0.0467 -18.73789,-0.0455 -1.38605,-0.28404 -1.81972,-2.35415 -0.59824,-3.11661 0.40716,-0.2988 0.93136,-0.42103 1.43027,-0.35409 z m 56.40235,0 c 6.75243,0.0239 13.50839,-0.0282 20.25912,0.026 1.3853,0.20081 1.99281,2.21138 0.82772,3.06485 -0.92778,0.75828 -2.19262,0.30113 -3.28099,0.4254 -6.20896,-0.0138 -12.42132,0.0439 -18.62812,-0.0436 -1.38828,-0.2791 -1.83247,-2.35385 -0.60605,-3.11856 0.40645,-0.29997 0.92963,-0.42082 1.42832,-0.35409 z m 125.08007,4.82617 c 0.70442,7.25492 4.48405,14.1094 10.16682,18.65812 1.20249,0.97138 2.48646,1.84355 3.83709,2.59579 -9.34375,0.002 -18.6875,0.002 -28.03125,0 7.81899,-4.30714 13.25793,-12.63187 14.00391,-21.53321 0.008,0.0931 0.0156,0.1862 0.0234,0.2793 z" /><path
   id="path3"
   style="fill:#ffffff;stroke-width:0.809915"
   d="m 172.79083,4.1988633 c -1.0213,0 -1.89157,0.478111 -2.39453,1.173828 -0.50296,0.696526 -0.68554,1.563842 -0.68555,2.419922 v 5.4394527 c -0.0369,0.0044 -0.0577,0.0072 -0.0977,0.01172 -0.34016,0.03807 -0.82749,0.07359 -1.44141,0.146484 -1.22702,0.146595 -2.96976,0.362968 -5.18164,0.636719 -4.42456,0.545883 -10.67464,1.332793 -18.13476,2.271484 -14.91863,1.877383 -34.70621,4.393464 -54.474614,6.917969 -19.76921,2.524504 -39.53097,5.046915 -54.427738,6.988281 -7.447975,0.971087 -13.677571,1.802006 -18.085937,2.396485 -2.204588,0.297237 -3.964339,0.534852 -5.181641,0.708984 -0.612296,0.08747 -1.080567,0.167249 -1.419922,0.220703 -0.169272,0.02754 -0.310726,0.05283 -0.416015,0.07227 -0.05183,0.0097 -0.07736,0.01567 -0.121094,0.02539 -0.04374,0.0097 -0.06086,-0.0087 -0.195312,0.04883 -3.8203676,1.629545 -6.5019526,5.440909 -6.5019526,9.847661 V 214.84731 c 0,5.89537 4.788366,10.68164 10.6796866,10.68164 H 463.71661 c 5.89132,0 10.70704,-4.79113 10.70704,-10.68164 V 43.526989 c 0,-4.230998 -2.48268,-7.902168 -6.0625,-9.628908 -0.13688,-0.06641 -0.14673,-0.06011 -0.19532,-0.07227 -0.0486,-0.01215 -0.11566,-0.03668 -0.16992,-0.04883 -0.11015,-0.02187 -0.24269,-0.04588 -0.41601,-0.07422 -0.34502,-0.0575 -0.82668,-0.12885 -1.44141,-0.21875 -1.23512,-0.181421 -2.99548,-0.427894 -5.20898,-0.732422 -4.4359,-0.607436 -10.68303,-1.437495 -18.16016,-2.419922 -14.95346,-1.964853 -34.77785,-4.52294 -54.61914,-7.064453 -19.84292,-2.541512 -39.69155,-5.055114 -54.67578,-6.941406 -7.49252,-0.94274 -13.78147,-1.748563 -18.23438,-2.296875 -2.22565,-0.274561 -3.99015,-0.488172 -5.22851,-0.634766 -0.54309,-0.06452 -0.93089,-0.09533 -1.26172,-0.128906 V 7.7926053 c 0,-0.895766 -0.18544,-1.773034 -0.70703,-2.46875 -0.52401,-0.694097 -1.40119,-1.121094 -2.44922,-1.121094 H 172.78888 Z m 0,1.566406 h 0.002 132.80273 c 0.67709,0 0.96597,0.178893 1.19922,0.488281 0.23083,0.308577 0.39062,0.856305 0.39062,1.539063 V 69.624639 c 0,37.540371 -30.43001,67.968761 -67.96875,67.968761 -37.54117,0 -67.9414,-30.42921 -67.9414,-67.968761 V 7.7926133 c 0,-0.614725 0.14845,-1.18032 0.39062,-1.515625 0.24183,-0.334041 0.53135,-0.511238 1.125,-0.511719 z m -3.08008,9.0253907 v 54.833979 c 0,38.385111 31.12272,69.531251 69.50782,69.531261 38.38591,0 69.53125,-31.14614 69.53125,-69.531261 V 14.829722 c 0.30216,0.03656 0.60167,0.0747 1.0664,0.128906 1.2335,0.146595 3.00449,0.360204 5.22852,0.634766 4.44967,0.548312 10.74185,1.329887 18.23437,2.273437 14.98261,1.885482 34.83058,4.400705 54.67188,6.941407 19.83886,2.539893 39.66925,5.097647 54.62109,7.0625 7.47552,0.982427 13.73365,1.838686 18.15821,2.445312 2.21269,0.303718 3.96515,0.529184 5.18164,0.708985 0.60905,0.0899 1.09319,0.164485 1.41797,0.21875 0.16198,0.02673 0.28586,0.05802 0.36523,0.07422 0.007,0.0032 0.0169,-0.0024 0.0234,0 0.0243,0.0049 0.0435,0.02296 0.0508,0.02539 2.99912,1.491863 5.08203,4.602005 5.08203,8.187505 v 171.32031 c 0,5.04496 -4.0929,9.11719 -9.13867,9.11719 H 14.704892 c -5.0498186,0 -9.1171876,-4.06723 -9.1171876,-9.1211 V 43.525039 c 0,-3.75477 2.267297,-6.981664 5.4980466,-8.382817 0.0162,-0.0032 0.02211,0.0049 0.04883,0 0.0818,-0.01539 0.204395,-0.04911 0.367188,-0.07422 0.324776,-0.05103 0.812962,-0.107842 1.417968,-0.195312 1.210823,-0.172512 2.954091,-0.435993 5.15625,-0.732422 4.403507,-0.592858 10.61257,-1.400816 18.060547,-2.371094 14.895144,-1.940556 34.660464,-4.489168 54.429684,-7.013672 19.768402,-2.525315 39.556792,-5.015196 54.474612,-6.892578 7.4593,-0.938691 13.68806,-1.726745 18.10938,-2.273437 2.21107,-0.272941 3.98486,-0.490125 5.20703,-0.636719 0.58447,-0.06967 1.02287,-0.124537 1.35351,-0.162109 z M 47.464656,49.755499 c -5.89132,0 -10.681639,4.78837 -10.681639,10.67969 V 105.943 c 0,2.55286 0.528681,4.4167 1.417968,5.74414 0.890096,1.32664 2.151061,2.0501 3.445311,2.34571 2.58039,0.58881 5.2219,-0.33957 6.62305,-1.19727 0.007,-0.004 0.0189,0.004 0.0254,0 7.14831,-3.99611 15.37186,-6.28125 24.14648,-6.28125 27.39536,0 49.587894,22.19252 49.587894,49.58789 0,16.56276 -8.10867,31.22307 -20.57812,40.22852 l -0.0723,0.0488 -0.0488,0.0742 -1.466804,1.63671 -0.0508,0.0508 c -1.47567,1.50158 -2.39453,3.57289 -2.39453,5.83984 0,4.58412 3.726104,8.31055 8.308594,8.31055 h 6.45313 272.01367 0.78125 22.68164 c 20.71115,0 37.51367,-16.80253 37.51367,-37.51368 0,-7.46174 -2.17787,-14.41817 -5.9375,-20.26171 -0.005,-0.009 0.005,-0.0169 0,-0.0234 -0.36203,-0.61068 -0.51367,-0.7718 -0.51367,-2.39649 V 60.437139 c 0,-5.89132 -4.79032,-10.67968 -10.68164,-10.67968 H 337.783 c -3.50288,0 -6.30968,1.39716 -8.16601,3.64062 -1.85389,2.24346 -2.78516,5.2893 -2.78516,8.62696 v 7.18554 c 0,48.398071 -39.21716,87.591801 -87.61524,87.591801 -48.39727,0 -87.61718,-39.19454 -87.61718,-87.591801 v -7.18554 c 0,-3.54095 -0.64117,-6.56481 -2.24805,-8.77344 -1.61092,-2.20378 -4.19948,-3.49024 -7.67969,-3.49024 H 47.454876 Z m 0,1.56446 h 94.216804 c 3.11979,0 5.1108,1.02463 6.42773,2.83398 1.31692,1.81016 1.93164,4.52176 1.93164,7.86914 v 7.18555 c 0,49.242811 39.93849,89.158201 89.17969,89.158201 49.24282,0 89.17969,-39.91539 89.17969,-89.158201 v -7.18555 c 0,-3.04852 0.84754,-5.74757 2.41797,-7.64844 1.57204,-1.89682 3.87083,-3.05078 6.96875,-3.05078 h 90.25976 c 5.04496,0 9.11524,4.06947 9.11524,9.11524 v 91.697261 c 0,1.80126 0.355,2.58593 0.73242,3.22657 h 0.0234 v 0.0234 c 3.60898,5.60461 5.69531,12.26519 5.69531,19.42969 0,19.86559 -16.08315,35.95117 -35.95117,35.95117 h -21.89844 -0.7832 -272.79297 -6.45313 c -3.73775,0 -6.746094,-3.00718 -6.746094,-6.74414 0,-1.86928 0.75831,-3.543 1.980474,-4.76758 l 0.0234,-0.0234 v -0.0234 l 1.36914,-1.56641 c 0.0178,-0.013 0.0302,-0.0339 0.0488,-0.0469 12.82986,-9.29295 21.18946,-24.40166 21.18946,-41.45117 0,-28.24092 -22.91225,-51.15235 -51.152354,-51.15235 -9.05323,0 -17.5756,2.37106 -24.95312,6.5 h -0.0234 c -1.02859,0.63255 -3.51381,1.47442 -5.47461,1.02735 -0.98,-0.22354 -1.8292,-0.71961 -2.494139,-1.71094 -0.66494,-0.99215 -1.148438,-2.51939 -1.148438,-4.86328 V 60.441059 c -0.0049,-5.04334 4.064747,-9.11328 9.111327,-9.11328 z m 24.97656,42.47461 c -10.97678,0 -21.31353,2.8542 -30.27929,7.845701 l -2.250003,1.24609 -0.683594,0.39258 0.367188,0.6836 2.517579,4.49609 0.39062,0.68555 0.6836,-0.36719 2.25,-1.27149 c 7.99872,-4.45048 17.19178,-6.96484 27.0039,-6.96484 15.37137,8.1e-4 29.250504,6.20767 39.324224,16.27734 10.07048,10.07292 16.29997,23.95089 16.30078,39.32227 -0.002,17.73146 -8.2996,33.50482 -21.21289,43.69922 l -2.02734,1.58984 -0.61133,0.48828 0.48828,0.61133 3.20313,4.0586 0.48828,0.60937 0.61133,-0.48828 2.02734,-1.58789 c 14.46265,-11.40927 23.75667,-29.13108 23.75586,-48.98047 -0.002,-34.423 -27.92386,-62.344891 -62.347664,-62.345701 z m 0,1.56445 c 33.579874,0.002 60.781594,27.202991 60.783214,60.781251 8.1e-4,19.3602 -9.06931,36.63089 -23.16992,47.75586 l -1.41602,1.09766 -2.22461,-2.83399 1.41797,-1.09961 c 13.2737,-10.47867 21.79916,-26.70413 21.80078,-44.91992 -8.1e-4,-15.79496 -6.41606,-30.07183 -16.76758,-40.42578 -10.35476,-10.3491 -24.631304,-16.739431 -40.423834,-16.740241 -10.08263,0 -19.5398,2.610341 -27.76367,7.185551 l -1.56445,0.87891 -1.75977,-3.15235 1.56446,-0.8789 c 8.73979,-4.864351 18.81635,-7.649241 29.52343,-7.648441 z m 0,17.673831 c -2.6308,0 -5.20941,0.24214 -7.71289,0.69726 -0.83449,0.15171 -1.65996,0.32737 -2.47656,0.52539 h -0.0254 -0.0488 c -0.0497,0.0169 -0.0957,0.0417 -0.14453,0.0606 -15.4614,3.83196 -27.633494,16.00232 -31.455078,31.4668 l -0.002,0.002 c -0.379406,1.53559 -0.663619,3.10322 -0.871093,4.69531 -0.017,0.13037 -0.04277,0.25795 -0.05859,0.38868 0,0 0,0.002 0,0.002 -0.104465,0.8634 -0.183596,1.7345 -0.236328,2.61328 0,0 0,0.002 0,0.002 -0.05269,0.87957 -0.08008,1.76561 -0.08008,2.66016 0,1.71783 0.09701,3.41495 0.289062,5.08398 0,0 0,0.002 0,0.002 0.09599,0.83386 0.216169,1.66009 0.359375,2.47851 0,0 0,0.002 0,0.002 0.143243,0.8184 0.310019,1.62889 0.5,2.42968 0,0 0,0.002 0,0.002 3.723703,15.69284 16.022027,28.06229 31.673827,31.89062 l 0.002,0.002 c 3.29554,0.80588 6.74813,1.22266 10.28907,1.22266 3.49722,0 6.90854,-0.41279 10.16601,-1.19922 h 0.0254 c 0.0289,-0.008 0.057,-0.0224 0.0859,-0.0312 15.73191,-3.84414 28.067429,-16.31015 31.726559,-32.11328 0.0176,-0.0618 0.0409,-0.1241 0.0566,-0.18555 v -0.0234 c 2.8e-4,-0.001 -2.8e-4,-0.003 0,-0.004 0.17345,-0.76676 0.32605,-1.54188 0.45703,-2.32422 2.2e-4,-10e-4 -2.1e-4,-0.003 0,-0.004 0.13092,-0.78236 0.24023,-1.57293 0.32813,-2.36914 1.4e-4,-0.001 -1.4e-4,-0.003 0,-0.004 0.0878,-0.79623 0.15495,-1.59792 0.19922,-2.40625 7e-5,-0.001 -7e-5,-0.003 0,-0.004 0.0442,-0.80835 0.0663,-1.62269 0.0664,-2.4414 0,0 0,-0.002 0,-0.002 0,0 0,-0.002 0,-0.002 0,-1.77644 -0.1085,-3.52656 -0.31836,-5.24609 -1.6e-4,-10e-4 1.5e-4,-0.003 0,-0.004 -0.10493,-0.8591 -0.23604,-1.70977 -0.39063,-2.55273 -2.3e-4,-0.001 2.3e-4,-0.003 0,-0.004 -0.15467,-0.84294 -0.3346,-1.67839 -0.53711,-2.50391 v -0.0234 c -0.008,-0.0286 -0.021,-0.0537 -0.0293,-0.082 -3.83727,-15.46156 -15.999689,-27.61648 -31.470699,-31.43359 -0.0102,-0.003 -0.0191,-0.009 -0.0293,-0.0117 h -0.01 c -0.005,-0.001 -0.009,-0.003 -0.0137,-0.004 -3.30364,-0.80992 -6.76299,-1.24725 -10.31446,-1.24805 z m 0,1.5664 c 0.85426,0 1.70289,0.0247 2.54297,0.0762 0.002,1.1e-4 0.004,-1.2e-4 0.006,0 2.5182,0.15467 4.97165,0.53646 7.35156,1.11914 0.007,0.002 0.0161,-0.002 0.0234,0 0.50862,0.15146 0.68786,0.29361 0.83203,0.5625 0.1474,0.27537 0.24414,0.8004 0.24414,1.63867 v 23.68164 c 0,0.98567 0.18219,1.90877 0.80664,2.56641 0.62444,0.65603 1.58301,0.90429 2.73633,0.90429 h 23.609384 c 0.92654,0 1.45668,0.0973 1.6875,0.21875 0.22253,0.11645 0.3489,0.26116 0.50586,0.81446 0.001,0.006 0.004,0.0115 0.006,0.0176 7.8e-4,0.003 0.001,0.007 0.002,0.01 -5.4e-4,0.005 -10e-4,0.009 0,0.0137 0.45818,1.87133 0.77554,3.79599 0.97266,5.75781 0.1367,1.37192 0.22265,2.75878 0.22265,4.16602 0,1.51999 -0.0861,3.02188 -0.24609,4.50195 -0.006,0.0596 -0.009,0.12022 -0.0156,0.17969 0,0 0,0.002 0,0.002 -0.0121,0.10772 -0.032,0.21285 -0.0449,0.32032 -0.17178,1.42716 -0.40925,2.83483 -0.7207,4.21093 -10e-4,0.005 -0.003,0.0104 -0.004,0.0156 -0.15288,0.57778 -0.33827,1.00672 -0.6289,1.27734 -0.30129,0.28023 -0.76929,0.49024 -1.73633,0.49024 H 86.960996 c -1.09257,0 -2.01504,0.30519 -2.63867,0.95312 -0.62445,0.64712 -0.88086,1.53968 -0.88086,2.51563 v 23.68359 c 0,0.8407 -0.17518,1.37015 -0.39062,1.68359 -0.21706,0.31505 -0.49101,0.46093 -0.85547,0.56055 -3.12465,0.7516 -6.39486,1.15039 -9.75195,1.15039 -1.69435,0 -3.36165,-0.0953 -5,-0.28711 -0.001,-1.5e-4 -0.003,1.5e-4 -0.004,0 -0.35145,-0.0412 -0.69621,-0.10431 -1.04492,-0.1543 -1.27851,-0.18425 -2.54165,-0.41386 -3.78125,-0.71484 -0.005,-0.006 -0.009,-0.0119 -0.0195,-0.0156 -0.36284,-0.1393 -0.59821,-0.27828 -0.78125,-0.53907 -0.18952,-0.27051 -0.36719,-0.75056 -0.36719,-1.68359 v -23.66016 c 0,-1.12497 -0.24393,-2.04042 -0.87891,-2.66406 -0.63578,-0.62282 -1.5292,-0.82812 -2.49218,-0.82812 H 34.292782 c -0.891716,0 -1.386738,-0.13612 -1.662109,-0.31836 -0.273751,-0.18547 -0.450965,-0.42991 -0.611328,-1.05274 -0.18295,-0.77081 -0.344704,-1.55053 -0.484375,-2.33789 -2.24e-4,-0.001 2.23e-4,-0.003 0,-0.004 -0.139601,-0.78738 -0.258784,-1.58249 -0.353516,-2.38477 -1.51e-4,-0.001 1.51e-4,-0.003 0,-0.004 -0.09474,-0.80294 -0.166642,-1.6115 -0.214844,-2.42773 0,0 0,-0.002 0,-0.002 -0.04816,-0.81625 -0.07223,-1.64087 -0.07227,-2.46875 1.53e-4,-3.42534 0.403375,-6.74181 1.183593,-9.92383 h 0.01367 c 0.203289,-0.57585 0.361347,-0.7477 0.636719,-0.87891 0.274561,-0.1312 0.781265,-0.19726 1.564453,-0.19726 h 23.804684 c 1.20029,0 2.12785,-0.3059 2.6875,-1 0.55803,-0.6941 0.66016,-1.57784 0.66016,-2.46875 V 117.9939 c 0,-0.80343 0.12803,-1.28532 0.31836,-1.58985 0.18385,-0.29319 0.45156,-0.47358 0.9043,-0.63476 0.006,-0.002 0.008,-0.008 0.01,-0.0117 3.13076,-0.75363 6.40216,-1.1574 9.76367,-1.15821 z m -12.3789,1.88672 c -0.12204,0.44902 -0.1836,0.94623 -0.1836,1.50977 v 23.68164 c 0,0.76051 -0.13127,1.23516 -0.31836,1.4668 -0.18547,0.23082 -0.51319,0.43945 -1.46484,0.43945 H 34.290829 c -0.547074,0 -1.040403,0.0298 -1.503906,0.12891 4.063771,-12.96012 14.305143,-23.18517 27.275393,-27.22657 z m 24.82226,0.0215 c 12.92634,4.05653 23.135644,14.25168 27.195324,27.17578 -0.43954,-0.0757 -0.92266,-0.0957 -1.48829,-0.0957 H 86.984186 c -0.92736,0 -1.36306,-0.20053 -1.58984,-0.43946 -0.22758,-0.23892 -0.39063,-0.6755 -0.39063,-1.46679 v -23.68165 c 0,-0.55645 -0.029,-1.04408 -0.11914,-1.49218 z m -12.44336,27.98242 c -6.42587,0 -11.65625,5.23038 -11.65625,11.65625 0,6.42748 5.23038,11.66016 11.65625,11.66016 6.42667,0 11.65821,-5.23349 11.65821,-11.66016 0,-6.42668 -5.23235,-11.65625 -11.65821,-11.65625 z m 0,1.5625 c 5.58112,0 10.09571,4.51181 10.09571,10.09375 0,5.58112 -4.51459,10.09375 -10.09571,10.09375 -5.58032,0 -10.09179,-4.51263 -10.09179,-10.09375 0,-5.58194 4.51147,-10.09375 10.09179,-10.09375 z m 283.089854,0.43945 c -16.35137,0 -29.6211,13.27053 -29.6211,29.6211 0,16.35218 13.26973,29.62109 29.6211,29.62109 h 54.81836 c 16.35137,0 29.62109,-13.26891 29.62109,-29.62109 0,-16.35056 -13.26972,-29.6211 -29.62109,-29.6211 z m 0,1.5625 h 54.81836 c 15.50663,0 28.05859,12.55035 28.05859,28.0586 0,15.50825 -12.55034,28.05664 -28.05859,28.05664 h -54.81836 c -15.50663,0 -28.05664,-12.54758 -28.05664,-28.05664 0.002,-15.50744 12.55001,-28.0586 28.05664,-28.0586 z m 0,4.52149 c -12.98537,0 -23.53711,10.55012 -23.53711,23.53711 0,12.98374 10.55012,23.53515 23.53711,23.53515 12.98293,0 23.50976,-10.54979 23.50976,-23.53515 0.002,-12.98456 -10.5244,-23.53711 -23.50976,-23.53711 z m 54.8164,0 c -12.98374,0 -23.53711,10.55012 -23.53711,23.53711 0,12.98374 10.55175,23.53515 23.53711,23.53515 12.98537,0 23.50977,-10.54979 23.50977,-23.53515 0,-12.98537 -10.52521,-23.53711 -23.50977,-23.53711 z m -54.8164,1.56445 c 12.13819,0 21.94726,9.83284 21.94726,21.97266 0,12.13819 -9.80907,21.9707 -21.94726,21.9707 -12.14063,0 -21.97071,-9.83251 -21.97071,-21.9707 0,-12.13982 9.83008,-21.97266 21.97071,-21.97266 z m 54.8164,0 c 12.13981,0 21.94727,9.83284 21.94727,21.97266 0,12.13819 -9.80746,21.9707 -21.94727,21.9707 -12.13981,0 -21.97265,-9.83251 -21.97265,-21.9707 0,-12.13982 9.83365,-21.97266 21.97265,-21.97266 z m -54.8164,2.02539 c -11.00432,0 -19.94141,8.93986 -19.94141,19.94336 0,11.00269 8.93709,19.94141 19.94141,19.94141 11.00269,0 19.9414,-8.93872 19.9414,-19.94141 0,-11.0035 -8.93871,-19.94336 -19.9414,-19.94336 z m 54.8164,0 c -11.0035,0 -19.94336,8.93986 -19.94336,19.94336 0,11.00269 8.93986,19.94141 19.94336,19.94141 11.0035,0 19.94336,-8.93872 19.94336,-19.94141 0,-11.0035 -8.93986,-19.94336 -19.94336,-19.94336 z m -54.8164,1.56445 c 10.15633,0 18.37695,8.21901 18.37695,18.37696 0,10.15714 -8.22062,18.3789 -18.37695,18.3789 -10.15795,0 -18.37891,-8.22176 -18.37891,-18.3789 0,-10.15714 8.22096,-18.37696 18.37891,-18.37696 z m 54.8164,0 c 10.15714,0 18.37696,8.21901 18.37696,18.37696 0,10.15714 -8.21982,18.3789 -18.37696,18.3789 -10.15714,0 -18.38086,-8.22176 -18.38086,-18.3789 0,-10.15714 8.22372,-18.37696 18.38086,-18.37696 z m -209.29882,6.72461 c -6.28737,0 -11.38868,5.12669 -11.38868,11.41407 0,6.28656 5.10131,11.39062 11.38868,11.39062 h 20.38281 c 6.28737,0 11.41211,-5.10407 11.41211,-11.39062 0,-6.28738 -5.12474,-11.41407 -11.41211,-11.41407 z m 56.40234,0 c -6.28736,0 -11.41406,5.12669 -11.41406,11.41407 0,6.28656 5.1267,11.39062 11.41406,11.39062 h 20.38281 c 6.28899,0 11.38867,-5.10407 11.38867,-11.39062 0,-6.28738 -5.09968,-11.41407 -11.38867,-11.41407 z m -56.40234,1.56446 h 20.38281 c 5.44182,0 9.84961,4.40698 9.84961,9.84961 0,5.44182 -4.40779,9.82421 -9.84961,9.82421 h -20.38281 c -5.44263,0 -9.82422,-4.3832 -9.82422,-9.82421 0,-5.44263 4.3824,-9.84961 9.82422,-9.84961 z m 56.40234,0 h 20.38281 c 5.44425,0 9.82422,4.40698 9.82422,9.84961 0,5.44182 -4.37997,9.82421 -9.82422,9.82421 h -20.38281 c -5.44262,0 -9.84766,-4.3832 -9.84766,-9.82421 0,-5.44263 4.40504,-9.84961 9.84766,-9.84961 z m -145.33984,2.48242 c -4.04218,13.0128 -14.292924,23.27772 -27.302744,27.32617 0.12686,-0.45149 0.19727,-0.95861 0.19727,-1.5293 v -23.68164 c 0,-0.72812 0.18028,-1.17251 0.43945,-1.4414 0.25917,-0.26889 0.68952,-0.46485 1.51562,-0.46485 h 23.632824 c 0.57223,0 1.07398,-0.0753 1.51758,-0.20898 z m 88.9375,0.0273 c -4.02852,0 -7.3086,3.3019 -7.3086,7.33203 0,4.02933 3.28089,7.3086 7.3086,7.3086 h 20.38281 c 4.02852,0 7.30664,-3.2817 7.30664,-7.3086 0,-4.03013 -3.27812,-7.33203 -7.30664,-7.33203 z m 56.40234,0 c -4.02851,0 -7.30664,3.3019 -7.30664,7.33203 0,4.02933 3.27975,7.3086 7.30664,7.3086 h 20.38281 c 4.03014,0 7.3086,-3.2817 7.3086,-7.3086 0,-4.03013 -3.28008,-7.33203 -7.3086,-7.33203 z m -224.66602,0.0371 c 0.449084,0.10201 0.946765,0.14258 1.507812,0.14258 h 23.779294 c 0.75889,0 1.16662,0.14608 1.39258,0.36719 0.22597,0.22111 0.41602,0.66059 0.41602,1.56445 v 23.6582 c 0,0.5796 0.0555,1.08095 0.16601,1.51758 -12.9639,-4.05257 -23.208045,-14.2867 -27.261716,-27.25 z m 168.26368,1.52735 h 20.38281 c 3.18297,0 5.74219,2.58218 5.74219,5.76757 0,3.18298 -2.55922,5.74414 -5.74219,5.74414 h -20.38281 c -3.18297,0 -5.74414,-2.56035 -5.74414,-5.74414 0,-3.18377 2.56036,-5.76758 5.74414,-5.76757 z m 56.40234,0 h 20.38281 c 3.18216,0 5.74414,2.5838 5.74414,5.76757 0,3.18298 -2.55955,5.74414 -5.74414,5.74414 h -20.38281 c -3.18215,0 -5.74219,-2.56035 -5.74219,-5.74414 0,-3.18377 2.56004,-5.76758 5.74219,-5.76757 z" />
</svg>
