<?xml version="1.0" encoding="UTF-8" standalone="no"?>
<!-- Generator: Adobe Illustrator 13.0.0, SVG Export Plug-In . SVG Version: 6.00 Build 14948)  -->

<svg
   version="1.2"
   id="Layer_1"
   x="0px"
   y="0px"
   width="586.96924"
   height="296.423"
   viewBox="0 0 586.96927 296.423"
   xml:space="preserve"
   sodipodi:docname="system.svg"
   inkscape:version="1.1.2 (0a00cf5339, 2022-02-04)"
   xmlns:inkscape="http://www.inkscape.org/namespaces/inkscape"
   xmlns:sodipodi="http://sodipodi.sourceforge.net/DTD/sodipodi-0.dtd"
   xmlns="http://www.w3.org/2000/svg"
   xmlns:svg="http://www.w3.org/2000/svg"
   xmlns:ns="&amp;#38;ns_sfw;"><defs
   id="defs33">
	
	
	
	
	

		
		
	
			
			
		
		
	
		
	
		
	</defs><sodipodi:namedview
   id="namedview31"
   pagecolor="#ffffff"
   bordercolor="#666666"
   borderopacity="1.0"
   inkscape:pageshadow="2"
   inkscape:pageopacity="0.0"
   inkscape:pagecheckerboard="0"
   showgrid="false"
   fit-margin-top="0"
   fit-margin-left="0"
   fit-margin-right="0"
   fit-margin-bottom="0"
   inkscape:zoom="1.306144"
   inkscape:cx="279.06572"
   inkscape:cy="23.351178"
   inkscape:window-width="1920"
   inkscape:window-height="996"
   inkscape:window-x="0"
   inkscape:window-y="0"
   inkscape:window-maximized="1"
   inkscape:current-layer="Layer_1" />
<metadata
   id="metadata2">
	<ns:sfw>
		<ns:slices />
		<ns:sliceSourceBounds
   x="677.032"
   y="402.334"
   width="566.938"
   height="274.331"
   bottomLeftOrigin="true" />
	</ns:sfw>
</metadata>
<path
   id="path850"
   d="m 344.25915,0.00698467 c -5.85053,0.2185537 -11.57008,1.58480603 -17.35479,2.36791983 -7.97599,1.2991582 -15.99196,2.4247124 -23.94034,3.9423914 -9.99635,2.4329275 -18.86163,8.2907351 -26.1027,15.4719011 -2.71895,2.728596 -5.23458,5.663311 -7.46936,8.801772 -3.95624,-6.412671 -10.34079,-11.307498 -17.62802,-13.286726 -4.93111,-1.397119 -10.18523,-1.525017 -15.21182,-0.578508 -0.84399,0.136827 -1.97546,0.313314 -2.92987,0.465374 -22.80195,3.609442 -45.60295,7.224928 -68.40412,10.839313 -1.85244,9.972084 -3.7058,19.943998 -5.55859,29.916016 -2.59918,0.139131 -5.12678,0.828863 -7.70035,1.175283 C 124.56022,63.762522 97.351402,70.191504 71.383439,80.203028 56.641071,85.9279 42.267145,92.910296 29.453732,102.25145 c -9.307703,6.841 -17.785205,15.16626 -23.3767951,25.36744 -4.6854918,8.60663 -6.98604345,18.63515 -5.74366955,28.40982 1.19566195,10.21408 5.82891815,19.79076 12.18067665,27.78848 8.285091,10.55644 19.084848,18.82469 30.390881,25.90635 6.168431,3.83831 12.56427,7.30997 19.123856,10.43188 -2.08312,11.27533 -4.255198,22.53641 -6.185001,33.83786 -0.668625,6.35219 2.462626,13.16622 8.19672,16.20901 4.138143,2.34452 9.154124,2.34016 13.683856,1.32804 L 226.2611,247.96011 c -3.00392,16.15429 -6.00773,32.30861 -9.01172,48.46289 11.85227,-1.83597 23.70956,-3.86195 35.5526,-5.52201 14.6155,-1.7155 29.22463,-5.56428 41.9257,-13.18502 5.24051,-3.14705 10.10385,-6.93066 14.3967,-11.28516 3.08367,0.99892 6.35329,0.4873 9.52889,0.58051 44.50366,-0.23389 89.09147,-3.74831 132.78967,-12.37527 22.67877,-4.54439 45.13651,-10.52572 66.65866,-19.06409 13.51233,-5.42699 26.6685,-11.96043 38.53255,-20.45491 9.34174,-6.75073 17.91536,-14.92057 23.69357,-24.98566 4.73862,-8.29776 7.32491,-17.96951 6.48454,-27.54729 -0.77876,-9.82445 -4.76639,-19.2086 -10.54934,-27.12128 -7.67576,-10.69752 -18.04172,-19.13067 -28.95885,-26.33669 -15.28429,-9.968049 -32.00918,-17.502882 -49.04314,-23.9349 -17.90062,-6.703682 -36.30137,-12.000054 -54.88655,-16.434246 5.00161,-6.014507 10.02024,-12.014807 15.03125,-18.021484 -19.62499,5.015683 -31.65893,8.894615 -49.92969,13.382813 -15.68919,-3.164389 -28.5241,-5.938136 -39.84765,-8.667969 1.58333,-0.251334 3.16663,-0.502842 4.75,-0.753906 0.65183,-4.047064 1.43674,-8.051869 2.20548,-12.104847 0.98145,-5.121914 1.48154,-10.417054 0.54924,-15.586614 C 374.73758,18.454459 370.03889,10.303579 362.75919,5.4599037 357.35557,1.783719 350.79005,-0.13117983 344.25915,0.00698467 Z M 151.27087,103.07144 c -18.27699,2.91269 -36.56417,5.7684 -54.826174,8.76953 -9.328608,2.3165 -16.644589,10.7177 -18.028736,20.1771 l -11.566967,62.22915 c -2.998703,-1.58352 -6.100482,-3.34286 -8.90625,-5.04297 -8.946947,-5.48601 -17.60831,-11.74087 -24.394913,-19.828 -4.058999,-4.84832 -7.483039,-10.59962 -8.114852,-17.00794 -0.558205,-6.0627 1.907397,-12.00355 5.475387,-16.79215 4.65871,-6.3339 10.881908,-11.3201 17.359942,-15.68498 11.619979,-7.69454 24.463492,-13.33083 37.512696,-18.11596 5.732833,-2.075732 11.550827,-3.978996 17.447627,-5.721676 15.82676,-4.684613 32.12461,-8.3097 48.44425,-11.198354 l 3.08431,-0.537659 c -1.1621,6.251302 -2.32421,12.502605 -3.48632,18.753909 z M 419.47985,88.327297 c 2.08085,1.49226 4.6022,2.129799 7.08413,2.571916 13.7503,3.007064 27.41391,6.441216 40.8729,10.568707 -5.1644,0.83687 -10.34274,1.61122 -15.48206,2.58408 -6.66842,1.61268 -12.78102,5.09604 -18.05505,9.39639 -6.4315,-3.34271 -13.97028,-4.7316 -21.1239,-3.31482 -9.27957,1.49219 -18.56421,2.95258 -27.8468,4.42615 11.49414,-8.76042 22.98828,-17.520834 34.48242,-26.281251 z M 249.98376,112.12026 c 0.58758,7.97827 3.87046,15.86217 9.67917,21.44778 0.67871,0.66849 1.39087,1.30339 2.13528,1.89793 -5.69527,2.0104 -11.02387,5.0351 -15.70703,8.8457 -6.46647,-3.74399 -14.19663,-5.55121 -21.62305,-4.30859 -2.80409,0.39876 -5.65681,0.9634 -8.37521,1.33535 -5.88582,0.92843 -11.77061,1.86708 -17.65604,2.79941 l 2.8125,-15.09375 c 8.57138,-1.38544 17.17851,-2.63703 25.72931,-4.20427 8.65043,-2.07779 16.44867,-6.85504 23.00116,-12.7801 z m 283.49609,18.20899 c 8.27111,5.45313 16.22035,11.71309 22.13585,19.74668 3.51183,4.84112 6.20601,10.63203 5.98628,16.73291 -0.16918,5.43907 -2.60243,10.54316 -5.85305,14.81107 -4.73554,6.30432 -11.02725,11.23395 -17.54584,15.57627 -10.28549,6.72277 -21.52797,11.84441 -32.97444,16.24301 -16.95802,6.4609 -34.53062,11.18611 -52.25682,15.00162 -15.44461,3.31366 -31.05305,5.83056 -46.72245,7.80836 -4.80112,0.60224 -9.71096,1.15724 -14.53262,1.65318 -20.69223,2.11838 -41.36944,3.28849 -62.14172,3.66263 -1.52387,0.0245 -3.04777,0.0506 -4.57175,0.067 1.27168,-3.21207 2.33602,-6.50479 3.23437,-9.83984 36.0801,-5.72385 72.16006,-11.44856 108.24024,-17.17188 -0.13109,-0.60042 0.73997,-0.23242 1.0957,-0.36523 4.60461,-0.30244 9.11256,-1.35675 13.67765,-1.97512 22.71686,-3.60181 45.43342,-7.20553 68.15048,-10.80613 3.04328,-16.38874 6.08816,-32.77717 9.13085,-49.16602 -0.6277,-0.44712 -1.25536,-0.89431 -1.88281,-1.34179 2.44156,-4.46495 4.0045,-9.37545 4.79481,-14.39472 0.46439,-2.28312 0.83463,-4.591 0.98449,-6.91778 z"
   sodipodi:nodetypes="ccccccccccccccccccccccccccccccccccccccccccccccccccccccccccccccccccccccccccccccccccccccccccccccccccc" /><g
   id="g28"
   transform="translate(10.016962,9.9991722)">
	<g
   id="g6">
		<path
   fill="#c61717"
   d="m 57.9,201.665 c -0.39,0 -0.787,-0.088 -1.161,-0.271 C 18.76,182.96 -0.85,161.473 0.028,139.247 c 0.714,-18.296 15.645,-35.57 43.177,-49.959 26.123,-13.65 62.969,-24.482 106.557,-31.33 1.454,-0.227 2.815,0.766 3.043,2.218 0.229,1.452 -0.764,2.813 -2.217,3.043 C 62.295,77.085 6.644,106.298 5.35,139.458 c -0.777,19.661 18.299,39.957 53.715,57.146 1.323,0.645 1.875,2.231 1.233,3.561 -0.462,0.946 -1.41,1.5 -2.398,1.5 z"
   id="path4" />
	</g>
	<g
   id="g10">
		<path
   fill="#c61717"
   d="m 388.979,65.167 c -0.145,0 -0.289,-0.011 -0.436,-0.035 -28.057,-4.606 -57.67,-7.681 -88.022,-9.133 -1.472,-0.069 -2.604,-1.317 -2.533,-2.787 0.07,-1.468 1.341,-2.589 2.787,-2.531 30.558,1.463 60.379,4.557 88.636,9.196 1.447,0.238 2.434,1.607 2.193,3.06 -0.216,1.305 -1.343,2.23 -2.625,2.23 z"
   id="path8" />
	</g>
	<g
   id="g14">
		<path
   fill="#c61717"
   d="m 305.16,247.033 c -0.746,0 -1.486,0 -2.232,-0.003 -1.471,-0.003 -2.655,-1.198 -2.651,-2.671 0.005,-1.467 1.19,-2.652 2.658,-2.652 0.004,0 0.008,0 0.013,0 0.73,0.002 1.479,0.002 2.215,0.002 142.504,0.002 254.953,-37.04 256.436,-84.646 C 562.12,140.405 548.738,123.502 522.89,108.19 497.156,92.939 460.271,79.94 416.23,70.601 c -1.438,-0.306 -2.355,-1.72 -2.053,-3.157 0.303,-1.439 1.721,-2.354 3.158,-2.052 44.6,9.459 82.039,22.674 108.27,38.217 27.615,16.364 41.902,34.907 41.316,53.62 -0.787,25.316 -28.754,48.396 -78.748,64.975 -48.339,16.026 -113.257,24.829 -183.013,24.829 z"
   id="path12" />
	</g>
	<polygon
   fill="#c61717"
   points="341.114,87.776 317.91,63.624 325.308,97.091 255.009,150.675 337.58,117.708 360.78,141.861 353.382,108.404 423.681,54.818 "
   id="polygon16" />
	<g
   id="g26">
		<path
   fill="#c61717"
   d="m 265.343,175.296 c 1.008,-4.961 2.846,-4.239 7.877,-5.039 l 4.683,-0.737 -1.458,7.809 -4.683,0.748 c -5.031,0.797 -7.246,2.143 -6.419,-2.781 z m -10.153,-7.148 -3.645,19.605 c -0.998,5.354 0.62,7.078 5.772,6.264 l 29.831,-4.732 6.395,-34.387 -29.833,4.726 c -5.155,0.817 -7.531,3.172 -8.52,8.524 z m 189.368,-30.95 -0.348,1.896 30.771,-4.885 c 2.429,-0.39 4.796,-2.845 5.291,-5.5 0.485,-2.653 -1.075,-4.492 -3.507,-4.104 l -7.902,1.248 -12.609,2.007 -3.195,0.5 c -3.696,0.591 -7.751,4.805 -8.501,8.838 z m -215.887,88.669 0.25,-1.367 c 1.058,0.08 2.476,0.489 3.714,0.305 l 31.98,-5.017 c -1.188,6.38 -9.615,7.979 -22.475,10.017 l -14.637,2.325 -7.848,42.202 19.229,-3.047 c 47.345,-4.674 65.357,-29.143 71.139,-58.313 l 57.688,-9.156 9.295,-50.021 4.692,-0.75 c 5.142,-0.815 4.384,-1.746 3.396,3.597 l -8.508,45.77 41.416,-6.572 0.567,-3.033 c 3.126,1.379 6.778,1.865 10.646,1.258 l 71.625,-11.36 6.68,-35.953 -4.643,-3.306 c 4.023,-4.764 7.158,-10.593 8.066,-15.485 l 1.129,-5.67 c 3.572,-21.207 -15.979,-26.838 -24.9,-25.42 l -41.104,6.521 c -7.279,1.156 -15.295,6.229 -21.127,12.949 -5.395,-5.342 -13.721,-7.418 -18.563,-6.649 l -45.76,7.259 5.123,11.322 41.27,-6.54 c 5.951,-0.948 9.928,1.428 11.019,6.14 -0.438,1.248 -11.019,57.579 -11.019,57.579 l -14.797,2.349 7.934,-42.646 c 0.982,-5.34 -0.633,-7.067 -5.771,-6.25 l -28.356,4.504 -9.304,50.021 -16.266,2.589 10.645,-57.271 -13.391,-15.796 -48.203,17.425 22.846,-3.625 0.369,-0.051 -14.527,78.155 c -3.691,19.854 -24.877,38.84 -43.668,41.823 l -19.229,3.048 2.916,-15.642 14.627,-2.313 c 12.859,-2.047 27.336,-14.916 29.833,-28.375 l 1.578,-8.468 -38.09,6.041 c -8.167,1.298 -12.6,-3.663 -10.993,-12.291 l 6.83,-36.741 c 1.208,-6.529 5.282,-11.951 10.733,-14.769 l 0.09,-0.979 19.109,-14.707 -11.163,1.877 c -5.939,0.938 -16.953,5.392 -23.951,14.317 -5.292,-6.313 -14.547,-8.786 -19.759,-7.959 l -41.055,6.521 6.69,-35.962 29.953,-4.752 c 15.944,-2.526 33.586,-20.458 36.721,-37.301 l 4.503,-24.232 C 257,27.138 245.149,13.888 229.204,16.416 l -65.457,10.384 -13.948,75.041 -60.275,9.565 c -5.102,0.81 -10.064,5.841 -11.062,11.231 L 55.935,243.79 c -0.999,5.394 2.326,9.112 7.429,8.31 l 115.008,-18.252 9.305,-50.021 4.682,-0.748 c 5.152,-0.81 4.393,-1.735 3.395,3.604 l -8.506,45.756 z m -85.343,-27.426 -38.459,6.101 1.448,-7.808 31.061,-4.938 7.558,-40.646 -31.061,4.936 1.447,-7.814 38.459,-6.104 z m -2.327,12.51 -3.195,17.191 -68.042,10.795 21.207,-114.121 56.211,-8.916 -2.906,15.635 -39.937,6.342 -6.1,32.828 32.539,-5.162 -2.905,15.627 -32.539,5.162 -6.11,32.836 z m 78.156,4.296 -16.274,2.571 7.927,-42.633 c 0.999,-5.344 -0.619,-7.078 -5.771,-6.262 l -28.355,4.504 -9.294,50.021 -16.275,2.586 12.201,-65.652 0.379,-0.063 53.984,-8.563 c 8.167,-1.299 12.6,3.652 10.993,12.289 z m 105.761,-80.506 15.905,-2.516 -12.211,65.652 -16.267,2.578 12.199,-65.646 z m 98.686,30.943 5.647,-30.372 c 1.791,-9.604 12.113,-19.04 20.908,-20.438 l 38.049,-6.029 c 6.412,-1.021 10.865,6.14 9.557,13.147 l -1.865,9.774 c -1.311,7.009 -8.469,14.458 -14.875,15.476 l -39.498,6.271 -0.568,3.545 c -0.75,4.03 1.926,7.18 5.621,6.59 l 44.147,-7.029 -2.976,16.02 -49.801,7.896 c -8.796,1.392 -16.124,-5.239 -14.346,-14.851 z M 188.206,80.568 193.728,50.865 214.435,47.58 c 2.716,-0.43 4.104,1.119 3.564,3.983 l -3.774,20.329 c -0.54,2.875 -2.596,4.961 -5.312,5.391 z"
   id="path18" />
		<g
   id="g24">
			<path
   fill="#c61717"
   d="m 320.565,94.466 -4.396,-17.412 -2.479,0.299 -0.797,4.293 c -0.552,2.977 -2.943,5.4 -5.753,5.852 l -17.015,2.695 c -2.808,0.449 -4.414,-1.348 -3.862,-4.323 l 8.575,-46.117 c 0.55,-2.965 2.943,-5.392 5.748,-5.841 l 17.02,-2.695 c 2.807,-0.448 4.412,1.349 3.857,4.313 l -1.098,5.87 34.396,-5.462 1.308,-7.029 C 359.365,11.168 347.302,-2.32 330.507,0.335 L 297.601,5.558 C 280.819,8.224 262.848,26.475 259.554,44.216 L 250.4,93.459 c -3.295,17.741 8.766,31.229 25.56,28.564 l 11,-1.737 z"
   id="path20" />
			<path
   fill="#c61717"
   d="m 344.946,83.962 c 0.897,-2.416 1.519,-3.334 1.979,-5.812 l 1.168,-6.26 -13.688,2.176 z"
   id="path22" />
		</g>
	</g>
</g>
</svg>
