<?xml version="1.0" encoding="UTF-8" standalone="no"?>
<!-- Generator: Adobe Illustrator 13.0.0, SVG Export Plug-In . SVG Version: 6.00 Build 14948)  -->

<svg
   version="1.2"
   id="Layer_3"
   x="0px"
   y="0px"
   width="547.59924"
   height="310.81207"
   viewBox="0 0 547.59922 310.81206"
   xml:space="preserve"
   sodipodi:docname="controller.svg"
   inkscape:version="1.1.2 (0a00cf5339, 2022-02-04)"
   xmlns:inkscape="http://www.inkscape.org/namespaces/inkscape"
   xmlns:sodipodi="http://sodipodi.sourceforge.net/DTD/sodipodi-0.dtd"
   xmlns="http://www.w3.org/2000/svg"
   xmlns:svg="http://www.w3.org/2000/svg"
   xmlns:rdf="http://www.w3.org/1999/02/22-rdf-syntax-ns#"
   xmlns:cc="http://creativecommons.org/ns#"
   xmlns:dc="http://purl.org/dc/elements/1.1/"
   xmlns:ns="&amp;ns_sfw;"><defs
   id="defs50">
	

	

	

	

	
	

	
	
</defs><sodipodi:namedview
   id="namedview48"
   pagecolor="#ffffff"
   bordercolor="#666666"
   borderopacity="1.0"
   inkscape:pageshadow="2"
   inkscape:pageopacity="0.0"
   inkscape:pagecheckerboard="0"
   showgrid="false"
   fit-margin-top="0"
   fit-margin-left="0"
   fit-margin-right="0"
   fit-margin-bottom="0"
   inkscape:zoom="1.0263804"
   inkscape:cx="151.50329"
   inkscape:cy="91.096831"
   inkscape:window-width="1920"
   inkscape:window-height="996"
   inkscape:window-x="0"
   inkscape:window-y="0"
   inkscape:window-maximized="1"
   inkscape:current-layer="Layer_3" />
<metadata
   id="metadata55">
	<rdf:RDF>
		<cc:Work
   rdf:about="">
			<dc:format>image/svg+xml</dc:format>
			<dc:type
   rdf:resource="http://purl.org/dc/dcmitype/StillImage" />
			
		</cc:Work>
	</rdf:RDF>
	<ns:sfw>
		<ns:slices />
		<ns:sliceSourceBounds
   x="691.305"
   y="-7652"
   width="539.602"
   height="16383"
   bottomLeftOrigin="true" />
	</ns:sfw>
</metadata>
<path
   id="path3"
   style="fill:#000000"
   d="m 379.38266,0.00584444 c -73.80331,2.44e-4 -147.60678,-1.81e-4 -221.41016,0 -0.16081,0.238565 -0.98957,0.05931 -1.39453,0.142578 -7.36938,0.283713 -14.73842,1.34685096 -21.76933,3.61982996 -3.51839,1.087753 -6.96104,2.402255 -10.38692,3.749311 -1.25611,-0.38278 -2.58153,-0.443861 -3.87304,-0.546875 -4.18635,0.374292 -8.34093,1.096739 -12.42461,2.099346 -6.21867,1.4519346 -12.303726,3.4317706 -18.562576,4.7195256 -2.12763,0.463672 -4.11079,0.834043 -6.26697,1.225719 -14.979481,2.756384 -30.138512,4.409198 -45.109543,7.206772 -4.587623,0.938486 -9.283093,1.786585 -13.517798,3.868243 -6.113908,3.225795 -10.220666,9.380972 -12.141722,15.896566 -0.888473,3.145955 -1.606142,6.380129 -1.705297,9.655703 0.113238,2.74883 1.909666,5.389443 4.498047,6.376953 0.107281,0.426494 0.642171,0.916819 -0.101183,0.918896 -2.499116,0.705045 -4.576069,2.5657 -5.6555885,4.915305 -1.815474,3.655908 -2.181399,7.7978 -2.6319,11.794705 -0.68284,7.580087 -1.013994,15.186687 -1.485759,22.781957 -1.635065,28.306901 -3.086957,56.624241 -4.356038,84.950461 -0.56011701,9.92702 -1.40553801,20.00055 -0.96513701,30.00306 0.447154,10.05347 1.97527901,20.27174 6.35757101,29.4256 2.606278,5.54722 6.3655985,10.55439 11.0568955,14.50895 3.920921,3.28375 8.141541,6.33273 12.898326,8.28505 2.652597,1.03099 5.557104,1.67126 8.404297,1.24414 11.891832,4.85777 24.322485,8.22125 36.813149,11.13483 9.99932,2.39256 19.97936,4.78668 29.762716,8.07895 6.14578,1.99007 12.09997,4.50523 18.1517,6.75149 17.80104,6.33776 36.40245,10.1134 55.07085,12.80401 27.38749,3.89986 55.08239,5.2647 82.72931,5.19034 11.39473,-0.006 22.78974,0.0297 34.18427,-0.0326 26.99064,-0.25201 54.01241,-2.00231 80.68216,-6.26106 15.95321,-2.57999 31.81411,-6.072 47.07467,-11.44888 6.53475,-2.37206 12.92654,-5.13549 19.5604,-7.23316 3.2322,-1.06418 6.4395,-2.02531 9.73835,-2.96044 9.66583,-2.75488 19.72307,-4.84502 29.53677,-7.40891 9.05036,-2.29874 17.97297,-5.1197 26.63315,-8.61843 4.55606,0.65359 9.00286,-1.22387 12.86524,-3.46094 4.71759,-2.83734 9.12061,-6.26564 12.81445,-10.35938 6.18986,-7.03229 9.71734,-16.034 11.42929,-25.15615 2.43041,-12.76656 1.80441,-25.84337 0.97197,-38.73512 -0.5399,-8.18965 -0.79288,-16.45913 -1.21345,-24.6949 -1.31762,-27.47468 -2.78992,-54.94022 -4.46135,-82.395641 -0.4014,-5.045201 -0.62122,-10.158428 -1.93296,-15.070993 -0.80555,-2.751195 -2.13893,-5.596597 -4.72124,-7.087819 -0.80341,-0.511557 -1.81207,-0.844145 -2.64648,-1.117187 0.22459,-0.487287 0.44524,-0.896405 1.01172,-1.025391 2.60879,-1.32598 4.19136,-4.326231 3.8349,-7.22911 -0.22437,-2.58126 -0.74398,-5.137628 -1.40385,-7.64132 -1.64324,-6.038449 -5.00404,-11.789048 -10.18354,-15.44045 -3.77463,-2.677147 -8.40361,-3.600029 -12.82869,-4.61807 -7.76119,-1.650145 -15.62942,-2.721151 -23.46941,-3.916846 -10.17129,-1.506607 -20.26333,-2.93163 -30.32975,-5.017796 -7.78287,-1.555208 -15.28551,-4.2023146 -23.08522,-5.6922446 -3.61776,-0.711286 -7.33883,-1.42983 -11.03293,-0.946818 -0.61252,0.02978 -1.21581,0.476213 -1.7825,0.0564 -7.9427,-3.167773 -16.182,-5.833107 -24.73397,-6.65472596 -6.1416,-0.660352 -12.32736,-0.65327 -18.49676,-0.633397 z M 157.74594,7.5077974 c -0.037,0.219063 -0.11264,-0.161954 0,0 z m 227.53516,2.234375 c 1.83569,0.01671 3.58269,0.05137 5.38281,0.117188 0.87491,0.04424 2.0386,0.09764 3.02205,0.1673976 6.22794,0.364177 12.37433,1.670389 18.27264,3.684819 7.5911,2.57694 14.94762,5.784492 22.33264,8.889069 14.02251,5.986543 28.01841,12.165047 42.67182,16.476547 8.99896,2.686796 18.25264,4.578715 27.62054,5.325996 3.00456,0.322842 6.04541,0.449398 9.00933,1.060603 2.04037,0.447289 4.03474,1.553649 5.03324,3.459447 2.02722,3.352021 2.7159,7.28221 3.48994,11.065945 1.3491,7.355136 2.08984,14.742414 2.99969,22.158165 3.02329,26.428921 5.55901,52.929581 6.78859,79.508261 0.40795,8.1877 0.44668,16.37303 0.69747,24.58408 0.20664,6.0981 0.47586,12.14282 0.5727,18.21521 0.11565,6.46492 0.042,13.173 -0.78213,19.4572 -0.92911,6.93835 -2.8017,13.94786 -6.89037,19.73336 -3.78962,5.5442 -9.4548,9.5314 -15.52099,12.25331 -10.03101,4.43437 -20.50637,7.80258 -31.14023,10.45653 -12.2948,3.09894 -24.74512,5.63733 -36.82685,9.53013 -6.63349,2.08255 -13.11542,4.6048 -19.58546,7.13979 -7.14436,2.67552 -14.61075,4.86151 -21.92673,6.67594 -8.26854,2.03306 -16.62321,3.70547 -25.02539,5.08203 -12.09633,1.96977 -24.53558,3.40008 -36.76526,4.39397 -9.47504,0.7707 -18.96898,1.27939 -28.41443,1.59236 -15.57557,0.49781 -31.16122,0.27209 -46.74179,0.3274 -9.97446,0.006 -19.98229,-0.0601 -29.9094,-0.45845 -10.40726,-0.40271 -20.72138,-1.03929 -31.11137,-2.0166 -8.12719,-0.75012 -16.32304,-1.72762 -24.44056,-2.91681 -3.37458,-0.49814 -6.87964,-1.06192 -10.29297,-1.65625 -2.82702,-0.50684 -5.81568,-1.05738 -8.69202,-1.65181 -10.06399,-2.05287 -20.22603,-4.60095 -30.01805,-7.9532 -6.92364,-2.43013 -13.65093,-5.3923 -20.64553,-7.62524 -10.608666,-3.54221 -21.500536,-6.12648 -32.382676,-8.66818 -9.206933,-2.19015 -18.469176,-4.56742 -27.34833,-7.82718 -2.984091,-1.07762 -5.847269,-2.16938 -8.785648,-3.4239 -2.086781,-0.90501 -4.408887,-1.90423 -6.4698,-3.10626 -5.739143,-3.25805 -10.704247,-8.03706 -13.664415,-13.9801 -2.75055,-5.38846 -4.075473,-11.38094 -4.751341,-17.35788 -0.111342,-1.00317 -0.239241,-2.27392 -0.313717,-3.38349 -0.181663,-2.55732 -0.279077,-4.9683 -0.320628,-7.54577 -0.144377,-10.2126 0.544575,-20.35115 0.733403,-30.58224 0.141986,-8.29028 0.373918,-16.50155 0.831278,-24.78765 0.86603,-16.74286 2.302124,-33.51785 3.9564,-50.24616 1.249878,-12.337641 2.596561,-24.801851 4.200729,-37.123033 0.805756,-5.723182 1.512596,-11.526222 3.437386,-17.005017 0.888599,-2.448149 2.361604,-5.054571 5.01109,-5.872598 1.621446,-0.600841 3.347441,-0.827464 5.057809,-1.008727 0.488638,-0.04025 1.334244,-0.124784 1.961001,-0.176329 6.438466,-0.53531 12.872724,-1.265442 19.1975,-2.614291 C 75.376844,38.54397 91.157684,32.124094 106.68,25.423693 c 7.8263,-3.306273 15.60486,-6.73259 23.5425,-9.767458 1.06156,-0.395295 2.31595,-0.871315 3.39453,-1.257813 3.8708,-1.404226 7.84008,-2.549027 11.88477,-3.328125 0.4072,-0.07473 1.10868,-0.209006 1.56471,-0.277245 1.02462,-0.176159 2.2526,-0.349398 3.23998,-0.459083 1.42719,-0.167026 3.00344,-0.267463 4.34593,-0.3610856 6.09984,-0.36165 12.27903,-0.201939 18.44313,-0.238682 70.72852,-0.0037 141.45703,-4.5e-5 212.18555,0.008 z M 79.226414,26.037094 c -6.430198,2.315159 -12.963202,4.361288 -19.615234,5.939453 -0.762019,0.166656 -1.813193,0.414464 -2.687688,0.60664 -6.325897,1.385609 -12.813711,2.000366 -19.206635,2.538588 -4.543011,0.380275 -9.279136,1.285889 -12.961146,4.155553 -0.344048,0.244167 -1.162895,1.059801 -0.563826,0.237005 1.681671,-2.674562 4.208598,-4.974768 7.348792,-5.714653 6.743114,-2.021718 13.740503,-2.973717 20.672357,-4.099006 9.756992,-1.506874 19.545581,-2.814975 29.2751,-4.491705 -0.75391,0.276042 -1.50781,0.552083 -2.26172,0.828125 z M 466.76547,25.320297 c 13.61889,2.333701 27.35714,3.931069 40.9427,6.466114 2.37417,0.460227 4.78356,0.995823 7.03031,1.628112 2.01609,0.540067 4.07556,1.186358 5.65715,2.615774 1.30891,1.102835 2.40017,2.454089 3.27023,3.924766 -3.38716,-3.050576 -7.96799,-4.260872 -12.40435,-4.706721 -2.83183,-0.30527 -5.63602,-0.478649 -8.3825,-0.790153 -1.44825,-0.154044 -2.89421,-0.324332 -4.25128,-0.510201 -5.35074,-0.689633 -10.61966,-1.892404 -15.82124,-3.307378 -1.02951,-0.291276 -2.31832,-0.642822 -3.44038,-0.986146 -4.45237,-1.31976 -8.8484,-2.823668 -13.2022,-4.437683 0.20052,0.03451 0.40104,0.06901 0.60156,0.103516 z M 275.40805,33.38475 c -16.85768,-0.04233 -33.71985,0.0798 -50.56523,0.765557 -20.97193,0.817301 -41.9166,2.415397 -62.74746,4.993086 -3.6919,0.477248 -7.40791,0.795543 -11.07859,1.416172 -5.24156,1.029195 -10.23542,3.933171 -13.17429,8.473569 -3.39653,5.056636 -4.6157,11.171253 -5.50228,17.096763 -1.31349,9.12759 -1.81179,18.345722 -2.51144,27.534062 -2.00998,29.230221 -3.59331,58.493091 -4.45456,87.780571 -0.19056,6.54993 -0.32555,13.18906 -0.39584,19.68631 -1.67398,-3.40826 -4.88416,-5.96503 -8.55165,-6.91747 -13.82899,-3.50776 -27.654626,-7.04261 -41.497176,-10.49659 -4.261702,-0.82578 -8.835572,0.64147 -11.875583,3.72445 -3.572423,3.46788 -4.851774,9.02765 -3.200584,13.71891 1.3306,4.09062 4.767231,7.39948 8.912119,8.55992 3.936401,1.06243 7.907838,2.00268 11.855328,3.02824 11.33214,2.874 22.663706,5.75027 33.996216,8.62278 0.008,-0.52308 -0.11667,-1.15841 0.63282,-1.00781 4.14083,-0.67147 7.85327,-3.44709 9.74023,-7.1836 0.0769,6.46637 0.22213,12.93881 0.79492,19.38282 -1.27,-4.24674 -4.81863,-7.69315 -9.09424,-8.85714 -7.56262,-1.9518 -15.14337,-3.84455 -22.712516,-5.77484 -6.41516,-1.60873 -12.81791,-3.28161 -19.24644,-4.82771 -4.552611,-0.8321 -9.40452,0.9987 -12.385693,4.5112 -3.186106,3.63592 -4.087694,9.05611 -2.284107,13.53745 1.461101,3.91225 4.892123,6.97274 8.919102,8.05172 15.205858,3.87711 30.423248,7.72122 45.633974,11.58393 0.007,-0.52496 -0.11477,-1.15773 0.63477,-1.00782 5.42785,-0.85849 10.04344,-5.3848 10.9553,-10.81324 0.0964,-0.26711 0.13221,-1.37643 0.19018,-1.01389 0.6191,5.26748 2.35553,10.44922 5.41697,14.80895 4.33706,6.18302 10.92888,10.39464 17.81371,13.24995 8.58465,3.58883 17.80287,5.19606 26.8762,7.02558 20.36358,3.86878 40.94121,6.60102 61.59911,8.28726 7.87428,0.62989 15.77457,0.95551 23.6747,0.8425 11.09505,-0.0173 22.19122,0.053 33.28553,-0.053 13.40448,-0.40298 26.75666,-1.80691 40.06004,-3.44077 17.12771,-2.16825 34.20483,-4.90289 51.02279,-8.8387 8.48579,-2.10783 16.941,-5.24496 23.80078,-10.80859 4.90201,-4.01535 8.61723,-9.52217 10.20296,-15.68075 1.31826,-4.98215 1.60962,-10.1565 1.99195,-15.27413 0.701,-12.34045 0.52594,-24.71015 0.30967,-37.06258 -0.63767,-29.73748 -2.23623,-59.44599 -4.13953,-89.12681 -0.66243,-9.737701 -1.31327,-19.479911 -2.26863,-29.194141 -0.7501,-6.82765 -1.55896,-13.79908 -4.34056,-20.149875 -1.91865,-4.265193 -5.17278,-8.010886 -9.43139,-10.0463 -3.57611,-1.811627 -7.60456,-2.333533 -11.54303,-2.723113 -12.88917,-1.568617 -25.79667,-3.007247 -38.74803,-3.955466 -25.47286,-1.928664 -51.0302,-2.514125 -76.57052,-2.427465 z m 2.25391,9.707031 c 16.72044,-0.0065 33.42442,0.210621 50.10677,0.991089 10.43926,0.4675 20.87045,1.141011 31.31149,2.040358 8.30244,0.714329 16.72791,1.624341 25.01458,2.624592 3.53787,0.470331 7.10121,0.755881 10.62392,1.329758 2.89511,0.536235 5.72068,2.108893 7.18183,4.74569 1.03543,1.665246 1.7273,3.517944 2.25555,5.399373 0.0908,0.315128 0.27906,1.056794 0.39258,1.539062 0.67678,2.94846 1.13588,5.93804 1.49749,8.879499 0.40125,3.296596 0.70854,6.564136 0.97233,9.826757 1.25034,15.87501 2.24135,31.747351 3.12783,47.658981 1.01571,18.78601 1.91321,37.69869 2.3947,56.49558 0.31269,12.97775 0.56277,25.96824 0.0798,38.9449 -0.20775,4.78046 -0.49288,9.49024 -1.22635,14.2115 -0.5282,3.75672 -1.9313,7.41721 -4.32195,10.38737 -3.25865,4.05176 -7.87351,6.75399 -12.59025,8.78487 -5.14312,2.18163 -10.69444,3.53016 -16.07227,4.69531 -16.50812,3.52623 -33.21253,6.07122 -49.97265,8.04883 -8.15959,0.94655 -16.36415,1.739 -24.613,2.28737 -3.0591,0.1959 -6.36075,0.35633 -9.47564,0.42574 -6.20853,0.10633 -12.41881,0.009 -18.62816,0.0435 -7.91133,-0.0172 -15.82393,0.0435 -23.73437,-0.0691 -3.1324,-0.0958 -6.44446,-0.27928 -9.57039,-0.49533 -18.40675,-1.30739 -36.67707,-3.64006 -54.90433,-6.71672 -6.34934,-1.08593 -12.5739,-2.26893 -18.86727,-3.64641 -1.49489,-0.32587 -3.15267,-0.70228 -4.50893,-1.02189 -7.3433,-1.82358 -14.76236,-4.36354 -20.66471,-9.25832 -3.49619,-2.97025 -6.05331,-7.06675 -6.9424,-11.5877 -0.85849,-4.10883 -1.12435,-8.31384 -1.40748,-12.49357 -0.666,-12.42601 -0.44619,-24.87728 -0.21646,-37.31248 0.36468,-16.74619 1.07701,-33.47602 1.9229,-50.22418 0.97164,-18.9097 2.1153,-37.89158 3.55586,-56.804091 0.59925,-7.16 1.12933,-14.364795 2.71612,-21.388772 0.75824,-2.947076 1.74258,-5.995038 3.81879,-8.294827 2.07972,-2.290649 5.22191,-3.095919 8.19117,-3.403301 12.40096,-1.478649 24.76313,-2.961866 37.21874,-3.936312 24.80936,-2.004652 49.63682,-2.712012 74.5451,-2.701972 3.59636,-0.0017 7.19271,-0.0034 10.78907,-0.0051 z m 171.93164,5.402344 c -4.76672,0.09965 -9.0619,4.128229 -9.47161,8.878726 -0.55957,4.644216 2.65947,9.403435 7.19464,10.582312 4.43948,1.323831 9.60939,-0.990588 11.57933,-5.186244 2.08161,-4.083387 0.81802,-9.534938 -2.89552,-12.241592 -1.81091,-1.396794 -4.12211,-2.128115 -6.40684,-2.033202 z m -57.58203,9.63086 c -80.20638,0 -160.41276,0 -240.61914,0 -0.0916,0.555256 0.266,1.317466 -0.36211,1.614973 -1.79879,1.515749 -2.5763,3.967231 -2.34297,6.267449 0.002,51.553433 -0.007,103.107503 0.0137,154.660543 0.0795,3.60022 3.5309,6.6516 7.1082,6.36133 78.91312,-0.001 157.82653,0.004 236.73946,-0.0117 3.61261,-0.0788 6.67198,-3.55403 6.36718,-7.14101 -0.002,-51.79602 0.007,-103.59266 -0.0137,-155.388284 -0.09,-3.526457 -3.3727,-6.541533 -6.89062,-6.363281 z m 57.93164,0.07617 c 0.38713,-0.05657 0.24675,0.628984 -0.11328,0.34375 -0.10296,-0.114944 -0.0141,-0.300414 0.11328,-0.34375 z m -60.74024,9.638671 c 0,49.824874 0,99.649744 0,149.474614 -76.93359,0 -153.86719,0 -230.80078,0 0,-49.82487 0,-99.64974 0,-149.474614 76.93359,0 153.86719,0 230.80078,0 z M 63.712742,91.523419 c -4.040516,0.13746 -7.542025,3.88406 -7.373257,7.93086 -0.0039,4.816671 -0.007,9.633331 -0.0056,14.450001 -5.172246,0.0237 -10.350869,-0.0663 -15.518994,0.0585 -3.945042,0.40272 -7.136533,4.21644 -6.867512,8.16922 0.02482,7.32207 -0.05412,14.64799 0.04666,21.96758 0.36081,3.98216 4.197611,7.23093 8.182422,6.96093 4.719141,0 9.438281,0 14.157422,0 0.0237,5.16378 -0.06633,10.33394 0.05851,15.49361 0.393367,3.93935 4.194936,7.13796 8.143831,6.86751 7.331831,-0.0249 14.66756,0.0542 21.99687,-0.0467 3.97829,-0.36148 7.20622,-4.20691 6.93164,-8.18243 0,-4.71067 0,-9.42135 0,-14.13203 5.17419,-0.0238 10.354756,0.0665 15.524826,-0.0587 3.94055,-0.40639 7.13059,-4.22015 6.86175,-8.16867 -0.0252,-7.32285 0.0543,-14.64956 -0.0467,-21.96992 -0.36091,-3.9808 -4.19594,-7.23301 -8.18046,-6.96094 -4.7198,0 -9.439586,0 -14.159376,0 -0.0237,-5.17225 0.0663,-10.35087 -0.0585,-15.518991 -0.39484,-3.89815 -4.12607,-7.09131 -8.04188,-6.86578 -7.21716,0.004 -14.434495,-0.008 -21.651558,0.006 z m 434.117188,7.41602 c -8.27775,0.32588 -16.19009,5.138731 -20.33379,12.305431 -4.22145,7.10336 -4.5511,16.34037 -0.81034,23.71429 3.61303,7.33381 11.02562,12.65824 19.15634,13.63347 7.54895,0.99474 15.48696,-1.695 20.82928,-7.13245 5.54951,-5.49839 8.24135,-13.70532 6.99804,-21.4217 -1.17976,-7.85317 -6.35681,-14.97963 -13.49061,-18.48429 -3.80174,-1.911041 -8.09966,-2.811751 -12.34892,-2.614751 z M 68.69907,103.42967 c 0.635021,0.0613 1.276282,0.015 1.914063,0.0293 -0.926559,0.80876 -1.555226,1.88964 -2.105469,2.97461 0.01942,-0.98752 -0.02072,-2.04586 0.07227,-2.98828 0.03902,-0.009 0.07874,-0.019 0.11914,-0.0156 z m 12.554684,0.0293 c 0.17228,0.15484 -0.0614,0.59133 0.0352,0.81797 0,0.71302 0,1.42604 0,2.13906 -0.61909,-1.03103 -1.11685,-2.17382 -2.06445,-2.95703 0.67643,0 1.35286,0 2.02929,0 z m 418.466796,7.83398 c 5.3998,0.21156 10.35081,4.33938 11.53061,9.61462 1.0867,4.48574 -0.48797,9.51404 -4.03865,12.49087 -3.78384,3.29076 -9.58995,3.98939 -14.01555,1.60302 -4.03324,-2.10039 -6.75651,-6.49288 -6.73291,-11.05535 -0.0652,-4.75123 2.77462,-9.42555 7.10503,-11.43154 1.90207,-0.92031 4.04286,-1.33519 6.15147,-1.22162 z m -51.44922,4.37891 c -8.28131,0.32444 -16.19329,5.14317 -20.33911,12.31066 -4.20201,7.07707 -4.54942,16.27106 -0.84871,23.63037 3.66207,7.50866 11.31048,12.92032 19.63649,13.76297 7.44778,0.8482 15.20826,-1.87658 20.45445,-7.24041 5.27586,-5.29022 7.97412,-13.02778 7.05574,-20.45094 -0.8968,-8.07079 -6.0296,-15.51951 -13.25964,-19.22163 -3.89033,-2.02665 -8.31753,-2.99688 -12.69922,-2.79102 z M 46.033055,126.05663 c 0.937719,0.0656 1.882064,0.008 2.822265,0.0273 -1.033678,0.62339 -2.184772,1.1206 -2.96875,2.07422 0.0505,-0.6807 -0.07335,-1.49985 0.08398,-2.0957 0.02053,-0.004 0.04153,-0.007 0.0625,-0.006 z m 57.845695,0.0293 c 0.16204,0.19307 -0.0545,0.65245 0.0346,0.91602 -0.0423,0.50272 0.19157,1.62441 -0.40681,0.76049 -0.74671,-0.69937 -1.64235,-1.2122 -2.54769,-1.67651 0.97331,0 1.94662,0 2.91992,0 z m 346.22852,1.93946 c 5.38503,0.18917 10.34274,4.27269 11.56017,9.52319 1.1564,4.59538 -0.50616,9.77915 -4.21846,12.75434 -3.86076,3.2207 -9.70313,3.79443 -14.07851,1.2876 -3.2186,-1.8061 -5.63252,-5.06417 -6.24953,-8.72138 -0.20927,-1.04074 -0.28262,-2.36928 -0.14928,-3.52315 0.41006,-4.49119 3.408,-8.64143 7.59786,-10.34799 1.74112,-0.73638 3.65038,-1.06638 5.53775,-0.97261 z m -375.039056,1.89257 c 1.86218,0.0271 3.08812,2.42511 1.98276,3.94041 -0.86548,1.41995 -3.127281,1.59345 -4.122922,0.22725 -1.15457,-1.26249 -0.522795,-3.49776 1.091214,-4.01722 0.331538,-0.13365 0.693688,-0.17777 1.048948,-0.15044 z m -29.089847,6.95508 c 0.796691,0.86309 1.822433,1.46793 2.863281,1.99024 -0.987755,-4.6e-4 -1.986257,-0.0178 -2.966796,-0.043 -0.0063,-0.67848 0.02119,-1.37028 0.0098,-2.05469 l 0.06575,0.0753 z m 57.910153,1.99414 c -0.96917,-0.002 -1.956,-0.0109 -2.93164,-0.006 1.02798,-0.61953 2.17144,-1.11436 2.95117,-2.0625 -0.007,0.68946 -0.013,1.37891 -0.0195,2.06836 z M 69.507664,160.25 c 0.292594,0.45988 0.662856,0.86949 1.068359,1.23242 -0.678446,-0.0496 -1.491232,0.0713 -2.08789,-0.082 0.04751,-0.95584 0.0092,-1.91992 0.02148,-2.87891 0.332682,0.57617 0.665365,1.15234 0.998047,1.72852 z m 11.78125,1.20312 c -0.1577,0.16801 -0.58768,-0.0579 -0.81602,0.0347 -0.4178,-0.0765 -1.74029,0.229 -0.9286,-0.34144 0.73399,-0.75674 1.26786,-1.678 1.74462,-2.61122 0,0.97266 0,1.94531 0,2.91797 z m 406.550776,18.44727 c -2.50425,0.32131 -4.90816,1.14295 -7.37337,1.66449 -16.74188,4.09182 -33.49878,8.12754 -50.2275,12.26905 -3.86247,1.19289 -6.09131,5.91436 -4.57461,9.6586 0.39626,1.10915 1.08679,2.1036 1.95282,2.89809 -2.45361,2.15229 -3.11222,5.9686 -1.62112,8.85432 0.34066,0.82299 1.07637,1.57601 1.56644,2.18279 -2.36262,2.12508 -3.02804,5.80404 -1.636,8.64739 0.35844,0.88323 1.07657,1.69134 1.65748,2.33308 -2.29372,2.05793 -3.0115,5.56693 -1.80273,8.38672 0.40912,0.98278 1.02296,1.88512 1.82031,2.59375 -2.43721,2.15761 -3.09279,5.95987 -1.60688,8.84037 1.35767,2.89519 4.74444,4.56547 7.87568,4.01577 2.53035,-0.55091 5.03616,-1.23639 7.56129,-1.82335 16.42721,-4.01243 32.8672,-7.97661 49.28291,-12.03312 3.81016,-1.16906 6.10404,-5.76306 4.67393,-9.49949 -0.39049,-1.17134 -1.10926,-2.22259 -2.01935,-3.05292 2.35799,-2.09202 3.09989,-5.73345 1.75781,-8.58398 1.39557,-1.04506 2.7903,-2.09123 4.18555,-3.13672 -1.60742,-0.18815 -3.21485,-0.3763 -4.82227,-0.56445 2.11364,-2.92338 1.58593,-7.34116 -1.10351,-9.72657 2.37984,-2.10817 3.08537,-5.78463 1.71595,-8.64436 -0.40331,-0.89218 -0.99088,-1.70113 -1.71791,-2.35759 2.37526,-2.10893 3.09203,-5.78105 1.71987,-8.64046 -1.22105,-2.76427 -4.27558,-4.48824 -7.26479,-4.28141 z M 72.701023,193.21874 c 2.824291,0.53136 5.572331,1.39994 8.371211,2.04725 6.79423,1.72383 13.58846,3.44766 20.382696,5.1715 -1.23722,2.14574 -1.871416,4.63907 -1.800786,7.11523 -9.51899,-2.42505 -19.03255,-4.79474 -28.525386,-7.27148 -2.102334,-0.80679 -2.985737,-3.71621 -1.588874,-5.51767 0.710163,-0.9904 1.937443,-1.61556 3.161139,-1.54483 z m 40.285157,10.26562 c 2.39043,-0.10422 4.36058,2.53708 3.54296,4.79492 -0.64168,2.04198 -3.21795,3.22265 -5.12896,2.15549 -1.8899,-0.89696 -2.68773,-3.51102 -1.45697,-5.24728 0.66774,-0.99914 1.81712,-1.7303 3.04297,-1.70313 z M 72.689305,222.6367 c 2.861359,0.53954 5.647009,1.41367 8.482499,2.07088 6.76104,1.71596 13.52208,3.43192 20.283126,5.14787 -1.23671,2.14575 -1.871306,4.6392 -1.800786,7.11524 -9.51684,-2.42583 -19.04917,-4.79846 -28.550777,-7.2793 -2.17646,-0.84956 -2.997471,-3.95629 -1.407933,-5.7149 0.72336,-0.86432 1.859916,-1.40513 2.993871,-1.33979 z m 40.515625,10.26758 c 2.38128,0.0395 4.20817,2.78138 3.25151,4.98319 -0.73422,1.96824 -3.28079,3.0004 -5.12856,1.92627 -1.83114,-0.92106 -2.59004,-3.47298 -1.3992,-5.18292 0.69315,-1.08521 1.97088,-1.82723 3.27625,-1.72654 z" />

























<path
   id="path906"
   d="m 164.08383,4.0058444 0.006,0.01367 c -11.778,0 -19.02976,0.760156 -28.00976,3.535156 -3.47396,1.073523 -7.39465,2.5581986 -11.75391,4.2988276 -0.32817,-0.230738 -0.74518,-0.442511 -1.28906,-0.576172 -0.88962,-0.216663 -2.07724,-0.28687 -3.89844,-0.132812 v -0.002 c -3.655,0.311 -9.81284,1.513078 -20.589836,4.580078 -10.644,3.027 -26.68252,5.283014 -41.10352,7.416016 -7.21,1.066 -14.010219,2.09389 -19.574219,3.21289 -5.565,1.119 -9.832984,2.251 -12.208984,3.75 -8.917,5.621 -10.239016,16.401531 -10.791016,20.269531 -0.161,1.122 0.03147,2.064813 0.480469,2.757813 0.45,0.692 1.119234,1.069109 1.740234,1.287109 0.572,0.199 1.109688,0.250578 1.554688,0.267578 0.03681,0.864555 0.221046,2.207593 1.466797,3.447266 -0.275269,1.405106 -0.58125,2.599422 -0.835938,4.203125 -0.748134,0.114803 -1.513887,0.159132 -2.322265,0.300781 -0.993,0.175 -2.050969,0.587422 -2.917969,1.607422 -1.736,2.039 -2.774735,6.061011 -3.427735,15.291017 -1.3009995,18.391 -4.6408115,82.14748 -5.3828115,101.27148 -0.369,9.486 -1.952078,23.28452 -0.830078,36.97852 1.122,13.694 4.953984,27.34728 15.5839835,36.36328 3.19,2.72 6.672625,5.23486 10.015625,6.88086 3.293407,1.62305 6.490882,2.44877 9.222657,1.66211 29.332256,12.03431 48.428932,11.45306 80.318358,24.30469 33.322,13.429 84.78409,19.81445 138.24609,19.81445 h 31.16797 0.85547 c 53.464,0 104.93309,-6.38645 138.24609,-19.81445 31.89413,-12.85353 50.99141,-12.26881 80.33008,-24.3086 2.73353,0.79227 5.93167,-0.0364 9.22656,-1.66211 3.343,-1.646 6.82463,-4.1589 10.01563,-6.8789 10.63,-9.017 14.46398,-22.67224 15.58398,-36.36524 1.121,-13.694 -0.46308,-27.49151 -0.83008,-36.97851 -0.742,-19.121 -4.08281,-82.87749 -5.38281,-101.27149 -0.653,-9.228991 -1.69078,-13.251013 -3.42578,-15.291013 -0.869,-1.019 -1.95427,-1.431469 -2.94727,-1.605469 -0.81771,-0.143285 -1.5645,-0.190292 -2.31445,-0.308594 -0.24237,-1.52485 -0.48655,-3.005398 -0.74805,-4.339843 1.12332,-1.198732 1.35315,-2.470679 1.38672,-3.302735 0.445,-0.016 0.97974,-0.06658 1.55274,-0.267578 0.621,-0.217 1.29123,-0.593156 1.74023,-1.285156 0.449,-0.692 0.64247,-1.634813 0.48047,-2.757813 -0.551,-3.867 -1.874,-14.649531 -10.79102,-20.269531 -2.37599,-1.499 -6.64593,-2.631 -12.21093,-3.75 -5.552,-1.121 -12.34574,-2.148844 -19.55274,-3.214844 -14.42,-2.133 -30.45951,-4.388015 -41.10351,-7.416015 -10.778,-3.067 -16.93885,-4.270078 -20.58985,-4.580078 l -0.01,0.002 c -0.4565,-0.03875 -0.87319,-0.06256 -1.25586,-0.07422 -1.14802,-0.03497 -1.98708,0.04623 -2.65235,0.208984 -0.54867,0.13423 -0.94436,0.348344 -1.27148,0.580079 -4.38329,-1.748917 -8.32105,-3.2388996 -11.80664,-4.3164066 -8.979,-2.775 -16.20256,-3.535156 -27.97656,-3.535156 h -90.75 -37.94141 z m 0.0176,1.724609 -0.0117,0.0039 h 90.72266 37.9414 90.75 c 11.706,0 18.65661,0.729078 27.47461,3.455078 8.816,2.7239996 19.50683,7.4649526 38.42383,15.5019526 37.902,16.103 51.53125,15.047672 62.28125,16.388672 5.677,0.707 8.78428,2.457359 11.11328,7.068359 2.331,4.612 3.71531,12.220453 5.19531,24.314453 2.96403,24.209004 7.91522,69.943752 8.40626,105.468752 0.25,17.847 1.97987,34.95318 -0.45313,49.24218 -2.433,14.29 -8.86256,25.72939 -25.22656,32.77539 -30.857,13.29 -50.05474,12.03946 -83.30274,25.43946 -32.751,13.197 -83.73109,19.63608 -136.74609,19.70508 h -0.85352 -32.02539 c -53.327,0 -104.67451,-6.43808 -137.60351,-19.70508 -33.245996,-13.394 -52.439827,-12.14164 -83.298827,-25.43164 -16.363,-7.053 -22.791609,-18.49239 -25.224609,-32.77539 -2.4319995,-14.292 -0.704031,-31.3971 -0.457031,-49.2461 0.494,-35.524 5.445156,-81.261558 8.410156,-105.476558 1.482,-12.094 2.837016,-19.702453 5.166016,-24.314453 2.331,-4.611 5.463625,-6.361359 11.140625,-7.068359 10.751,-1.341001 24.381166,-0.286672 62.285154,-16.388672 18.910996,-8.036 29.579486,-12.778907 38.396486,-15.5039066 8.817,-2.725 15.79109,-3.453125 27.49609,-3.453125 z m 262.11328,7.0566406 c 0.55325,-0.01977 1.24692,-0.0027 2.10742,0.07031 3.436,0.292 9.51319,1.47439 20.24219,4.52539 l 0.24023,0.05273 c 10.86001,3.060001 26.76318,5.274626 41.07618,7.390626 7.205,1.066 13.99214,2.10689 19.49414,3.21289 5.5,1.106 9.75948,2.317813 11.64648,3.507813 8.141,5.132 9.42733,15.144453 9.98633,19.064453 0.117,0.825 -0.0199,1.280078 -0.21289,1.580078 -0.194,0.299 -0.48147,0.486187 -0.85547,0.617187 -0.75,0.262 -1.66211,0.160157 -1.66211,0.160157 l -1.07031,-0.134766 0.10742,1.044922 c 0,0 -0.002,0.80876 -0.29492,1.689453 -0.75014,-3.268824 -1.59001,-6.041239 -2.67774,-8.195313 -2.546,-5.051 -6.47817,-7.276484 -12.45117,-8.021484 -11.035,-1.375 -24.08408,-0.217953 -61.83008,-16.251953 -10.17201,-4.322378 -17.86473,-7.634314 -24.29687,-10.259766 0.16273,-0.01547 0.25429,-0.0457 0.45117,-0.05273 z m -305.7793,0.002 c 0.59069,-0.01826 1.05054,7.93e-4 1.43946,0.03711 -6.43896,2.629907 -14.14014,5.94807 -24.353516,10.287109 -37.735988,16.034 -50.787264,14.877906 -61.822264,16.253906 -5.971,0.745 -9.905172,2.967859 -12.451172,8.005859 -1.084602,2.147036 -1.90885,5.048173 -2.654296,8.339844 -0.352666,-0.938767 -0.31836,-1.832031 -0.31836,-1.832031 l 0.08008,-1.044922 -1.042968,0.132813 c 0,0 -0.911157,0.100843 -1.660157,-0.160157 -0.376,-0.132 -0.665375,-0.318187 -0.859375,-0.617187 -0.193,-0.298 -0.33189,-0.754125 -0.21289,-1.578125 0.56,-3.921 1.846328,-13.933453 9.986328,-19.064453 1.888,-1.191 6.121092,-2.400813 11.621094,-3.507813 5.501998,-1.106 12.315531,-2.14789 19.519531,-3.21289 14.409,-2.131 30.427011,-4.355313 41.291011,-7.445313 h 0.0254 c 10.728994,-3.052 16.808144,-4.23339 20.244144,-4.52539 0.4295,-0.0365 0.81823,-0.05755 1.16796,-0.06836 z m 144.92774,24.595703 c -63.826,0 -97.30684,5.219313 -110.96484,6.695313 -7.051,0.763 -11.48341,3.745515 -14.19141,8.728515 -2.709,4.982 -3.81024,11.825455 -4.74024,20.564453 -1.87,17.572998 -9.10496,127.885532 -5.54296,160.394532 0.492,4.481 0.93881,10.86591 5.38281,17.00391 4.444,6.14 12.82153,11.93533 28.89453,15.61133 31.975,7.311 74.0842,11.7832 91.6582,11.7832 h 35.88086 c 17.572,0 59.68219,-4.4732 91.65821,-11.7832 16.07299,-3.677 24.44662,-9.47233 28.89062,-15.61133 4.444,-6.138 4.89281,-12.52091 5.38281,-17.00391 3.563,-32.509 -3.69936,-142.820534 -5.56836,-160.394532 -0.93,-8.739 -2.03223,-15.583453 -4.74023,-20.564453 -2.708,-4.983 -7.13945,-7.965515 -14.18945,-8.728515 -13.655,-1.476 -47.13885,-6.695313 -110.96485,-6.695313 h -16.8418 z m 0,1.712891 h 16.83984 c 63.733,0 96.98839,5.176969 110.77539,6.667969 6.668,0.721 10.39691,3.308044 12.87891,7.873047 2.483,4.564999 3.62973,11.231921 4.55273,19.919921 1.838,17.284001 9.02997,128.187535 5.54297,160.019535 -0.498,4.541 -0.91454,10.44683 -5.06054,16.17383 -4.147,5.728 -12.0844,11.35175 -27.9004,14.96875 -31.80299,7.273 -73.97485,11.72851 -91.25585,11.72851 h -35.88086 c -17.282,0 -59.48125,-4.45351 -91.28125,-11.72851 -15.817,-3.617 -23.75539,-9.24075 -27.90039,-14.96875 -4.147,-5.727 -4.56255,-11.63283 -5.06055,-16.17383 -3.488,-31.833 3.72936,-142.735534 5.56836,-160.019535 0.925,-8.688 2.04339,-15.354923 4.52539,-19.919921 2.483,-4.565 6.21091,-7.152047 12.87891,-7.873047 13.78499,-1.491 47.04534,-6.667969 110.77734,-6.667969 z M 449.9901,52.48636 c -3.263,0 -5.91797,2.655015 -5.91797,5.916015 0,3.262 2.65497,5.917969 5.91797,5.917969 3.26,0 5.91602,-2.656969 5.91602,-5.917969 0,-3.261 -2.65702,-5.916015 -5.91602,-5.916015 z m 0,1.71289 c 2.334,0 4.20117,1.868125 4.20117,4.203125 0,2.335 -1.86717,4.205078 -4.20117,4.205079 -2.337,0 -4.20508,-1.869079 -4.20508,-4.205079 0,-2.336 1.86808,-4.203125 4.20508,-4.203125 z m -294.59765,7.925782 v 0.002 c -1.487,0 -2.70508,1.218078 -2.70508,2.705078 v 155.49405 c 0,1.485 1.21808,2.70312 2.70508,2.70312 h 236.81836 c 1.48599,0 2.70507,-1.21812 2.70507,-2.70312 V 219.46874 64.830063 c 0,-1.486 -1.2191,-2.705078 -2.70507,-2.705078 z m 0,1.714843 h 236.81836 c 0.56099,0 0.99218,0.429235 0.99218,0.990235 V 220.3242 c 0,0.562 -0.4322,0.99024 -0.99218,0.99024 H 155.39243 c -0.561,0 -0.99024,-0.42924 -0.99024,-0.99024 V 64.830063 c 0,-0.561 0.42924,-0.990235 0.99024,-0.990235 z m -136.414083,0.25386 c -0.366094,2.472552 -0.719117,5.17369 -1.083984,8.154296 -2.969,24.240998 -7.9132025,69.998159 -8.4082025,105.660159 -0.247,17.75 -2.011532,34.8922 0.480468,49.5332 2.4491695,14.38752 9.2144165,26.35591 25.4160155,33.64844 -1.422554,-0.25911 -2.986857,-0.80288 -4.636719,-1.61523 -3.147,-1.55201 -6.525625,-3.95924 -9.640625,-6.61524 -10.135,-8.611 -13.9184835,-21.75461 -15.0214835,-35.22461 -1.103,-13.47 0.483422,-27.18001 0.857422,-36.79101 0.74,-19.07 4.0585145,-82.870551 5.3535145,-101.185551 0.645,-9.126006 1.842391,-12.908783 3.025391,-14.300782 0.592,-0.696 1.142734,-0.905922 1.927734,-1.044922 0.492012,-0.08638 1.090618,-0.14187 1.730469,-0.21875 z m 509.632813,0.01172 c 0.62865,0.07602 1.21453,0.13078 1.70507,0.216797 0.787,0.138 1.36208,0.349922 1.95508,1.044922 1.179,1.386 2.35205,5.168797 2.99805,14.216797 v 0.0801 c 1.296,18.319 4.64281,82.119499 5.38281,101.187499 0.372,9.61 1.93308,23.32301 0.83008,36.79101 -1.104,13.468 -4.86009,26.61494 -14.99609,35.21094 -3.113,2.657 -6.49168,5.06428 -9.63868,6.61328 -1.64534,0.81196 -3.20868,1.35502 -4.6289,1.61524 16.19185,-7.29228 22.95685,-19.25651 25.40429,-33.64063 2.493,-14.642 0.72943,-31.7842 0.48243,-49.5332 -0.494,-35.667 -5.44121,-81.422159 -8.40821,-105.660157 -0.36483,-2.976307 -0.72018,-5.672898 -1.08593,-8.142578 z M 64.134617,95.515609 c -2.102,0 -3.800781,1.72908 -3.800781,3.83008 v 17.966801 c 0,0.493 -0.109422,0.53715 -0.107422,0.53515 0.001,-0.002 -0.094,0.0547 -0.375,0.0547 H 41.777195 c -2.102,0 -3.830078,1.72512 -3.830078,3.82812 v 21.50196 c 0,2.101 1.729078,3.82812 3.830078,3.82812 h 17.994141 c 0.262,0 0.359734,0.0638 0.427734,0.13477 0.069,0.071 0.132813,0.19169 0.132813,0.42969 v 17.96679 c 0,2.102 1.701734,3.83008 3.802734,3.83008 h 21.529297 c 2.101,0 3.80078,-1.72908 3.80078,-3.83008 v -17.91407 c 0,-0.453 0.11242,-0.56555 0.10742,-0.56055 -0.004,0.004 0.0775,-0.0557 0.48242,-0.0547 h 17.968756 c 2.102,0 3.82812,-1.72813 3.82812,-3.82813 v -21.50391 c 0,-2.102 -1.72713,-3.82812 -3.82812,-3.82812 H 90.081884 c -0.342,0 -0.43742,-0.0888 -0.48242,-0.13477 -0.043,-0.045 -0.13282,-0.13407 -0.13282,-0.45507 V 99.345669 c 0,-2.101 -1.70273,-3.82813 -3.80273,-3.82813 z m 0,1.71289 h 21.529297 c 1.175,0 2.08789,0.94119 2.08789,2.11719 v 17.966801 c 0,0.606 0.18119,1.21015 0.61719,1.66015 0.435,0.449 1.06689,0.64258 1.71289,0.64258 h 17.941406 c 1.175,0 2.11523,0.93923 2.11523,2.11523 v 21.50196 c 0,1.175 -0.93923,2.11523 -2.11523,2.11523 H 90.056494 c -0.614,0 -1.25385,0.0945 -1.71485,0.5625 -0.461,0.468 -0.58984,1.10758 -0.58984,1.76758 v 17.91406 c 0,1.175 -0.91289,2.11524 -2.08789,2.11524 H 64.134617 c -1.175,0 -2.087891,-0.94024 -2.087891,-2.11524 v -17.96679 c 0,-0.597 -0.198234,-1.20377 -0.615234,-1.63477 -0.417,-0.431 -1.026156,-0.64063 -1.660156,-0.64062 H 41.777195 c -1.175,0 -2.115234,-0.94219 -2.115234,-2.11719 v -21.50196 c 0,-1.175 0.939234,-2.11718 2.115234,-2.11718 h 18.074219 c 0.431,0 0.985656,-0.0411 1.472656,-0.45313 0.489,-0.411 0.722657,-1.07565 0.722656,-1.84765 V 99.343739 c 0,-1.174 0.912891,-2.11524 2.087891,-2.11524 z m 4.333985,0.49414 0.0039,0.0215 c -3.125,0 -5.677735,2.552731 -5.677735,5.677731 v 16.59961 c 0,0.316 -0.07373,0.37261 -0.05273,0.34961 0.02,-0.022 0.06958,0 -0.107422,0 h -16.78906 c -3.125,0 -5.675782,2.55073 -5.675782,5.67773 v 12.85157 c 0,3.124 2.550782,5.67578 5.675782,5.67578 h 16.65625 c 0.038,0 0.110156,0.034 0.160156,0.082 0.05,0.048 0.132812,0.12812 0.132812,0.45312 v 16.41407 c 0,3.126 2.551735,5.67968 5.677735,5.67968 h 12.853516 c 3.125,0 5.67773,-2.55368 5.67773,-5.67968 v -16.6543 c 0,-0.299 0.023,-0.26019 0,-0.24219 -0.024,0.018 0.10908,-0.0527 0.45508,-0.0527 h 16.494136 c 3.125,0 5.67578,-2.55174 5.67578,-5.67774 v -12.85156 c 0,-3.126 -2.54978,-5.67773 -5.67578,-5.67773 H 87.406104 c -0.276,0 -0.28932,-0.0401 -0.32031,-0.082 -0.033,-0.04 -0.0801,-0.1814 -0.0801,-0.4004 l -0.004,-16.48828 c 0,-3.125 -2.55078,-5.675781 -5.67578,-5.675781 z m 0.0039,1.73633 h 12.853516 c 2.2,0 3.96289,1.763891 3.96289,3.962891 v 16.4668 c 0,0.476 0.0951,1.01765 0.45508,1.47265 0.36,0.456 0.99415,0.72461 1.66015,0.72461 h 16.546882 c 2.199,0 3.96289,1.76289 3.96289,3.96289 v 12.85157 c 0,2.198 -1.76489,3.96093 -3.96289,3.96093 H 87.456878 c -0.505,0 -1.029,0.0423 -1.5,0.40235 -0.47,0.361 -0.66797,1.01042 -0.66797,1.60742 v 16.6543 c 0,2.198 -1.76389,3.96289 -3.96289,3.96289 h -12.85351 c -2.198,0 -3.962891,-1.76489 -3.962891,-3.96289 v -16.41407 c 0,-0.695 -0.239578,-1.29954 -0.642578,-1.68554 -0.403,-0.388 -0.910234,-0.56446 -1.365234,-0.56446 h -16.65625 c -2.199,0 -3.962891,-1.76293 -3.962891,-3.96093 v -12.85352 c 0,-2.2 1.763891,-3.96289 3.962891,-3.96289 h 16.789062 c 0.472,0 1.019578,-0.1525 1.392578,-0.5625 0.374,-0.411 0.482422,-0.936 0.482422,-1.5 v -16.60156 c -0.001,-2.197 1.764891,-3.960941 3.962891,-3.960941 z M 499.01547,102.9121 c -11.555,0 -20.9375,9.38149 -20.9375,20.9375 0,11.55699 9.3835,20.9414 20.9375,20.9414 11.557,0 20.94141,-9.38443 20.94141,-20.9414 0,-11.55601 -9.38441,-20.93753 -20.94141,-20.9375 z m 0,1.71289 c 10.629,0 19.22852,8.5936 19.22852,19.22461 0,10.62899 -8.59852,19.22656 -19.22852,19.22656 -10.628,0 -19.22461,-8.59757 -19.22461,-19.22656 0,-10.63001 8.59661,-19.22461 19.22461,-19.22461 z m 0,0.93359 c -10.086,0 -18.25976,8.20011 -18.25976,18.28711 0,10.089 8.17376,18.29101 18.25976,18.29101 10.089,0 18.29102,-8.20201 18.29102,-18.29101 0,-10.087 -8.20102,-18.28711 -18.29102,-18.28711 z M 74.900238,105.8496 c -1.011014,-3e-5 -1.884924,0.58935 -2.294924,1.44335 l -4.605468,8.29883 c -0.336,0.429 -0.539063,0.97741 -0.539063,1.56641 0,1.411 1.142828,2.54683 2.548828,2.54883 h 9.781247 c 1.407,0 2.54683,-1.13983 2.54883,-2.54883 0,-0.343 -0.0684,-0.67461 -0.19336,-0.97461 v -0.041 l -4.98047,-8.91601 c -0.397,-0.802 -1.26462,-1.37697 -2.26562,-1.37695 z m 424.115232,1.42187 c 9.163,0 16.57617,7.41422 16.57617,16.57422 0,9.164 -7.41317,16.57617 -16.57617,16.57617 -9.16,0 -16.54687,-7.41317 -16.54687,-16.57617 0,-9.161 7.38687,-16.57422 16.54687,-16.57422 z m -424.115232,0.28906 c 0.328,0 0.613,0.18889 0.75,0.46289 l 4.83398,8.65625 0.0469,0.0918 c 0.059,0.113 0.0957,0.24572 0.0957,0.38672 -0.002,0.46 -0.37298,0.83198 -0.83398,0.83398 h -9.781254 c -0.46,-0.002 -0.835937,-0.37298 -0.835937,-0.83398 0,-0.206 0.07426,-0.39006 0.197265,-0.53906 l 0.05273,-0.0645 4.699221,-8.47656 c 0.158,-0.323 0.44539,-0.51658 0.77539,-0.51758 z m 374.556642,12.08399 c -11.557,0 -20.94141,9.3854 -20.94141,20.9414 0,11.557 9.38541,20.9375 20.94141,20.9375 11.555,0 20.93945,-9.3815 20.93945,-20.9375 0.001,-11.556 -9.38445,-20.9414 -20.93945,-20.9414 z m 0,1.71484 c 10.629,0 19.22656,8.59556 19.22656,19.22656 0,10.631 -8.59756,19.22461 -19.22656,19.22461 -10.631,0 -19.22656,-8.59361 -19.22656,-19.22461 10e-4,-10.63 8.59556,-19.22656 19.22656,-19.22656 z m 0,0.93359 c -10.089,0 -18.26172,8.20107 -18.26172,18.28907 0,10.086 8.17272,18.28906 18.26172,18.28906 10.087,0 18.28711,-8.20206 18.28711,-18.28906 10e-4,-10.088 -8.20011,-18.28907 -18.28711,-18.28907 z m 0,1.71485 c 9.161,0 16.57422,7.41122 16.57422,16.57422 0,9.16 -7.41322,16.57617 -16.57422,16.57617 -9.163,0 -16.54688,-7.41517 -16.54688,-16.57617 10e-4,-9.162 7.38388,-16.57422 16.54688,-16.57422 z m -374.556642,0.1875 c -4.559014,0 -8.275398,3.71544 -8.275392,8.27344 0,4.558 3.717378,8.27343 8.275392,8.27343 4.559,0 8.27344,-3.71543 8.27344,-8.27343 0,-4.558 -3.71444,-8.27344 -8.27344,-8.27344 z m -15.242189,0.43164 -10,5.58594 c -0.802,0.398 -1.378907,1.26462 -1.378907,2.26562 0,1.009 0.587453,1.88788 1.439454,2.29688 l 8.304687,4.60351 c 0.429,0.335 0.9755,0.53902 1.5625,0.54102 1.408,-0.002 2.548828,-1.14078 2.548828,-2.55078 v -9.7793 c 0,-1.386 -1.103562,-2.51083 -2.476562,-2.54883 z m 30.556639,0.41016 c -1.408,-10e-6 -2.54883,1.13882 -2.54883,2.54882 v 9.78125 c 0,1.408 1.14083,2.54688 2.54883,2.54688 0.423,0 0.83055,-0.10397 1.18555,-0.29297 l 0.15429,-0.082 0.01,-0.0137 8.580082,-4.78711 c 0.804,-0.4 1.37891,-1.26563 1.37891,-2.26563 -3e-5,-1.009 -0.58736,-1.88392 -1.44336,-2.29492 l -8.294932,-4.59961 c -0.43,-0.337 -0.97831,-0.54303 -1.57031,-0.54101 z m -15.31445,0.87304 c 3.633,0 6.56052,2.9246 6.56055,6.5586 0,3.632 -2.92755,6.56054 -6.56055,6.56054 -3.633014,0 -6.562502,-2.92854 -6.562502,-6.56054 0,-3.634 2.929488,-6.5586 6.562502,-6.5586 z m -15.314455,0.8418 c 0.462,0.002 0.833938,0.37398 0.835937,0.83398 v 9.7793 c -0.002,0.462 -0.374937,0.83589 -0.835937,0.83789 -0.204,-0.002 -0.390109,-0.0733 -0.537109,-0.19727 l -0.06055,-0.0527 -8.482422,-4.70117 c -0.322,-0.157 -0.515672,-0.44139 -0.513672,-0.77539 -0.002,-0.328 0.187844,-0.61 0.464844,-0.75 l 8.74414,-4.88281 c 0.113,-0.057 0.238766,-0.0898 0.384766,-0.0918 z m 30.626955,0 c 0.204,0 0.39101,0.0703 0.54101,0.19531 l 0.0625,0.0527 8.47657,4.69921 c 0.324,0.159 0.51367,0.44139 0.51367,0.7754 0.002,0.326 -0.18785,0.61 -0.46485,0.75 l -8.80078,4.9082 c -0.098,0.042 -0.20712,0.0684 -0.32812,0.0684 -0.461,0 -0.83399,-0.37399 -0.83399,-0.83399 v -9.78125 c 0,-0.46 0.37499,-0.83498 0.83399,-0.83398 z m -20.201174,18.48437 c -1.409,0 -2.548828,1.13983 -2.548828,2.54883 -0.002,0.346 0.06835,0.67652 0.19336,0.97852 v 0.0371 l 4.980468,8.91601 c 0.397,0.803 1.264631,1.37796 2.265624,1.37696 1.009,-0.002 1.88588,-0.58841 2.29688,-1.44141 l 4.60546,-8.30469 c 0.33402,-0.429 0.53516,-0.9745 0.53516,-1.5625 0,-1.406 -1.13983,-2.54883 -2.54883,-2.54883 z m 0,1.71485 h 9.779294 c 0.46,0 0.83399,0.37593 0.83399,0.83594 0,0.206 -0.0723,0.38915 -0.19532,0.53515 l -0.0527,0.0644 -4.70117,8.48047 c -0.158,0.323 -0.44044,0.51563 -0.77344,0.51563 -0.329,0 -0.61,-0.18885 -0.75,-0.46485 l -4.857421,-8.69921 -0.02344,-0.043 c -0.062,-0.117 -0.0957,-0.24669 -0.0957,-0.38867 0,-0.46 0.374937,-0.83594 0.835937,-0.83594 z M 488.2225,183.87889 c -0.22862,0.002 -0.45945,0.026 -0.68945,0.082 l -55.72266,13.57618 c -1.845,0.447 -2.96557,2.33378 -2.51757,4.17578 0.448,1.844 2.30639,2.99492 4.15039,2.54492 l 55.72265,-13.57422 c 1.842,-0.448 2.99097,-2.33669 2.54297,-4.17969 -0.335,-1.381 -1.48154,-2.35031 -2.81054,-2.57031 -0.22051,-0.036 -0.44716,-0.0564 -0.67579,-0.0547 z m 0.0899,1.71875 c 0.80924,-0.0362 1.53595,0.48542 1.73633,1.31055 0.229,0.942 -0.34316,1.88528 -1.28516,2.11328 l -55.72266,13.54883 c -0.943,0.229 -1.85889,-0.31481 -2.08789,-1.25781 -0.229,-0.943 0.34216,-1.88724 1.28516,-2.11524 l 55.72266,-13.54883 c 0.11761,-0.0286 0.23595,-0.0456 0.35156,-0.0508 z m -415.789067,1.90039 c -4.196,0 -8.012797,2.83203 -9.091797,7.08203 -0.197,0.772 -0.289062,1.54946 -0.289062,2.31446 0,4.193 2.830078,8.00689 7.080078,9.08789 l 40.496098,10.27343 v -0.004 c 0.7393,0.18735 1.51303,0.28875 2.31054,0.28906 5.183,-0.002 9.38477,-4.20372 9.38477,-9.38672 0,-4.45513 -3.10605,-8.18097 -7.26953,-9.14062 L 74.835838,187.7909 c -0.774035,-0.2 -1.550505,-0.29297 -2.312505,-0.29297 z m 0,1.71289 c 0.623,0 1.254654,0.0753 1.888675,0.23828 l 35.257812,8.94336 c -3.52394,1.35139 -6.02539,4.76287 -6.02539,8.76172 0,2.33612 0.85511,4.47073 2.26758,6.11328 l -35.26563,-8.94531 c -3.477,-0.879 -5.791016,-4.00573 -5.791016,-7.42773 0,-0.626 0.07628,-1.25868 0.238282,-1.88868 0.879998,-3.48 4.005687,-5.79492 7.429687,-5.79492 z m 415.699217,5.65821 c -0.22862,0.008 -0.45945,0.0392 -0.68945,0.0957 L 431.81044,208.541 c -1.844,0.449 -2.96557,2.33474 -2.51757,4.17774 0.448,1.842 2.30739,2.96457 4.15039,2.51757 l 55.72265,-13.54882 c 1.842,-0.448 2.99097,-2.33274 2.54297,-4.17774 -0.335,-1.381 -1.4825,-2.37866 -2.8125,-2.59765 v -0.002 c -0.2199,-0.0353 -0.44586,-0.0495 -0.67383,-0.041 z m 0.0899,1.70703 c 0.80924,-0.0316 1.53595,0.51148 1.73633,1.33398 0.229,0.945 -0.34316,1.88524 -1.28516,2.11524 l -55.72266,13.54687 c -0.944,0.23 -1.85689,-0.31186 -2.08789,-1.25586 -0.229,-0.944 0.34216,-1.88623 1.28516,-2.11523 l 55.72266,-13.57422 c 0.11761,-0.0288 0.23595,-0.0463 0.35156,-0.0508 z m -375.28321,2.90625 c 0.61248,0.001 1.20659,0.0765 1.77735,0.21289 l 0.10351,0.0254 v -0.002 c 3.3247,0.84337 5.78425,3.84949 5.79102,7.43359 -0.008,4.236 -3.43588,7.66587 -7.67188,7.67187 -4.238,-0.006 -7.66387,-3.43587 -7.67187,-7.67187 0.008,-4.233 3.43387,-7.66092 7.67187,-7.66992 z m 375.19336,6.38867 c -0.22862,0.009 -0.45945,0.0412 -0.68945,0.0977 l -55.72266,13.57421 c -1.844,0.448 -2.96557,2.30839 -2.51757,4.15039 0.448,1.844 2.30739,2.99197 4.15039,2.54297 l 55.72265,-13.54687 c 1.842,-0.448 2.99097,-2.33474 2.54297,-4.17774 -0.335,-1.382 -1.48154,-2.37665 -2.81054,-2.59765 -0.22051,-0.036 -0.44716,-0.0516 -0.67579,-0.043 z m 0.0899,1.70703 c 0.80924,-0.0315 1.53595,0.51081 1.73633,1.33594 0.229,0.942 -0.34316,1.85789 -1.28516,2.08789 l -55.72266,13.57617 c -0.944,0.229 -1.85689,-0.34216 -2.08789,-1.28516 -0.229,-0.941 0.34216,-1.85889 1.28516,-2.08789 l 55.71289,-13.57422 0.01,-0.004 c 0.11761,-0.0288 0.23595,-0.0443 0.35156,-0.0488 z m -0.0899,9.30273 c -0.22862,0.008 -0.45945,0.0402 -0.68945,0.0957 l -55.73047,13.58203 c -1.844,0.448 -2.96362,2.30839 -2.51562,4.15039 0.448,1.842 2.30643,2.99392 4.14843,2.54492 l 55.72266,-13.57617 c 1.843,-0.448 2.99392,-2.30839 2.54492,-4.15039 -0.337,-1.382 -1.4855,-2.37666 -2.8125,-2.59766 l 0.008,-0.006 c -0.22051,-0.0365 -0.44716,-0.0515 -0.67579,-0.043 z m -415.70117,0.0332 c -4.195,0 -8.010844,2.83303 -9.089844,7.08203 -0.197,0.771 -0.291016,1.5475 -0.291016,2.3125 1e-6,4.195 2.832985,8.01284 7.083985,9.08984 l 40.492185,10.27344 v -0.004 c 0.73976,0.18765 1.51449,0.28876 2.3125,0.28907 5.182,-0.002 9.38477,-4.20372 9.38477,-9.38672 0,-4.48482 -3.14531,-8.23202 -7.35156,-9.16211 L 74.835794,217.20702 c -0.773035,-0.2 -1.549458,-0.29297 -2.314458,-0.29297 z m 415.79102,1.67383 c 0.80924,-0.0312 1.53595,0.50973 1.73633,1.33398 0.229,0.943 -0.34316,1.85884 -1.28516,2.08984 l -55.72852,13.57227 c -0.943,0.23 -1.85984,-0.34311 -2.08984,-1.28711 -0.229,-0.942 0.34416,-1.85789 1.28516,-2.08789 l 55.7207,-13.57422 0.01,0.002 c 0.11761,-0.0286 0.23595,-0.0444 0.35156,-0.0488 z m -415.79102,0.041 c 0.626,0 1.256607,0.0743 1.890628,0.23828 l 35.253902,8.94141 c -3.52134,1.35337 -6.01994,4.7644 -6.02148,8.76172 4.5e-4,2.33764 0.85537,4.47421 2.26953,6.11719 l -35.269627,-8.94725 c -3.476,-0.879 -5.789063,-4.00369 -5.789063,-7.42969 0,-0.626 0.07433,-1.26062 0.236328,-1.89062 0.88,-3.478 4.007688,-5.79102 7.429688,-5.79102 z m 415.70117,9.25391 c -0.22862,0.008 -0.45945,0.0411 -0.68945,0.0976 l -55.72266,13.54883 c -1.844,0.448 -2.96557,2.33274 -2.51757,4.17774 0.448,1.842 2.30739,2.99197 4.15039,2.54297 l 55.72265,-13.57422 c 1.842,-0.45 2.99097,-2.31035 2.54297,-4.15235 -0.335,-1.384 -1.48154,-2.37965 -2.81054,-2.59765 -0.22051,-0.0365 -0.44716,-0.0515 -0.67579,-0.043 z m -375.19336,1.01562 c 0.58118,0.001 1.14742,0.0683 1.69141,0.19141 l 0.19141,0.0488 0.002,-0.004 c 3.32455,0.84343 5.78203,3.84931 5.78711,7.43359 -0.006,4.236 -3.43488,7.66288 -7.67188,7.67188 -4.236,-0.009 -7.66392,-3.43588 -7.66992,-7.67188 0.006,-4.234 3.43392,-7.66192 7.66992,-7.66992 z m 375.28321,0.69141 c 0.80924,-0.0314 1.53595,0.51061 1.73633,1.33398 0.229,0.943 -0.34316,1.85985 -1.28516,2.08985 l -55.72266,13.57617 c -0.944,0.229 -1.85889,-0.34316 -2.08789,-1.28516 -0.229,-0.942 0.34216,-1.85789 1.28516,-2.08789 l 55.71289,-13.57226 0.01,-0.006 c 0.11761,-0.0288 0.23595,-0.0443 0.35156,-0.0488 z"
   style="fill:#ffffff" /></svg>
