<?xml version="1.0" encoding="UTF-8" standalone="no"?>
<!-- Generator: Adobe Illustrator 16.0.3, SVG Export Plug-In . SVG Version: 6.00 Build 0)  -->

<svg
   version="1.1"
   id="svg2"
   inkscape:version="1.1.2 (0a00cf5339, 2022-02-04)"
   sodipodi:version="0.32"
   sodipodi:docname="system_color.svg"
   x="0px"
   y="0px"
   width="566.929px"
   height="66.041px"
   viewBox="0 0 566.929 66.041"
   enable-background="new 0 0 566.929 66.041"
   xml:space="preserve"
   xmlns:inkscape="http://www.inkscape.org/namespaces/inkscape"
   xmlns:sodipodi="http://sodipodi.sourceforge.net/DTD/sodipodi-0.dtd"
   xmlns="http://www.w3.org/2000/svg"
   xmlns:svg="http://www.w3.org/2000/svg"><defs
   id="defs16" />
<sodipodi:namedview
   height="206.5px"
   width="1772.6px"
   inkscape:window-x="0"
   inkscape:window-y="0"
   inkscape:current-layer="svg2"
   inkscape:pageshadow="2"
   inkscape:window-width="1920"
   inkscape:pageopacity="0.0"
   inkscape:window-height="995"
   objecttolerance="10.0"
   inkscape:cx="246.10631"
   borderopacity="1.0"
   inkscape:cy="44.194174"
   guidetolerance="10.0"
   pagecolor="#ffffff"
   inkscape:zoom="1.8101934"
   bordercolor="#666666"
   gridtolerance="10.0"
   id="base"
   inkscape:pagecheckerboard="0"
   showgrid="false"
   inkscape:window-maximized="1">
	</sodipodi:namedview>
<path
   id="path10"
   d="M 39.46875 -0.001953125 C 31.631768 -0.048525391 24.018281 2.185 16.675781 6.734375 C 10.704781 10.547375 6.1987813 15.324734 3.4257812 21.177734 C 0.57578125 27.032734 -0.38842188 33.5415 0.26757812 40.9375 C 0.72857813 45.3675 2.2697969 49.488609 4.9667969 53.224609 C 7.6617969 56.960609 11.090234 59.964094 15.365234 62.121094 C 21.566234 65.356094 28.306469 66.318172 35.355469 65.201172 L 57.195312 65.201172 L 62.664062 53.068359 L 64.667969 65.201172 L 195.93359 65.048828 C 198.78559 65.048828 201.63444 64.355937 204.52344 63.085938 C 207.37344 61.814937 209.83727 60.003531 212.07227 57.769531 C 215.73227 61.660531 220.08592 64.278359 225.16992 65.318359 C 232.06492 66.974359 238.72886 65.781453 245.00586 61.814453 L 245.81641 61.197266 L 245.19922 65.164062 L 271.92969 65.164062 L 272.58594 60.542969 C 274.16394 60.312969 275.43573 59.504297 276.55273 58.154297 L 349.23438 58.154297 C 360.40438 58.154297 368.60723 55.303453 373.61523 49.564453 L 379.00781 58.154297 L 456.77539 58.154297 L 456.77539 47.216797 L 470.75586 58.154297 L 566.85742 58.154297 L 566.85742 8.3125 L 462.74414 8.3125 L 462.74414 19.097656 L 448.95508 8.3125 L 393.56836 8.3125 L 386.75 21.255859 L 379.20117 8.234375 L 296.04492 8.234375 L 300.39453 1.265625 L 234.14453 1.265625 C 229.06053 1.341625 224.32477 2.7670625 220.00977 5.5390625 L 214.92578 9.2753906 C 212.69178 6.5793906 210.49589 4.691875 208.33789 3.421875 C 205.64289 1.919875 202.63894 1.265625 199.21094 1.265625 L 87.009766 1.265625 L 83.349609 12.433594 L 81.541016 1.265625 L 57.003906 1.265625 L 56.117188 3.3457031 L 53.806641 2.5351562 C 48.953016 0.87390625 44.170939 0.025990234 39.46875 -0.001953125 z M 39.378906 8.21875 C 43.148406 8.2452227 46.971047 8.9528898 50.841797 10.353516 L 49.378906 19.791016 C 45.796906 18.212016 41.521969 17.711359 36.667969 18.443359 C 31.583969 19.097359 27.346203 20.753641 24.033203 23.681641 C 20.375203 26.916641 18.449453 30.498797 18.064453 34.466797 C 17.755453 37.315797 18.371578 39.857266 19.642578 42.322266 C 21.144578 44.942266 23.379109 46.59725 26.537109 47.40625 L 34.394531 46.867188 L 35.126953 42.169922 L 27.652344 42.169922 L 29.001953 33.347656 L 46.873047 33.347656 L 44.255859 50.488281 L 62.359375 9.5449219 L 74.183594 9.5449219 L 80.539062 47.484375 L 92.900391 9.5449219 L 102.49219 9.5449219 L 107.19141 35.197266 L 118.13086 9.5449219 L 129.80273 9.5449219 L 131.76758 56.458984 L 122.17578 56.458984 L 120.9043 27.417969 L 108.34766 56.458984 L 101.83984 56.458984 L 96.447266 30.267578 L 88.050781 56.458984 L 71.640625 56.458984 L 69.175781 42.478516 L 58.083984 42.478516 L 51.650391 56.458984 L 41.636719 56.458984 L 43.060547 53.300781 L 42.675781 53.53125 C 39.016781 55.53525 35.279203 56.729937 31.158203 56.960938 C 27.422203 57.152935 23.877344 56.575266 20.527344 55.072266 C 17.215344 53.570266 14.441156 51.645219 12.285156 48.949219 C 10.127156 46.253219 8.8577813 43.172312 8.5507812 39.820312 C 7.4337813 28.304314 11.554234 19.482078 20.990234 13.705078 C 26.960234 10.021953 33.096406 8.1746289 39.378906 8.21875 z M 233.85938 9.4921875 C 235.17378 9.4933906 236.51361 9.6529531 237.88086 9.9707031 C 243.19786 11.164703 247.2405 14.514375 249.9375 19.984375 C 252.6355 25.415375 253.32622 31.423469 251.82422 37.855469 C 250.32222 44.365469 247.08838 49.527672 242.23438 53.263672 C 237.38037 56.922672 232.37347 58.192875 226.98047 56.921875 C 221.51147 55.727875 217.54448 52.377078 214.77148 46.830078 C 212.15248 41.477078 211.45881 35.390984 212.88281 28.958984 C 214.53881 22.448984 217.69878 17.287078 222.55078 13.705078 C 226.19053 10.903078 229.91616 9.4885781 233.85938 9.4921875 z M 140.08594 9.5078125 L 166.7793 9.5078125 L 165.19922 19.599609 L 148.29102 19.599609 L 147.01953 27.996094 L 161.84766 27.996094 L 160.26953 38.087891 L 145.59375 38.087891 L 144.24609 46.484375 L 161.19336 46.484375 L 159.46094 56.460938 L 132.57617 56.460938 L 140.08594 9.5078125 z M 247.08789 9.5078125 L 258.17969 9.5078125 L 264.15039 24.875 L 273.74023 9.5078125 L 284.94922 9.5078125 L 267.61719 36.894531 L 264.68945 56.460938 L 254.94531 56.460938 L 258.56445 34.273438 L 247.08789 9.5078125 z M 181.53125 9.8164062 L 199.48047 9.8164062 C 201.28947 9.8164065 203.13839 10.432953 205.02539 11.626953 C 207.14439 12.896953 208.68592 14.515297 209.91992 16.404297 C 212.76892 21.488297 211.49634 26.804734 206.02734 32.427734 C 208.76134 35.046734 210.34139 37.818094 210.65039 40.746094 C 210.91739 43.441094 210.34172 45.985516 208.76172 48.603516 C 207.25972 50.875516 205.3732 52.723562 202.9082 54.226562 C 200.4042 55.728563 198.01608 56.460938 195.70508 56.460938 L 174.13477 56.460938 L 181.53125 9.8164062 z M 491.67188 16.517578 L 511.04492 16.517578 C 514.58992 16.517578 516.82275 17.133297 518.09375 18.404297 C 519.36575 19.445297 520.09766 21.601891 520.09766 24.837891 L 520.09766 28.728516 L 510.58398 28.728516 L 510.58398 24.220703 L 492.17188 24.220703 L 492.17188 41.515625 L 510.58398 41.515625 L 510.58398 36.431641 L 520.09766 36.585938 L 520.09766 41.167969 C 520.09766 44.326969 519.36475 46.484734 518.09375 47.677734 C 516.82175 48.872734 514.39692 49.488281 511.04492 49.488281 L 491.67188 49.488281 C 488.28087 49.488281 485.97022 48.872734 484.69922 47.677734 C 483.39022 46.483734 482.69727 44.326969 482.69727 41.167969 L 482.69727 24.837891 C 482.69727 21.755891 483.39028 19.599297 484.73828 18.404297 C 486.00928 17.135297 488.31986 16.557578 491.67188 16.517578 z M 304.70898 16.556641 L 313.02734 16.556641 L 329.58984 43.980469 L 329.58984 16.595703 L 351.42969 16.595703 C 358.01569 16.595703 363.06241 18.212391 366.56641 21.525391 L 363.5625 16.595703 L 374.42383 16.595703 L 386.98047 38.164062 L 398.88281 16.597656 L 408.97461 16.597656 L 389.9082 49.529297 L 383.55469 49.529297 L 370.30469 27.689453 C 370.80669 29.345453 371.03516 31.117859 371.03516 33.005859 C 371.03516 43.981859 363.8338 49.529297 349.4668 49.529297 L 332.86523 49.529297 L 332.86523 49.605469 L 322.23438 49.605469 L 308.44531 25.185547 L 298.93164 42.248047 L 308.44531 42.248047 L 308.44531 49.566406 L 285.10352 49.566406 L 304.70898 16.556641 z M 414.67578 16.556641 L 423.0332 16.556641 L 439.5957 43.941406 L 439.5957 16.556641 L 446.02734 16.556641 L 471.17969 36.238281 L 471.17969 16.556641 L 479.80859 16.556641 L 479.80859 49.488281 L 473.33789 49.488281 L 448.41602 29.574219 L 448.41602 49.488281 L 442.94727 49.488281 L 442.94727 49.564453 L 432.20117 49.564453 L 418.41211 25.146484 L 409.05273 42.130859 L 418.48828 42.130859 L 418.48828 49.488281 L 405.00781 49.488281 L 405.00781 49.564453 L 395.14648 49.564453 L 414.67578 16.556641 z M 523.25586 16.556641 L 558.45703 16.556641 L 558.45703 24.027344 L 532.76953 24.027344 L 532.76953 28.765625 L 547.83008 28.765625 L 547.83008 36.007812 L 532.76953 36.007812 L 532.76953 41.861328 L 558.88281 41.861328 L 558.88281 49.488281 L 523.25586 49.488281 L 523.25586 16.556641 z M 234.1582 18.660156 C 232.51389 18.658721 230.83641 19.265938 229.17578 20.445312 C 226.48078 22.448312 224.39991 25.454578 223.12891 29.267578 C 221.85791 33.156578 221.51161 36.893734 222.47461 40.552734 C 223.36061 44.095734 225.09389 46.483438 227.71289 47.523438 C 230.17689 48.640438 232.79731 48.256906 235.57031 46.253906 C 238.26731 44.404906 240.34619 41.476937 241.61719 37.585938 C 242.92719 33.618938 243.11937 29.882781 242.23438 26.300781 C 241.34736 22.757781 239.69127 20.368125 237.07227 19.328125 C 236.11939 18.880375 235.14479 18.661018 234.1582 18.660156 z M 189.84961 19.714844 L 188.34766 28.380859 L 188.38672 28.421875 L 195.05078 28.421875 C 196.55278 28.421875 197.82428 27.958266 198.86328 27.072266 C 199.78928 26.224266 200.36553 25.261406 200.51953 24.066406 C 200.67353 22.873406 200.40394 21.8715 199.71094 21.0625 C 198.90194 20.1755 197.70891 19.714844 196.12891 19.714844 L 189.84961 19.714844 z M 339.02734 24.027344 L 339.02734 41.822266 L 347.84766 41.822266 C 352.85566 41.822266 356.43722 41.168312 358.32422 39.820312 C 360.28922 38.511312 361.32812 36.007125 361.32812 32.578125 C 361.32812 26.878125 358.01581 24.027344 351.50781 24.027344 L 339.02734 24.027344 z M 65.941406 24.259766 L 61.820312 33.310547 L 67.751953 33.310547 L 65.941406 24.259766 z M 193.77344 33.964844 L 199.20508 39.552734 C 198.16608 38.589734 196.74264 38.050781 194.93164 38.050781 L 186.84375 38.050781 L 185.3418 47.486328 L 193.81641 47.486328 C 195.97341 47.486328 197.55297 46.9475 198.66797 46.0625 C 199.78597 45.1385 200.40252 44.097172 200.47852 42.826172 C 200.55752 41.555172 200.09403 40.400672 199.20703 39.513672 L 193.77344 33.964844 z M 271.77539 47.5625 C 273.08439 47.5625 274.20289 48.101328 275.08789 48.986328 C 275.89889 49.872328 276.4375 50.912719 276.4375 52.261719 C 276.4375 53.532719 275.89889 54.572094 275.08789 55.496094 C 274.16389 56.383094 273.04539 56.921875 271.77539 56.921875 C 270.50439 56.921875 269.38895 56.383094 268.50195 55.496094 C 267.61695 54.573094 267.15234 53.532719 267.15234 52.261719 C 267.15234 50.951719 267.61695 49.873328 268.50195 48.986328 C 269.38795 48.101328 270.50439 47.5625 271.77539 47.5625 z M 271.77734 48.294922 C 270.66034 48.294922 269.65791 48.679281 269.00391 49.488281 C 268.19591 50.181281 267.80859 51.144719 267.80859 52.261719 C 267.80859 53.302719 268.19291 54.224203 269.00391 55.033203 C 269.69691 55.687203 270.66034 56.074219 271.77734 56.074219 C 272.89234 56.074219 273.89483 55.687203 274.54883 55.033203 C 275.20483 54.225203 275.66406 53.301719 275.66406 52.261719 C 275.66406 51.144719 275.24183 50.181281 274.54883 49.488281 C 273.89483 48.641281 272.93134 48.294922 271.77734 48.294922 z M 269.92773 49.564453 L 272.16211 49.564453 L 273.43359 49.873047 C 273.89459 50.027047 274.04777 50.450109 274.00977 50.912109 C 274.00977 51.952109 273.39452 52.414062 272.35352 52.414062 L 273.93359 54.802734 L 273.125 54.802734 L 271.69922 52.414062 L 270.66016 52.414062 L 270.66016 54.802734 L 269.92773 54.802734 L 269.92773 49.564453 z M 270.66016 50.142578 L 270.66016 51.798828 L 271.54492 51.798828 C 272.66192 51.798828 273.2793 51.530062 273.2793 50.914062 C 273.2793 50.451062 272.93098 50.142578 272.08398 50.142578 L 270.66016 50.142578 z "
   style="fill:#ffffff" />











</svg>
