<?xml version="1.0" encoding="UTF-8" standalone="no"?>
<!-- Generator: Adobe Illustrator 16.0.3, SVG Export Plug-In . SVG Version: 6.00 Build 0)  -->

<svg
   version="1.1"
   id="svg2"
   inkscape:version="1.1.2 (0a00cf5339, 2022-02-04)"
   sodipodi:version="0.32"
   sodipodi:docname="system_color.svg"
   x="0px"
   y="0px"
   width="574.79242"
   height="74.039673"
   viewBox="0 0 574.7924 74.039672"
   enable-background="new 0 0 566.929 66.041"
   xml:space="preserve"
   xmlns:inkscape="http://www.inkscape.org/namespaces/inkscape"
   xmlns:sodipodi="http://sodipodi.sourceforge.net/DTD/sodipodi-0.dtd"
   xmlns="http://www.w3.org/2000/svg"
   xmlns:svg="http://www.w3.org/2000/svg"><defs
   id="defs16" />
<sodipodi:namedview
   height="206.5px"
   width="1772.6px"
   inkscape:window-x="0"
   inkscape:window-y="0"
   inkscape:current-layer="svg2"
   inkscape:pageshadow="2"
   inkscape:window-width="1920"
   inkscape:pageopacity="0.0"
   inkscape:window-height="996"
   objecttolerance="10.0"
   inkscape:cx="265.99367"
   borderopacity="1.0"
   inkscape:cy="-13.534465"
   guidetolerance="10.0"
   pagecolor="#ffffff"
   inkscape:zoom="1.8101934"
   bordercolor="#666666"
   gridtolerance="10.0"
   id="base"
   inkscape:pagecheckerboard="true"
   showgrid="false"
   inkscape:window-maximized="1"
   fit-margin-top="0"
   fit-margin-left="0"
   fit-margin-right="0"
   fit-margin-bottom="0">
	</sodipodi:namedview>
<path
   id="path832"
   d="M 41.878906 0.017578125 C 31.173681 0.33407913 20.729145 4.6994764 12.677734 11.703125 C 7.1708492 16.560151 3.0984182 23.044112 1.2871094 30.171875 C -0.19820133 35.995479 -0.37152903 42.142698 0.63085938 48.060547 C 2.4284659 57.326589 8.958236 65.325304 17.289062 69.597656 C 23.761395 73.008764 31.298156 74.317422 38.544922 73.335938 C 40.634205 73.073905 42.878712 73.256407 45.029297 73.203125 L 63.714844 73.203125 C 64.079243 72.395099 64.443846 71.587165 64.808594 70.779297 C 64.940784 71.588644 65.074122 72.397802 65.207031 73.207031 C 110.37821 73.150841 155.5501 73.116749 200.7207 73.03125 C 206.23929 72.762178 211.5967 70.600037 215.91797 67.1875 C 219.83602 70.508915 224.66668 72.698983 229.72852 73.542969 C 234.87067 74.529533 240.28113 74.030863 245.17188 72.169922 C 245.82772 73.226899 247.18763 73.23502 248.29492 73.166016 L 279.33594 73.166016 C 279.60447 71.287323 279.86503 69.407438 280.13672 67.529297 C 280.90391 67.177612 281.56136 66.566533 282.25195 66.154297 C 306.50557 66.143927 330.76043 66.18374 355.01367 66.125 C 362.20506 65.92785 369.62949 64.526417 375.69727 60.464844 C 376.1184 60.35243 376.67857 59.362948 376.91992 60.085938 C 378.19079 62.108455 379.46151 64.13181 380.73242 66.154297 L 464.71094 66.154297 L 464.71094 59.429688 C 467.57826 61.671715 470.44451 63.915083 473.3125 66.15625 L 574.79297 66.15625 C 574.79296 46.875651 574.79297 27.595052 574.79297 8.3144531 L 462.67773 8.3144531 L 462.67773 14.890625 C 459.87423 12.698713 457.07172 10.505555 454.26758 8.3144531 L 395.08789 8.3144531 C 393.56469 11.206852 392.0396 14.098249 390.51562 16.990234 C 388.82346 14.072324 387.13232 11.153827 385.43945 8.2363281 L 307.18945 8.2363281 C 308.6395 5.912871 310.08948 3.5893741 311.53906 1.265625 C 286.80252 1.271505 262.06416 1.2448726 237.32812 1.2910156 C 230.83657 1.4890693 224.44135 3.8618235 219.38086 7.9316406 C 216.28355 4.8357845 212.3673 2.4294318 208.00195 1.7011719 C 203.95731 0.96119983 199.82879 1.3782494 195.74414 1.265625 C 149.95455 1.2653579 104.16602 1.2653722 58.378906 1.2675781 C 58.072271 1.6360089 58.043966 2.6693322 57.392578 2.2167969 C 52.379493 0.67657604 47.128083 -0.13225527 41.878906 0.017578125 z M 43.3125 12.220703 C 47.082 12.247176 50.902687 12.954844 54.773438 14.355469 L 53.3125 23.792969 C 49.7305 22.213969 45.455562 21.713313 40.601562 22.445312 C 35.517562 23.099314 31.279797 24.755594 27.966797 27.683594 C 24.308797 30.918594 22.381094 34.50075 21.996094 38.46875 C 21.687094 41.31775 22.303219 43.859219 23.574219 46.324219 C 25.076219 48.944219 27.312703 50.599203 30.470703 51.408203 L 38.326172 50.869141 L 39.058594 46.171875 L 31.585938 46.171875 L 32.933594 37.349609 L 50.806641 37.349609 L 48.1875 54.490234 L 66.292969 13.546875 L 78.115234 13.546875 L 84.472656 51.486328 L 96.833984 13.546875 L 106.42578 13.546875 L 111.125 39.199219 L 122.0625 13.546875 L 133.73633 13.546875 L 135.70117 60.460938 L 126.10938 60.460938 L 124.83789 31.419922 L 112.28125 60.460938 L 105.77344 60.460938 L 100.38086 34.269531 L 91.984375 60.460938 L 75.574219 60.460938 L 73.109375 46.480469 L 62.017578 46.480469 L 55.583984 60.460938 L 45.568359 60.460938 L 46.992188 57.302734 L 46.607422 57.533203 C 42.948422 59.537203 39.212797 60.731891 35.091797 60.962891 C 31.355797 61.154891 27.810938 60.577219 24.460938 59.074219 C 21.148938 57.572219 18.37475 55.647172 16.21875 52.951172 C 14.06075 50.255172 12.789422 47.174266 12.482422 43.822266 C 11.365422 32.306266 15.487828 23.485984 24.923828 17.708984 C 30.893828 14.025859 37.03 12.176582 43.3125 12.220703 z M 237.79297 13.494141 C 239.10737 13.495344 240.44525 13.654906 241.8125 13.972656 C 247.1295 15.166656 251.17214 18.516328 253.86914 23.986328 C 256.56714 29.417328 257.25981 35.425422 255.75781 41.857422 C 254.25581 48.367422 251.02197 53.529625 246.16797 57.265625 C 241.31397 60.924625 236.30511 62.194828 230.91211 60.923828 C 225.44311 59.729828 221.47612 56.379031 218.70312 50.832031 C 216.08414 45.479031 215.39045 39.392938 216.81445 32.960938 C 218.47045 26.450937 221.63042 21.290984 226.48242 17.708984 C 230.12217 14.906984 233.84975 13.490531 237.79297 13.494141 z M 144.01758 13.509766 L 170.71289 13.509766 L 169.13281 23.601562 L 152.22461 23.601562 L 150.95117 31.998047 L 165.7793 31.998047 L 164.20117 42.089844 L 149.52539 42.089844 L 148.17969 50.486328 L 165.12695 50.486328 L 163.39258 60.462891 L 136.50977 60.462891 L 144.01758 13.509766 z M 251.01953 13.509766 L 262.11133 13.509766 L 268.08398 28.876953 L 277.67383 13.509766 L 288.88281 13.509766 L 271.55078 40.896484 L 268.62109 60.462891 L 258.87891 60.462891 L 262.49609 38.275391 L 251.01953 13.509766 z M 185.46484 13.818359 L 203.41211 13.818359 C 205.22111 13.818359 207.07198 14.434906 208.95898 15.628906 C 211.07798 16.898906 212.61756 18.51725 213.85156 20.40625 C 216.70056 25.49025 215.42994 30.806687 209.96094 36.429688 C 212.69494 39.048687 214.27498 41.822 214.58398 44.75 C 214.85098 47.445 214.27531 49.987469 212.69531 52.605469 C 211.19331 54.877469 209.3068 56.725516 206.8418 58.228516 C 204.3378 59.730516 201.94967 60.462891 199.63867 60.462891 L 178.06836 60.462891 L 185.46484 13.818359 z M 495.60547 20.519531 L 514.97852 20.519531 C 518.52352 20.519531 520.75634 21.13525 522.02734 22.40625 C 523.29934 23.44725 524.03125 25.603844 524.03125 28.839844 L 524.03125 32.730469 L 514.51758 32.730469 L 514.51758 28.222656 L 496.10547 28.222656 L 496.10547 45.517578 L 514.51758 45.517578 L 514.51758 40.433594 L 524.03125 40.587891 L 524.03125 45.169922 C 524.03125 48.328922 523.29834 50.486688 522.02734 51.679688 C 520.75534 52.874688 518.33052 53.490234 514.97852 53.490234 L 495.60547 53.490234 C 492.21447 53.490234 489.90381 52.874688 488.63281 51.679688 C 487.32381 50.485688 486.63086 48.328922 486.63086 45.169922 L 486.63086 28.839844 C 486.63086 25.757844 487.32387 23.60125 488.67188 22.40625 C 489.94288 21.13725 492.25347 20.559531 495.60547 20.519531 z M 308.64258 20.558594 L 316.96094 20.558594 L 333.52148 47.982422 L 333.52148 20.597656 L 355.36133 20.597656 C 361.94733 20.597656 366.996 22.214344 370.5 25.527344 L 367.49414 20.597656 L 378.35547 20.597656 L 390.91211 42.166016 L 402.81641 20.599609 L 412.9082 20.599609 L 393.8418 53.53125 L 387.48633 53.53125 L 374.23633 31.691406 C 374.73833 33.347406 374.96875 35.119813 374.96875 37.007812 C 374.96875 47.983813 367.76544 53.53125 353.39844 53.53125 L 336.79883 53.53125 L 336.79883 53.607422 L 326.16797 53.607422 L 312.37891 29.1875 L 302.86523 46.25 L 312.37891 46.25 L 312.37891 53.568359 L 289.03711 53.568359 L 308.64258 20.558594 z M 418.60742 20.558594 L 426.9668 20.558594 L 443.52734 47.943359 L 443.52734 20.558594 L 449.96094 20.558594 L 475.11133 40.240234 L 475.11133 20.558594 L 483.74023 20.558594 L 483.74023 53.490234 L 477.26953 53.490234 L 452.34961 33.576172 L 452.34961 53.490234 L 446.88086 53.490234 L 446.88086 53.566406 L 436.13477 53.566406 L 422.3457 29.148438 L 412.98438 46.132812 L 422.42188 46.132812 L 422.42188 53.490234 L 408.93945 53.490234 L 408.93945 53.566406 L 399.07812 53.566406 L 418.60742 20.558594 z M 527.1875 20.558594 L 562.39062 20.558594 L 562.39062 28.029297 L 536.70117 28.029297 L 536.70117 32.767578 L 551.76367 32.767578 L 551.76367 40.009766 L 536.70117 40.009766 L 536.70117 45.863281 L 562.81445 45.863281 L 562.81445 53.490234 L 527.1875 53.490234 L 527.1875 20.558594 z M 238.08984 22.662109 C 236.44553 22.660674 234.77 23.267891 233.10938 24.447266 C 230.41438 26.450266 228.3335 29.456531 227.0625 33.269531 C 225.7915 37.158531 225.4452 40.895688 226.4082 44.554688 C 227.2942 48.097687 229.02748 50.485391 231.64648 51.525391 C 234.11048 52.642391 236.73091 52.258859 239.50391 50.255859 C 242.20091 48.406859 244.27978 45.478891 245.55078 41.587891 C 246.86078 37.620891 247.05297 33.884734 246.16797 30.302734 C 245.28097 26.759734 243.62486 24.370078 241.00586 23.330078 C 240.05298 22.882328 239.07643 22.662971 238.08984 22.662109 z M 193.78125 23.716797 L 192.2793 32.382812 L 192.31836 32.423828 L 198.98242 32.423828 C 200.48442 32.423828 201.75788 31.960219 202.79688 31.074219 C 203.72287 30.226219 204.29717 29.263359 204.45117 28.068359 C 204.60517 26.875359 204.33558 25.873453 203.64258 25.064453 C 202.83358 24.177453 201.64055 23.716797 200.06055 23.716797 L 193.78125 23.716797 z M 342.96094 28.029297 L 342.96094 45.824219 L 351.7793 45.824219 C 356.7873 45.824219 360.37081 45.170266 362.25781 43.822266 C 364.22281 42.513266 365.26172 40.009078 365.26172 36.580078 C 365.26172 30.880078 361.94941 28.029297 355.44141 28.029297 L 342.96094 28.029297 z M 69.875 28.261719 L 65.753906 37.3125 L 71.683594 37.3125 L 69.875 28.261719 z M 197.70703 37.966797 L 203.13867 43.554688 C 202.09967 42.591687 200.67428 42.052734 198.86328 42.052734 L 190.77539 42.052734 L 189.27344 51.488281 L 197.75 51.488281 C 199.907 51.488281 201.48656 50.949453 202.60156 50.064453 C 203.71956 49.140453 204.33611 48.099125 204.41211 46.828125 C 204.49111 45.557125 204.02763 44.402625 203.14062 43.515625 L 197.70703 37.966797 z " /><path
   id="path10"
   d="M 43.400391 4 C 35.563408 3.9534278 27.951875 6.1869529 20.609375 10.736328 C 14.638375 14.549328 10.132375 19.326687 7.359375 25.179688 C 4.509375 31.034688 3.5451719 37.543453 4.2011719 44.939453 C 4.6621719 49.369453 6.2033906 53.490563 8.9003906 57.226562 C 11.59539 60.962562 15.023828 63.966047 19.298828 66.123047 C 25.499828 69.358047 32.238109 70.320125 39.287109 69.203125 L 61.128906 69.203125 L 66.597656 57.070312 L 68.601562 69.203125 L 199.86719 69.050781 C 202.71919 69.050781 205.56803 68.357891 208.45703 67.087891 C 211.30703 65.816891 213.77086 64.005484 216.00586 61.771484 C 219.66586 65.662484 224.01756 68.280313 229.10156 69.320312 C 235.99656 70.976313 242.6605 69.783406 248.9375 65.816406 L 249.75 65.199219 L 249.13281 69.167969 L 275.86133 69.167969 L 276.51758 64.544922 C 278.09558 64.314922 279.36737 63.50625 280.48438 62.15625 L 353.16797 62.15625 C 364.33797 62.15625 372.54083 59.305406 377.54883 53.566406 L 382.94141 62.15625 L 460.70898 62.15625 L 460.70898 51.21875 L 474.68945 62.15625 L 570.79102 62.15625 L 570.79102 12.314453 L 466.67773 12.314453 L 466.67773 23.099609 L 452.88867 12.314453 L 397.50195 12.314453 L 390.68359 25.257812 L 383.13477 12.236328 L 299.97656 12.236328 L 304.32617 5.2675781 L 238.07617 5.2675781 C 232.99217 5.3435781 228.25641 6.7690156 223.94141 9.5410156 L 218.85742 13.277344 C 216.62342 10.581344 214.42753 8.6938281 212.26953 7.4238281 C 209.57453 5.9218281 206.57058 5.2675781 203.14258 5.2675781 L 90.941406 5.2675781 L 87.28125 16.435547 L 85.474609 5.2675781 L 60.935547 5.2675781 L 60.050781 7.3476562 L 57.740234 6.5371094 C 52.886609 4.8758594 48.10258 4.0279433 43.400391 4 z M 43.3125 12.220703 C 47.082 12.247176 50.902687 12.954844 54.773438 14.355469 L 53.3125 23.792969 C 49.7305 22.213969 45.455562 21.713313 40.601562 22.445312 C 35.517562 23.099314 31.279797 24.755594 27.966797 27.683594 C 24.308797 30.918594 22.381094 34.50075 21.996094 38.46875 C 21.687094 41.31775 22.303219 43.859219 23.574219 46.324219 C 25.076219 48.944219 27.312703 50.599203 30.470703 51.408203 L 38.326172 50.869141 L 39.058594 46.171875 L 31.585938 46.171875 L 32.933594 37.349609 L 50.806641 37.349609 L 48.1875 54.490234 L 66.292969 13.546875 L 78.115234 13.546875 L 84.472656 51.486328 L 96.833984 13.546875 L 106.42578 13.546875 L 111.125 39.199219 L 122.0625 13.546875 L 133.73633 13.546875 L 135.70117 60.460938 L 126.10938 60.460938 L 124.83789 31.419922 L 112.28125 60.460938 L 105.77344 60.460938 L 100.38086 34.269531 L 91.984375 60.460938 L 75.574219 60.460938 L 73.109375 46.480469 L 62.017578 46.480469 L 55.583984 60.460938 L 45.568359 60.460938 L 46.992188 57.302734 L 46.607422 57.533203 C 42.948422 59.537203 39.212797 60.731891 35.091797 60.962891 C 31.355797 61.154891 27.810938 60.577219 24.460938 59.074219 C 21.148938 57.572219 18.37475 55.647172 16.21875 52.951172 C 14.06075 50.255172 12.789422 47.174266 12.482422 43.822266 C 11.365422 32.306266 15.487828 23.485984 24.923828 17.708984 C 30.893828 14.025859 37.03 12.176582 43.3125 12.220703 z M 237.79297 13.494141 C 239.10737 13.495344 240.44525 13.654906 241.8125 13.972656 C 247.1295 15.166656 251.17214 18.516328 253.86914 23.986328 C 256.56714 29.417328 257.25981 35.425422 255.75781 41.857422 C 254.25581 48.367422 251.02197 53.529625 246.16797 57.265625 C 241.31397 60.924625 236.30511 62.194828 230.91211 60.923828 C 225.44311 59.729828 221.47612 56.379031 218.70312 50.832031 C 216.08414 45.479031 215.39045 39.392938 216.81445 32.960938 C 218.47045 26.450937 221.63042 21.290984 226.48242 17.708984 C 230.12217 14.906984 233.84975 13.490531 237.79297 13.494141 z M 144.01758 13.509766 L 170.71289 13.509766 L 169.13281 23.601562 L 152.22461 23.601562 L 150.95117 31.998047 L 165.7793 31.998047 L 164.20117 42.089844 L 149.52539 42.089844 L 148.17969 50.486328 L 165.12695 50.486328 L 163.39258 60.462891 L 136.50977 60.462891 L 144.01758 13.509766 z M 251.01953 13.509766 L 262.11133 13.509766 L 268.08398 28.876953 L 277.67383 13.509766 L 288.88281 13.509766 L 271.55078 40.896484 L 268.62109 60.462891 L 258.87891 60.462891 L 262.49609 38.275391 L 251.01953 13.509766 z M 185.46484 13.818359 L 203.41211 13.818359 C 205.22111 13.818359 207.07198 14.434906 208.95898 15.628906 C 211.07798 16.898906 212.61756 18.51725 213.85156 20.40625 C 216.70056 25.49025 215.42994 30.806687 209.96094 36.429688 C 212.69494 39.048687 214.27498 41.822 214.58398 44.75 C 214.85098 47.445 214.27531 49.987469 212.69531 52.605469 C 211.19331 54.877469 209.3068 56.725516 206.8418 58.228516 C 204.3378 59.730516 201.94967 60.462891 199.63867 60.462891 L 178.06836 60.462891 L 185.46484 13.818359 z M 495.60547 20.519531 L 514.97852 20.519531 C 518.52352 20.519531 520.75634 21.13525 522.02734 22.40625 C 523.29934 23.44725 524.03125 25.603844 524.03125 28.839844 L 524.03125 32.730469 L 514.51758 32.730469 L 514.51758 28.222656 L 496.10547 28.222656 L 496.10547 45.517578 L 514.51758 45.517578 L 514.51758 40.433594 L 524.03125 40.587891 L 524.03125 45.169922 C 524.03125 48.328922 523.29834 50.486688 522.02734 51.679688 C 520.75534 52.874688 518.33052 53.490234 514.97852 53.490234 L 495.60547 53.490234 C 492.21447 53.490234 489.90381 52.874688 488.63281 51.679688 C 487.32381 50.485688 486.63086 48.328922 486.63086 45.169922 L 486.63086 28.839844 C 486.63086 25.757844 487.32387 23.60125 488.67188 22.40625 C 489.94288 21.13725 492.25347 20.559531 495.60547 20.519531 z M 308.64258 20.558594 L 316.96094 20.558594 L 333.52148 47.982422 L 333.52148 20.597656 L 355.36133 20.597656 C 361.94733 20.597656 366.996 22.214344 370.5 25.527344 L 367.49414 20.597656 L 378.35547 20.597656 L 390.91211 42.166016 L 402.81641 20.599609 L 412.9082 20.599609 L 393.8418 53.53125 L 387.48633 53.53125 L 374.23633 31.691406 C 374.73833 33.347406 374.96875 35.119813 374.96875 37.007812 C 374.96875 47.983813 367.76544 53.53125 353.39844 53.53125 L 336.79883 53.53125 L 336.79883 53.607422 L 326.16797 53.607422 L 312.37891 29.1875 L 302.86523 46.25 L 312.37891 46.25 L 312.37891 53.568359 L 289.03711 53.568359 L 308.64258 20.558594 z M 418.60742 20.558594 L 426.9668 20.558594 L 443.52734 47.943359 L 443.52734 20.558594 L 449.96094 20.558594 L 475.11133 40.240234 L 475.11133 20.558594 L 483.74023 20.558594 L 483.74023 53.490234 L 477.26953 53.490234 L 452.34961 33.576172 L 452.34961 53.490234 L 446.88086 53.490234 L 446.88086 53.566406 L 436.13477 53.566406 L 422.3457 29.148438 L 412.98438 46.132812 L 422.42188 46.132812 L 422.42188 53.490234 L 408.93945 53.490234 L 408.93945 53.566406 L 399.07812 53.566406 L 418.60742 20.558594 z M 527.1875 20.558594 L 562.39062 20.558594 L 562.39062 28.029297 L 536.70117 28.029297 L 536.70117 32.767578 L 551.76367 32.767578 L 551.76367 40.009766 L 536.70117 40.009766 L 536.70117 45.863281 L 562.81445 45.863281 L 562.81445 53.490234 L 527.1875 53.490234 L 527.1875 20.558594 z M 238.08984 22.662109 C 236.44553 22.660674 234.77 23.267891 233.10938 24.447266 C 230.41438 26.450266 228.3335 29.456531 227.0625 33.269531 C 225.7915 37.158531 225.4452 40.895688 226.4082 44.554688 C 227.2942 48.097687 229.02748 50.485391 231.64648 51.525391 C 234.11048 52.642391 236.73091 52.258859 239.50391 50.255859 C 242.20091 48.406859 244.27978 45.478891 245.55078 41.587891 C 246.86078 37.620891 247.05297 33.884734 246.16797 30.302734 C 245.28097 26.759734 243.62486 24.370078 241.00586 23.330078 C 240.05298 22.882328 239.07643 22.662971 238.08984 22.662109 z M 193.78125 23.716797 L 192.2793 32.382812 L 192.31836 32.423828 L 198.98242 32.423828 C 200.48442 32.423828 201.75788 31.960219 202.79688 31.074219 C 203.72287 30.226219 204.29717 29.263359 204.45117 28.068359 C 204.60517 26.875359 204.33558 25.873453 203.64258 25.064453 C 202.83358 24.177453 201.64055 23.716797 200.06055 23.716797 L 193.78125 23.716797 z M 342.96094 28.029297 L 342.96094 45.824219 L 351.7793 45.824219 C 356.7873 45.824219 360.37081 45.170266 362.25781 43.822266 C 364.22281 42.513266 365.26172 40.009078 365.26172 36.580078 C 365.26172 30.880078 361.94941 28.029297 355.44141 28.029297 L 342.96094 28.029297 z M 69.875 28.261719 L 65.753906 37.3125 L 71.683594 37.3125 L 69.875 28.261719 z M 197.70703 37.966797 L 203.13867 43.554688 C 202.09967 42.591687 200.67428 42.052734 198.86328 42.052734 L 190.77539 42.052734 L 189.27344 51.488281 L 197.75 51.488281 C 199.907 51.488281 201.48656 50.949453 202.60156 50.064453 C 203.71956 49.140453 204.33611 48.099125 204.41211 46.828125 C 204.49111 45.557125 204.02763 44.402625 203.14062 43.515625 L 197.70703 37.966797 z "
   style="fill:#ffffff;stroke:none" />











</svg>
