<?xml version="1.0" encoding="UTF-8" standalone="no"?>
<!-- Generator: Adobe Illustrator 16.0.3, SVG Export Plug-In . SVG Version: 6.00 Build 0)  -->

<svg
   version="1.1"
   id="svg2"
   inkscape:version="1.1.2 (0a00cf5339, 2022-02-04)"
   sodipodi:version="0.32"
   sodipodi:docname="system.svg"
   x="0px"
   y="0px"
   width="574.79242"
   height="74.039673"
   viewBox="0 0 574.7924 74.039672"
   enable-background="new 0 0 566.929 66.041"
   xml:space="preserve"
   xmlns:inkscape="http://www.inkscape.org/namespaces/inkscape"
   xmlns:sodipodi="http://sodipodi.sourceforge.net/DTD/sodipodi-0.dtd"
   xmlns="http://www.w3.org/2000/svg"
   xmlns:svg="http://www.w3.org/2000/svg"><defs
   id="defs16" />
<sodipodi:namedview
   height="206.5px"
   width="1772.6px"
   inkscape:window-x="0"
   inkscape:window-y="0"
   inkscape:current-layer="svg2"
   inkscape:pageshadow="2"
   inkscape:window-width="1920"
   inkscape:pageopacity="0.0"
   inkscape:window-height="996"
   objecttolerance="10.0"
   inkscape:cx="95.703121"
   borderopacity="1.0"
   inkscape:cy="-79.296872"
   guidetolerance="10.0"
   pagecolor="#ffffff"
   inkscape:zoom="1.2800001"
   bordercolor="#666666"
   gridtolerance="10.0"
   id="base"
   inkscape:pagecheckerboard="0"
   showgrid="false"
   inkscape:window-maximized="1"
   fit-margin-top="0"
   fit-margin-left="0"
   fit-margin-right="0"
   fit-margin-bottom="0">
	</sodipodi:namedview>
<path
   id="path832"
   d="M 41.878372,0.01767366 C 31.173147,0.33417466 20.728612,4.6995724 12.677201,11.703221 7.1703158,16.560247 3.0989186,23.044814 1.2876098,30.172577 c -1.4853107,5.823604 -1.6595719,11.970299 -0.6571835,17.888148 1.7976065,9.266042 8.3269322,17.264611 16.6577587,21.536963 6.472333,3.411108 14.009437,4.719829 21.256203,3.738345 2.089283,-0.262032 4.334571,-0.07953 6.485156,-0.132812 6.228256,0 12.456511,0 18.684766,0 0.364399,-0.808026 0.729002,-1.61596 1.09375,-2.423828 0.13219,0.809347 0.265529,1.618505 0.398438,2.427734 45.171182,-0.05619 90.343242,-0.09099 135.513842,-0.176489 5.51859,-0.269072 10.87583,-2.430505 15.1971,-5.843042 3.91805,3.321415 8.74958,5.512186 13.81142,6.356172 5.14215,0.986564 10.55174,0.487191 15.44248,-1.37375 0.65584,1.056977 2.01693,1.065097 3.12422,0.996093 10.34661,10e-7 20.69323,0 31.03984,0 0.26853,-1.878693 0.52909,-3.758577 0.80078,-5.636718 0.76719,-0.351685 1.42504,-0.962759 2.11563,-1.374995 24.25362,-0.01037 48.50786,0.02996 72.7611,-0.02878 7.19139,-0.19715 14.61746,-1.598708 20.68524,-5.660281 0.42113,-0.112414 0.97981,-1.101499 1.22116,-0.378509 1.27087,2.022517 2.54167,4.045074 3.81258,6.067561 27.99284,0 55.98568,0 83.97851,0 0,-2.241537 0,-4.483073 0,-6.72461 2.86732,2.242027 5.73358,4.485396 8.60157,6.726563 33.82682,0 67.65364,0 101.48047,0 -1e-5,-19.280599 0,-38.561198 0,-57.8417973 -37.37175,0 -74.74349,0 -112.11524,0 0,2.1920573 0,4.3841143 0,6.5761723 -2.8035,-2.191912 -5.60602,-4.38507 -8.41016,-6.5761723 -19.72656,0 -39.45312,0 -59.17968,0 -1.5232,2.8923993 -3.04829,5.7837963 -4.57227,8.6757813 -1.69216,-2.91791 -3.3833,-5.836407 -5.07617,-8.7539063 -26.08333,0 -52.16667,0 -78.25,0 1.45005,-2.3234571 2.90003,-4.646954 4.34961,-6.9707031 -24.73654,0.00588 -49.47387,-0.020216 -74.20991,0.025927 -6.49156,0.1980537 -12.8878,2.5702711 -17.94829,6.6400882 C 216.28302,4.8358757 212.36807,2.4302151 208.00272,1.7019552 203.95808,0.96198316 199.82904,1.3783406 195.74439,1.2657162 149.9548,1.2654491 104.16549,1.2654603 58.378372,1.2676662 58.071737,1.636097 58.043432,2.6694203 57.392044,2.216885 52.378959,0.67666416 47.127549,-0.13215974 41.878372,0.01767366 Z" /><path
   id="path10"
   fill="#1f00cc"
   d="m 299.97506,12.238049 4.352,-6.9710003 h -66.25 c -5.084,0.076 -9.82,1.502 -14.135,4.274 l -5.084,3.7360003 c -2.234,-2.696 -4.43,-4.5840003 -6.588,-5.8540003 -2.695,-1.502 -5.699,-2.156 -9.127,-2.156 h -112.201 l -3.66,11.1690003 -1.808,-11.1680003 h -24.538 l -0.885,2.079 -2.311,-0.809 c -12.943,-4.43 -25.383,-3.081 -37.131,4.1980003 -5.971,3.813 -10.477,8.59 -13.2499997,14.443 -2.85,5.855 -3.814,12.364 -3.158,19.76 0.461,4.43 2.002,8.551 4.699,12.287 2.6949997,3.736 6.1229997,6.74 10.3979997,8.897 6.201,3.235 12.941,4.198 19.99,3.081 h 21.84 l 5.469,-12.133 2.004,12.133 131.266,-0.153 c 2.852,0 5.701,-0.694 8.59,-1.964 2.85,-1.271 5.314,-3.082 7.549,-5.316 3.66,3.891 8.012,6.51 13.096,7.55 6.895,1.656 13.559,0.462 19.836,-3.505 l 0.811,-0.617 -0.617,3.968 h 26.73 l 0.656,-4.622 c 1.578,-0.23 2.85,-1.039 3.967,-2.389 h 72.682 c 11.17,0 19.373,-2.85 24.381,-8.589 l 5.393,8.589 h 77.768 v -10.937 l 13.98,10.938 h 96.102 v -49.842 h -104.114 v 10.784 l -13.789,-10.784 h -55.387 l -6.818,12.942 -7.549,-13.02 h -83.159 z" />
<path
   id="path12"
   fill="#ffffff"
   d="m 316.96006,20.559049 h -8.318 l -19.605,33.009 h 23.342 v -7.318 h -9.514 l 9.514,-17.063 13.789,24.42 h 10.631 v -0.076 h 16.6 c 14.367,0 21.57,-5.547 21.57,-16.523 0,-1.888 -0.23,-3.66 -0.732,-5.316 l 13.25,21.84 h 6.355 l 19.066,-32.932 h -10.092 l -11.903,21.566 -12.557,-21.568 h -10.861 l 3.004,4.93 c -3.504,-3.313 -8.551,-4.93 -15.137,-4.93 h -21.84 v 27.384 z m 25.961,7.471 h 12.52 c 6.508,0 9.82,2.851 9.82,8.551 0,3.429 -1.039,5.932 -3.004,7.241 -1.887,1.348 -5.469,2.003 -10.477,2.003 h -8.82 v -17.795 z" />
<polygon
   id="polygon14"
   fill="#ffffff"
   points="395.146,49.565 405.007,49.565 405.007,49.488 418.488,49.488 418.488,42.131 409.052,42.131 418.412,25.146 432.201,49.565 442.947,49.565 442.947,49.488 448.416,49.488 448.416,29.575 473.337,49.488 479.808,49.488 479.808,16.557 471.179,16.557 471.179,36.238 446.027,16.557 439.595,16.557 439.595,43.941 423.033,16.557 414.675,16.557 "
   transform="translate(3.9330603,4.0020487)" />
<path
   id="path16"
   fill="#ffffff"
   d="m 488.67106,22.406049 c -1.348,1.195 -2.041,3.352 -2.041,6.434 v 16.33 c 0,3.159 0.693,5.316 2.002,6.51 1.271,1.195 3.582,1.811 6.973,1.811 h 19.373 c 3.352,0 5.777,-0.616 7.049,-1.811 1.271,-1.193 2.004,-3.351 2.004,-6.51 v -4.583 l -9.514,-0.154 v 5.085 h -18.412 v -17.295 h 18.412 v 4.507 h 9.514 v -3.89 c 0,-3.236 -0.732,-5.393 -2.004,-6.434 -1.271,-1.271 -3.504,-1.887 -7.049,-1.887 h -19.373 c -3.352,0.04 -5.663,0.618 -6.934,1.887 z" />
<polygon
   id="polygon18"
   fill="#ffffff"
   points="558.458,24.028 558.458,16.557 523.255,16.557 523.255,49.488 558.882,49.488 558.882,41.862 532.769,41.862 532.769,36.008 547.83,36.008 547.83,28.766 532.769,28.766 532.769,24.028 "
   transform="translate(3.9330603,4.0020487)" />
<path
   id="path20"
   fill="#ffffff"
   d="m 54.77406,14.356049 c -10.322,-3.735 -20.299,-2.541 -29.851,3.352 -9.436,5.777 -13.557,14.598 -12.44,26.114 0.307,3.352 1.578,6.433 3.736,9.129 2.156,2.696 4.93,4.621 8.242,6.123 3.35,1.503 6.895,2.08 10.631,1.888 4.121,-0.231 7.857,-1.425 11.516,-3.429 l 0.385,-0.23 -1.424,3.158 h 10.014 l 6.434,-13.981 h 11.092 l 2.465,13.981 h 16.41 l 8.396,-26.191 5.393,26.191 h 6.508 l 12.557,-29.041 1.271,29.041 h 9.592 l -1.965,-46.914 h -11.673 l -10.938,25.652 -4.699,-25.652 h -9.592 l -12.362,37.939 -6.356,-37.939 h -11.824 l -18.104,40.944 2.619,-17.141 h -17.873 l -1.348,8.821 h 7.473 l -0.732,4.698 -7.857,0.54 c -3.158,-0.809 -5.393,-2.465 -6.895,-5.085 -1.271,-2.465 -1.887,-5.007 -1.578,-7.856 0.385,-3.968 2.311,-7.55 5.969,-10.785 3.313,-2.928 7.551,-4.584 12.635,-5.238 4.854,-0.732 9.129,-0.231 12.711,1.348 z m 16.91,22.957 h -5.931 l 4.121,-9.051 z" />
<polygon
   id="polygon22"
   fill="#ffffff"
   points="132.576,56.46 159.46,56.46 161.193,46.484 144.246,46.484 145.593,38.087 160.269,38.087 161.847,27.996 147.019,27.996 148.291,19.6 165.199,19.6 166.779,9.508 140.085,9.508 "
   transform="translate(3.9330603,4.0020487)" />
<polygon
   id="polygon24"
   fill="#ffffff"
   points="264.15,24.875 258.179,9.508 247.087,9.508 258.564,34.273 254.945,56.46 264.689,56.46 267.617,36.894 284.949,9.508 273.74,9.508 "
   transform="translate(3.9330603,4.0020487)" />
<path
   id="path26"
   fill="#ffffff"
   d="m 241.81306,13.972049 c -5.469,-1.271 -10.477,0 -15.33,3.736 -4.852,3.582 -8.012,8.743 -9.668,15.253 -1.424,6.432 -0.73,12.518 1.889,17.871 2.773,5.547 6.74,8.898 12.209,10.092 5.393,1.271 10.4,0 15.254,-3.659 4.854,-3.736 8.088,-8.897 9.59,-15.407 1.502,-6.432 0.811,-12.44 -1.887,-17.871 -2.697,-5.47 -6.74,-8.821 -12.057,-10.015 z m -0.808,9.359 c 2.619,1.04 4.275,3.429 5.162,6.972 0.885,3.582 0.693,7.318 -0.617,11.285 -1.271,3.891 -3.35,6.818 -6.047,8.667 -2.773,2.003 -5.393,2.388 -7.857,1.271 -2.619,-1.04 -4.352,-3.429 -5.238,-6.972 -0.963,-3.659 -0.617,-7.396 0.654,-11.285 1.271,-3.813 3.352,-6.818 6.047,-8.821 2.657,-1.887 5.355,-2.311 7.896,-1.117 z" />
<path
   id="path28"
   fill="#ffffff"
   d="m 208.95806,15.628049 c -1.887,-1.194 -3.736,-1.81 -5.545,-1.81 h -17.949 l -7.396,46.644 h 21.57 c 2.311,0 4.699,-0.731 7.203,-2.233 2.465,-1.503 4.352,-3.352 5.854,-5.624 1.58,-2.618 2.156,-5.161 1.889,-7.856 -0.309,-2.928 -1.889,-5.701 -4.623,-8.32 5.469,-5.623 6.74,-10.939 3.891,-16.023 -1.234,-1.889 -2.775,-3.508 -4.894,-4.778 z m -16.678,16.755 1.502,-8.666 h 6.279 c 1.58,0 2.773,0.461 3.582,1.348 0.693,0.809 0.963,1.811 0.809,3.004 -0.154,1.195 -0.73,2.157 -1.656,3.005 -1.039,0.886 -2.311,1.349 -3.813,1.349 h -6.703 l 10.861,11.092 c 0.887,0.887 1.35,2.042 1.271,3.313 -0.076,1.271 -0.693,2.312 -1.811,3.236 -1.115,0.885 -2.695,1.425 -4.852,1.425 h -8.475 l 1.502,-9.437 h 8.088 c 1.811,0 3.236,0.539 4.275,1.502 z" />


</svg>
