<?xml version="1.0" encoding="UTF-8" standalone="no"?>
<!-- Generator: Adobe Illustrator 13.0.0, SVG Export Plug-In . SVG Version: 6.00 Build 14948)  -->

<svg
   version="1.2"
   id="Layer_3"
   x="0px"
   y="0px"
   width="350.55066"
   height="343.1163"
   viewBox="0 0 350.55064 343.11629"
   xml:space="preserve"
   sodipodi:docname="controller.svg"
   inkscape:version="1.1.2 (0a00cf5339, 2022-02-04)"
   xmlns:inkscape="http://www.inkscape.org/namespaces/inkscape"
   xmlns:sodipodi="http://sodipodi.sourceforge.net/DTD/sodipodi-0.dtd"
   xmlns="http://www.w3.org/2000/svg"
   xmlns:svg="http://www.w3.org/2000/svg"
   xmlns:rdf="http://www.w3.org/1999/02/22-rdf-syntax-ns#"
   xmlns:cc="http://creativecommons.org/ns#"
   xmlns:dc="http://purl.org/dc/elements/1.1/"
   xmlns:ns="&amp;ns_sfw;"><defs
   id="defs43">
	
	
	
	

	
	
	
	
</defs><sodipodi:namedview
   id="namedview41"
   pagecolor="#ffffff"
   bordercolor="#666666"
   borderopacity="1.0"
   inkscape:pageshadow="2"
   inkscape:pageopacity="0.0"
   inkscape:pagecheckerboard="0"
   showgrid="false"
   fit-margin-top="0"
   fit-margin-left="0"
   fit-margin-right="0"
   fit-margin-bottom="0"
   inkscape:zoom="1.451521"
   inkscape:cx="129.86377"
   inkscape:cy="182.91157"
   inkscape:window-width="1920"
   inkscape:window-height="996"
   inkscape:window-x="0"
   inkscape:window-y="0"
   inkscape:window-maximized="1"
   inkscape:current-layer="Layer_3" />
<metadata
   id="metadata55">
	<rdf:RDF>
		<cc:Work
   rdf:about="">
			<dc:format>image/svg+xml</dc:format>
			<dc:type
   rdf:resource="http://purl.org/dc/dcmitype/StillImage" />
			
		</cc:Work>
	</rdf:RDF>
	<ns:sfw>
		<ns:slices />
		<ns:sliceSourceBounds
   x="788.102"
   y="-7652"
   width="342.555"
   height="16383"
   bottomLeftOrigin="true" />
	</ns:sfw>
</metadata>
<path
   id="path897"
   style="fill:#000000"
   d="M 176.04683,4.1924062e-4 C 157.25123,-0.04000776 138.30822,2.840739 120.77453,9.7628487 c -5.37276,2.1287083 -10.59819,4.6468863 -15.54801,7.6340553 -0.94603,-0.141657 -1.85849,0.495367 -2.26758,1.322265 -0.96566,0.53448 -1.44653,1.697194 -1.29688,2.771485 -0.75975,1.704965 -1.5106,3.414969 -2.199217,5.150391 -7.01526,0.829989 -13.94417,2.239728 -20.88436,3.532991 -8.28428,1.607349 -16.58609,3.212246 -24.71133,5.513171 -7.68408,2.378716 -14.71641,6.429815 -21.45509,10.746806 -1.8044,1.226864 -3.76076,2.364994 -5.14062,4.085938 -1.67843,2.407404 -1.36431,5.476443 -1.35315,8.25167 -0.0381,0.607132 0.26,1.341135 -0.40857,1.691689 -12.08367,11.990904 -19.6377802,28.408915 -20.9112002,45.38302 -0.23951,2.62466 -0.23967,5.26815 -0.19427,7.89628 -0.13006,1.32543 0.07,2.66597 -0.0296,3.99905 -0.0954,3.9764 -0.64346,8.03622 -1.0563,11.91501 -0.89443,7.50083 -2.19403,14.95909 -2.61552999,22.51041 -1.09,15.55947 -0.98443,31.23415 0.82815999,46.73604 0.83786,7.17555 2.25354,14.26849 3.94568,21.28777 2.59133,11.0574 5.5144902,22.10436 10.0386302,32.54932 2.74903,6.24638 6.15081,12.43131 11.34128,16.98912 3.20847,2.78054 7.27711,4.61161 11.53443,4.88372 5.39976,0.55656 11.11335,-0.97632 15.14529,-4.70403 4.43434,-3.94312 6.97432,-9.49201 8.94717,-14.97705 3.02048,-8.56191 4.72688,-17.50186 6.8531,-26.30847 2.92294,-12.58843 5.72567,-25.20523 8.59438,-37.80484 1.05465,-2.82494 3.42313,-5.07206 6.15694,-6.27136 1.88457,-0.71085 3.98202,-0.18368 5.83872,-0.0633 6.59306,0.7203 13.225017,1.74444 19.474567,4.04186 4.78201,1.79612 9.56978,4.44065 12.39327,8.85157 1.26115,1.90752 1.63375,4.21758 2.19408,6.3947 1.56175,7.45055 2.49486,15.01457 3.48604,22.5572 1.61588,12.8524 3.00585,25.83989 4.86105,38.71074 0.90884,6.22217 1.99218,12.42781 3.59997,18.51167 3.02671,12.10567 6.47121,24.18172 11.66223,35.56013 2.85819,6.15354 6.34323,12.14633 11.18549,16.96027 3.89849,3.83631 9.01392,6.74201 14.57475,6.97745 3.76274,0.24793 7.64422,-0.16 11.07435,-1.81704 5.76755,-2.6463 10.07263,-7.59735 13.46012,-12.83121 4.39604,-6.84354 7.44044,-14.44648 10.12595,-22.09327 3.23436,-9.41986 5.76666,-19.06709 8.01194,-28.76508 2.32302,-11.32206 3.55601,-22.8271 5.00475,-34.2832 1.42963,-11.67533 2.66624,-23.38298 4.62946,-34.98467 0.61061,-3.12881 1.09966,-6.22056 2.20006,-9.23302 0.95584,-2.33574 2.76035,-4.23342 4.67546,-5.82956 4.55161,-3.65307 10.2417,-5.47179 15.84249,-6.80003 5.12517,-1.14783 10.35124,-1.81928 15.58416,-2.22069 2.69802,-0.16757 5.07707,1.60083 6.77344,3.53515 1.08856,1.19098 1.87803,2.63734 2.16044,4.23601 3.83863,17.24836 7.75465,34.48121 11.85696,51.66808 1.91512,7.46743 4.01005,15.07059 8.23461,21.60993 2.80359,4.25505 7.02401,7.7662 12.07368,8.89833 4.21705,0.98948 8.74616,0.70544 12.79826,-0.82549 5.51428,-2.21194 9.59975,-6.87867 12.65163,-11.83014 4.57501,-7.41709 7.48056,-15.70662 10.02594,-23.99736 2.75585,-9.17133 4.9428,-18.50642 6.84764,-27.88821 3.01039,-16.24795 3.55925,-32.85734 2.92881,-49.33896 -0.32594,-7.96924 -0.9737,-15.9335 -2.20102,-23.81734 -0.0756,-0.55768 -0.19018,-1.45467 -0.28072,-2.14245 -0.76473,-5.97365 -1.59797,-11.96193 -1.6969,-17.9915 0.0411,-1.5106 0.0668,-2.99271 0.0152,-4.47618 0.13712,-17.542986 -6.41594,-35.053647 -18.10123,-48.148901 -1.1147,-1.261238 -2.27468,-2.483239 -3.48129,-3.656989 0.0786,-2.815038 0.40142,-5.777329 -0.68946,-8.449219 -1.14406,-2.375557 -3.60636,-3.627909 -5.67281,-5.077339 -6.17243,-4.053984 -12.67321,-7.708231 -19.6456,-10.195583 -5.61155,-1.887528 -11.44135,-3.002098 -17.21573,-4.261335 -9.38293,-1.931057 -18.79576,-3.745362 -28.26951,-5.172005 -0.66193,-0.08291 -1.32412,-0.16119 -1.98736,-0.233191 -0.69065,-1.733618 -1.42862,-3.448521 -2.20703,-5.144531 0.17354,-1.113839 -0.45311,-2.172806 -1.31836,-2.810547 -0.45728,-0.757815 -1.3199,-1.11604 -2.14625,-1.231219 C 231.93337,9.3441477 216.66719,4.5629216 201.19666,2.0434106 192.88332,0.68783074 184.46534,0.07327334 176.04683,4.1924062e-4 Z M 175.06441,9.5062787 c 2.52297,0.004 5.04553,0.05941 7.5664,0.162109 0.70427,0.0414 1.69679,0.09043 2.51172,0.134766 0.63658,0.0423 1.59629,0.113096 2.35685,0.16633 12.02937,0.9365543 23.88749,3.2617403 35.27987,7.3063263 5.53635,1.990179 10.92985,4.398901 16.03516,7.328125 -3.50209,24.722286 -6.98489,49.448736 -10.52045,74.165352 -0.31676,1.262753 -0.63435,2.525303 -0.95221,3.787773 3.09331,0.5855 6.18632,1.17252 9.2793,1.75977 5.43469,-20.115892 10.86419,-40.233183 16.29687,-60.349614 2.55549,0.72777 5.24075,0.985751 7.7718,1.447053 10.105,1.586648 20.24633,3.15973 30.1302,5.98568 6.0727,1.643971 11.93818,4.106026 17.23632,7.514399 1.06963,0.678162 2.35209,1.553572 3.46153,2.370061 1.33952,0.995242 2.49157,1.915071 3.75867,3.013601 5.64175,4.886459 10.35161,10.832615 13.89148,17.399675 0.52484,0.991807 1.15485,2.213615 1.66057,3.325594 1.22725,2.631346 2.26294,5.351323 3.10701,8.129484 -1.75735,-2.322759 -4.20818,-4.087208 -6.92969,-5.107422 -2.87263,-5.395566 -7.37596,-9.913309 -12.77344,-12.785156 -2.13902,-5.955756 -8.20383,-10.253335 -14.54802,-10.195094 -6.42016,-0.150984 -12.653,4.15519 -14.79768,10.20486 -5.39695,2.873569 -9.91673,7.376668 -12.79297,12.773437 -5.81366,2.099467 -10.03831,7.927108 -10.19103,14.112332 -0.27817,6.09457 3.38052,12.16525 8.94279,14.70035 0.53416,0.3313 1.33835,0.3231 1.5229,1.0239 2.88621,5.17555 7.27995,9.5037 12.51245,12.28842 2.10556,5.84528 7.98234,10.0852 14.20117,10.20117 6.099,0.2452 12.14976,-3.45081 14.65481,-9.0294 0.29891,-0.51497 0.31054,-1.25777 0.97865,-1.42689 5.1746,-2.88804 9.49512,-7.28549 12.28451,-12.51441 4.50808,-1.63784 8.11748,-5.4951 9.52735,-10.07031 0.58512,8.76165 -0.64649,17.65588 -3.71875,25.88867 -0.14109,0.3655 -0.40689,1.08244 -0.61682,1.58378 -5.35099,13.2706 -15.52464,24.45187 -28.06482,31.29317 -0.44678,0.23135 -1.20018,0.64743 -1.77695,0.92735 -9.01389,4.61329 -19.11737,6.98518 -29.22992,7.12564 -11.0845,0.34706 -22.28775,1.28833 -32.91538,4.64476 -6.79195,2.18124 -13.42948,5.69017 -17.95427,11.34349 -2.14248,2.60238 -3.66318,5.69873 -4.37625,8.99523 -1.78082,7.15271 -2.6657,14.48597 -3.67888,21.77603 -1.74605,13.37676 -3.15567,26.74501 -5.00711,40.08621 -0.84175,5.91163 -1.77033,12.03152 -3.21603,17.96133 -0.97066,3.84656 -1.98951,7.89047 -3.08521,11.78845 -2.67062,9.48232 -5.7295,18.92222 -10.20965,27.72279 -2.20087,4.1753 -4.74907,8.27718 -8.2492,11.49342 -2.35936,2.16113 -5.42378,3.75849 -8.69292,3.65157 -2.42807,0.10658 -4.93156,-0.33155 -6.98728,-1.69062 -4.11876,-2.52276 -6.94449,-6.61369 -9.35848,-10.69659 -4.63581,-8.0213 -7.64991,-16.84571 -10.3464,-25.67113 -1.13106,-3.74503 -2.15323,-7.46974 -3.12717,-11.21629 -1.25204,-4.89448 -2.4883,-9.90453 -3.27328,-14.83343 -2.33417,-14.27719 -3.79256,-28.81033 -5.61924,-43.20942 -1.06519,-8.22787 -2.06877,-16.47792 -3.74634,-24.60844 -0.76837,-3.43228 -1.66435,-6.93978 -3.73499,-9.84884 -3.87245,-5.71955 -9.92378,-9.59541 -16.29617,-12.01195 -8.72483,-3.2976 -18.056977,-4.57591 -27.312237,-5.26471 -3.7269,-0.25989 -7.46106,-0.40077 -11.19532,-0.50782 -0.37117,-0.0208 -1.1849,-0.0599 -1.7251,-0.10647 -4.10302,-0.30257 -8.17541,-1.00209 -12.1499,-2.06345 -0.68471,-0.18989 -1.66918,-0.46582 -2.46093,-0.71289 -10.97491,-3.38471 -21.03357,-9.73218 -28.71485,-18.28125 -0.46446,-0.52835 -1.13526,-1.28943 -1.66015,-1.92187 -7.13724,-8.59525 -11.90924,-19.14769 -13.50007,-30.21516 -2.28501,-15.39528 1.33566,-31.614935 10.1264,-44.479298 5.0901,-7.557443 11.89964,-13.942553 19.76234,-18.545783 0.4755,-0.268677 1.2466,-0.717232 1.84445,-1.033159 4.91104,-2.703434 10.25601,-4.486508 15.66165,-5.903042 10.98216,-2.951885 22.28249,-4.39381 33.4721,-6.300366 0.75671,-0.140901 1.50549,-0.32019 2.24836,-0.521246 5.142177,19.052119 10.290277,38.102641 15.441407,57.152344 0.31025,0.9408 0.5304,2.08887 1.53515,2.55469 0.97378,0.62593 2.08159,0.0417 3.11799,-0.0802 1.49386,-0.29037 2.9877,-0.58086 4.48162,-0.87093 0.15396,-2.09088 0.0766,-4.192423 -0.31516,-6.254667 -3.3943,-23.956779 -6.78859,-47.913558 -10.18288,-71.870337 12.20317,-6.966851 25.8661,-11.057194 39.68945,-13.273438 1.15394,-0.175767 2.695,-0.39722 3.85351,-0.552734 2.56889,-0.327593 5.32138,-0.615966 7.79297,-0.8066413 4.03519,-0.301821 7.93275,-0.446745 12.00782,-0.458984 z M 66.212843,72.656669 c -11.8695,0.221516 -23.50633,5.646357 -31.36123,14.539493 -7.32099,8.171049 -11.35391,19.193968 -10.98739,30.163848 0.28383,11.14636 5.08696,22.094 13.10745,29.84221 7.71031,7.54723 18.31111,12.06895 29.10675,12.31116 10.93182,0.33575 21.92741,-3.65603 30.06775,-10.96801 8.396507,-7.44216 13.750907,-18.23227 14.460897,-29.44226 0.77523,-10.80567 -2.66675,-21.855803 -9.50914,-30.264682 C 93.961203,79.943081 83.212323,74.01177 71.847613,72.883232 c -1.87121,-0.194598 -3.75396,-0.266981 -5.63477,-0.226563 z m -15.00976,13.845704 c -0.99053,2.167059 -0.62717,4.602065 -0.71529,6.908592 -0.004,1.967329 0.0191,3.934622 0.004,5.901952 -3.54847,0.0348 -7.10621,-0.0966 -10.64844,0.0957 -0.89124,0.12797 -1.75742,0.40481 -2.56445,0.802733 3.14096,-5.993874 8.15171,-10.973329 14.12695,-14.138675 -0.0677,0.143229 -0.13541,0.286458 -0.20312,0.429688 z m 32.60547,-0.07227 c 5.69647,3.166515 10.44752,8.018425 13.47265,13.792977 -1.84052,-1.010403 -3.98404,-0.938993 -6.01484,-0.907423 -2.4013,-0.004 -4.8026,-0.005 -7.20391,-0.005 -0.0289,-3.529158 0.0841,-7.065505 -0.084,-10.589848 -0.13093,-0.918629 -0.40954,-1.814306 -0.82422,-2.644532 0.2181,0.117839 0.4362,0.235677 0.6543,0.353516 z m 201.449207,0.664062 c 0.56877,1.25661 1.30853,2.433235 2.17969,3.501954 -1.20036,-0.962757 -2.52572,-1.777805 -3.95508,-2.353516 0.50015,-0.556949 1.03145,-1.084951 1.58399,-1.589844 0.0638,0.147136 0.1276,0.294271 0.1914,0.441406 z m 28.88282,-0.341796 c 0.51111,0.473781 1.00586,0.964802 1.47265,1.482422 -1.39702,0.563053 -2.77537,1.423132 -3.89453,2.328124 0.94525,-1.188198 1.74091,-2.500832 2.31055,-3.910156 l 0.0745,0.06668 z m -24.28906,6.222656 c 4.22312,3.43953 10.30438,4.361732 15.35742,2.328125 1.50706,-0.586187 2.92842,-1.398336 4.1875,-2.414063 -3.47965,4.17996 -4.4617,10.238203 -2.49371,15.306813 0.58261,1.56108 1.41094,3.03106 2.45269,4.33187 -4.22979,-3.51183 -10.37925,-4.44493 -15.47138,-2.38441 -1.50134,0.58415 -2.91396,1.39764 -4.16924,2.40784 3.53152,-4.22977 4.47952,-10.39688 2.41216,-15.500833 -0.59096,-1.519139 -1.41332,-2.95002 -2.44341,-4.214014 0.056,0.04622 0.11198,0.09245 0.16797,0.138672 z M 174.22066,104.35198 c -7.84574,0.29921 -15.30522,5.08687 -18.90087,12.05831 -3.66208,6.87952 -3.37374,15.67716 0.79873,22.27116 3.93334,6.42647 11.26235,10.61875 18.80721,10.67249 7.40439,0.16676 14.74711,-3.62648 18.90235,-9.75781 4.46893,-6.399 5.20821,-15.1761 1.86548,-22.23092 -3.26928,-7.11882 -10.46959,-12.29168 -18.30082,-12.93168 -1.05341,-0.10209 -2.11474,-0.12197 -3.17208,-0.0816 z m 73.18359,2.65626 c -7.29132,0.0357 -14.30799,4.62513 -17.28958,11.27456 -3.06316,6.49718 -2.05673,14.68043 2.51951,20.22473 4.42201,5.57282 12.08725,8.35519 19.04405,6.78431 1.09962,-0.22668 2.17816,-0.55807 3.21821,-0.98087 -2.43372,6.23744 -1.32141,13.7099 2.89138,18.9276 4.13572,5.29413 11.15976,8.14745 17.8158,7.17333 6.73013,-0.88376 12.79654,-5.58728 15.30147,-11.90181 2.65448,-6.41747 1.48844,-14.23497 -2.98522,-19.56045 -4.34028,-5.36099 -11.69364,-8.07944 -18.47316,-6.74429 -1.25016,0.23078 -2.47349,0.59295 -3.65574,1.05874 2.4591,-6.34929 1.24949,-13.96686 -3.14282,-19.18754 -3.66335,-4.50022 -9.44097,-7.18435 -15.2439,-7.06831 z m -173.292967,0.33984 c 0.51022,0.75813 1.16713,1.42036 1.93164,1.92187 -0.15388,0.52361 -0.23424,0.99233 -0.58629,0.30794 -0.59142,-0.76666 -1.30653,-1.43341 -2.08949,-2.0013 0.24754,-0.0673 0.5132,-0.15538 0.74414,-0.22851 z m -13.26758,0.125 c 0.82184,0.0711 -0.38601,0.5483 -0.58398,0.875 -0.54512,0.50489 -1.04937,1.05524 -1.48438,1.6582 -0.42765,-0.61716 0.18146,-0.8188 0.60547,-1.16406 0.48443,-0.41341 0.91034,-0.89833 1.24414,-1.44141 0.0729,0.0241 0.14584,0.0482 0.21875,0.0723 z m 226.402347,7.59766 c -0.88289,1.13768 -1.6284,2.38582 -2.16797,3.72265 -0.55778,-0.5019 -1.08886,-1.03304 -1.5918,-1.58984 1.42223,-0.58113 2.75109,-1.38669 3.93945,-2.35938 -0.0599,0.0755 -0.11979,0.15104 -0.17968,0.22657 z m 25.05078,0.25976 c 1.03007,0.7428 2.13912,1.37811 3.31445,1.86133 -0.49844,0.55166 -1.02495,1.0771 -1.57422,1.57812 -0.5771,-1.40705 -1.37344,-2.72231 -2.33398,-3.90039 0.19791,0.15365 0.39583,0.30729 0.59375,0.46094 z M 67.421833,115.11761 c 0.96715,0.0908 1.13378,1.71768 0.12109,1.89648 -0.86721,0.31208 -1.59305,-0.80193 -1.03776,-1.50333 0.17783,-0.31825 0.57498,-0.42547 0.91667,-0.39315 z m 180.833977,1.40234 c 4.47443,0.1664 8.51719,3.78646 9.17774,8.2168 0.69335,4.00128 -1.33567,8.31436 -4.92579,10.24805 -3.59646,2.0163 -8.43886,1.51425 -11.45797,-1.33046 -3.00574,-2.70797 -4.07176,-7.32906 -2.46844,-11.05892 1.477,-3.62046 5.2393,-6.19082 9.17327,-6.08245 0.16706,0.002 0.33413,0.005 0.50119,0.007 z m -72.88672,1.84766 c 4.08473,-0.0394 7.86156,3.29473 8.32517,7.35505 0.51696,3.6835 -1.65151,7.57029 -5.12502,8.9582 -3.35809,1.42464 -7.57994,0.4346 -9.85839,-2.44402 -2.40033,-2.8956 -2.57557,-7.41148 -0.2684,-10.41431 1.5948,-2.15068 4.23783,-3.51175 6.92664,-3.45492 z m -116.494137,3.94531 c 0.59049,0.78655 1.27377,1.50888 2.06055,2.10156 -0.61534,0.18089 -0.93454,-0.2126 -1.27539,-0.65039 -0.28045,-0.38964 -0.92555,-0.62684 -1.08078,-0.99231 0.11674,-0.12854 0.11779,-0.86699 0.29562,-0.45886 z m 17.00586,0.16602 c 0.25285,0.49962 -0.64402,0.60615 -0.85937,1 -0.40765,0.38336 -0.77474,0.81335 -1.06446,1.29297 -0.95544,-0.0801 -0.218,-0.41944 0.19572,-0.78177 0.61564,-0.53959 1.15651,-1.15943 1.64608,-1.81394 0.0273,0.10092 0.0547,0.20183 0.082,0.30274 z m -38.25976,9.66211 c 2.30845,1.09155 4.91429,0.64256 7.37499,0.74117 1.83268,0.005 3.66537,0.001 5.49805,0.001 0.0336,3.54782 -0.0944,7.10485 0.0937,10.64648 0.13201,0.89081 0.40304,1.7603 0.80469,2.56641 -3.4233,-1.80128 -6.51755,-4.20835 -9.13477,-7.05469 -0.28525,-0.32638 -0.67706,-0.74656 -1.04602,-1.19139 -1.50947,-1.81459 -2.83282,-3.78499 -3.93054,-5.87502 0.11328,0.0553 0.22657,0.11068 0.33985,0.16602 z m 59.34765,0.41211 c -3.16128,5.72419 -8.0184,10.50363 -13.81054,13.54297 1.02443,-1.87277 0.92539,-4.05221 0.90251,-6.11484 0.006,-2.36667 0.006,-4.73334 0.004,-7.10001 3.54717,-0.0336 7.10355,0.0944 10.64453,-0.0937 0.89076,-0.1315 1.75915,-0.40376 2.5664,-0.80273 -0.10221,0.18945 -0.20442,0.3789 -0.30664,0.56836 z m 176.554687,8.83789 c 4.46998,0.16694 8.50925,3.7796 9.17383,8.20508 0.68463,3.93743 -1.26019,8.17996 -4.74678,10.1613 -3.63623,2.14568 -8.63284,1.65112 -11.6954,-1.28944 -2.94946,-2.7063 -3.99044,-7.26654 -2.42261,-10.96365 1.46759,-3.63854 5.2408,-6.23069 9.18977,-6.12027 0.16706,0.002 0.33413,0.005 0.50119,0.007 z m 65.89844,1.61523 c 0.7576,5.98204 1.16895,12.19078 1.41014,18.28629 0.25254,6.53921 0.26581,13.08776 0.0332,19.62777 -0.0563,1.5046 -0.13082,3.19082 -0.22126,4.72493 -0.18238,3.19869 -0.43287,6.38108 -0.7583,9.46873 -0.30087,2.88618 -0.67301,5.72607 -1.1171,8.54001 -0.40215,2.57512 -0.88041,5.13786 -1.42678,7.68626 -0.23445,1.06645 -0.53429,2.38779 -0.79102,3.55273 -1.1183,4.92824 -2.30245,9.84204 -3.6289,14.71875 -0.47349,1.72909 -1.02957,3.65479 -1.57227,5.44922 -2.10027,6.75993 -4.4368,13.50875 -7.90004,19.70745 -1.99155,3.36202 -4.24095,6.78797 -7.60476,8.92002 -2.21622,1.43497 -4.98049,1.70112 -7.55083,1.43371 -2.32255,-0.22769 -4.43395,-1.48106 -5.91761,-3.25609 -2.82222,-3.22904 -4.36977,-7.32207 -5.75983,-11.31859 -2.58434,-7.70656 -4.11332,-15.62076 -6.01899,-23.50041 -3.00955,-12.92469 -5.8853,-25.88181 -8.84025,-38.81787 -0.52045,-1.75737 -1.36179,-3.40985 -2.40378,-4.91431 16.14699,-1.42078 31.79959,-8.23312 43.71015,-19.25237 6.74757,-6.21526 12.30163,-13.72673 16.23321,-22.01717 0.0417,0.32032 0.0833,0.64063 0.125,0.96094 z M 11.566363,142.74456 c 6.76322,13.89158 18.14973,25.43735 31.88015,32.50273 8.60878,4.45674 18.09394,7.20679 27.74875,8.06954 -1.60139,2.27499 -2.58835,4.93148 -3.03838,7.66731 -3.78573,16.8607 -7.59887,33.66869 -11.61888,50.47643 -1.54972,5.99453 -3.16145,12.08294 -6.25484,17.49688 -1.61829,2.79505 -4.04189,5.50434 -7.38031,6.06371 -2.39188,0.40428 -4.94852,0.21128 -7.18219,-0.76878 -3.65921,-1.81783 -6.09246,-5.29857 -8.16099,-8.69695 -3.81741,-6.48888 -6.25736,-13.66508 -8.47058,-20.82677 -2.48258,-8.32408 -4.49234,-16.78358 -6.28282,-25.24812 -0.44031,-2.16916 -0.84168,-4.52041 -1.19694,-6.82191 -0.33233,-2.18878 -0.65299,-4.69101 -0.89063,-6.88477 -1.0694802,-10.0371 -1.3773702,-20.27209 -1.1409402,-30.41128 0.14611,-6.03853 0.4648902,-12.15949 1.0761302,-18.22983 0.16735,-1.6973 0.3599,-3.39232 0.58044,-5.0835 0.11067,0.23177 0.22135,0.46354 0.33203,0.69531 z m 162.687497,12.03711 c -11.45289,0.21785 -22.68429,5.44895 -30.25734,14.03789 -6.98595,7.81023 -10.86877,18.31489 -10.57713,28.7956 0.21529,10.50475 4.57709,20.85566 11.97408,28.32263 7.5156,7.69248 18.08055,12.32536 28.84325,12.53181 10.80817,0.30752 21.66495,-3.79054 29.54774,-11.19792 7.94709,-7.35927 12.86242,-17.89822 13.29713,-28.73006 0.50776,-10.53752 -3.15394,-21.20841 -10.06223,-29.18789 -7.29133,-8.52374 -18.1167,-13.94648 -29.33517,-14.51317 -1.14204,-0.066 -2.28657,-0.0805 -3.43033,-0.0589 z m 2.30859,9.50391 c 8.71508,0.30647 17.21484,4.33821 22.95104,10.90902 5.41253,6.05268 8.36688,14.21047 8.09398,22.32559 -0.15569,8.0585 -3.52361,15.97169 -9.17037,21.71449 -1.91373,1.96297 -4.07945,3.67735 -6.42152,5.10168 -0.27097,0.161 -0.90895,0.53575 -1.32522,0.75957 -9.36518,5.15447 -21.31777,5.17697 -30.70787,0.0688 -8.57777,-4.56309 -14.89686,-13.16243 -16.56532,-22.74869 -1.6213,-8.8991 0.64529,-18.45507 6.24714,-25.58038 5.24095,-6.82869 13.2987,-11.40323 21.85805,-12.35576 1.67189,-0.19648 3.3581,-0.24855 5.04009,-0.19428 z m -3.11719,4.98633 c -1.85178,0.50099 -3.60532,1.33545 -5.41848,1.96584 -4.95129,1.89254 -9.90579,3.78231 -14.85886,5.67283 -1.73072,6.97477 -3.56076,13.92407 -5.26953,20.9043 0.13077,1.92891 1.15582,3.62405 1.73832,5.43252 1.97309,5.16185 3.93531,10.32667 5.94137,15.47568 7.07788,1.79439 14.15169,3.60427 21.23633,5.37109 4.27108,-1.41727 8.41972,-3.17163 12.64032,-4.7291 2.64053,-1.00602 5.2798,-2.0206 7.91241,-3.05215 1.74693,-6.92749 3.51549,-13.85227 5.28711,-20.77148 0.19742,-1.30303 -0.69537,-2.40563 -1.02211,-3.61131 -2.22162,-5.79598 -4.43434,-11.59464 -6.64586,-17.39455 -7.04607,-1.76978 -14.07315,-3.60929 -21.13086,-5.33203 -0.13672,0.0228 -0.27344,0.0456 -0.41016,0.0684 z m 2.5293,14.89062 c 5.29102,0.21046 10.15301,4.19361 11.41086,9.33728 1.19087,4.55173 -0.4054,9.71835 -4.06843,12.70444 -3.84881,3.26353 -9.72004,3.85789 -14.11081,1.34321 -3.9552,-2.17477 -6.56862,-6.59828 -6.42232,-11.12825 0.0604,-4.47669 2.68867,-8.82392 6.69933,-10.85222 1.98704,-1.0393 4.2526,-1.52631 6.49137,-1.40446 z" /><path
   id="path3"
   d="m 175.04487,4.0121379 c -27.119,0 -51.56061,6.6955631 -68.84961,17.4765631 l -0.41992,0.255859 0.0527,0.365235 -0.0293,-0.01563 c 0,0 -1.86788,3.878925 -3.52344,8.367188 -0.15084,-0.02842 -0.30771,-0.04293 -0.46679,-0.03906 -0.575,0.016 -1.3965,0.154562 -3.312497,0.351562 -2.067,0.212 -10.27368,1.605375 -19.38868,3.359375 -9.115,1.754 -19.02906,3.8345 -24.28906,5.4375 -5.285,1.61 -11.04886,4.628609 -15.63086,7.349609 -2.291,1.359 -4.29267,2.630672 -5.76367,3.638672 -0.736,0.504 -1.34387,0.942203 -1.79687,1.283203 -0.453,0.341 -0.7096,0.541969 -0.9336,0.792969 -0.633,0.712 -0.74101,1.682516 -0.79101,3.103516 -0.052,1.421 0.0162,3.337343 0.11523,5.902344 l 0.0332,-0.002 C 16.681043,74.053462 8.3651528,91.940253 8.3651528,111.61561 c 0,1.41813 0.12723,2.80109 0.21289,4.19531 l -0.1875,0.006 c 0.188,4.141 -1.06497,14.9769 -2.54297,25.12891 -1.496,10.275 -4.07458,43.7332 1.98242,71.5332 3.0140002,13.837 6.5477802,27.61311 11.1757802,38.28711 4.627,10.673 10.3746,18.39053 18.0586,19.64453 7.462,1.219 12.82307,-1.29575 16.70507,-6.71875 3.882,-5.422 6.43907,-13.65749 8.91407,-24.14649 4.936,-20.932 10.15614,-44.33439 11.24414,-49.27539 0.493,-2.239 2.2239,-4.85289 4.5039,-6.83789 2.28,-1.984 5.09599,-3.33118 7.58399,-3.24218 l 0.002,-0.0742 c 11.31925,0.85264 19.700287,2.62488 25.728517,5.01758 7.65,3.036 11.70779,6.97978 14.09179,11.17578 1.087,1.914 2.28433,6.9502 3.36133,13.5332 1.077,6.582 2.11839,14.78052 3.15039,23.35352 2.063,17.146 4.11944,35.76395 6.64844,46.12695 3.063,12.55 7.07984,27.38144 12.71484,39.14844 2.817,5.884 6.05178,10.98878 9.80078,14.67578 3.748,3.686 8.05727,5.94922 12.94727,5.94922 h 1.60937 c 4.892,0 9.22466,-2.26422 12.97266,-5.94922 3.747,-3.687 6.95939,-8.79178 9.77539,-14.67578 5.636,-11.768 9.6538,-26.59944 12.7168,-39.14844 2.531,-10.362 4.60883,-28.98096 6.67383,-46.12695 1.031,-8.57301 2.05,-16.77052 3.125,-23.35352 1.078,-6.584 2.27337,-11.6192 3.35937,-13.5332 2.386,-4.196 6.46824,-8.13981 14.11524,-11.17578 6.03299,-2.39428 14.40753,-4.1676 25.73242,-5.01954 l 0.004,0.0762 c 2.488,-0.089 5.28055,1.25818 7.56055,3.24218 2.281,1.985 4.01191,4.59889 4.50391,6.83789 1.087,4.94 6.33253,28.34439 11.26953,49.27539 2.475,10.489 5.03011,18.72549 8.91211,24.14649 3.884,5.423 9.24308,7.93775 16.70508,6.71875 7.684,-1.254 13.43354,-8.97153 18.06054,-19.64453 4.628,-10.674 8.16078,-24.45011 11.17578,-38.28711 6.056,-27.8 3.47843,-61.2582 1.98243,-71.5332 -1.479,-10.153 -2.75541,-20.98891 -2.56641,-25.12891 l -0.19336,-0.006 c 0.0856,-1.39425 0.21289,-2.77714 0.21289,-4.19531 0,-19.675355 -8.3159,-37.562149 -21.68555,-49.976567 l 0.0352,0.002 c 0.099,-2.565 0.19067,-4.480344 0.13867,-5.902344 -0.051,-1.421 -0.1834,-2.391516 -0.8164,-3.103516 -0.224,-0.252 -0.4786,-0.452969 -0.9336,-0.792969 -0.453,-0.34 -1.05792,-0.779203 -1.79492,-1.283203 -1.472,-1.008 -3.45023,-2.280625 -5.74023,-3.640625 -4.582,-2.72 -10.3683,-5.738609 -15.6543,-7.349609 -5.261,-1.603 -15.17406,-3.6825 -24.28906,-5.4375 -9.114,-1.754 -17.29728,-3.147375 -19.36328,-3.359375 -1.916,-0.196 -2.73846,-0.33361 -3.31446,-0.349609 -0.15863,-0.0039 -0.30024,0.05004 -0.45117,0.07812 -1.65972,-4.507371 -3.54099,-8.406248 -3.54102,-8.40625 l -0.0527,0.02539 0.0566,-0.373047 -0.39648,-0.255859 c -17.289,-10.78 -41.755,-17.4765629 -68.875,-17.4765629 h -0.44532 z m 0,1.4941407 h 0.44532 c 26.664,0 50.69315,6.5608124 67.66015,17.0078124 l -10.87304,76.808596 -0.0234,0.0937 1.47266,0.2793 16.44726,-60.917974 -1.44531,-0.396484 -13.32227,49.322266 8.92383,-62.939454 c 0.72148,1.591961 1.67742,3.791628 2.68945,6.591797 0.828,2.284 1.25875,4.093563 2.21875,5.601563 0.96,1.508 2.48238,2.596625 5.10938,3.265625 2.673,0.681 9.47819,1.54789 17.66015,2.96289 8.183,1.415 17.68077,3.357797 25.38477,6.091797 25.415,9.014 43.28125,33.762844 43.28125,62.339847 0,36.735 -29.77153,65.62109 -66.51953,66.49609 -16.637,0.396 -28.01225,2.4891 -35.90625,5.6211 -7.896,3.134 -12.31328,7.34208 -14.86328,11.83008 -1.379,2.43 -2.43649,7.39448 -3.52149,14.02148 -1.083,6.629 -2.11839,14.84683 -3.15039,23.42383 -2.063,17.157 -4.149,35.7984 -6.625,45.9414 -3.057,12.52 -7.08104,27.2951 -12.62304,38.8711 -2.771,5.786 -5.91266,10.77734 -9.47266,14.27734 -3.558,3.499 -7.48487,5.50391 -11.92188,5.50391 h -1.60937 c -4.436,0 -8.36287,-2.00491 -11.92187,-5.50391 -3.55902,-3.5 -6.70066,-8.49134 -9.47266,-14.27734 -5.542,-11.576 -9.56705,-26.3521 -12.62305,-38.8711 -2.477,-10.145 -4.562,-28.7844 -6.625,-45.9414 -1.033,-8.577 -2.06639,-16.79583 -3.15039,-23.42383 -1.083,-6.627 -2.14148,-11.59248 -3.52148,-14.02148 -2.55,-4.488 -6.96828,-8.69608 -14.86328,-11.83008 -7.895,-3.132 -19.269247,-5.2261 -35.906247,-5.6211 -36.747,-0.875 -66.5175802,-29.76109 -66.5175802,-66.49609 0,-28.577003 17.8642902,-53.325847 43.2792902,-62.339847 7.705,-2.733 17.20277,-4.676797 25.38477,-6.091797 8.183,-1.415 14.98811,-2.28189 17.66211,-2.96289 2.626,-0.669 4.149367,-1.756625 5.109367,-3.265625 0.96,-1.508 1.38885,-3.316563 2.21485,-5.601563 1.01581,-2.807225 1.97415,-5.008663 2.69531,-6.599609 l 8.90234,62.804687 -13.29882,-49.18164 -1.42383,0.396484 16.42578,60.826167 v 0.0234 l 0.0234,0.0703 1.44531,-0.28126 v -0.0937 l -0.0234,-0.0938 -10.87109,-76.712886 c 16.968,-10.454 40.98915,-17.0078124 67.66015,-17.0078124 z M 101.74214,31.926201 c -0.61004,1.774964 -1.07113,3.237769 -1.70703,4.236328 -0.766997,1.206 -1.815657,2.001281 -4.222657,2.613281 -2.361,0.603 -9.32792,1.518453 -17.54492,2.939453 -8.218,1.421 -17.76114,3.371203 -25.61914,6.158203 -7.8725,2.792503 -15.018,7.07681 -21.17969,12.476563 -0.0684,-1.896777 -0.11346,-3.463423 -0.0742,-4.541016 0.047,-1.317 0.26393,-2.017359 0.41993,-2.193359 -0.027,0.03 0.29265,-0.259031 0.72265,-0.582031 0.429,-0.323 1.00652,-0.744282 1.72852,-1.238282 1.443,-0.988 3.40697,-2.248796 5.66797,-3.591796 4.523,-2.684 10.25012,-5.661985 15.32812,-7.208985 5.104,-1.555 15.03,-3.640625 24.125,-5.390625 9.094,-1.75 17.46505,-3.177375 19.24805,-3.359375 1.847817,-0.189178 2.713927,-0.299581 3.107417,-0.318359 z m 147.06836,0.002 c 0.38715,0.01595 1.22183,0.125063 3.08984,0.316406 1.783,0.183 10.15305,1.607422 19.24805,3.357422 9.095,1.75 19.04348,3.835625 24.14648,5.390625 5.077,1.548 10.78365,4.524984 15.30665,7.208984 2.262,1.343 4.22696,2.60575 5.66796,3.59375 0.723,0.495 1.322,0.914328 1.75,1.236328 0.43,0.322002 0.72818,0.614985 0.70118,0.583985 0.156,0.177 0.39633,0.874406 0.44336,2.191406 0.0379,1.040194 -0.0277,2.747428 -0.0918,4.548828 -6.16336,-5.40287 -13.3121,-9.688784 -21.1875,-12.482422 -7.857,-2.787 -17.39919,-4.737203 -25.61719,-6.158203 -8.218,-1.421 -15.18392,-2.337453 -17.54492,-2.939453 -2.407,-0.612 -3.45561,-1.407281 -4.22461,-2.613281 -0.63407,-0.998287 -1.08363,-2.46012 -1.6875,-4.234375 z m 50.75586,37.132812 c -5.52361,0 -10.16628,3.852818 -11.36328,9.015625 -5.86549,2.705151 -10.60584,7.428621 -13.3086,13.292969 -5.15321,1.204818 -8.99609,5.842087 -8.99609,11.357413 0,5.52107 3.8497,10.14501 9.00977,11.33985 2.70443,5.86951 7.42911,10.59592 13.29882,13.29883 1.20072,5.1573 5.83937,9.00586 11.35938,9.00586 5.51737,0 10.13947,-3.84446 11.33789,-8.99805 5.86466,-2.70218 10.59124,-7.44572 13.29883,-13.30664 5.15849,-1.19552 9.00781,-5.81942 9.00781,-11.33985 -8.6e-4,-5.519126 -3.85049,-10.158461 -9.00781,-11.359366 -2.70546,-5.870507 -7.42933,-10.604323 -13.29883,-13.308594 -1.19885,-5.154011 -5.82052,-8.998047 -11.33789,-8.998047 z m 0,1.492188 c 5.619,0 10.14844,4.52939 10.14844,10.150391 0,5.62 -4.52944,10.171874 -10.14844,10.171874 -5.62,0 -10.17188,-4.551874 -10.17188,-10.171874 0,-5.620002 4.55188,-10.150391 10.17188,-10.150391 z m 0,3.009765 c -0.757,0 -1.44431,0.400907 -1.82031,1.003907 v 0.02344 l -4.57227,7.558544 c -0.005,0.006 0.004,0.01744 0,0.02344 l -0.0234,0.02344 c -0.211,0.332 -0.32617,0.723578 -0.32617,1.142578 0,1.166 0.95605,2.146481 2.12305,2.146485 h 9.2168 c 1.16698,0 2.14648,-0.979485 2.14648,-2.146485 0,-0.426 -0.15205,-0.807578 -0.37305,-1.142578 v -0.02344 l -4.5039,-7.466797 c -0.004,-0.01 -0.0174,-0.01344 -0.0234,-0.02344 -0.362,-0.663 -1.04175,-1.11914 -1.84375,-1.119141 z m 0,1.494141 c 0.251,0 0.45455,0.14661 0.56055,0.349609 v 0.02344 l 0.0234,0.02344 4.52539,7.511718 0.0234,0.02344 c 0.067,0.1 0.11524,0.216609 0.11524,0.349609 0,0.359 -0.29135,0.654297 -0.65235,0.654297 h -9.2168 c -0.36099,0 -0.6289,-0.294297 -0.6289,-0.654297 0,-0.136 0.0238,-0.249609 0.0918,-0.349609 l 0.0234,-0.02344 4.59766,-7.605468 c 0.115,-0.171003 0.30911,-0.302735 0.53711,-0.302735 z M 67.279253,76.643045 c -21.771,0 -39.42969,17.683121 -39.42969,39.453125 0,21.77 17.65869,39.43164 39.42969,39.43164 21.771,0 39.429687,-17.66164 39.429687,-39.43164 0,-21.770004 -17.658687,-39.453125 -39.429687,-39.453125 z m 0,1.49414 c 20.964,0 37.935547,16.994981 37.935547,37.958985 0,20.964 -16.971547,37.93945 -37.935547,37.93945 -20.964,0 -37.9375,-16.97445 -37.9375,-37.93945 0,-20.964004 16.9725,-37.958985 37.9375,-37.958985 z M 287.9355,79.853982 c -0.0204,0.280561 -0.0352,0.563907 -0.0352,0.84961 0,6.426997 5.23902,11.666015 11.66602,11.666015 6.428,0 11.64258,-5.23902 11.64258,-11.666015 -5e-5,-0.279722 -0.0137,-0.557232 -0.0332,-0.832032 4.82414,2.458405 8.77448,6.401906 11.23633,11.22461 -0.27925,-0.02017 -0.55941,-0.03516 -0.84375,-0.03516 -6.427,0 -11.66601,5.240036 -11.66601,11.66601 0,6.42701 5.23901,11.64454 11.66601,11.64454 0.27972,0 0.55528,-0.0138 0.83008,-0.0332 -2.45884,4.82344 -6.39728,8.76376 -11.22266,11.22266 0.0194,-0.27476 0.0332,-0.55235 0.0332,-0.83203 -0.001,-6.427 -5.21658,-11.66602 -11.64258,-11.66602 -6.427,0 -11.66602,5.23902 -11.66602,11.66602 0,0.285 0.0149,0.56776 0.0352,0.84765 -4.82999,-2.46163 -8.79073,-6.40896 -11.25195,-11.24023 0.28377,0.0207 0.56838,0.0352 0.85742,0.0352 6.425,0 11.66601,-5.21753 11.66601,-11.64454 0,-6.425974 -5.24101,-11.66601 -11.66601,-11.66601 -0.28377,0 -0.5631,0.01508 -0.8418,0.03516 2.46041,-4.829518 6.4073,-8.78146 11.23633,-11.242188 z M 59.578083,84.949685 c -2.803,0 -5.08594,2.283938 -5.08594,5.085938 v 11.572257 c 0,0.687 -0.0904,1.13308 -0.23242,1.33008 -0.143,0.197 -0.38233,0.37305 -1.23633,0.37305 h -11.80664 c -2.802,0 -5.08594,2.28394 -5.08594,5.08594 v 15.40039 c 0,2.802 2.28394,5.08594 5.08594,5.08594 h 11.64258 c 0.568,10e-4 0.96389,0.13504 1.21289,0.37304 0.249,0.238 0.41992,0.61177 0.41992,1.25977 v 11.64258 c 0,2.802 2.28394,5.08593 5.08594,5.08593 h 15.39844 c 2.80199,0 5.08789,-2.28393 5.08789,-5.08593 v -11.66602 c 0,-0.877 0.18504,-1.19552 0.37304,-1.35352 0.188,-0.157 0.57246,-0.25585 1.18946,-0.25585 h 11.71093 c 2.802,0 5.08594,-2.28394 5.08594,-5.08594 v -15.40039 c 0,-2.802 -2.28394,-5.08594 -5.08594,-5.08594 h -11.6875 c -0.897,0 -1.58593,-0.57381 -1.58593,-1.63281 V 90.035576 c 0,-2.802 -2.28589,-5.085938 -5.08789,-5.085938 z m 0,1.492188 h 15.39844 c 1.99399,0 3.59376,1.59975 3.59374,3.59375 v 11.642537 c 0,1.803 1.44508,3.125 3.08008,3.125 h 11.6875 c 1.995,0 3.59375,1.59875 3.59375,3.59375 v 15.39843 c 0,1.994 -1.59875,3.59375 -3.59375,3.59375 h -11.71093 c -0.748,0 -1.52449,0.0835 -2.14649,0.60547 -0.622,0.521 -0.91015,1.3841 -0.91016,2.4961 v 11.66601 c 0,1.994 -1.59779,3.59375 -3.59179,3.59375 h -15.39844 c -1.996,0 -3.59375,-1.59975 -3.59375,-3.59375 v -11.64258 c 0,-0.946 -0.30276,-1.77698 -0.88476,-2.33398 -0.582,-0.556 -1.39424,-0.79297 -2.24024,-0.79297 h -11.64258 c -1.996,0 -3.59375,-1.5988 -3.59375,-3.5918 v -15.40039 c 0,-1.995 1.59775,-3.59179 3.59375,-3.59179 h 11.80469 c 1.105,0 1.97317,-0.34291 2.45117,-1.00391 0.479,-0.662 0.51172,-1.41736 0.51172,-2.19336 V 90.035576 c -10e-4,-1.995 1.5968,-3.59375 3.5918,-3.59375 z m 1.02734,0.933593 c -2.486,0 -4.52734,2.042344 -4.52734,4.527344 v 11.61914 c 0,0.59 -0.0825,0.9557 -0.18555,1.0957 -0.102,0.141 -0.27991,0.2793 -1.00391,0.2793 h -11.80664 c -2.485,0 -4.52539,2.0189 -4.52539,4.5039 v 13.36914 c 0,2.485 2.04039,4.52539 4.52539,4.52539 h 11.68946 c 0.475,0 0.78551,0.11774 0.97851,0.30274 0.194,0.186 0.32813,0.4599 0.32813,1.0039 v 11.68946 c 0,2.485 2.04134,4.50195 4.52734,4.50195 h 13.34375 c 2.485,0 4.52735,-2.01695 4.52735,-4.50195 v -11.71289 c 0,-0.747 0.14429,-0.98466 0.27929,-1.09766 0.134,-0.112 0.45347,-0.18555 0.98047,-0.18555 h 11.73633 c 2.486,0 4.52539,-2.04234 4.52539,-4.52734 v -13.36719 c 0,-2.485 -2.04039,-4.5039 -4.52539,-4.5039 h -11.71289 c -0.731,0 -1.2832,-0.43664 -1.2832,-1.30664 V 91.902763 c 0,-2.485 -2.04235,-4.527343 -4.52735,-4.527344 z m 0,1.494141 h 13.3457 c 1.678,0 3.03321,1.354203 3.03321,3.033203 v 11.68945 c 0,1.614 1.30839,2.79883 2.77539,2.79883 h 11.71289 c 1.679,0 3.03125,1.33372 3.03125,3.01172 v 13.36718 c 0,1.678 -1.35225,3.03321 -3.03125,3.03321 h -11.73633 c -0.659,0 -1.3675,0.0611 -1.9375,0.53711 -0.568,0.477 -0.81641,1.26023 -0.81641,2.24023 v 11.71289 c 0,1.679 -1.3552,3.00977 -3.0332,3.00977 h -13.34375 c -1.679,0 -3.03515,-1.33077 -3.03516,-3.00977 v -11.68945 c 0,-0.841 -0.26596,-1.57217 -0.79296,-2.07617 -0.527,-0.504 -1.25286,-0.72461 -2.00586,-0.72461 h -11.68946 c -1.678,0 -3.0332,-1.35521 -3.0332,-3.03321 v -13.36718 c 0,-1.678 1.3542,-3.01172 3.0332,-3.01172 h 11.80664 c 0.975,0 1.7798,-0.30416 2.2168,-0.91016 0.438,-0.606 0.4668,-1.27998 0.4668,-1.95898 V 91.902763 c 10e-4,-1.678 1.3542,-3.033203 3.0332,-3.033203 z m 6.67383,2.986328 c -0.791,0 -1.47875,0.446703 -1.84375,1.095703 -0.011,0.019 -0.0369,0.02688 -0.0469,0.04687 l -4.47851,7.466802 -0.0234,-0.0234 c -0.008,0.013 0.008,0.0349 0,0.0469 -0.21,0.33 -0.34961,0.72458 -0.34961,1.14258 0,1.166 0.95505,2.12305 2.12305,2.12305 h 9.24023 c 1.167,0 2.12305,-0.95605 2.12305,-2.12305 0,-0.43 -0.151,-0.83097 -0.375,-1.16797 v -0.0215 l -4.54883,-7.583987 h -0.0234 c -0.377,-0.601 -1.03887,-1.001953 -1.79687,-1.001953 z m 210.261717,0.699219 c 5.619,0 10.17187,4.55289 10.17187,10.171866 0,5.62002 -4.55287,10.1504 -10.17187,10.1504 -5.619,0 -10.14844,-4.53037 -10.14844,-10.1504 0,-5.619996 4.52944,-10.171866 10.14844,-10.171866 z m 44.02734,0 c 5.619,0 10.14844,4.55289 10.14844,10.171866 0,5.62002 -4.52944,10.1504 -10.14844,10.1504 -5.62,0 -10.17383,-4.53037 -10.17383,-10.1504 0,-5.619996 4.55383,-10.171866 10.17383,-10.171866 z M 67.279253,93.348123 c 0.233,0 0.42411,0.124687 0.53711,0.304687 l 4.57031,7.58203 0.0234,0.0234 v 0.0234 c 0.068,0.101 0.11719,0.21561 0.11719,0.34961 0,0.359 -0.26891,0.62891 -0.62891,0.62891 h -9.23828 c -0.361,0 -0.63086,-0.26891 -0.63086,-0.62891 0,-0.134 0.0492,-0.24761 0.11719,-0.34961 v -0.0234 l 4.54882,-7.53711 v -0.02148 h 0.0234 c 0.105,-0.203 0.30855,-0.351562 0.56055,-0.351562 z m 212.896477,2.638672 c -0.419,0 -0.81157,0.112218 -1.14257,0.324218 l -0.0469,0.02539 -7.55859,4.572267 h -0.0234 c -0.604,0.376 -1.00195,1.03887 -1.00195,1.79687 0,0.803 0.45518,1.50519 1.11718,1.86719 l 0.0234,0.0215 7.4668,4.50391 0.0234,0.0234 v -0.0234 c 0.334,0.216 0.71757,0.34961 1.14257,0.34961 1.167,0 2.14649,-0.95705 2.14649,-2.12305 v -9.214837 c 0.002,-1.168 -0.97949,-2.123049 -2.14649,-2.123049 z m 38.75586,0 c -1.167,0 -2.14648,0.957049 -2.14648,2.123049 v 9.214836 c 0,1.167 0.97948,2.12305 2.14648,2.12305 0.419,0 0.81153,-0.11217 1.14453,-0.32617 0.008,-0.005 0.0155,-0.0184 0.0215,-0.0234 h 0.0234 l 7.55859,-4.57227 h 0.0234 c 0.604,-0.375 1.0039,-1.04078 1.0039,-1.79883 0,-0.80199 -0.45609,-1.50323 -1.12109,-1.86523 l -0.0215,-0.0234 -7.4668,-4.501946 c -0.006,-0.005 -0.0165,0.003 -0.0215,0 -0.335,-0.219 -0.71753,-0.349609 -1.14453,-0.349609 z m -38.75586,1.492189 c 0.361,0 0.6543,0.27186 0.6543,0.63086 v 9.214836 c 0,0.359 -0.2923,0.62891 -0.6543,0.62891 -0.132,0 -0.24561,-0.0238 -0.34961,-0.0918 v -0.0234 h -0.0215 l -7.51367,-4.52734 -0.0215,-0.0215 h -0.0234 c -0.201,-0.10598 -0.35157,-0.33298 -0.35157,-0.58398 0,-0.226 0.13369,-0.39772 0.30469,-0.51172 l 7.60545,-4.597723 h 0.0215 v -0.0234 c 0.104,-0.07 0.21561,-0.0937 0.34961,-0.0937 z m 38.75586,0 c 0.132,0 0.24761,0.0248 0.34961,0.0937 v 0.0215 h 0.0234 l 7.51367,4.527346 0.0215,0.0234 h 0.0234 c 0.207,0.107 0.34961,0.32908 0.34961,0.58203 0,0.22702 -0.13373,0.40263 -0.30273,0.51563 l -7.60545,4.59377 -0.0234,0.0234 c -0.099,0.067 -0.21161,0.0937 -0.34961,0.0937 -0.359,0 -0.65429,-0.26991 -0.65429,-0.62891 v -9.216803 c 0,-0.359 0.29529,-0.6289 0.65429,-0.6289 z M 175.27925,108.32859 c -10.215,0 -18.52539,8.30844 -18.52539,18.52343 0,10.21501 8.31039,18.50196 18.52539,18.50196 10.215,0 18.50195,-8.28696 18.50195,-18.50196 10e-4,-10.216 -8.28695,-18.52343 -18.50195,-18.52343 z m -122.466797,1.02539 c -0.42,0 -0.81353,0.11317 -1.14453,0.32617 l -0.0449,0.0234 -7.56055,4.57422 h -0.0234 c -0.60301,0.375 -1.00196,1.06136 -1.00196,1.81836 0,0.804 0.45414,1.50618 1.11914,1.86718 l 0.0234,0.0234 7.4668,4.47852 0.0215,0.0234 v -0.0234 c 0.335,0.219 0.71853,0.37304 1.14453,0.37304 1.166,0 2.14649,-0.97853 2.14649,-2.14453 v -9.2168 c 10e-4,-1.16698 -0.98049,-2.12304 -2.14649,-2.12304 z m 28.93164,0 c -1.167,0 -2.125,0.95705 -2.125,2.12304 v 9.2168 c 0,1.166 0.958,2.14649 2.125,2.14649 0.419,0 0.80958,-0.13661 1.14258,-0.34961 0.007,-0.006 0.0154,-0.0204 0.0234,-0.0254 h 0.0234 l 7.55859,-4.57227 h 0.0234 c 0.605,-0.375 1.0039,-1.04087 1.0039,-1.79687 0,-0.802 -0.45609,-1.50519 -1.12109,-1.86719 l -0.0234,-0.0215 -7.46484,-4.50195 c -0.006,-0.004 -0.0174,0.003 -0.0234,0 -0.333,-0.22 -0.71558,-0.35156 -1.14258,-0.35156 z m -14.46484,0.25781 c -3.565,0 -6.46289,2.91938 -6.46289,6.48438 0,3.565 2.89789,6.46289 6.46289,6.46289 3.565,0 6.46289,-2.89789 6.46289,-6.46289 0,-3.565 -2.89789,-6.48438 -6.46289,-6.48438 z m 107.999997,0.20899 c 9.408,0 17.00781,7.62324 17.00781,17.03124 0,9.40701 -7.60081,17.00977 -17.00781,17.00977 -9.407,0 -17.03125,-7.60277 -17.03125,-17.00977 0,-9.409 7.62325,-17.03124 17.03125,-17.03124 z m -122.466797,1.02539 c 0.359,0 0.65235,0.27186 0.65235,0.63085 v 9.2168 c 0,0.359 -0.29235,0.65235 -0.65235,0.65235 -0.136,0 -0.24961,-0.0482 -0.34961,-0.11719 l -0.0234,-0.0234 -7.51368,-4.52539 -0.0215,-0.0234 h -0.0234 c -0.203,-0.106 -0.34961,-0.30954 -0.34961,-0.56054 0,-0.233 0.12374,-0.42611 0.30274,-0.53711 l 7.60547,-4.59571 0.0234,-0.0234 c 0.101,-0.068 0.21461,-0.0937 0.34961,-0.0937 z m 28.93164,0 c 0.134,0 0.24861,0.0258 0.34961,0.0937 v 0.0234 h 0.0234 l 7.51172,4.54883 h 0.0234 l 0.0234,0.0234 c 0.202,0.106 0.34961,0.30955 0.34961,0.56055 0,0.233 -0.12373,0.42609 -0.30273,0.53711 l -7.60547,4.57226 v 0.0234 h -0.0234 c -0.1,0.068 -0.21361,0.11719 -0.34961,0.11719 -0.359,0 -0.6289,-0.29235 -0.6289,-0.65235 v -9.2168 c 0,-0.35898 0.2699,-0.63085 0.6289,-0.63085 z m 165.957027,0.16406 c -8.471,0 -15.35351,6.88251 -15.35351,15.35351 0,8.471 6.88251,15.35157 15.35351,15.35157 3.22241,0 6.20533,-1.00822 8.67579,-2.70899 l 3.87304,3.6582 c -1.65676,2.44945 -2.63476,5.39413 -2.63476,8.57032 0,8.471 6.88151,15.35156 15.35351,15.35156 8.471,0 15.3516,-6.88056 15.35156,-15.35156 10e-6,-8.471 -6.88056,-15.35352 -15.35156,-15.35352 -3.00773,0 -5.81346,0.87134 -8.18359,2.36914 l -4.04102,-3.79492 c 1.46312,-2.35057 2.31055,-5.12276 2.31055,-8.0918 -0.001,-8.471 -6.88352,-15.35351 -15.35352,-15.35351 z m -180.421867,0.0937 c 2.758,0 4.96875,2.23419 4.96875,4.99219 0,2.758 -2.21075,4.9707 -4.96875,4.9707 -2.758,0 -4.9707,-2.2127 -4.9707,-4.9707 0,-2.758 2.2117,-4.99219 4.9707,-4.99219 z m 180.421867,1.40039 c 7.664,0 13.85938,6.19537 13.85938,13.85937 0,7.663 -6.19538,13.85743 -13.85938,13.85743 -7.663,0 -13.85937,-6.19443 -13.85937,-13.85743 -10e-4,-7.664 6.19537,-13.85937 13.85937,-13.85937 z m -72.42187,0.37305 c -7.708,0 -13.97656,6.26856 -13.97656,13.97656 0,7.707 6.26856,13.97656 13.97656,13.97656 7.708,0 13.97461,-6.26956 13.97461,-13.97656 0,-7.709 -6.26561,-13.97656 -13.97461,-13.97656 z m 0,1.49414 c 6.901,0 12.48242,5.58047 12.48242,12.48046 0,6.90001 -5.58142,12.48243 -12.48242,12.48243 -6.901,0 -12.48242,-5.58143 -12.48242,-12.48243 0,-6.901 5.58142,-12.48046 12.48242,-12.48046 z m 124.28711,0.18554 c 5.619,0 10.14844,4.55188 10.14844,10.17188 0,5.619 -4.52944,10.15039 -10.14844,10.15039 -5.62,0 -10.17188,-4.53139 -10.17188,-10.15039 0,-5.62 4.55188,-10.17188 10.17188,-10.17188 z m -4.61914,5.39063 c -1.167,0 -2.12305,0.97753 -2.12305,2.14453 0,0.425 0.12861,0.81053 0.34961,1.14453 h -0.0234 l 0.0234,0.0234 4.50391,7.46484 0.0215,0.0234 c 0.362,0.665 1.06419,1.12109 1.86719,1.12109 0.757,0 1.42187,-0.4019 1.79687,-1.0039 v -0.0234 l 4.57422,-7.55859 v -0.0234 c 0.005,-0.008 0.0165,-0.0144 0.0195,-0.0234 0.214,-0.33 0.35352,-0.72253 0.35352,-1.14453 0,-1.167 -0.98044,-2.14453 -2.14844,-2.14453 z m 0,1.49219 h 9.21484 c 0.361,0 0.6543,0.29334 0.6543,0.65234 0,0.134 -0.0472,0.24856 -0.11719,0.35156 l -0.0234,0.0234 -4.5957,7.60547 c -0.113,0.172 -0.28767,0.30469 -0.51367,0.30469 -0.253,0 -0.47799,-0.14661 -0.58399,-0.34961 v -0.0234 l -0.0234,-0.0234 -4.52539,-7.51367 -0.0234,-0.0215 c -0.065,-0.099 -0.0918,-0.21557 -0.0918,-0.35157 -10e-4,-0.361 0.26891,-0.65429 0.62891,-0.65429 z m 46.10547,2.0957 c 0.46235,5.09722 1.25438,11.38113 2.16601,17.64258 1.464,10.057 4.02502,43.50561 -1.95898,70.97461 -3.006,13.801 -6.53103,27.50886 -11.08203,38.00586 -4.552,10.498 -10.1135,17.64476 -16.9375,18.75976 -7.047,1.15 -11.59233,-1.02428 -15.23633,-6.11328 -3.643,-5.089 -6.21869,-13.17733 -8.67969,-23.61133 -4.934,-20.916 -10.16009,-44.30151 -11.24609,-49.22851 -0.593,-2.698 -2.51114,-5.51579 -4.99414,-7.67579 -1.12943,-0.98375 -2.39403,-1.80519 -3.71289,-2.42968 1.63045,-0.0788 3.08497,-0.21432 4.83203,-0.25586 33.42859,-0.79675 61.191,-24.37703 66.84961,-56.06836 z m -331.5703172,0.0117 c 5.6633502,31.68492 33.4231702,55.25999 66.8476602,56.05664 1.73475,0.0412 3.17862,0.17593 4.79883,0.2539 -1.30796,0.62292 -2.55665,1.45555 -3.67774,2.43164 -2.482,2.16 -4.37375,4.97779 -4.96875,7.67579 -1.083,4.927 -6.33653,28.31251 -11.26953,49.22851 -2.461,10.435 -5.01325,18.52233 -8.65625,23.61133 -3.644,5.089 -8.21276,7.26428 -15.25976,6.11328 -6.825,-1.115 -12.3865,-8.26176 -16.9375,-18.75976 -4.551,-10.497 -8.07699,-24.20486 -11.0839902,-38.00586 -5.984,-27.469 -3.42298,-60.91761 -1.95898,-70.97461 0.91159,-6.25696 1.70285,-12.53547 2.16601,-17.63086 z m 53.1757902,4.86718 v 0.002 c -1.167,0 -2.12305,0.95604 -2.12305,2.12304 0,0.41901 0.13561,0.83302 0.34961,1.16602 l 0.0234,0.0469 4.54882,7.55859 h 0.0234 c 0.375,0.605 1.03988,1.00391 1.79688,1.00391 0.792,0 1.47679,-0.44866 1.84179,-1.09766 h 0.0234 c 0.008,-0.015 0.0154,-0.0309 0.0234,-0.0469 l 4.50195,-7.4414 v -0.0234 c 0.219,-0.334 0.35156,-0.74001 0.35156,-1.16602 0,-1.168 -0.95704,-2.125 -2.12304,-2.125 z m 0,1.49415 h 9.24023 c 0.359,0 0.62891,0.27185 0.62891,0.63085 0,0.13301 -0.0482,0.27105 -0.11719,0.37305 v 0.0215 l -4.55078,7.51367 v 0.0234 l -0.0234,0.0234 c -0.106,0.204 -0.30759,0.32618 -0.55859,0.32618 -0.234,0 -0.42511,-0.0993 -0.53711,-0.2793 l -4.57422,-7.60742 -0.0215,-0.0215 c -0.067,-0.1 -0.11718,-0.23905 -0.11718,-0.37305 0.002,-0.35899 0.27086,-0.63085 0.63086,-0.63085 z m 197.222647,5.79101 3.66406,3.42383 c -0.88111,0.68678 -1.68173,1.47084 -2.39453,2.33008 l -3.58008,-3.34571 c 0.85285,-0.71799 1.63071,-1.52331 2.31055,-2.4082 z m 13.08789,1.67578 c 7.664,0 13.85742,6.19538 13.85742,13.85938 0,7.664 -6.19342,13.85742 -13.85742,13.85742 -7.664,0 -13.85937,-6.19342 -13.85937,-13.85742 0,-7.664 6.19537,-13.85938 13.85937,-13.85938 z m -97.68945,21.39453 c -20.899,0 -37.86719,16.96919 -37.86719,37.86719 0,20.898 16.96819,37.84375 37.86719,37.84375 20.899,0 37.8418,-16.94475 37.8418,-37.84375 0,-20.899 -16.9428,-37.86719 -37.8418,-37.86719 z m 0,1.49219 c 20.091,0 36.34961,16.283 36.34961,36.375 0,20.092 -16.25861,36.35156 -36.34961,36.35156 -20.092,0 -36.37305,-16.25956 -36.37305,-36.35156 0,-20.092 16.28105,-36.375 36.37305,-36.375 z m -1.42188,13.04297 -0.21093,0.0703 -16.72852,6.39258 -0.37305,0.14063 -0.0918,0.37304 -4.45703,17.52149 -0.0469,0.23242 0.0703,0.23437 6.39258,16.72852 0.13867,0.34961 0.37305,0.0937 17.54492,4.45508 0.20899,0.0488 0.23437,-0.0684 16.73047,-6.39649 0.34961,-0.13867 0.0937,-0.37305 4.45508,-17.52148 0.0703,-0.23438 -0.0937,-0.23242 -6.39258,-16.70312 -0.14062,-0.375 -0.37305,-0.0937 -17.52148,-4.45508 z m 0.0937,1.56445 16.91407,4.29297 6.16015,16.14453 -4.29492,16.91602 -16.14453,6.16016 -16.91602,-4.29297 -6.16015,-16.14649 4.29297,-16.91406 z m 1.32813,3.7793 c -9.925,0 -17.98828,8.06328 -17.98828,17.98828 0,9.925 8.06328,17.96484 17.98828,17.96484 9.924,0 17.98828,-8.03984 17.98828,-17.96484 0,-9.925 -8.06428,-17.98828 -17.98828,-17.98828 z m 0,1.49414 c 9.118,0 16.49609,7.37614 16.49609,16.49414 0,9.117 -7.37809,16.47266 -16.49609,16.47266 -9.118,0 -16.49414,-7.35466 -16.49414,-16.47266 0,-9.118 7.37614,-16.49414 16.49414,-16.49414 z"
   style="fill:#ffffff" />




























</svg>
