<?xml version="1.0" encoding="UTF-8" standalone="no"?>
<!-- Generator: Adobe Illustrator 13.0.0, SVG Export Plug-In . SVG Version: 6.00 Build 14948)  -->

<svg
   version="1.1"
   id="Layer_1"
   x="0px"
   y="0px"
   width="578.92969"
   height="115.78711"
   viewBox="0 0 578.92967 115.78711"
   enable-background="new 0 0 566.929 102.84"
   xml:space="preserve"
   sodipodi:docname="system (cópia).svg"
   inkscape:version="1.1.2 (0a00cf5339, 2022-02-04)"
   xmlns:inkscape="http://www.inkscape.org/namespaces/inkscape"
   xmlns:sodipodi="http://sodipodi.sourceforge.net/DTD/sodipodi-0.dtd"
   xmlns="http://www.w3.org/2000/svg"
   xmlns:svg="http://www.w3.org/2000/svg"
   xmlns:ns="&amp;#38;ns_sfw;"><defs
   id="defs37" /><sodipodi:namedview
   id="namedview35"
   pagecolor="#ffffff"
   bordercolor="#666666"
   borderopacity="1.0"
   inkscape:pageshadow="2"
   inkscape:pageopacity="0.0"
   inkscape:pagecheckerboard="0"
   showgrid="false"
   fit-margin-top="0"
   fit-margin-left="0"
   fit-margin-right="0"
   fit-margin-bottom="0"
   inkscape:zoom="0.4617973"
   inkscape:cx="252.27519"
   inkscape:cy="-189.47707"
   inkscape:window-width="1920"
   inkscape:window-height="996"
   inkscape:window-x="0"
   inkscape:window-y="0"
   inkscape:window-maximized="1"
   inkscape:current-layer="Layer_1" />
<metadata
   id="metadata2">
	<ns:sfw>
		<ns:slices />
		<ns:sliceSourceBounds
   x="677.036"
   y="488.078"
   width="566.929"
   height="102.842"
   bottomLeftOrigin="true" />
	</ns:sfw>
</metadata>
<path
   id="polygon934"
   d="M 56.779297,0.2734375 C 50.832222,2.5599473 44.885992,4.852971 38.939453,7.1425781 36.783921,10.994751 34.631058,14.848418 32.476563,18.701171 28.514219,17.178007 24.552755,15.652548 20.589844,14.130859 13.725924,16.769819 6.8626236,19.410403 0,22.052734 0,45.228515 0,68.404296 0,91.580078 6.8856121,94.468034 13.769584,97.3599 20.654297,100.25 c 3.626094,-1.60594 7.252636,-3.210866 10.878906,-4.816407 2.056072,3.99475 4.111465,7.989847 6.167969,11.984377 6.597208,2.78769 13.192894,5.57899 19.789063,8.36914 7.148872,-3.0246 14.297692,-6.04932 21.447265,-9.07226 0,-4.16928 0,-8.338547 0,-12.507819 5.184346,1.990622 10.367858,3.983419 15.552735,5.972659 6.830325,-2.865941 13.659305,-5.735104 20.490235,-8.599612 0,-23.175782 0,-46.351563 0,-69.527344 -6.86263,-2.642319 -13.72592,-5.282926 -20.589845,-7.921875 -5.509178,2.116628 -11.016812,4.237278 -16.52539,6.355469 0,-4.205729 0,-8.411458 0,-12.6171874 C 71.076141,5.246174 64.286848,2.6237247 57.498047,0 57.258464,0.0911458 57.018881,0.1822917 56.779297,0.2734375 Z M 533.26758,19.777343 c -6.55816,0.128311 -13.271,2.052197 -18.3142,6.379882 -5.08631,4.309315 -8.19997,10.650671 -9.08762,17.209509 -0.0845,0.508805 -0.13419,1.072164 -0.19974,1.553187 -3.44617,-5.45127 -9.1213,-9.312604 -15.33966,-10.89417 -4.85434,-1.266968 -9.98257,-1.384248 -14.92792,-0.613642 -6.00371,0.997873 -11.82076,3.808143 -15.84675,8.448315 -1.4773,1.66805 -2.71773,3.540811 -3.72943,5.524341 -2.74119,-5.283707 -7.64418,-9.298859 -13.24885,-11.225051 -4.81395,-1.74012 -9.98622,-2.047817 -15.0613,-1.984451 -50.34916,0.02359 -100.69845,-0.02721 -151.04766,0.0083 -48.83906,-0.0036 -97.67812,-0.0012 -146.51719,-0.0019 0,19.833333 1e-5,39.666668 0,59.5 46.04753,0 92.09506,0 138.14258,0 0,-11.532551 0,-23.065104 0,-34.597656 1.50065,0 3.00131,0 4.50196,0 0,11.532552 0,23.065105 0,34.597656 9.9414,0 19.88281,0 29.82422,0 0,-11.532551 -10e-6,-23.065104 0,-34.597656 1.54492,0 3.08984,0 4.63476,0 0,11.527344 0,23.054687 0,34.582031 21.94159,0.0097 43.88558,-0.01176 65.82566,0.02902 0.78305,0.105326 1.63203,-0.05869 2.23489,-0.59347 1.1e-4,0.84952 0.83419,0.527137 1.40117,0.580078 18.62655,-0.0084 37.25436,0.02801 55.8801,-0.03238 7.23312,-0.268967 14.57778,-2.983941 19.57506,-8.351052 1.44015,-1.533438 2.68655,-3.24813 3.71398,-5.083369 2.80368,5.765349 7.8331,10.41659 13.8544,12.647649 6.04833,2.28198 12.74866,2.583781 19.06762,1.378372 6.32972,-1.216302 12.29477,-4.679219 16.10451,-9.932844 4.34049,-5.811995 5.98122,-13.213589 5.99105,-20.362708 0.26157,0.190331 0.71737,0.803066 1.07422,1.134765 3.05026,3.188553 7.25736,5.09551 11.60078,5.679565 5.92724,0.871375 12.29603,-0.729824 16.77663,-4.795666 1.3633,-1.215693 2.54584,-2.627809 3.54251,-4.157337 3.22392,0.01886 6.44792,0.0093 9.67187,0.0098 0,2.841146 0,5.682291 0,8.523438 7.17904,0 14.35808,0 21.53711,0 0,-2.841147 0,-5.682292 0,-8.523438 1.34245,0 2.6849,0 4.02735,0 0,-6.602865 0,-13.205729 0,-19.808594 -1.34245,0 -2.6849,0 -4.02735,0 0,-7.224609 0,-14.449219 0,-21.673828 -7.39192,0 -14.78385,0 -22.17578,0 -3.38899,6.042324 -6.77698,12.08444 -10.17578,18.121094 0.073,-4.830271 0.0103,-9.692584 0.0312,-14.535157 0,-1.195963 0,-2.391927 0,-3.58789 -3.10852,-0.197459 -6.18722,-0.645719 -9.31445,-0.554688 z" /><polygon
   id="polygon3542"
   fill="#1747ce"
   points="51.491,27.772 62.829,32.113 65.865,28.707 65.865,5.553 51.491,11.127 39.613,32.324 "
   transform="translate(5.8691406,6.4296875)"
   style="fill:#ececec" />
<polygon
   id="polygon3558"
   fill="#1747ce"
   points="66.938,96.307 51.491,102.842 51.491,39.606 66.938,33.69 88.391,64.354 88.391,25.369 102.98,19.742 102.98,81.161 88.391,87.288 66.938,59.29 "
   transform="translate(5.8691406,6.4296875)"
   style="fill:#ececec" />
<polygon
   id="polygon3560"
   fill="#1747ce"
   points="14.589,54.652 14.589,87.288 28.277,81.227 "
   transform="translate(5.8691406,6.4296875)"
   style="fill:#ececec" />
<polygon
   id="polygon3538"
   fill="#069330"
   points="39.613,32.324 51.491,11.127 37.117,5.535 29.178,19.742 36.044,33.689 "
   transform="translate(5.8691406,6.4296875)"
   style="fill:#ffffff" />
<polygon
   id="polygon3540"
   fill="#069330"
   points="88.391,25.369 88.391,64.354 66.938,33.69 62.829,32.113 73.807,19.742 "
   transform="translate(5.8691406,6.4296875)"
   style="fill:#ffffff" />
<polygon
   id="polygon3552"
   fill="#069330"
   points="0,81.161 14.589,87.288 14.589,54.652 36.044,96.307 51.491,102.842 51.491,39.606 36.044,33.689 36.044,65.792 14.589,25.369 0,19.742 "
   transform="translate(5.8691406,6.4296875)"
   style="fill:#ffffff" />
<polygon
   id="polygon3554"
   fill="#cc130e"
   points="14.589,25.369 29.178,19.742 36.044,33.689 36.044,65.792 "
   transform="translate(5.8691406,6.4296875)"
   style="fill:#e6e6e6" />
<polygon
   id="polygon3556"
   fill="#cc130e"
   points="66.938,74.586 71.321,80.73 88.391,87.288 66.938,59.29 "
   transform="translate(5.8691406,6.4296875)"
   style="fill:#e6e6e6" />
<polygon
   id="polygon3544"
   fill="#ffc001"
   points="36.044,33.689 51.491,27.772 66.938,33.689 51.491,39.606 "
   transform="translate(5.8691406,6.4296875)"
   style="fill:#e6e6e6" />
<polygon
   id="polygon3546"
   fill="#ffc001"
   points="102.98,19.742 88.391,25.369 73.802,19.742 88.391,14.129 "
   transform="translate(5.8691406,6.4296875)"
   style="fill:#e6e6e6" />
<polygon
   id="polygon3548"
   fill="#ffc001"
   points="29.178,19.742 14.589,25.369 0,19.742 14.589,14.129 "
   transform="translate(5.8691406,6.4296875)"
   style="fill:#e6e6e6" />
<polygon
   id="polygon3550"
   fill="#ffc001"
   points="37.117,5.535 51.491,11.127 65.865,5.553 51.491,0 "
   transform="translate(5.8691406,6.4296875)"
   style="fill:#e6e6e6" />
<polygon
   id="polygon3518"
   fill="#1747ce"
   points="175.447,33.752 160.984,33.752 160.984,60.989 160.859,60.989 151.323,33.752 129.948,33.752 129.948,81.252 144.403,81.252 144.403,53.834 144.533,53.834 154.07,81.252 175.447,81.252 "
   transform="translate(5.8691406,6.4296875)" />
<polygon
   id="polygon3520"
   fill="#1747ce"
   points="256.089,33.752 241.636,33.752 241.636,60.989 241.505,60.989 231.968,33.752 210.595,33.752 210.595,81.252 225.056,81.252 225.056,53.834 225.181,53.834 234.714,81.252 256.089,81.252 "
   transform="translate(5.8691406,6.4296875)" />
<polygon
   id="polygon3522"
   fill="#1747ce"
   points="394.957,33.752 380.498,33.752 380.498,60.989 380.369,60.989 370.833,33.752 349.457,33.752 349.457,81.252 363.914,81.252 363.914,53.834 364.041,53.834 373.578,81.252 394.957,81.252 "
   transform="translate(5.8691406,6.4296875)" />
<polygon
   id="polygon3524"
   fill="#1747ce"
   points="202.009,81.252 184.179,81.252 184.179,33.752 202.009,33.752 "
   transform="translate(5.8691406,6.4296875)" />
<polygon
   id="polygon3526"
   fill="#1747ce"
   points="261.261,33.752 301.785,33.752 301.785,46.655 290.416,46.655 290.416,81.252 272.591,81.252 272.591,46.655 261.261,46.655 "
   transform="translate(5.8691406,6.4296875)" />
<polygon
   id="polygon3536"
   fill="#1747ce"
   points="342.31,46.303 324.597,46.303 324.597,51.27 340.906,51.27 340.906,63.448 324.597,63.448 324.597,68.777 342.875,68.777 342.875,81.236 307.05,81.236 307.05,33.739 342.31,33.739 "
   transform="translate(5.8691406,6.4296875)" />
<path
   id="path3528"
   fill="#1747ce"
   d="m 408.49914,40.181688 h 21.123 c 18.016,0 23.75,10.196999 23.75,24.274999 0,14.343001 -8.848,23.226 -22.684,23.226 h -22.189 z m 17.453,36.707 h 1.738 c 2.867,0 4.789,-0.879001 5.912,-2.787001 1.184,-1.974999 1.316,-5.572 1.316,-10.172 0,-4.604 -0.135,-8.194 -1.316,-10.171999 -1.123,-1.91 -3.045,-2.789 -5.912,-2.789 h -1.738 z"
   style="fill:#ffffff" />
<path
   id="path3530"
   fill="#1747ce"
   d="m 481.32014,38.935687 c 15.521,0 23.244,10.193 23.244,24.995001 0,14.806 -7.725,25.001999 -23.244,25.001999 -15.523,0 -23.246,-10.195999 -23.246,-25.001999 0,-14.802 7.72,-24.995001 23.246,-24.995001 z m 0,37.959001 c 2.738,0 4.801,-1.346001 4.801,-12.965001 0,-11.357 -1.939,-12.960999 -4.801,-12.960999 -2.865,0 -4.801,1.603999 -4.801,12.960999 0,11.620001 2.058,12.965001 4.801,12.965001 z"
   style="fill:#ffffff" />


<polygon
   id="polygon3566"
   fill="#1747ce"
   points="175.447,33.752 160.984,33.752 160.984,60.989 160.859,60.989 151.323,33.752 129.948,33.752 129.948,81.252 144.403,81.252 144.403,53.834 144.533,53.834 154.07,81.252 175.447,81.252 "
   transform="translate(5.8691406,6.4296875)"
   style="fill:#ffffff" />
<polygon
   id="polygon3568"
   fill="#1747ce"
   points="256.089,33.752 241.636,33.752 241.636,60.989 241.505,60.989 231.968,33.752 210.595,33.752 210.595,81.252 225.056,81.252 225.056,53.834 225.181,53.834 234.714,81.252 256.089,81.252 "
   transform="translate(5.8691406,6.4296875)"
   style="fill:#ffffff" />
<polygon
   id="polygon3570"
   fill="#1747ce"
   points="394.957,33.752 380.498,33.752 380.498,60.989 380.369,60.989 370.833,33.752 349.457,33.752 349.457,81.252 363.914,81.252 363.914,53.834 364.041,53.834 373.578,81.252 394.957,81.252 "
   transform="translate(5.8691406,6.4296875)"
   style="fill:#ffffff" />
<polygon
   id="polygon3572"
   fill="#1747ce"
   points="202.009,81.252 184.179,81.252 184.179,33.752 202.009,33.752 "
   transform="translate(5.8691406,6.4296875)"
   style="fill:#ffffff" />
<polygon
   id="polygon3574"
   fill="#1747ce"
   points="261.261,33.752 301.785,33.752 301.785,46.655 290.416,46.655 290.416,81.252 272.591,81.252 272.591,46.655 261.261,46.655 "
   transform="translate(5.8691406,6.4296875)"
   style="fill:#ffffff" />
<polygon
   id="polygon3576"
   fill="#1747ce"
   points="342.31,46.303 324.597,46.303 324.597,51.27 340.906,51.27 340.906,63.448 324.597,63.448 324.597,68.777 342.875,68.777 342.875,81.236 307.05,81.236 307.05,33.739 342.31,33.739 "
   transform="translate(5.8691406,6.4296875)"
   style="fill:#ffffff" />
<path
   id="path3532"
   fill="#cc130e"
   d="m 536.45214,33.865687 c -0.949,-0.083 -1.871,-0.044 -3.158,0.014 -7.521,0.348 -10.563,3.552999 -11.594,7.174 h 0.182 c 1.873,-1.637 4.188,-2.401001 7.289,-2.401001 5.965,0 11.414,4.338 11.414,12.476 0,7.787 -5.986,13.852001 -14.02,13.852001 -10.584,0 -15.188,-8.083 -15.188,-16.75 0,-7.041 2.498,-13.004 6.598,-16.850001 3.902,-3.615 8.934,-5.440999 15.092,-5.582 1.631,-0.094 2.6,0 3.385,0.071 z m -10.021,23.456 c 2.439,0 3.918,-2.491 3.918,-5.673 -0.02,-2.686 -1.25,-5.613 -4.52,-5.613 -1.998,0 -3.555,1.266 -4.143,2.795 -0.229,0.469 -0.314,1.137 -0.314,2.27 0.209,3.035001 1.672,6.222 4.998,6.222 z"
   style="fill:#f9f9f9" />
<path
   id="path3534"
   fill="#cc130e"
   d="m 559.23414,64.340688 v -8.524001 h -15.846 v -6.811 l 12.723,-22.671 h 12.66 v 21.673001 h 4.027 v 7.808999 h -4.027 v 8.524001 z m 0,-16.333 v -6.531 c 0,-2.414 0.145,-4.922001 0.268,-7.565001 h -0.207 c -1.178,2.565001 -2.203,5.007001 -3.543,7.657001 l -3.113,6.326 -0.033,0.115 z"
   style="fill:#f9f9f9" />
</svg>
