<?xml version="1.0" encoding="UTF-8" standalone="no"?>
<svg
   id="_3DS"
   data-name=" 3DS"
   width="317.52112"
   height="329.50751"
   viewBox="0 0 317.52112 329.50751"
   version="1.1"
   sodipodi:docname="controller.svg"
   inkscape:version="1.1.2 (0a00cf5339, 2022-02-04)"
   xmlns:inkscape="http://www.inkscape.org/namespaces/inkscape"
   xmlns:sodipodi="http://sodipodi.sourceforge.net/DTD/sodipodi-0.dtd"
   xmlns="http://www.w3.org/2000/svg"
   xmlns:svg="http://www.w3.org/2000/svg">
  <defs
     id="defs42" />
  <sodipodi:namedview
     id="namedview40"
     pagecolor="#ffffff"
     bordercolor="#666666"
     borderopacity="1.0"
     inkscape:pageshadow="2"
     inkscape:pageopacity="0.0"
     inkscape:pagecheckerboard="0"
     showgrid="false"
     inkscape:zoom="1.2701511"
     inkscape:cx="57.867131"
     inkscape:cy="91.721371"
     inkscape:window-width="1920"
     inkscape:window-height="996"
     inkscape:window-x="0"
     inkscape:window-y="0"
     inkscape:window-maximized="1"
     inkscape:current-layer="g78"
     fit-margin-top="0"
     fit-margin-left="0"
     fit-margin-right="0"
     fit-margin-bottom="0" />
  <g
     id="g78"
     transform="translate(-135.73179,-11.376357)">
    <path
       id="path3780"
       style="fill:#000000"
       d="m 427.56055,11.384766 c -92.79368,-0.0063 -185.5877,-0.0084 -278.38118,0.0078 -4.93729,0.09256 -9.70429,3.049092 -11.90016,7.486545 -1.22835,2.293013 -1.61636,4.927945 -1.51123,7.502847 -0.0418,15.515991 -0.006,31.032358 -0.018,46.548502 0,31.98281 0,63.96562 0,95.94844 1.14648,0.001 2.29297,0.002 3.43945,0.002 -1.2523,1.77303 -2.13051,3.81082 -2.54297,5.94336 -1.11265,0.79874 -0.89938,2.27999 -0.89648,3.47344 0.005,49.75118 -0.0121,99.5029 0.0156,149.25375 0.12738,4.90168 3.07494,9.61255 7.47612,11.79953 2.2968,1.22534 4.9317,1.61877 7.50937,1.51194 15.51599,0.0418 31.03236,0.006 46.5485,0.018 80.8403,-0.003 161.68093,0.006 242.52102,-0.0117 4.90164,-0.094 9.63651,-3.00449 11.85231,-7.39183 1.26128,-2.31582 1.66783,-4.98732 1.55908,-7.59756 0.0418,-15.51599 0.006,-31.03236 0.018,-46.5485 0,-35.18854 0,-70.37708 0,-105.56563 -0.55714,0.15481 -1.22133,0.5216 -1.21135,-0.31618 -0.48071,-1.63082 -1.23399,-3.1803 -2.21443,-4.56858 1.14193,0 2.28385,0 3.42578,0 -0.005,-48.05678 0.0122,-96.114103 -0.0156,-144.17055 -0.12556,-4.901781 -3.0755,-9.612594 -7.47612,-11.799535 -2.2968,-1.225331 -4.9317,-1.618762 -7.50937,-1.511937 -3.56262,-0.03748 -7.12559,-0.01781 -10.68834,-0.01407 z m -276.22657,9.482422 c 11.69589,0.03483 23.39306,0.0025 35.08946,0.01367 1.65511,0.0065 3.38245,-0.01307 4.99258,0.0098 -2.10409,1.8014 -3.17183,4.624141 -2.97563,7.367936 -0.0473,14.567161 -0.007,29.134677 -0.0214,43.701986 0.003,28.09383 -0.008,56.18853 0.0211,84.28182 0.12395,2.33775 1.21979,4.61014 2.99741,6.13849 -2.89583,0 -5.79167,0 -8.6875,0 0,-1 0,-2 0,-3 -12.5,0 -25,0 -37.5,0 0.0156,-6.64843 -0.0313,-13.35938 0.0234,-19.96875 2.07962,0.10868 4.2654,-0.64008 5.54177,-2.34849 1.20201,-1.49296 1.43011,-3.48376 1.29424,-5.33354 -0.0134,-10.30481 0.0371,-20.61287 -0.0372,-30.91563 -0.27135,-3.204993 -3.44094,-5.741201 -6.62188,-5.419916 -0.46849,-0.131649 -0.0672,-1.133144 -0.20048,-1.6 0.005,-22.977286 -0.0172,-45.955326 0.0209,-68.932138 0.11907,-2.178364 2.11608,-4.055559 4.31571,-3.954405 0.58117,-0.0436 1.16496,-0.04128 1.74743,-0.0408 z m 288.07618,0.01367 c 2.24158,-0.0466 4.32973,1.883014 4.31265,4.156553 0.0702,2.273181 -0.01,4.550561 0.0272,6.825869 0,21.202474 0,42.404948 0,63.607422 -2.03148,-0.108468 -4.16887,0.566399 -5.47461,2.191406 -1.29613,1.506945 -1.56586,3.575782 -1.41804,5.490622 0.0134,10.30481 -0.0371,20.61287 0.0372,30.91563 0.27134,3.205 3.44094,5.74121 6.62188,5.41992 0.52243,0.0888 0.0948,1.12762 0.23359,1.6 0,6.09753 0,12.19505 0,18.29258 -12.5,0 -25,0 -37.5,0 0,1 0,2 0,3 -2.89193,0 -5.78385,0 -8.67578,0 1.96687,-1.69022 3.04259,-4.26259 3.01674,-6.84151 -0.004,-42.846 0.009,-85.694874 -0.0173,-128.541597 -0.0785,-2.340927 -1.23975,-4.575563 -2.9819,-6.116895 13.93945,0 27.8789,0 41.81836,0 z m -19.47071,3.851563 c -2.07223,0.145829 -4.24964,-0.29962 -6.23633,0.470703 -2.29752,0.900636 -3.85443,3.255329 -3.8554,5.713522 0.0998,2.126011 -0.27361,4.330663 0.40423,6.388041 0.87676,2.288813 3.17226,3.894629 5.62141,3.937505 1.605,-0.01094 3.2152,0.06173 4.81765,-0.03343 2.83475,-0.134557 5.30099,-2.515402 5.60196,-5.325955 0.15147,-1.457435 -0.0117,-2.928168 0.0729,-4.392185 0.0819,-2.045058 -0.68284,-4.174591 -2.36778,-5.418361 -1.14928,-0.892659 -2.60168,-1.382912 -4.0586,-1.339844 z m -248.73828,0.02539 c -1.92755,-0.01487 -4.02911,-0.196297 -5.69922,0.970704 -2.04301,1.235037 -3.03078,3.699 -2.84179,6.023437 0.0727,2.282385 -0.383,4.842305 1.08397,6.80546 1.26859,1.984631 3.71517,2.870083 5.99759,2.698403 2.25119,-0.07063 4.75426,0.355555 6.707,-1.057534 2.06517,-1.333575 2.95518,-3.921078 2.69461,-6.294701 -0.004,-2.241703 0.29737,-4.756672 -1.20273,-6.635795 -1.28769,-1.854482 -3.62123,-2.665571 -5.81438,-2.529245 -0.30835,0.0064 -0.6167,0.01285 -0.92505,0.01927 z M 383.75,35.210938 c 0,37.596354 0,75.192712 0,112.789062 -59.5,0 -119,0 -178.5,0 0,-37.59635 0,-75.192708 0,-112.789062 59.5,-10e-7 119,0 178.5,0 z m -212.80078,28.02539 c -1.41685,0.186212 -2.87059,0.630963 -3.84299,1.74374 -0.87335,0.919797 -1.30019,2.138299 -1.433,3.380672 -0.21943,0.593808 -0.31355,1.165633 0.20453,1.6308 0.68355,1.024156 1.36575,2.049212 2.04997,3.072913 -0.62154,0.436409 -1.16197,0.995627 -1.52539,1.666016 -0.73152,-1.219936 -2.15989,-1.814889 -3.28428,-2.6316 -0.52747,-0.489409 -1.26087,0.06723 -1.88564,0.07105 -2.36833,0.236618 -4.29756,2.330847 -4.50976,4.677734 -0.3279,0.95454 0.11369,1.923372 0.60309,2.717658 0.30761,0.846114 1.0822,1.50057 1.78167,2.061639 1.02126,0.674013 2.2822,1.054034 3.50196,0.962891 1.18273,-0.184913 2.11543,-1.029914 2.9976,-1.776486 0.32007,-0.184608 0.58062,-1.017327 0.82358,-0.919991 0.48135,0.681738 1.11415,1.334797 1.75303,1.801945 -1.49137,0.902457 -2.32981,2.57052 -2.49275,4.269555 -0.28001,1.395646 -0.55868,2.791558 -0.83732,4.187477 0.94976,0.02826 1.95979,-0.121573 2.8735,0.01302 1.45771,1.168524 3.5388,1.517886 5.25736,0.729169 0.63255,-0.161719 1.11176,-0.534097 1.52734,-1.021484 1.19044,-0.997794 1.7429,-2.612223 1.64258,-4.134766 0.13634,-0.541244 0.82903,-0.8916 1.18255,-1.358331 0.63068,-0.561507 1.17895,-1.314318 1.85881,-1.761672 1.66818,-0.404935 3.36298,-0.729404 5.04457,-1.098747 0.41096,-2.188409 0.8191,-4.377345 1.22657,-6.566406 -1.57679,-1.027708 -3.1521,-2.057663 -4.72852,-3.085937 -1.45016,0.301405 -3.04913,0.400418 -4.18164,1.484374 -0.56017,0.165845 -1.1115,0.45318 -1.44141,0.951172 -0.43402,-0.46484 -0.9286,-0.869305 -1.46484,-1.210937 0.48214,-0.206967 1.34846,-0.02957 1.56813,-0.498929 0.42075,-2.123642 0.84179,-4.247228 1.26586,-6.370212 -1.57446,-1.049121 -3.14778,-2.099957 -4.72266,-3.148437 -0.27083,0.05404 -0.54167,0.108073 -0.8125,0.162109 z m 247.63281,0.08398 c -2.12842,-0.164405 -4.29385,1.032972 -5.18945,2.998047 -0.47182,0.938795 -0.43539,2.02543 -0.76563,3.011719 0.83024,1.244687 1.65925,2.490194 2.49024,3.734375 -0.65606,0.458408 -1.22202,1.057198 -1.57031,1.783203 -0.48728,-1.040311 -1.47594,-1.650896 -2.42213,-2.211103 -0.82507,-0.658742 -1.9572,-0.778818 -2.9353,-0.439287 -2.83061,0.415448 -4.8661,3.494635 -4.15596,6.261672 0.44655,2.195485 2.43123,3.870752 4.6462,4.066453 1.07675,0.345122 2.1344,-0.233556 2.97043,-0.854088 0.79497,-0.38261 1.45213,-1.06448 1.87527,-1.841225 0.412,0.771146 1.05277,1.408346 1.77734,1.888672 -0.96251,0.581648 -1.60166,1.528899 -2.0981,2.507389 -0.66907,0.85702 -0.48287,1.98748 -0.1918,2.945534 0.4041,2.37719 2.70052,4.177225 5.08873,4.160358 0.85349,-0.0053 1.73054,-0.284967 2.51416,-0.62882 1.15932,-0.695935 2.15925,-1.79558 2.48389,-3.138758 0.44247,-1.261838 0.20094,-2.693769 -0.35906,-3.871099 -0.40375,-0.741317 -1.07163,-1.288979 -1.5511,-1.97851 -0.46792,-0.130622 0.57978,-0.504777 0.68038,-0.802669 0.27631,-0.274254 0.52435,-0.64038 0.72001,-0.935613 0.834,1.432124 2.38003,2.363208 4.01034,2.536324 1.08724,0.287719 2.18352,-0.138317 3.02246,-0.822896 1.34391,-0.72144 2.32234,-2.060612 2.463,-3.59378 0.34329,-2.065471 -0.66713,-4.345134 -2.61578,-5.228344 -1.31759,-1.110274 -3.21251,-0.902211 -4.66762,-0.208054 -0.91566,0.443968 -1.6923,1.175636 -2.19482,2.060891 -0.3829,-0.659293 -0.90221,-1.244196 -1.5332,-1.675781 0.5005,-0.212272 1.47051,0.04512 1.392,-0.746345 0.40221,-2.029407 0.8049,-4.058719 1.20956,-6.087639 -1.53483,-0.947867 -2.95358,-2.083402 -4.56836,-2.898438 -0.17513,0.0026 -0.35026,0.0052 -0.52539,0.0078 z M 174.67969,82.208984 c 0.0964,0.747531 -0.52954,-0.426973 -0.73828,-0.544922 -0.6305,-0.115861 0.5629,-0.533735 0.66557,-0.850704 0.16612,0.05826 0.0265,1.008499 0.0727,1.395626 z m -2.11133,59.017576 c -2.24532,0.17605 -4.69457,-0.40784 -6.74219,0.79688 -2.08896,1.1378 -3.34692,3.53261 -3.15723,5.89761 0.0448,1.90374 -0.21527,3.8761 0.34668,5.72348 0.78959,2.29612 3.01303,3.97915 5.44514,4.08313 1.4964,0.0348 2.99855,0.0283 4.4964,0.0171 2.54235,0.0178 5.00486,-1.65305 5.81376,-4.0794 0.66004,-1.87296 0.2609,-3.91881 0.3979,-5.79934 0.0784,-2.22975 -0.95008,-4.52592 -2.90893,-5.68299 -1.10091,-0.67762 -2.40786,-0.96859 -3.69153,-0.95647 z m 247.37109,0.006 c -2.07223,0.14583 -4.24964,-0.29962 -6.23633,0.4707 -2.29752,0.90064 -3.85443,3.25533 -3.8554,5.71353 0.10485,2.13254 -0.28656,4.3504 0.414,6.41147 0.85576,2.20995 3.03379,3.78014 5.39844,3.90235 1.60411,0.0319 3.21165,0.0368 4.8164,0.01 2.6569,-0.0747 5.1041,-2.0531 5.68003,-4.65572 0.40658,-1.59869 0.0748,-3.25585 0.2106,-4.88217 0.10054,-2.05547 -0.56664,-4.23942 -2.24971,-5.53112 -1.16155,-0.9566 -2.67317,-1.48125 -4.17803,-1.4388 z M 173.25,171.88086 c 0,3.94336 0,7.88672 0,11.83008 -7.66846,-0.014 -15.33835,0.0472 -23.00586,-0.0469 -2.29989,-0.24128 -4.46997,-1.97477 -4.99663,-4.25234 -0.0103,-1.59043 -0.16038,-3.31856 0.80712,-4.69363 1.1869,-1.99448 3.5829,-3.03412 5.85826,-2.83171 7.11237,-0.004 14.22474,-0.007 21.33711,-0.006 z m 233,0 c 0,3.94336 0,7.88672 0,11.83008 -10.02814,-0.009 -20.05883,0.0184 -30.08537,-0.0138 -1.87158,-0.16254 -3.7572,-0.0114 -5.63494,-0.0663 -52.53659,0 -105.07318,0 -157.60977,0 -1.59135,0.18786 -3.20328,0.0148 -4.80351,0.0801 -8.45547,0 -16.91094,0 -25.36641,0 0,-3.94336 0,-7.88672 0,-11.83008 74.5,0 149,0 223.5,0 z m 18.86328,0 c -1.74886,0.69937 -3.01423,2.50785 -2.85742,4.41602 0.008,1.18893 -0.11138,2.43165 0.19726,3.58203 0.79911,2.35434 3.44102,3.45301 5.7742,3.37386 2.32242,0.0883 5.00459,-0.97481 5.78791,-3.33609 0.38297,-1.31187 0.21079,-2.71593 0.21467,-4.06781 0.0303,-1.75626 -1.25983,-3.31002 -2.83342,-3.96801 2.33746,0.0441 4.68496,-0.091 7.01588,0.0727 2.92692,0.41547 5.29128,3.25624 4.99298,6.23066 -0.12854,2.75521 -2.41653,5.19805 -5.17045,5.462 -2.15698,0.15922 -4.32928,0.0168 -6.4927,0.0647 -5.33073,0 -10.66146,0 -15.99219,0 0,-3.94336 0,-7.88672 0,-11.83008 3.12109,0 6.24219,0 9.36328,0 z m 18.63867,86 c -0.0119,23.17273 0.0108,46.34621 -0.0228,69.51847 -0.11751,2.188 -2.12993,4.06281 -4.33539,3.95599 -3.10217,0.0646 -6.2076,-8.7e-4 -9.31135,0.0255 -15.93958,0 -31.87916,0 -47.81875,0 1.10213,-1.61482 1.30024,-3.61397 1.2013,-5.51563 0.005,-44.21809 0.007,-88.43619 0.006,-132.65429 18.27843,-0.0107 36.55861,0.0309 54.83594,-0.0273 1.87926,-0.15797 3.73633,-0.63203 5.44336,-1.4375 6.5e-4,22.04493 10e-4,44.08985 0.002,66.13477 z M 145.49609,191.86328 c 2.28078,1.04253 4.80602,1.45106 7.3027,1.33243 17.58193,0.0354 35.1641,0.005 52.74613,0.0152 -0.0363,18.58617 -0.005,37.17268 -0.0156,55.75898 0.007,26.19421 -0.0144,52.38934 0.0108,78.58297 0.0835,1.35138 0.50648,2.68233 1.22941,3.82797 -19.16987,-0.007 -38.34013,0.013 -57.50976,-0.01 -2.12172,-0.12939 -3.99416,-1.99032 -3.98262,-4.14678 -0.0701,-2.27318 0.01,-4.55056 -0.0272,-6.82587 0,-42.88347 0,-85.76693 0,-128.65039 0.082,0.0384 0.16406,0.0768 0.24609,0.11523 z m 71.14063,1.36719 c -0.56693,0.29509 -1.08183,0.69343 -1.51758,1.16015 0.001,-0.61878 -0.20858,-1.44868 0.7,-1.16015 0.27253,0 0.54505,0 0.81758,0 z m 157.23242,0 c -0.0292,0.55275 0.18724,1.58692 -0.45478,0.70682 -0.22495,-0.28358 -0.95455,-0.60951 -0.93936,-0.70682 0.46471,0 0.92943,0 1.39414,0 z m 23.13281,6.96094 c -4.33606,0.15418 -8.4046,3.17579 -9.72594,7.32175 -1.50999,4.25984 0.0883,9.35085 3.73515,12.00963 3.27074,2.49392 7.99547,2.85671 11.58103,0.81921 0.25646,-0.057 1.22884,-0.88444 0.84884,-0.40242 -2.52876,3.50032 -3.02485,8.33735 -1.2633,12.27917 -4.34637,-1.91636 -9.72562,-1.02573 -13.24471,2.15525 -3.63546,3.14919 -5.14314,8.47987 -3.68789,13.06505 1.35846,4.65517 5.64114,8.26019 10.46026,8.80142 2.1562,0.27184 4.38559,-0.0199 6.38836,-0.86938 -1.91346,4.45371 -0.9088,9.9561 2.45761,13.44426 3.37107,3.65705 9.0044,4.95192 13.63028,3.11629 4.43477,-1.64943 7.69467,-5.985 8.0278,-10.70682 0.18153,-2.08214 -0.18263,-4.20652 -1.03171,-6.11544 4.47193,2.2152 10.22233,1.36987 13.86133,-2.04688 3.50364,-3.12239 4.9624,-8.29125 3.60599,-12.78389 -1.29925,-4.66939 -5.52713,-8.34013 -10.34232,-8.93877 -2.45579,-0.36625 -5.00216,0.0722 -7.22656,1.16211 2.03834,-4.24934 1.37717,-9.60975 -1.64223,-13.23099 -3.15342,-3.99128 -8.8736,-5.673 -13.68105,-3.99686 -1.25089,0.40688 -2.43502,1.01762 -3.49508,1.79621 2.43599,-3.43164 2.57202,-8.30084 0.28262,-11.83972 -1.97952,-3.24536 -5.75329,-5.193 -9.53848,-5.03918 z m -225.79687,0.0176 c -7.51068,0.21871 -14.81852,4.02905 -19.25758,10.09779 -4.67038,6.20577 -6.1496,14.65218 -3.85926,22.0748 2.20298,7.54489 8.21734,13.82635 15.6487,16.37882 7.06186,2.5282 15.23723,1.60568 21.56219,-2.42423 6.24647,-3.88214 10.57624,-10.65273 11.47687,-17.95252 1.01471,-7.52186 -1.66258,-15.41937 -7.03513,-20.77981 -4.81211,-4.90061 -11.67871,-7.60622 -18.53579,-7.39485 z m 194.67578,1.93164 c 0,34.83985 0,69.67969 0,104.51954 -47.58724,0 -95.17448,0 -142.76172,0 0,-34.83985 0,-69.67969 0,-104.51954 47.58724,1e-5 95.17448,0 142.76172,0 z m 32.01172,7.11719 c 0.71466,0.21578 1.5071,1.01578 1.09153,1.79442 -0.0692,0.59187 -0.4482,1.11493 -0.98975,1.33967 -0.53669,0.15425 -1.03352,0.0981 -1.49631,-0.22393 -0.35444,-0.31123 -0.69606,-0.82477 -0.56643,-1.33258 -0.0642,-0.49694 0.33718,-0.93573 0.68893,-1.20989 0.42491,-0.10478 0.83551,-0.35879 1.27203,-0.36769 z m -225.5918,7.15625 c 3.89897,0.0774 7.49361,3.06687 8.28217,6.88716 0.8497,3.62969 -0.89878,7.68361 -4.17438,9.49151 -3.21583,1.95846 -7.64217,1.4491 -10.36699,-1.13554 -3.10654,-2.74695 -3.73613,-7.78054 -1.42365,-11.21678 1.61478,-2.57275 4.65654,-4.13525 7.68285,-4.02635 z m 241.5293,7.58399 c 1.96544,0.0493 3.64382,2.10258 3.02527,4.03326 -0.43619,1.9559 -2.89136,3.02559 -4.61914,2.00519 -1.79877,-0.84546 -2.25134,-3.41643 -0.97403,-4.89693 0.61258,-0.74242 1.59629,-1.2202 2.5679,-1.14152 z m 5.35547,14.54687 c -1.49376,3.22237 -1.5243,7.0838 -0.0645,10.32422 -3.18047,-1.54256 -7.00881,-1.64766 -10.26367,-0.26367 1.30732,-3.11236 1.29166,-6.75446 -0.0781,-9.84375 3.30569,1.411 7.22338,1.32825 10.4414,-0.28906 z m -21.57422,2.02149 c 2.16171,0.15773 3.63116,2.82901 2.49638,4.71197 -0.83474,1.7211 -3.27144,2.29688 -4.76513,1.08269 -1.666,-1.11183 -1.72066,-3.75099 -0.20469,-5.01466 0.66319,-0.6014 1.59055,-0.85652 2.47344,-0.78 z m 33.31055,0 c 2.16171,0.15773 3.63115,2.82901 2.49638,4.71197 -0.83474,1.7211 -3.27144,2.29688 -4.76514,1.08269 -1.66599,-1.11183 -1.72066,-3.75099 -0.20469,-5.01466 0.66319,-0.6014 1.59056,-0.85652 2.47345,-0.78 z m -256.90821,12.04882 c -2.89356,0.0388 -5.79686,-0.11247 -8.68359,0.0957 -1.82759,0.35892 -3.43323,1.6474 -4.10547,3.39453 -0.60673,1.50262 -0.31859,3.1676 -0.40785,4.74765 -0.009,1.48322 0.0125,2.9664 0.006,4.44961 -2.73348,0.0352 -5.47623,-0.0973 -8.20313,0.0996 -1.82554,0.36019 -3.43068,1.64685 -4.10547,3.39063 -0.60697,1.50341 -0.3184,3.16898 -0.40785,4.74961 0.0154,3.10492 -0.0101,6.21086 0.0146,9.31432 -0.016,1.93556 1.05004,3.8014 2.71996,4.77533 1.96566,1.18088 4.35664,0.66389 6.52914,0.77793 1.15156,0 2.30313,0 3.45469,0 0.0252,2.7506 -0.10066,5.5142 0.11133,8.25586 0.44535,2.47853 2.76856,4.43797 5.29262,4.43652 2.34657,0.0848 4.69783,-0.0141 7.04682,0.0285 2.09487,-0.0303 4.20831,0.0983 6.29057,-0.13463 1.97073,-0.41921 3.63069,-1.95989 4.15514,-3.91247 0.38471,-1.58604 0.14839,-3.24454 0.22071,-4.8625 3.5e-4,-1.26523 -0.001,-2.53046 -0.002,-3.7957 2.70892,-0.0248 5.42966,0.0861 8.13099,-0.081 2.81878,-0.43456 4.89835,-3.30841 4.58002,-6.11706 -0.0241,-4.01055 0.0592,-8.02692 -0.053,-12.0338 -0.27352,-2.64345 -2.67445,-4.84103 -5.33931,-4.8435 -2.18719,-0.0897 -4.3794,0.0121 -6.56911,-0.0301 -0.89497,0.27824 -0.78781,-0.44493 -0.74882,-1.1 -0.0341,-2.32804 0.0808,-4.66652 -0.0848,-6.98789 -0.40475,-2.58874 -2.83868,-4.68694 -5.47618,-4.59094 -1.45395,-0.0628 -2.91074,-0.0355 -4.36562,-0.0263 z m 239.81641,4.38282 c 1.96482,0.0487 3.64373,2.10324 3.02527,4.03326 -0.4362,1.95571 -2.89138,3.02582 -4.61914,2.00519 -1.80054,-0.84618 -2.2518,-3.42096 -0.97144,-4.90034 0.61408,-0.74015 1.59406,-1.21686 2.56531,-1.13811 z m -239.2168,4.87109 c 0.031,2.78474 -0.10673,5.58514 0.10628,8.35963 0.3703,2.31967 2.43537,4.17636 4.77223,4.34367 1.91825,0.11156 3.84611,0.007 5.76876,0.0467 0.68333,0 1.36666,0 2.05,0 0,1.5013 0,3.0026 0,4.50391 -2.73998,0.0207 -5.48956,-0.0798 -8.22321,0.0802 -2.37538,0.30964 -4.28217,2.43807 -4.42086,4.81765 -0.0875,2.30947 -0.005,4.6259 -0.0356,6.93883 0.23994,0.8497 -0.27927,0.94026 -1,0.82929 -1.18164,0 -2.36328,0 -3.54492,0 -0.0265,-2.81296 0.0904,-5.63865 -0.0861,-8.44329 -0.39894,-2.38035 -2.63197,-4.21098 -5.02556,-4.26183 -1.41866,-0.19561 -2.83715,-0.39239 -4.25556,-0.5898 0.28043,0.89663 -0.66734,0.54508 -1.20977,0.60547 -0.70937,0 -1.41875,0 -2.12812,0 0,-1.5013 0,-3.0026 0,-4.50391 2.77047,-0.0185 5.55156,0.0839 8.31491,-0.0906 2.7668,-0.39732 4.7318,-3.26498 4.4136,-5.98829 1e-5,-2.21589 0,-4.43177 1e-5,-6.64766 1.5013,0 3.0026,0 4.5039,0 z m 218.98828,21.97266 c -3.6867,0.0166 -7.17281,2.61578 -8.20508,6.16211 -1.11889,3.45398 0.21535,7.50628 3.17383,9.61523 0.68999,0.50951 1.4566,0.91924 2.26953,1.19531 -3.73294,1.26344 -6.24598,5.29659 -5.72237,9.20421 0.37372,3.72222 3.4015,6.96139 7.09299,7.5759 3.82886,0.75653 7.96498,-1.44087 9.50048,-5.02425 1.65398,-3.51446 0.5442,-8.04768 -2.55405,-10.39277 -0.74786,-0.59092 -1.59426,-1.05725 -2.49283,-1.37481 3.87292,-1.27902 6.40543,-5.55246 5.70899,-9.56445 -0.52773,-3.76807 -3.78367,-6.92357 -7.56685,-7.32882 -0.39819,-0.0541 -0.8027,-0.0757 -1.20464,-0.0677 z m 0.33008,7.89258 c 0.70256,0.0906 0.96405,1.32678 0.21958,1.47847 -0.73547,0.32712 -1.45332,-0.58699 -1.03989,-1.22652 0.20797,-0.22111 0.52744,-0.2959 0.82031,-0.25195 z m -0.041,16.42773 c 0.67622,0.10304 0.94259,1.2024 0.30834,1.45979 -0.50059,0.0276 -1.16931,0.0125 -1.21458,-0.63948 -0.18781,-0.58925 0.405,-0.897 0.90624,-0.82031 z m -178.6621,6.33594 c 1.42046,1.55487 3.65241,1.8669 5.65195,1.73239 49.67396,-0.003 99.34792,-0.006 149.02187,-0.01 1.48966,-0.0927 2.9464,-0.74786 3.9668,-1.84179 0,3.71679 0,7.43359 0,11.15039 -52.91667,0 -105.83333,0 -158.75,0 0,-3.7168 0,-7.4336 0,-11.15039 l 0.0676,0.0737 z" />
    <path
       id="top-2"
       style="fill:#ffffff"
       d="m 149.5,15.380859 a 9.76,9.76 0 0 0 -9.75,9.75 V 164.88086 h 37.5 v 1.5 h -26.08984 a 11.42,11.42 0 0 0 -10.80664,12 H 139.75 v 148.75 a 9.76,9.76 0 0 0 9.75,9.75 h 290 a 9.76,9.76 0 0 0 9.75,-9.75 v -148.75 h -0.60352 a 11.42,11.42 0 0 0 -10.80664,-12 H 411.75 v -1.5 h 37.5 V 25.130859 a 9.76,9.76 0 0 0 -9.75,-9.75 z m 0,1.5 h 290 a 8.26,8.26 0 0 1 8.25,8.25 v 74.355469 h -0.77148 -3.41016 -0.61133 c -1.1634,0 -2.09961,0.936212 -2.09961,2.099612 v 31.80273 c 0,1.16339 0.93621,2.09961 2.09961,2.09961 h 0.61133 3.41016 0.77148 v 27.89258 h -37.5 v 3 h -231.5 v -3 h -37.5 v -27.98438 h 0.73828 3.41016 0.61133 c 1.1634,0 2.0996,-0.93621 2.09961,-2.0996 v -31.80274 c 0,-1.1634 -0.93621,-2.099609 -2.09961,-2.099609 H 145.39844 141.98828 141.25 V 25.130859 a 8.26,8.26 0 0 1 8.25,-8.25 z m 47.66992,5.830079 a 4.75,4.75 0 0 0 -4.75,4.75 V 155.80078 a 4.76,4.76 0 0 0 4.5,4.73828 h 194.91992 a 4.75,4.75 0 0 0 4.75,-4.75 V 27.460938 a 4.75,4.75 0 0 0 -4.75,-4.75 z m 0,1.5 h 194.66992 a 3.26,3.26 0 0 1 3.25,3.25 V 155.78906 a 3.26,3.26 0 0 1 -3.25,3.25 H 197.16992 a 3.26,3.26 0 0 1 -3.25,-3.25 V 27.460938 a 3.26,3.26 0 0 1 3.25,-3.25 z M 168.81055,28.75 a 2.15,2.15 0 0 0 -2.15039,2.150391 v 4.21875 A 2.15,2.15 0 0 0 168.80078,37.25 H 173 a 2.15,2.15 0 0 0 2.15039,-2.150391 V 30.900391 A 2.16,2.16 0 0 0 173,28.75 Z M 416,28.75 a 2.16,2.16 0 0 0 -2.15039,2.150391 v 4.199218 A 2.15,2.15 0 0 0 416,37.25 h 4.2207 a 2.13,2.13 0 0 0 1.50977,-0.630859 2.17,2.17 0 0 0 0.61914,-1.519532 V 30.900391 A 2.15,2.15 0 0 0 420.19922,28.75 Z m -213.5,0.960938 a 2.75,2.75 0 0 0 -2.75,2.75 V 150.80078 a 2.75,2.75 0 0 0 2.75,2.75 h 184 a 2.75,2.75 0 0 0 2.75,-2.75 V 32.460938 a 2.75,2.75 0 0 0 -2.75,-2.75 z m 213.5,0.138671 4.19922,0.05078 a 1,1 0 0 1 1.05078,1 v 4.15039 a 1,1 0 0 1 -1.05078,1 H 416 a 1,1 0 0 1 -1.05078,-1 v -4.201172 a 1,1 0 0 1 1.05078,-1 z m -247.19922,0.05078 H 173 a 1.06,1.06 0 0 1 1.05078,1 v 4.199218 a 1,1 0 0 1 -1.05078,1 h -4.15039 a 1,1 0 0 1 -1.04883,-1 L 167.75,31.150391 v -0.25 a 1,1 0 0 1 1.05078,-1 z M 202.5,31.210938 h 184 a 1.25,1.25 0 0 1 1.25,1.25 V 150.75 A 1.25,1.25 0 0 1 386.5,152 h -184 a 1.25,1.25 0 0 1 -1.25,-1.21094 V 32.460938 a 1.25,1.25 0 0 1 1.25,-1.25 z m -31.58008,36.109374 a 1.21,1.21 0 0 0 -1.20898,1.208985 1.21,1.21 0 1 0 1.20898,-1.208985 z m 247.16992,0 a 1.21,1.21 0 0 0 -1.18945,1.208985 1.21,1.21 0 1 0 1.20899,-1.208985 z m -256.16992,8.789063 a 1.21,1.21 0 0 0 -1.20898,1.210937 1.21,1.21 0 0 0 0.11133,0.167969 1.21,1.21 0 0 0 0.57031,0.853516 1.21,1.21 0 0 0 0.12695,0.08398 1.21,1.21 0 0 0 0.48047,0.103516 1.21,1.21 0 0 0 0.38281,-0.275391 1.21,1.21 0 0 0 0.43946,-0.316406 1.21,1.21 0 0 0 0.14257,-0.710938 1.21,1.21 0 0 0 -0.11132,-0.492187 1.21,1.21 0 0 0 -0.56446,-0.376953 1.21,1.21 0 0 0 -0.36914,-0.248047 z m 9,0 a 1.21,1.21 0 0 0 -1.20898,1.210937 1.21,1.21 0 0 0 0.11133,0.167969 1.21,1.21 0 0 0 0.57031,0.853516 1.21,1.21 0 0 0 0.12695,0.08398 1.21,1.21 0 0 0 0.48047,0.103516 1.21,1.21 0 0 0 0.38281,-0.275391 1.21,1.21 0 0 0 0.43946,-0.316406 1.21,1.21 0 0 0 0.14257,-0.710938 1.21,1.21 0 0 0 -0.11132,-0.492187 1.21,1.21 0 0 0 -0.56446,-0.376953 1.21,1.21 0 0 0 -0.36914,-0.248047 z m 9,0 a 1.21,1.21 0 0 0 -1.20898,1.210937 h -0.0312 v 0.06055 a 0.86,0.86 0 1 0 0.043,-0.04297 1.21,1.21 0 1 0 1.19726,-1.228516 z m 229.18946,0 a 1.21,1.21 0 0 0 -1.20899,1.210937 1.21,1.21 0 0 0 1.20899,1.208985 1.21,1.21 0 0 0 0.39257,-0.261719 1.21,1.21 0 0 0 0.51367,-0.341797 1.21,1.21 0 0 0 0.1211,-0.605469 1.21,1.21 0 0 0 -0.1211,-0.605468 1.21,1.21 0 0 0 -0.51171,-0.341797 1.21,1.21 0 0 0 -0.39453,-0.263672 z m 9,0 a 1.21,1.21 0 0 0 -1.20899,1.210937 l -0.0195,0.01953 a 1.21,1.21 0 0 0 1.22852,1.189453 1.21,1.21 0 0 0 0,-2.419922 z m 8.9707,0 a 1.21,1.21 0 0 0 -0.41992,0.09375 1.21,1.21 0 0 0 -0.0176,0.0039 1.21,1.21 0 0 0 -0.74219,1.113281 l -0.0312,0.0293 a 1.21,1.21 0 0 0 1.24024,1.179688 1.21,1.21 0 0 0 0.39257,-0.261719 1.21,1.21 0 0 0 0.51367,-0.341797 1.21,1.21 0 0 0 0.1211,-0.605469 1.21,1.21 0 0 0 -0.1211,-0.605468 1.21,1.21 0 0 0 -0.51171,-0.341797 1.21,1.21 0 0 0 -0.39453,-0.263672 z m -9.4336,8.882813 a 1.21,1.21 0 0 0 -0.74609,1.117187 l -0.0195,0.02148 a 1.21,1.21 0 0 0 1.22852,1.189453 1.21,1.21 0 1 0 -0.4629,-2.328124 z m -247.16992,0.0059 a 1.21,1.21 0 0 0 -0.73633,1.111328 h 0.0488 A 1.21,1.21 0 0 0 171,87.320312 1.21,1.21 0 1 0 170.47656,84.998047 Z m -26.48242,16.392572 c 0.70333,-0.006 1.40527,-0.005 2.09375,0.0391 0.0232,2.64641 0.0252,5.29773 0.0234,7.94922 h -4.22266 v -7.88477 -0.0996 c 0.69741,0.0141 1.40214,0.002 2.10547,-0.004 z m 300.97852,0.0918 c 0.70333,0.006 1.4081,0.018 2.10546,0.004 v 0.0996 7.88476 h -4.22265 c -0.002,-2.65149 2.4e-4,-5.30281 0.0234,-7.94922 0.68848,-0.0441 1.39042,-0.0451 2.09375,-0.0391 z m -303.08399,9.41602 h 4.22266 c -0.003,2.58794 -0.008,5.17577 -0.002,7.76172 -0.0174,4.89848 0.0341,9.81773 -0.0254,14.70312 -1.37392,0.0838 -2.80229,0.006 -4.19531,0.0332 z m 300.9668,0.0918 h 4.22265 v 22.49805 c -1.39301,-0.0272 -2.82139,0.0506 -4.19531,-0.0332 -0.0595,-4.88539 -0.008,-9.80465 -0.0254,-14.70313 0.006,-2.58595 10e-4,-5.17378 -0.002,-7.76172 z M 168.78906,145.25 a 2.13,2.13 0 0 0 -1.50976,0.63086 2.17,2.17 0 0 0 -0.61914,1.51953 v 4.19922 a 2.15,2.15 0 0 0 2.15039,2.15039 H 173 a 2.16,2.16 0 0 0 2.15039,-2.15039 v -4.19922 A 2.15,2.15 0 0 0 173,145.25 Z M 416,145.25 a 2.16,2.16 0 0 0 -2.15039,2.15039 v 4.20899 A 2.15,2.15 0 0 0 416,153.75 h 4.21094 a 2.14,2.14 0 0 0 2.13867,-2.14062 v -4.20899 A 2.15,2.15 0 0 0 420.19922,145.25 Z m 0,1.09961 h 4.21094 a 1,1 0 0 1 1.04883,1.05078 v 4.20899 a 1,1 0 0 1 -1.04883,1 H 416 a 1,1 0 0 1 -1,-1 v -4.20899 a 1,1 0 0 1 1,-1.05078 z m -247.19922,0.0508 h 4.25 a 1,1 0 0 1 1,1 v 4.19922 a 1.05,1.05 0 0 1 -1.05078,1 h -4.24023 a 1,1 0 0 1 -1,-1 L 167.75,148 v -0.59961 a 1,1 0 0 1 1.05078,-1 z m -17.64062,21.48047 H 177.25 v 19.83008 h -26.08984 a 9.92,9.92 0 0 1 -9.91016,-7.5293 v -1.80078 h -0.0664 a 9.92,9.92 0 0 1 9.97657,-10.5 z m 27.58984,0 h 231.5 v 19.83008 h -34.53125 a 4,4 0 0 0 -0.18945,-0.0801 H 213.4707 a 4,4 0 0 0 -0.18945,0.0801 H 178.75 Z m 233,0 h 26.08984 a 9.92,9.92 0 0 1 0,19.83008 H 411.75 Z m 16.5,7.39844 c -1.1,0 -2,0.3207 -2,0.7207 v 2.5293 c 0,0.4 0.9,0.73047 2,0.73047 1.11,0 2,-0.33047 2,-0.73047 V 176 c 0,-0.4 -0.89,-0.7207 -2,-0.7207 z m -287,6.91211 a 11.42,11.42 0 0 0 9.91016,7.01953 h 59.36718 a 4,4 0 0 0 -0.99804,2.35937 v 135.61914 a 4,4 0 0 0 3.9414,3.94141 h 162.06836 a 3.94,3.94 0 0 0 3.93164,-3.95117 v -135.6094 a 4,4 0 0 0 -0.99804,-2.35937 h 59.36718 a 11.42,11.42 0 0 0 9.91016,-7.01953 v 144.93945 a 8.26,8.26 0 0 1 -8.25,8.25 h -290 a 8.26,8.26 0 0 1 -8.25,-8.25 z m 72.2207,7.03906 h 162.0586 a 2.34,2.34 0 0 1 2.33984,2.33984 v 135.61914 a 2.34,2.34 0 0 1 -2.33984,2.33985 H 213.4707 a 2.37,2.37 0 0 1 -2.35156,-2.34961 v -135.6094 a 2.36,2.36 0 0 1 2.35156,-2.33984 z m 5.88868,7.30859 a 1.84,1.84 0 0 0 -1.83008,1.85156 v 112 a 1.85,1.85 0 0 0 1.83984,1.83985 l 150.26172,-0.01 a 1.85,1.85 0 0 0 1.83984,-1.83984 v -112 a 1.85,1.85 0 0 0 -1.83984,-1.8418 z m -0.24024,1.60156 H 369.88086 V 310.66016 H 219.11914 Z M 172,204.19141 a 21,21 0 0 0 -2.98828,0.21289 21,21 0 0 0 2.98828,41.78515 21,21 0 0 0 21,-21 21,21 0 0 0 -21,-20.99804 z m 225.93164,0.006 a 6.75,6.75 0 0 0 -1.44141,0.0508 6.75,6.75 0 0 0 0.95899,13.43164 6.76,6.76 0 0 0 6.75,-6.75 6.75,6.75 0 0 0 -6.26758,-6.73242 z m -0.49023,0.98437 a 5.77,5.77 0 0 1 5.75781,5.74805 5.76,5.76 0 1 1 -5.75781,-5.74805 z M 172,205.51953 A 19.71,19.71 0 0 1 191.67969,225.23047 19.68,19.68 0 1 1 172,205.51953 Z m 0.40039,5.73633 a 14,14 0 0 0 -2.39258,0.13672 A 14,14 0 0 0 172,239.25 a 14,14 0 0 0 14,-14 14,14 0 0 0 -13.59961,-13.99414 z M 172,212.39062 a 12.82,12.82 0 0 1 12.81055,12.72852 v 0.0606 0.0703 A 12.81,12.81 0 1 1 172,212.39062 Z m 240.46875,6.31641 a 8.58,8.58 0 0 0 1.2207,17.07227 8.59,8.59 0 0 0 8.58008,-8.58008 8.58,8.58 0 0 0 -9.80078,-8.49219 z m 1.2207,1.24219 0.0215,0.0508 a 7.26,7.26 0 0 1 7.28906,7.19922 7.25,7.25 0 1 1 -7.31055,-7.25 z m 16.47266,15.26172 a 8.58,8.58 0 0 0 0.4082,17.14844 8.59,8.59 0 0 0 8.58985,-8.58008 8.58,8.58 0 0 0 -8.99805,-8.56836 z m -34.12305,0.0762 a 8.58,8.58 0 0 0 1.22071,17.07227 8.59,8.59 0 0 0 8.58007,-8.58008 8.58,8.58 0 0 0 -9.80078,-8.49219 z m 1.22071,1.24219 h 0.0293 a 7.26,7.26 0 0 1 7.22071,7.25 7.25,7.25 0 1 1 -7.25,-7.25 z m 33.31054,0 h 0.0293 a 7.26,7.26 0 0 1 7.2207,7.25 7.25,7.25 0 1 1 -7.25,-7.25 z m -18.10156,15.17773 a 8.58,8.58 0 0 0 1.2207,17.07227 8.59,8.59 0 0 0 8.58008,-8.58008 8.58,8.58 0 0 0 -9.80078,-8.49219 z m 1.2207,1.24219 0.0215,0.0508 a 7.26,7.26 0 0 1 7.28906,7.19922 7.25,7.25 0 1 1 -7.31055,-7.25 z m -247.30859,3.66016 a 1.56,1.56 0 0 0 -1.56055,1.55078 v 11.14062 h -11.15039 a 1.56,1.56 0 0 0 -1.56054,1.54883 v 12 a 1.56,1.56 0 0 0 1.56054,1.56055 h 11.15039 v 11.17968 a 1.55,1.55 0 0 0 1.56055,1.54102 h 0.25 11.75976 a 1.56,1.56 0 0 0 1.54883,-1.55078 v -11.15039 h 11.15039 a 1.56,1.56 0 0 0 1.56055,-1.56055 v -12 a 1.56,1.56 0 0 0 -1.56055,-1.54883 h -11.15039 v -11.16015 a 1.56,1.56 0 0 0 -1.55859,-1.55078 z m -0.27148,1.25976 h 12.5 v 11.26172 a 1.5,1.5 0 0 0 0.45117,1.13867 1.53,1.53 0 0 0 1,0.34961 h 11.25 v 12.5 h -11.34961 a 1.36,1.36 0 0 0 -1.06055,0.5 1.62,1.62 0 0 0 -0.26953,0.94141 v 11.22851 h -12.25 -0.10156 l -0.18946,-0.0898 v -11.25 a 1.32,1.32 0 0 0 -0.45898,-1.09961 1.78,1.78 0 0 0 -0.95117,-0.26953 v 0.0195 h -11.29883 v -12.5 h 11.39844 a 1.33,1.33 0 0 0 1,-0.48047 1.49,1.49 0 0 0 0.33008,-1 z m 226.95507,30.00977 a 4.75,4.75 0 0 0 0.67578,9.45117 4.75,4.75 0 0 0 4.75,-4.75 4.75,4.75 0 0 0 -5.42578,-4.70117 z m 0.67578,1.35156 a 3.38,3.38 0 0 1 3.34961,3.34961 3.35,3.35 0 1 1 -3.34961,-3.34961 z m -0.21875,15.06641 a 4.73,4.73 0 0 0 0.21875,9.45312 4.75,4.75 0 0 0 4.75,-4.75 4.73,4.73 0 0 0 -4.96875,-4.70312 z m 0.16797,1.36328 a 3.34,3.34 0 0 1 3.36133,3.33984 3.35,3.35 0 1 1 -3.36133,-3.33984 z" />
    <path
       id="path3778"
       style="fill:#ffffff"
       d="m 149.5,15.380859 a 9.76,9.76 0 0 0 -9.75,9.75 V 164.88086 h 37.5 v 1.5 h -26.08984 a 11.42,11.42 0 0 0 -10.80664,12 H 139.75 v 148.75 a 9.76,9.76 0 0 0 9.75,9.75 h 290 a 9.76,9.76 0 0 0 9.75,-9.75 v -148.75 h -0.60352 a 11.42,11.42 0 0 0 -10.80664,-12 H 411.75 v -1.5 h 37.5 V 25.130859 a 9.76,9.76 0 0 0 -9.75,-9.75 z m 0,1.5 h 290 a 8.26,8.26 0 0 1 8.25,8.25 v 74.355469 h -0.77148 -3.41016 -0.61133 c -1.1634,0 -2.09961,0.936212 -2.09961,2.099612 v 31.80273 c 0,1.16339 0.93621,2.09961 2.09961,2.09961 h 0.61133 3.41016 0.77148 v 27.89258 h -37.5 v 3 h -231.5 v -3 h -37.5 v -27.98438 h 0.73828 3.41016 0.61133 c 1.1634,0 2.0996,-0.93621 2.09961,-2.0996 v -31.80274 c 0,-1.1634 -0.93621,-2.099609 -2.09961,-2.099609 H 145.39844 141.98828 141.25 V 25.130859 a 8.26,8.26 0 0 1 8.25,-8.25 z m 47.66992,5.830079 a 4.75,4.75 0 0 0 -4.75,4.75 V 155.80078 a 4.76,4.76 0 0 0 4.5,4.73828 h 194.91992 a 4.75,4.75 0 0 0 4.75,-4.75 V 27.460938 a 4.75,4.75 0 0 0 -4.75,-4.75 z m 0,1.5 h 194.66992 a 3.26,3.26 0 0 1 3.25,3.25 V 155.78906 a 3.26,3.26 0 0 1 -3.25,3.25 H 197.16992 a 3.26,3.26 0 0 1 -3.25,-3.25 V 27.460938 a 3.26,3.26 0 0 1 3.25,-3.25 z M 168.81055,28.75 a 2.15,2.15 0 0 0 -2.15039,2.150391 v 4.21875 A 2.15,2.15 0 0 0 168.80078,37.25 H 173 a 2.15,2.15 0 0 0 2.15039,-2.150391 V 30.900391 A 2.16,2.16 0 0 0 173,28.75 Z M 416,28.75 a 2.16,2.16 0 0 0 -2.15039,2.150391 v 4.199218 A 2.15,2.15 0 0 0 416,37.25 h 4.2207 a 2.13,2.13 0 0 0 1.50977,-0.630859 2.17,2.17 0 0 0 0.61914,-1.519532 V 30.900391 A 2.15,2.15 0 0 0 420.19922,28.75 Z m -213.5,0.960938 a 2.75,2.75 0 0 0 -2.75,2.75 V 150.80078 a 2.75,2.75 0 0 0 2.75,2.75 h 184 a 2.75,2.75 0 0 0 2.75,-2.75 V 32.460938 a 2.75,2.75 0 0 0 -2.75,-2.75 z m 213.5,0.138671 4.19922,0.05078 a 1,1 0 0 1 1.05078,1 v 4.15039 a 1,1 0 0 1 -1.05078,1 H 416 a 1,1 0 0 1 -1.05078,-1 v -4.201172 a 1,1 0 0 1 1.05078,-1 z m -247.19922,0.05078 H 173 a 1.06,1.06 0 0 1 1.05078,1 v 4.199218 a 1,1 0 0 1 -1.05078,1 h -4.15039 a 1,1 0 0 1 -1.04883,-1 L 167.75,31.150391 v -0.25 a 1,1 0 0 1 1.05078,-1 z M 202.5,31.210938 h 184 a 1.25,1.25 0 0 1 1.25,1.25 V 150.75 A 1.25,1.25 0 0 1 386.5,152 h -184 a 1.25,1.25 0 0 1 -1.25,-1.21094 V 32.460938 a 1.25,1.25 0 0 1 1.25,-1.25 z m -31.58008,36.109374 a 1.21,1.21 0 0 0 -1.20898,1.208985 1.21,1.21 0 1 0 1.20898,-1.208985 z m 247.16992,0 a 1.21,1.21 0 0 0 -1.18945,1.208985 1.21,1.21 0 1 0 1.20899,-1.208985 z m -256.16992,8.789063 a 1.21,1.21 0 0 0 -1.20898,1.210937 1.21,1.21 0 0 0 0.11133,0.167969 1.21,1.21 0 0 0 0.57031,0.853516 1.21,1.21 0 0 0 0.12695,0.08398 1.21,1.21 0 0 0 0.48047,0.103516 1.21,1.21 0 0 0 0.38281,-0.275391 1.21,1.21 0 0 0 0.43946,-0.316406 1.21,1.21 0 0 0 0.14257,-0.710938 1.21,1.21 0 0 0 -0.11132,-0.492187 1.21,1.21 0 0 0 -0.56446,-0.376953 1.21,1.21 0 0 0 -0.36914,-0.248047 z m 9,0 a 1.21,1.21 0 0 0 -1.20898,1.210937 1.21,1.21 0 0 0 0.11133,0.167969 1.21,1.21 0 0 0 0.57031,0.853516 1.21,1.21 0 0 0 0.12695,0.08398 1.21,1.21 0 0 0 0.48047,0.103516 1.21,1.21 0 0 0 0.38281,-0.275391 1.21,1.21 0 0 0 0.43946,-0.316406 1.21,1.21 0 0 0 0.14257,-0.710938 1.21,1.21 0 0 0 -0.11132,-0.492187 1.21,1.21 0 0 0 -0.56446,-0.376953 1.21,1.21 0 0 0 -0.36914,-0.248047 z m 9,0 a 1.21,1.21 0 0 0 -1.20898,1.210937 h -0.0312 v 0.06055 a 0.86,0.86 0 1 0 0.043,-0.04297 1.21,1.21 0 1 0 1.19726,-1.228516 z m 229.18946,0 a 1.21,1.21 0 0 0 -1.20899,1.210937 1.21,1.21 0 0 0 1.20899,1.208985 1.21,1.21 0 0 0 0.39257,-0.261719 1.21,1.21 0 0 0 0.51367,-0.341797 1.21,1.21 0 0 0 0.1211,-0.605469 1.21,1.21 0 0 0 -0.1211,-0.605468 1.21,1.21 0 0 0 -0.51171,-0.341797 1.21,1.21 0 0 0 -0.39453,-0.263672 z m 9,0 a 1.21,1.21 0 0 0 -1.20899,1.210937 l -0.0195,0.01953 a 1.21,1.21 0 0 0 1.22852,1.189453 1.21,1.21 0 0 0 0,-2.419922 z m 8.9707,0 a 1.21,1.21 0 0 0 -0.41992,0.09375 1.21,1.21 0 0 0 -0.0176,0.0039 1.21,1.21 0 0 0 -0.74219,1.113281 l -0.0312,0.0293 a 1.21,1.21 0 0 0 1.24024,1.179688 1.21,1.21 0 0 0 0.39257,-0.261719 1.21,1.21 0 0 0 0.51367,-0.341797 1.21,1.21 0 0 0 0.1211,-0.605469 1.21,1.21 0 0 0 -0.1211,-0.605468 1.21,1.21 0 0 0 -0.51171,-0.341797 1.21,1.21 0 0 0 -0.39453,-0.263672 z m -9.4336,8.882813 a 1.21,1.21 0 0 0 -0.74609,1.117187 l -0.0195,0.02148 a 1.21,1.21 0 0 0 1.22852,1.189453 1.21,1.21 0 1 0 -0.4629,-2.328124 z m -247.16992,0.0059 a 1.21,1.21 0 0 0 -0.73633,1.111328 h 0.0488 A 1.21,1.21 0 0 0 171,87.320312 1.21,1.21 0 1 0 170.47656,84.998047 Z m -26.48242,16.392572 c 0.70333,-0.006 1.40527,-0.005 2.09375,0.0391 0.0232,2.64641 0.0252,5.29773 0.0234,7.94922 h -4.22266 v -7.88477 -0.0996 c 0.69741,0.0141 1.40214,0.002 2.10547,-0.004 z m 300.97852,0.0918 c 0.70333,0.006 1.4081,0.018 2.10546,0.004 v 0.0996 7.88476 h -4.22265 c -0.002,-2.65149 2.4e-4,-5.30281 0.0234,-7.94922 0.68848,-0.0441 1.39042,-0.0451 2.09375,-0.0391 z m -303.08399,9.41602 h 4.22266 c -0.003,2.58794 -0.008,5.17577 -0.002,7.76172 -0.0174,4.89848 0.0341,9.81773 -0.0254,14.70312 -1.37392,0.0838 -2.80229,0.006 -4.19531,0.0332 z m 300.9668,0.0918 h 4.22265 v 22.49805 c -1.39301,-0.0272 -2.82139,0.0506 -4.19531,-0.0332 -0.0595,-4.88539 -0.008,-9.80465 -0.0254,-14.70313 0.006,-2.58595 10e-4,-5.17378 -0.002,-7.76172 z M 168.78906,145.25 a 2.13,2.13 0 0 0 -1.50976,0.63086 2.17,2.17 0 0 0 -0.61914,1.51953 v 4.19922 a 2.15,2.15 0 0 0 2.15039,2.15039 H 173 a 2.16,2.16 0 0 0 2.15039,-2.15039 v -4.19922 A 2.15,2.15 0 0 0 173,145.25 Z M 416,145.25 a 2.16,2.16 0 0 0 -2.15039,2.15039 v 4.20899 A 2.15,2.15 0 0 0 416,153.75 h 4.21094 a 2.14,2.14 0 0 0 2.13867,-2.14062 v -4.20899 A 2.15,2.15 0 0 0 420.19922,145.25 Z m 0,1.09961 h 4.21094 a 1,1 0 0 1 1.04883,1.05078 v 4.20899 a 1,1 0 0 1 -1.04883,1 H 416 a 1,1 0 0 1 -1,-1 v -4.20899 a 1,1 0 0 1 1,-1.05078 z m -247.19922,0.0508 h 4.25 a 1,1 0 0 1 1,1 v 4.19922 a 1.05,1.05 0 0 1 -1.05078,1 h -4.24023 a 1,1 0 0 1 -1,-1 L 167.75,148 v -0.59961 a 1,1 0 0 1 1.05078,-1 z m -17.64062,21.48047 H 177.25 v 19.83008 h -26.08984 a 9.92,9.92 0 0 1 -9.91016,-7.5293 v -1.80078 h -0.0664 a 9.92,9.92 0 0 1 9.97657,-10.5 z m 27.58984,0 h 231.5 v 19.83008 h -34.53125 a 4,4 0 0 0 -0.18945,-0.0801 H 213.4707 a 4,4 0 0 0 -0.18945,0.0801 H 178.75 Z m 233,0 h 26.08984 a 9.92,9.92 0 0 1 0,19.83008 H 411.75 Z m 16.5,7.39844 c -1.1,0 -2,0.3207 -2,0.7207 v 2.5293 c 0,0.4 0.9,0.73047 2,0.73047 1.11,0 2,-0.33047 2,-0.73047 V 176 c 0,-0.4 -0.89,-0.7207 -2,-0.7207 z m -287,6.91211 a 11.42,11.42 0 0 0 9.91016,7.01953 h 59.36718 a 4,4 0 0 0 -0.99804,2.35937 v 135.61914 a 4,4 0 0 0 3.9414,3.94141 h 162.06836 a 3.94,3.94 0 0 0 3.93164,-3.95117 v -135.6094 a 4,4 0 0 0 -0.99804,-2.35937 h 59.36718 a 11.42,11.42 0 0 0 9.91016,-7.01953 v 144.93945 a 8.26,8.26 0 0 1 -8.25,8.25 h -290 a 8.26,8.26 0 0 1 -8.25,-8.25 z m 72.2207,7.03906 h 162.0586 a 2.34,2.34 0 0 1 2.33984,2.33984 v 135.61914 a 2.34,2.34 0 0 1 -2.33984,2.33985 H 213.4707 a 2.37,2.37 0 0 1 -2.35156,-2.34961 v -135.6094 a 2.36,2.36 0 0 1 2.35156,-2.33984 z m 5.88868,7.30859 a 1.84,1.84 0 0 0 -1.83008,1.85156 v 112 a 1.85,1.85 0 0 0 1.83984,1.83985 l 150.26172,-0.01 a 1.85,1.85 0 0 0 1.83984,-1.83984 v -112 a 1.85,1.85 0 0 0 -1.83984,-1.8418 z m -0.24024,1.60156 H 369.88086 V 310.66016 H 219.11914 Z M 172,204.19141 a 21,21 0 0 0 -2.98828,0.21289 21,21 0 0 0 2.98828,41.78515 21,21 0 0 0 21,-21 21,21 0 0 0 -21,-20.99804 z m 225.93164,0.006 a 6.75,6.75 0 0 0 -1.44141,0.0508 6.75,6.75 0 0 0 0.95899,13.43164 6.76,6.76 0 0 0 6.75,-6.75 6.75,6.75 0 0 0 -6.26758,-6.73242 z m -0.49023,0.98437 a 5.77,5.77 0 0 1 5.75781,5.74805 5.76,5.76 0 1 1 -5.75781,-5.74805 z M 172,205.51953 A 19.71,19.71 0 0 1 191.67969,225.23047 19.68,19.68 0 1 1 172,205.51953 Z m 0.40039,5.73633 a 14,14 0 0 0 -2.39258,0.13672 A 14,14 0 0 0 172,239.25 a 14,14 0 0 0 14,-14 14,14 0 0 0 -13.59961,-13.99414 z M 172,212.39062 a 12.82,12.82 0 0 1 12.81055,12.72852 v 0.0606 0.0703 A 12.81,12.81 0 1 1 172,212.39062 Z m 240.46875,6.31641 a 8.58,8.58 0 0 0 1.2207,17.07227 8.59,8.59 0 0 0 8.58008,-8.58008 8.58,8.58 0 0 0 -9.80078,-8.49219 z m 1.2207,1.24219 0.0215,0.0508 a 7.26,7.26 0 0 1 7.28906,7.19922 7.25,7.25 0 1 1 -7.31055,-7.25 z m 16.47266,15.26172 a 8.58,8.58 0 0 0 0.4082,17.14844 8.59,8.59 0 0 0 8.58985,-8.58008 8.58,8.58 0 0 0 -8.99805,-8.56836 z m -34.12305,0.0762 a 8.58,8.58 0 0 0 1.22071,17.07227 8.59,8.59 0 0 0 8.58007,-8.58008 8.58,8.58 0 0 0 -9.80078,-8.49219 z m 1.22071,1.24219 h 0.0293 a 7.26,7.26 0 0 1 7.22071,7.25 7.25,7.25 0 1 1 -7.25,-7.25 z m 33.31054,0 h 0.0293 a 7.26,7.26 0 0 1 7.2207,7.25 7.25,7.25 0 1 1 -7.25,-7.25 z m -18.10156,15.17773 a 8.58,8.58 0 0 0 1.2207,17.07227 8.59,8.59 0 0 0 8.58008,-8.58008 8.58,8.58 0 0 0 -9.80078,-8.49219 z m 1.2207,1.24219 0.0215,0.0508 a 7.26,7.26 0 0 1 7.28906,7.19922 7.25,7.25 0 1 1 -7.31055,-7.25 z m -247.30859,3.66016 a 1.56,1.56 0 0 0 -1.56055,1.55078 v 11.14062 h -11.15039 a 1.56,1.56 0 0 0 -1.56054,1.54883 v 12 a 1.56,1.56 0 0 0 1.56054,1.56055 h 11.15039 v 11.17968 a 1.55,1.55 0 0 0 1.56055,1.54102 h 0.25 11.75976 a 1.56,1.56 0 0 0 1.54883,-1.55078 v -11.15039 h 11.15039 a 1.56,1.56 0 0 0 1.56055,-1.56055 v -12 a 1.56,1.56 0 0 0 -1.56055,-1.54883 h -11.15039 v -11.16015 a 1.56,1.56 0 0 0 -1.55859,-1.55078 z m -0.27148,1.25976 h 12.5 v 11.26172 a 1.5,1.5 0 0 0 0.45117,1.13867 1.53,1.53 0 0 0 1,0.34961 h 11.25 v 12.5 h -11.34961 a 1.36,1.36 0 0 0 -1.06055,0.5 1.62,1.62 0 0 0 -0.26953,0.94141 v 11.22851 h -12.25 -0.10156 l -0.18946,-0.0898 v -11.25 a 1.32,1.32 0 0 0 -0.45898,-1.09961 1.78,1.78 0 0 0 -0.95117,-0.26953 v 0.0195 h -11.29883 v -12.5 h 11.39844 a 1.33,1.33 0 0 0 1,-0.48047 1.49,1.49 0 0 0 0.33008,-1 z m 226.95507,30.00977 a 4.75,4.75 0 0 0 0.67578,9.45117 4.75,4.75 0 0 0 4.75,-4.75 4.75,4.75 0 0 0 -5.42578,-4.70117 z m 0.67578,1.35156 a 3.38,3.38 0 0 1 3.34961,3.34961 3.35,3.35 0 1 1 -3.34961,-3.34961 z m -0.21875,15.06641 a 4.73,4.73 0 0 0 0.21875,9.45312 4.75,4.75 0 0 0 4.75,-4.75 4.73,4.73 0 0 0 -4.96875,-4.70312 z m 0.16797,1.36328 a 3.34,3.34 0 0 1 3.36133,3.33984 3.35,3.35 0 1 1 -3.36133,-3.33984 z" />
  </g>
</svg>
