<?xml version="1.0" encoding="UTF-8" standalone="no"?>
<!-- Generator: Adobe Illustrator 25.4.1, SVG Export Plug-In . SVG Version: 6.00 Build 0)  -->

<svg
   version="1.1"
   id="Layer_1"
   x="0px"
   y="0px"
   viewBox="0 0 3773.0996 506.02483"
   xml:space="preserve"
   sodipodi:docname="system (cópia).svg"
   width="3773.0996"
   height="506.02484"
   inkscape:version="1.1.2 (0a00cf5339, 2022-02-04)"
   xmlns:inkscape="http://www.inkscape.org/namespaces/inkscape"
   xmlns:sodipodi="http://sodipodi.sourceforge.net/DTD/sodipodi-0.dtd"
   xmlns="http://www.w3.org/2000/svg"
   xmlns:svg="http://www.w3.org/2000/svg"><defs
   id="defs37">
	
	
	
	
	
	
	
	
	
	
	
	
	
	
</defs><sodipodi:namedview
   id="namedview35"
   pagecolor="#9e9e9e"
   bordercolor="#666666"
   borderopacity="1.0"
   inkscape:pageshadow="2"
   inkscape:pageopacity="0"
   inkscape:pagecheckerboard="0"
   showgrid="false"
   fit-margin-top="0"
   fit-margin-left="0"
   fit-margin-right="0"
   fit-margin-bottom="0"
   inkscape:zoom="0.38577754"
   inkscape:cx="2028.3711"
   inkscape:cy="89.429779"
   inkscape:window-width="1920"
   inkscape:window-height="996"
   inkscape:window-x="0"
   inkscape:window-y="0"
   inkscape:window-maximized="1"
   inkscape:current-layer="Layer_1" />
<style
   type="text/css"
   id="style2">
	.st0{fill:#929497;}
	.st1{fill:#CE181E;}
	.st2{fill:#A0C90C;}
	.st3{fill:#E20123;}
	.st4{fill:#02A7E0;}
	.st5{fill:#F5AB00;}
	.st6{fill:#F02590;}
	.st7{fill:#049B81;}
	.st8{fill:#FFFFFF;}
</style>
<path
   id="path1028"
   style="fill:#000000"
   class="st0"
   d="m 2337.8652,0.00318133 c -63.5342,0.390787 -127.1171,4.02609197 -190.0812,12.70175467 -14.4926,2.036512 -28.9092,4.573505 -43.284,7.311917 0,41.414062 0,82.828127 0,124.242187 18.4955,-4.37209 37.0141,-8.93693 55.4796,-13.18956 10.2545,-2.35659 20.4075,-4.58816 30.7076,-6.65794 12.1585,-2.43835 24.3718,-4.58976 36.6689,-6.43518 12.3505,-1.8396 24.799,-3.32434 37.295,-4.42913 12.41,-1.09764 24.9887,-1.79757 37.4933,-2.16833 10.2514,-0.27012 20.6631,-0.35854 30.9737,-0.0591 6.0772,0.18069 12.3393,0.56319 18.4744,1.08027 5.7,0.48355 11.4986,1.15888 17.2063,1.97229 1.6318,0.25466 3.4861,0.51141 5.1979,0.80344 8.3066,1.33649 16.5473,3.10564 24.6439,5.39773 0.8047,0.23258 1.7911,0.51122 2.6015,0.76231 8.6405,2.62646 17.1742,5.819 25.0151,10.34455 4.3503,2.64196 8.7257,5.56083 11.7623,9.72713 0.9554,1.36445 1.3179,3.0989 0.9039,4.72102 -0.8016,4.25338 -3.9461,7.57271 -7.2662,10.12263 -5.5769,4.34238 -12.0736,7.30732 -18.6158,9.87896 -5.9693,2.26529 -12.0953,4.09726 -18.2777,5.68168 -3.8109,0.96688 -7.8883,1.87516 -11.8488,2.67212 -5.8641,1.18046 -11.8312,2.17661 -17.6857,3.02352 -10.0753,1.46156 -20.3987,2.5535 -30.6336,3.3692 -12.4504,0.99924 -25.1198,1.62359 -37.6248,1.93314 -22.7715,0.57951 -45.5524,0.33106 -68.3286,0.38463 -15.0142,-5.6e-4 -30.0284,-0.001 -45.0426,-0.002 0,38.26563 0,76.53125 0,114.79688 36.3148,0.0645 72.6319,-0.18345 108.9446,0.29979 10.1885,0.21234 20.3555,0.57065 30.5417,1.09474 6.2285,0.35174 12.6479,0.74869 18.8651,1.24378 15.2603,1.17716 30.4879,2.8836 45.5842,5.42614 11.9294,2.05697 23.9649,4.66574 35.5429,8.45405 9.3807,3.13803 18.7219,6.90721 26.715,12.84387 3.9884,3.02041 7.7744,6.7937 9.2494,11.70774 1.8923,5.97398 0.1064,12.74837 -3.9791,17.4035 -5.2683,6.51529 -12.478,11.08328 -19.8186,14.93363 -5.7887,2.9984 -11.8372,5.47267 -18.0007,7.5869 -0.7314,0.23796 -1.8452,0.61593 -2.5832,0.85722 -7.7436,2.48703 -15.7312,4.50868 -23.6414,6.12129 -13.9988,2.82545 -28.1752,4.49043 -42.4045,5.33769 -3.1183,0.1868 -6.3297,0.34056 -9.4316,0.43608 -9.6641,0.32382 -19.4414,0.25574 -29.0408,-0.006 -10.4858,-0.32818 -20.8428,-0.92828 -31.2911,-1.82801 -7.0462,-0.60866 -14.2611,-1.34678 -21.3029,-2.20328 -22.574,-2.72648 -44.9826,-6.65949 -67.2481,-11.46783 -14.3182,-3.09426 -28.6865,-6.58758 -42.8656,-10.31859 -16.5271,-4.33518 -32.9796,-8.94714 -49.4544,-13.47526 -0.018,-14.92515 -0.024,-29.85157 -0.1136,-44.77581 -1.1798,-21.01315 -12.4338,-41.15691 -29.5661,-53.34333 12.4322,-8.87116 21.9269,-21.83366 26.4203,-36.44817 2.671,-8.48503 3.6632,-17.44975 3.275,-26.32292 -0.018,-40.39334 0.051,-80.78766 -0.1192,-121.180295 -1.2208,-23.249337 -14.8278,-45.45419 -35.0219,-57.052479 -11.2906,-6.6239667 -24.4336,-10.0192277 -37.5191,-9.7264907 -57.5801,0.01637 -115.1611,-0.02572 -172.7407,0.116932 -22.4371,0.934425 -44.0138,13.4293517 -56.0891,32.3477867 -7.1108,10.920178 -10.9816,23.846827 -11.4299,36.847668 -6.7495,-16.487859 -16.9141,-31.719025 -30.3403,-43.513525 -12.2909,-10.843721 -27.3192,-18.463944 -43.2285,-22.3263427 -10.6223,-2.62162 -21.6037,-3.564904 -32.5269,-3.376841 -59.7259,0.0064 -119.4519,0.0095 -179.1778,0.0097 0,87.9999997 0,175.9999967 0,263.9999967 62.7774,-0.0157 125.5553,0.0412 188.3324,-0.11182 20.7906,-0.76663 41.5714,-7.09711 58.5726,-19.24007 16.0129,-11.41571 28.3911,-27.52255 36.415,-45.39842 0.7261,-1.62115 1.4261,-3.25445 2.0902,-4.90203 -0.045,7.32179 1.3743,14.60662 3.7369,21.51989 4.8041,13.87203 13.9061,26.2616 25.8666,34.80237 -12.4406,8.89046 -21.9369,21.87754 -26.4288,36.51105 -2.667,8.45644 -3.6446,17.39078 -3.2743,26.23466 0.017,40.35622 -0.056,80.71345 0.119,121.06897 1.1911,23.15266 14.6415,45.2849 34.6636,56.97979 12.1668,7.28583 26.5516,10.58216 40.6791,9.9243 56.7563,-0.01 113.5131,0.057 170.269,-0.10307 23.2196,-1.09488 45.454,-14.55133 57.1828,-34.62277 2.8676,-4.78168 5.1248,-9.92215 6.772,-15.24683 0,9.13346 0,18.26692 0,27.40039 33.4245,5.93329 66.8776,11.93419 100.6637,15.44015 57.1694,6.27678 114.7324,8.39429 172.2249,8.03777 46.4071,-0.67019 92.8962,-5.60474 137.977,-16.87116 29.0247,-7.28695 57.5217,-17.38401 83.6676,-32.07724 17.5907,-9.92652 34.0481,-22.19336 47.3945,-37.43754 8.835,-10.15302 16.1771,-21.67028 21.1739,-34.18768 0,39.72591 0,79.45182 0,119.17773 101.9829,-0.0119 203.966,0.0275 305.9487,-0.10567 44.2309,-0.78202 88.4435,-5.32281 131.7504,-14.43363 19.7014,-4.24389 39.2553,-9.52949 57.914,-17.2215 16.0758,-6.72355 31.5014,-14.94356 46.3174,-24.09973 28.0623,-17.59476 53.4601,-39.95367 72.5629,-67.14302 1.2645,-1.78987 2.4992,-3.60065 3.7058,-5.43004 0,37.10546 0,74.21093 0,111.3164 44.4285,7.57975 89.1818,13.66454 134.2168,16.01742 35.9594,1.99036 72.006,2.50525 108.004,1.36671 37.6851,-1.34596 75.4058,-5.20568 112.1636,-13.84096 25.0567,-5.89518 49.6856,-14.28952 72.2574,-26.78815 18.3443,-10.2152 35.2324,-23.54361 47.8814,-40.42218 11.1421,-14.90132 18.746,-32.54598 21.245,-51.02291 3.0416,-21.18597 0.4537,-43.21999 -7.7943,-62.99474 -6.5269,-15.45021 -16.6452,-29.23973 -28.7932,-40.74653 -14.09,-13.49413 -30.5896,-24.18628 -47.6518,-33.51673 -20.7405,-11.28139 -42.4976,-20.55256 -64.4295,-29.23618 -34.4546,-13.58239 -69.6495,-25.17451 -104.1883,-38.53462 -10.889,-4.27633 -21.7487,-8.69536 -32.16,-14.05049 -1.481,-0.762 -2.8469,-1.49779 -4.3378,-2.31864 -5.5808,-3.1453 -11.1678,-6.49292 -15.6998,-11.08009 -1.7506,-1.87384 -3.6159,-4.06064 -3.692,-6.75574 0.066,-1.76281 1.5007,-3.05467 2.6857,-4.19506 4.4869,-4.09896 10.1469,-6.59654 15.787,-8.67993 1.8151,-0.66093 3.6503,-1.26518 5.5058,-1.80274 0.7779,-0.22289 1.8414,-0.52462 2.7354,-0.75367 6.7742,-1.77982 13.7494,-2.96643 20.6398,-3.7929 6.8181,-0.81618 13.6767,-1.25926 20.5389,-1.47296 6.0188,-0.16428 12.2276,-0.16692 18.3183,-0.0156 3.9598,0.0974 8.0084,0.2702 11.9512,0.47266 7.6384,0.4033 15.392,1.09853 22.8789,1.9707 7.1875,0.85244 14.3548,1.89358 21.4484,3.10316 20.5101,3.4925 40.6987,8.51818 60.9934,13.1193 10.1908,2.31623 20.4001,4.5718 30.6773,6.4748 3.5708,0.57583 7.2834,0.46989 10.7367,-0.67096 9.1228,-2.79219 16.36,-11.31959 17.0821,-20.91126 0.2752,-3.98458 -0.016,-7.97904 0.07,-11.96815 -0.1232,-28.044408 -0.2449,-56.088819 -0.3689,-84.133219 -28.3673,-5.081724 -56.6766,-10.7798447 -85.3355,-14.0939787 -16.4585,-1.892247 -33.0075,-2.902559 -49.5587,-3.539151 -18.9357,-0.699061 -37.89,-0.824309 -56.8369,-0.669927 -39.8447,0.619586 -79.8062,4.293913 -118.616,13.6167417 -26.0442,6.292244 -51.6173,15.39055 -74.7229,29.107223 -17.5937,10.542268 -33.6449,24.17966 -45.1839,41.263279 -9.4525,14.049542 -15.6752,30.360902 -17.377,47.241592 -14.9581,-23.05618 -34.2813,-43.15573 -56.2005,-59.681766 -20.3109,-15.391713 -42.6559,-28.009728 -66.0202,-38.136711 -17.737,-7.502924 -36.3718,-12.629444 -55.1181,-16.901298 -25.0942,-5.618305 -50.5752,-9.3831247 -76.1474,-11.9986477 -26.7147,-2.674881 -53.5753,-3.795507 -80.4208,-3.6097 -95.1208,0 -190.2417,0 -285.3625,0 0,101.2454427 0,202.4908827 0,303.7363227 -6.8011,-17.40024 -17.9186,-32.90819 -31.3306,-45.82875 -13.1618,-12.71199 -28.4554,-23.0974 -44.7163,-31.42711 16.6513,-9.26884 32.1762,-21.06211 43.9749,-36.14982 8.9432,-11.43941 15.5659,-24.78795 18.6027,-39.02266 4.1413,-18.90845 2.3448,-39.22188 -5.8429,-56.827902 -7.0637,-15.269247 -18.4124,-28.271941 -31.6155,-38.567972 -15.2359,-11.94621 -32.7091,-20.699842 -50.6841,-27.712756 -24.3701,-9.440406 -49.8817,-15.603234 -75.5683,-20.209087 -35.1387,-6.1896447 -70.7772,-9.2082237 -106.4184,-10.38654667 -12.1416,-0.377702 -24.2895,-0.51903 -36.4367,-0.492391 z M 0,5.5910713 C 0,92.958259 0,180.32544 0,267.69263 c 30.39974,0 60.799479,0 91.199219,0 0,-40.49284 0,-80.98568 0,-121.47851 41.579501,40.49276 83.158441,80.9861 124.738281,121.47851 22.42057,0 44.84115,0 67.26172,0 0,-88.03385 0,-176.067704 0,-264.1015587 -30.26628,0 -60.53255,0 -90.79883,0 0,39.6263017 0,79.2526047 0,118.8789087 C 151.62123,82.843532 110.84096,43.218232 70.0625,3.5910713 c -23.354167,0 -46.708333,0 -70.0625,0 0,0.666667 0,1.333334 0,2 z m 292.59961,0 c 0,87.3671877 0,174.7343687 0,262.1015587 30.43359,0 60.86719,0 91.30078,0 0,-88.03385 0,-176.067704 0,-264.1015587 -30.43359,0 -60.86719,0 -91.30078,0 0,0.666667 0,1.333334 0,2 z m 100.80078,0 c 0,87.3671877 0,174.7343687 0,262.1015587 30.43294,0 60.86589,0 91.29883,0 0,-40.49284 0,-80.98568 0,-121.47851 41.5795,40.49276 83.15844,80.9861 124.73828,121.47851 22.38737,0 44.77474,0 67.16211,0 0,-58.5 0,-117 0,-175.499996 29.0332,0 58.06641,0 87.09961,0 0,58.499996 0,116.999996 0,175.499996 30.90039,0 61.80078,0 92.70117,0 0,-58.5 0,-117 0,-175.499996 29.0332,0 58.06641,0 87.09961,0 0,58.499996 0,116.999996 0,175.499996 86.3333,0 172.6667,0 259,0 0,-29.53385 0,-59.06771 0,-88.60156 -56.0332,0 -112.0664,0 -168.0996,0 0,-1 0,-2 0,-3 43.3665,0 86.7331,0 130.0996,0 0,-27.96615 0,-55.93229 0,-83.898436 12.6667,0 25.3333,0 38,0 0,-29.533854 0,-59.067708 0,-88.6015627 -205.56706,0 -411.13411,0 -616.70117,0 0,39.6263017 0,79.2526047 0,118.8789087 C 545.02032,82.843534 504.24071,43.218223 463.46289,3.5910713 c -23.35417,0 -46.70833,0 -70.0625,0 0,0.666667 0,1.333334 0,2 z m 815.39841,0 c 0,87.3671877 0,174.7343687 0,262.1015587 30.4004,0 60.8008,0 91.2012,0 0,-40.5013 0,-81.0026 0,-121.5039 41.6126,40.50128 83.2252,81.00268 124.8379,121.5039 22.3874,0 44.7747,0 67.1621,0 0,-88.03385 0,-176.067704 0,-264.1015587 -30.2669,0 -60.5339,0 -90.8008,0 0,39.6263017 0,79.2526047 0,118.8789087 -40.7791,-39.626448 -81.5594,-79.251748 -122.3379,-118.8789087 -23.3541,0 -46.7083,0 -70.0625,0 0,0.666667 0,1.333334 0,2 z m 475.0293,86.4999997 c 4.8541,-0.04238 10.0369,1.254482 13.5119,4.831506 4.8702,4.833493 7.4959,11.399493 9.2674,17.910683 1.4543,5.44114 2.215,11.0522 2.4668,16.67382 0.027,0.74703 0.066,1.79909 0.074,2.66392 0.092,4.71304 -0.2228,9.43058 -0.9079,14.0939 -0.053,0.33932 -0.1851,1.19547 -0.2496,1.56335 -1.2894,7.62974 -3.6357,15.2726 -8.1781,21.6261 -2.7095,3.64871 -6.6562,6.6044 -11.2473,7.23401 -4.5389,0.71078 -9.1464,0.27189 -13.7172,0.39884 -28.4161,0.001 -56.8322,0.003 -85.2484,0.004 0,-29 0,-58 0,-86.999999 31.4095,0 62.819,0 94.2285,0 z m 324.5625,0.107422 c 0,28.998047 0,57.996087 0,86.994137 -44.5247,-0.008 -89.0495,-0.0169 -133.5742,-0.0254 -9e-4,-28.99544 0,-57.99088 0.016,-86.986325 44.5196,0.0059 89.0391,0.01172 133.5586,0.01758 z m 907.5137,23.494137 c 16.4837,0.0837 32.9946,0.93652 49.3671,3.16953 20.8496,2.82608 41.5102,7.76669 60.9493,15.9125 5.351,2.25741 10.7659,4.85189 15.9149,7.69334 12.1458,6.67965 23.5838,15.14598 33.0913,25.36203 1.4812,1.59075 2.788,3.0854 4.1972,4.78472 6.4242,7.7471 11.8411,16.49279 15.8904,25.61694 4.0488,9.07607 6.8921,18.83398 8.6117,28.67731 0.3626,2.0495 0.6862,4.1625 0.9361,6.13674 0.2015,1.51071 0.3702,3.01056 0.5261,4.59108 0.1748,1.7193 0.3058,3.33867 0.4165,5.01129 0.2702,3.94007 0.3875,8.10807 0.3658,12.14647 -0.042,4.97465 -0.2639,9.95037 -0.7527,14.90196 -0.1617,1.61553 -0.372,3.44464 -0.6031,5.13767 -0.206,1.49928 -0.4638,3.22641 -0.7211,4.72513 -0.3315,1.9621 -0.7096,3.92575 -1.112,5.79317 -1.2084,5.6357 -2.8397,11.39985 -4.8821,16.88089 -2.6849,7.31135 -6.2282,14.51409 -10.5017,21.1203 -5.3744,8.38798 -12.0372,16.12283 -19.3792,22.70026 -1.2023,1.07078 -2.3081,2.03892 -3.5735,3.08486 -5.4213,4.50646 -11.2321,8.53474 -17.2879,12.13975 -0.6464,0.36992 -1.4303,0.84502 -2.0959,1.21819 -7.3348,4.19892 -15.0857,7.8072 -22.908,10.84822 -13.0832,5.08871 -26.8639,8.79457 -40.7128,11.42613 -1.6103,0.30267 -3.3274,0.62513 -4.9323,0.89215 -4.1278,0.71148 -8.1408,1.30187 -12.3041,1.84578 -4.0322,0.51098 -8.1081,0.98041 -12.0891,1.33957 -5.4256,0.50295 -10.9923,0.90288 -16.4542,1.15455 -3.9213,0.19814 -7.7149,0.27701 -11.6331,0.35829 -15.1677,0.24717 -30.3379,0.061 -45.5068,0.12509 -7.6727,0.002 -15.3453,0.003 -23.018,0.005 0,-91.59961 0,-183.19922 0,-274.79883 20.0671,0 40.1341,0 60.2012,0 z m 394.832,109.32227 c 13.9263,13.99463 30.4599,25.09478 47.6141,34.73117 20.6,11.50954 42.2696,20.954 64.1107,29.82596 27.9237,11.28009 56.3126,21.36169 84.3871,32.17643 14.7633,5.77747 29.474,11.79614 43.5054,19.20859 7.0797,3.82648 14.1871,7.91481 19.8781,13.69203 1.8022,1.88297 3.3196,4.23101 3.4348,6.90897 0.3388,5.12136 -1.727,10.31523 -5.4302,13.86033 -4.5029,4.30975 -10.1025,7.28575 -15.8886,9.49691 -1.814,0.68866 -3.838,1.39335 -5.7696,1.9818 -4.6623,1.42576 -9.4254,2.50058 -14.2226,3.35999 -0.4054,0.0694 -1.1848,0.19489 -1.7333,0.28575 -5.8054,0.96478 -11.7221,1.57532 -17.5279,1.96834 -1.1943,0.0949 -2.2425,0.13926 -3.4786,0.20738 -10.2456,0.48715 -20.5944,0.3835 -30.899,0.0659 -10.3614,-0.34911 -20.8653,-0.9334 -31.2608,-1.72995 -12.3586,-0.95134 -24.8862,-2.23335 -37.1955,-3.79819 -20.5342,-2.60664 -40.9154,-5.96197 -61.1357,-10.50947 -11.7579,-2.67078 -23.5841,-5.79555 -35.0003,-9.93669 -3.8545,-1.54128 -7.9219,-2.74826 -12.1088,-2.72922 -4.0745,-0.082 -8.1499,0.0811 -12.225,0.005 -2.089,-0.003 -4.1781,-0.007 -6.2672,-0.0102 10.7744,-18.88528 18.6207,-39.4379 23.1278,-60.71022 5.5942,-25.90528 6.6395,-52.75201 3.4035,-79.04368 0.2272,0.23112 0.4544,0.46224 0.6816,0.69336 z M 2008.3906,329.7024 c 0,28.99088 -0.01,57.98177 -0.01,86.97265 -44.528,0 -89.056,0 -133.584,0 0.01,-28.99739 0.019,-57.99479 0.029,-86.99218 44.5215,0.007 89.0429,0.013 133.5644,0.0195 z" /><path
   class="st0"
   d="M 2027.1,267.09146 H 1856 c -24.8,0 -44.9,20.3 -44.9,45 v 122.1 c 0,24.6 20.1,44.9 44.9,44.9 h 171.1 c 24.8,0 44.9,-20.3 44.9,-44.9 v -122.1 c 0.1,-24.7 -20.1,-45 -44.9,-45 m 7.3,166.8 c 0,4.9 -4,8.8 -8.8,8.8 h -168 c -4.9,0 -8.8,-4 -8.8,-8.8 v -121.5 c 0,-4.8 3.9,-8.7 8.8,-8.7 h 168 c 4.8,0 8.8,3.9 8.8,8.7 z"
   id="path4"
   style="fill:#f2f2f2" /><polygon
   class="st8"
   points="33.5,3.6 192.4,158 192.4,3.6 223.8,3.6 231.2,3.6 231.2,215.7 200.5,215.7 39.2,58.6 39.2,215.7 0,215.7 0,3.6 "
   id="polygon6"
   transform="translate(26,25.991462)"
   style="fill:#ffffff" /><polygon
   class="st8"
   points="426.9,3.6 585.8,158 585.8,3.6 617.3,3.6 624.6,3.6 624.6,215.7 594,215.7 432.7,58.6 432.7,215.7 393.4,215.7 393.4,3.6 "
   id="polygon8"
   transform="translate(26,25.991462)"
   style="fill:#ffffff" /><polygon
   class="st8"
   points="1242.3,3.6 1401.2,158 1401.2,3.6 1432.7,3.6 1440,3.6 1440,215.7 1409.4,215.7 1248,58.6 1248,215.7 1208.8,215.7 1208.8,3.6 "
   id="polygon10"
   transform="translate(26,25.991462)"
   style="fill:#ffffff" /><polygon
   class="st8"
   points="292.6,3.6 324.6,3.6 331.9,3.6 331.9,215.7 292.6,215.7 "
   id="polygon12"
   transform="translate(26,25.991462)"
   style="fill:#ffffff" /><polygon
   class="st8"
   points="804.4,215.7 763.7,215.7 763.7,40.2 669.1,40.2 669.1,3.6 891.8,3.6 899,3.6 899,40.2 804.4,40.2 "
   id="polygon14"
   transform="translate(26,25.991462)"
   style="fill:#ffffff" /><polygon
   class="st8"
   points="982.4,87.7 1112.5,87.7 1112.5,124.1 982.4,124.1 982.4,179.1 1150.5,179.1 1150.5,215.7 943.5,215.7 943.5,3.6 1143.3,3.6 1150.5,3.6 1150.5,40.2 982.4,40.2 "
   id="polygon16"
   transform="translate(26,25.991462)"
   style="fill:#ffffff" /><path
   class="st8"
   d="m 1748.5,60.691462 c -15.3,-20.3 -38.1,-31 -65.5,-31 H 1525.8 V 241.69146 H 1683 c 27.4,0 50.2,-10.7 65.5,-31 14.4,-18.8 22,-44.8 22,-75.1 0,-30.2 -7.6,-56.199998 -22,-74.899998 M 1684.1,205.09146 H 1563.6 V 66.091462 h 1.1 119.4 c 37.7,0 51.1,37.399998 51.1,69.399998 0,32.2 -13.4,69.6 -51.1,69.6"
   id="path18"
   style="fill:#ffffff" /><path
   class="st8"
   d="M 2027.1,29.591462 H 1856 c -24.8,0 -44.9,20.3 -44.9,45 V 196.69146 c 0,24.6 20.1,44.9 44.9,44.9 h 171.1 c 24.8,0 44.9,-20.3 44.9,-44.9 V 74.591462 c 0.1,-24.7 -20.1,-45 -44.9,-45 m 7.3,166.799998 c 0,4.8 -4,8.8 -8.8,8.8 h -168 c -4.9,0 -8.8,-4 -8.8,-8.8 V 74.891462 c 0,-4.8 3.9,-8.7 8.8,-8.7 h 168 c 4.8,0 8.8,3.9 8.8,8.7 z"
   id="path20"
   style="fill:#ffffff" /><path
   class="st8"
   d="m 3302.2,390.09146 c 40.8,16.1 126.6,29 193.7,29 73.4,0 103.8,-25.1 103.8,-56.7 0,-28.4 -28.3,-45 -109.4,-74.7 -108.3,-40.1 -187.8,-71.7 -187.8,-142.8 0,-73.699998 95.6,-116.999998 241.5,-116.999998 78.2,0 105.1,5 154.9,14.1 l 0.3,69.899998 c -48.9,-9.3 -92.1,-25.199998 -159.3,-25.199998 -72,0 -102.8,22.799998 -102.8,46.399998 0,34.2 47.4,50.5 130.3,80.1 115.4,41.3 179.7,73.2 179.7,142.9 0,71.7 -80.4,123.4 -261.9,123.4 -74.5,0 -125.9,-4.9 -183.1,-14.1 v -75.3 z"
   id="path22"
   style="fill:#ffffff" /><path
   class="st8"
   d="m 3147.9,446.99146 c -42.7,19.3 -123.5,31.6 -194.1,31.6 H 2683.9 V 28.891462 h 269.9 c 70.6,0 151.4,12.5 194.2,31.8 103.9,46.899998 137.9,121.999998 137.9,193.199998 -0.1,71.1 -33.7,146.1 -138,193.1 M 2916.1,89.691462 h -86.4 V 416.49146 h 86.4 c 132.6,0 216.1,-56.6 216.1,-162.8 0,-106 -83.5,-163.999998 -216.1,-163.999998"
   id="path24"
   style="fill:#ffffff" /><path
   class="st1"
   d="m 2494.7,232.49146 c 0,0 125.9,-20.1 125.9,-98.5 0,-76.699998 -134.1,-107.999998 -276.7,-107.999998 -128.7,0 -213.4,15.7 -213.4,15.7 v 69.599998 c 58.4,-14.099998 114.3,-26.199998 190.5,-26.199998 81.7,0 144.1,24.399998 144.1,58.899998 0,41.5 -61.7,65.2 -194.5,65.2 h -61 v 62.8 h 56.8 c 139.8,0 219.4,21 219.4,72.4 0,45.8 -71.1,73.6 -159.7,73.6 -77.3,0 -148,-16.4 -205.3,-32.3 v 75 c 27.5,4.7 100.6,19.4 236.7,19.4 150.8,0 281.9,-48.4 281.9,-133.9 -0.1,-71.6 -90.9,-113.7 -144.7,-113.7"
   id="path26"
   style="fill:#ffffff" />
</svg>
