<?xml version="1.0" encoding="UTF-8" standalone="no"?>
<svg
   viewBox="0 0 28.184 33.222427"
   width="56.368"
   height="66.444855"
   version="1.1"
   id="svg13"
   sodipodi:docname="controller.svg"
   inkscape:version="1.1.2 (0a00cf5339, 2022-02-04)"
   xmlns:inkscape="http://www.inkscape.org/namespaces/inkscape"
   xmlns:sodipodi="http://sodipodi.sourceforge.net/DTD/sodipodi-0.dtd"
   xmlns:xlink="http://www.w3.org/1999/xlink"
   xmlns="http://www.w3.org/2000/svg"
   xmlns:svg="http://www.w3.org/2000/svg">
  <sodipodi:namedview
     id="namedview15"
     pagecolor="#ffffff"
     bordercolor="#111111"
     borderopacity="1"
     inkscape:showpageshadow="0"
     inkscape:pageopacity="0"
     inkscape:pagecheckerboard="1"
     inkscape:deskcolor="#d1d1d1"
     showgrid="false"
     inkscape:zoom="9.4465047"
     inkscape:cx="17.625567"
     inkscape:cy="30.0111"
     inkscape:window-width="1920"
     inkscape:window-height="996"
     inkscape:window-x="1920"
     inkscape:window-y="0"
     inkscape:window-maximized="1"
     inkscape:current-layer="svg13"
     inkscape:pageshadow="2"
     fit-margin-top="0"
     fit-margin-left="0"
     fit-margin-right="0"
     fit-margin-bottom="0" />
  <g
     fill="#a4c639"
     id="g867"
     style="fill:none;stroke:#000000;stroke-width:1.25;stroke-miterlimit:4;stroke-dasharray:none;stroke-opacity:1"
     transform="translate(-1.908,0.59642764)">
    <path
       d="m 10.45,0.234 1.44,2.57 C 9.215,4.14 7.365,6.7 7.365,9.692 h 17.27 c 0,-2.98 -1.966268,-5.6200167 -4.639268,-6.9580167 C 20.49503,2.1472744 21.401197,0.14110407 21.448994,0.028 l -1.67683,2.5990922 C 18.575855,2.089311 17.20762,1.8841528 15.896,1.88 14.58438,1.88415 13.288309,2.1642188 12.092,2.702 l -1.54,-2.57 c 0,0 -0.102,-0.102 -0.206,-0.102 0.01085,0.07809296 0.04703,0.15046489 0.103,0.206 z M 11.9,5.27 c 0.4,0 0.822,0.4 0.822,0.822 0,0.422 -0.4,0.822 -0.822,0.822 C 11.443227,6.92082 11.071181,6.5487726 11.078,6.092 11.0712,5.6352274 11.443227,5.2631814 11.9,5.27 Z m 8.224,0 c 0.4,0 0.822,0.4 0.822,0.822 0,0.422 -0.4,0.822 -0.822,0.822 C 19.667227,6.92082 19.295181,6.5487726 19.302,6.092 19.2952,5.6352274 19.667227,5.2631814 20.124,5.27 Z M 7.262,10.72 v 13.16 c 0,0.617 0.822,1.542 1.44,1.542 h 2.056 v 4.523 c 0,1.13 0.822,2.056 1.85,2.056 1.028,0 1.85,-0.925 1.85,-2.056 V 25.42 h 2.98 v 4.523 c 0,1.13 0.822,2.056 1.85,2.056 1.028,0 1.85,-0.925 1.85,-2.056 V 25.42 h 2.056 c 0.617,0 1.44,-0.822 1.44,-1.542 V 10.72 Z"
       id="path861"
       style="fill:none;stroke:#000000;stroke-width:1.25;stroke-linejoin:round;stroke-miterlimit:4;stroke-dasharray:none;stroke-opacity:1"
       sodipodi:nodetypes="ccccccccccccccsccccsccccsscsssccssscsscc" />
    <use
       xlink:href="#A"
       id="use863"
       style="fill:none;stroke:#000000;stroke-width:1.25;stroke-miterlimit:4;stroke-dasharray:none;stroke-opacity:1"
       x="0"
       y="0"
       width="100%"
       height="100%" />
    <use
       xlink:href="#A"
       x="23.233999"
       id="use865"
       style="fill:none;stroke:#000000;stroke-width:1.25;stroke-miterlimit:4;stroke-dasharray:none;stroke-opacity:1"
       y="0"
       width="100%"
       height="100%" />
  </g>
  <g
     fill="#a4c639"
     id="g8"
     style="fill:none;stroke:#ffffff;stroke-width:0.25;stroke-dasharray:none;stroke-opacity:1"
     transform="translate(-1.908,0.59642764)">
    <path
       d="m 10.45,0.234 1.44,2.57 C 9.215,4.14 7.365,6.7 7.365,9.692 h 17.27 c 0,-2.98 -1.966268,-5.6200167 -4.639268,-6.9580167 l 1.479802,-2.53409895 c 0,0 0.08572,-0.0851526 -0.02654,-0.17188435 -0.103,-0.103 -0.206,0.103 -0.206,0.103 l -1.47083,2.4960922 C 18.575853,2.089311 17.20762,1.8841528 15.896,1.88 14.58438,1.88415 13.288309,2.1642188 12.092,2.702 l -1.54,-2.57 c 0,0 -0.184997,-0.25403821 -0.183616,-0.18598246 C 10.30773,-0.10587343 10.346,0.03 10.346,0.03 Z M 11.9,5.27 c 0.4,0 0.822,0.4 0.822,0.822 0,0.422 -0.4,0.822 -0.822,0.822 C 11.443227,6.92082 11.071181,6.5487726 11.078,6.092 11.0712,5.6352274 11.443227,5.2631814 11.9,5.27 Z m 8.224,0 c 0.4,0 0.822,0.4 0.822,0.822 0,0.422 -0.4,0.822 -0.822,0.822 C 19.667227,6.92082 19.295181,6.5487726 19.302,6.092 19.2952,5.6352274 19.667227,5.2631814 20.124,5.27 Z M 7.262,10.72 v 13.16 c 0,0.617 0.822,1.542 1.44,1.542 h 2.056 v 4.523 c 0,1.13 0.822,2.056 1.85,2.056 1.028,0 1.85,-0.925 1.85,-2.056 V 25.42 h 2.98 v 4.523 c 0,1.13 0.822,2.056 1.85,2.056 1.028,0 1.85,-0.925 1.85,-2.056 V 25.42 h 2.056 c 0.617,0 1.44,-0.822 1.44,-1.542 V 10.72 Z"
       id="path2"
       style="fill:none;stroke:#ffffff;stroke-width:0.25;stroke-linejoin:round;stroke-dasharray:none;stroke-opacity:1"
       sodipodi:nodetypes="ccccccccccccccccsccccsccccsscsssccssscsscc" />
    <use
       xlink:href="#A"
       id="use4"
       style="fill:none;stroke:#ffffff;stroke-width:0.25;stroke-dasharray:none;stroke-opacity:1"
       x="0"
       y="0"
       width="100%"
       height="100%" />
    <use
       xlink:href="#A"
       x="23.233999"
       id="use6"
       style="fill:none;stroke:#ffffff;stroke-width:0.25;stroke-dasharray:none;stroke-opacity:1"
       y="0"
       width="100%"
       height="100%" />
  </g>
  <defs
     id="defs11">
    <path
       id="A"
       d="m 4.383,10.412 c 1.028,0 1.85,0.925 1.85,2.056 v 7.813 c 0,1.13 -0.822,2.056 -1.85,2.056 -1.028,0 -1.85,-0.925 -1.85,-2.056 v -7.813 c 0,-1.13 0.822,-2.056 1.85,-2.056 z" />
  </defs>
</svg>
