<?xml version="1.0" encoding="UTF-8" standalone="no"?>
<svg
   viewBox="0 0 804.24518 135.99901"
   version="1.1"
   id="svg16"
   sodipodi:docname="syste_color.svg"
   width="804.24518"
   height="135.99901"
   inkscape:version="1.1.2 (0a00cf5339, 2022-02-04)"
   xmlns:inkscape="http://www.inkscape.org/namespaces/inkscape"
   xmlns:sodipodi="http://sodipodi.sourceforge.net/DTD/sodipodi-0.dtd"
   xmlns="http://www.w3.org/2000/svg"
   xmlns:svg="http://www.w3.org/2000/svg"
   xmlns:rdf="http://www.w3.org/1999/02/22-rdf-syntax-ns#"
   xmlns:cc="http://creativecommons.org/ns#"
   xmlns:dc="http://purl.org/dc/elements/1.1/">
  <metadata
     id="metadata22">
    <rdf:RDF>
      <cc:Work
         rdf:about="">
        <dc:format>image/svg+xml</dc:format>
        <dc:type
           rdf:resource="http://purl.org/dc/dcmitype/StillImage" />
      </cc:Work>
    </rdf:RDF>
  </metadata>
  <defs
     id="defs20" />
  <sodipodi:namedview
     pagecolor="#ffffff"
     bordercolor="#666666"
     borderopacity="1"
     objecttolerance="10"
     gridtolerance="10"
     guidetolerance="10"
     inkscape:pageopacity="0"
     inkscape:pageshadow="2"
     inkscape:window-width="1920"
     inkscape:window-height="996"
     id="namedview18"
     showgrid="false"
     inkscape:zoom="0.7661231"
     inkscape:cx="364.82388"
     inkscape:cy="-88.105945"
     inkscape:window-x="1920"
     inkscape:window-y="0"
     inkscape:window-maximized="1"
     inkscape:current-layer="g4789"
     inkscape:showpageshadow="0"
     inkscape:pagecheckerboard="1"
     inkscape:deskcolor="#d1d1d1"
     fit-margin-top="0"
     fit-margin-left="0"
     fit-margin-right="0"
     fit-margin-bottom="0" />
  <g
     transform="matrix(0.09585593,0,0,0.09585593,-532.91915,-125.09938)"
     id="g4789">
    <path
       id="path15"
       style="fill:#000000;fill-opacity:1;stroke-width:9.48393"
       d="m 10215.484,1305.0781 c -35.642,0.091 -71.141,10.0456 -101.815,28.1523 -34.57,20.3061 -63.096,50.8238 -80.797,86.8157 -15.565,31.4706 -22.636,67.1114 -20.084,102.1384 2.42,35.1263 14.276,69.5352 33.93,98.743 20.628,30.8116 49.728,55.8982 83.291,71.6733 30.223,14.2802 64.027,20.8996 97.405,19.0288 33.767,-1.7671 67.107,-11.9994 95.872,-29.8147 30.068,-18.5371 55.079,-45.175 71.677,-76.3568 15.509,-28.9925 23.778,-61.7682 24.164,-94.6313 0.407,-30.4752 -6.008,-61.0562 -18.91,-88.6852 -14.898,-32.0949 -38.348,-60.1892 -67.361,-80.4596 -26.881,-18.8697 -58.438,-31.0147 -91.038,-35.0169 -8.732,-1.0904 -17.534,-1.6147 -26.334,-1.587 z m 1871.118,9.2578 c -26.245,0.1771 -52.28,9.3853 -72.944,25.5353 -15.484,12.009 -27.943,27.8483 -36.064,45.6745 -8.819,19.2498 -12.425,40.8581 -10.277,61.926 1.714,17.2639 7.198,34.1503 16.046,49.0793 29.12,50.534 58.294,101.0383 87.435,151.5605 17.344,30.0586 34.688,60.1171 52.032,90.1756 -85.927,55.4536 -164.495,122.3183 -232.838,198.4034 -67.543,75.1478 -125.152,159.2203 -170.776,249.3774 -31.149,61.5011 -56.78,125.7931 -76.511,191.8485 -16.804,56.2536 -29.361,113.7706 -37.62,171.8951 -3.157,22.238 -5.68,44.5644 -7.605,66.9425 -2.624,30.6469 -5.274,61.2915 -7.91,91.9374 h 2360.16 c -2.78,-32.8034 -5.46,-65.6145 -8.284,-98.4139 -8.214,-93.3084 -27.488,-185.6615 -57.591,-274.3707 -27.35,-80.5958 -63.638,-158.1618 -108.09,-230.745 -36.755,-60.0654 -79.083,-116.716 -126.24,-169.012 -56.757,-62.9577 -120.53,-119.5764 -189.721,-168.5384 -13.79,-9.7593 -27.791,-19.2195 -41.995,-28.3634 47.246,-81.4534 94.491,-162.9069 141.712,-244.375 12.971,-23.1506 17.84,-50.6939 13.711,-76.8984 -2.46,-15.7683 -8.088,-31.0267 -16.441,-44.6238 -8.381,-13.7244 -19.514,-25.7567 -32.562,-35.1582 -20.439,-14.8182 -45.614,-23.0575 -70.878,-22.9193 -27.999,0.027 -55.858,10.201 -77.296,28.2091 -11.978,9.9719 -21.908,22.3198 -29.399,35.9698 -48.415,83.6019 -96.831,167.2037 -145.246,250.8056 -85.957,-32.9142 -175.792,-55.625 -267.018,-67.8055 -85.7,-11.4601 -172.603,-13.7407 -258.806,-7.1436 -82.238,6.3345 -163.856,20.9024 -243.13,43.703 -31.16,8.9548 -61.96,19.1672 -92.288,30.6289 -49.493,-85.4648 -98.982,-170.9321 -148.496,-256.3847 -14.109,-23.5481 -36.449,-42.0323 -62.223,-51.4825 -13.686,-5.0251 -28.266,-7.57 -42.847,-7.4375 z m -1060.489,22.0371 v 410.0411 c -52.259,-24.1448 -109.451,-37.5905 -167.008,-39.066 -26.917,-0.6904 -53.893,0.9968 -80.521,4.9795 -49.487,7.4141 -97.737,23.0368 -142.144,46.1061 -41.731,21.6187 -80.066,49.6968 -113.528,82.6806 -27.344,26.9333 -51.459,57.1159 -71.892,89.5986 -27.018,42.9512 -47.569,89.9183 -61.152,138.7958 -0.219,1.0335 -0.111,-0.3143 -0.136,-0.7107 v -345.4972 h -346.166 c 0,115.228 0,230.467 0.01,345.7031 -13.149,-44.8004 -32.49,-87.7936 -57.4686,-127.2479 -26.3091,-41.6154 -58.7797,-79.3361 -96.088,-111.4674 -39.7546,-34.2861 -84.9377,-62.2532 -133.3305,-82.5979 -48.4799,-20.4072 -100.122,-33.1931 -152.4801,-38.1109 -59.8812,-5.6261 -120.7368,-1.36 -179.1326,13.1264 -41.8509,10.378 -82.3942,26.0491 -120.2882,46.6293 -38.1142,20.6708 -73.5384,46.3005 -105.0503,76.0855 -17.4371,16.4743 -33.6939,34.1984 -48.5912,53.0009 v -162.9805 c -25.1344,-4.6126 -50.2483,-9.3325 -75.3857,-13.927 -27.7973,-4.8857 -56.0598,-7.1062 -84.2785,-6.6784 -43.251,0.8594 -86.2019,11.2429 -125.327,29.6284 -0.7597,0.6225 -0.3735,-0.5673 -0.4658,-1.0003 v -20.1653 h -348.0606 c 0,283.4883 -0.01,566.9767 0,850.4649 0.2683,28.0699 9.6163,55.9722 26.336,78.5234 8.7439,11.8123 19.428,22.1821 31.5194,30.5382 16.2303,11.2628 34.9626,18.9104 54.461,22.1188 9.2774,1.5413 18.7027,2.0327 28.0977,1.8489 h 206.6738 c 0,-161.7805 -0.01,-323.561 0.027,-485.3414 0.2951,-26.8221 3.6175,-53.8191 12.156,-79.3323 5.8458,-17.422 14.2849,-34.1495 26.1039,-48.303 11.1462,-13.4035 25.62,-24.2324 42.0902,-30.137 11.5837,-4.1923 23.9858,-5.9419 36.2811,-5.5455 13.682,0.2192 27.3049,2.2032 40.5648,5.5468 13.233,3.262 26.2104,7.4489 39.281,11.2882 -11.4452,40.8731 -17.7401,83.1647 -18.9366,125.5868 -1.4711,52.6436 4.8327,105.5425 19.1495,156.2413 14.2129,50.4914 36.3246,98.7636 65.4164,142.4174 28.2257,42.418 62.9796,80.4851 102.6908,112.4096 40.2329,32.388 85.502,58.4942 133.6655,77.1429 46.1443,17.89 94.8804,29.0145 144.1905,33.1546 52.0048,4.3987 104.6655,1.3427 155.7531,-9.382 46.1694,-9.7154 91.0322,-25.7284 132.7848,-47.7193 47.5469,-25.0119 91.0671,-57.6829 128.2548,-96.4636 36.6799,-38.2035 67.2261,-82.2809 90.1224,-130.0371 11.802,-24.5872 21.584,-50.1415 29.258,-76.3116 0,70.536 -0.01,141.0723 0,211.6082 0.25,30.1646 11.011,60.1506 30.114,83.5101 18.74,23.1722 45.436,39.7659 74.513,46.304 11.7,2.6933 23.751,3.6131 35.737,3.3648 h 205.789 V 2362.623 c 14.391,51.8353 36.671,101.5133 66.207,146.4938 33.208,50.6686 75.707,95.3338 125.189,130.3458 36.817,26.0817 77.46,46.7862 120.284,61.0192 47.783,15.9049 98.212,23.7535 148.563,23.3524 45.272,-0.2809 90.469,-7.9611 133.358,-22.4349 27.312,-9.2299 53.703,-21.2017 78.589,-35.7606 13.662,14.4808 30.591,25.8507 49.169,33.0076 15.891,6.1607 32.956,9.2497 49.998,9.075 65.048,0.018 130.096,0.01 195.145,0.017 h 16.067 V 1315.5078 h -346.188 v 20.8652 z m -2889.7536,0 v 410.041 c -52.8674,-24.4301 -110.7875,-37.9036 -169.0231,-39.1157 -25.0115,-0.5332 -50.0655,0.9951 -74.8363,4.4888 -47.3683,6.7143 -93.6732,20.9141 -136.6188,42.0058 -46.298,22.6747 -88.6534,53.2491 -125.1038,89.679 -45.5895,45.5143 -81.9461,100.0822 -107.2362,159.2888 -8.5351,19.9248 -15.8174,40.3839 -21.8517,61.2021 -5.8492,-48.7823 -18.5199,-96.9432 -39.4367,-141.4824 -16.3527,-34.9194 -37.7572,-67.5447 -63.8886,-95.9341 -21.7324,-23.6668 -46.6559,-44.4088 -73.9384,-61.3881 -34.0902,-21.2575 -71.7381,-36.6656 -110.7797,-46.0438 -38.739,-9.3472 -78.7754,-12.9404 -118.5761,-11.6751 -6.5912,0.2125 -13.1729,0.6368 -19.7524,1.0627 -38.8502,2.7817 -57.4095,5.6288 -94.0168,18.371 -12.2566,3.9477 -24.3202,8.4971 -36.1153,13.6641 v -17.2383 H 6598.082 c -9e-4,283.4876 -0.01,566.9753 0,850.4629 0.2742,28.9929 10.244,57.8081 28.0065,80.7309 11.7167,15.2102 26.7614,27.8211 43.7432,36.7706 16.6371,8.8172 35.1613,14.019 53.9499,15.2137 5.4697,0.405 10.956,0.3549 16.436,0.316 h 204.9484 c 0.01,-162.3639 0.01,-324.7278 0.014,-487.0918 0,0.029 0.01,-1.094 0.01,-1.5121 0.2372,-28.8871 3.3752,-57.9451 11.7195,-85.6806 5.8702,-19.3009 14.4062,-38.0154 26.8946,-53.9655 10.5684,-13.5332 24.2545,-24.7736 40.0226,-31.6963 14.6084,-6.4978 30.6359,-9.4246 46.5754,-9.595 12.6122,-0.1766 25.4533,1.4562 37.1082,6.4894 8.3394,3.5649 15.837,9.0135 21.8961,15.7535 8.7884,9.7147 14.8107,21.6126 19.1253,33.9012 4.651,13.4463 7.3378,27.5133 8.7578,41.6504 1.1389,11.2002 1.3685,22.469 1.2725,33.7195 0,135.1484 -4e-4,270.297 0.027,405.4453 0.3684,28.8367 10.3329,57.4644 27.9965,80.2662 9.6312,12.4961 21.4998,23.2471 34.853,31.6456 16.8363,10.6061 36.047,17.4388 55.8222,19.709 7.3502,0.8834 14.7633,1.0863 22.1599,0.9612 h 206.268 v -325.0234 c 19.1787,60.2723 49.2591,117.1449 88.9342,166.4454 31.6887,39.4056 69.4844,73.9553 111.8947,101.5286 41.3322,26.9132 87.0133,47.1741 134.7841,59.4855 41.6349,10.7598 84.7852,15.6144 127.7698,14.4624 33.397,-0.9506 66.6811,-5.8251 98.9366,-14.5388 36.4342,-9.8254 71.5827,-24.4525 104.1532,-43.5179 13.9981,14.8288 31.4179,26.4015 50.5275,33.5246 15.5389,5.8368 32.1625,8.7382 48.7588,8.5604 56.6786,0.022 113.3573,0.01 170.036,0.017 h 41.0625 V 1315.5063 h -346.1875 v 20.8652 z m -2102.4961,370.8164 c -50.5194,0.2867 -101.0195,8.7846 -148.7332,25.4316 -49.8917,17.3842 -96.6781,43.5501 -137.7637,76.7517 -41.8835,33.7703 -77.9096,74.6893 -106.5942,120.1822 -32.4006,51.3229 -55.4837,108.4278 -68.4548,167.6962 -12.6262,57.6026 -15.8282,117.2292 -9.757,175.875 5.9865,57.8844 21.2389,114.8474 45.4604,167.7804 26.2802,57.5159 63.1938,110.2659 108.9156,154.0054 33.3155,31.9137 71.279,59.0097 112.4645,79.8242 36.8466,18.6397 76.2329,32.2592 116.7425,40.2782 37.8217,7.5012 76.5883,10.2738 115.0898,8.1346 52.4458,-3.0405 104.3068,-15.9415 152.0383,-37.8912 13.0244,-5.9738 25.7342,-12.6318 38.0723,-19.9179 14.6672,15.3553 33.0451,27.125 53.1224,34.0374 14.6269,5.0802 30.1352,7.5836 45.617,7.4017 44.2877,0.032 88.5755,0 132.8633,0.014 h 78.1375 v -983.4941 h -346.166 v 23.1172 c -43.4945,-20.093 -90.3985,-32.7873 -138.0973,-37.3163 -14.2746,-1.3638 -28.6185,-1.9853 -42.9574,-1.9103 z m 1958.9336,330.0527 c 22.8665,0.2789 45.8355,4.8768 66.5665,14.6771 19.7353,9.2808 37.2398,23.1687 50.9554,40.1088 14.8465,18.2264 25.4539,39.71 31.92,62.2626 7.5254,26.1155 9.7285,53.6279 7.5654,80.6763 -2.3755,29.007 -10.3594,57.7878 -25.0065,83.0448 -10.8832,18.7579 -25.4957,35.4611 -43.1957,48.0621 -15.6075,11.1743 -33.4862,19.1002 -52.1857,23.3905 -19.7376,4.5755 -40.267,5.4066 -60.3743,3.1348 -20.787,-2.4085 -41.2279,-8.7197 -59.3164,-19.3291 -15.7878,-9.1826 -29.7152,-21.475 -40.9901,-35.8298 -14.0345,-17.7695 -24.0624,-38.5162 -30.3018,-60.2358 -7.1872,-25.0035 -9.523,-51.2823 -7.8931,-77.2088 1.7546,-26.9159 8.2309,-53.6877 20.364,-77.8509 10.3304,-20.6043 24.8948,-39.2161 43.102,-53.4305 14.8456,-11.6388 32.0194,-20.2539 50.1776,-25.3424 15.7822,-4.4478 32.2337,-6.3421 48.6127,-6.1297 z m 2890.7261,0 c 23.015,0.2811 46.138,4.9436 66.971,14.8772 19.669,9.3287 37.099,23.2386 50.748,40.1812 14.708,18.1525 25.239,39.5036 31.671,61.9179 7.51,26.0601 9.729,53.5095 7.608,80.5042 -2.368,29.0959 -10.333,57.9817 -25.041,83.311 -11.348,19.553 -26.755,36.8793 -45.47,49.648 -15.561,10.6791 -33.246,18.1897 -51.681,22.1884 -19.843,4.3519 -40.433,4.9859 -60.57,2.4892 -20.242,-2.5935 -40.102,-8.9165 -57.709,-19.3153 -16.217,-9.5069 -30.454,-22.2948 -41.864,-37.2194 -14.969,-19.4847 -25.207,-42.3608 -31.051,-66.1647 -5.643,-22.9096 -7.388,-46.7105 -5.845,-70.2311 1.957,-29.0401 9.452,-57.9353 23.593,-83.4787 11.123,-20.084 26.444,-37.9798 45.235,-51.2598 15.767,-11.2064 33.828,-19.107 52.696,-23.3245 13.336,-3.0208 27.045,-4.2889 40.709,-4.1236 z m -4812.5132,0 c 22.7685,0.2402 45.6563,4.6572 66.3808,14.2461 19.3388,8.9125 36.5943,22.2428 50.2134,38.6024 15.8412,18.9023 26.9675,41.4978 33.5675,65.1974 7.0273,25.1456 9.1947,51.535 7.3583,77.5425 -2.1227,29.218 -9.8797,58.2621 -24.3883,83.8206 -11.2139,19.7443 -26.5245,37.2925 -45.2022,50.2914 -15.4127,10.7944 -32.9748,18.4447 -51.3142,22.6118 -19.6347,4.5033 -40.0428,5.31 -60.0353,3.0531 -20.1221,-2.3427 -39.9202,-8.3135 -57.5717,-18.3376 -16.4043,-9.2353 -30.8856,-21.7974 -42.5323,-36.5746 -14.0386,-17.7197 -24.1105,-38.4052 -30.3741,-60.0825 -7.4991,-25.8951 -9.808,-53.1643 -7.8402,-80.0102 2.1959,-29.1691 10.0122,-58.1565 24.5811,-83.6324 10.7967,-18.8968 25.3512,-35.7584 43.0421,-48.5068 14.8629,-10.766 31.8122,-18.5971 49.6001,-23.0881 14.5199,-3.7017 29.5429,-5.3005 44.515,-5.1331 z m 3484.5547,3.7891 c 23.5857,0.2738 47.2631,5.1849 68.5533,15.4757 20.9242,10.0585 39.364,25.1552 53.5108,43.5507 14.5493,18.8037 24.758,40.8022 30.5676,63.8167 6.2408,24.5958 7.682,50.3157 5.0167,75.52 -3.1085,28.8624 -12.2646,57.3127 -28.2341,81.6708 -11.6482,17.8261 -26.9306,33.3416 -44.9076,44.8041 -16.1835,10.371 -34.4125,17.4589 -53.2864,21.0329 -19.5715,3.7489 -39.7587,4.0528 -59.4827,1.3245 -20.9548,-2.9748 -41.4297,-9.8996 -59.5203,-20.9526 -17.1753,-10.4254 -32.1509,-24.3964 -43.9017,-40.683 -13.7205,-18.9154 -23.1712,-40.7721 -28.4055,-63.5069 -5.5237,-23.8929 -6.6276,-48.7411 -3.8345,-73.0825 3.1519,-26.886 11.6298,-53.3234 26.0248,-76.3335 11.5273,-18.4709 26.8546,-34.6358 45.0336,-46.6672 16.183,-10.7737 34.4949,-18.255 53.5146,-22.2165 12.9219,-2.725 26.1521,-3.9008 39.3514,-3.7532 z m 3716.8335,175.4551 c 3.896,0.1575 7.26,3.7712 7.092,7.6761 0.05,3.9523 -3.513,7.5413 -7.473,7.4533 -2.599,0.097 -5.106,-1.3222 -6.488,-3.5025 -1.98,-2.9269 -1.429,-7.2519 1.227,-9.5879 1.502,-1.4419 3.565,-2.1799 5.642,-2.039 z m -1003.216,0 c 3.821,-0.2625 7.447,2.8727 7.825,6.6678 0.358,2.8331 -1.033,5.7648 -3.459,7.2726 -2.971,2.0333 -7.401,1.4185 -9.72,-1.3368 -2.457,-2.5579 -2.6,-6.9114 -0.369,-9.6516 1.36,-1.7329 3.494,-2.9332 5.723,-2.952 z"
       sodipodi:nodetypes="cccccccccccccccccccccccscccccsccsccccccccccccccccccscccscccccccccccccccccccccccccccccccccccccccccccccccccccccccccccccccccccccccccccccccccccccccccccccccccccccccccccccccccccccccccccccccccccccccccccccccccccccccccccccccccccccccccccccccccccccccccccccccccccccccccccccccccccccccccccccc" />
    <path
       inkscape:export-ydpi="4.6700001"
       inkscape:export-xdpi="4.6700001"
       inkscape:export-filename="G:\Users\suitedoalex\sites\android-logo-8.png"
       style="fill:#ffffff;fill-opacity:1;stroke-width:9.48393"
       inkscape:connector-curvature="0"
       id="path22"
       d="m 6036.621,1790.6455 c 117.6008,0 215.2852,60.6972 261.7565,126.1363 v -110.0136 h 179.2462 v 816.5663 h -128.9814 c -28.4518,0 -51.2132,-22.7614 -51.2132,-51.2132 v -58.8004 c -45.5229,66.3875 -143.2073,127.0847 -260.8081,127.0847 -223.8207,0 -393.583,-191.5754 -393.583,-424.88 0,-233.3047 169.7623,-424.8801 393.583,-424.8801 m 32.2454,163.1236 c -145.1041,0 -243.737,114.7556 -243.737,261.7565 0,147.0009 97.6845,261.7564 243.737,261.7564 145.1041,0 243.737,-114.7555 243.737,-261.7564 0,-147.0009 -97.6845,-261.7565 -243.737,-261.7565" />
    <path
       inkscape:export-ydpi="4.6700001"
       inkscape:export-xdpi="4.6700001"
       inkscape:export-filename="G:\Users\suitedoalex\sites\android-logo-8.png"
       style="fill:#ffffff;fill-opacity:1;stroke-width:9.48393"
       inkscape:connector-curvature="0"
       id="path24"
       d="m 6681.5282,1806.7682 h 180.1947 v 110.962 c 49.3164,-81.5618 142.2589,-127.0847 248.4789,-127.0847 189.6786,0 312.0213,133.7234 312.0213,341.4215 v 491.2675 h -128.9814 c -28.4518,0 -51.2132,-22.7614 -51.2132,-51.2132 v -410.6541 c 0,-128.9815 -65.4392,-207.6981 -169.7624,-207.6981 -119.4975,0 -210.5432,92.9425 -210.5432,267.4468 v 402.1186 h -128.9815 c -28.4517,0 -51.2132,-22.7614 -51.2132,-51.2132 z" />
    <path
       inkscape:export-ydpi="4.6700001"
       inkscape:export-xdpi="4.6700001"
       inkscape:export-filename="G:\Users\suitedoalex\sites\android-logo-8.png"
       style="fill:#ffffff;fill-opacity:1;stroke-width:9.48393"
       inkscape:connector-curvature="0"
       id="path26"
       d="m 7958.0651,1790.6455 c 117.6007,0 215.2852,60.6972 261.7565,126.1363 v -517.8226 h 179.2462 v 1225.3237 h -128.9814 c -28.4518,0 -51.2132,-22.7614 -51.2132,-51.2132 v -58.8004 c -45.5229,65.4391 -144.1557,126.1363 -261.7565,126.1363 -223.8207,0 -393.583,-191.5754 -393.583,-424.88 0.9484,-233.3047 170.7107,-424.8801 394.5314,-424.8801 m 32.2454,163.1236 c -145.1041,0 -243.737,114.7556 -243.737,261.7565 0,147.0009 97.6845,261.7564 243.737,261.7564 145.1041,0 243.737,-114.7555 243.737,-261.7564 0,-147.0009 -98.6329,-261.7565 -243.737,-261.7565" />
    <path
       inkscape:export-ydpi="4.6700001"
       inkscape:export-xdpi="4.6700001"
       inkscape:export-filename="G:\Users\suitedoalex\sites\android-logo-8.png"
       style="fill:#ffffff;fill-opacity:1;stroke-width:9.48393"
       inkscape:connector-curvature="0"
       id="path28"
       d="m 8602.9723,1806.7682 h 179.2463 v 145.1041 c 31.297,-92.9425 122.3427,-153.6396 215.2852,-153.6396 22.7614,0 45.5228,1.8968 70.1811,6.6387 v 184.9366 c -31.297,-9.4839 -56.9036,-15.1742 -90.0974,-15.1742 -103.3748,0 -196.3173,86.3037 -196.3173,250.3757 v 398.325 h -128.9814 c -28.4518,0 -51.2133,-22.7614 -51.2133,-51.2132 v -765.3531 z" />
    <path
       inkscape:export-ydpi="4.6700001"
       inkscape:export-xdpi="4.6700001"
       inkscape:export-filename="G:\Users\suitedoalex\sites\android-logo-8.png"
       style="fill:#ffffff;fill-opacity:1;stroke-width:9.48393"
       inkscape:connector-curvature="0"
       id="path30"
       d="m 9553.262,2640.4056 c -241.8402,0 -427.7252,-187.7818 -427.7252,-424.88 0,-237.0983 185.885,-424.8801 427.7252,-424.8801 241.8402,0 427.7253,187.7818 427.7253,424.8801 0,237.0982 -185.8851,424.88 -427.7253,424.88 m 0,-166.9172 c 144.1558,0 244.6854,-112.8587 244.6854,-257.9628 0,-145.1042 -101.478,-257.9629 -244.6854,-257.9629 -145.1041,0 -246.5821,112.8587 -246.5821,257.9629 0,145.1041 101.478,257.9628 246.5821,257.9628" />
    <path
       inkscape:export-ydpi="4.6700001"
       inkscape:export-xdpi="4.6700001"
       inkscape:export-filename="G:\Users\suitedoalex\sites\android-logo-8.png"
       style="fill:#ffffff;fill-opacity:1;stroke-width:9.48393"
       inkscape:connector-curvature="0"
       id="path32"
       d="m 10216.188,1628.4703 c -65.439,0 -120.445,-54.0584 -120.445,-120.4459 0,-65.4391 55.955,-119.4975 120.445,-119.4975 67.336,0 119.498,54.0584 119.498,119.4975 0,67.3359 -52.162,120.4459 -119.498,120.4459 m -89.149,178.2979 h 179.247 v 816.5663 h -128.033 c -28.452,0 -51.214,-22.7614 -51.214,-51.2132 z" />
    <path
       inkscape:export-ydpi="4.6700001"
       inkscape:export-xdpi="4.6700001"
       inkscape:export-filename="G:\Users\suitedoalex\sites\android-logo-8.png"
       style="fill:#ffffff;fill-opacity:1;stroke-width:9.48393"
       inkscape:connector-curvature="0"
       id="path34"
       d="m 10847.818,1790.6455 c 117.601,0 215.285,60.6972 261.757,126.1363 v -517.8226 h 179.246 v 1225.3237 h -128.982 c -28.451,0 -51.213,-22.7614 -51.213,-51.2132 v -58.8004 c -45.523,65.4391 -144.156,126.1363 -261.756,126.1363 -223.821,0 -393.583,-191.5754 -393.583,-424.88 0.948,-233.3047 170.71,-424.8801 394.531,-424.8801 m 33.194,163.1236 c -145.104,0 -243.737,114.7556 -243.737,261.7565 0,147.0009 97.684,261.7564 243.737,261.7564 145.104,0 243.737,-114.7555 243.737,-261.7564 0,-147.0009 -98.633,-261.7565 -243.737,-261.7565" />
    <path
       inkscape:export-ydpi="4.6700001"
       inkscape:export-xdpi="4.6700001"
       inkscape:export-filename="G:\Users\suitedoalex\sites\android-logo-8.png"
       inkscape:connector-curvature="0"
       style="fill:#ffffff;fill-opacity:1;stroke-width:9.48393"
       id="path36"
       d="m 13271.91,2315.1068 c -50.264,0 -91.045,-40.7809 -91.045,-91.0457 0,-50.2648 40.781,-91.0457 91.045,-91.0457 50.265,0 91.046,40.7809 91.046,91.0457 0,50.2648 -40.781,91.0457 -91.046,91.0457 m -1002.451,0 c -50.265,0 -91.046,-40.7809 -91.046,-91.0457 0,-50.2648 40.781,-91.0457 91.046,-91.0457 50.265,0 91.046,40.7809 91.046,91.0457 0,50.2648 -40.781,91.0457 -91.046,91.0457 m 1034.697,-546.2743 182.091,-313.9181 c 10.433,-18.0194 3.794,-40.7809 -14.226,-51.2132 -18.019,-10.4323 -40.781,-3.7936 -51.213,14.2259 l -183.988,317.7116 c -140.362,-64.4907 -297.795,-100.5296 -465.661,-100.5296 -167.866,0 -326.247,36.0389 -466.609,99.5812 l -183.989,-317.7116 c -10.432,-18.0195 -33.193,-24.6582 -51.213,-14.2259 -18.019,10.4323 -24.658,33.1938 -14.226,51.2132 l 181.143,313.9181 c -311.073,169.7623 -524.461,484.6288 -555.758,857.3472 h 2178.459 c -30.349,-371.77 -242.789,-686.6365 -554.81,-856.3988"
       class="logo-android__andy-icon " />
  </g>
</svg>
