<?xml version="1.0" encoding="UTF-8" standalone="no"?>
<!-- Creator: CorelDRAW -->

<svg
   xmlns:dc="http://purl.org/dc/elements/1.1/"
   xmlns:cc="http://creativecommons.org/ns#"
   xmlns:rdf="http://www.w3.org/1999/02/22-rdf-syntax-ns#"
   xmlns:svg="http://www.w3.org/2000/svg"
   xmlns="http://www.w3.org/2000/svg"
   xmlns:sodipodi="http://sodipodi.sourceforge.net/DTD/sodipodi-0.dtd"
   xmlns:inkscape="http://www.inkscape.org/namespaces/inkscape"
   xml:space="preserve"
   width="6.1206913in"
   height="4.4686007in"
   style="fill-rule:evenodd;image-rendering:optimizeQuality;shape-rendering:geometricPrecision;text-rendering:geometricPrecision"
   viewBox="0 0 6120.8984 4468.2569"
   version="1.1"
   id="svg35"
   sodipodi:docname="controller.svg"
   inkscape:version="0.92.5 (2060ec1f9f, 2020-04-08)"><metadata
   id="metadata39"><rdf:RDF><cc:Work
       rdf:about=""><dc:format>image/svg+xml</dc:format><dc:type
         rdf:resource="http://purl.org/dc/dcmitype/StillImage" /><dc:title></dc:title></cc:Work></rdf:RDF></metadata><sodipodi:namedview
   pagecolor="#ffffff"
   bordercolor="#666666"
   borderopacity="1"
   objecttolerance="10"
   gridtolerance="10"
   guidetolerance="10"
   inkscape:pageopacity="0"
   inkscape:pageshadow="2"
   inkscape:window-width="1360"
   inkscape:window-height="683"
   id="namedview37"
   showgrid="false"
   fit-margin-top="0"
   fit-margin-left="0"
   fit-margin-right="0"
   fit-margin-bottom="0"
   inkscape:zoom="0.84096619"
   inkscape:cx="199.65489"
   inkscape:cy="256.10296"
   inkscape:window-x="0"
   inkscape:window-y="0"
   inkscape:window-maximized="1"
   inkscape:current-layer="Layer 1" />
 <defs
   id="defs4">
  <style
   type="text/css"
   id="style2">
   <![CDATA[
    .str0 {stroke:#E5E5E5;stroke-width:3}
    .fil0 {fill:none}
    .fil1 {fill:#E5E5E5}
   ]]>
  </style>
 </defs>
 <g
   id="Layer 1"
   transform="translate(-1073.5509,-4088.2706)">
  <g
   id="g30"
   style="stroke-width:18.75063324;stroke-miterlimit:4;stroke-dasharray:none">
   <path
   class="fil0 str0"
   d="m 2173,4935 c -397,0 -720,323 -720,720 0,397 323,720 720,720 397,0 720,-323 720,-720 0,-397 -323,-720 -720,-720 z m 0,1149 c -236,0 -429,-193 -429,-429 0,-237 193,-429 429,-429 237,0 429,192 429,429 0,236 -192,429 -429,429 z"
   id="path6"
   style="fill:none;stroke:#e5e5e5;stroke-width:18.75063324;stroke-miterlimit:4;stroke-dasharray:none"
   inkscape:connector-curvature="0" />
   <path
   class="fil0 str0"
   d="m 2173,5290 c -201,0 -365,163 -365,365 0,201 164,365 365,365 202,0 365,-164 365,-365 0,-202 -163,-365 -365,-365 z"
   id="path8"
   style="fill:none;stroke:#e5e5e5;stroke-width:18.75063324;stroke-miterlimit:4;stroke-dasharray:none"
   inkscape:connector-curvature="0" />
   <path
   class="fil0 str0"
   d="m 3188,6653 c 0,-15 -13,-28 -28,-28 h -217 c -15,0 -28,13 -28,28 v 291 h -291 c -15,0 -28,12 -28,28 v 216 c 0,16 13,29 28,29 h 291 v 290 c 0,16 13,28 28,28 h 217 c 15,0 28,-12 28,-28 v -290 h 290 c 16,0 29,-13 29,-29 v -216 c 0,-16 -13,-28 -29,-28 h -290 z"
   id="path10"
   style="fill:none;stroke:#e5e5e5;stroke-width:18.75063324;stroke-miterlimit:4;stroke-dasharray:none"
   inkscape:connector-curvature="0" />
   <circle
   class="fil0 str0"
   cx="4134"
   cy="5627"
   r="143"
   id="circle12"
   style="fill:none;stroke:#e5e5e5;stroke-width:18.75063324;stroke-miterlimit:4;stroke-dasharray:none" />
   <path
   class="fil0 str0"
   d="m 6598,5802 c -1,-3 -1,-6 -1,-9 0,-1 2,-120 -19,-197 -13,-49 -40,-99 -61,-136 -13,-23 -21,-39 -25,-51 -18,-66 -3,-132 32,-185 -71,-69 -157,-122 -253,-154 -3,6 -5,12 -9,18 -30,52 -78,90 -136,105 -3,1 -6,2 -9,2 h -10 c -27,0 -122,1 -187,18 -49,14 -99,41 -136,61 -23,13 -39,22 -52,26 -19,5 -39,7 -58,7 -41,0 -79,-11 -113,-30 -92,113 -148,257 -148,414 0,23 1,46 4,68 131,33 229,151 229,293 0,41 -9,81 -24,117 117,108 273,176 445,176 279,0 517,-177 611,-424 -38,-29 -67,-71 -80,-119 z m -521,324 c -230,0 -417,-187 -417,-417 0,-230 187,-417 417,-417 230,0 417,187 417,417 0,230 -187,417 -417,417 z"
   id="path14"
   style="fill:none;stroke:#e5e5e5;stroke-width:18.75063324;stroke-miterlimit:4;stroke-dasharray:none"
   inkscape:connector-curvature="0" />
   <path
   class="fil0 str0"
   d="m 6077,5356 c -195,0 -353,158 -353,353 0,194 158,353 353,353 195,0 353,-159 353,-353 0,-195 -159,-353 -353,-353 z"
   id="path16"
   style="fill:none;stroke:#e5e5e5;stroke-width:18.75063324;stroke-miterlimit:4;stroke-dasharray:none"
   inkscape:connector-curvature="0" />
   <path
   class="fil0 str0"
   d="m 5261,6624 -339,84 -187,290 84,360 313,184 350,-90 182,-323 -100,-331 z m -62,779 c -176,0 -320,-144 -320,-320 0,-177 144,-320 320,-320 177,0 320,143 320,320 0,176 -143,320 -320,320 z"
   id="path18"
   style="fill:none;stroke:#e5e5e5;stroke-width:18.75063324;stroke-miterlimit:4;stroke-dasharray:none"
   inkscape:connector-curvature="0" />
   <path
   class="fil0 str0"
   d="m 5199,6826 c -141,0 -256,115 -256,257 0,141 115,256 256,256 142,0 256,-115 256,-256 0,-142 -114,-257 -256,-257 z"
   id="path20"
   style="fill:none;stroke:#e5e5e5;stroke-width:18.75063324;stroke-miterlimit:4;stroke-dasharray:none"
   inkscape:connector-curvature="0" />
   <path
   class="fil0 str0"
   d="m 5428,5829 c -21,-8 -44,-13 -67,-14 -6,-1 -12,-2 -18,-2 -132,0 -239,107 -239,239 0,131 107,238 239,238 84,0 158,-44 201,-110 12,-19 21,-41 28,-63 6,-21 10,-43 10,-65 0,-102 -64,-188 -154,-223 z"
   id="path22"
   style="fill:none;stroke:#e5e5e5;stroke-width:18.75063324;stroke-miterlimit:4;stroke-dasharray:none"
   inkscape:connector-curvature="0" />
   <path
   class="fil0 str0"
   d="m 5554,5189 c 15,16 33,29 52,38 34,16 72,21 110,11 5,-2 23,-11 38,-20 39,-21 93,-51 149,-66 71,-19 166,-21 204,-21 h 6 c 40,-12 73,-38 94,-75 1,-1 1,-2 2,-3 10,-19 16,-40 19,-61 2,-19 0,-39 -5,-58 -19,-71 -83,-119 -159,-119 -13,0 -27,1 -40,5 l -9,2 c -177,41 -177,41 -370,99 l -13,4 c -87,24 -138,113 -115,199 7,25 21,47 37,65 z"
   id="path24"
   style="fill:none;stroke:#e5e5e5;stroke-width:18.75063324;stroke-miterlimit:4;stroke-dasharray:none"
   inkscape:connector-curvature="0" />
   <path
   class="fil0 str0"
   d="m 6970,5690 c -41,-176 -41,-176 -100,-371 l -3,-10 c -23,-86 -114,-139 -199,-116 -22,6 -42,17 -58,30 -17,13 -31,30 -42,49 -19,35 -25,78 -14,120 1,5 11,23 19,38 22,39 52,93 67,150 21,77 21,185 21,209 7,25 21,46 38,64 16,17 35,30 56,38 32,14 68,18 103,8 85,-23 135,-110 114,-199 z"
   id="path26"
   style="fill:none;stroke:#e5e5e5;stroke-width:18.75063324;stroke-miterlimit:4;stroke-dasharray:none"
   inkscape:connector-curvature="0" />
   <path
   class="fil0 str0"
   d="m 6648,4716 c 0,0 -96,-499 -806,-355 0,0 -409,-222 -1490,-259 l -255,-5 c -1217,17 -1671,264 -1671,264 -710,-144 -806,355 -806,355 -704,469 -499,1336 -499,1336 -73,878 -100,2495 487,2495 586,0 583,-1515 583,-1515 0,0 102,168 181,391 78,223 661,830 1293,162 631,-667 -241,-1335 -241,-1335 v -106 c 211,-58 710,-68 710,-68 0,0 499,10 710,68 v 106 c 0,0 -872,668 -241,1335 632,668 1215,61 1293,-162 78,-223 181,-391 181,-391 0,0 -3,1515 583,1515 587,0 560,-1617 487,-2495 0,0 205,-867 -499,-1336 z M 2173,6438 c -432,0 -784,-351 -784,-783 0,-433 352,-784 784,-784 432,0 784,351 784,784 0,432 -352,783 -784,783 z m 1305,442 c 51,0 92,41 92,92 v 216 c 0,51 -41,92 -92,92 h -226 v 227 c 0,51 -42,92 -92,92 h -217 c -51,0 -92,-41 -92,-92 v -227 h -227 c -50,0 -92,-41 -92,-92 v -216 c 0,-51 42,-92 92,-92 h 227 v -227 c 0,-51 41,-92 92,-92 h 217 c 50,0 92,41 92,92 v 227 z m 656,-1047 c -114,0 -206,-92 -206,-206 0,-114 92,-206 206,-206 114,0 206,92 206,206 0,114 -92,206 -206,206 z m 1592,1315 -195,347 c -4,8 -11,14 -20,16 l -376,96 c -3,0 -6,1 -8,1 -6,0 -11,-2 -16,-5 l -336,-196 c -7,-5 -13,-12 -15,-21 l -90,-387 c -2,-9 -1,-17 4,-25 l 201,-312 c 4,-6 11,-11 19,-13 l 364,-90 c 9,-2 17,-1 24,3 l 325,188 c 7,4 13,10 15,18 l 106,355 c 3,9 2,18 -2,25 z M 6875,5961 c -19,5 -39,8 -59,8 -29,0 -56,-6 -82,-16 -105,266 -364,455 -667,455 -183,0 -350,-69 -477,-183 -55,78 -145,129 -247,129 -167,0 -303,-136 -303,-302 0,-167 136,-303 303,-303 3,0 6,1 9,1 -1,-19 -3,-39 -3,-59 0,-172 61,-330 162,-453 -26,-27 -45,-60 -55,-97 -33,-121 39,-245 159,-277 l 11,-4 c 196,-58 196,-58 375,-100 l 8,-2 c 18,-5 37,-7 55,-7 105,0 194,67 221,166 8,31 9,62 5,92 105,35 199,92 276,168 25,-20 53,-36 85,-45 20,-5 39,-8 59,-8 102,0 191,69 218,167 l 3,10 c 59,196 59,196 101,375 l 2,9 c 29,123 -41,244 -159,276 z"
   id="path28"
   style="fill:none;stroke:#e5e5e5;stroke-width:18.75063324;stroke-miterlimit:4;stroke-dasharray:none"
   inkscape:connector-curvature="0" />
  </g>
  <path
   class="fil1"
   d="m 4726,4736 c -28,1 -55,0 -83,0 -2,0 -3,1 -5,1 0,10 0,20 0,30 2,0 4,0 6,0 22,0 43,0 64,0 6,0 12,0 19,0 4,0 7,-2 6,-7 0,-5 0,-11 0,-16 0,-5 -1,-8 -7,-8 z m -1,-37 c 8,0 8,-1 8,-9 0,-5 0,-10 0,-15 0,-5 -1,-7 -7,-7 -28,0 -55,0 -83,0 -1,0 -3,0 -5,0 0,10 0,20 0,31 9,0 17,0 25,0 21,0 41,0 62,0 z m -766,-65 c 59,0 118,0 177,0 0,12 0,25 0,37 -42,0 -85,0 -129,0 0,10 0,18 0,28 25,0 50,0 75,0 0,13 0,25 0,38 -25,0 -50,0 -75,0 0,10 0,20 0,30 43,0 86,0 130,0 0,14 0,27 0,41 -60,0 -119,0 -178,0 0,-58 0,-116 0,-174 z m -504,177 c -38,-1 -76,0 -113,0 -18,0 -39,-15 -45,-31 -1,-3 -2,-6 -2,-9 0,-33 0,-66 0,-99 0,-5 1,-10 3,-15 3,-12 14,-21 27,-21 57,0 113,0 170,0 1,0 1,0 2,1 0,12 0,24 0,36 -51,0 -102,0 -153,0 0,32 0,63 0,95 37,0 74,0 111,0 0,-9 0,-17 0,-26 -21,0 -42,0 -63,0 0,-14 0,-27 0,-40 36,0 72,0 108,0 0,2 0,4 0,6 0,21 0,41 0,62 0,6 -1,12 -5,17 -4,5 -9,9 -13,14 -8,7 -16,10 -27,10 z m 442,-89 c -1,1 -3,3 -4,4 -14,26 -30,52 -44,78 -2,3 -4,4 -8,4 -9,0 -18,0 -27,0 -4,0 -7,-1 -9,-5 -14,-25 -29,-50 -43,-75 -1,-2 -2,-4 -5,-6 0,29 0,57 0,86 -3,0 -5,0 -7,0 -21,0 -42,0 -63,0 -4,0 -6,-1 -9,-5 -21,-36 -42,-72 -63,-108 -1,-2 -2,-3 -4,-6 -15,26 -30,52 -46,78 18,0 34,0 51,0 0,14 0,27 0,41 -42,0 -83,0 -125,0 0,-2 1,-4 2,-5 32,-55 64,-109 97,-164 2,-4 4,-5 9,-5 9,0 18,0 28,0 5,0 7,1 10,5 23,40 47,80 70,120 1,2 3,4 5,7 0,-45 0,-88 0,-132 9,0 18,1 26,0 15,-2 22,3 29,16 18,33 37,65 57,97 1,2 2,4 3,6 10,-17 20,-33 30,-49 12,-22 25,-44 38,-66 2,-3 4,-4 8,-4 12,0 25,0 39,0 0,58 0,116 0,174 -15,0 -29,0 -44,0 0,-29 0,-57 0,-86 -1,0 -1,0 -1,0 z m 320,-47 c 0,31 0,61 0,92 33,0 65,0 98,0 0,-11 0,-22 0,-33 15,0 30,0 45,0 0,1 0,2 0,2 0,17 0,33 0,49 0,15 -8,23 -23,23 -44,0 -88,0 -132,0 -17,0 -31,-13 -33,-30 0,-3 0,-5 0,-8 0,-38 0,-76 0,-114 0,-16 5,-22 21,-22 47,0 93,0 140,0 18,0 27,10 27,28 0,11 0,23 0,34 0,2 0,4 0,6 -16,0 -32,0 -48,0 0,-9 0,-18 0,-27 -32,0 -63,0 -95,0 z m 355,-34 c 0,44 0,89 0,133 0,21 -10,32 -31,34 -4,0 -8,1 -12,1 -39,0 -78,0 -116,0 -6,0 -12,-2 -18,-3 -11,-4 -17,-13 -18,-24 0,-49 0,-98 0,-148 16,0 32,0 48,0 0,44 0,89 0,133 33,0 66,0 99,0 0,-44 0,-88 0,-133 16,0 32,0 48,0 0,2 0,5 0,7 z m 193,79 c 8,3 13,10 13,19 0,14 0,27 0,41 0,12 -5,20 -16,23 -10,3 -21,5 -31,6 -46,0 -91,0 -137,0 -1,0 -3,0 -4,-1 0,-58 0,-116 0,-174 2,0 4,0 6,0 52,0 104,0 156,0 18,0 26,8 26,26 0,13 0,27 0,41 0,9 -4,13 -13,15 -2,0 -3,0 -4,1 0,0 0,1 0,1 1,1 3,2 4,2 z m 30,88 c 0,-58 0,-116 0,-174 58,0 116,0 174,0 0,12 0,24 0,37 -43,0 -86,0 -129,0 0,10 0,18 0,28 25,0 49,0 74,0 0,12 0,25 0,38 -24,0 -49,0 -74,0 0,10 0,20 0,30 44,0 88,0 133,0 0,14 0,28 0,41 -59,0 -118,0 -178,0 z"
   id="path32"
   inkscape:connector-curvature="0"
   style="fill:#e5e5e5" />
 </g>
</svg>