<?xml version="1.0" encoding="UTF-8" standalone="no"?>
<!-- Generator: Adobe Illustrator 13.0.0, SVG Export Plug-In . SVG Version: 6.00 Build 14948)  -->

<svg
   version="1.2"
   id="Layer_3"
   x="0px"
   y="0px"
   width="464.04971"
   height="308.03818"
   viewBox="0 0 464.04969 308.03817"
   xml:space="preserve"
   sodipodi:docname="controller.svg"
   inkscape:version="1.1.2 (0a00cf5339, 2022-02-04)"
   xmlns:inkscape="http://www.inkscape.org/namespaces/inkscape"
   xmlns:sodipodi="http://sodipodi.sourceforge.net/DTD/sodipodi-0.dtd"
   xmlns="http://www.w3.org/2000/svg"
   xmlns:svg="http://www.w3.org/2000/svg"
   xmlns:rdf="http://www.w3.org/1999/02/22-rdf-syntax-ns#"
   xmlns:cc="http://creativecommons.org/ns#"
   xmlns:dc="http://purl.org/dc/elements/1.1/"
   xmlns:ns="&amp;ns_sfw;"><defs
   id="defs46">
	
	

	
	

	
	

	
	

	

	

	

	
</defs><sodipodi:namedview
   id="namedview44"
   pagecolor="#ffffff"
   bordercolor="#666666"
   borderopacity="1.0"
   inkscape:pageshadow="2"
   inkscape:pageopacity="0.0"
   inkscape:pagecheckerboard="0"
   showgrid="false"
   fit-margin-top="0"
   fit-margin-left="0"
   fit-margin-right="0"
   fit-margin-bottom="0"
   inkscape:zoom="1.0263804"
   inkscape:cx="157.34907"
   inkscape:cy="304.46802"
   inkscape:window-width="1920"
   inkscape:window-height="996"
   inkscape:window-x="0"
   inkscape:window-y="0"
   inkscape:window-maximized="1"
   inkscape:current-layer="Layer_3" />
<metadata
   id="metadata55">
	<rdf:RDF>
		<cc:Work
   rdf:about="">
			<dc:format>image/svg+xml</dc:format>
			<dc:type
   rdf:resource="http://purl.org/dc/dcmitype/StillImage" />
			
		</cc:Work>
	</rdf:RDF>
	<ns:sfw>
		<ns:slices />
		<ns:sliceSourceBounds
   height="299.999"
   width="456"
   y="394.54"
   x="736.998"
   bottomLeftOrigin="true" />
	</ns:sfw>
</metadata>
<path
   id="path894"
   style="fill:#000000"
   d="m 280.87058,0.0130829 c -33.22682,0.0044 -66.45424,-0.01678 -99.68069,0.01984 -8.64395,0.247338 -16.99837,4.965939 -21.70247,12.2184411 -3.21923,4.849173 -4.71157,10.742844 -4.46256,16.539449 0.005,33.038521 -0.0175,66.077723 0.0227,99.115827 0.2656,8.65914 5.0202,17.01405 12.30164,21.70098 4.29839,2.81131 9.41012,4.33446 14.54092,4.41328 -8.92042,0.008 -17.64234,4.81895 -22.45959,12.31888 -3.18336,4.83128 -4.65295,10.69141 -4.40566,16.45299 0.005,33.03527 -0.0173,66.07121 0.0226,99.10606 0.26906,8.95629 5.35303,17.587 13.04977,22.17387 4.68061,2.87026 10.23875,4.16868 15.70737,3.93846 33.03592,-0.005 66.0725,0.0173 99.10801,-0.0226 8.95633,-0.26953 17.58783,-5.3522 22.17387,-13.04978 2.87132,-4.68019 4.16852,-10.23861 3.93845,-15.70736 -0.005,-33.03527 0.0173,-66.07121 -0.0226,-99.10606 -0.26375,-8.72992 -5.09541,-17.15169 -12.47329,-21.81976 -4.26664,-2.74129 -9.31296,-4.22417 -14.37916,-4.30231 8.88966,-0.002 17.58337,-4.77738 22.4132,-12.23192 3.22167,-4.84723 4.71,-10.74232 4.46182,-16.538 -0.005,-33.038524 0.0174,-66.077725 -0.0226,-99.115827 -0.2672,-8.692197 -5.05778,-17.0795761 -12.38708,-21.7546571 -4.64177,-3.01339 -10.21945,-4.520757 -15.74465,-4.349803 z m -97.99023,9.980469 c 14.71742,0.04558 29.43603,0.0065 44.15391,0.01953 18.54982,0.01078 37.10036,-0.02155 55.64975,0.01614 6.38089,0.263121 12.42268,4.403627 14.9057,10.298858 1.2267,2.753147 1.56468,5.804809 1.43325,8.791641 -0.004,32.809269 0.0153,65.618965 -0.0211,98.427969 -0.18429,6.61698 -4.62504,12.8642 -10.79717,15.24651 -2.77855,1.13978 -5.82098,1.32695 -8.78917,1.21697 -32.6417,-0.004 -65.28381,0.0153 -97.92523,-0.0212 -6.6061,-0.18555 -12.84776,-4.60985 -15.23468,-10.76983 -1.15183,-2.78536 -1.33833,-5.83837 -1.23076,-8.81648 0.004,-32.642344 -0.0153,-65.285115 0.0212,-97.927187 0.18772,-6.61692 4.62583,-12.864253 10.79908,-15.246509 2.22959,-0.885703 4.64273,-1.2560471 7.03527,-1.2364641 z m 84.15039,4.3867181 c -18.30432,0.04076 -36.60972,0.0016 -54.91445,0.01843 -5.75179,0.02285 -11.50555,-0.02762 -17.25613,0.04014 -7.27503,0.392825 -14.08063,5.219865 -16.87537,11.946452 -1.38302,3.166386 -1.71826,6.671057 -1.57519,10.092242 0.009,23.450887 -0.0274,46.902469 0.0268,70.352926 0.25326,7.38607 5.10705,14.35717 11.92008,17.20553 3.14643,1.37804 6.62971,1.73474 10.03284,1.59042 23.52063,-0.0106 47.04216,0.0303 70.56221,-0.029 7.29396,-0.30024 14.16688,-5.06631 17.03529,-11.77527 1.44714,-3.21363 1.80142,-6.79159 1.65333,-10.27941 -0.008,-23.454011 0.025,-46.908711 -0.025,-70.362286 -0.26326,-7.311627 -5.01916,-14.219391 -11.73621,-17.110213 -2.7695,-1.235282 -5.82767,-1.735799 -8.84825,-1.690003 z m -70.1875,10 c 9.99268,0.04156 19.98678,0.0017 29.98008,0.01563 13.90655,0.01061 27.81398,-0.02119 41.71999,0.01586 4.53464,0.242664 8.62255,4.04571 9.01351,8.603041 0.19721,2.55669 0.0149,5.125487 0.0816,7.687353 -0.0104,21.982434 0.0348,43.965822 -0.0256,65.947666 -0.28272,4.58728 -4.23826,8.64485 -8.84961,8.92382 -2.5091,0.13924 -5.02467,-0.006 -7.53672,0.0528 -21.92802,-0.0101 -43.85699,0.0292 -65.78441,-0.0284 -4.6146,-0.24588 -8.71086,-4.23182 -8.98001,-8.86613 -0.14002,-2.53588 0.007,-5.07841 -0.0525,-7.617304 0.003,-19.479819 -0.0124,-38.959645 0.008,-58.439455 3.55135,12.625023 7.10336,25.249861 10.65429,37.875 4.64389,0 9.28777,0 13.93165,0 1.59361,-4.797137 3.18473,-9.595106 4.77734,-14.392578 1.23547,3.699252 2.47259,7.398236 3.70703,11.097656 -0.23909,1.228144 0.1904,2.682492 1.43726,3.177827 0.71908,0.269207 1.57078,0.04529 2.34243,0.119048 3.58971,0 7.17943,0 10.76914,0 4.66711,-15.93308 9.3309,-31.867135 13.99609,-47.800781 -5.88541,9e-5 -11.77083,-0.0018 -17.65625,-0.002 -1.29545,4.677115 -2.59116,9.354162 -3.88672,14.03125 -1.56515,-4.677068 -3.12987,-9.35428 -4.69531,-14.03125 -4.02604,0 -8.05208,0 -12.07812,0 -1.49713,4.770266 -2.99483,9.540353 -4.49219,14.310547 -1.34478,-4.770075 -2.68594,-9.541172 -4.0332,-14.310547 -4.72526,0 -9.45053,0 -14.17579,0 1.31721,-3.565965 4.83191,-6.229899 8.66262,-6.328549 0.38794,-0.02295 0.77715,-0.02555 1.16551,-0.04059 z m -70.9707,129.63282 c -33.227481,0.004 -66.455551,-0.0167 -99.68265,0.0198 -8.71397,0.2467 -17.1284232,5.04457 -21.8152082,12.38987 -3.140764,4.81823 -4.59436602,10.6413 -4.34787302,16.37003 0.0049,33.03527 -0.01764,66.07121 0.02061,99.10606 0.263904,8.72821 5.09380102,17.14758 12.46855522,21.8171 4.802708,3.10601 10.591556,4.54072 16.288585,4.29523 33.03657,-0.005 66.0738,0.0173 99.109961,-0.0226 8.72933,-0.26485 17.15077,-5.09537 21.81781,-12.47329 3.10622,-4.80035 4.5365,-10.58926 4.29449,-16.28385 -0.007,-33.03722 0.0154,-66.07512 -0.0226,-99.11192 -0.26761,-8.69268 -5.05895,-17.07987 -12.38705,-21.75664 -4.6418,-3.0126 -10.22007,-4.51954 -15.74464,-4.3498 z m 309.99804,0.002 c -33.22682,0.004 -66.45424,-0.0168 -99.68069,0.0198 -8.64574,0.24656 -17.00113,4.96726 -21.70442,12.22235 -3.21939,4.84769 -4.70651,10.74097 -4.45866,16.53554 0.005,33.03527 -0.0176,66.07121 0.0206,99.10606 0.2658,8.72791 5.09346,17.14782 12.46855,21.8171 4.80322,3.10519 10.59123,4.54128 16.28859,4.29523 33.03592,-0.005 66.0725,0.0173 99.10801,-0.0226 8.72932,-0.26413 17.15125,-5.0949 21.81781,-12.47329 3.10561,-4.80094 4.53721,-10.58892 4.29256,-16.28385 -0.005,-33.03527 0.0174,-66.07121 -0.0227,-99.10606 -0.26168,-8.66054 -5.01723,-17.01704 -12.29833,-21.70601 -4.66132,-3.04756 -10.27077,-4.57625 -15.83138,-4.40434 z m -155,-0.002 c -11.34961,-6.5e-4 -22.69922,-0.001 -34.04883,-0.002 11.59441,-0.003 23.18881,-0.005 34.78321,-0.008 -0.24479,0.003 -0.48959,0.007 -0.73438,0.01 z m -97.66601,0 c 10.57617,6.5e-4 21.15234,0.001 31.72851,0.002 -10.77994,0.002 -21.55989,0.004 -32.33984,0.006 0.20378,-0.002 0.40755,-0.006 0.61133,-0.008 z m -155.324222,9.98047 c 14.717421,0.0456 29.436031,0.006 44.153911,0.0195 18.55047,0.0108 37.101661,-0.0216 55.651701,0.0161 6.3508,0.26224 12.36388,4.36482 14.87215,10.21476 1.25261,2.77541 1.60299,5.85841 1.46872,8.87574 -0.005,32.80861 0.0131,65.61766 -0.0231,98.42601 -0.18878,6.53109 -4.50725,12.70858 -10.56421,15.15342 -2.74617,1.1662 -5.7686,1.43335 -8.72245,1.31201 -32.742211,-0.004 -65.484851,0.0154 -98.226794,-0.0212 -6.540321,-0.18764 -12.721015,-4.51931 -15.162134,-10.58613 -1.169901,-2.7737 -1.4226292,-5.82306 -1.301342,-8.80209 0.0035,-32.70836 -0.0153,-65.41714 0.02111,-98.12523 0.187201,-6.58697 4.584506,-12.80909 10.716577,-15.21389 2.252997,-0.90613 4.693843,-1.29025 7.115857,-1.26908 z m 155.003902,0 c 14.68279,0.0456 29.36676,0.006 44.05001,0.0195 18.58316,0.0108 37.16702,-0.0216 55.74975,0.0161 6.18601,0.26055 12.06133,4.14987 14.67122,9.77268 1.39919,2.88568 1.82072,6.14025 1.66968,9.31743 -0.004,32.80874 0.0155,65.61792 -0.0213,98.4264 -0.18734,6.63289 -4.64506,12.89591 -10.84198,15.26405 -2.67494,1.07633 -5.59024,1.31706 -8.44656,1.20138 -32.74155,-0.004 -65.48355,0.0154 -98.22483,-0.0212 -6.57291,-0.18784 -12.78325,-4.56418 -15.1998,-10.67682 -1.14417,-2.74958 -1.38319,-5.76459 -1.26564,-8.71179 0.004,-32.70823 -0.0152,-65.41688 0.0211,-98.12484 0.18879,-6.62628 4.63916,-12.88385 10.82765,-15.25537 2.22238,-0.87908 4.62728,-1.24674 7.01067,-1.2276 z m 155.00196,0 c 14.68213,0.0456 29.36545,0.006 44.04805,0.0195 18.58316,0.0108 37.16702,-0.0216 55.74975,0.0161 6.19802,0.25839 12.07481,4.16561 14.68507,9.79898 1.36729,2.85154 1.80139,6.05555 1.65387,9.19152 -0.004,32.84195 0.0153,65.68433 -0.0211,98.52601 -0.18448,6.61707 -4.62472,12.86442 -10.79717,15.24651 -2.74724,1.12327 -5.75337,1.33275 -8.68917,1.21892 -32.71031,-0.005 -65.42107,0.0177 -98.13108,-0.023 -6.53401,-0.23318 -12.68486,-4.59393 -15.09152,-10.67053 -1.14171,-2.75129 -1.38504,-5.76752 -1.26611,-8.71592 0.004,-32.70836 -0.0152,-65.41714 0.0211,-98.12523 0.1848,-6.64474 4.66246,-12.91038 10.86978,-15.27699 2.21331,-0.86131 4.5991,-1.22761 6.96855,-1.20598 z m -225.85547,4.38281 c -18.413571,0.0409 -36.828211,0.001 -55.242191,0.0187 -5.64255,0.0237 -11.28705,-0.0297 -16.92842,0.0413 -7.22767,0.38789 -13.992275,5.15764 -16.818302,11.8176 -1.432897,3.1977 -1.77373,6.756 -1.630273,10.22318 0.01062,23.48677 -0.03029,46.97445 0.02897,70.46064 0.299976,7.25752 5.017005,14.10137 11.677545,16.99184 3.20567,1.4614 6.78261,1.84651 10.27126,1.69678 23.48422,-0.009 46.96914,0.0274 70.452921,-0.0268 7.42164,-0.2548 14.42321,-5.15394 17.24806,-12.01623 1.36278,-3.15292 1.69198,-6.63531 1.54985,-10.03669 -0.008,-23.45596 0.025,-46.91262 -0.025,-70.36814 -0.26276,-7.31374 -5.02342,-14.22062 -11.74012,-17.11412 -2.7691,-1.23246 -5.82515,-1.73297 -8.84434,-1.68805 z m 154.43164,0.0176 c -23.76881,0.008 -47.53819,-0.0258 -71.30664,0.0254 -7.36699,0.28164 -14.3102,5.1237 -17.15377,11.92145 -1.3781,3.14715 -1.73776,6.6307 -1.59232,10.0348 0.0112,23.48735 -0.0258,46.97536 0.0264,70.4623 0.26157,7.29358 4.9903,14.18835 11.68198,17.09174 3.20567,1.4614 6.78261,1.84651 10.27126,1.69678 23.48487,-0.009 46.97044,0.0274 70.45487,-0.0268 7.42192,-0.2545 14.42185,-5.15532 17.24807,-12.01623 1.36277,-3.15292 1.69197,-6.63531 1.54985,-10.03669 -0.0106,-23.48729 0.0303,-46.97549 -0.029,-70.4622 -0.30176,-7.32857 -5.11214,-14.23089 -11.86904,-17.07685 -2.91105,-1.26109 -6.12303,-1.74125 -9.28173,-1.61368 z m 155.56836,-0.0156 c -18.337,0.0408 -36.67508,0.002 -55.0125,0.0185 -5.71845,0.0228 -11.43888,-0.0277 -17.15613,0.0401 -7.23989,0.39037 -14.01824,5.16998 -16.83634,11.84852 -1.41595,3.19132 -1.76149,6.7341 -1.61617,10.19018 0.0106,23.48729 -0.0303,46.97549 0.029,70.4622 0.30192,7.32763 5.11146,14.22983 11.86884,17.07339 3.18923,1.41525 6.7299,1.76051 10.18388,1.61519 23.45466,-0.0115 46.91001,0.0263 70.36423,-0.0268 7.34726,-0.2621 14.28674,-5.06709 17.15241,-11.83318 1.45273,-3.22727 1.77232,-6.82237 1.63028,-10.32123 -0.008,-23.42211 0.025,-46.84491 -0.025,-70.26658 -0.26161,-7.35755 -5.07933,-14.30075 -11.85594,-17.16545 -2.73849,-1.19336 -5.75021,-1.67973 -8.72656,-1.63477 z M 41.847149,178.38032 c 9.99138,0.0416 19.98417,0.002 29.97617,0.0156 13.92709,0.0118 27.85513,-0.0235 41.781641,0.0176 3.63696,0.24858 7.04621,2.71634 8.34765,6.13281 0.39563,0.89844 0.61892,2.13489 0.66797,3.21484 0.0434,4.5445 0.006,9.09144 0.02,13.63711 -0.0111,19.75885 0.0305,39.51879 -0.0318,59.27696 -0.29034,4.56625 -4.22711,8.60379 -8.81633,8.8935 -2.45148,0.15285 -4.91108,-0.008 -7.36609,0.0578 -22.020461,-0.0108 -44.041821,0.0305 -66.061721,-0.0294 -4.57132,-0.29588 -8.61533,-4.23334 -8.89917,-8.83161 -0.14988,-2.51381 0.007,-5.03518 -0.0561,-7.55237 -6e-4,-6.88763 -0.001,-13.77526 -0.002,-20.66289 5.4974,0 10.99479,0 16.49219,0 1.08092,-3.04202 2.16007,-6.08467 3.24023,-9.12696 1.8405,0 3.68099,0 5.52149,0 1.07943,3.04232 2.15877,6.08467 3.23828,9.12696 5.9349,0 11.86979,0 17.80469,0 -5.67517,-15.93173 -11.34522,-31.86528 -17.00977,-47.80079 -4.5306,0 -9.0612,1e-5 -13.59179,0 -5.23009,14.70894 -10.46381,29.41658 -15.69532,44.125 0.009,-13.83843 -0.0194,-27.67776 0.0312,-41.51562 0.29273,-4.56786 4.22165,-8.60992 8.81404,-8.90578 0.52945,-0.0572 1.06262,-0.0527 1.59417,-0.0727 z m 155.078121,0 c 9.19869,0.0426 18.39875,9.7e-4 27.59805,0.0156 14.69441,0.0118 29.38977,-0.0235 44.08359,0.0176 4.44845,0.27325 8.45129,3.95114 8.9336,8.41211 0.23114,2.58351 0.0319,5.18242 0.10166,7.77265 -0.0108,22.02229 0.0305,44.04548 -0.0294,66.06719 -0.29094,4.53414 -4.16402,8.55678 -8.71864,8.89472 -2.45075,0.17019 -4.91093,-0.003 -7.36573,0.0663 -22.05315,-0.0108 -44.10719,0.0305 -66.15977,-0.0294 -4.54811,-0.2919 -8.57965,-4.1894 -8.89538,-8.76087 -0.15938,-2.46969 0.003,-4.94805 -0.0618,-7.42155 0.01,-21.99536 -0.0282,-43.99158 0.0276,-65.9864 0.24726,-4.61378 4.23048,-8.70544 8.86314,-8.97953 0.53928,-0.0557 1.08165,-0.0532 1.62303,-0.0685 z m 154.74024,0.002 c 12.15193,0.0357 24.30528,0.002 36.45781,0.0137 11.83979,0.0142 23.68084,-0.0284 35.51984,0.0212 4.49643,0.29196 8.52728,4.0715 8.91561,8.59569 0.1972,2.55669 0.0149,5.12549 0.0816,7.68736 -0.009,21.9645 0.0325,43.92986 -0.0238,65.89382 -0.25084,4.63376 -4.26775,8.73806 -8.92356,8.98393 -2.4864,0.13115 -4.97921,-0.0107 -7.46847,0.0485 -21.95249,-0.0107 -43.90588,0.0304 -65.85781,-0.0294 -4.54507,-0.2947 -8.57273,-4.1855 -8.89508,-8.75339 -0.159,-2.50431 5.2e-4,-5.01707 -0.0621,-7.52512 0.0125,-21.98778 -0.034,-43.97646 0.0294,-65.96368 0.29219,-4.54926 4.18922,-8.58049 8.76275,-8.89609 0.48612,-0.0544 0.97549,-0.0586 1.46382,-0.0766 z m -146.89454,5.6289 c -5.474,0.11365 -11.14792,2.30987 -14.52167,6.76646 -3.77425,4.87854 -4.28383,12.17244 -0.8709,17.37417 -0.68393,6.63915 -1.36741,13.27836 -2.04688,19.91797 2.51546,1.81729 5.28838,3.33221 8.32672,4.05248 3.87441,1.0652 7.94666,1.2794 11.93721,1.17906 1.18113,-0.22201 2.42103,-0.21882 3.60653,-0.49496 4.71979,-0.85508 9.37125,-3.45267 11.70891,-7.77135 1.25222,-2.27545 1.72473,-4.94227 1.8547,-7.4331 0.2418,-3.98883 -1.26197,-8.01095 -4.02367,-10.89309 0.19202,0.18173 0.86667,0.30584 0.6568,-0.63427 0.5551,-5.60387 1.11147,-11.20761 1.66718,-16.81141 -3.12754,-2.08185 -6.57974,-3.74322 -10.29126,-4.44621 -2.62476,-0.573 -5.31441,-0.8949 -8.00367,-0.80575 z m 159.25782,0.74024 c -5.94857,0 -11.89714,0 -17.84571,0 0,15.93294 0,31.86588 0,47.79883 6.48946,-0.008 12.98074,0.0116 19.46888,-0.002 6.69619,0.003 13.53068,-2.69724 17.88269,-7.89046 4.43868,-5.25653 6.00041,-12.46749 5.25075,-19.20426 -0.65042,-7.199 -4.7626,-14.17329 -11.1837,-17.66378 -4.10231,-2.32082 -8.89755,-3.18464 -13.57291,-3.03821 z m 1.54296,16.58203 c 1.85703,0.009 4.01545,0.60138 4.84459,2.44212 1.21845,2.39146 1.11115,5.2153 0.71516,7.79794 -0.35497,1.8386 -1.52543,3.75719 -3.4992,4.11931 -1.48157,0.37168 -3.02418,0.27562 -4.53711,0.26172 0,-4.87304 0,-9.74609 0,-14.61914 0.82552,-0.001 1.65105,0.002 2.47656,-0.002 z m -168.68359,12.39844 c 2.60261,1.15942 5.33557,1.97591 8,2.97461 -3.11355,-0.0415 -6.43277,-0.91139 -8.61719,-3.25586 0.20573,0.0937 0.41146,0.1875 0.61719,0.28125 z" /><path
   id="path3"
   d="m 182.17918,4.0130829 c -12.787,0 -23.1523,10.3643441 -23.1543,23.1523441 v 99.693363 c 0.002,12.788 10.3663,23.1523 23.1543,23.1543 h 99.6914 c 12.788,-0.002 23.1523,-10.3663 23.1543,-23.1543 V 27.165427 c -0.002,-12.788 -10.3663,-23.1523441 -23.1543,-23.1523441 z m 0,2 h 99.6914 c 11.683,0.021 21.13135,9.4703441 21.15235,21.1523441 v 99.693363 c -0.02,11.684 -9.46835,21.13134 -21.15235,21.15234 h -99.6914 c -11.684,-0.021 -21.1333,-9.46834 -21.1543,-21.15234 V 27.165427 c 0.021,-11.682 9.4703,-21.1323441 21.1543,-21.1523441 z m 13.95507,12.3847651 c -8.68499,0 -15.7226,7.03961 -15.7246,15.72461 v 71.781252 c 0.002,8.685 7.04161,15.72266 15.7246,15.72266 h 71.78126 c 8.68399,0 15.7246,-7.03766 15.7246,-15.72266 V 34.122458 c 0,-8.685 -7.03861,-15.72461 -15.7246,-15.72461 z m 0,1.998047 h 71.78126 c 7.57799,0.015 13.70965,6.146563 13.72265,13.726563 l 0.004,71.781252 c -0.015,7.58 -6.14657,13.70866 -13.72656,13.72266 h -71.78126 c -7.579,-0.014 -13.7096,-6.14266 -13.7246,-13.72266 V 34.122458 c 0.015,-7.578 6.14661,-13.711563 13.7246,-13.726563 z m -7.22851,14.353516 11.19727,39.800781 h 8.01367 l 7.65234,-23.052734 7.69922,23.052734 v 0.002 h 7.57227 l 11.65234,-39.800781 h -1.33203 v -0.002 h -7.94141 l -6.5664,23.714844 -7.9375,-23.714844 h -6.26172 l -7.63672,24.332031 -6.85352,-24.332031 z m 2.63672,2 h 5.10547 l 8.26562,29.349609 9.21094,-29.349609 h 3.35156 l 9.5586,28.558594 7.90429,-28.558594 h 5.08594 l -10.48242,35.800781 h -4.63281 l -9.14844,-27.382812 -9.08789,27.382812 h -5.05469 z M 27.179176,158.01309 c -12.79,0 -23.1523442,10.36729 -23.1523442,23.15429 l -0.002,99.68946 c 0.002,12.789 10.3642972,23.15429 23.1542972,23.15429 h 99.693361 c 12.787,0 23.15229,-10.36529 23.15429,-23.15429 v -99.68946 c -0.002,-12.787 -10.36629,-23.15429 -23.15429,-23.15429 z m 155.000004,0 c -12.787,0 -23.1543,10.36729 -23.1543,23.15429 v 99.68946 c 0,12.789 10.3673,23.15429 23.1543,23.15429 h 99.6914 c 12.787,0 23.1543,-10.36529 23.1543,-23.15429 v -99.68946 c 0,-12.787 -10.3673,-23.15429 -23.1543,-23.15429 z m 155,0.002 c -12.789,0 -23.15235,10.36434 -23.15235,23.15234 l -0.002,99.68946 c 0.002,12.789 10.3653,23.15429 23.1543,23.15429 h 99.6914 c 12.788,0 23.15235,-10.36529 23.15235,-23.15429 v -99.68946 c 0,-12.788 -10.36435,-23.15234 -23.15235,-23.15234 z m -310.000004,1.998 h 99.693364 c 11.681,0.021 21.13129,9.46934 21.15429,21.15234 l -0.002,99.69141 c -0.021,11.684 -9.47134,21.13329 -21.15234,21.15429 H 27.179176 c -11.683,-0.021 -21.1313442,-9.46929 -21.1523442,-21.15429 v -99.69141 c 0.021,-11.682 9.4693442,-21.13134 21.1523442,-21.15234 z m 155.000004,0 h 99.6914 c 11.682,0.021 21.1333,9.46934 21.1543,21.15234 v 99.69141 c -0.02,11.684 -9.4713,21.13329 -21.1543,21.15429 h -99.6914 c -11.683,-0.021 -21.1333,-9.46929 -21.1543,-21.15429 v -99.69141 c 0.021,-11.682 9.4713,-21.13134 21.1543,-21.15234 z m 155,0 h 99.6914 c 11.682,0.02 21.13135,9.46934 21.15235,21.15234 v 99.69141 c -0.02,11.683 -9.46935,21.13329 -21.15235,21.15429 h -99.6914 c -11.683,-0.02 -21.13135,-9.47029 -21.15235,-21.15429 v -99.69141 c 0.02,-11.682 9.46835,-21.13234 21.15235,-21.15234 z M 41.134249,172.39395 c -8.684,0.002 -15.722651,7.04156 -15.722651,15.72656 v 71.78125 c 0,8.685 7.038661,15.72261 15.722651,15.72461 h 71.781261 c 8.685,-0.002 15.7246,-7.03961 15.7246,-15.72461 v -71.78125 c 0,-8.685 -7.0396,-15.72456 -15.7246,-15.72656 z m 155.000001,0 c -8.684,0.002 -15.7226,7.04156 -15.7246,15.72656 l 0.002,71.78125 c 0,8.685 7.03865,15.72261 15.72265,15.72461 h 71.78321 c 8.683,-0.002 15.72461,-7.03961 15.72461,-15.72461 v -71.78125 c 0,-8.685 -7.03961,-15.72456 -15.72461,-15.72656 z m 155.00196,0.002 c -8.687,0 -15.72656,7.03761 -15.72656,15.72461 v 71.78125 c 0,8.685 7.04156,15.72261 15.72656,15.72461 l 71.7793,-0.002 c 8.684,0 15.72265,-7.03765 15.72265,-15.72265 v -71.78125 c 0,-8.687 -7.03565,-15.72461 -15.72265,-15.72461 z m -310.001961,2 h 71.781261 c 7.57899,0.015 13.7116,6.14461 13.7246,13.72461 v 71.78125 c -0.013,7.58 -6.1456,13.70961 -13.7246,13.72461 H 41.134249 c -7.579,-0.015 -13.709604,-6.14461 -13.724604,-13.72461 v -71.78125 c 0.015,-7.577 6.147614,-13.70961 13.724604,-13.72461 z m 155.000001,0 h 71.78321 c 7.578,0.015 13.70961,6.14461 13.72461,13.72461 v 71.78125 c -0.015,7.58 -6.14561,13.70961 -13.72461,13.72461 h -71.78321 c -7.57899,-0.015 -13.71065,-6.14461 -13.72265,-13.72461 v -71.78125 c 0.012,-7.577 6.14365,-13.70961 13.72265,-13.72461 z m 155.00196,0 h 71.7793 c 7.579,0.015 13.7116,6.14561 13.7246,13.72461 l 0.004,71.78125 c -0.016,7.581 -6.14951,13.70961 -13.72851,13.72461 h -71.7793 c -7.581,-0.015 -13.71156,-6.14361 -13.72656,-13.72461 v -71.78125 c 0.014,-7.579 6.14656,-13.70961 13.72656,-13.72461 z m -145.39649,13.59961 c -2.434,0 -4.58707,0.33611 -6.45507,1.03711 -1.829,0.684 -3.37352,1.60544 -4.60352,2.77344 -1.213,1.153 -2.12961,2.48665 -2.72461,3.97265 -0.585,1.464 -0.88086,2.9936 -0.88086,4.5586 0.116,2.485 0.73022,4.51139 1.94922,6.02539 1.197,1.482 3.00119,2.66748 5.36719,3.64648 l 2.14844,0.91211 5.13476,1.8125 c 0.672,0.214 1.32619,0.4693 1.99219,0.7793 0.632,0.294 1.21119,0.64936 1.74219,1.06836 0.507,0.401 0.9057,0.85676 1.2207,1.38476 0.282,0.473 0.42373,0.99186 0.42773,1.63086 -0.029,1.101 -0.35793,1.68433 -1.21093,2.23633 -0.865,0.539 -2.39102,0.89077 -4.54102,0.88477 -2.53,0 -4.75536,-0.37638 -6.69336,-1.10938 -1.98,-0.751 -3.46533,-1.65034 -4.48633,-2.65234 l -1.48242,-1.45704 -1.08594,10.5625 0.52149,0.33399 c 1.336,0.847 3.13659,1.51626 5.43359,2.07227 2.32,0.56099 4.86681,0.83784 7.63281,0.83984 v -0.002 c 3.35309,-0.003 6.07269,-0.38864 8.19727,-1.23047 2.046,-0.817 3.66845,-1.86236 4.81445,-3.19336 1.102,-1.275 1.83902,-2.68336 2.16602,-4.19336 0.301,-1.39 0.45312,-2.70445 0.45312,-3.93946 0,-1.447 -0.25615,-2.78818 -0.78515,-3.99218 -0.506,-1.146 -1.14688,-2.16602 -1.92188,-3.04102 -0.757,-0.853 -1.592,-1.58083 -2.5,-2.17383 -0.877,-0.572 -1.72945,-1.01889 -2.56445,-1.33789 l -2.91016,-1.13281 c -1.783,-0.691 -3.34698,-1.24692 -4.70898,-1.66992 -1.307,-0.404 -2.37899,-0.79888 -3.20899,-1.17188 -0.794,-0.354 -1.33143,-0.74618 -1.64843,-1.11718 -0.248,-0.29 -0.4296,-0.75016 -0.4336,-1.53516 0.006,-0.548 0.13314,-0.91333 0.36914,-1.23633 0.278,-0.369 0.65202,-0.68422 1.16602,-0.94922 0.525,-0.271 1.1563,-0.47742 1.9043,-0.60742 0.764,-0.133 1.58765,-0.20117 2.47265,-0.20117 2.963,-0.002 6.5088,1.0603 10.5918,3.2793 l 1.32422,0.71875 0.91406,-9.20508 -0.54297,-0.32227 c -0.601,-0.361 -1.34037,-0.71779 -2.23437,-1.09179 -0.919,-0.383 -1.9386,-0.71019 -3.0586,-0.99219 -1.115,-0.277 -2.29043,-0.50836 -3.52343,-0.69336 -1.255,-0.186 -2.50029,-0.28125 -3.73829,-0.28125 z m -155.812501,0.7539 -14.1582,39.80079 h 9.30664 l 3.24024,-9.12696 h 11.16992 l 3.23828,9.12696 h 9.30664 l -0.47656,-1.33399 -13.6836,-38.4668 z m 300.255861,0.002 v 39.79883 h 15.14649 v 0.002 c 2.842,0 5.48253,-0.45958 7.89453,-1.39258 2.403,-0.926 4.48951,-2.25361 6.22851,-3.97461 1.744,-1.722 3.09855,-3.82915 4.06055,-6.28515 0.969,-2.472 1.44727,-5.23 1.44727,-8.25 0,-3.02 -0.47727,-5.76766 -1.44727,-8.22266 -0.964,-2.437 -2.31764,-4.54225 -4.05664,-6.28125 -1.739,-1.738 -3.82742,-3.07686 -6.23242,-4.00586 -2.413,-0.931 -5.05253,-1.38867 -7.89453,-1.38867 z m -144.44336,1.24023 c 1.136,0.002 2.28436,0.0868 3.44336,0.25977 1.177,0.178 2.28894,0.3962 3.33594,0.6582 1.039,0.258 1.96244,0.56049 2.77344,0.89649 0.552,0.229 1.02873,0.4522 1.42773,0.6582 l -0.49023,4.94922 c -3.742,-1.866 -7.13871,-2.83003 -10.22071,-2.83203 -0.98799,0 -1.9244,0.0765 -2.8164,0.23046 -0.911,0.15701 -1.73861,0.41883 -2.47461,0.79883 -0.745,0.38 -1.37852,0.89435 -1.85352,1.52735 -0.52,0.692 -0.77157,1.5455 -0.76757,2.4375 -0.002,1.088 0.26496,2.08584 0.91796,2.83984 0.58,0.672 1.37271,1.20067 2.34571,1.63867 0.934,0.419 2.07359,0.83481 3.43359,1.25781 1.302,0.404 2.83008,0.94505 4.58008,1.62305 l 2.91211,1.13477 c 0.683,0.259 1.41631,0.63848 2.19531,1.14648 0.746,0.489 1.4428,1.09422 2.0918,1.82422 0.628,0.707 1.15689,1.54253 1.58789,2.51953 0.405,0.922 0.61519,1.9725 0.61719,3.1875 0,1.071 -0.13416,2.24263 -0.41016,3.51563 -0.251,1.155 -0.80766,2.24754 -1.72266,3.31054 -0.869,1.01 -2.20201,1.90958 -4.04101,2.64258 -1.76463,0.70485 -4.26295,1.09168 -7.45899,1.08985 0,0 -0.002,0 -0.002,0 -2.63221,-1.4e-4 -5.01865,-0.26334 -7.16211,-0.78321 -1.831,-0.441 -3.27469,-0.95581 -4.30469,-1.50781 l 0.55469,-5.40234 c 1.04,0.714 2.26678,1.33023 3.67578,1.86523 2.2,0.833 4.67339,1.24024 7.40039,1.24024 2.349,-0.004 4.19703,-0.34074 5.58203,-1.17774 1.4,-0.821 2.19697,-2.29836 2.16797,-3.94336 0.002,-0.953 -0.23398,-1.86425 -0.70898,-2.65625 -0.44,-0.738 -1.01331,-1.38478 -1.69531,-1.92578 -0.658,-0.52 -1.37553,-0.95841 -2.14454,-1.31641 -0.73999,-0.342 -1.47126,-0.62837 -2.19726,-0.85937 l -5.04492,-1.7793 -2.10352,-0.89648 c -2.179,-0.899 -3.68808,-1.94364 -4.58008,-3.05664 -0.869,-1.074 -1.40581,-2.64936 -1.50781,-4.81836 0.002,-1.267 0.24524,-2.52963 0.74024,-3.76563 0.486,-1.215 1.22409,-2.29453 2.24609,-3.26953 1.001,-0.953 2.30073,-1.74256 3.92773,-2.35156 1.588,-0.597 3.5,-0.91016 5.75,-0.91016 z m 146.44336,0.75586 h 13.14649 c 2.628,0.003 5.01383,0.42577 7.17383,1.25977 2.168,0.838 4.0021,2.01673 5.53711,3.55273 1.53799,1.538 2.73928,3.39256 3.61328,5.60156 0.866,2.187 1.30664,4.67629 1.30664,7.48829 0,2.813 -0.44164,5.31053 -1.30664,7.51953 -0.874,2.225 -2.07643,4.07875 -3.60743,5.59375 -1.538,1.519 -3.37196,2.69329 -5.54296,3.52929 -2.16,0.834 -4.54583,1.25782 -7.17383,1.25782 h -13.14649 z m -300.843751,0.002 h 5.12305 l 12.73437,35.80079 h -5.05859 l -3.24219,-9.125 h -13.99218 l -3.23828,9.125 h -5.0586 z m 305.753911,4.58985 v 26.62109 h 8.23633 c 0.021,0 0.0415,0.001 0.0605,0 3.759,0 6.83474,-1.1724 8.92774,-3.5664 2.095,-2.386 3.08598,-5.68714 3.08398,-9.74414 0.002,-4.056 -0.98898,-7.35915 -3.08398,-9.74414 -2.103,-2.40701 -5.20228,-3.57641 -8.98828,-3.56641 z m 2.00195,1.99609 h 6.23438 v 0.002 0.002 c 3.413,0.011 5.80637,0.98676 7.48437,2.88476 1.683,1.917 2.58394,4.67279 2.58594,8.42579 -0.002,3.753 -0.90294,6.50778 -2.58594,8.42578 -1.677,1.899 -4.07137,2.87672 -7.48437,2.88672 h -6.23438 z m -305.228511,0.32422 -5.29297,15.06836 h 10.66015 l -0.47656,-1.33398 z m 0.0117,5.99805 2.51953,7.07226 h -5.00196 z"
   style="fill:#ffffff" />







</svg>
