<?xml version="1.0" encoding="UTF-8" standalone="no"?>
<svg
   version="1.1"
   id="svg2"
   viewBox="0 0 2247 965.27735"
   height="965.27734"
   width="2247"
   sodipodi:docname="system.svg"
   inkscape:version="1.1.2 (0a00cf5339, 2022-02-04)"
   xmlns:inkscape="http://www.inkscape.org/namespaces/inkscape"
   xmlns:sodipodi="http://sodipodi.sourceforge.net/DTD/sodipodi-0.dtd"
   xmlns:xlink="http://www.w3.org/1999/xlink"
   xmlns="http://www.w3.org/2000/svg"
   xmlns:svg="http://www.w3.org/2000/svg"
   xmlns:rdf="http://www.w3.org/1999/02/22-rdf-syntax-ns#"
   xmlns:cc="http://creativecommons.org/ns#"
   xmlns:dc="http://purl.org/dc/elements/1.1/">
  <sodipodi:namedview
     id="namedview7"
     pagecolor="#9a9a9a"
     bordercolor="#666666"
     borderopacity="1.0"
     inkscape:pageshadow="2"
     inkscape:pageopacity="0"
     inkscape:pagecheckerboard="0"
     showgrid="false"
     showguides="true"
     inkscape:guide-bbox="true"
     inkscape:zoom="0.22627417"
     inkscape:cx="262.95533"
     inkscape:cy="-187.82524"
     inkscape:window-width="1920"
     inkscape:window-height="996"
     inkscape:window-x="0"
     inkscape:window-y="0"
     inkscape:window-maximized="1"
     inkscape:current-layer="svg2"
     fit-margin-top="0"
     fit-margin-left="0"
     fit-margin-right="0"
     fit-margin-bottom="0"
     width="2247px">
    <sodipodi:guide
       position="893.99998,1301.2773"
       orientation="0,-1"
       id="guide270" />
  </sodipodi:namedview>
  <defs
     id="defs4">
    <linearGradient
       inkscape:collect="always"
       id="linearGradient15819">
      <stop
         style="stop-color:#000000;stop-opacity:0.1875616"
         offset="0"
         id="stop15815" />
      <stop
         style="stop-color:#000000;stop-opacity:0;"
         offset="1"
         id="stop15817" />
    </linearGradient>
    <linearGradient
       inkscape:collect="always"
       id="linearGradient7739">
      <stop
         style="stop-color:#759098;stop-opacity:1"
         offset="0"
         id="stop7735" />
      <stop
         style="stop-color:#af7445;stop-opacity:1"
         offset="1"
         id="stop7737" />
    </linearGradient>
    <linearGradient
       inkscape:collect="always"
       id="linearGradient59802">
      <stop
         style="stop-color:#1f2d39;stop-opacity:1;"
         offset="0"
         id="stop59798" />
      <stop
         style="stop-color:#759098;stop-opacity:1"
         offset="1"
         id="stop59800" />
    </linearGradient>
    <linearGradient
       inkscape:collect="always"
       id="linearGradient76079-3">
      <stop
         style="stop-color:#fcd072;stop-opacity:1;"
         offset="0"
         id="stop76075" />
      <stop
         style="stop-color:#752f23;stop-opacity:1"
         offset="1"
         id="stop76077" />
    </linearGradient>
    <linearGradient
       inkscape:collect="always"
       xlink:href="#linearGradient7739"
       id="linearGradient5888"
       x1="1124.2539"
       y1="32.076172"
       x2="1124.2539"
       y2="902.93628"
       gradientUnits="userSpaceOnUse" />
    <linearGradient
       inkscape:collect="always"
       xlink:href="#linearGradient76079-3"
       id="linearGradient6198"
       x1="1060.5688"
       y1="951.52301"
       x2="1083.754"
       y2="125.70233"
       gradientUnits="userSpaceOnUse" />
    <linearGradient
       inkscape:collect="always"
       xlink:href="#linearGradient59802"
       id="linearGradient14081"
       x1="2123.821"
       y1="2765.5171"
       x2="2106.1824"
       y2="3219.6421"
       gradientUnits="userSpaceOnUse" />
    <linearGradient
       inkscape:collect="always"
       xlink:href="#linearGradient15819"
       id="linearGradient15821"
       x1="1188"
       y1="64.271484"
       x2="1188"
       y2="489.99146"
       gradientUnits="userSpaceOnUse" />
  </defs>
  <metadata
     id="metadata7">
    <rdf:RDF>
      <cc:Work
         rdf:about="">
        <dc:format>image/svg+xml</dc:format>
        <dc:type
           rdf:resource="http://purl.org/dc/dcmitype/StillImage" />
      </cc:Work>
    </rdf:RDF>
  </metadata>
  <g
     id="g14073"
     transform="translate(-999.5672,-2733.4409)"
     style="fill-opacity:1;fill:url(#linearGradient14081)">
    <path
       style="fill:url(#linearGradient14081);stroke-width:8.7;stroke-linejoin:round;fill-opacity:1.0"
       d="M 2066.3387,2779.8022 H 1800.409 c -5.5355,0.041 -10.6268,2.8323 -14.7871,6.291 -9.7867,7.3346 -19.5754,14.6669 -29.3632,22 0.01,60.0293 0.017,120.0586 0.025,180.0879 0.3881,0.047 0.7739,0.083 1.1484,0.082 37.317,24.6425 74.6342,49.2834 111.9512,73.9258 -0.023,-47.3255 -0.047,-94.651 -0.07,-141.9765 l 20.2988,-15.6095 c 26.8646,-0.1829 53.7291,-0.3659 80.5937,-0.5488 3.8164,3.0169 7.6328,6.0338 11.4492,9.0507 3.1298,2.4755 6.2577,4.9562 9.3868,7.4336 -0.047,74.1576 -0.095,148.3151 -0.1426,222.4727 0.338,0.064 0.6607,0.071 0.9804,0.07 37.4169,24.7083 74.8331,49.4167 112.25,74.125 -0.041,-136.3314 -0.081,-272.6628 -0.1211,-408.9941 -12.555,-9.4736 -25.1123,-18.944 -37.6699,-28.4141 z"
       id="path12836" />
    <path
       style="fill:url(#linearGradient14081);stroke-width:8.7;stroke-linejoin:round;fill-opacity:1.0"
       d="m 2181.5613,2779.7104 c -0.1777,0.1328 -0.3555,0.2656 -0.5332,0.3984 -12.369,9.282 -24.7356,18.5701 -37.1015,27.8575 0.079,136.416 0.1583,272.832 0.2383,409.248 34.5807,-22.8214 69.1614,-45.6434 103.7421,-68.4648 2.8737,-1.8638 5.6987,-3.8246 8.6036,-5.627 0.1845,-0.128 0.3798,0.057 0.5683,0.047 -0.1396,-74.3756 -0.2784,-148.7513 -0.4179,-223.1269 6.8783,-5.2969 13.7564,-10.5938 20.6347,-15.8907 26.8073,-0.087 53.6146,-0.1731 80.4219,-0.2597 7.0572,5.3886 14.1146,10.7773 21.1719,16.166 0,47.4134 0.01,94.8268 0.014,142.2402 37.2682,-24.5945 74.5381,-49.1864 111.8047,-73.7832 l 0.082,-0.031 0.096,-0.035 c 0.3674,-0.2554 0.7515,-0.01 1.1308,0.096 0.039,-60.0905 0.079,-120.181 0.1172,-180.2715 -12.6155,-9.4306 -25.2317,-18.8604 -37.8457,-28.2929 -90.9089,-0.088 -181.8177,-0.1813 -272.7266,-0.2696 z"
       id="path12830" />
    <path
       style="fill:url(#linearGradient14081);stroke-width:8.7;stroke-linejoin:round;fill-opacity:1.0"
       d="m 2530.9207,2779.5756 v 2.0059 c 0.06,66.6251 0.024,135.413 0,203.8926 105.5799,71.9123 225.5034,153.3535 346.5117,235.7109 -0.4946,-137.4284 -0.5327,-274.8631 1.4356,-409.7519 9.1308,-6.822 25.0791,-18.7369 41.9082,-31.3106 -39.8378,-0.1292 -121.584,-0.2588 -161.4219,-0.3906 -18.0221,63.1165 -36.0443,126.2331 -54.0664,189.3496 -18.0081,-63.0657 -36.0141,-126.1319 -54.0234,-189.1973 -40.1146,-0.1032 -80.2292,-0.2042 -120.3438,-0.3086 z"
       id="path12824" />
    <path
       style="fill:url(#linearGradient14081);stroke-width:8.7;stroke-linejoin:round;fill-opacity:1.0"
       d="m 1327.6004,2779.5659 c 11.7463,8.8066 32.0481,23.7607 40.9063,30.6679 0,3.7835 0.015,10.5451 -0.094,14.1797 0.016,132.222 0.031,264.444 0.047,396.666 34.7755,-23.2705 69.5506,-46.54 104.3262,-69.8105 2.5619,-1.6789 5.0698,-3.4634 7.666,-5.0762 0.3278,-0.2309 0.6726,0.01 1.0117,0.084 0.037,-80.4746 0.074,-160.9492 0.1113,-241.4238 l 102.4101,-0.4883 c 6.5977,5.3887 13.1953,10.7773 19.793,16.166 0.023,47.6797 0.045,95.3594 0.068,143.0391 37.1792,-24.8781 74.358,-49.7567 111.5372,-74.6348 l 0.092,-0.035 0.094,-0.035 c 0.2903,-0.2045 0.5966,0.023 0.8964,0.074 0,-60.2786 -0.01,-120.5573 -0.014,-180.8359 -12.3386,-9.4352 -24.6794,-18.8675 -37.0195,-28.3008 -110.054,-0.078 -241.778,-0.1586 -351.832,-0.2363 z"
       id="path12818" />
    <path
       style="fill:url(#linearGradient14081);stroke-width:8.7;stroke-linejoin:round;fill-opacity:1.0"
       d="m 1795.0829,2761.8061 c -2.9678,0.021 -5.8335,0.7543 -8.5157,1.9473 2.6822,-1.193 5.5479,-1.9267 8.5157,-1.9473 z"
       id="path12816" />
  </g>
  <path
     id="path15228"
     style="fill:url(#linearGradient6198);fill-opacity:1;stroke-width:6.439;stroke-linejoin:round"
     d="M 1531.3535 249.61328 C 1531.3118 371.36215 1531.2425 493.69363 1531.3535 612.16211 C 1544.8274 622.17624 1540.3755 618.86702 1549.9238 625.30469 C 1581.56 649.0372 1613.1962 672.76895 1644.832 696.50195 L 1644.832 403.38477 C 1664.6295 471.71077 1684.4222 540.03817 1704.2227 608.36328 C 1718.3633 563.24629 1732.3634 518.08524 1745.8418 472.76562 C 1752.8397 449.13871 1757.7773 440.65911 1764.6875 417.00586 C 1764.7145 545.44922 1766.7373 658.72464 1766.8223 787.16797 C 1804.2747 815.39883 1841.7239 843.63387 1879.1758 871.86523 C 1879.1943 744.61546 1878.3189 614.96672 1877.8574 485.32031 C 1771.6077 413.01634 1665.2979 340.78664 1559.0586 268.47656 C 1549.8233 262.18876 1540.5888 255.90109 1531.3535 249.61328 z M 756.7168 252.70117 C 756.73243 360.93294 756.7483 469.16471 756.76367 577.39648 C 832.97492 634.41212 909.18387 691.43083 985.39453 748.44727 C 1025.133 718.56018 1064.8742 688.67675 1104.6152 658.79297 C 1104.5979 599.64258 1104.5802 540.49219 1104.5625 481.3418 C 1098.3682 477.29847 1092.2098 473.19589 1086.0273 469.13281 C 1055.1562 448.74692 1024.2852 428.36049 993.41406 407.97461 C 992.77775 407.74161 992.04776 407.54449 991.33398 407.48242 C 991.29304 471.57096 991.25189 535.6595 991.21094 599.74805 C 950.77539 569.42123 910.33985 539.09441 869.9043 508.76758 C 869.87444 447.95442 869.84434 387.14128 869.81445 326.32812 C 862.6591 321.64866 855.53803 316.91006 848.39453 312.21094 C 818.58487 292.5259 788.77645 272.84129 758.9668 253.15625 C 758.24664 252.89896 757.48414 252.75061 756.7168 252.70117 z M 1491.5176 252.8418 C 1489.9285 253.15699 1488.74 254.38337 1487.3691 255.16602 C 1451.3584 278.93065 1415.3468 302.6963 1379.3359 326.46094 C 1379.3413 387.18034 1379.3459 447.89974 1379.3516 508.61914 C 1338.8568 538.59505 1298.3619 568.57096 1257.8672 598.54688 C 1257.7476 534.87565 1257.6274 471.20443 1257.5078 407.5332 C 1256.7982 407.55235 1256.1064 407.73964 1255.5352 408.20898 C 1249.032 412.40219 1242.6096 416.72143 1236.1387 420.96484 L 1144.5977 481.37695 C 1144.6324 540.66797 1144.6669 599.95898 1144.7012 659.25 C 1184.7424 688.93604 1224.7819 718.62414 1264.8242 748.30859 C 1340.6301 691.00707 1416.435 633.70417 1492.2422 576.4043 C 1492.3109 468.60026 1492.3811 360.79623 1492.4512 252.99219 C 1492.1394 252.94441 1491.8418 252.79795 1491.5215 252.8418 L 1491.5176 252.8418 z M 716.17188 253.25781 C 714.5906 253.59303 713.40844 254.81928 712.04492 255.61133 C 676.12282 279.64832 640.2014 303.68567 604.2793 327.72266 C 604.30824 388.03125 604.33631 448.33984 604.36523 508.64844 C 563.51366 539.28581 522.66211 569.92318 481.81055 600.56055 C 481.83966 537.26823 481.86935 473.97591 481.89844 410.68359 C 481.03647 410.60537 480.17417 410.70477 479.48047 411.27344 C 474.15745 414.73409 468.92206 418.3283 463.63086 421.83789 C 432.05178 442.96942 400.47165 464.1009 368.89258 485.23242 C 368.90823 614.56901 368.92447 743.90559 368.93945 873.24219 C 484.93699 786.21084 600.93162 699.17577 716.92773 612.14258 C 716.91826 492.55274 716.90803 372.96289 716.89844 253.37305 C 716.65284 253.35093 716.42123 253.22158 716.17188 253.25781 z " />
  <path
     id="path9179"
     style="fill:#000000;fill-opacity:1;stroke:none"
     d="m 1485.3047,0 c 0,0.66862 10e-5,1.3372404 0,2.0058594 -0.01,3.313836 -8e-4,6.6444787 0,9.9648436 C 1480.208,8.1598791 1475.1095,4.3512925 1470.0137,0.5390625 1368.8874,0.4506025 1267.7611,0.35798525 1166.6348,0.26953125 1152.5067,10.870136 1138.381,21.474226 1124.2539,32.076172 1110.2324,21.504486 1096.2107,10.93337 1082.1895,0.36132812 c -98.14258,0.0052 -196.28545,0.007203 -294.42778,0.0332031 -7.60369,0.400082 -14.71055,4.00498155 -20.45313,8.85156255 C 757.17512,16.83724 747.04166,24.428385 736.9082,32.019531 723.09242,21.466821 709.27679,10.913937 695.46094,0.36132812 526.13021,0.24708013 356.79948,0.130318 187.46875,0.015625 c 45.12749,33.808102 90.25523,67.615863 135.38281,101.423825 0.0311,287.94596 0.0634,575.89193 0.0937,863.83789 145.70452,-109.3191 291.40602,-218.64224 437.10938,-327.96289 75.1348,56.21089 150.26933,112.42213 225.40429,168.63282 46.30442,-34.8311 92.60942,-69.6614 138.91402,-104.49219 46.9091,34.78093 93.8163,69.56439 140.7266,104.34375 74.5108,-56.32583 149.0221,-112.651 223.5332,-168.97656 67.3513,50.51913 134.7043,101.03618 202.0547,151.55664 0.027,-19.87891 0.052,-39.75782 0.078,-59.63672 5.0221,17.48438 10.0446,34.96867 15.0664,52.45312 4.9786,-17.40808 9.9611,-34.81505 14.9414,-52.22265 0.028,27.05012 0.054,54.10025 0.084,81.15039 68.1033,51.3446 136.2064,102.6898 204.3106,154.0332 0.04,-287.52864 0.084,-575.0573 0.125,-862.58594 C 1970.0392,68.13877 2014.7847,34.706435 2059.5312,1.2753906 1948.0533,0.90768162 1836.5756,0.54138 1725.0977,0.171875 c -6.4623,22.635393 -12.9245,45.270837 -19.3868,67.90625 C 1699.2797,45.563211 1692.8503,23.047812 1686.418,0.53320312 1619.3803,0.35544213 1552.3425,0.1788 1485.3047,0 Z M 328.0332,46.125 c 110.05403,0.0777 241.77799,0.158675 351.83203,0.236328 12.34005,9.433316 24.68092,18.86559 37.01954,28.300781 0.0141,179.160151 0.0288,358.320321 0.043,537.480471 -115.99611,87.03319 -231.99074,174.06826 -347.98828,261.09961 -0.0302,-260.75652 -0.0627,-521.51303 -0.0937,-782.269534 0.1085,-3.634664 0.0937,-10.396277 0.0937,-14.179687 C 360.08134,69.885703 339.77942,54.931623 328.0332,46.125 Z m 1203.3203,0.0098 c 40.1146,0.10434 80.2292,0.205368 120.3438,0.308593 18.0093,63.065321 36.0153,126.131591 54.0234,189.197261 18.0221,-63.11654 36.0443,-126.23306 54.0664,-189.349604 39.8379,0.131821 121.5841,0.261418 161.4219,0.390625 -16.8291,12.573688 -32.7774,24.488555 -41.9082,31.310547 -3.8134,261.340672 -0.087,532.532352 -0.125,793.873042 -37.4519,-28.23136 -74.9011,-56.4664 -112.3535,-84.69726 -0.085,-128.44333 -2.1079,-241.71872 -2.1349,-370.16208 -6.9102,23.65325 -11.8477,32.13282 -18.8456,55.75973 -13.4784,45.31961 -27.4785,90.48067 -41.6191,135.59766 -19.8005,-68.32511 -39.5932,-136.65251 -59.3907,-204.97851 v 293.11718 c -31.6358,-23.733 -63.272,-47.46475 -94.9082,-71.19726 -9.5483,-6.43767 -5.0964,-3.12845 -18.5703,-13.14258 -0.1727,-184.30281 0.1658,-379.71864 0,-564.021485 z m -349.3594,0.134765 c 90.9089,0.0883 181.8177,0.181222 272.7266,0.269531 12.614,9.432542 25.2302,18.86233 37.8457,28.292969 -0.1066,167.190749 -0.2177,334.381519 -0.3242,501.572269 -75.8072,57.29987 -151.6121,114.60277 -227.418,171.90429 -40.0423,-29.68445 -80.0818,-59.37255 -120.123,-89.05859 -0.1125,-194.90821 -0.2292,-389.81641 -0.3418,-584.724609 12.3659,-9.287328 24.7325,-18.575473 37.1015,-27.857422 0.1777,-0.132813 0.3555,-0.265625 0.5332,-0.398438 z m -115.2226,0.0918 c 12.5576,9.470098 25.1149,18.940478 37.6699,28.414063 0.057,194.672519 0.1168,389.345059 0.1738,584.017579 -39.741,29.88378 -79.4822,59.76721 -119.22067,89.6543 -76.21066,-57.01644 -152.41961,-114.03515 -228.63086,-171.05079 -0.0238,-167.58008 -0.0485,-335.16016 -0.0723,-502.74023 9.78786,-7.333108 19.57658,-14.665377 29.36328,-22 4.16022,-3.458736 9.2516,-6.250136 14.78711,-6.291016 z m 291.3789,124.089842 c -26.8073,0.0866 -53.6146,0.17317 -80.4219,0.25977 -6.8783,5.29688 -13.7564,10.59374 -20.6347,15.89062 0.2577,137.3151 0.5155,274.63021 0.7734,411.94532 40.4947,-29.97592 80.9896,-59.95183 121.4844,-89.92774 -0.01,-107.33399 -0.019,-214.66796 -0.029,-322.00195 -7.0573,-5.38867 -14.1147,-10.77735 -21.1719,-16.16602 z m -387.51173,0.16602 c -26.86458,0.18295 -53.72916,0.36589 -80.59375,0.54883 l -20.29883,15.60937 c 0.0527,107.33072 0.10551,214.66145 0.15821,321.99219 40.43555,30.32683 80.87109,60.65365 121.30664,90.98047 0.0879,-137.54884 0.17577,-275.09766 0.26367,-412.64649 -3.12904,-2.47746 -6.25697,-4.95815 -9.38672,-7.43359 -3.8164,-3.01692 -7.63281,-6.03385 -11.44922,-9.05078 z m -386.2207,0.30664 -102.41016,0.48828 c -0.0658,143.04948 -0.13146,286.09896 -0.19726,429.14844 40.85156,-30.63737 81.70311,-61.27474 122.55468,-91.91211 -0.0514,-107.1862 -0.10289,-214.3724 -0.15429,-321.5586 -6.59766,-5.38867 -13.19531,-10.77733 -19.79297,-16.16601 z m 748.90433,45.60547 c 0.01,89.63672 0.02,179.27343 0.029,268.91015 -9.888,7.32031 -19.7761,14.64062 -29.6641,21.96094 l -0.5352,-290.76758 c 10.0566,-0.0345 20.1134,-0.069 30.17,-0.10351 z m -387.86136,0.26172 c -0.0684,96.9987 -0.13672,193.9974 -0.20508,290.99609 -9.78385,-7.33984 -19.56771,-14.67968 -29.35156,-22.01953 -0.0482,-89.58854 -0.0964,-179.17709 -0.14453,-268.76563 9.90039,-0.0703 19.80078,-0.14062 29.70117,-0.21093 z m -387.23633,0.26757 c 0.0469,89.5332 0.0937,179.06641 0.14062,268.59961 -10.16992,7.62239 -20.33984,15.24479 -30.50976,22.86719 0.0475,-97.10873 0.0951,-194.21744 0.14258,-291.32617 10.07552,-0.0469 20.15104,-0.0937 30.22656,-0.14063 z"
     sodipodi:nodetypes="cccccccccccccccccccccccccccccccccccccccccccccccccccccccccccccccccccccccccccccccccccccccccccccccccccccccccccccc" />
  <path
     id="path9170"
     style="fill:url(#linearGradient5888);fill-opacity:1;stroke:none"
     d="m 271.64258,28.070312 c 1.60417,1.201824 3.20833,2.403646 4.8125,3.605469 24.816,18.59674 49.65336,37.148982 74.42578,55.802735 -0.10697,3.815845 0.01,7.63405 -0.0352,11.451172 0.031,270.109242 0.0636,540.218872 0.0937,810.328122 127.99752,-96.0365 255.99216,-192.07684 383.98828,-288.11523 -0.0142,-185.13021 -0.0288,-370.26042 -0.043,-555.390627 C 718.58076,53.286707 702.27424,40.824673 685.96875,28.361328 547.86003,28.265388 409.75131,28.166501 271.64258,28.070312 Z m 1241.68162,0.01172 v 2.00586 c 0.1733,190.281249 -0.1751,398.265619 0,588.546879 37.2873,28.10892 109.4154,82.4826 149.5039,113.85156 V 530.16602 c 13.8272,47.96912 27.5726,95.96166 41.3633,143.9414 1.3652,4.7536 2.7288,9.50806 4.0938,14.26172 7.5996,-32.76377 15.02,-65.56982 22.7011,-98.31445 4.8774,-20.32911 10.5217,-40.40948 16.2481,-60.52149 0.5359,-1.87972 1.0715,-3.75896 1.6074,-5.63867 -0.019,87.67973 -0.076,184.60568 0,272.28516 46.3428,34.93534 103.8919,78.31526 148.3164,111.80664 0.04,-273.48112 0.083,-546.96225 0.125,-820.443361 26.1179,-19.513581 52.2352,-39.027939 78.3535,-58.541016 -76.4798,-0.244102 -152.9595,-0.48866 -229.4394,-0.730469 -13.4996,47.267326 -26.9972,94.535206 -40.4961,141.802736 -13.4768,-47.19849 -26.9515,-94.397578 -40.4297,-141.595704 -50.649,-0.132349 -101.2982,-0.263061 -151.9473,-0.396485 z m -337.3379,0.1875 c -0.1777,0.132813 -0.3555,0.265625 -0.5332,0.398438 -16.3665,12.284496 -32.7303,24.575377 -49.0937,36.865234 0.1126,200.929027 0.2292,401.858067 0.3418,602.787107 46.0763,34.16192 92.151,68.32602 138.2285,102.48633 81.7708,-61.81255 163.5404,-123.6266 245.3125,-185.4375 0.1066,-173.1849 0.2176,-346.3698 0.3242,-519.554687 -16.6226,-12.424885 -33.246,-24.848629 -49.8672,-37.275391 -94.9043,-0.08837 -189.8086,-0.181164 -284.7129,-0.269531 z m -103.1855,0.0918 -277.28518,0.0039 c -5.93555,0.04117 -11.45952,2.932517 -15.93359,6.652344 -13.62876,10.215282 -27.26196,20.423144 -40.89062,30.638672 0.0238,173.58593 0.0485,347.17187 0.0723,520.75781 82.21776,61.50979 164.43322,123.02265 246.65039,184.53321 45.73204,-34.39802 91.46654,-68.79278 137.20114,-103.1875 -0.057,-200.66082 -0.1166,-401.32162 -0.1738,-601.982426 -16.5478,-12.470781 -33.0939,-24.943666 -49.6406,-37.416016 z M 328.0332,46.125 c 110.05403,0.0777 241.77799,0.158675 351.83203,0.236328 12.34005,9.433316 24.68092,18.86559 37.01954,28.300781 0.0141,179.160151 0.0288,358.320321 0.043,537.480471 -115.99611,87.03319 -231.99074,174.06826 -347.98828,261.09961 -0.0302,-260.75652 -0.0627,-521.51303 -0.0937,-782.269534 0.1085,-3.634664 0.0937,-10.396277 0.0937,-14.179687 C 360.08134,69.885703 339.77942,54.931623 328.0332,46.125 Z m 1203.3203,0.0098 c 40.1146,0.10434 80.2292,0.205368 120.3438,0.308593 18.0093,63.065321 36.0153,126.131591 54.0234,189.197261 18.0221,-63.11654 36.0443,-126.23306 54.0664,-189.349604 39.8379,0.131821 121.5841,0.261418 161.4219,0.390625 -16.8291,12.573688 -32.7774,24.488555 -41.9082,31.310547 -3.8134,261.340672 -0.087,532.532352 -0.125,793.873042 -37.4519,-28.23136 -74.9011,-56.4664 -112.3535,-84.69726 -0.085,-128.44333 -2.1079,-241.71875 -2.1349,-370.16211 -6.9102,23.65325 -11.8477,32.13285 -18.8456,55.75976 -13.4784,45.31961 -27.4785,90.48067 -41.6191,135.59766 -19.8005,-68.32511 -39.5932,-136.65251 -59.3907,-204.97851 v 293.11718 c -31.6358,-23.733 -63.272,-47.46475 -94.9082,-71.19726 -9.5483,-6.43767 -5.0964,-3.12845 -18.5703,-13.14258 -0.1727,-184.30281 0.1658,-379.71864 0,-564.021485 z m -349.3594,0.134765 c 90.9089,0.0883 181.8177,0.181222 272.7266,0.269531 12.614,9.432542 25.2302,18.86233 37.8457,28.292969 -0.1066,167.190749 -0.2177,334.381519 -0.3242,501.572269 -75.8072,57.29987 -151.6121,114.60277 -227.418,171.90429 -40.0423,-29.68445 -80.0818,-59.37255 -120.123,-89.05859 -0.1125,-194.90821 -0.2292,-389.81641 -0.3418,-584.724609 12.3659,-9.287328 24.7325,-18.575473 37.1015,-27.857422 0.1777,-0.132813 0.3555,-0.265625 0.5332,-0.398438 z m -115.2226,0.0918 c 12.5576,9.470098 25.1149,18.940478 37.6699,28.414063 0.057,194.672519 0.1168,389.345059 0.1738,584.017579 -39.741,29.88378 -79.4822,59.76721 -119.22067,89.6543 -76.21066,-57.01644 -152.41961,-114.03515 -228.63086,-171.05079 -0.0238,-167.58008 -0.0485,-335.16016 -0.0723,-502.74023 9.78786,-7.333108 19.57658,-14.665377 29.36328,-22 4.16022,-3.458736 9.2516,-6.250136 14.78711,-6.291016 z m 291.3789,124.089842 c -26.8073,0.0866 -53.6146,0.17317 -80.4219,0.25977 -6.8783,5.29688 -13.7564,10.59374 -20.6347,15.89062 0.2577,137.3151 0.5155,274.63021 0.7734,411.94532 40.4947,-29.97592 80.9896,-59.95183 121.4844,-89.92774 -0.01,-107.33399 -0.019,-214.66796 -0.029,-322.00195 -7.0573,-5.38867 -14.1147,-10.77735 -21.1719,-16.16602 z m -387.51173,0.16602 c -26.86458,0.18295 -53.72916,0.36589 -80.59375,0.54883 l -20.29883,15.60937 c 0.0527,107.33072 0.10551,214.66145 0.15821,321.99219 40.43555,30.32683 80.87109,60.65365 121.30664,90.98047 0.0879,-137.54884 0.17577,-275.09766 0.26367,-412.64649 -3.12904,-2.47746 -6.25697,-4.95815 -9.38672,-7.43359 -3.8164,-3.01692 -7.63281,-6.03385 -11.44922,-9.05078 z m -386.2207,0.30664 -102.41016,0.48828 c -0.0658,143.04948 -0.13146,286.09896 -0.19726,429.14844 40.85156,-30.63737 81.70311,-61.27474 122.55468,-91.91211 -0.0514,-107.1862 -0.10289,-214.3724 -0.15429,-321.5586 -6.59766,-5.38867 -13.19531,-10.77733 -19.79297,-16.16601 z m 767.65623,17.54492 c 3.0827,2.35417 6.1654,4.70834 9.2481,7.0625 0.01,101.3392 0.02,202.67839 0.029,304.01758 -28.5182,21.11068 -57.0364,42.22136 -85.5547,63.33203 l -0.6856,-367.4375 8.7696,-6.75 c 22.7311,-0.0749 45.4622,-0.14974 68.1933,-0.22461 z m -387.60545,0.1875 c 3.00196,2.37631 6.00391,4.75261 9.00586,7.12891 -0.082,122.66016 -0.16406,245.32031 -0.24609,367.98046 -28.44141,-21.33267 -56.88281,-42.66535 -85.32422,-63.99804 -0.0527,-101.37695 -0.10548,-202.7539 -0.15821,-304.13086 2.82291,-2.16862 5.64583,-4.33724 8.46875,-6.50586 22.7513,-0.1582 45.50261,-0.3164 68.25391,-0.47461 z m -386.43164,0.30273 8.17383,6.67383 c 0.0514,101.33919 0.10285,202.67838 0.15429,304.01758 -28.84571,21.63151 -57.69141,43.26302 -86.53711,64.89453 0.0599,-125.07357 0.11979,-250.14713 0.17969,-375.2207 26.00976,-0.12174 52.01954,-0.2435 78.0293,-0.36524 z"
     sodipodi:nodetypes="ccccccccccccccccccccccccccccccccccccccccccccccccccccccccccccccccccccccccccccccccccccccccccccccccccccccccccccccccccccccccccccccccc" />
  <path
     id="path15568"
     style="fill:url(#linearGradient5888);fill-opacity:1;stroke:none"
     d="m 271.64258,28.070312 c 1.60417,1.201824 3.20833,2.403646 4.8125,3.605469 24.816,18.59674 49.65336,37.148982 74.42578,55.802735 -0.10697,3.815845 0.01,7.63405 -0.0352,11.451172 0.031,270.109242 0.0636,540.218872 0.0937,810.328122 127.99752,-96.0365 255.99216,-192.07684 383.98828,-288.11523 -0.0142,-185.13021 -0.0288,-370.26042 -0.043,-555.390627 C 718.58076,53.286707 702.27424,40.824673 685.96875,28.361328 547.86003,28.265388 409.75131,28.166501 271.64258,28.070312 Z m 1241.68162,0.01172 v 2.00586 c 0.1733,190.281249 -0.1751,398.265619 0,588.546879 37.2873,28.10892 109.4154,82.4826 149.5039,113.85156 V 530.16602 c 13.8272,47.96912 27.5726,95.96166 41.3633,143.9414 1.3652,4.7536 2.7288,9.50806 4.0938,14.26172 7.5996,-32.76377 15.02,-65.56982 22.7011,-98.31445 4.8774,-20.32911 10.5217,-40.40948 16.2481,-60.52149 0.5359,-1.87972 1.0715,-3.75896 1.6074,-5.63867 -0.019,87.67973 -0.076,184.60568 0,272.28516 46.3428,34.93534 103.8919,78.31526 148.3164,111.80664 0.04,-273.48112 0.083,-546.96225 0.125,-820.443361 26.1179,-19.513581 52.2352,-39.027939 78.3535,-58.541016 -76.4798,-0.244102 -152.9595,-0.48866 -229.4394,-0.730469 -13.4996,47.267326 -26.9972,94.535206 -40.4961,141.802736 -13.4768,-47.19849 -26.9515,-94.397578 -40.4297,-141.595704 -50.649,-0.132349 -101.2982,-0.263061 -151.9473,-0.396485 z m -337.3379,0.1875 c -0.1777,0.132813 -0.3555,0.265625 -0.5332,0.398438 -16.3665,12.284496 -32.7303,24.575377 -49.0937,36.865234 0.1126,200.929027 0.2292,401.858067 0.3418,602.787107 46.0763,34.16192 92.151,68.32602 138.2285,102.48633 81.7708,-61.81255 163.5404,-123.6266 245.3125,-185.4375 0.1066,-173.1849 0.2176,-346.3698 0.3242,-519.554687 -16.6226,-12.424885 -33.246,-24.848629 -49.8672,-37.275391 -94.9043,-0.08837 -189.8086,-0.181164 -284.7129,-0.269531 z m -103.1855,0.0918 -277.28518,0.0039 c -5.93555,0.04117 -11.45952,2.932517 -15.93359,6.652344 -13.62876,10.215282 -27.26196,20.423144 -40.89062,30.638672 0.0238,173.58593 0.0485,347.17187 0.0723,520.75781 82.21776,61.50979 164.43322,123.02265 246.65039,184.53321 45.73204,-34.39802 91.46654,-68.79278 137.20114,-103.1875 -0.057,-200.66082 -0.1166,-401.32162 -0.1738,-601.982426 -16.5478,-12.470781 -33.0939,-24.943666 -49.6406,-37.416016 z M 328.0332,46.125 c 110.05403,0.0777 241.77799,0.158675 351.83203,0.236328 12.34005,9.433316 24.68092,18.86559 37.01954,28.300781 0.0141,179.160151 0.0288,358.320321 0.043,537.480471 -115.99611,87.03319 -231.99074,174.06826 -347.98828,261.09961 -0.0302,-260.75652 -0.0627,-521.51303 -0.0937,-782.269534 0.1085,-3.634664 0.0937,-10.396277 0.0937,-14.179687 C 360.08134,69.885703 339.77942,54.931623 328.0332,46.125 Z m 1203.3203,0.0098 c 40.1146,0.10434 80.2292,0.205368 120.3438,0.308593 18.0093,63.065321 36.0153,126.131591 54.0234,189.197261 18.0221,-63.11654 36.0443,-126.23306 54.0664,-189.349604 39.8379,0.131821 121.5841,0.261418 161.4219,0.390625 -16.8291,12.573688 -32.7774,24.488555 -41.9082,31.310547 -3.8134,261.340672 -0.087,532.532352 -0.125,793.873042 -37.4519,-28.23136 -74.9011,-56.4664 -112.3535,-84.69726 -0.085,-128.44333 -2.1079,-241.71875 -2.1349,-370.16211 -6.9102,23.65325 -11.8477,32.13285 -18.8456,55.75976 -13.4784,45.31961 -27.4785,90.48067 -41.6191,135.59766 -19.8005,-68.32511 -39.5932,-136.65251 -59.3907,-204.97851 v 293.11718 c -31.6358,-23.733 -63.272,-47.46475 -94.9082,-71.19726 -9.5483,-6.43767 -5.0964,-3.12845 -18.5703,-13.14258 -0.1727,-184.30281 0.1658,-379.71864 0,-564.021485 z m -349.3594,0.134765 c 90.9089,0.0883 181.8177,0.181222 272.7266,0.269531 12.614,9.432542 25.2302,18.86233 37.8457,28.292969 -0.1066,167.190749 -0.2177,334.381519 -0.3242,501.572269 -75.8072,57.29987 -151.6121,114.60277 -227.418,171.90429 -40.0423,-29.68445 -80.0818,-59.37255 -120.123,-89.05859 -0.1125,-194.90821 -0.2292,-389.81641 -0.3418,-584.724609 12.3659,-9.287328 24.7325,-18.575473 37.1015,-27.857422 0.1777,-0.132813 0.3555,-0.265625 0.5332,-0.398438 z m -115.2226,0.0918 c 12.5576,9.470098 25.1149,18.940478 37.6699,28.414063 0.057,194.672519 0.1168,389.345059 0.1738,584.017579 -39.741,29.88378 -79.4822,59.76721 -119.22067,89.6543 -76.21066,-57.01644 -152.41961,-114.03515 -228.63086,-171.05079 -0.0238,-167.58008 -0.0485,-335.16016 -0.0723,-502.74023 9.78786,-7.333108 19.57658,-14.665377 29.36328,-22 4.16022,-3.458736 9.2516,-6.250136 14.78711,-6.291016 z m 291.3789,124.089842 c -26.8073,0.0866 -53.6146,0.17317 -80.4219,0.25977 -6.8783,5.29688 -13.7564,10.59374 -20.6347,15.89062 0.2577,137.3151 0.5155,274.63021 0.7734,411.94532 40.4947,-29.97592 80.9896,-59.95183 121.4844,-89.92774 -0.01,-107.33399 -0.019,-214.66796 -0.029,-322.00195 -7.0573,-5.38867 -14.1147,-10.77735 -21.1719,-16.16602 z m -387.51173,0.16602 c -26.86458,0.18295 -53.72916,0.36589 -80.59375,0.54883 l -20.29883,15.60937 c 0.0527,107.33072 0.10551,214.66145 0.15821,321.99219 40.43555,30.32683 80.87109,60.65365 121.30664,90.98047 0.0879,-137.54884 0.17577,-275.09766 0.26367,-412.64649 -3.12904,-2.47746 -6.25697,-4.95815 -9.38672,-7.43359 -3.8164,-3.01692 -7.63281,-6.03385 -11.44922,-9.05078 z m -386.2207,0.30664 -102.41016,0.48828 c -0.0658,143.04948 -0.13146,286.09896 -0.19726,429.14844 40.85156,-30.63737 81.70311,-61.27474 122.55468,-91.91211 -0.0514,-107.1862 -0.10289,-214.3724 -0.15429,-321.5586 -6.59766,-5.38867 -13.19531,-10.77733 -19.79297,-16.16601 z m 767.65623,17.54492 c 3.0827,2.35417 6.1654,4.70834 9.2481,7.0625 0.01,101.3392 0.02,202.67839 0.029,304.01758 -28.5182,21.11068 -57.0364,42.22136 -85.5547,63.33203 l -0.6856,-367.4375 8.7696,-6.75 c 22.7311,-0.0749 45.4622,-0.14974 68.1933,-0.22461 z m -387.60545,0.1875 c 3.00196,2.37631 6.00391,4.75261 9.00586,7.12891 -0.082,122.66016 -0.16406,245.32031 -0.24609,367.98046 -28.44141,-21.33267 -56.88281,-42.66535 -85.32422,-63.99804 -0.0527,-101.37695 -0.10548,-202.7539 -0.15821,-304.13086 2.82291,-2.16862 5.64583,-4.33724 8.46875,-6.50586 22.7513,-0.1582 45.50261,-0.3164 68.25391,-0.47461 z m -386.43164,0.30273 8.17383,6.67383 c 0.0514,101.33919 0.10285,202.67838 0.15429,304.01758 -28.84571,21.63151 -57.69141,43.26302 -86.53711,64.89453 0.0599,-125.07357 0.11979,-250.14713 0.17969,-375.2207 26.00976,-0.12174 52.01954,-0.2435 78.0293,-0.36524 z"
     sodipodi:nodetypes="ccccccccccccccccccccccccccccccccccccccccccccccccccccccccccccccccccccccccccccccccccccccccccccccccccccccccccccccccccccccccccccccccc" />
  <path
     id="path15572"
     style="fill:url(#linearGradient15821);fill-opacity:1;stroke-width:8.7;stroke-linejoin:round"
     d="m 381.7207,64.261719 c 3.8367,4.014569 5.5332,9.745392 5.26948,15.224996 -0.14218,3.771827 -0.0468,7.552094 -0.0943,11.327292 -0.0971,40.374813 -0.0153,80.749783 -0.0345,121.124663 0.026,208.42865 0.0521,416.85729 0.0781,625.28594 103.9961,-78.02734 207.99219,-156.05469 311.98828,-234.08203 -0.0143,-173.18946 -0.0286,-346.37891 -0.043,-519.568361 -8.37891,-6.404297 -16.75782,-12.808594 -25.13672,-19.212891 -97.37761,-0.06706 -194.75521,-0.134114 -292.13282,-0.201172 l 0.072,0.06936 z m 1167.6699,33.599609 c -0.039,168.404292 -0.1099,336.808602 -0.037,505.212892 6.3894,4.57988 12.9996,8.85412 19.1975,13.69834 19.4151,14.5926 38.8521,29.15629 58.281,43.73135 -0,-85.88083 -0.01,-171.76194 0.027,-257.64258 0.4107,-6.37696 4.6436,-12.58159 10.822,-14.5978 4.787,-1.8492 10.3596,-2.40664 15.137,-0.22642 5.3461,2.30016 9.0592,7.54426 10.1425,13.18164 13.9623,48.19206 27.9245,96.38411 41.8868,144.57617 8.8206,-28.52835 17.412,-57.14246 26.0795,-85.73093 5.1659,-16.10144 11.7663,-31.71875 16.4497,-47.97848 1.7025,-5.31613 6.1184,-9.74665 11.5621,-11.14653 2.5308,-0.6714 5.1911,-0.60237 7.7813,-0.42334 4.3061,0.36605 8.5572,2.18368 11.4615,5.44327 3.347,3.6465 4.9288,8.72885 4.5484,13.63601 -0.037,39.23071 0.2365,78.46089 0.5018,117.69048 0.5833,80.29961 1.431,160.59802 1.5825,240.90015 25.444,19.18099 50.888,38.36198 76.332,57.54297 -0.1733,-129.45447 -1.0144,-258.90678 -1.3826,-388.36066 -0.2593,-93.7151 -0.256,-187.43266 0.5592,-281.14522 0.2716,-29.61088 0.5342,-59.22305 1.0527,-88.83045 0.2225,-4.861786 2.5703,-9.49384 6.0578,-12.837502 -31.3555,-0.07617 -62.7109,-0.152344 -94.0664,-0.228516 -16.8349,58.958748 -33.6626,117.920098 -50.5371,176.867188 -2.2013,6.08609 -8.1516,10.88184 -14.7336,10.96574 -4.7622,0.38209 -9.879,-0.29912 -13.7882,-3.24511 -3.6343,-2.54045 -5.793,-6.71869 -6.6387,-10.99347 -16.5168,-57.83744 -33.0336,-115.67488 -49.5505,-173.512317 -29.5813,-0.07357 -59.1627,-0.147135 -88.7441,-0.220703 0.01,11.224609 0.01,22.449219 0.016,33.673828 z M 1162.3594,83.525391 c 0.1133,188.884769 0.2265,377.769529 0.3398,566.654299 34.0091,25.21289 68.0182,50.42578 102.0274,75.63867 69.8379,-52.79297 139.6757,-105.58594 209.5136,-158.37891 0.1081,-161.19661 0.2162,-322.39323 0.3243,-483.589841 -8.612,-6.436198 -17.224,-12.872395 -25.836,-19.308593 -86.9095,-0.08984 -173.819,-0.179688 -260.7285,-0.269532 -8.5469,6.417969 -17.0937,12.835938 -25.6406,19.253907 z M 801.39453,64.367188 c -2.38271,0.485234 -4.06825,2.488066 -5.98816,3.760577 -6.90499,5.17551 -13.80998,10.351021 -20.71496,15.526532 0.0241,161.574873 0.0482,323.149743 0.0723,484.724613 70.20443,52.52278 140.40886,105.04557 210.61328,157.56836 33.74605,-25.37305 67.49215,-50.7461 101.23825,-76.11915 -0.058,-188.6914 -0.1159,-377.38281 -0.1738,-566.074214 -8.5703,-6.464192 -17.1406,-12.928385 -25.7109,-19.392578 -86.44534,0.002 -172.89066,0.0039 -259.33597,0.0059 z m 557.69527,88.128902 c 5.0965,0.25117 9.6131,3.07675 13.418,6.27344 6.5058,5.04741 13.2072,9.85232 19.4902,15.17969 4.1067,4.31065 5.8406,10.49678 5.3243,16.35625 0.01,106.3122 0.025,212.62469 0,318.93672 -0.4328,6.52491 -4.455,12.51065 -9.9948,15.86313 -39.8137,29.46137 -79.6012,58.95937 -119.4525,88.36929 -7.4457,4.58573 -17.9736,2.74473 -23.6427,-3.8383 -3.3622,-3.76703 -4.7814,-8.98116 -4.3887,-13.96092 -0.2184,-135.64586 -0.5031,-271.29166 -0.7247,-406.93747 -0.1524,-3.17785 0.2911,-6.41717 1.6744,-9.30705 1.7456,-3.89045 4.7749,-7.10552 8.3336,-9.40811 6.5324,-4.96079 12.9071,-10.13925 19.6168,-14.86031 4.1992,-2.45662 9.2256,-2.58321 13.9559,-2.46356 25.4621,-0.0813 50.9241,-0.18083 76.3863,-0.2028 z m -387.29878,0.17383 c 5.10783,0.34793 9.63426,3.19166 13.3831,6.49753 6.42509,5.15912 13.05366,10.07927 19.23848,15.52801 3.9326,4.29857 5.559,10.34761 5.0619,16.08266 -0.095,136.46205 -0.1789,272.92436 -0.2818,409.38623 -0.472,8.05271 -6.9718,15.08861 -14.7654,16.77511 -5.34317,1.22327 -11.11922,-0.29855 -15.36272,-3.71295 -3.55728,-2.8134 -7.24424,-5.46372 -10.85295,-8.21245 -36.47998,-27.40912 -73.02061,-54.73793 -109.47152,-82.18612 -5.01168,-4.15601 -7.39234,-10.93989 -6.83391,-17.34396 -0.0505,-106.43863 -0.1066,-212.87755 -0.1269,-319.31601 0.39556,-6.44953 4.35431,-12.34243 9.73551,-15.76996 6.45977,-4.92396 12.80391,-10.00514 19.42074,-14.71832 4.21084,-2.49566 9.26685,-2.65868 14.02734,-2.54883 25.60917,-0.16968 51.21887,-0.39082 76.82813,-0.46094 z m -386.18164,0.31446 c 5.19418,0.37345 9.78962,3.30131 13.54018,6.73531 6.08594,5.04254 12.36872,9.8594 18.21177,15.18656 3.81464,4.31176 5.33264,10.28912 4.8497,15.95195 0.0502,106.11429 0.10685,212.22887 0.12881,318.34297 -0.39668,6.53676 -4.42656,12.53511 -9.95304,15.91352 -40.11915,30.08201 -80.22193,60.1856 -120.36663,90.23159 -6.97661,4.45151 -16.80602,3.15669 -22.71585,-2.51561 -3.64903,-3.41475 -5.57229,-8.41312 -5.58251,-13.37161 0.1295,-5.61667 0.0419,-11.23963 0.0765,-16.85905 0.0926,-92.52836 0.0938,-185.05678 0.15075,-277.58516 0.024,-44.73799 0.046,-89.47627 0.0861,-134.21407 0.41921,-7.05454 5.07254,-13.91684 11.87304,-16.21289 4.87161,-1.76715 10.11677,-1.0149 15.1793,-1.21676 31.50714,-0.13983 63.01484,-0.33525 94.52188,-0.38675 z" />
</svg>
