<?xml version="1.0" encoding="UTF-8" standalone="no"?>
<svg
   version="1.1"
   id="svg2"
   viewBox="0 0 2247 965.27735"
   height="965.27734"
   width="2247"
   sodipodi:docname="system_color.svg"
   inkscape:version="1.1.2 (0a00cf5339, 2022-02-04)"
   xmlns:inkscape="http://www.inkscape.org/namespaces/inkscape"
   xmlns:sodipodi="http://sodipodi.sourceforge.net/DTD/sodipodi-0.dtd"
   xmlns="http://www.w3.org/2000/svg"
   xmlns:svg="http://www.w3.org/2000/svg"
   xmlns:rdf="http://www.w3.org/1999/02/22-rdf-syntax-ns#"
   xmlns:cc="http://creativecommons.org/ns#"
   xmlns:dc="http://purl.org/dc/elements/1.1/">
  <sodipodi:namedview
     id="namedview7"
     pagecolor="#9a9a9a"
     bordercolor="#666666"
     borderopacity="1.0"
     inkscape:pageshadow="2"
     inkscape:pageopacity="0"
     inkscape:pagecheckerboard="0"
     showgrid="false"
     showguides="true"
     inkscape:guide-bbox="true"
     inkscape:zoom="0.32"
     inkscape:cx="657.8125"
     inkscape:cy="254.6875"
     inkscape:window-width="1920"
     inkscape:window-height="996"
     inkscape:window-x="0"
     inkscape:window-y="0"
     inkscape:window-maximized="1"
     inkscape:current-layer="svg2"
     fit-margin-top="0"
     fit-margin-left="0"
     fit-margin-right="0"
     fit-margin-bottom="0"
     width="2247px">
    <sodipodi:guide
       position="893.99998,1301.2773"
       orientation="0,-1"
       id="guide270" />
  </sodipodi:namedview>
  <defs
     id="defs4" />
  <metadata
     id="metadata7">
    <rdf:RDF>
      <cc:Work
         rdf:about="">
        <dc:format>image/svg+xml</dc:format>
        <dc:type
           rdf:resource="http://purl.org/dc/dcmitype/StillImage" />
      </cc:Work>
    </rdf:RDF>
  </metadata>
  <path
     id="path9179"
     style="fill:#000000;fill-opacity:1;stroke:none"
     d="m 1485.3047,0 c 0,0.66862 10e-5,1.3372404 0,2.0058594 -0.01,3.313836 -8e-4,6.6444787 0,9.9648436 C 1480.208,8.1598791 1475.1095,4.3512925 1470.0137,0.5390625 1368.8874,0.4506025 1267.7611,0.35798525 1166.6348,0.26953125 1152.5067,10.870136 1138.381,21.474226 1124.2539,32.076172 1110.2324,21.504486 1096.2107,10.93337 1082.1895,0.36132812 c -98.14258,0.0052 -196.28545,0.007203 -294.42778,0.0332031 -7.60369,0.400082 -14.71055,4.00498155 -20.45313,8.85156255 C 757.17512,16.83724 747.04166,24.428385 736.9082,32.019531 723.09242,21.466821 709.27679,10.913937 695.46094,0.36132812 526.13021,0.24708013 356.79948,0.130318 187.46875,0.015625 c 45.12749,33.808102 90.25523,67.615863 135.38281,101.423825 0.0311,287.94596 0.0634,575.89193 0.0937,863.83789 145.70452,-109.3191 291.40602,-218.64224 437.10938,-327.96289 75.1348,56.21089 150.26933,112.42213 225.40429,168.63282 46.30442,-34.8311 92.60942,-69.6614 138.91402,-104.49219 46.9091,34.78093 93.8163,69.56439 140.7266,104.34375 74.5108,-56.32583 149.0221,-112.651 223.5332,-168.97656 67.3513,50.51913 134.7043,101.03618 202.0547,151.55664 0.027,-19.87891 0.052,-39.75782 0.078,-59.63672 5.0221,17.48438 10.0446,34.96867 15.0664,52.45312 4.9786,-17.40808 9.9611,-34.81505 14.9414,-52.22265 0.028,27.05012 0.054,54.10025 0.084,81.15039 68.1033,51.3446 136.2064,102.6898 204.3106,154.0332 0.04,-287.52864 0.084,-575.0573 0.125,-862.58594 C 1970.0392,68.13877 2014.7847,34.706435 2059.5312,1.2753906 1948.0533,0.90768162 1836.5756,0.54138 1725.0977,0.171875 c -6.4623,22.635393 -12.9245,45.270837 -19.3868,67.90625 C 1699.2797,45.563211 1692.8503,23.047812 1686.418,0.53320312 1619.3803,0.35544213 1552.3425,0.1788 1485.3047,0 Z M 328.0332,46.125 c 110.05403,0.0777 241.77799,0.158675 351.83203,0.236328 12.34005,9.433316 24.68092,18.86559 37.01954,28.300781 0.0141,179.160151 0.0288,358.320321 0.043,537.480471 -115.99611,87.03319 -231.99074,174.06826 -347.98828,261.09961 -0.0302,-260.75652 -0.0627,-521.51303 -0.0937,-782.269534 0.1085,-3.634664 0.0937,-10.396277 0.0937,-14.179687 C 360.08134,69.885703 339.77942,54.931623 328.0332,46.125 Z m 1203.3203,0.0098 c 40.1146,0.10434 80.2292,0.205368 120.3438,0.308593 18.0093,63.065321 36.0153,126.131591 54.0234,189.197261 18.0221,-63.11654 36.0443,-126.23306 54.0664,-189.349604 39.8379,0.131821 121.5841,0.261418 161.4219,0.390625 -16.8291,12.573688 -32.7774,24.488555 -41.9082,31.310547 -3.8134,261.340672 -0.087,532.532352 -0.125,793.873042 -37.4519,-28.23136 -74.9011,-56.4664 -112.3535,-84.69726 -0.085,-128.44333 -2.1079,-241.71872 -2.1349,-370.16208 -6.9102,23.65325 -11.8477,32.13282 -18.8456,55.75973 -13.4784,45.31961 -27.4785,90.48067 -41.6191,135.59766 -19.8005,-68.32511 -39.5932,-136.65251 -59.3907,-204.97851 v 293.11718 c -31.6358,-23.733 -63.272,-47.46475 -94.9082,-71.19726 -9.5483,-6.43767 -5.0964,-3.12845 -18.5703,-13.14258 -0.1727,-184.30281 0.1658,-379.71864 0,-564.021485 z m -349.3594,0.134765 c 90.9089,0.0883 181.8177,0.181222 272.7266,0.269531 12.614,9.432542 25.2302,18.86233 37.8457,28.292969 -0.1066,167.190749 -0.2177,334.381519 -0.3242,501.572269 -75.8072,57.29987 -151.6121,114.60277 -227.418,171.90429 -40.0423,-29.68445 -80.0818,-59.37255 -120.123,-89.05859 -0.1125,-194.90821 -0.2292,-389.81641 -0.3418,-584.724609 12.3659,-9.287328 24.7325,-18.575473 37.1015,-27.857422 0.1777,-0.132813 0.3555,-0.265625 0.5332,-0.398438 z m -115.2226,0.0918 c 12.5576,9.470098 25.1149,18.940478 37.6699,28.414063 0.057,194.672519 0.1168,389.345059 0.1738,584.017579 -39.741,29.88378 -79.4822,59.76721 -119.22067,89.6543 -76.21066,-57.01644 -152.41961,-114.03515 -228.63086,-171.05079 -0.0238,-167.58008 -0.0485,-335.16016 -0.0723,-502.74023 9.78786,-7.333108 19.57658,-14.665377 29.36328,-22 4.16022,-3.458736 9.2516,-6.250136 14.78711,-6.291016 z m 291.3789,124.089842 c -26.8073,0.0866 -53.6146,0.17317 -80.4219,0.25977 -6.8783,5.29688 -13.7564,10.59374 -20.6347,15.89062 0.2577,137.3151 0.5155,274.63021 0.7734,411.94532 40.4947,-29.97592 80.9896,-59.95183 121.4844,-89.92774 -0.01,-107.33399 -0.019,-214.66796 -0.029,-322.00195 -7.0573,-5.38867 -14.1147,-10.77735 -21.1719,-16.16602 z m -387.51173,0.16602 c -26.86458,0.18295 -53.72916,0.36589 -80.59375,0.54883 l -20.29883,15.60937 c 0.0527,107.33072 0.10551,214.66145 0.15821,321.99219 40.43555,30.32683 80.87109,60.65365 121.30664,90.98047 0.0879,-137.54884 0.17577,-275.09766 0.26367,-412.64649 -3.12904,-2.47746 -6.25697,-4.95815 -9.38672,-7.43359 -3.8164,-3.01692 -7.63281,-6.03385 -11.44922,-9.05078 z m -386.2207,0.30664 -102.41016,0.48828 c -0.0658,143.04948 -0.13146,286.09896 -0.19726,429.14844 40.85156,-30.63737 81.70311,-61.27474 122.55468,-91.91211 -0.0514,-107.1862 -0.10289,-214.3724 -0.15429,-321.5586 -6.59766,-5.38867 -13.19531,-10.77733 -19.79297,-16.16601 z m 748.90433,45.60547 c 0.01,89.63672 0.02,179.27343 0.029,268.91015 -9.888,7.32031 -19.7761,14.64062 -29.6641,21.96094 l -0.5352,-290.76758 c 10.0566,-0.0345 20.1134,-0.069 30.17,-0.10351 z m -387.86136,0.26172 c -0.0684,96.9987 -0.13672,193.9974 -0.20508,290.99609 -9.78385,-7.33984 -19.56771,-14.67968 -29.35156,-22.01953 -0.0482,-89.58854 -0.0964,-179.17709 -0.14453,-268.76563 9.90039,-0.0703 19.80078,-0.14062 29.70117,-0.21093 z m -387.23633,0.26757 c 0.0469,89.5332 0.0937,179.06641 0.14062,268.59961 -10.16992,7.62239 -20.33984,15.24479 -30.50976,22.86719 0.0475,-97.10873 0.0951,-194.21744 0.14258,-291.32617 10.07552,-0.0469 20.15104,-0.0937 30.22656,-0.14063 z"
     sodipodi:nodetypes="cccccccccccccccccccccccccccccccccccccccccccccccccccccccccccccccccccccccccccccccccccccccccccccccccccccccccccccc" />
  <path
     id="path15228"
     style="fill:#ffffff;fill-opacity:1;stroke-width:6.439;stroke-linejoin:round"
     d="M 271.64258 28.070312 C 273.24675 29.272136 274.85091 30.473958 276.45508 31.675781 C 301.27108 50.272521 326.10844 68.824763 350.88086 87.478516 C 350.77389 91.294361 350.8909 95.112565 350.8457 98.929688 C 350.8767 369.03893 350.90935 639.14856 350.93945 909.25781 C 478.93697 813.22131 606.93161 717.18097 734.92773 621.14258 C 734.91353 436.01237 734.89897 250.88216 734.88477 65.751953 C 718.58089 53.286707 702.27424 40.824673 685.96875 28.361328 C 547.86003 28.265388 409.75131 28.166501 271.64258 28.070312 z M 1513.3242 28.082031 L 1513.3242 30.087891 C 1513.4975 220.36914 1513.1491 428.35351 1513.3242 618.63477 C 1550.6115 646.74369 1622.7396 701.11737 1662.8281 732.48633 L 1662.8281 530.16602 C 1676.6553 578.13514 1690.4007 626.12768 1704.1914 674.10742 C 1705.5566 678.86102 1706.9202 683.61548 1708.2852 688.36914 C 1715.8848 655.60537 1723.3052 622.79932 1730.9863 590.05469 C 1735.8637 569.72558 1741.508 549.64521 1747.2344 529.5332 C 1747.7703 527.65348 1748.3059 525.77424 1748.8418 523.89453 C 1748.8228 611.57426 1748.7658 708.50021 1748.8418 796.17969 C 1795.1846 831.11503 1852.7337 874.49495 1897.1582 907.98633 C 1897.1982 634.50521 1897.2412 361.02408 1897.2832 87.542969 C 1923.4011 68.029388 1949.5184 48.51503 1975.6367 29.001953 C 1899.1569 28.757851 1822.6772 28.513293 1746.1973 28.271484 C 1732.6977 75.53881 1719.2001 122.80669 1705.7012 170.07422 C 1692.2244 122.87573 1678.7497 75.676642 1665.2715 28.478516 C 1614.6225 28.346167 1563.9733 28.215454 1513.3242 28.082031 z M 1175.9863 28.269531 C 1175.8086 28.402344 1175.6308 28.535156 1175.4531 28.667969 C 1159.0866 40.952465 1142.7228 53.243346 1126.3594 65.533203 C 1126.472 266.46223 1126.5886 467.39127 1126.7012 668.32031 C 1172.7775 702.48223 1218.8522 736.64633 1264.9297 770.80664 C 1346.7005 708.99409 1428.4701 647.18004 1510.2422 585.36914 C 1510.3488 412.18424 1510.4598 238.99934 1510.5664 65.814453 C 1493.9438 53.389568 1477.3204 40.965825 1460.6992 28.539062 C 1365.7949 28.450692 1270.8906 28.357898 1175.9863 28.269531 z M 1072.8008 28.361328 L 795.51562 28.365234 C 789.58007 28.406404 784.0561 31.297751 779.58203 35.017578 C 765.95327 45.23286 752.32007 55.440722 738.69141 65.65625 C 738.71521 239.24218 738.73987 412.82812 738.76367 586.41406 C 820.98143 647.92385 903.19689 709.43671 985.41406 770.94727 C 1031.1461 736.54925 1076.8806 702.15449 1122.6152 667.75977 C 1122.5582 467.09895 1122.4986 266.43815 1122.4414 65.777344 C 1105.8936 53.306563 1089.3475 40.833678 1072.8008 28.361328 z M 328.0332 46.125 C 438.08723 46.2027 569.81119 46.283675 679.86523 46.361328 C 692.20528 55.794644 704.54615 65.226918 716.88477 74.662109 C 716.88945 134.23242 716.89366 193.80273 716.89844 253.37305 C 716.65284 253.35093 716.42122 253.22158 716.17188 253.25781 C 714.5906 253.59303 713.40844 254.81928 712.04492 255.61133 C 676.12282 279.64832 640.2014 303.68567 604.2793 327.72266 C 604.2568 280.84505 604.23342 233.96745 604.21094 187.08984 C 597.61328 181.70117 591.01563 176.31251 584.41797 170.92383 L 482.00781 171.41211 C 481.97113 251.16927 481.93509 330.92643 481.89844 410.68359 C 481.03647 410.60537 480.17417 410.70477 479.48047 411.27344 C 474.15745 414.73409 468.92206 418.3283 463.63086 421.83789 C 432.05178 442.96942 400.47165 464.1009 368.89258 485.23242 C 368.87668 353.8125 368.86133 222.39257 368.8457 90.972656 C 368.9542 87.337992 368.93945 80.576379 368.93945 76.792969 C 360.0813 69.885703 339.77942 54.931623 328.0332 46.125 z M 1531.3535 46.134766 C 1571.4681 46.239106 1611.5827 46.340134 1651.6973 46.443359 C 1669.7066 109.50868 1687.7126 172.57496 1705.7207 235.64062 C 1723.7428 172.52409 1741.765 109.40756 1759.7871 46.291016 C 1799.625 46.422837 1881.3712 46.552434 1921.209 46.681641 C 1904.3799 59.255329 1888.4316 71.170195 1879.3008 77.992188 C 1877.3442 212.08309 1877.3711 348.70391 1877.8574 485.32031 C 1771.6077 413.01634 1665.2979 340.78664 1559.0586 268.47656 C 1549.8233 262.18876 1540.5888 255.90109 1531.3535 249.61328 C 1531.3767 181.956 1531.4127 113.97497 1531.3535 48.140625 L 1531.3535 46.134766 z M 1181.9941 46.269531 C 1272.903 46.357831 1363.8118 46.450754 1454.7207 46.539062 C 1467.3347 55.971604 1479.9509 65.401392 1492.5664 74.832031 C 1492.5285 134.21875 1492.4898 193.60547 1492.4512 252.99219 C 1492.1394 252.94441 1491.8418 252.79795 1491.5215 252.8418 L 1491.5176 252.8418 C 1489.9285 253.15699 1488.74 254.38337 1487.3691 255.16602 C 1451.3584 278.93065 1415.3468 302.6963 1379.3359 326.46094 C 1379.3318 279.84636 1379.3266 233.23177 1379.3223 186.61719 C 1372.265 181.22852 1365.2076 175.83984 1358.1504 170.45117 C 1331.3431 170.53777 1304.5358 170.62434 1277.7285 170.71094 C 1270.8502 176.00782 1263.9721 181.30468 1257.0938 186.60156 C 1257.232 260.24544 1257.3695 333.88932 1257.5078 407.5332 C 1256.7982 407.55235 1256.1064 407.73964 1255.5352 408.20898 C 1249.032 412.40219 1242.6096 416.72143 1236.1387 420.96484 L 1144.5977 481.37695 C 1144.5181 345.75976 1144.4377 210.14258 1144.3594 74.525391 C 1156.7253 65.238063 1169.0919 55.949918 1181.4609 46.667969 C 1181.6386 46.535156 1181.8164 46.402344 1181.9941 46.269531 z M 1066.7715 46.361328 C 1079.3291 55.831426 1091.8864 65.301806 1104.4414 74.775391 C 1104.4811 210.29752 1104.522 345.81966 1104.5625 481.3418 C 1098.3682 477.29847 1092.2098 473.19589 1086.0273 469.13281 C 1055.1562 448.74692 1024.2852 428.36049 993.41406 407.97461 C 992.77775 407.74161 992.04776 407.54449 991.33398 407.48242 C 991.38092 334.02214 991.42766 260.56185 991.47461 187.10156 C 988.34557 184.6241 985.21764 182.14341 982.08789 179.66797 C 978.27149 176.65105 974.45508 173.63412 970.63867 170.61719 C 943.77409 170.80014 916.90951 170.98308 890.04492 171.16602 L 869.74609 186.77539 C 869.76893 233.29296 869.79159 279.81055 869.81445 326.32812 C 862.6591 321.64866 855.53803 316.91006 848.39453 312.21094 C 818.58487 292.5259 788.77645 272.84129 758.9668 253.15625 C 758.24664 252.89896 757.48414 252.75061 756.7168 252.70117 C 756.70822 193.35287 756.69983 134.00455 756.69141 74.65625 C 766.47927 67.323142 776.26799 59.990873 786.05469 52.65625 C 790.21491 49.197514 795.30629 46.406114 800.8418 46.365234 L 1066.7715 46.361328 z M 1352.0742 188.46875 C 1355.1569 190.82292 1358.2396 193.17709 1361.3223 195.53125 C 1361.3323 296.87045 1361.3426 398.20964 1361.3516 499.54883 C 1332.8334 520.65951 1304.3152 541.77019 1275.7969 562.88086 L 1275.1113 195.44336 L 1283.8809 188.69336 C 1306.612 188.61846 1329.3431 188.54362 1352.0742 188.46875 z M 964.46875 188.65625 C 967.47071 191.03256 970.47266 193.40886 973.47461 195.78516 C 973.39261 318.44532 973.31055 441.10548 973.22852 563.76562 C 944.78711 542.43295 916.34571 521.10027 887.9043 499.76758 C 887.8516 398.39063 887.79882 297.01368 887.74609 195.63672 C 890.569 193.4681 893.39192 191.29948 896.21484 189.13086 C 918.96614 188.97266 941.71745 188.81446 964.46875 188.65625 z M 578.03711 188.95898 L 586.21094 195.63281 C 586.26234 296.972 586.31379 398.31119 586.36523 499.65039 C 557.51952 521.2819 528.67383 542.91341 499.82812 564.54492 C 499.88803 439.47135 499.94791 314.39779 500.00781 189.32422 C 526.01757 189.20248 552.02735 189.08072 578.03711 188.95898 z " />
</svg>
