<?xml version="1.0" encoding="UTF-8" standalone="no"?>
<!-- Generator: Adobe Illustrator 13.0.0, SVG Export Plug-In . SVG Version: 6.00 Build 14948)  -->

<svg
   version="1.2"
   id="Layer_3"
   x="0px"
   y="0px"
   width="293.41565"
   height="323.52179"
   viewBox="0 0 293.41564 323.52178"
   xml:space="preserve"
   sodipodi:docname="controller.svg"
   inkscape:version="1.1.2 (0a00cf5339, 2022-02-04)"
   xmlns:inkscape="http://www.inkscape.org/namespaces/inkscape"
   xmlns:sodipodi="http://sodipodi.sourceforge.net/DTD/sodipodi-0.dtd"
   xmlns="http://www.w3.org/2000/svg"
   xmlns:svg="http://www.w3.org/2000/svg"
   xmlns:rdf="http://www.w3.org/1999/02/22-rdf-syntax-ns#"
   xmlns:cc="http://creativecommons.org/ns#"
   xmlns:dc="http://purl.org/dc/elements/1.1/"
   xmlns:ns="&amp;#38;ns_sfw;"><defs
   id="defs94" /><sodipodi:namedview
   id="namedview92"
   pagecolor="#ffffff"
   bordercolor="#666666"
   borderopacity="1.0"
   inkscape:pageshadow="2"
   inkscape:pageopacity="0.0"
   inkscape:pagecheckerboard="0"
   showgrid="false"
   inkscape:zoom="1.0263804"
   inkscape:cx="295.69933"
   inkscape:cy="262.57321"
   inkscape:window-width="1920"
   inkscape:window-height="996"
   inkscape:window-x="0"
   inkscape:window-y="0"
   inkscape:window-maximized="1"
   inkscape:current-layer="Layer_3"
   fit-margin-top="0"
   fit-margin-left="0"
   fit-margin-right="0"
   fit-margin-bottom="0" />
<metadata
   id="metadata55">
	<rdf:RDF>
		<cc:Work
   rdf:about="">
			<dc:format>image/svg+xml</dc:format>
			<dc:type
   rdf:resource="http://purl.org/dc/dcmitype/StillImage" />
			
		</cc:Work>
	</rdf:RDF>
	<ns:sfw>
		<ns:slices />
		<ns:sliceSourceBounds
   x="818.479"
   y="376.415"
   width="285.368"
   height="315.489"
   bottomLeftOrigin="true" />
	</ns:sfw>
</metadata>
<path
   id="path912"
   style="fill:#000000"
   d="m 262.79877,0.00974226 c -77.97804,0.002 -155.95651,-0.01198 -233.934283,0.01616 -8.99143,0.217403 -17.72286,4.83712204 -23.0266599,12.09125874 -4.05606,5.45383 -6.08146001,12.322768 -5.81445001,19.101563 0.002,87.789266 -0.007,175.578766 0.0137,263.367886 0.19599,8.98248 4.78408001,17.71515 12.01366991,23.03641 5.47308,4.10224 12.38541,6.14544 19.20547,5.87501 77.742783,-8e-5 155.485873,0.008 233.228453,-0.0132 9.16512,-0.20133 18.06881,-4.97732 23.35638,-12.45791 3.88574,-5.39089 5.81057,-12.10435 5.5515,-18.73237 -0.002,-87.79109 0.007,-175.58241 -0.0137,-263.373357 -0.19771,-9.200567 -5.0116,-18.135845 -12.53866,-23.4183287 -5.21182,-3.712812 -11.64674,-5.65884604 -18.04144,-5.49308504 z M 29.884697,10.011696 c 78.085493,0.0028 156.171213,-0.0069 234.256563,0.01167 7.19312,0.127623 14.09153,4.570204 17.21268,11.048541 1.66684,3.315994 2.21083,7.083372 2.03859,10.762835 -0.002,87.505268 0.0116,175.010828 -0.016,262.515908 -0.16527,7.29298 -4.77232,14.25564 -11.4084,17.2808 -3.20133,1.51097 -6.78514,2.03304 -10.30104,1.86463 -77.49876,-0.002 -154.9978,0.0115 -232.496383,-0.0158 -7.14909,-0.16624 -13.98609,-4.59031 -17.09947,-11.02464 -1.64935,-3.29232 -2.2189899,-7.02807 -2.04596,-10.68259 7.2e-4,-87.50398 -0.009,-175.00818 0.0117,-262.512021 0.12794,-7.273269 4.67232,-14.246228 11.26867,-17.312459 2.66609,-1.28053 5.62289,-1.93697 8.57903,-1.936844 z m 23.65039,8.15039 c -11.70477,0.215668 -23.18551,5.575001 -30.90421,14.371315 -7.36157,8.258016 -11.28786,19.469004 -10.65223,30.517022 0.50828,9.605378 4.48888,18.898777 10.76527,26.148367 4.68209,5.69536 9.82736,10.98377 14.72477,16.48869 2.15216,2.60934 4.21935,5.40652 5.33726,8.63008 0.83449,2.68978 0.30274,5.61298 -0.95905,8.07948 -3.86028,7.80607 -6.95123,15.99946 -9.07078,24.44995 -5.21268,20.49835 -4.7341,42.40311 1.37047,62.65382 6.07814,20.41596 17.88288,39.06534 33.66383,53.36492 15.38036,14.02259 34.529283,23.89406 54.915973,28.13223 23.0951,4.87399 47.65786,2.70249 69.46128,-6.38309 20.13055,-8.29546 37.84967,-22.31164 50.57188,-39.97955 10.71786,-14.77909 17.92472,-32.08495 20.80985,-50.11475 3.61733,-22.37948 0.71726,-45.80595 -8.4906,-66.54013 C 245.52371,106.26707 229.22574,87.60233 209.02944,75.164007 190.3737,63.606622 168.42337,57.454064 146.4777,57.64529 c -8.86526,0.04521 -17.69745,1.188642 -26.35633,3.053303 -2.86883,0.627858 -5.89306,0.771248 -8.79526,0.106071 -2.61596,-0.596916 -5.27663,-1.476025 -7.27592,-3.346767 -2.83005,-2.544142 -5.013693,-5.707228 -7.089313,-8.871983 -0.64204,-1.015152 -1.41552,-2.241583 -2.0797,-3.358038 -2.54805,-4.276556 -4.91959,-8.724039 -8.31719,-12.410067 -7.45767,-8.493939 -18.3192,-14.050307 -29.65792,-14.596729 -1.12213,-0.06959 -2.24713,-0.07208 -3.37098,-0.05899 z m 1.11719,19.355469 c 7.27838,-0.04997 14.40858,3.824481 18.38904,9.90729 3.94364,5.918936 4.77779,13.785004 2.05691,20.370287 -0.4067,1.025268 -0.89693,2.015825 -1.45571,2.966564 -0.1471,0.230653 -0.52903,0.873165 -0.80152,1.250255 -3.60778,5.278495 -9.56691,8.895788 -15.9474,9.505969 -6.9479,0.75247 -14.15864,-2.058388 -18.76193,-7.318937 -4.84575,-5.402297 -6.7399,-13.278935 -4.819,-20.285055 1.88109,-7.1668 7.59254,-13.199303 14.69175,-15.368388 2.1457,-0.681201 4.39749,-1.019816 6.64786,-1.027985 z m -27.89062,6.205078 c -4.23435,7.416808 -5.34038,16.543144 -2.9384,24.744439 2.34265,8.158093 8.05177,15.278958 15.52875,19.304638 8.38244,4.57688 18.83622,5.12586 27.63639,1.39839 8.92263,-3.69683 15.97886,-11.621176 18.52704,-20.948464 2.10269,-7.500897 1.3566,-15.763331 -2.07995,-22.756815 3.83666,6.504446 7.54362,13.251075 13.00367,18.569764 2.8617,2.810085 6.439513,4.873211 10.317223,5.905607 2.2604,0.693871 4.60385,1.117188 6.96426,1.25705 -1.24541,0.333464 -2.49058,0.667806 -3.73633,1 -0.48667,-0.0062 -0.95551,0.381925 -1.45684,0.592365 -5.3125,2.478463 -10.625863,4.955077 -15.937693,7.434979 -0.49723,0.08721 -0.89116,0.577276 -1.38989,0.876558 -4.78088,3.345496 -9.56075,6.692446 -14.34058,10.039456 -0.50157,0.2023 -0.76627,0.72437 -1.21607,1.12233 -4.12394,4.12394 -8.24788,8.24787 -12.37182,12.37181 -0.45686,0.27821 -0.63107,0.84763 -1.00319,1.31062 -3.04886,4.35131 -6.09641,8.70461 -9.14524,13.05657 0.4373,-4.26004 -0.65431,-8.58293 -2.78204,-12.27463 -2.35545,-4.34768 -5.63524,-8.09016 -9.0038,-11.67402 -4.31996,-4.7371 -8.73773,-9.40401 -12.68372,-14.462848 -4.69266,-6.293275 -7.2627,-14.237431 -6.6518,-22.104232 0.37017,-5.402888 2.14314,-10.693743 5.04909,-15.259661 -0.0964,0.165365 -0.19271,0.33073 -0.28906,0.496094 z M 147.28705,67.638649 c 2.28701,0.0051 4.44523,0.06967 6.75294,0.213217 3.76037,0.256124 7.55781,0.659101 11.24315,1.319986 -0.8174,3.050863 -1.63542,6.101561 -2.45312,9.152344 -10.37908,-1.659999 -21.02479,-1.673226 -31.40235,0.0059 -0.8164,-3.046875 -1.63281,-6.09375 -2.44922,-9.140625 2.91751,-0.497911 5.85786,-0.859888 8.80469,-1.132812 0.97055,-0.07904 2.20572,-0.17731 3.18867,-0.231139 2.16197,-0.127071 4.16502,-0.1808 6.31524,-0.18683 z m -0.14063,19.433591 c 9.87778,-0.0112 19.75058,1.66234 29.08203,4.89844 0.38209,0.14245 1.15639,0.40981 1.54848,0.55492 16.58524,6.10452 31.02426,17.18716 41.30309,31.52125 0.32202,0.45791 0.84116,1.17845 1.2279,1.75523 3.19685,4.68837 5.94679,9.68309 8.17835,14.90102 0.34643,0.81016 0.79411,1.89194 1.15391,2.81659 3.48419,8.94265 5.4506,18.46411 5.88515,28.04865 0.0315,0.77244 0.072,1.85021 0.0798,2.74045 0.26383,15.88184 -3.86897,31.80869 -11.86543,45.53658 -9.11416,15.82029 -23.26478,28.66599 -39.88297,36.22607 -8.94929,4.11719 -18.60828,6.65448 -28.41148,7.58088 -0.50567,0.0421 -1.36271,0.11981 -2.00643,0.16163 -4.53852,0.32649 -9.31864,0.27926 -13.71623,-0.0894 -1.25857,-0.11285 -2.27497,-0.21503 -3.52929,-0.36524 -6.3801,-0.79137 -12.67484,-2.27046 -18.73438,-4.41992 -0.39549,-0.14262 -1.31274,-0.47583 -1.69863,-0.62422 -18.914573,-7.14257 -35.183373,-21.00745 -45.264443,-38.52939 -9.28182,-15.93373 -13.26554,-34.83792 -11.39546,-53.16994 0.4013,-4.07447 1.14752,-8.29132 2.09095,-12.15692 3.86155,-15.8852 12.27846,-30.61273 23.9656,-42.03853 11.55459,-11.37291 26.280063,-19.50489 42.098743,-23.09417 6.51647,-1.50235 13.20429,-2.24478 19.89074,-2.25402 z m -2.14843,3.3125 c -17.43421,0.39024 -34.69273,6.32789 -48.660923,16.77168 -14.51927,10.77465 -25.49733,26.26147 -30.72261,43.58109 -5.73569,18.82487 -4.72429,39.64007 2.9382,57.77836 7.24703,17.31967 20.399,32.08528 36.766613,41.28243 13.47493,7.61809 29.05832,11.42863 44.52793,10.90814 15.87197,-0.47608 31.58085,-5.50252 44.74631,-14.38841 15.05654,-10.09434 26.77713,-25.09149 32.826,-42.1894 7.02867,-19.65178 6.48998,-41.89722 -1.54642,-61.16509 -7.21363,-17.48378 -20.44312,-32.39778 -36.93254,-41.66024 -13.2658,-7.49444 -28.57316,-11.30838 -43.80458,-10.91983 l -0.1,9.2e-4 z m 2.15039,9.97266 c 5.28771,-0.008 10.57306,0.55638 15.74414,1.6582 0.39687,0.0956 1.12693,0.24652 1.54744,0.34986 14.97233,3.4901 28.76271,11.76404 38.93399,23.28594 9.98445,11.19224 16.50539,25.43663 18.34732,40.32875 1.63928,12.93678 -0.0695,26.31174 -5.09828,38.35576 -0.14629,0.3456 -0.49901,1.18964 -0.64459,1.5111 -7.08696,16.16465 -20.06777,29.64433 -35.94734,37.34772 -16.45022,8.05824 -35.88686,9.74107 -53.49035,4.69639 -14.13712,-4.0029 -27.014863,-12.2795 -36.545093,-23.46038 -5.09748,-5.95682 -9.25477,-12.71348 -12.28865,-19.94248 -0.18636,-0.48095 -0.52961,-1.28244 -0.75718,-1.89458 -2.00595,-5.15271 -3.38573,-10.54037 -4.20766,-16.00581 -0.0545,-0.45897 -0.18034,-1.26752 -0.24748,-1.86636 -0.24919,-1.95629 -0.4038,-4.13643 -0.48885,-5.96958 -0.0855,-2.07921 -0.0779,-4.39092 0.002,-6.32813 0.20231,-4.75939 0.84868,-9.49883 1.92774,-14.13867 0.11821,-0.44693 0.29844,-1.24528 0.45639,-1.82693 4.03642,-15.63589 13.37079,-29.80007 26.021133,-39.81611 11.92648,-9.54096 26.84578,-15.2439 42.08928,-16.13776 1.54641,-0.10403 3.09658,-0.13385 4.64609,-0.14693 z m -0.66602,2.37109 c -15.63486,0.0893 -31.17733,5.42491 -43.57227,14.95508 -13.461673,10.27027 -23.192903,25.35047 -26.843193,41.89798 -3.74843,16.64125 -1.46135,34.59367 6.50278,49.69435 7.88758,15.14224 21.267893,27.33817 37.096513,33.75006 16.83094,6.89198 36.26187,7.13599 53.25897,0.66053 15.74019,-5.93315 29.25631,-17.51942 37.549,-32.15269 7.4496,-13.0283 10.64729,-28.40172 9.12832,-43.32444 -1.48265,-15.00807 -7.80204,-29.48466 -17.79791,-40.77784 -10.84315,-12.34701 -25.96196,-20.88647 -42.17576,-23.63675 -4.3389,-0.74787 -8.7437,-1.10296 -13.14645,-1.06628 z m 0.65234,9.9961 c 3.20851,-0.004 6.41688,0.23781 9.58789,0.72656 0.7388,0.11901 1.77627,0.29184 2.62409,0.4659 0.90389,0.17879 1.68994,0.3471 2.63664,0.58023 1.1814,0.28449 2.42067,0.62606 3.47155,0.9506 12.94733,3.89222 24.50204,12.15879 32.44351,23.09116 0.26607,0.3725 0.75075,1.03556 1.08444,1.53418 6.8092,9.8605 10.65486,21.72086 10.95462,33.69824 -0.20438,-4.4277 -0.72026,-8.85238 -1.80663,-13.15659 -3.21523,-13.27119 -10.92619,-25.39014 -21.5768,-33.93386 -9.48848,-7.67657 -21.24925,-12.516 -33.41123,-13.62557 -11.93253,-1.17677 -24.17493,1.18363 -34.81981,6.69968 -12.85153,6.59526 -23.241673,17.79662 -28.916893,31.07463 -6.29058,14.52249 -6.70278,31.43771 -1.25917,46.28586 4.81236,13.26638 14.288163,24.74687 26.336543,32.07835 11.18254,6.87691 24.57677,10.01159 37.65197,8.94325 13.58628,-1.01684 26.75715,-6.67707 36.87145,-15.80066 10.08659,-8.99364 17.17175,-21.31456 19.72409,-34.59602 0.87039,-4.35181 1.23373,-8.79423 1.22015,-13.22883 0.22391,12.30981 -3.24787,24.6673 -9.94574,35.0066 -7.98043,12.42828 -20.44663,21.92146 -34.60409,26.17157 -5.06212,1.53764 -10.32247,2.40503 -15.60642,2.63628 -0.3789,0.003 -1.18071,0.0401 -1.72343,0.0443 -13.10854,0.23824 -26.25779,-3.7686 -36.96412,-11.34465 -6.31443,-4.43139 -11.809213,-10.0256 -16.126903,-16.41839 -0.20563,-0.32894 -0.6495,-0.97631 -0.93474,-1.43778 -6.27923,-9.84335 -9.67192,-21.47517 -9.72932,-33.14686 -0.0153,-1.0357 0.025,-2.32028 0.0508,-3.19856 0.50974,-12.71923 5.02807,-25.23856 12.79047,-35.33047 8.478093,-11.18847 20.808213,-19.4002 34.429953,-22.82459 5.0744,-1.29138 10.31076,-1.94896 15.54715,-1.94455 z m 0.01,10.03906 c 2.89127,-0.004 5.78266,0.22984 8.63476,0.70508 0.59708,0.0995 1.51436,0.27026 2.23054,0.41967 5.26508,1.10895 10.35865,3.02719 15.04876,5.66431 0.48943,0.28228 1.27389,0.73388 1.86133,1.10156 11.03434,6.80193 19.38512,17.80443 22.95545,30.26568 4.05821,13.98126 2.03159,29.63151 -5.61559,42.03895 -3.74817,6.20673 -8.83123,11.58478 -14.74611,15.76959 -0.33918,0.22403 -0.97599,0.68333 -1.44732,0.98136 -10.23104,6.79779 -22.90557,9.732 -35.0898,8.26663 -11.85724,-1.32147 -23.16444,-6.88749 -31.48775,-15.42754 -7.81716,-7.91591 -13.042273,-18.35328 -14.595553,-29.37671 -1.59337,-11.01595 0.33619,-22.54458 5.602843,-32.36561 0.32619,-0.60298 0.80822,-1.48175 1.21875,-2.17383 5.06532,-8.53962 12.59245,-15.58664 21.42383,-20.11719 0.29942,-0.13835 0.93515,-0.47547 1.38316,-0.6777 7.04054,-3.35026 14.82848,-5.07557 22.6227,-5.07425 z m -1.27148,1.89258 c -13.00635,0.26256 -25.80278,5.79716 -34.91725,15.0774 -8.76294,8.80284 -14.124613,20.90647 -14.674773,33.32277 -0.60951,11.94738 3.14783,24.06948 10.483793,33.52864 7.95371,10.38269 20.03018,17.53131 32.99606,19.35485 12.15835,1.78859 24.94517,-0.9685 35.21285,-7.74507 11.07446,-7.20922 19.17166,-18.86885 21.92081,-31.80733 2.81259,-12.84458 0.43827,-26.75914 -6.61024,-37.87553 -7.05359,-11.28614 -18.6785,-19.63457 -31.67422,-22.56886 -4.17029,-0.95937 -8.4592,-1.38605 -12.73703,-1.28687 z m 1.27539,9.98437 c 0.81435,0.002 1.63135,0.0179 2.33325,0.0641 4.28031,0.23143 8.5171,1.17156 12.5105,2.72499 -9.91276,0 -19.82553,0 -29.73829,0 4.72857,-1.86097 9.81717,-2.77742 14.89454,-2.78906 z m -16.97461,3.96094 c -6.83985,6.83919 -13.67969,13.67838 -20.51954,20.51758 4.05189,-9.32317 11.74253,-16.96365 21.04493,-21.04297 -0.17513,0.17513 -0.35026,0.35026 -0.52539,0.52539 z m 34.08398,-0.21289 c 9.00823,4.11437 16.38626,11.63585 20.34375,20.71289 -7.00586,-7.00456 -14.01172,-14.00912 -21.01758,-21.01367 0.22461,0.10026 0.44922,0.20052 0.67383,0.30078 z m -5.47266,9.04297 c 5.49219,5.49153 10.98438,10.98307 16.47657,16.47461 0,7.76562 0,15.53125 0,23.29687 -5.49219,5.49219 -10.98438,10.98438 -16.47657,16.47656 -7.76562,0 -15.53125,0 -23.29687,0 -5.49219,-5.49218 -10.98438,-10.98437 -16.47656,-16.47656 0,-7.76627 0,-15.53255 0,-23.29883 5.49153,-5.49088 10.98307,-10.98177 16.47461,-16.47265 7.76627,0 15.53255,0 23.29882,0 z m -49.77343,43.00195 c -1.64685,-4.17103 -2.54997,-8.62533 -2.75586,-13.10156 -0.006,-0.36458 -0.0382,-1.1399 -0.0333,-1.66091 -0.009,-5.11285 0.93816,-10.22677 2.78919,-14.99339 0,9.91862 0,19.83724 0,29.75586 z m 76.30859,-29.5957 c 3.67252,9.41037 3.62717,20.18302 -0.0586,29.58203 0,-9.90886 0,-19.81771 0,-29.72656 l 0.0376,0.0927 z m -38.75195,1.34375 c -5.74943,0.14545 -11.06925,4.47549 -12.40772,10.06517 -1.37721,5.18637 0.74748,11.08552 5.146,14.17311 4.49533,3.3189 11.10261,3.35075 15.61029,0.0351 4.32502,-3.03287 6.52718,-8.77518 5.26917,-13.91761 -1.20754,-5.47531 -6.18474,-9.88568 -11.7961,-10.30484 -0.60503,-0.061 -1.21418,-0.0677 -1.82164,-0.0509 z m 0.80078,9.99414 c 2.23512,0.0779 3.88662,2.74262 2.8566,4.76016 -0.78991,1.84609 -3.33755,2.64833 -4.97429,1.4189 -1.62257,-1.04035 -2.02604,-3.50893 -0.71124,-4.9518 0.68172,-0.82233 1.75497,-1.32072 2.82893,-1.22726 z m -16.66602,40.86133 c -9.32334,-4.05084 -16.96938,-11.73826 -21.04297,-21.04493 7.01433,7.01498 14.02865,14.02995 21.04297,21.04493 z m 53.59766,-20.3418 c -4.12032,9.00511 -11.6525,16.3606 -20.71875,20.33008 7.01042,-7.01042 14.02083,-14.02084 21.03125,-21.03125 -0.10417,0.23372 -0.20833,0.46745 -0.3125,0.70117 z m -22.29297,20.98437 c -9.44959,3.73469 -20.29134,3.69732 -29.74609,0 9.91536,0 19.83073,0 29.74609,0 z" /><path
   id="path3"
   d="M 29.818297,4.0097423 C 15.573297,4.0117423 4.0253771,15.557711 4.0233771,29.802711 V 293.70506 c 0.002,14.245 11.5499199,25.79096 25.7949199,25.79296 H 263.59955 c 14.245,-0.002 25.79297,-11.54796 25.79297,-25.79296 V 29.802711 c 0,-14.245 -11.54797,-25.7909687 -25.79297,-25.7929687 z m 0,2.001954 H 263.59955 c 13.141,0.023 23.76997,10.6510147 23.79297,23.7910147 V 293.70506 c -0.023,13.14099 -10.65197,23.76801 -23.79297,23.79101 H 29.818297 c -13.14,-0.023 -23.7699699,-10.65001 -23.7929699,-23.79101 V 29.802711 c 0.023,-13.141 10.6529699,-23.7680147 23.7929699,-23.7910147 z m 24.7539,16.1367177 c -21.345,0.002 -38.64839,17.305391 -38.65039,38.650391 0,9.721 3.73738,18.473328 9.48438,25.361325 8.591,10.296 13.96911,15.1393 16.78711,19.0293 2.798,3.832 5.03725,7.48867 5.03125,11.88867 0,2.001 -0.45599,4.19222 -1.58399,6.69922 -7.838,15.593 -12.45512,33.14559 -12.45312,51.80859 0,62.932 51.01626,113.94922 113.947263,113.94922 62.932,0 113.94922,-51.01622 113.94922,-113.94922 0,-62.93 -51.01622,-113.947214 -113.94922,-113.949214 -8.434,0 -16.63092,0.99539 -24.54492,2.65039 -2.654,0.555 -4.93461,0.966797 -7.34961,0.966797 -2.61,0 -5.40812,-0.473844 -9.07812,-1.839844 -6.673003,-2.417 -12.249353,-11.790047 -17.652353,-21.123047 -6.869,-11.785999 -19.2735,-20.140578 -33.9375,-20.142578 z m 0.002,2.001954 c 13.878,-0.003 25.64298,7.900484 32.20898,19.146484 5.466,9.293 10.91064,19.021234 18.681643,21.990234 3.836,1.431 6.9173,1.966797 9.7793,1.966797 2.647,0 5.07886,-0.449765 7.75586,-1.009765 7.801,-1.631 15.85972,-2.607422 24.13672,-2.607422 30.916,0 58.89815,12.528109 79.16015,32.787104 20.261,20.26401 32.78711,48.24416 32.78711,79.16016 0,30.916 -12.52611,58.89816 -32.78711,79.16016 -20.262,20.261 -48.24215,32.78711 -79.16015,32.78711 -30.916,0 -58.897163,-12.52611 -79.160163,-32.78711 -20.259,-20.262 -32.78906,-48.24216 -32.78906,-79.16016 0,-18.347 4.53581,-35.59531 12.25781,-50.94531 l -0.89258,-0.44922 0.91211,0.41016 c 1.226,-2.72 1.76177,-5.21244 1.75977,-7.52344 -0.004,-5.123 -2.58711,-9.18545 -5.41211,-13.06445 -3.058,-4.189 -8.33414,-8.89782 -16.86914,-19.13282 -5.49,-6.585997 -9.01758,-14.879075 -9.01758,-24.080075 0,-10.124 4.09742,-19.279063 10.73242,-25.914063 6.636,-6.635 15.79102,-10.734374 25.91602,-10.734374 z m 0.0605,7.365234 c -15.497,0.002 -28.05659,12.563547 -28.05859,28.060547 0.001,15.498 12.56059,28.058591 28.05859,28.058591 15.497,0 28.0586,-12.561591 28.0586,-28.058591 0,-15.497 -12.5606,-28.058547 -28.0586,-28.060547 z m 0,2.001953 c 14.392,0.025 26.0316,11.666594 26.0586,26.058594 -0.027,14.392 -11.6666,26.032641 -26.0586,26.056641 -14.391,-0.025 -26.03359,-11.664641 -26.05859,-26.056641 0.025,-14.391 11.66759,-26.033594 26.05859,-26.058594 z m 113.994143,38.621094 -1.58593,5.914062 11.58984,3.105469 1.58594,-5.916016 z m -42.99804,0.0078 -11.58985,3.105469 1.58399,5.912109 11.58984,-3.105468 z m 60.63672,5.291016 -2.58789,5.548823 10.875,5.07032 2.58593,-5.54688 z m -78.25,0.0039 -10.875003,5.072267 2.58789,5.54883 10.875003,-5.07227 z m 39.11914,3.634766 c -52.181003,0 -94.480423,42.299509 -94.482433,94.478509 0.002,52.18 42.30043,94.48043 94.482433,94.48243 52.18,-0.002 94.48042,-42.30143 94.48242,-94.48243 -0.002,-52.178 -42.30142,-94.478509 -94.48242,-94.478509 z m 0,1.996091 c 25.541,0 48.65658,10.35089 65.39257,27.087888 16.73701,16.739 27.08985,39.85158 27.08985,65.39258 0,25.542 -10.35284,48.65749 -27.08985,65.39649 -16.73699,16.736 -39.85157,27.08789 -65.39257,27.08789 -25.542,0 -48.655583,-10.35189 -65.392583,-27.08789 -16.738,-16.74 -27.08789,-39.85549 -27.08789,-65.39649 0,-25.541 10.34889,-48.65358 27.08789,-65.39258 16.737,-16.735998 39.850583,-27.086888 65.392583,-27.087888 z m -55.576173,2.65821 -9.83008,6.88281 3.51172,5.01562 9.83007,-6.88281 z m 111.140623,0.006 -3.51172,5.01563 9.83203,6.88281 3.51172,-5.01758 z m -55.56445,8.6211 c -44.843,0.002 -81.197273,36.353258 -81.197273,81.197258 0,44.844 36.353273,81.19632 81.197273,81.19532 44.844,0 81.19526,-36.35132 81.19726,-81.19532 -0.002,-44.844 -36.35226,-81.195258 -81.19726,-81.197258 z m 0,2 c 21.873,0 41.664,8.863258 56,23.197258 14.332,14.335 23.19531,34.127 23.19531,56 0,21.871 -8.86331,41.66305 -23.19531,55.99805 -14.336,14.334 -34.127,23.19727 -56,23.19727 -21.871,0 -41.667,-8.86327 -56.000003,-23.19727 -14.334,-14.335 -23.19727,-34.12505 -23.19727,-55.99805 0,-21.872 8.86327,-41.664 23.19727,-56 14.333003,-14.334 34.127003,-23.197258 56.000003,-23.197258 z m 70.32226,0.38867 -4.33008,4.330078 8.48438,8.48437 4.33008,-4.33007 z m -140.646483,0.004 -8.48438,8.484368 4.32813,4.33008 8.48437,-8.48437 z m 70.324223,9.972648 c -38.014,0.003 -68.830033,30.81803 -68.832033,68.83203 0.002,38.013 30.818033,68.83108 68.832033,68.83008 38.013,0 68.83007,-30.81708 68.83007,-68.83008 0,-38.015 -30.81707,-68.83003 -68.83007,-68.83203 z m 0,2.00196 c 18.456,0 35.15786,7.47922 47.25586,19.57421 12.095,12.098 19.57221,28.79786 19.57421,47.25586 -0.002,18.456 -7.47921,35.15886 -19.57421,47.25586 -12.098,12.096 -28.79786,19.57418 -47.25586,19.57618 -18.459,-0.002 -35.15886,-7.48018 -47.255863,-19.57618 -12.095,-12.097 -19.57422,-28.79786 -19.57422,-47.25586 0,-18.458 7.47922,-35.15785 19.57422,-47.25586 12.097003,-12.096 28.797863,-19.57421 47.255863,-19.57421 z m -82.941413,1.4414 -6.88281,9.82813 5.01367,3.51172 6.88281,-9.82813 z m 165.890633,0.01 -5.01563,3.51172 6.88281,9.83008 5.01563,-3.51172 z m -82.94922,6.58789 c -32.469,0 -58.789023,26.32201 -58.791023,58.79101 0.002,32.469 26.322023,58.79007 58.791023,58.78907 32.469,0 58.78901,-26.32007 58.79101,-58.78907 h -0.002 c 0,-32.469 -26.32006,-58.79101 -58.78906,-58.79101 z m 0,2 c 15.685,0 29.87725,6.35576 40.15625,16.63476 10.28,10.279 16.63281,24.47025 16.63281,40.15625 0,15.685 -6.35381,29.87725 -16.63281,40.15625 -10.279,10.279 -24.47025,16.63282 -40.15625,16.63282 -15.685,0 -29.87725,-6.35482 -40.15625,-16.63282 -10.280003,-10.279 -16.634773,-24.47025 -16.634773,-40.15625 0,-15.685 6.35577,-29.87725 16.634773,-40.15625 10.279,-10.279 24.47125,-16.63476 40.15625,-16.63476 z m -93.042973,6.78125 -5.07031,10.875 5.54882,2.58789 5.07032,-10.875 z m 186.066403,0.002 -5.54882,2.58789 5.07031,10.875 5.54883,-2.58789 z m -93.02343,3.09375 c -25.91,0.002 -46.91407,21.00506 -46.91407,46.91406 0,25.911 21.00307,46.91402 46.91407,46.91602 25.911,-0.002 46.91406,-21.00502 46.91406,-46.91602 0,-25.909 -21.00306,-46.91206 -46.91406,-46.91406 z m 0,2 c 12.406,0 23.62676,5.0263 31.75976,13.1543 8.13,8.132 13.1543,19.35476 13.1543,31.75976 0,12.406 -5.0243,23.62777 -13.1543,31.75977 -8.133,8.128 -19.35476,13.1543 -31.75976,13.1543 -12.405,0 -23.62977,-5.0263 -31.75977,-13.1543 -8.13,-8.132 -13.1523,-19.35277 -13.1543,-31.75977 0.002,-12.405 5.0243,-23.62776 13.1543,-31.75976 8.13,-8.128 19.35477,-13.1543 31.75977,-13.1543 z m -14.13477,10.78906 -19.99023,19.98829 v 28.26953 l 19.99023,19.99218 h 0.41406 27.85547 l 19.99024,-19.99023 v -28.27148 l -19.99219,-19.98829 z m 114.44727,1.03711 -5.91407,1.58594 3.10547,11.58985 5.91602,-1.58594 z m -200.623053,0.004 -3.10547,11.58984 5.91406,1.58399 3.10352,-11.58985 z m 87.003913,0.96094 h 26.61132 l 18.82032,18.81836 v 26.60937 l -18.82032,18.82031 h -26.60937 l -18.82031,-18.82031 v -26.61133 z m -91.218753,16.95508 -0.50586,5.77343 -5.65039,6.30469 11.20898,0.41211 1.04688,-11.95508 z m 209.052733,0 -6.10156,0.53515 1.04687,11.95313 10.72266,-0.28711 -5.18359,-6.64844 z m -104.5293,5.78125 c -5.184,0 -9.38281,4.20171 -9.38281,9.38671 0,5.185 4.19881,9.38377 9.38281,9.38477 5.186,0 9.38868,-4.19877 9.38868,-9.38477 0,-5.185 -4.20268,-9.38671 -9.38868,-9.38671 z m 0,1.99804 c 4.08,0.008 7.38163,3.30967 7.39063,7.38867 -0.009,4.08 -3.31063,7.37872 -7.39063,7.38672 -4.078,-0.008 -7.37676,-3.30672 -7.38476,-7.38672 0.008,-4.08 3.30676,-7.38067 7.38476,-7.38867 z m -99.470703,10.06836 -11.20898,0.35156 5.57617,5.51563 0.58008,6.62109 6.09961,-0.5332 z m 198.945313,0 -1.04492,11.95313 6.09766,0.53515 0.56054,-6.40234 4.86524,-5.73438 z m -1.96289,17.22656 -3.10547,11.58985 5.91407,1.58398 3.10547,-11.58984 z m -195.011723,0.0137 -5.91406,1.58398 3.10547,11.58984 5.91406,-1.58398 z m 190.083993,16.61132 -5.07031,10.875 5.54882,2.58594 5.07032,-10.875 z m -185.130863,0.0176 -5.54883,2.58594 5.07031,10.875 5.54883,-2.58594 z m 177.330083,15.51367 -6.88282,9.83008 5.01563,3.51172 6.88281,-9.83203 z m -169.597663,0.004 -5.01367,3.51172 6.88281,9.82812 5.01367,-3.50976 z m 159.298833,13.92578 -8.48438,8.48438 4.32813,4.33007 8.48437,-8.48632 z m -148.949223,0.006 -4.33008,4.33008 8.48438,8.48437 4.33007,-4.33007 z m 12.57031,11.92969 -3.50976,5.01367 9.82812,6.88281 3.51172,-5.01562 z m 123.759773,0 -9.83008,6.88476 3.51172,5.01368 9.83008,-6.88282 z m -14.44141,9.5625 -10.875,5.07226 2.58789,5.54688 10.875,-5.07031 z m -94.843753,0.006 -2.58789,5.54687 10.875003,5.07032 2.58594,-5.54688 z m 15.927743,6.9043 -1.58399,5.91406 11.5918,3.10547 1.58398,-5.91407 z m 63.00781,0.002 -11.5918,3.10547 1.58399,5.91211 11.59179,-3.10547 z m -46.14649,4.02539 -0.5332,6.09961 6.29102,0.54883 6.05859,3.92382 0.13672,-9.52734 z m 29.26758,0 -11.95508,1.04492 0.13868,9.52734 6.125,-3.92968 6.22461,-0.54297 z"
   style="fill:#ffffff" />











































</svg>
