<?xml version="1.0" encoding="UTF-8" standalone="no"?>
<!-- Generator: Adobe Illustrator 13.0.0, SVG Export Plug-In . SVG Version: 6.00 Build 14948)  -->

<svg
   version="1.1"
   id="Ebene_1"
   x="0px"
   y="0px"
   width="585.95825"
   height="142.08017"
   viewBox="-8.038 -8.624 585.95825 142.08017"
   enable-background="new -8.038 -8.624 584 140"
   xml:space="preserve"
   sodipodi:docname="system.svg"
   inkscape:version="1.1.2 (0a00cf5339, 2022-02-04)"
   xmlns:inkscape="http://www.inkscape.org/namespaces/inkscape"
   xmlns:sodipodi="http://sodipodi.sourceforge.net/DTD/sodipodi-0.dtd"
   xmlns:xlink="http://www.w3.org/1999/xlink"
   xmlns="http://www.w3.org/2000/svg"
   xmlns:svg="http://www.w3.org/2000/svg"><defs
   id="defs205">
	
	
	
	
	
	

		
		
		
		
		
	
			<linearGradient
   id="linearGradient3187"
   gradientUnits="userSpaceOnUse"
   x1="503.86719"
   y1="-2.6240001"
   x2="503.86719"
   y2="127.376">
				<stop
   offset="0.0051"
   style="stop-color:#FF6F0D"
   id="stop3181" />
				<stop
   offset="0.3807"
   style="stop-color:#FF0000"
   id="stop3183" />
				<stop
   offset="1"
   style="stop-color:#A80000"
   id="stop3185" />
			</linearGradient>
			
			
		
		
		
		
		
		
		
	
			<linearGradient
   id="linearGradient3273"
   gradientUnits="userSpaceOnUse"
   x1="119.5562"
   y1="-2.6240001"
   x2="119.5561"
   y2="127.376">
				<stop
   offset="0.0051"
   style="stop-color:#FF6F0D"
   id="stop3267" />
				<stop
   offset="0.3807"
   style="stop-color:#FF0000"
   id="stop3269" />
				<stop
   offset="1"
   style="stop-color:#A80000"
   id="stop3271" />
			</linearGradient>
			
			
		
			<linearGradient
   id="linearGradient3231"
   gradientUnits="userSpaceOnUse"
   x1="119.5562"
   y1="-2.6240001"
   x2="119.5561"
   y2="127.376">
				<stop
   offset="0.0051"
   style="stop-color:#FF6F0D"
   id="stop3225" />
				<stop
   offset="0.3807"
   style="stop-color:#FF0000"
   id="stop3227" />
				<stop
   offset="1"
   style="stop-color:#A80000"
   id="stop3229" />
			</linearGradient>
			
			
		
			<linearGradient
   id="linearGradient3217"
   gradientUnits="userSpaceOnUse"
   x1="75.612801"
   y1="-2.6240001"
   x2="75.612801"
   y2="127.376">
				<stop
   offset="0.0051"
   style="stop-color:#FF6F0D"
   id="stop3211" />
				<stop
   offset="0.3807"
   style="stop-color:#FF0000"
   id="stop3213" />
				<stop
   offset="1"
   style="stop-color:#A80000"
   id="stop3215" />
			</linearGradient>
			
			
		
			<linearGradient
   id="linearGradient3203"
   gradientUnits="userSpaceOnUse"
   x1="31.705601"
   y1="-2.6240001"
   x2="31.705601"
   y2="127.376">
				<stop
   offset="0.0051"
   style="stop-color:#FF6F0D"
   id="stop3197" />
				<stop
   offset="0.3807"
   style="stop-color:#FF0000"
   id="stop3199" />
				<stop
   offset="1"
   style="stop-color:#A80000"
   id="stop3201" />
			</linearGradient>
			
			
		
			<linearGradient
   id="linearGradient3131"
   gradientUnits="userSpaceOnUse"
   x1="218.2256"
   y1="-2.6240001"
   x2="218.2256"
   y2="127.376">
				<stop
   offset="0.0051"
   style="stop-color:#FF6F0D"
   id="stop3125" />
				<stop
   offset="0.3807"
   style="stop-color:#FF0000"
   id="stop3127" />
				<stop
   offset="1"
   style="stop-color:#A80000"
   id="stop3129" />
			</linearGradient>
			
			
		
			<linearGradient
   id="linearGradient3159"
   gradientUnits="userSpaceOnUse"
   x1="284.5957"
   y1="-2.6240001"
   x2="284.5957"
   y2="127.376">
				<stop
   offset="0.0051"
   style="stop-color:#FF6F0D"
   id="stop3153" />
				<stop
   offset="0.3807"
   style="stop-color:#FF0000"
   id="stop3155" />
				<stop
   offset="1"
   style="stop-color:#A80000"
   id="stop3157" />
			</linearGradient>
			
			
		
			<linearGradient
   id="linearGradient3145"
   gradientUnits="userSpaceOnUse"
   x1="352.207"
   y1="-2.6240001"
   x2="352.207"
   y2="127.376">
				<stop
   offset="0.0051"
   style="stop-color:#FF6F0D"
   id="stop3139" />
				<stop
   offset="0.3807"
   style="stop-color:#FF0000"
   id="stop3141" />
				<stop
   offset="1"
   style="stop-color:#A80000"
   id="stop3143" />
			</linearGradient>
			
			
		
			<linearGradient
   id="linearGradient3173"
   gradientUnits="userSpaceOnUse"
   x1="446.39059"
   y1="-2.6240001"
   x2="446.39059"
   y2="127.376">
				<stop
   offset="0.0051"
   style="stop-color:#FF6F0D"
   id="stop3167" />
				<stop
   offset="0.3807"
   style="stop-color:#FF0000"
   id="stop3169" />
				<stop
   offset="1"
   style="stop-color:#A80000"
   id="stop3171" />
			</linearGradient>
			
			
		
		<linearGradient
   id="linearGradient3331"
   gradientUnits="userSpaceOnUse"
   x1="548.80182"
   y1="-2.6240001"
   x2="548.80182"
   y2="127.376">
			<stop
   offset="0.0051"
   style="stop-color:#FF6F0D"
   id="stop3325" />
			<stop
   offset="0.3807"
   style="stop-color:#FF0000"
   id="stop3327" />
			<stop
   offset="1"
   style="stop-color:#A80000"
   id="stop3329" />
		</linearGradient>
		
		
	
		<linearGradient
   id="linearGradient3317"
   gradientUnits="userSpaceOnUse"
   x1="548.80182"
   y1="-2.6240001"
   x2="548.80182"
   y2="127.376">
			<stop
   offset="0.0051"
   style="stop-color:#FF6F0D"
   id="stop3311" />
			<stop
   offset="0.3807"
   style="stop-color:#FF0000"
   id="stop3313" />
			<stop
   offset="1"
   style="stop-color:#A80000"
   id="stop3315" />
		</linearGradient>
		
		
	
		<linearGradient
   id="linearGradient3303"
   gradientUnits="userSpaceOnUse"
   x1="548.7998"
   y1="-2.6240001"
   x2="548.7998"
   y2="127.376">
			<stop
   offset="0.0051"
   style="stop-color:#FF6F0D"
   id="stop3297" />
			<stop
   offset="0.3807"
   style="stop-color:#FF0000"
   id="stop3299" />
			<stop
   offset="1"
   style="stop-color:#A80000"
   id="stop3301" />
		</linearGradient>
		
		
	
		<linearGradient
   id="linearGradient3289"
   gradientUnits="userSpaceOnUse"
   x1="548.42682"
   y1="-2.6240001"
   x2="548.42682"
   y2="127.376">
			<stop
   offset="0.0051"
   style="stop-color:#FF6F0D"
   id="stop3283" />
			<stop
   offset="0.3807"
   style="stop-color:#FF0000"
   id="stop3285" />
			<stop
   offset="1"
   style="stop-color:#A80000"
   id="stop3287" />
		</linearGradient>
		
		
	
	
	
	
	
	
	

		
		
		
		
		
		
	
			<linearGradient
   id="linearGradient4453"
   gradientUnits="userSpaceOnUse"
   x1="75.613297"
   y1="-2.6240001"
   x2="75.613297"
   y2="127.376">
				<stop
   offset="0.0051"
   style="stop-color:#FF6F0D"
   id="stop4447" />
				<stop
   offset="0.3807"
   style="stop-color:#FF0000"
   id="stop4449" />
				<stop
   offset="1"
   style="stop-color:#A80000"
   id="stop4451" />
			</linearGradient>
			
			
		
	
	
	
	
	
	
<linearGradient
   inkscape:collect="always"
   xlink:href="#linearGradient3131"
   id="linearGradient3341"
   gradientUnits="userSpaceOnUse"
   x1="218.2256"
   y1="-2.6240001"
   x2="218.2256"
   y2="127.376"
   gradientTransform="translate(1.4725574,0.87406211)" /></defs><sodipodi:namedview
   id="namedview203"
   pagecolor="#ffffff"
   bordercolor="#666666"
   borderopacity="1.0"
   inkscape:pageshadow="2"
   inkscape:pageopacity="0.0"
   inkscape:pagecheckerboard="0"
   showgrid="false"
   fit-margin-top="0"
   fit-margin-left="0"
   fit-margin-right="0"
   fit-margin-bottom="0"
   inkscape:zoom="1"
   inkscape:cx="286.5"
   inkscape:cy="41.5"
   inkscape:window-width="1920"
   inkscape:window-height="996"
   inkscape:window-x="0"
   inkscape:window-y="0"
   inkscape:window-maximized="1"
   inkscape:current-layer="Ebene_1" />

<path
   id="path6603"
   style="fill:#000000"
   d="m 353.00496,-8.6180483 c -9.37263,0.2008305 -18.45877,6.3960713 -21.63671,15.2890629 -0.56203,1.484831 -1.01385,3.00843 -1.43946,4.5371094 V -8.3719545 h -87.71484 c -1.4e-4,5.2695313 -9.5e-4,10.5390621 -0.002,15.8085941 -2.73318,-7.68152429 -9.47755,-14.0130393 -17.57808,-15.5429691 -8.79383,-1.8713329 -18.56305,1.5899562 -23.99023,8.81250011 -2.65051,3.38972699 -3.98676,7.55396799 -5.0625,11.66015639 -4.87841,16.91917 -9.81992,33.81274 -14.71094,50.726563 -6.67903,23.006337 -13.34728,46.0118 -20.01172,69.02343 12.89128,-0.0125 25.78256,-0.009 38.67383,0.0117 2.95546,-10.20185 5.91857,-20.40122 8.89259,-30.59765 7.48697,0.003 14.97395,0.007 22.46092,0.01 2.94789,10.20122 5.89403,20.40148 8.89259,30.58789 31.26495,-0.0459 62.52994,-0.0101 93.79491,-0.0254 2.94512,-10.19527 5.88455,-20.3757 8.84767,-30.56445 l 22.39062,-0.008 c 2.94687,10.2024 5.8917,20.40539 8.83985,30.60742 10.22749,-0.0375 20.45662,-0.0445 30.68359,-0.0645 5.14733,0.0827 10.29694,0.0116 15.44531,0.0391 5.85235,5e-4 11.7043,0.0146 17.55664,0.0195 4.1e-4,-11.21745 9.6e-4,-22.4349 0.002,-33.652346 7.40923,11.229116 14.83431,22.445916 22.26953,33.658206 21.60739,-0.0592 43.21484,-0.0303 64.82226,-0.0117 v -12.33985 c 2.29327,5.33182 7.16144,9.33834 12.69727,10.94336 2.92421,0.94907 6.00373,1.06378 9.0371,1.40821 h 5.80859 v -10.02735 c 4.10417,3.34005 8.20478,6.68447 12.30664,10.02735 h 12.86915 c -8.6e-4,-13.08464 -8.6e-4,-26.16927 0.008,-39.253906 1.83804,-6.697836 0.074,-14.281279 -4.64258,-19.402342 5.00076,-6.746898 6.69505,-15.82449 4.36328,-23.904297 -1.1882,-4.29053 -3.41226,-8.298339 -6.45117,-11.554688 5.56504,-5.908166 8.35148,-14.34035 7.25976,-22.398437 -1.05042,-8.5647444 -6.25946,-16.59800849 -13.88499,-20.7285164 -8.36074,-4.704343 -19.20023,-4.6686484 -27.4668,0.2402344 -5.43439,3.1303266 -9.71786,8.1997896 -11.89453,14.0820316 5.9e-4,-5.863282 0.002,-11.7265628 0.002,-17.5898441 H 486.23348 V 19.303827 C 483.2216,11.357899 477.75644,4.3954616 470.8116,-0.49109519 463.83537,-5.4708899 455.33985,-8.281034 446.76473,-8.3778139 c -4.90507,-0.016343 -9.81113,0.021999 -14.7168,0 -3.34316,0.037457 -6.6935,-0.064462 -10.03125,0.1308594 -9.09633,0.9296216 -17.36007,7.38827431 -20.45117,15.9960941 -1.37126,3.6357214 -1.67284,7.5706194 -1.50195,11.4238284 0.005,23.445052 0.009,46.888932 0.0137,70.333984 -7.94187,-27.28836 -15.85689,-54.58526 -23.85938,-81.8554694 -2.75069,-8.05039629 -9.9601,-14.5765788 -18.43945,-15.9218746 -1.5734,-0.2809904 -3.17645,-0.3802498 -4.77344,-0.3476563 z m -244.90625,0.017578 c -19.968093,-0.00887 -39.936222,-0.051684 -59.904288,0.00781 v -0.00195 c -0.658204,0.0013 -1.316407,0.0026 -1.974609,0.00391 -0.180881,10.0803741 0.144551,20.1730283 -0.486329,30.2421873 -0.129563,2.276997 -0.284465,4.688888 -0.474609,6.949219 -0.14567,1.857057 -0.313488,3.661925 -0.519531,5.5625 -0.426437,3.954963 -0.966569,7.910101 -1.667969,11.767578 -0.309856,1.729819 -0.626158,3.292452 -1.03125,5.027344 -0.27773,1.152527 -0.570515,2.317311 -0.869141,3.363281 -3.112055,11.264448 -9.152998,21.885171 -18.046875,29.574219 -1.040712,0.889419 -1.926291,1.622682 -3.041015,2.429688 -6.509124,4.792512 -14.1926551,8.088402 -22.2519534,9.013672 -1.9313155,0.2788 -3.8661721,0.5315 -5.7988281,0.80078 -0.09303,12.438622 -0.049082,24.877592 -0.070312,37.316412 8.7652524,-1.0796 17.631034,-2.1303 26.0019525,-5.08985 10.863654,-3.58341 21.045336,-9.38824 29.359375,-17.27929 5.462178,-4.95916 10.362288,-10.57713 14.273438,-16.843752 0.0072,10.764712 -0.0077,21.531572 0.0332,32.294922 0.232094,3.42602 3.746799,6.13349 7.115234,5.58594 7.946598,-0.022 15.893218,-0.0269 23.839844,-0.0254 V 94.208124 c 5.440878,8.737996 12.802056,16.152886 20.912106,22.431636 9.81492,7.36108 21.42967,12.1189 33.40625,14.58398 2.99608,0.56491 6.01499,1.07652 9.05078,1.34376 3.34423,0.0494 6.48575,-2.94961 6.28321,-6.35157 -0.0535,-10.04067 -0.0286,-20.08033 -0.0332,-30.121086 -5.92903,-0.72757 -11.99684,-1.34827 -17.51562,-3.80078 -4.85015,-1.99251 -9.35912,-4.792459 -13.34961,-8.189456 -0.34081,-0.290298 -0.95713,-0.832777 -1.39258,-1.228515 -6.77764,-6.15567 -11.72448,-14.131725 -14.9707,-22.648438 -0.13989,-0.383916 -0.40935,-1.099358 -0.58985,-1.625 -2.00947,-5.659514 -3.1474,-11.577515 -4.02929,-17.503906 -0.0908,-0.631486 -0.22027,-1.586773 -0.32618,-2.341797 -0.22876,-1.727323 -0.43228,-3.388893 -0.60546,-5.060547 -0.70761,-6.606419 -1.08055,-13.244707 -1.2754,-19.884765 -0.15322,-6.0261154 -0.12576,-12.2411234 -0.0781,-18.3398445 0.009,-1.357423 0.0181,-2.7148449 0.0273,-4.0722657 z m 442.6211,23.2890633 c 2.82768,0.110334 4.91354,3.364518 3.87304,5.988281 -0.82926,2.312313 -3.68092,3.309514 -5.89843,2.503906 -2.02724,-0.590168 -3.44255,-2.814062 -2.89844,-4.896484 0.33688,-1.814188 1.8454,-3.411315 3.73828,-3.541016 0.39219,-0.06194 0.78954,-0.06444 1.18555,-0.05469 z m -26.28125,14.232422 c 0.0527,0.139974 0.10547,0.279948 0.1582,0.419921 1.2609,3.212182 3.195,6.139106 5.55078,8.652344 -2.49412,2.654528 -4.42864,5.822222 -5.71094,9.228516 6.6e-4,-6.10026 9.6e-4,-12.200521 0.002,-18.300781 z m -77.90039,0.09961 c 2.74024,0.210374 4.90141,2.762461 5.0625,5.439453 0.54445,2.790544 0.59446,6.028375 -1.35742,8.314453 -2.89221,3.800852 -7.33731,5.926609 -11.67383,7.638672 -0.37167,2.89e-4 -1.28973,0.906008 -1.22657,0.267578 0.004,-7.217709 0.006,-14.436588 0.01,-21.654297 3.06179,0.008 6.12412,-0.02227 9.18555,-0.0059 z m -179.03125,0.140625 c -6.5e-4,21.667969 -9.6e-4,43.335939 -0.002,65.003905 C 261.20629,72.496159 254.8957,50.830641 248.585,29.165155 Z m 57.23047,0 -11.66407,40.162109 h -0.002 c -2.81682,9.724511 -5.62851,19.452058 -8.44335,29.177736 9.9e-4,-23.11263 0.005,-46.225262 0.006,-69.337892 6.70117,-6.51e-4 13.40235,-0.0013 20.10352,-0.002 z m 225.98243,23.484375 c 2.80935,0.115581 4.89441,3.331975 3.88086,5.949219 -0.7935,2.332924 -3.65747,3.352365 -5.88086,2.550781 -2.04178,-0.579062 -3.47014,-2.812124 -2.92188,-4.904297 0.33687,-1.815396 1.84673,-3.409211 3.73828,-3.541015 0.39134,-0.06458 0.78822,-0.06359 1.1836,-0.05469 z m -64.48829,2.638672 v 50.357414 c -6.32011,-9.420136 -12.65667,-18.830605 -18.86718,-28.324211 3.99036,-2.407395 7.93952,-5.030632 10.99804,-8.597656 3.49609,-3.886872 6.13234,-8.513053 7.86914,-13.435547 z m -266.57618,7.515625 c 0.23372,0.804688 0.46745,1.609375 0.70118,2.414062 -0.40515,-0.146897 -1.67711,0.359674 -1.28907,-0.382812 0.19654,-0.676645 0.39135,-1.354604 0.58789,-2.03125 z m 133.97461,0.134765 c 0.22006,0.761068 0.44011,1.522136 0.66016,2.283204 -0.45307,-0.115559 -1.66681,0.341951 -1.17969,-0.480469 0.17376,-0.600959 0.34578,-1.201774 0.51953,-1.802735 z m 170.80664,3.88086 c 0.0638,0.167969 0.12761,0.335937 0.19141,0.503906 0.80869,2.011549 1.84383,3.935168 3.10547,5.699219 l -3.29882,4.880859 c 6.4e-4,-3.694661 9.4e-4,-7.389323 0.002,-11.083984 z m -0.002,22.724609 c 2.19466,1.630859 4.38932,3.261719 6.58398,4.892579 -2.87328,2.0928 -5.1461,4.97786 -6.58594,8.222656 6.5e-4,-4.371746 9.5e-4,-8.743486 0.002,-13.115235 z" /><path
   id="path4189"
   style="fill:url(#linearGradient3341)"
   d="m 66.372397,-0.62811792 -1.49805,0.002 c -1.098,0 -2.19311,0.002 -3.28711,0.002 h -2.16992 c -1.259,0 -2.51834,0.002 -3.77734,0.006 l -1.48633,0.004 -0.008,1.48828003 c -0.004,0.61099999 -0.004,1.22293999 -0.004,1.83593999 0,1.554 0.006,3.10925 0.004,4.65625 0.002,1.4269995 -0.003,2.8485299 -0.0156,4.2695299 -0.244,10.538 -0.90266,21.07961 -2.47266,31.47461 -1.251,8.176 -3.09147,16.27589 -6.48047,23.71289 -2.898,6.517 -6.70489,12.62667 -11.46289,17.88867 -4.609,5.1 -10.08334,9.42381 -16.15234,12.63281 -5.133,2.694998 -10.6344996,4.720268 -16.3124996,5.572268 l -1.27734,0.18945 v 1.29297 c 0,3.031 0.002,6.06656 0.002,9.10156 0,3.033 4e-5,6.06761 -0.002,9.09961 l -0.002,1.73047 1.71289,-0.24023 c 4.999,-0.704 9.8888996,-1.96966 14.6288996,-3.59766 8.398,-2.904 16.40739,-7.19791 23.15039,-13.12891 7.431,-6.312 14.11263,-13.875618 18.39063,-22.890618 2.591,-5.526 4.6958,-11.37914 5.7168,-17.49414 1.458,-8.713 2.00596,-17.49956 2.41796,-26.22657 0.22812,-5.52346 0.38797,-11.0507 0.39258,-16.58789 4e-5,-0.42836 -4e-5,-0.85679 0,-1.28515 -2.7e-4,-0.10358 4.3e-4,-0.20689 0,-0.31055 -0.002,-1.348 -0.002,-2.70264 -0.002,-4.05664 0,-3.267 0.002,-6.53569 0.002,-9.8046904 0,-2.6109995 -0.002,-5.2239295 -0.006,-7.83592949 z m 287.345703,0 c -5.088,0.009 -10.11927,2.45665002 -13.07227,6.72265002 -2.337,3.1939995 -2.721,6.8895599 -3.75,9.8515599 -10.288,35.449 -20.59911,70.83396 -30.78711,106.251958 l -0.55273,1.91601 1.99804,-0.002 c 2.32,-0.008 4.6429,-0.01 6.9629,-0.01 2.54199,0 5.0849,0.004 7.62891,0.004 h 4.27929 l 1.1289,-0.002 0.3125,-1.08594 c 2.816,-9.827 5.71889,-19.63852 8.54494,-29.478518 4.283,-0.012 8.56565,-0.0157 12.84764,-0.0137 6.26,-0.003 12.51921,0.006 18.78321,0.006 h 2.78516 c 2.86,9.824998 5.67058,19.662188 8.51758,29.492188 l 0.31445,1.08984 1.13477,-0.006 c 1.431,-0.009 2.86383,-0.0117 4.29883,-0.0117 2.558,0 5.11854,0.008 7.68554,0.008 2.342,0 4.68911,-0.001 7.03711,-0.0215 l 1.98242,-0.0156 -0.55078,-1.90235 C 390.52839,85.269782 379.77213,48.390772 369.05013,11.498772 c -1.487,-5.4339999 -5.74511,-10.2894899 -11.5371,-11.64648989 -1.22001,-0.323 -2.51092,-0.48046003 -3.79492,-0.48046003 z m -278.332033,0.002 c -1.93024,0 -3.86135,0.007 -5.79296,0.0176 5.5e-4,4.93002002 0.002,9.86121952 0.002,14.79100992 0,15.15813 -0.002,30.3151 -0.002,45.47461 0,7.80657 -1.5e-4,15.61569 0.002,23.42774 0.004,2.70956 0.006,5.41858 0.006,8.13086 0,8.028602 -0.0117,16.062598 -0.0117,24.089838 0,2.94088 0.01,5.87784 0.0137,8.81641 1.96467,-0.0155 3.93197,-0.0254 5.90039,-0.0254 2.54601,0 5.09639,0.008 7.65039,0.01 0.47728,-0.001 0.95446,-0.002 1.43164,-0.002 V 52.844782 -0.62396792 c -0.55012,5.8e-4 -1.10036,0.002 -1.65039,0.002 -2.514,0 -5.02982,-0.004 -7.54883,-0.004 z m 19.24414,0 c -1.757,0 -3.51448,0.002 -5.27148,0.004 l -1.49805,0.002 v 1.49804003 c -0.002,2.21399999 -0.002,4.43243999 -0.002,6.64843999 0,4.4329999 0.002,8.8677799 0.002,13.3007799 -0.008,0.922 -0.01,1.85507 -0.01,2.78907 0,10.864 0.41634,21.74212 1.40234,32.57812 0.553,5.442 1.16114,10.96867 2.61914,16.38867 1.579,5.356 3.59105,10.6071 6.37305,15.4961 3.554003,6.275 8.268853,11.786182 13.505853,16.617178 3.156,2.899 6.47125,5.70808 10.15625,8.08008 5.011,3.26 10.45545,5.79214 16.06445,7.74414 4.707,1.601 9.55725,2.87874 14.53125,3.55274 l 1.70703,0.23242 -0.004,-1.7207 c -0.004,-2.562 -0.004,-5.1245 -0.004,-7.6875 0,-3.501 0.002,-7.00096 0.004,-10.50196 v -1.29687 l -1.28516,-0.1875 c -2.372,-0.346 -4.7232,-0.9212 -7.0332,-1.65821 -8.286,-2.654986 -15.93033,-7.278958 -22.23632,-13.292958 -6.601,-6.284 -11.68866,-14.10693 -15.22266,-22.54493 -3.718,-8.691 -5.40842,-18.16796 -6.60742,-27.66796 -1.332,-11.085 -1.80083,-22.28324 -1.79883,-33.4902399 -0.002,-1.12 0.006,-2.24223 0.0137,-3.36522999 l 0.0117,-1.50586003 -1.505863,-0.006 c -1.307,-0.006 -2.60908,-0.006 -3.91211,-0.006 z m 125.138673,0.0273 c -4.698,0.004 -9.43608,1.97350002 -12.45508,5.81250002 -2.994,3.4909995 -3.41194,7.8384899 -4.58594,11.2714899 -10.26,35.262 -20.4652,70.48017 -30.6582,105.701168 l -0.5586,1.91992 2.00196,-0.004 c 1.127,0 2.25767,-0.002 3.38867,-0.002 2.434,0 4.86869,-5e-5 7.30469,0.002 2.733,-0.002 5.4614,7.2e-4 8.1914,0.0117 l 1.13086,0.004 0.31641,-1.08594 c 2.838,-9.843 5.69308,-19.677 8.58008,-29.499998 1.484,-0.001 2.96812,-0.001 4.45312,0 5.155,-0.002 10.30885,-0.002 15.46485,0 4.854,-0.002 9.7075,7.7e-4 14.5625,0.01 2.842,9.825998 5.65701,19.665188 8.54101,29.492188 l 0.31836,1.08007 1.12891,-0.004 c 2.243,-0.009 4.48828,-0.0117 6.73828,-0.0117 3.101,0 6.20364,0.004 9.30664,0.004 h 2.94726 1.99805 l -0.55664,-1.91796 C 256.61248,85.258622 245.83286,48.359502 235.10286,11.440472 c -0.922,-3.2169899 -2.7275,-6.2293499 -5.35351,-8.4433499 -2.792,-2.44399999 -6.40146,-3.59570999 -9.98047,-3.59570999 z m 330.50584,0 c -5.479,-0.002 -10.4065,2.17328002 -13.9375,5.73828002 -3.53599,3.5609995 -5.68849,8.5192099 -5.6855,14.0332099 0,9.00129 6.1528,16.58111 14.4922,18.85156 -3.3987,0.8969 -6.4219,2.66643 -8.8067,5.07422 -3.53599,3.561 -5.68849,8.51925 -5.6855,14.03125 0,10.63513 8.5813,19.28352 19.2148,19.54101 -3.0867,2.03661 -5.2551,5.37459 -5.291,9.38672 l -10.6719,-7.88672 -0.8769,1.29688 -2.918,4.32226 17.0996,12.70508 c 2.791,2.074002 6.0353,4.066218 10.0723,4.074218 1.7508,-0.0126 3.405,-0.40409 4.9043,-1.087886 v 0.695306 10.84375 l -11.5196,-9.42773 c -2.253,-1.826996 -5.1387,-2.915966 -8.0957,-2.917966 -6.943,0.004 -11.90689,5.846746 -11.9199,12.468746 -0.075,7.039 4.9132,11.85272 11.6582,12.51172 l 1.666,0.18555 v -7.41602 l -1.40039,-0.0898 c -2.733,-0.176 -4.97001,-2.46841 -4.95501,-5.19141 0,-1.376 0.5802,-2.7267 1.5332,-3.7207 0.958,-0.994 2.2335,-1.60161 3.6035,-1.59961 1.558,-0.051 3.5634,1.31595 5.27341,2.75195 l 21.11919,17.20899 V 98.676574 h -5.4786 c 3.73811,-2.360692 6.1995,-6.640102 6.21681,-11.177732 -0.013,-6.45336 -4.6989,-11.85379 -10.9199,-12.82422 6.4692,-3.19111 10.9283,-9.85264 10.9297,-17.54492 0,-5.512 -2.15061,-10.47025 -5.6836,-14.03125 -2.3742,-2.39435 -5.3757,-4.15698 -8.75,-5.0586 8.3077,-2.25387 14.4319,-9.85364 14.4336,-18.86718 0,-5.514 -2.15061,-10.4712104 -5.6836,-14.0332099 -3.535,-3.565 -8.4595,-5.74027999 -13.93751,-5.73828002 z m -125.3594,0.21289 c -1.81,0 -3.6652,0.23461 -5.4492,0.84961 -6.535,2.12600002 -11.3353,8.47124952 -11.4043,15.40624992 0,13.152 0.01,26.2926 0.01,39.4336 0,14.374 0,28.75095 0,43.126952 0,8.061996 0,16.120686 0.01,24.179686 v 1.5 h 1.5 c 1.378,0 2.7548,-0.002 4.1328,-0.002 h 7.377 c 2.246,0 4.4922,0.004 6.7402,0.008 l 1.5059,0.004 v -1.50195 c 0,-8.576 0,-17.15161 0,-25.724608 0,-15.31 0,-30.61873 0,-45.92773 0,-9.163 0,-18.32624 0.01,-27.49024 v -0.13672 c 0.026,-0.551 0.2968,-1.11364 0.7598,-1.55664 0.4819,-0.47 1.1392,-0.74814 1.7382,-0.74414 0,0 0,-5e-5 0.031,0.002 h 0.027 0.037 c 1.488,-0.015 2.9845,-0.0196 4.4805,-0.0176 1.973,-0.002 3.9497,0.006 5.9317,0.006 1.203,0 2.4081,-0.002 3.6171,-0.01 0.163,-0.006 0.285,-0.006 0.418,-0.006 5.836,-0.038 11.5015,4.62861 12.7305,10.34961 0.501,2.064 0.8105,4.19344 0.8105,6.27344 0,2.878 -0.5789,5.64111 -2.0039,8.03711 -3.345,5.727 -9.4604,9.50582 -15.8164,11.92383 -3.739,1.454 -7.1635,4.26696 -8.6445,8.29296 -0.648,1.798 -0.955,3.68446 -0.957,5.56446 0,3.426 1.0255,6.84522 2.9746,9.69922 9.318,14.07 18.5908,28.217868 27.9648,42.296868 l 0.4473,0.67383 0.8086,-0.006 c 2.584,-0.013 5.1689,-0.0176 7.7539,-0.0176 3.211,0 6.4227,0.006 9.6367,0.006 1.358,0 2.7171,0.003 4.0801,0 l 2.8007,-0.004 -1.55459,-2.32812 c -9.77801,-14.656 -19.72231,-29.192308 -29.2793,-43.945308 -0.28,-0.6 -0.4415,-1.3161 -0.4395,-1.9961 0.01,-1.078 0.3661,-1.96004 1.0781,-2.49804 3.338,-2.496 7.5171,-4.29522 11.0801,-7.44922 6.622,-5.718 10.171,-14.24919 10.832,-22.74219 0.264,-2.259 0.4278,-4.62109 0.4278,-6.99609 0,-5.792 -0.96051,-11.66243 -3.6875,-16.98243 -5.516,-11.4389999 -17.5797,-19.28119992 -30.34571,-19.53319992 -0.745,-0.002 -1.46449,-0.002 -2.1875,-0.002 -3.519,0 -7.03579,0.004 -10.55079,0.004 -2.985,0 -5.96821,-0.003 -8.9512,-0.0137 -0.138,-0.004 -0.3076,-0.006 -0.4726,-0.006 z m -174.70504,0.0156 -0.002,1.49804002 c -0.002,2.061 -0.002,4.12265 -0.002,6.18165 0,4.1199999 0.002,8.2355099 0.002,12.3535099 v 1.50195 l 1.50195,-0.002 h 4.25196 c 4.00201,0 8.00195,-0.002 12.00195,-0.002 2.514,0 5.02897,-10e-5 7.54297,0.004 -0.005,16.257 -0.004,32.51639 -0.004,48.77539 0,17.55602 0.002,35.111018 0.002,52.666018 v 1.5 h 1.5 18.12305 1.5 v -1.5 c 0,-16.412 0.004,-32.820468 0.004,-49.230468 v -52.20898 c 2.511,-0.004 5.02215,-0.006 7.53515,-0.006 3.998,0 7.998,0.004 12,0.004 1.419,0 2.84072,5e-5 4.26172,-0.002 h 1.5 v -1.5 c -0.003,-6.179 -0.003,-12.3521999 0,-18.5331999 v -1.50000002 h -1.5 -68.7207 z m 244.02154,0 V 1.1296721 122.60428 v 1.5 l 1.5019,-0.002 c 0.992,0 1.9836,-0.002 2.9766,-0.002 3.136,0 6.2732,-0.002 9.4082,0 2.27,-0.002 4.5396,0.003 6.8086,0.01 l 1.5039,0.004 v -1.5039 c 0.01,-17.3 0.01,-34.598528 0.01,-51.894528 v -51.14649 c 0,-6.146 0,-12.2924499 0,-18.4394499 v -1.50000002 h -1.5 -19.209 z m 56.1152,7.04297002 c 7.028,0.013 12.4848,5.5326499 12.5058,12.7226499 -0.014,6.609 -5.5788,12.0605 -12.5058,12.0625 -7.017,-0.002 -12.6335,-5.4655 -12.6465,-12.0625 0.038,-7.333 5.3695,-12.6886499 12.6465,-12.7226499 z M 353.63411,34.127712 c 3.74901,13.03601 7.54888,26.0578 11.29688,39.0918 h -10.76758 c -3.944,0 -7.88703,1e-4 -11.83203,-0.004 3.748,-13.034 7.53474,-26.05588 11.30273,-39.0879 z m -133.97461,0.002 c 3.785,13.028 7.5577,26.05598 11.3457,39.08398 -4.317,0.002 -8.63521,0.008 -12.94921,0.008 -3.251,0 -6.49905,-0.004 -9.74805,-0.0156 3.796,-13.026 7.54656,-26.06117 11.35156,-39.07617 z m 330.68753,10.5 c 7.028,0.015 12.48289,5.53665 12.50189,12.72265 -0.011,6.61 -5.57489,12.06246 -12.50189,12.06446 -7.01701,-0.004 -12.63351,-5.46846 -12.6465,-12.06446 0.038,-7.332 5.3695,-12.68665 12.6465,-12.72265 z m 7.07029,37.03711 v 0.002 c 1.472,-0.003 2.8651,0.66763 3.9101,1.76563 1.0441,1.094 1.6876,2.59046 1.6856,4.10546 0,0.021 10e-4,0.0415 0,0.0625 -0.04,3.1 -2.708,5.80941 -5.832,5.81641 -1.403,0.006 -2.863,-0.68836 -3.961,-1.81836 -1.099,-1.125 -1.7833,-2.63259 -1.7773,-4.05859 0,-1.417 0.6193,-2.91921 1.6934,-4.03321 1.077,-1.117 2.5462,-1.83979 4.2792,-1.84179 z" /></svg>
