<?xml version="1.0" encoding="UTF-8" standalone="no"?>
<!-- Generator: Adobe Illustrator 13.0.0, SVG Export Plug-In . SVG Version: 6.00 Build 14948)  -->

<svg
   version="1.2"
   id="Ebene_2"
   x="0px"
   y="0px"
   width="574.785px"
   height="83.5px"
   viewBox="-2.153 -3.275 574.785 83.5"
   xml:space="preserve"
   sodipodi:docname="system_color.svg"
   inkscape:version="1.1.2 (0a00cf5339, 2022-02-04)"
   xmlns:inkscape="http://www.inkscape.org/namespaces/inkscape"
   xmlns:sodipodi="http://sodipodi.sourceforge.net/DTD/sodipodi-0.dtd"
   xmlns="http://www.w3.org/2000/svg"
   xmlns:svg="http://www.w3.org/2000/svg"><defs
   id="defs31">
	
	
	

		
	
		
		
		
		
	</defs><sodipodi:namedview
   id="namedview29"
   pagecolor="#7a7b7e"
   bordercolor="#666666"
   borderopacity="1.0"
   inkscape:pageshadow="2"
   inkscape:pageopacity="1"
   inkscape:pagecheckerboard="0"
   showgrid="false"
   inkscape:zoom="1.883453"
   inkscape:cx="233.348"
   inkscape:cy="-3.716578"
   inkscape:window-width="1920"
   inkscape:window-height="995"
   inkscape:window-x="0"
   inkscape:window-y="0"
   inkscape:window-maximized="1"
   inkscape:current-layer="Ebene_2" />
<path
   id="rect2"
   d="M 0 0 L 0 83.5 L 553 83.5 L 553 0 L 0 0 z M 3.2695312 3.1503906 L 549.73047 3.1503906 L 549.73047 80.349609 L 3.2695312 80.349609 L 3.2695312 3.1503906 z M 8.1875 8.0664062 L 8.1875 75.431641 L 544.81445 75.431641 L 544.81445 8.0664062 L 8.1875 8.0664062 z M 162.8125 10.90625 L 164.17188 10.90625 L 164.17188 24.171875 L 162.8125 24.171875 C 162.8125 22.733875 161.84172 22.09375 159.51172 22.09375 L 112.81055 22.09375 L 112.81055 36.318359 L 143.29688 36.318359 C 145.62686 36.318359 146.59766 35.678234 146.59766 34.240234 L 147.95703 34.240234 L 147.95703 47.662109 L 146.59766 47.662109 C 146.59766 47.023109 146.40331 46.545609 145.82031 46.224609 C 145.33531 45.905609 144.46187 45.744141 143.29688 45.744141 L 112.81055 45.744141 L 112.81055 61.408203 L 160.38477 61.408203 C 162.71477 61.408203 163.68555 60.767234 163.68555 59.490234 L 165.04492 59.490234 L 165.04492 72.59375 L 163.68555 72.59375 C 163.68555 71.47575 162.71477 70.835937 160.38477 70.835938 L 96.498047 70.835938 L 96.498047 69.716797 C 98.634047 69.716797 99.023438 69.076359 99.023438 67.318359 L 99.023438 16.179688 C 99.023435 14.421687 98.633047 13.783203 96.498047 13.783203 L 96.498047 12.664062 L 159.51172 12.664062 C 161.84172 12.664065 162.8125 12.02425 162.8125 10.90625 z M 214.35938 11.863281 C 222.32137 11.863281 229.89569 13.381312 235.42969 14.820312 C 240.57569 16.658313 244.36102 18.097656 245.04102 18.097656 C 245.91502 18.097656 246.78973 17.69775 247.17773 17.21875 L 248.53516 17.697266 L 239.11914 30.802734 L 237.75977 30.082031 C 237.85677 29.763031 237.95312 29.283609 237.95312 28.724609 C 237.95315 26.246609 227.46769 21.292969 214.55469 21.292969 C 198.24369 21.292969 185.03906 27.926641 185.03906 41.431641 C 185.03906 55.574641 198.24331 62.203125 213.19531 62.203125 C 225.42931 62.203125 232.61434 58.767719 235.52734 57.011719 L 235.52734 50.380859 L 218.82812 50.380859 C 216.88615 50.380859 215.7207 51.179875 215.7207 52.296875 L 214.36133 52.296875 L 214.36133 38.234375 L 215.7207 38.234375 C 215.7207 39.352375 216.88613 40.152344 218.82812 40.152344 L 251.1582 40.152344 L 251.1582 41.271484 C 250.1872 41.431484 249.3125 42.070125 249.3125 43.828125 L 249.3125 59.568359 C 249.3125 60.847359 249.79855 61.326406 251.06055 61.566406 L 251.06055 62.685547 C 244.94355 65.561547 229.99231 71.636719 213.19531 71.636719 C 190.86431 71.636719 171.25195 62.524 171.25195 41.75 C 171.25195 20.974 194.16438 11.863281 214.35938 11.863281 z M 54.074219 11.865234 C 70.968219 11.865234 82.813516 17.9375 83.978516 17.9375 C 85.240516 17.9375 85.434562 17.618906 85.726562 17.378906 L 87.279297 17.777344 L 79.804688 29.763672 L 78.251953 29.044922 C 78.348953 28.724922 78.445312 28.325781 78.445312 27.925781 C 78.445312 26.886781 69.318188 21.292969 53.492188 21.292969 C 38.346187 21.292969 31.841797 25.128031 31.841797 30.082031 C 31.841797 43.186031 89.027344 24.0115 89.027344 52.9375 C 89.027344 63.4855 76.599141 71.636719 51.744141 71.636719 C 28.055141 71.636719 21.258391 65.402344 19.025391 65.402344 C 18.442391 65.402344 18.151016 65.799969 17.666016 66.042969 L 16.404297 65.802734 L 24.462891 52.216797 L 26.015625 52.857422 C 26.015625 53.178422 25.820312 53.498719 25.820312 54.136719 C 25.820312 58.852719 38.345438 62.205078 50.773438 62.205078 C 68.444438 62.205078 74.464844 58.052297 74.464844 53.654297 C 74.464844 37.994297 18.054688 57.410766 18.054688 30.884766 C 18.054688 17.459766 35.238219 11.865234 54.074219 11.865234 z M 285.22852 12.664062 L 306.39453 12.664062 L 306.39453 13.783203 C 304.93753 13.943203 304.35352 14.422422 304.35352 14.982422 C 304.35352 15.621422 304.74352 16.260547 305.22852 17.060547 L 333.38477 66.681641 C 334.74177 69.159641 335.13292 69.71875 337.16992 69.71875 L 337.16992 70.837891 L 317.84961 70.837891 L 317.84961 69.71875 C 319.11361 69.71875 319.59766 69.318922 319.59766 68.919922 C 319.59766 68.040922 318.72475 66.922141 312.21875 55.494141 L 278.91602 55.494141 C 273.28502 65.881141 271.82812 67.480531 271.82812 68.519531 C 271.82812 69.238531 272.41116 69.638797 273.28516 69.716797 L 273.28516 70.835938 L 256.00586 70.835938 L 256.00586 70.837891 L 256.00391 70.837891 L 256.00391 70.835938 L 256.00586 70.835938 L 256.00586 69.71875 C 257.75386 69.63875 258.33631 69.239641 259.69531 66.681641 L 286.20117 17.619141 C 286.68517 16.820141 287.26758 15.940656 287.26758 15.222656 C 287.26758 14.343656 286.49352 13.944156 285.22852 13.785156 L 285.22852 12.664062 z M 354.00586 12.664062 L 540.86133 12.664062 L 540.86133 70.835938 L 354.00586 70.835938 L 354.00586 12.664062 z M 494.61523 17.537109 C 481.45171 17.348449 465.71516 18.357906 448.84766 20.675781 C 449.88866 20.629781 455.1872 20.358859 456.7832 20.255859 C 480.7152 18.716859 500.0992 23.578359 500.7832 32.693359 C 501.2052 38.304359 494.94923 43.572484 484.86523 47.771484 C 473.26323 52.601484 458.02148 55.074219 458.02148 55.074219 L 451.62109 33.951172 L 451.62109 59.910156 C 451.62109 59.910156 464.0348 57.993328 473.9668 55.736328 C 508.9468 48.077328 533.63936 36.77875 532.31836 27.96875 C 531.34648 21.495625 516.55444 17.851543 494.61523 17.537109 z M 439.59766 22.0625 C 394.77766 29.3375 360.37273 43.143 361.92773 53.5 C 363.47873 63.859 400.4192 66.973922 445.4082 60.794922 C 444.3652 60.841922 439.57656 61.071969 438.22656 61.167969 C 413.92956 62.857969 394.82994 57.912391 393.46094 48.775391 C 392.12494 39.850391 408.14286 29.784266 431.00586 24.197266 C 432.22486 23.899266 436.62891 22.824219 436.62891 22.824219 C 436.62891 22.824219 438.58566 22.3235 439.59766 22.0625 z M 294.93945 25.447266 L 283.48242 46.384766 L 306.5918 46.384766 L 294.93945 25.447266 z "
   transform="translate(-2.153,-3.275)"
   style="fill:#ffffff" />

<g
   id="g26">
	<polygon
   fill="#C6AF75"
   points="553.886,-1.576 557.207,-1.576 557.207,7.272 558.839,7.272 558.839,-1.576 562.162,-1.576    562.162,-3 553.886,-3  "
   id="polygon22" />
	<polygon
   fill="#C6AF75"
   points="570.556,-3 567.509,5.09 564.478,-3 562.404,-3 562.404,7.272 563.964,7.272 563.964,-0.4    566.845,7.272 568.191,7.272 571.07,-0.397 571.07,7.272 572.632,7.272 572.632,-3  "
   id="polygon24" />
</g>
</svg>
