<?xml version="1.0" encoding="UTF-8" standalone="no"?>
<!-- Generator: Adobe Illustrator 13.0.0, SVG Export Plug-In . SVG Version: 6.00 Build 14948)  -->

<svg
   version="1.2"
   id="Layer_3"
   x="0px"
   y="0px"
   width="328.34933"
   height="335.47183"
   viewBox="0 0 328.34932 335.47182"
   xml:space="preserve"
   sodipodi:docname="controller.svg"
   inkscape:version="1.1.2 (0a00cf5339, 2022-02-04)"
   xmlns:inkscape="http://www.inkscape.org/namespaces/inkscape"
   xmlns:sodipodi="http://sodipodi.sourceforge.net/DTD/sodipodi-0.dtd"
   xmlns="http://www.w3.org/2000/svg"
   xmlns:svg="http://www.w3.org/2000/svg"
   xmlns:rdf="http://www.w3.org/1999/02/22-rdf-syntax-ns#"
   xmlns:cc="http://creativecommons.org/ns#"
   xmlns:dc="http://purl.org/dc/elements/1.1/"
   xmlns:ns="&amp;ns_sfw;"><defs
   id="defs52">
	
	
</defs><sodipodi:namedview
   id="namedview50"
   pagecolor="#ffffff"
   bordercolor="#666666"
   borderopacity="1.0"
   inkscape:pageshadow="2"
   inkscape:pageopacity="0.0"
   inkscape:pagecheckerboard="0"
   showgrid="false"
   fit-margin-top="0"
   fit-margin-left="0"
   fit-margin-right="0"
   fit-margin-bottom="0"
   inkscape:zoom="1.451521"
   inkscape:cx="80.260634"
   inkscape:cy="89.216757"
   inkscape:window-width="1920"
   inkscape:window-height="996"
   inkscape:window-x="0"
   inkscape:window-y="0"
   inkscape:window-maximized="1"
   inkscape:current-layer="Layer_3" />
<metadata
   id="metadata55">
	<rdf:RDF>
		<cc:Work
   rdf:about="">
			<dc:format>image/svg+xml</dc:format>
			<dc:type
   rdf:resource="http://purl.org/dc/dcmitype/StillImage" />
			
		</cc:Work>
	</rdf:RDF>
	<ns:sfw>
		<ns:slices />
		<ns:sliceSourceBounds
   x="800.52"
   y="375.861"
   width="320.335"
   height="327.472"
   bottomLeftOrigin="true" />
	</ns:sfw>
</metadata>
<path
   id="path878"
   d="M 162.26176,0.01483891 C 139.95913,0.31795561 117.76693,6.729502 98.783248,18.450386 c -13.6084,8.361535 -25.60187,19.340277 -35.13086,32.158203 -9.90077,1.341964 -19.59837,3.848369 -29.20899,6.527344 -4.91534,1.403801 -9.84792,2.801036 -14.61133,4.666015 -2.4511,1.107033 -4.20965,3.294716 -5.35937,5.669922 -3.32151,6.218583 -5.6965097,12.892972 -7.7656297,19.617188 -4.97963,16.539782 -7.04635003,33.890652 -6.66211003,51.140622 0.38757,36.65578 4.80138003,73.22116 12.44531973,109.05664 1.71919,7.90783 3.5162,15.80264 5.56836,23.63086 3.5685,12.6786 8.76674,24.86516 14.99804,36.45508 4.50993,8.296 9.59877,16.33747 15.8086,23.47461 2.37231,2.64915 5.71146,4.85652 9.40625,4.60547 3.53627,-0.25563 6.43041,-2.93914 7.86523,-6.04883 1.67854,-3.39465 2.40553,-7.14139 3.46289,-10.75195 2.61922,-9.72035 5.04087,-19.49467 7.82031,-29.17188 5.47649,-1.86537 11.17616,-3.50368 16.70508,-4.875 3.99789,-0.98216 8.020922,-1.8598 12.062502,-2.64258 1.7999,-0.33795 3.80687,-0.7094 5.69141,-1.02929 14.06942,-2.39886 28.47431,-3.71823 42.80664,-4.13282 6.006,-0.15719 12.16751,-0.17744 18.23242,-0.0156 3.86747,0.0913 7.99644,0.29146 11.83008,0.51758 5.76112,0.36363 11.61697,0.88716 17.28516,1.54882 3.03388,0.36136 6.06209,0.76801 9.08398,1.21875 10.06332,1.51793 20.23497,3.60586 30.10352,6.38282 1.28177,0.37978 2.80252,0.7995 4.16601,1.23242 1.7769,0.54204 3.53743,1.10116 5.22266,1.67969 0.65396,0.13632 0.47926,1.06178 0.75195,1.56054 2.822,9.91557 5.27116,19.95863 8.01563,29.93164 1.15235,3.97273 1.98665,8.28834 4.80468,11.48438 1.81458,2.19185 4.72075,3.4306 7.56055,3.06445 3.60856,-0.43442 6.5173,-2.98207 8.75586,-5.67773 8.82277,-10.68397 15.61718,-22.89195 21.29297,-35.49024 4.49128,-10.03628 8.14368,-20.46897 10.50586,-31.21679 9.19314,-38.0182 14.74955,-76.96032 15.87109,-116.07227 0.20528,-9.11643 0.40037,-18.25666 -0.39844,-27.35156 -1.24133,-14.72657 -4.383,-29.338356 -9.76757,-43.117187 -1.64794,-4.103061 -3.35965,-8.243533 -5.89063,-11.892579 -1.88754,-2.427625 -4.91851,-3.426084 -7.74609,-4.289062 -10.6431,-3.440137 -21.47053,-6.338704 -32.44336,-8.517578 -2.36912,-0.454699 -4.7484,-0.856702 -7.14063,-1.169922 C 249.5067,30.003006 227.76975,14.246874 203.38481,6.25898 190.15132,1.9070776 176.18975,-0.19938619 162.26176,0.01483891 Z m 1.92774,9.98632809 c 4.09157,0.0115 8.03504,0.200003 12.1289,0.619141 5.55601,0.563828 11.0729,1.520192 16.49219,2.86914 0.8978,0.227419 2.07099,0.529215 3.06641,0.8125 6.99478,1.951693 13.8084,4.55567 20.30859,7.794922 -0.004,33.005754 0.0175,66.012088 -0.0234,99.01758 -0.2907,13.21815 -5.93521,26.20638 -15.36133,35.47265 -3.16304,3.14088 -6.73719,5.86313 -10.58984,8.10352 -0.66165,0.3716 -1.57533,0.89464 -2.35937,1.28711 -11.10163,5.74232 -24.30454,7.17512 -36.40821,4.10937 -12.09003,-2.98647 -22.93263,-10.56694 -29.99804,-20.80859 -5.77705,-8.2533 -9.02219,-18.23253 -9.23633,-28.30274 -0.0689,-5.24258 0.001,-10.48695 -0.0234,-15.73046 V 22.237495 c 2.67765,-1.343625 5.44082,-2.596505 8.14844,-3.697265 3.24231,-1.318558 6.56203,-2.495597 9.84765,-3.496094 2.35837,-0.718291 4.67925,-1.348889 7.0293,-1.902344 5.53479,-1.319624 11.35908,-2.25559 17.10742,-2.730469 0.96036,-0.08103 1.95029,-0.144754 2.91016,-0.201172 2.31773,-0.140227 4.63917,-0.198651 6.96094,-0.208984 z m 61.99804,17.677734 0.0859,0.05078 0.0215,0.01367 c 15.77106,9.941992 29.04059,23.828528 38.17188,40.087891 4.71616,8.367775 8.36355,17.338966 10.80664,26.628907 -5.6614,-0.71572 -11.61151,1.5314 -15.31055,5.894531 -4.12426,4.71358 -5.36586,11.73326 -3.07226,17.56836 2.30257,6.14081 8.33857,10.69396 14.90039,11.10742 2.61103,0.19987 5.26739,-0.19734 7.70312,-1.16015 -0.12584,7.11035 -0.89512,14.21202 -2.42382,21.16015 -5.8792,-1.39137 -12.42392,0.52837 -16.54883,4.96289 -4.40735,4.56936 -5.96146,11.65074 -3.82617,17.63672 1.42702,4.14577 4.49386,7.68607 8.36914,9.72852 -7.62905,13.82349 -18.26076,26.23933 -30.91797,35.83398 -4.22171,3.2179 -8.67361,6.13257 -13.29688,8.74024 -0.58112,0.30933 -1.41648,0.78799 -2.11133,1.15039 -12.03183,6.44134 -25.22996,10.67102 -38.75,12.50781 -0.55337,0.0744 -1.32602,0.17634 -1.96484,0.25195 -2.68493,-4.5981 -5.80263,-8.94608 -9.25,-13 -2.49048,-2.56342 -7.11832,-2.56366 -9.50391,0.14649 -1.97611,2.1476 -3.50767,4.65526 -5.17382,7.04101 -1.26705,1.90208 -2.47415,3.84381 -3.61133,5.82617 -1.70277,-0.20019 -3.33231,-0.41496 -4.96485,-0.67187 -8.21312,-1.28978 -16.2915,-3.44292 -24.04296,-6.45117 -0.96574,-0.38428 -2.1775,-0.86706 -3.22852,-1.31446 -12.87527,-5.4402 -24.619682,-13.44959 -34.546872,-23.27539 -0.53346,-0.56392 -1.19766,-1.09295 -1.62696,-1.70117 v -5.70117 c 4.29557,6.1e-4 8.59115,0.002 12.88672,0.002 1.08718,-1.10493 2.57991,-1.98735 2.94531,-3.60937 3.383202,-8.48156 3.230162,-18.33765 -0.56836,-26.65821 -0.76041,-0.79824 -1.51947,-1.59777 -2.27734,-2.39843 h -12.98633 c -0.0226,-3.93989 0.0674,-7.8938 -0.0644,-11.82422 -0.36279,-1.0562 -0.53845,-2.26653 -1.30078,-3.10742 -7.38319,-3.43411 -15.9621,-4.32775 -23.84571,-2.20703 -1.67817,0.44755 -3.32304,1.02331 -4.9121,1.7246 -0.14484,-0.6459 -0.29242,-1.29122 -0.43555,-1.9375 11.00581,-1.68499 21.1695,-8.12578 27.40625,-17.34765 5.86809,-8.54679 8.2495,-19.37984 6.54687,-29.60352 -1.74642,-10.838221 -8.08962,-20.83985 -17.16797,-27.017577 -2.19244,-1.511498 -4.53669,-2.802238 -6.98046,-3.859375 9.15642,-18.160473 23.29856,-33.758239 40.429682,-44.71289 0.59674,-0.656531 0.42278,0.400779 0.43555,0.923828 0.008,30.709932 -0.0257,61.421163 0.0254,92.130864 0.30034,14.7129 6.12686,29.21879 16.04883,40.08203 9.80324,10.84954 23.55098,18.0706 38.07617,19.85156 13.94335,1.78949 28.47757,-1.29671 40.41797,-8.74023 12.84137,-7.91049 22.64026,-20.64177 26.88672,-35.125 1.97827,-6.62195 2.724,-13.56601 2.54687,-20.4629 z m -64.13476,24.589844 c -11.34976,0.324061 -22.61451,2.481857 -33.40039,5.988281 -1.93741,0.688886 -3.95352,1.348213 -5.62305,2.576172 -3.01407,2.506395 -4.48025,6.515516 -4.35938,10.376953 0.0395,10.04819 9.2e-4,20.099541 0.0137,30.148439 0.0131,9.43817 -0.0246,18.87769 0.0371,28.31445 0.26601,3.48556 1.91195,6.99525 4.79882,9.04883 2.87497,1.7042 6.14943,2.5494 9.31836,3.52539 9.71346,2.76881 19.76161,4.5106 29.87305,4.69726 10.31877,0.0753 20.56459,-1.62527 30.59766,-3.91211 3.23014,-0.77935 6.48758,-1.57344 9.54687,-2.88671 4.44579,-2.24644 7.12337,-7.30956 6.83008,-12.23633 -0.009,-19.40775 0.0289,-38.815442 -0.0273,-58.222656 -0.2448,-5.25574 -4.03779,-10.239924 -9.18946,-11.552734 -7.57351,-2.362694 -15.39844,-3.83606 -23.25,-4.910157 -5.02658,-0.652299 -10.09452,-1.047626 -15.16601,-0.955078 z m 110.35156,9.833985 c 0.32552,0.06641 0.65104,0.132812 0.97656,0.199218 10.19358,2.157476 20.24968,4.95785 30.13477,8.244141 0.9963,0.194044 1.31375,1.235223 1.78515,2 3.44374,6.847147 5.96503,14.126697 7.95704,21.517583 0.2893,1.09801 0.63694,2.44817 0.91796,3.65039 1.06184,4.493158 1.93928,9.032008 2.60157,13.601558 0.12123,0.95721 0.30246,2.1786 0.42187,3.24414 0.98203,7.73488 1.24015,15.53946 1.13672,23.33008 -0.0734,6.5188 -0.26105,12.95749 -0.58398,19.48047 -0.47623,9.7419 -1.25893,19.61556 -2.28321,29.32421 -1.3183,12.35509 -3.04182,24.66147 -5.17968,36.92579 -1.44006,8.31304 -3.10044,16.71271 -4.92188,24.95703 -1.50782,6.73478 -3.03987,13.46844 -4.82031,20.13672 -3.387,11.85057 -8.2851,23.23842 -14.12696,34.07812 -1.04761,1.93053 -2.06111,3.72563 -3.15234,5.55859 -3.31578,5.54938 -6.95137,10.94312 -11.20898,15.81641 -0.33381,0.23368 -0.88622,1.23481 -1.04883,0.4082 -1.16759,-2.82169 -1.80111,-5.82588 -2.64063,-8.7539 -4.021,-14.97566 -7.59096,-30.10032 -12.70898,-44.75391 -3.98442,-10.88414 -9.34514,-21.19276 -14.75977,-31.41797 -1.96018,-3.63644 -3.94959,-7.25739 -5.93359,-10.88086 16.77314,-11.4794 30.67598,-27.09402 40.17578,-45.06054 0.13558,-0.68265 0.8212,-0.55832 1.34961,-0.69336 6.02663,-1.1645 11.25905,-5.74308 13.13477,-11.59961 1.92982,-5.7379 0.58912,-12.47112 -3.49219,-16.96289 0.31366,-1.41703 0.62193,-2.83548 0.91015,-4.25782 3.67609,3.87792 9.18797,5.92077 14.50391,5.29102 6.22235,-0.65913 11.9051,-4.94175 14.19727,-10.77344 2.3768,-5.81286 1.29698,-12.88821 -2.80274,-17.66601 -4.05532,-4.91446 -10.9527,-7.26747 -17.16015,-5.78321 -2.25337,0.50697 -4.39577,1.48232 -6.27539,2.82227 -2.7e-4,-2.12375 -0.11536,-4.26349 -0.0684,-6.37695 1.89662,-5.15953 1.21004,-11.23182 -1.94336,-15.75782 -1.72069,-7.538838 -3.67185,-15.051879 -6.54688,-22.244135 -2.38181,-6.078989 -5.24001,-11.972279 -8.54488,-17.603515 z m -216.458982,0.0098 c 0.0668,0.145873 -0.51029,0.774523 -0.53907,0.974609 -1.32235,2.296291 -2.57254,4.634009 -3.7539,7.00586 -10.81688,-1.758706 -22.31361,1.044417 -31.0293,7.710937 1.02842,-2.359722 2.06944,-4.744123 3.44922,-6.917968 0.99961,-0.428259 2.12431,-0.756383 3.08594,-1.09375 1.59739,-0.533331 3.09284,-1.010854 4.74023,-1.507813 7.74792,-2.307211 15.7342,-4.448465 23.7207,-6.123047 0.20966,-0.09268 0.30389,-0.09745 0.32618,-0.04883 z m 77.500002,10.427735 h 61.49218 c 0.002,18.222656 -7.6e-4,36.445315 -0.01,54.667975 -20.49675,0.004 -40.99349,10e-4 -61.49024,-0.01 -0.003,-18.2194 -0.001,-36.438805 0.008,-54.658205 z m -88.236332,7.044921 c 9.21849,-0.06285 18.31885,4.338719 24.04101,11.558594 5.32743,6.604617 7.71946,15.47068 6.4043,23.85743 -1.29926,8.96486 -6.81136,17.19651 -14.60938,21.80859 -7.40816,4.52468 -16.77144,5.62699 -25.03906,3 -7.13649,-2.17708 -13.34978,-7.10416 -17.20117,-13.48242 -0.16376,-0.28643 -0.55943,-0.9382 -0.78711,-1.375 -4.73187,-8.72138 -4.85475,-19.75644 -0.28711,-28.570323 4.2246,-8.302548 12.3687,-14.520559 21.54688,-16.230464 1.95448,-0.375031 3.9416,-0.56274 5.93164,-0.566407 z m -0.72071,1.13086 c -9.1096,0.146058 -17.98857,4.824056 -23.30859,12.212891 -5.18231,7.03429 -6.96048,16.418623 -4.75391,24.869143 2.21561,8.72325 8.62131,16.25468 16.88868,19.82031 8.4353,3.70597 18.60207,3.20274 26.58203,-1.42968 7.92655,-4.49521 13.57975,-12.80096 14.7207,-21.85743 1.16663,-8.53946 -1.59858,-17.535543 -7.44531,-23.882812 -5.6909,-6.319779 -14.17431,-9.988545 -22.6836,-9.732422 z m 0.7461,9.992187 c 7.02473,-0.03996 13.87107,4.040134 17.20703,10.218757 3.1434,5.65715 3.24265,12.88115 0.18359,18.5957 -3.09404,5.96068 -9.39548,10.11882 -16.11328,10.51758 -6.62038,0.47862 -13.36416,-2.66177 -17.23633,-8.0586 -3.83373,-5.21684 -4.85925,-12.36915 -2.54882,-18.42968 2.37379,-6.448603 8.31746,-11.458367 15.12304,-12.548835 1.11694,-0.19747 2.25084,-0.289172 3.38477,-0.294922 z M 273.55473,104.34886 c 3.73374,0.13529 6.97642,3.52408 6.94922,7.26172 0.0666,3.41096 -2.4893,6.67715 -5.86133,7.31836 -3.19017,0.69032 -6.72174,-0.97982 -8.125,-3.94531 -1.4262,-2.83804 -0.79867,-6.56701 1.60742,-8.68164 1.45402,-1.33665 3.45267,-2.07867 5.42969,-1.95313 z m -29.71875,16.50195 c -6.74917,0.22286 -13.09453,4.81226 -15.44336,11.14063 -2.40022,6.10965 -0.92819,13.53046 3.67188,18.22656 4.36729,4.65279 11.4134,6.52685 17.51562,4.6543 6.12065,-1.78011 11.0165,-7.1762 12.12891,-13.46289 1.20307,-6.20192 -1.29778,-12.9652 -6.31055,-16.83008 -3.2419,-2.5761 -7.42655,-3.92268 -11.5625,-3.72852 z m 56.2207,9.9961 c 3.68232,0.13951 6.89492,3.43685 6.94336,7.12304 0.14595,3.5366 -2.5659,6.95656 -6.08789,7.50196 -2.40358,0.42607 -5.11148,-0.46713 -6.68359,-2.2461 -2.62014,-2.68982 -2.62352,-7.434 0.0527,-10.08984 1.47346,-1.54903 3.63638,-2.42633 5.77539,-2.28906 z m -55,0.002 c 3.72944,0.1366 6.97204,3.52065 6.94727,7.25586 0.0721,3.414 -2.49068,6.68338 -5.86328,7.32617 -3.18403,0.68559 -6.70871,-0.97332 -8.11524,-3.93164 -1.43709,-2.83952 -0.80906,-6.5783 1.59961,-8.69726 1.4525,-1.33951 3.45501,-2.07743 5.43164,-1.95313 z m -234.865232,0.51367 c 0.0634,0.0688 0.15033,0.21949 0.26562,0.47657 l 0.0156,0.0254 c 5.31287,8.59236 13.88752,15.12547 23.63867,17.8164 2.40887,0.6791 4.88199,1.13634 7.375,1.35742 1.23435,5.77831 2.83756,11.48066 4.84375,17.03907 h -9.2793 c -1.11784,0.82299 -2.71839,1.27996 -3.13867,2.76562 -3.75362,8.76314 -3.6531,19.07554 0.27344,27.76367 0.26578,0.63778 0.53153,1.2761 0.79687,1.91407 4.7993,0.38795 9.61566,0.15878 14.42383,0.2207 0.0211,3.81933 -0.0539,7.64668 0.0547,11.46094 0.1983,1.0339 0.39586,2.06795 0.5957,3.10156 5.48043,2.5966 11.57986,3.99619 17.65625,3.60547 3.61704,-0.19231 7.19723,-0.99214 10.56641,-2.31836 4.71741,4.44034 9.77962,8.51453 15.12305,12.17773 -7.17595,13.12502 -14.45831,26.26247 -19.91797,40.21875 -3.03745,8.08788 -5.33598,16.42632 -7.64453,24.74414 -2.63034,9.57333 -4.93166,19.23762 -7.70508,28.77149 -0.27734,0.84126 -0.55567,1.68845 -0.96485,2.47656 -1.83014,-1.68462 -3.27655,-3.73773 -4.80273,-5.69141 -0.91863,-1.21594 -1.77422,-2.42086 -2.68164,-3.74414 -6.61307,-9.78996 -12.03405,-20.3588 -16.48633,-31.29296 -2.82604,-7.0048 -5.22604,-14.19243 -6.92773,-21.55665 -2.82681,-11.74146 -5.41,-23.54307 -7.54297,-35.43164 -4.03437,-22.36952 -6.75291,-44.84634 -7.98633,-67.52734 -0.4833,-9.11258 -0.7598897,-18.3019 -0.70508,-27.48633 -0.023,-0.56714 -0.0359,-1.09305 0.1543,-0.88672 z m 263.361332,27.23633 c 3.72797,0.13704 6.96991,3.51444 6.95117,7.24805 0.0671,3.46186 -2.55889,6.78424 -6.00391,7.35742 -3.15698,0.61139 -6.61825,-1.04587 -7.98437,-3.98438 -1.39481,-2.78973 -0.82065,-6.4286 1.49219,-8.55664 1.46414,-1.4043 3.51283,-2.19662 5.54492,-2.06445 z m -206.806642,1.22266 c 1.79945,0.0785 3.59311,0.33783 5.33203,0.81054 0.0308,4.24165 -0.0826,8.49179 0.0781,12.72852 0.24409,0.69593 -0.13875,0.36678 -0.5664,0.11914 -3.7884,-2.09305 -8.69822,-1.94854 -12.34961,0.38086 0.34111,-1.69446 0.0916,-3.44399 0.16797,-5.16211 v -8.08984 c 2.38483,-0.6452 4.87226,-0.87544 7.33789,-0.78711 z m 9.54882,18.09179 0.0625,0.0176 c 1.60127,0.30737 3.25097,0.0705 4.87305,0.14453 h 8.24414 c 1.14356,4.11865 1.12187,8.54352 0.0176,12.66797 -4.23027,0.0242 -8.46691,-0.0685 -12.69336,0.0625 -0.87035,0.30709 -0.25029,-0.30761 -0.0606,-0.77539 1.97512,-3.75154 1.81942,-8.5243 -0.44336,-12.11719 z m -21.125,0.0254 c -2.3976,3.82201 -2.38052,8.94527 -0.0469,12.79296 0.18735,0.3571 -0.82609,-0.10666 -1.1543,-0.002 -3.993,0.032 -7.98706,0.005 -11.98047,0.0137 -1.10554,-4.12591 -1.09856,-8.54382 0.002,-12.66992 4.22233,-0.0254 8.45188,0.0709 12.66992,-0.0625 0.15099,-0.009 0.43468,-0.0808 0.50976,-0.0723 z m 10.7168,4.07812 c 1.77318,0.0291 2.92775,2.37765 1.76563,3.76367 -0.88602,1.27186 -3.00024,1.31147 -3.83203,-0.0371 -0.98422,-1.24529 -0.25484,-3.24092 1.25781,-3.63476 0.26109,-0.0803 0.53618,-0.11032 0.80859,-0.0918 z m 6.35938,12.90039 c -0.0195,0.0768 -0.0391,0.15365 -0.0586,0.23047 -0.25543,1.57807 -0.0425,3.19334 -0.11132,4.78711 -2e-5,2.73216 0,5.46315 0,8.19531 -4.12332,1.12244 -8.54182,1.10626 -12.66797,0.006 -0.0238,-4.217 0.0661,-8.43971 -0.0645,-12.65234 -0.21472,-0.67519 0.0544,-0.50663 0.53125,-0.19141 3.80556,2.05305 8.70491,1.93902 12.3711,-0.375 z m 154.236322,39.17969 c 0.6771,1.23307 1.35417,2.46614 2.03126,3.69922 6.25099,11.45872 12.45521,22.99758 17.20312,35.17773 0.60432,1.61677 1.16911,3.24808 1.70508,4.88867 -19.61906,-5.87779 -39.97824,-9.03344 -60.38672,-10.42382 -0.31097,-0.0404 -1.61322,-0.0368 -0.70313,-0.13672 2.30272,-0.19785 4.60258,-0.43894 6.9043,-0.65235 -0.4881,-5.63479 -1.25788,-11.31815 -3.35351,-16.60937 -0.2431,-0.62404 -0.49323,-1.24683 -0.75977,-1.86133 13.10233,-2.6423 25.77166,-7.42039 37.35937,-14.08203 z m -124.5996,0.006 c 0.26171,0.14974 0.52343,0.29948 0.78515,0.44922 11.39369,6.42945 23.80314,11.05879 36.62891,13.64062 -2.19802,4.92744 -3.3697,10.26004 -3.88867,15.61133 -0.49021,1.40257 0.59169,2.99702 2.0664,3.10351 1.63391,0.13081 3.26588,0.30653 4.89844,0.4629 -20.18062,1.3128 -40.31514,4.33809 -59.755862,9.99414 -0.50063,0.0887 -1.35437,0.52412 -1.64258,0.40429 2.93221,-8.95388 7.07132,-17.44834 11.3418,-25.82617 3.07677,-6.00609 6.3154,-11.92684 9.566412,-17.83984 z m 62.30078,2.97851 c 0.0585,0.0156 0.12115,0.091 0.1914,0.25977 3.03129,4.03779 5.70546,8.34735 7.82618,12.93359 0.3562,0.74934 0.69769,1.50536 1.04296,2.25977 -5.99549,0.7114 -12.06378,0.72141 -18.07031,0.13476 1.70222,-3.76569 3.64905,-7.42093 5.83594,-10.92773 0.79482,-1.28245 1.75324,-2.72873 2.66797,-4.03711 0.19243,-0.1721 0.33037,-0.66982 0.50586,-0.62305 z m 18.20117,23.19336 c 0.054,0.30795 0.10807,0.61589 0.16211,0.92383 0.26477,1.48148 0.37322,2.99327 0.52148,4.47852 0.16032,0.75385 0.76808,1.3833 1.50196,1.60546 -12.98781,-0.77138 -26.01997,-0.81527 -39.01172,-0.10546 -0.0863,-2.27732 -0.0664,-4.57266 0.40429,-6.8125 1.26231,1.23766 3.02489,1.67733 4.73243,1.83789 6.18484,0.86422 12.4625,1.08086 18.69531,0.71484 3.50593,-0.25007 7.02399,-0.58083 10.47461,-1.24219 0.92993,-0.27366 1.78942,-0.77112 2.51953,-1.40039 z" /><path
   id="path3"
   d="m 164.18754,4.001167 c -40.4913,0 -76.293372,19.878223 -98.333982,50.361328 -7.92418,0.860498 -18.36983,3.329061 -27.15039,5.726563 -4.412,1.204 -8.39516,2.389843 -11.41016,3.339843 -2.983,0.944 -4.92339,1.609032 -5.65039,1.957032 -1.201,0.514 -2.19136,1.415781 -2.81836,2.550781 -1.086,1.605 -4.68209,8.489328 -8.12109,19.736328 -3.4599997,11.345 -6.6855497,27.046128 -6.6855497,45.828128 0,65.628 13.6953297,119.06443 16.8613297,132.39843 4.379,18.387 16.23106,44.72119 30.03906,61.24219 1.563,1.806 3.80603,4.25508 6.70703,4.33008 0.013,0 0.0271,-5e-5 0.0391,0.002 1.217,0 2.46551,-0.56803 3.47851,-1.70703 1.034,-1.151 1.91106,-2.85369 2.66406,-5.30469 2.49664,-8.1491 6.10785,-23.56885 10.3418,-38.09179 24.0735,-8.5246 55.572382,-13.70313 90.037112,-13.70313 34.46494,0 65.96055,5.18239 90.03711,13.70703 4.23385,14.52159 7.84391,29.93863 10.33789,38.08594 0.753,2.452 1.62806,4.15569 2.66406,5.30469 1.013,1.139 2.26238,1.70803 3.48438,1.70703 h 0.0391 c 2.901,-0.075 5.14403,-2.52408 6.70703,-4.33008 13.81,-16.52 25.66402,-42.85714 30.04102,-61.24414 3.165,-13.334 16.85937,-66.76849 16.85937,-132.39648 0,-18.78201 -3.22654,-34.483128 -6.68555,-45.828128 -3.43499,-11.245 -7.03409,-18.130328 -8.12109,-19.736328 -0.629,-1.143 -1.62784,-2.047547 -2.83984,-2.560547 -0.627,-0.313 -2.58796,-0.986219 -5.62696,-1.949219 -9.00174,-2.833495 -26.60083,-7.756615 -38.5,-9.060547 C 240.54381,23.86377 204.69326,4.002579 164.18754,4.001167 Z m 0,2 c 20.29192,-0.0011 39.33484,4.917882 55.99805,13.638672 V 119.66718 c 0,15.466 -6.26439,29.45966 -16.40039,39.59766 -10.138,10.133 -24.13361,16.40039 -39.59961,16.40039 -15.466,0 -29.45966,-6.26539 -39.59766,-16.40039 -10.135,-10.138 -16.40234,-24.12966 -16.40234,-39.59766 V 61.710151 20.001167 h -0.38281 c 16.78254,-8.94382 35.975,-14 56.38476,-14 z m 58,14.685547 c 28.66871,15.709914 49.9469,42.870715 57.72852,75.814458 l 2.35742,0.83593 c -3.49753,-14.808591 -9.71819,-28.561536 -18.08789,-40.718748 7.48448,0.988905 16.89706,3.194467 24.95703,5.396485 4.387,1.198 8.35089,2.376359 11.33789,3.318359 2.962,0.929 5.05972,1.677516 5.38672,1.853516 0.868,0.37 1.53627,0.980094 1.94727,1.746094 l 0.0254,0.04883 0.0352,0.04883 c 0.799,1.123 4.48882,8.063609 7.88282,19.224609 3.41,11.185999 6.5977,26.692143 6.5957,45.244143 0,65.37 -13.63864,118.60355 -16.80664,131.93555 -4.273,18.033 -16.10196,44.27587 -29.62696,60.42187 -1.40599,1.741 -3.61082,3.69024 -5.17382,3.61524 -0.658,-0.011 -1.28211,-0.23278 -2.03711,-1.05078 -0.743,-0.818 -1.53742,-2.26788 -2.23242,-4.54688 -3.146,-10.26 -8.15377,-32.62628 -14.00977,-49.86328 -5.76549,-16.95767 -20.31515,-41.70915 -22.74805,-46.55859 17.27242,-11.10747 31.55116,-26.46638 41.33594,-44.61133 l -1.97266,-0.50586 h -0.002 c -18.41808,34.1549 -52.78551,57.85938 -93.27539,61.77148 -0.50146,-0.95044 -1.01415,-1.89409 -1.53906,-2.79101 -1.518,-2.592 -3.45022,-5.35592 -5.07422,-7.54492 -1.655,-2.215 -2.88255,-3.7383 -3.31055,-4.1543 -0.48,-0.432 -1.10143,-0.69122 -1.77344,-0.69922 h -0.002 c -0.028,-0.002 -0.0746,-0.004 -0.14062,0.004 -0.646,0.027 -1.24141,0.28731 -1.69141,0.69531 -0.323,0.273 -0.60822,0.66964 -1.19922,1.43164 -1.668,2.201 -4.74892,6.64816 -7.04492,10.66016 -0.46322,0.8127 -0.90347,1.61792 -1.32422,2.4082 -28.53139,-2.70408 -53.357882,-14.52087 -72.457032,-33.78125 l -0.83203,1.75 -1.3418,-1.27539 V 196.7415 l 15.31836,0.002 0.38672,-0.34765 0.17383,-0.1543 0.0859,-0.20899 c 1.473,-3.586 2.28515,-7.51209 2.28515,-11.62109 0.002,-4.164 -0.79854,-7.91234 -2.31054,-11.52734 l -0.0723,-0.17383 -0.30859,-0.32031 -0.29493,-0.3125 H 78.076108 V 157.0853 l -0.10547,-0.34766 -0.13672,-0.45898 -0.44336,-0.18164 c -3.59,-1.481 -7.52544,-2.29688 -11.64844,-2.29688 -4.145,-0.002 -7.93873,0.75377 -11.55273,2.25977 l -0.26172,0.11133 -0.33203,0.45703 -0.1875,0.25976 v 15.18946 h -15.19336 l -0.34571,0.20507 -0.28711,0.16993 -0.12695,0.31054 c -1.481,3.589 -2.29687,7.52349 -2.29687,11.64649 0,4.138 0.82436,8.09617 2.31836,11.70117 l 0.24023,0.57422 0.87891,0.0566 h 14.8125 l -0.002,14.79492 0.0762,0.39258 0.10157,0.5293 0.5,0.20703 c 3.594,1.484 7.5332,2.30078 11.6582,2.30078 0.006,0 0.0107,-9.5e-4 0.0137,-0.002 4.154,0 7.96713,-0.8006 11.57813,-2.3086 l 0.30078,-0.125 0.29492,-0.48828 0.14453,-0.23828 v -0.99219 c 6.21755,6.26372 13.11873,11.84914 20.57617,16.64453 -2.43581,4.85353 -16.98112,29.60049 -22.74414,46.55664 -5.858,17.236 -10.86276,39.60533 -14.00976,49.86133 -0.696,2.281 -1.49333,3.73278 -2.23633,4.55078 -0.757,0.819 -1.37816,1.03683 -2.03516,1.04883 -1.56,0.076 -3.76387,-1.87423 -5.17187,-3.61523 -13.522,-16.146 -25.35596,-42.38888 -29.62695,-60.42188 -3.16801,-13.332 -16.8066497,-66.56454 -16.8066497,-131.93554 0,-18.55201 3.18666,-34.058154 6.5976597,-45.24415 3.393,-11.161 7.08386,-18.101609 7.88086,-19.224609 l 0.0352,-0.04687 0.0254,-0.05078 c 0.413,-0.766 1.08072,-1.374844 1.88672,-1.714844 l 0.0254,-0.01172 0.0391,-0.01953 c 0.325,-0.175 2.42281,-0.923516 5.38281,-1.853516 8.4767,-2.675356 24.78876,-7.216817 36.34961,-8.740234 -3.46779,5.032268 -6.60085,10.312964 -9.28906,15.855469 l 1.8789,0.466797 v -0.002 C 67.545088,50.830276 84.848368,32.684553 106.1856,20.883993 V 119.6672 c 0,32.035 25.966,58 58,58 32.031,0 57.99995,-25.966 58.00195,-58 -0.002,-11.584 -0.002,-36.625489 0,-58.771489 -0.002,-11.073 -0.002,-21.420953 0,-29.001953 -0.002,-6.855757 -10e-4,-10.383816 0,-11.207031 z m -58.4375,35.564453 c -8.784,0 -17.84998,1.538766 -24.95898,3.259766 -3.554,0.86 -6.61411,1.765734 -8.91211,2.552734 -2.331,0.82 -3.74805,1.383516 -4.49805,1.978516 -1.684,1.678 -2.69531,3.933015 -2.69531,6.416015 v 58.292972 c 0,2.481 1.01072,4.73728 2.63672,6.36328 0.807,0.649 2.22469,1.20929 4.55469,2.02929 6.884,2.357 20.69714,5.81146 33.86914,5.81446 7.731,-0.002 16.5032,-1.27671 23.6582,-2.72071 3.576,-0.723 6.74769,-1.48806 9.17969,-2.16406 2.455,-0.694 4.07072,-1.22417 4.88672,-1.70117 2.536,-1.601 4.21184,-4.42105 4.21484,-7.62305 V 70.458198 c -0.003,-3.204 -1.67627,-6.020281 -4.19727,-7.613281 -0.833,-0.485 -2.44734,-1.01894 -4.90234,-1.710937 -7.293,-2.027001 -21.23994,-4.878813 -32.83594,-4.882813 z m -0.0332,2 h 0.0352 c 7.516,-0.002 16.19676,1.249734 23.25976,2.677734 3.531,0.715 6.66206,1.46986 9.03906,2.13086 2.354,0.644 4.05572,1.267328 4.38672,1.486328 1.947,1.233 3.25,3.416109 3.25,5.912109 v 58.292972 c 0,2.49399 -1.30257,4.67592 -3.26758,5.91992 -0.31299,0.209 -2.01514,0.83156 -4.36914,1.47656 -7.131,1.988 -21.02478,4.8165 -32.30078,4.8125 -8.551,0 -17.49528,-1.51308 -24.48828,-3.20508 -3.498,-0.847 -6.50737,-1.73895 -8.73437,-2.50195 -2.192,-0.731 -3.75066,-1.47742 -3.84766,-1.60742 -1.211,-1.218 -1.99214,-2.95855 -1.99414,-4.89453 V 70.458198 c 0.002,-1.936 0.78178,-3.678218 2.05078,-4.949218 0.039,-0.076 1.59706,-0.819782 3.78906,-1.550782 6.679,-2.295 20.37441,-5.707031 33.19141,-5.707031 z m -31.2793,8.291016 c -2.763,0 -5.00195,2.237 -5.00195,5 V 128.2082 c 0,2.763 2.23895,5 5.00195,5 h 63.49805 c 2.763,0 5,-2.237 5,-5 h 0.002 V 71.542183 c -0.002,-2.763 -2.23895,-5 -5.00195,-5 z m 0,1.998047 h 63.49805 c 1.656,0.004 2.99695,1.343953 3.00195,3.001953 l -0.002,56.666017 h 0.002 c -0.005,1.656 -1.34595,2.998 -3.00195,3 h -63.49805 c -1.656,-0.001 -2.998,-1.344 -3,-3 V 71.542183 c 0.002,-1.657 1.343,-2.997956 3,-3.001953 z m -87.250002,5.042968 c -20.332,0 -36.8124997,16.480488 -36.8124997,36.812502 0,20.331 16.4804997,36.8115 36.8124997,36.8125 20.332,0 36.8125,-16.4805 36.8125,-36.8125 0,-20.332014 -16.4805,-36.812502 -36.8125,-36.812502 z m -0.002,2.001953 c 9.615,0 18.31223,3.892313 24.61523,10.195313 6.303,6.302 10.19727,14.999236 10.19727,24.615236 0,9.617 -3.89427,18.31414 -10.19727,24.61914 -6.302,6.3 -14.99923,10.19336 -24.61523,10.19336 -9.616,0 -18.31223,-3.89336 -24.61523,-10.19336 -6.302,-6.305 -10.19532,-15.00314 -10.19532,-24.61914 0,-9.615 3.89332,-18.313236 10.19532,-24.615236 6.303,-6.304 14.99923,-10.196313 24.61523,-10.195313 z m 0.002,9.123047 c -14.188,0.002 -25.6875,11.499504 -25.6875,25.687502 0,14.187 11.4995,25.6865 25.6875,25.6875 14.186,-0.001 25.68555,-11.5005 25.68555,-25.6875 0,-14.187998 -11.49955,-25.685502 -25.68555,-25.687502 z m 0,2 c 13.082,0.023 23.6625,10.605504 23.6875,23.687502 -0.025,13.083 -10.6055,23.6655 -23.6875,23.6875 -13.084,-0.023 -23.66745,-10.6055 -23.68945,-23.6875 0.023,-13.080998 10.60545,-23.663502 23.68945,-23.687502 z M 273.12504,98.333202 c -7.388,0 -13.37495,5.987998 -13.37695,13.374998 0.002,7.387 5.98895,13.374 13.37695,13.375 7.387,-0.001 13.373,-5.989 13.375,-13.375 -0.002,-7.387 -5.988,-13.374998 -13.375,-13.374998 z m 0,2.001948 c 6.281,0.01 11.36005,5.09105 11.37305,11.37305 -0.013,6.283 -5.09205,11.363 -11.37305,11.375 -6.281,-0.013 -11.363,-5.093 -11.375,-11.375 0.009,-6.28 5.092,-11.36105 11.375,-11.37305 z m 12.36133,22.22461 -1.90039,1.02344 h -0.002 c 0.022,0.908 -0.0645,0.838 -0.0645,1.75 0,9.105 -0.83853,17.06398 -2.76953,25.58398 l 1.76953,1.3457 c 1.963,-8.663 3.00005,-17.67568 2.99805,-26.92968 0,-0.926 -0.0102,-1.85344 -0.0312,-2.77344 z m -40.86133,2.27344 c -7.387,0.002 -13.37495,5.98795 -13.37695,13.37695 0.002,7.386 5.98795,13.373 13.37695,13.375 7.387,-0.002 13.373,-5.99 13.375,-13.375 -0.002,-7.387 -5.988,-13.37495 -13.375,-13.37695 z m 54.99805,0 c -7.386,0.002 -13.375,5.987 -13.375,13.375 0,7.387 5.987,13.37495 13.375,13.37695 7.388,-0.002 13.37495,-5.99095 13.37695,-13.37695 -0.002,-7.388 -5.98895,-13.373 -13.37695,-13.375 z m 0,2 c 6.281,0.01 11.36305,5.092 11.37305,11.375 -0.01,6.281 -5.09205,11.362 -11.37305,11.375 -6.28,-0.012 -11.364,-5.094 -11.375,-11.375 0.01,-6.283 5.093,-11.364 11.375,-11.375 z m -54.99805,0.002 c 6.281,0.01 11.36205,5.092 11.37305,11.375 -0.011,6.281 -5.09405,11.36305 -11.37305,11.37305 -6.281,-0.011 -11.363,-5.09205 -11.375,-11.37305 0.009,-6.282 5.092,-11.364 11.375,-11.375 z M 45.394568,150.15942 c 1.358,6.53 3.24152,12.86975 5.60352,18.96875 l 1.16797,-1.96094 c -2.322,-5.999 -3.49899,-10.49402 -4.83399,-16.91601 z m 227.730472,2.42578 c -7.388,0 -13.37495,5.987 -13.37695,13.375 0.002,7.385 5.98895,13.373 13.37695,13.375 7.387,-0.002 13.373,-5.99 13.375,-13.375 -0.002,-7.388 -5.988,-13.375 -13.375,-13.375 z m 0,2 c 6.281,0.011 11.36005,5.093 11.37305,11.375 -0.013,6.279 -5.09405,11.36305 -11.37305,11.37305 -6.281,-0.01 -11.363,-5.09405 -11.375,-11.37305 0.009,-6.281 5.092,-11.364 11.375,-11.375 z m -207.380862,1.21484 c 3.646,0 7.12604,0.68278 10.33204,1.92578 v 14.59766 c 0.006,0.33 0.0277,0.74092 0.3457,1.16992 0.331,0.44 0.89578,0.59603 1.30078,0.58203 h 14.61914 c 1.305,3.262 1.98236,6.58599 1.98438,10.33399 0,3.645 -0.68379,7.12903 -1.92579,10.33203 h -14.72656 c -0.227,0.006 -0.6173,0.0112 -1.0293,0.32422 -0.42,0.325 -0.58136,0.86964 -0.56835,1.30664 v 14.63867 c -3.239,1.283 -6.61499,1.95508 -10.33399,1.95508 -3.648,0 -7.12998,-0.68178 -10.33398,-1.92578 v -14.68555 c -0.006,-0.18 0.003,-0.53708 -0.26953,-0.95508 -0.27501,-0.436 -0.86447,-0.67825 -1.35547,-0.65625 h -14.69922 c -1.244,-3.205 -1.92383,-6.68603 -1.92383,-10.33203 0,-3.648 0.68183,-7.13094 1.92383,-10.33594 h 14.68359 c 0.403,0.016 0.97958,-0.14475 1.3086,-0.59375 0.312,-0.438 0.32603,-0.83887 0.33203,-1.17187 v -14.58594 c 3.242,-1.283 6.60293,-1.92383 10.33593,-1.92383 z m -0.002,20.20703 c -4.626,0.002 -8.37495,3.75 -8.37695,8.375 0.002,4.627 3.75195,8.37496 8.37695,8.37696 4.626,-0.002 8.373,-3.74996 8.375,-8.37696 -0.002,-4.625 -3.75,-8.373 -8.375,-8.375 z m 0,2.00196 c 3.522,0.006 6.369,2.85304 6.375,6.37304 -0.006,3.521 -2.853,6.369 -6.375,6.375 -3.522,-0.006 -6.369,-2.854 -6.375,-6.375 0.006,-3.52 2.853,-6.36704 6.375,-6.37304 z M 228.02538,228.5227 c 2.69536,5.28963 16.93192,29.59216 22.54688,46.13086 1.01521,2.9871 1.99317,6.15764 2.95312,9.37109 -24.16563,-8.33773 -55.31161,-13.35547 -89.33984,-13.35547 -34.02916,0 -65.175562,5.01424 -89.339842,13.35157 0.95928,-3.21154 1.93883,-6.37785 2.95312,-9.36329 5.61705,-16.53725 19.8484,-40.83523 22.544922,-46.1289 13.47578,8.35422 28.70854,14.14493 45.01758,16.68555 -3.06005,4.96536 -5.16544,11.07397 -5.82422,17.85937 l 1.99024,0.19531 v -0.002 c 0.66103,-6.83833 2.83596,-12.95833 5.96484,-17.74414 1.39975,0.19266 2.80811,0.35748 4.22266,0.50195 -2.21929,4.38394 -3.63574,7.92312 -3.83203,8.53711 -0.083,0.236 -0.13282,0.52913 -0.13282,0.82813 v 0.0293 0.0274 c 0.024,1.185 0.80577,2.18543 1.88477,2.52343 1.058,0.28901 6.8908,1.11491 14.4668,1.12891 h 0.0176 c 7.042,0 13.38454,-1.09162 14.01954,-1.14062 1.04699,-0.082 1.92201,-0.75741 2.29101,-1.69141 h 0.18945 v -1 c 0.002,-0.406 -0.0919,-0.78977 -0.25195,-1.13477 -0.226,-0.791 -0.93809,-2.49331 -1.99609,-4.82031 -0.4712,-1.02687 -1.01428,-2.15413 -1.58594,-3.29883 1.38356,-0.14291 2.75954,-0.311 4.12891,-0.5 3.11976,4.77769 5.26659,10.91468 5.92773,17.73243 l 1.99023,-0.19141 c -0.65875,-6.75882 -2.70665,-12.89973 -5.75,-17.85352 16.28257,-2.54776 31.48718,-8.33496 44.94336,-16.67773 z m -63.94726,2.38867 h 0.0449 c 0.161,0.01 0.29902,0.0738 0.41602,0.17383 0.096,0.08 1.48078,1.75 3.05078,3.875 1.598,2.148 3.49607,4.86933 4.95507,7.36133 1.46301,2.496 2.91072,5.42236 4.01172,7.81836 1.089,2.358 1.87549,4.37378 1.89649,4.55078 l 0.0293,0.13672 0.0625,0.12304 c 0.043,0.082 0.0692,0.17163 0.0762,0.26563 -0.001,0.028 -5e-5,0.0436 0.002,0.0586 -0.001,0.363 -0.28767,0.6635 -0.63867,0.6875 l 0.0762,0.99805 -0.084,-0.99805 c -0.903,0.08 -6.96,1.13277 -13.875,1.13477 -7.335,0.013 -13.36668,-0.87792 -13.88868,-1.04492 -0.258,-0.081 -0.46289,-0.33939 -0.46289,-0.65039 l -0.002,-0.0586 c 0.005,-0.06 0.0162,-0.11106 0.0352,-0.16406 0.154,-0.521 2.54842,-6.48842 5.98242,-12.48242 1.485,-2.598 3.34358,-5.43311 4.89258,-7.66211 0.776,-1.113 1.47381,-2.07625 2.00781,-2.78125 0.267,-0.352 0.49411,-0.64075 0.66211,-0.84375 0.083,-0.1 0.15512,-0.18042 0.20312,-0.23242 0.018,-0.019 0.032,-0.033 0.041,-0.043 0.008,-0.008 0.006,-0.008 0.006,-0.008 v -0.002 c 0.176,-0.148 0.329,-0.21089 0.5,-0.21289 z"
   style="fill:#ffffff" />




















</svg>
