<?xml version="1.0" encoding="UTF-8" standalone="no"?>
<!-- Generator: Adobe Illustrator 13.0.0, SVG Export Plug-In . SVG Version: 6.00 Build 14948)  -->

<svg
   version="1.2"
   id="Layer_1"
   x="0px"
   y="0px"
   width="561.17151"
   height="102.78132"
   viewBox="0 0 561.17152 102.78132"
   xml:space="preserve"
   sodipodi:docname="system.svg"
   inkscape:version="1.1.2 (0a00cf5339, 2022-02-04)"
   xmlns:inkscape="http://www.inkscape.org/namespaces/inkscape"
   xmlns:sodipodi="http://sodipodi.sourceforge.net/DTD/sodipodi-0.dtd"
   xmlns="http://www.w3.org/2000/svg"
   xmlns:svg="http://www.w3.org/2000/svg"
   xmlns:rdf="http://www.w3.org/1999/02/22-rdf-syntax-ns#"
   xmlns:cc="http://creativecommons.org/ns#"
   xmlns:dc="http://purl.org/dc/elements/1.1/"><metadata
   id="metadata31"><rdf:RDF><cc:Work
       rdf:about=""><dc:format>image/svg+xml</dc:format><dc:type
         rdf:resource="http://purl.org/dc/dcmitype/StillImage" /></cc:Work></rdf:RDF></metadata><defs
   id="defs29">
	
	
	
	
	
	
	
	
	
	

	
	
	
	
	
	
	
	
	
	
</defs><sodipodi:namedview
   pagecolor="#bebebe"
   bordercolor="#666666"
   borderopacity="1"
   objecttolerance="10"
   gridtolerance="10"
   guidetolerance="10"
   inkscape:pageopacity="0"
   inkscape:pageshadow="2"
   inkscape:window-width="1920"
   inkscape:window-height="996"
   id="namedview27"
   showgrid="false"
   inkscape:zoom="0.8695959"
   inkscape:cx="123.62064"
   inkscape:cy="-165.01918"
   inkscape:window-x="0"
   inkscape:window-y="0"
   inkscape:window-maximized="1"
   inkscape:current-layer="Layer_1"
   inkscape:pagecheckerboard="0"
   fit-margin-top="0"
   fit-margin-left="0"
   fit-margin-right="0"
   fit-margin-bottom="0" />
<path
   id="path1156"
   style="fill:#000000"
   d="m 52.90625,0.00524258 c -2.290029,0.1079293 -4.546747,0.5863937 -6.813159,0.8685237 -3.035055,0.85515452 -6.226296,1.26241052 -9.066094,2.71241422 -2.910573,1.2685806 -5.837119,2.5449156 -8.586112,4.1358614 -1.861588,1.2306123 -3.859555,2.190897 -5.692839,3.4687471 -2.005566,1.088184 -3.433275,2.955596 -5.398865,4.104242 -2.493417,1.82847 -4.344804,4.355067 -6.297838,6.715024 -2.7315889,3.580724 -4.6864627,7.67133 -6.605717,11.721601 -1.0010897,2.771787 -2.154913,5.497393 -2.9417197,8.339993 -0.1882815,1.394693 -0.5506447,2.746962 -0.8866331,4.1129 C -0.132167,49.052706 0.2082134,52.033611 0,54.958368 c 0.4039601,2.233903 0.2581776,4.544179 0.8956455,6.74201 0.5419371,2.208935 1.1111068,4.361592 1.6203527,6.583911 1.420382,4.26238 2.9657892,8.523925 5.3325851,12.366291 0.7916522,1.487821 1.6834007,2.918866 2.8214817,4.17041 3.110292,3.79227 6.747515,7.148362 10.825631,9.877827 2.950062,2.096414 6.33085,3.465305 9.716558,4.68389 5.049141,1.591143 10.249009,2.789603 15.531886,3.243633 4.483421,0.36065 8.992714,0.0416 13.454349,-0.44192 6.471773,-1.29733 12.576479,-4.051602 18.18148,-7.494224 4.218631,-2.506606 7.991518,-5.791286 11.000043,-9.671428 2.746632,-3.611303 4.88997,-7.73226 6.01201,-12.137963 0.897503,-4.410133 1.262,-8.969703 0.642196,-13.443268 -0.54783,-4.584408 -1.449905,-9.121108 -2.46729,-13.621539 -0.571905,-2.224486 -1.169722,-4.451757 -2.170739,-6.528665 -1.636248,-3.914576 -3.994267,-7.557796 -7.023142,-10.53795 -1.586204,-1.417236 -3.258168,-2.739289 -4.957031,-4.019531 -2.641292,-1.853638 -5.418386,-3.63354 -8.567608,-4.47528 -2.31905,-0.71892 -4.666406,-1.339895 -7.070006,-1.70379 -2.899405,-0.537058 -5.818188,-1.039339 -8.777398,-1.027265 -2.780319,-0.05882 -5.61105,-0.137735 -8.304889,0.674449 -3.982268,1.120617 -7.654126,3.115338 -11.19368,5.216281 -3.072186,1.931382 -6.067875,4.106119 -8.338625,6.971118 -1.815033,2.168175 -3.480487,4.473226 -4.908657,6.912845 -0.729914,1.449161 -1.453708,2.912758 -2.076154,4.407796 -1.507475,4.558933 -1.989488,9.420575 -1.784639,14.20151 0.268731,2.539197 0.715026,5.02189 1.443531,7.476633 0.707867,3.455679 2.011051,6.793874 3.960938,9.740234 2.499471,4.097525 6.441597,7.129177 10.667968,9.291016 4.110092,2.09603 8.759446,2.841032 13.329658,2.965845 2.656519,0.07166 5.269907,-0.467655 7.884973,-0.848038 2.658621,-0.503166 5.208176,-1.475679 7.681237,-2.5544 4.010665,-1.886335 8.029607,-4.108517 10.888399,-7.582256 2.301755,-2.878858 3.719161,-6.482547 3.896297,-10.171628 0.688931,-6.49532 -0.479876,-13.25342 -3.649314,-18.991164 -2.205131,-3.621168 -5.557048,-6.531914 -9.456115,-8.20106 -2.753478,-1.229847 -5.6756,-2.07677 -8.678577,-2.395099 -4.375501,-0.550058 -9.142037,-0.486905 -13.017541,1.881507 -2.208227,1.458095 -4.27154,3.203638 -5.905934,5.290912 -1.674452,2.286057 -2.733106,4.965754 -3.295348,7.730381 -0.75557,3.171064 -0.249203,6.554017 0.969316,9.539737 1.048628,2.420122 2.510813,4.717947 4.629118,6.337465 1.670969,1.545858 3.709643,2.721744 5.965663,3.133595 3.207925,0.829843 6.579865,1.097381 9.855825,0.524359 -3.167945,1.319739 -6.709183,1.86359 -10.115235,1.353516 -1.622316,-0.258652 -3.116295,-0.997758 -4.611328,-1.646485 -3.180589,-1.6943 -5.296104,-4.887335 -6.452339,-8.2224 -1.025009,-4.123797 -1.718139,-8.569086 -0.384913,-12.706363 1.04285,-3.209069 3.258656,-5.812979 5.098971,-8.579049 1.564475,-1.782613 3.833115,-2.67663 5.779696,-3.955325 3.832227,-2.149707 8.350745,-2.826369 12.69462,-2.606006 2.164489,0.242395 4.303914,0.783298 6.340137,1.545706 0.360607,0.168757 0.897501,0.398689 1.397407,0.654351 3.360628,1.651614 6.418146,3.985018 8.65728,7.007758 1.61665,2.005899 2.966477,4.277719 3.521641,6.817663 1.074073,3.74442 2.270139,7.509572 2.463346,11.42672 0.124707,2.212485 0.728446,4.399887 0.432679,6.625395 -0.01031,1.449364 -0.392743,2.846524 -0.991034,4.159961 -0.675817,1.548101 -1.309239,3.135482 -2.414913,4.439011 -0.931697,1.300056 -1.861999,2.619958 -3.150704,3.598996 -1.368611,1.11969 -2.954471,1.941217 -4.407889,2.947879 -2.485026,1.646641 -5.33461,2.598646 -8.073866,3.72519 -3.838488,1.482392 -8.035767,1.625295 -12.101958,1.531701 -0.65705,-0.01689 -1.210556,-0.05492 -1.915973,-0.08892 -0.559048,-0.03545 -1.46036,-0.09858 -2.145806,-0.174676 -2.382705,-0.189696 -4.71235,-0.723985 -6.991413,-1.428503 -5.569217,-1.486578 -10.928636,-4.360163 -14.606312,-8.884772 -1.947059,-2.414515 -3.414612,-5.190356 -4.627222,-8.031941 -1.146608,-3.111765 -1.767744,-6.376109 -2.558936,-9.58753 -0.563049,-3.284041 -0.165087,-6.624553 -0.223239,-9.935001 0.06833,-2.083348 0.583081,-4.103634 0.989478,-6.144674 0.688659,-2.548486 2.150604,-4.793792 3.235291,-7.18201 2.273703,-4.804417 6.05168,-8.729473 10.276721,-11.878969 3.926196,-2.970903 8.227249,-5.47752 12.807177,-7.293752 2.164381,-0.788535 4.476487,-1.009052 6.726619,-1.441846 3.864826,-0.474524 7.768078,-0.0033 11.612242,0.445852 1.957656,0.290494 3.838649,0.527513 5.72592,0.839706 4.685665,0.968953 9.333822,2.480379 13.42032,5.010829 2.787562,1.908389 5.167803,4.354084 7.154155,7.076897 2.553663,3.237387 5.046789,6.578655 6.849536,10.301796 1.101469,2.719718 1.61285,5.647392 2.853439,8.316628 0.902846,2.848437 1.040207,6.072628 3.043351,8.456804 2.49814,3.146893 7.43536,4.256794 10.88946,2.071902 2.45589,-1.692478 3.21116,-4.888521 3.08328,-7.715193 -0.2046,-2.659608 -1.11854,-5.201734 -1.53432,-7.830459 -0.46976,-2.626038 -1.13963,-5.240187 -2.39695,-7.610073 -2.32297,-4.916898 -4.97408,-9.694245 -8.1682,-14.101834 C 99.908192,16.110851 96.266161,12.308374 91.825385,9.6932266 87.447008,7.0063903 82.820734,4.6342616 77.837575,3.2985954 72.544167,1.6688602 67.058976,0.61564208 61.520209,0.36600048 58.653584,0.13690948 55.783467,-0.03236122 52.90625,0.00524258 Z M 119.74219,15.661493 c 0.81992,1.247464 1.87668,2.358311 2.53258,3.701271 0.79929,2.658608 0.42632,5.47727 0.51951,8.212007 0.0134,17.746511 0.0261,35.493945 -0.008,53.239898 -0.11341,2.91803 -1.32294,5.643374 -2.78138,8.122267 -0.67344,1.077753 -0.44583,2.393658 -0.60083,3.597604 12.10276,0.0041 24.20651,0.09637 36.30866,0.02711 10.40221,-0.352954 20.78627,-4.462751 28.12628,-11.935536 7.04902,-7.072723 11.0457,-16.975096 11.18935,-26.934157 0.12257,-4.312637 -0.30513,-8.65226 -1.39187,-12.83124 0.59052,0.438659 1.10988,0.966475 1.24414,1.720703 0.78764,3.02031 0.42109,6.177715 0.51028,9.26289 -0.009,10.611863 0.0262,21.22578 -0.0304,31.836344 -0.0945,1.448327 -0.84285,2.723602 -1.77507,3.792617 -1.26308,1.700641 -2.52589,3.401484 -3.78875,5.102289 8.36979,0 16.73958,0 25.10937,0 -0.93871,-2.356002 -2.18353,-4.606099 -2.83413,-7.06639 -0.36805,-2.460128 -0.18094,-4.967531 -0.21115,-7.447672 0.0167,-7.191273 -0.0732,-14.384851 0.0546,-21.574612 0.20467,-2.880612 1.32611,-6.078574 4.05779,-7.462579 3.08022,-1.529792 6.72939,-0.785359 9.76147,0.491437 0.58589,0.243454 1.16291,0.506805 1.73977,0.770754 -1.99113,5.018329 -2.75183,10.504019 -2.38994,15.881382 0.56831,7.610212 4.10223,15.031372 9.96384,19.977123 5.44669,4.651793 12.60212,7.031286 19.71814,7.172567 5.48341,0.163145 10.91011,-1.046085 16.04956,-2.882853 1.0515,-0.359312 2.10298,-0.718642 3.1545,-1.077907 0.45383,-2.288664 0.90348,-4.578157 1.35546,-6.867187 1.89725,4.152449 5.46308,7.488667 9.74024,9.091797 4.96941,1.929226 10.49298,2.037499 15.68984,1.091543 1.73213,-0.360255 3.42513,-0.931737 4.99961,-1.741934 0.15928,0.468181 -0.18267,1.467149 0.2918,1.601562 12.83242,-3.95e-4 25.66484,-0.0018 38.49726,-0.002 -1.32752,-1.879876 -2.67617,-3.850681 -4.03711,-5.625 -0.19969,-0.277513 -0.62455,-0.870892 -0.83564,-1.318742 -0.90184,-2.405171 -0.44494,-5.024093 -0.55334,-7.530867 0.0176,-7.680768 -0.0466,-15.363417 0.0491,-23.042969 0.16888,-2.702811 1.26135,-5.713203 3.88247,-6.918454 2.28772,-1.101856 5.05867,-1.195242 7.42739,-0.305781 2.04288,1.061402 2.58446,3.526189 2.84718,5.619193 0.35339,3.323109 0.0838,6.670949 0.1733,10.005042 -0.0191,6.680405 0.0485,13.364779 -0.044,20.042668 -0.11975,1.418366 -0.6636,2.786352 -1.64292,3.828441 -1.29059,1.749509 -2.58126,3.498963 -3.87191,5.248422 9.05859,0 18.11718,0 27.17578,0 -1.45364,-2.099622 -2.96726,-4.15566 -4.47888,-6.212131 -1.26554,-1.858124 -0.94246,-4.23664 -0.98405,-6.364822 0.0215,-8.364072 -0.0553,-16.730267 0.0547,-25.092968 0.18362,-2.505159 0.9945,-5.366394 3.38089,-6.618779 2.24203,-1.180615 4.99314,-1.340776 7.39519,-0.589245 2.21315,0.807012 3.63879,2.966714 4.04652,5.221221 0.64325,3.139896 0.24279,6.364489 0.35725,9.543053 -0.0192,7.017674 0.0486,14.039192 -0.0435,21.054434 -0.12755,1.406298 -0.66392,2.764816 -1.64277,3.794147 -1.30655,1.755439 -2.61397,3.510229 -3.92129,5.26509 8.93424,0 17.86849,10e-7 26.80273,0 -1.47557,-2.129716 -3.01859,-4.210772 -4.54363,-6.303461 -1.21775,-1.897026 -0.88031,-4.269488 -0.91926,-6.411382 -0.009,-1.078102 -0.005,-2.156248 -0.006,-3.234375 2.74111,6.063907 7.76738,11.024634 13.84631,13.722176 6.98895,3.125834 14.91499,3.2892 22.37731,2.153807 3.13506,-0.488199 6.17707,-1.411643 9.22365,-2.274421 0.34744,-1.523271 0.67895,-3.138635 1.04102,-4.603515 2.50926,3.430541 6.29977,5.798457 10.40743,6.806452 4.52058,1.164181 9.32103,1.108317 13.87079,0.136125 1.49538,-0.360817 2.95131,-0.890712 4.32138,-1.591015 0.15961,0.467181 -0.18311,1.466342 0.2918,1.599609 7.02513,0 14.05026,0 21.07539,0 -0.1286,-0.293718 -1.18264,-1.171544 -0.38672,-0.880859 5.9154,1.258806 12.10228,1.869965 18.08203,0.689453 5.35572,-1.082128 10.60343,-3.862028 13.66391,-8.511703 1.10672,-1.660793 1.89603,-3.525242 2.37906,-5.459 0.37132,4.677195 2.61131,9.371346 6.6276,11.9697 4.03991,2.717069 9.16523,3.151544 13.87384,2.454181 2.18289,-0.281666 4.32647,-0.790298 6.47903,-1.238334 1.1298,-5.299802 2.25728,-10.600098 3.38477,-15.900391 -3.02306,1.038247 -5.95554,2.377069 -9.07315,3.115002 -1.26408,0.232585 -2.37114,0.313008 -3.62216,0.316639 -0.75399,0.04736 -1.57031,-0.393333 -1.55995,-1.234434 -0.0634,-2.167531 -0.011,-4.342178 -0.0369,-6.513218 -0.0161,-7.852338 -0.0185,-15.704685 -0.0145,-23.557036 2.53906,0.01824 5.14619,-0.188348 7.62064,0.480819 1.84929,0.635668 3.73031,1.337226 5.62545,1.995744 0.007,-5.195963 0.0141,-10.391926 0.0195,-15.587891 -4.40885,-0.0044 -8.81771,-0.01186 -13.22656,-0.01758 0.019,-5.48177 0.0364,-10.963546 0.0566,-16.445312 -7.06668,1.954494 -14.13427,3.905692 -21.20117,5.859375 1.46199,1.671655 3.02098,3.258923 4.46094,4.947265 0.69084,1.81527 0.66841,3.790114 0.67968,5.703125 -2.09114,0.0085 -4.18229,0.01736 -6.27343,0.02539 0.10608,0.700847 -0.86659,-0.09112 -1.26758,-0.07031 -4.45689,-1.334195 -9.13294,-1.899021 -13.77763,-1.872441 -5.58776,0.17426 -11.4105,1.815223 -15.47792,5.825513 -2.20253,2.142758 -3.64546,4.995222 -4.26984,7.990287 -1.48352,-4.588003 -4.72095,-8.609035 -9.01953,-10.839844 -4.64232,-2.473804 -10.03284,-3.026348 -15.21289,-2.716797 -4.75773,0.258741 -9.53271,0.955763 -14.0586,2.482422 -1.16768,0.403508 -2.25009,1.001877 -3.33398,1.585938 0,5.597005 0,11.19401 0,16.791015 3.78318,-2.107043 7.37931,-4.644893 11.49869,-6.071902 3.9492,-1.24683 8.27861,-1.829492 12.32855,-0.720552 1.55062,0.465272 3.24342,1.597853 3.25284,3.394017 0.0531,0.659011 0.069,1.510548 -0.66832,1.797876 -1.71805,0.981984 -3.74725,1.182703 -5.66958,1.483374 -1.7144,0.230697 -3.64329,0.456031 -5.4405,0.73281 -5.17575,0.775678 -10.48096,2.437927 -14.32172,6.156932 -3.67019,3.409027 -5.40479,8.45624 -5.54258,13.380239 0.018,0.534255 -0.77637,0.576531 -1.10304,0.901728 -4.34221,2.507535 -9.22788,4.479884 -14.32458,4.306806 -3.99421,-0.143 -8.1556,-1.690685 -10.58782,-4.996104 -2.99382,-4.082238 -3.56333,-9.396682 -3.13589,-14.308318 0.35989,-4.08668 1.99687,-8.383098 5.52449,-10.744406 3.4028,-2.253822 7.68221,-2.804222 11.67114,-2.379535 4.02271,0.531408 7.8045,2.182435 11.22925,4.30727 1.055,0.631898 2.3378,0.441585 3.50782,0.632812 0.0138,-5.11458 0.0238,-10.229169 0.0371,-15.34375 -5.1636,-1.603677 -10.44662,-3.045589 -15.88334,-3.211475 -7.9084,-0.386354 -16.1015,1.722499 -22.34613,6.716558 -3.26476,2.594047 -5.91932,5.940333 -7.74124,9.688277 -0.87436,-6.309779 -5.57441,-11.636249 -11.2977,-14.165336 -5.39039,-2.415812 -11.59963,-2.821039 -17.32429,-1.472879 -3.07463,0.782871 -5.96092,2.227816 -8.51668,4.097199 -4.98241,-4.079865 -11.76302,-5.6179 -18.0801,-4.732825 -2.13966,0.330393 -4.2254,1.009664 -6.15037,2.000403 0.004,-0.925778 0.006,-1.851563 0.01,-2.777344 -7.45237,1.151713 -14.9048,2.303051 -22.35742,3.453125 1.41825,1.818352 2.9041,3.582256 4.37344,5.357096 0.97032,1.464978 1.19823,3.292536 1.38965,5.006329 0.17714,3.07021 0.0223,6.14917 0.0735,9.223294 -0.0166,9.277606 0.0425,18.559406 -0.0452,27.834368 -0.0934,0.786777 -0.26858,1.57078 -0.59414,2.29571 -0.75856,-2.372133 -0.58931,-4.910734 -0.6845,-7.369435 -0.0155,-7.675225 0.0395,-15.351075 -0.0259,-23.02616 -3.3e-4,-5.805615 -1.6569,-11.892874 -5.79347,-16.137608 -4.00884,-4.170336 -9.87737,-5.994316 -15.54057,-6.208608 -5.84806,-0.145693 -11.74313,0.534363 -17.35881,2.193897 -1.45305,0.482779 -2.8764,1.049167 -4.31547,1.571352 0.006,5.712888 0.0102,11.42578 0.0137,17.138672 3.87821,-2.162007 7.56307,-4.785136 11.81446,-6.183594 0.69335,-0.203147 1.24951,-0.358579 1.87165,-0.506768 3.39134,-0.775898 7.02917,-1.061959 10.39397,-0.01862 1.50337,0.494861 3.048,1.687368 3.00317,3.422135 0.0679,0.664884 -0.0256,1.452651 -0.74162,1.721317 -2.12178,1.124203 -4.58679,1.269691 -6.92262,1.618145 -5.24319,0.624937 -10.7315,1.427394 -15.30964,4.293487 -1.91549,1.183681 -3.63256,2.698711 -4.99609,4.493744 0.0572,-4.971389 -0.20933,-10.05687 -2.02059,-14.743602 -2.09156,-5.731339 -6.49687,-10.687368 -12.20792,-12.973195 -5.07563,-2.055904 -10.76652,-2.359392 -16.1175,-1.356816 -4.24571,0.844844 -8.31347,2.689449 -11.64227,5.472051 0.33465,-0.873444 0.66804,-1.747372 1.00196,-2.621094 -4.36851,-1.703846 -8.87354,-3.447531 -13.63524,-3.43091 -3.80117,-0.06553 -7.6326,0.888988 -10.90773,2.833254 0,-1.215495 0,-2.43099 0,-3.646485 -6.68022,1.039572 -13.35968,2.083979 -20.03906,3.128907 -3.29452,-7.890773 -9.65448,-14.350001 -17.31506,-18.084561 -7.13278,-3.568917 -15.19458,-5.027051 -23.13455,-4.803116 -11.30651,-0.01782 -22.61302,-0.03656 -33.91954,-0.05373 0.76563,1.059245 1.53125,2.11849 2.29688,3.177735 z m 30.58008,11.101562 c 5.4309,0.02134 11.09722,0.544417 15.89939,3.301048 3.88771,2.208903 6.82684,5.90247 8.29412,10.10963 1.97079,5.429179 2.23029,11.338925 1.6824,17.043029 -0.62869,5.518839 -2.80974,11.075441 -7.03802,14.823637 -4.60063,4.141527 -10.84747,5.964654 -16.93478,6.236458 -3.57886,0.206086 -7.17066,0.04304 -10.73514,-0.310677 0,-16.904948 0,-33.809896 0,-50.714844 2.92948,-0.355655 5.88161,-0.505995 8.83203,-0.488281 z m 360.97461,19.121094 c 3.59093,0.104693 7.46008,0.794277 10.15039,3.373047 1.92237,1.57588 3.84108,3.156332 5.76172,4.734375 0.01,-2.088542 0.0193,-4.177085 0.0293,-6.265625 1.1569,6.51e-4 2.31381,0.0013 3.47071,0.002 -0.002,7.037109 -0.006,14.074219 -0.002,21.111328 -1.3739,-4.938517 -5.27959,-8.741261 -9.62733,-11.221835 -4.48584,-2.699402 -9.5708,-4.166972 -14.16625,-6.64217 -0.53245,-0.356762 -1.22629,-0.624222 -1.54821,-1.202401 -0.0297,-1.574285 1.08879,-3.027197 2.61636,-3.408972 1.06118,-0.373706 2.19584,-0.48592 3.31528,-0.4797 z m -258.79883,0.521484 c 0.54476,0.01322 0.92435,0.02167 1.53711,0.09766 2.42914,0.312196 4.82829,1.631765 5.99805,3.847656 -4.93295,0 -9.86589,0 -14.79883,0 1.71551,-2.232247 4.35349,-4.030152 7.26367,-3.945313 z M 52.894531,49.141962 c 2.238745,0.294579 4.530187,0.84802 6.347794,2.260842 1.491599,0.881666 2.185662,2.533546 2.672176,4.115884 0.532649,1.399616 0.798333,2.886199 0.663711,4.384371 -0.141562,1.787626 0.199497,3.671198 -0.576259,5.354137 -0.588833,0.62346 -1.222923,1.209344 -1.923828,1.705078 1.726929,-1.665495 2.368688,-4.241738 2.103515,-6.578125 -0.440174,-3.187986 -3.332711,-6.120569 -6.679687,-5.857422 -1.7067,0.06077 -3.431719,0.240665 -5.121209,-0.07461 -0.354038,0.05274 -0.884998,0.108626 -0.91435,-0.395184 -0.336114,-0.761133 -0.926378,-1.687451 -0.297292,-2.466124 0.708177,-1.379641 2.015477,-2.785267 3.725429,-2.448843 z M 491.58985,57.75329 c 2.56851,4.074105 6.92507,6.509334 11.21059,8.413986 2.15758,0.960714 4.33411,1.813204 6.42497,2.770931 1.94891,0.973848 4.08873,1.820325 5.5621,3.488527 1.15779,1.307612 0.79059,3.329576 -0.0531,4.701556 -1.14656,1.73669 -3.36082,2.2898 -5.30585,2.53552 -3.92445,0.351868 -7.76094,-1.039465 -11.24103,-2.719114 -2.48082,-1.200176 -4.68125,-2.869246 -6.94922,-4.414063 -0.017,-5.129542 0.0296,-10.259246 -0.0156,-15.388671 0.12239,0.203776 0.24479,0.407552 0.36719,0.611328 z m -216.21094,5.99414 c 0.42309,0.102237 1.75729,-0.302656 1.05684,0.424952 -1.27208,2.138126 -2.07711,4.537499 -2.4709,6.989111 -2.81262,2.143287 -5.38969,4.727323 -8.76368,5.990234 -3.97411,1.612791 -8.37886,2.311732 -12.64185,1.72861 -3.79802,-0.604072 -7.29465,-3.030414 -8.96739,-6.526963 -1.37351,-2.641553 -1.93376,-5.645766 -1.93568,-8.605944 11.24089,0 22.48177,0 33.72266,0 z m 30.23633,4.90625 c 0.005,3.327493 -0.89044,7.028908 -3.68711,9.115729 -2.21423,1.585553 -5.08942,2.065758 -7.75343,1.768178 -2.22932,-0.517007 -4.46145,-2.12808 -4.95985,-4.462032 -0.3076,-1.935547 0.49459,-4.093151 2.28709,-5.03871 2.55395,-1.438989 5.52345,-1.842019 8.3767,-2.301324 1.92428,-0.262635 3.85698,-0.517939 5.7366,-1.019341 0,0.645834 0,1.291667 0,1.9375 z m 169.94726,0.0059 c 0.006,3.297027 -0.87306,6.947207 -3.60624,9.051028 -2.2224,1.633573 -5.13686,2.127223 -7.83234,1.827019 -2.21511,-0.511579 -4.41346,-2.104127 -4.94814,-4.405391 -0.31912,-1.91693 0.43679,-4.078735 2.20048,-5.046734 2.38274,-1.386403 5.17231,-1.827448 7.85753,-2.258489 2.11732,-0.318539 4.25535,-0.556059 6.32871,-1.10884 0,0.647136 0,1.294271 0,1.941407 z" /><path
   fill="#666666"
   d="m 126.80519,23.337524 c 0,-2.409 -0.458,-5.529 -1.522,-6.841 6.973,0 22.039,0.046 28.497,0.046 14.859,0 37.277,8.247 37.277,36.052 0,20.635 -15.826,36.008 -37.277,36.008 -4.705,0 -22.67,-0.058 -29.044,-0.058 1.306,-2.411 2.069,-5.685 2.069,-8.269 z m 10.687,58.199 c 6.858,0.892 13.189,1.165 18.917,0.347 5.542,-0.793 24.165,-4.805 24.049,-29.529 -0.109,-23.431 -14.581,-28.788 -25.731,-29.443 -5.819,-0.343 -11.436,-0.123 -17.236,0.881 z"
   id="path6"
   style="fill:#ffffff" /><path
   fill="#666666"
   d="m 197.17919,38.635524 10.676,-1.667 c 0,2.186 0,8.596 0,9.4 2.738,-6.767 11.259,-12.205 23.366,-7.493 l -2.838,7.433 c -11.082,-5.26 -20.528,-0.646 -20.528,11.661 v 25.394 c 0,1.209 0.264,3.648 0.985,5.213 h -11.089 c 1.12,-1.381 1.64,-4.004 1.64,-5.213 v -36.63 c -0.003,-2.657 -0.545,-6.77 -2.212,-8.098 z"
   id="path8"
   style="fill:#ffffff" /><path
   fill="#666666"
   d="m 534.71119,43.731524 c 0,0.693 0,30.229 0,32.434 0,10.183 7.019,12.905 12.219,12.905 2.197,0.107 5.313,-0.406 7.488,-0.889 l 1.338,-6.285 c -2.535,0.97 -5.481,1.197 -7.25,1.197 -3.26,0 -5.617,-2.164 -5.617,-5.549 0,-3.037 -0.077,-32.809 0,-33.761 h -0.034 c 0.432,0 7.196,-0.024 7.879,0 2.217,0.078 3.92,0.213 5.387,0.803 l 0.008,-5.919 c 0,0 -12.985,-0.017 -13.239,-0.017 l 0.053,-15.181 -9.838,2.719 c 1.356,1.269 1.797,4.982 1.797,7.431 0,0 -0.008,4.536 -0.008,5.083 -0.441,0 -5.438,0.025 -6.265,0.025 v 5.001 c 0.873,0 6.082,0.003 6.082,0.003 z"
   id="path10"
   style="fill:#ffffff" /><path
   fill="#666666"
   d="m 492.18519,78.029524 c 4.229,3.021 10.866,5.703 15.733,5.703 6.752,0 11.588,-3.285 11.588,-9.469 0,-11.414 -26.022,-9.522 -26.022,-24.004 0,-9.792 8.756,-13.476 17.1,-13.476 2.683,0 8.806,0.582 12.697,2.088 l -0.031,6.688 c -3.459,-2.955 -8.735,-3.669 -12.213,-3.669 -5.521,0 -9.668,2.74 -9.668,8.112 0,7.887 26.002,7.43 26.002,23.621 0,10.471 -9.07,15.354 -19.055,15.354 -4.865,0 -9.939,-0.862 -14.16,-2.071 z"
   id="path12"
   style="fill:#ffffff" /><path
   fill="#666666"
   d="m 335.09919,43.832524 c 0,-0.592 0.021,-5.895 0.021,-6.574 l -10.809,1.671 c 1.303,1.365 2.303,5.623 2.303,8.667 v 35.414 c 0,1.209 -0.519,4.143 -1.641,5.521 h 11.784 c -1.118,-1.381 -1.637,-4.313 -1.637,-5.521 v -26.645 c 0,-9.75 6.031,-13.164 12.035,-13.164 5.434,0 10.344,2.352 10.344,13.164 v 26.646 c 0,1.209 -0.52,4.142 -1.637,5.521 h 11.428 c -1.123,-1.381 -1.637,-4.313 -1.637,-5.521 v -26.646 c 0,-10.811 6.678,-13.164 12.123,-13.164 5.43,0 11.111,3.411 11.111,13.164 v 26.646 c 0,1.209 -0.515,4.142 -1.642,5.521 h 11.008 c -1.127,-1.381 -1.639,-4.313 -1.639,-5.521 v -31.706 c 0,-5.404 -5.516,-14.063 -18.391,-14.063 -7.492,0 -11.818,3.333 -15.103,6.2 -2.793,-3.26 -7.34,-6.317 -14.647,-6.317 -7.116,-0.003 -11.319,4.17 -13.374,6.707 z"
   id="path14"
   style="fill:#ffffff" /><path
   fill="#666666"
   d="m 309.61319,60.446524 c -1.543,1.453 -4.773,2.579 -8.107,3.019 -8.762,1.147 -16.352,2.604 -16.352,11.137 0,5.063 5.52,9.048 9.891,9.048 11.578,0 14.57,-8.353 14.57,-14.935 v -8.269 z m -27.352,-20.883 c 4.419,-1.771 11.549,-2.583 16.021,-2.583 11.42,0 19.008,5.705 19.008,18.95 v 21.972 c 0,4.069 0.062,7.924 1.512,10.631 h -9.178 l -0.332,-5.78 c -3.473,4.487 -7.627,6.495 -14.676,6.495 -13.91,0 -16.946,-9.503 -16.946,-14.069 0,-16.297 15.512,-16.485 22.249,-17.447 3.728,-0.526 8.521,-1.58 9.244,-5.074 1.188,-5.78 -2.942,-10.114 -11.385,-10.114 -6.197,0 -11.273,1.885 -15.514,4.422 z m 197.303,20.883 c -1.541,1.453 -4.773,2.579 -8.109,3.019 -8.76,1.147 -16.348,2.604 -16.348,11.137 0,5.063 5.516,9.048 9.887,9.048 11.576,0 14.57,-8.353 14.57,-14.935 z m -27.349,-20.883 c 4.418,-1.771 11.556,-2.583 16.023,-2.583 11.414,0 19.002,5.705 19.002,18.95 v 21.972 c 0,4.069 -0.887,7.841 1.508,10.631 h -9.176 l -0.334,-5.78 c -3.478,4.487 -7.625,6.495 -14.674,6.495 -13.902,0 -16.943,-9.503 -16.943,-14.069 0,-16.297 15.512,-16.485 22.246,-17.447 3.729,-0.526 8.527,-1.58 9.242,-5.074 1.19,-5.78 -2.941,-10.114 -11.385,-10.114 -6.195,0 -11.271,1.885 -15.513,4.422 v -7.4 z"
   id="path16"
   style="fill:#ffffff" /><path
   fill="#666666"
   d="m 442.44319,46.301524 c -3.443,-2.012 -8.879,-3.605 -12.67,-3.605 -13.312,0 -19.412,8.185 -19.412,19.976 0,11.68 5.965,20.625 18.983,20.625 4.462,0 10.535,-2.006 15.25,-4.902 l -1.918,8.593 c -4.799,1.428 -8.842,2.108 -14.194,2.108 -18.295,0 -26.871,-12.977 -26.871,-26.479 0,-14.921 11.504,-25.417 27.072,-25.417 6.805,0 11.771,1.668 13.776,2.238 z"
   id="path18"
   style="fill:#ffffff" /><path
   fill="#666666"
   d="m 237.63819,63.297524 c 0.008,-1.234 0.172,-2.41 0.31,-3.55 h 35.401 c 0,-12.169 -6.087,-22.608 -20.505,-22.608 -14.965,0 -23.85,11.703 -23.85,26.63 0,13.498 9.891,25.56 26.832,25.56 5.356,0 9.834,-1.319 14.669,-3.012 l 1.701,-8.63 c -4.135,3.404 -10.817,5.418 -16.849,5.418 -10.841,0 -17.756,-7.849 -17.709,-19.808 z m 1.431,-8.948 c 1.149,-5.92 6.628,-11.952 13.184,-11.952 10.018,0 12.917,7.817 12.917,11.952 -0.002,0 -26.101,0.019 -26.101,0 z"
   id="path20"
   style="fill:#ffffff" />
<path
   fill="#cf3311"
   d="m 69.050188,5.2815238 c 3.968999,0.596 8.026,1.984 10.141,2.63 4.261,1.302 11.177,5.3510002 13.621,7.2910002 1.157,0.918 3.584999,3.323 4.528,4.533 0.917,1.179 2.667002,3.733 3.783002,5.308 1.781,2.597 3.874,6.466 5.648,10.025 1.984,3.978 2.12,5.13 2.721,8.455 l 1.311,5.862 c 0.123,1.014 0.227,4.731 -1.957,5.251 -2.181,0.521 -4.199,-0.483 -5.15,-1.955 -1.316,-2.036 -1.133,-4.926 -2.623,-8.234 -1.161002,-2.674 -1.666002,-6.561 -3.521002,-9.355 l -1.453001,-2.458 c -2.572999,-3.96 -5.253,-7.103 -6.851,-9.153 -1.411,-1.723 -4.04,-4.064 -6.531,-5.729 -2.306,-1.398 -6.032,-2.993 -8.719,-3.813 -0.855999,-0.279 -4.524,-1.357 -6.799999,-1.66 -3.093001,-0.347 -5.126001,-0.836 -8.063001,-1.043 -3.63,-0.256 -5.366999,-0.578 -10.073999,-0.028 -1.783,0.484 -4.605001,0.676 -7.147,1.647 -2.053,0.837 -4.906,2.189 -7.703,3.832 -3.012,1.651 -7.578,5.026 -10.609,7.907 -3.054,3.263 -4.582,5.014 -6.687,9.15 -0.931,2.046 -2.736,5.213 -3.464,7.447 -0.497,2.269 -1.443,6.5 -1.286,8.556 0.073,3.681 -0.25,4.44 0.027,7.45 0.01,2.71 0.899,4.588 1.27,6.806 0.315,1.53 1.787,6.828 2.694,8.062 4.129,8.9 9.675,12.755 15.856,15.537 1.741999,0.888 7.191,2.346 8.767,2.763 2.69,0.485 6.227,0.81 9.633,0.875 3.582999,0.069 8.521999,-0.414 11.516999,-1.519 3.244,-1.193 6.997,-2.891 6.953,-2.84 1.504001,-0.832 3.802001,-2.187 4.516001,-2.781 1.383,-0.885 2.217,-1.228 3.034,-2.08 1.184,-1.033 1.898,-1.629 2.794,-2.91 0.497,-0.721 1.292,-1.827 2.059,-2.805 0.83,-1.36 1.307,-2.793 2.116,-4.564 0.968,-2.623 0.818,-2.496 1.003,-5.277 0.175,-0.807 -0.02,-3.519 -0.164,-3.979 -0.437,-2.502 -0.283,-4.709 -0.856001,-7.139 -0.771,-3.287 -1.417,-5.747 -2.402,-8.899 -0.928999,-3.549 -3.655999,-6.838 -5.702,-9.188 -1.268,-1.457 -5.200999,-4.895 -10.658,-7.043 -1.538,-0.517 -4.05,-1.103 -5.647,-1.395 -3.41,-0.356 -3.965,-0.127 -7.229,0.111 -1.124,0.196 -3.731,0.729 -4.692,1.066 -2.804,0.985 -3.835,1.611 -6.702,3.366 -1.334,0.775 -2.34,1.368 -3.705,2.646 -1.088999,1.008 -1.867999,2.72 -2.748,3.725 -1.209,1.644 -2.553999,3.836 -3.456,6.201 -0.978,2.353 -1.293,5.664 -1.143,7.795 0,1.621 0.441,4.598 0.616,5.246 0.176,0.65 0.616,2.67 0.71,3.076 0.097,0.405 1.145,2.541 1.292001,2.853 0.593,1.261 1.725999,3.069 3.632999,4.919 1.411,1.54 4.133,3.05 6.174001,3.635 1.828,1.006 4.912,1.174 6.62,1.178 0.838999,-0.053 2.984,-0.184 4.103,-0.451 2.271,-0.545 2.688,-0.56 5.028,-1.575 2.1,-0.974 3.523,-1.325 4.985999,-2.403 0,0 2.007001,-1.572 2.919,-2.724 0.481001,-0.604 1.306,-3.5 1.161,-5.293 -0.069,-2.453 0.289,-3.845 -0.214,-5.863 -0.5,-2.019 -1.354,-4.358 -2.280999,-5.8 -0.939001,-1.46 -2.956001,-2.882 -5.251,-4.017 -1.288,-0.636 -4.333,-1.224 -5.627001,-1.376 -2.453,-0.292 -4.506,0.823 -5.753,2.097 -1.082,1.236 -3.22,3.803 -2.369,6.457 0.771,2.4 1.703001,4.959 5.304001,4.77 2.472999,0.516 5.329999,-0.229 6.283,0.207 1.412999,0.803 1.955,2.573 1.442999,3.811 -0.359,2.383 -2.643,2.668 -5.076,2.852 -2.18,0.365 -7.715,-0.702 -8.93,-1.613 -0.816,-0.484 -2.067,-1.647 -2.945999,-2.435 -0.633001,-0.568 -1.346,-1.828 -1.837001,-2.734 -0.598,-1.114 -0.903,-1.933 -1.057,-2.657 -0.185,-0.86 -0.562,-2.506 -0.419,-4.149 0.099,-1.108 0.394,-1.582 0.688001,-3.203 0.589,-1.84 1.32,-3.239 2.497999,-4.834 1.532,-1.556 3.479,-3.408 5.380001,-4.269 1.676,-0.886 4.613,-1.211 7.268,-1.056 2.156,0.206 4.702,0.469 6.389,1.033 2.884,1.03 3.708,1.236 6.077,2.73 1.998999,1.237 4.012,3.516 5.135999,5.402 2.39,4.89 3.760001,10.328 2.764,17.653 -0.081,1.236 -0.465999,2.443 -1.237,4.084 -0.713999,1.511 -1.959999,3.35 -3.837999,4.732 -0.754,0.699 -1.946,1.561 -2.915001,2.063 -1.375,0.834 -2.298999,1.269 -3.732999,1.989 -1.26,0.594 -2.73,1.27 -4.646,1.802 -2.076,0.821 -3.67,0.854 -6.281,1.243 -2.568,0.646 -9.602,0.187 -13.792,-1.662 -2.857,-1.203 -6.064,-3.321 -8.505,-5.904 -1.354,-1.422 -2.681,-3.996 -3.069,-4.523 -1.94,-3.729 -2.319,-7.233 -2.631,-7.973 -0.422,-1 -0.631,-3.244 -0.916,-4.779 -0.319,-1.724 -0.122,-8.941 1.617,-13.573 0.981,-1.845 1.555,-3.49 2.217,-4.353 1.193,-1.696 1.769,-2.755 2.782,-3.957 1.528,-1.852 2.64,-3.364 4.127,-4.431 3.793,-3.083 6.959,-4.711 11.245,-6.746 5.324,-2.168 6.923,-1.72 11.964,-1.639 2.267,0.02 5.566,0.733 7.189,1.027 3.012,0.401 4.738,1.127 6.773,1.695 2.178,0.608 3.436,1.58 5.226,2.659 1.47,0.949 3.202,2.251 4.345,3.308 2.927,2.146 4.337,4.401 6.131,7.171 0.327,0.464 2.455,5.002 2.794,6.266 0.158,0.633 0.638,2.449 0.949,3.511 0.396,1.685 0.590999,3.176 1.036,5.078 0.396,1.957 1.072,5.652 1.364,9.107 0.495,2.965 -0.296,9.016 -0.76,10.871 -1.035,3.463 -2.85,7.69 -6.428,11.762 -1.519001,1.804 -3.135001,3.199 -5.003,4.717 -1.427001,1.189 -2.653001,1.886 -4.861,3.202 -2.996,1.788 -5.276,2.931 -9.477001,4.573 -1.71,0.549 -3.866,1.271 -6.188,1.75 -4.499,0.408 -9.123,0.805 -14.169,0.206 -5.047,-0.602 -10.101999,-2.023 -13.089,-2.939 -1.649,-0.618 -4.841,-1.955 -6.178,-2.68 -0.872,-0.44 -3.793,-2.438 -4.288,-2.918 -2,-1.237 -6.479,-5.449 -9.370999,-9.375 -0.633,-1.217 -2.9110005,-4.854 -3.4060005,-6.448 -1.313,-2.697 -2.229,-5.96 -2.766,-7.354 -0.568,-3.254 -1.528,-5.348 -1.902,-8.611 0.042,-0.768 -0.154,-2.577 -0.33,-3.578 0.254,-2.235 -0.086,-4.339 0.358,-6.773 0.39,-2.053 0.904,-2.91 1.028,-4.766 0.121,-0.794 1.141,-3.182 1.415,-4.245 0.826,-1.75 1.03,-3.191 2.107,-5.147 1.5490005,-3.048 3.1720005,-6.554 5.6620005,-9.617 0.712,-0.95 2.728999,-3.228 3.415999,-4.017 1.625,-1.625 2.578,-1.881 4.421,-3.51 0.190001,-0.12 1.409,-1.508 2.685,-1.985 2.111,-1.632 3.937,-2.23 5.948,-3.715 4.029001,-2.0080002 5.497,-2.6860002 9.497,-4.3510002 2.313001,-0.825 5.534,-1.28 6.694001,-1.73 2.209,-0.137 4.451,-0.841 6.773,-0.702 2.607,-0.024 5.234,0.162 7.855,0.4 1.766,0.102 4.072,0.188 7.199,0.868 z"
   id="path24" />
</svg>
