<?xml version="1.0" encoding="UTF-8" standalone="no"?>
<!-- Creator: CorelDRAW -->

<svg
   xml:space="preserve"
   width="6.3032346in"
   height="4.6508632in"
   style="fill-rule:evenodd;image-rendering:optimizeQuality;shape-rendering:geometricPrecision;text-rendering:geometricPrecision"
   viewBox="0 0 6303.4479 4650.5053"
   version="1.1"
   id="svg35"
   sodipodi:docname="controller.svg"
   inkscape:version="1.1.2 (0a00cf5339, 2022-02-04)"
   xmlns:inkscape="http://www.inkscape.org/namespaces/inkscape"
   xmlns:sodipodi="http://sodipodi.sourceforge.net/DTD/sodipodi-0.dtd"
   xmlns="http://www.w3.org/2000/svg"
   xmlns:svg="http://www.w3.org/2000/svg"
   xmlns:rdf="http://www.w3.org/1999/02/22-rdf-syntax-ns#"
   xmlns:cc="http://creativecommons.org/ns#"
   xmlns:dc="http://purl.org/dc/elements/1.1/"><metadata
   id="metadata39"><rdf:RDF><cc:Work
       rdf:about=""><dc:format>image/svg+xml</dc:format><dc:type
         rdf:resource="http://purl.org/dc/dcmitype/StillImage" /></cc:Work></rdf:RDF></metadata><sodipodi:namedview
   pagecolor="#ffffff"
   bordercolor="#666666"
   borderopacity="1"
   objecttolerance="10"
   gridtolerance="10"
   guidetolerance="10"
   inkscape:pageopacity="0"
   inkscape:pageshadow="2"
   inkscape:window-width="1920"
   inkscape:window-height="996"
   id="namedview37"
   showgrid="false"
   fit-margin-top="0"
   fit-margin-left="0"
   fit-margin-right="0"
   fit-margin-bottom="0"
   inkscape:zoom="0.84096619"
   inkscape:cx="32.700482"
   inkscape:cy="181.33904"
   inkscape:window-x="0"
   inkscape:window-y="0"
   inkscape:window-maximized="1"
   inkscape:current-layer="Layer 1"
   inkscape:pagecheckerboard="0"
   inkscape:document-units="in"
   showguides="true"
   inkscape:guide-bbox="true"><sodipodi:guide
     position="2311.6578,3926.2143"
     orientation="1,0"
     id="guide1253" /><sodipodi:guide
     position="2425.5236,4011.6042"
     orientation="0,-1"
     id="guide1255" /></sodipodi:namedview>
 <defs
   id="defs4">
  <style
   type="text/css"
   id="style2">
   <![CDATA[
    .str0 {stroke:#E5E5E5;stroke-width:3}
    .fil0 {fill:none}
    .fil1 {fill:#E5E5E5}
   ]]>
  </style>
 
   
   
   
   
   
   
   
   
   
   
   
   
  </defs>
 <g
   id="Layer 1"
   transform="translate(-982.27608,-3996.7303)">
  
  
 <path
   id="path2235"
   style="fill:#000000;stroke:none;stroke-width:1"
   class="fil1"
   d="m 3746.873,4591.375 c -3.8869,-0.026 -7.7405,0.545 -11.6077,0.8246 -6.5193,0.1177 -13.0275,-0.4643 -19.5473,-0.4101 -13.8181,-0.095 -27.6362,-0.1904 -41.4543,-0.2856 0,7.319 0,14.638 0,21.957 -4.6121,-6.1526 -10.3187,-11.5735 -17.0897,-15.2859 -8.0286,-4.4839 -17.2964,-6.5106 -26.4587,-6.3632 -9.0595,-0.044 -18.1194,-0.01 -27.1789,-0.019 -5.0582,-0.021 -10.142,0.413 -15.0432,1.7127 -10.0846,2.5332 -19.255,8.4792 -25.7029,16.6345 -3.1814,3.8777 -5.399,8.4028 -8.0467,12.6359 -4.0519,6.7723 -8.1095,13.5416 -12.1577,20.3159 0,-8.0827 0,-16.1654 0,-24.248 -4.948,-4.7515 -9.7974,-9.6059 -14.7939,-14.3062 -2.9349,-2.6829 -6.3817,-4.713 -9.7906,-6.7173 -3.3998,-1.1495 -6.6891,-2.7266 -10.2753,-3.2298 -3.6585,-0.7069 -7.3915,-0.8879 -11.1101,-0.8034 -56.3534,0 -112.7072,-0.012 -169.0605,0.02 -16.6549,0.2624 -33.1001,6.8328 -45.3939,18.0642 -9.3983,8.5135 -16.3745,19.6525 -19.9627,31.8128 -3.5409,9.6973 -5.188,20.0617 -4.9411,30.3778 0.01,32.6483 -0.014,65.2972 0.024,97.9451 0.2368,8.6317 2.5505,17.088 5.8099,25.0405 6.2877,14.733 17.1467,27.219 29.9889,36.651 13.2244,9.7043 28.8718,16.3781 45.2555,18.0605 6.429,0.6231 12.8959,0.3035 19.3432,0.3436 33.7352,-0.1532 67.4777,-0.842 101.2086,0.039 7.7829,0.01 15.5866,-0.9216 23.091,-3.0143 59.8698,0 119.7396,0 179.6094,0 0,-2.9584 0,-5.9167 0,-8.875 6.8651,4.8036 14.9853,7.7216 23.3102,8.5741 4.7526,0.507 9.5387,0.23 14.3078,0.3009 34.4593,0 68.9187,0 103.3781,0 0,-0.6928 0,-1.3855 0,-2.0782 5.3338,1.5443 10.904,2.1717 16.4488,2.0633 8.7985,0.031 17.5977,0.016 26.396,0.01 5.0086,-0.043 10.0286,-0.6563 14.8349,-2.0967 0,0.7018 0,1.4036 0,2.1055 107.4459,0 214.8919,0 322.3379,0 0,-1.6023 0,-3.2045 0,-4.8067 9.2012,3.5104 19.1002,5.0513 28.9324,4.8067 43.6047,0 87.2098,0.012 130.8144,-0.022 11.4611,-0.1472 22.9932,-2.908 32.9485,-8.6773 4.0157,2.1257 8.2046,3.9696 12.5633,5.2654 2.5989,0.7224 5.2945,0.9828 7.9069,1.6507 7.2907,1.6391 14.7214,2.9298 22.2208,2.7793 38.8258,0 77.652,0.016 116.4777,-0.021 4.0792,-0.014 8.1087,-0.732 12.1669,-1.0237 5.0064,-0.2687 9.9796,-1.0634 14.8679,-2.162 3.8428,-0.881 7.625,-2.0326 11.3004,-3.4597 7.5409,4.5787 16.4183,6.7859 25.2168,6.6504 22.1002,0.035 44.2008,0.01 66.3012,0.016 24.3316,-0.01 48.6647,0.01 72.9955,-0.022 6.6783,-0.6598 13.335,-1.5561 19.9337,-2.7825 0,0.6022 0,1.2044 0,1.8066 87.1133,0 174.2266,0 261.3399,0 0,-41.444 0,-82.888 0,-124.332 -19.6673,0 -39.3346,0 -59.002,0 0,-4.2181 0,-8.4362 0,-12.6543 18.3386,0 36.6771,0 55.0157,0 0,-40.1153 0,-80.2305 0,-120.3457 -176.1166,-1e-4 -352.2211,-1e-4 -528.3379,0 0,44.3333 0,88.6666 0,133 -5.2227,0 -10.4453,0 -15.668,0 0,-44.3334 0,-88.6667 0,-133 -43.7825,0 -87.5651,0 -131.3477,0 -46.6896,0 -93.4739,0 -140.2,0.01 -5.8441,-0.081 -11.7121,0.2277 -17.4621,1.3248 -0.1207,-0.4913 0.3563,-1.5802 -0.5,-1.336 -91.8153,0 -183.6308,-0.013 -275.446,0.02 -10.5822,0.13 -21.1952,3.4777 -29.6286,9.9392 -6.045,4.5301 -10.8706,10.5364 -14.5017,17.1304 -10.2666,17.3815 -20.5194,34.7734 -30.3983,52.3793 -8.5961,-14.682 -16.9135,-29.5255 -25.1027,-44.4374 -5.6648,-9.9725 -13.2482,-19.0555 -22.9295,-25.3385 -4.6586,-3.0652 -9.7581,-5.4538 -15.0791,-7.1167 0,-1.097 0,-2.194 0,-3.291 -7.0423,0.1 -14.0846,0.1992 -21.127,0.2988 z m 387.3887,120.7637 c 0,4.2181 0,8.4362 0,12.6543 -2.2246,0 -4.4492,0 -6.6738,0 0,-4.2181 0,-8.4362 0,-12.6543 2.2246,0 4.4492,0 6.6738,0 z m 139.9981,3.9863 c 0,2.8893 0,5.7786 0,8.668 -3.8861,0 -7.7722,0 -11.6582,0 0,-2.8894 0,-5.7787 0,-8.668 3.886,0 7.7721,0 11.6582,0 z" /><g
   id="g2099"
   style="stroke:#000000;stroke-width:201.007;stroke-miterlimit:4;stroke-dasharray:none"><path
     class="fil0 str0"
     d="m 2173,4935 c -397,0 -720,323 -720,720 0,397 323,720 720,720 397,0 720,-323 720,-720 0,-397 -323,-720 -720,-720 z m 0,1149 c -236,0 -429,-193 -429,-429 0,-237 193,-429 429,-429 237,0 429,192 429,429 0,236 -192,429 -429,429 z"
     id="path2051"
     style="fill:none;stroke:#000000;stroke-width:201.007;stroke-miterlimit:4;stroke-dasharray:none"
     inkscape:connector-curvature="0" /><path
     class="fil0 str0"
     d="m 2173,5290 c -201,0 -365,163 -365,365 0,201 164,365 365,365 202,0 365,-164 365,-365 0,-202 -163,-365 -365,-365 z"
     id="path2053"
     style="fill:none;stroke:#000000;stroke-width:201.007;stroke-miterlimit:4;stroke-dasharray:none"
     inkscape:connector-curvature="0" /><path
     class="fil0 str0"
     d="m 3188,6653 c 0,-15 -13,-28 -28,-28 h -217 c -15,0 -28,13 -28,28 v 291 h -291 c -15,0 -28,12 -28,28 v 216 c 0,16 13,29 28,29 h 291 v 290 c 0,16 13,28 28,28 h 217 c 15,0 28,-12 28,-28 v -290 h 290 c 16,0 29,-13 29,-29 v -216 c 0,-16 -13,-28 -29,-28 h -290 z"
     id="path2055"
     style="fill:none;stroke:#000000;stroke-width:201.007;stroke-miterlimit:4;stroke-dasharray:none"
     inkscape:connector-curvature="0" /><circle
     class="fil0 str0"
     cx="4134"
     cy="5627"
     r="143"
     id="circle2057"
     style="fill:none;stroke:#000000;stroke-width:201.007;stroke-miterlimit:4;stroke-dasharray:none" /><path
     class="fil0 str0"
     d="m 6598,5802 c -1,-3 -1,-6 -1,-9 0,-1 2,-120 -19,-197 -13,-49 -40,-99 -61,-136 -13,-23 -21,-39 -25,-51 -18,-66 -3,-132 32,-185 -71,-69 -157,-122 -253,-154 -3,6 -5,12 -9,18 -30,52 -78,90 -136,105 -3,1 -6,2 -9,2 h -10 c -27,0 -122,1 -187,18 -49,14 -99,41 -136,61 -23,13 -39,22 -52,26 -19,5 -39,7 -58,7 -41,0 -79,-11 -113,-30 -92,113 -148,257 -148,414 0,23 1,46 4,68 131,33 229,151 229,293 0,41 -9,81 -24,117 117,108 273,176 445,176 279,0 517,-177 611,-424 -38,-29 -67,-71 -80,-119 z m -521,324 c -230,0 -417,-187 -417,-417 0,-230 187,-417 417,-417 230,0 417,187 417,417 0,230 -187,417 -417,417 z"
     id="path2059"
     style="fill:none;stroke:#000000;stroke-width:201.007;stroke-miterlimit:4;stroke-dasharray:none"
     inkscape:connector-curvature="0" /><path
     class="fil0 str0"
     d="m 6077,5356 c -195,0 -353,158 -353,353 0,194 158,353 353,353 195,0 353,-159 353,-353 0,-195 -159,-353 -353,-353 z"
     id="path2061"
     style="fill:none;stroke:#000000;stroke-width:201.007;stroke-miterlimit:4;stroke-dasharray:none"
     inkscape:connector-curvature="0" /><path
     class="fil0 str0"
     d="m 5261,6624 -339,84 -187,290 84,360 313,184 350,-90 182,-323 -100,-331 z m -62,779 c -176,0 -320,-144 -320,-320 0,-177 144,-320 320,-320 177,0 320,143 320,320 0,176 -143,320 -320,320 z"
     id="path2063"
     style="fill:none;stroke:#000000;stroke-width:201.007;stroke-miterlimit:4;stroke-dasharray:none"
     inkscape:connector-curvature="0" /><path
     class="fil0 str0"
     d="m 5199,6826 c -141,0 -256,115 -256,257 0,141 115,256 256,256 142,0 256,-115 256,-256 0,-142 -114,-257 -256,-257 z"
     id="path2065"
     style="fill:none;stroke:#000000;stroke-width:201.007;stroke-miterlimit:4;stroke-dasharray:none"
     inkscape:connector-curvature="0" /><path
     class="fil0 str0"
     d="m 5428,5829 c -21,-8 -44,-13 -67,-14 -6,-1 -12,-2 -18,-2 -132,0 -239,107 -239,239 0,131 107,238 239,238 84,0 158,-44 201,-110 12,-19 21,-41 28,-63 6,-21 10,-43 10,-65 0,-102 -64,-188 -154,-223 z"
     id="path2067"
     style="fill:none;stroke:#000000;stroke-width:201.007;stroke-miterlimit:4;stroke-dasharray:none"
     inkscape:connector-curvature="0" /><path
     class="fil0 str0"
     d="m 5554,5189 c 15,16 33,29 52,38 34,16 72,21 110,11 5,-2 23,-11 38,-20 39,-21 93,-51 149,-66 71,-19 166,-21 204,-21 h 6 c 40,-12 73,-38 94,-75 1,-1 1,-2 2,-3 10,-19 16,-40 19,-61 2,-19 0,-39 -5,-58 -19,-71 -83,-119 -159,-119 -13,0 -27,1 -40,5 l -9,2 c -177,41 -177,41 -370,99 l -13,4 c -87,24 -138,113 -115,199 7,25 21,47 37,65 z"
     id="path2069"
     style="fill:none;stroke:#000000;stroke-width:201.007;stroke-miterlimit:4;stroke-dasharray:none"
     inkscape:connector-curvature="0" /><path
     class="fil0 str0"
     d="m 6970,5690 c -41,-176 -41,-176 -100,-371 l -3,-10 c -23,-86 -114,-139 -199,-116 -22,6 -42,17 -58,30 -17,13 -31,30 -42,49 -19,35 -25,78 -14,120 1,5 11,23 19,38 22,39 52,93 67,150 21,77 21,185 21,209 7,25 21,46 38,64 16,17 35,30 56,38 32,14 68,18 103,8 85,-23 135,-110 114,-199 z"
     id="path2071"
     style="fill:none;stroke:#000000;stroke-width:201.007;stroke-miterlimit:4;stroke-dasharray:none"
     inkscape:connector-curvature="0" /><path
     class="fil0 str0"
     d="m 6648,4716 c 0,0 -96,-499 -806,-355 0,0 -409,-222 -1490,-259 l -255,-5 c -1217,17 -1671,264 -1671,264 -710,-144 -806,355 -806,355 -704,469 -499,1336 -499,1336 -73,878 -100,2495 487,2495 586,0 583,-1515 583,-1515 0,0 102,168 181,391 78,223 661,830 1293,162 631,-667 -241,-1335 -241,-1335 v -106 c 211,-58 710,-68 710,-68 0,0 499,10 710,68 v 106 c 0,0 -872,668 -241,1335 632,668 1215,61 1293,-162 78,-223 181,-391 181,-391 0,0 -3,1515 583,1515 587,0 560,-1617 487,-2495 0,0 205,-867 -499,-1336 z M 2173,6438 c -432,0 -784,-351 -784,-783 0,-433 352,-784 784,-784 432,0 784,351 784,784 0,432 -352,783 -784,783 z m 1305,442 c 51,0 92,41 92,92 v 216 c 0,51 -41,92 -92,92 h -226 v 227 c 0,51 -42,92 -92,92 h -217 c -51,0 -92,-41 -92,-92 v -227 h -227 c -50,0 -92,-41 -92,-92 v -216 c 0,-51 42,-92 92,-92 h 227 v -227 c 0,-51 41,-92 92,-92 h 217 c 50,0 92,41 92,92 v 227 z m 656,-1047 c -114,0 -206,-92 -206,-206 0,-114 92,-206 206,-206 114,0 206,92 206,206 0,114 -92,206 -206,206 z m 1592,1315 -195,347 c -4,8 -11,14 -20,16 l -376,96 c -3,0 -6,1 -8,1 -6,0 -11,-2 -16,-5 l -336,-196 c -7,-5 -13,-12 -15,-21 l -90,-387 c -2,-9 -1,-17 4,-25 l 201,-312 c 4,-6 11,-11 19,-13 l 364,-90 c 9,-2 17,-1 24,3 l 325,188 c 7,4 13,10 15,18 l 106,355 c 3,9 2,18 -2,25 z M 6875,5961 c -19,5 -39,8 -59,8 -29,0 -56,-6 -82,-16 -105,266 -364,455 -667,455 -183,0 -350,-69 -477,-183 -55,78 -145,129 -247,129 -167,0 -303,-136 -303,-302 0,-167 136,-303 303,-303 3,0 6,1 9,1 -1,-19 -3,-39 -3,-59 0,-172 61,-330 162,-453 -26,-27 -45,-60 -55,-97 -33,-121 39,-245 159,-277 l 11,-4 c 196,-58 196,-58 375,-100 l 8,-2 c 18,-5 37,-7 55,-7 105,0 194,67 221,166 8,31 9,62 5,92 105,35 199,92 276,168 25,-20 53,-36 85,-45 20,-5 39,-8 59,-8 102,0 191,69 218,167 l 3,10 c 59,196 59,196 101,375 l 2,9 c 29,123 -41,244 -159,276 z"
     id="path2073"
     style="fill:none;stroke:#000000;stroke-width:201.007;stroke-miterlimit:4;stroke-dasharray:none"
     inkscape:connector-curvature="0" /><path
     class="fil0 str0"
     d="m 2173,4935 c -397,0 -720,323 -720,720 0,397 323,720 720,720 397,0 720,-323 720,-720 0,-397 -323,-720 -720,-720 z m 0,1149 c -236,0 -429,-193 -429,-429 0,-237 193,-429 429,-429 237,0 429,192 429,429 0,236 -192,429 -429,429 z"
     id="path2075"
     style="fill:none;stroke:#000000;stroke-width:201.007;stroke-miterlimit:4;stroke-dasharray:none"
     inkscape:connector-curvature="0" /><path
     class="fil0 str0"
     d="m 2173,5290 c -201,0 -365,163 -365,365 0,201 164,365 365,365 202,0 365,-164 365,-365 0,-202 -163,-365 -365,-365 z"
     id="path2077"
     style="fill:none;stroke:#000000;stroke-width:201.007;stroke-miterlimit:4;stroke-dasharray:none"
     inkscape:connector-curvature="0" /><path
     class="fil0 str0"
     d="m 3188,6653 c 0,-15 -13,-28 -28,-28 h -217 c -15,0 -28,13 -28,28 v 291 h -291 c -15,0 -28,12 -28,28 v 216 c 0,16 13,29 28,29 h 291 v 290 c 0,16 13,28 28,28 h 217 c 15,0 28,-12 28,-28 v -290 h 290 c 16,0 29,-13 29,-29 v -216 c 0,-16 -13,-28 -29,-28 h -290 z"
     id="path2079"
     style="fill:none;stroke:#000000;stroke-width:201.007;stroke-miterlimit:4;stroke-dasharray:none"
     inkscape:connector-curvature="0" /><circle
     class="fil0 str0"
     cx="4134"
     cy="5627"
     r="143"
     id="circle2081"
     style="fill:none;stroke:#000000;stroke-width:201.007;stroke-miterlimit:4;stroke-dasharray:none" /><path
     class="fil0 str0"
     d="m 6598,5802 c -1,-3 -1,-6 -1,-9 0,-1 2,-120 -19,-197 -13,-49 -40,-99 -61,-136 -13,-23 -21,-39 -25,-51 -18,-66 -3,-132 32,-185 -71,-69 -157,-122 -253,-154 -3,6 -5,12 -9,18 -30,52 -78,90 -136,105 -3,1 -6,2 -9,2 h -10 c -27,0 -122,1 -187,18 -49,14 -99,41 -136,61 -23,13 -39,22 -52,26 -19,5 -39,7 -58,7 -41,0 -79,-11 -113,-30 -92,113 -148,257 -148,414 0,23 1,46 4,68 131,33 229,151 229,293 0,41 -9,81 -24,117 117,108 273,176 445,176 279,0 517,-177 611,-424 -38,-29 -67,-71 -80,-119 z m -521,324 c -230,0 -417,-187 -417,-417 0,-230 187,-417 417,-417 230,0 417,187 417,417 0,230 -187,417 -417,417 z"
     id="path2083"
     style="fill:none;stroke:#000000;stroke-width:201.007;stroke-miterlimit:4;stroke-dasharray:none"
     inkscape:connector-curvature="0" /><path
     class="fil0 str0"
     d="m 6077,5356 c -195,0 -353,158 -353,353 0,194 158,353 353,353 195,0 353,-159 353,-353 0,-195 -159,-353 -353,-353 z"
     id="path2085"
     style="fill:none;stroke:#000000;stroke-width:201.007;stroke-miterlimit:4;stroke-dasharray:none"
     inkscape:connector-curvature="0" /><path
     class="fil0 str0"
     d="m 5261,6624 -339,84 -187,290 84,360 313,184 350,-90 182,-323 -100,-331 z m -62,779 c -176,0 -320,-144 -320,-320 0,-177 144,-320 320,-320 177,0 320,143 320,320 0,176 -143,320 -320,320 z"
     id="path2087"
     style="fill:none;stroke:#000000;stroke-width:201.007;stroke-miterlimit:4;stroke-dasharray:none"
     inkscape:connector-curvature="0" /><path
     class="fil0 str0"
     d="m 5199,6826 c -141,0 -256,115 -256,257 0,141 115,256 256,256 142,0 256,-115 256,-256 0,-142 -114,-257 -256,-257 z"
     id="path2089"
     style="fill:none;stroke:#000000;stroke-width:201.007;stroke-miterlimit:4;stroke-dasharray:none"
     inkscape:connector-curvature="0" /><path
     class="fil0 str0"
     d="m 5428,5829 c -21,-8 -44,-13 -67,-14 -6,-1 -12,-2 -18,-2 -132,0 -239,107 -239,239 0,131 107,238 239,238 84,0 158,-44 201,-110 12,-19 21,-41 28,-63 6,-21 10,-43 10,-65 0,-102 -64,-188 -154,-223 z"
     id="path2091"
     style="fill:none;stroke:#000000;stroke-width:201.007;stroke-miterlimit:4;stroke-dasharray:none"
     inkscape:connector-curvature="0" /><path
     class="fil0 str0"
     d="m 5554,5189 c 15,16 33,29 52,38 34,16 72,21 110,11 5,-2 23,-11 38,-20 39,-21 93,-51 149,-66 71,-19 166,-21 204,-21 h 6 c 40,-12 73,-38 94,-75 1,-1 1,-2 2,-3 10,-19 16,-40 19,-61 2,-19 0,-39 -5,-58 -19,-71 -83,-119 -159,-119 -13,0 -27,1 -40,5 l -9,2 c -177,41 -177,41 -370,99 l -13,4 c -87,24 -138,113 -115,199 7,25 21,47 37,65 z"
     id="path2093"
     style="fill:none;stroke:#000000;stroke-width:201.007;stroke-miterlimit:4;stroke-dasharray:none"
     inkscape:connector-curvature="0" /><path
     class="fil0 str0"
     d="m 6970,5690 c -41,-176 -41,-176 -100,-371 l -3,-10 c -23,-86 -114,-139 -199,-116 -22,6 -42,17 -58,30 -17,13 -31,30 -42,49 -19,35 -25,78 -14,120 1,5 11,23 19,38 22,39 52,93 67,150 21,77 21,185 21,209 7,25 21,46 38,64 16,17 35,30 56,38 32,14 68,18 103,8 85,-23 135,-110 114,-199 z"
     id="path2095"
     style="fill:none;stroke:#000000;stroke-width:201.007;stroke-miterlimit:4;stroke-dasharray:none"
     inkscape:connector-curvature="0" /><path
     class="fil0 str0"
     d="m 6648,4716 c 0,0 -96,-499 -806,-355 0,0 -409,-222 -1490,-259 l -255,-5 c -1217,17 -1671,264 -1671,264 -710,-144 -806,355 -806,355 -704,469 -499,1336 -499,1336 -73,878 -100,2495 487,2495 586,0 583,-1515 583,-1515 0,0 102,168 181,391 78,223 661,830 1293,162 631,-667 -241,-1335 -241,-1335 v -106 c 211,-58 710,-68 710,-68 0,0 499,10 710,68 v 106 c 0,0 -872,668 -241,1335 632,668 1215,61 1293,-162 78,-223 181,-391 181,-391 0,0 -3,1515 583,1515 587,0 560,-1617 487,-2495 0,0 205,-867 -499,-1336 z M 2173,6438 c -432,0 -784,-351 -784,-783 0,-433 352,-784 784,-784 432,0 784,351 784,784 0,432 -352,783 -784,783 z m 1305,442 c 51,0 92,41 92,92 v 216 c 0,51 -41,92 -92,92 h -226 v 227 c 0,51 -42,92 -92,92 h -217 c -51,0 -92,-41 -92,-92 v -227 h -227 c -50,0 -92,-41 -92,-92 v -216 c 0,-51 42,-92 92,-92 h 227 v -227 c 0,-51 41,-92 92,-92 h 217 c 50,0 92,41 92,92 v 227 z m 656,-1047 c -114,0 -206,-92 -206,-206 0,-114 92,-206 206,-206 114,0 206,92 206,206 0,114 -92,206 -206,206 z m 1592,1315 -195,347 c -4,8 -11,14 -20,16 l -376,96 c -3,0 -6,1 -8,1 -6,0 -11,-2 -16,-5 l -336,-196 c -7,-5 -13,-12 -15,-21 l -90,-387 c -2,-9 -1,-17 4,-25 l 201,-312 c 4,-6 11,-11 19,-13 l 364,-90 c 9,-2 17,-1 24,3 l 325,188 c 7,4 13,10 15,18 l 106,355 c 3,9 2,18 -2,25 z M 6875,5961 c -19,5 -39,8 -59,8 -29,0 -56,-6 -82,-16 -105,266 -364,455 -667,455 -183,0 -350,-69 -477,-183 -55,78 -145,129 -247,129 -167,0 -303,-136 -303,-302 0,-167 136,-303 303,-303 3,0 6,1 9,1 -1,-19 -3,-39 -3,-59 0,-172 61,-330 162,-453 -26,-27 -45,-60 -55,-97 -33,-121 39,-245 159,-277 l 11,-4 c 196,-58 196,-58 375,-100 l 8,-2 c 18,-5 37,-7 55,-7 105,0 194,67 221,166 8,31 9,62 5,92 105,35 199,92 276,168 25,-20 53,-36 85,-45 20,-5 39,-8 59,-8 102,0 191,69 218,167 l 3,10 c 59,196 59,196 101,375 l 2,9 c 29,123 -41,244 -159,276 z"
     id="path2097"
     style="fill:none;stroke:#000000;stroke-width:201.007;stroke-miterlimit:4;stroke-dasharray:none"
     inkscape:connector-curvature="0" /></g><g
   id="g2049"
   style="stroke:#ffffff"><path
     class="fil0 str0"
     d="m 2173,4935 c -397,0 -720,323 -720,720 0,397 323,720 720,720 397,0 720,-323 720,-720 0,-397 -323,-720 -720,-720 z m 0,1149 c -236,0 -429,-193 -429,-429 0,-237 193,-429 429,-429 237,0 429,192 429,429 0,236 -192,429 -429,429 z"
     id="path1126"
     style="fill:none;stroke:#ffffff;stroke-width:18.7506;stroke-miterlimit:4;stroke-dasharray:none"
     inkscape:connector-curvature="0" /><path
     class="fil0 str0"
     d="m 2173,5290 c -201,0 -365,163 -365,365 0,201 164,365 365,365 202,0 365,-164 365,-365 0,-202 -163,-365 -365,-365 z"
     id="path1128"
     style="fill:none;stroke:#ffffff;stroke-width:18.7506;stroke-miterlimit:4;stroke-dasharray:none"
     inkscape:connector-curvature="0" /><path
     class="fil0 str0"
     d="m 3188,6653 c 0,-15 -13,-28 -28,-28 h -217 c -15,0 -28,13 -28,28 v 291 h -291 c -15,0 -28,12 -28,28 v 216 c 0,16 13,29 28,29 h 291 v 290 c 0,16 13,28 28,28 h 217 c 15,0 28,-12 28,-28 v -290 h 290 c 16,0 29,-13 29,-29 v -216 c 0,-16 -13,-28 -29,-28 h -290 z"
     id="path1130"
     style="fill:none;stroke:#ffffff;stroke-width:18.7506;stroke-miterlimit:4;stroke-dasharray:none"
     inkscape:connector-curvature="0" /><circle
     class="fil0 str0"
     cx="4134"
     cy="5627"
     r="143"
     id="circle1132"
     style="fill:none;stroke:#ffffff;stroke-width:18.7506;stroke-miterlimit:4;stroke-dasharray:none" /><path
     class="fil0 str0"
     d="m 6598,5802 c -1,-3 -1,-6 -1,-9 0,-1 2,-120 -19,-197 -13,-49 -40,-99 -61,-136 -13,-23 -21,-39 -25,-51 -18,-66 -3,-132 32,-185 -71,-69 -157,-122 -253,-154 -3,6 -5,12 -9,18 -30,52 -78,90 -136,105 -3,1 -6,2 -9,2 h -10 c -27,0 -122,1 -187,18 -49,14 -99,41 -136,61 -23,13 -39,22 -52,26 -19,5 -39,7 -58,7 -41,0 -79,-11 -113,-30 -92,113 -148,257 -148,414 0,23 1,46 4,68 131,33 229,151 229,293 0,41 -9,81 -24,117 117,108 273,176 445,176 279,0 517,-177 611,-424 -38,-29 -67,-71 -80,-119 z m -521,324 c -230,0 -417,-187 -417,-417 0,-230 187,-417 417,-417 230,0 417,187 417,417 0,230 -187,417 -417,417 z"
     id="path1134"
     style="fill:none;stroke:#ffffff;stroke-width:18.7506;stroke-miterlimit:4;stroke-dasharray:none"
     inkscape:connector-curvature="0" /><path
     class="fil0 str0"
     d="m 6077,5356 c -195,0 -353,158 -353,353 0,194 158,353 353,353 195,0 353,-159 353,-353 0,-195 -159,-353 -353,-353 z"
     id="path1136"
     style="fill:none;stroke:#ffffff;stroke-width:18.7506;stroke-miterlimit:4;stroke-dasharray:none"
     inkscape:connector-curvature="0" /><path
     class="fil0 str0"
     d="m 5261,6624 -339,84 -187,290 84,360 313,184 350,-90 182,-323 -100,-331 z m -62,779 c -176,0 -320,-144 -320,-320 0,-177 144,-320 320,-320 177,0 320,143 320,320 0,176 -143,320 -320,320 z"
     id="path1138"
     style="fill:none;stroke:#ffffff;stroke-width:18.7506;stroke-miterlimit:4;stroke-dasharray:none"
     inkscape:connector-curvature="0" /><path
     class="fil0 str0"
     d="m 5199,6826 c -141,0 -256,115 -256,257 0,141 115,256 256,256 142,0 256,-115 256,-256 0,-142 -114,-257 -256,-257 z"
     id="path1140"
     style="fill:none;stroke:#ffffff;stroke-width:18.7506;stroke-miterlimit:4;stroke-dasharray:none"
     inkscape:connector-curvature="0" /><path
     class="fil0 str0"
     d="m 5428,5829 c -21,-8 -44,-13 -67,-14 -6,-1 -12,-2 -18,-2 -132,0 -239,107 -239,239 0,131 107,238 239,238 84,0 158,-44 201,-110 12,-19 21,-41 28,-63 6,-21 10,-43 10,-65 0,-102 -64,-188 -154,-223 z"
     id="path1142"
     style="fill:none;stroke:#ffffff;stroke-width:18.7506;stroke-miterlimit:4;stroke-dasharray:none"
     inkscape:connector-curvature="0" /><path
     class="fil0 str0"
     d="m 5554,5189 c 15,16 33,29 52,38 34,16 72,21 110,11 5,-2 23,-11 38,-20 39,-21 93,-51 149,-66 71,-19 166,-21 204,-21 h 6 c 40,-12 73,-38 94,-75 1,-1 1,-2 2,-3 10,-19 16,-40 19,-61 2,-19 0,-39 -5,-58 -19,-71 -83,-119 -159,-119 -13,0 -27,1 -40,5 l -9,2 c -177,41 -177,41 -370,99 l -13,4 c -87,24 -138,113 -115,199 7,25 21,47 37,65 z"
     id="path1144"
     style="fill:none;stroke:#ffffff;stroke-width:18.7506;stroke-miterlimit:4;stroke-dasharray:none"
     inkscape:connector-curvature="0" /><path
     class="fil0 str0"
     d="m 6970,5690 c -41,-176 -41,-176 -100,-371 l -3,-10 c -23,-86 -114,-139 -199,-116 -22,6 -42,17 -58,30 -17,13 -31,30 -42,49 -19,35 -25,78 -14,120 1,5 11,23 19,38 22,39 52,93 67,150 21,77 21,185 21,209 7,25 21,46 38,64 16,17 35,30 56,38 32,14 68,18 103,8 85,-23 135,-110 114,-199 z"
     id="path1146"
     style="fill:none;stroke:#ffffff;stroke-width:18.7506;stroke-miterlimit:4;stroke-dasharray:none"
     inkscape:connector-curvature="0" /><path
     class="fil0 str0"
     d="m 6648,4716 c 0,0 -96,-499 -806,-355 0,0 -409,-222 -1490,-259 l -255,-5 c -1217,17 -1671,264 -1671,264 -710,-144 -806,355 -806,355 -704,469 -499,1336 -499,1336 -73,878 -100,2495 487,2495 586,0 583,-1515 583,-1515 0,0 102,168 181,391 78,223 661,830 1293,162 631,-667 -241,-1335 -241,-1335 v -106 c 211,-58 710,-68 710,-68 0,0 499,10 710,68 v 106 c 0,0 -872,668 -241,1335 632,668 1215,61 1293,-162 78,-223 181,-391 181,-391 0,0 -3,1515 583,1515 587,0 560,-1617 487,-2495 0,0 205,-867 -499,-1336 z M 2173,6438 c -432,0 -784,-351 -784,-783 0,-433 352,-784 784,-784 432,0 784,351 784,784 0,432 -352,783 -784,783 z m 1305,442 c 51,0 92,41 92,92 v 216 c 0,51 -41,92 -92,92 h -226 v 227 c 0,51 -42,92 -92,92 h -217 c -51,0 -92,-41 -92,-92 v -227 h -227 c -50,0 -92,-41 -92,-92 v -216 c 0,-51 42,-92 92,-92 h 227 v -227 c 0,-51 41,-92 92,-92 h 217 c 50,0 92,41 92,92 v 227 z m 656,-1047 c -114,0 -206,-92 -206,-206 0,-114 92,-206 206,-206 114,0 206,92 206,206 0,114 -92,206 -206,206 z m 1592,1315 -195,347 c -4,8 -11,14 -20,16 l -376,96 c -3,0 -6,1 -8,1 -6,0 -11,-2 -16,-5 l -336,-196 c -7,-5 -13,-12 -15,-21 l -90,-387 c -2,-9 -1,-17 4,-25 l 201,-312 c 4,-6 11,-11 19,-13 l 364,-90 c 9,-2 17,-1 24,3 l 325,188 c 7,4 13,10 15,18 l 106,355 c 3,9 2,18 -2,25 z M 6875,5961 c -19,5 -39,8 -59,8 -29,0 -56,-6 -82,-16 -105,266 -364,455 -667,455 -183,0 -350,-69 -477,-183 -55,78 -145,129 -247,129 -167,0 -303,-136 -303,-302 0,-167 136,-303 303,-303 3,0 6,1 9,1 -1,-19 -3,-39 -3,-59 0,-172 61,-330 162,-453 -26,-27 -45,-60 -55,-97 -33,-121 39,-245 159,-277 l 11,-4 c 196,-58 196,-58 375,-100 l 8,-2 c 18,-5 37,-7 55,-7 105,0 194,67 221,166 8,31 9,62 5,92 105,35 199,92 276,168 25,-20 53,-36 85,-45 20,-5 39,-8 59,-8 102,0 191,69 218,167 l 3,10 c 59,196 59,196 101,375 l 2,9 c 29,123 -41,244 -159,276 z"
     id="path1148"
     style="fill:none;stroke:#ffffff;stroke-width:18.7506;stroke-miterlimit:4;stroke-dasharray:none"
     inkscape:connector-curvature="0" /><path
     class="fil0 str0"
     d="m 2173,4935 c -397,0 -720,323 -720,720 0,397 323,720 720,720 397,0 720,-323 720,-720 0,-397 -323,-720 -720,-720 z m 0,1149 c -236,0 -429,-193 -429,-429 0,-237 193,-429 429,-429 237,0 429,192 429,429 0,236 -192,429 -429,429 z"
     id="path1154"
     style="fill:none;stroke:#ffffff;stroke-width:18.7506;stroke-miterlimit:4;stroke-dasharray:none"
     inkscape:connector-curvature="0" /><path
     class="fil0 str0"
     d="m 2173,5290 c -201,0 -365,163 -365,365 0,201 164,365 365,365 202,0 365,-164 365,-365 0,-202 -163,-365 -365,-365 z"
     id="path1156"
     style="fill:none;stroke:#ffffff;stroke-width:18.7506;stroke-miterlimit:4;stroke-dasharray:none"
     inkscape:connector-curvature="0" /><path
     class="fil0 str0"
     d="m 3188,6653 c 0,-15 -13,-28 -28,-28 h -217 c -15,0 -28,13 -28,28 v 291 h -291 c -15,0 -28,12 -28,28 v 216 c 0,16 13,29 28,29 h 291 v 290 c 0,16 13,28 28,28 h 217 c 15,0 28,-12 28,-28 v -290 h 290 c 16,0 29,-13 29,-29 v -216 c 0,-16 -13,-28 -29,-28 h -290 z"
     id="path1158"
     style="fill:none;stroke:#ffffff;stroke-width:18.7506;stroke-miterlimit:4;stroke-dasharray:none"
     inkscape:connector-curvature="0" /><circle
     class="fil0 str0"
     cx="4134"
     cy="5627"
     r="143"
     id="circle1160"
     style="fill:none;stroke:#ffffff;stroke-width:18.7506;stroke-miterlimit:4;stroke-dasharray:none" /><path
     class="fil0 str0"
     d="m 6598,5802 c -1,-3 -1,-6 -1,-9 0,-1 2,-120 -19,-197 -13,-49 -40,-99 -61,-136 -13,-23 -21,-39 -25,-51 -18,-66 -3,-132 32,-185 -71,-69 -157,-122 -253,-154 -3,6 -5,12 -9,18 -30,52 -78,90 -136,105 -3,1 -6,2 -9,2 h -10 c -27,0 -122,1 -187,18 -49,14 -99,41 -136,61 -23,13 -39,22 -52,26 -19,5 -39,7 -58,7 -41,0 -79,-11 -113,-30 -92,113 -148,257 -148,414 0,23 1,46 4,68 131,33 229,151 229,293 0,41 -9,81 -24,117 117,108 273,176 445,176 279,0 517,-177 611,-424 -38,-29 -67,-71 -80,-119 z m -521,324 c -230,0 -417,-187 -417,-417 0,-230 187,-417 417,-417 230,0 417,187 417,417 0,230 -187,417 -417,417 z"
     id="path1162"
     style="fill:none;stroke:#ffffff;stroke-width:18.7506;stroke-miterlimit:4;stroke-dasharray:none"
     inkscape:connector-curvature="0" /><path
     class="fil0 str0"
     d="m 6077,5356 c -195,0 -353,158 -353,353 0,194 158,353 353,353 195,0 353,-159 353,-353 0,-195 -159,-353 -353,-353 z"
     id="path1164"
     style="fill:none;stroke:#ffffff;stroke-width:18.7506;stroke-miterlimit:4;stroke-dasharray:none"
     inkscape:connector-curvature="0" /><path
     class="fil0 str0"
     d="m 5261,6624 -339,84 -187,290 84,360 313,184 350,-90 182,-323 -100,-331 z m -62,779 c -176,0 -320,-144 -320,-320 0,-177 144,-320 320,-320 177,0 320,143 320,320 0,176 -143,320 -320,320 z"
     id="path1166"
     style="fill:none;stroke:#ffffff;stroke-width:18.7506;stroke-miterlimit:4;stroke-dasharray:none"
     inkscape:connector-curvature="0" /><path
     class="fil0 str0"
     d="m 5199,6826 c -141,0 -256,115 -256,257 0,141 115,256 256,256 142,0 256,-115 256,-256 0,-142 -114,-257 -256,-257 z"
     id="path1168"
     style="fill:none;stroke:#ffffff;stroke-width:18.7506;stroke-miterlimit:4;stroke-dasharray:none"
     inkscape:connector-curvature="0" /><path
     class="fil0 str0"
     d="m 5428,5829 c -21,-8 -44,-13 -67,-14 -6,-1 -12,-2 -18,-2 -132,0 -239,107 -239,239 0,131 107,238 239,238 84,0 158,-44 201,-110 12,-19 21,-41 28,-63 6,-21 10,-43 10,-65 0,-102 -64,-188 -154,-223 z"
     id="path1170"
     style="fill:none;stroke:#ffffff;stroke-width:18.7506;stroke-miterlimit:4;stroke-dasharray:none"
     inkscape:connector-curvature="0" /><path
     class="fil0 str0"
     d="m 5554,5189 c 15,16 33,29 52,38 34,16 72,21 110,11 5,-2 23,-11 38,-20 39,-21 93,-51 149,-66 71,-19 166,-21 204,-21 h 6 c 40,-12 73,-38 94,-75 1,-1 1,-2 2,-3 10,-19 16,-40 19,-61 2,-19 0,-39 -5,-58 -19,-71 -83,-119 -159,-119 -13,0 -27,1 -40,5 l -9,2 c -177,41 -177,41 -370,99 l -13,4 c -87,24 -138,113 -115,199 7,25 21,47 37,65 z"
     id="path1172"
     style="fill:none;stroke:#ffffff;stroke-width:18.7506;stroke-miterlimit:4;stroke-dasharray:none"
     inkscape:connector-curvature="0" /><path
     class="fil0 str0"
     d="m 6970,5690 c -41,-176 -41,-176 -100,-371 l -3,-10 c -23,-86 -114,-139 -199,-116 -22,6 -42,17 -58,30 -17,13 -31,30 -42,49 -19,35 -25,78 -14,120 1,5 11,23 19,38 22,39 52,93 67,150 21,77 21,185 21,209 7,25 21,46 38,64 16,17 35,30 56,38 32,14 68,18 103,8 85,-23 135,-110 114,-199 z"
     id="path1174"
     style="fill:none;stroke:#ffffff;stroke-width:18.7506;stroke-miterlimit:4;stroke-dasharray:none"
     inkscape:connector-curvature="0" /><path
     class="fil0 str0"
     d="m 6648,4716 c 0,0 -96,-499 -806,-355 0,0 -409,-222 -1490,-259 l -255,-5 c -1217,17 -1671,264 -1671,264 -710,-144 -806,355 -806,355 -704,469 -499,1336 -499,1336 -73,878 -100,2495 487,2495 586,0 583,-1515 583,-1515 0,0 102,168 181,391 78,223 661,830 1293,162 631,-667 -241,-1335 -241,-1335 v -106 c 211,-58 710,-68 710,-68 0,0 499,10 710,68 v 106 c 0,0 -872,668 -241,1335 632,668 1215,61 1293,-162 78,-223 181,-391 181,-391 0,0 -3,1515 583,1515 587,0 560,-1617 487,-2495 0,0 205,-867 -499,-1336 z M 2173,6438 c -432,0 -784,-351 -784,-783 0,-433 352,-784 784,-784 432,0 784,351 784,784 0,432 -352,783 -784,783 z m 1305,442 c 51,0 92,41 92,92 v 216 c 0,51 -41,92 -92,92 h -226 v 227 c 0,51 -42,92 -92,92 h -217 c -51,0 -92,-41 -92,-92 v -227 h -227 c -50,0 -92,-41 -92,-92 v -216 c 0,-51 42,-92 92,-92 h 227 v -227 c 0,-51 41,-92 92,-92 h 217 c 50,0 92,41 92,92 v 227 z m 656,-1047 c -114,0 -206,-92 -206,-206 0,-114 92,-206 206,-206 114,0 206,92 206,206 0,114 -92,206 -206,206 z m 1592,1315 -195,347 c -4,8 -11,14 -20,16 l -376,96 c -3,0 -6,1 -8,1 -6,0 -11,-2 -16,-5 l -336,-196 c -7,-5 -13,-12 -15,-21 l -90,-387 c -2,-9 -1,-17 4,-25 l 201,-312 c 4,-6 11,-11 19,-13 l 364,-90 c 9,-2 17,-1 24,3 l 325,188 c 7,4 13,10 15,18 l 106,355 c 3,9 2,18 -2,25 z M 6875,5961 c -19,5 -39,8 -59,8 -29,0 -56,-6 -82,-16 -105,266 -364,455 -667,455 -183,0 -350,-69 -477,-183 -55,78 -145,129 -247,129 -167,0 -303,-136 -303,-302 0,-167 136,-303 303,-303 3,0 6,1 9,1 -1,-19 -3,-39 -3,-59 0,-172 61,-330 162,-453 -26,-27 -45,-60 -55,-97 -33,-121 39,-245 159,-277 l 11,-4 c 196,-58 196,-58 375,-100 l 8,-2 c 18,-5 37,-7 55,-7 105,0 194,67 221,166 8,31 9,62 5,92 105,35 199,92 276,168 25,-20 53,-36 85,-45 20,-5 39,-8 59,-8 102,0 191,69 218,167 l 3,10 c 59,196 59,196 101,375 l 2,9 c 29,123 -41,244 -159,276 z"
     id="path1176"
     style="fill:none;stroke:#ffffff;stroke-width:18.7506;stroke-miterlimit:4;stroke-dasharray:none"
     inkscape:connector-curvature="0" /></g><path
   id="path1180"
   style="fill:#ffffff;stroke:none;stroke-width:1"
   class="fil1"
   d="m 3602.9321,4633.4609 c -5,0 -7.0131,1.0051 -9.0132,5.0051 -33,55 -64.9881,108.9867 -96.9881,163.9867 -1,1 -2.0142,3.005 -2.0142,5.005 h 125.0042 v -40.9967 h -50.9864 c 15.9999,-26 30.9814,-52.0055 45.9814,-78.0055 1.9999,3 3.0081,4.002 4.008,6.002 l 63.0108,107.9952 c 3,4 4.9929,5.005 8.9928,5.005 h 62.9905 6.9988 v -86.0014 c 3,2 4.0051,4.002 5.0051,6.002 14.0001,25 29.0109,49.9944 43.0109,74.9944 2,4 4.9928,5.005 8.9928,5.005 h 26.9989 c 3.9999,0 5.9958,-0.9877 7.9958,-3.9878 14,-26 30.0079,-52.0055 44.0078,-78.0055 l 3.9879,-4.0081 h 1.0167 v 86.0014 h 43.9875 v -173.9968 h -39.0028 c -4,0 -5.9959,1.0082 -7.9959,4.0082 -13,22 -26.0059,43.9812 -38.0059,65.9812 -10,16 -19.9896,32.0129 -29.9895,49.0129 l -2.9908,-6.002 c -20.0001,-32 -39.0089,-64.0085 -57.0088,-97.0085 -7.0001,-13 -13.9927,-17.9918 -28.9927,-15.9918 -8.0001,1.0001 -17.0019,0 -26.0019,0 v 132.0032 c -2,-3 -4.005,-4.9989 -5.0051,-6.9989 -22.9999,-40 -47.0096,-79.9992 -70.0096,-119.9992 -3,-4 -4.9898,-5.0051 -9.9898,-5.0051 z m 359.9975,0 v 173.9968 h 178.0049 v -40.9967 h -130.0093 v -30.0099 h 74.9944 v -37.9855 h -74.9944 v -27.9958 h 128.9921 v -37.0089 z m 233.9964,0 c -16,0 -20.9968,5.9938 -20.9968,21.9938 v 113.9972 8.0162 c 2,17 16.0008,29.9896 33.0008,29.9896 h 132.0031 c 15,0 22.9907,-7.9907 22.9907,-22.9907 v -49.0129 -1.9938 h -45.0047 v 33.0007 h -97.9851 v -92.0034 h 94.9942 v 26.9988 h 47.9956 v -6.002 -33.9977 c 0,-18 -8.9987,-27.9958 -26.9988,-27.9958 z m 184.0068,0 v 147.995 c 1.0001,11 6.9857,20.0079 17.9857,24.0079 6,1.0001 12.006,2.9909 18.006,2.9909 h 115.9911 c 3.9999,0 8.0039,-0.997 12.0039,-0.997 21,-1.9999 31.0069,-12.9977 31.0069,-33.9977 v -133.0001 -6.999 h -47.9956 v 133.0001 h -99.0023 v -133.0001 z m 212.9996,0 v 173.9968 c 1.0001,1 2.9878,0.9969 3.9878,0.9969 h 137.0082 c 10,-1 21.0069,-3.002 31.0069,-6.002 11,-3 15.9917,-10.9907 15.9917,-22.9907 v -40.9966 c 0,-9 -5.0009,-16.003 -13.0008,-19.003 -1.0001,0 -3.0082,-0.9938 -4.0082,-1.9938 v -1.0174 c 1,-1 2.0081,-0.9969 4.0082,-0.9969 8.9999,-2 13.0008,-5.9948 13.0008,-14.9948 v -40.9967 c 0,-18 -8.0018,-26.0018 -26.0018,-26.0018 h -155.9908 z m 204.9833,0 v 173.9968 h 178.0049 v -40.9967 h -133 v -30.0099 h 73.9974 v -37.9855 h -73.9974 v -27.9958 h 129.0122 v -37.0089 z m -1470,1.9939 c -13,0 -23.9989,8.9968 -26.9989,20.9968 -1.9999,5 -2.9908,10.0152 -2.9908,15.0152 v 99.0024 c 0,2.9999 0.9938,5.9928 1.9939,8.9928 6,16 27.0048,31.0069 45.0048,31.0069 37,0 75.0002,-1.0001 113.0003,0 10.9999,0 18.9987,-3.0101 26.9987,-10.0101 4,-5 9.0009,-8.9979 13.001,-13.9979 4,-5 5.005,-11.009 5.005,-17.009 v -61.9935 -6.002 h -107.9952 v 39.9997 h 62.9905 v 26.0019 h -111.0064 v -94.9943 h 153 v -36.0119 c -1.0001,-1.0001 -0.9938,-0.9969 -1.9939,-0.9969 z m 1313.0123,32.0039 h 5.0051 82.9903 c 6,0 6.9989,1.9989 6.9989,6.9989 v 14.9948 c 0,8 0,9.0132 -7.9959,9.0132 h -61.9935 -25.0049 z m 5.0051,67.9954 c 28,0 54.9903,1.0001 82.9903,0 6,0 6.9989,2.9959 6.9989,7.9959 v 16.0121 c 1,5 -2.002,6.9989 -6.002,6.9989 h -19.003 -63.9873 -6.002 v -30.0099 c 2,0 3.0051,-0.9969 5.0051,-0.9969 z" /></g>
</svg>
