<?xml version="1.0" encoding="UTF-8" standalone="no"?>
<!-- Created with Inkscape (http://www.inkscape.org/) -->

<svg
   width="155.74533mm"
   height="37.346489mm"
   viewBox="0 0 551.85353 132.33008"
   id="svg2"
   version="1.1"
   inkscape:version="1.1.2 (0a00cf5339, 2022-02-04)"
   sodipodi:docname="system.svg"
   xmlns:inkscape="http://www.inkscape.org/namespaces/inkscape"
   xmlns:sodipodi="http://sodipodi.sourceforge.net/DTD/sodipodi-0.dtd"
   xmlns="http://www.w3.org/2000/svg"
   xmlns:svg="http://www.w3.org/2000/svg"
   xmlns:rdf="http://www.w3.org/1999/02/22-rdf-syntax-ns#"
   xmlns:cc="http://creativecommons.org/ns#"
   xmlns:dc="http://purl.org/dc/elements/1.1/">
  <defs
     id="defs4">
    <linearGradient
       id="linearGradient1058"
       gradientUnits="userSpaceOnUse"
       x1="0.21879999"
       y1="504.41769"
       x2="0.21879999"
       y2="504.41769"
       gradientTransform="translate(-0.0049,-473.4258)">
      <stop
         offset="0.2331"
         style="stop-color:#666699"
         id="stop1054" />
      <stop
         offset="0.9907"
         style="stop-color:#A7B3D9"
         id="stop1056" />
    </linearGradient>
    <linearGradient
       id="linearGradient1066"
       gradientUnits="userSpaceOnUse"
       x1="49.3857"
       y1="477.94699"
       x2="45.741199"
       y2="518.44202"
       gradientTransform="translate(-0.0049,-473.4258)">
      <stop
         offset="0"
         style="stop-color:#AAACD2"
         id="stop1062" />
      <stop
         offset="0.6258"
         style="stop-color:#FCFAFB"
         id="stop1064" />
    </linearGradient>
    <linearGradient
       id="linearGradient1074"
       gradientUnits="userSpaceOnUse"
       x1="71.7798"
       y1="473.26541"
       x2="68.135201"
       y2="513.76123"
       gradientTransform="translate(-0.0049,-473.4258)">
      <stop
         offset="0.6743"
         style="stop-color:#AAACD2"
         id="stop1070" />
      <stop
         offset="1"
         style="stop-color:#FCFAFB"
         id="stop1072" />
    </linearGradient>
    <linearGradient
       id="linearGradient1008"
       gradientUnits="userSpaceOnUse"
       x1="4.8237"
       y1="553.13263"
       x2="66.025902"
       y2="536.12347"
       gradientTransform="translate(-0.0049,-473.4258)">
      <stop
         offset="0.2331"
         style="stop-color:#666699"
         id="stop1004" />
      <stop
         offset="0.7239"
         style="stop-color:#A7B3D9"
         id="stop1006" />
    </linearGradient>
    <linearGradient
       id="linearGradient1016"
       gradientUnits="userSpaceOnUse"
       x1="5.8822999"
       y1="556.9314"
       x2="67.0802"
       y2="539.92352"
       gradientTransform="translate(-0.0049,-473.4258)">
      <stop
         offset="0.2331"
         style="stop-color:#666699"
         id="stop1012" />
      <stop
         offset="0.9907"
         style="stop-color:#A7B3D9"
         id="stop1014" />
    </linearGradient>
    <linearGradient
       id="linearGradient972"
       gradientUnits="userSpaceOnUse"
       x1="64.084503"
       y1="540.32593"
       x2="108.7263"
       y2="569.63147"
       gradientTransform="translate(-0.0049,-473.4258)">
      <stop
         offset="0"
         style="stop-color:#4C5284"
         id="stop968" />
      <stop
         offset="1"
         style="stop-color:#8789BC"
         id="stop970" />
    </linearGradient>
    <linearGradient
       id="linearGradient1032"
       gradientUnits="userSpaceOnUse"
       x1="19.585899"
       y1="559.81421"
       x2="43.920799"
       y2="572.83582"
       gradientTransform="translate(-0.0049,-473.4258)">
      <stop
         offset="0"
         style="stop-color:#6E70A9"
         id="stop1028" />
      <stop
         offset="0.9693"
         style="stop-color:#514A8E"
         id="stop1030" />
    </linearGradient>
    <linearGradient
       id="linearGradient932"
       gradientUnits="userSpaceOnUse"
       x1="24.4146"
       y1="564.87183"
       x2="104.7434"
       y2="551.50897"
       gradientTransform="translate(-0.0049,-473.4258)">
      <stop
         offset="0.0368"
         style="stop-color:#FFFFFF"
         id="stop928" />
      <stop
         offset="0.8957"
         style="stop-color:#898CBF"
         id="stop930" />
    </linearGradient>
    <linearGradient
       id="linearGradient946"
       gradientUnits="userSpaceOnUse"
       x1="28.460899"
       y1="68.8367"
       x2="54.048801"
       y2="68.8367"
       gradientTransform="matrix(1,0,0,-1,-0.0449,123.9897)">
      <stop
         offset="0"
         style="stop-color:#6E70A9"
         id="stop942" />
      <stop
         offset="0.9693"
         style="stop-color:#514A8E"
         id="stop944" />
    </linearGradient>
    <linearGradient
       id="linearGradient954"
       gradientUnits="userSpaceOnUse"
       x1="53.857399"
       y1="61.680901"
       x2="54.185001"
       y2="61.680901"
       gradientTransform="matrix(1,0,0,-1,-0.0449,123.9897)">
      <stop
         offset="0"
         style="stop-color:#6E70A9"
         id="stop950" />
      <stop
         offset="0.9693"
         style="stop-color:#514A8E"
         id="stop952" />
    </linearGradient>
    <linearGradient
       id="linearGradient986"
       gradientUnits="userSpaceOnUse"
       x1="53.463902"
       y1="596.99878"
       x2="53.152901"
       y2="577.09552"
       gradientTransform="translate(-0.0049,-473.4258)">
      <stop
         offset="0.1104"
         style="stop-color:#4C407E"
         id="stop978" />
      <stop
         offset="0.8896"
         style="stop-color:#666699"
         id="stop980" />
      <stop
         offset="1"
         style="stop-color:#A7B3D9"
         id="stop982" />
      <stop
         offset="1"
         style="stop-color:#9BA5CD"
         id="stop984" />
    </linearGradient>
    <linearGradient
       id="linearGradient1042"
       gradientUnits="userSpaceOnUse"
       x1="55.734901"
       y1="495.65411"
       x2="71.185303"
       y2="503.17059"
       gradientTransform="translate(-0.0049,-473.4258)">
      <stop
         offset="0.0368"
         style="stop-color:#9EA5D3"
         id="stop1038" />
      <stop
         offset="0.9018"
         style="stop-color:#7675AE"
         id="stop1040" />
    </linearGradient>
  </defs>
  <sodipodi:namedview
     id="base"
     pagecolor="#ffffff"
     bordercolor="#666666"
     borderopacity="1.0"
     inkscape:pageopacity="0.0"
     inkscape:pageshadow="2"
     inkscape:zoom="5.5999999"
     inkscape:cx="577.94644"
     inkscape:cy="94.375002"
     inkscape:document-units="px"
     inkscape:current-layer="layer1"
     showgrid="false"
     inkscape:window-width="1920"
     inkscape:window-height="996"
     inkscape:window-x="0"
     inkscape:window-y="0"
     inkscape:window-maximized="1"
     fit-margin-top="0"
     fit-margin-left="0"
     fit-margin-right="0"
     fit-margin-bottom="0"
     inkscape:pagecheckerboard="0" />
  <metadata
     id="metadata7">
    <rdf:RDF>
      <cc:Work
         rdf:about="">
        <dc:format>image/svg+xml</dc:format>
        <dc:type
           rdf:resource="http://purl.org/dc/dcmitype/StillImage" />
      </cc:Work>
    </rdf:RDF>
  </metadata>
  <g
     inkscape:label="Livello 1"
     inkscape:groupmode="layer"
     id="layer1"
     transform="translate(-72.748092,-94.486328)">
    <g
       id="underneath_1_"
       transform="translate(76.535,98.818634)" />
    <g
       id="BOTTOM_LEFT_LINE"
       transform="translate(76.535,98.818634)" />
    <path
       id="polygon934"
       style="fill:#000000;stroke:none;stroke-width:1"
       d="m 129.43359,95.029297 c -18.33846,10.599743 -36.677636,21.198263 -55.015621,31.798823 -0.788291,0.74838 -1.753734,1.63337 -1.664063,2.85547 0.07274,6.34825 0.01054,12.70565 0.03125,19.05743 0,15.18072 0,30.36145 0,45.54218 18.723549,10.84623 37.449674,21.68802 56.173824,32.53321 1.30151,-0.0507 2.75661,0.17483 3.83466,-0.73749 18.42556,-10.63308 36.85112,-21.26615 55.27667,-31.89923 0,-21.45834 0,-42.91667 0,-64.375 -0.38051,-1.1593 -0.7943,-2.46353 -1.99109,-3.02358 -1.02444,-0.74345 -2.04887,-1.48694 -3.07336,-2.23033 -9.70466,5.5782 -19.41022,11.15483 -29.11524,16.73242 -7.89202,-4.45296 -15.78328,-8.90726 -23.67578,-13.35937 -9.07187,5.12144 -18.14216,10.24568 -27.21289,15.36914 -0.74942,0.81723 -1.78505,1.55837 -1.82422,2.7793 0.059,9.89161 0.009,19.79263 0.0254,29.68789 0,0.675 0,1.35 0,2.025 9.72458,5.62002 19.44883,11.24062 29.17188,16.86328 3.97644,-2.66758 8.20317,-4.92888 12.29744,-7.40571 5.48751,-3.22793 10.97444,-6.45684 16.46233,-9.68414 0,-2.66992 0,-5.33984 0,-8.00976 1.03385,-0.59831 2.0677,-1.19662 3.10156,-1.79492 0,3.83528 0,7.67057 0,11.50586 -10.66537,6.15039 -21.33073,12.30078 -31.9961,18.45117 -10.57682,-6.14649 -21.15364,-12.29297 -31.730464,-18.43946 0.01107,-12.10026 0.02214,-24.20052 0.0332,-36.30078 10.662764,-6.17187 21.325524,-12.34375 31.988284,-18.51562 7.96934,4.64659 15.9392,9.29229 23.9082,13.93945 6.76694,-3.96633 13.53254,-7.93493 20.29883,-11.90234 0,-2.09375 0,-4.1875 0,-6.28125 -14.78866,-8.57444 -29.57694,-17.14954 -44.36523,-25.724612 -0.31315,0.18099 -0.62631,0.361979 -0.93946,0.542969 z M 547.99023,111.2793 c -5.75065,0 -11.5013,0 -17.25195,0 0,12.93945 0,25.8789 0,38.81836 6.6621,-0.0412 13.32724,0.0756 19.98734,-0.0679 4.37508,-0.30665 8.83378,-2.3956 11.21375,-6.19019 1.3808,-2.19396 1.8217,-4.83863 1.66957,-7.39545 -0.0324,-4.76843 0.0792,-9.5425 -0.072,-14.30724 -0.40886,-4.28054 -3.59942,-7.91142 -7.49007,-9.52557 -2.51591,-1.13708 -5.32278,-1.42818 -8.05665,-1.33203 z m 51.58594,0.006 c -4.03326,-0.18651 -8.2687,0.77998 -11.3967,3.44609 -2.76323,2.23506 -4.3436,5.83523 -4.05272,9.38555 0.0224,5.13672 -0.0634,10.27867 0.0595,15.41204 0.50192,4.44928 4.04113,8.06986 8.14256,9.54671 3.50386,1.40631 7.34749,0.95783 11.03007,1.02183 4.10427,0.0147 8.31175,-1.50997 11.09032,-4.60324 1.88938,-2.07075 3.01071,-4.87091 2.82492,-7.69092 0.0541,-4.87285 0.0113,-9.74788 0.0218,-14.61978 -0.0702,-2.72384 -1.0373,-5.45631 -2.97403,-7.41474 -2.8384,-3.06887 -7.08319,-4.49196 -11.19744,-4.48144 -1.18237,-0.0347 -2.3656,-0.0112 -3.54826,-0.002 z m -164.40234,0.0137 c -4.9829,0.18762 -10.05994,2.95499 -12.17188,7.60156 -1.38495,3.01827 -0.83335,6.40355 -0.94197,9.61133 0.0371,3.64406 -0.0946,7.29591 0.0916,10.93466 0.37695,3.22797 2.27383,6.17911 4.95974,7.98331 2.8953,2.14823 6.60328,2.85072 10.14531,2.66601 5.51471,0 11.02943,0 16.54414,0 0,-4.14909 0,-8.29817 0,-12.44726 -5.95388,-0.0327 -11.91234,0.0553 -17.86328,-0.0469 -0.46264,-0.0877 -0.18901,-1.14782 -0.11484,-1.34375 5.99401,0 11.98802,0 17.98203,0 -0.001,-8.32819 0.003,-16.65036 0.002,-24.97851 -6.21093,0.007 -12.42198,-0.0213 -18.63281,0.0195 z m -218.13867,1.85547 c 0,12.3138 0,24.6276 0,36.9414 4.55403,0 9.10807,0 13.66211,0 0,-4.32747 0,-8.65494 0,-12.98242 2.27158,4.32742 4.54231,8.65529 6.81445,12.98242 4.02539,0 8.05078,0 12.07617,0 0,-12.9388 0,-25.8776 0,-38.8164 -4.55469,0 -9.10937,0 -13.66406,0 0,2.84896 0,5.69791 0,8.54687 -1.49613,-2.84894 -2.99193,-5.69805 -4.48828,-8.54687 -4.80013,0 -9.60026,0 -14.40039,0 0,0.625 0,1.25 0,1.875 z m 59.20703,0 c 0,12.3138 0,24.6276 0,36.9414 4.85677,0 9.71354,0 14.57031,0 0,-12.9388 0,-25.8776 0,-38.8164 -4.85677,0 -9.71354,0 -14.57031,0 0,0.625 0,1.25 0,1.875 z m 41.20117,0 c 0,12.3138 0,24.6276 0,36.9414 4.55469,0 9.10937,0 13.66406,0 0,-4.32617 0,-8.65234 0,-12.97851 2.27032,4.3261 4.53948,8.65281 6.81055,12.97851 4.02604,0 8.05208,0 12.07812,0 0,-12.9388 0,-25.8776 0,-38.8164 -4.55403,0 -9.10807,0 -13.66211,0 0,2.84961 0,5.69922 0,8.54882 -1.49675,-2.8496 -2.99341,-5.69925 -4.49023,-8.54882 -4.80013,0 -9.60026,0 -14.40039,0 0,0.625 0,1.25 0,1.875 z m 52.26562,0 c 0,3.52474 0,7.04948 0,10.57422 3.4668,0 6.9336,0 10.4004,0 0,8.78971 -10e-6,17.57942 0,26.36914 4.7233,0 9.44661,0 14.16992,0 0,-8.79037 0,-17.58073 0,-26.3711 3.5013,0 7.0026,0 10.5039,0 0,-4.14909 0,-8.29817 0,-12.44726 -11.6914,0 -23.38281,0 -35.07422,0 0,0.625 0,1.25 0,1.875 z m 106.32227,0 c 0,12.3138 0,24.6276 0,36.9414 4.55469,0 9.10937,0 13.66406,0 0,-4.32617 0,-8.65234 0,-12.97851 2.27093,4.32612 4.54103,8.65268 6.8125,12.97851 4.02539,0 8.05078,0 12.07617,0 0,-12.9388 0,-25.8776 0,-38.8164 -4.55338,0 -9.10677,0 -13.66015,0 0,2.84961 0,5.69922 0,8.54882 -1.49676,-2.8496 -2.99341,-5.69925 -4.49024,-8.54882 -4.80078,0 -9.60156,0 -14.40234,0 0,0.625 0,1.25 0,1.875 z m 123.1543,10.38086 c 1.41321,0.0475 2.84409,-0.0964 4.24609,0.0742 0.65727,0.10479 0.17254,1.03865 0.32109,1.50937 -0.002,4.19024 0.0179,8.38057 -0.0203,12.5707 -1.04455,0.34507 -2.17672,0.0418 -3.26009,0.15142 -0.92942,-0.0129 -1.8928,0.0905 -2.7985,-0.13189 0.004,-4.67643 -0.0225,-9.35298 0.0195,-14.02929 0.47867,-0.15762 0.99405,-0.15053 1.49219,-0.14453 z m -49.83985,0.0801 c 0.67941,-0.13181 0.66188,0.50283 0.625,0.98829 -0.0164,4.33711 0.0267,8.67464 -0.0195,13.01171 -0.8494,0.27977 -1.80202,0.0847 -2.69219,0.15116 -0.96068,0.004 -1.92135,-0.002 -2.88203,-0.007 0,-4.71485 0,-9.42969 0,-14.14454 1.65625,0 3.3125,0 4.96875,0 z m 10.3086,31.85352 c -11.83372,-0.017 -23.66801,-0.004 -35.50196,-0.008 -0.50021,0.15525 -1.28902,0.0219 -1.9,0.0664 -4.70065,0 -9.4013,0 -14.10195,0 0,10.38933 0,20.77865 0,31.16797 -5.63216,0 -11.26432,0 -16.89648,0 0,-10.38932 0,-20.77864 0,-31.16797 -6.24935,0 -12.4987,0 -18.74805,0 -0.0108,1.30767 0.0213,2.73751 -0.0156,3.97071 -1.94933,-2.23107 -4.84914,-3.36612 -7.74463,-3.66623 -3.4539,-0.38021 -6.94002,-0.20351 -10.40847,-0.23838 -6.63219,0.0232 -13.26645,-0.0578 -19.89736,0.0451 -3.54141,0.12347 -7.36994,0.93378 -9.86165,3.65253 -2.51366,2.79291 -3.12123,6.73917 -2.99994,10.36874 0.006,7.34518 -0.0445,14.69264 0.0277,22.03641 0.20223,3.52257 1.47732,7.31014 4.55601,9.32701 3.19947,2.18804 7.22805,2.42885 10.98228,2.29719 8.75158,-0.0107 17.50471,0.0296 26.25532,-0.0326 3.71085,-0.18121 7.65785,-1.5677 9.81895,-4.75851 0.29309,-0.28793 0.53616,-1.12379 0.7642,-1.14901 1.41628,3.0334 4.55989,4.84792 7.74632,5.47523 3.30514,0.70096 6.70059,0.30315 10.0488,0.40292 7.70631,-0.0127 15.41467,0.0309 23.11969,-0.0367 3.39897,-0.19083 7.00199,-1.26256 9.25492,-3.96196 0,1.34244 0,2.68489 0,4.02734 12.56062,-0.0152 25.1226,0.04 37.68236,-0.038 4.20002,-0.16705 8.68257,-1.01478 11.87039,-3.96246 0.53417,-0.67873 0.18343,0.68777 0.28319,1.02705 0,1.01719 0,2.03438 0,3.05156 16.8711,0 33.74219,0 50.61328,0 0,-5.52083 0,-11.04166 0,-16.5625 -10.61849,0 -21.23698,0 -31.85547,0 0.45916,-0.16428 1.2236,-0.0233 1.8,-0.0703 5.50547,0 11.01094,0 16.51641,0 0,-5.04427 0,-10.08854 0,-15.13281 4.38151,0 8.76302,0 13.14453,0 0,-5.32096 0,-10.64193 0,-15.96289 -16.73958,0 -33.47917,0 -50.21875,0 0,1.26432 0,2.52864 0,3.79297 -2.34061,-2.59612 -5.8648,-3.76114 -9.28388,-3.90143 -1.68049,-0.11982 -3.36685,-0.0745 -5.0501,-0.0595 z m -277.86133,0.97266 c -5.41956,9.09462 -10.85253,18.19577 -16.27735,27.29297 -5.9e-4,-4.03126 -0.002,-8.0625 -0.002,-12.09376 -0.75962,0.12746 -0.24765,-1.01667 -0.39648,-1.5 0,-4.8444 0,-9.6888 0,-14.5332 -14.42065,0.0151 -28.84264,-0.04 -43.26244,0.038 -3.43633,0.13589 -7.16284,0.79625 -9.67181,3.35431 -2.66245,2.6003 -3.34455,6.5014 -3.35482,10.0764 0.0155,7.48217 -0.0613,14.96647 0.0527,22.44727 0.17213,3.42034 1.28221,7.09051 4.14999,9.20617 3.05653,2.3555 7.08482,2.72961 10.81446,2.61029 9.82386,-0.017 19.64925,0.0438 29.47213,-0.0381 1.02767,-0.0369 2.06545,-0.20837 3.06537,-0.36233 1.08709,0.63831 2.39999,0.19134 3.59063,0.31641 11.43984,0 22.87968,0 34.31953,0 0,-5.52018 0,-11.04037 0,-16.56055 -3.48177,0 -6.96354,0 -10.44531,0 1.86132,-2.99284 3.72265,-5.98567 5.58398,-8.97851 4.92633,8.51243 9.85352,17.02436 14.7793,25.53711 8.14453,0 16.28906,0 24.43359,0 0,-3.88737 0,-7.77474 0,-11.66211 2.32077,3.88748 4.64321,7.77397 6.96289,11.66211 4.17253,0 8.34505,0 12.51758,0 2.35708,-3.91518 4.7135,-7.83076 7.07031,-11.7461 0,3.91537 0,7.83073 0,11.7461 5.11133,0 10.22266,0 15.33399,0 0.33509,0.26868 1.17682,0.0307 1.7,0.11132 16.30507,0 32.61015,0 48.91523,0 0,-5.52083 0,-11.04166 0,-16.5625 -10.62044,0 -21.24088,0 -31.86133,0 0.45916,-0.16428 1.2236,-0.0233 1.8,-0.0703 5.50743,0 11.01485,0 16.52227,0 0,-5.04427 0,-10.08854 0,-15.13281 4.38021,0 8.76042,0 13.14062,0 0,-5.32096 0,-10.64193 0,-15.96289 -15.89908,0 -31.79817,0 -47.69726,0 -0.33856,-0.26457 -1.17649,-0.0298 -1.7,-0.10938 -4.84089,0 -9.68177,0 -14.52266,0 -5.00089,8.31197 -9.99985,16.62509 -15,24.9375 -4.96712,-8.31269 -9.93688,-16.62381 -14.90234,-24.9375 -5.37761,0 -10.75521,0 -16.13281,0 0,7.81381 0,15.62761 0,23.44141 -4.71612,-7.81382 -9.43246,-15.62751 -14.14844,-23.44141 -4.76758,0 -9.53516,0 -14.30274,0 -0.18229,0.30469 -0.36458,0.60938 -0.54687,0.91407 z m -49.86719,15.43554 c 0,4.9668 0,9.9336 0,14.90039 -1.44987,0 -2.89974,0 -4.34961,0 0,-4.96679 0,-9.93359 0,-14.90039 1.44987,0 2.89974,0 4.34961,0 z m 224.68945,0.082 c 0,4.93425 0,9.86849 0,14.80274 -5.46419,0 -10.92838,0 -16.39257,0 0,-4.93425 0,-9.86849 0,-14.80274 5.46419,0 10.92838,0 16.39257,0 z m 102.49024,14.59766 c 0.15179,0.64316 -0.70609,0.30233 -1.11208,0.3774 -5.02915,-0.0322 -10.05943,0.002 -15.08909,-0.0102 -0.10345,-0.72584 1.0301,-0.21469 1.5,-0.36719 4.90039,0 9.80078,0 14.70117,0 z" />
    <g
       transform="translate(76.535,98.818634)"
       id="g4141">
      <g
         id="Layer_6">
        <line
           style="fill:none"
           x1="29.247999"
           y1="99.123001"
           x2="28.120001"
           y2="98.281998"
           id="line4144" />
      </g>
      <g
         id="_x33_D_PART">
        <linearGradient
           id="SVGID_1_"
           gradientUnits="userSpaceOnUse"
           x1="24.4146"
           y1="564.87183"
           x2="104.7434"
           y2="551.50897"
           gradientTransform="translate(-0.0049,-473.4258)">
          <stop
             offset="0.0368"
             style="stop-color:#FFFFFF"
             id="stop4148" />
          <stop
             offset="0.8957"
             style="stop-color:#898CBF"
             id="stop4150" />
        </linearGradient>
        <polygon
           style="fill:url(#SVGID_1_)"
           points="53.699,103.224 18.222,82.608 16.628,83.691 53.699,105.427 91.065,83.824 91.065,61.505 89.451,62.438 89.451,82.608 "
           id="polygon4152" />
      </g>
      <g
         id="black_line_thing">
        <polygon
           style="fill:#7a7eae"
           points="89.451,82.52 91.065,83.685 91.065,83.824 90.963,83.9 89.308,82.69 89.451,82.608 "
           id="polygon4155" />
      </g>
      <g
         id="dark_purple_top_line">
        <linearGradient
           id="SVGID_2_"
           gradientUnits="userSpaceOnUse"
           x1="28.460899"
           y1="68.8367"
           x2="54.048801"
           y2="68.8367"
           gradientTransform="matrix(1,0,0,-1,-0.0449,123.9897)">
          <stop
             offset="0"
             style="stop-color:#6E70A9"
             id="stop4159" />
          <stop
             offset="0.9693"
             style="stop-color:#514A8E"
             id="stop4161" />
        </linearGradient>
        <polygon
           style="fill:url(#SVGID_2_)"
           points="28.416,47.853 53.699,62.851 54.004,62.205 28.814,47.455 "
           id="polygon4163" />
        <linearGradient
           id="SVGID_3_"
           gradientUnits="userSpaceOnUse"
           x1="53.857399"
           y1="61.680901"
           x2="54.185001"
           y2="61.680901"
           gradientTransform="matrix(1,0,0,-1,-0.0449,123.9897)">
          <stop
             offset="0"
             style="stop-color:#6E70A9"
             id="stop4166" />
          <stop
             offset="0.9693"
             style="stop-color:#514A8E"
             id="stop4168" />
        </linearGradient>
        <polygon
           style="fill:url(#SVGID_3_)"
           points="54.14,62.413 53.813,62.413 53.922,62.205 54.107,62.205 "
           id="polygon4170" />
      </g>
      <g
         id="top_black_line">
        <polygon
           style="fill:#120f22"
           points="107.627,31.206 107.785,31.647 54.004,62.851 54.004,62.205 "
           id="polygon4173" />
      </g>
      <g
         id="LOGO_DARK_LINES">
        <polygon
           style="fill:#453d76"
           points="91.582,84.28 91.72,61.312 91.065,61.312 91.065,83.824 53.699,105.427 53.565,124.23 54.004,124.23 54.363,105.729 "
           id="polygon4176" />
      </g>
      <g
         id="LOGO">
        <linearGradient
           id="SVGID_4_"
           gradientUnits="userSpaceOnUse"
           x1="64.084503"
           y1="540.32593"
           x2="108.7263"
           y2="569.63147"
           gradientTransform="translate(-0.0049,-473.4258)">
          <stop
             offset="0"
             style="stop-color:#4C5284"
             id="stop4180" />
          <stop
             offset="1"
             style="stop-color:#8789BC"
             id="stop4182" />
        </linearGradient>
        <polygon
           style="fill:url(#SVGID_4_)"
           points="78.85,68.566 78.85,76.595 54.004,91.212 54.004,62.851 107.785,31.647 107.785,93.197 54.004,124.23 54.004,105.573 91.361,84.062 91.361,61.332 "
           id="polygon4184" />
      </g>
      <g
         id="BOTTOM_LAIN_LEFT_LIGHT_LINE">
        <linearGradient
           id="SVGID_5_"
           gradientUnits="userSpaceOnUse"
           x1="53.463902"
           y1="596.99878"
           x2="53.152901"
           y2="577.09552"
           gradientTransform="translate(-0.0049,-473.4258)">
          <stop
             offset="0.1104"
             style="stop-color:#4C407E"
             id="stop4188" />
          <stop
             offset="0.8896"
             style="stop-color:#666699"
             id="stop4190" />
          <stop
             offset="1"
             style="stop-color:#A7B3D9"
             id="stop4192" />
          <stop
             offset="1"
             style="stop-color:#9BA5CD"
             id="stop4194" />
        </linearGradient>
        <polyline
           style="fill:url(#SVGID_5_)"
           points="53.402,124.23 53.699,124.23 53.699,105.427 52.642,104.806 53.402,124.23    "
           id="polyline4196" />
      </g>
      <g
         id="underneath">
        <polyline
           style="fill:#2d2868"
           points="16.542,40.703 16.771,40.897 16.862,83.532 16.628,83.691 16.486,83.601 16.542,40.703    "
           id="polyline4199" />
      </g>
      <g
         id="LEFT_3D_PURPLE_SHADOW">
        <polygon
           style="fill:#453d76"
           points="18.222,82.608 16.628,83.691 16.628,40.755 54.004,19.174 54.004,21.3 18.26,41.987 "
           id="polygon4202" />
      </g>
      <g
         id="MAIN_DARK_PURPLE_LINE">
        <polygon
           style="fill:#453d76"
           points="53.699,62.851 53.699,62.028 54.004,62.094 54.004,91.212 53.699,91.417 "
           id="polygon4205" />
      </g>
      <g
         id="logo_LEFT_side">
        <linearGradient
           id="SVGID_6_"
           gradientUnits="userSpaceOnUse"
           x1="4.8237"
           y1="553.13263"
           x2="66.025902"
           y2="536.12347"
           gradientTransform="translate(-0.0049,-473.4258)">
          <stop
             offset="0.2331"
             style="stop-color:#666699"
             id="stop4209" />
          <stop
             offset="0.7239"
             style="stop-color:#A7B3D9"
             id="stop4211" />
        </linearGradient>
        <polygon
           style="fill:url(#SVGID_6_)"
           points="53.699,91.417 53.699,62.851 28.416,47.853 28.416,76.802 "
           id="polygon4213" />
        <linearGradient
           id="SVGID_7_"
           gradientUnits="userSpaceOnUse"
           x1="5.8822999"
           y1="556.9314"
           x2="67.0802"
           y2="539.92352"
           gradientTransform="translate(-0.0049,-473.4258)">
          <stop
             offset="0.2331"
             style="stop-color:#666699"
             id="stop4216" />
          <stop
             offset="0.9907"
             style="stop-color:#A7B3D9"
             id="stop4218" />
        </linearGradient>
        <polygon
           style="fill:url(#SVGID_7_)"
           points="0,31.206 0,93.302 53.402,124.23 53.402,123.926 53.402,105.251 16.628,83.691 16.628,40.964 "
           id="polygon4220" />
      </g>
      <g
         id="left_purple_line">
        <rect
           style="fill:#2d2868"
           x="16.343"
           y="40.755001"
           width="0.285"
           height="42.938"
           id="rect4223" />
        <polygon
           style="fill:#2d2868"
           points="0,31.206 16.486,40.897 16.628,40.755 0.214,30.992 "
           id="polygon4225" />
      </g>
      <g
         id="BOTTOM_PURPLE_LINE">
        <linearGradient
           id="SVGID_8_"
           gradientUnits="userSpaceOnUse"
           x1="19.585899"
           y1="559.81421"
           x2="43.920799"
           y2="572.83582"
           gradientTransform="translate(-0.0049,-473.4258)">
          <stop
             offset="0"
             style="stop-color:#6E70A9"
             id="stop4229" />
          <stop
             offset="0.9693"
             style="stop-color:#514A8E"
             id="stop4231" />
        </linearGradient>
        <polygon
           style="fill:url(#SVGID_8_)"
           points="16.343,83.691 16.628,83.691 53.402,105.251 53.402,105.603 16.343,84.015 "
           id="polygon4233" />
      </g>
      <g
         id="top_middle_light_line">
        <linearGradient
           id="SVGID_9_"
           gradientUnits="userSpaceOnUse"
           x1="55.734901"
           y1="495.65411"
           x2="71.185303"
           y2="503.17059"
           gradientTransform="translate(-0.0049,-473.4258)">
          <stop
             offset="0.0368"
             style="stop-color:#9EA5D3"
             id="stop4237" />
          <stop
             offset="0.9018"
             style="stop-color:#7675AE"
             id="stop4239" />
        </linearGradient>
        <polygon
           style="fill:url(#SVGID_9_)"
           points="77.901,35.231 54.004,21.3 54.004,19.174 77.901,33.142 "
           id="polygon4241" />
      </g>
      <g
         id="top_right">
        <polygon
           style="fill:#484592"
           points="94.454,25.524 94.454,23.552 77.901,33.142 77.901,35.231 "
           id="polygon4244" />
      </g>
      <g
         id="MAIN_TOP">
        <path
           style="fill:none"
           inkscape:connector-curvature="0"
           d="M 0,31.206"
           id="path4247" />
        <linearGradient
           id="SVGID_10_"
           gradientUnits="userSpaceOnUse"
           x1="0.21879999"
           y1="504.41769"
           x2="0.21879999"
           y2="504.41769"
           gradientTransform="translate(-0.0049,-473.4258)">
          <stop
             offset="0.2331"
             style="stop-color:#666699"
             id="stop4250" />
          <stop
             offset="0.9907"
             style="stop-color:#A7B3D9"
             id="stop4252" />
        </linearGradient>
        <path
           style="fill:url(#SVGID_10_)"
           inkscape:connector-curvature="0"
           d="M 0.214,30.992"
           id="path4254" />
        <linearGradient
           id="SVGID_11_"
           gradientUnits="userSpaceOnUse"
           x1="49.3857"
           y1="477.94699"
           x2="45.741199"
           y2="518.44202"
           gradientTransform="translate(-0.0049,-473.4258)">
          <stop
             offset="0"
             style="stop-color:#AAACD2"
             id="stop4257" />
          <stop
             offset="0.6258"
             style="stop-color:#FCFAFB"
             id="stop4259" />
        </linearGradient>
        <polygon
           style="fill:url(#SVGID_11_)"
           points="53.833,0 94.454,23.552 77.901,33.142 54.004,19.174 16.628,40.755 0.214,30.992 "
           id="polygon4261" />
        <linearGradient
           id="SVGID_12_"
           gradientUnits="userSpaceOnUse"
           x1="71.7798"
           y1="473.26541"
           x2="68.135201"
           y2="513.76123"
           gradientTransform="translate(-0.0049,-473.4258)">
          <stop
             offset="0.6743"
             style="stop-color:#AAACD2"
             id="stop4264" />
          <stop
             offset="1"
             style="stop-color:#FCFAFB"
             id="stop4266" />
        </linearGradient>
        <polygon
           style="fill:url(#SVGID_12_)"
           points="28.814,47.455 53.68,33.409 77.369,46.781 106.232,30.192 107.627,31.206 54.004,62.205 "
           id="polygon4268" />
      </g>
    </g>
    <g
       style="fill:#ffffff"
       transform="translate(76.535,98.818634)"
       id="g4270">
      <path
         style="fill:#ffffff"
         inkscape:connector-curvature="0"
         id="path23497"
         d="m 373.52,21.158 v -4.949 h -14.143 c -1.816,0 -3.533,0.404 -5.054,1.11 -1.513,0.71 -2.726,1.718 -3.634,2.932 -0.908,1.209 -1.314,2.529 -1.416,4.04 v 15.252 c 0.1,1.417 0.508,2.729 1.313,3.944 0.912,1.21 2.121,2.116 3.537,2.924 1.516,0.71 3.127,1.115 5.053,1.115 h 14.34 v -4.949 h -13.739 c -1.11,0 -2.118,-0.306 -3.022,-0.911 -0.815,-0.604 -1.318,-1.312 -1.318,-2.319 V 33.69 h 18.082 v -5.053 h -18.082 v -4.142 c 0,-1.013 0.503,-1.817 1.318,-2.427 0.904,-0.606 1.912,-0.91 3.022,-0.91 h 13.739" />
      <path
         style="fill:#ffffff"
         inkscape:connector-curvature="0"
         id="path23501"
         d="m 457.952,16.21 v 31.317 h 15.102 c 1.916,-0.098 3.625,-0.405 5.139,-1.107 1.609,-0.804 2.818,-1.712 3.723,-2.921 0.908,-1.203 1.307,-2.615 1.408,-4.127 V 24.266 c -0.102,-1.507 -0.5,-2.821 -1.408,-4.028 -0.904,-1.208 -2.111,-2.213 -3.723,-2.921 -1.514,-0.705 -3.225,-1.107 -5.139,-1.107 z m 17.826,5.842 c 0.898,0.604 1.303,1.407 1.404,2.418 v 14.803 c -0.104,1.006 -0.506,1.812 -1.404,2.416 -0.809,0.703 -1.82,1.005 -2.928,1.005 h -8.758 V 21.046 h 8.758 c 1.108,0 2.119,0.301 2.928,1.006" />
      <path
         style="fill:#ffffff"
         inkscape:connector-curvature="0"
         id="path23503"
         d="m 531.958,17.302 c -1.488,-0.692 -3.172,-0.993 -5.053,-1.093 h -5.453 c -1.885,0.099 -3.566,0.4 -5.057,1.093 -1.584,0.794 -2.775,1.68 -3.666,2.874 -0.895,1.186 -1.389,2.576 -1.389,4.063 v 15.359 c 0,1.486 0.494,2.777 1.389,3.967 0.891,1.19 2.082,2.179 3.666,2.874 1.49,0.693 3.172,1.089 5.057,1.089 h 5.453 c 1.881,0 3.563,-0.396 5.053,-1.089 1.584,-0.694 2.773,-1.684 3.666,-2.874 0.893,-1.191 1.387,-2.577 1.387,-3.967 v -15.36 c -0.096,-1.487 -0.494,-2.877 -1.387,-4.063 -0.893,-1.194 -2.082,-2.08 -3.666,-2.873 z m -2.379,4.656 c 0.891,0.694 1.387,1.484 1.387,2.382 v 15.059 c 0,0.892 -0.496,1.686 -1.387,2.379 -0.793,0.597 -1.787,0.994 -2.873,0.994 h -5.055 c -1.094,0 -2.084,-0.396 -2.977,-0.994 -0.789,-0.694 -1.285,-1.487 -1.285,-2.379 V 24.34 c 0,-0.897 0.496,-1.688 1.285,-2.382 0.893,-0.596 1.883,-0.893 2.977,-0.992 h 5.055 c 1.087,0.101 2.08,0.397 2.873,0.992" />
      <path
         style="fill:#ffffff"
         inkscape:connector-curvature="0"
         id="path23515"
         d="m 169.301,16.21 h -6.163 V 36.213 L 152.634,16.21 h -8.385 v 31.317 h 6.163 V 23.083 l 12.828,24.444 h 6.061 V 16.21" />
      <path
         style="fill:#ffffff"
         inkscape:connector-curvature="0"
         id="path23515_1_"
         d="m 269.711,16.21 h -6.163 V 36.213 L 253.043,16.21 h -8.385 v 31.317 h 6.163 V 23.083 l 12.828,24.444 h 6.062 V 16.21" />
      <path
         style="fill:#ffffff"
         inkscape:connector-curvature="0"
         id="path23515_2_"
         d="m 428.299,16.21 h -6.162 V 36.213 L 411.633,16.21 h -8.387 v 31.317 h 6.163 V 23.083 l 12.828,24.444 h 6.062 V 16.21" />
      <path
         style="fill:#ffffff"
         inkscape:connector-curvature="0"
         id="path23517"
         d="M 210.526,47.527 V 16.21 h -7.07 v 31.317 h 7.07 v 0" />
      <path
         style="fill:#ffffff"
         inkscape:connector-curvature="0"
         id="path23521"
         d="m 296.922,16.21 v 4.949 h 10.401 v 26.369 h 6.671 v -26.37 h 10.504 V 16.209 H 296.92 v 0" />
    </g>
    <g
       style="fill:#ffffff"
       transform="translate(76.535,98.818634)"
       id="g4280">
      <path
         style="fill:#ffffff"
         inkscape:connector-curvature="0"
         id="path23505"
         d="m 543.92,69.03 v -8.463 h -42.717 v 40.229 h 43.113 v -9.062 h -31.855 v -7.57 h 18.316 V 75.707 H 512.461 V 69.03 h 31.459 v 0" />
      <path
         style="fill:#ffffff"
         inkscape:connector-curvature="0"
         id="path23507"
         d="m 496.374,68.755 c 0.096,-2.785 -0.697,-4.977 -2.393,-6.274 -1.596,-1.394 -4.08,-2.09 -7.467,-2.09 h -35.148 v 40.325 h 32.658 c 8.563,-0.099 12.744,-2.887 12.744,-8.562 v -4.883 c 0,-3.382 -1.492,-5.87 -4.582,-7.262 2.789,-1.298 4.188,-3.487 4.188,-6.576 z m -10.854,0.2 c 0.398,0.399 0.602,0.8 0.496,1.396 v 3.685 c 0.104,0.495 -0.098,0.995 -0.496,1.293 l -2.795,0.495 h -20.107 v -7.266 h 20.107 c 1.502,0 2.496,0.199 2.795,0.397 z m -22.902,22.9 v -7.867 h 20.211 c 1.496,0 2.393,0.201 2.889,0.5 0.402,0.401 0.596,0.998 0.596,1.993 v 2.886 c 0,0.897 -0.191,1.594 -0.596,1.891 -0.496,0.4 -1.393,0.597 -2.889,0.597 h -20.211" />
      <path
         style="fill:#ffffff"
         inkscape:connector-curvature="0"
         id="path23509"
         d="m 446.614,60.458 h -11.25 V 91.625 H 410.968 V 60.458 H 399.72 v 30.271 c -0.106,2.486 0.295,4.484 0.99,5.975 0.6,1.395 1.797,2.49 3.389,3.089 1.597,0.695 3.684,0.993 6.47,0.896 h 25.093 c 2.789,0.097 4.977,-0.201 6.57,-0.896 1.59,-0.599 2.689,-1.694 3.389,-3.089 0.695,-1.491 0.996,-3.487 0.996,-5.975 V 60.458" />
      <path
         style="fill:#ffffff"
         inkscape:connector-curvature="0"
         id="path23511"
         d="m 394.09,64.607 c -0.705,-1.489 -1.896,-2.488 -3.388,-3.186 -1.596,-0.602 -3.784,-0.898 -6.473,-0.898 h -24.591 c -2.789,0 -4.881,0.298 -6.478,0.898 -1.591,0.697 -2.786,1.696 -3.382,3.186 -0.697,1.494 -1.096,3.484 -0.993,5.974 v 20.214 c -0.103,2.484 0.296,4.48 0.993,5.971 0.596,1.396 1.791,2.491 3.382,3.093 1.597,0.693 3.688,0.991 6.478,0.893 h 24.592 c 2.688,0.098 4.877,-0.199 6.473,-0.893 1.492,-0.602 2.684,-1.697 3.387,-3.093 0.597,-1.489 0.996,-3.485 0.996,-5.971 v -7.371 l -11.256,0.105 v 8.162 H 359.937 V 69.39 h 23.893 v 7.165 h 11.256 v -5.974 c 0,-2.585 -0.399,-4.574 -0.996,-5.974" />
      <path
         style="fill:#ffffff"
         inkscape:connector-curvature="0"
         id="path23513"
         d="m 340.461,69.03 v -8.463 h -42.718 v 40.229 h 43.116 v -9.062 h -31.861 v -7.57 h 18.321 V 75.707 H 308.998 V 69.03 h 31.463 v 0" />
      <path
         style="fill:#ffffff"
         inkscape:connector-curvature="0"
         id="path23523"
         d="m 282.411,60.458 -17.127,28.48 -17.025,-28.48 H 238.005 V 93.617 L 217.989,60.458 h -10.056 l -23.994,40.228 h 30.068 v -9.061 h -13.442 l 12.447,-20.013 16.828,29.072 h 18.519 V 79.179 l 12.842,21.505 h 8.266 l 12.942,-21.505 v 21.505 h 10.354 V 60.457 h -10.354 v 0" />
      <path
         style="fill:#ffffff"
         inkscape:connector-curvature="0"
         id="path23525"
         d="m 184.83,69.307 v -8.77 h -37.938 c -2.685,0 -4.879,0.3 -6.474,0.899 -1.59,0.696 -2.686,1.698 -3.381,3.187 -0.7,1.493 -0.998,3.483 -0.998,5.975 v 20.21 c 0,2.486 0.298,4.483 0.998,5.975 0.696,1.395 1.792,2.49 3.381,3.091 1.594,0.692 3.789,0.991 6.474,0.895 h 27.584 c 3.978,0.097 6.768,-0.599 8.458,-2.091 1.595,-1.595 2.391,-4.183 2.294,-7.868 V 76.57 H 159.14 v 8.47 h 15.135 v 6.667 H 147.29 v -22.4 h 37.54" />
    </g>
  </g>
</svg>
