<?xml version="1.0" encoding="UTF-8" standalone="no"?>
<!-- Created with Inkscape (http://www.inkscape.org/) -->

<svg
   width="160.00024mm"
   height="35.060467mm"
   viewBox="0 0 566.93 124.23"
   id="svg2"
   version="1.1"
   inkscape:version="1.1.2 (0a00cf5339, 2022-02-04)"
   sodipodi:docname="system_color.svg"
   xmlns:inkscape="http://www.inkscape.org/namespaces/inkscape"
   xmlns:sodipodi="http://sodipodi.sourceforge.net/DTD/sodipodi-0.dtd"
   xmlns="http://www.w3.org/2000/svg"
   xmlns:svg="http://www.w3.org/2000/svg"
   xmlns:rdf="http://www.w3.org/1999/02/22-rdf-syntax-ns#"
   xmlns:cc="http://creativecommons.org/ns#"
   xmlns:dc="http://purl.org/dc/elements/1.1/">
  <defs
     id="defs4">
    <linearGradient
       id="SVGID_10_"
       gradientUnits="userSpaceOnUse"
       x1="0.21879999"
       y1="504.41769"
       x2="0.21879999"
       y2="504.41769"
       gradientTransform="translate(-0.0049,-473.4258)">
      <stop
         offset="0.2331"
         style="stop-color:#666699"
         id="stop4250" />
      <stop
         offset="0.9907"
         style="stop-color:#A7B3D9"
         id="stop4252" />
    </linearGradient>
    <linearGradient
       id="SVGID_11_"
       gradientUnits="userSpaceOnUse"
       x1="49.3857"
       y1="477.94699"
       x2="45.741199"
       y2="518.44202"
       gradientTransform="translate(-0.0049,-473.4258)">
      <stop
         offset="0"
         style="stop-color:#AAACD2"
         id="stop4257" />
      <stop
         offset="0.6258"
         style="stop-color:#FCFAFB"
         id="stop4259" />
    </linearGradient>
    <linearGradient
       id="SVGID_12_"
       gradientUnits="userSpaceOnUse"
       x1="71.7798"
       y1="473.26541"
       x2="68.135201"
       y2="513.76123"
       gradientTransform="translate(-0.0049,-473.4258)">
      <stop
         offset="0.6743"
         style="stop-color:#AAACD2"
         id="stop4264" />
      <stop
         offset="1"
         style="stop-color:#FCFAFB"
         id="stop4266" />
    </linearGradient>
    <linearGradient
       id="SVGID_6_"
       gradientUnits="userSpaceOnUse"
       x1="4.8237"
       y1="553.13263"
       x2="66.025902"
       y2="536.12347"
       gradientTransform="translate(-0.0049,-473.4258)">
      <stop
         offset="0.2331"
         style="stop-color:#666699"
         id="stop4209" />
      <stop
         offset="0.7239"
         style="stop-color:#A7B3D9"
         id="stop4211" />
    </linearGradient>
    <linearGradient
       id="SVGID_7_"
       gradientUnits="userSpaceOnUse"
       x1="5.8822999"
       y1="556.9314"
       x2="67.0802"
       y2="539.92352"
       gradientTransform="translate(-0.0049,-473.4258)">
      <stop
         offset="0.2331"
         style="stop-color:#666699"
         id="stop4216" />
      <stop
         offset="0.9907"
         style="stop-color:#A7B3D9"
         id="stop4218" />
    </linearGradient>
    <linearGradient
       id="SVGID_4_"
       gradientUnits="userSpaceOnUse"
       x1="64.084503"
       y1="540.32593"
       x2="108.7263"
       y2="569.63147"
       gradientTransform="translate(-0.0049,-473.4258)">
      <stop
         offset="0"
         style="stop-color:#4C5284"
         id="stop4180" />
      <stop
         offset="1"
         style="stop-color:#8789BC"
         id="stop4182" />
    </linearGradient>
  </defs>
  <sodipodi:namedview
     id="base"
     pagecolor="#848183"
     bordercolor="#666666"
     borderopacity="1.0"
     inkscape:pageopacity="0"
     inkscape:pageshadow="2"
     inkscape:zoom="4"
     inkscape:cx="55.375"
     inkscape:cy="62.5"
     inkscape:document-units="px"
     inkscape:current-layer="layer1"
     showgrid="false"
     inkscape:window-width="1920"
     inkscape:window-height="995"
     inkscape:window-x="0"
     inkscape:window-y="0"
     inkscape:window-maximized="1"
     fit-margin-top="0"
     fit-margin-left="0"
     fit-margin-right="0"
     fit-margin-bottom="0"
     inkscape:pagecheckerboard="0" />
  <metadata
     id="metadata7">
    <rdf:RDF>
      <cc:Work
         rdf:about="">
        <dc:format>image/svg+xml</dc:format>
        <dc:type
           rdf:resource="http://purl.org/dc/dcmitype/StillImage" />
      </cc:Work>
    </rdf:RDF>
  </metadata>
  <g
     inkscape:label="Livello 1"
     inkscape:groupmode="layer"
     id="layer1"
     transform="translate(-76.535,-98.818634)">
    <g
       id="underneath_1_"
       transform="translate(76.535,98.818634)" />
    <g
       id="BOTTOM_LEFT_LINE"
       transform="translate(76.535,98.818634)" />
    <path
       id="polygon4184"
       style="fill:#cccccc"
       d="m 181.50391,132.09961 c -16.98838,9.8566 -33.97598,19.71455 -50.96485,29.57031 0,9.45443 0,18.90886 0,28.36328 8.28099,-4.87459 16.56342,-9.74675 24.84571,-14.61914 0,-2.67643 0,-5.35286 0,-8.02929 4.17057,-2.41146 8.34114,-4.82292 12.51171,-7.23438 0,7.57682 0,15.15365 0,22.73047 -12.45246,7.16995 -24.90503,14.3397 -37.35742,21.50976 0,6.21876 0,12.4375 0,18.65626 17.92831,-10.34227 35.85567,-20.68621 53.78125,-31.03321 0,-20.51627 0,-41.03255 0,-61.54883 -0.9388,0.54493 -1.8776,1.08985 -2.8164,1.63477 z" />
    <path
       id="polygon4213"
       style="fill:#f2f2f2;stroke-width:1"
       d="m 76.535156,133.29883 c 0,19.60677 0,39.21354 0,58.82031 17.799973,10.31129 35.600714,20.62125 53.402344,30.92969 0,-6.32682 0,-12.65365 0,-18.98047 -12.25824,-7.18659 -24.51696,-14.37233 -36.775391,-21.55859 0,-14.24284 0,-28.48568 0,-42.72852 -5.542644,-3.2514 -11.083775,-6.50537 -16.626953,-9.75586 0,1.09115 0,2.18229 0,3.27344 z m 28.416014,16.66406 c 0,8.55274 0,17.10547 0,25.6582 8.42839,4.87061 16.8563,9.74205 25.28321,14.61524 0,-9.52279 -10e-6,-19.04557 0,-28.56836 -8.42743,-4.99987 -16.85531,-9.99897 -25.28321,-14.99805 0,1.09766 0,2.19531 0,3.29297 z" />
    <g
       style="fill:#ffffff"
       transform="translate(76.535,98.818634)"
       id="g4270">
      <path
         style="fill:#ffffff"
         inkscape:connector-curvature="0"
         id="path23497"
         d="m 373.52,21.158 v -4.949 h -14.143 c -1.816,0 -3.533,0.404 -5.054,1.11 -1.513,0.71 -2.726,1.718 -3.634,2.932 -0.908,1.209 -1.314,2.529 -1.416,4.04 v 15.252 c 0.1,1.417 0.508,2.729 1.313,3.944 0.912,1.21 2.121,2.116 3.537,2.924 1.516,0.71 3.127,1.115 5.053,1.115 h 14.34 v -4.949 h -13.739 c -1.11,0 -2.118,-0.306 -3.022,-0.911 -0.815,-0.604 -1.318,-1.312 -1.318,-2.319 V 33.69 h 18.082 v -5.053 h -18.082 v -4.142 c 0,-1.013 0.503,-1.817 1.318,-2.427 0.904,-0.606 1.912,-0.91 3.022,-0.91 h 13.739" />
      <path
         style="fill:#ffffff"
         inkscape:connector-curvature="0"
         id="path23501"
         d="m 457.952,16.21 v 31.317 h 15.102 c 1.916,-0.098 3.625,-0.405 5.139,-1.107 1.609,-0.804 2.818,-1.712 3.723,-2.921 0.908,-1.203 1.307,-2.615 1.408,-4.127 V 24.266 c -0.102,-1.507 -0.5,-2.821 -1.408,-4.028 -0.904,-1.208 -2.111,-2.213 -3.723,-2.921 -1.514,-0.705 -3.225,-1.107 -5.139,-1.107 z m 17.826,5.842 c 0.898,0.604 1.303,1.407 1.404,2.418 v 14.803 c -0.104,1.006 -0.506,1.812 -1.404,2.416 -0.809,0.703 -1.82,1.005 -2.928,1.005 h -8.758 V 21.046 h 8.758 c 1.108,0 2.119,0.301 2.928,1.006" />
      <path
         style="fill:#ffffff"
         inkscape:connector-curvature="0"
         id="path23503"
         d="m 531.958,17.302 c -1.488,-0.692 -3.172,-0.993 -5.053,-1.093 h -5.453 c -1.885,0.099 -3.566,0.4 -5.057,1.093 -1.584,0.794 -2.775,1.68 -3.666,2.874 -0.895,1.186 -1.389,2.576 -1.389,4.063 v 15.359 c 0,1.486 0.494,2.777 1.389,3.967 0.891,1.19 2.082,2.179 3.666,2.874 1.49,0.693 3.172,1.089 5.057,1.089 h 5.453 c 1.881,0 3.563,-0.396 5.053,-1.089 1.584,-0.694 2.773,-1.684 3.666,-2.874 0.893,-1.191 1.387,-2.577 1.387,-3.967 v -15.36 c -0.096,-1.487 -0.494,-2.877 -1.387,-4.063 -0.893,-1.194 -2.082,-2.08 -3.666,-2.873 z m -2.379,4.656 c 0.891,0.694 1.387,1.484 1.387,2.382 v 15.059 c 0,0.892 -0.496,1.686 -1.387,2.379 -0.793,0.597 -1.787,0.994 -2.873,0.994 h -5.055 c -1.094,0 -2.084,-0.396 -2.977,-0.994 -0.789,-0.694 -1.285,-1.487 -1.285,-2.379 V 24.34 c 0,-0.897 0.496,-1.688 1.285,-2.382 0.893,-0.596 1.883,-0.893 2.977,-0.992 h 5.055 c 1.087,0.101 2.08,0.397 2.873,0.992" />
      <path
         style="fill:#ffffff"
         inkscape:connector-curvature="0"
         id="path23515"
         d="m 169.301,16.21 h -6.163 V 36.213 L 152.634,16.21 h -8.385 v 31.317 h 6.163 V 23.083 l 12.828,24.444 h 6.061 V 16.21" />
      <path
         style="fill:#ffffff"
         inkscape:connector-curvature="0"
         id="path23515_1_"
         d="m 269.711,16.21 h -6.163 V 36.213 L 253.043,16.21 h -8.385 v 31.317 h 6.163 V 23.083 l 12.828,24.444 h 6.062 V 16.21" />
      <path
         style="fill:#ffffff"
         inkscape:connector-curvature="0"
         id="path23515_2_"
         d="m 428.299,16.21 h -6.162 V 36.213 L 411.633,16.21 h -8.387 v 31.317 h 6.163 V 23.083 l 12.828,24.444 h 6.062 V 16.21" />
      <path
         style="fill:#ffffff"
         inkscape:connector-curvature="0"
         id="path23517"
         d="M 210.526,47.527 V 16.21 h -7.07 v 31.317 h 7.07 v 0" />
      <path
         style="fill:#ffffff"
         inkscape:connector-curvature="0"
         id="path23521"
         d="m 296.922,16.21 v 4.949 h 10.401 v 26.369 h 6.671 v -26.37 h 10.504 V 16.209 H 296.92 v 0" />
    </g>
    <g
       style="fill:#ffffff"
       transform="translate(76.535,98.818634)"
       id="g4280">
      <path
         style="fill:#ffffff"
         inkscape:connector-curvature="0"
         id="path23505"
         d="m 543.92,69.03 v -8.463 h -42.717 v 40.229 h 43.113 v -9.062 h -31.855 v -7.57 h 18.316 V 75.707 H 512.461 V 69.03 h 31.459 v 0" />
      <path
         style="fill:#ffffff"
         inkscape:connector-curvature="0"
         id="path23507"
         d="m 496.374,68.755 c 0.096,-2.785 -0.697,-4.977 -2.393,-6.274 -1.596,-1.394 -4.08,-2.09 -7.467,-2.09 h -35.148 v 40.325 h 32.658 c 8.563,-0.099 12.744,-2.887 12.744,-8.562 v -4.883 c 0,-3.382 -1.492,-5.87 -4.582,-7.262 2.789,-1.298 4.188,-3.487 4.188,-6.576 z m -10.854,0.2 c 0.398,0.399 0.602,0.8 0.496,1.396 v 3.685 c 0.104,0.495 -0.098,0.995 -0.496,1.293 l -2.795,0.495 h -20.107 v -7.266 h 20.107 c 1.502,0 2.496,0.199 2.795,0.397 z m -22.902,22.9 v -7.867 h 20.211 c 1.496,0 2.393,0.201 2.889,0.5 0.402,0.401 0.596,0.998 0.596,1.993 v 2.886 c 0,0.897 -0.191,1.594 -0.596,1.891 -0.496,0.4 -1.393,0.597 -2.889,0.597 h -20.211" />
      <path
         style="fill:#ffffff"
         inkscape:connector-curvature="0"
         id="path23509"
         d="m 446.614,60.458 h -11.25 V 91.625 H 410.968 V 60.458 H 399.72 v 30.271 c -0.106,2.486 0.295,4.484 0.99,5.975 0.6,1.395 1.797,2.49 3.389,3.089 1.597,0.695 3.684,0.993 6.47,0.896 h 25.093 c 2.789,0.097 4.977,-0.201 6.57,-0.896 1.59,-0.599 2.689,-1.694 3.389,-3.089 0.695,-1.491 0.996,-3.487 0.996,-5.975 V 60.458" />
      <path
         style="fill:#ffffff"
         inkscape:connector-curvature="0"
         id="path23511"
         d="m 394.09,64.607 c -0.705,-1.489 -1.896,-2.488 -3.388,-3.186 -1.596,-0.602 -3.784,-0.898 -6.473,-0.898 h -24.591 c -2.789,0 -4.881,0.298 -6.478,0.898 -1.591,0.697 -2.786,1.696 -3.382,3.186 -0.697,1.494 -1.096,3.484 -0.993,5.974 v 20.214 c -0.103,2.484 0.296,4.48 0.993,5.971 0.596,1.396 1.791,2.491 3.382,3.093 1.597,0.693 3.688,0.991 6.478,0.893 h 24.592 c 2.688,0.098 4.877,-0.199 6.473,-0.893 1.492,-0.602 2.684,-1.697 3.387,-3.093 0.597,-1.489 0.996,-3.485 0.996,-5.971 v -7.371 l -11.256,0.105 v 8.162 H 359.937 V 69.39 h 23.893 v 7.165 h 11.256 v -5.974 c 0,-2.585 -0.399,-4.574 -0.996,-5.974" />
      <path
         style="fill:#ffffff"
         inkscape:connector-curvature="0"
         id="path23513"
         d="m 340.461,69.03 v -8.463 h -42.718 v 40.229 h 43.116 v -9.062 h -31.861 v -7.57 h 18.321 V 75.707 H 308.998 V 69.03 h 31.463 v 0" />
      <path
         style="fill:#ffffff"
         inkscape:connector-curvature="0"
         id="path23523"
         d="m 282.411,60.458 -17.127,28.48 -17.025,-28.48 H 238.005 V 93.617 L 217.989,60.458 h -10.056 l -23.994,40.228 h 30.068 v -9.061 h -13.442 l 12.447,-20.013 16.828,29.072 h 18.519 V 79.179 l 12.842,21.505 h 8.266 l 12.942,-21.505 v 21.505 h 10.354 V 60.457 h -10.354 v 0" />
      <path
         style="fill:#ffffff"
         inkscape:connector-curvature="0"
         id="path23525"
         d="m 184.83,69.307 v -8.77 h -37.938 c -2.685,0 -4.879,0.3 -6.474,0.899 -1.59,0.696 -2.686,1.698 -3.381,3.187 -0.7,1.493 -0.998,3.483 -0.998,5.975 v 20.21 c 0,2.486 0.298,4.483 0.998,5.975 0.696,1.395 1.792,2.49 3.381,3.091 1.594,0.692 3.789,0.991 6.474,0.895 h 27.584 c 3.978,0.097 6.768,-0.599 8.458,-2.091 1.595,-1.595 2.391,-4.183 2.294,-7.868 V 76.57 H 159.14 v 8.47 h 15.135 v 6.667 H 147.29 v -22.4 h 37.54" />
    </g>
    <path
       id="polygon4261"
       style="fill:#ffffff;stroke-width:1"
       d="m 129.42773,99.361328 c -17.56006,10.149442 -35.118709,20.301342 -52.679683,30.449222 5.471175,3.25486 10.942908,6.50878 16.414062,9.76367 12.456931,-7.19578 24.916901,-14.38632 37.375001,-21.58008 7.9667,4.65576 15.93417,9.3102 23.90039,13.9668 5.51721,-3.19725 11.03563,-6.39241 16.55273,-9.58985 -13.54245,-7.84843 -27.08198,-15.7019 -40.62304,-23.552731 -0.31315,0.18099 -0.6263,0.36198 -0.93946,0.542969 z m -0.13281,33.386722 c -7.98171,4.50857 -15.96403,9.01605 -23.94531,13.52539 8.39597,4.91644 16.79291,9.83122 25.1875,14.75 8.34637,-4.82839 16.69532,-9.65234 25.04297,-14.47852 -8.45427,-4.77241 -16.90817,-9.54548 -25.36328,-14.3164 -0.30729,0.17317 -0.61459,0.34635 -0.92188,0.51953 z" />
    <g
       style="fill:#ffffff"
       transform="translate(76.535,98.818634)"
       id="g4289">
      <path
         style="fill:#ffffff"
         inkscape:connector-curvature="0"
         id="path23527"
         d="m 566.93,91.979 h -1.693 l -2.041,6.45 c -0.334,0.513 -0.51,1.024 -0.51,1.362 -0.172,-0.338 -0.346,-0.682 -0.512,-1.188 l -2.211,-6.626 h -1.699 v 9.17 h 1.027 v -7.813 l 2.717,7.813 h 1.012 l 2.721,-7.642 v 7.642 h 1.189 v -9.168" />
      <path
         style="fill:#ffffff"
         inkscape:connector-curvature="0"
         id="path23529"
         d="m 554.016,93.167 h 2.893 v -1.188 h -7.139 v 1.188 h 3.063 v 7.982 h 1.186 v -7.982" />
    </g>
  </g>
</svg>
