<?xml version="1.0" encoding="UTF-8" standalone="no"?>
<svg
   version="1.1"
   viewBox="0 0 275.60001 76.053375"
   id="svg12"
   sodipodi:docname="system.svg"
   inkscape:version="1.1.2 (0a00cf5339, 2022-02-04)"
   width="275.60001"
   height="76.053375"
   xmlns:inkscape="http://www.inkscape.org/namespaces/inkscape"
   xmlns:sodipodi="http://sodipodi.sourceforge.net/DTD/sodipodi-0.dtd"
   xmlns:xlink="http://www.w3.org/1999/xlink"
   xmlns="http://www.w3.org/2000/svg"
   xmlns:svg="http://www.w3.org/2000/svg">
  <defs
     id="defs16">
    <linearGradient
       inkscape:collect="always"
       id="linearGradient1515">
      <stop
         style="stop-color:#ff0000;stop-opacity:1"
         offset="0"
         id="stop1511" />
      <stop
         style="stop-color:#de8787;stop-opacity:1"
         offset="1"
         id="stop1513" />
    </linearGradient>
    <linearGradient
       inkscape:collect="always"
       id="linearGradient1509">
      <stop
         style="stop-color:#ff0000;stop-opacity:1"
         offset="0"
         id="stop1505" />
      <stop
         style="stop-color:#de8787;stop-opacity:1"
         offset="1"
         id="stop1507" />
    </linearGradient>
    <linearGradient
       inkscape:collect="always"
       id="linearGradient972">
      <stop
         style="stop-color:#3d383e;stop-opacity:1;"
         offset="0"
         id="stop968" />
      <stop
         style="stop-color:#ad0000;stop-opacity:1"
         offset="1"
         id="stop970" />
    </linearGradient>
    <linearGradient
       inkscape:collect="always"
       xlink:href="#linearGradient972"
       id="linearGradient974"
       x1="132.26791"
       y1="0.53217298"
       x2="131.48061"
       y2="67.768364"
       gradientUnits="userSpaceOnUse" />
    <linearGradient
       inkscape:collect="always"
       xlink:href="#linearGradient972"
       id="linearGradient1678"
       gradientUnits="userSpaceOnUse"
       x1="132.26791"
       y1="0.53217298"
       x2="131.48061"
       y2="67.768364" />
    <linearGradient
       inkscape:collect="always"
       xlink:href="#linearGradient972"
       id="linearGradient1680"
       gradientUnits="userSpaceOnUse"
       x1="132.26791"
       y1="0.53217298"
       x2="131.48061"
       y2="67.768364" />
    <linearGradient
       inkscape:collect="always"
       xlink:href="#linearGradient972"
       id="linearGradient1682"
       gradientUnits="userSpaceOnUse"
       x1="132.26791"
       y1="0.53217298"
       x2="131.48061"
       y2="67.768364" />
    <linearGradient
       inkscape:collect="always"
       xlink:href="#linearGradient972"
       id="linearGradient1684"
       gradientUnits="userSpaceOnUse"
       x1="132.26791"
       y1="0.53217298"
       x2="131.48061"
       y2="67.768364" />
    <linearGradient
       inkscape:collect="always"
       xlink:href="#linearGradient972"
       id="linearGradient1686"
       gradientUnits="userSpaceOnUse"
       x1="132.26791"
       y1="0.53217298"
       x2="131.48061"
       y2="67.768364" />
    <linearGradient
       inkscape:collect="always"
       xlink:href="#linearGradient1515"
       id="linearGradient889"
       x1="125.9545"
       y1="72.802567"
       x2="125.9545"
       y2="-9.7563553"
       gradientUnits="userSpaceOnUse" />
    <linearGradient
       inkscape:collect="always"
       xlink:href="#linearGradient1509"
       id="linearGradient897"
       x1="125.9545"
       y1="72.802567"
       x2="125.9545"
       y2="-9.7563553"
       gradientUnits="userSpaceOnUse" />
  </defs>
  <sodipodi:namedview
     id="namedview14"
     pagecolor="#ffffff"
     bordercolor="#666666"
     borderopacity="1.0"
     inkscape:pageshadow="2"
     inkscape:pageopacity="0.0"
     inkscape:pagecheckerboard="0"
     showgrid="false"
     inkscape:zoom="3.1753732"
     inkscape:cx="86.131608"
     inkscape:cy="-20.312573"
     inkscape:window-width="1920"
     inkscape:window-height="996"
     inkscape:window-x="0"
     inkscape:window-y="0"
     inkscape:window-maximized="1"
     inkscape:current-layer="svg12"
     inkscape:showpageshadow="0"
     inkscape:deskcolor="#d1d1d1"
     fit-margin-top="0"
     fit-margin-left="0"
     fit-margin-right="0"
     fit-margin-bottom="0" />
  <g
     id="g869"
     style="fill:#000000;fill-opacity:1;stroke:#000000;stroke-width:7.6;stroke-linejoin:round;stroke-miterlimit:4;stroke-dasharray:none"
     transform="translate(3.8,3.7971011)">
    <path
       d="m 44.878,14.763 c 1.206,3.272 1.811,6.621 1.811,10.05 0,2.999 -0.468,5.746 -1.402,8.238 -1.56,4.206 -4.033,7.712 -7.421,10.516 -3.506,2.882 -7.442,4.557 -11.805,5.024 v 6.018 c 0,0.235 -0.175,1.168 -0.526,2.805 -0.701,3.233 -1.343,6.915 -1.927,11.044 -1.949,-8.649 -3.02,-13.245 -3.215,-13.79 V 48.532 C 16.148,48.104 12.309,46.468 8.882,43.626 2.959,38.72 0,32.447 0,24.813 0,21.619 0.526,18.503 1.578,15.465 2.551,12.583 4.032,9.994 6.019,7.695 8.161,5.164 10.577,3.41 13.264,2.436 10.421,4.11 8.064,6.234 6.193,8.804 c -2.531,3.505 -3.797,7.5 -3.797,11.978 0,1.635 0.155,3.252 0.468,4.849 0.662,3.35 2.279,6.465 4.851,9.346 2.648,3.001 5.588,4.89 8.822,5.668 1.676,0.584 2.96,0.899 3.857,0.936 v -6.079 c 0,-0.622 -0.02,-1.325 -0.058,-2.103 -0.272,-1.285 -1.012,-2.025 -2.221,-2.22 -0.076,-0.078 -0.176,-0.118 -0.291,-0.118 H 28.4 c 0.272,0 0.389,0.04 0.35,0.118 -1.441,0.234 -2.279,0.974 -2.512,2.22 -0.119,0.624 -0.176,1.345 -0.176,2.162 v 6.02 c 1.988,-0.43 3.35,-0.74 4.091,-0.936 3.156,-0.817 6.038,-2.629 8.648,-5.434 3.663,-3.974 5.492,-8.783 5.492,-14.431 0,-3.857 -0.975,-7.392 -2.922,-10.605 -1.948,-3.213 -4.616,-5.794 -8.005,-7.743 5.337,2.03 9.174,6.14 11.512,12.331 z"
       style="fill:#000000;fill-opacity:1;stroke:#000000;stroke-width:7.6;stroke-linejoin:round;stroke-miterlimit:4;stroke-dasharray:none"
       id="path859" />
    <path
       d="M 61.644,6.851 C 61.293,4.127 60.146,2.494 58.199,1.948 h 14.198 c -2.884,0.974 -4.169,2.647 -3.857,5.02 v 30.233 c 0,2.141 0.272,3.989 0.819,5.545 2.18,4.359 5.394,6.635 9.641,6.83 C 73.663,49.42 69.514,47.806 66.553,44.732 63.28,41.346 61.645,37.573 61.645,33.409 Z M 100.649,6.81 c 0.346,-2.733 1.565,-4.353 3.652,-4.863 H 89.984 c 2.833,0.86 4.093,2.48 3.782,4.863 v 31.049 c 0,2.071 -0.295,3.693 -0.881,4.863 -2.23,4.415 -5.417,6.699 -9.563,6.854 3.239,-0.078 6.009,-0.703 8.311,-1.873 1.21,-0.624 2.596,-1.62 4.157,-2.988 3.238,-2.85 4.858,-6.6 4.858,-11.249 z"
       style="fill:#000000;fill-opacity:1;stroke:#000000;stroke-width:7.6;stroke-linejoin:round;stroke-miterlimit:4;stroke-dasharray:none"
       id="path861" />
    <path
       d="m 146.398,45.205 -2.337,-5.727 c -1.326,-3.272 -3.098,-5.259 -5.319,-5.96 -0.779,-0.076 -1.83,-0.155 -3.154,-0.233 -0.351,-0.039 -0.566,-0.059 -0.644,-0.059 l 0.991,-0.292 c 2.02,-0.585 3.031,-1.558 3.031,-2.923 0,-0.428 -0.157,-1.012 -0.466,-1.753 -1.557,-3.701 -2.703,-6.488 -3.442,-8.357 -1.439,-3.349 -2.526,-5.239 -3.266,-5.667 -0.584,-0.311 -1.535,0.858 -2.857,3.505 -1.401,2.845 -2.294,4.754 -2.682,5.728 l -1.982,5.083 c -0.272,0.701 -0.409,1.305 -0.409,1.812 0,1.793 1.24,2.748 3.719,2.865 -3.272,0 -5.532,0.836 -6.776,2.51 -1.327,2.263 -2.437,4.929 -3.332,8.007 l -0.351,2.045 c 0.235,1.479 1.111,2.357 2.631,2.629 h -9.35 c 1.714,-0.78 3.798,-3.391 6.253,-7.834 1.325,-2.339 2.94,-5.594 4.849,-9.765 2.844,-6.236 4.52,-9.958 5.026,-11.168 1.948,-4.52 3.233,-7.523 3.856,-9.004 l 3.448,-9.004 8.24,19.491 h -0.059 c 0.935,1.986 1.519,3.232 1.754,3.739 2.065,4.324 4.693,9.912 7.889,16.769 1.596,3.466 3.466,5.725 5.609,6.776 h -13.733 c 2.143,-0.116 3.097,-1.188 2.863,-3.213 z"
       style="fill:#000000;fill-opacity:1;stroke:#000000;stroke-width:7.6;stroke-linejoin:round;stroke-miterlimit:4;stroke-dasharray:none"
       id="path863" />
    <path
       d="m 178.698,43.685 c 0,2.573 1.098,4.092 3.285,4.559 h -13.089 c 1.877,-0.468 2.953,-1.986 3.229,-4.559 V 6.687 c 0,-2.651 -1.057,-4.209 -3.169,-4.676 h 13.088 c -1.602,0.351 -2.717,1.849 -3.344,4.499 v 13.035 c 0,2.496 1.645,4.267 4.935,5.32 -3.29,0.7 -4.935,2.786 -4.935,6.254 z m 18.71,-21.019 C 203.018,15.422 208.802,7.866 214.764,0 l -26.762,24.986 h 0.057 l -0.057,0.059 h 0.176 c 4.244,1.598 7.965,3.507 11.16,5.728 7.596,5.302 11.687,11.73 12.271,19.29 0.117,-1.128 0.176,-2.239 0.176,-3.329 0,-7.361 -2.065,-13.397 -6.195,-18.11 -2.377,-2.725 -5.104,-4.713 -8.182,-5.958 z"
       style="fill:#000000;fill-opacity:1;stroke:#000000;stroke-width:7.6;stroke-linejoin:round;stroke-miterlimit:4;stroke-dasharray:none"
       id="path865" />
    <path
       d="m 238.966,26.668 c -1.091,0.86 -1.636,2.048 -1.636,3.567 v 4.036 c 0,1.17 0.331,3.567 0.995,7.192 0.502,1.129 1.184,2.202 2.042,3.215 1.906,2.221 4.125,3.41 6.655,3.567 -3.889,-0.117 -7.505,-1.481 -10.849,-4.093 -3.694,-2.807 -5.544,-6.101 -5.544,-9.881 V 6.673 C 229.96,3.904 228.763,2.23 227.036,1.644 h 13.734 c -2.294,0.545 -3.439,2.28 -3.439,5.203 v 13.215 c 0,1.792 0.487,3.08 1.461,3.861 0.036,0.388 2.702,0.699 7.997,0.934 -3.504,0.116 -6.11,0.721 -7.823,1.811 z M 249.712,1.644 h 15.834 l 0.057,15.746 c -0.469,-4.332 -2.198,-7.883 -5.2,-10.654 -2.685,-2.458 -6.251,-4.155 -10.691,-5.092 z m 2.747,46.776 C 257.833,47.992 263.014,42.929 268,33.227 V 48.42 c -0.739,-1.053 -1.908,-1.578 -3.504,-1.578 -1.131,0 -2.457,0.263 -3.976,0.787 -1.518,0.527 -4.205,0.791 -8.061,0.791 z"
       style="fill:#000000;fill-opacity:1;stroke:#000000;stroke-width:7.6;stroke-linejoin:round;stroke-miterlimit:4;stroke-dasharray:none"
       id="path867" />
  </g>
  <g
     id="g1342"
     style="fill:url(#linearGradient889);fill-opacity:1;stroke:url(#linearGradient897);stroke-width:4;stroke-linejoin:round;stroke-miterlimit:4;stroke-dasharray:none"
     transform="translate(3.8,3.7971011)">
    <path
       d="m 44.878,14.763 c 1.206,3.272 1.811,6.621 1.811,10.05 0,2.999 -0.468,5.746 -1.402,8.238 -1.56,4.206 -4.033,7.712 -7.421,10.516 -3.506,2.882 -7.442,4.557 -11.805,5.024 v 6.018 c 0,0.235 -0.175,1.168 -0.526,2.805 -0.701,3.233 -1.343,6.915 -1.927,11.044 -1.949,-8.649 -3.02,-13.245 -3.215,-13.79 V 48.532 C 16.148,48.104 12.309,46.468 8.882,43.626 2.959,38.72 0,32.447 0,24.813 0,21.619 0.526,18.503 1.578,15.465 2.551,12.583 4.032,9.994 6.019,7.695 8.161,5.164 10.577,3.41 13.264,2.436 10.421,4.11 8.064,6.234 6.193,8.804 c -2.531,3.505 -3.797,7.5 -3.797,11.978 0,1.635 0.155,3.252 0.468,4.849 0.662,3.35 2.279,6.465 4.851,9.346 2.648,3.001 5.588,4.89 8.822,5.668 1.676,0.584 2.96,0.899 3.857,0.936 v -6.079 c 0,-0.622 -0.02,-1.325 -0.058,-2.103 -0.272,-1.285 -1.012,-2.025 -2.221,-2.22 -0.076,-0.078 -0.176,-0.118 -0.291,-0.118 H 28.4 c 0.272,0 0.389,0.04 0.35,0.118 -1.441,0.234 -2.279,0.974 -2.512,2.22 -0.119,0.624 -0.176,1.345 -0.176,2.162 v 6.02 c 1.988,-0.43 3.35,-0.74 4.091,-0.936 3.156,-0.817 6.038,-2.629 8.648,-5.434 3.663,-3.974 5.492,-8.783 5.492,-14.431 0,-3.857 -0.975,-7.392 -2.922,-10.605 -1.948,-3.213 -4.616,-5.794 -8.005,-7.743 5.337,2.03 9.174,6.14 11.512,12.331 z"
       style="fill:url(#linearGradient889);fill-opacity:1;stroke:url(#linearGradient897);stroke-width:4;stroke-linejoin:round;stroke-miterlimit:4;stroke-dasharray:none"
       id="path1332" />
    <path
       d="M 61.644,6.851 C 61.293,4.127 60.146,2.494 58.199,1.948 h 14.198 c -2.884,0.974 -4.169,2.647 -3.857,5.02 v 30.233 c 0,2.141 0.272,3.989 0.819,5.545 2.18,4.359 5.394,6.635 9.641,6.83 C 73.663,49.42 69.514,47.806 66.553,44.732 63.28,41.346 61.645,37.573 61.645,33.409 Z M 100.649,6.81 c 0.346,-2.733 1.565,-4.353 3.652,-4.863 H 89.984 c 2.833,0.86 4.093,2.48 3.782,4.863 v 31.049 c 0,2.071 -0.295,3.693 -0.881,4.863 -2.23,4.415 -5.417,6.699 -9.563,6.854 3.239,-0.078 6.009,-0.703 8.311,-1.873 1.21,-0.624 2.596,-1.62 4.157,-2.988 3.238,-2.85 4.858,-6.6 4.858,-11.249 z"
       style="fill:url(#linearGradient889);fill-opacity:1;stroke:url(#linearGradient897);stroke-width:4;stroke-linejoin:round;stroke-miterlimit:4;stroke-dasharray:none"
       id="path1334" />
    <path
       d="m 146.398,45.205 -2.337,-5.727 c -1.326,-3.272 -3.098,-5.259 -5.319,-5.96 -0.779,-0.076 -1.83,-0.155 -3.154,-0.233 -0.351,-0.039 -0.566,-0.059 -0.644,-0.059 l 0.991,-0.292 c 2.02,-0.585 3.031,-1.558 3.031,-2.923 0,-0.428 -0.157,-1.012 -0.466,-1.753 -1.557,-3.701 -2.703,-6.488 -3.442,-8.357 -1.439,-3.349 -2.526,-5.239 -3.266,-5.667 -0.584,-0.311 -1.535,0.858 -2.857,3.505 -1.401,2.845 -2.294,4.754 -2.682,5.728 l -1.982,5.083 c -0.272,0.701 -0.409,1.305 -0.409,1.812 0,1.793 1.24,2.748 3.719,2.865 -3.272,0 -5.532,0.836 -6.776,2.51 -1.327,2.263 -2.437,4.929 -3.332,8.007 l -0.351,2.045 c 0.235,1.479 1.111,2.357 2.631,2.629 h -9.35 c 1.714,-0.78 3.798,-3.391 6.253,-7.834 1.325,-2.339 2.94,-5.594 4.849,-9.765 2.844,-6.236 4.52,-9.958 5.026,-11.168 1.948,-4.52 3.233,-7.523 3.856,-9.004 l 3.448,-9.004 8.24,19.491 h -0.059 c 0.935,1.986 1.519,3.232 1.754,3.739 2.065,4.324 4.693,9.912 7.889,16.769 1.596,3.466 3.466,5.725 5.609,6.776 h -13.733 c 2.143,-0.116 3.097,-1.188 2.863,-3.213 z"
       style="fill:url(#linearGradient889);fill-opacity:1;stroke:url(#linearGradient897);stroke-width:4;stroke-linejoin:round;stroke-miterlimit:4;stroke-dasharray:none"
       id="path1336" />
    <path
       d="m 178.698,43.685 c 0,2.573 1.098,4.092 3.285,4.559 h -13.089 c 1.877,-0.468 2.953,-1.986 3.229,-4.559 V 6.687 c 0,-2.651 -1.057,-4.209 -3.169,-4.676 h 13.088 c -1.602,0.351 -2.717,1.849 -3.344,4.499 v 13.035 c 0,2.496 1.645,4.267 4.935,5.32 -3.29,0.7 -4.935,2.786 -4.935,6.254 z m 18.71,-21.019 C 203.018,15.422 208.802,7.866 214.764,0 l -26.762,24.986 h 0.057 l -0.057,0.059 h 0.176 c 4.244,1.598 7.965,3.507 11.16,5.728 7.596,5.302 11.687,11.73 12.271,19.29 0.117,-1.128 0.176,-2.239 0.176,-3.329 0,-7.361 -2.065,-13.397 -6.195,-18.11 -2.377,-2.725 -5.104,-4.713 -8.182,-5.958 z"
       style="fill:url(#linearGradient889);fill-opacity:1;stroke:url(#linearGradient897);stroke-width:4;stroke-linejoin:round;stroke-miterlimit:4;stroke-dasharray:none"
       id="path1338" />
    <path
       d="m 238.966,26.668 c -1.091,0.86 -1.636,2.048 -1.636,3.567 v 4.036 c 0,1.17 0.331,3.567 0.995,7.192 0.502,1.129 1.184,2.202 2.042,3.215 1.906,2.221 4.125,3.41 6.655,3.567 -3.889,-0.117 -7.505,-1.481 -10.849,-4.093 -3.694,-2.807 -5.544,-6.101 -5.544,-9.881 V 6.673 C 229.96,3.904 228.763,2.23 227.036,1.644 h 13.734 c -2.294,0.545 -3.439,2.28 -3.439,5.203 v 13.215 c 0,1.792 0.487,3.08 1.461,3.861 0.036,0.388 2.702,0.699 7.997,0.934 -3.504,0.116 -6.11,0.721 -7.823,1.811 z M 249.712,1.644 h 15.834 l 0.057,15.746 c -0.469,-4.332 -2.198,-7.883 -5.2,-10.654 -2.685,-2.458 -6.251,-4.155 -10.691,-5.092 z m 2.747,46.776 C 257.833,47.992 263.014,42.929 268,33.227 V 48.42 c -0.739,-1.053 -1.908,-1.578 -3.504,-1.578 -1.131,0 -2.457,0.263 -3.976,0.787 -1.518,0.527 -4.205,0.791 -8.061,0.791 z"
       style="fill:url(#linearGradient889);fill-opacity:1;stroke:url(#linearGradient897);stroke-width:4;stroke-linejoin:round;stroke-miterlimit:4;stroke-dasharray:none"
       id="path1340" />
  </g>
  <g
     id="g966"
     style="fill:url(#linearGradient974);fill-opacity:1"
     transform="translate(3.8,3.7971011)">
    <path
       d="m 44.878,14.763 c 1.206,3.272 1.811,6.621 1.811,10.05 0,2.999 -0.468,5.746 -1.402,8.238 -1.56,4.206 -4.033,7.712 -7.421,10.516 -3.506,2.882 -7.442,4.557 -11.805,5.024 v 6.018 c 0,0.235 -0.175,1.168 -0.526,2.805 -0.701,3.233 -1.343,6.915 -1.927,11.044 -1.949,-8.649 -3.02,-13.245 -3.215,-13.79 V 48.532 C 16.148,48.104 12.309,46.468 8.882,43.626 2.959,38.72 0,32.447 0,24.813 0,21.619 0.526,18.503 1.578,15.465 2.551,12.583 4.032,9.994 6.019,7.695 8.161,5.164 10.577,3.41 13.264,2.436 10.421,4.11 8.064,6.234 6.193,8.804 c -2.531,3.505 -3.797,7.5 -3.797,11.978 0,1.635 0.155,3.252 0.468,4.849 0.662,3.35 2.279,6.465 4.851,9.346 2.648,3.001 5.588,4.89 8.822,5.668 1.676,0.584 2.96,0.899 3.857,0.936 v -6.079 c 0,-0.622 -0.02,-1.325 -0.058,-2.103 -0.272,-1.285 -1.012,-2.025 -2.221,-2.22 -0.076,-0.078 -0.176,-0.118 -0.291,-0.118 H 28.4 c 0.272,0 0.389,0.04 0.35,0.118 -1.441,0.234 -2.279,0.974 -2.512,2.22 -0.119,0.624 -0.176,1.345 -0.176,2.162 v 6.02 c 1.988,-0.43 3.35,-0.74 4.091,-0.936 3.156,-0.817 6.038,-2.629 8.648,-5.434 3.663,-3.974 5.492,-8.783 5.492,-14.431 0,-3.857 -0.975,-7.392 -2.922,-10.605 -1.948,-3.213 -4.616,-5.794 -8.005,-7.743 5.337,2.03 9.174,6.14 11.512,12.331 z"
       style="fill:url(#linearGradient1678);fill-opacity:1"
       id="path2" />
    <path
       d="M 61.644,6.851 C 61.293,4.127 60.146,2.494 58.199,1.948 h 14.198 c -2.884,0.974 -4.169,2.647 -3.857,5.02 v 30.233 c 0,2.141 0.272,3.989 0.819,5.545 2.18,4.359 5.394,6.635 9.641,6.83 C 73.663,49.42 69.514,47.806 66.553,44.732 63.28,41.346 61.645,37.573 61.645,33.409 Z M 100.649,6.81 c 0.346,-2.733 1.565,-4.353 3.652,-4.863 H 89.984 c 2.833,0.86 4.093,2.48 3.782,4.863 v 31.049 c 0,2.071 -0.295,3.693 -0.881,4.863 -2.23,4.415 -5.417,6.699 -9.563,6.854 3.239,-0.078 6.009,-0.703 8.311,-1.873 1.21,-0.624 2.596,-1.62 4.157,-2.988 3.238,-2.85 4.858,-6.6 4.858,-11.249 z"
       style="fill:url(#linearGradient1680);fill-opacity:1"
       id="path4" />
    <path
       d="m 146.398,45.205 -2.337,-5.727 c -1.326,-3.272 -3.098,-5.259 -5.319,-5.96 -0.779,-0.076 -1.83,-0.155 -3.154,-0.233 -0.351,-0.039 -0.566,-0.059 -0.644,-0.059 l 0.991,-0.292 c 2.02,-0.585 3.031,-1.558 3.031,-2.923 0,-0.428 -0.157,-1.012 -0.466,-1.753 -1.557,-3.701 -2.703,-6.488 -3.442,-8.357 -1.439,-3.349 -2.526,-5.239 -3.266,-5.667 -0.584,-0.311 -1.535,0.858 -2.857,3.505 -1.401,2.845 -2.294,4.754 -2.682,5.728 l -1.982,5.083 c -0.272,0.701 -0.409,1.305 -0.409,1.812 0,1.793 1.24,2.748 3.719,2.865 -3.272,0 -5.532,0.836 -6.776,2.51 -1.327,2.263 -2.437,4.929 -3.332,8.007 l -0.351,2.045 c 0.235,1.479 1.111,2.357 2.631,2.629 h -9.35 c 1.714,-0.78 3.798,-3.391 6.253,-7.834 1.325,-2.339 2.94,-5.594 4.849,-9.765 2.844,-6.236 4.52,-9.958 5.026,-11.168 1.948,-4.52 3.233,-7.523 3.856,-9.004 l 3.448,-9.004 8.24,19.491 h -0.059 c 0.935,1.986 1.519,3.232 1.754,3.739 2.065,4.324 4.693,9.912 7.889,16.769 1.596,3.466 3.466,5.725 5.609,6.776 h -13.733 c 2.143,-0.116 3.097,-1.188 2.863,-3.213 z"
       style="fill:url(#linearGradient1682);fill-opacity:1"
       id="path6" />
    <path
       d="m 178.698,43.685 c 0,2.573 1.098,4.092 3.285,4.559 h -13.089 c 1.877,-0.468 2.953,-1.986 3.229,-4.559 V 6.687 c 0,-2.651 -1.057,-4.209 -3.169,-4.676 h 13.088 c -1.602,0.351 -2.717,1.849 -3.344,4.499 v 13.035 c 0,2.496 1.645,4.267 4.935,5.32 -3.29,0.7 -4.935,2.786 -4.935,6.254 z m 18.71,-21.019 C 203.018,15.422 208.802,7.866 214.764,0 l -26.762,24.986 h 0.057 l -0.057,0.059 h 0.176 c 4.244,1.598 7.965,3.507 11.16,5.728 7.596,5.302 11.687,11.73 12.271,19.29 0.117,-1.128 0.176,-2.239 0.176,-3.329 0,-7.361 -2.065,-13.397 -6.195,-18.11 -2.377,-2.725 -5.104,-4.713 -8.182,-5.958 z"
       style="fill:url(#linearGradient1684);fill-opacity:1"
       id="path8" />
    <path
       d="m 238.966,26.668 c -1.091,0.86 -1.636,2.048 -1.636,3.567 v 4.036 c 0,1.17 0.331,3.567 0.995,7.192 0.502,1.129 1.184,2.202 2.042,3.215 1.906,2.221 4.125,3.41 6.655,3.567 -3.889,-0.117 -7.505,-1.481 -10.849,-4.093 -3.694,-2.807 -5.544,-6.101 -5.544,-9.881 V 6.673 C 229.96,3.904 228.763,2.23 227.036,1.644 h 13.734 c -2.294,0.545 -3.439,2.28 -3.439,5.203 v 13.215 c 0,1.792 0.487,3.08 1.461,3.861 0.036,0.388 2.702,0.699 7.997,0.934 -3.504,0.116 -6.11,0.721 -7.823,1.811 z M 249.712,1.644 h 15.834 l 0.057,15.746 c -0.469,-4.332 -2.198,-7.883 -5.2,-10.654 -2.685,-2.458 -6.251,-4.155 -10.691,-5.092 z m 2.747,46.776 C 257.833,47.992 263.014,42.929 268,33.227 V 48.42 c -0.739,-1.053 -1.908,-1.578 -3.504,-1.578 -1.131,0 -2.457,0.263 -3.976,0.787 -1.518,0.527 -4.205,0.791 -8.061,0.791 z"
       style="fill:url(#linearGradient1686);fill-opacity:1"
       id="path10" />
  </g>
</svg>
