<?xml version="1.0" encoding="UTF-8" standalone="no"?>
<svg
   version="1.0"
   width="811.55096"
   height="92.188713"
   viewBox="0 0 811.55096 92.188713"
   preserveAspectRatio="xMidYMid meet"
   id="svg18"
   sodipodi:docname="system.svg"
   inkscape:version="1.1.2 (0a00cf5339, 2022-02-04)"
   xmlns:inkscape="http://www.inkscape.org/namespaces/inkscape"
   xmlns:sodipodi="http://sodipodi.sourceforge.net/DTD/sodipodi-0.dtd"
   xmlns:xlink="http://www.w3.org/1999/xlink"
   xmlns="http://www.w3.org/2000/svg"
   xmlns:svg="http://www.w3.org/2000/svg">
  <defs
     id="defs22">
    <linearGradient
       inkscape:collect="always"
       id="linearGradient963">
      <stop
         style="stop-color:#ffffff;stop-opacity:1;"
         offset="0"
         id="stop1383" />
      <stop
         style="stop-color:#ffffff;stop-opacity:0.59088677"
         offset="1"
         id="stop1385" />
    </linearGradient>
    <linearGradient
       inkscape:collect="always"
       id="linearGradient963-3">
      <stop
         style="stop-color:#ffffff;stop-opacity:1;"
         offset="0"
         id="stop959" />
      <stop
         style="stop-color:#ffffff;stop-opacity:0.59088677"
         offset="1"
         id="stop961" />
    </linearGradient>
    <linearGradient
       inkscape:collect="always"
       xlink:href="#linearGradient963-3"
       id="linearGradient1381"
       gradientUnits="userSpaceOnUse"
       x1="456.3147"
       y1="83.988525"
       x2="456.3147"
       y2="4.3891902" />
  </defs>
  <sodipodi:namedview
     id="namedview20"
     pagecolor="#a2a2a2"
     bordercolor="#666666"
     borderopacity="1.0"
     inkscape:pageshadow="2"
     inkscape:pageopacity="0"
     inkscape:pagecheckerboard="0"
     showgrid="false"
     fit-margin-top="0"
     fit-margin-left="0"
     fit-margin-right="0"
     fit-margin-bottom="0"
     inkscape:zoom="0.925625"
     inkscape:cx="331.12762"
     inkscape:cy="24.3079"
     inkscape:window-width="1920"
     inkscape:window-height="996"
     inkscape:window-x="0"
     inkscape:window-y="0"
     inkscape:window-maximized="1"
     inkscape:current-layer="svg18" />
  <path
     id="path865"
     style="fill:#000000"
     d="m 683.92969,2.0117187 c 0,29.7076823 0,59.4153653 0,89.1230473 14.33333,0 28.66667,0 43,0 0,-20 0,-40 0,-60 13,0 26,0 39,0 0,0.674479 0,1.348958 0,2.023438 -11.28385,0.235294 -22.56775,0.467968 -33.85156,0.705078 11.75987,17.88522 23.34834,35.87978 35.30406,53.634186 1.00413,1.550546 2.42108,2.92431 4.26188,3.376477 2.82989,0.825198 5.81455,0.782953 8.73026,1.01579 7.4412,0.382124 14.90947,0.42814 22.34748,-0.03902 2.49628,-0.223699 5.31408,-0.578869 7.06289,-2.580179 2.39403,-2.610859 2.42194,-7.19106 -0.33144,-9.564263 -1.4214,-1.235804 -2.43194,-2.844859 -3.65443,-4.260958 -0.25107,-0.310654 -0.74622,-0.940652 -1.09072,-1.373542 -3.78002,-4.775923 -7.42243,-9.574603 -11.11436,-14.415521 5.39599,-2.396795 10.2616,-6.411206 12.92678,-11.752385 1.78673,-3.509994 2.02759,-7.515265 2.29002,-11.372615 0.15298,-4.048445 0.1777,-8.113679 -0.14747,-12.154022 -0.40639,-4.477087 -1.78087,-8.966681 -4.61106,-12.52267 C 802.23049,9.4773763 800.1656,7.2829576 797.9619,5.2603767 794.35006,2.2900221 789.54899,1.5139079 785.02317,1.1757412 776.39239,0.4791855 767.72438,0.5877996 759.0728,0.4720528 734.02535,0.2770666 708.97735,0.1644494 683.92969,0 c 0,0.6705729 0,1.3411458 0,2.0117187 z m -257,0.1230469 c 0,9.6666664 0,19.3333334 0,29.0000004 0.8973,-0.271304 0.46887,0.767633 0.55309,1.29991 -0.1624,16.782516 -0.61618,33.567514 -0.28161,50.350481 0.0603,2.150901 0.7195,4.511622 2.63016,5.742334 2.36285,1.659118 5.3779,1.328202 8.10422,1.536963 10.11565,0.363067 20.2409,0.256178 30.36129,0.250234 20.6577,-0.101149 41.31923,-0.352446 61.96266,-1.151358 3.11637,-0.151528 6.2565,-0.269097 9.33045,-0.813076 2.99271,-0.867294 5.25734,-3.170779 7.37218,-5.338945 3.626,-3.882739 6.43324,-8.681498 7.29457,-13.97581 0.98531,-5.350465 0.8907,-10.84946 0.31115,-16.239953 -0.39471,-3.229807 -1.21584,-6.446501 -2.7573,-9.328749 2.63036,-4.214271 3.27496,-9.308211 3.26953,-14.183593 C 554.95363,23.369995 553.67384,17.334071 550.46225,12.29458 547.31876,7.1488161 542.25946,3.178809 536.44189,1.5349265 533.95634,0.8769514 531.35774,0.8280527 528.80523,0.6448356 518.87992,0.2678271 508.94416,0.2397673 499.01261,0.1660965 474.98505,0.1089085 450.95732,0.1464202 426.92969,0.1347656 c 0,0.6666667 0,1.3333333 0,2 z M 48.382814,0.1992187 C 39.52019,0.2790067 30.648243,0.3519037 21.803186,0.9465375 17.342025,1.4919044 13.155043,3.5803588 9.7128918,6.421875 5.5962601,9.8793703 2.6286727,14.614742 1.047058,19.73296 0.01631155,23.100395 0.14880535,26.656227 0.01072405,30.135152 c -0.055358,7.023353 0.1188218,14.046348 0.1755656,21.06939 0.089049,7.174006 0.1772631,14.348022 0.2668365,21.522021 3.06872935,4.428086 5.87108855,9.222018 10.23011485,12.536125 2.193443,1.729149 4.623222,3.124092 6.875354,4.772469 30.928415,-0.0067 61.856862,0.01382 92.785155,0.105468 4.68903,-3.193494 9.82527,-6.058717 13.251,-10.717974 3.49867,-4.502474 5.08504,-10.268848 5.04312,-15.922749 0.37652,-10.821869 0.13308,-21.653653 -0.14435,-32.474576 -0.1758,-4.387005 -0.31901,-8.826543 -1.37308,-13.107764 -0.9129,-3.492222 -2.8248,-6.708674 -5.50259,-9.1355205 C 118.2179,5.4533563 114.14787,2.6031244 109.49462,1.3961033 105.87818,0.6724225 102.16745,0.7848039 98.500331,0.5980755 83.455941,0.1145663 68.400337,0.1252356 53.349689,0.1659916 c -1.655625,0.011076 -3.31125,0.022151 -4.966875,0.0332271 z m 579.320316,0.083984 c -17.63487,0.1062935 -35.26963,0.2280406 -52.9043,0.3632813 -4.38226,2.6116827 -9.26498,4.7933515 -12.4744,8.922671 -2.28584,2.962488 -4.00551,6.356847 -5.18358,9.900878 -1.30279,4.652559 -1.05334,9.535978 -1.16458,14.316255 -0.0579,9.887827 -0.11429,19.778933 0.12298,29.664517 0.10743,4.228618 0.65451,8.580485 2.73669,12.336305 2.46835,4.774562 6.37044,8.661741 10.75845,11.699639 1.18507,0.866539 2.34714,1.763696 3.51889,2.648017 31.11328,0 62.22657,0 93.33985,0 3.7248,-2.68151 7.66524,-5.184617 10.67257,-8.708743 2.98874,-3.184767 5.46545,-7.134529 5.81682,-11.584316 0.72766,-6.094149 0.56316,-12.245256 0.73486,-18.369495 0.12337,-9.508331 0.44269,-19.042197 -0.3504,-28.530365 C 682.99802,19.668788 681.95349,16.459651 680.125,13.71289 676.84256,8.4716852 671.96334,4.1270762 666.16211,1.8945308 662.26017,0.5643006 658.07744,0.7619938 654.01812,0.5257126 645.25059,0.2202975 636.47456,0.3062654 627.70313,0.2832027 Z M 272.60352,18.142578 c -8.57889,0.101817 -17.18189,-0.137802 -25.73547,0.646626 -3.51949,0.409923 -6.93846,1.738327 -9.71172,3.962203 -3.18766,2.347125 -6.02555,5.268519 -7.8907,8.785703 -1.85283,-4.259467 -5.425,-7.479576 -9.29213,-9.909025 -1.72126,-1.018673 -3.31994,-2.342487 -5.21998,-2.993319 -28.41979,0 -56.83959,0 -85.25938,0 -0.17599,21.12823 -0.60279,42.258197 -0.3132,63.387058 0.03,2.197909 0.3874,4.664512 2.19211,6.148098 1.97284,1.76587 4.72968,1.977203 7.24912,2.094104 7.46257,0.439592 14.93744,-0.01425 22.4049,-0.04126 1.77158,-0.02932 3.54315,-0.05863 5.31473,-0.088 -0.13051,-6.988963 -0.26455,-13.97786 -0.39649,-20.966797 13.87812,-0.180936 27.75965,-0.213776 41.63435,-0.581247 4.24814,-0.165706 8.76729,-0.24694 12.51851,-2.511065 2.72355,-1.599662 5.12207,-3.783091 6.93504,-6.370579 0.0138,4.082404 0.0129,8.174662 0.33542,12.245336 0.54932,4.399289 3.26341,8.132624 6.15682,11.335984 1.89177,2.084162 3.94557,4.022219 5.80854,6.127665 0.95194,0.84625 2.2614,0.772713 3.44258,0.720703 28.50156,0 57.00312,0 85.50468,0 0.0329,-0.466505 -0.29542,-1.460764 0.41568,-0.893166 1.89806,0.924434 4.02253,1.253254 6.11861,1.155122 7.65394,0.135249 15.28378,-0.332653 22.92079,-0.461175 0.79835,-0.05869 1.46828,-0.541789 2.19336,-0.833984 0.0413,-14.366922 -0.10361,-28.735457 0.11631,-43.101159 -0.23554,-0.848423 0.67633,-0.544834 1.1625,-0.612752 10.09916,-0.223737 20.20062,0.02244 30.29931,0.15727 0.21979,14.779891 0.33711,29.560986 0.47461,44.341797 9.32268,0.145878 18.64349,0.718955 27.96875,0.46875 1.697,-0.124736 3.49684,-0.537516 4.826,-1.628056 1.81904,-2.120398 2.06233,-5.030173 2.04956,-7.704521 0.3316,-11.990638 0.0216,-23.988491 -0.37868,-35.97332 -0.156,-3.14444 -0.2441,-6.316812 -0.83281,-9.414806 -1.46367,-5.949127 -5.18498,-11.512101 -10.62942,-14.482824 -3.53101,-1.84636 -7.58971,-2.256063 -11.50445,-2.533501 -11.46812,-0.651459 -22.96128,-0.411798 -34.44191,-0.47612 -32.14532,-0.01009 -64.29063,-0.0059 -96.43594,2.57e-4 z M 64.429689,31.634766 c 7.333333,0 14.666667,0 22,0 0,9.212891 0,18.425781 0,27.638672 -14.780824,0.07127 -29.564414,0.359098 -44.34375,0.0098 -0.07133,-9.216899 0.111625,-18.433009 0.25,-27.648438 7.364583,0 14.729167,0 22.09375,0 z m 555.134771,0.199219 c 7.31836,0.07861 14.63671,0.15758 21.95507,0.236328 0.14189,9.021151 0.25784,18.042633 0.34766,27.064453 -14.64583,0 -29.29167,0 -43.9375,0 0,-9.152995 0,-18.30599 0,-27.458984 7.21159,0.05273 14.42318,0.105468 21.63477,0.158203 z M 325.92383,51.070313 c 0.005,4.201845 0.0117,8.403687 0.0371,12.605469 -0.88997,-0.0077 -1.77995,-0.01562 -2.66992,-0.02344 0.29622,-6.176432 0.59245,-12.352864 0.88867,-18.529297 0.54548,0.06684 1.37087,-0.14794 1.74798,0.08828 -10e-4,1.952995 -0.003,3.90599 -0.004,5.858985 z m 161.00586,7.564453 c 8.16667,0 16.33333,0 24.5,0 0.079,0.697715 0.0774,1.315732 -0.79996,1.066379 -15.52183,0.120988 -31.04514,0.433815 -46.56723,0.201199 -0.6526,-0.01908 -1.3424,-0.04002 -2.00976,-0.07813 0.11844,-0.47298 -0.27004,-1.379614 0.55468,-1.189453 8.10743,0 16.21485,0 24.32227,0 z" />
  <path
     id="path2"
     style="fill:url(#linearGradient1381);fill-opacity:1"
     d="m 689.92969,6.0351562 v 39.5996098 39.5 h 15.5 15.5 v -30 -30 h 25.5 25.5 v 7 6.900391 l -14.5,0.298828 -14.40039,0.300781 14.40039,22 c 7.9,12.1 14.9,22.600781 15.5,23.300781 1.3,1.4 31.50039,1.798828 32.40039,0.298828 0.4,-0.5 0.29883,-1.098828 -0.20117,-1.298828 -0.4,-0.1 -5.39961,-6.400781 -11.09961,-13.800781 l -10.19922,-13.400391 5.09961,-1.699218 c 5.8,-1.9 10.59961,-5.89961 12.59961,-10.59961 0.9,-2 1.40039,-6.900781 1.40039,-12.800781 0,-10.3 -1.00039,-13.600781 -5.90039,-18.800782 -5.9,-6.3999997 -3.79883,-6.1999996 -57.79883,-6.4999996 z M 64.554689,6.1347656 c -20.6,-0.025 -41.175391,0.3 -43.525391,1 -5.7,1.6 -9.999219,5.1996094 -12.6992187,10.5996094 -2.5,5.1 -2.5011719,5.19961 -2.2011719,29.09961 l 0.3007813,24 2.8007812,4.101562 c 1.5000001,2.3 4.4000001,5.29961 6.5000001,6.59961 l 3.699219,2.5 h 44.5 l 44.599611,0.09961 3.90039,-2.599609 c 6,-3.9 9.3,-8.700782 10,-14.800782 0.4,-2.9 0.50078,-14.399218 0.30078,-25.699218 -0.4,-22.6 -0.70117,-24.001172 -7.20117,-29.701173 -2,-1.6999996 -5.19883,-3.599609 -7.29883,-4.099609 -2.45,-0.7 -23.075781,-1.0746094 -43.675781,-1.0996094 z m 368.375001,0 v 9.5000004 9.5 h 43.5 c 48.6,0 45.60039,-0.500391 43.90039,7.099609 l -0.90039,4 -43,0.201172 -43,0.199219 -0.30078,23 c -0.1,12.6 -0.0988,23.4 0.20117,24 0.5,1.5 102.39961,0.400781 105.09961,-1.199219 3.3,-1.9 7.20039,-6.601172 8.90039,-10.701172 2.4,-5.8 2.19961,-19.599609 -0.40039,-24.599609 l -2,-3.900391 2,-3.298828 c 3.1,-5.1 2.80039,-16.500781 -0.59961,-22.800781 -2.8,-5.2 -6.10078,-8.0007817 -11.30078,-9.8007816 -2.4,-0.9000001 -17.59922,-1.1992188 -52.69922,-1.1992188 z m 203.50977,0.1445312 c -5.38438,-0.0125 -11.63555,0.00469 -18.81055,0.054687 l -41.19922,0.3007813 -4.69922,2.6992188 c -3.4,2.0999996 -5.30117,4.0999996 -7.20117,8.0000006 -2.6,5.1 -2.59961,5.400781 -2.59961,28.300781 0,21.9 0.10078,23.3 2.30078,27.5 1.2,2.5 4.1,5.899219 6.5,7.699219 l 4.39844,3.300781 h 44.70117 44.69922 l 4.20117,-3 c 2.2,-1.7 5.09844,-4.800781 6.39844,-6.800781 2.2,-3.5 2.30156,-4.698828 2.60156,-26.298828 0.3,-15.2 -7.8e-4,-24 -0.80078,-27 -1.6,-5.800001 -8.10078,-12.300782 -13.80078,-13.800782 -2.175,-0.6 -10.53633,-0.9175782 -26.68945,-0.9550782 z M 284.42969,24.134766 c -35.5,0 -37.8,0.1 -41.5,2 -2.1,1.1 -5.09922,3.599219 -6.69922,5.699219 -2.8,3.6 -2.80156,3.801172 -3.10156,20.201172 -0.2,9.1 -0.0992,18.00039 0.30078,19.90039 0.4,1.9 2.30039,5.099219 4.90039,7.699219 l 4.29883,4.5 h 39.70117 39.69922 l -0.29883,-7.199219 -0.30078,-7.300781 -32.80078,-0.300781 -32.79883,-0.199219 0.29883,-4.099609 0.30078,-4 30.5,-0.201172 30.5,-0.199219 0.30078,-6.199219 0.29883,-6.300781 -30.79883,-0.199219 -30.80078,-0.300781 v -4 -4 l 32.80078,-0.300781 32.69922,-0.199219 v -7.5 -7.5 z m 47.5,0 v 29.800781 c 0,16.4 0.20039,30.098828 0.40039,30.298828 0.2,0.2 5.2,0.29961 11,0.09961 l 10.59961,-0.298828 V 62.134766 c 0,-21.9 7.8e-4,-22 2.30078,-22.5 1.2,-0.3 10.99922,-0.400781 21.69922,-0.300781 l 19.5,0.300781 0.30078,22.199219 0.19922,22.201172 11.09961,0.298828 c 6.1,0.2 11.3,0.10039 11.5,-0.09961 0.9,-0.9 0.30078,-42.899609 -0.69922,-47.099609 -0.6,-2.5 -2.20117,-5.800391 -3.70117,-7.400391 -5.2,-5.5 -5.89922,-5.599609 -46.69922,-5.599609 z m -196.5,0.5 -0.30078,29 c -0.1,15.9 -0.0988,29.4 0.20117,30 0.2,0.6 5.09961,0.900781 12.59961,0.800781 l 12.30078,-0.201172 -0.20117,-10.5 -0.19922,-10.5 27.40039,-0.298828 c 27.3,-0.3 27.4,-0.300781 31,-2.800781 4.9,-3.4 7.19922,-8.8 7.19922,-17 -0.1,-8 -2.09922,-12.000781 -7.69922,-15.800781 l -4.20117,-2.699219 h -39 z m -99.000001,1 h 28 28 v 19.800781 19.798828 l -27.900391,0.201172 c -18.4,0.1 -27.998828,-0.100781 -28.298828,-0.800781 -0.2,-0.6 -0.201562,-9.6 -0.101562,-20 z m 555.500001,0 27.69922,0.199219 27.80078,0.300781 0.30078,19.5 0.19922,19.5 h -28 -28 V 45.435547 Z m -430.80078,13.5 h 19.40039 19.40039 v 5 5 H 180.5293 c -10.7,0 -19.70039,-0.299219 -19.90039,-0.699219 -0.2,-0.5 -0.19844,-2.7 0.10156,-5 z m 295.30078,13.5 h 30.5 30.5 v 6.5 6.5 l -30.30078,0.300781 c -25,0.2 -30.29883,-0.0012 -30.79883,-1.201172 -0.3,-0.7 -0.40117,-3.799218 -0.20117,-6.699218 z" />
</svg>
