<?xml version="1.0" encoding="UTF-8" standalone="no"?>
<svg
   version="1.1"
   width="429.34604"
   height="267.33942"
   id="svg19"
   viewBox="0 0 429.34603 267.33942"
   sodipodi:docname="frame.svg"
   inkscape:version="1.1.2 (0a00cf5339, 2022-02-04)"
   xmlns:inkscape="http://www.inkscape.org/namespaces/inkscape"
   xmlns:sodipodi="http://sodipodi.sourceforge.net/DTD/sodipodi-0.dtd"
   xmlns:xlink="http://www.w3.org/1999/xlink"
   xmlns="http://www.w3.org/2000/svg"
   xmlns:svg="http://www.w3.org/2000/svg"
   xmlns:rdf="http://www.w3.org/1999/02/22-rdf-syntax-ns#"
   xmlns:cc="http://creativecommons.org/ns#"
   xmlns:dc="http://purl.org/dc/elements/1.1/">
  <metadata
     id="metadata25">
    <rdf:RDF>
      <cc:Work
         rdf:about="">
        <dc:format>image/svg+xml</dc:format>
        <dc:type
           rdf:resource="http://purl.org/dc/dcmitype/StillImage" />
        <dc:title />
      </cc:Work>
    </rdf:RDF>
  </metadata>
  <defs
     id="defs23">
    <linearGradient
       inkscape:collect="always"
       id="linearGradient3927">
      <stop
         style="stop-color:#ff0000;stop-opacity:1;"
         offset="0"
         id="stop3923" />
      <stop
         style="stop-color:#ff0000;stop-opacity:0;"
         offset="1"
         id="stop3925" />
    </linearGradient>
    <radialGradient
       inkscape:collect="always"
       xlink:href="#linearGradient3927"
       id="radialGradient3929"
       cx="176.9639"
       cy="136.08429"
       fx="176.9639"
       fy="136.08429"
       r="150.80421"
       gradientTransform="matrix(1,0,0,0.74679902,0,34.456677)"
       gradientUnits="userSpaceOnUse" />
  </defs>
  <sodipodi:namedview
     pagecolor="#ffffff"
     bordercolor="#666666"
     borderopacity="1"
     objecttolerance="10"
     gridtolerance="10"
     guidetolerance="10"
     inkscape:pageopacity="0"
     inkscape:pageshadow="2"
     inkscape:window-width="1920"
     inkscape:window-height="995"
     id="namedview21"
     showgrid="false"
     fit-margin-top="0"
     fit-margin-left="0"
     fit-margin-right="0"
     fit-margin-bottom="0"
     inkscape:zoom="2.2425738"
     inkscape:cx="180.81903"
     inkscape:cy="121.73513"
     inkscape:window-x="0"
     inkscape:window-y="0"
     inkscape:window-maximized="1"
     inkscape:current-layer="svg19"
     inkscape:pagecheckerboard="0" />
  <path
     id="path26"
     style="fill:none;stroke:#1a1a1a;stroke-width:0.903984px;stroke-linecap:butt;stroke-linejoin:miter;stroke-opacity:0.239819"
     d="m 104.40252,28.497297 h 140.6411 M 75.016924,30.471377 H 275.96952 M 53.657534,32.445447 H 128.6106 m 0,0 h 91.7128 m 0,0 h 78.54392 m -261.049576,1.97407 h 53.44873 m 0,0 H 259.21362 m 0,0 h 56.5255 m -280.055006,1.97408 h 30.65726 m 0,0 H 285.68092 m 0,0 h 32.1822 m -283.011956,1.97407 h 10.78985 m 0,0 H 307.91392 m 0,0 h 10.7724 m -284.173366,1.97408 h 7.43676 m 0,0 H 311.61492 m 0,0 h 7.4077 m -284.757046,1.97407 h 6.63277 m 0,0 H 312.65852 m 0,0 h 6.6115 m -285.253756,1.97407 h 6.46463 m 0,0 H 313.07402 m 0,0 h 6.4415 m -285.746616,1.97408 h 6.46269 m 0,0 H 313.32142 m 0,0 h 6.4414 m -286.241316,1.97407 h 6.46078 m 0,0 H 313.56882 m 0,0 h 6.4414 m -286.736086,1.97408 h 6.46078 m 0,0 H 313.81422 m 0,0 h 6.4415 m -287.230886,1.97407 h 6.46077 m 0,0 H 314.06162 m 0,0 h 6.4414 m -287.725576,1.97407 h 6.46078 m 0,0 H 314.30902 m 0,0 h 6.4395 m -288.218436,1.97408 h 6.45884 m 0,0 H 314.55632 m 0,0 h 6.4396 m -288.713226,1.97407 h 6.4569 m 0,0 H 314.80372 m 0,0 h 6.4376 m -289.207936,1.97408 h 6.45884 m 0,0 H 315.05112 m 0,0 h 6.4376 m -289.702706,1.97407 h 6.45691 m 0,0 H 315.29852 m 0,0 h 6.4356 m -290.160706,1.97407 h 6.4202 m 0,0 H 315.54582 m 0,0 h 6.4048 m -290.541476,1.97408 h 6.33707 m 0,0 H 315.79322 m 0,0 h 6.3294 m -290.879676,1.97407 h 6.31582 m 0,0 H 315.98452 m 0,0 h 6.312 m -291.217856,1.97408 h 6.31582 m 0,0 H 316.15652 m 0,0 h 6.312 m -291.554136,1.97407 h 6.3139 m 0,0 H 316.33052 m 0,0 h 6.31 m -291.892326,1.97407 h 6.31582 m 0,0 H 316.50442 m 0,0 h 6.31 m -292.230506,1.97408 h 6.31388 m 0,0 H 316.67642 m 0,0 h 6.31 m -292.568706,1.97407 h 6.31583 m 0,0 H 316.85042 m 0,0 h 6.31 m -292.906986,1.97408 h 6.31389 m 0,0 H 317.02432 m 0,0 h 6.3081 m -293.243256,1.97407 h 6.31196 m 0,0 H 317.19632 m 0,0 h 6.3081 m -293.581456,1.97407 h 6.31388 m 0,0 H 317.37022 m 0,0 h 6.3081 m -293.919636,1.97408 h 6.31195 m 0,0 H 317.54422 m 0,0 h 6.3061 m -294.248176,1.97407 h 6.30424 m 0,0 H 317.71622 m 0,0 h 6.3004 m -294.503386,1.97407 6.22692,1e-5 m 0,0 282.149966,-1e-5 m 0,0 h 6.2269 m -294.692676,1.97408 h 6.22499 m 0,0 H 317.99252 m 0,0 h 6.225 m -294.880156,1.97407 h 6.22499 m 0,0 H 318.09302 m 0,0 h 6.225 m -295.069546,1.97408 6.225,-1e-5 m 0,0 282.722046,1e-5 m 0,0 h 6.223 m -295.257026,1.97407 h 6.22306 m 0,0 H 318.29592 m 0,0 h 6.2231 m -295.446406,1.97407 h 6.22305 m 0,0 H 318.39652 m 0,0 h 6.225 m -295.637806,1.974073 6.22306,10e-6 m 0,0 H 318.49892 m 0,0 h 6.2231 m -295.825286,1.97407 6.22308,-1e-5 m 0,0 283.479606,1e-5 m 0,0 h 6.2231 m -296.014696,1.97408 h 6.22306 m 0,0 H 318.69992 m 0,0 h 6.223 m -296.202046,1.97406 6.22111,1e-5 m 0,0 H 318.80232 m 0,0 h 6.2211 m -296.391466,1.97407 h 6.22114 m 0,0 H 318.90282 m 0,0 h 6.2211 M 28.543064,111.4084 h 6.22306 m 0,0 H 319.00332 m 0,0 h 6.2211 m -296.714206,1.97407 h 6.18055 m 0,0 284.399556,1e-5 m 0,0 h 6.1805 m -296.777996,1.97405 h 6.18054 m 0,0 284.447856,10e-6 m 0,0 h 6.1806 m -296.826396,1.97408 6.18055,-1e-5 m 0,0 284.496146,1e-5 m 0,0 h 6.1806 m -296.872766,1.97407 h 6.1786 m 0,0 H 319.18302 m 0,0 h 6.1786 m -296.919056,1.97408 h 6.18054 m 0,0 H 319.21202 m 0,0 h 6.1806 m -296.967456,1.97407 h 6.18054 m 0,0 H 319.24292 m 0,0 h 6.1806 m -297.015746,1.97408 h 6.18053 m 0,0 H 319.27392 m 0,0 h 6.1805 m -297.064026,1.97407 h 6.18053 m 0,0 H 319.30482 m 0,0 h 6.1786 m -297.110416,1.97407 6.18054,-1e-5 m 0,0 284.782176,1e-5 m 0,0 h 6.1786 m -297.156796,1.97408 h 6.17861 m 0,0 H 319.36472 m 0,0 h 6.1805 m -297.205086,1.97407 h 6.1786 m 0,0 H 319.39562 m 0,0 h 6.1806 m -297.253486,1.97408 h 6.17861 m 0,0 H 319.42652 m 0,0 h 6.1786 m -297.270766,1.97407 h 6.17668 m 0,0 H 319.42852 m 0,0 h 6.1767 m -297.222566,1.97408 h 6.17667 m 0,0 H 319.38982 m 0,0 h 6.1767 m -297.137476,1.97407 h 6.17861 m 0,0 H 319.35122 m 0,0 h 6.1767 m -297.050576,1.97407 h 6.17861 m 0,0 H 319.31252 m 0,0 h 6.1786 m -296.967376,1.97407 h 6.17861 m 0,0 H 319.27392 m 0,0 h 6.1786 m -296.880466,1.97408 h 6.1786 m 0,0 H 319.23522 m 0,0 h 6.1786 M 28.618424,148.9158 h 6.18055 m 0,0 H 319.19662 m 0,0 h 6.1786 m -296.708476,1.97408 h 6.17861 m 0,0 H 319.15792 m 0,0 h 6.1786 m -296.621456,1.97407 h 6.17862 m 0,0 H 319.11932 m 0,0 h 6.1786 m -296.536476,1.97408 h 6.18054 m 0,0 H 319.08062 m 0,0 h 6.1786 M 28.809774,156.8121 h 6.18053 m 0,0 H 319.04202 m 0,0 h 6.1786 m -296.364476,1.97407 h 6.18055 m 0,0 H 319.00332 m 0,0 h 6.1805 m -296.271626,1.97408 h 6.21147 m 0,0 H 318.92212 m 0,0 h 6.2134 m -296.117036,1.97407 h 6.21147 m 0,0 H 318.81582 m 0,0 h 6.2154 M 29.124784,164.7084 h 6.21146 m 0,0 H 318.70962 m 0,0 h 6.2153 m -295.693836,1.97407 h 6.21145 m 0,0 H 318.60332 m 0,0 h 6.2153 m -295.481256,1.97408 6.21146,1e-5 m 0,0 282.950096,-1e-5 m 0,0 h 6.2153 m -295.270546,1.97407 6.21147,-1e-5 m 0,0 282.737476,1e-5 m 0,0 h 6.2153 m -295.057956,1.97407 h 6.21147 m 0,0 H 318.28632 m 0,0 h 6.2153 m -294.845366,1.97407 h 6.21147 m 0,0 H 318.18002 m 0,0 h 6.2173 m -294.634776,1.97408 6.21145,1e-5 m 0,0 282.101626,-1e-5 m 0,0 h 6.2154 m -294.422166,1.97407 h 6.21339 m 0,0 H 317.96932 m 0,0 h 6.2154 m -294.209576,1.97408 h 6.21339 m 0,0 H 317.86312 m 0,0 h 6.2172 m -293.998886,1.97407 6.21339,10e-6 m 0,0 281.461996,-10e-6 m 0,0 h 6.2172 m -293.786276,1.97408 6.25978,-1e-5 m 0,0 281.146896,1e-5 m 0,0 h 6.2733 m -293.533116,1.97407 h 6.27138 m 0,0 H 317.42242 m 0,0 h 6.2888 m -293.218146,1.97407 h 6.27331 m 0,0 H 317.25042 m 0,0 h 6.2888 m -292.885726,1.97408 h 6.27138 m 0,0 H 317.07842 m 0,0 h 6.2907 m -292.557156,1.97407 h 6.2733 m 0,0 H 316.90642 m 0,0 h 6.2907 m -292.226686,1.97408 6.2733,1e-5 m 0,0 279.490686,-1e-5 m 0,0 6.2926,1e-5 m -291.898086,1.97406 6.27524,-1e-5 m 0,0 279.158246,1e-5 m 0,0 6.2927,-1e-5 m -291.567716,1.97409 h 6.27523 m 0,0 H 316.39232 m 0,0 h 6.2926 m -291.239046,1.97407 h 6.27717 m 0,0 H 316.22032 m 0,0 6.2927,-1e-5 m -290.906736,1.97408 6.27525,-1e-5 m 0,0 278.166786,1e-5 m 0,0 h 6.2946 m -290.578166,1.97407 h 6.27718 m 0,0 H 315.87632 m 0,0 h 6.2946 m -290.247686,1.97408 6.28297,-1e-5 m 0,0 277.492316,1e-5 m 0,0 h 6.3023 m -289.919116,1.97407 6.32936,-1e-5 m 0,0 277.051656,1e-5 m 0,0 h 6.3661 M 32.263374,210.1121 h 6.35448 m 0,0 H 315.22702 m 0,0 h 6.4008 m -289.159596,1.97407 h 6.35448 m 0,0 H 314.99122 m 0,0 6.4028,-1e-5 m -288.720936,1.97409 h 6.35641 m 0,0 H 314.75542 m 0,0 h 6.4028 m -288.280266,1.97407 h 6.3564 m 0,0 H 314.51962 m 0,0 6.4028,-1e-5 m -287.837676,1.97408 h 6.3564 m 0,0 H 314.28382 m 0,0 h 6.4028 m -287.397026,1.97407 h 6.35834 m 0,0 H 314.04812 m 0,0 h 6.4047 m -286.958376,1.97408 h 6.35835 m 0,0 H 313.81232 m 0,0 6.4047,-1e-5 m -286.515786,1.97409 h 6.35836 m 0,0 H 313.57652 m 0,0 h 6.4047 m -286.075106,1.97407 h 6.35834 m 0,0 H 313.34072 m 0,0 h 6.4067 m -285.636456,1.97408 h 6.36027 m 0,0 H 313.10492 m 0,0 h 6.4067 m -285.195806,1.97407 h 6.47624 m 0,0 H 312.75512 m 0,0 h 6.5207 m -284.753216,1.97407 7.1797,1e-5 m 0,0 270.121316,-1e-5 m 0,0 h 7.2184 m -284.262376,1.97408 9.76944,-1e-5 m 0,0 H 308.98072 m 0,0 9.7752,-1e-5 m -283.261206,1.97409 h 24.7473 m 0,0 H 294.13812 m 0,0 h 23.8757 m -280.497566,1.97407 h 40.13485 m 0,0 H 277.71662 m 0,0 h 38.2776 m -266.509206,1.97408 h 51.608846 m 0,0 h 154.11536 m 0,0 h 49.3767 m -237.747856,1.97407 h 66.493956 m 0,0 h 90.62087 m 0,0 h 64.26173 M 87.590604,243.67136 H 268.27572"
     inkscape:connector-curvature="0" />
  <path
     id="path4-6"
     style="fill:#ffffff;stroke:none;stroke-width:1.11788;stroke-linecap:butt;stroke-linejoin:miter;stroke-miterlimit:4;stroke-dasharray:none;fill-opacity:1"
     d="m 173.78495,18.21619 c -48.60629,0 -96.219271,2.54406 -142.839851,7.63281 -3.09808,0.3381 -5.22734,2.48848 -5.66601,5.45898 -10.21395,69.1439 -7.94454,138.28724 0,207.43164 0.34265,2.9832 2.57545,5.05829 5.66601,5.45899 101.821811,13.2075 198.893621,12.8014 291.638681,0 3.08725,-0.4261 5.26397,-2.48329 5.66601,-5.45899 9.34303,-69.1446 9.94576,-138.28754 0,-207.43164 -0.42723,-2.9723 -2.5651,-5.14718 -5.66601,-5.45898 -50.59213,-5.08875 -100.19255,-7.63281 -148.79883,-7.63281 z m 0.16601,5.80664 c 46.06874,0 93.07837,2.41782 141.0293,7.25586 2.93899,0.2965 4.96605,2.36361 5.37109,5.18945 9.4265,65.73782 8.85521,131.4765 0,197.21484 -0.38106,2.82908 -2.44508,4.78443 -5.37109,5.18945 -87.90322,12.17076 -179.90404,12.55697 -276.410161,0 -2.92917,-0.38095 -5.0483,-2.35325 -5.37304,-5.18945 -7.52976,-65.73813 -9.68078,-131.47723 0,-197.21484 0.41572,-2.82417 2.43676,-4.86793 5.37304,-5.18945 44.186673,-4.83804 89.312121,-7.25586 135.380861,-7.25586 z" />
  <path
     inkscape:connector-curvature="0"
     id="path2-3"
     d="m 173.95086,24.0228 c -46.06874,0 -91.194978,2.41782 -135.381654,7.25586 -2.93627,0.32153 -4.95581,2.36528 -5.37153,5.18945 -9.68077,65.73761 -7.52976,131.47671 0,197.21483 0.32475,2.8362 2.44237,4.8085 5.37153,5.18946 96.506114,12.55696 188.507954,12.17076 276.411124,0 2.9261,-0.40503 4.9905,-2.36038 5.3716,-5.18946 8.8552,-65.73833 9.4265,-131.47701 0,-197.21483 -0.4051,-2.82584 -2.4326,-4.89295 -5.3716,-5.18945 -47.9509,-4.83804 -94.96072,-7.25586 -141.02947,-7.25586 z m 0.12542,4.99023 c 44.15394,0 89.21015,2.311 135.16805,6.9336 2.8169,0.2833 4.7599,2.25703 5.1481,4.95703 9.0347,62.8105 8.4872,125.62259 0,188.43358 -0.3652,2.7031 -2.3437,4.57003 -5.1481,4.95703 -84.24957,11.6288 -172.4285,11.9978 -264.923414,0 -2.80742,-0.364 -4.83491,-2.24713 -5.14616,-4.95703 -7.2168,-62.81079 -9.27841,-125.62328 0,-188.43358 0.39844,-2.6984 2.33192,-4.64983 5.14616,-4.95703 42.350086,-4.6226 85.601414,-6.9336 129.755364,-6.9336 z"
     style="fill:#808080;stroke:url(#radialGradient3929);stroke-width:1.11788;stroke-linecap:butt;stroke-linejoin:miter;stroke-miterlimit:4;stroke-dasharray:none;fill-opacity:1;opacity:1" />
  <path
     inkscape:connector-curvature="0"
     id="path6"
     style="fill:none;stroke:#ffffff;stroke-width:1.10951;stroke-linecap:butt;stroke-linejoin:miter;stroke-miterlimit:4;stroke-dasharray:none"
     d="M 0.55475283,7.2104152 V 260.12889 q 0,6.65576 6.57820337,6.65576 H 422.21308 q 6.5782,0 6.5782,-6.65576 V 7.2104152 q 0,-6.65566237 -6.5782,-6.65566237 H 7.1329562 q -6.57820337,0 -6.57820337,6.65566237 z" />
  <path
     inkscape:connector-curvature="0"
     id="path8"
     style="fill:none;stroke:#ffffff;stroke-width:1.116;stroke-linecap:butt;stroke-linejoin:miter;stroke-miterlimit:4;stroke-dasharray:none"
     d="m 348.69232,28.627 v 210.0856 q 0,3.4346 3.3454,3.4346 h 60.2173 q 3.3454,0 3.3454,-3.4346 V 28.627 q 0,-3.4346 -3.3454,-3.4346 h -60.2173 q -3.3454,0 -3.3454,3.4346 z" />
  <g
     transform="translate(-76.555279,-208.4005)"
     style="stroke-width:1.116;stroke-miterlimit:4;stroke-dasharray:none;stroke:#ffffff"
     id="Layer1000">
    <path
       inkscape:connector-curvature="0"
       id="path10"
       style="fill:none;stroke:#ffffff;stroke-width:1.116;stroke-linecap:butt;stroke-linejoin:miter;stroke-miterlimit:4;stroke-dasharray:none"
       d="m 458.7016,251.135 a 17.5552,17.5552 0 0 1 17.5552,17.5552 17.5552,17.5552 0 1 1 -17.5552,-17.5552 z" />
    <path
       inkscape:connector-curvature="0"
       id="path12"
       style="fill:none;stroke:#ffffff;stroke-width:1.116;stroke-linecap:butt;stroke-linejoin:miter;stroke-miterlimit:4;stroke-dasharray:none"
       d="m 452.3916,268.6901 v -3e-4 q 0,4.3061 4.3061,4.3061 h 13.9113 q 4.3061,0 4.3061,-4.3061 v 3e-4 q 0,-4.3061 -4.3061,-4.3061 h -13.9113 q -4.3061,0 -4.3061,4.3061 z" />
    <path
       inkscape:connector-curvature="0"
       id="path14"
       style="fill:none;stroke:#ffffff;stroke-width:1.116;stroke-linecap:butt;stroke-linejoin:miter;stroke-miterlimit:4;stroke-dasharray:none"
       d="m 458.7018,257.0973 c 4.8648,0 9.0453,3.0228 10.7606,7.2867 h -12.7647 c -2.3686,0 -4.3061,1.9375 -4.3061,4.3061 v -3e-4 c 0,2.3687 1.9375,4.3061 4.3061,4.3061 h 12.7644 c -1.7155,4.2636 -5.8955,7.2873 -10.7603,7.2873 -6.3853,0 -11.5931,-5.2078 -11.5931,-11.5928 0,-6.3853 5.2078,-11.5931 11.5931,-11.5931 z" />
  </g>
  <path
     inkscape:connector-curvature="0"
     id="path17"
     style="fill:none;stroke:#ffffff;stroke-width:1.116;stroke-linecap:butt;stroke-linejoin:miter;stroke-miterlimit:4;stroke-dasharray:none"
     d="m 355.19472,90.9689 v 140.9249 q 0,2.3039 2.6952,2.3039 h 48.5129 q 2.6952,0 2.6952,-2.3039 V 90.9689 q 0,-2.3039 -2.6952,-2.3039 h -48.5129 q -2.6952,0 -2.6952,2.3039 z" />
</svg>
