<?xml version="1.0" encoding="UTF-8" standalone="no"?>
<svg
   version="1.1"
   width="416.49753"
   height="164.25333"
   id="svg53"
   viewBox="0 0 416.49753 164.25333"
   sodipodi:docname="Quasar Final.svg"
   inkscape:version="1.1.2 (0a00cf5339, 2022-02-04)"
   xmlns:inkscape="http://www.inkscape.org/namespaces/inkscape"
   xmlns:sodipodi="http://sodipodi.sourceforge.net/DTD/sodipodi-0.dtd"
   xmlns="http://www.w3.org/2000/svg"
   xmlns:svg="http://www.w3.org/2000/svg">
  <defs
     id="defs57" />
  <sodipodi:namedview
     id="namedview55"
     pagecolor="#ffffff"
     bordercolor="#666666"
     borderopacity="1.0"
     inkscape:pageshadow="2"
     inkscape:pageopacity="0.0"
     inkscape:pagecheckerboard="0"
     showgrid="false"
     fit-margin-top="0"
     fit-margin-left="0"
     fit-margin-right="0"
     fit-margin-bottom="0"
     inkscape:zoom="0.69127647"
     inkscape:cx="180.1016"
     inkscape:cy="156.23271"
     inkscape:window-width="1920"
     inkscape:window-height="995"
     inkscape:window-x="1920"
     inkscape:window-y="0"
     inkscape:window-maximized="1"
     inkscape:current-layer="svg53" />
  <g
     id="g1177"
     transform="translate(-173.63855,-215.57988)"
     style="fill:#ffffff;stroke:none">
    <g
       id="Layer1002"
       style="fill:#ffffff;stroke:none">
      <path
         d="m 239.7093,272.5951 c 0.3699,-0.3637 0.7375,-0.7265 1.0984,-1.0896 3.8061,-3.7347 8.9059,-6.4066 12.856,-7.5784 2.315,-0.6855 4.183,-0.8286 6.0624,-0.7481 0.8844,0.1491 1.7722,0.301 2.6481,0.4601 1.1203,0.4243 1.2547,0.5023 2.2482,1.0338 0.049,0.0464 0.0368,0.0348 0.1012,0.06 0.4382,0.3212 0.8782,0.6438 1.3328,0.9845 0.58,0.4227 1.1878,1.2439 1.567,1.8726 0.1168,0.2131 0.186,0.3625 0.3033,0.5763 0.1199,0.1973 0.2384,0.3376 0.3226,0.5731 1.1892,2.8333 1.6158,6.1243 1.0072,10.2357 -0.4315,2.857 -1.3505,6.4817 -2.9106,9.7747 -0.0939,0.1956 -0.1701,0.4671 -0.1979,0.538 -0.0499,0.1043 -0.0836,0.2083 -0.1644,0.4167 -0.6185,1.4306 -1.3708,2.825 -2.0832,4.2432 -1.1764,2.2643 -2.5948,4.5229 -4.1281,6.7399 -0.3668,0.5434 -0.7509,1.0865 -1.116,1.6121 -0.1261,0.1652 -0.0198,0.0198 -0.146,0.1851 -1.9975,2.4675 -3.9654,4.949 -5.9706,7.4511 -1.7464,2.0047 -3.6156,3.75 -5.4462,5.6682 -0.6432,0.5941 -1.2878,1.1874 -1.9122,1.7628 -0.3765,0.3181 -0.6055,0.4751 -0.9352,0.8037 -0.3302,0.3095 -0.6143,0.5839 -0.9751,0.8818 -1.3864,1.2818 -4.661,3.784 -6.0049,4.7795 -0.7365,0.5562 -1.2745,0.9655 -2.0169,1.4604 -0.3912,0.2651 -0.6826,0.44 -1.057,0.7022 -3.2034,2.2617 -6.4746,3.935 -9.6698,5.5661 -2.816,1.4536 -6.158,2.8185 -8.8504,3.5419 -0.3447,0.0983 -0.7302,0.2171 -1.1154,0.3339 -0.8306,0.2123 -1.6441,0.4229 -2.452,0.6179 -1.3895,0.2472 -3.2295,0.6463 -4.5847,0.7739 -2.2162,0.216 -5.22,0.43 -7.0382,0.0751 -0.7965,-0.1247 -1.5854,-0.2772 -2.3907,-0.4269 -0.1273,-0.0113 -0.1162,0.0142 -0.1911,-0.0178 -0.1502,-0.0372 0.0125,-0.029 -0.2191,-0.0678 -1.3048,-0.4388 -2.6042,-0.8722 -3.884,-1.2716 0,0.002 -0.057,-0.019 -0.0683,-0.0318 -0.0854,-0.0425 -0.171,-0.0708 -0.2676,-0.1117 -0.1647,-0.0867 -0.2376,-0.1434 -0.3909,-0.2171 -0.0743,-0.0173 -0.0964,-0.0391 -0.1534,-0.0578 -0.6151,-0.347 -1.2109,-0.6778 -1.8048,-1.0213 -0.0845,-0.0278 -0.0782,-0.042 -0.1565,-0.0978 -0.1669,-0.0958 -0.3509,-0.2038 -0.5113,-0.3257 -0.1338,-0.0737 -0.0715,-0.0695 -0.1534,-0.1358 -0.0779,-0.057 -0.1383,-0.1001 -0.1987,-0.1571 -0.0173,0.002 -0.0453,-0.007 -0.0561,-0.0195 -0.4006,-0.3254 -0.8,-0.6336 -1.2087,-0.968 -0.7554,-0.6421 -1.4482,-1.3794 -2.0716,-2.1453 -0.9473,-1.497 -1.906,-2.933 -2.8221,-4.3277 -0.0281,-0.0841 -0.0318,-0.1074 -0.0828,-0.1624 -0.0448,-0.0802 -0.0893,-0.1465 -0.1171,-0.2131 -0.0343,-0.0703 -0.0102,-0.0117 -0.0482,-0.1052 -0.0655,-0.1619 -0.1474,-0.3215 -0.2293,-0.4674 -0.1026,-0.256 -0.1911,-0.4635 -0.284,-0.6917 -0.0284,-0.0694 -0.0564,-0.1392 -0.0845,-0.2066 -0.0383,-0.093 -0.0139,-0.0485 -0.0318,-0.1046 -0.0419,-0.1027 -0.1006,-0.2033 -0.159,-0.3036 -0.015,-0.108 -0.0178,-0.0715 -0.0493,-0.1622 -0.0278,-0.0674 -0.0581,-0.0983 -0.0859,-0.1675 -0.159,-0.4482 -0.3336,-0.8813 -0.4901,-1.313 -0.007,-0.0479 -0.021,-0.1548 -0.0411,-0.1758 -0.0638,-0.1445 -0.121,-0.3157 -0.1783,-0.4733 -0.0499,-0.1253 -0.0799,-0.2166 -0.1003,-0.3549 -0.148,-0.4564 -0.2827,-0.8862 -0.4261,-1.3258 -6e-4,-0.0584 -0.008,-0.1191 -0.0309,-0.1488 -0.0102,-0.0247 -0.004,-0.036 -0.007,-0.0584 -0.2775,-0.6146 -0.3722,-1.3904 -0.5754,-2.0597 -0.0261,-0.009 -0.0227,-0.0422 -0.0323,-0.0535 -0.0357,-0.1333 -0.0652,-0.2798 -0.1126,-0.4247 0.006,-0.0133 -0.0303,-0.089 -0.0303,-0.089 -0.0176,-0.1 -0.051,-0.2112 -0.0847,-0.3223 -0.2657,-0.9119 -0.4709,-1.9185 -0.7997,-2.7587 -0.0295,-0.085 -0.0527,-0.1831 -0.0921,-0.2661 -0.01,-0.0108 -0.003,-0.0216 0.003,-0.0349 -0.0133,-0.0326 -0.0199,-0.0782 -0.0267,-0.1219 -0.0297,-0.1329 -0.0558,-0.1959 -0.0756,-0.3155 -0.0655,-0.3192 -0.1302,-0.6378 -0.188,-0.9686 -0.108,-1.6591 0.3589,-2.8701 1.6504,-5.4932 0.2471,-0.5191 0.3316,-0.8028 0.6171,-1.3502 0.2823,-0.5836 0.367,-0.8671 0.6309,-1.4116 0.362,-0.7393 1.4814,-3.4594 2.134,-4.0272 0.2041,-0.1826 0.2868,-0.2325 0.4413,-0.231 0.4485,-0.0108 0.4913,0.7905 0.5375,1.2472 0.102,1.0723 0.1479,5.6356 0.1108,6.7456 0.0607,1.4162 0.125,2.8576 0.1984,4.309 0.006,0.14 0.0173,0.2687 0.0289,0.3971 -0.005,0.0711 0.002,0.1176 0.0131,0.1888 0.3265,1.8995 0.6607,3.8333 1.0312,5.8365 -0.0124,0.0252 0.002,0.0595 0.0119,0.0709 0.6815,1.7507 1.4216,3.5319 2.1555,5.3767 -0.006,0.0139 0.0207,0.0238 0.0207,0.0238 1.0601,1.3936 2.1274,2.7803 3.2635,4.2361 0.017,-0.002 0.0278,0.008 0.0386,0.0207 1.1352,0.8158 2.315,1.6529 3.5033,2.5005 0.4462,0.3109 1.0165,0.4821 1.5412,0.7171 0.7804,0.3736 2.6099,1.0316 3.4141,1.126 0.0918,0.0133 0.1726,0.0172 0.2644,0.0323 0.0746,0.0167 0.1494,0.0334 0.2067,0.0521 1.561,0.3266 3.4115,0.4839 5.1854,0.4456 1.2016,-0.03 2.3578,-0.053 3.6805,-0.3092 0.2959,-0.0522 0.5579,-0.0579 0.6449,-0.0703 1.2838,-0.1633 1.9564,-0.3371 3.1495,-0.6486 0.991,-0.2282 1.9866,-0.4867 3.017,-0.7475 3.85,-1.1707 8.1887,-3.1836 12.2031,-5.3901 1.9046,-1.0709 3.7931,-2.3111 5.7215,-3.6258 1.5687,-1.0434 3.1113,-2.2269 4.644,-3.4764 2.1166,-1.7112 4.1666,-3.4718 6.1752,-5.4088 0.8283,-0.7965 1.7105,-1.5579 2.4656,-2.4253 2.1439,-2.4573 3.8256,-4.1615 5.8734,-6.7541 1.2949,-1.7824 2.5838,-3.5881 3.8599,-5.3674 0.0822,-0.1091 0.0397,-0.0397 0.1284,-0.1817 0.2693,-0.4459 0.5548,-0.8756 0.8269,-1.3385 0.1176,-0.2118 0.0261,-0.053 0.157,-0.2517 0.4085,-0.6934 0.8161,-1.3873 1.2068,-2.0787 1.2089,-2.1773 2.2972,-4.2596 3.1972,-6.5134 0.3075,-0.7781 0.5839,-1.4658 0.752,-2.0551 1.048,-3.3625 1.5239,-4.7421 1.7098,-8.1162 0.0916,-1.6104 -0.0439,-3.0779 -0.3571,-4.4175 -0.2447,-0.6928 -0.4567,-1.3847 -0.6979,-2.0727 -0.0746,-0.2066 -0.1797,-0.3926 -0.2971,-0.6063 -0.8524,-0.9513 -1.6974,-1.8905 -2.5495,-2.8216 -0.0153,0.005 -0.0243,-0.007 -0.0396,-0.002 -0.3878,-0.2313 -0.7748,-0.464 -1.1611,-0.6749 -0.1157,-0.0562 -0.0122,-0.0117 -0.1551,-0.0587 -0.9136,-0.3538 -1.9221,-0.6273 -3.056,-0.6968 -0.5224,6e-4 -1.0587,0.006 -1.5948,-0.003 -3.861,0.0289 -9.9813,2.9594 -13.8937,7.1096 -0.7892,-0.292 -1.5837,-0.5757 -2.3737,-0.868 z"
         style="fill:#ffffff;fill-rule:evenodd;stroke:none"
         id="path4" />
      <path
         d="m 234.2574,270.1378 c 0.7503,-0.8686 1.5381,-1.7317 2.1546,-2.3491 0.1108,-0.1157 0.2254,-0.2316 0.3104,-0.3433 0.4904,-0.4918 -0.3694,0.4054 0.1069,-0.0859 1.5383,-1.595 2.4284,-2.4443 4.6672,-4.32 0.2245,-0.2001 0.4496,-0.3435 0.6883,-0.5482 0.4668,-0.364 0.9184,-0.7087 1.3878,-1.0842 1.453,-1.0608 2.1691,-1.6028 3.6935,-2.6306 2.2148,-1.4916 4.3762,-2.6345 6.647,-3.7664 1.2756,-0.6347 4.1026,-1.8306 5.4692,-2.2649 1.7078,-0.5357 3.2062,-1.0264 4.7704,-1.3189 0.4785,-0.0811 0.9601,-0.1619 1.4275,-0.2534 1.4726,-0.2084 1.7518,-0.2611 3.2814,-0.3912 0.7784,-0.0139 1.5438,-0.0428 2.34,-0.0581 0.2154,0.001 0.4289,0.002 0.652,0.0311 0.267,0.0182 0.3716,0.0244 0.6534,0.0375 0.9053,-0.003 1.6435,0.1715 2.4307,0.3208 0.3946,0.0834 0.8044,0.1469 1.2319,0.2112 0.9301,0.2489 1.9726,0.5023 2.7607,0.9029 0.3483,0.1357 0.6996,0.2942 1.036,0.4348 0.2186,0.104 0.2435,0.2061 0.4499,0.3161 0.6375,0.371 1.3541,0.7171 1.9463,1.1548 0.3035,0.2285 0.5629,0.4683 0.8827,0.6752 1.2764,0.8663 2.2348,2.1574 3.1878,3.3656 1.3975,1.9182 2.5552,4.7781 3.2023,7.3445 0.6066,2.5784 1.2237,7.4889 0.8002,10.7198 -0.0813,0.5936 -0.178,1.7544 -0.1876,2.2643 0.0144,1.2714 -0.9845,6.2476 -1.3607,7.5127 -0.248,0.9703 -0.4989,1.9579 -0.7815,2.9316 -0.5964,2.2445 -1.1375,3.7919 -1.9635,6.0168 -0.3929,1.0582 -0.7849,2.0979 -1.2113,3.1578 -0.7276,1.8051 -1.7073,4.11 -2.7139,6.0004 -0.2854,0.606 -0.6052,1.2322 -0.9232,1.8232 -0.0675,0.1636 -0.1953,0.4031 -0.2605,0.5315 -1.0244,1.9505 -2.0727,3.8974 -3.1099,5.8388 -0.2398,0.457 -0.4122,0.6304 -0.6551,1.1044 -0.2409,0.4564 -0.4646,0.7736 -0.6766,1.1398 -0.2206,0.4181 -0.4757,0.8561 -0.7138,1.2762 -0.0201,0.0374 -0.0227,0.0547 -0.0601,0.0748 -0.005,0.0519 -0.0278,0.1066 -0.0652,0.1267 0,0 -0.0226,0.0547 -0.0226,0.0547 -1.0551,1.671 -2.1326,3.3545 -3.2128,5.0185 0,0 -0.1242,0.1652 -0.1531,0.2537 -0.0434,0.0714 -0.087,0.1454 -0.1451,0.2021 -0.1948,0.3248 0.1046,-0.1477 -0.1279,0.1995 -0.1947,0.3272 -0.4073,0.6373 -0.6174,0.9471 -0.0873,0.1449 -0.0873,0.1449 -0.2069,0.275 -0.254,0.3654 -0.4527,0.7086 -0.7279,1.11 -0.4247,0.6358 -0.8473,1.2198 -1.2708,1.8199 -0.0383,0.0365 -0.0411,0.0535 -0.0618,0.0731 -1.4136,1.929 -2.8551,3.8667 -4.3095,5.8479 -0.003,0.034 -0.0873,0.1253 -0.1086,0.1613 -0.322,0.4308 -0.447,0.7109 -0.7809,1.0921 -0.2078,0.2367 -0.1831,0.184 -0.4156,0.4714 -0.9796,1.2399 -1.9454,2.4577 -2.893,3.6718 -0.0213,0.0187 -0.0428,0.0541 -0.0822,0.0728 -1.0599,1.3524 -2.1382,2.6853 -3.2389,3.9971 -0.004,0.0335 -0.0252,0.0519 -0.0649,0.0874 -0.1519,0.1777 -0.2316,0.233 -0.3872,0.4444 -3.4291,3.7486 -6.8018,7.6042 -10.2257,11.3718 -0.3348,0.3605 -0.5525,0.585 -0.9074,0.9626 -1.0278,1.1299 -2.0588,2.2558 -3.0883,3.3622 -0.0647,0.051 -0.2214,0.2208 -0.2257,0.2373 -2.6507,2.7583 -5.345,5.5108 -7.9957,8.3038 -0.0473,0.066 -0.2134,0.2477 -0.2134,0.2477 -0.7512,0.8252 -1.5231,1.6489 -2.2915,2.4384 -1.2209,1.2781 -2.4279,2.7595 -3.682,3.9642 -1.1418,1.1027 -2.2869,2.1855 -3.4548,3.2641 -0.3226,0.2733 -0.6319,0.578 -0.9686,0.8189 -0.3756,0.2566 -0.6772,0.4173 -1.0474,0.6415 -2.4268,1.5143 -2.7584,0.898 -4.6457,1.2813 -1.264,0.254 -6.0435,0.199 -7.3299,0.449 -0.6851,0.1247 -3.3718,0.481 -3.5776,-0.6415 -0.2695,-1.7016 2.8914,-4.295 3.763,-4.9992 2.0586,-1.6826 4.1165,-3.3307 6.1626,-4.9753 0.5442,-0.4173 0.9898,-0.7399 1.5139,-1.1586 5.5523,-4.5212 11.1359,-9.0048 16.7871,-13.5782 0.0184,-0.001 0.0414,-0.0184 0.0646,-0.0516 0.8201,-0.684 1.6433,-1.4011 2.4463,-2.1041 0.0414,-0.0346 0.11,-0.1029 0.133,-0.1367 1.5593,-1.4094 3.1124,-2.8253 4.6995,-4.2828 0.1267,-0.1049 0.2353,-0.2248 0.3481,-0.3461 0.8334,-0.7671 1.6495,-1.5514 2.4636,-2.3375 0.0627,-0.0536 0.1434,-0.1074 0.2101,-0.1774 0.8827,-0.8918 1.781,-1.77 2.645,-2.6983 0.2786,-0.2821 0.5051,-0.4782 0.7974,-0.7458 0.004,-0.0165 0.062,-0.0363 0.066,-0.0692 0.0221,-0.0184 0.0439,-0.053 0.0621,-0.0547 0.4677,-0.4762 0.917,-0.953 1.3875,-1.4474 0.0221,-0.0181 0.1058,-0.1063 0.1276,-0.1244 0.04,-0.0366 0.0836,-0.0896 0.1454,-0.1429 0.0218,-0.0181 0.044,-0.053 0.0658,-0.0714 0.8101,-0.8666 1.5979,-1.7187 2.3655,-2.554 0.3203,-0.3566 -0.1908,0.2123 0.1298,-0.1423 0.6792,-0.7492 1.3785,-1.5166 2.0585,-2.2853 0.0216,-0.0187 0.0607,-0.0542 0.0644,-0.0709 0.0215,-0.0351 0.0431,-0.0539 0.0643,-0.089 1.7499,-2.0554 3.5042,-4.1227 5.2458,-6.1671 0.1676,-0.1987 0.15,-0.1964 0.2999,-0.3954 0.9749,-1.228 1.946,-2.4766 2.8996,-3.7287 1.5761,-1.9567 3.3888,-4.4356 4.7035,-6.4811 1.7819,-2.8182 3.5425,-5.5795 5.2912,-8.3557 0.3821,-0.6599 0.6718,-1.2217 1.0142,-1.8077 0.2166,-0.4013 0.2985,-0.3968 0.5615,-0.9051 0.1795,-0.3642 0.2875,-0.5635 0.4615,-0.8934 0.003,-0.0173 0.0389,-0.0377 0.0417,-0.055 0.002,-0.0346 0.0218,-0.055 0.0247,-0.0723 1.093,-2.0007 2.0772,-4.1077 2.9732,-6.0361 0,0 0.038,-0.0556 0.038,-0.0556 0.003,-0.0173 0.0215,-0.0382 0.0241,-0.0555 0.1267,-0.2393 0.239,-0.4751 0.3348,-0.7282 0.136,-0.309 0.2888,-0.6387 0.4626,-0.9862 0.2191,-0.4587 0.1026,-0.3056 0.3095,-0.8127 0.1333,-0.292 0.2662,-0.5842 0.3847,-0.8901 0.8665,-1.9369 1.4556,-3.998 2.1838,-6.0539 0.1942,-0.5417 0.3549,-1.0928 0.5003,-1.6268 0.472,-1.9256 0.9281,-3.8481 1.3802,-5.7547 0.3424,-1.5329 0.4898,-3.2215 0.6636,-4.6318 0.1468,-1.188 0.1732,-2.3609 0.1993,-3.416 0.0711,-4.0076 -0.6809,-7.3545 -1.8528,-10.4043 -0.3001,-0.7631 -0.7174,-1.7235 -1.1928,-2.3338 -0.6834,-0.9524 -1.2364,-1.9525 -2.0747,-2.7158 -0.4456,-0.4232 -0.9042,-0.845 -1.3589,-1.2821 -0.1377,-0.1165 -0.1865,-0.1633 -0.354,-0.2574 -0.3943,-0.2594 -0.7733,-0.5199 -1.1492,-0.7793 -0.3081,-0.172 -0.4609,-0.3452 -0.7656,-0.5162 -1.1081,-0.4345 -2.2074,-0.875 -3.2871,-1.3161 -0.8416,-0.2636 -1.7529,-0.4362 -2.6955,-0.5678 -0.2539,-0.0204 -0.5227,-0.0408 -0.7886,-0.072 -1.7645,-0.1771 -4.0416,-0.214 -6.042,0.1466 -0.57,0.1029 -1.1248,0.2222 -1.6911,0.3149 -5.5511,1.1452 -11.3729,3.8276 -17.2472,7.9461 -2.0659,1.4666 -3.9611,3.1473 -5.8447,4.8804 -0.055,0.0587 -0.0698,0.0629 -0.1432,0.1259 -0.2647,0.2778 -0.5408,0.5442 -0.8172,0.8104 -0.9445,0.9255 -1.9097,2.0183 -2.7329,3.0056 -0.5267,-0.258 -1.0431,-0.5338 -1.5457,-0.8331 z"
         style="fill:#ffffff;fill-rule:evenodd;stroke:none"
         id="path6" />
      <path
         d="m 235.1095,290.4942 c -1.8187,0.8847 -3.5479,1.2297 -4.8515,1.1237 -0.8938,-0.0667 -1.3986,-0.2798 -2.0067,-0.6188 -1.6208,-0.8867 -2.2498,-3.142 -1.991,-5.497 0.2372,-2.084 0.8274,-3.8143 1.8969,-6.2277 0.26,-0.5732 0.548,-1.0749 0.8119,-1.5755 0.4416,0.9224 0.8342,1.8751 1.2027,2.827 -1.1117,2.5549 -2.0489,7.0738 2.0446,6.5713 0.4505,1.6891 1.5296,2.9525 2.8931,3.397 z"
         style="fill:#ffffff;fill-rule:evenodd;stroke:none"
         id="path8" />
      <path
         d="m 229.1043,265.8036 c 0.2251,-0.2625 0.4521,-0.5247 0.6783,-0.7912 1.4239,-1.6463 2.9342,-3.249 4.5085,-4.805 0.4524,-0.4371 0.904,-0.8747 1.3692,-1.3133 0.8966,-0.8991 1.8816,-1.7325 2.8292,-2.6155 2.9245,-2.7315 7.617,-6.2475 10.9108,-8.4892 3.6485,-2.4783 7.2627,-4.5351 11.1805,-6.6036 1.2206,-0.6341 2.2886,-1.1642 3.4239,-1.6543 1.1353,-0.4906 2.7851,-1.3306 3.9986,-1.7336 0.3713,-0.1508 0.7429,-0.3019 1.1143,-0.453 0.2052,-0.0814 1.0519,-0.3974 1.3104,-0.4856 1.0985,-0.3864 2.1864,-0.7676 3.2888,-1.1483 0.0417,-0.0179 0.1063,-0.0312 0.148,-0.049 0.1479,-0.0431 0.2846,-0.0803 0.407,-0.1336 0.2035,-0.0669 0.0255,0.005 0.1619,-0.049 1.0491,-0.3005 2.1152,-0.6236 3.1683,-0.9232 0.2792,-0.072 0.3784,-0.1251 0.555,-0.1815 0.1743,-0.0399 0.172,-0.0232 0.2653,-0.043 0.0139,-0.006 0.0397,-0.0182 0.0397,-0.0182 0.8203,-0.1465 2.8094,-0.7075 3.9421,-0.9218 1.1211,-0.2126 2.2638,-0.4606 3.3648,-0.5956 0.0121,-0.006 0.0538,-0.019 0.066,-0.008 0.0802,-0.0147 0.1463,-0.0295 0.2143,-0.0377 0.0122,0.0105 0.0802,-0.0147 0.0924,-0.004 2.6002,-0.2384 5.3002,-0.4887 8.0181,-0.7427 0.0125,0.011 0.0408,0.005 0.0533,-0.002 1.7232,0.0255 3.469,0.0402 5.195,0.0675 -0.001,0.0175 0.0414,0.004 0.04,0.0218 0.8756,0.049 1.7538,0.1173 2.6354,0.1698 0.0127,-0.007 0.0272,-0.0131 0.0258,0.005 0.1893,0.0162 0.379,0.0323 0.5828,0.0488 0.0141,-0.007 0.0272,0.004 0.0272,0.004 0.542,0.0627 1.0559,0.1327 1.5718,0.2032 0.0536,0.0162 0.0536,0.0162 0.1227,0.008 0.0678,0.01 0.0953,0.021 0.163,0.0303 2.2864,0.3864 4.5766,0.7915 6.9415,1.2368 0.1389,0.0255 0.0828,0.009 0.1514,0.0368 0.3041,0.0922 0.6242,0.1483 0.9297,0.2228 0.0136,0.0114 0.0417,0.005 0.0553,0.0162 0.0136,0.0116 0.0417,0.005 0.055,0.0164 2.0444,0.5882 4.1346,1.1861 6.3275,1.7978 0.0147,-0.007 0.1565,0.0385 0.1851,0.0504 0.1001,0.0219 0.0573,-0.002 0.1712,0.0386 1.3093,0.4308 2.6102,0.8546 3.9325,1.2807 0.1304,0.0337 0.0581,0.017 0.2027,0.0507 0.0147,-0.007 0.0431,0.0238 0.0578,0.017 0.809,0.2611 1.5761,0.5304 2.3604,0.7827 0.0292,0.0122 0.0437,0.0241 0.0735,0.0175 2.4842,0.8093 5.0496,1.6263 7.7269,2.4846 1.3164,0.538 2.5016,1.5435 3.0433,2.6291 0.3776,0.8255 0.4978,2.2564 0.4969,3.2769 -0.0332,2.5478 0.3974,4.9657 0.3974,7.6056 0,0.4624 -0.2029,1.4928 -0.3906,1.8233 -0.36,0.6219 -1.4542,0.8835 -2.1251,0.8263 -0.8416,-0.0213 -2.4208,-0.8241 -2.9903,-1.2073 -2.1124,-1.3436 -3.8957,-2.814 -5.7404,-4.1746 -3.5949,-2.605 -6.9906,-5.0828 -10.2663,-7.4591 -0.1845,-0.1083 -0.3115,-0.1803 -0.5096,-0.301 -1.1725,-0.6789 -2.3366,-1.364 -3.5088,-2.0251 -0.0127,-0.03 -0.0688,-0.0476 -0.0975,-0.0595 -0.6409,-0.3362 -1.2948,-0.646 -1.946,-0.9541 -0.138,-0.082 -0.0969,-0.0584 -0.2361,-0.1222 -3.6723,-1.2368 -7.2207,-2.4018 -10.6166,-3.5107 -0.013,-0.0111 -0.0261,-0.0224 -0.055,-0.0159 -0.013,0.006 -0.0258,-0.005 -0.0388,-0.0162 -0.0289,0.0241 -0.042,0.0131 -0.055,0.002 -0.0417,0.0128 -0.0678,-0.01 -0.108,-0.0144 -0.1358,-0.019 -0.2322,-0.0221 -0.3257,-0.0363 10e-4,-0.0176 -0.0116,-0.0289 -0.0391,-0.04 -0.0145,0.006 -0.0272,0.0128 -0.0547,0.002 -1.9335,-0.2367 -3.8535,-0.4816 -5.7331,-0.722 -0.5805,0.0162 -1.1262,-0.14 -1.7223,-0.0986 -0.1355,0.0156 -0.2569,0.0139 -0.3907,0.0125 -0.6715,0.005 -1.4093,-0.061 -2.0726,-0.009 0.002,0 -0.0267,0.0127 -0.055,0.019 -1.5818,0.0816 -3.1573,0.1661 -4.7138,0.2721 -0.0666,0.008 -0.0808,0.0142 -0.1474,0.0221 -0.644,0.076 -1.3011,0.1678 -1.9414,0.2432 -0.7943,0.076 -1.6053,0.2475 -2.4392,0.3986 -1.6745,0.316 -3.6477,0.7228 -5.4485,1.2713 -1.8215,0.5377 -3.6204,0.9958 -5.51,1.7527 -1.1656,0.4722 -1.8663,0.6658 -3.1504,1.216 -0.8096,0.349 -1.6331,0.7033 -2.454,1.0415 -2.0344,0.9632 -3.8775,1.8561 -5.8572,2.9319 -1.6072,0.8603 -4.7185,2.6557 -6.3507,3.7649 -0.7047,0.4748 -1.4069,0.9488 -2.1101,1.4219 -0.9658,0.6392 -1.874,1.3337 -2.8072,1.9874 -0.3569,0.2392 -0.4124,0.2996 -0.6854,0.5139 -2.1932,1.6653 -4.3713,3.4259 -6.4006,5.2789 -0.4133,0.36 -0.7773,0.7263 -1.1931,1.0832 -0.6101,0.5485 -1.1328,1.1299 -1.7487,1.6866 -0.0579,0.0623 -0.1265,0.11 -0.1806,0.1723 -0.0181,0.0193 -0.0723,0.0624 -0.0901,0.0817 -1.7113,1.889 -3.4285,3.7933 -5.1412,5.699 z"
         style="fill:#ffffff;fill-rule:evenodd;stroke:none"
         id="path10" />
      <path
         d="m 246.922,282.5918 c -0.2268,1.8071 -1.1457,3.9832 -2.5804,6.1288 -1.9289,2.9248 -4.7318,5.8691 -7.5413,7.878 -1.9644,1.3978 -3.6292,2.4236 -5.663,3.3653 -0.5652,0.2653 -1.4102,0.6214 -2.0421,0.8002 -0.3889,0.1154 -0.7588,0.2639 -0.9371,0.3184 -1.4842,0.3353 -3.2482,0.6939 -4.4521,0.6125 -1.6104,-0.0819 -3.3829,-0.5422 -4.4606,-1.3527 -0.095,-0.0586 -0.1125,-0.0972 -0.1868,-0.1885 -0.6058,-0.648 -1.2019,-1.3235 -1.8094,-1.9907 -0.0561,-0.093 -0.0844,-0.1395 -0.1247,-0.2211 -0.0122,-0.0494 -0.017,-0.0346 -0.0402,-0.0959 -0.4547,-0.9995 -0.8054,-2.0287 -0.9964,-3.2091 -0.2152,-1.3603 -0.0984,-2.8655 0.1054,-4.5164 0.4272,-3.5787 2.5705,-9.1874 5.0998,-13.3702 1.0131,-1.6866 2.0591,-3.3777 3.2346,-5.0578 l 1.0886,1.1471 c -0.2696,0.415 -0.55,0.8366 -0.8159,1.2357 -0.1102,0.1757 -0.036,0.0765 -0.1698,0.2707 -0.4592,0.8005 -0.9297,1.5854 -1.4014,2.3737 -2.8505,4.9825 -4.6664,10.3774 -4.5224,14.3481 0.0638,1.0948 0.2341,2.0197 0.572,2.9398 0.1066,0.26 0.2296,0.5236 0.3371,0.8023 0,-0.003 0.006,0.0232 0.002,0.0379 0.0221,0.008 0.0286,0.0315 0.0397,0.0431 0.006,0.0264 0.0238,0.061 0.0348,0.0726 0.2288,0.3274 0.4428,0.659 0.6781,0.9904 0.0978,0.133 0.1718,0.2115 0.2857,0.3419 0.4669,0.4501 0.9865,0.8935 1.6194,1.1602 1.5441,0.6573 3.4033,1.1061 5.8961,0.3515 0.337,-0.1063 0.6582,-0.1908 0.9748,-0.2787 0.1404,-0.0195 0.4978,-0.1442 0.8714,-0.269 2.8304,-0.9048 6.8701,-3.7499 9.3178,-6.8145 0.4257,-0.5028 0.7483,-0.9697 1.1208,-1.5647 2.2249,-1.154 4.3534,-3.1187 5.781,-5.2891 0.2418,-0.3294 0.4708,-0.6631 0.6848,-0.9998 z"
         style="fill:#ffffff;fill-rule:evenodd;stroke:none"
         id="path12" />
      <path
         d="m 222.5752,259.6161 c 0.423,-0.5247 0.8451,-1.0491 1.2694,-1.5769 0.0179,-0.004 0.0439,-0.051 0.0479,-0.0555 0.8632,-1.0038 1.6999,-2.02 2.543,-3.0104 0,0 0.0215,-0.0332 0.0215,-0.0332 0.004,0 0.0216,-0.0184 0.0352,-0.023 0.0292,-0.0516 0.008,-0.0328 0.0858,-0.1077 0.4703,-0.538 0.9533,-1.091 1.4253,-1.6449 0.0176,-0.019 0.0352,-0.0236 0.0527,-0.0423 0.0176,-0.0187 0.0349,-0.0232 0.0389,-0.0377 0.1202,-0.1502 0.2542,-0.2868 0.3744,-0.4192 0,0 0.0176,-0.019 0.0352,-0.038 0.1162,-0.1179 0.2364,-0.2647 0.3563,-0.3974 0.0176,-0.019 0.0388,-0.0377 0.0524,-0.0425 0.2362,-0.2699 0.4856,-0.54 0.7387,-0.8246 0.021,-0.019 0.1015,-0.1092 0.1052,-0.1282 0.1361,-0.1519 0.2228,-0.2182 0.3586,-0.375 0.1111,-0.1187 0.2225,-0.233 0.32,-0.3328 0.0173,-0.019 0.021,-0.0334 0.0247,-0.0379 0.375,-0.3952 0.7359,-0.7858 1.0961,-1.177 0.0173,-0.0193 0.0346,-0.0383 0.0519,-0.0431 0.003,-0.0142 0.0207,-0.038 0.0244,-0.0524 0.4422,-0.4442 0.8699,-0.9034 1.3008,-1.3779 0.0686,-0.0477 0.0686,-0.0477 0.1137,-0.1197 0.0173,-0.0192 0.0343,-0.0241 0.0516,-0.0433 0.003,-0.0145 0.0207,-0.0335 0.0377,-0.0383 2.5676,-2.5787 5.1088,-5.1324 7.6853,-7.6966 0.1026,-0.1097 0.1389,-0.1494 0.2182,-0.2047 1.0202,-0.9867 2.0398,-1.9868 3.0651,-2.9829 0.4428,-0.4229 -0.3489,0.3458 0.0845,-0.0862 0.0295,-0.0107 0.0621,-0.0362 0.0947,-0.0768 0.003,0 0.0326,-0.0255 0.0357,-0.0402 1.0369,-1.0055 2.0832,-2.0141 3.1156,-3.0206 0.0966,-0.0981 0.142,-0.1293 0.2094,-0.1959 0.7416,-0.7223 1.4797,-1.4264 2.2162,-2.1325 0.013,-0.006 0.0289,-0.0264 0.045,-0.032 0.0159,-0.0205 0.0318,-0.0261 0.0477,-0.0468 0.1533,-0.1375 0.2228,-0.2203 0.3789,-0.3518 0.6903,-0.6369 1.4993,-1.2886 2.2352,-1.8394 1.4709,-1.11 3.0594,-1.6841 4.5158,-2.518 0.809,-0.4045 1.605,-0.8187 2.4035,-1.2172 0.9825,-0.4827 2.0988,-1.154 3.0646,-1.48 0.3974,-0.1397 0.61,-0.087 0.4249,0.2625 -0.0964,0.1746 -0.1936,0.3243 -0.3509,0.4947 -0.2968,0.2973 -0.5939,0.5944 -0.8913,0.8909 -0.6996,0.6817 -12.2278,10.1534 -14.1386,11.7845 -0.358,0.2953 -0.6165,0.5371 -0.972,0.8373 -1.347,1.1616 -2.7037,2.3445 -4.0493,3.5223 -0.0133,0.005 -0.03,0.0253 -0.0468,0.0451 -0.5573,0.5034 -1.1154,1.0111 -1.6852,1.5174 -0.1808,0.1638 -0.2681,0.2531 -0.4325,0.3971 -0.2183,0.2033 -0.4332,0.3966 -0.6483,0.6044 -0.017,0.005 -0.0337,0.0246 -0.0505,0.0445 -0.0842,0.0743 -0.1179,0.0989 -0.2154,0.1879 -0.0879,0.089 -0.1216,0.1284 -0.2061,0.2027 -1.5599,1.5026 -3.1107,2.9976 -4.6426,4.46 -0.0136,0.005 -0.0343,0.0386 -0.0343,0.0386 -0.2514,0.2511 -0.5003,0.502 -0.7494,0.7381 -0.0173,0.0193 -0.0346,0.0386 -0.0346,0.0386 -0.2775,0.2888 -0.5692,0.5921 -0.8748,0.8997 -0.021,0.0241 -0.0904,0.0864 -0.1287,0.1247 -0.0904,0.1009 -0.1114,0.1202 -0.1882,0.2163 -0.0176,0.005 -0.0349,0.0241 -0.0522,0.0431 -0.3347,0.3455 -0.6698,0.705 -1.0292,1.0542 -0.004,0.019 -0.0423,0.0572 -0.0596,0.0621 -0.0175,0.0192 -0.0212,0.0337 -0.0348,0.0382 -0.0808,0.0958 -0.1718,0.1769 -0.2625,0.2773 -0.0774,0.0805 -0.1123,0.1187 -0.2069,0.2182 -0.0635,0.0763 -0.137,0.1523 -0.2107,0.2328 -0.0175,0.005 -0.0348,0.0235 -0.0385,0.0379 0,0 -0.0598,0.0616 -0.0987,0.114 -0.081,0.095 -0.1584,0.1709 -0.2321,0.2514 -0.0173,0.019 -0.0349,0.0236 -0.0525,0.0425 -0.682,0.7481 -1.3646,1.4948 -2.0624,2.2584 0,0 -0.0216,0.019 -0.0216,0.0233 -0.3829,0.4288 -0.7625,0.8569 -1.1429,1.2843 -0.0394,0.0377 -0.057,0.0564 -0.1222,0.1316 -0.2443,0.2769 -0.4892,0.5536 -0.7344,0.8302 -0.0831,0.1077 -0.1046,0.1265 -0.1917,0.2299 -0.7305,0.902 -1.4703,1.7963 -2.213,2.6924 z"
         style="fill:#ffffff;fill-rule:evenodd;stroke:none"
         id="path14" />
      <path
         d="m 210.3197,281.7774 c -0.3569,0.7994 -0.6994,1.599 -1.0718,2.3876 -1.8774,4.5723 -3.3208,9.5536 -3.4866,13.3923 -0.0281,0.3569 -0.0241,0.5958 -0.0462,0.9249 -0.006,0.2027 -0.0482,0.3382 -0.0485,0.527 0.0981,2.3888 0.2956,4.6338 1.1418,6.5486 0.0754,0.1395 0.0592,0.22 0.1346,0.3711 0.0323,0.0697 0.0539,0.0929 0.07,0.1655 0.233,0.3915 0.4507,0.7866 0.6588,1.1832 0.2353,0.2761 0.3799,0.6378 0.6438,0.8841 0.32,0.3762 0.659,0.7554 0.983,1.1364 0.6735,0.6576 1.4834,1.281 2.4423,1.6376 0.4505,0.1658 0.902,0.3475 1.338,0.5326 0.3291,0.0984 0.5355,0.2078 0.8855,0.2894 0.6231,0.1242 1.2805,0.2574 1.9877,0.3274 1.5517,0.1452 3.2649,0.004 5.0836,-0.2429 2.6402,-0.3359 6.4384,-1.8312 9.3643,-3.4503 2.3973,-1.3128 4.7874,-2.8089 7.1269,-4.7047 0.9941,-0.7872 1.9862,-1.5899 2.9262,-2.4902 0.0774,-0.0757 0.0816,-0.0913 0.1958,-0.1701 0.1548,-0.1358 0.3099,-0.2716 0.4525,-0.4357 0.972,-0.9269 1.8907,-1.9202 2.7782,-2.8939 0.3886,-0.4223 0.7444,-0.8416 1.116,-1.2614 2.7541,-3.1096 5.4816,-7.7122 6.357,-10.7473 0.9952,-3.7414 2.3536,-10.4405 -2.5557,-8.6459 -0.8802,-1.6849 -1.9086,-2.8245 -3.1434,-3.1074 1.8014,-0.8693 3.5836,-1.072 5.0162,-1.0349 2.8446,0.0777 4.5533,1.4505 5.1664,4.0184 0.5539,2.4327 0.0233,5.8703 -1.3297,9.1766 -0.4615,1.1072 -0.9465,2.2048 -1.5542,3.2822 -0.5993,1.0474 -1.2328,2.0965 -1.8684,3.1439 -1.6905,2.6034 -3.6144,4.9573 -5.7804,7.3579 -1.262,1.4239 -3.1314,3.2298 -4.5572,4.4173 -0.152,0.1162 -0.2835,0.2004 -0.4402,0.3509 -4.3952,3.8806 -9.1168,6.5883 -13.5207,8.5042 -0.6024,0.2648 -1.516,0.6279 -2.1501,0.8255 -0.6004,0.2072 -1.2013,0.3991 -1.8023,0.5907 -0.688,0.2798 -1.8558,0.5403 -2.5347,0.6321 -0.0785,0.002 -0.1573,0.002 -0.2413,0.0312 -0.6046,0.0924 -1.2089,0.1848 -1.8249,0.2795 -0.796,0.0567 -1.4743,0.1091 -2.2034,0.1137 -0.3702,-0.003 -0.6792,-0.002 -0.9776,-0.0315 -0.3651,-0.017 -0.6401,-0.021 -0.8765,-0.0468 -0.5899,-0.089 -1.1574,-0.1774 -1.7073,-0.2797 -0.9913,-0.1851 -1.9151,-0.531 -2.7525,-0.927 -0.5176,-0.2644 -1.0666,-0.5085 -1.4986,-0.8648 -1.0018,-0.8292 -2.0104,-1.5523 -2.7097,-2.643 -0.1304,-0.1727 -0.2438,-0.345 -0.3518,-0.5287 -0.6086,-0.7444 -1.58,-3.2896 -1.7555,-4.3376 -0.2738,-1.6506 -0.4456,-3.3724 -0.4572,-5.1877 0.007,-2.4692 0.5542,-5.2741 1.241,-8.0481 0.311,-1.2917 0.7742,-2.6816 1.2583,-4.1527 0.5202,-1.5461 1.0477,-2.8732 1.7351,-4.4105 0.3237,-0.7341 0.7132,-1.7002 1.0698,-2.3856 0.3858,-0.7308 0.565,-1.1911 0.9644,-1.9916 0.2369,-0.4437 0.7106,-1.3349 1.0023,-1.8553 0.7594,-1.3442 1.5134,-2.6765 2.2575,-3.9963 0.4646,-0.7163 1.2056,-2.0392 1.6963,-2.7689 1.2449,-1.8249 2.495,-3.6439 3.7275,-5.4572 0.1369,-0.1928 0.2747,-0.3844 0.4136,-0.5758 l 1.2367,1.3034 c -0.1644,0.2268 -0.3288,0.4538 -0.494,0.6806 -1.4579,2.0787 -2.9532,4.2095 -4.2152,6.3071 -0.0785,0.1338 -0.1661,0.2954 -0.3055,0.5244 -0.8266,1.4505 -1.6611,2.9169 -2.4934,4.3812 -0.1429,0.2622 -0.176,0.3462 -0.2673,0.5035 -0.5476,1.0556 -1.0188,1.978 -1.4493,2.9415 z"
         style="fill:#ffffff;fill-rule:evenodd;stroke:none"
         id="path16" />
    </g>
    <path
       d="m 344.77079,264.10031 h -21.50766 -21.12497 c -1.59334,0 -2.78821,0.66626 -3.58477,1.99902 -0.79655,1.24356 -1.19479,2.62064 -1.19479,4.13112 v 29.98359 c 0,2.17675 0.46198,3.84242 1.38602,4.99756 0.92404,1.11048 1.78434,1.66567 2.58089,1.66567 h 19.11792 l 5.20959,4.99722 h 11.51852 l -13.14357,-13.8592 h -8.74648 -8.36401 v -24.98658 h 16.34565 16.72834 v 24.98658 h -11.18394 l 7.98163,8.86198 h 8.36401 c 0.82858,0 1.68888,-0.55519 2.58089,-1.66567 0.92404,-1.11049 1.38602,-2.77627 1.38602,-4.99756 v -29.98359 c 0,-1.46594 -0.33457,-2.86545 -1.00364,-4.19788 -0.63735,-1.28821 -1.75254,-1.93226 -3.34565,-1.93226 z"
       style="fill:#ffffff;fill-rule:evenodd;stroke:none;stroke-width:0.931474"
       id="path31" />
    <path
       d="m 361.06886,264.10031 h -9.55888 v 36.11373 c 0,2.57642 0.46198,4.33129 1.38602,5.26404 0.95599,0.93286 1.81629,1.39919 2.58089,1.39919 h 43.82766 c 2.64463,0 3.96691,-1.8434 3.96691,-5.5302 v -37.24676 h -9.12861 v 33.91498 h -33.07399 z"
       style="fill:#ffffff;fill-rule:evenodd;stroke:none;stroke-width:0.931474"
       id="path33" />
    <path
       d="m 405.66136,264.10031 v 8.9284 h 30.68409 c 0,0 0.0479,0.0222 0.14334,0.0668 0.0958,0.0442 0.23912,0.11097 0.43027,0.19984 0.41417,0.17773 0.62126,0.44421 0.62126,0.79967 v 7.26274 h -27.0994 v 8.32889 h 27.0994 v 17.19066 h 9.12885 v -36.11374 c 0,-2.17675 -0.65321,-3.84242 -1.95963,-4.99755 -1.40196,-1.11049 -2.74009,-1.66567 -4.0148,-1.66567 z"
       style="fill:#ffffff;fill-rule:evenodd;stroke:none;stroke-width:0.931474"
       id="path35" />
    <path
       d="m 453.83839,264.10031 c -1.59334,0 -2.78821,0.64405 -3.58477,1.93226 -0.79655,1.24389 -1.19479,2.82081 -1.19479,4.73096 v 18.92308 h 38.23569 v 8.32868 h -38.23569 v 8.86198 h 42.63287 c 1.5931,0 2.78797,-0.55519 3.58453,-1.66567 0.79655,-1.19935 1.19479,-2.86513 1.19479,-4.99756 v -19.45616 h -37.85331 v -7.79582 h 37.85331 v -8.86175 z"
       style="fill:#ffffff;fill-rule:evenodd;stroke:none;stroke-width:0.931474"
       id="path37" />
    <path
       d="m 498.86068,264.10031 v 8.9284 h 30.68417 c 0,0 0.0478,0.0222 0.14334,0.0668 0.0957,0.0442 0.23904,0.11097 0.43019,0.19984 0.41417,0.17773 0.62126,0.44421 0.62126,0.79967 v 7.26274 h -27.0994 v 8.32889 h 27.0994 v 17.19066 h 9.12885 v -36.11374 c 0,-2.17675 -0.65321,-3.84242 -1.95963,-4.99755 -1.40188,-1.11049 -2.74009,-1.66567 -4.01472,-1.66567 z"
       style="fill:#ffffff;fill-rule:evenodd;stroke:none;stroke-width:0.931474"
       id="path39" />
    <path
       d="m 584.89102,264.10031 h -42.63287 v 8.86175 h 38.23577 v 7.79582 h -38.23577 v 13.32645 12.79294 h 9.1765 v -17.19066 h 29.05927 v 17.19066 h 9.17642 v -11.66035 c 0,-2.93177 -0.79655,-4.97501 -2.38966,-6.13015 0.50987,-0.3108 1.03559,-0.95485 1.57725,-1.93226 0.54158,-0.9774 0.81241,-2.35437 0.81241,-4.13112 v -12.25986 c 0,-1.82129 -0.39824,-3.39853 -1.19479,-4.73096 -0.79655,-1.28821 -1.99142,-1.93226 -3.58453,-1.93226 z"
       style="fill:#ffffff;fill-rule:evenodd;stroke:none;stroke-width:0.931474"
       id="path41" />
    <g
       id="Layer1004"
       style="stroke:none;fill:#ffffff">
      <path
         d="m 234.3903,286.5943 c 0.08,0.3112 0.2101,0.5831 0.3864,0.8113 l 8e-4,0.002 3e-4,-3e-4 c 0.6285,0.8116 1.8451,1.0644 3.4813,0.5474 3.2258,-1.0273 6.7271,-4.529 7.7541,-7.7556 0.5145,-1.628 0.2503,-2.8369 -0.5607,-3.4665 l 6e-4,-6e-4 -0.002,-8e-4 c -0.2321,-0.18 -0.5085,-0.3127 -0.8246,-0.394 -4.9459,-2.2669 -10.4539,-3.1539 -14.6245,-7.3245 l -56.0007,-53.0699 53.0975,55.9729 c 3.867,3.867 5.0031,9.6845 7.2918,14.6789 z"
         style="fill:#ffffff;fill-rule:evenodd;stroke:none"
         id="path43" />
      <path
         d="m 250.9452,295.8205 3.6352,3.3307 2.3028,-3.0044 -3.3165,-3.4966 c -0.0879,-0.0876 -0.174,-0.1763 -0.2591,-0.2661 -0.7852,1.7943 -1.8306,2.5463 -2.3624,3.4364 z"
         style="fill:#ffffff;fill-rule:evenodd;stroke:none"
         id="path45" />
      <path
         d="m 259.5688,304.221 9.1743,8.4433 1.5687,-2.3443 -8.4027,-8.8991 z"
         style="fill:#ffffff;fill-rule:evenodd;stroke:none"
         id="path47" />
      <path
         d="m 276.7187,320.2906 29.9455,28.3328 -28.6458,-30.1357 z"
         style="fill:#ffffff;fill-rule:evenodd;stroke:none"
         id="path49" />
    </g>
  </g>
</svg>
