<?xml version="1.0" encoding="UTF-8" standalone="no"?>
<!-- Generator: Adobe Illustrator 13.0.0, SVG Export Plug-In . SVG Version: 6.00 Build 14948)  -->

<svg
   version="1.2"
   id="Layer_3"
   x="0px"
   y="0px"
   width="279.01981"
   height="344.73129"
   viewBox="0 0 279.01979 344.73128"
   xml:space="preserve"
   sodipodi:docname="controller.svg"
   inkscape:version="1.1.2 (0a00cf5339, 2022-02-04)"
   xmlns:inkscape="http://www.inkscape.org/namespaces/inkscape"
   xmlns:sodipodi="http://sodipodi.sourceforge.net/DTD/sodipodi-0.dtd"
   xmlns="http://www.w3.org/2000/svg"
   xmlns:svg="http://www.w3.org/2000/svg"
   xmlns:rdf="http://www.w3.org/1999/02/22-rdf-syntax-ns#"
   xmlns:cc="http://creativecommons.org/ns#"
   xmlns:dc="http://purl.org/dc/elements/1.1/"
   xmlns:ns="&amp;ns_sfw;"><defs
   id="defs82" /><sodipodi:namedview
   id="namedview80"
   pagecolor="#ffffff"
   bordercolor="#666666"
   borderopacity="1.0"
   inkscape:pageshadow="2"
   inkscape:pageopacity="0.0"
   inkscape:pagecheckerboard="0"
   showgrid="false"
   fit-margin-top="0"
   fit-margin-left="0"
   fit-margin-right="0"
   fit-margin-bottom="0"
   inkscape:zoom="1.0263804"
   inkscape:cx="2.4357442"
   inkscape:cy="240.16437"
   inkscape:window-width="1920"
   inkscape:window-height="996"
   inkscape:window-x="0"
   inkscape:window-y="0"
   inkscape:window-maximized="1"
   inkscape:current-layer="Layer_3" />
<metadata
   id="metadata55">
	<rdf:RDF>
		<cc:Work
   rdf:about="">
			<dc:format>image/svg+xml</dc:format>
			<dc:type
   rdf:resource="http://purl.org/dc/dcmitype/StillImage" />
			
		</cc:Work>
	</rdf:RDF>
	<ns:sfw>
		<ns:slices />
		<ns:sliceSourceBounds
   x="-7231"
   y="-7652"
   width="16383"
   height="16383"
   bottomLeftOrigin="true" />
	</ns:sfw>
</metadata>
<path
   id="path918"
   style="fill:#000000"
   d="m 26.529004,0.00346215 c -2.71373,0.1026186 -5.46819,0.014488 -8.11805,0.7218048 C 11.627484,2.3206229 5.6508036,7.0198881 2.5617736,13.274639 c -1.95744999,3.859037 -2.72646999,8.239895 -2.53276999,12.544058 0.004,87.703333 -0.01,175.406883 0.0159,263.110083 0.11512,10.01883 2.66120999,20.18785 8.33483999,28.53855 5.6624904,8.43053 14.1514704,14.65427 23.4005304,18.65838 11.43965,4.99317 23.8982,7.13217 36.27839,8.07082 11.32317,0.79152 22.68153,0.44797 34.022316,0.52241 19.94272,-0.0112 39.88594,0.031 59.82833,-0.0347 20.12635,-0.40659 40.17544,-5.91988 57.51247,-16.19237 18.60075,-10.95778 33.97698,-27.19311 44.20423,-46.18234 10.29035,-19.00149 15.48436,-40.65066 15.38516,-62.23526 0.0149,-65.52947 0.008,-131.059226 -0.002,-196.588728 -0.0883,-8.442565 -5.09643,-16.5992495 -12.55841,-20.5384543 -4.00586,-2.18900095 -8.6336,-3.06831685 -13.17241,-2.85873505 -4.1586,-0.012467 -8.31852,0.01201 -12.47607,0.00411 -55.91337,-0.020671 -111.82775,-0.00209 -167.741506,-0.012824 -15.18261,-0.0052 -30.36328,0.0024 -45.53945,0.00392 -0.32904,-0.050555 -0.65846,-0.096794 -0.99219,-0.080078 z m 6.17969,5.76562495 c 0.25781,0.6354167 0.51562,1.2708334 0.77344,1.90625 -0.43653,0.4635605 -0.68867,1.1978898 -1.24795,1.4811868 -0.78495,0.39532 -1.48806,-0.156195 -2.0958,-0.606187 0.0102,-0.5461941 -0.69792,-1.3817881 -0.019,-1.6586077 0.71142,-0.4484327 1.42285,-0.8968655 2.13427,-1.3452983 0.15169,0.074219 0.30339,0.1484375 0.45508,0.2226562 z m -7.26563,3.8710938 c 3.25196,0 6.50391,0 9.75586,0 0.0302,4.5761011 -0.0837,9.1586421 0.0801,13.7304691 0.55768,4.453337 4.82274,8.084317 9.3207,7.830483 64.175646,0.03043 128.351306,0.0089 192.526956,0.0055 4.65115,-0.02649 8.86494,-4.188132 8.80914,-8.865519 0.0747,-4.231277 0.006,-8.464746 0.0307,-12.6969811 3.67264,0.03611 7.35432,-0.115189 11.02072,0.114651 5.85574,0.6919051 10.99178,5.3840721 12.14673,11.1768841 0.58338,3.063415 0.23425,6.19671 0.32677,9.29284 0.001,50.188021 0.004,100.376052 -0.004,150.564072 -2.21615,0 -4.4323,0 -6.64844,0 0.0702,10.19759 -0.34061,20.47441 -2.58283,30.45735 -0.36645,1.66053 -0.78522,3.30517 -1.2259,4.86601 -3.01147,10.80953 -8.53962,20.80131 -15.47585,29.57925 -5.6624,7.25883 -12.01227,13.95342 -18.57675,20.39622 -2.89018,2.68973 -5.86014,5.0516 -9.13768,7.29093 -1.55491,1.0646 -3.18309,2.08579 -4.72585,2.99929 -1.27963,0.75068 -2.8215,1.61407 -4.14792,2.29879 -10.44654,5.44501 -21.99978,8.8793 -33.64242,10.94403 -6.58342,1.16765 -13.34051,1.92452 -19.94769,2.34 -6.01266,0.3585 -12.05588,0.53741 -18.14144,0.37819 -2.29226,-0.0826 -4.52025,-0.20341 -6.74179,-0.36454 -15.22405,-1.03893 -30.508196,-2.59613 -45.808706,-2.96279 -13.61385,-0.35225 -27.34626,-0.0341 -40.74238,2.62558 -9.00104,1.82057 -17.96927,4.83662 -25.43184,10.32297 -1.34389,1.00593 -2.62795,2.09022 -3.86431,3.2252 -2.43763,-6.05346 -3.0988004,-12.64855 -3.0346404,-19.12616 0.0307,-33.16995 0.004,-66.34013 0.0131,-99.51016 0.005,-54.40049 -0.006,-108.801292 0.0137,-163.201576 0.17553,-5.715538 4.1521304,-11.078304 9.5720604,-12.906189 2.00681,-0.6928911 4.15221,-0.8865341 6.26387,-0.8047481 z m 19.4336,22.5761721 c -4.07286,-0.07464 -8.182,0.716198 -11.8401,2.540349 -5.83347,2.809465 -10.49398,8.261785 -11.73436,14.687419 -0.68436,3.138286 -0.31681,6.363702 -0.40611,9.545279 0.002,57.33443 -0.0117,114.66918 0.0165,172.0034 0.17896,9.98229 3.02941,20.07307 8.99728,28.16496 6.0897,8.36747 14.93591,14.3755 24.40429,18.32902 12.59367,5.29582 26.21169,7.57118 39.74415,8.82723 11.964196,1.07819 23.987436,1.07108 35.989836,1.03225 9.13621,-0.0189 18.27409,0.0551 27.4092,-0.0583 13.91176,-0.55186 27.4214,-4.97329 39.76103,-11.24743 15.53735,-7.98409 29.52929,-18.9614 41.01834,-32.11689 8.03097,-9.25172 14.85619,-19.74565 18.84462,-31.38761 2.26232,-6.65176 3.42513,-13.69166 3.20941,-20.72278 -0.004,-46.42919 0.0155,-92.858804 -0.019,-139.287737 -0.23725,-6.987431 -4.56456,-13.47367 -10.56576,-16.914775 -4.32216,-2.591691 -9.45116,-3.594367 -14.45083,-3.368974 -63.35914,-0.0056 -126.71922,0.01118 -190.077766,-0.0084 -0.10051,-0.0026 -0.19978,-0.02931 -0.30074,-0.01701 z M 237.56025,47.030806 c 3.05159,0.08406 6.37569,1.59854 7.60911,4.544889 0.65176,1.957301 0.19187,4.051445 0.33425,6.069955 0,7.647916 0,15.295833 0,22.94375 -69.94922,0 -139.89844,0 -209.847656,0 0.0159,-9.297136 -0.0502,-18.597487 0.0469,-27.892578 0.47729,-2.927441 3.28964,-4.879948 6.0427,-5.434903 2.25936,-0.442969 4.5797,-0.157254 6.86589,-0.239018 62.982946,-0.0036 125.965886,-4e-4 188.948826,0.0079 z m 7.94336,45.402344 c -3.6e-4,22.47136 0.005,44.94271 -0.002,67.41407 -1.90585,-3.67937 -5.58524,-6.22135 -9.58594,-7.12305 -0.36258,-0.26377 -0.5863,-0.74762 -1.09215,-0.84787 -1.06876,-0.40611 -2.22404,0.10266 -3.33172,0.0991 -3.82142,0.3248 -7.64504,0.82072 -11.32905,1.92426 -7.98768,2.33207 -15.48141,6.06485 -22.74951,10.06318 -9.59832,5.36414 -18.76384,11.46773 -27.7339,17.81599 -10.75891,8.72887 -20.58435,18.53521 -30.10351,28.58203 -7.39605,7.91247 -14.65772,15.98838 -21.0854,24.71851 -3.30933,4.58097 -6.34051,9.58087 -7.45796,15.19074 -0.75343,4.0549 0.13977,8.54561 3.00936,11.61575 3.35332,3.73326 8.33007,5.40203 13.12772,6.31602 7.9685,1.52445 16.16705,1.31014 24.19661,0.41803 16.67134,-1.96723 33.01533,-7.42787 47.19912,-16.46607 8.88114,-5.67907 16.70092,-12.9426 23.24405,-21.1939 9.04285,-11.31331 15.96317,-24.26789 20.74147,-37.92351 1.12534,-3.24478 2.12923,-6.53413 2.94495,-9.87088 -0.0326,4.4105 0.0617,8.82378 -0.0566,13.23242 -0.54473,8.1098 -3.67203,15.8139 -7.63137,22.82674 -6.14195,10.66945 -14.467,19.97586 -23.82613,27.925 -9.41841,7.95568 -19.97771,14.62979 -31.39055,19.33085 -2.85418,1.17413 -5.91738,2.25107 -8.78281,3.10295 -1.91589,0.56732 -3.84932,1.07673 -5.80274,1.49805 -1.05911,0.22287 -2.37392,0.48046 -3.5422,0.66557 -4.30283,0.72439 -8.67394,0.9004 -13.03006,0.80647 -12.9693,-0.0306 -25.93968,0.0751 -38.90821,-0.0795 -3.89384,-0.0778 -7.93882,-0.24389 -11.76367,-0.49219 -11.675416,-0.77494 -23.398496,-2.27453 -34.580596,-5.84126 -7.91769,-2.57279 -15.71229,-6.31816 -21.5658,-12.3747 -4.0104,-4.14374 -6.84889,-9.55043 -8.01961,-15.11216 -1.3682,-6.0214 -0.83323,-12.23551 -0.93946,-18.35469 0,-42.62201 0,-85.24401 0,-127.86602 69.949216,0 139.898436,0 209.847656,0 z m -14.45117,69.30079 c 2.13002,-0.0116 4.65991,0.40903 5.8789,2.36328 1.59632,2.83589 1.10615,6.22888 0.72367,9.30908 -1.30486,9.04454 -4.32101,17.7574 -7.98475,26.09791 -0.29219,0.69509 0.20799,-0.73527 0.24771,-0.99338 1.24149,-4.5865 1.55836,-9.69371 -0.43991,-14.11712 -1.54213,-3.47547 -4.5123,-6.23285 -8.05258,-7.59727 -5.32571,-2.10803 -11.25835,-1.65407 -16.74508,-0.47468 -8.29203,1.88363 -16.03647,5.6469 -23.27018,10.04168 -9.46632,5.86311 -18.09978,13.07863 -25.55466,21.3496 -5.46393,6.14074 -10.33147,12.94663 -13.48616,20.57537 -1.96674,4.82923 -3.18405,10.20345 -2.13756,15.39828 0.87978,4.21116 3.60514,8.04152 7.45857,10.0184 4.83532,2.5925 10.58617,2.63859 15.87325,1.72196 8.67784,-1.49172 16.80238,-5.22254 24.3493,-9.65255 10.17553,-6.05496 19.4031,-13.70118 27.2814,-22.53779 1.25427,-1.42503 2.48051,-2.87581 3.64909,-4.37192 -7.30098,10.70872 -16.65655,20.16123 -27.89226,26.72247 -3.67176,2.18818 -7.64059,4.16894 -11.48274,5.80683 -7.6333,3.24509 -15.7707,5.56186 -23.87304,6.94336 -2.74402,0.478 -5.65494,0.84218 -8.33789,1.07422 -1.42562,0.12376 -2.85356,0.21921 -4.28321,0.28125 -0.84692,0.0339 -1.97853,0.0649 -2.93593,0.0699 -5.14573,-0.0288 -10.38876,-0.38167 -15.28868,-2.06402 -1.47925,-0.59423 -3.07297,-1.31928 -3.97851,-2.68945 -0.93754,-1.91021 -0.0891,-4.06132 0.56695,-5.91881 1.96348,-4.85278 5.28776,-8.97695 8.46463,-13.07885 8.24837,-10.23187 17.22366,-19.85913 26.51287,-29.14871 6.18489,-6.15295 12.54891,-12.14956 19.36375,-17.60363 4.71981,-3.43169 9.59919,-6.64106 14.50098,-9.80627 8.74864,-5.5566 17.78084,-10.77829 27.44423,-14.58445 2.07285,-0.81319 4.40132,-1.59971 6.66221,-2.16593 0.36058,-0.0884 1.12898,-0.27097 1.65017,-0.37108 1.68371,-0.33841 3.39435,-0.59763 5.11546,-0.59766 z m -18.28906,23.14453 c 2.56441,-0.003 5.5144,0.27718 7.31401,2.33036 1.64707,2.08298 1.43961,4.96836 0.94248,7.42132 -1.40835,6.32313 -4.91067,11.9328 -8.72755,17.07372 -5.84575,7.76179 -13.00986,14.46198 -20.79652,20.24491 -0.35449,0.25901 -1.00463,0.72659 -1.47648,1.06512 -7.62239,5.38532 -15.95228,9.99828 -25.02548,12.38605 -3.64066,0.85823 -7.51438,1.48042 -11.19921,0.53125 -1.87092,-0.49563 -3.64019,-1.81791 -4.08974,-3.78421 -0.78132,-2.97943 0.0799,-6.07764 1.00446,-8.92152 2.23514,-6.12585 5.99472,-11.56409 10.08428,-16.59138 0.58388,-0.71825 1.02368,-1.22113 1.64278,-1.93249 6.94945,-7.8687 15.0952,-14.67094 24.00703,-20.21197 6.03062,-3.68003 12.47024,-6.82577 19.3344,-8.59484 2.28537,-0.57582 4.6272,-0.95187 6.98554,-1.01632 z m -18.72657,18.95117 c -2.82271,0.0263 -5.37038,2.26576 -5.92968,5.0039 -2.91089,-0.0626 -5.68619,2.14572 -6.22852,4.99024 -2.84714,-0.0967 -5.60879,1.94648 -6.23147,4.74783 -0.11605,0.5339 -0.98342,0.15914 -1.41501,0.40061 -2.91909,0.53002 -5.17435,3.37378 -4.99462,6.33696 0.0809,2.84064 2.2755,5.47261 5.10098,5.94213 3.21832,0.66884 6.72368,-1.65411 7.28817,-4.90995 2.76079,0.0495 5.43022,-1.87647 6.12109,-4.57422 -0.0264,-0.67357 0.7324,-0.33157 1.17383,-0.48047 2.56128,-0.34176 4.75483,-2.39788 5.23633,-4.93945 2.73896,0.0475 5.37769,-1.84768 6.10691,-4.50514 0.99641,-3.17975 -1.03554,-6.93887 -4.28269,-7.77025 -0.62988,-0.18278 -1.29001,-0.26419 -1.94532,-0.24219 z m 0.40235,5.57422 c 0.85027,0.14529 0.52826,1.62093 -0.31805,1.36381 -0.98511,-0.17944 -0.60706,-1.5725 0.31805,-1.36381 z m 75.01172,12.0957 c -0.0323,3.93263 -0.2469,7.87897 -0.65881,11.84331 -0.232,2.16826 -0.50405,4.37566 -0.8451,6.46138 -2.34813,-1.41072 -5.16782,-2.02146 -7.88867,-1.69336 4.28573,-7.65219 7.48831,-15.91829 9.39258,-24.48242 0,2.62369 0,5.24739 0,7.87109 z m -81.23829,-7.08398 c 0.88551,0.15893 0.48981,1.69903 -0.38671,1.34765 -0.91905,-0.25141 -0.4911,-1.55338 0.38671,-1.34765 z m -6.2539,4.99218 c 0.84158,0.21822 0.39486,1.67679 -0.4336,1.33789 -0.96003,-0.2692 -0.4573,-1.59911 0.4336,-1.33789 z m -6.29297,4.99414 c 0.85557,0.12643 0.55752,1.62232 -0.29286,1.37251 -0.97701,-0.15351 -0.62792,-1.56238 0.29286,-1.37251 z m 61.24219,43.27735 c 0.37908,3.0613 2.77245,5.5451 5.60547,6.57226 2.17288,0.80986 4.48163,1.17951 6.75781,1.57641 2.27454,0.3491 4.61781,0.45305 6.89062,0.13062 -7.80419,15.10754 -19.05699,28.45332 -32.78711,38.50586 -0.45365,0.32711 -1.18546,0.85552 -1.75237,1.25105 -2.74429,1.9245 -5.71677,3.80376 -8.54059,5.41302 -7.21497,4.10217 -14.91919,7.33252 -22.88477,9.6582 -0.78298,0.22584 -1.85306,0.52712 -2.75126,0.76046 -6.01037,1.58411 -12.25933,2.65351 -18.38741,3.17704 -0.99278,0.0885 -1.77967,0.14435 -2.76953,0.20703 -1.63882,0.1044 -3.49985,0.15936 -5.22567,0.1996 -6.67267,0.0754 -13.34618,-0.004 -20.01926,0.0293 -20.27905,-0.0128 -40.55857,0.0353 -60.837316,-0.0374 -3.32041,-0.0422 -6.53027,-0.15368 -9.85525,-0.35746 -1.99263,-0.13459 -4.18374,-0.29848 -6.24693,-0.51786 -10.85314,-1.13155 -21.76344,-3.39248 -31.5851,-8.29854 -2.51377,-1.28845 -4.94787,-2.74185 -7.2168,-4.42774 -0.61081,-0.4592 -1.4564,-1.10977 -2.12461,-1.68472 -2.14352,-1.80931 -4.11254,-3.83441 -5.78555,-6.08871 3.01539,-2.90679 6.33174,-5.55429 10.13076,-7.36537 7.99547,-3.99669 16.88491,-5.75785 25.6966,-6.82186 3.90713,-0.45996 7.76743,-0.73817 11.66153,-0.91287 6.11288,-0.26141 12.32675,-0.24429 18.5069,-0.0635 5.52304,0.1609 11.21455,0.48205 16.724276,0.85631 10.19764,0.66746 20.45102,1.64683 30.6885,2.2638 9.28312,0.51617 18.59626,0.18652 27.85728,-0.559 15.98368,-1.34633 31.9537,-4.60267 46.6828,-11.09082 11.10059,-4.90257 21.40034,-11.77157 29.76954,-20.59615 0.6026,-0.60852 1.19496,-1.22703 1.79158,-1.8414 z" /><path
   id="path3"
   d="m 23.923534,4.0835403 c -10.981,0 -19.8945304,8.9154847 -19.8945304,19.8964847 V 287.76909 c 0,25.718 14.7757304,39.1181 32.1777404,45.87109 17.40199,6.75201 37.47235,7.07813 48.56835,7.07813 h 74.302736 c 66.424,0 115.93945,-53.90302 115.93945,-120.29102 V 23.981978 c 0,-10.979 -8.92039,-19.8945315 -19.90039,-19.8945315 h -13.13086 c -0.555,0 -1.05906,0.3420782 -1.28906,0.7050782 -0.1725,0.2726901 -0.19061,0.5139142 -0.21875,0.7519531 h -1.08789 V 4.8628371 4.0835403 h -0.77735 -3.91601 -0.7793 v 0.7792968 0.6816407 h -0.90234 V 4.8628371 4.0835403 h -0.77735 -3.91601 -0.77734 v 0.7792968 0.6816407 h -0.92774 V 4.8628371 4.0835403 h -0.77734 -3.91602 -0.77734 v 0.7792968 0.6816407 h -0.90235 V 4.8628371 4.0835403 h -0.77734 -3.91602 -0.77929 v 0.7792968 0.6816407 h -0.92578 V 4.8628371 4.0835403 h -0.77735 -3.89062 -0.7793 v 0.7792968 0.6816407 h -0.91797 V 4.8628371 4.0835403 h -0.77734 -3.91602 -0.77734 v 0.7792968 0.6816407 h -0.92578 V 4.8628371 4.0835403 h -0.7793 -3.89062 -0.7793 v 0.7792968 0.6816407 h -0.92578 V 4.8628371 4.0835403 h -0.77735 -3.91796 -0.77735 v 0.7792968 0.6816407 h -0.92578 V 4.8628371 4.0835403 h -0.7793 -3.88867 -0.78125 V 4.8628371 5.5444778 H 181.9372 V 4.8628371 4.0835403 h -0.77734 -3.91602 -0.77734 v 0.7792968 0.6816407 h -0.89648 V 4.8628371 4.0835403 h -0.7793 -3.91406 -0.77735 v 0.7792968 0.6816407 h -0.92578 V 4.8628371 4.0835403 h -0.77734 -3.91602 -0.77734 v 0.7792968 0.6816407 h -0.9043 V 4.8628371 4.0835403 h -0.77734 -3.91602 -0.77929 v 0.7792968 0.6816407 h -0.92383 V 4.8628371 4.0835403 h -0.77735 -3.91601 -0.77735 V 4.8628371 5.5444778 H 150.029 V 4.8628371 4.0835403 h -0.77734 -3.91602 -0.7793 v 0.7792968 0.6816407 h -0.92382 V 4.8628371 4.0835403 h -0.7793 -3.91602 -0.77734 v 0.7792968 0.6816407 h -0.89453 V 4.8628371 4.0835403 h -0.7793 -3.91601 -0.77735 v 0.7792968 0.6816407 h -0.92578 V 4.8628371 4.0835403 h -0.77734 -3.91797 -0.77734 v 0.7792968 0.6816407 h -0.90235 V 4.8628371 4.0835403 h -0.77734 -3.91602 -0.77734 v 0.7792968 0.6816407 h -0.92578 V 4.8628371 4.0835403 h -0.7793 -3.89063 -0.77929 v 0.7792968 0.6816407 h -0.92578 V 4.8628371 4.0835403 h -0.77735 -3.91601 -0.77735 v 0.7792968 0.6816407 h -0.91796 V 4.8628371 4.0835403 h -0.7793 -3.89063 -0.779286 v 0.7792968 0.6816407 h -0.92383 V 4.8628371 4.0835403 h -0.7793 -3.91601 -0.77735 v 0.7792968 0.6816407 h -0.92773 V 4.8628371 4.0835403 h -0.77735 -3.89257 -0.77735 v 0.7792968 0.6816407 h -0.92578 V 4.8628371 4.0835403 h -0.77734 -3.91602 -0.77734 v 0.7792968 0.6816407 h -0.92383 V 4.8628371 4.0835403 h -0.7793 -3.89062 -0.7793 v 0.7792968 0.6816407 h -0.92383 V 4.8628371 4.0835403 h -0.77734 -3.91602 -0.77929 v 0.7792968 0.6816407 h -0.89844 V 4.8628371 4.0835403 h -0.7793 -3.91601 -0.77735 v 0.7792968 0.6816407 h -0.92383 V 4.8628371 4.0835403 h -0.77734 -3.91601 -0.7793 v 0.7792968 0.6816407 h -0.90039 V 4.8628371 4.0835403 h -0.77735 -3.91601 -0.7793 v 0.7792968 0.6816407 h -0.92383 V 4.8628371 4.0854934 h -0.77734 -3.91602 l -0.77929,-0.00195 v 0.7792968 0.6816407 h -1.67578 c -0.016,-0.3220808 -0.0678,-0.6457218 -0.29688,-0.9453125 -0.277,-0.361 -0.76158,-0.5117188 -1.14258,-0.5117188 h -15.37109 z m 0,1.5566406 h 15.27344 c 0.006,0.029 0,-0.015344 0,0.097656 V 22.106978 c 0,2.82 2.31181,5.107422 5.13281,5.107422 H 236.85908 c 2.822,0 5.10742,-2.287422 5.10742,-5.107422 V 5.7866653 c 0,-0.038 0.0368,-0.1134844 0.0488,-0.1464844 h 13.10547 c 10.141,0 18.33984,8.2008441 18.33984,18.3398441 V 220.42534 c 0,10.54231 -1.27546,20.75578 -3.66211,30.48438 0.0164,-0.2365 0.0227,-0.4613 0.0156,-0.66797 v -0.0254 c -0.013,-4.519 -3.69675,-8.19436 -8.21875,-8.19336 -2.825,0 -5.39994,1.39948 -6.83594,3.64648 -6.897,10.807 -10.61469,14.71352 -12.30469,16.85352 -0.892,1.129 -1.76042,2.72273 -1.60742,4.42773 0.077,0.854 0.45836,1.71321 1.19336,2.40821 0.737,0.69499 1.78537,1.23407 3.23437,1.58007 2.728,0.655 5.92644,1.36341 9.02344,1.19141 3.096,-0.171 6.13302,-1.29098 8.29102,-4.20898 2.05206,-2.7737 3.84645,-6.36067 5.14062,-9.64844 -14.68002,47.02882 -56.30575,80.88672 -108.65625,80.88672 H 84.775034 c -11.066,0 -30.97271,-0.34603 -48.01171,-6.95704 -17.03,-6.607 -31.1699304,-19.30064 -31.1699304,-44.43164 V 23.981978 c 0,-10.139 8.1978904,-18.3378908 18.3378904,-18.3378909 z m 20.04102,0 h 2.35937 V 22.397994 c -0.799,-0.073 -1.41656,-0.202501 -1.72656,-0.4375 -0.413,-0.311 -0.63281,-0.764954 -0.63281,-1.751954 z m 6.39648,0 h 2.35938 V 22.470259 h -2.35938 z m 6.37305,0 h 2.35937 V 22.470259 h -2.35937 z m 6.39648,0 h 2.35938 V 22.470259 h -2.35938 z m 6.3711,0 h 2.35937 V 22.470259 h -2.35937 z m 6.39648,0 h 2.33399 V 22.470259 h -2.33399 z m 6.37305,0 h 2.35937 V 22.470259 h -2.35937 z m 6.39648,0 h 2.33399 V 22.470259 h -2.33399 z m 6.375,0 h 2.35742 V 22.470259 h -2.35742 z m 6.396486,0 h 2.33398 V 22.470259 h -2.33398 z m 6.36718,0 h 2.35938 V 22.470259 h -2.35938 z m 6.39649,0 h 2.33398 V 22.470259 h -2.33398 z m 6.375,0 h 2.35937 V 22.470259 h -2.35937 z m 6.375,0 h 2.35742 V 22.470259 h -2.35742 z m 6.39648,0 h 2.35938 V 22.470259 h -2.35938 z m 6.36719,0 h 2.35742 V 22.470259 h -2.35742 z m 6.39648,0 h 2.35743 V 22.470259 h -2.35743 z m 6.37305,0 h 2.35938 V 22.470259 h -2.35938 z m 6.39844,0 h 2.35742 V 22.470259 h -2.35742 z m 6.375,0 h 2.35742 V 22.470259 h -2.35742 z m 6.39453,0 h 2.35938 V 22.470259 H 171.654 Z m 6.36719,0 h 2.35937 V 22.470259 h -2.35937 z m 6.39844,0 h 2.33593 V 22.470259 h -2.33593 z m 6.375,0 h 2.35742 V 22.470259 h -2.35742 z m 6.39648,0 h 2.33398 V 22.470259 h -2.33398 z m 6.37305,0 h 2.35937 V 22.470259 h -2.35937 z m 6.39258,0 h 2.33398 V 22.470259 h -2.33398 z m 6.37304,0 h 2.35742 V 22.470259 h -2.35742 z m 6.37305,0 h 2.35742 V 22.470259 h -2.35742 z m 6.39648,0 h 2.35938 V 22.470259 h -2.35938 z m 6.375,0 h 2.35938 V 20.210494 c 0.001,1.056999 -0.19599,1.510828 -0.58399,1.798828 -0.267,0.2 -1.06039,0.240406 -1.77539,0.316406 z M 40.751664,7.1011184 h 1.65625 V 20.210494 c 0,1.259 0.38023,2.342234 1.24023,2.990234 0.86,0.648 2.01208,0.828125 3.45508,0.828125 h 0.77734 V 23.249556 7.1011184 h 0.92383 v 16.1484376 0.779297 h 0.7793 3.91601 0.77735 V 23.249556 7.1011184 h 0.90039 v 16.1484376 0.779297 h 0.7793 3.91601 0.77734 V 23.249556 7.1011184 h 0.92383 v 16.1484376 0.779297 h 0.77735 3.91601 0.7793 V 23.249556 7.1011184 h 0.89844 v 16.1484376 0.779297 h 0.77929 3.91602 0.77734 V 23.249556 7.1011184 h 0.92383 v 16.1484376 0.779297 h 0.7793 3.89062 0.7793 V 23.249556 7.1011184 h 0.92383 v 16.1484376 0.779297 h 0.77734 3.91602 0.77734 V 23.249556 7.1011184 h 0.92578 v 16.1484376 0.779297 h 0.77735 3.89257 0.77735 V 23.249556 7.1011184 h 0.92773 v 16.1484376 0.779297 h 0.77735 3.91601 0.7793 V 23.249556 7.1011184 h 0.92383 v 16.1484376 0.779297 h 0.779286 3.89063 0.7793 V 23.249556 7.1011184 h 0.91796 v 16.1484376 0.779297 h 0.77735 3.91601 0.77735 V 23.249556 7.1011184 h 0.92578 v 16.1484376 0.779297 h 0.77929 3.89063 0.7793 V 23.249556 7.1011184 h 0.92578 v 16.1484376 0.779297 h 0.77734 3.91602 0.77734 V 23.249556 7.1011184 h 0.90235 v 16.1484376 0.779297 h 0.77734 3.91797 0.77734 V 23.249556 7.1011184 h 0.92578 v 16.1484376 0.779297 h 0.77735 3.91601 0.7793 V 23.249556 7.1011184 h 0.89453 v 16.1484376 0.779297 h 0.77734 3.91602 0.7793 V 23.249556 7.1011184 h 0.92382 v 16.1484376 0.779297 h 0.7793 3.91602 0.77734 V 23.249556 7.1011184 h 0.90234 v 16.1484376 0.779297 h 0.77735 3.91601 0.77735 V 23.249556 7.1011184 h 0.92383 v 16.1484376 0.779297 h 0.77929 3.91602 0.77734 V 23.249556 7.1011184 h 0.9043 v 16.1484376 0.779297 h 0.77734 3.91602 0.77734 V 23.249556 7.1011184 h 0.92578 v 16.1484376 0.779297 h 0.77735 3.91406 0.7793 V 23.249556 7.1011184 h 0.89648 v 16.1484376 0.779297 h 0.77734 3.91602 0.77734 V 23.249556 7.1011184 h 0.92383 v 16.1484376 0.779297 h 0.78125 3.88867 0.7793 V 23.249556 7.1011184 h 0.92578 v 16.1484376 0.779297 h 0.77735 3.91796 0.77735 V 23.249556 7.1011184 h 0.92578 v 16.1484376 0.779297 h 0.7793 3.89062 0.7793 V 23.249556 7.1011184 h 0.92578 v 16.1484376 0.779297 h 0.77734 3.91602 0.77734 V 23.249556 7.1011184 h 0.91797 v 16.1484376 0.779297 h 0.7793 3.89062 0.77735 V 23.249556 7.1011184 h 0.92578 v 16.1484376 0.779297 h 0.77929 3.91602 0.77734 V 23.249556 7.1011184 h 0.90235 v 16.1484376 0.779297 h 0.77734 3.91602 0.77734 V 23.249556 7.1011184 h 0.92774 v 16.1484376 0.779297 h 0.77734 3.91601 0.77735 V 23.249556 7.1011184 h 0.90234 v 16.1484376 0.779297 h 0.7793 c 1.476,0 2.61451,-0.134297 3.47851,-0.779297 0.863,-0.644 1.21485,-1.744016 1.21485,-3.041016 V 7.1011184 h 1.01562 V 22.108931 c 0,1.979 -1.56978,3.550781 -3.55078,3.550781 H 44.325884 c -1.979,0 -3.57422,-1.570781 -3.57422,-3.550781 z m 3.21289,29.1367186 c -5.133,10e-4 -9.84813,1.823282 -13.32813,4.863281 -3.481,3.032001 -5.74423,7.378375 -5.74023,12.234376 V 229.523 c -0.014,11.386 3.21351,20.74879 8.85351,28.09179 8.464,11.023 21.88224,17.36511 37.11524,21.03711 15.253,3.667 32.482076,4.69036 49.080076,4.69336 18.184,0 18.14239,10e-4 34.90039,0 23.109,-0.039 48.13306,-12.27464 67.66406,-29.30664 19.476,-17.072 33.70625,-39.03064 33.78125,-59.80664 V 53.3394 c 0.004,-4.855 -2.28363,-9.200422 -5.76563,-12.232422 -3.481,-3.041 -8.19512,-4.863234 -13.32812,-4.865234 H 43.966504 Z m -0.004,1.556641 h 0.004 193.232416 c 4.767,0.001 9.11864,1.689609 12.30664,4.474609 3.177,2.768 5.23052,6.697407 5.22852,11.066407 V 194.22612 c -0.074,20.066 -13.9871,41.73424 -33.2461,58.61524 -19.313,16.841 -44.08162,28.9044 -66.64062,28.9414 -16.758,0.002 -16.71835,0 -34.90235,0 -16.533,-0.004 -33.654836,-1.04797 -48.714836,-4.66797 -15.04,-3.627 -28.11063,-9.82912 -36.26563,-20.45312 -5.425,-7.066 -8.52567,-16.04767 -8.51367,-27.13867 V 53.335494 c -0.003,-4.369 2.02708,-8.298407 5.20508,-11.066407 3.188,-2.785 7.54064,-4.473609 12.30664,-4.474609 z m 0.004,3.671875 c -3.899,-10e-4 -7.40544,1.369781 -9.89844,3.550781 -2.489,2.189 -3.96184,5.118359 -3.96484,8.31836 V 84.5894 h -0.31446 v 0.779297 2.287109 0.777344 h 0.31446 V 229.523 c 0.013,10.427 2.8782,18.50373 7.7832,24.92773 4.915,6.42 11.96551,11.20924 20.47851,14.74024 17.01801,7.074 39.75008,8.93878 61.580076,8.92578 h 34.90235 c 21.239,0.039 45.46342,-11.58153 64.23242,-28.01953 18.827,-16.396 32.05842,-37.55628 31.98242,-55.86328 V 53.341353 c -0.003,-3.201 -1.47384,-6.13036 -3.96484,-8.318359 -2.493,-2.182001 -5.99844,-3.552782 -9.89844,-3.550782 H 43.964554 Z m -0.002,1.556641 h 0.002 193.232416 c 3.529,-10e-4 6.68195,1.241109 8.87695,3.162109 2.206,1.938 3.42569,4.422391 3.42969,7.150391 V 84.5894 H 31.655954 V 53.33354 c 0.003,-2.728 1.24813,-5.21039 3.45313,-7.15039 2.193,-1.912 5.33351,-3.162156 8.85351,-3.160156 z m -12.30664,43.125 H 249.4567 v 0.728515 H 31.655954 Z m 0,2.285156 H 249.50361 v 105.79297 c 0.072,17.547 -12.85027,38.50322 -31.44727,54.69922 -18.542,16.237 -42.54693,27.66691 -63.21093,27.62891 h -34.90235 c -21.739996,0.015 -44.346036,-1.88069 -60.998036,-8.80469 -8.335,-3.453 -15.11827,-8.101 -19.82227,-14.25 -4.702,-6.155 -7.4548,-13.83752 -7.4668,-23.97852 z m 199.222656,67.74414 c -0.64101,0.001 -1.30655,0.0304 -1.99805,0.0879 l 0.004,-0.004 c -11.068,0.926 -28.90678,8.94225 -56.55078,28.53125 l -0.0234,0.0254 h -0.0255 c -9.18,7.323 -20.64523,18.47825 -30.74023,29.28125 -10.095,10.804 -18.78622,21.2228 -22.44922,27.2168 -3.636,5.95 -5.39,11.22175 -3.625,15.46875 0.882,2.122 2.64673,3.88451 5.30273,5.22851 2.655,1.345 6.22666,2.29666 10.84766,2.84766 18.514,2.204 51.43715,-3.24063 74.91015,-23.64063 23.458,-20.391 35.66519,-52.83206 36.99219,-70.28906 0.334,-4.417 -0.44426,-8.32897 -2.82226,-11.04297 -2.07988,-2.37387 -5.33517,-3.71959 -9.82227,-3.71094 z m 0,1.55469 c 0.59638,-0.004 1.16512,0.0165 1.70313,0.0625 3.22599,0.275 5.45807,1.40528 6.95507,3.11328 1.994,2.277 2.74664,5.73144 2.43164,9.89844 -1.282,16.876 -13.41898,49.1927 -36.45898,69.2207 -23.028,20.016 -55.7248,25.43883 -73.7168,23.29883 -4.505,-0.537 -7.8965,-1.47722 -10.3125,-2.69922 -2.417,-1.222 -3.85226,-2.69078 -4.57226,-4.42578 -1.44,-3.468 -0.008,-8.29998 3.52734,-14.08398 3.507,-5.738 12.19491,-16.18327 22.25391,-26.94727 10.049,-10.754 21.47887,-21.87633 30.54687,-29.11133 0.009,-0.007 0.0174,-0.0174 0.0254,-0.0234 27.529,-19.506 45.30014,-27.34289 55.74414,-28.21289 0.6525,-0.055 1.27667,-0.0856 1.87305,-0.0899 z m -18.18945,21.5918 c -3.01308,0.0394 -6.357,0.58983 -9.9375,1.61133 -9.545,2.727 -20.73307,8.79039 -31.41407,17.52539 -10.682,8.734 -18.8432,18.49745 -23.4082,27.31445 -2.282,4.405 -3.68162,8.58578 -4.01562,12.30078 -0.336,3.715 0.4115,6.99761 2.4375,9.47461 2.026,2.479 5.1094,3.87911 8.8164,4.28711 3.709,0.41 8.06585,-0.14867 12.83985,-1.51367 9.547,-2.726 20.74768,-8.76891 31.42968,-17.50391 10.681,-8.735 18.82853,-18.51898 23.39454,-27.33398 2.283,-4.408 3.67671,-8.55258 4.01171,-12.26758 0.335,-3.713 -0.41054,-7.02786 -2.43554,-9.50586 -2.027,-2.479 -5.11332,-3.84586 -8.82032,-4.25586 -0.92725,-0.102 -1.89407,-0.14594 -2.89843,-0.13281 z m 0.0352,1.55469 c 0.9481,-0.0149 1.85224,0.0249 2.70899,0.11914 3.424,0.379 6.05248,1.60017 7.77148,3.70117 1.717,2.101 2.40666,4.93614 2.09766,8.36914 -0.31,3.433 -1.63752,7.45051 -3.85352,11.72852 -4.435,8.561 -12.45509,18.20031 -22.99609,26.82031 -10.541,8.62 -21.60014,14.58447 -30.86914,17.23047 -4.635,1.324 -8.81714,1.8155 -12.24414,1.4375 -3.426,-0.378 -6.06716,-1.61775 -7.78516,-3.71875 -1.718,-2.101 -2.39498,-4.91761 -2.08398,-8.34961 0.31,-3.433 1.61993,-7.4358 3.83593,-11.7168 4.434,-8.559 12.47663,-18.21298 23.01563,-26.83398 10.54,-8.621 21.57961,-14.57175 30.84961,-17.21875 3.47625,-0.99225 6.70845,-1.52365 9.55273,-1.56836 z m 54.06836,3.91406 c 0,38.657 -12.2497,57.13958 -36.8457,82.01758 -25.531,25.816 -65.01178,29.59961 -91.30078,29.59961 -13.054,0 -37.1418,-3.24796 -61.216796,-3.50196 -24.075,-0.255 -48.21459,2.43133 -61.55859,14.73633 l 1.04492,1.13672 c 12.731,-11.74 36.54033,-14.57627 60.48633,-14.32227 23.945996,0.252 47.930186,3.50196 61.242186,3.50196 26.439,0 66.35648,-3.7285 92.39648,-30.0625 24.688,-24.965 37.31055,-44.11647 37.31055,-83.10547 h -1.55664 z m -72.54297,23.03125 c -1.24,0 -2.26171,1.02072 -2.26172,2.26172 0,1.241 1.02172,2.26172 2.26172,2.26172 1.24,0 2.26172,-1.02072 2.26172,-2.26172 0,-1.241 -1.02172,-2.26172 -2.26172,-2.26172 z m 0,1.55664 c 0.398,0 0.70508,0.30508 0.70508,0.70508 0,0.398 -0.30708,0.70508 -0.70508,0.70508 -0.4,0 -0.70507,-0.30708 -0.70507,-0.70508 0,-0.4 0.30407,-0.70508 0.70507,-0.70508 z m -6.22656,3.45508 c -1.24,0 -2.26172,1.02072 -2.26172,2.26172 0,1.239 1.02172,2.26172 2.26172,2.26172 1.24,0 2.26172,-1.02172 2.26172,-2.26172 0,-1.24 -1.02072,-2.26172 -2.26172,-2.26172 z m 0,1.55664 c 0.398,0 0.70508,0.30508 0.70508,0.70508 0,0.397 -0.30708,0.70507 -0.70508,0.70507 -0.399,0 -0.70508,-0.30807 -0.70508,-0.70507 0,-0.4 0.30608,-0.70508 0.70508,-0.70508 z m -6.30273,3.42578 c -1.24,0 -2.26367,1.02072 -2.26367,2.26172 0,1.241 1.02267,2.26172 2.26367,2.26172 1.241,0 2.26172,-1.01972 2.26172,-2.26172 0,-1.242 -1.02072,-2.26172 -2.26172,-2.26172 z m 0,1.55664 c 0.398,0 0.70507,0.30608 0.70507,0.70508 0,0.398 -0.30707,0.70508 -0.70507,0.70508 -0.399,0 -0.70703,-0.30708 -0.70703,-0.70508 0,-0.4 0.30703,-0.70508 0.70703,-0.70508 z m -6.22852,3.45508 c -1.241,0 -2.26172,1.01972 -2.26172,2.26172 0,1.239 1.01972,2.26367 2.26172,2.26367 1.242,0 2.26367,-1.02367 2.26367,-2.26367 0,-1.243 -1.02267,-2.26172 -2.26367,-2.26172 z m 0,1.55469 c 0.399,0 0.70508,0.30803 0.70508,0.70703 0,0.398 -0.30608,0.70507 -0.70508,0.70508 -0.399,0 -0.70312,-0.30708 -0.70312,-0.70508 0,-0.399 0.30412,-0.70703 0.70312,-0.70703 z m 86.10352,19.1914 v 0.004 c 3.691,0 6.66406,2.97506 6.66406,6.66406 v 0.0234 c 0.043,1.125 -0.66488,4.1277 -1.92188,7.3457 -1.258,3.215 -3.03832,6.75672 -4.98632,9.38672 -1.86,2.516 -4.35239,3.42022 -7.15039,3.57422 -2.797,0.154 -5.85555,-0.49358 -8.56055,-1.14258 -0.57581,-0.13805 -1.04851,-0.3044 -1.44141,-0.48633 3.29728,0.18135 6.66095,0.008 8.39844,-0.17578 1.105,-0.116 2.04492,-0.42323 2.79492,-1.24023 0.754,-0.816 1.35811,-2.02128 2.28711,-3.98828 0.93,-1.97 2.27013,-4.93355 3.45313,-7.68555 1.182,-2.743 2.18968,-5.19049 2.55468,-6.39649 v -0.0254 c 0.184,-0.611 0.27075,-1.13051 0.21875,-1.60351 -0.053,-0.474 -0.26342,-0.9268 -0.60742,-1.2168 -0.347,-0.289 -0.72614,-0.40467 -1.11914,-0.38867 -0.394,0.016 -0.78714,0.1568 -1.11914,0.3418 -0.1,0.055 -0.52487,0.21684 -1.04687,0.33984 -0.52,0.123 -1.15722,0.22945 -1.82422,0.31445 -0.92206,0.11733 -1.9052,0.1628 -2.66407,0.125 0.1836,-0.28486 0.36077,-0.55494 0.54883,-0.84961 1.138,-1.78 3.20949,-2.91992 5.52149,-2.91992 z m 0.58398,4.22852 c 0.0838,-0.008 0.1266,0.005 0.12109,0 -0.006,-0.004 0.0288,0.0143 0.0488,0.19531 0.021,0.182 -0.002,0.4967 -0.14453,0.9707 -0.293,0.973 -1.32886,3.54235 -2.50586,6.27735 -1.179,2.734 -2.51369,5.69372 -3.42968,7.63672 -0.91801,1.944 -1.52154,3.03221 -2.01954,3.57421 -0.499,0.542 -0.84173,0.6783 -1.80273,0.7793 h -0.0215 c -1.95647,0.20461 -6.30997,0.40722 -9.94921,0.0273 -0.047,-0.14949 -0.08,-0.30273 -0.0937,-0.46093 -0.094,-1.04 0.55006,-2.3726 1.28906,-3.3086 1.45294,-1.83885 4.89843,-5.52856 10.90625,-14.68945 1.09747,0.19986 2.48342,0.13933 3.80664,-0.0293 0.717,-0.092 1.40809,-0.22723 1.99609,-0.36523 0.586,-0.139 1.0426,-0.27033 1.4336,-0.48633 0.1565,-0.0865 0.28148,-0.11347 0.36523,-0.12109 z m -2.78125,1.46093 c -2.592,7.02301 -5.82022,13.81716 -7.19922,15.78516 l 1.28906,0.90039 c 1.666,-2.378 4.74715,-9.04839 7.36915,-16.15039 z"
   style="fill:#ffffff" />











































































</svg>
