<?xml version="1.0" encoding="UTF-8" standalone="no"?>
<!-- Generator: Adobe Illustrator 13.0.0, SVG Export Plug-In . SVG Version: 6.00 Build 14948)  -->

<svg
   version="1.1"
   id="Layer_3"
   x="0px"
   y="0px"
   width="606.19226"
   height="358.27161"
   viewBox="0 0 606.19223 358.2716"
   enable-background="new 0 0 598.189 350.26"
   xml:space="preserve"
   sodipodi:docname="controller.svg"
   inkscape:version="1.1.2 (0a00cf5339, 2022-02-04)"
   xmlns:inkscape="http://www.inkscape.org/namespaces/inkscape"
   xmlns:sodipodi="http://sodipodi.sourceforge.net/DTD/sodipodi-0.dtd"
   xmlns="http://www.w3.org/2000/svg"
   xmlns:svg="http://www.w3.org/2000/svg"
   xmlns:rdf="http://www.w3.org/1999/02/22-rdf-syntax-ns#"
   xmlns:cc="http://creativecommons.org/ns#"
   xmlns:dc="http://purl.org/dc/elements/1.1/"
   xmlns:ns="&amp;ns_sfw;"><defs
   id="defs30" /><sodipodi:namedview
   id="namedview28"
   pagecolor="#ffffff"
   bordercolor="#666666"
   borderopacity="1.0"
   inkscape:pageshadow="2"
   inkscape:pageopacity="0.0"
   inkscape:pagecheckerboard="0"
   showgrid="false"
   fit-margin-top="0"
   fit-margin-left="0"
   fit-margin-right="0"
   fit-margin-bottom="0"
   inkscape:zoom="1.0263804"
   inkscape:cx="271.3419"
   inkscape:cy="63.816497"
   inkscape:window-width="1920"
   inkscape:window-height="996"
   inkscape:window-x="1920"
   inkscape:window-y="0"
   inkscape:window-maximized="1"
   inkscape:current-layer="Layer_3" />
<metadata
   id="metadata55">
	<rdf:RDF>
		<cc:Work
   rdf:about="">
			<dc:format>image/svg+xml</dc:format>
			<dc:type
   rdf:resource="http://purl.org/dc/dcmitype/StillImage" />
			
		</cc:Work>
	</rdf:RDF>
	<ns:sfw>
		<ns:slices />
		<ns:sliceSourceBounds
   x="661.403"
   y="364.363"
   width="598.19"
   height="350.265"
   bottomLeftOrigin="true" />
	</ns:sfw>
</metadata>
<path
   id="path884"
   style="fill:#000000"
   d="M 294.78142,0.02667914 C 252.17749,0.48678124 209.77809,7.5160724 168.90244,19.381243 144.62079,26.474892 120.78018,35.195605 97.920004,46.054099 89.827015,49.898368 81.95948,54.227739 74.491293,59.183185 56.947183,70.711355 41.031014,84.863554 28.164006,101.48792 16.804303,116.21568 8.0082772,133.08098 3.5287163,151.18651 c -3.64857919,14.62202 -4.43224789,29.92251 -2.5157781,44.86188 3.4415119,29.0491 13.4877018,57.18639 28.5048118,82.24537 11.999729,20.06169 27.011342,38.3368 44.455261,53.90585 7.927626,7.03898 16.377271,13.54946 25.554104,18.88428 5.220815,3.01472 10.799795,5.70997 16.844265,6.48285 11.46414,1.76534 23.60194,0.24075 33.87899,-5.29999 9.19406,-4.92698 16.49871,-12.94569 21.35421,-22.11067 3.0835,-5.78842 5.78972,-11.77028 8.61971,-17.68251 2.47404,-5.24189 4.96017,-10.48214 7.72315,-15.57971 0.55419,-1.00654 1.22908,-2.24177 1.85945,-3.31943 4.70436,-8.21925 10.44707,-15.98842 17.84758,-21.98135 0.74329,-0.59794 1.70227,-1.35081 2.56131,-1.96896 6.7236,-4.90407 14.44758,-8.20975 22.23093,-11.03367 3.82477,-1.35798 7.58393,-2.51823 11.52555,-3.58527 5.17316,-1.39734 10.46639,-2.56334 15.67244,-3.51171 6.6269,-1.19174 13.30801,-2.08534 20.01954,-2.63085 1.00555,-0.0648 2.28163,-0.16723 3.39376,-0.21135 5.29273,-0.22629 10.59331,-0.0715 15.88944,-0.11929 7.67392,0.0171 15.34963,-0.0469 23.02236,0.063 3.81659,0.14968 7.86528,0.53258 11.75821,0.98751 3.56876,0.42107 7.21334,0.94695 10.67062,1.54105 13.4839,2.31919 26.84186,5.8464 39.3346,11.49655 6.07147,2.76865 11.87064,6.23339 16.83232,10.72317 0.94697,0.82547 2.01192,1.87794 2.79595,2.64636 7.22346,7.24381 12.48974,16.13394 17.10886,25.189 5.08128,9.91329 9.38566,20.21056 14.66251,30.0244 4.7561,8.49176 11.58545,15.97094 20.15135,20.7123 9.82736,5.50305 21.47139,7.2783 32.58496,5.92119 4.05527,-0.42802 8.07031,-1.39573 11.76524,-3.14849 7.84714,-3.50453 14.97287,-8.40768 21.80037,-13.58036 13.99389,-10.72751 26.43977,-23.39359 37.44682,-37.14552 20.12269,-25.23399 35.14333,-54.72919 42.46753,-86.22696 2.52429,-10.92526 4.2687,-22.05928 4.76348,-33.26934 0.65874,-17.89807 -2.77918,-35.91509 -9.90923,-52.34098 C 587.65511,112.25878 574.21333,94.76542 558.42072,80.105308 546.17382,68.726914 532.50215,58.874363 517.81714,50.885725 508.40961,45.858018 498.65066,41.52069 488.81064,37.417689 462.45002,26.516986 435.13017,17.973054 407.32339,11.635305 373.39758,3.9445442 338.62389,-0.24463856 303.81619,0.01105414 c -3.01167,-0.00179 -6.02315,-0.01099799539 -9.03477,0.015625 z M 292.03533,6.149726 c 0.6532,0.3732036 1.0547,1.1820296 0.63144,1.8782455 -0.28274,0.7715131 -0.73236,0.781555 -0.63966,-0.1016559 -0.078,-0.6188893 -0.15598,-1.2377785 -0.23397,-1.8566678 0.0807,0.026693 0.16146,0.053386 0.24219,0.080078 z m 12.08203,3.853516 c 8.25018,-0.017139 16.42932,0.124727 24.64516,0.581082 8.03405,0.425145 15.98953,1.085893 24.02562,1.970847 14.07811,1.543735 28.22093,3.801543 42.09271,6.634821 23.02924,4.712822 45.71862,11.06759 67.87323,18.920672 7.53544,2.684163 15.27089,5.6499 22.69871,8.738647 9.55122,3.986474 19.01825,8.215632 28.13556,13.124218 13.36446,7.289276 25.78589,16.279662 37.03911,26.522943 5.33453,4.883701 10.38485,10.082362 15.0524,15.608328 -5.73931,-6.461032 -12.99831,-11.524867 -20.91507,-14.955858 -4.80653,-2.088017 -9.91415,-3.430613 -15.10774,-4.100047 -7.96168,-1.106802 -16.02676,-1.287353 -24.05336,-1.086669 -21.17346,0.665168 -42.35146,4.462766 -62.11941,12.181829 -13.52574,5.366549 -26.16137,12.719225 -38.31856,20.661415 -11.37018,7.53101 -22.29311,15.77902 -32.35109,25.0005 -5.20173,4.85418 -10.19722,10.00459 -14.27705,15.85444 -2.92737,4.23515 -4.98502,9.05195 -6.02178,14.09478 -2.00036,9.39129 -1.1903,19.19629 1.1601,28.44448 2.08899,8.10366 5.41602,15.99882 10.51071,22.68515 7.29393,9.39575 18.16693,15.76006 29.78427,18.08912 11.0422,2.26952 22.56448,1.124 33.30256,-2.08148 8.57204,-2.51294 16.65521,-6.54673 24.00064,-11.61005 7.87092,-5.31433 15.40124,-11.15447 23.65472,-15.88549 10.18059,-5.91214 20.99048,-10.66914 31.97421,-14.87133 11.47468,-4.37925 23.27748,-7.80906 35.08223,-11.16619 5.07373,-1.50917 10.23692,-2.962 14.83473,-5.66141 6.13741,-3.44513 11.33108,-8.56792 14.73577,-14.73802 4.57038,-8.16229 6.24886,-17.61643 6.46428,-26.87937 0.18511,-7.42474 -1.16384,-14.92379 -4.29349,-21.68052 -1.60527,-3.50288 -3.63866,-6.80614 -6.00956,-9.84215 7.96376,9.80906 14.7437,20.63113 19.6543,32.28906 4.52864,10.73092 7.48188,22.34769 8.41993,34.03755 0.40126,4.75831 0.47272,9.5419 0.26952,14.31206 -0.0341,0.52715 -0.0778,1.50166 -0.11199,2.03347 -0.40818,6.00185 -1.21855,11.97105 -2.23567,17.89817 -2.79646,15.89935 -7.67992,31.59102 -14.33581,46.36736 -4.07272,9.0684 -8.80968,17.83501 -14.10364,26.24787 -0.95588,1.49447 -2.02383,3.16203 -3.05768,4.70258 -10.60146,15.85464 -23.18067,30.41131 -37.4895,43.03085 -4.1434,3.64226 -8.54145,7.17918 -12.94891,10.37009 -3.08118,2.19033 -6.35561,4.37572 -9.53907,6.23633 -3.38204,1.92593 -6.86202,3.76906 -10.59657,4.91072 -3.4747,0.9183 -7.09277,1.18337 -10.67448,1.25359 -7.85221,0.0704 -15.80614,-1.83935 -22.47826,-6.05843 -4.15333,-2.58142 -7.75286,-5.9988 -10.70772,-9.88518 -0.51116,-0.67887 -1.17444,-1.5899 -1.70547,-2.39024 -3.11849,-4.66499 -5.3708,-9.82833 -7.83016,-14.85342 -5.76905,-12.13973 -11.20544,-24.56001 -18.98195,-35.59228 -5.91553,-8.35865 -13.31648,-15.76061 -22.11565,-21.06459 -7.16793,-4.35171 -14.97858,-7.53899 -22.90288,-10.22352 -14.77688,-4.92938 -30.18873,-7.81772 -45.68892,-9.19826 -5.08509,-0.46009 -10.19309,-0.4987 -15.29489,-0.44852 -9.72682,0.022 -19.45536,-0.0593 -29.18106,0.0551 -12.10262,0.52867 -24.1316,2.33805 -35.9351,5.03221 -12.36222,2.86143 -24.53918,6.86931 -35.77,12.83463 -8.71411,4.72122 -16.39341,11.28781 -22.50737,19.08123 -8.55378,10.78712 -14.31952,23.39112 -20.16046,35.76286 -2.29356,4.83899 -4.55134,9.66936 -7.02586,14.37712 -2.97265,5.43811 -6.87487,10.43131 -11.76937,14.2683 -0.41098,0.32261 -1.10546,0.84278 -1.64695,1.21776 -3.36192,2.34054 -7.10467,4.12312 -11.02883,5.29395 -0.45712,0.12789 -1.23613,0.35366 -1.83101,0.49665 -5.4513,1.34463 -11.14743,1.60569 -16.71782,0.96234 -0.3726,-0.0471 -1.19004,-0.1474 -1.72975,-0.23765 -2.42626,-0.30346 -4.78332,-0.99472 -7.00853,-2.00454 -0.35766,-0.17093 -1.07162,-0.47179 -1.56062,-0.70876 -7.27131,-3.54403 -13.970773,-8.15634 -20.316329,-13.14866 -1.965656,-1.5593 -4.045989,-3.26376 -6.007165,-4.93859 -15.233969,-13.15295 -28.657368,-28.62115 -39.774151,-45.4675 -2.09705,-3.17159 -4.1189,-6.42853 -6.008274,-9.65132 -4.621817,-7.86467 -8.780303,-16.13484 -12.30416,-24.46993 -3.150374,-7.46503 -5.864172,-15.11531 -8.078125,-22.91016 -0.254968,-0.94748 -0.56632,-2.00879 -0.819243,-2.98304 -1.057031,-3.95049 -1.980394,-7.91539 -2.795159,-11.9665 -1.163043,-5.83096 -2.066056,-11.8547 -2.682473,-17.84148 -0.136317,-1.38098 -0.25468,-2.6889 -0.332788,-4.00382 -0.8288009,-12.31603 0.388242,-24.77409 3.666772,-36.67782 0.355154,-1.26911 0.791076,-2.76266 1.218989,-4.10655 3.31051,-10.49766 8.19159,-20.47018 14.171636,-29.70009 0.993413,-1.51595 2.118632,-3.19267 3.216617,-4.73542 5.87921,-8.31051 12.639238,-15.979031 19.976743,-23.028247 0.514226,-0.490164 1.261112,-1.18948 1.864643,-1.759926 1.189276,-1.105148 2.363606,-2.16942 3.532045,-3.19328 13.180612,-11.641071 27.930768,-21.538878 43.831882,-29.069314 11.3111,-5.435182 22.91516,-10.246685 34.66596,-14.645439 9.49416,-3.536105 19.2629,-6.83723 28.95703,-9.794921 11.82314,-3.595925 23.7425,-6.778734 35.81633,-9.503907 10.03107,-2.276091 20.18425,-4.239211 30.38298,-5.868083 10.14176,-1.620566 20.46146,-2.925619 30.74401,-3.837209 5.32131,-0.476787 10.59511,-0.84896 15.95121,-1.128692 2.96862,-0.147083 6.09552,-0.278485 9.05572,-0.356772 5.5962,-0.1777465 11.19548,-0.177683 16.79389,-0.174478 z m 141.3418,40.322266 c -4.06736,0.06543 -7.77874,1.919219 -11.59193,3.102775 -12.07657,4.167663 -24.17938,8.26349 -36.23237,12.495771 -6.46976,2.659569 -11.04618,9.289337 -11.26359,16.279267 -0.30844,6.616997 3.25383,13.2546 8.97834,16.605602 4.89537,2.978007 11.18236,3.445877 16.4866,1.297147 13.71862,-4.738509 27.45692,-9.421697 41.15765,-14.209832 6.47749,-2.591295 11.09667,-9.154389 11.40163,-16.118108 0.40331,-6.775994 -3.27142,-13.622959 -9.20007,-16.956105 -2.93348,-1.706257 -6.34247,-2.5892 -9.73626,-2.496517 z m -303.15235,9.4375 C 123.81458,59.95767 105.41684,65.612103 90.038282,75.891291 73.523195,86.853265 60.497828,102.99348 53.353363,121.48995 c -7.953787,20.45505 -8.657762,43.64025 -1.894472,64.52442 5.505361,17.26331 16.024337,32.8704 29.914331,44.50059 13.064663,11.00704 29.089828,18.47945 45.949138,21.28531 18.36804,3.11514 37.63458,0.84478 54.71545,-6.622 17.53389,-7.60606 32.69956,-20.54135 42.98442,-36.6507 9.57201,-14.89266 14.89389,-32.46833 15.20574,-50.1686 0.37712,-18.05952 -4.41051,-36.20608 -13.76077,-51.67094 C 216.44307,90.004003 201.29149,76.447489 183.55911,68.407524 170.6669,62.537414 156.46976,59.5721 142.30681,59.763008 Z m 303.11133,7.048828 c 1.7071,0.04217 2.76131,2.357999 1.56446,3.630859 -0.86377,0.960074 -2.26073,1.008894 -3.38254,1.51668 -12.59962,4.319 -25.17947,8.702419 -37.7964,12.965191 -1.60232,0.277924 -3.09154,-1.55901 -2.34646,-3.054136 0.41066,-1.086406 1.59651,-1.36491 2.58152,-1.679502 12.96619,-4.446759 25.91613,-8.947505 38.897,-13.345889 0.15906,-0.03088 0.32061,-0.04375 0.48242,-0.0332 z m -301.88281,2.943359 c 17.03981,-0.03236 34.05835,5.094982 48.19788,14.615523 12.47106,8.336032 22.71817,19.961822 29.42321,33.380572 0.26401,0.5426 0.68209,1.37684 0.98421,2.04461 8.92524,18.97547 10.52184,41.23087 4.54316,61.31759 -0.15961,0.53272 -0.44371,1.44996 -0.60973,1.97806 -0.39712,1.21858 -0.83845,2.5053 -1.24828,3.59622 -5.08707,13.67021 -13.69934,26.00371 -24.7592,35.51078 -0.35817,0.30401 -0.98449,0.83545 -1.45625,1.22348 -0.78124,0.63845 -1.72286,1.38891 -2.43019,1.92858 -0.75674,0.58281 -1.70578,1.27366 -2.37137,1.76005 -2.9167,2.0715 -5.9581,3.96716 -9.10547,5.66797 -1.00247,0.53484 -2.23243,1.17804 -3.3466,1.70982 -0.69359,0.34757 -1.45577,0.68086 -2.10262,0.9894 -2.29935,1.04235 -4.82018,2.03718 -7.0918,2.83984 -15.69162,5.51604 -32.97579,6.31845 -49.13281,2.40039 -0.94456,-0.23547 -2.15175,-0.53845 -3.18871,-0.83679 -4.71008,-1.32648 -9.30178,-3.06696 -13.71559,-5.17883 -0.64379,-0.32285 -1.57571,-0.76351 -2.31771,-1.15813 -0.85847,-0.43734 -1.71116,-0.89638 -2.62299,-1.40897 -13.109503,-7.35046 -24.250727,-18.16502 -31.994842,-31.04618 -0.225811,-0.40133 -0.651809,-1.10497 -0.947594,-1.62943 -8.176677,-14.20621 -12.098798,-30.78935 -11.302406,-47.15182 0.03199,-0.48548 0.06259,-1.24731 0.09746,-1.73089 0.375525,-5.73805 1.342102,-11.43503 2.847852,-16.98396 0.194665,-0.68179 0.468568,-1.66691 0.713552,-2.45819 0.4005,-1.31478 0.836262,-2.636 1.268611,-3.84005 0.986451,-2.77917 2.164377,-5.61151 3.396951,-8.18128 1.107253,-2.34676 2.436311,-4.79362 3.695105,-6.92673 7.467613,-12.572293 18.16963,-23.187623 30.78125,-30.583979 0.387911,-0.223593 1.083041,-0.625257 1.597161,-0.912708 12.82311,-7.18567 27.50625,-10.942763 42.19776,-10.934948 z m -0.80273,9.597656 c -16.28159,0.120526 -32.46981,5.596214 -45.463839,15.412123 -14.065792,10.524916 -24.383318,25.978996 -28.567664,43.053836 -4.311394,17.3344 -2.425574,36.166 5.422337,52.22951 7.632756,15.8112 20.830042,28.85675 36.746986,36.27524 16.92672,7.96933 36.79353,9.43222 54.70646,4.03477 14.59841,-4.32656 27.81796,-13.12164 37.47472,-24.89024 8.76012,-10.60533 14.62635,-23.5838 16.69302,-37.18993 2.55475,-16.44687 -0.33099,-33.71723 -8.28435,-48.35598 -8.4759,-15.79059 -22.62543,-28.450849 -39.28276,-35.075311 -9.33123,-3.732329 -19.39678,-5.598693 -29.44491,-5.494018 z m 0.81054,9.996094 c 3.25693,-0.0094 6.70766,0.253735 9.80664,0.712891 1.08789,0.166655 2.00555,0.315349 3.12058,0.538682 13.87058,2.671397 26.80174,9.903192 36.35934,20.301392 5.62991,6.09593 10.1341,13.23138 13.18219,20.95094 0.15077,0.42072 0.45948,1.18052 0.65164,1.73819 4.48324,12.32622 5.1719,25.96431 2.10617,38.70712 -0.101,0.36429 -0.28767,1.15226 -0.43208,1.67718 -3.74721,14.08189 -12.31361,26.78368 -23.85881,35.6561 -10.53465,8.17877 -23.57606,13.05346 -36.89081,13.8059 -13.84477,0.87166 -27.94107,-2.66718 -39.6704,-10.08993 -11.714445,-7.33271 -21.086981,-18.3488 -26.362993,-31.12876 -3.777368,-9.10866 -5.519929,-19.05627 -5.046619,-28.90682 0.02928,-0.43455 0.05521,-1.14093 0.08827,-1.55896 0.248823,-3.76668 0.83748,-7.50831 1.722281,-11.17736 0.135635,-0.51811 0.344878,-1.37536 0.528536,-2.018 0.95372,-3.47006 2.200319,-6.85709 3.690214,-10.13239 0.201743,-0.41282 0.540959,-1.16354 0.814152,-1.69831 6.672491,-13.61774 18.148599,-24.78395 31.904709,-31.15219 8.81873,-4.135414 18.55537,-6.216502 28.28699,-6.225675 z m 366.33008,2.566406 c 3.25572,0.0069 6.60091,0.06802 9.76291,0.236692 5.20648,0.325099 10.44744,0.806466 15.49901,2.16662 7.28085,2.087284 14.0364,5.929727 19.67316,10.974657 6.12283,5.53018 10.72928,12.87807 12.38633,21.01052 0.34849,1.65448 0.58368,3.42681 0.70299,4.99664 0.34438,5.08476 -0.0389,10.21437 -0.96998,15.22042 -1.29759,6.79758 -4.18702,13.51486 -9.31099,18.30585 -4.04553,3.81702 -9.18474,6.27537 -14.50794,7.74637 -7.82226,2.39018 -15.87638,4.52045 -23.7172,7.05212 -16.54403,5.2501 -32.75388,11.74432 -47.91913,20.22846 -7.99219,4.51646 -15.46542,9.86707 -22.94043,15.17644 -3.49135,2.44561 -7.06495,4.7849 -10.81303,6.82076 -0.436,0.23092 -1.17878,0.63295 -1.74591,0.91136 -2.34491,1.20203 -4.78193,2.21398 -7.25213,3.1277 -0.52957,0.19136 -1.3809,0.48954 -2.03749,0.70605 -9.81653,3.22997 -20.45647,4.69454 -30.67185,2.60798 -9.86161,-1.9573 -19.08193,-7.54594 -24.90572,-15.80609 -3.38676,-4.92944 -5.71665,-10.52622 -7.3592,-16.25809 -1.68372,-5.96831 -2.56129,-12.19223 -2.3109,-18.39829 0.03,-0.57161 0.0769,-1.48317 0.14612,-2.18025 0.49675,-5.75249 2.27658,-11.50468 5.82535,-16.12483 4.9293,-6.67228 11.05052,-12.34948 17.28027,-17.78421 5.84075,-5.048 12.05304,-9.80326 18.30295,-14.22907 7.75237,-5.49103 15.77569,-10.60066 24.05078,-15.26758 1.08904,-0.59971 2.23247,-1.24173 3.38004,-1.85371 7.0216,-3.77705 14.35891,-7.16188 21.96722,-9.79004 9.35361,-3.262741 19.01335,-5.618493 28.78946,-7.199994 1.68815,-0.270417 3.45789,-0.531743 5.23828,-0.771485 7.6935,-1.034093 15.63484,-1.560988 23.45703,-1.625 z m 9.49414,2.583985 c -9.37787,0.228133 -18.59715,2.601997 -27.23144,6.185744 -18.28249,7.15406 -36.60715,14.23308 -54.53011,22.25965 -4.38058,1.95889 -8.64698,4.15435 -12.95097,6.27178 -13.11241,6.34676 -26.63463,12.16556 -38.4535,20.81144 -7.2217,5.30252 -13.82671,11.88449 -17.58007,20.13545 -3.64941,8.05496 -4.17294,17.35887 -2.06278,25.89919 2.45994,9.7276 8.8367,18.3425 17.31557,23.68065 9.14456,5.84637 20.57841,7.91728 31.20563,5.74912 8.95245,-1.65941 17.45228,-5.34959 25.04737,-10.33221 8.02007,-5.16255 15.43912,-11.12661 23.61239,-16.05776 4.91386,-3.03556 10.15177,-5.78161 15.32518,-8.15774 7.25202,-3.34188 14.94345,-6.28094 22.51589,-8.8663 11.43505,-3.93254 23.11843,-7.07766 34.62908,-10.7691 4.52891,-1.50607 9.14268,-2.99755 13.20609,-5.55832 7.78887,-5.05635 13.08861,-13.42834 15.24269,-22.37855 1.96354,-8.31094 0.97303,-17.2686 -2.75225,-24.95306 -4.02633,-8.56532 -11.12554,-15.65376 -19.7584,-19.559421 -7.09621,-3.278399 -14.99977,-4.555861 -22.78037,-4.360563 z m -377.30273,3.148437 c -14.04543,0.294044 -27.89785,5.872917 -38.22822,15.394107 -10.147694,9.25109 -16.916482,22.14555 -18.63037,35.78157 -1.763744,13.41778 1.243552,27.42308 8.481635,38.8712 7.573435,12.09908 19.666405,21.30365 33.393205,25.25799 14.42893,4.21537 30.47068,2.66302 43.76252,-4.38847 13.43479,-7.01372 23.95794,-19.4066 28.62581,-33.83308 4.84989,-14.74629 3.57126,-31.41614 -3.60894,-45.19488 -6.87874,-13.40874 -19.09309,-23.98748 -33.38993,-28.78416 -6.54897,-2.225808 -13.49229,-3.2676 -20.40571,-3.104277 z m 357.27148,11.257807 c -5.76977,5.71107 -9.41911,13.50211 -10.06046,21.59938 -0.063,0.51281 0.0693,1.50077 -0.48481,0.63479 -5.34293,-5.5918 -12.59474,-9.35826 -20.27309,-10.37089 10.35703,-4.168 20.81333,-8.24912 31.24805,-12.2832 -0.14323,0.13998 -0.28646,0.27995 -0.42969,0.41992 z m -373.07227,1.9336 c 0.0202,3.60374 0.0282,7.20865 -0.008,10.8125 0.007,1.31877 -0.24042,2.86483 -0.64933,4.21243 -1.95091,6.52349 -7.69665,11.77641 -14.39364,13.05905 4.45562,-4.74267 8.91573,-9.48113 13.38086,-14.21484 -4.24371,-1.82304 -8.49497,-3.62723 -12.75781,-5.4043 4.27127,-3.64725 9.17541,-6.54965 14.42773,-8.53906 z m 35.23829,0.19922 c 0.58937,0.24339 1.06187,0.4254 1.54766,0.64827 3.74619,1.63234 7.28812,3.73652 10.50702,6.25407 -4.18094,1.79578 -8.37438,3.56467 -12.63671,5.16016 -0.26134,-2.8111 -0.0304,-5.63891 -0.11653,-8.45742 0.001,-1.28959 0.0147,-2.57916 0.005,-3.86876 0.23112,0.0879 0.46224,0.17579 0.69336,0.26368 z m -10.69532,0.71679 c -0.0327,2.45547 0.0656,4.92274 -0.0494,7.37073 -0.0341,1.83863 0.0757,3.68653 0.0505,5.53003 0.0401,4.68286 -0.0921,9.37095 0.0809,14.05041 0.15087,1.52772 0.57137,3.03198 1.26563,4.40235 -4.96724,-3.27623 -11.8095,-3.40818 -16.85937,-0.23438 -0.63728,0.51172 -0.49879,0.2151 -0.1836,-0.32031 1.62964,-3.41738 1.06981,-7.29309 1.16247,-10.94805 -0.0167,-4.2647 0.0138,-8.53311 0.0459,-12.79515 -0.10473,-2.34431 -0.0134,-4.70501 -0.0443,-7.05563 4.84375,0 9.6875,0 14.53125,0 z m 373.02539,2.68946 c 6.74649,-0.0501 13.32148,3.85507 16.54697,9.7748 3.33562,5.95229 3.1278,13.71597 -0.62559,19.43238 -3.31104,5.18526 -9.24082,8.60398 -15.40873,8.72808 -6.0925,0.20711 -12.19162,-2.72524 -15.78528,-7.65899 -3.95828,-5.28918 -4.8538,-12.69092 -2.20785,-18.75252 2.34502,-5.53674 7.43375,-9.8423 13.33951,-11.07328 1.35998,-0.30042 2.74853,-0.44402 4.14097,-0.45047 z m -361.24609,11.08203 c 4.2387,3.99906 8.48421,7.98669 12.72852,11.98047 1.79397,-4.24879 3.60049,-8.49207 5.37695,-12.74805 3.6457,4.27156 6.55499,9.17209 8.54102,14.42578 -3.82233,0 -7.64694,0.0577 -11.46876,-0.0352 -6.51674,-0.38077 -12.40251,-4.81528 -15.21638,-10.60803 -0.6791,-1.40932 -1.19185,-2.90326 -1.47697,-4.44271 0.5052,0.47591 1.01041,0.95183 1.51562,1.42774 z m -57.42578,1.22461 c 1.66575,3.85856 3.26667,7.64313 4.74725,11.60807 0.55974,0.7789 -0.0466,0.84071 -0.75506,0.80208 -3.76653,0.0799 -7.5353,0.008 -11.302736,0.0274 1.728777,-4.58308 4.157236,-8.9026 7.173826,-12.76172 0.0456,0.10807 0.0911,0.21614 0.13672,0.32422 z m 330.26172,8.44336 c -4.5406,6.41614 -6.76344,14.41184 -6.18366,22.25063 0.19029,0.83142 -0.61832,-0.29149 -0.92367,-0.38402 -6.46236,-5.03317 -14.74367,-7.68711 -22.93173,-7.23185 9.88497,-5.34127 20.22659,-9.7689 30.22265,-14.89062 -0.0612,0.0853 -0.12239,0.17057 -0.18359,0.25586 z m 28.67187,0.9082 c 7.04799,0.02 13.83952,4.40625 16.80205,10.79466 2.92153,6.09617 2.27025,13.74398 -1.72978,19.2112 -1.13476,1.57809 -2.51564,2.97847 -4.07813,4.13476 -0.29583,0.22419 -0.97022,0.68918 -1.43554,0.97266 -5.30659,3.32328 -12.28543,3.69636 -17.92578,0.98633 -5.58484,-2.55212 -9.70797,-7.99441 -10.65433,-14.06166 -1.05667,-6.00517 1.03934,-12.45195 5.46264,-16.65695 3.56762,-3.52849 8.54343,-5.4915 13.55887,-5.381 z m -334,11.86133 c -2.86579,4.45241 -3.20694,10.3379 -0.98613,15.12926 0.38143,0.83483 0.83148,1.63947 1.35723,2.39222 -2.65913,-1.64774 -5.87312,-1.87537 -8.92188,-1.75976 -5.21219,0.01 -10.42824,0.007 -15.63776,-0.0445 -2.3482,0.10512 -4.7128,0.0134 -7.067314,0.0445 0,-4.84375 0,-9.6875 0,-14.53125 2.458154,0.0313 4.927504,-0.0628 7.378534,0.0474 1.85696,0.0337 3.72327,-0.0776 5.58512,-0.0496 4.57204,-0.0402 9.14963,0.10148 13.71798,-0.0877 1.67121,-0.1752 3.31311,-0.66526 4.79102,-1.46875 -0.0723,0.10938 -0.14453,0.21875 -0.2168,0.32813 z m 27.26368,0.0762 c 3.66272,1.62023 7.75241,1.05021 11.63554,1.15567 4.07469,-0.004 8.15041,-0.0379 12.22383,0.0865 0.76512,-0.21642 1.5937,-0.008 2.38398,-0.0899 1.54779,0 3.09558,0 4.64336,0 0,4.8444 0,9.68881 0,14.53321 -2.89581,-0.002 -5.79493,0.0184 -8.68618,-0.0412 -5.94017,0.13071 -11.88626,-0.0739 -17.82419,0.12081 -1.73962,0.15102 -3.45177,0.64485 -4.99353,1.46726 3.20325,-4.63865 3.5793,-11.02223 0.96154,-16.01247 -0.25055,-0.49987 -0.53488,-0.9825 -0.83459,-1.45433 0.16341,0.0781 0.32682,0.15625 0.49024,0.23438 z m -13.50782,2.53516 c 3.17457,0.0732 5.90549,3.12695 5.57169,6.29895 -0.17868,3.01853 -2.95881,5.6358 -6.0103,5.46674 -2.80772,-0.0157 -5.42234,-2.27345 -5.69786,-5.09376 -0.38149,-2.56779 1.09596,-5.28995 3.54272,-6.23248 0.81846,-0.33535 1.71057,-0.48693 2.59375,-0.43945 z m 354.74805,6.59961 c 4.5951,4.84507 10.59445,8.36335 17.0957,9.91406 -7.88165,2.38805 -15.74704,4.84694 -23.48437,7.67187 3.62745,-5.24757 5.80531,-11.50494 6.11523,-17.88281 0.0912,0.099 0.18229,0.19792 0.27344,0.29688 z m -91.45508,8.26953 c 6.63103,-0.0455 13.10204,3.72132 16.38006,9.47967 3.41733,5.84493 3.36999,13.53789 -0.19647,19.30744 -2.79935,4.6992 -7.90698,8.114 -13.19531,8.9082 -6.51822,1.1147 -13.51319,-1.51334 -17.66944,-6.66139 -4.21995,-5.07007 -5.47561,-12.40025 -3.16754,-18.58209 2.14208,-5.91758 7.3807,-10.63158 13.55392,-11.96588 1.40661,-0.33065 2.85137,-0.47189 4.29478,-0.48595 z m -272.63086,4.09765 c 4.53546,3.15098 10.73886,3.7112 15.73287,1.32183 0.72082,-0.33215 1.41098,-0.72849 2.07182,-1.16753 -1.74619,3.13181 -1.5258,6.82311 -1.51121,10.28281 -0.0151,4.71041 0.0585,9.42213 -0.0845,14.13125 0.19601,0.90225 0.0199,1.85842 0.0859,2.78203 0,1.42357 0,2.84714 0,4.27071 -4.84375,0 -9.6875,0 -14.53125,0 0.0202,-2.76835 -0.0539,-5.5439 0.0645,-8.30469 -0.17401,-6.02316 0.0569,-12.05479 -0.13927,-18.07631 -0.15804,-1.85117 -0.75547,-3.66304 -1.71034,-5.25572 z m 44.82617,4.16797 c 3.29481,0.0449 6.58969,0.003 9.88477,0.0176 -1.72743,4.57292 -4.15513,8.87895 -7.16211,12.73242 -1.8145,-4.19349 -3.54924,-8.34037 -5.15234,-12.63086 0.80732,-0.084 1.61849,-0.10988 2.42968,-0.11914 z m -79.32421,0.002 c 3.47181,0.0989 6.95655,-0.13945 10.42009,0.14384 7.64143,1.03175 14.14492,7.40196 15.5799,14.94015 -4.73902,-4.45962 -9.47986,-8.91731 -14.2207,-13.375 -1.81787,4.23802 -3.6215,8.48162 -5.39453,12.73828 -3.64136,-4.27281 -6.551511,-9.17012 -8.537107,-14.42187 0.717458,-0.007 1.434805,-0.0253 2.152347,-0.0254 z m 74.46093,1.77735 c -3.9861,4.24343 -7.97832,8.48111 -11.97265,12.71679 4.23479,1.81866 8.47676,3.61939 12.73047,5.39258 -4.26608,3.64527 -9.16507,6.55014 -14.41407,8.53516 -0.007,-3.79564 -0.0542,-7.59343 0.0296,-11.38874 0.35896,-6.44375 4.67551,-12.29579 10.36812,-15.15737 1.47336,-0.74695 3.05203,-1.28408 4.67262,-1.60233 -0.47135,0.5013 -0.9427,1.00261 -1.41406,1.50391 z m 267.5625,6.49414 c 5.19562,4.17897 11.60493,6.85922 18.24805,7.50781 -7.48124,4.43003 -14.46262,9.62496 -21.57758,14.60509 -2.18461,1.51333 -4.40289,2.9798 -6.69,4.33436 5.97896,-6.19331 9.55895,-14.65895 9.6869,-23.27976 0.0199,-1.17706 -0.008,-2.35538 -0.10487,-3.52883 0.14584,0.12044 0.29167,0.24089 0.4375,0.36133 z m -315.83789,7.98047 c 0.17262,3.37146 0.0305,6.74976 0.0758,10.12419 -0.008,0.6858 -0.008,1.37162 -0.004,2.05745 -4.57606,-1.72984 -8.89032,-4.15432 -12.74414,-7.16797 4.18457,-1.79777 8.38306,-3.5687 12.65039,-5.16406 l 0.0141,0.099 z" /><path
   id="path3"
   d="m 298.77752,4.0051948 c -91.93,0 -172.37875,31.9812502 -204.968751,48.5312502 -16.879,8.574 -41.04875,24.857 -60.09375,48.374995 -19.045,23.514 -32.95750009,54.32289 -29.0625001,91.71289 5,47.998 27.0685001,87.06416 50.5625001,114.66016 11.747,13.795 23.846,24.7167 34.375,32.4707 10.529001,7.754 19.425751,12.37175 25.093751,13.46875 8.126,1.572 18.21925,1.68355 28.03125,-1.93945 9.813,-3.622 19.29375,-11.037 26.09375,-24.375 13.446,-26.375 21.082,-52.288 48,-66 27.04,-13.775 62.08775,-16.375 69.59375,-16.375 h 33.375 c 7.507,0 42.55475,2.601 69.59375,16.375 l 0.18945,0.10156 c 26.761,13.738 34.3985,39.5943 47.8125,65.9043 6.8,13.338 16.28075,20.753 26.09375,24.375 9.813,3.622 19.90525,3.51245 28.03125,1.93945 5.667,-1.097 14.56375,-5.71475 25.09375,-13.46875 10.53,-7.754 22.628,-18.6747 34.375,-32.4707 23.495,-27.592 45.5625,-66.6562 50.5625,-114.6582 3.895,-37.392 -10.0175,-68.20171 -29.0625,-91.72071 C 553.42697,77.398445 529.25689,61.116304 512.38689,52.542304 479.79689,35.993305 399.34814,4.0110541 307.41814,4.0110541 h -8.625 z m 0.01,1.9960937 -0.01,0.00391 h 8.625 c 91.467,0 171.73954,31.8944995 204.06054,48.3124995 16.654,8.459 40.66075,24.61775 59.46875,47.843752 18.809,23.225 32.42771,53.457 28.59571,90.25 -4.949,47.506 -26.80271,86.24085 -50.09571,113.58985 -11.646,13.676 -23.63529,24.50225 -34.02929,32.15625 -10.396,7.656 -19.27925,12.12575 -24.28125,13.09375 -7.844,1.518 -17.59075,1.61925 -26.96875,-1.84375 -9.378,-3.461 -18.405,-10.47025 -25,-23.40625 -13.343,-26.171 -21.187,-52.769 -48.875,-66.875 -27.567,-14.043 -62.55,-16.59375 -70.5,-16.59375 h -33.375 c -7.947,0 -42.90675,2.5355 -70.46875,16.5625 l -0.0312,0.0312 c -27.69,14.105 -35.533,40.704 -48.875,66.875 -6.595,12.938 -15.622,19.94525 -25,23.40625 -9.377,3.461 -19.12475,3.36075 -26.96875,1.84375 -4.99,-0.971 -13.87353,-5.43885 -24.269532,-13.08985 -10.395,-7.66 -22.38525,-18.48015 -34.03125,-32.16015 -23.291,-27.35 -45.14475,-66.08985 -50.0937504,-113.58985 -3.833,-36.8 9.7857504,-67.0299 28.5937504,-90.25391 18.808,-23.224998 42.81475,-39.383748 59.46875,-47.843748 C 127.05774,37.894789 207.31728,6.0012885 298.78728,6.0012885 Z M 445.49236,54.325508 c -1.4212,0.04917 -2.85548,0.317187 -4.27148,0.804687 l -41.10157,14.125 c -7.55,2.6 -11.56875,10.85525 -8.96875,18.40625 2.602,7.551 10.85525,11.602 18.40625,9 l 41.09961,-14.15625 c 7.55,-2.601 11.57071,-10.85525 8.97071,-18.40625 -1.95,-5.662 -7.08975,-9.362 -12.71875,-9.75 -0.46925,-0.03225 -0.94229,-0.03983 -1.41602,-0.02344 z m 0.0723,2 c 0.40823,-0.01244 0.8145,-0.0041 1.21875,0.02344 4.854,0.329 9.2505,3.51025 10.9375,8.40625 2.249,6.529 -1.18975,13.59475 -7.71875,15.84375 l -41.08985,14.15625 c -6.529,2.25 -13.59475,-1.18875 -15.84375,-7.71875 -2.249,-6.53 1.19075,-13.627 7.71875,-15.875 l 41.08985,-14.15625 c 1.224,-0.4215 2.46279,-0.642375 3.6875,-0.679687 z m -0.53321,4.503906 c -0.813,0.01753 -1.64161,0.149781 -2.44336,0.425781 l -39.77929,13.71875 c -4.277,1.473 -6.5365,6.1595 -5.0625,10.4375 1.473,4.278 6.1595,6.569703 10.4375,5.095703 l 39.75,-13.720703 c 4.277,-1.473 6.56575,-6.1595 5.09375,-10.4375 -1.105,-3.208 -3.9955,-5.278 -7.1875,-5.5 h -0.002 c -0.26575,-0.0185 -0.53564,-0.02537 -0.80664,-0.01953 z m 0.0547,1.978516 c 0.19892,-0.0077 0.39806,-0.0031 0.5957,0.0098 2.416,0.163 4.62675,1.7455 5.46875,4.1875 1.121,3.256 -0.58775,6.78525 -3.84375,7.90625 l -39.78125,13.6875 c -3.255,1.122 -6.78525,-0.58675 -7.90625,-3.84375 -1.121,-3.255 0.59071,-6.78525 3.84571,-7.90625 l 39.79101,-13.6875 c 0.60975,-0.21 1.2216,-0.329984 1.83008,-0.353515 z m -301.55863,0.947265 c -51.187001,0 -92.687501,41.501495 -92.687501,92.687495 0,51.186 41.5015,92.71875 92.687501,92.71875 51.186,0 92.71875,-41.53275 92.71875,-92.71875 0,-51.186 -41.53275,-92.687495 -92.71875,-92.687495 z m 0,2 c 50.104,0 90.71875,40.582495 90.71875,90.687495 0,50.105 -40.61375,90.71875 -90.71875,90.71875 -50.105001,0 -90.687501,-40.61375 -90.687501,-90.71875 0,-50.105 40.5825,-90.687495 90.687501,-90.687495 z m 0,17.59375 c -40.373,0 -73.093751,32.719745 -73.093751,73.093745 0,40.373 32.719751,73.125 73.093751,73.125 40.373,0 73.125,-32.753 73.125,-73.125 0,-40.373 -32.752,-73.093745 -73.125,-73.093745 z m 0,2 c 39.293,0 71.125,31.800745 71.125,71.093745 0,39.293 -31.832,71.125 -71.125,71.125 -39.293,0 -71.093751,-31.832 -71.093751,-71.125 0,-39.293 31.800751,-71.093745 71.093751,-71.093745 z m 364,0.5625 c -4.069,0.077 -8.39725,0.2985 -12.90625,0.6875 -18.037,1.553 -38.999,5.86325 -58.375,15.031245 -14.463,6.843 -30.896,17.17775 -45,27.96875 -14.104,10.79 -25.868,21.99575 -31,30.84375 -5.152,8.884 -5.80375,20.51125 -3.84375,31.53125 1.96,11.021 6.52245,21.449 12.18945,28 11.238,12.996 30.5933,20.32475 55.2793,13.71875 12.328,-3.299 20.22225,-8.2085 28.40625,-13.9375 8.184,-5.729 16.672,-12.296 30.5,-19.125 27.706,-13.682 51.27175,-18.7785 64.09375,-22.9375 6.48,-2.103 13.2137,-5.741 18.3457,-12.375 5.13,-6.635 8.6385,-16.227 8.8125,-30.125 0.175,-14.02 -5.6543,-24.874 -13.4043,-32.625 -7.751,-7.750995 -17.389,-12.440995 -25.125,-14.374995 -5.822,-1.457 -15.76465,-2.51325 -27.97265,-2.28125 z m 0.0645,2.03125 c 12.094,-0.219 21.8933,0.8085 27.4043,2.1875 7.374,1.843 16.7727,6.39675 24.2207,13.843745 7.446,7.447 12.97855,17.7285 12.81055,31.1875 -0.169,13.577 -3.545,22.69446 -8.375,28.93946 -4.829,6.245 -11.147,9.6665 -17.375,11.6875 -12.568,4.075 -36.35875,9.23675 -64.21875,22.96875 l -0.15625,0.0937 c -13.991,6.91 -22.65225,13.56 -30.78125,19.25 -8.13,5.691 -15.693,10.43125 -27.75,13.65625 -24.083,6.445 -42.508,-0.67471 -53.25,-13.09571 -5.323,-6.155 -9.846,-16.32729 -11.75,-27.02929 -1.903,-10.701 -1.2113,-21.90146 3.5957,-30.18946 4.828,-8.324 16.502,-19.541 30.5,-30.25 13.998,-10.709 30.337,-20.989 44.625,-27.75 19.09,-9.033995 39.86575,-13.305745 57.71875,-14.843745 4.462,-0.384 8.75025,-0.58225 12.78125,-0.65625 z m 11.82617,10.556641 c -7.51763,0.195685 -15.37203,1.849484 -23.01953,4.818354 -23.014,8.93 -51.82675,20.25746 -65.34375,27.18946 -10.751,5.514 -25.02625,11.35275 -37.15625,19.09375 -12.13,7.741 -22.20625,17.45 -24.15625,30.75 -3.87,26.396 19.4457,45.88854 44.0957,41.31054 12.195,-2.265 20.464,-7.176 29,-13.125 8.536,-5.949 17.3853,-12.90954 31.0293,-19.56054 13.657,-6.658 28.184,-11.45646 40.875,-15.31446 12.69,-3.858 23.4887,-6.77729 29.8457,-9.77929 6.485,-3.063 12.376,-9.77671 15.25,-18.22071 2.874,-8.444 2.689,-18.633 -3.125,-28.5 -5.816,-9.871 -15.1417,-15.644 -25.8457,-17.749995 -2.676,-0.526 -5.427,-0.82025 -8.25,-0.90625 -1.05862,-0.032 -2.12527,-0.03381 -3.19922,-0.0059 z m 0.0527,2.001954 c 1.03639,-0.0276 2.06568,-0.0266 3.08593,0.004 2.721,0.081 5.3755,0.371 7.9375,0.875 10.246,2.016 18.983,7.41825 24.5,16.78125 5.519,9.366 5.67675,18.919 2.96875,26.875 -2.708,7.956 -8.34075,14.2865 -14.21875,17.0625 -6.007,2.837 -16.8385,5.756 -29.5625,9.625 -12.724,3.869 -27.36945,8.7005 -41.18945,15.4375 -13.833,6.744 -22.8485,13.851 -31.3125,19.75 -8.465,5.9 -16.37275,10.58225 -28.21875,12.78125 -23.433,4.352 -45.433,-13.91025 -41.75,-39.03125 1.827,-12.458 11.336,-21.771 23.25,-29.375 11.914,-7.603 26.122,-13.421 37,-19 13.272,-6.807 42.1805,-18.16575 65.1875,-27.09375 7.45325,-2.89188 15.0675,-4.49846 22.32227,-4.69141 z m -375.94337,1.1289 c -30.273,0 -54.812501,24.5405 -54.812501,54.8125 0,30.273 24.539501,54.8418 54.812501,54.8418 30.273,0 54.84375,-24.5688 54.84375,-54.8418 0,-30.273 -24.57075,-54.8125 -54.84375,-54.8125 z m 380.25,1.15625 c -16.901,0 -30.625,13.724 -30.625,30.625 0,16.901 13.724,30.625 30.625,30.625 16.9,0 30.625,-13.724 30.625,-30.625 0,-16.901 -13.724,-30.625 -30.625,-30.625 z m -380.25,0.84375 c 29.192,0 52.84375,23.6215 52.84375,52.8125 0,29.192 -23.65175,52.8418 -52.84375,52.8418 -29.192,0 -52.812501,-23.6498 -52.812501,-52.8418 0,-29.192 23.621501,-52.8125 52.812501,-52.8125 z m 380.25,1.15625 c 15.819,0 28.625,12.805 28.625,28.625 0,15.82 -12.806,28.625 -28.625,28.625 -15.82,0 -28.625,-12.805 -28.625,-28.625 0,-15.82 12.805,-28.625 28.625,-28.625 z m -390.18946,0.96875 c -1.82,0 -3.3125,1.4905 -3.3125,3.3125 v 13.15821 c -0.63137,11.29791 -10.39238,20.39156 -21.02539,20.96679 H 96.150566 c -1.821,0 -3.3125,1.49346 -3.3125,3.31446 v 19.90429 c 0,1.821 1.4915,3.31446 3.3125,3.31446 h 13.146484 c 11.26497,0.61663 20.34043,10.31147 20.97851,20.90625 v 13.21875 c 0,1.821 1.4915,3.3125 3.3125,3.3125 h 19.90625 c 1.82,0 3.3125,-1.4915 3.3125,-3.3125 v -12.85157 c 0.46908,-11.4309 10.29149,-20.6807 21.01172,-21.27343 h 13.11328 c 1.821,0 3.3125,-1.4915 3.3125,-3.3125 v -19.90625 c 0,-1.82 -1.4915,-3.3125 -3.3125,-3.3125 h -12.92187 c -11.40688,-0.50771 -20.6239,-10.32639 -21.20313,-21.03321 v -13.09375 c 0,-1.821 -1.49445,-3.3125 -3.31445,-3.3125 z m 0,2 h 19.90625 c 0.74,0 1.3125,0.5705 1.3125,1.3125 v 12.02735 h -0.0293 c 0,0.3675 0.011,0.73405 0.0293,1.09961 v 14.74804 c 0,2.366 0.58425,4.46575 2.03125,5.96875 1.447,1.502 3.666,2.28125 6.625,2.28125 h 14.44532 c 0.34037,0.0151 0.68145,0.0274 1.02539,0.0274 v -0.0274 h 11.99804 c 0.741,0 1.3125,0.57446 1.3125,1.31446 v 19.90429 c 0,0.739 -0.5715,1.31446 -1.3125,1.31446 h -12.02343 v -0.0312 c -0.39232,0 -0.78376,0.0104 -1.17383,0.0312 h -14.30274 c -2.893,0 -5.14975,0.8645 -6.59375,2.4375 -1.443,1.572 -2.03125,3.7505 -2.03125,6.1875 v 14.62109 c -0.0111,0.29218 -0.0234,0.58412 -0.0234,0.87891 h 0.0234 v 12 c 0,0.742 -0.5705,1.3125 -1.3125,1.3125 h -19.90625 c -0.74,0 -1.3125,-0.5705 -1.3125,-1.3125 v -12.03125 h 0.0391 c 0,-0.42521 -0.0146,-0.84896 -0.0391,-1.27149 V 176.2591 c 0,-2.557 -0.87825,-4.7217 -2.40625,-6.2207 -1.528,-1.499 -3.68,-2.3125 -6.125,-2.3125 h -14.41406 c -0.38836,-0.0197 -0.77883,-0.0312 -1.17187,-0.0312 v 0.0312 H 96.150566 c -0.738,0 -1.3125,-0.5725 -1.3125,-1.3125 v -19.90625 c 0,-0.739 0.5725,-1.3125 1.3125,-1.3125 h 12.033204 v 0.0273 c 0.34335,0 0.68567,-0.0114 1.02734,-0.0273 h 14.5332 c 2.545,0 4.70675,-0.7405 6.21875,-2.1875 1.511,-1.446 2.3125,-3.54446 2.3125,-6.06446 v -14.63086 c 0.0223,-0.41265 0.0332,-0.82812 0.0332,-1.24609 h -0.0332 v -11.99805 c 0,-0.742 0.5735,-1.3135 1.3125,-1.3125 z m 390.18946,0.68946 c -13.771,0 -24.9375,11.19775 -24.9375,24.96875 0,13.771 11.1665,24.9707 24.9375,24.9707 13.771,0 24.96875,-11.1997 24.96875,-24.9707 0,-13.771 -11.19775,-24.96875 -24.96875,-24.96875 z m 0,2 c 12.689,0 22.96875,10.27875 22.96875,22.96875 0,12.69 -10.27875,22.9707 -22.96875,22.9707 -12.69,0 -22.9375,-10.2807 -22.9375,-22.9707 0,-12.69 10.2465,-22.96875 22.9375,-22.96875 z m -345.5586,9.87109 -1.125,0.46875 -8.75,3.71875 -0.71875,0.28125 0.5625,0.53125 5.15625,4.84375 0.53125,0.5 0.2793,-0.65625 3.5957,-8.5625 z m -70.81054,1.46875 0.46875,1.125 3.71875,8.75 0.28125,0.7207 0.53125,-0.56445 4.84375,-5.15625 0.5,-0.5293 -0.65625,-0.28125 -8.5625,-3.59375 z m 68.96679,0.40625 -2.875,6.75 -4.06445,-3.84375 z m -67.09179,1.4375 6.75,2.875 -3.84375,4.0625 z m 354.49414,0.81641 c -16.9,0 -30.625,13.69375 -30.625,30.59375 0,16.9 13.725,30.625 30.625,30.625 16.899,0 30.59375,-13.726 30.59375,-30.625 0,-16.899 -13.69375,-30.59375 -30.59375,-30.59375 z m 0,2 c 15.818,0 28.59375,12.77375 28.59375,28.59375 0,15.819 -12.77375,28.625 -28.59375,28.625 -15.82,0 -28.625,-12.807 -28.625,-28.625 0,-15.818 12.806,-28.59375 28.625,-28.59375 z m 0,3.65039 c -13.771,0 -24.96875,11.1665 -24.96875,24.9375 0,13.771 11.19675,24.96875 24.96875,24.96875 13.771,0 24.93945,-11.19775 24.93945,-24.96875 0,-13.771 -11.16845,-24.9375 -24.93945,-24.9375 z m -306.97071,0.36132 c 2.4648,5.55451 7.00495,10.21636 12.66602,12.73829 h -6.00977 c -2.622,0 -4.2085,-0.6705 -5.1875,-1.6875 -0.979,-1.016 -1.46875,-2.50846 -1.46875,-4.56446 z m -26.53125,0.0879 v 6.39843 c 0,2.118 -0.6225,3.606 -1.6875,4.625 -1.065,1.019 -2.6687,1.625 -4.8457,1.625 h -6.19922 c 5.54897,-2.4622 10.20862,-6.99537 12.73242,-12.64843 z m 333.50196,1.55078 c 12.689,0 22.93945,10.2465 22.93945,22.9375 0,12.69 -10.24845,22.96875 -22.93945,22.96875 -12.691,0 -22.96875,-10.27875 -22.96875,-22.96875 0,-12.69 10.27875,-22.9375 22.96875,-22.9375 z m -320.25,12.4707 c -6.563,0 -11.875,5.312 -11.875,11.875 0,6.563 5.312,11.90625 11.875,11.90625 6.563,0 11.90625,-5.34325 11.90625,-11.90625 0,-6.563 -5.34325,-11.875 -11.90625,-11.875 z m 0,2 c 5.482,0 9.90625,4.393 9.90625,9.875 0,5.482 -4.42425,9.90625 -9.90625,9.90625 -5.482,0 -9.875,-4.42425 -9.875,-9.90625 0,-5.482 4.393,-9.875 9.875,-9.875 z m 263.56054,7.21875 c -16.9,0 -30.625,13.725 -30.625,30.625 0,16.899 13.725,30.625 30.625,30.625 16.9,0 30.625,-13.726 30.625,-30.625 0,-16.9 -13.725,-30.625 -30.625,-30.625 z m 0,2 c 15.819,0 28.625,12.806 28.625,28.625 0,15.818 -12.806,28.625 -28.625,28.625 -15.818,0 -28.625,-12.807 -28.625,-28.625 0,-15.819 12.806,-28.625 28.625,-28.625 z m 0,3.66016 c -13.77,0 -24.9375,11.19775 -24.9375,24.96875 0,13.77 11.1665,24.9707 24.9375,24.9707 13.771,0 24.96875,-11.1997 24.96875,-24.9707 0,-13.771 -11.19775,-24.96875 -24.96875,-24.96875 z m 0,2 c 12.69,0 22.96875,10.27875 22.96875,22.96875 0,12.689 -10.27775,22.9707 -22.96875,22.9707 -12.689,0 -22.9375,-10.2807 -22.9375,-22.9707 0,-12.69 10.2475,-22.96875 22.9375,-22.96875 z m -289.45507,8.28125 h 6.11132 c 2.021,0 3.638,0.62775 4.75,1.71875 1.112,1.091 1.78125,2.6895 1.78125,4.8125 v 6.17968 c -2.46515,-5.54063 -6.99525,-10.19103 -12.64257,-12.71093 z m 45.79882,0 h 6.11133 c -5.55405,2.46593 -10.21542,7.00649 -12.73633,12.66796 v -6.04296 c 0,-2.115 0.52725,-3.74975 1.53125,-4.84375 1.003,-1.094 2.57675,-1.78125 5.09375,-1.78125 z m 11.78711,10.80859 -0.53125,0.56445 -4.84375,5.15625 -0.5,0.5293 0.65625,0.28125 8.5625,3.59375 1.125,0.4707 -0.46875,-1.125 -3.71875,-8.75 z m -62,1.7207 -0.28125,0.65625 -3.59375,8.5625 -0.46875,1.125 1.125,-0.46875 8.75,-3.71875 0.71875,-0.28125 -0.56445,-0.53125 -5.1543,-4.84375 z m 61.65625,0.0937 2.9375,6.9375 -6.75,-2.875 z m -61.28125,1.625 4.0625,3.8125 -6.9375,2.93946 z"
   style="fill:#ffffff" />























</svg>
