<?xml version="1.0" encoding="UTF-8" standalone="no"?>
<!-- Generator: Adobe Illustrator 16.0.3, SVG Export Plug-In . SVG Version: 6.00 Build 0)  -->

<svg
   version="1.1"
   id="Layer_1"
   x="0px"
   y="0px"
   width="568.929px"
   height="116.145px"
   viewBox="-1 -1 568.929 116.145"
   enable-background="new -1 -1 568.929 116.145"
   xml:space="preserve"
   sodipodi:docname="system_color.svg"
   inkscape:version="1.1.2 (0a00cf5339, 2022-02-04)"
   xmlns:inkscape="http://www.inkscape.org/namespaces/inkscape"
   xmlns:sodipodi="http://sodipodi.sourceforge.net/DTD/sodipodi-0.dtd"
   xmlns="http://www.w3.org/2000/svg"
   xmlns:svg="http://www.w3.org/2000/svg"><defs
   id="defs234">
	
	
	
		<linearGradient
   id="path14_1_"
   gradientUnits="userSpaceOnUse"
   x1="308.14401"
   y1="1410.9641"
   x2="308.14401"
   y2="1515.9807"
   gradientTransform="translate(-24.4248,-1406.4004)">
		<stop
   offset="0"
   style="stop-color:#D9DDE9"
   id="stop6" />
		<stop
   offset="0.39"
   style="stop-color:#777489"
   id="stop8" />
		<stop
   offset="0.98"
   style="stop-color:#D9DDE9"
   id="stop10" />
	</linearGradient>
	
	
	
	
	
	
	
	
	

		
			<linearGradient
   id="polygon37_2_"
   gradientUnits="userSpaceOnUse"
   x1="220.79491"
   y1="1450.0256"
   x2="270.3067"
   y2="1499.5374"
   gradientTransform="translate(-23.4248,-1405.4004)">
			<stop
   offset="0"
   style="stop-color:#D9DDE9"
   id="stop15" />
			<stop
   offset="0.39"
   style="stop-color:#777489"
   id="stop17" />
			<stop
   offset="0.98"
   style="stop-color:#D9DDE9"
   id="stop19" />
		</linearGradient>
		
		
			<linearGradient
   id="polygon37_3_"
   gradientUnits="userSpaceOnUse"
   x1="221.6904"
   y1="1450.804"
   x2="269.7215"
   y2="1498.8352"
   gradientTransform="translate(-24.4248,-1406.4004)">
			<stop
   offset="0"
   style="stop-color:#000000"
   id="stop23" />
			<stop
   offset="0.11"
   style="stop-color:#181C4E"
   id="stop25" />
			<stop
   offset="0.22"
   style="stop-color:#181818"
   id="stop27" />
			<stop
   offset="0.34"
   style="stop-color:#181C4E"
   id="stop29" />
			<stop
   offset="0.47"
   style="stop-color:#000000"
   id="stop31" />
			<stop
   offset="0.59"
   style="stop-color:#181C4E"
   id="stop33" />
			<stop
   offset="0.72"
   style="stop-color:#000000"
   id="stop35" />
			<stop
   offset="0.84"
   style="stop-color:#181C4E"
   id="stop37" />
			<stop
   offset="0.98"
   style="stop-color:#000000"
   id="stop39" />
		</linearGradient>
		
	
		
			<linearGradient
   id="polygon100_2_"
   gradientUnits="userSpaceOnUse"
   x1="141.2285"
   y1="1450.637"
   x2="190.76109"
   y2="1500.1694"
   gradientTransform="translate(-24.4248,-1406.4004)">
			<stop
   offset="0"
   style="stop-color:#D9DDE9"
   id="stop105" />
			<stop
   offset="0.39"
   style="stop-color:#777489"
   id="stop107" />
			<stop
   offset="0.98"
   style="stop-color:#D9DDE9"
   id="stop109" />
		</linearGradient>
		
		
			<linearGradient
   id="polygon100_3_"
   gradientUnits="userSpaceOnUse"
   x1="142.0806"
   y1="1451.468"
   x2="190.20641"
   y2="1499.5938"
   gradientTransform="translate(-24.4248,-1406.4004)">
			<stop
   offset="0"
   style="stop-color:#000000"
   id="stop113" />
			<stop
   offset="0.11"
   style="stop-color:#181C4E"
   id="stop115" />
			<stop
   offset="0.22"
   style="stop-color:#181818"
   id="stop117" />
			<stop
   offset="0.34"
   style="stop-color:#181C4E"
   id="stop119" />
			<stop
   offset="0.47"
   style="stop-color:#000000"
   id="stop121" />
			<stop
   offset="0.59"
   style="stop-color:#181C4E"
   id="stop123" />
			<stop
   offset="0.72"
   style="stop-color:#000000"
   id="stop125" />
			<stop
   offset="0.84"
   style="stop-color:#181C4E"
   id="stop127" />
			<stop
   offset="0.98"
   style="stop-color:#000000"
   id="stop129" />
		</linearGradient>
		
	
		
			<linearGradient
   id="polygon121_2_"
   gradientUnits="userSpaceOnUse"
   x1="64.992203"
   y1="1454.7668"
   x2="113.8675"
   y2="1503.6422"
   gradientTransform="translate(-24.4248,-1406.4004)">
			<stop
   offset="0"
   style="stop-color:#D9DDE9"
   id="stop135" />
			<stop
   offset="0.39"
   style="stop-color:#777489"
   id="stop137" />
			<stop
   offset="0.98"
   style="stop-color:#D9DDE9"
   id="stop139" />
		</linearGradient>
		
		
			<linearGradient
   id="polygon121_3_"
   gradientUnits="userSpaceOnUse"
   x1="65.686996"
   y1="1455.4641"
   x2="113.1985"
   y2="1502.9756"
   gradientTransform="translate(-24.4248,-1406.4004)">
			<stop
   offset="0"
   style="stop-color:#000000"
   id="stop143" />
			<stop
   offset="0.11"
   style="stop-color:#181C4E"
   id="stop145" />
			<stop
   offset="0.22"
   style="stop-color:#181818"
   id="stop147" />
			<stop
   offset="0.34"
   style="stop-color:#181C4E"
   id="stop149" />
			<stop
   offset="0.47"
   style="stop-color:#000000"
   id="stop151" />
			<stop
   offset="0.59"
   style="stop-color:#181C4E"
   id="stop153" />
			<stop
   offset="0.72"
   style="stop-color:#000000"
   id="stop155" />
			<stop
   offset="0.84"
   style="stop-color:#181C4E"
   id="stop157" />
			<stop
   offset="0.98"
   style="stop-color:#000000"
   id="stop159" />
		</linearGradient>
		
	
		
			<linearGradient
   id="polygon79_2_"
   gradientUnits="userSpaceOnUse"
   x1="300.49951"
   y1="1450.3645"
   x2="350.30829"
   y2="1500.1731"
   gradientTransform="translate(-24.4248,-1406.4004)">
			<stop
   offset="0"
   style="stop-color:#D9DDE9"
   id="stop75" />
			<stop
   offset="0.39"
   style="stop-color:#777489"
   id="stop77" />
			<stop
   offset="0.98"
   style="stop-color:#D9DDE9"
   id="stop79" />
		</linearGradient>
		
		
			<linearGradient
   id="polygon79_3_"
   gradientUnits="userSpaceOnUse"
   x1="301.6196"
   y1="1451.4602"
   x2="349.57809"
   y2="1499.4187"
   gradientTransform="translate(-24.4248,-1406.4004)">
			<stop
   offset="0"
   style="stop-color:#000000"
   id="stop83" />
			<stop
   offset="0.11"
   style="stop-color:#181C4E"
   id="stop85" />
			<stop
   offset="0.22"
   style="stop-color:#181818"
   id="stop87" />
			<stop
   offset="0.34"
   style="stop-color:#181C4E"
   id="stop89" />
			<stop
   offset="0.47"
   style="stop-color:#000000"
   id="stop91" />
			<stop
   offset="0.59"
   style="stop-color:#181C4E"
   id="stop93" />
			<stop
   offset="0.72"
   style="stop-color:#000000"
   id="stop95" />
			<stop
   offset="0.84"
   style="stop-color:#181C4E"
   id="stop97" />
			<stop
   offset="0.98"
   style="stop-color:#000000"
   id="stop99" />
		</linearGradient>
		
	
		
		
			<linearGradient
   id="polygon142_2_"
   gradientUnits="userSpaceOnUse"
   x1="350.52289"
   y1="-651.39972"
   x2="422.81589"
   y2="-651.39972"
   gradientTransform="matrix(1,0,0,-1,0.0352,-577.9663)">
			<stop
   offset="0"
   style="stop-color:#D9DDE9"
   id="stop167" />
			<stop
   offset="0.39"
   style="stop-color:#777489"
   id="stop169" />
			<stop
   offset="0.98"
   style="stop-color:#D9DDE9"
   id="stop171" />
		</linearGradient>
		
		
			<linearGradient
   id="polygon142_3_"
   gradientUnits="userSpaceOnUse"
   x1="381.4263"
   y1="1450.1321"
   x2="430.44299"
   y2="1499.1486"
   gradientTransform="translate(-24.4248,-1406.4004)">
			<stop
   offset="0"
   style="stop-color:#000000"
   id="stop175" />
			<stop
   offset="0.11"
   style="stop-color:#181C4E"
   id="stop177" />
			<stop
   offset="0.22"
   style="stop-color:#181818"
   id="stop179" />
			<stop
   offset="0.34"
   style="stop-color:#181C4E"
   id="stop181" />
			<stop
   offset="0.47"
   style="stop-color:#000000"
   id="stop183" />
			<stop
   offset="0.59"
   style="stop-color:#181C4E"
   id="stop185" />
			<stop
   offset="0.72"
   style="stop-color:#000000"
   id="stop187" />
			<stop
   offset="0.84"
   style="stop-color:#181C4E"
   id="stop189" />
			<stop
   offset="0.98"
   style="stop-color:#000000"
   id="stop191" />
		</linearGradient>
		
	
		
			<linearGradient
   id="rect58_2_"
   gradientUnits="userSpaceOnUse"
   x1="449.50931"
   y1="1461.4338"
   x2="499.7514"
   y2="1514.8802"
   gradientTransform="translate(-24.4248,-1406.4004)">
			<stop
   offset="0"
   style="stop-color:#D9DDE9"
   id="stop45" />
			<stop
   offset="0.39"
   style="stop-color:#777489"
   id="stop47" />
			<stop
   offset="0.98"
   style="stop-color:#D9DDE9"
   id="stop49" />
		</linearGradient>
		
		
			<linearGradient
   id="rect58_3_"
   gradientUnits="userSpaceOnUse"
   x1="450.21039"
   y1="1462.1799"
   x2="498.41599"
   y2="1513.46"
   gradientTransform="translate(-24.4248,-1406.4004)">
			<stop
   offset="0"
   style="stop-color:#000000"
   id="stop53" />
			<stop
   offset="0.11"
   style="stop-color:#181C4E"
   id="stop55" />
			<stop
   offset="0.22"
   style="stop-color:#181818"
   id="stop57" />
			<stop
   offset="0.34"
   style="stop-color:#181C4E"
   id="stop59" />
			<stop
   offset="0.47"
   style="stop-color:#000000"
   id="stop61" />
			<stop
   offset="0.59"
   style="stop-color:#181C4E"
   id="stop63" />
			<stop
   offset="0.72"
   style="stop-color:#000000"
   id="stop65" />
			<stop
   offset="0.84"
   style="stop-color:#181C4E"
   id="stop67" />
			<stop
   offset="0.98"
   style="stop-color:#000000"
   id="stop69" />
		</linearGradient>
		
	
		
		
			<linearGradient
   id="polygon163_2_"
   gradientUnits="userSpaceOnUse"
   x1="491.6362"
   y1="1448.9846"
   x2="542.54639"
   y2="1499.8948"
   gradientTransform="translate(-24.4248,-1406.4004)">
			<stop
   offset="0"
   style="stop-color:#D9DDE9"
   id="stop199" />
			<stop
   offset="0.39"
   style="stop-color:#777489"
   id="stop201" />
			<stop
   offset="0.98"
   style="stop-color:#D9DDE9"
   id="stop203" />
		</linearGradient>
		
		
			<linearGradient
   id="polygon163_3_"
   gradientUnits="userSpaceOnUse"
   x1="492.78171"
   y1="1450.1321"
   x2="541.79901"
   y2="1499.1493"
   gradientTransform="translate(-24.4248,-1406.4004)">
			<stop
   offset="0"
   style="stop-color:#000000"
   id="stop207" />
			<stop
   offset="0.11"
   style="stop-color:#181C4E"
   id="stop209" />
			<stop
   offset="0.22"
   style="stop-color:#181818"
   id="stop211" />
			<stop
   offset="0.34"
   style="stop-color:#181C4E"
   id="stop213" />
			<stop
   offset="0.47"
   style="stop-color:#000000"
   id="stop215" />
			<stop
   offset="0.59"
   style="stop-color:#181C4E"
   id="stop217" />
			<stop
   offset="0.72"
   style="stop-color:#000000"
   id="stop219" />
			<stop
   offset="0.84"
   style="stop-color:#181C4E"
   id="stop221" />
			<stop
   offset="0.98"
   style="stop-color:#000000"
   id="stop223" />
		</linearGradient>
		
	</defs><sodipodi:namedview
   id="namedview232"
   pagecolor="#ffffff"
   bordercolor="#666666"
   borderopacity="1.0"
   inkscape:pageshadow="2"
   inkscape:pageopacity="0.0"
   inkscape:pagecheckerboard="0"
   showgrid="false"
   inkscape:zoom="1.3455106"
   inkscape:cx="233.74027"
   inkscape:cy="133.77821"
   inkscape:window-width="1920"
   inkscape:window-height="995"
   inkscape:window-x="0"
   inkscape:window-y="0"
   inkscape:window-maximized="1"
   inkscape:current-layer="Layer_1" />
<path
   id="polygon4"
   style="fill:#ffffff;stroke:none"
   d="M 239.94727 1 L 220.92383 33.720703 L 35.369141 33.720703 L 1 53.1875 L 1 95.677734 L 35.369141 115.14453 L 533.56055 115.14453 L 567.92969 95.677734 L 567.92969 53.189453 L 533.56055 33.720703 L 348.76758 33.720703 L 329.74414 1 L 239.94727 1 z M 315.95703 10.322266 C 318.57403 10.322266 320.78475 12.07275 321.46875 14.46875 L 328.59961 36.193359 L 314.49414 36.193359 L 314.49414 32.962891 L 323.97461 32.962891 L 317.93359 15.216797 C 317.67259 14.257797 316.88998 13.556641 315.95898 13.556641 C 315.03898 13.556641 314.25609 14.257797 313.99609 15.216797 L 306.84961 36.195312 L 303.91602 36.195312 L 303.32812 36.195312 L 291.27734 36.195312 C 287.86934 36.195312 285.10547 33.432437 285.10547 30.023438 L 285.10547 17.087891 C 285.10547 13.678891 287.86934 10.908203 291.27734 10.908203 L 303.91602 10.908203 L 303.91602 14.4375 L 291.57227 14.4375 C 289.94527 14.4375 288.63472 15.754047 288.63672 17.373047 L 288.63672 29.724609 C 288.63672 31.347609 289.94527 32.662109 291.57227 32.662109 L 300.38477 32.662109 L 300.38477 22.960938 L 293.92383 22.960938 L 293.92383 19.726562 L 303.91602 19.726562 L 303.91602 34.404297 L 310.46094 14.46875 C 311.14694 12.07075 313.35003 10.321266 315.95703 10.322266 z M 251.5957 10.90625 L 263.06445 10.90625 L 263.06445 14.435547 L 252.03711 14.435547 C 249.35911 14.435547 246.89258 16.604203 246.89258 19.283203 C 246.89258 21.368203 248.42356 23.155797 250.22656 23.841797 L 254.68555 23.841797 C 256.87755 23.841797 258.65039 25.625453 258.65039 27.814453 C 258.65039 29.953453 256.95308 31.703297 254.83008 31.779297 L 254.68555 31.779297 L 243.37109 31.779297 L 243.37109 28.546875 L 250.7832 28.546875 L 254.53906 28.546875 C 254.85706 28.546875 255.12695 28.286938 255.12695 27.960938 C 255.12695 27.633938 254.85906 27.373047 254.53906 27.373047 L 251.91406 27.373047 L 251.89258 27.335938 L 251.89258 27.373047 C 247.35058 27.373047 243.37109 23.690625 243.37109 19.140625 C 243.37109 14.597625 247.0547 10.90625 251.5957 10.90625 z M 270.99414 10.908203 L 283.63672 10.908203 L 283.63672 14.4375 L 271.29297 14.4375 C 269.67197 14.4375 268.35352 15.755953 268.35352 17.376953 L 268.35352 29.589844 C 268.35352 31.213844 269.67197 32.527344 271.29297 32.527344 L 283.63672 32.527344 L 283.63672 36.058594 L 270.99414 36.058594 C 267.58614 36.058594 264.82422 33.288859 264.82422 29.880859 L 264.82422 17.087891 C 264.82422 13.678891 267.58614 10.908203 270.99414 10.908203 z M 315.99023 14.140625 C 316.86723 14.140625 317.61328 16.501266 317.86328 17.322266 L 322.78906 32.070312 L 314.49414 32.070312 L 314.49414 28.373047 L 311.85156 36.195312 L 307.73438 36.195312 L 314.12109 17.322266 C 314.36309 16.500266 315.10923 14.140625 315.99023 14.140625 z M 251.59766 15.320312 L 251.75 15.320312 L 263.06641 15.320312 L 263.06641 18.554688 L 255.64648 18.554688 L 251.89648 18.558594 C 251.56848 18.558594 251.31055 18.825531 251.31055 19.144531 C 251.31055 19.471531 251.56848 19.730469 251.89648 19.730469 L 254.51562 19.730469 L 254.54492 19.775391 L 254.54492 19.730469 C 259.08892 19.730469 263.06641 23.421844 263.06641 27.964844 C 263.06641 32.513844 259.37703 36.195312 254.83203 36.195312 L 243.37305 36.195312 L 243.37305 32.666016 L 254.39258 32.666016 C 257.07358 32.666016 259.53711 30.496406 259.53711 27.816406 C 259.53711 25.731406 258.01589 23.951766 256.21289 23.259766 L 251.75391 23.259766 C 249.55991 23.259766 247.7793 21.483156 247.7793 19.285156 C 247.7793 17.146156 249.47466 15.396313 251.59766 15.320312 z M 272.17383 15.320312 L 283.63477 15.320312 L 283.63477 18.84375 L 273.64258 18.84375 C 273.15458 18.84375 272.75977 19.240562 272.75977 19.726562 L 280.98633 19.726562 L 280.98633 22.960938 L 269.23828 22.960938 L 269.23828 18.257812 C 269.23828 16.635813 270.55283 15.320312 272.17383 15.320312 z M 292.45312 15.320312 L 303.91406 15.320312 L 303.91406 18.84375 L 293.92383 18.84375 C 293.43683 18.84375 293.03906 19.240562 293.03906 19.726562 L 293.03906 27.375 C 293.03906 27.861 293.43783 28.257812 293.92383 28.257812 L 295.97852 28.257812 L 295.97852 27.375 L 293.92383 27.375 L 293.92383 23.84375 L 299.50977 23.84375 L 299.50977 31.78125 L 292.45312 31.78125 C 290.82613 31.78125 289.50977 30.46575 289.50977 28.84375 L 289.50977 18.257812 C 289.50977 16.635813 290.82612 15.320312 292.45312 15.320312 z M 269.23828 24.136719 L 280.98633 24.140625 L 280.98633 27.373047 L 272.75977 27.373047 C 272.75977 27.858047 273.15458 28.255859 273.64258 28.255859 L 283.63477 28.255859 L 283.63477 31.777344 L 272.17383 31.777344 C 270.55283 31.777344 269.23828 30.463844 269.23828 28.839844 L 269.23828 24.136719 z M 315.88672 24.255859 L 314.63867 27.960938 L 317.1875 27.960938 L 315.88672 24.255859 z M 291.91797 48.179688 L 339.17383 48.179688 L 337.56836 49.15625 L 337.99023 49.15625 L 321.37891 59.265625 L 292.48828 59.265625 L 292.48828 69.181641 L 327.92188 69.181641 L 310.66992 79.683594 L 292.48828 79.683594 L 292.48828 89.599609 L 339.43359 89.599609 L 338.4707 90.185547 L 340.67383 90.185547 L 323.42188 100.6875 L 273.91406 100.6875 L 273.91406 60.181641 L 291.91797 48.179688 z M 369.06055 48.179688 L 423.85156 48.179688 L 422.24805 49.15625 L 422.50781 49.15625 L 405.65625 59.412109 L 371.21875 59.412109 L 371.21875 68.724609 L 423.08984 68.724609 L 423.08984 90.033203 L 405.58789 100.6875 L 351.55859 100.6875 L 353.15625 99.714844 L 352.90234 99.714844 L 369.75391 89.453125 L 402.72461 89.453125 L 402.72461 79.382812 L 351.55859 79.382812 L 351.55859 58.835938 L 369.06055 48.179688 z M 434.25195 48.179688 L 452.51367 48.179688 L 452.51367 100.6875 L 434.25195 100.6875 L 434.25195 48.179688 z M 480.41797 48.179688 L 535.20703 48.179688 L 533.60352 49.15625 L 533.86523 49.15625 L 517.01172 59.412109 L 482.57617 59.412109 L 482.57617 68.724609 L 534.44727 68.724609 L 534.44727 90.033203 L 516.94531 100.6875 L 462.91406 100.6875 L 464.51172 99.714844 L 464.25781 99.714844 L 481.11133 89.453125 L 514.08203 89.453125 L 514.08203 79.382812 L 462.91406 79.382812 L 462.91406 58.835938 L 480.41797 48.179688 z M 48.470703 48.433594 L 102.94141 48.433594 L 101.75391 49.15625 L 101.92188 49.15625 L 85.238281 59.310547 L 48.970703 59.310547 L 48.970703 89.775391 L 81.611328 89.775391 L 81.611328 77.533203 L 61.154297 77.533203 L 61.302734 77.443359 L 77.984375 67.289062 L 77.988281 67.289062 L 78.316406 67.089844 L 99.957031 67.089844 L 99.957031 88.726562 L 82.048828 100.66797 L 30.5625 100.66797 L 30.5625 60.371094 L 48.470703 48.433594 z M 132.5625 48.433594 L 179.55469 48.433594 L 178.33789 49.173828 L 178.6543 49.173828 L 161.98438 59.318359 L 132.99609 59.318359 L 132.99609 69.316406 L 168.36523 69.316406 L 151.21094 79.761719 L 132.99609 79.761719 L 132.99609 89.759766 L 180.10352 89.759766 L 179.375 90.203125 L 181.04688 90.203125 L 163.89062 100.64648 L 114.66016 100.64648 L 114.66016 60.367188 L 132.5625 48.433594 z M 192.85938 48.433594 L 211.16016 48.433594 L 243.62695 66.904297 L 243.62695 49.15625 L 244.10156 49.15625 L 244.10156 48.433594 L 261.66992 48.433594 L 261.66992 100.60547 L 244.10156 100.60547 L 244.10156 99.648438 L 243.62695 99.648438 L 243.62695 81.0625 L 214.50391 64.490234 L 210.90234 62.449219 L 210.90234 99.648438 L 210.42969 99.648438 L 210.42969 100.60547 L 192.85938 100.60547 L 192.85938 48.433594 z "
   transform="translate(-1,-1)" />
</svg>
