<?xml version="1.0" encoding="UTF-8" standalone="no"?>
<!-- Generator: Adobe Illustrator 16.0.3, SVG Export Plug-In . SVG Version: 6.00 Build 0)  -->

<svg
   version="1.1"
   id="Layer_1"
   x="0px"
   y="0px"
   width="580.92773"
   height="128.14648"
   viewBox="-1 -1 580.92772 128.14649"
   enable-background="new -1 -1 568.929 116.145"
   xml:space="preserve"
   sodipodi:docname="system (cópia).svg"
   inkscape:version="1.1.2 (0a00cf5339, 2022-02-04)"
   xmlns:inkscape="http://www.inkscape.org/namespaces/inkscape"
   xmlns:sodipodi="http://sodipodi.sourceforge.net/DTD/sodipodi-0.dtd"
   xmlns="http://www.w3.org/2000/svg"
   xmlns:svg="http://www.w3.org/2000/svg"><defs
   id="defs234">
	
	
	
		<linearGradient
   id="linearGradient1061"
   gradientUnits="userSpaceOnUse"
   x1="308.14401"
   y1="1410.9641"
   x2="308.14401"
   y2="1515.9807"
   gradientTransform="translate(-24.4248,-1406.4004)">
		<stop
   offset="0"
   style="stop-color:#D9DDE9"
   id="stop1055" />
		<stop
   offset="0.39"
   style="stop-color:#777489"
   id="stop1057" />
		<stop
   offset="0.98"
   style="stop-color:#D9DDE9"
   id="stop1059" />
	</linearGradient>
	
	
	
	
	
	
	
	
	

		
			<linearGradient
   id="linearGradient1141"
   gradientUnits="userSpaceOnUse"
   x1="300.49951"
   y1="1450.3645"
   x2="350.30829"
   y2="1500.1731"
   gradientTransform="translate(-24.4248,-1406.4004)">
			<stop
   offset="0"
   style="stop-color:#D9DDE9"
   id="stop1135" />
			<stop
   offset="0.39"
   style="stop-color:#777489"
   id="stop1137" />
			<stop
   offset="0.98"
   style="stop-color:#D9DDE9"
   id="stop1139" />
		</linearGradient>
		
		
			<linearGradient
   id="linearGradient1163"
   gradientUnits="userSpaceOnUse"
   x1="301.6196"
   y1="1451.4602"
   x2="349.57809"
   y2="1499.4187"
   gradientTransform="translate(-24.4248,-1406.4004)">
			<stop
   offset="0"
   style="stop-color:#000000"
   id="stop1145" />
			<stop
   offset="0.11"
   style="stop-color:#181C4E"
   id="stop1147" />
			<stop
   offset="0.22"
   style="stop-color:#181818"
   id="stop1149" />
			<stop
   offset="0.34"
   style="stop-color:#181C4E"
   id="stop1151" />
			<stop
   offset="0.47"
   style="stop-color:#000000"
   id="stop1153" />
			<stop
   offset="0.59"
   style="stop-color:#181C4E"
   id="stop1155" />
			<stop
   offset="0.72"
   style="stop-color:#000000"
   id="stop1157" />
			<stop
   offset="0.84"
   style="stop-color:#181C4E"
   id="stop1159" />
			<stop
   offset="0.98"
   style="stop-color:#000000"
   id="stop1161" />
		</linearGradient>
		
	
		
			<linearGradient
   id="linearGradient1209"
   gradientUnits="userSpaceOnUse"
   x1="64.992203"
   y1="1454.7668"
   x2="113.8675"
   y2="1503.6422"
   gradientTransform="translate(-24.4248,-1406.4004)">
			<stop
   offset="0"
   style="stop-color:#D9DDE9"
   id="stop1203" />
			<stop
   offset="0.39"
   style="stop-color:#777489"
   id="stop1205" />
			<stop
   offset="0.98"
   style="stop-color:#D9DDE9"
   id="stop1207" />
		</linearGradient>
		
		
			<linearGradient
   id="linearGradient1231"
   gradientUnits="userSpaceOnUse"
   x1="65.686996"
   y1="1455.4641"
   x2="113.1985"
   y2="1502.9756"
   gradientTransform="translate(-24.4248,-1406.4004)">
			<stop
   offset="0"
   style="stop-color:#000000"
   id="stop1213" />
			<stop
   offset="0.11"
   style="stop-color:#181C4E"
   id="stop1215" />
			<stop
   offset="0.22"
   style="stop-color:#181818"
   id="stop1217" />
			<stop
   offset="0.34"
   style="stop-color:#181C4E"
   id="stop1219" />
			<stop
   offset="0.47"
   style="stop-color:#000000"
   id="stop1221" />
			<stop
   offset="0.59"
   style="stop-color:#181C4E"
   id="stop1223" />
			<stop
   offset="0.72"
   style="stop-color:#000000"
   id="stop1225" />
			<stop
   offset="0.84"
   style="stop-color:#181C4E"
   id="stop1227" />
			<stop
   offset="0.98"
   style="stop-color:#000000"
   id="stop1229" />
		</linearGradient>
		
	
		
			<linearGradient
   id="linearGradient1175"
   gradientUnits="userSpaceOnUse"
   x1="141.2285"
   y1="1450.637"
   x2="190.76109"
   y2="1500.1694"
   gradientTransform="translate(-24.4248,-1406.4004)">
			<stop
   offset="0"
   style="stop-color:#D9DDE9"
   id="stop1169" />
			<stop
   offset="0.39"
   style="stop-color:#777489"
   id="stop1171" />
			<stop
   offset="0.98"
   style="stop-color:#D9DDE9"
   id="stop1173" />
		</linearGradient>
		
		
			<linearGradient
   id="linearGradient1197"
   gradientUnits="userSpaceOnUse"
   x1="142.0806"
   y1="1451.468"
   x2="190.20641"
   y2="1499.5938"
   gradientTransform="translate(-24.4248,-1406.4004)">
			<stop
   offset="0"
   style="stop-color:#000000"
   id="stop1179" />
			<stop
   offset="0.11"
   style="stop-color:#181C4E"
   id="stop1181" />
			<stop
   offset="0.22"
   style="stop-color:#181818"
   id="stop1183" />
			<stop
   offset="0.34"
   style="stop-color:#181C4E"
   id="stop1185" />
			<stop
   offset="0.47"
   style="stop-color:#000000"
   id="stop1187" />
			<stop
   offset="0.59"
   style="stop-color:#181C4E"
   id="stop1189" />
			<stop
   offset="0.72"
   style="stop-color:#000000"
   id="stop1191" />
			<stop
   offset="0.84"
   style="stop-color:#181C4E"
   id="stop1193" />
			<stop
   offset="0.98"
   style="stop-color:#000000"
   id="stop1195" />
		</linearGradient>
		
	
		
			<linearGradient
   id="linearGradient1073"
   gradientUnits="userSpaceOnUse"
   x1="220.79491"
   y1="1450.0256"
   x2="270.3067"
   y2="1499.5374"
   gradientTransform="translate(-24.4248,-1406.4004)">
			<stop
   offset="0"
   style="stop-color:#D9DDE9"
   id="stop1067" />
			<stop
   offset="0.39"
   style="stop-color:#777489"
   id="stop1069" />
			<stop
   offset="0.98"
   style="stop-color:#D9DDE9"
   id="stop1071" />
		</linearGradient>
		
		
			<linearGradient
   id="linearGradient1095"
   gradientUnits="userSpaceOnUse"
   x1="221.6904"
   y1="1450.804"
   x2="269.7215"
   y2="1498.8352"
   gradientTransform="translate(-24.4248,-1406.4004)">
			<stop
   offset="0"
   style="stop-color:#000000"
   id="stop1077" />
			<stop
   offset="0.11"
   style="stop-color:#181C4E"
   id="stop1079" />
			<stop
   offset="0.22"
   style="stop-color:#181818"
   id="stop1081" />
			<stop
   offset="0.34"
   style="stop-color:#181C4E"
   id="stop1083" />
			<stop
   offset="0.47"
   style="stop-color:#000000"
   id="stop1085" />
			<stop
   offset="0.59"
   style="stop-color:#181C4E"
   id="stop1087" />
			<stop
   offset="0.72"
   style="stop-color:#000000"
   id="stop1089" />
			<stop
   offset="0.84"
   style="stop-color:#181C4E"
   id="stop1091" />
			<stop
   offset="0.98"
   style="stop-color:#000000"
   id="stop1093" />
		</linearGradient>
		
	
		
		
			<linearGradient
   id="linearGradient1245"
   gradientUnits="userSpaceOnUse"
   x1="350.52289"
   y1="-651.39972"
   x2="422.81589"
   y2="-651.39972"
   gradientTransform="matrix(1,0,0,-1,0.0352,-577.9663)">
			<stop
   offset="0"
   style="stop-color:#D9DDE9"
   id="stop1239" />
			<stop
   offset="0.39"
   style="stop-color:#777489"
   id="stop1241" />
			<stop
   offset="0.98"
   style="stop-color:#D9DDE9"
   id="stop1243" />
		</linearGradient>
		
		
			<linearGradient
   id="linearGradient1267"
   gradientUnits="userSpaceOnUse"
   x1="381.4263"
   y1="1450.1321"
   x2="430.44299"
   y2="1499.1486"
   gradientTransform="translate(-24.4248,-1406.4004)">
			<stop
   offset="0"
   style="stop-color:#000000"
   id="stop1249" />
			<stop
   offset="0.11"
   style="stop-color:#181C4E"
   id="stop1251" />
			<stop
   offset="0.22"
   style="stop-color:#181818"
   id="stop1253" />
			<stop
   offset="0.34"
   style="stop-color:#181C4E"
   id="stop1255" />
			<stop
   offset="0.47"
   style="stop-color:#000000"
   id="stop1257" />
			<stop
   offset="0.59"
   style="stop-color:#181C4E"
   id="stop1259" />
			<stop
   offset="0.72"
   style="stop-color:#000000"
   id="stop1261" />
			<stop
   offset="0.84"
   style="stop-color:#181C4E"
   id="stop1263" />
			<stop
   offset="0.98"
   style="stop-color:#000000"
   id="stop1265" />
		</linearGradient>
		
	
		
			<linearGradient
   id="linearGradient1107"
   gradientUnits="userSpaceOnUse"
   x1="449.50931"
   y1="1461.4338"
   x2="499.7514"
   y2="1514.8802"
   gradientTransform="translate(-24.4248,-1406.4004)">
			<stop
   offset="0"
   style="stop-color:#D9DDE9"
   id="stop1101" />
			<stop
   offset="0.39"
   style="stop-color:#777489"
   id="stop1103" />
			<stop
   offset="0.98"
   style="stop-color:#D9DDE9"
   id="stop1105" />
		</linearGradient>
		
		
			<linearGradient
   id="linearGradient1129"
   gradientUnits="userSpaceOnUse"
   x1="450.21039"
   y1="1462.1799"
   x2="498.41599"
   y2="1513.46"
   gradientTransform="translate(-24.4248,-1406.4004)">
			<stop
   offset="0"
   style="stop-color:#000000"
   id="stop1111" />
			<stop
   offset="0.11"
   style="stop-color:#181C4E"
   id="stop1113" />
			<stop
   offset="0.22"
   style="stop-color:#181818"
   id="stop1115" />
			<stop
   offset="0.34"
   style="stop-color:#181C4E"
   id="stop1117" />
			<stop
   offset="0.47"
   style="stop-color:#000000"
   id="stop1119" />
			<stop
   offset="0.59"
   style="stop-color:#181C4E"
   id="stop1121" />
			<stop
   offset="0.72"
   style="stop-color:#000000"
   id="stop1123" />
			<stop
   offset="0.84"
   style="stop-color:#181C4E"
   id="stop1125" />
			<stop
   offset="0.98"
   style="stop-color:#000000"
   id="stop1127" />
		</linearGradient>
		
	
		
		
			<linearGradient
   id="linearGradient1281"
   gradientUnits="userSpaceOnUse"
   x1="491.6362"
   y1="1448.9846"
   x2="542.54639"
   y2="1499.8948"
   gradientTransform="translate(-24.4248,-1406.4004)">
			<stop
   offset="0"
   style="stop-color:#D9DDE9"
   id="stop1275" />
			<stop
   offset="0.39"
   style="stop-color:#777489"
   id="stop1277" />
			<stop
   offset="0.98"
   style="stop-color:#D9DDE9"
   id="stop1279" />
		</linearGradient>
		
		
			<linearGradient
   id="linearGradient1303"
   gradientUnits="userSpaceOnUse"
   x1="492.78171"
   y1="1450.1321"
   x2="541.79901"
   y2="1499.1493"
   gradientTransform="translate(-24.4248,-1406.4004)">
			<stop
   offset="0"
   style="stop-color:#000000"
   id="stop1285" />
			<stop
   offset="0.11"
   style="stop-color:#181C4E"
   id="stop1287" />
			<stop
   offset="0.22"
   style="stop-color:#181818"
   id="stop1289" />
			<stop
   offset="0.34"
   style="stop-color:#181C4E"
   id="stop1291" />
			<stop
   offset="0.47"
   style="stop-color:#000000"
   id="stop1293" />
			<stop
   offset="0.59"
   style="stop-color:#181C4E"
   id="stop1295" />
			<stop
   offset="0.72"
   style="stop-color:#000000"
   id="stop1297" />
			<stop
   offset="0.84"
   style="stop-color:#181C4E"
   id="stop1299" />
			<stop
   offset="0.98"
   style="stop-color:#000000"
   id="stop1301" />
		</linearGradient>
		
	
	
	
	
		<linearGradient
   id="path14_1_"
   gradientUnits="userSpaceOnUse"
   x1="308.14401"
   y1="1410.9641"
   x2="308.14401"
   y2="1515.9807"
   gradientTransform="translate(-18.426753,-1400.4004)">
		<stop
   offset="0"
   style="stop-color:#D9DDE9"
   id="stop6" />
		<stop
   offset="0.39"
   style="stop-color:#777489"
   id="stop8" />
		<stop
   offset="0.98"
   style="stop-color:#D9DDE9"
   id="stop10" />
	</linearGradient>
	
	
	
	
	
	
	
	
	

		
			<linearGradient
   id="polygon121_2_"
   gradientUnits="userSpaceOnUse"
   x1="64.992203"
   y1="1454.7668"
   x2="113.8675"
   y2="1503.6422"
   gradientTransform="translate(-17.426753,-1399.4004)">
			<stop
   offset="0"
   style="stop-color:#D9DDE9"
   id="stop135" />
			<stop
   offset="0.39"
   style="stop-color:#777489"
   id="stop137" />
			<stop
   offset="0.98"
   style="stop-color:#D9DDE9"
   id="stop139" />
		</linearGradient>
		
		
			<linearGradient
   id="polygon121_3_"
   gradientUnits="userSpaceOnUse"
   x1="65.686996"
   y1="1455.4641"
   x2="113.1985"
   y2="1502.9756"
   gradientTransform="translate(-24.4248,-1406.4004)">
			<stop
   offset="0"
   style="stop-color:#000000"
   id="stop143" />
			<stop
   offset="0.11"
   style="stop-color:#181C4E"
   id="stop145" />
			<stop
   offset="0.22"
   style="stop-color:#181818"
   id="stop147" />
			<stop
   offset="0.34"
   style="stop-color:#181C4E"
   id="stop149" />
			<stop
   offset="0.47"
   style="stop-color:#000000"
   id="stop151" />
			<stop
   offset="0.59"
   style="stop-color:#181C4E"
   id="stop153" />
			<stop
   offset="0.72"
   style="stop-color:#000000"
   id="stop155" />
			<stop
   offset="0.84"
   style="stop-color:#181C4E"
   id="stop157" />
			<stop
   offset="0.98"
   style="stop-color:#000000"
   id="stop159" />
		</linearGradient>
		
	
		
			<linearGradient
   id="polygon100_2_"
   gradientUnits="userSpaceOnUse"
   x1="141.2285"
   y1="1450.637"
   x2="190.76109"
   y2="1500.1694"
   gradientTransform="translate(-24.4248,-1406.4004)">
			<stop
   offset="0"
   style="stop-color:#D9DDE9"
   id="stop105" />
			<stop
   offset="0.39"
   style="stop-color:#777489"
   id="stop107" />
			<stop
   offset="0.98"
   style="stop-color:#D9DDE9"
   id="stop109" />
		</linearGradient>
		
		
			<linearGradient
   id="polygon100_3_"
   gradientUnits="userSpaceOnUse"
   x1="142.0806"
   y1="1451.468"
   x2="190.20641"
   y2="1499.5938"
   gradientTransform="translate(-24.4248,-1406.4004)">
			<stop
   offset="0"
   style="stop-color:#000000"
   id="stop113" />
			<stop
   offset="0.11"
   style="stop-color:#181C4E"
   id="stop115" />
			<stop
   offset="0.22"
   style="stop-color:#181818"
   id="stop117" />
			<stop
   offset="0.34"
   style="stop-color:#181C4E"
   id="stop119" />
			<stop
   offset="0.47"
   style="stop-color:#000000"
   id="stop121" />
			<stop
   offset="0.59"
   style="stop-color:#181C4E"
   id="stop123" />
			<stop
   offset="0.72"
   style="stop-color:#000000"
   id="stop125" />
			<stop
   offset="0.84"
   style="stop-color:#181C4E"
   id="stop127" />
			<stop
   offset="0.98"
   style="stop-color:#000000"
   id="stop129" />
		</linearGradient>
		
	
		
			<linearGradient
   id="polygon37_2_"
   gradientUnits="userSpaceOnUse"
   x1="220.79491"
   y1="1450.0256"
   x2="270.3067"
   y2="1499.5374"
   gradientTransform="translate(-17.426753,-1399.4004)">
			<stop
   offset="0"
   style="stop-color:#D9DDE9"
   id="stop15" />
			<stop
   offset="0.39"
   style="stop-color:#777489"
   id="stop17" />
			<stop
   offset="0.98"
   style="stop-color:#D9DDE9"
   id="stop19" />
		</linearGradient>
		
		
			<linearGradient
   id="polygon37_3_"
   gradientUnits="userSpaceOnUse"
   x1="221.6904"
   y1="1450.804"
   x2="269.7215"
   y2="1498.8352"
   gradientTransform="translate(-24.4248,-1406.4004)">
			<stop
   offset="0"
   style="stop-color:#000000"
   id="stop23" />
			<stop
   offset="0.11"
   style="stop-color:#181C4E"
   id="stop25" />
			<stop
   offset="0.22"
   style="stop-color:#181818"
   id="stop27" />
			<stop
   offset="0.34"
   style="stop-color:#181C4E"
   id="stop29" />
			<stop
   offset="0.47"
   style="stop-color:#000000"
   id="stop31" />
			<stop
   offset="0.59"
   style="stop-color:#181C4E"
   id="stop33" />
			<stop
   offset="0.72"
   style="stop-color:#000000"
   id="stop35" />
			<stop
   offset="0.84"
   style="stop-color:#181C4E"
   id="stop37" />
			<stop
   offset="0.98"
   style="stop-color:#000000"
   id="stop39" />
		</linearGradient>
		
	
		
			<linearGradient
   id="polygon79_2_"
   gradientUnits="userSpaceOnUse"
   x1="300.49951"
   y1="1450.3645"
   x2="350.30829"
   y2="1500.1731"
   gradientTransform="translate(-24.4248,-1406.4004)">
			<stop
   offset="0"
   style="stop-color:#D9DDE9"
   id="stop75" />
			<stop
   offset="0.39"
   style="stop-color:#777489"
   id="stop77" />
			<stop
   offset="0.98"
   style="stop-color:#D9DDE9"
   id="stop79" />
		</linearGradient>
		
		
			<linearGradient
   id="polygon79_3_"
   gradientUnits="userSpaceOnUse"
   x1="301.6196"
   y1="1451.4602"
   x2="349.57809"
   y2="1499.4187"
   gradientTransform="translate(-24.4248,-1406.4004)">
			<stop
   offset="0"
   style="stop-color:#000000"
   id="stop83" />
			<stop
   offset="0.11"
   style="stop-color:#181C4E"
   id="stop85" />
			<stop
   offset="0.22"
   style="stop-color:#181818"
   id="stop87" />
			<stop
   offset="0.34"
   style="stop-color:#181C4E"
   id="stop89" />
			<stop
   offset="0.47"
   style="stop-color:#000000"
   id="stop91" />
			<stop
   offset="0.59"
   style="stop-color:#181C4E"
   id="stop93" />
			<stop
   offset="0.72"
   style="stop-color:#000000"
   id="stop95" />
			<stop
   offset="0.84"
   style="stop-color:#181C4E"
   id="stop97" />
			<stop
   offset="0.98"
   style="stop-color:#000000"
   id="stop99" />
		</linearGradient>
		
	
		
		
			<linearGradient
   id="polygon142_2_"
   gradientUnits="userSpaceOnUse"
   x1="350.52289"
   y1="-651.39972"
   x2="422.81589"
   y2="-651.39972"
   gradientTransform="matrix(1,0,0,-1,0.0352,-577.9663)">
			<stop
   offset="0"
   style="stop-color:#D9DDE9"
   id="stop167" />
			<stop
   offset="0.39"
   style="stop-color:#777489"
   id="stop169" />
			<stop
   offset="0.98"
   style="stop-color:#D9DDE9"
   id="stop171" />
		</linearGradient>
		
		
			<linearGradient
   id="polygon142_3_"
   gradientUnits="userSpaceOnUse"
   x1="381.4263"
   y1="1450.1321"
   x2="430.44299"
   y2="1499.1486"
   gradientTransform="translate(-24.4248,-1406.4004)">
			<stop
   offset="0"
   style="stop-color:#000000"
   id="stop175" />
			<stop
   offset="0.11"
   style="stop-color:#181C4E"
   id="stop177" />
			<stop
   offset="0.22"
   style="stop-color:#181818"
   id="stop179" />
			<stop
   offset="0.34"
   style="stop-color:#181C4E"
   id="stop181" />
			<stop
   offset="0.47"
   style="stop-color:#000000"
   id="stop183" />
			<stop
   offset="0.59"
   style="stop-color:#181C4E"
   id="stop185" />
			<stop
   offset="0.72"
   style="stop-color:#000000"
   id="stop187" />
			<stop
   offset="0.84"
   style="stop-color:#181C4E"
   id="stop189" />
			<stop
   offset="0.98"
   style="stop-color:#000000"
   id="stop191" />
		</linearGradient>
		
	
		
			<linearGradient
   id="rect58_2_"
   gradientUnits="userSpaceOnUse"
   x1="449.50931"
   y1="1461.4338"
   x2="499.7514"
   y2="1514.8802"
   gradientTransform="translate(-18.426753,-1400.4004)">
			<stop
   offset="0"
   style="stop-color:#D9DDE9"
   id="stop45" />
			<stop
   offset="0.39"
   style="stop-color:#777489"
   id="stop47" />
			<stop
   offset="0.98"
   style="stop-color:#D9DDE9"
   id="stop49" />
		</linearGradient>
		
		
			<linearGradient
   id="rect58_3_"
   gradientUnits="userSpaceOnUse"
   x1="450.21039"
   y1="1462.1799"
   x2="498.41599"
   y2="1513.46"
   gradientTransform="translate(-18.426753,-1400.4004)">
			<stop
   offset="0"
   style="stop-color:#000000"
   id="stop53" />
			<stop
   offset="0.11"
   style="stop-color:#181C4E"
   id="stop55" />
			<stop
   offset="0.22"
   style="stop-color:#181818"
   id="stop57" />
			<stop
   offset="0.34"
   style="stop-color:#181C4E"
   id="stop59" />
			<stop
   offset="0.47"
   style="stop-color:#000000"
   id="stop61" />
			<stop
   offset="0.59"
   style="stop-color:#181C4E"
   id="stop63" />
			<stop
   offset="0.72"
   style="stop-color:#000000"
   id="stop65" />
			<stop
   offset="0.84"
   style="stop-color:#181C4E"
   id="stop67" />
			<stop
   offset="0.98"
   style="stop-color:#000000"
   id="stop69" />
		</linearGradient>
		
	
		
		
			<linearGradient
   id="polygon163_2_"
   gradientUnits="userSpaceOnUse"
   x1="491.6362"
   y1="1448.9846"
   x2="542.54639"
   y2="1499.8948"
   gradientTransform="translate(-24.4248,-1406.4004)">
			<stop
   offset="0"
   style="stop-color:#D9DDE9"
   id="stop199" />
			<stop
   offset="0.39"
   style="stop-color:#777489"
   id="stop201" />
			<stop
   offset="0.98"
   style="stop-color:#D9DDE9"
   id="stop203" />
		</linearGradient>
		
		
			<linearGradient
   id="polygon163_3_"
   gradientUnits="userSpaceOnUse"
   x1="492.78171"
   y1="1450.1321"
   x2="541.79901"
   y2="1499.1493"
   gradientTransform="translate(-24.4248,-1406.4004)">
			<stop
   offset="0"
   style="stop-color:#000000"
   id="stop207" />
			<stop
   offset="0.11"
   style="stop-color:#181C4E"
   id="stop209" />
			<stop
   offset="0.22"
   style="stop-color:#181818"
   id="stop211" />
			<stop
   offset="0.34"
   style="stop-color:#181C4E"
   id="stop213" />
			<stop
   offset="0.47"
   style="stop-color:#000000"
   id="stop215" />
			<stop
   offset="0.59"
   style="stop-color:#181C4E"
   id="stop217" />
			<stop
   offset="0.72"
   style="stop-color:#000000"
   id="stop219" />
			<stop
   offset="0.84"
   style="stop-color:#181C4E"
   id="stop221" />
			<stop
   offset="0.98"
   style="stop-color:#000000"
   id="stop223" />
		</linearGradient>
		
	</defs><sodipodi:namedview
   id="namedview232"
   pagecolor="#999999"
   bordercolor="#666666"
   borderopacity="1.0"
   inkscape:pageshadow="2"
   inkscape:pageopacity="0"
   inkscape:pagecheckerboard="true"
   showgrid="false"
   fit-margin-top="0"
   fit-margin-left="0"
   fit-margin-right="0"
   fit-margin-bottom="0"
   inkscape:zoom="0.92034781"
   inkscape:cx="148.31349"
   inkscape:cy="-39.65892"
   inkscape:window-width="1920"
   inkscape:window-height="996"
   inkscape:window-x="0"
   inkscape:window-y="0"
   inkscape:window-maximized="1"
   inkscape:current-layer="Layer_1" />
<path
   id="polygon1051"
   style="fill:#000000"
   d="M 241.92188 0 L 241.34375 0.99414062 C 235.19397 11.569639 229.04428 22.145186 222.89453 32.720703 L 39.523438 32.720703 C 26.348784 40.182635 13.174463 47.645154 0 55.107422 L 0 105.75781 C 13.178255 113.22093 26.356662 120.68379 39.535156 128.14648 L 541.40625 128.14648 C 554.58035 120.68277 567.75374 113.21783 580.92773 105.75391 L 580.92773 55.109375 C 567.75821 47.646923 554.58951 40.183017 541.41992 32.720703 L 358.79297 32.720703 C 352.45243 21.813832 346.11228 10.906721 339.77148 0 L 241.92188 0 z M 321.95508 16.322266 C 324.57208 16.322266 326.7828 18.07275 327.4668 20.46875 L 334.59766 42.193359 L 320.49219 42.193359 L 320.49219 38.962891 L 329.97266 38.962891 L 323.93164 21.216797 C 323.67064 20.257797 322.88803 19.556641 321.95703 19.556641 C 321.03703 19.556641 320.25414 20.257797 319.99414 21.216797 L 312.84766 42.195312 L 309.91406 42.195312 L 309.32617 42.195312 L 297.27539 42.195312 C 293.86739 42.195312 291.10352 39.432437 291.10352 36.023438 L 291.10352 23.087891 C 291.10352 19.678891 293.86739 16.908203 297.27539 16.908203 L 309.91406 16.908203 L 309.91406 20.4375 L 297.57031 20.4375 C 295.94331 20.4375 294.63277 21.754047 294.63477 23.373047 L 294.63477 35.724609 C 294.63477 37.347609 295.94331 38.662109 297.57031 38.662109 L 306.38281 38.662109 L 306.38281 28.960938 L 299.92188 28.960938 L 299.92188 25.726562 L 309.91406 25.726562 L 309.91406 40.404297 L 316.45898 20.46875 C 317.14498 18.07075 319.34808 16.321266 321.95508 16.322266 z M 257.59375 16.90625 L 269.0625 16.90625 L 269.0625 20.435547 L 258.03516 20.435547 C 255.35716 20.435547 252.89063 22.604203 252.89062 25.283203 C 252.89063 27.368203 254.42161 29.155797 256.22461 29.841797 L 260.68359 29.841797 C 262.87559 29.841797 264.64844 31.625453 264.64844 33.814453 C 264.64844 35.953453 262.95112 37.703297 260.82812 37.779297 L 260.68359 37.779297 L 249.36914 37.779297 L 249.36914 34.546875 L 256.78125 34.546875 L 260.53711 34.546875 C 260.85511 34.546875 261.125 34.286938 261.125 33.960938 C 261.125 33.633938 260.85711 33.373047 260.53711 33.373047 L 257.91211 33.373047 L 257.89062 33.335938 L 257.89062 33.373047 C 253.34864 33.373047 249.36914 29.690625 249.36914 25.140625 C 249.36914 20.597625 253.05275 16.90625 257.59375 16.90625 z M 276.99219 16.908203 L 289.63477 16.908203 L 289.63477 20.4375 L 277.29102 20.4375 C 275.67002 20.4375 274.35156 21.755953 274.35156 23.376953 L 274.35156 35.589844 C 274.35156 37.213844 275.67002 38.527344 277.29102 38.527344 L 289.63477 38.527344 L 289.63477 42.058594 L 276.99219 42.058594 C 273.58419 42.058594 270.82227 39.288859 270.82227 35.880859 L 270.82227 23.087891 C 270.82227 19.678891 273.58419 16.908203 276.99219 16.908203 z M 321.98828 20.140625 C 322.86528 20.140625 323.61133 22.501266 323.86133 23.322266 L 328.78711 38.070312 L 320.49219 38.070312 L 320.49219 34.373047 L 317.84961 42.195312 L 313.73242 42.195312 L 320.11914 23.322266 C 320.36114 22.500266 321.10728 20.140625 321.98828 20.140625 z M 257.5957 21.320312 L 257.74805 21.320312 L 269.06445 21.320312 L 269.06445 24.554688 L 261.64453 24.554688 L 257.89453 24.558594 C 257.56653 24.558594 257.30859 24.825531 257.30859 25.144531 C 257.30859 25.471531 257.56653 25.730469 257.89453 25.730469 L 260.51367 25.730469 L 260.54297 25.775391 L 260.54297 25.730469 C 265.08697 25.730469 269.06445 29.421844 269.06445 33.964844 C 269.06445 38.513844 265.37508 42.195312 260.83008 42.195312 L 249.37109 42.195312 L 249.37109 38.666016 L 260.39062 38.666016 C 263.07162 38.666016 265.53516 36.496406 265.53516 33.816406 C 265.53516 31.731406 264.01394 29.951766 262.21094 29.259766 L 257.75195 29.259766 C 255.55795 29.259766 253.77734 27.483156 253.77734 25.285156 C 253.77734 23.146156 255.4727 21.396313 257.5957 21.320312 z M 278.17188 21.320312 L 289.63281 21.320312 L 289.63281 24.84375 L 279.64062 24.84375 C 279.15265 24.84375 278.75781 25.240562 278.75781 25.726562 L 286.98438 25.726562 L 286.98438 28.960938 L 275.23633 28.960938 L 275.23633 24.257812 C 275.23633 22.635813 276.55088 21.320312 278.17188 21.320312 z M 298.45117 21.320312 L 309.91211 21.320312 L 309.91211 24.84375 L 299.92188 24.84375 C 299.43487 24.84375 299.03711 25.240562 299.03711 25.726562 L 299.03711 33.375 C 299.03711 33.861 299.43588 34.257812 299.92188 34.257812 L 301.97656 34.257812 L 301.97656 33.375 L 299.92188 33.375 L 299.92188 29.84375 L 305.50781 29.84375 L 305.50781 37.78125 L 298.45117 37.78125 C 296.82417 37.78125 295.50781 36.46575 295.50781 34.84375 L 295.50781 24.257812 C 295.50781 22.635813 296.82417 21.320312 298.45117 21.320312 z M 275.23633 30.136719 L 286.98438 30.140625 L 286.98438 33.373047 L 278.75781 33.373047 C 278.75781 33.858047 279.15264 34.255859 279.64062 34.255859 L 289.63281 34.255859 L 289.63281 37.777344 L 278.17188 37.777344 C 276.55088 37.777344 275.23633 36.463844 275.23633 34.839844 L 275.23633 30.136719 z M 321.88477 30.255859 L 320.63672 33.960938 L 323.18555 33.960938 L 321.88477 30.255859 z M 297.91602 54.179688 L 345.17188 54.179688 L 343.56641 55.15625 L 343.98828 55.15625 L 327.37695 65.265625 L 298.48633 65.265625 L 298.48633 75.181641 L 333.91992 75.181641 L 316.66797 85.683594 L 298.48633 85.683594 L 298.48633 95.599609 L 345.43164 95.599609 L 344.46875 96.185547 L 346.67188 96.185547 L 329.41992 106.6875 L 279.91211 106.6875 L 279.91211 66.181641 L 297.91602 54.179688 z M 375.05859 54.179688 L 429.84961 54.179688 L 428.24609 55.15625 L 428.50586 55.15625 L 411.6543 65.412109 L 377.2168 65.412109 L 377.2168 74.724609 L 429.08789 74.724609 L 429.08789 96.033203 L 411.58594 106.6875 L 357.55664 106.6875 L 359.1543 105.71484 L 358.90039 105.71484 L 375.75195 95.453125 L 408.72266 95.453125 L 408.72266 85.382812 L 357.55664 85.382812 L 357.55664 64.835938 L 375.05859 54.179688 z M 440.25 54.179688 L 458.51172 54.179688 L 458.51172 106.6875 L 440.25 106.6875 L 440.25 54.179688 z M 486.41602 54.179688 L 541.20508 54.179688 L 539.60156 55.15625 L 539.86328 55.15625 L 523.00977 65.412109 L 488.57422 65.412109 L 488.57422 74.724609 L 540.44531 74.724609 L 540.44531 96.033203 L 522.94336 106.6875 L 468.91211 106.6875 L 470.50977 105.71484 L 470.25586 105.71484 L 487.10938 95.453125 L 520.08008 95.453125 L 520.08008 85.382812 L 468.91211 85.382812 L 468.91211 64.835938 L 486.41602 54.179688 z M 54.46875 54.433594 L 108.93945 54.433594 L 107.75195 55.15625 L 107.91992 55.15625 L 91.236328 65.310547 L 54.96875 65.310547 L 54.96875 95.775391 L 87.609375 95.775391 L 87.609375 83.533203 L 67.152344 83.533203 L 67.300781 83.443359 L 69.732422 81.962891 L 83.982422 73.289062 L 83.986328 73.289062 L 84.314453 73.089844 L 105.95508 73.089844 L 105.95508 94.726562 L 88.046875 106.66797 L 36.560547 106.66797 L 36.560547 66.371094 L 54.46875 54.433594 z M 138.56055 54.433594 L 185.55273 54.433594 L 184.33594 55.173828 L 184.65234 55.173828 L 167.98242 65.318359 L 138.99414 65.318359 L 138.99414 75.316406 L 174.36328 75.316406 L 157.20898 85.761719 L 138.99414 85.761719 L 138.99414 95.759766 L 186.10156 95.759766 L 185.37305 96.203125 L 187.04492 96.203125 L 169.88867 106.64648 L 120.6582 106.64648 L 120.6582 66.367188 L 138.56055 54.433594 z M 198.85742 54.433594 L 217.1582 54.433594 L 249.625 72.904297 L 249.625 55.15625 L 250.09961 55.15625 L 250.09961 54.433594 L 267.66797 54.433594 L 267.66797 106.60547 L 250.09961 106.60547 L 250.09961 105.64844 L 249.625 105.64844 L 249.625 87.0625 L 220.50195 70.490234 L 216.90039 68.449219 L 216.90039 105.64844 L 216.42773 105.64844 L 216.42773 106.60547 L 198.85742 106.60547 L 198.85742 54.433594 z "
   transform="translate(-1,-1)" /><path
   id="polygon2"
   style="fill:#ffffff"
   d="M 245.37109 6 L 226.3457 38.720703 L 41.103516 38.720703 L 5.9980469 58.605469 L 5.9980469 102.25977 L 40.878906 122.01758 L 41.105469 122.14453 L 539.82227 122.14453 L 574.67383 102.4043 L 574.92773 102.25977 L 574.92773 58.607422 L 540.05469 38.853516 L 539.82422 38.720703 L 355.3418 38.720703 L 336.31836 6 L 245.37109 6 z M 321.95508 16.322266 C 324.57208 16.322266 326.7828 18.07275 327.4668 20.46875 L 334.59766 42.193359 L 320.49219 42.193359 L 320.49219 38.962891 L 329.97266 38.962891 L 323.93164 21.216797 C 323.67064 20.257797 322.88803 19.556641 321.95703 19.556641 C 321.03703 19.556641 320.25414 20.257797 319.99414 21.216797 L 312.84766 42.195312 L 309.91406 42.195312 L 309.32617 42.195312 L 297.27539 42.195312 C 293.86739 42.195312 291.10352 39.432437 291.10352 36.023438 L 291.10352 23.087891 C 291.10352 19.678891 293.86739 16.908203 297.27539 16.908203 L 309.91406 16.908203 L 309.91406 20.4375 L 297.57031 20.4375 C 295.94331 20.4375 294.63277 21.754047 294.63477 23.373047 L 294.63477 35.724609 C 294.63477 37.347609 295.94331 38.662109 297.57031 38.662109 L 306.38281 38.662109 L 306.38281 28.960938 L 299.92188 28.960938 L 299.92188 25.726562 L 309.91406 25.726562 L 309.91406 40.404297 L 316.45898 20.46875 C 317.14498 18.07075 319.34808 16.321266 321.95508 16.322266 z M 257.59375 16.90625 L 269.0625 16.90625 L 269.0625 20.435547 L 258.03516 20.435547 C 255.35716 20.435547 252.89063 22.604203 252.89062 25.283203 C 252.89063 27.368203 254.42161 29.155797 256.22461 29.841797 L 260.68359 29.841797 C 262.87559 29.841797 264.64844 31.625453 264.64844 33.814453 C 264.64844 35.953453 262.95112 37.703297 260.82812 37.779297 L 260.68359 37.779297 L 249.36914 37.779297 L 249.36914 34.546875 L 256.78125 34.546875 L 260.53711 34.546875 C 260.85511 34.546875 261.125 34.286938 261.125 33.960938 C 261.125 33.633938 260.85711 33.373047 260.53711 33.373047 L 257.91211 33.373047 L 257.89062 33.335938 L 257.89062 33.373047 C 253.34864 33.373047 249.36914 29.690625 249.36914 25.140625 C 249.36914 20.597625 253.05275 16.90625 257.59375 16.90625 z M 276.99219 16.908203 L 289.63477 16.908203 L 289.63477 20.4375 L 277.29102 20.4375 C 275.67002 20.4375 274.35156 21.755953 274.35156 23.376953 L 274.35156 35.589844 C 274.35156 37.213844 275.67002 38.527344 277.29102 38.527344 L 289.63477 38.527344 L 289.63477 42.058594 L 276.99219 42.058594 C 273.58419 42.058594 270.82227 39.288859 270.82227 35.880859 L 270.82227 23.087891 C 270.82227 19.678891 273.58419 16.908203 276.99219 16.908203 z M 321.98828 20.140625 C 322.86528 20.140625 323.61133 22.501266 323.86133 23.322266 L 328.78711 38.070312 L 320.49219 38.070312 L 320.49219 34.373047 L 317.84961 42.195312 L 313.73242 42.195312 L 320.11914 23.322266 C 320.36114 22.500266 321.10728 20.140625 321.98828 20.140625 z M 257.5957 21.320312 L 257.74805 21.320312 L 269.06445 21.320312 L 269.06445 24.554688 L 261.64453 24.554688 L 257.89453 24.558594 C 257.56653 24.558594 257.30859 24.825531 257.30859 25.144531 C 257.30859 25.471531 257.56653 25.730469 257.89453 25.730469 L 260.51367 25.730469 L 260.54297 25.775391 L 260.54297 25.730469 C 265.08697 25.730469 269.06445 29.421844 269.06445 33.964844 C 269.06445 38.513844 265.37508 42.195312 260.83008 42.195312 L 249.37109 42.195312 L 249.37109 38.666016 L 260.39062 38.666016 C 263.07162 38.666016 265.53516 36.496406 265.53516 33.816406 C 265.53516 31.731406 264.01394 29.951766 262.21094 29.259766 L 257.75195 29.259766 C 255.55795 29.259766 253.77734 27.483156 253.77734 25.285156 C 253.77734 23.146156 255.4727 21.396313 257.5957 21.320312 z M 278.17188 21.320312 L 289.63281 21.320312 L 289.63281 24.84375 L 279.64062 24.84375 C 279.15265 24.84375 278.75781 25.240562 278.75781 25.726562 L 286.98438 25.726562 L 286.98438 28.960938 L 275.23633 28.960938 L 275.23633 24.257812 C 275.23633 22.635813 276.55088 21.320312 278.17188 21.320312 z M 298.45117 21.320312 L 309.91211 21.320312 L 309.91211 24.84375 L 299.92188 24.84375 C 299.43487 24.84375 299.03711 25.240562 299.03711 25.726562 L 299.03711 33.375 C 299.03711 33.861 299.43588 34.257812 299.92188 34.257812 L 301.97656 34.257812 L 301.97656 33.375 L 299.92188 33.375 L 299.92188 29.84375 L 305.50781 29.84375 L 305.50781 37.78125 L 298.45117 37.78125 C 296.82417 37.78125 295.50781 36.46575 295.50781 34.84375 L 295.50781 24.257812 C 295.50781 22.635813 296.82417 21.320312 298.45117 21.320312 z M 275.23633 30.136719 L 286.98438 30.140625 L 286.98438 33.373047 L 278.75781 33.373047 C 278.75781 33.858047 279.15264 34.255859 279.64062 34.255859 L 289.63281 34.255859 L 289.63281 37.777344 L 278.17188 37.777344 C 276.55088 37.777344 275.23633 36.463844 275.23633 34.839844 L 275.23633 30.136719 z M 321.88477 30.255859 L 320.63672 33.960938 L 323.18555 33.960938 L 321.88477 30.255859 z M 297.91602 54.179688 L 345.17188 54.179688 L 343.56641 55.15625 L 343.98828 55.15625 L 327.37695 65.265625 L 298.48633 65.265625 L 298.48633 75.181641 L 333.91992 75.181641 L 316.66797 85.683594 L 298.48633 85.683594 L 298.48633 95.599609 L 345.43164 95.599609 L 344.46875 96.185547 L 346.67188 96.185547 L 329.41992 106.6875 L 279.91211 106.6875 L 279.91211 66.181641 L 297.91602 54.179688 z M 375.05859 54.179688 L 429.84961 54.179688 L 428.24609 55.15625 L 428.50586 55.15625 L 411.6543 65.412109 L 377.2168 65.412109 L 377.2168 74.724609 L 429.08789 74.724609 L 429.08789 96.033203 L 411.58594 106.6875 L 357.55664 106.6875 L 359.1543 105.71484 L 358.90039 105.71484 L 375.75195 95.453125 L 408.72266 95.453125 L 408.72266 85.382812 L 357.55664 85.382812 L 357.55664 64.835938 L 375.05859 54.179688 z M 440.25 54.179688 L 458.51172 54.179688 L 458.51172 106.6875 L 440.25 106.6875 L 440.25 54.179688 z M 486.41602 54.179688 L 541.20508 54.179688 L 539.60156 55.15625 L 539.86328 55.15625 L 523.00977 65.412109 L 488.57422 65.412109 L 488.57422 74.724609 L 540.44531 74.724609 L 540.44531 96.033203 L 522.94336 106.6875 L 468.91211 106.6875 L 470.50977 105.71484 L 470.25586 105.71484 L 487.10938 95.453125 L 520.08008 95.453125 L 520.08008 85.382812 L 468.91211 85.382812 L 468.91211 64.835938 L 486.41602 54.179688 z M 54.46875 54.433594 L 108.93945 54.433594 L 107.75195 55.15625 L 107.91992 55.15625 L 91.236328 65.310547 L 54.96875 65.310547 L 54.96875 95.775391 L 87.609375 95.775391 L 87.609375 83.533203 L 67.152344 83.533203 L 67.300781 83.443359 L 69.732422 81.962891 L 83.982422 73.289062 L 83.986328 73.289062 L 84.314453 73.089844 L 105.95508 73.089844 L 105.95508 94.726562 L 88.046875 106.66797 L 36.560547 106.66797 L 36.560547 66.371094 L 54.46875 54.433594 z M 138.56055 54.433594 L 185.55273 54.433594 L 184.33594 55.173828 L 184.65234 55.173828 L 167.98242 65.318359 L 138.99414 65.318359 L 138.99414 75.316406 L 174.36328 75.316406 L 157.20898 85.761719 L 138.99414 85.761719 L 138.99414 95.759766 L 186.10156 95.759766 L 185.37305 96.203125 L 187.04492 96.203125 L 169.88867 106.64648 L 120.6582 106.64648 L 120.6582 66.367188 L 138.56055 54.433594 z M 198.85742 54.433594 L 217.1582 54.433594 L 249.625 72.904297 L 249.625 55.15625 L 250.09961 55.15625 L 250.09961 54.433594 L 267.66797 54.433594 L 267.66797 106.60547 L 250.09961 106.60547 L 250.09961 105.64844 L 249.625 105.64844 L 249.625 87.0625 L 220.50195 70.490234 L 216.90039 68.449219 L 216.90039 105.64844 L 216.42773 105.64844 L 216.42773 106.60547 L 198.85742 106.60547 L 198.85742 54.433594 z "
   transform="translate(-1,-1)" />
</svg>
