<?xml version="1.0" encoding="UTF-8" standalone="no"?>
<!-- Generator: Adobe Illustrator 13.0.0, SVG Export Plug-In . SVG Version: 6.00 Build 14948)  -->

<svg
   version="1.2"
   id="Layer_3"
   x="0px"
   y="0px"
   width="600.26373"
   height="339.57208"
   viewBox="0 0 600.26371 339.57207"
   xml:space="preserve"
   sodipodi:docname="controller.svg"
   inkscape:version="1.1.2 (0a00cf5339, 2022-02-04)"
   xmlns:inkscape="http://www.inkscape.org/namespaces/inkscape"
   xmlns:sodipodi="http://sodipodi.sourceforge.net/DTD/sodipodi-0.dtd"
   xmlns="http://www.w3.org/2000/svg"
   xmlns:svg="http://www.w3.org/2000/svg"
   xmlns:rdf="http://www.w3.org/1999/02/22-rdf-syntax-ns#"
   xmlns:cc="http://creativecommons.org/ns#"
   xmlns:dc="http://purl.org/dc/elements/1.1/"
   xmlns:ns="&amp;ns_sfw;"><defs
   id="defs27" /><sodipodi:namedview
   id="namedview25"
   pagecolor="#ffffff"
   bordercolor="#666666"
   borderopacity="1.0"
   inkscape:pageshadow="2"
   inkscape:pageopacity="0.0"
   inkscape:pagecheckerboard="0"
   showgrid="false"
   fit-margin-top="0"
   fit-margin-left="0"
   fit-margin-right="0"
   fit-margin-bottom="0"
   inkscape:zoom="0.72576052"
   inkscape:cx="108.1624"
   inkscape:cy="208.74654"
   inkscape:window-width="1920"
   inkscape:window-height="996"
   inkscape:window-x="0"
   inkscape:window-y="0"
   inkscape:window-maximized="1"
   inkscape:current-layer="Layer_3" />
<metadata
   id="metadata55">
	<rdf:RDF>
		<cc:Work
   rdf:about="">
			<dc:format>image/svg+xml</dc:format>
			<dc:type
   rdf:resource="http://purl.org/dc/dcmitype/StillImage" />
			
		</cc:Work>
	</rdf:RDF>
	<ns:sfw>
		<ns:slices />
		<ns:sliceSourceBounds
   x="-7231"
   y="-7652"
   width="16383"
   height="16383"
   bottomLeftOrigin="true" />
	</ns:sfw>
</metadata>
<path
   id="path863"
   style="fill:#000000"
   d="m 393.81875,0.03510249 c -5.63584,0.1504072 -11.23815,1.00125461 -16.69003,2.42670141 -12.331,3.0119426 -24.43002,6.8964008 -36.88117,9.4259621 -3.18158,0.670397 -6.42154,1.278212 -9.55861,1.780535 -2.58593,0.418698 -5.05429,0.772459 -7.67555,1.077217 -7.5974,0.91782 -15.25447,1.240563 -22.90401,1.168645 -3.5343,-0.0012 -7.06922,-0.01414 -10.60118,-0.156404 -0.41158,-0.02847 -1.20407,-0.06439 -1.72718,-0.09623 -14.46179,-0.780761 -28.73701,-3.59332 -42.69827,-7.3552388 -7.97179,-2.0845246 -15.86969,-4.4563584 -23.89877,-6.3161096 -0.52062,-0.8425184 -1.66223,-0.8912744 -2.56815,-0.9427883 -2.70094,-0.26117961 -5.41222,-0.46551661 -8.08419,-0.96346171 -0.35642,0.3547228 -0.98675,0.039988 -1.45849,0.106193 -8.9418,-0.56154388 -17.89641,0.2840586 -26.76059,1.41481561 C 163.6951,2.1846688 145.00184,5.9275095 128.13306,13.986915 115.50801,19.974112 104.0676,28.464028 94.774554,38.906891 91.946909,42.022487 89.38301,45.36653 86.883338,48.744101 82.60323,53.439255 78.615605,58.391543 74.658599,63.359322 60.88775,80.915298 48.723572,99.704904 37.950017,119.23508 27.486372,138.2379 18.394938,158.0376 11.412008,178.58861 6.0315019,194.5598 1.8899873,211.05552 0.52064918,227.88986 c -0.8512033,11.4988 -0.6711146,23.08335 0.63194572,34.54147 1.7147609,14.75011 5.6605765,29.43684 13.1371991,42.35476 6.556565,11.31801 16.013626,21.03908 27.488941,27.39334 6.346191,3.55979 13.393178,5.79701 20.600568,6.73848 12.332506,1.66226 24.882566,-0.008 36.846239,-3.1526 14.504378,-3.8547 28.365818,-9.93619 41.325208,-17.46979 5.77839,-3.36231 11.24333,-7.22397 16.62883,-11.17571 15.03595,-10.78602 30.82629,-20.82125 47.34611,-29.312 8.0319,-4.13584 16.4424,-7.96899 24.83798,-11.23951 4.01529,-1.55527 8.10673,-3.019 12.11195,-4.3023 3.49778,-1.12164 7.06331,-2.17056 10.55284,-3.06704 11.83781,-3.06508 24.03517,-4.88495 36.27882,-4.85796 8.03462,0.0135 16.06939,-0.007 24.10401,0.005 4.20842,0.0455 8.34176,0.1804 12.55127,0.63202 4.85607,0.48618 9.73513,1.23456 14.45469,2.18591 3.29392,0.6671 6.42799,1.39454 9.67261,2.25136 3.10017,0.8095 6.45563,1.8045 9.51795,2.77784 23.447,7.56886 45.46528,19.15219 66.17903,32.45806 4.89138,3.14696 9.74277,6.42005 14.45204,9.73453 4.96873,3.4561 9.89719,7.21546 15.0275,10.55207 13.87671,8.85512 29.00975,15.78146 44.84418,20.30306 11.55506,3.22612 23.64624,5.0646 35.65118,4.02138 8.87696,-0.78364 17.67368,-3.33127 25.30745,-7.99195 12.33194,-7.26732 22.17044,-18.43016 28.46261,-31.23665 6.86927,-13.75831 10.08034,-29.06558 11.22054,-44.32097 0.8065,-11.16192 0.6921,-22.40743 -0.5794,-33.5302 -2.16098,-18.01747 -7.19878,-35.57273 -13.51205,-52.54462 C 577.1068,146.72197 566.05708,124.78713 553.44655,103.84747 542.31983,85.419029 529.86343,67.759338 515.81791,51.434592 514.20486,49.669089 512.5738,47.908101 511.24843,45.909136 500.2728,31.217782 485.33503,19.565104 468.49693,12.326724 453.09184,5.6199378 436.34074,2.3806255 419.60391,1.6425243 416.16986,1.4807228 412.6825,0.81240389 409.21371,0.58054639 404.0974,0.12229309 398.95551,-0.08921611 393.81875,0.03510249 Z M 203.41641,13.997993 c 4.89279,0.01662 9.8088,0.402027 14.56041,1.623601 12.11562,2.863783 23.97948,6.717074 36.15401,9.339861 4.69668,1.040097 9.42458,1.942537 14.17815,2.68107 -27.29329,0.85837 -54.58491,3.06037 -81.52149,7.628619 -20.15853,3.451409 -40.14948,8.271897 -59.30134,15.514061 -15.6338,5.923752 -30.729136,13.602425 -43.931066,23.935445 4.809517,-6.209742 9.754987,-12.326148 15.064453,-18.117188 3.363793,-3.553104 6.946793,-6.897413 10.718743,-10.013672 0.74945,-0.608649 1.71309,-1.391131 2.55836,-2.048389 5.68504,-4.434302 11.76614,-8.351322 18.1057,-11.781689 1.15414,-0.620881 2.52454,-1.33911 3.7804,-1.965393 8.29883,-4.163811 16.99319,-7.523023 25.89734,-10.145935 1.50029,-0.436897 3.21879,-0.920743 4.81547,-1.333004 12.69979,-3.273566 25.79108,-5.253238 38.92086,-5.317387 z m 193.38672,0.0098 c 1.80053,0.0033 3.51215,0.04156 5.27734,0.103516 0.58383,0.03375 1.50676,0.07372 2.22045,0.121987 16.33017,1.040243 32.5036,4.534651 47.81921,10.292625 10.81154,4.072204 21.19637,9.338193 30.69667,15.927185 1.1091,0.770446 2.39694,1.696641 3.55409,2.558693 1.42861,1.069627 2.78018,2.116737 4.12059,3.20371 2.16489,1.76349 4.26685,3.609437 6.2532,5.478437 5.925,5.515823 11.04586,11.806997 16.1198,18.092854 1.35307,1.682555 2.58182,3.267757 3.90544,4.984665 C 502.87434,63.845181 486.83397,55.959086 470.30742,49.867382 450.06329,42.47477 428.95091,37.705616 407.6958,34.325389 c -21.71091,-3.399402 -43.63536,-5.306467 -65.58149,-6.296835 -3.38455,-0.151951 -6.7714,-0.272187 -10.15689,-0.382089 11.79399,-1.82272 23.38364,-4.738115 34.86133,-7.964844 6.0128,-1.656016 11.97813,-3.331741 18.10691,-4.628599 3.90423,-0.816324 7.89736,-1.038362 11.87747,-1.045229 z m -100.97071,27.21481 c 16.68185,-0.04218 33.32603,0.122718 49.96726,0.999923 26.17786,1.349422 52.43,4.027458 78.20803,9.29322 5.36113,1.0966 10.74951,2.329311 15.98797,3.669747 7.87689,2.016733 15.67399,4.352437 23.3387,7.06836 3.672,1.306392 7.46736,2.76186 11.11755,4.30151 0.43478,0.225483 1.68006,0.518136 0.53904,0.613027 -7.76643,1.925087 -14.60281,7.342998 -18.12813,14.541518 -1.8673,3.761445 -2.87946,7.946953 -2.91323,12.14746 -5.3927,-6.362148 -13.80329,-9.95399 -22.12156,-9.580458 -9.91736,0.313895 -19.3703,6.471183 -23.71386,15.384844 -4.09256,8.172426 -3.8127,18.388236 0.85661,26.266126 4.56103,7.90563 13.2096,13.31704 22.34681,13.77813 8.62434,0.54096 17.41345,-3.20019 22.92009,-9.87738 4.09265,-4.87728 6.43059,-11.19595 6.49316,-17.56306 4.59843,5.33887 11.28782,8.81202 18.30995,9.44886 7.8834,0.8038 16.03839,-2.00722 21.751,-7.50014 5.98885,-5.61263 9.23571,-13.99153 8.57209,-22.174756 -0.15399,-2.095377 -0.54846,-4.172285 -1.16624,-6.180212 4.31052,3.40234 8.38167,7.120363 12.05859,11.203124 0.71067,0.799091 1.58291,1.798568 2.32715,2.700918 3.95312,4.778946 7.33948,9.991546 10.68654,15.202916 0.31698,0.55508 0.87893,1.29583 1.0449,1.74655 -8.76006,-2.7585 -18.56645,-2.04619 -26.79048,2.06711 -8.73929,4.28797 -15.65329,12.1991 -18.54515,21.51398 -0.82539,2.57167 -1.35688,5.23803 -1.58819,7.92868 -6.23996,-5.92188 -14.63933,-9.5034 -23.2399,-9.84981 -9.81562,-0.47383 -19.74209,3.27242 -26.7878,10.12549 -6.32038,6.07069 -10.31822,14.48983 -10.9723,23.23408 -0.25655,3.34379 -0.0552,6.72212 0.60742,10.00977 -7.45824,-5.10603 -16.85572,-7.2654 -25.79421,-5.91243 -10.4162,1.53641 -20.02806,7.84552 -25.497,16.85546 -5.42845,8.78149 -6.86656,19.93026 -3.72189,29.77695 3.00242,9.65283 10.19275,17.93724 19.41408,22.11902 8.90226,4.12684 19.50114,4.45627 28.60178,0.75054 9.41978,-3.76267 17.14651,-11.60886 20.5938,-21.168 2.28708,-6.2487 2.81608,-13.12817 1.51672,-19.65396 8.09034,5.54175 18.47626,7.61636 28.06132,5.49165 9.9818,-2.12364 18.91503,-8.6865 23.88829,-17.60285 2.55601,-4.51629 4.14875,-9.58763 4.54844,-14.76575 6.44023,6.12552 15.19852,9.72922 24.08772,9.88992 9.4744,0.24105 18.99697,-3.40765 25.80339,-10.02041 2.68544,-2.55824 4.97395,-5.53164 6.76709,-8.77772 1.29628,7.25296 1.87788,14.64473 1.54883,22.00977 -0.0274,0.41946 -0.061,1.21652 -0.0883,1.62723 -0.30416,4.88073 -1.02393,9.73583 -2.16168,14.49191 -0.11291,0.42631 -0.25786,1.05289 -0.38863,1.53441 -0.96504,3.7242 -2.30174,7.58471 -3.85768,11.2028 -5.24405,12.21876 -13.71519,22.89176 -23.83467,31.44776 -11.23548,9.73331 -23.5693,18.36877 -37.20794,24.39205 -7.84562,3.52841 -16.11086,5.98271 -24.39367,8.24484 -6.86609,1.93306 -13.8556,3.87999 -20.01077,7.59415 -22.69971,-15.79376 -46.89888,-29.72192 -72.90241,-39.31622 -18.30204,-6.75007 -37.60986,-11.23568 -57.17454,-11.58653 -10.43687,-0.007 -20.87543,-0.0904 -31.31118,0.0547 -23.13073,0.74499 -45.73377,7.17323 -66.9201,16.20839 -21.59596,9.21924 -41.88167,21.26413 -61.14294,34.6416 -7.70871,-4.6247 -16.59115,-6.54195 -25.12613,-9.03249 -6.63384,-1.87704 -13.30829,-4.10761 -19.53012,-6.91087 -12.064442,-5.36293 -23.116849,-12.78307 -33.273436,-21.17383 -1.128597,-0.9438 -2.431413,-2.03798 -3.607884,-3.06095 -4.018153,-3.42888 -7.813401,-7.12867 -11.218288,-11.17147 -0.685306,-0.82223 -1.513956,-1.83055 -2.226563,-2.74805 -0.8001,-1.02558 -1.718563,-2.26095 -2.515743,-3.40476 -2.343109,-3.33856 -4.437285,-6.85211 -6.247929,-10.50735 -0.513335,-1.0382 -1.110471,-2.31629 -1.606763,-3.47092 -0.595858,-1.37354 -1.15105,-2.74538 -1.643639,-4.07447 -2.981255,-8.04985 -4.574882,-16.58606 -4.950769,-25.15383 -0.04954,-1.19159 -0.08466,-2.63588 -0.08531,-3.92617 0.03446,-19.09716 5.793392,-37.85117 14.228326,-54.92073 0.641096,-1.27164 1.392626,-2.77546 2.108062,-4.12023 3.425212,-6.51014 7.318246,-12.87669 11.422753,-18.90787 3.299358,-4.86935 6.901182,-9.737286 11.100866,-13.972302 C 93.249774,83.388106 106.94324,75.043959 121.24472,68.553661 136.4067,61.729348 152.39403,56.88918 168.57986,53.17731 c 8.12484,-1.854203 16.2459,-3.391644 24.45251,-4.731953 4.61977,-0.739587 9.43984,-1.443826 14.08926,-2.050265 10.08023,-1.322888 20.14437,-2.323786 30.29698,-3.095611 10.31462,-0.789399 20.66881,-1.308923 31.05875,-1.652643 9.05847,-0.29698 18.24997,-0.401273 27.35508,-0.424255 z m 37.04102,7.685547 c -22.72932,0.01071 -45.45966,-0.03319 -68.18834,0.04149 -5.80676,0.198074 -11.58321,2.918141 -15.0719,7.629978 -3.18429,4.159606 -4.59975,9.29293 -6.31646,14.158252 -2.46592,7.363093 -4.48924,14.862367 -6.61276,22.328482 4.50109,1.234526 9.00234,2.468444 13.50391,3.701172 2.88315,-9.988823 5.48935,-20.094457 9.385,-29.751715 0.81691,-1.855711 2.32975,-3.625073 4.45289,-3.88891 2.75112,-0.45883 5.54993,-0.105621 8.32227,-0.218812 20.9427,0.0084 41.88648,-0.02835 62.82851,0.03806 2.05372,0.104897 4.11962,1.208844 4.99911,3.129627 1.46911,2.715726 2.28283,5.719397 3.33068,8.609505 2.02047,6.022884 3.7365,12.144513 5.48582,18.247534 0.62815,2.054333 2.96284,3.313129 5.02971,2.75854 3.1807,-0.884278 6.36934,-1.754895 9.55468,-2.628907 -3.06653,-10.654599 -5.83185,-21.440573 -10.08153,-31.70399 -2.30517,-5.199645 -6.61949,-9.700713 -12.15141,-11.375868 -2.72739,-0.876742 -5.61639,-1.149099 -8.47018,-1.074438 z M 161.85,68.597603 c -17.46695,0.630358 -34.4184,7.144317 -48.61371,17.184824 -19.930795,14.094547 -34.91486,34.986453 -42.042888,58.319383 -4.989638,16.47399 -5.929703,34.38103 -1.344813,51.05906 3.445732,12.4861 10.16412,24.17638 19.80675,32.89888 10.406191,9.50572 23.984291,15.40227 38.006851,16.69674 15.03905,1.49197 30.31717,-1.82844 43.88117,-8.32881 20.93585,-10.02938 38.02151,-27.3681 48.77245,-47.84707 8.90308,-16.9474 13.46257,-36.38322 11.74847,-55.52996 C 230.74559,118.1521 225.36555,103.407 215.66481,91.904456 207.95777,82.670644 197.61896,75.673209 186.1789,71.958568 178.3591,69.384113 170.06912,68.318503 161.85,68.597603 Z m 319.81836,11.74414 c 5.94539,-0.101972 11.64774,4.149199 13.23154,9.885346 1.52082,5.161223 -0.24855,11.167881 -4.4992,14.521031 -4.01192,3.30501 -9.94691,4.08187 -14.62492,1.76549 -4.35389,-2.07356 -7.50764,-6.526826 -7.79368,-11.369395 -0.37019,-4.792895 1.90461,-9.732596 5.94353,-12.39389 2.26754,-1.545302 4.99688,-2.403082 7.74273,-2.408582 z m -317.03125,2.226563 c 8.73196,0.02753 17.51555,1.974042 25.22821,6.129917 7.87294,4.161863 14.59238,10.445781 19.28194,18.015367 6.04887,9.62781 8.94771,21.00272 9.24264,32.31103 0.0956,3.84099 -0.0776,7.68941 -0.53404,11.50462 -1.4647,-13.44621 -7.18027,-26.36639 -16.06858,-36.55295 -8.51888,-9.8409 -19.94565,-17.126385 -32.4783,-20.651796 -14.28429,-4.061356 -29.90634,-3.228405 -43.6629,2.377873 -2.15508,0.876559 -4.26838,1.857323 -6.31952,2.955787 11.53091,-8.605175 25.26598,-14.577968 39.67787,-15.845419 1.87226,-0.172406 3.75297,-0.23762 5.63268,-0.244429 z m 268.73242,15.679687 c 5.62486,0.105654 10.95647,4.030577 12.65403,9.408627 1.84586,5.36937 -0.0539,11.80012 -4.6145,15.21633 -4.15337,3.2441 -10.22281,3.84927 -14.86052,1.28398 -4.17438,-2.19243 -7.11089,-6.62106 -7.2985,-11.35846 -0.2855,-4.73519 2.0118,-9.56664 6.0059,-12.17475 2.37262,-1.608566 5.24771,-2.450437 8.11359,-2.375727 z M 134.14102,107.5683 c -0.29294,2.80007 -0.43942,5.61495 -0.69141,8.41992 -0.11368,1.48105 -0.21775,2.96288 -0.33789,4.44336 -4.20847,-2.1748 -8.59361,-3.9731 -12.91016,-5.91406 4.27442,-3.01035 8.98778,-5.40268 13.95508,-7.03711 z m 41.76562,3.39453 c 4.42985,2.35659 8.53603,5.32795 12.13281,8.82813 -4.58058,1.1789 -9.16077,2.36876 -13.6914,3.73047 0.31671,-4.29318 0.69948,-8.58198 0.93164,-12.88086 0.20898,0.10742 0.41797,0.21484 0.62695,0.32226 z m -25.57031,2.15625 c 2.74922,-0.0148 5.68733,0.23413 8.2793,0.67383 0.80533,0.14323 1.60977,0.29383 2.40625,0.48047 -0.38696,5.38984 -0.94551,10.7725 -1.12448,16.17381 0.0223,6.53371 2.49259,13.27172 7.53405,17.58991 4.50307,3.93536 10.52242,5.70271 16.415,5.9411 3.99728,0.31063 7.99456,0.62127 11.99183,0.9319 0.31137,4.45898 -0.0372,8.9632 -1.02539,13.32226 -5.39969,-0.39036 -10.79146,-0.96105 -16.20269,-1.14486 -6.71893,0.0175 -13.59285,2.81914 -17.80736,8.1699 -3.91938,4.82676 -5.55398,11.102 -5.82875,17.21961 -0.26858,3.52197 -0.53715,7.04393 -0.80573,10.5659 -4.44747,0.305 -8.9407,-0.0383 -13.28711,-1.03125 0.3645,-5.31907 0.95816,-10.6294 1.05524,-15.96208 -0.0939,-6.24626 -2.20148,-12.70854 -6.81079,-17.08469 -4.51108,-4.37065 -10.83983,-6.37388 -17.01249,-6.67539 -4.01612,-0.31071 -8.03224,-0.62142 -12.04837,-0.93214 -0.31599,-4.45196 0.0299,-8.94936 1.01172,-13.30273 5.4074,0.3792 10.80773,0.93358 16.22654,1.0988 6.0605,-0.0237 12.35834,-1.9725 16.66409,-6.39177 4.40363,-4.46388 6.43059,-10.77317 6.78331,-16.92789 0.33439,-4.20372 0.66384,-8.40774 0.97645,-12.61312 0.86827,-0.0641 1.73916,-0.0837 2.60938,-0.10157 z m 234.82031,2.60352 c -9.74365,0.36672 -19.02265,6.35524 -23.40781,15.05858 -4.24039,8.17585 -4.04097,18.48755 0.61289,26.45118 4.54047,7.97961 13.23597,13.45173 22.4266,13.91505 8.62434,0.54097 17.41344,-3.20018 22.92008,-9.87737 5.36237,-6.35918 7.64815,-15.19773 5.93967,-23.35019 -1.78303,-8.89746 -8.1924,-16.7403 -16.63063,-20.12605 -3.73769,-1.54935 -7.8205,-2.24643 -11.8608,-2.0712 z m -272.60937,5.38476 c 0.97711,3.43618 1.80377,6.92032 2.82,10.34873 0.30432,1.10133 0.63324,2.19551 0.96125,3.28995 -4.29776,-0.32837 -8.59154,-0.72191 -12.89649,-0.94336 2.39054,-4.64208 5.46618,-8.97929 9.11524,-12.69532 z m 19.96289,5.97852 c -0.43715,2.74644 -1.59177,5.78149 -4.27244,7.03805 -1.66699,0.82745 -3.55883,1.05142 -5.39944,1.04789 3.23671,-2.73502 6.44855,-5.49969 9.68555,-8.23438 l -0.009,0.0996 z m 62.61914,1.13477 c 2.75558,4.06115 4.94508,8.50526 6.48242,13.16601 -2.41142,-0.36259 -4.86011,-0.37769 -7.28418,-0.63311 -1.87538,-0.14557 -3.75247,-0.26927 -5.62793,-0.41376 2.09286,-4.24599 3.90978,-8.62024 5.86328,-12.92969 0.1888,0.27018 0.37761,0.54036 0.56641,0.81055 z m 328.47461,0.84179 c 3.37332,-0.0181 6.73106,0.81375 9.75,2.30664 0.19606,0.10383 0.83859,0.42855 1.18945,0.63868 5.50177,3.0803 9.49478,8.64044 10.72054,14.81886 1.48676,6.84807 -0.60048,14.30056 -5.32023,19.45975 -5.16507,5.75862 -13.47575,8.42553 -21.03072,6.7811 -7.32887,-1.52239 -13.74402,-6.95406 -16.27887,-14.0224 -2.47788,-6.66482 -1.58232,-14.51994 2.53898,-20.34651 3.7673,-5.48549 10.07459,-9.18371 16.7421,-9.56789 0.56161,-0.0514 1.12553,-0.0501 1.68875,-0.0682 z m -136.76367,0.62696 c 5.62485,0.10565 10.95647,4.03058 12.65403,9.40862 1.8515,5.38703 -0.0669,11.84355 -4.65949,15.25074 -4.1503,3.215 -10.19485,3.80524 -14.81553,1.24957 -4.20398,-2.20765 -7.15221,-6.68458 -7.30269,-11.45837 -0.25256,-4.71317 2.05498,-9.50735 6.03639,-12.09048 2.36533,-1.60134 5.23283,-2.43093 8.08729,-2.36008 z m -212.01172,1.45312 c 2.44378,2.87063 4.89645,5.73404 7.33007,8.61328 -3.11208,-0.30569 -6.3762,-2.04325 -7.48208,-5.12499 -0.57507,-1.44593 -0.74584,-3.01675 -0.75424,-4.56251 0.30208,0.35807 0.60416,0.71615 0.90625,1.07422 z m -24.66797,8.78516 c -7.64303,0.21984 -14.76726,5.82964 -16.77279,13.20965 -1.93999,6.62699 0.30128,14.26449 5.5658,18.74845 5.18897,4.58505 13.08951,5.83832 19.39708,2.92639 6.22339,-2.74292 10.63826,-9.18742 10.81381,-16.00559 0.29921,-6.96615 -3.7677,-13.93272 -10.06836,-16.9707 -2.75457,-1.37706 -5.85903,-2.03749 -8.93554,-1.9082 z M 83.945709,151.0019 c -1.591688,14.80472 1.883071,30.10849 9.801462,42.72738 9.067939,14.58082 23.872209,25.5113 40.544859,29.69018 10.02971,2.54708 20.64472,2.74249 30.765,0.5883 -12.23872,5.77002 -26.16395,8.53592 -39.61692,6.33095 -9.16876,-1.47064 -17.94094,-5.42346 -25.0086,-11.46377 -3.969346,-3.34717 -7.395401,-7.32467 -10.173301,-11.70898 -0.183548,-0.3141 -0.602036,-0.96518 -0.861349,-1.42096 -1.981231,-3.32551 -3.647399,-7.01785 -4.871073,-10.58295 -3.325794,-9.60406 -4.232804,-19.94025 -3.291016,-30.02929 0.04355,-0.37424 0.131573,-1.27258 0.172311,-1.65395 0.123014,-1.04865 0.228317,-1.84151 0.381148,-2.87261 0.534997,-3.57357 1.293255,-7.11381 2.27076,-10.59259 -0.03776,0.32943 -0.07552,0.65886 -0.113281,0.98829 z m 378.607421,1.33984 c 8.2725,-0.088 16.35279,4.92327 19.92663,12.39014 3.2882,6.64832 3.007,14.95393 -0.89085,21.29036 -3.55525,5.951 -9.99942,10.11093 -16.93188,10.68705 -6.689,0.65422 -13.6368,-1.86243 -18.2307,-6.79575 -1.93048,-2.03416 -3.46826,-4.43591 -4.52945,-7.03078 -0.11882,-0.31144 -0.3887,-0.98277 -0.53308,-1.45495 -2.28347,-6.80171 -0.90154,-14.64393 3.45211,-20.32843 4.11855,-5.46999 10.89216,-8.80662 17.73722,-8.75764 z m -311.28321,1.58398 c 2.6052,0.0954 4.58075,3.01343 3.70899,5.47266 -0.62665,2.09283 -2.99087,3.48127 -5.11367,2.83559 -2.09987,-0.51125 -3.56053,-2.75953 -3.08555,-4.88442 0.34575,-2.10364 2.38653,-3.60676 4.49023,-3.42383 z M 31.217193,166.41986 c -2.722693,15.28185 -2.553324,31.20642 1.55797,46.2284 3.717915,13.85008 10.771291,26.74632 20.225379,37.51211 5.948329,6.88439 12.923957,12.78333 20.055713,18.3958 12.99864,10.16464 27.461445,18.61924 43.125005,23.93661 7.17326,2.49754 14.543,4.35651 21.80796,6.55595 1.47555,0.45967 2.94415,0.94517 4.38617,1.50199 -2.17012,1.51906 -4.54422,3.04705 -6.70508,4.37891 -12.26604,7.37178 -25.45309,13.29543 -39.271476,17.07617 -0.685187,0.18091 -1.67226,0.44317 -2.47549,0.64727 -9.86755,2.42563 -20.187744,3.72448 -30.307074,2.25035 -6.640642,-0.89916 -13.037873,-3.38464 -18.578764,-7.14762 -3.48828,-2.28308 -6.704105,-4.97482 -9.603516,-7.96875 -0.479315,-0.4977 -1.158475,-1.21607 -1.693769,-1.82409 -4.684697,-5.23572 -8.417418,-11.34224 -11.179087,-17.73651 -2.964409,-6.77166 -4.963032,-13.93624 -6.291207,-21.19916 -0.08492,-0.47906 -0.225872,-1.31457 -0.332261,-1.9302 -1.816392,-10.94048 -2.183523,-22.07638 -1.755629,-33.14402 0.04441,-0.77961 0.09669,-1.86436 0.144119,-2.76113 0.815882,-12.64133 3.460518,-25.10427 6.970028,-37.254 1.371082,-4.71108 2.898015,-9.42018 4.509919,-13.98617 1.748137,-4.99148 3.640792,-9.93174 5.647418,-14.82487 -0.07878,0.43099 -0.157552,0.86197 -0.236328,1.29296 z m 538.412107,0.69336 c 0.64495,1.63916 1.38614,3.46894 2.03433,5.19545 5.10767,13.38466 9.38446,27.12721 12.02817,41.22252 0.72757,3.94038 1.36118,8.09587 1.79473,12.15445 0.80451,7.98225 0.91164,16.02413 0.60566,24.03696 -0.0447,0.77959 -0.0973,1.86432 -0.1451,2.76108 -0.0936,1.47944 -0.21487,3.25821 -0.36209,4.85639 -0.19436,2.12502 -0.42456,4.08834 -0.71142,6.21996 -0.65321,4.80329 -1.6177,9.71786 -2.85561,14.30905 -3.019,11.20003 -8.16631,22.24131 -16.17959,30.85324 -5.66405,6.12389 -12.63362,11.15669 -20.48252,14.06668 -8.52618,2.99601 -17.83041,3.22501 -26.68945,2.15821 -0.73776,-0.0908 -1.78223,-0.23103 -2.63279,-0.3604 -4.58439,-0.68775 -9.18303,-1.72055 -13.56952,-2.9669 -12.67398,-3.65379 -24.82305,-9.05156 -36.19793,-15.71042 -2.8298,-1.67705 -5.7017,-3.5201 -8.33609,-5.36072 1.09513,-0.42155 2.04259,-0.75031 3.18707,-1.12876 1.72907,-0.57878 3.45156,-1.05611 5.12933,-1.54702 10.2164,-2.80333 20.43475,-5.79499 30.07659,-10.24444 16.38757,-7.5202 31.10927,-18.28634 44.29705,-30.50561 12.41064,-11.80155 21.91914,-26.79333 26.56817,-43.32429 4.4575,-15.61394 4.70924,-32.25312 1.73354,-48.16391 -0.21736,-0.94508 0.18566,0.25486 0.3351,0.56877 0.12412,0.30324 0.24825,0.60648 0.37237,0.90971 z m -469.36523,7.75391 c 2.136,0.40953 4.32671,0.36968 6.48589,0.60427 2.08586,0.15928 4.17323,0.29961 6.25824,0.46995 -1.8906,4.30444 -3.7341,8.63036 -5.71093,12.89648 -3.01464,-4.26639 -5.42894,-9.03712 -7.0332,-13.9707 z m 19.58202,1.68359 c 2.86974,0.42435 5.94346,1.86952 7.08099,4.71658 0.69288,1.53534 0.93443,3.23235 0.97761,4.90452 -2.71935,-3.21737 -5.46693,-6.40971 -8.17969,-9.63282 l 0.0995,0.01 z m 177.62891,3.47071 c -9.9177,0.3455 -19.98236,2.24235 -28.78572,6.98659 -4.97745,2.72254 -9.55961,6.73784 -11.64983,12.13645 -1.96227,5.20718 -0.93873,11.36085 2.51462,15.70998 3.82242,5.11579 9.62603,8.28728 15.49954,10.4895 9.94246,3.66092 20.7122,4.6307 31.23232,3.92212 8.90472,-0.64763 17.84879,-2.69711 25.70979,-7.03824 4.84163,-2.73076 9.29874,-6.71778 11.26834,-12.04039 1.67219,-4.62981 1.08688,-10.0007 -1.60378,-14.13142 -3.22934,-5.21792 -8.62294,-8.63708 -14.15469,-11.00629 -8.96541,-3.80366 -18.8039,-5.13456 -28.4887,-5.06591 -0.51397,0.0125 -1.02793,0.0251 -1.54189,0.0376 z m -119.53906,2.00781 c -2.83476,2.4139 -5.66326,4.83562 -8.50586,7.24023 0.59226,-3.05717 2.24604,-6.2508 5.2978,-7.43849 1.37091,-0.54221 2.85501,-0.72763 4.32134,-0.73924 -0.37109,0.3125 -0.74219,0.625 -1.11328,0.9375 z m 9.80664,-0.31641 c 3.56069,0.26696 7.11846,0.58809 10.68555,0.75586 -2.39142,4.68356 -5.49213,9.00196 -9.15625,12.77344 -1.14021,-4.59114 -2.38575,-9.15591 -3.7168,-13.69531 0.72917,0.0553 1.45833,0.11067 2.1875,0.16601 z m 218.8418,7.73047 c 7.86576,-0.0669 15.5877,4.41407 19.37601,11.31832 1.72931,3.06142 2.70593,6.53446 2.84469,10.04692 0.007,0.30081 0.031,1.0208 0.008,1.49168 -0.1543,6.82131 -3.67799,13.44473 -9.22452,17.41089 -5.16362,3.76467 -11.97919,5.10041 -18.1866,3.59806 -6.44286,-1.50258 -12.07022,-6.05635 -14.88729,-12.04237 -0.66396,-1.36071 -1.22859,-3.04222 -1.54549,-4.3528 -0.89922,-3.67869 -0.83674,-7.58249 0.18945,-11.22851 0.0952,-0.37021 0.31901,-1.09057 0.50196,-1.58594 2.35216,-6.61901 8.02723,-11.94189 14.80813,-13.80628 1.98655,-0.56372 4.05061,-0.84998 6.1157,-0.84997 z m -279.2129,5.41992 c -0.28113,3.59033 -0.58636,7.17981 -0.75781,10.77735 -4.67856,-2.4015 -9.00361,-5.49637 -12.77343,-9.16407 4.58411,-1.16182 9.15593,-2.37772 13.6914,-3.71874 -0.0534,0.70182 -0.10677,1.40364 -0.16016,2.10546 z m 43.94141,2.32813 c 3.45559,1.5053 6.90906,3.01787 10.33789,4.58398 -4.27434,3.02356 -9.00243,5.40239 -13.97265,7.04688 0.3915,-2.25952 0.3765,-4.56694 0.61718,-6.84571 0.14681,-1.97022 0.28486,-3.94112 0.44727,-5.91015 0.85677,0.375 1.71354,0.75 2.57031,1.125 z m 128.34961,3.73047 c 5.34382,0.0259 10.84585,0.57545 15.74428,2.85707 0.60937,0.28866 1.21179,0.59997 1.77135,0.97496 -3.69361,2.32498 -8.09729,3.17713 -12.38231,3.6006 -6.60213,0.60963 -13.45901,0.11536 -19.63251,-2.4474 -0.68567,-0.3226 -1.57815,-0.70493 -2.03792,-1.17469 2.45594,-1.6461 5.38695,-2.38881 8.24219,-3.00976 2.7324,-0.5331 5.51311,-0.7682 8.29492,-0.80078 z" /><path
   id="path3"
   d="m 394.725,6.0214306 c -3.71751,0.086812 -6.85791,0.372125 -9.28516,0.796875 -19.101,3.3430004 -45.79086,15.0937504 -81.88086,15.0937504 h -6.875 c -36.09,0 -62.74179,-11.75175 -81.84179,-15.0937504 -2.428,-0.425 -5.59645,-0.69225 -9.31445,-0.78125 l 0.01,-0.00195 c -6.44025,-0.1541503 -14.7297,0.3976042 -23.92578,1.7480468 l -0.008,-0.1855468 h -0.006 c -17.037,0.7889999 -61.16125,4.4550004 -89.406247,44.1250004 l 0.126953,0.08984 c -0.791406,0.852777 -1.633701,1.621037 -2.40625,2.503907 C 50.159506,99.745354 8.5688025,177.064 6.1918025,233.164 v 0.0313 c -2.359,55.86599 17.6585005,82.523 39.4375005,94.25 16.198999,8.72399 36.669249,7.12129 55.656247,1.52929 18.987,-5.592 36.52,-15.22175 47,-22.84375 20.74,-15.09 80.06875,-57.78906 139.46875,-57.78906 h 24.78125 c 59.403,0 118.6975,42.6963 139.4375,57.7793 10.479,7.623 28.014,17.2527 47,22.8457 18.987,5.592 39.4885,7.19075 55.6875,-1.53125 21.783,-11.729 41.77625,-38.3923 39.40625,-94.2793 -2.38,-56.09 -43.95046,-133.408886 -83.68946,-178.837884 -0.77632,-0.88683 -1.62255,-1.659155 -2.41796,-2.515625 l 0.11132,-0.08008 c -28.24,-39.67 -72.36843,-43.3350006 -89.39843,-44.1250005 h -0.008 l -0.006,0.1386718 C 409.43697,6.3748381 401.17966,5.8706995 394.725,6.0214306 Z m -189.18164,2.0019531 -0.006,0.011719 c 3.631,0.083 6.68175,0.3499999 8.96875,0.7500002 18.621,3.2580001 45.6645,15.1250001 82.1875,15.1250001 h 6.875 c 36.522,0 63.59675,-11.866 82.21875,-15.1250001 9.148,-1.6010002 30.2223,-1.1612502 53.7793,5.3437501 23.559,6.505 49.6775,19.059 69.3125,41.5 39.461,45.101997 80.8495,122.407887 83.1875,177.587887 2.349,55.389 -17.25,81.0625 -38.375,92.4375 -15.485,8.339 -35.414,6.886 -54.125,1.375 -18.71,-5.51 -36.1393,-15.033 -46.4043,-22.5 -1.80356,-1.31172 -4.25874,-3.06383 -6.62305,-4.75195 8.05946,-5.89511 18.37243,-7.37481 32.08789,-11.76758 14.349,-4.595 32.25305,-12.48205 54.74805,-32.37305 21.933,-19.394 32.068,-44.127 31.5,-71.125 -0.567,-26.998 -11.7663,-56.256 -32.2793,-84.874996 -19.315,-26.946999 -54.224,-43.502999 -95.25,-53.374999 -41.025,-9.873 -88.23695,-13.03125 -132.37695,-13.03125 h -9.68945 l 0.006,-0.0078 c -44.134,0 -91.34891,3.15925 -132.37891,13.03125 -41.026,9.872 -75.899791,26.427 -95.216791,53.375001 -20.514,28.619004 -31.71425,57.876004 -32.28125,84.875004 -0.567,26.997 9.53575,51.73005 31.46875,71.12305 22.496,19.891 40.431291,27.779 54.779291,32.375 13.73315,4.39874 24.02915,5.87384 32.0918,11.78906 -2.3561,1.6825 -4.80507,3.43022 -6.60352,4.73828 -10.267,7.467 -27.69625,16.989 -46.40624,22.5 -18.711002,5.511 -38.670252,6.965 -54.156253,-1.375 -21.131,-11.38 -40.7269058,-37.04945 -38.3789058,-92.43945 2.3389998,-55.18 43.7557968,-132.48766 83.2167968,-177.597664 19.633992,-22.44 45.723202,-34.994 69.283202,-41.5 17.669,-4.8780123 33.94984,-6.3407623 44.83984,-6.0937623 z m -41.83203,3.3613283 c -1.19879,0.304219 -2.33483,0.502668 -3.54883,0.837891 -18.53534,5.11824 -38.61854,14.008304 -56.04297,28.414062 19.10783,-19.307545 42.30165,-26.467088 59.5918,-29.251953 z m 273.31836,0.07617 c 17.21318,2.835319 40.12122,10.023221 59.03906,29.095703 -17.41442,-14.359039 -37.47883,-23.223871 -55.98047,-28.332029 -1.03625,-0.28621 -2.03327,-0.500058 -3.05859,-0.763672 z M 295.29531,35.224556 h 9.6875 c 44.037,0 91.12321,3.187 131.90821,13 40.78,9.813 75.21775,26.26075 94.09375,52.593744 20.339,28.374 31.34929,57.24375 31.90429,83.71875 0.557,26.475 -9.2815,50.55675 -30.8125,69.59375 -22.319,19.719 -39.89812,27.42975 -54.07812,31.96875 -13.83449,4.42938 -24.53073,5.82357 -33.17969,12.44336 -25.63319,-18.1415 -78.52874,-52.20117 -132.27344,-52.20117 h -24.78125 c -53.75542,0 -106.65428,34.06692 -132.2832,52.20703 -8.65304,-6.63118 -19.38068,-8.02299 -33.22461,-12.45508 -14.18,-4.54 -31.733244,-12.24875 -54.031244,-31.96875 -21.531,-19.03 -31.3685,-43.10984 -30.8125,-69.58984 0.557,-26.47 11.56825,-55.3388 31.90625,-83.7168 18.877,-26.332994 53.277404,-42.780744 94.066404,-52.593744 40.78,-9.813 87.86815,-13 131.91015,-13 z M 266.28555,54.90815 c -2.083,0 -4.7265,0.224 -7.3125,1.5 -2.586,1.277 -5.0805,3.63575 -6.8125,7.59375 -3.385,7.735 -8.0625,24.875 -8.0625,24.875 l 1.9375,0.53125 c 0,0 4.75075,-17.272 7.96875,-24.625 1.569,-3.585 3.687,-5.4815 5.875,-6.5625 2.188,-1.081 4.48125,-1.3125 6.40625,-1.3125 h 29 9.6875 29 c 1.926,0 4.2495,0.2315 6.4375,1.3125 2.188,1.081 4.27475,2.9775 5.84375,6.5625 3.218,7.354 7.96875,24.625 7.96875,24.625 l 1.9375,-0.53125 c 0,0 -4.6775,-17.139 -8.0625,-24.875 -1.731,-3.958 -4.2265,-6.31575 -6.8125,-7.59375 -2.585,-1.276 -5.2285,-1.5 -7.3125,-1.5 h -29 -9.6875 z m 215.4082,17.4375 c -11.998,0 -21.75,9.752 -21.75,21.75 0,11.998 9.752,21.75 21.75,21.75 11.998,0 21.75,-9.751 21.75,-21.75 0,-11.999 -9.752,-21.75 -21.75,-21.75 z m 0,2 c 10.917,0 19.75,8.833 19.75,19.75 0,10.917 -8.833,19.75 -19.75,19.75 -10.917,0 -19.75,-8.833 -19.75,-19.75 0,-10.917 8.833,-19.75 19.75,-19.75 z m -315.67969,0.224609 c -26.62371,-0.611668 -55.45822,14.393562 -74.464836,41.445311 -27.647,39.348 -24.268937,89.61847 7.914063,112.23047 32.183993,22.613 80.646823,8.77087 108.298823,-30.57813 27.647,-39.347 24.24355,-89.635 -7.93945,-112.249995 l -0.006,0.002 C 189.7593,78.353306 178.11575,74.84829 166.01406,74.570259 Z m -0.11718,2.013672 c 11.76498,0.258774 23.05945,3.651015 32.77539,10.478515 31.08776,21.850344 34.5883,70.828914 7.44726,109.453124 -27.143,38.629 -74.41481,51.93784 -105.50781,30.08984 -31.084996,-21.84 -34.562918,-70.8085 -7.419917,-109.4375 C 111.84986,90.61254 140.01391,76.014627 165.89688,76.583931 Z M 432.975,90.2519 c -11.999,0 -21.75,9.751 -21.75,21.75 0,11.999 9.752,21.75 21.75,21.75 11.998,0 21.75,-9.751 21.75,-21.75 0,-11.999 -9.752,-21.75 -21.75,-21.75 z m 0,2 c 10.918,0 19.75,8.832 19.75,19.75 0,10.918 -8.832,19.75 -19.75,19.75 -10.918,0 -19.75,-8.832 -19.75,-19.75 0,-10.918 8.832,-19.75 19.75,-19.75 z m -282.02734,4.53125 c -33.873,0 -61.374998,27.47175 -61.374998,61.34375 0,33.872 27.501998,61.37304 61.374998,61.37304 33.873,0 61.34179,-27.50104 61.34179,-61.37304 0.001,-33.872 -27.46879,-61.34375 -61.34179,-61.34375 z m 0,2.000004 c 32.792,0 59.34179,26.552746 59.34179,59.343746 0,32.792 -26.55079,59.37304 -59.34179,59.37304 -32.792,0 -59.374998,-26.58104 -59.374998,-59.37304 0.001,-32.791 26.582998,-59.343746 59.374998,-59.343746 z m 0.84765,6.341786 c -1.06662,-0.0218 -2.12609,-0.0103 -3.18359,0.0352 l -0.0137,-0.002 c -2.105,0.09 -4.17675,0.32325 -6.21875,0.65625 -0.01,10e-4 -0.0212,-0.002 -0.0312,0 v 0.0312 c -0.613,0.091 -1.28646,0.36125 -1.68946,0.90625 -0.412,0.556 -0.562,1.2475 -0.625,2.0625 l -1.3125,16.78125 c -0.433,5.602 -2.2125,9.6265 -5.1875,12.1875 -2.974,2.56 -7.24725,3.7485 -12.90625,3.3125 l -16.42187,-1.2793 c -0.825,-0.063 -1.48625,-0.0958 -2.15625,0.15625 -0.67,0.252 -1.19475,0.846 -1.46875,1.5 v 0.0625 0.0312 c -1.300996,3.967 -2.163996,8.153 -2.499996,12.5 -0.321,4.151 -0.1695,8.20825 0.4375,12.15625 v 0.0312 c 0.271,1.478 1.688246,2.69175 3.656246,2.84375 l 16.3125,1.25 c 5.46,0.422 9.45925,2.272 12.03125,5.375 2.572,3.102 3.7595,7.55675 3.3125,13.34375 l -1.1875,15.5 c -0.076,0.989 -0.0643,1.77075 0.21875,2.46875 0.284,0.697 0.885,1.18575 1.5,1.46875 l 0.0625,0.0312 0.0312,0.0312 c 3.935,1.283 8.10025,2.1045 12.40625,2.4375 4.21,0.324 8.34275,0.15925 12.34375,-0.46875 h 0.0312 l 0.0312,-0.0312 c 0.684,-0.15 1.37575,-0.52325 1.84375,-1.15625 0.468,-0.633 0.70425,-1.4375 0.78125,-2.4375 l 1.1875,-15.4375 c 0.438,-5.673 2.34775,-9.91425 5.34375,-12.65625 2.996,-2.743 7.13775,-4.05925 12.34375,-3.65625 l 16.6875,1.28125 c 0.912,0.07 1.66425,0.089 2.40625,-0.25 0.742,-0.339 1.24145,-1.02275 1.56445,-1.84375 l 0.0293,-0.0312 v -0.0312 c 1.222,-3.836 2.0227,-7.8775 2.3457,-12.0625 0.325,-4.204 0.1553,-8.31655 -0.4707,-12.31055 v -0.0644 l -0.0293,-0.0625 c -0.155,-0.574 -0.40845,-1.1875 -0.93945,-1.6875 -0.531,-0.5 -1.2865,-0.806 -2.1875,-0.875 l -17.21875,-1.3125 c -5.147,-0.397 -9.04975,-2.253 -11.59375,-5.25 -2.544,-2.997 -3.789,-7.2065 -3.375,-12.5625 l 1.25,-16.46875 c 0.06,-0.778 0.169,-1.408 0,-2.125 -0.17,-0.717 -0.80875,-1.4005 -1.59375,-1.6875 l -0.0312,-0.0312 c -3.994,-1.32 -8.21375,-2.161 -12.59375,-2.5 -1.082,-0.0835 -2.15603,-0.13841 -3.22266,-0.16016 z m -0.0586,2.00391 c 1.032,0.022 2.06933,0.0738 3.11133,0.1543 4.208,0.326 8.25975,1.14225 12.09375,2.40625 0.01,0.003 0.0223,-0.003 0.0312,0 0.305,0.109 0.2695,0.07 0.3125,0.25 0.045,0.192 0.0317,0.74225 -0.0293,1.53125 l -1.28125,16.46875 c -0.444,5.749 0.90575,10.539 3.84375,14 2.938,3.461 7.42075,5.5085 12.96875,5.9375 l 17.22852,1.33984 c 0.588,0.045 0.81675,0.17045 0.96875,0.31445 0.135,0.127 0.277,0.3675 0.375,0.6875 0.003,0.011 -0.003,0.0203 0,0.0312 0.598,3.833 0.75145,7.77255 0.43945,11.81055 -0.309,4.007 -1.0557,7.8925 -2.2207,11.5625 -0.007,0.021 -0.0223,0.0405 -0.0293,0.0625 -0.197,0.473 -0.334,0.61245 -0.5,0.68945 -0.179,0.082 -0.62745,0.15575 -1.43945,0.0937 l -16.6875,-1.3125 c -5.626,-0.436 -10.43,1.0325 -13.875,4.1875 -3.445,3.154 -5.50175,7.92775 -5.96875,13.96875 l -1.16993,15.43946 c -0.06,0.765 -0.24125,1.18425 -0.40625,1.40625 -0.165,0.224 -0.31725,0.33029 -0.65625,0.40429 -3.83,0.597 -7.7785,0.75046 -11.8125,0.43946 -4.103,-0.316 -8.06154,-1.10146 -11.81054,-2.31446 -0.343,-0.157 -0.415,-0.19529 -0.5,-0.40429 -0.085,-0.209 -0.12946,-0.71046 -0.0645,-1.56446 l 1.18946,-15.5 c 0.475,-6.143 -0.80625,-11.162 -3.78125,-14.75 -2.975,-3.588 -7.5955,-5.673 -13.4375,-6.125 l -16.28125,-1.25 c -1.291,-0.1 -1.70245,-0.62525 -1.81445,-1.15625 -0.583001,-3.798 -0.746501,-7.71975 -0.4375,-11.71875 0.322,-4.162 1.10275,-8.17075 2.34374,-11.96875 0.013,-0.032 0.0203,-0.004 0.0312,-0.0312 0.003,-0.01 -0.003,-0.0213 0,-0.0312 0.108,-0.243 0.16625,-0.29975 0.28125,-0.34375 0.133,-0.05 0.5695,-0.0883 1.3125,-0.0312 l 16.43946,1.25 c 6.014,0.464 10.911,-0.768 14.375,-3.75 3.464,-2.982 5.415,-7.60654 5.875,-13.56054 l 1.27929,-16.80079 c 0.046,-0.595 0.19425,-0.882 0.28125,-1 0.087,-0.118 0.11075,-0.1565 0.34375,-0.1875 h 0.0312 c 1.973,-0.323 3.965,-0.538 6,-0.625 l -0.0293,0.0195 c 1.018,-0.0435 2.04417,-0.0513 3.07617,-0.0293 z m -33.12891,13.24609 -0.01,0.008 0.25,1 1.8125,6.84374 0.2207,0.75 0.59375,-0.5 4.65625,-4 0.59375,-0.5 -0.71094,-0.3496 -6.46875,-2.81446 z m 404.89649,0.6875 c -16.685,0 -30.25,13.565 -30.25,30.25 0,16.685 13.565,30.21875 30.25,30.21875 16.685,0 30.21875,-13.53275 30.21875,-30.21875 0,-16.685 -13.53375,-30.25 -30.21875,-30.25 z m -137.0586,0.63086 c -11.999,0 -21.75,9.751 -21.75,21.75 0,11.999 9.751,21.75 21.75,21.75 11.998,0 21.75,-9.751 21.75,-21.75 0,-11.999 -9.752,-21.75 -21.75,-21.75 z m 137.0586,1.36914 c 15.604,0 28.21875,12.646 28.21875,28.25 0,15.604 -12.61375,28.21875 -28.21875,28.21875 -15.604,0 -28.25,-12.61375 -28.25,-28.21875 0,-15.604 12.646,-28.25 28.25,-28.25 z m -137.0586,0.63086 c 10.918,0 19.75,8.832 19.75,19.75 0,10.918 -8.833,19.75 -19.75,19.75 -10.918,0 -19.75,-8.832 -19.75,-19.75 0,-10.918 8.832,-19.75 19.75,-19.75 z m -197.74804,2.11914 -1,0.25 -6.84375,1.8125 -0.75,0.21875 0.5,0.59375 4,4.65625 0.5,0.59375 0.34375,-0.71875 2.8125,-6.46875 z m 273.83593,18.5293 c -16.686,0 -30.25,13.53275 -30.25,30.21875 0,16.686 13.564,30.25 30.25,30.25 16.687,0 30.22071,-13.564 30.22071,-30.25 0,-16.686 -13.53371,-30.21875 -30.22071,-30.21875 z m -311.58593,1.57031 c -6.747,0 -12.25,5.47175 -12.25,12.21875 0,6.747 5.503,12.25 12.25,12.25 6.747,0 12.21875,-5.503 12.21875,-12.25 0,-6.747 -5.47175,-12.21875 -12.21875,-12.21875 z m 311.58593,0.42969 c 15.604,0 28.22071,12.61375 28.22071,28.21875 0,15.604 -12.61571,28.25 -28.22071,28.25 -15.605,0 -28.25,-12.647 -28.25,-28.25 0,-15.605 12.646,-28.21875 28.25,-28.21875 z m -311.58593,1.57031 c 5.666,0 10.21875,4.55275 10.21875,10.21875 0,5.666 -4.55275,10.25 -10.21875,10.25 -5.666,0 -10.25,-4.584 -10.25,-10.25 0,-5.666 4.584,-10.21875 10.25,-10.21875 z m 255.61718,33.53125 c -16.686,0 -30.21875,13.53175 -30.21875,30.21875 0,16.686 13.53275,30.24805 30.21875,30.24805 16.687,0 30.25,-13.56205 30.25,-30.24805 0,-16.687 -13.563,-30.21875 -30.25,-30.21875 z m -289.80664,0.89844 -0.31445,0.71875 -2.84375,6.46875 -0.4375,0.9375 1,-0.25 6.84375,-1.8125 0.75,-0.21875 -0.5,-0.59375 -4,-4.65625 z m 289.80664,1.10156 c 15.605,0 28.25,12.61275 28.25,28.21875 0,15.604 -12.645,28.24805 -28.25,28.24805 -15.604,0 -28.21875,-12.64505 -28.21875,-28.24805 0.001,-15.606 12.61475,-28.21875 28.21875,-28.21875 z m -106.43945,2.52735 c -10.372,0 -19.7633,2.01445 -26.6543,5.31445 -6.891,3.3 -11.43945,7.99975 -11.43945,13.46875 0,5.469 4.54745,10.1385 11.43945,13.4375 6.891,3.301 16.2823,5.3125 26.6543,5.3125 10.371,0 19.76625,-2.0115 26.65625,-5.3125 6.892,-3.299 11.4375,-7.9685 11.4375,-13.4375 0,-5.469 -4.5465,-10.16875 -11.4375,-13.46875 -6.89,-3.3 -16.28525,-5.31445 -26.65625,-5.31445 z m -119.14844,1.33984 -0.59375,0.5 -4.65625,4 -0.59375,0.5 0.71875,0.31445 6.46875,2.84375 0.93946,0.4375 -0.25,-1.03125 -1.81446,-6.8125 z m 119.14844,0.66016 c 10.113,0 19.2785,1.996 25.8125,5.125 6.534,3.129 10.28125,7.31625 10.28125,11.65625 0,4.34 -3.74825,8.52725 -10.28125,11.65625 -6.533,3.128 -15.6985,5.09375 -25.8125,5.09375 -10.114,0 -19.2453,-1.96575 -25.7793,-5.09375 -6.534,-3.129 -10.3125,-7.31625 -10.3125,-11.65625 0,-4.34 3.7785,-8.52725 10.3125,-11.65625 6.534,-3.129 15.6663,-5.125 25.7793,-5.125 z m 0,4.9414 c -6.976,0 -13.2725,1.213 -17.9375,3.25 -2.333,1.02 -4.27325,2.22925 -5.65625,3.65625 -1.383,1.429 -2.21875,3.1305 -2.21875,4.9375 0,1.807 0.83475,3.47925 2.21875,4.90625 1.383,1.429 3.32425,2.63825 5.65625,3.65625 4.665,2.037 10.9615,3.2793 17.9375,3.2793 6.975,0 13.3057,-1.2423 17.9707,-3.2793 2.332,-1.019 4.241,-2.22825 5.625,-3.65625 1.383,-1.428 2.25,-3.10025 2.25,-4.90625 0,-1.806 -0.867,-3.5085 -2.25,-4.9375 -1.384,-1.428 -3.293,-2.63725 -5.625,-3.65625 -4.665,-2.037 -10.9947,-3.25 -17.9707,-3.25 z m 0,2 c 6.739,0 12.83425,1.20675 17.15625,3.09375 2.162,0.944 3.87,2.05275 5,3.21875 1.131,1.168 1.6875,2.34425 1.6875,3.53125 0,1.188 -0.5575,2.36525 -1.6875,3.53125 -1.13,1.167 -2.838,2.27475 -5,3.21875 -4.322,1.889 -10.41825,3.09375 -17.15625,3.09375 -6.739,0 -12.8313,-1.20475 -17.1543,-3.09375 -2.161,-0.943 -3.87,-2.05175 -5,-3.21875 -1.13,-1.166 -1.65625,-2.34325 -1.65625,-3.53125 0,-1.188 0.52625,-2.36425 1.65625,-3.53125 1.13,-1.166 2.838,-2.27275 5,-3.21875 4.323,-1.887 10.4153,-3.09375 17.1543,-3.09375 z"
   style="fill:#ffffff" />




















</svg>
