<?xml version="1.0" encoding="UTF-8" standalone="no"?>
<!-- Generator: Adobe Illustrator 16.0.3, SVG Export Plug-In . SVG Version: 6.00 Build 0)  -->

<svg
   version="1.1"
   x="0px"
   y="0px"
   width="566.93px"
   height="64.168px"
   viewBox="-110.047 5.731 566.93 64.168"
   enable-background="new -110.047 5.731 566.93 64.168"
   xml:space="preserve"
   id="svg166"
   sodipodi:docname="system_color.svg"
   inkscape:version="1.1.2 (0a00cf5339, 2022-02-04)"
   xmlns:inkscape="http://www.inkscape.org/namespaces/inkscape"
   xmlns:sodipodi="http://sodipodi.sourceforge.net/DTD/sodipodi-0.dtd"
   xmlns="http://www.w3.org/2000/svg"
   xmlns:svg="http://www.w3.org/2000/svg"><defs
   id="defs170">
	
	

		
			<radialGradient
   id="SVGID_1_"
   cx="-90.551804"
   cy="191.2813"
   r="110.8008"
   gradientTransform="matrix(1,0,0,-1,-0.0449,199.7598)"
   gradientUnits="userSpaceOnUse">
			<stop
   offset="0"
   style="stop-color:#FFFFFF"
   id="stop5" />
			<stop
   offset="1"
   style="stop-color:#000000"
   id="stop7" />
		</radialGradient>
		
		
		
		
		
		
		
	
			
			
			
			
			
		
				
			
				
			
				
			
				
			
			
				<linearGradient
   id="SVGID_8_"
   gradientUnits="userSpaceOnUse"
   x1="196.2188"
   y1="-256.54001"
   x2="237.9565"
   y2="-214.8022"
   gradientTransform="matrix(1,0,0,-1,-0.1348,-195.7207)">
				<stop
   offset="0"
   style="stop-color:#999999"
   id="stop95" />
				<stop
   offset="0.98"
   style="stop-color:#F3F3F3"
   id="stop97" />
			</linearGradient>
			
			
				<linearGradient
   id="SVGID_9_"
   gradientUnits="userSpaceOnUse"
   x1="244.28999"
   y1="-261.6377"
   x2="289.43051"
   y2="-216.49741"
   gradientTransform="matrix(1,0,0,-1,-0.1348,-195.7207)">
				<stop
   offset="0"
   style="stop-color:#999999"
   id="stop102" />
				<stop
   offset="0.98"
   style="stop-color:#F3F3F3"
   id="stop104" />
			</linearGradient>
			
			
				<linearGradient
   id="SVGID_10_"
   gradientUnits="userSpaceOnUse"
   x1="275.25589"
   y1="-251.48441"
   x2="317.45999"
   y2="-209.2802"
   gradientTransform="matrix(1,0,0,-1,-0.1348,-195.7207)">
				<stop
   offset="0"
   style="stop-color:#999999"
   id="stop109" />
				<stop
   offset="0.98"
   style="stop-color:#F3F3F3"
   id="stop111" />
			</linearGradient>
			
			
				<linearGradient
   id="SVGID_11_"
   gradientUnits="userSpaceOnUse"
   x1="319.35941"
   y1="-255.396"
   x2="362.02859"
   y2="-212.72659"
   gradientTransform="matrix(1,0,0,-1,-0.1348,-195.7207)">
				<stop
   offset="0"
   style="stop-color:#999999"
   id="stop116" />
				<stop
   offset="0.98"
   style="stop-color:#F3F3F3"
   id="stop118" />
			</linearGradient>
			
			
				<linearGradient
   id="SVGID_12_"
   gradientUnits="userSpaceOnUse"
   x1="367.93649"
   y1="-257.2793"
   x2="410.9108"
   y2="-214.30479"
   gradientTransform="matrix(1,0,0,-1,-0.1348,-195.7207)">
				<stop
   offset="0"
   style="stop-color:#999999"
   id="stop123" />
				<stop
   offset="0.98"
   style="stop-color:#F3F3F3"
   id="stop125" />
			</linearGradient>
			
			
				<linearGradient
   id="SVGID_13_"
   gradientUnits="userSpaceOnUse"
   x1="414.89841"
   y1="-256.93411"
   x2="456.6366"
   y2="-215.19591"
   gradientTransform="matrix(1,0,0,-1,-0.1348,-195.7207)">
				<stop
   offset="0"
   style="stop-color:#999999"
   id="stop130" />
				<stop
   offset="0.98"
   style="stop-color:#F3F3F3"
   id="stop132" />
			</linearGradient>
			
			
			
			
			
			
			
		
				
			
				
			
				
			
				
			
				
			
				
			
			
				<radialGradient
   id="SVGID_3_"
   cx="-140.0278"
   cy="512.74902"
   r="244.9883"
   gradientTransform="translate(-0.0898,-395.4805)"
   gradientUnits="userSpaceOnUse">
				<stop
   offset="0"
   style="stop-color:#FFFFFF"
   id="stop30" />
				<stop
   offset="1"
   style="stop-color:#000000"
   id="stop32" />
			</radialGradient>
			
		
			
		
			
			
		
				
					<radialGradient
   id="SVGID_2_"
   cx="-54.784698"
   cy="815.39752"
   r="28.278601"
   gradientTransform="translate(-0.1797,-790.9609)"
   gradientUnits="userSpaceOnUse">
					<stop
   offset="0.04"
   style="stop-color:#FFFFFF"
   id="stop14" />
					<stop
   offset="0.04"
   style="stop-color:#FFFFFF"
   id="stop16" />
					<stop
   offset="0.23"
   style="stop-color:#6E93E1"
   id="stop18" />
					<stop
   offset="1"
   style="stop-color:#363499"
   id="stop20" />
				</radialGradient>
				
				
			</defs><sodipodi:namedview
   id="namedview168"
   pagecolor="#726f89"
   bordercolor="#666666"
   borderopacity="1.0"
   inkscape:pageshadow="2"
   inkscape:pageopacity="0"
   inkscape:pagecheckerboard="0"
   showgrid="false"
   inkscape:zoom="3.8190976"
   inkscape:cx="49.35721"
   inkscape:cy="29.064458"
   inkscape:window-width="1920"
   inkscape:window-height="995"
   inkscape:window-x="0"
   inkscape:window-y="0"
   inkscape:window-maximized="1"
   inkscape:current-layer="svg166" />
<path
   id="path100"
   style="fill:#ffffff"
   d="M 324.81641 11.494141 C 317.97547 11.508175 313.13134 13.331734 310.29297 16.990234 C 308.47997 19.113234 307.37969 21.173828 307.05469 23.298828 C 306.66469 25.421828 306.92453 27.416609 307.89453 29.349609 L 307.82812 29.349609 C 308.54212 30.829609 309.64241 32.177344 311.06641 33.402344 L 311.13086 33.402344 C 312.29386 34.366344 313.52522 35.140156 314.94922 35.785156 C 315.91822 36.302156 318.18564 36.6245 321.80664 36.6875 C 322.52264 36.7505 323.88127 36.75 325.94727 36.75 C 327.76227 36.816 329.18575 36.816813 330.21875 36.882812 L 330.2832 36.882812 C 333.5192 36.949813 336.80442 37.261937 337.85742 37.585938 C 338.90442 37.918937 340.75348 39.825594 340.89648 40.683594 C 341.08948 41.196594 341.28666 41.331766 341.09766 42.634766 C 340.90966 43.943766 340.50823 43.708516 339.99023 44.353516 L 339.99023 44.287109 C 339.40523 44.799109 338.43613 45.182219 337.07812 45.574219 C 335.14013 46.026219 332.80689 46.347156 330.08789 46.410156 C 327.36889 46.479156 324.65214 46.410797 321.86914 46.091797 C 319.21914 45.768797 316.89027 45.318281 314.94727 44.738281 C 313.97527 44.417281 312.94316 44.486094 312.03516 44.996094 C 311.06316 45.451094 310.4167 46.216094 310.0957 47.246094 C 309.7727 48.210094 309.90161 49.241078 310.34961 50.205078 C 310.87061 51.106078 311.64914 51.750219 312.61914 52.074219 C 314.94514 52.844219 317.72975 53.361 320.96875 53.75 C 324.13975 54.069 327.24161 54.199766 330.34961 54.134766 C 333.71761 54.005766 336.62944 53.618062 339.02344 53.039062 C 342.38344 52.199062 344.71827 50.915234 345.94727 49.240234 L 346.01172 49.240234 C 347.04672 47.952234 347.82234 46.790719 348.27734 45.761719 L 348.27734 45.695312 C 348.79734 44.409312 349.05469 43.123484 349.05469 41.771484 L 349.05469 41.642578 C 348.99069 40.678578 349.07469 39.267156 348.55469 37.910156 C 348.35969 37.203156 348.16886 36.815312 347.13086 34.570312 C 346.08486 32.325313 343.67961 30.889188 339.47461 29.992188 L 339.4082 29.992188 C 337.3402 29.602187 334.36188 29.28425 330.54688 29.15625 C 329.44588 29.09325 327.95862 29.093438 326.01562 29.023438 C 324.07663 29.023438 322.71891 29.022031 322.00391 28.957031 C 319.93591 28.899031 318.57464 28.830078 318.05664 28.705078 C 317.34264 28.378078 316.69873 27.993922 316.17773 27.544922 C 315.59773 27.030922 315.14477 26.515906 314.88477 26.003906 L 314.88477 25.9375 C 314.62377 25.5515 314.56045 25.100438 314.68945 24.648438 C 314.88345 23.812438 315.33873 22.912172 316.17773 22.076172 C 320.06073 18.340172 328.73386 18.340031 342.25586 22.207031 C 343.29686 22.460031 344.26497 22.399313 345.16797 21.820312 C 346.14297 21.307312 346.78783 20.530953 347.04883 19.501953 C 347.37183 18.534953 347.24266 17.565562 346.72266 16.601562 C 346.14466 15.637563 345.36453 15.058328 344.39453 14.736328 C 336.66609 12.567641 330.13713 11.483225 324.81641 11.494141 z M 372.04102 12.443359 C 361.96039 12.625597 354.97744 25.318406 351.08984 50.511719 C 350.89684 51.541719 351.15383 52.50475 351.79883 53.34375 C 352.44883 54.24775 353.28617 54.763719 354.32617 54.886719 C 355.42717 55.080719 356.33033 54.825687 357.23633 54.179688 C 358.07833 53.533687 358.59902 52.697969 358.79102 51.667969 C 359.28102 48.438969 359.81377 45.451656 360.38477 42.722656 L 385.51758 42.722656 C 386.17158 45.817656 386.77408 49.227078 387.33008 52.955078 C 387.52408 53.985078 387.97481 54.825797 388.88281 55.466797 C 389.72381 56.109797 390.69247 56.367828 391.73047 56.173828 C 392.76547 56.043828 393.60691 55.528312 394.25391 54.695312 C 394.89891 53.790312 395.1593 52.887875 395.0293 51.796875 C 390.9543 24.952875 383.63834 11.819844 373.02734 12.464844 C 372.69572 12.444688 372.3662 12.437481 372.04102 12.443359 z M 492.00586 12.984375 C 488.79052 13.007571 485.28086 13.170078 481.47461 13.470703 C 480.44061 13.539703 479.54425 13.983859 478.78125 14.755859 C 478.09525 15.459859 477.68359 16.290547 477.68359 17.310547 L 477.68359 50.560547 C 477.68359 51.580547 478.09656 52.538141 478.85156 53.244141 C 479.67956 54.008141 480.7125 54.394531 481.8125 54.394531 C 482.9805 54.394531 483.94217 54.008141 484.70117 53.244141 C 485.53017 52.538141 485.93945 51.580547 485.93945 50.560547 L 485.93945 20.890625 C 494.82045 20.382625 501.627 20.829875 506.375 22.171875 C 509.954 23.256875 511.88098 25.046016 512.08398 27.541016 C 512.15398 29.522016 511.32942 30.930625 509.60742 31.765625 C 506.85242 32.916625 502.79364 33.236203 497.43164 32.658203 C 496.46764 32.592203 495.6395 32.723422 494.8125 33.232422 C 493.9865 33.677422 493.4358 34.317344 493.0918 35.152344 C 492.7468 35.919344 492.74608 36.744125 492.95508 37.578125 C 493.22808 38.413125 493.78497 39.048594 494.54297 39.558594 L 515.18945 53.626953 C 516.08345 54.257953 517.1128 54.517172 518.2168 54.326172 C 519.3858 54.196172 520.2798 53.687109 520.9668 52.787109 C 521.5878 51.957109 521.86352 50.998562 521.72852 49.976562 C 521.51952 48.888562 520.96627 48.059969 520.07227 47.417969 L 509.13281 40.001953 C 510.71881 39.622953 512.09067 39.167656 513.26367 38.597656 C 517.94467 36.417656 520.28442 32.715203 520.35742 27.533203 C 520.62942 21.399203 516.77455 17.179047 508.93555 14.873047 C 504.72323 13.555797 499.0796 12.933344 492.00586 12.984375 z M 435.52344 13.558594 C 434.49144 13.558594 433.51564 13.942797 432.80664 14.716797 C 432.02664 15.420797 431.64063 16.389922 431.64062 17.419922 L 431.64062 36.537109 C 431.64062 39.053109 432.15641 41.431047 433.06641 43.748047 L 433.12891 43.748047 C 434.03491 46.003047 435.39317 47.932828 437.07617 49.673828 C 438.82017 51.346828 440.76439 52.697016 443.02539 53.666016 C 445.29539 54.630016 447.68834 55.080078 450.27734 55.080078 L 456.03711 55.080078 C 458.62511 55.080078 461.01961 54.630016 463.34961 53.666016 L 463.2832 53.666016 C 465.5462 52.697016 467.48823 51.346828 469.24023 49.673828 C 470.91823 47.932828 472.27991 46.003047 473.25391 43.748047 L 473.25391 43.814453 C 474.22391 41.494453 474.67969 39.116109 474.67969 36.537109 L 474.67969 17.419922 C 474.66869 16.390922 474.27941 15.42175 473.56641 14.71875 C 472.79141 13.94475 471.8842 13.560547 470.7832 13.560547 C 469.7482 13.560547 468.77941 13.94475 468.06641 14.71875 C 467.29041 15.42275 466.90039 16.391875 466.90039 17.421875 L 466.90039 36.537109 C 466.90039 38.022109 466.64245 39.438562 466.06445 40.726562 C 465.54445 42.075562 464.70347 43.171172 463.73047 44.201172 C 462.69547 45.165172 461.59723 46.005531 460.24023 46.519531 C 458.94723 47.099531 457.5212 47.353516 456.0332 47.353516 L 450.27344 47.353516 C 448.78644 47.353516 447.42636 47.102531 446.06836 46.519531 C 444.70936 46.005531 443.61217 45.165172 442.57617 44.201172 C 441.60217 43.171172 440.82619 42.076109 440.24219 40.787109 L 440.24219 40.726562 C 439.73019 39.438563 439.40625 38.022109 439.40625 36.537109 L 439.40625 17.419922 C 439.40625 16.389922 439.01569 15.420797 438.30469 14.716797 C 437.52369 13.942797 436.62544 13.558594 435.52344 13.558594 z M 562.11133 13.744141 C 561.07733 13.744141 560.10758 14.138797 559.39258 14.841797 C 558.61758 15.615797 558.22852 16.516375 558.22852 17.609375 L 558.22852 41.494141 L 532.60547 14.908203 C 532.02047 14.396203 531.3757 14.0105 530.5957 13.8125 C 529.8227 13.6875 529.04298 13.749266 528.33398 14.072266 C 527.61898 14.328266 526.97594 14.781875 526.58594 15.421875 C 526.12994 16.067875 525.87695 16.776375 525.87695 17.609375 L 525.87695 51.087891 C 525.87695 52.119891 526.26011 53.087016 527.03711 53.791016 C 527.74811 54.565016 528.71886 54.949219 529.75586 54.949219 C 530.85686 54.949219 531.76116 54.566016 532.53516 53.791016 C 533.24816 53.087016 533.63867 52.120891 533.63867 51.087891 L 533.63867 27.207031 L 559.32617 53.728516 C 559.91117 54.305516 560.55294 54.694766 561.33594 54.884766 C 562.10994 55.013766 562.82066 54.948313 563.59766 54.695312 C 564.31366 54.368313 564.89066 53.920844 565.34766 53.214844 C 565.80166 52.569844 565.99609 51.861891 565.99609 51.087891 L 565.99609 17.609375 C 565.99609 16.516375 565.60563 15.615797 564.89062 14.841797 C 564.11563 14.137797 563.21433 13.744141 562.11133 13.744141 z M 391.79688 14.394531 C 390.75887 14.394531 389.78822 14.780328 389.07422 15.486328 C 388.30022 16.260328 387.91211 17.161859 387.91211 18.255859 C 387.91211 19.285859 388.30122 20.249938 389.07422 20.960938 C 389.78822 21.738937 390.75887 22.121094 391.79688 22.121094 L 404.73633 22.121094 L 404.73633 51.730469 C 404.73633 52.763469 405.12639 53.730453 405.90039 54.439453 C 406.61439 55.213453 407.58414 55.599609 408.61914 55.599609 C 409.72314 55.599609 410.62839 55.212453 411.40039 54.439453 C 412.11539 53.730453 412.50391 52.763469 412.50391 51.730469 L 412.50391 22.119141 L 425.44336 22.119141 C 426.54236 22.119141 427.45061 21.734937 428.22461 20.960938 C 428.93861 20.249938 429.32422 19.285859 429.32422 18.255859 C 429.32622 17.162859 428.94056 16.261328 428.22656 15.486328 C 427.45156 14.780328 426.54331 14.394531 425.44531 14.394531 L 391.79688 14.394531 z M 373.03125 20.191406 C 377.24125 20.527406 380.76984 25.468141 383.58984 34.994141 L 362.31055 34.994141 C 365.14555 25.469141 368.73125 20.538406 373.03125 20.191406 z "
   transform="translate(-110.047,5.731)" /><g
   id="g75"
   style="fill:#ffffff">
				
					<linearGradient
   id="SVGID_4_"
   gradientUnits="userSpaceOnUse"
   x1="5.5630002"
   y1="-255.8076"
   x2="46.187599"
   y2="-215.1834"
   gradientTransform="matrix(1,0,0,-1,-0.1348,-195.7207)">
					<stop
   offset="0"
   style="stop-color:#999999"
   id="stop47" />
					<stop
   offset="0.98"
   style="stop-color:#F3F3F3"
   id="stop49" />
				</linearGradient>
				<path
   fill="url(#SVGID_4_)"
   d="M 44.927,22.673 C 44.354,21.717 43.579,21.142 42.619,20.824 25.102,15.908 13.806,16.614 8.803,23.06 7.005,25.167 5.914,27.21 5.593,29.315 5.206,31.42 5.463,33.4 6.425,35.317 H 6.359 c 0.708,1.465 1.798,2.805 3.211,4.02 h 0.064 c 1.155,0.956 2.373,1.724 3.785,2.364 0.96,0.509 3.209,0.828 6.801,0.891 0.708,0.065 2.056,0.065 4.107,0.065 1.797,0.065 3.211,0.065 4.235,0.127 h 0.065 c 3.209,0.066 6.467,0.377 7.51,0.7 1.039,0.326 2.868,2.22 3.011,3.07 0.148,0.842 0,0 0,0 0.194,0.508 0.387,0.645 0.204,1.937 -0.188,1.292 -0.584,1.062 -1.099,1.701 v -0.068 c -0.58,0.511 -1.541,0.893 -2.888,1.279 -1.922,0.451 -4.236,0.767 -6.93,0.831 -2.696,0.064 -5.39,0 -8.149,-0.319 -2.631,-0.321 -4.94,-0.771 -6.867,-1.342 -0.961,-0.316 -1.987,-0.254 -2.889,0.258 -0.96,0.447 -1.604,1.212 -1.923,2.233 -0.321,0.956 -0.192,1.977 0.253,2.934 0.516,0.892 1.288,1.529 2.249,1.853 2.309,0.762 5.068,1.271 8.277,1.659 3.147,0.318 6.223,0.447 9.305,0.381 3.339,-0.129 6.227,-0.508 8.6,-1.083 3.335,-0.833 5.648,-2.109 6.866,-3.768 h 0.064 c 1.025,-1.28 1.794,-2.431 2.244,-3.453 v -0.065 c 0.516,-1.272 0.772,-2.552 0.772,-3.889 v -0.131 c -0.064,-0.956 0.017,-2.356 -0.497,-3.698 -0.193,-0.7 -0.381,-1.087 -1.413,-3.317 -1.035,-2.223 -3.42,-3.646 -7.592,-4.537 h -0.063 c -2.054,-0.386 -5.005,-0.705 -8.79,-0.831 -1.09,-0.066 -2.567,-0.066 -4.492,-0.131 -1.923,0 -3.27,0 -3.979,-0.064 -2.052,-0.06 -3.399,-0.127 -3.913,-0.252 -0.708,-0.321 -1.348,-0.703 -1.863,-1.15 -0.574,-0.511 -1.025,-1.021 -1.283,-1.529 v -0.066 c -0.259,-0.382 -0.323,-0.831 -0.194,-1.28 0.194,-0.829 0.644,-1.719 1.477,-2.551 3.849,-3.701 12.449,-3.701 25.86,0.129 1.031,0.253 1.992,0.192 2.888,-0.382 0.966,-0.508 1.605,-1.277 1.863,-2.298 0.325,-0.952 0.198,-1.913 -0.319,-2.872 z"
   id="path52"
   style="fill:#ffffff" />
				
					<linearGradient
   id="SVGID_5_"
   gradientUnits="userSpaceOnUse"
   x1="48.721199"
   y1="-252.3672"
   x2="88.273201"
   y2="-212.815"
   gradientTransform="matrix(1,0,0,-1,-0.1348,-195.7207)">
					<stop
   offset="0"
   style="stop-color:#999999"
   id="stop54" />
					<stop
   offset="0.98"
   style="stop-color:#F3F3F3"
   id="stop56" />
				</linearGradient>
				<path
   fill="url(#SVGID_5_)"
   d="m 82.685,19.437 c -0.772,-0.703 -1.669,-1.086 -2.759,-1.086 h -25.67 c -1.026,0 -1.988,0.384 -2.696,1.086 -0.769,0.763 -1.153,1.662 -1.153,2.745 v 31.921 c 0,1.021 0.386,1.982 1.153,2.682 0.708,0.772 1.668,1.151 2.696,1.151 h 25.67 c 1.09,0 1.987,-0.381 2.759,-1.151 0.705,-0.7 1.091,-1.661 1.091,-2.682 0,-1.088 -0.386,-1.978 -1.091,-2.749 -0.772,-0.7 -1.669,-1.086 -2.759,-1.086 H 58.109 v -8.295 h 16.04 c 1.09,0 1.987,-0.381 2.759,-1.149 C 77.612,40.118 78,39.162 78,38.141 c 0,-1.084 -0.387,-1.978 -1.092,-2.745 -0.772,-0.709 -1.669,-1.09 -2.759,-1.09 H 58.109 V 26.01 h 21.816 c 1.09,0 1.987,-0.387 2.759,-1.151 0.705,-0.705 1.091,-1.593 1.091,-2.682 0,-1.079 -0.386,-1.977 -1.09,-2.74 z"
   id="path59"
   style="fill:#ffffff" />
				
					<linearGradient
   id="SVGID_6_"
   gradientUnits="userSpaceOnUse"
   x1="86.330101"
   y1="-256.55759"
   x2="129.8642"
   y2="-213.02341"
   gradientTransform="matrix(1,0,0,-1,-0.1348,-195.7207)">
					<stop
   offset="0"
   style="stop-color:#999999"
   id="stop61" />
					<stop
   offset="0.98"
   style="stop-color:#F3F3F3"
   id="stop63" />
				</linearGradient>
				<path
   fill="url(#SVGID_6_)"
   d="m 127,23.954 c -0.189,-1.109 -0.768,-2.009 -1.598,-2.63 -7.044,-5.06 -14.765,-6.021 -22.228,-4.71 -2.943,0.69 -3.896,0.621 -7.111,2.215 -3.209,1.588 -5.445,4.54 -5.445,4.54 -1.536,1.666 -2.369,3.699 -3.395,6.394 -1.026,2.695 -1.021,4.032 -1.149,7.357 -0.128,3.329 0.317,6.38 1.277,9.286 0.96,2.915 2.433,5.481 4.421,7.629 V 53.96 c 1.921,2.222 4.291,3.947 7.044,5.058 2.754,1.18 5.765,1.805 9.029,1.805 7.684,0 13.262,-1.739 16.72,-5.2 4.035,-3.533 5.698,-8.865 5.059,-16.001 -0.064,-1.109 -0.509,-1.946 -1.218,-2.704 -0.767,-0.695 -1.599,-1.042 -2.627,-1.042 h -16.651 c -1.021,0 -1.981,0.412 -2.695,1.177 -0.767,0.831 -1.151,1.797 -1.151,2.979 0,1.109 0.384,2.147 1.151,2.908 0.714,0.831 1.675,1.245 2.695,1.245 h 12.813 c -0.258,2.08 -1.092,3.818 -2.374,5.129 -2.496,2.148 -6.401,3.187 -11.718,3.187 -2.244,0 -4.358,-0.414 -6.213,-1.177 l -0.065,-0.068 c -1.668,-0.695 -3.074,-1.666 -4.294,-3.051 -1.214,-1.315 -2.115,-2.911 -2.689,-4.64 -0.64,-1.871 -0.897,-3.949 -0.831,-6.167 0.063,-2.354 0.321,-3.633 0.766,-5.224 0.324,-1.182 0.833,-2.148 1.538,-2.911 0,0 1.146,-1.779 3.077,-2.74 1.932,-0.966 3.33,-1.247 5.7,-1.872 h 0.065 c 5.64,-1.385 11.018,-0.208 16.208,3.601 0.893,0.625 1.854,0.831 2.875,0.625 1.028,-0.276 1.858,-0.833 2.437,-1.802 0.577,-0.901 0.77,-1.94 0.577,-3.121 z"
   id="path66"
   style="fill:#ffffff" />
				
					<linearGradient
   id="SVGID_7_"
   gradientUnits="userSpaceOnUse"
   x1="136.45509"
   y1="-258.24411"
   x2="179.0757"
   y2="-215.6239"
   gradientTransform="matrix(1,0,0,-1,-0.1348,-195.7207)">
					<stop
   offset="0"
   style="stop-color:#999999"
   id="stop68" />
					<stop
   offset="0.98"
   style="stop-color:#F3F3F3"
   id="stop70" />
				</linearGradient>
				<path
   fill="url(#SVGID_7_)"
   d="m 175.494,57.627 c 0.642,-0.893 0.895,-1.784 0.769,-2.871 -4.042,-26.623 -11.292,-39.648 -21.816,-39.008 -10.519,-0.64 -17.839,11.939 -21.755,37.729 -0.131,1.021 0.066,1.979 0.71,2.813 0.64,0.891 1.473,1.4 2.499,1.531 1.029,0.187 1.99,-0.069 2.888,-0.709 0.832,-0.637 1.351,-1.465 1.542,-2.491 0.481,-3.203 1.011,-6.163 1.58,-8.874 h 0.021 24.894 c 0.647,3.069 1.25,6.45 1.803,10.146 0.192,1.021 0.643,1.854 1.539,2.494 0.832,0.64 1.797,0.891 2.824,0.698 1.025,-0.115 1.858,-0.625 2.502,-1.458 z M 143.818,38.095 c 2.808,-9.447 6.36,-14.34 10.625,-14.684 4.137,0.339 7.647,5.237 10.461,14.684 z"
   id="path73"
   style="fill:#ffffff" />
			</g><path
   id="path77"
   style="fill:#000000"
   d="M 265.22656 9.0683594 C 264.96456 9.0683594 264.70083 9.07775 264.54883 9.09375 C 253.42483 8.42675 245.80136 21.389906 241.81836 47.628906 C 241.64736 48.958906 241.95031 50.134656 242.69531 51.097656 C 243.48931 52.200656 244.54325 52.843047 245.78125 52.998047 C 247.04825 53.230047 248.24548 52.936281 249.39648 52.113281 C 250.41948 51.332281 251.05306 50.303344 251.28906 49.027344 C 251.71906 46.172344 252.19598 43.458406 252.70898 40.941406 L 276.11719 40.941406 C 276.70719 43.812406 277.25867 46.957984 277.76367 50.333984 C 278.01467 51.665984 278.64044 52.672625 279.64844 53.390625 C 280.45844 54.013625 281.39819 54.34375 282.36719 54.34375 C 282.64419 54.34375 282.92467 54.316437 283.13867 54.273438 C 284.39667 54.131436 285.45002 53.521547 286.29102 52.435547 C 287.08002 51.337547 287.37766 50.217766 287.22266 48.884766 C 283.15566 22.092766 275.96156 9.0683594 265.22656 9.0683594 z M 219.10352 9.4277344 C 217.14752 9.4277344 215.11572 9.6104219 213.01172 9.9824219 C 212.35972 10.136422 211.80664 10.251469 211.30664 10.355469 C 209.49564 10.732469 208.30117 10.979531 205.70117 12.269531 C 202.33517 13.935531 200.02533 16.952719 199.98633 17.011719 C 198.35433 18.780719 197.4752 20.900172 196.4082 23.701172 C 195.3852 26.387172 195.32875 27.8665 195.21875 30.8125 L 195.19922 31.353516 C 195.06822 34.730516 195.50048 37.874844 196.52148 40.964844 C 197.53248 44.030844 199.08858 46.710641 201.14258 48.931641 C 201.20358 48.998641 201.27461 49.05175 201.34961 49.09375 C 203.35361 51.33475 205.76495 53.032719 208.50195 54.136719 C 211.41295 55.381719 214.57253 56.015625 217.89453 56.015625 C 225.79753 56.015625 231.64266 54.174891 235.22266 50.587891 C 239.45166 46.883891 241.2587 41.238891 240.5957 33.837891 C 240.5227 32.589891 240.05722 31.547953 239.07422 30.501953 C 238.12122 29.639953 237.05917 29.220703 235.82617 29.220703 L 219.17578 29.220703 C 217.88478 29.220703 216.68773 29.740359 215.80273 30.693359 C 214.86173 31.709359 214.4043 32.891781 214.4043 34.300781 C 214.4043 35.688781 214.90934 36.955547 215.77734 37.810547 C 216.64534 38.821547 217.85278 39.376953 219.17578 39.376953 L 230.88477 39.376953 C 230.55077 40.769953 229.91277 41.954859 229.00977 42.880859 C 226.72577 44.845859 222.98648 45.84375 217.89648 45.84375 C 215.88448 45.84375 213.91831 45.482828 212.19531 44.798828 C 212.12731 44.746828 212.05361 44.703922 211.97461 44.669922 C 210.39861 44.013922 209.10586 43.095703 208.00586 41.845703 C 206.90486 40.654703 206.06677 39.204203 205.50977 37.533203 C 204.92777 35.826203 204.66352 33.861453 204.72852 31.689453 C 204.78752 29.464453 205.02094 28.261547 205.46094 26.685547 C 205.74694 25.639547 206.18016 24.81125 206.78516 24.15625 C 206.82116 24.11725 206.85677 24.074297 206.88477 24.029297 C 206.89477 24.013297 207.91361 22.454234 209.59961 21.615234 C 211.16261 20.833234 212.34863 20.529406 214.14062 20.066406 L 215.01172 19.839844 C 215.06672 19.835844 215.11888 19.826453 215.17188 19.814453 C 220.53588 18.498453 225.68491 19.644391 230.62891 23.275391 C 231.45291 23.853391 232.34525 24.144531 233.28125 24.144531 C 233.58825 24.144531 233.90444 24.112156 234.27344 24.035156 C 235.59044 23.683156 236.59605 22.935797 237.24805 21.841797 C 237.95005 20.747797 238.19094 19.480406 237.96094 18.066406 C 237.73594 16.753406 237.05928 15.640797 235.98828 14.841797 C 230.98928 11.249797 225.30652 9.4277344 219.10352 9.4277344 z M 324.89844 10.560547 C 317.73444 10.560547 312.57394 12.531766 309.58594 16.384766 C 307.60694 18.703766 306.47763 20.919859 306.14062 23.130859 C 305.72963 25.367859 305.97834 27.433547 306.90234 29.435547 C 306.91234 29.544547 306.94319 29.652906 306.99219 29.753906 C 307.74319 31.309906 308.90989 32.775375 310.46289 34.109375 C 310.52689 34.163375 310.60541 34.209094 310.69141 34.246094 C 311.88541 35.213094 313.15267 35.994375 314.51367 36.609375 C 315.66567 37.222375 318.04852 37.553234 321.72852 37.615234 C 322.48452 37.683234 323.86597 37.686641 325.91797 37.681641 C 326.70797 37.709641 327.42341 37.727187 328.06641 37.742188 C 328.88841 37.761187 329.58558 37.776453 330.26758 37.814453 C 333.68858 37.885453 336.73008 38.213609 337.58008 38.474609 C 338.34708 38.718609 339.86047 40.350891 339.98047 40.837891 C 339.98147 40.846891 339.98236 40.855234 339.98438 40.865234 L 340.04688 41.224609 C 340.07488 41.386609 340.14323 41.529438 340.24023 41.648438 C 340.25423 41.820436 340.24073 42.067953 340.17773 42.501953 C 340.10473 43.017953 340.05777 43.054547 339.88477 43.185547 C 339.78577 43.259547 339.66811 43.349609 339.53711 43.474609 C 339.48211 43.505609 339.43091 43.541938 339.37891 43.585938 C 338.84691 44.052937 337.73119 44.415016 336.86719 44.666016 C 334.79819 45.148016 332.51141 45.421516 330.06641 45.478516 C 327.23641 45.547516 324.50833 45.454062 321.98633 45.164062 C 319.35833 44.844063 317.08019 44.399563 315.24219 43.851562 C 314.00319 43.440562 312.65464 43.579391 311.64062 44.150391 C 310.44763 44.709391 309.60389 45.684219 309.21289 46.949219 C 308.82589 48.098219 308.92992 49.358922 309.54492 50.669922 C 310.18092 51.771922 311.14017 52.564937 312.32617 52.960938 C 314.56417 53.699938 317.27305 54.243734 320.87305 54.677734 C 323.59005 54.949734 326.17906 55.082031 328.78906 55.082031 C 329.31706 55.082031 329.84272 55.078406 330.38672 55.066406 C 333.71872 54.938406 336.69995 54.560406 339.25195 53.941406 C 342.68095 53.085406 345.12639 51.767531 346.52539 50.019531 C 346.60539 49.966531 346.67823 49.900266 346.74023 49.822266 C 347.87823 48.405266 348.66181 47.199719 349.13281 46.136719 C 349.15881 46.077719 349.17545 46.002781 349.18945 45.925781 C 349.72645 44.554781 349.99023 43.193531 349.99023 41.769531 C 349.99023 41.749531 349.98933 41.599125 349.98633 41.578125 C 349.97433 41.384125 349.97189 41.172312 349.96289 40.945312 C 349.93289 39.987313 349.89308 38.792156 349.45508 37.660156 C 349.25408 36.929156 349.07159 36.531188 348.18359 34.617188 L 347.97852 34.173828 C 346.80652 31.655828 344.16687 30.037125 339.67188 29.078125 C 339.63288 29.070125 339.57358 29.062547 339.51758 29.060547 C 337.19958 28.628547 334.11152 28.340656 330.60352 28.222656 C 329.99352 28.187656 329.26416 28.170344 328.41016 28.152344 C 327.71216 28.137344 326.92858 28.118891 326.01758 28.087891 C 324.12758 28.087891 322.7632 28.087484 322.0332 28.021484 C 321.1972 27.997484 319.03442 27.936547 318.35742 27.810547 C 317.72342 27.514547 317.19583 27.18875 316.79883 26.84375 C 316.33383 26.43175 315.99502 26.050937 315.79102 25.710938 C 315.76602 25.604938 315.72016 25.503109 315.66016 25.412109 C 315.55616 25.260109 315.53361 25.093422 315.59961 24.857422 C 315.77961 24.089422 316.19317 23.376094 316.82617 22.746094 C 320.42117 19.286094 329.01011 19.389328 342.03711 23.111328 C 342.50211 23.225328 342.93347 23.279297 343.35547 23.279297 C 344.19347 23.279297 344.97247 23.051578 345.60547 22.642578 C 346.82247 22.001578 347.63359 20.993875 347.93359 19.796875 C 348.33659 18.604875 348.20439 17.380141 347.52539 16.119141 C 346.85239 15.003141 345.92644 14.260891 344.64844 13.837891 C 336.90044 11.664891 330.25444 10.560547 324.89844 10.560547 z M 263.73633 10.919922 C 263.96733 10.919922 264.20178 10.925453 264.55078 10.939453 C 274.41778 10.320453 281.45163 23.189813 285.39062 49.132812 C 285.48863 49.970813 285.30659 50.635078 284.80859 51.330078 C 284.29859 51.988078 283.68423 52.348359 282.86523 52.443359 C 282.11823 52.589359 281.42 52.417344 280.75 51.902344 C 280.107 51.441344 279.74589 50.853391 279.58789 50.025391 C 279.03989 46.358391 278.43139 42.925219 277.77539 39.824219 C 277.68539 39.397219 277.30909 39.091797 276.87109 39.091797 L 251.95703 39.091797 C 251.52003 39.091797 251.14178 39.398172 251.05078 39.826172 C 250.47278 42.580172 249.9378 45.582703 249.4668 48.720703 C 249.3188 49.513703 248.92983 50.144953 248.29883 50.626953 C 247.73583 51.029953 247.17866 51.224609 246.59766 51.224609 C 246.43866 51.224609 246.27745 51.209828 246.06445 51.173828 C 245.29545 51.075828 244.68669 50.696187 244.17969 49.992188 C 243.71969 49.397188 243.54834 48.699766 243.65234 47.884766 C 247.37734 23.355766 254.13433 10.919922 263.73633 10.919922 z M 133.33594 10.957031 C 126.23094 10.957031 121.11244 12.910469 118.14844 16.730469 C 116.18544 19.030469 115.06347 21.227922 114.73047 23.419922 C 114.32147 25.640922 114.56933 27.688828 115.48633 29.673828 C 115.49633 29.781828 115.52522 29.888234 115.57422 29.990234 C 116.32122 31.534234 117.47864 32.988594 119.01562 34.308594 C 119.07864 34.363594 119.15814 34.408359 119.24414 34.443359 C 120.42814 35.403359 121.6852 36.179109 123.0332 36.787109 C 124.1782 37.394109 126.53959 37.721203 130.18359 37.783203 C 130.93459 37.853203 132.3108 37.856564 134.3418 37.851562 C 135.1408 37.880562 135.86567 37.896156 136.51367 37.910156 C 137.31167 37.929156 137.9923 37.945469 138.6543 37.980469 C 142.0463 38.049469 145.06125 38.374719 145.90625 38.636719 C 146.66725 38.876719 148.16625 40.492562 148.28125 40.976562 C 148.28425 40.985563 148.28511 40.995859 148.28711 41.005859 L 148.34961 41.359375 C 148.37161 41.478375 148.41656 41.5895 148.47656 41.6875 L 148.47656 41.689453 L 148.47656 41.691406 L 148.47852 41.693359 L 148.48047 41.693359 L 148.48047 41.695312 L 148.48242 41.697266 C 148.50042 41.726266 148.52002 41.75525 148.54102 41.78125 C 148.55802 41.95225 148.54542 42.196906 148.48242 42.628906 C 148.41042 43.137906 148.36245 43.172688 148.18945 43.304688 C 148.09645 43.375687 147.98147 43.463031 147.85547 43.582031 C 147.79747 43.615031 147.7395 43.653219 147.6875 43.699219 C 147.2735 44.067219 146.49417 44.401438 145.20117 44.773438 C 143.16417 45.251438 140.89598 45.522078 138.45898 45.580078 C 135.62398 45.644078 132.91031 45.552578 130.44531 45.267578 C 127.85431 44.950578 125.59486 44.508844 123.75586 43.964844 C 122.51686 43.553844 121.1735 43.695719 120.1875 44.261719 C 119.0055 44.811719 118.17034 45.778062 117.77734 47.039062 C 117.39534 48.178064 117.49742 49.429469 118.10742 50.730469 C 118.73542 51.818469 119.68523 52.602047 120.86523 52.998047 C 123.06823 53.726047 125.75684 54.267219 129.33984 54.699219 C 132.01584 54.969219 134.57878 55.101562 137.17578 55.101562 C 137.70278 55.101562 138.23044 55.097844 138.77344 55.089844 C 142.09844 54.960844 145.0535 54.587516 147.5625 53.978516 C 150.9635 53.128516 153.38734 51.820934 154.77734 50.085938 C 154.85834 50.034937 154.92723 49.967625 154.99023 49.890625 C 156.12023 48.479625 156.89437 47.284375 157.35938 46.234375 C 157.38438 46.177375 157.40397 46.102391 157.41797 46.025391 C 157.95097 44.669391 158.21094 43.32025 158.21094 41.90625 L 158.20703 41.712891 C 158.19403 41.520891 158.18764 41.308031 158.18164 41.082031 C 158.15064 40.133031 158.11269 38.950031 157.67969 37.832031 C 157.47969 37.105031 157.29416 36.707828 156.41016 34.798828 L 156.21484 34.369141 C 155.05684 31.876141 152.43656 30.271359 147.97656 29.318359 C 147.93956 29.311359 147.88122 29.304734 147.82422 29.302734 C 145.51422 28.872734 142.44833 28.58275 138.98633 28.46875 C 138.34933 28.43075 137.58473 28.414531 136.67773 28.394531 C 136.01973 28.380531 135.2855 28.363936 134.4375 28.335938 C 132.5635 28.335938 131.20837 28.335484 130.48438 28.271484 C 129.57337 28.245484 127.48884 28.1845 126.83984 28.0625 C 126.21184 27.7695 125.69184 27.446516 125.29688 27.103516 C 124.83387 26.691516 124.49883 26.313469 124.29883 25.980469 C 124.27183 25.873469 124.22606 25.770734 124.16406 25.677734 C 124.06306 25.528734 124.04042 25.364906 124.10742 25.128906 C 124.28342 24.369906 124.69822 23.659203 125.32422 23.033203 C 128.89022 19.604203 137.40627 19.706531 150.32227 23.394531 C 150.77927 23.505531 151.21977 23.564453 151.63477 23.564453 C 152.46277 23.564453 153.23628 23.337594 153.86328 22.933594 C 155.06928 22.297594 155.87592 21.297234 156.16992 20.115234 C 156.57392 18.937234 156.44558 17.72275 155.76758 16.46875 C 155.10258 15.36075 154.18497 14.624078 152.91797 14.205078 C 145.23697 12.050078 138.64694 10.957031 133.33594 10.957031 z M 219.2832 11.285156 C 225.02713 11.327766 230.28278 13.021984 234.89453 16.333984 C 235.56253 16.834984 235.99177 17.541047 236.13477 18.373047 C 236.29077 19.328047 236.14578 20.136141 235.67578 20.869141 C 235.24978 21.582141 234.65256 22.021281 233.85156 22.238281 C 233.65956 22.277281 233.46925 22.296875 233.28125 22.296875 C 232.72525 22.296875 232.20308 22.123391 231.70508 21.775391 C 226.36908 17.857391 220.69198 16.587094 214.83398 17.996094 C 214.77098 18.000094 214.71039 18.009391 214.65039 18.025391 L 213.67773 18.277344 C 211.83973 18.751344 210.51048 19.092891 208.77148 19.962891 C 206.84248 20.922891 205.63095 22.588984 205.37695 22.958984 C 204.60395 23.815984 204.03269 24.905359 203.67969 26.193359 C 203.21069 27.871359 202.94486 29.238672 202.88086 31.638672 C 202.80986 34.029672 203.10581 36.215953 203.75781 38.126953 C 204.39581 40.042953 205.36486 41.714984 206.63086 43.083984 C 207.86786 44.489984 209.33161 45.545594 211.09961 46.308594 C 211.16861 46.365594 211.24703 46.412266 211.33203 46.447266 C 213.34203 47.274266 215.55048 47.693359 217.89648 47.693359 C 223.51948 47.693359 227.55039 46.577516 230.27539 44.228516 C 231.72039 42.749516 232.63125 40.793406 232.90625 38.566406 C 232.93925 38.303406 232.85569 38.037844 232.67969 37.839844 C 232.50469 37.640844 232.25328 37.527344 231.98828 37.527344 L 219.17578 37.527344 C 218.38978 37.527344 217.69986 37.208781 217.13086 36.550781 C 216.56586 35.989781 216.25391 35.191781 216.25391 34.300781 C 216.25391 33.365781 216.54125 32.618172 217.15625 31.951172 C 217.68625 31.383172 218.40478 31.068359 219.17578 31.068359 L 235.82617 31.068359 C 236.60017 31.068359 237.21734 31.316359 237.77734 31.818359 C 238.40134 32.484359 238.701 33.140656 238.75 33.972656 C 239.368 40.876656 237.81603 45.857281 233.95703 49.238281 C 230.69203 52.507281 225.28658 54.166016 217.89258 54.166016 C 214.82258 54.166016 211.90894 53.583734 209.21094 52.427734 C 206.62694 51.386734 204.37353 49.769047 202.51953 47.623047 C 202.44853 47.542047 202.3683 47.479641 202.2793 47.431641 C 200.5143 45.455641 199.16839 43.086719 198.27539 40.386719 C 197.32639 37.510719 196.92392 34.578781 197.04492 31.425781 L 197.06641 30.882812 C 197.17541 27.968813 197.22072 26.762328 198.13672 24.361328 C 199.15972 21.672328 199.93739 19.795219 201.40039 18.199219 C 201.42339 18.171219 203.55448 15.396734 206.52148 13.927734 C 208.90848 12.743734 209.95459 12.526016 211.68359 12.166016 C 212.19759 12.059016 212.76381 11.941922 213.38281 11.794922 C 215.40031 11.440672 217.36856 11.270953 219.2832 11.285156 z M 372.03906 11.509766 C 361.34849 11.659089 354.17478 24.404469 350.17578 50.339844 C 349.93578 51.612844 350.24292 52.846672 351.04492 53.888672 C 351.85192 55.012672 352.91897 55.660641 354.16797 55.806641 C 354.46397 55.857641 354.74944 55.882812 355.02344 55.882812 C 355.98644 55.882813 356.89064 55.574875 357.80664 54.921875 C 358.83564 54.132875 359.47489 53.095594 359.71289 51.808594 C 360.15389 48.919594 360.63348 46.18125 361.14648 43.65625 L 384.75977 43.65625 C 385.34477 46.50025 385.89611 49.673906 386.41211 53.128906 C 386.66811 54.476906 387.29841 55.491031 388.31641 56.207031 C 389.15141 56.847031 390.07445 57.171875 391.06445 57.171875 C 391.33745 57.171875 391.61761 57.145562 391.84961 57.101562 C 393.11261 56.943563 394.16867 56.326281 395.01367 55.238281 C 395.81167 54.121281 396.11213 52.993203 395.95312 51.658203 C 391.85113 24.643203 384.59258 11.511719 373.76758 11.511719 C 373.50558 11.511719 373.23798 11.519156 373.08398 11.535156 C 372.7318 11.513781 372.38392 11.504949 372.03906 11.509766 z M 164.30273 11.695312 C 163.02473 11.695312 161.83708 12.175781 160.95508 13.050781 C 160.00708 13.990781 159.52734 15.134172 159.52734 16.451172 L 159.52734 48.371094 C 159.52734 49.684094 160.04578 50.880688 160.92578 51.679688 C 161.78378 52.614688 162.98273 53.130859 164.30273 53.130859 L 189.97266 53.130859 C 191.28966 53.130859 192.43777 52.652891 193.38477 51.712891 C 194.26577 50.837891 194.75 49.651047 194.75 48.373047 C 194.75 47.104047 194.30147 45.9705 193.35547 44.9375 C 192.38147 44.0575 191.24366 43.613281 189.97266 43.613281 L 169.08008 43.613281 L 169.08008 37.167969 L 184.19531 37.167969 C 185.51131 37.167969 186.65738 36.689094 187.60938 35.746094 C 188.48838 34.865094 188.97266 33.681156 188.97266 32.410156 C 188.97266 31.139156 188.52308 30.004422 187.58008 28.982422 C 186.61508 28.097422 185.47631 27.650391 184.19531 27.650391 L 169.08008 27.650391 L 169.08008 21.203125 L 189.97266 21.203125 C 191.28366 21.203125 192.43072 20.728203 193.38672 19.783203 C 194.29072 18.879203 194.75 17.756266 194.75 16.447266 C 194.75 15.173266 194.29947 14.040484 193.35547 13.021484 C 192.38647 12.141484 191.24766 11.695312 189.97266 11.695312 L 164.30273 11.695312 z M 492.05859 12.052734 C 488.80227 12.072196 485.25148 12.232656 481.41211 12.535156 C 480.16811 12.621156 479.05823 13.146516 478.11523 14.103516 C 477.21123 15.032516 476.75195 16.110594 476.75195 17.308594 L 476.75195 50.558594 C 476.75195 51.845594 477.26975 53.041687 478.21875 53.929688 C 479.20875 54.843688 480.4515 55.324219 481.8125 55.324219 C 483.2315 55.324219 484.42659 54.845078 485.30859 53.955078 C 486.31759 53.095078 486.87305 51.888594 486.87305 50.558594 L 486.87305 21.775391 C 495.12405 21.351391 501.61352 21.793453 506.10352 23.064453 C 509.33252 24.043453 510.98534 25.530266 511.15234 27.572266 C 511.21034 29.186266 510.59195 30.253297 509.25195 30.904297 C 506.62995 31.998297 502.71909 32.287609 497.49609 31.724609 C 496.27909 31.645609 495.25909 31.864156 494.37109 32.410156 C 493.38509 32.942156 492.66519 33.744531 492.24219 34.769531 C 491.83919 35.670531 491.77431 36.690188 492.07031 37.867188 C 492.39631 38.859186 493.03358 39.665125 494.01758 40.328125 L 514.65039 54.384766 C 515.52739 55.005766 516.49167 55.318359 517.51367 55.318359 C 517.79567 55.318359 518.08431 55.292953 518.32031 55.251953 C 519.72531 55.093953 520.86484 54.45475 521.71484 53.34375 C 522.49384 52.30475 522.81748 51.097875 522.64648 49.796875 C 522.39748 48.500875 521.71466 47.444578 520.59766 46.642578 L 511.32617 40.359375 C 512.19317 40.081375 512.9672 39.776453 513.6582 39.439453 C 518.6452 37.116453 521.21302 33.114266 521.29102 27.572266 C 521.58202 20.996266 517.51584 16.422469 509.21484 13.980469 C 504.96128 12.652906 499.22251 12.009919 492.05859 12.052734 z M 324.89844 12.425781 C 330.08444 12.425781 336.55956 13.505094 344.10156 15.621094 C 344.90856 15.888094 345.4863 16.350969 345.9043 17.042969 C 346.3133 17.802969 346.39853 18.508531 346.14453 19.269531 C 345.95153 20.030531 345.49002 20.595203 344.66602 21.033203 C 344.03902 21.434203 343.29667 21.498594 342.51367 21.308594 C 328.71267 17.359594 319.71553 17.375062 315.51953 21.414062 C 314.63753 22.293062 314.03692 23.338625 313.79492 24.390625 C 313.60892 25.031625 313.67733 25.682047 313.98633 26.248047 C 314.00133 26.309047 314.02373 26.367828 314.05273 26.423828 C 314.35273 27.016828 314.84536 27.609047 315.56836 28.248047 C 316.12936 28.731047 316.83592 29.170734 317.66992 29.552734 C 317.72392 29.577734 317.77989 29.597328 317.83789 29.611328 C 318.39189 29.743328 319.51592 29.818766 321.91992 29.884766 C 322.67592 29.955766 324.01242 29.956078 325.98242 29.955078 C 326.86842 29.986078 327.66219 30.004531 328.36719 30.019531 C 329.19619 30.036531 329.90458 30.051891 330.51758 30.087891 C 334.90358 30.234891 337.67928 30.615203 339.23828 30.908203 C 339.26628 30.913203 339.31242 30.916922 339.35742 30.919922 C 343.18542 31.746922 345.38916 33.032938 346.28516 34.960938 L 346.49023 35.402344 C 347.35323 37.264344 347.50059 37.591186 347.68359 38.242188 C 348.03759 39.167188 348.07066 40.143859 348.09766 41.005859 C 348.10466 41.254859 348.112 41.489531 348.125 41.769531 C 348.125 42.990531 347.89206 44.159703 347.41406 45.345703 C 347.39506 45.389703 347.37919 45.445859 347.36719 45.505859 C 346.98119 46.342859 346.35027 47.309125 345.44727 48.453125 C 345.35027 48.514125 345.26627 48.594453 345.19727 48.689453 C 344.09527 50.188453 341.94369 51.347813 338.80469 52.132812 C 336.38069 52.720813 333.52108 53.078172 330.33008 53.201172 C 327.27208 53.261172 324.24708 53.142219 321.08008 52.824219 C 317.62408 52.407219 315.02802 51.887453 312.91602 51.189453 C 312.16102 50.936453 311.57027 50.449547 311.19727 49.810547 C 310.93827 49.254547 310.69033 48.408437 310.98633 47.523438 C 311.23533 46.729436 311.70619 46.179594 312.49219 45.808594 C 312.88719 45.587594 313.31367 45.476563 313.76367 45.476562 C 314.05967 45.476563 314.36059 45.526859 314.68359 45.630859 C 316.64859 46.215859 319.03058 46.681625 321.76758 47.015625 C 323.81958 47.251625 325.9287 47.365234 328.2207 47.365234 C 328.8527 47.365234 329.48428 47.358797 330.11328 47.341797 C 332.68428 47.281797 335.09984 46.99175 337.33984 46.46875 C 338.76184 46.05875 339.66086 45.686375 340.29688 45.234375 C 340.45988 45.179375 340.60966 45.075547 340.72266 44.935547 C 340.81466 44.819547 340.89767 44.756922 341.01367 44.669922 C 341.46567 44.324922 341.85739 43.942625 342.02539 42.765625 C 342.20639 41.500625 342.07366 41.061203 341.84766 40.533203 L 341.79297 40.40625 C 341.46497 39.09225 339.36877 37.084406 338.13477 36.691406 C 337.59777 36.526406 331.37325 35.970219 330.28125 35.949219 C 329.68325 35.911219 328.95942 35.895953 328.10742 35.876953 C 327.47242 35.861953 326.76522 35.845406 325.94922 35.816406 C 323.91022 35.816406 322.56417 35.816906 321.82617 35.753906 C 317.37217 35.674906 315.88194 35.225547 315.33594 34.935547 C 313.99994 34.330547 312.85152 33.615594 311.72852 32.683594 C 311.67252 32.636594 311.60234 32.597453 311.52734 32.564453 C 310.34634 31.523453 309.43827 30.408187 308.82227 29.242188 C 308.80927 29.135188 308.77952 29.030641 308.72852 28.931641 C 307.86452 27.201641 307.61552 25.4145 307.97852 23.4375 C 308.26752 21.5535 309.25625 19.6425 311.03125 17.5625 C 313.67425 14.1535 318.34044 12.425781 324.89844 12.425781 z M 435.52344 12.626953 C 434.19344 12.626953 432.98464 13.145391 432.18164 14.025391 C 431.23164 14.881391 430.70703 16.086922 430.70703 17.419922 L 430.70703 36.537109 C 430.70703 39.068109 431.19531 41.537844 432.19531 44.089844 C 432.23531 44.190844 432.29705 44.280375 432.37305 44.359375 C 433.26905 46.489375 434.59064 48.442703 436.43164 50.345703 C 438.34564 52.181703 440.38311 53.548391 442.66211 54.525391 C 445.01911 55.526391 447.51034 56.013672 450.27734 56.013672 L 456.03711 56.013672 C 458.78111 56.013672 461.28998 55.526344 463.70898 54.527344 C 463.78298 54.497344 463.85016 54.459109 463.91016 54.412109 C 466.08016 53.446109 468.03706 52.113312 469.91406 50.320312 C 471.69406 48.472313 473.03114 46.528766 473.99414 44.384766 C 474.04314 44.321766 474.08323 44.251781 474.11523 44.175781 C 475.12323 41.763781 475.61328 39.263109 475.61328 36.537109 L 475.61328 17.412109 C 475.60028 16.116109 475.10656 14.923594 474.22656 14.058594 C 473.27656 13.107594 472.11916 12.626953 470.78516 12.626953 C 469.45816 12.626953 468.24941 13.144344 467.44141 14.027344 C 466.49241 14.888344 465.96875 16.092922 465.96875 17.419922 L 465.96875 36.537109 C 465.96875 37.948109 465.71531 39.229625 465.19531 40.390625 C 464.78831 41.444625 464.12775 42.421578 463.09375 43.517578 C 461.94275 44.591578 460.95842 45.247062 459.85742 45.664062 C 458.74442 46.164063 457.4552 46.419922 456.0332 46.419922 L 450.27344 46.419922 C 448.86444 46.419922 447.64444 46.178531 446.39844 45.644531 C 445.33744 45.245531 444.38586 44.608594 443.25586 43.558594 C 442.33786 42.589594 441.6682 41.626969 441.1582 40.542969 C 441.1462 40.487969 441.13037 40.433859 441.10938 40.380859 C 440.59737 39.096859 440.33984 37.803109 440.33984 36.537109 L 440.33984 17.419922 C 440.33984 16.128922 439.84994 14.934641 438.96094 14.056641 C 437.99294 13.093641 436.86844 12.626953 435.52344 12.626953 z M 133.33398 12.806641 C 138.47798 12.806641 144.897 13.877609 152.375 15.974609 C 153.174 16.239609 153.74716 16.697766 154.16016 17.384766 C 154.56516 18.138766 154.65053 18.837797 154.39453 19.591797 C 154.20553 20.344797 153.74864 20.901937 152.93164 21.335938 C 152.31164 21.730937 151.57386 21.796422 150.79688 21.607422 C 137.10987 17.698422 128.18934 17.711891 124.02734 21.712891 C 123.14134 22.598891 122.56041 23.605156 122.31641 24.660156 C 122.13241 25.299156 122.20086 25.947766 122.50586 26.509766 C 122.52286 26.568766 122.54522 26.624641 122.57422 26.681641 C 122.86822 27.262641 123.35622 27.852234 124.07422 28.490234 C 124.62822 28.972234 125.33111 29.407203 126.16211 29.783203 C 126.21411 29.807203 126.26822 29.827797 126.32422 29.841797 C 126.86622 29.973797 127.941 30.046234 130.375 30.115234 C 131.126 30.184234 132.4493 30.191594 134.4043 30.183594 C 135.2283 30.211594 135.97267 30.227234 136.63867 30.240234 C 137.51667 30.259234 138.25744 30.275453 138.89844 30.314453 C 143.23244 30.457453 145.99488 30.837859 147.54688 31.130859 C 147.57587 31.135859 147.62102 31.139578 147.66602 31.142578 C 151.46602 31.963578 153.64911 33.235531 154.53711 35.144531 L 154.73242 35.570312 C 155.59342 37.431312 155.74083 37.756297 155.92383 38.404297 C 156.27283 39.316297 156.30603 40.286625 156.33203 41.140625 C 156.34103 41.389625 156.34835 41.621484 156.35938 41.771484 L 156.35938 41.902344 C 156.35938 43.114344 156.13025 44.274313 155.65625 45.445312 C 155.63825 45.490313 155.62333 45.544516 155.61133 45.603516 C 155.22833 46.429516 154.60108 47.39125 153.70508 48.53125 C 153.61008 48.59125 153.52798 48.669672 153.45898 48.763672 C 152.36498 50.252672 150.23114 51.401688 147.11914 52.179688 C 144.73614 52.758688 141.90375 53.115281 138.71875 53.238281 C 135.67175 53.305281 132.66592 53.178281 129.54492 52.863281 C 126.10492 52.447281 123.53213 51.932141 121.45312 51.244141 C 120.70212 50.992141 120.11409 50.507953 119.74609 49.876953 C 119.48809 49.325953 119.24311 48.488328 119.53711 47.611328 C 119.78411 46.819328 120.25316 46.27325 121.03516 45.90625 C 121.42116 45.68625 121.84311 45.574219 122.28711 45.574219 C 122.58111 45.574219 122.87908 45.624422 123.20508 45.732422 C 125.16808 46.314422 127.52947 46.776469 130.23047 47.105469 C 132.25247 47.340469 134.35702 47.453125 136.66602 47.453125 C 137.28002 47.453125 137.89381 47.446641 138.50781 47.431641 C 141.06981 47.372641 143.46587 47.083406 145.67188 46.566406 C 147.07488 46.163406 147.96466 45.793797 148.59766 45.341797 C 148.76366 45.286797 148.91234 45.186922 149.02734 45.044922 C 149.11934 44.928922 149.20141 44.865344 149.31641 44.777344 C 149.76341 44.436344 150.15036 44.059531 150.31836 42.894531 C 150.49536 41.639531 150.36467 41.201734 150.13867 40.677734 L 150.08594 40.552734 C 149.76194 39.246734 147.67994 37.256047 146.46094 36.873047 C 145.31194 36.517047 141.97392 36.198813 138.66992 36.132812 C 138.08692 36.097814 137.38364 36.0815 136.55664 36.0625 C 135.91664 36.0485 135.20095 36.032906 134.37695 36.003906 C 132.35495 36.003906 131.01916 36.004453 130.28516 35.939453 C 125.87016 35.861453 124.39161 35.415859 123.84961 35.130859 C 122.52561 34.531859 121.38944 33.821484 120.27344 32.896484 C 120.21744 32.849484 120.14627 32.810297 120.07227 32.779297 C 118.90427 31.749297 118.00363 30.644328 117.39062 29.486328 C 117.37862 29.379328 117.34883 29.273781 117.29883 29.175781 C 116.43983 27.461781 116.19469 25.688563 116.55469 23.726562 C 116.83869 21.857563 117.82008 19.962436 119.58008 17.898438 C 122.20208 14.520437 126.82998 12.806641 133.33398 12.806641 z M 562.11133 12.8125 C 560.83133 12.8125 559.63337 13.297594 558.73438 14.183594 C 557.77937 15.135594 557.29688 16.288375 557.29688 17.609375 L 557.29688 39.183594 L 533.2207 14.205078 C 532.4747 13.552078 531.69314 13.128625 530.74414 12.890625 C 529.75614 12.732625 528.74953 12.853359 528.01953 13.193359 C 527.05453 13.537359 526.26222 14.156813 525.82422 14.882812 C 525.23022 15.721813 524.94336 16.613375 524.94336 17.609375 L 524.94336 51.087891 C 524.94336 52.419891 525.46356 53.625875 526.35156 54.421875 C 527.21656 55.362875 528.42486 55.882812 529.75586 55.882812 C 531.08686 55.882813 532.24245 55.401078 533.18945 54.455078 C 534.07945 53.575078 534.57031 52.379891 534.57031 51.087891 L 534.57031 29.511719 L 558.67188 54.394531 C 559.40088 55.113531 560.20159 55.570641 561.18359 55.806641 C 561.49359 55.857641 561.79475 55.882812 562.09375 55.882812 C 562.67975 55.882813 563.26633 55.786875 563.98633 55.546875 C 564.92233 55.118875 565.60433 54.539906 566.11133 53.753906 C 566.65433 52.981906 566.92969 52.083891 566.92969 51.087891 L 566.92969 17.609375 C 566.92969 16.323375 566.47458 15.179391 565.51758 14.150391 C 564.53858 13.262391 563.39233 12.8125 562.11133 12.8125 z M 372.26172 13.376953 C 372.49472 13.376953 372.73203 13.384437 373.08203 13.398438 C 383.08603 12.774437 390.12856 25.749203 394.10156 51.908203 C 394.20256 52.746203 394.01964 53.416047 393.51562 54.123047 C 393.00162 54.784047 392.38055 55.154766 391.56055 55.259766 C 390.80155 55.399766 390.10387 55.226078 389.42188 54.705078 C 388.77387 54.247078 388.41095 53.655359 388.25195 52.818359 C 387.69095 49.059359 387.07769 45.596297 386.42969 42.529297 C 386.33669 42.099297 385.95758 41.791016 385.51758 41.791016 L 360.38477 41.791016 C 359.94277 41.791016 359.56366 42.101156 359.47266 42.535156 C 358.89466 45.296156 358.35409 48.322 357.87109 51.5 C 357.72409 52.3 357.33131 52.935875 356.69531 53.421875 C 356.11531 53.834875 355.59848 54.019531 355.02148 54.019531 C 354.85048 54.019531 354.67355 54.002891 354.43555 53.962891 C 353.66755 53.870891 353.05111 53.492344 352.53711 52.777344 C 352.04411 52.135344 351.86572 51.431297 352.01172 50.654297 C 355.82772 25.918297 362.64072 13.376953 372.26172 13.376953 z M 391.79688 13.462891 C 390.50788 13.462891 389.30806 13.947125 388.41406 14.828125 C 387.46106 15.781125 386.97852 16.935812 386.97852 18.257812 C 386.97852 19.575812 387.49772 20.78075 388.38672 21.59375 C 389.25272 22.53575 390.46587 23.054688 391.79688 23.054688 L 403.80273 23.054688 L 403.80273 51.732422 C 403.80273 53.056422 404.32484 54.261266 405.21484 55.072266 C 406.08284 56.012266 407.29119 56.53125 408.61719 56.53125 C 409.94919 56.53125 411.10864 56.049563 412.05664 55.101562 C 412.94864 54.218562 413.4375 53.023422 413.4375 51.732422 L 413.4375 23.052734 L 425.44531 23.052734 C 426.77931 23.052734 427.93677 22.570094 428.88477 21.621094 C 429.76977 20.739094 430.25781 19.544812 430.25781 18.257812 C 430.26081 16.970813 429.80647 15.825828 428.85547 14.798828 C 427.88147 13.911828 426.73631 13.462891 425.44531 13.462891 L 391.79688 13.462891 z M 164.30273 13.544922 L 189.97266 13.544922 C 190.79566 13.544922 191.47378 13.813031 192.05078 14.332031 C 192.62078 14.949031 192.89648 15.639313 192.89648 16.445312 C 192.89648 17.257313 192.62908 17.92075 192.08008 18.46875 C 191.47108 19.07275 190.80266 19.353516 189.97266 19.353516 L 168.15625 19.353516 C 167.64425 19.353516 167.23047 19.768297 167.23047 20.279297 L 167.23047 28.574219 C 167.23047 29.085219 167.64425 29.5 168.15625 29.5 L 184.19531 29.5 C 185.02131 29.5 185.70044 29.768062 186.27344 30.289062 C 186.85144 30.921063 187.11914 31.594156 187.11914 32.410156 C 187.11914 33.187156 186.82969 33.9095 186.30469 34.4375 C 185.69869 35.0395 185.02831 35.318359 184.19531 35.318359 L 168.15625 35.318359 C 167.64425 35.318359 167.23047 35.731186 167.23047 36.242188 L 167.23047 44.537109 C 167.23047 45.048109 167.64425 45.462891 168.15625 45.462891 L 189.97266 45.462891 C 190.79366 45.462891 191.47378 45.732047 192.05078 46.248047 C 192.62978 46.882047 192.89844 47.557047 192.89844 48.373047 C 192.89844 49.154047 192.60808 49.874437 192.08008 50.398438 C 191.47508 50.999437 190.80566 51.28125 189.97266 51.28125 L 164.30273 51.28125 C 163.49473 51.28125 162.79947 50.986094 162.23047 50.371094 C 161.68047 49.870094 161.37891 49.159094 161.37891 48.371094 L 161.37891 16.451172 C 161.37891 15.622172 161.65781 14.958281 162.25781 14.363281 C 162.79181 13.835281 163.51673 13.544922 164.30273 13.544922 z M 492.80078 13.912109 C 499.39378 13.912109 504.73183 14.534578 508.67383 15.767578 C 516.16083 17.969578 519.67783 21.804531 519.42383 27.519531 C 519.35583 32.380531 517.21152 35.727812 512.85352 37.757812 C 511.78552 38.277812 510.49606 38.713797 508.91406 39.091797 C 508.55506 39.177797 508.2808 39.467031 508.2168 39.832031 C 508.1498 40.194031 508.30438 40.563484 508.60938 40.771484 L 519.5293 48.173828 C 520.2443 48.687828 520.65369 49.314703 520.80469 50.095703 C 520.90469 50.859703 520.70756 51.576703 520.22656 52.220703 C 519.68956 52.923703 519.01859 53.29825 518.05859 53.40625 C 517.22859 53.55225 516.44384 53.368516 515.71484 52.853516 L 495.0625 38.785156 C 494.4245 38.353156 494.03533 37.877564 493.86133 37.351562 C 493.68433 36.644563 493.71008 36.048859 493.95508 35.505859 C 494.22708 34.843859 494.64273 34.381436 495.30273 34.023438 C 495.81073 33.711438 496.33219 33.572266 496.99219 33.572266 C 497.11519 33.572266 497.23903 33.577031 497.33203 33.582031 C 502.78103 34.172031 507.01858 33.859516 510.01758 32.603516 C 512.06258 31.613516 513.09967 29.850844 513.01367 27.464844 C 512.77867 24.569844 510.63691 22.487484 506.62891 21.271484 C 501.75091 19.895484 494.75167 19.451984 485.88867 19.958984 C 485.39467 19.986984 485.00781 20.395625 485.00781 20.890625 L 485.00781 50.560547 C 485.00781 51.344547 484.69206 52.026891 484.03906 52.587891 C 483.45506 53.174891 482.7275 53.460937 481.8125 53.460938 C 480.9275 53.460937 480.12328 53.149453 479.48828 52.564453 C 478.92628 52.037453 478.61523 51.325547 478.61523 50.560547 L 478.61523 17.310547 C 478.61523 16.596547 478.88327 15.992109 479.44727 15.412109 C 480.06727 14.784109 480.74983 14.452436 481.54883 14.398438 C 485.63383 14.075437 489.42078 13.912109 492.80078 13.912109 z M 435.52344 14.490234 C 436.36144 14.490234 437.03744 14.773859 437.64844 15.380859 C 438.18044 15.907859 438.47461 16.631922 438.47461 17.419922 L 438.47461 36.537109 C 438.47461 37.993109 438.75927 39.469687 439.32227 40.929688 C 439.33427 41.012687 439.35858 41.094875 439.39258 41.171875 C 439.99058 42.489875 440.80841 43.689814 441.94141 44.882812 C 442.84441 45.723813 444.09322 46.77 445.69922 47.375 C 447.12722 47.988 448.62544 48.285156 450.27344 48.285156 L 456.0332 48.285156 C 457.7202 48.285156 459.26331 47.977625 460.57031 47.390625 C 462.21731 46.766625 463.4652 45.720844 464.4082 44.839844 C 465.6582 43.518844 466.43802 42.352422 466.91602 41.107422 C 467.52502 39.750422 467.83398 38.212109 467.83398 36.537109 L 467.83398 17.419922 C 467.83398 16.625922 468.14091 15.910609 468.75391 15.349609 C 469.27091 14.788609 469.9702 14.490234 470.7832 14.490234 C 471.6282 14.490234 472.30211 14.773814 472.91211 15.382812 C 473.44111 15.903814 473.73905 16.631922 473.74805 17.419922 L 473.74805 36.537109 C 473.74805 38.917109 473.33614 41.101078 472.49414 43.205078 C 472.45614 43.259078 472.42348 43.318859 472.39648 43.380859 C 471.51648 45.421859 470.26466 47.266047 468.59766 48.998047 C 466.83766 50.679047 464.97997 51.925594 462.91797 52.808594 C 462.85597 52.835594 462.80195 52.867297 462.75195 52.904297 C 460.63995 53.742297 458.44011 54.148438 456.03711 54.148438 L 450.27734 54.148438 C 447.76534 54.148437 445.51353 53.709594 443.39453 52.808594 C 441.32753 51.922594 439.47109 50.677391 437.74609 49.025391 C 436.02609 47.245391 434.80009 45.407344 433.99609 43.402344 C 433.95909 43.310344 433.90494 43.224391 433.83594 43.150391 C 432.98894 40.911391 432.57517 38.745156 432.57617 36.535156 L 432.57617 17.419922 C 432.57617 16.854922 432.72219 16.047656 433.49219 15.347656 C 433.99919 14.796656 434.72144 14.490234 435.52344 14.490234 z M 562.11133 14.677734 C 562.93733 14.677734 563.62103 14.950564 564.20703 15.476562 C 564.79003 16.109564 565.06445 16.786375 565.06445 17.609375 L 565.06445 51.087891 C 565.06445 51.709891 564.91241 52.215937 564.56641 52.710938 C 564.23541 53.220937 563.81755 53.570594 563.31055 53.808594 C 562.65455 54.022594 561.97064 54.042516 561.55664 53.978516 C 560.97164 53.836516 560.46809 53.547078 559.99609 53.080078 L 534.30859 26.560547 C 534.12759 26.375547 533.88667 26.275391 533.63867 26.275391 C 533.52167 26.275391 533.40011 26.29675 533.28711 26.34375 C 532.93511 26.48475 532.70703 26.827031 532.70703 27.207031 L 532.70703 51.087891 C 532.70703 51.877891 532.41391 52.601859 531.87891 53.130859 C 531.27191 53.735859 530.59881 54.017578 529.75781 54.017578 C 528.94381 54.017578 528.24206 53.721609 527.66406 53.099609 C 527.10506 52.593609 526.81055 51.899844 526.81055 51.089844 L 526.81055 17.611328 C 526.81055 17.006328 526.98177 16.48025 527.38477 15.90625 C 527.63577 15.49225 528.08461 15.155828 528.72461 14.923828 C 529.06661 14.766828 529.45019 14.685547 529.86719 14.685547 C 530.06019 14.685547 530.25619 14.702797 530.36719 14.716797 C 530.94819 14.866797 531.46655 15.149641 531.93555 15.556641 L 557.55859 42.144531 C 557.82159 42.417531 558.22412 42.502328 558.57812 42.361328 C 558.93114 42.219328 559.16016 41.877094 559.16016 41.496094 L 559.16016 17.611328 C 559.16016 16.779328 559.44483 16.109814 560.04883 15.507812 C 560.59183 14.971813 561.32433 14.677734 562.11133 14.677734 z M 391.79688 15.326172 L 425.44336 15.326172 C 426.27636 15.326172 426.96106 15.597141 427.53906 16.119141 C 428.12006 16.751141 428.39258 17.429859 428.39258 18.255859 C 428.39258 19.043859 428.09945 19.770734 427.56445 20.302734 C 426.96345 20.905734 426.28636 21.1875 425.44336 21.1875 L 412.50391 21.1875 C 411.98991 21.1875 411.57031 21.604141 411.57031 22.119141 L 411.57031 51.732422 C 411.57031 52.521422 411.27623 53.24725 410.74023 53.78125 C 410.13723 54.38625 409.45919 54.669922 408.61719 54.669922 C 407.80519 54.669922 407.1033 54.371906 406.5293 53.753906 C 405.9673 53.236906 405.66992 52.538422 405.66992 51.732422 L 405.66992 22.123047 C 405.66992 21.608047 405.25136 21.189453 404.73438 21.189453 L 391.79688 21.189453 C 390.98088 21.189453 390.27508 20.891438 389.70508 20.273438 C 389.14108 19.754438 388.8457 19.057859 388.8457 18.255859 C 388.8457 17.424859 389.12647 16.754391 389.73047 16.150391 C 390.26747 15.619391 391.00087 15.326172 391.79688 15.326172 z M 264.41406 16.757812 C 259.67206 17.140812 255.93156 22.159562 252.97656 32.101562 C 252.89356 32.380564 252.94705 32.683969 253.12305 32.917969 C 253.29705 33.151969 253.57123 33.289062 253.86523 33.289062 L 274.95117 33.289062 C 275.24517 33.289062 275.52041 33.151969 275.69141 32.917969 C 275.86541 32.683969 275.92089 32.381563 275.83789 32.101562 C 272.87589 22.155563 269.18745 17.136812 264.56445 16.757812 C 264.51445 16.754812 264.46106 16.754812 264.41406 16.757812 z M 264.48633 18.607422 C 267.96133 18.951422 271.13622 23.377453 273.69922 31.439453 L 255.11523 31.439453 C 257.70623 23.271453 260.85633 18.956422 264.48633 18.607422 z M 372.95312 19.261719 C 368.17312 19.647719 364.39897 24.707516 361.41797 34.728516 C 361.33297 35.010516 361.38745 35.315734 361.56445 35.552734 C 361.74045 35.787734 362.01555 35.927734 362.31055 35.927734 L 383.58984 35.927734 C 383.88284 35.927734 384.16089 35.788734 384.33789 35.552734 C 384.51289 35.316734 384.56737 35.012469 384.48438 34.730469 C 381.51538 24.696469 377.79152 19.635719 373.10352 19.261719 C 373.05252 19.255719 373.00513 19.260719 372.95312 19.261719 z M 373.0293 21.128906 C 376.6023 21.469906 379.72914 25.8195 382.32812 34.0625 L 363.57227 34.0625 C 366.18727 25.8285 369.3643 21.478906 373.0293 21.128906 z "
   transform="translate(-110.047,5.731)" /><g
   id="Ebene_2_1_">
</g>
<path
   fill="url(#SVGID_1_)"
   d="m -96.884,37.078 c 2.093,-1.583 5.084,-3.551 8.511,-5.267 3.43,-1.837 7.289,-3.489 11.575,-5.143 v 0.062 c 4.225,-1.592 8.694,-3.062 13.348,-4.348 4.716,-1.348 9.368,-2.45 14.022,-3.245 4.714,-0.918 9.245,-1.471 13.533,-1.716 4.409,-0.367 9.435,-0.025 10.701,0.062 1.267,0.087 3.075,-0.183 3.871,-0.795 0.797,-0.673 1.225,-1.471 1.347,-2.449 0.123,-1.042 -0.183,-1.96 -0.794,-2.696 -0.674,-0.795 -2.143,-1.284 -3.123,-1.346 -3.92,-0.43 -7.654,-0.43 -12.491,-0.124 -4.533,0.306 -9.309,0.918 -14.39,1.837 -4.838,0.857 -9.738,2.021 -14.636,3.368 -4.899,1.348 -9.55,2.879 -13.96,4.53 -4.592,1.778 -9.555,4.026 -12.37,5.452 -2.815,1.425 -6.441,3.472 -9.506,6 -3.064,2.527 -4.362,3.736 -6.415,6.918 -2.053,3.182 -2.524,6.79 -1.26,8.951 3.253,5.562 14.854,3.739 19.264,2.882 3.551,-0.733 7.898,-1.731 13.104,-3.199 3.795,-1.163 8.634,-2.694 14.511,-4.654 l 14.574,-4.775 c 5.327,-1.775 9.673,-3.124 13.043,-4.042 4.103,-1.225 11.39,-2.961 15.14,-2.281 -0.188,2.35 -3.106,8.643 -16.123,14.466 -4.838,2.205 -10.225,4.226 -16.166,6.185 h -0.061 c -4.59,1.469 -9.305,2.756 -14.144,3.919 -4.715,1.104 -9.125,1.899 -13.35,2.573 l 0.062,-0.062 c -6.645,0.927 -16.2,0.102 -18.088,0.349 -3.737,0.238 -4.646,2.591 -4.686,3.612 -0.04,1.018 -0.09,3.406 4.887,3.715 4.978,0.309 9.625,0.721 18.929,-0.39 5.774,-0.851 9.062,-1.53 13.899,-2.632 h 0.062 c 5.022,-1.225 9.92,-2.573 14.696,-4.104 6.246,-1.958 11.941,-4.163 17.021,-6.489 11.423,-5.124 15.536,-9.808 18.213,-13.834 2.678,-4.026 3.654,-9.559 0.876,-12.157 -3.182,-2.977 -9.235,-2.445 -11.314,-2.248 -2.971,0.283 -7.407,0.991 -11.876,2.276 -3.428,0.98 -7.839,2.328 -13.35,4.166 L -64.37,35.18 c -5.817,1.899 -10.533,3.43 -14.267,4.531 -4.96,1.472 -9.063,2.573 -12.494,3.247 -7.83,1.803 -10.348,0.794 -10.348,0.794 -0.105,-2.243 2.502,-5.092 4.595,-6.674 z"
   id="path10"
   style="fill:#ffffff" /><path
   fill="#333333"
   d="m -89.039,66.582 c -2.612,0 -4.834,-0.14 -6.982,-0.277 l -0.958,-0.06 c -5.437,-0.338 -5.325,-3.213 -5.288,-4.158 0.05,-1.282 1.178,-3.774 5.086,-4.023 0.244,-0.033 0.653,-0.049 1.261,-0.049 0.772,0 1.793,0.027 2.976,0.058 1.584,0.042 3.554,0.094 5.569,0.094 3.388,0 6.086,-0.147 8.25,-0.449 0.07,-0.009 0.137,-0.001 0.2,0.02 4.92,-0.79 9.074,-1.593 13.05,-2.524 5.12,-1.231 9.737,-2.51 14.11,-3.91 0.04,-0.013 0.082,-0.02 0.123,-0.021 6.267,-2.067 11.52,-4.079 16.057,-6.146 11.518,-5.152 15.31,-10.859 15.822,-13.718 -0.443,-0.056 -0.946,-0.084 -1.499,-0.084 -3.648,0 -9.128,1.248 -13.042,2.416 -3.333,0.908 -7.713,2.266 -13.029,4.037 l -14.577,4.777 c -5.071,1.692 -9.957,3.259 -14.519,4.657 -4.407,1.243 -8.703,2.291 -13.142,3.208 -3.388,0.658 -6.46,0.992 -9.137,0.992 -5.439,0 -9,-1.372 -10.583,-4.077 -1.363,-2.331 -0.854,-6.107 1.27,-9.398 2.082,-3.228 3.438,-4.488 6.502,-7.016 2.497,-2.059 5.721,-4.095 9.584,-6.052 2.685,-1.359 7.712,-3.65 12.409,-5.468 4.615,-1.729 9.324,-3.256 14.001,-4.544 5.355,-1.472 10.155,-2.576 14.674,-3.377 5.152,-0.931 9.875,-1.534 14.437,-1.842 2.309,-0.146 4.304,-0.217 6.101,-0.217 2.25,0 4.365,0.112 6.466,0.342 1.083,0.068 2.658,0.615 3.402,1.494 0.717,0.863 1.025,1.907 0.893,3.022 -0.138,1.102 -0.627,1.993 -1.496,2.726 -0.941,0.726 -2.879,0.985 -4.175,0.896 -0.822,-0.057 -3.321,-0.228 -6.196,-0.228 -1.632,0 -3.126,0.056 -4.441,0.165 -4.425,0.253 -8.958,0.828 -13.487,1.709 -4.464,0.763 -9.036,1.821 -13.986,3.236 -4.498,1.243 -8.976,2.701 -13.315,4.337 -0.07,0.026 -0.145,0.035 -0.217,0.022 -4.686,1.814 -8.283,3.417 -11.306,5.036 -3.961,1.983 -6.997,4.128 -8.455,5.231 -2.085,1.577 -4.284,4.076 -4.419,6.008 0.336,0.074 1.003,0.178 2.087,0.178 2.064,0 4.666,-0.359 7.733,-1.064 3.173,-0.624 7.014,-1.622 12.468,-3.24 3.711,-1.095 8.448,-2.632 14.255,-4.527 L -49.929,30 c 4.874,-1.625 9.371,-3.028 13.366,-4.17 5.406,-1.554 10.16,-2.119 11.953,-2.291 0.577,-0.055 1.774,-0.168 3.149,-0.168 3.845,0 6.704,0.851 8.499,2.529 3.058,2.862 1.864,8.683 -0.813,12.707 -2.825,4.246 -7.008,8.88 -18.395,13.987 -5.313,2.432 -11.056,4.622 -17.068,6.507 -4.572,1.465 -9.389,2.81 -14.724,4.11 -0.033,0.009 -0.067,0.013 -0.101,0.013 h -0.015 c -5.003,1.14 -8.206,1.791 -13.885,2.627 -4.183,0.499 -7.699,0.731 -11.076,0.731 z m -6.881,-7.713 c -0.562,0 -0.948,0.015 -1.179,0.045 -3.328,0.213 -4.274,2.189 -4.314,3.206 -0.037,0.969 -0.116,2.985 4.486,3.27 l 0.959,0.062 c 2.135,0.136 4.342,0.276 6.928,0.276 3.342,0 6.827,-0.231 10.964,-0.725 5.657,-0.833 8.847,-1.484 13.854,-2.625 0.031,-0.007 0.063,-0.01 0.095,-0.01 h 0.011 c 5.295,-1.292 10.076,-2.627 14.618,-4.083 5.981,-1.875 11.691,-4.052 16.974,-6.471 11.192,-5.02 15.282,-9.542 18.035,-13.682 2.517,-3.784 3.557,-9.16 0.941,-11.608 -1.631,-1.525 -4.293,-2.299 -7.914,-2.299 -1.335,0 -2.506,0.112 -3.068,0.165 -1.769,0.169 -6.461,0.727 -11.798,2.261 -3.984,1.139 -8.47,2.538 -13.333,4.16 l -14.575,4.776 c -5.814,1.898 -10.557,3.438 -14.279,4.535 -5.48,1.626 -9.345,2.63 -12.532,3.256 -3.117,0.717 -5.784,1.083 -7.912,1.083 -1.845,0 -2.597,-0.279 -2.677,-0.312 -0.155,-0.063 -0.26,-0.21 -0.268,-0.376 -0.125,-2.616 2.934,-5.653 4.762,-7.036 1.481,-1.12 4.565,-3.299 8.578,-5.308 3.092,-1.656 6.785,-3.297 11.612,-5.16 0.073,-0.028 0.151,-0.035 0.225,-0.023 4.293,-1.61 8.721,-3.049 13.164,-4.276 4.978,-1.423 9.578,-2.487 14.064,-3.254 4.557,-0.887 9.128,-1.467 13.581,-1.721 1.327,-0.111 2.844,-0.167 4.501,-0.167 2.904,0 5.425,0.173 6.253,0.229 0.146,0.01 0.298,0.015 0.456,0.015 1.267,0 2.581,-0.304 3.124,-0.722 0.691,-0.584 1.073,-1.276 1.185,-2.164 0.103,-0.874 -0.138,-1.695 -0.7,-2.37 -0.56,-0.661 -1.901,-1.134 -2.82,-1.192 -3.794,-0.416 -7.257,-0.452 -12.438,-0.124 -4.528,0.306 -9.219,0.904 -14.341,1.831 -4.495,0.796 -9.269,1.895 -14.598,3.359 -4.652,1.281 -9.337,2.8 -13.924,4.519 -4.665,1.806 -9.66,4.082 -12.326,5.432 -3.807,1.928 -6.979,3.93 -9.427,5.949 -3.053,2.519 -4.302,3.68 -6.328,6.82 -1.922,2.98 -2.436,6.476 -1.25,8.503 1.418,2.425 4.73,3.654 9.844,3.654 2.622,0 5.639,-0.328 8.969,-0.975 4.414,-0.912 8.69,-1.955 13.069,-3.191 4.546,-1.393 9.425,-2.958 14.492,-4.648 l 14.576,-4.776 c 5.329,-1.776 9.726,-3.139 13.063,-4.048 1.917,-0.572 8.57,-2.449 13.276,-2.449 0.778,0 1.469,0.053 2.053,0.16 0.216,0.04 0.368,0.236 0.35,0.455 -0.063,0.796 -1.062,7.972 -16.374,14.822 -4.579,2.086 -9.88,4.116 -16.206,6.2 -0.042,0.014 -0.084,0.021 -0.129,0.021 -4.375,1.398 -8.991,2.677 -14.109,3.907 -4.071,0.953 -8.324,1.772 -13.383,2.58 -0.075,0.013 -0.152,0.004 -0.222,-0.023 -2.155,0.282 -4.807,0.42 -8.093,0.42 -2.026,0 -4.003,-0.052 -5.593,-0.095 -1.173,-0.031 -2.185,-0.058 -2.952,-0.058 z"
   id="path12"
   style="fill:#000000" /><circle
   fill="url(#SVGID_2_)"
   cx="-60.064999"
   cy="37.814999"
   r="31.229"
   id="circle23"
   style="fill:#ffffff" /><path
   fill="#33317a"
   d="m -60.065,69.899 c -17.691,0 -32.083,-14.393 -32.083,-32.084 0,-17.692 14.393,-32.084 32.083,-32.084 17.69,0 32.085,14.393 32.085,32.084 0,17.691 -14.394,32.084 -32.085,32.084 z m 0,-62.457 c -16.748,0 -30.373,13.625 -30.373,30.374 0,16.748 13.625,30.373 30.373,30.373 16.748,0 30.373,-13.625 30.373,-30.373 0,-16.75 -13.625,-30.374 -30.373,-30.374 z"
   id="path25"
   style="fill:#000000" /><path
   fill="url(#SVGID_3_)"
   d="m -89.657,50.012 c 3.551,-0.733 7.898,-1.731 13.104,-3.199 3.795,-1.163 14.511,-4.654 14.511,-4.654 l 14.574,-4.775 c 5.327,-1.775 9.673,-3.124 13.043,-4.042 0,0 5.039,-1.327 5.895,-1.48 -0.306,-3.179 -2.131,-7.001 -2.131,-7.001 -1.84,0.356 -3.809,0.811 -5.785,1.379 -3.428,0.98 -7.839,2.328 -13.35,4.165 l -14.572,4.775 c -5.817,1.899 -10.533,3.43 -14.267,4.531 -7.69,2.397 -12.921,3.343 -13.128,3.389 -10e-4,0 0.693,4.555 2.106,6.912 z"
   id="path35"
   style="fill:#ffffff" /><g
   id="g40"
   style="fill:#000000">
				<path
   fill="#333333"
   d="m -98.956,44.459 c -1.863,0 -2.623,-0.288 -2.68,-0.311 -0.219,-0.088 -0.326,-0.337 -0.238,-0.556 0.087,-0.22 0.337,-0.326 0.556,-0.238 0.021,0.007 2.563,0.919 10.093,-0.813 3.173,-0.623 7.014,-1.622 12.468,-3.24 3.712,-1.095 8.448,-2.632 14.255,-4.528 l 14.571,-4.774 c 4.874,-1.625 9.372,-3.029 13.367,-4.17 5.406,-1.554 10.16,-2.119 11.953,-2.29 0.232,-0.019 0.444,0.15 0.466,0.385 0.022,0.235 -0.15,0.444 -0.385,0.466 -1.769,0.168 -6.461,0.727 -11.798,2.261 -3.984,1.138 -8.47,2.538 -13.333,4.16 l -14.575,4.776 c -5.814,1.898 -10.557,3.437 -14.279,4.535 -5.48,1.626 -9.345,2.63 -12.532,3.256 -3.704,0.852 -6.245,1.081 -7.909,1.081 z"
   id="path38"
   style="fill:#000000" />
			</g><g
   id="g44"
   style="fill:#000000">
				<path
   fill="#333333"
   d="m -98.664,51.409 c -4.477,0 -8.793,-0.929 -10.627,-4.063 -0.119,-0.204 -0.05,-0.466 0.153,-0.585 0.203,-0.119 0.466,-0.05 0.585,0.153 2.895,4.95 13.029,3.802 18.813,2.679 4.415,-0.912 8.691,-1.956 13.069,-3.191 3.739,-1.146 14.388,-4.615 14.495,-4.649 l 14.573,-4.775 c 5.329,-1.776 9.725,-3.139 13.063,-4.048 0.017,-0.005 2.057,-0.577 5.91,-1.483 3.625,-0.854 6.6,-1.168 8.604,-0.911 0.235,0.03 0.4,0.245 0.37,0.479 -0.03,0.234 -0.244,0.4 -0.479,0.37 -1.327,-0.172 -3.844,-0.154 -8.299,0.895 -3.833,0.902 -5.858,1.47 -5.878,1.475 -3.327,0.906 -7.708,2.264 -13.024,4.036 l -14.574,4.777 c -0.108,0.035 -10.763,3.506 -14.519,4.657 -4.407,1.243 -8.703,2.291 -13.142,3.208 -2.524,0.488 -5.851,0.976 -9.093,0.976 z"
   id="path42"
   style="fill:#000000" />
			</g>
</svg>
