<?xml version="1.0" encoding="UTF-8" standalone="no"?>
<!-- Created with Inkscape (http://www.inkscape.org/) -->

<svg
   width="220mm"
   height="150mm"
   viewBox="0 0 779.52756 531.49606"
   id="svg2"
   version="1.1"
   inkscape:version="1.1.2 (0a00cf5339, 2022-02-04)"
   sodipodi:docname="controller.svg"
   xmlns:inkscape="http://www.inkscape.org/namespaces/inkscape"
   xmlns:sodipodi="http://sodipodi.sourceforge.net/DTD/sodipodi-0.dtd"
   xmlns="http://www.w3.org/2000/svg"
   xmlns:svg="http://www.w3.org/2000/svg"
   xmlns:rdf="http://www.w3.org/1999/02/22-rdf-syntax-ns#"
   xmlns:cc="http://creativecommons.org/ns#"
   xmlns:dc="http://purl.org/dc/elements/1.1/">
  <sodipodi:namedview
     id="base"
     pagecolor="#ffffff"
     bordercolor="#666666"
     borderopacity="1.0"
     inkscape:pageopacity="0"
     inkscape:pageshadow="2"
     inkscape:zoom="0.66626243"
     inkscape:cx="296.42974"
     inkscape:cy="263.40972"
     inkscape:document-units="px"
     inkscape:current-layer="layer1"
     showgrid="false"
     inkscape:window-width="1920"
     inkscape:window-height="996"
     inkscape:window-x="0"
     inkscape:window-y="0"
     inkscape:window-maximized="1"
     inkscape:snap-global="false"
     inkscape:pagecheckerboard="0" />
  <defs
     id="defs4" />
  <metadata
     id="metadata7">
    <rdf:RDF>
      <cc:Work
         rdf:about="">
        <dc:format>image/svg+xml</dc:format>
        <dc:type
           rdf:resource="http://purl.org/dc/dcmitype/StillImage" />
        <cc:license
           rdf:resource="http://creativecommons.org/licenses/by-nc-sa/4.0/" />
        <dc:creator>
          <cc:Agent>
            <dc:title>https://github.com/sirskunkalot</dc:title>
          </cc:Agent>
        </dc:creator>
      </cc:Work>
      <cc:License
         rdf:about="http://creativecommons.org/licenses/by-nc-sa/3.0/">
        <cc:permits
           rdf:resource="http://creativecommons.org/ns#Reproduction" />
        <cc:permits
           rdf:resource="http://creativecommons.org/ns#Distribution" />
        <cc:requires
           rdf:resource="http://creativecommons.org/ns#Notice" />
        <cc:requires
           rdf:resource="http://creativecommons.org/ns#Attribution" />
        <cc:prohibits
           rdf:resource="http://creativecommons.org/ns#CommercialUse" />
        <cc:permits
           rdf:resource="http://creativecommons.org/ns#DerivativeWorks" />
        <cc:requires
           rdf:resource="http://creativecommons.org/ns#ShareAlike" />
      </cc:License>
    </rdf:RDF>
  </metadata>
  <g
     transform="translate(0,-520.86614)"
     id="layer1"
     inkscape:groupmode="layer"
     inkscape:label="Ebene 1">
    <path
       id="path4136"
       style="color:#000000;font-style:normal;font-variant:normal;font-weight:normal;font-stretch:normal;font-size:medium;line-height:normal;font-family:sans-serif;text-indent:0;text-align:start;text-decoration:none;text-decoration-line:none;text-decoration-style:solid;text-decoration-color:#000000;letter-spacing:normal;word-spacing:normal;text-transform:none;writing-mode:lr-tb;direction:ltr;baseline-shift:baseline;text-anchor:start;white-space:normal;clip-rule:nonzero;display:inline;overflow:visible;visibility:visible;opacity:0.090909;isolation:auto;mix-blend-mode:normal;color-interpolation:sRGB;color-interpolation-filters:linearRGB;solid-color:#000000;solid-opacity:1;fill:#000000;fill-opacity:1;fill-rule:nonzero;stroke:none;stroke-width:1.33333;stroke-linecap:butt;stroke-linejoin:miter;stroke-miterlimit:4;stroke-dasharray:none;stroke-dashoffset:0;stroke-opacity:1;color-rendering:auto;image-rendering:auto;shape-rendering:auto;text-rendering:auto;enable-background:accumulate"
       d="M 231.66016 29.457031 L 218.05273 31.90625 L 205.1543 36.78125 L 192.85352 43.216797 L 181.04102 50.353516 L 170.52344 55.216797 L 160.32227 60.828125 L 151.12305 67.771484 L 143.61523 76.634766 L 138.28516 86.132812 L 133.67969 96.017578 L 124.86523 115.99023 L 115.28516 139.2207 L 106.57422 162.76953 L 98.691406 186.60352 L 91.595703 210.6875 L 79.615234 259.46289 L 70.308594 308.81836 L 62.113281 358.52539 L 58.880859 383.49805 L 56.789062 408.57422 L 57.435547 421.44141 L 58.880859 434.35547 L 61.228516 447.16211 L 64.582031 459.70703 L 69.048828 471.83789 L 74.730469 483.40039 L 81.732422 494.23633 L 90.15625 504.19531 L 96.917969 510.82422 L 104.22461 516.84961 L 120.21875 527.02734 L 137.61914 534.60156 L 144.36328 536.38672 C 145.9477 536.84652 147.53206 537.28034 149.14258 537.65234 L 155.9043 539.44336 L 163.12305 540.2168 L 170.41602 540.16016 L 177.65625 539.25781 L 184.71289 537.49805 L 191.45703 534.86523 L 197.76562 531.3457 L 203.50586 526.92383 L 208.55078 521.58789 L 219.33789 507.02539 L 228.34766 491.30859 L 236.71289 475.17383 L 245.56445 459.36523 L 262.07617 428.9082 L 270.59766 413.83984 L 279.82617 399.22852 L 284.00781 395.51758 L 288.6582 392.7168 L 298.9707 389.38281 L 309.98633 388.31836 L 320.92773 388.61523 L 422.59766 388.30664 L 473.42773 388.30078 L 524.24023 389.0332 L 529.82812 390.22852 L 535.13086 392.20117 L 544.66797 398.19336 L 552.41602 406.42969 L 557.94922 416.33203 L 581.19141 460.18164 L 604.44141 504.01367 L 613.42383 517.02539 L 618.76367 523.00977 L 624.65625 528.39062 L 631.08594 532.98047 L 638.04492 536.58789 L 645.52148 539.01953 L 653.50195 540.08594 L 665.4707 539.61328 L 677.19727 537.59961 L 688.59375 534.18359 L 699.57617 529.50195 L 710.05469 523.69336 L 719.94141 516.89648 L 729.15039 509.24805 L 737.5918 500.88672 L 743.51758 493.99805 L 748.7832 486.63477 L 757.33398 470.72461 L 759.9707 463.0918 C 760.01936 462.95283 760.06523 462.81304 760.11328 462.67383 L 763.23828 453.625 L 766.49609 435.80273 L 768.28125 416.0332 L 768.46875 396.28711 L 767.33398 376.57227 L 765.15234 356.90234 L 758.74414 317.73047 L 751.44336 278.84961 L 740.20312 230.44922 L 726.3125 182.71289 L 718.26758 159.20312 L 709.42969 135.98438 L 699.76172 113.10547 L 689.2168 90.605469 L 683.51953 80.560547 L 676.82422 71.025391 L 674.79688 69.259766 C 671.53312 65.615271 667.71911 62.572894 663.20703 60.390625 L 658.40625 57.625 L 646.44727 51.435547 L 634.82031 44.601562 L 622.98438 38.21875 L 610.40039 33.386719 L 599.77148 30.759766 L 588.78906 30.355469 L 578.19336 32.658203 L 573.27344 34.978516 L 568.72461 38.160156 L 567.04297 39.740234 L 565.07422 40.578125 L 560.57227 40.869141 L 555.80859 40.703125 L 551.37109 41.751953 L 547.18164 43.783203 L 543.50977 46.642578 L 540.46484 50.169922 L 538.1543 54.212891 L 413.68555 53.537109 L 351.45898 53.367188 L 289.30078 54.265625 L 285.06055 49.009766 L 282.89453 46.419922 L 280.03125 44.527344 L 275.09375 42.007812 L 269.71289 40.78125 L 258.86523 39.779297 L 252.70117 35.542969 L 246.15039 32.070312 L 239.15625 29.871094 L 231.66016 29.457031 z M 233.37695 32.886719 L 239.16797 33.511719 L 244.80664 35.304688 L 254.58594 40.736328 L 226.07812 41.5 L 211.89062 42.75 L 203.64844 44.177734 L 198.81445 45.414062 C 197.57509 45.634011 196.91747 45.194828 197.38477 44.574219 L 203.10742 41.578125 L 209.06641 38.880859 L 221.39453 34.580078 L 227.34961 33.333984 L 233.37695 32.886719 z M 592.14453 33.443359 L 601.85742 34.697266 L 611.44336 37.347656 L 620.60352 41.138672 L 629.71289 45.773438 C 629.68975 46.16995 629.16609 46.276 628.49805 46.279297 L 621.9707 44.539062 L 612.98633 43.132812 L 596.79102 41.201172 L 570.5918 40.798828 L 574.92969 37.798828 L 581.01367 35.464844 L 586.52539 33.96875 L 592.14453 33.443359 z M 560.41211 43.714844 L 583.66602 44.09375 L 596.30273 44.460938 L 606.91406 45.830078 L 618.39648 47.568359 L 629.70898 50.080078 L 640.79883 53.509766 L 651.60742 58.001953 L 658.26367 61.378906 L 662.70703 64.205078 C 662.50809 64.758896 659.93219 64.290907 659.41797 64.300781 C 659.06789 64.220307 658.7136 64.157654 658.36328 64.078125 L 652.65625 62.322266 L 641.61133 60.277344 L 621.01953 57.205078 L 601.23633 55.539062 L 581.34766 54.714844 L 542.26172 54.158203 L 545.22461 49.734375 L 549.69727 46.441406 L 554.88477 44.394531 L 560.41211 43.714844 z M 268.45508 43.998047 L 273.32812 45.070312 L 277.83789 47.289062 L 281.74414 50.498047 L 284.80859 54.542969 L 254.12109 55.34375 L 223.28711 55.828125 L 207.93945 56.693359 L 192.70508 58.367188 L 177.63477 61.148438 L 162.77539 65.332031 L 161.46094 65.943359 C 161.05771 65.91669 160.7212 65.796951 160.51367 65.525391 C 160.84032 65.111338 161.28134 64.832347 161.64258 64.458984 L 162.56055 63.775391 L 166.39844 61.277344 L 177.2793 55.851562 L 188.56055 51.689453 L 199.45703 48.486328 L 211.87109 46.216797 L 236.12891 44.388672 L 260.29297 44.041016 L 268.45508 43.998047 z M 377.05469 56.6875 L 490.05469 57.402344 L 546.55273 57.751953 L 603.0293 59.150391 L 619.51172 60.541016 L 635.95898 62.615234 L 652.11133 65.990234 L 667.7168 71.283203 L 674.12891 76.095703 L 679.51562 81.779297 L 684.06836 88.15625 L 687.97266 95.042969 L 694.59766 109.63477 L 700.90039 124.11914 L 712.57617 153.8125 L 722.99609 183.93945 L 732.23438 214.44141 L 740.36328 245.26562 L 747.45703 276.35547 L 753.58789 307.65625 L 758.83008 339.11328 L 763.25391 370.67188 L 764.92969 395.08398 L 764.73242 419.63477 L 763.65039 431.82031 L 761.76367 443.86914 L 758.95703 455.72461 L 755.12109 467.32812 L 748.53711 480.25781 L 740.31445 492.26367 L 730.63672 503.1875 L 719.68555 512.86914 L 707.64453 521.1543 L 694.69727 527.88477 L 681.0293 532.90234 L 666.82227 536.04688 L 655.01172 536.68555 L 643.39062 534.6582 L 632.5918 529.94922 L 627.69922 526.58594 L 623.25 522.54688 L 616.74219 515.35352 L 610.98828 507.62695 L 601.09961 491.04102 L 592.28711 473.72656 L 583.25 456.61914 L 568.53906 428.50977 L 560.9082 414.60742 L 552.68555 401.07031 L 548.18945 396.375 L 543.08594 392.55078 L 537.49023 389.54297 L 531.51172 387.29883 L 518.86523 384.87891 L 506.04492 384.85742 L 306.72656 385.39062 L 297.2793 385.96289 L 288.4043 388.95312 L 280.52344 394.05078 L 274.05664 400.94336 L 268.47656 409.6875 L 263.52734 418.81836 L 253.67188 437.12305 L 232.09961 477.07227 L 220.96094 496.83789 L 208.9668 516.04492 L 199.54883 525.49609 L 194.07617 529.3457 L 188.20312 532.5 L 182.00977 534.87695 L 175.57812 536.39453 L 168.98828 536.9707 L 162.31836 536.51758 L 152.63477 535.16211 L 143.13477 532.83594 L 133.87891 529.61328 L 124.92773 525.56641 L 116.33984 520.76953 L 108.17773 515.29492 L 93.363281 502.60547 L 86.423828 494.49219 L 80.355469 485.77734 L 75.142578 476.54297 L 70.767578 466.875 L 67.214844 456.85742 L 64.466797 446.57031 L 61.324219 425.52344 L 60.410156 414.01953 L 60.439453 402.54492 L 62.544922 379.6582 L 69.525391 334.02344 L 80.138672 274.43359 L 86.59375 244.83789 L 93.96875 215.47266 L 102.38086 186.41211 L 111.94922 157.72852 L 122.78711 129.49609 L 135.01367 101.78711 L 139.07617 92.564453 L 144.01367 83.693359 L 150.46875 76.121094 L 154.46484 73.117188 L 159.08008 70.794922 L 171.06445 66.595703 L 183.30078 63.542969 L 195.73633 61.447266 L 208.31641 60.126953 L 233.6875 59.064453 L 258.97656 58.865234 L 318.00781 57.488281 L 377.05469 56.6875 z M 217.02734 91.693359 L 202.2793 93.009766 L 187.97656 96.783203 L 174.44922 102.80078 L 162.02148 110.85547 L 151.02539 120.73633 L 141.78516 132.23438 L 134.63086 145.13672 L 129.88672 159.23438 L 128.1543 167.51562 L 127.26953 175.90039 L 127.92578 192.71484 L 131.62695 209.16797 L 138.14258 224.74414 L 147.24219 238.92773 L 158.69727 251.20508 L 165.23438 256.46875 L 172.27539 261.06055 L 179.78906 264.92188 L 187.74609 267.98242 L 201.45898 271.51953 L 215.52734 272.81055 L 229.63281 271.93359 L 243.45312 268.96484 L 256.66992 263.98047 L 268.96094 257.06055 L 280.00977 248.2793 L 289.49219 237.7168 L 297.41406 225.5918 L 303.14844 212.37305 L 306.70117 198.4082 L 308.07227 184.04297 L 307.26562 169.62891 L 304.2832 155.51172 L 299.12891 142.04102 L 291.80273 129.56445 L 284.99609 121.04688 L 277.17773 113.47656 L 268.49023 106.91797 L 259.07812 101.43945 L 249.08203 97.111328 L 238.64648 93.998047 L 227.91406 92.169922 L 217.02734 91.693359 z M 604.58789 91.716797 L 590.69922 92.947266 L 577.16016 96.326172 L 564.26758 101.69531 L 552.31445 108.90234 L 541.59375 117.78906 L 532.39844 128.20508 L 525.02344 139.99219 L 519.76367 152.99609 L 516.25 167.41016 L 515.25977 182.18555 L 516.6875 196.9375 L 520.42578 211.28516 L 526.37109 224.84766 L 534.41797 237.24219 L 544.45703 248.08789 L 556.38477 257.00195 L 569.20898 263.9082 L 582.95508 268.54883 L 597.26562 270.94531 L 611.78711 271.11523 L 626.16211 269.07617 L 640.03711 264.84961 L 653.05664 258.45312 L 664.86523 249.9043 L 674.55273 240.38672 L 682.54102 229.48633 L 688.75977 217.49219 L 693.14258 204.69727 L 695.62109 191.39453 L 696.13281 177.87695 L 694.60352 164.43359 L 690.97266 151.35938 L 685.73438 139.16797 L 678.66992 127.99805 L 670.00781 118.01562 L 659.98242 109.39258 L 648.82227 102.29297 L 636.75586 96.890625 L 624.01562 93.349609 L 610.83398 91.841797 L 604.58789 91.716797 z M 604.49219 95.162109 L 619.27734 95.988281 L 633.5957 99.478516 L 647.10547 105.37891 L 659.46484 113.43945 L 670.33398 123.4082 L 679.375 135.0332 L 686.24414 148.06641 L 690.60352 162.25391 L 692.55273 175.57812 L 692.36133 189.03711 L 690.11914 202.32422 L 685.91992 215.12695 L 679.84961 227.13477 L 672.00391 238.03906 L 662.46875 247.5293 L 651.33789 255.29297 L 639.0918 261.49414 L 626.00391 265.60352 L 612.41211 267.62891 L 598.65039 267.58398 L 585.05664 265.47656 L 571.9668 261.31641 L 559.7207 255.11328 L 548.65039 246.87891 L 539.57031 237.97656 L 532.02344 227.77539 L 526.08008 216.55078 L 521.81445 204.57031 L 519.29883 192.11133 L 518.60742 179.44336 L 519.81055 166.8418 L 522.98242 154.57617 L 526.85742 144.66406 L 531.95508 135.33398 L 538.16992 126.71094 L 545.39648 118.91797 L 553.52539 112.08008 L 562.45312 106.32227 L 572.07031 101.76953 L 582.26953 98.546875 L 593.3125 96.097656 L 604.49219 95.162109 z M 220.16406 95.164062 L 234.43359 96.541016 L 248.18555 100.39844 L 261.11328 106.49805 L 272.90625 114.60547 L 283.25781 124.48242 L 291.86328 135.88867 L 298.41016 148.58789 L 302.59375 162.34375 L 304.63672 176.46289 L 304.28516 190.72461 L 301.6582 204.76758 L 296.87695 218.23828 L 290.05859 230.77734 L 281.32227 242.03125 L 270.78711 251.63867 L 258.57422 259.24805 L 245.76562 264.75586 L 232.27148 268.10742 L 218.43164 269.31641 L 204.58203 268.39453 L 191.06445 265.35742 L 178.21484 260.2168 L 166.37305 252.98633 L 155.87695 243.67969 L 146.82812 232.8418 L 139.74023 220.68359 L 134.66602 207.54883 L 131.66016 193.78906 L 130.7793 179.74805 L 132.08008 165.77539 L 135.61328 152.2168 L 141.4375 139.42188 L 147.97852 129.49023 L 155.83594 120.64453 L 164.82031 112.97266 L 174.74805 106.55664 L 185.43164 101.48242 L 196.6875 97.835938 L 208.32617 95.701172 L 220.16406 95.164062 z M 215.42969 113.50391 L 212.50586 114.08203 L 210.01758 115.38086 L 206.36328 119.60352 L 204.51367 125.10742 L 204.51953 130.82227 L 204.43359 139.625 L 204.84375 148.50977 L 204.5957 157.27539 L 202.5332 165.71484 L 199.73047 167.6582 L 196.69531 168.77148 L 190.14844 169.32617 L 183.33008 169.00195 L 176.67969 169.42578 L 169.60352 169.01367 L 162.20312 169.07227 L 155.38281 170.83203 L 152.47461 172.73633 L 150.05078 175.5293 L 148.93164 178.33008 L 148.68555 181.24805 L 150.43359 186.79102 L 154.55859 190.85352 L 157.2793 191.91992 L 160.31836 192.12695 L 170.85938 192.68359 L 181.57422 192.25781 L 192.08789 192.71094 L 197.15234 193.84766 L 202.02734 195.90234 L 204.51367 201.86719 L 204.83008 208.29492 L 204.46875 214.90039 L 204.91992 221.39062 L 204.51953 228.33203 L 204.60742 235.61133 L 206.44141 242.25586 L 208.40234 245.0332 L 211.27148 247.28516 L 214.41602 248.29297 L 217.59375 248.29102 L 220.63867 247.41016 L 223.38477 245.78125 L 225.66992 243.53906 L 227.32812 240.8125 L 228.19531 237.73828 L 228.10742 234.44336 L 228.4043 224.98633 L 227.99219 215.45703 L 228.16992 206.04492 L 230.23242 196.93359 L 232.9082 194.69727 L 235.89453 193.32812 L 242.50586 192.39844 L 249.49023 192.57227 L 256.26758 192.27148 L 263.36133 192.66992 L 270.80664 192.63281 L 277.63086 190.85156 L 280.50586 188.89648 L 282.86133 186.01367 L 283.88672 183.0332 L 283.9707 179.99609 L 282.86719 177.18555 C 282.84272 177.11569 282.81297 177.04982 282.78711 176.98047 L 281.76758 174.38281 L 279.99414 172.85156 C 279.99026 172.84816 279.98827 172.84324 279.98438 172.83984 C 279.97502 172.83088 279.96445 172.82532 279.95508 172.81641 L 277.18164 170.42188 L 274.28516 169.44922 L 271.13867 169.35547 L 261.17969 168.85547 L 251.11328 169.32031 L 241.16797 169.14844 L 236.31055 168.32031 L 231.56641 166.73047 L 229.63086 164.0918 L 228.51367 161.20703 L 227.9375 154.93164 L 228.24805 148.36719 L 227.85156 141.98438 L 228.2168 134.72461 L 228.18945 127.11133 L 226.46289 120.07812 L 224.55469 117.07031 L 221.73047 114.55859 L 218.65625 113.62109 L 215.42969 113.50391 z M 217.58008 117.02539 L 220.29883 117.99414 L 222.23828 119.62891 L 224.30469 124.30859 L 224.83789 129.89062 L 224.9043 135.19531 L 224.39062 151.51172 L 224.87109 159.60938 L 227.24023 167.30859 L 230.23828 169.94531 L 233.625 171.58008 L 241.1875 172.73828 L 249.1875 172.55273 L 256.87695 172.80273 L 269.87891 172.53516 L 275.88867 174.11328 L 278.37305 175.91211 L 280.36133 178.60547 L 280.59766 181.18555 L 280.02148 183.51758 L 277.01562 187.22266 L 272.5 189.27539 L 267.62891 189.22461 L 248.65234 188.83008 L 239.23633 189.32812 L 230.24609 191.96875 L 227.46875 195.02539 L 225.71484 198.48828 L 224.42383 206.23828 L 224.79297 222.37305 L 224.74414 233.97461 L 223.50781 239.51758 L 220.24023 244.07031 L 217.68945 244.85352 L 215.20508 244.73828 L 210.88477 242.37695 L 208.18945 238.10156 L 208.02344 233.0332 L 207.98242 223.41406 L 208.41992 213.6582 L 208.07227 204.03516 L 206.25391 197.06641 C 206.14193 196.66151 206.08137 196.25104 205.95508 195.84766 C 205.94724 195.83723 205.93755 195.83071 205.92969 195.82031 L 205.66602 194.81055 L 202.62695 192.24609 L 199.22461 190.54297 L 191.67383 189.03906 L 176.01172 188.86719 L 163.52148 189.16211 L 157.5918 187.79883 L 154.98633 186.30664 L 152.72656 184.10547 L 152.16016 181.58008 L 152.44336 179.18359 L 155.00195 175.13086 L 159.28125 172.67188 L 164.1582 172.52344 L 174.11719 172.45703 L 184.23242 172.91992 L 194.1875 172.46094 L 199.00586 171.42969 L 203.66406 169.62305 L 206.04688 166.54492 L 207.49414 163.16016 L 208.40625 155.76172 L 208.04883 148.00781 L 208.06055 140.48438 L 207.95898 128.72656 L 208.95898 123.04297 L 211.96875 118.27539 L 214.67969 117.23438 L 217.58008 117.02539 z M 411.23047 142.58203 L 404.80859 143.54102 L 398.94531 146.07227 L 393.82422 149.9043 L 389.63281 154.77539 L 386.55273 160.41797 L 384.77344 166.56641 L 384.47656 172.95117 L 385.84961 179.31055 L 388.16211 184.81445 L 391.61133 189.60352 L 395.98047 193.56836 L 401.05469 196.60156 L 406.61719 198.59375 L 412.44922 199.43945 L 418.33398 199.03125 L 424.05664 197.25977 L 429.90039 194.03711 L 434.65234 189.49023 L 438.2207 183.95117 L 440.51367 177.74609 L 441.44531 171.20312 L 440.92383 164.64844 L 438.85938 158.41016 L 435.16211 152.81641 L 430.29102 148.10938 L 424.46094 144.77734 L 417.99805 142.90625 L 411.23047 142.58203 z M 415.08203 146.0918 L 421.17773 147.07031 L 426.57031 149.67578 L 431.10547 153.5918 L 434.63672 158.50391 L 437.01367 164.0957 L 438.08594 170.05273 L 437.70703 176.05664 L 435.72656 181.79102 L 432.20117 187.2207 L 427.36914 191.37891 L 421.625 194.19727 L 415.36328 195.61328 L 408.97656 195.56055 L 402.85742 193.97461 L 397.39844 190.78906 L 392.99609 185.94141 L 390.21875 180.95508 L 388.66016 175.43359 L 388.30273 169.67188 L 389.12695 163.9707 L 391.10938 158.62695 L 394.23047 153.93555 L 398.4707 150.19336 L 403.80859 147.69922 L 409.37109 146.41406 L 415.08203 146.0918 z M 348.65039 168.19336 L 347.82031 168.20312 L 342.70898 168.71094 L 338.10352 170.90625 L 334.8457 174.61328 L 333.76953 179.6582 L 334.70117 185.04102 L 337.86133 189.30078 L 342.5293 191.83008 L 347.97461 192.01562 L 359.20703 191.80859 L 370.3125 191.08789 L 373.54297 188.99609 L 375.66016 185.99219 L 376.70508 182.42383 L 376.7168 178.64648 L 375.73242 175.01172 L 373.79102 171.86914 L 370.93359 169.57227 L 367.19727 168.47266 L 357.94141 168.52734 L 348.65039 168.19336 z M 479.98242 168.32031 L 473.98633 168.64844 L 467.93164 168.39258 L 461.91602 168.33594 L 456.04102 169.25195 L 452.88281 171.18164 L 450.6875 173.99609 L 449.45312 177.37109 L 449.17383 180.98438 L 449.85156 184.50977 L 451.47852 187.62695 L 454.05273 190.00977 L 457.57422 191.33594 L 468.89648 191.80078 L 480.25977 191.94141 L 485.79492 190.91211 L 490.01562 187.42188 L 492.21484 182.41016 L 491.6875 176.81445 L 489.95898 173.3418 L 487.25195 170.57422 L 483.83594 168.80469 L 479.98242 168.32031 z M 479.59961 171.52539 L 482.58984 171.8125 L 485.07812 173.12305 L 486.97852 175.18945 L 488.20898 177.75195 L 488.68359 180.54688 L 488.32031 183.31055 L 487.0332 185.7793 L 484.74219 187.69141 L 481.0957 188.34961 L 477.31445 188.17773 L 473.48438 187.91406 L 469.68945 188.29297 L 464.40039 188.5 L 458.71484 187.80078 L 454.23438 185.34961 L 452.94336 183.20117 L 452.55078 180.29688 L 453.49219 176.15625 L 456.17578 173.23633 L 459.92969 171.77148 L 464.08008 172.00391 L 471.86719 172.01367 L 479.59961 171.52539 z M 358.68359 171.69141 L 365.14062 171.9043 L 371.13281 174.06445 L 372.66992 176.20898 L 373.38281 178.71094 L 372.61133 183.85156 L 371.26953 186.02148 L 369.38477 187.61328 L 367.02539 188.39258 L 364.26172 188.12695 L 351.04688 188.66211 L 344.57812 188.14844 L 338.7793 185.42188 L 337.24219 181.06055 L 338.18164 176.39453 L 341.125 172.83594 L 343.20117 171.91406 L 345.60156 171.80273 L 352.06836 172.09961 L 358.68359 171.69141 z M 486.33203 225.42578 L 482.29688 225.76367 L 478.51367 226.98828 L 472.04883 231.58984 L 467.64453 238.24023 L 466.43555 242.02344 L 466.00391 245.94531 L 460.26758 249.28711 L 455.16406 253.53711 L 450.83594 258.57031 L 447.42383 264.26758 L 441.69531 264.21484 L 436.44531 265.9668 L 431.89453 269.17188 L 428.25781 273.48438 L 425.75586 278.55859 L 424.60742 284.04297 L 425.03125 289.5918 L 427.24414 294.85938 L 430.68164 299.61133 L 435.34766 303.16406 L 440.77148 305.34961 L 446.49219 306.00586 L 450.05664 312.36719 L 454.625 318.05664 L 460.05469 322.91797 L 466.20703 326.78516 L 467.19922 332.22266 L 469.76562 336.99805 L 473.55664 340.93359 L 478.22461 343.8457 L 483.42773 345.55078 L 488.81641 345.86914 L 494.04688 344.61914 L 498.77148 341.61719 L 501.98828 338.41406 L 504.32227 334.53125 L 506.77344 325.9668 L 512.60742 322.16602 L 517.63672 317.36914 L 521.89062 311.83984 L 525.39648 305.83984 L 531.05078 305.0918 L 535.97656 302.66797 L 540.02539 298.92578 L 543.04492 294.21875 L 544.88672 288.90234 L 545.40039 283.33008 L 544.4375 277.85938 L 541.8457 272.8418 L 538.30664 268.91406 L 533.84375 266.10352 L 528.83594 264.38867 L 523.66406 263.75 L 520.35156 258.37695 L 516.13281 253.6543 L 506.57031 245.74609 L 506.22852 241.75391 L 505.06445 237.9375 L 500.67188 231.30859 L 494.16797 226.81836 L 490.36719 225.67578 L 486.33203 225.42578 z M 486.9082 228.85156 L 492.9668 230.0918 L 498.03711 233.5918 L 501.63086 238.66602 L 503.25586 244.62891 L 494.91602 242.3457 L 486.29492 241.26367 L 477.69336 241.76758 L 469.4043 244.24609 L 471.42383 238.20117 L 475.29883 233.20898 L 480.60352 229.88867 L 486.9082 228.85156 z M 327.55859 243.94141 L 318.76758 245.36523 L 310.66016 248.70703 L 303.43555 253.68164 L 297.29102 260.00195 L 292.42773 267.38477 L 289.04297 275.54297 L 287.33594 284.19336 L 287.50586 293.04883 L 288.91406 300.98828 L 291.73633 308.56445 L 295.82031 315.55664 L 301.01758 321.74609 L 307.17578 326.91016 L 314.14648 330.83203 L 321.77734 333.29102 L 329.91797 334.06641 L 338.0332 333.51758 L 345.85352 331.41211 L 353.16211 327.91406 L 359.74023 323.18164 L 365.37109 317.37891 L 369.83594 310.66406 L 372.92188 303.20312 L 374.40625 295.1543 L 374.69531 286.73242 L 373.42578 278.33203 L 370.70508 270.24805 L 366.64453 262.76953 L 361.35547 256.18945 L 354.94531 250.80078 L 347.52539 246.89648 L 339.20898 244.76562 L 327.55859 243.94141 z M 482.78125 244.69336 L 493.18945 245.46094 L 498.22461 246.63672 L 502.94141 248.86914 L 501.84766 253.71094 L 499.23047 257.75 L 495.48438 260.84766 L 491.00391 262.87109 L 486.18359 263.67969 L 481.41406 263.14062 L 477.0918 261.11914 L 473.61133 257.47461 L 471.4707 254.60742 L 470.30859 251.08984 L 470.92188 247.95117 L 472.14062 246.8418 L 474.10156 246.21289 L 482.78125 244.69336 z M 331.13672 247.25586 L 338.34375 247.88281 L 345.23438 249.86328 L 351.64648 253.05078 L 357.41406 257.30273 L 362.37109 262.4707 L 366.35156 268.41211 L 369.18945 274.97852 L 370.7207 282.02734 L 371.32422 289.43945 L 370.57617 296.9082 L 368.55273 304.18945 L 365.33594 311.03125 L 361.00391 317.19141 L 355.63672 322.41797 L 349.31445 326.4668 L 342.11523 329.08789 L 334.22852 330.51562 L 326.30078 330.26367 L 318.5957 328.46289 L 311.36719 325.24609 L 304.87891 320.74805 L 299.38867 315.10352 L 295.1543 308.44336 L 292.4375 300.90039 L 290.89453 292.60156 L 291.07031 284.16211 L 292.85547 275.89453 L 296.13672 268.11523 L 300.80469 261.13867 L 306.74609 255.27539 L 313.84961 250.84375 L 322.00391 248.1543 L 331.13672 247.25586 z M 466.35742 249.58203 L 466.60547 250.61914 L 466.6875 250.95898 L 468.32227 256.61914 L 471.66797 261.09766 L 476.27539 264.33398 L 481.69727 266.25781 L 487.48242 266.80859 L 493.18164 265.91797 L 498.34961 263.52148 L 502.5332 259.55664 L 503.98242 257.38672 L 504.70312 254.6543 L 505.53125 252.14844 L 507.29492 250.66211 L 514.375 256.75977 L 520.00391 264.28125 L 514.75977 266.58398 L 510.52539 270.27344 L 507.40039 274.98047 L 505.48828 280.33203 L 504.89453 285.95898 L 505.7168 291.48828 L 508.0625 296.54883 L 512.0332 300.76953 L 516.71875 303.88086 L 521.11523 306.38086 L 514.81641 315.39258 L 510.85938 319.15039 L 506.59961 322.00586 L 505.33789 316.77539 L 502.62891 312.2207 L 498.79883 308.50586 L 494.16992 305.80078 L 489.06641 304.26562 L 483.8125 304.07031 L 478.73047 305.37891 L 474.14648 308.35547 L 471.07812 311.32227 L 468.65625 314.86133 L 465.81445 322.75391 L 460.9668 319.27539 L 456.57617 315.08984 L 452.89453 310.39258 L 450.16406 305.37891 L 455.89062 302.97266 L 460.30859 298.86719 L 463.34375 293.56641 L 464.91797 287.57617 L 464.96094 281.39844 L 463.39648 275.54102 L 460.14844 270.50781 L 455.14453 266.80078 L 453.30273 265.9082 L 452.16602 264.48828 L 452.05078 262.80469 L 453.27539 261.13086 L 459.12305 254.58008 L 466.35742 249.58203 z M 328.17969 257.30664 L 320.6543 258.62109 L 313.9375 261.88672 L 308.23438 266.73828 L 303.74219 272.80469 L 300.66406 279.71484 L 299.19922 287.10352 L 299.54688 294.60156 L 301.91211 301.83594 L 305.58203 308.20703 L 310.66992 313.37695 L 316.82422 317.25 L 323.6875 319.73438 L 330.9082 320.73047 L 338.13477 320.14648 L 345.01172 317.88477 L 351.1875 313.85156 L 356.1875 308.67969 L 359.77734 302.52734 L 361.94336 295.72656 L 362.66602 288.61328 L 361.92773 281.52344 L 359.71484 274.78711 L 356.00781 268.74023 L 350.79102 263.7168 L 345.69531 260.49023 L 340.10352 258.42773 L 334.20508 257.4082 L 328.17969 257.30664 z M 331.28125 260.64648 L 336.79688 261.10156 L 342.07031 262.71875 L 346.9375 265.35547 L 351.22852 268.87109 L 354.77734 273.12109 L 357.41602 277.96289 L 358.97461 283.25391 L 359.28711 288.84961 L 358.79883 294.39258 L 357.17773 299.73828 L 354.55469 304.69922 L 351.05664 309.0918 L 346.8125 312.73047 L 341.94922 315.42773 L 336.5957 317 L 330.87891 317.25977 L 324.74023 316.64844 L 318.99805 314.59961 L 313.83398 311.33008 L 309.42773 307.06055 L 305.96289 302.00781 L 303.61914 296.39258 L 302.57812 290.42969 L 303.02148 284.3418 L 304.26367 279.42188 L 306.37891 274.8418 L 309.25391 270.70898 L 312.78516 267.13672 L 316.86133 264.23438 L 321.375 262.11133 L 326.2168 260.87891 L 331.28125 260.64648 z M 525.49219 267.52734 L 526.55273 267.63281 L 527.07031 267.68555 L 532.41016 268.99023 L 536.61328 272.05469 L 539.60547 276.39258 L 541.30469 281.51562 L 541.63477 286.94141 L 540.51758 292.18164 L 537.87695 296.75195 L 533.63477 300.16602 L 531.69336 301.43164 L 529.40039 301.74414 L 527.82227 300.84375 L 528.02148 298.4668 L 529.0332 290.66992 L 529 282.80078 L 527.8457 275.0293 L 525.49219 267.52734 z M 443.26758 267.64453 L 444.78125 269.50586 L 444.41406 272.04883 L 443.37109 274.84375 L 442.86719 277.46484 L 442.17578 283.82227 L 442.38867 290.27539 L 444.49414 302.64648 L 439.26367 301.57031 L 434.9043 298.85742 L 431.54492 294.92188 L 429.32422 290.17188 L 428.375 285.02344 L 428.83203 279.88477 L 430.83008 275.16797 L 434.50195 271.28711 L 438.62891 268.80469 L 443.26758 267.64453 z M 449.50391 268.08203 L 454.74805 270.32422 L 458.51367 274.17969 L 460.80273 279.12109 L 461.61328 284.62695 L 460.94531 290.17383 L 458.80078 295.23633 L 455.17969 299.29102 L 450.08203 301.81445 L 448.05273 300.84766 L 447.1582 298.49609 L 446.17383 293.32812 L 445.61523 286.86523 L 445.96289 280.37891 L 447.24805 274.05469 L 449.50391 268.08203 z M 520.84961 268.19336 L 523.15234 271.04297 L 524.24805 274.67188 L 525.56445 282.24609 L 525.45117 292.42969 L 522.95898 302.30078 L 517.79297 300.83203 L 513.64844 297.73438 L 510.62891 293.46094 L 508.8418 288.46094 L 508.39453 283.18555 L 509.39062 278.08789 L 511.93945 273.61523 L 516.14648 270.22266 L 518.3457 268.88086 L 520.84961 268.19336 z M 486.46289 307.51758 L 489.72852 307.71875 L 492.91211 308.71289 L 498.44922 312.57617 L 501.91406 318.12891 L 502.50781 321.23242 L 502.14648 324.38672 L 494.16211 326.92383 L 485.74023 327.8418 L 477.38477 326.95508 L 469.60742 324.07422 L 470.99609 317.74023 L 474.7207 312.41797 L 480.10352 308.78516 L 486.46289 307.51758 z M 502.92383 328.03711 L 502.64258 329.06641 L 502.42773 329.85938 L 500.75586 334.45312 L 497.72656 338.03711 L 493.72461 340.55469 L 489.12695 341.94141 L 484.31836 342.14258 L 479.67578 341.09766 L 475.58594 338.74805 L 472.42578 335.0332 L 471.14062 333.09375 L 471.0332 330.88086 L 472.1543 329.4668 L 474.55469 329.92188 L 481.67383 331.04492 L 488.87891 331.09766 L 496.01562 330.0918 L 502.92383 328.03711 z "
       transform="matrix(0.93750001,0,0,0.93750001,0,520.86614)" />
  </g>
</svg>
