<?xml version="1.0" encoding="UTF-8" standalone="no"?>
<svg
   version="1.1"
   viewBox="0 0 110.40711 31.006355"
   id="svg20"
   sodipodi:docname="system.svg"
   width="110.40711"
   height="31.006355"
   inkscape:version="1.1.2 (0a00cf5339, 2022-02-04)"
   xmlns:inkscape="http://www.inkscape.org/namespaces/inkscape"
   xmlns:sodipodi="http://sodipodi.sourceforge.net/DTD/sodipodi-0.dtd"
   xmlns="http://www.w3.org/2000/svg"
   xmlns:svg="http://www.w3.org/2000/svg">
  <sodipodi:namedview
     id="namedview22"
     pagecolor="#505050"
     bordercolor="#ffffff"
     borderopacity="1"
     inkscape:pageshadow="0"
     inkscape:pageopacity="0"
     inkscape:pagecheckerboard="1"
     showgrid="false"
     fit-margin-top="0"
     fit-margin-left="0"
     fit-margin-right="0"
     fit-margin-bottom="0"
     inkscape:zoom="6.0696721"
     inkscape:cx="54.780554"
     inkscape:cy="7.6610399"
     inkscape:window-width="1920"
     inkscape:window-height="996"
     inkscape:window-x="0"
     inkscape:window-y="0"
     inkscape:window-maximized="1"
     inkscape:current-layer="svg20" />
  <defs
     id="defs12">
    <linearGradient
       id="a"
       x2="39.557472"
       x1="39.557472"
       y2="38.608948"
       gradientTransform="matrix(2.2771424,0,0,0.43914689,-3.6431873,-2.9995003)"
       y1="19.311077"
       gradientUnits="userSpaceOnUse">
      <stop
         stop-color="#F6F6F6"
         offset="0"
         id="stop2" />
      <stop
         stop-color="#989693"
         offset="1"
         id="stop4" />
    </linearGradient>
    <linearGradient
       id="b"
       x2="23.747913"
       x1="23.747913"
       y2="47.234066"
       gradientTransform="matrix(1.4760695,0,0,0.6774749,-3.6431873,-2.9995003)"
       y1="7.3803473"
       gradientUnits="userSpaceOnUse">
      <stop
         stop-color="#EFEFEE"
         offset="0"
         id="stop7" />
      <stop
         stop-color="#84827E"
         offset="1"
         id="stop9" />
    </linearGradient>
  </defs>
  <path
     id="path828"
     style="fill:#000000"
     d="M 52.44422,0.01026534 C 48.215522,0.14262494 44.325973,3.2932531 43.301642,7.3950309 43.082876,8.0647058 43.09108,8.8051147 42.93238,9.4675947 c -1.393218,1.9956203 -2.754989,4.0462593 -4.167848,6.0075143 -0.840611,0.09952 -1.672073,0.31984 -2.433594,0.69336 C 29.246954,13.240083 22.16297,10.311698 15.078985,7.3833122 13.904296,3.9842542 10.141645,1.7622201 6.5988193,2.393378 2.9843896,2.8760904 0.02974791,6.2071514 0.00776001,9.8591421 -0.16410939,13.478046 2.5393108,16.957203 6.0928454,17.676516 c 1.6433988,0.376106 3.4123675,0.186999 4.9392646,-0.527578 7.105469,2.9375 14.210938,5.875 21.316406,8.8125 1.196409,3.370943 4.938597,5.561731 8.462612,4.939309 3.377642,-0.455942 6.198209,-3.384806 6.549107,-6.771341 2.018448,-1.423498 4.019569,-2.896384 6.048828,-4.289062 3.837742,-0.154274 7.421391,-2.765028 8.757813,-6.363282 1.102585,1.074687 2.335875,2.16768 3.931517,2.358357 2.181022,0.434709 4.836989,-0.191185 5.963595,-2.268645 0.756539,-1.399428 0.700268,-3.209669 -0.102143,-4.5779931 0.61909,-0.010106 1.405681,-0.1877121 1.126953,0.7 0,2.0635421 0,4.1270841 0,6.1906251 1.876953,0 3.753906,0 5.630859,0 0,-2.296875 0,-4.59375 0,-6.8906251 0.476101,0.1263734 1.463953,-0.2590049 1.607422,0.2 0,2.2295571 0,4.4591151 0,6.6886721 4.468099,0 8.936198,0 13.404297,0 0.22309,-0.362816 0.302477,-1.481076 0.622901,-1.381523 0.2854,0.415537 0.144979,1.421592 0.75913,1.381523 3.125261,0 6.250523,0 9.375773,0 0.11776,-0.513359 -0.2454,-1.507639 0.2,-1.693359 0.25066,0.373566 -0.10566,1.354105 0.1793,1.693359 1.84688,0 3.69375,0 5.54063,0 0,-4.111979 0,-8.2239585 0,-12.3359377 -1.62305,0 -3.2461,0 -4.86914,0 -0.30125,0.6296446 -0.60244,1.2593179 -0.9043,1.8886719 -0.30223,-0.6301138 -0.60628,-1.2593514 -0.91016,-1.8886719 -1.62239,0 -3.24479,0 -4.867181,0 0,2.3222657 0,4.6445313 0,6.9667967 -0.849638,-2.3222549 -1.698704,-4.6447196 -2.548828,-6.9667967 -1.358073,0 -2.716146,0 -4.074219,0 -0.834904,2.2970139 -1.670593,4.5937425 -2.505859,6.8906247 -0.84045,0.237195 -0.353625,-0.8528849 -0.480469,-1.3292965 0.589073,-0.00637 0.667608,-0.5232777 0.572266,-1.2140625 0,-1.4490886 0,-2.8981771 0,-4.3472657 -6.303386,0 -12.606771,0 -18.910157,0 0.106103,0.6894282 -0.01751,0.922297 -0.609375,0.4570313 -2.254127,-0.9863221 -5.390047,-0.64935 -6.810054,1.5527912 -1.009259,1.5543868 -0.951425,3.7770432 0.224117,5.2284592 -0.300817,0.181785 -1.139384,1.39899 -1.024642,0.78063 C 63.428099,7.5066051 61.306614,3.1590538 57.672735,1.2251091 56.085443,0.34923884 54.254977,-0.07275906 52.44422,0.01026534 Z" />
  <path
     d="m 69.728813,13.2815 c -0.578,0.45 -1.316,0.674 -2.223,0.674 -0.654,0 -1.226,-0.083 -1.715,-0.252 -0.486,-0.167 -0.93,-0.448 -1.328,-0.846 l 1.055,-1.052 c 0.248,0.249 0.542,0.429 0.883,0.538 0.34,0.111 0.716,0.166 1.13,0.166 0.982,0 1.475,-0.347 1.475,-1.035 0,-0.291 -0.075,-0.517 -0.223,-0.678 -0.148,-0.16 -0.406,-0.266 -0.774,-0.322 l -0.469,-0.072 -0.539,-0.068 c -0.712,-0.103 -1.253,-0.332 -1.62,-0.6910003 -0.399,-0.397 -0.598,-0.944 -0.598,-1.637 0,-0.756 0.262,-1.3676 0.784,-1.8296 0.524,-0.465 1.23,-0.696 2.123,-0.696 0.582,0 1.09,0.074 1.519,0.228 0.431,0.153 0.821,0.401 1.17,0.744 l -1.029,1.0176 c -0.236,-0.225 -0.494,-0.377 -0.778,-0.455 -0.285,-0.0776 -0.593,-0.1176 -0.931,-0.1176 -0.414,0 -0.732,0.098 -0.954,0.2976 -0.223,0.199 -0.334,0.449 -0.334,0.753 0,0.218 0.086,0.416 0.257,0.588 0.173,0.175 0.426,0.287 0.762,0.334 l 0.502,0.069 0.482,0.071 c 0.374,0.055 0.687,0.134 0.941,0.235 0.254,0.099 0.471,0.238 0.65,0.41 0.43,0.4050003 0.644,0.9950003 0.644,1.7700003 0,0.789 -0.289,1.406 -0.862,1.856 z m 6.988,-6.2924003 V 13.8795 h -1.63 V 6.9890997 h -2.178 v -1.447 h 5.986 v 1.447 z m 5.607,6.8894003 V 5.5415997 h 5.496 v 1.447 h -3.862 v 1.9669 h 3.289 V 10.4025 h -3.289 v 2.029 h 3.862 v 1.447 z m 13.931,0 -0.49,-1.477 h -2.963 l -0.504,1.477 h -1.697 l 3.033,-8.3369003 h 1.275 l 3.048,8.3369003 z m -1.942,-5.8780003 -1.054,3.0280003 h 2.072 z M 106.76681,13.8785 V 9.0214997 l -1.58,3.1620003 h -1.1 l -1.6,-3.1620003 V 13.8785 h -1.63 V 5.5415997 h 1.61 l 2.17,4.5069003 2.16,-4.5069003 h 1.61 V 13.8785 Z"
     fill="url(#a)"
     id="path16"
     sodipodi:nodetypes="csccccsscccccscsccccscsccccccscccccccccccccccccccccccccccccccccccccccccccccccccc"
     style="fill:url(#a)" />
  <path
     d="m 52.898813,2.0004997 c -4.371,0 -7.926,3.555 -7.926,7.925 0,0.035 0,0.07 0.002,0.1030003 l -5.106,7.404 c -0.827,-0.036 -1.657,0.108 -2.444,0.432 -0.347,0.141 -0.672,0.315 -0.977,0.515 l -23.011,-9.5120003 c -0.387,-1.791 -1.612,-3.372 -3.428,-4.13 -2.9450003,-1.226 -6.3390003,0.172 -7.5670003,3.118 -1.227,2.9440003 0.172,6.3380003 3.117,7.5650003 1.426,0.594 2.998,0.597 4.428,0.01 0.3290003,-0.136 0.6390003,-0.304 0.9350003,-0.491 l 23.062,9.534 c 0.398,1.774 1.618,3.332 3.418,4.081 2.945,1.229 6.34,-0.171 7.566,-3.113 0.318,-0.768 0.467,-1.575 0.445,-2.38 l 7.306,-5.212 c 0.06,0.002 0.12,0.003 0.18,0.003 4.371,0 7.925,-3.557 7.925,-7.9270003 0,-4.37 -3.554,-7.925 -7.925,-7.925 M 6.0678127,14.1995 c -1.712,-0.713 -2.747,-2.376 -2.747,-4.126 0,-0.5720003 0.11,-1.1510003 0.344,-1.7090003 0.945,-2.273 3.564,-3.352 5.835,-2.406 1.0720003,0.446 1.8710003,1.264 2.3250003,2.241 l -2.6410003,-1.092 c -1.674,-0.697 -3.598,0.095 -4.297,1.77 -0.697,1.6760003 0.096,3.6020003 1.77,4.2990003 l 2.649,1.094 c -1.055,0.385 -2.197,0.365 -3.238,-0.071 m 37.6810003,10.731 c -0.949,2.272 -3.565,3.351 -5.839,2.405 -1.049,-0.437 -1.841,-1.236 -2.298,-2.189 l 2.58,1.068 c 1.677,0.698 3.601,-0.096 4.298,-1.77 0.699,-1.675 -0.094,-3.599 -1.77,-4.297 l -2.667,-1.103 c 1.029,-0.39 2.199,-0.404 3.292,0.05 1.102,0.458 1.957,1.319 2.41,2.421 0.454,1.102 0.452,2.317 -0.006,3.415 m 9.15,-9.723 c -2.911,0 -5.28,-2.37 -5.28,-5.2820003 0,-2.91 2.369,-5.28 5.28,-5.28 2.911,0 5.281,2.37 5.281,5.28 0,2.9120003 -2.37,5.2820003 -5.281,5.2820003 m 0.008,-1.324 c -2.189,0 -3.965,-1.775 -3.965,-3.9660003 0,-2.191 1.776,-3.968 3.965,-3.968 2.191,0 3.968,1.777 3.968,3.968 0,2.1910003 -1.777,3.9660003 -3.968,3.9660003"
     fill="url(#b)"
     id="path18"
     style="fill:url(#b)" />
</svg>
