<?xml version="1.0" encoding="UTF-8" standalone="no"?>
<svg
   version="1.1"
   viewBox="0 0 106.40986 26.999895"
   id="svg20"
   sodipodi:docname="steam.svg"
   width="106.40986"
   height="26.999895"
   inkscape:version="1.1.2 (0a00cf5339, 2022-02-04)"
   xmlns:inkscape="http://www.inkscape.org/namespaces/inkscape"
   xmlns:sodipodi="http://sodipodi.sourceforge.net/DTD/sodipodi-0.dtd"
   xmlns="http://www.w3.org/2000/svg"
   xmlns:svg="http://www.w3.org/2000/svg">
  <sodipodi:namedview
     id="namedview22"
     pagecolor="#505050"
     bordercolor="#ffffff"
     borderopacity="1"
     inkscape:pageshadow="0"
     inkscape:pageopacity="0"
     inkscape:pagecheckerboard="1"
     showgrid="false"
     fit-margin-top="0"
     fit-margin-left="0"
     fit-margin-right="0"
     fit-margin-bottom="0"
     inkscape:zoom="6.0696721"
     inkscape:cx="52.803511"
     inkscape:cy="5.6016205"
     inkscape:window-width="1920"
     inkscape:window-height="995"
     inkscape:window-x="1920"
     inkscape:window-y="0"
     inkscape:window-maximized="1"
     inkscape:current-layer="svg20" />
  <defs
     id="defs12">
    <linearGradient
       id="a"
       x2="39.557474"
       x1="39.557474"
       y2="38.608949"
       gradientTransform="matrix(2.2771424,0,0,0.43914689,-5.6401411,-5)"
       y1="19.311078"
       gradientUnits="userSpaceOnUse">
      <stop
         stop-color="#F6F6F6"
         offset="0"
         id="stop2" />
      <stop
         stop-color="#989693"
         offset="1"
         id="stop4" />
    </linearGradient>
    <linearGradient
       id="b"
       x2="23.747914"
       x1="23.747914"
       y2="47.234067"
       gradientTransform="matrix(1.4760695,0,0,0.6774749,-5.6401411,-5)"
       y1="7.3803473"
       gradientUnits="userSpaceOnUse">
      <stop
         stop-color="#EFEFEE"
         offset="0"
         id="stop7" />
      <stop
         stop-color="#84827E"
         offset="1"
         id="stop9" />
    </linearGradient>
  </defs>
  <path
     d="m 67.731859,11.281 c -0.578,0.45 -1.316,0.674 -2.223,0.674 -0.654,0 -1.226,-0.083 -1.715,-0.252 -0.486,-0.167 -0.93,-0.448 -1.328,-0.846 l 1.055,-1.052 c 0.248,0.249 0.542,0.429 0.883,0.538 0.34,0.111 0.716,0.166 1.13,0.166 0.982,0 1.475,-0.347 1.475,-1.035 0,-0.291 -0.075,-0.517 -0.223,-0.678 -0.148,-0.16 -0.406,-0.266 -0.774,-0.322 l -0.469,-0.072 -0.539,-0.068 c -0.712,-0.103 -1.253,-0.332 -1.62,-0.691 -0.399,-0.397 -0.598,-0.944 -0.598,-1.637 0,-0.756 0.262,-1.3676 0.784,-1.8296 0.524,-0.465 1.23,-0.696 2.123,-0.696 0.582,0 1.09,0.074 1.519,0.228 0.431,0.153 0.821,0.401 1.17,0.744 l -1.029,1.0176 c -0.236,-0.225 -0.494,-0.377 -0.778,-0.455 -0.285,-0.0776 -0.593,-0.1176 -0.931,-0.1176 -0.414,0 -0.732,0.098 -0.954,0.2976 -0.223,0.199 -0.334,0.449 -0.334,0.753 0,0.218 0.086,0.416 0.257,0.588 0.173,0.175 0.426,0.287 0.762,0.334 l 0.502,0.069 0.482,0.071 c 0.374,0.055 0.687,0.134 0.941,0.235 0.254,0.099 0.471,0.238 0.65,0.41 0.43,0.405 0.644,0.995 0.644,1.77 0,0.789 -0.289,1.406 -0.862,1.856 z m 6.988,-6.2924 v 6.8904 h -1.63 V 4.9886 h -2.178 v -1.447 h 5.986 v 1.447 z m 5.607,6.8894 V 3.5411 h 5.496 v 1.447 h -3.862 V 6.955 h 3.289 v 1.447 h -3.289 v 2.029 h 3.862 v 1.447 z m 13.931,0 -0.49,-1.477 h -2.963 l -0.504,1.477 h -1.697 l 3.033,-8.3369 h 1.275 l 3.048,8.3369 z m -1.942,-5.878 -1.054,3.028 h 2.072 z m 12.454001,5.878 V 7.021 l -1.58,3.162 h -1.1 l -1.6,-3.162 v 4.857 H 98.859859 V 3.5411 h 1.610001 l 2.17,4.5069 2.16,-4.5069 h 1.61 v 8.3369 z"
     fill="url(#a)"
     id="path16"
     sodipodi:nodetypes="csccccsscccccscsccccscsccccccscccccccccccccccccccccccccccccccccccccccccccccccccc"
     style="fill:url(#a)" />
  <path
     d="m 50.901859,0 c -4.371,0 -7.926,3.555 -7.926,7.925 0,0.035 0,0.07 0.002,0.103 l -5.106,7.404 c -0.827,-0.036 -1.657,0.108 -2.444,0.432 -0.347,0.141 -0.672,0.315 -0.977,0.515 l -23.011,-9.512 c -0.387,-1.791 -1.6120001,-3.372 -3.4280001,-4.13 -2.945,-1.226 -6.339,0.172 -7.56700001,3.118 -1.227,2.944 0.172,6.338 3.11700001,7.565 1.426,0.594 2.998,0.597 4.428,0.01 0.329,-0.136 0.639,-0.304 0.935,-0.491 l 23.0620001,9.534 c 0.398,1.774 1.618,3.332 3.418,4.081 2.945,1.229 6.34,-0.171 7.566,-3.113 0.318,-0.768 0.467,-1.575 0.445,-2.38 l 7.306,-5.212 c 0.06,0.002 0.12,0.003 0.18,0.003 4.371,0 7.925,-3.557 7.925,-7.927 0,-4.37 -3.554,-7.925 -7.925,-7.925 M 4.0708589,12.199 c -1.712,-0.713 -2.747,-2.376 -2.747,-4.126 0,-0.572 0.11,-1.151 0.344,-1.709 0.945,-2.273 3.564,-3.352 5.835,-2.406 1.072,0.446 1.871,1.264 2.325,2.241 l -2.641,-1.092 c -1.674,-0.697 -3.598,0.095 -4.297,1.77 -0.697,1.676 0.096,3.602 1.77,4.299 l 2.649,1.094 c -1.055,0.385 -2.197,0.365 -3.238,-0.071 M 41.751859,22.93 c -0.949,2.272 -3.565,3.351 -5.839,2.405 -1.049,-0.437 -1.841,-1.236 -2.298,-2.189 l 2.58,1.068 c 1.677,0.698 3.601,-0.096 4.298,-1.77 0.699,-1.675 -0.094,-3.599 -1.77,-4.297 l -2.667,-1.103 c 1.029,-0.39 2.199,-0.404 3.292,0.05 1.102,0.458 1.957,1.319 2.41,2.421 0.454,1.102 0.452,2.317 -0.006,3.415 m 9.15,-9.723 c -2.911,0 -5.28,-2.37 -5.28,-5.282 0,-2.91 2.369,-5.28 5.28,-5.28 2.911,0 5.281,2.37 5.281,5.28 0,2.912 -2.37,5.282 -5.281,5.282 m 0.008,-1.324 c -2.189,0 -3.965,-1.775 -3.965,-3.966 0,-2.191 1.776,-3.968 3.965,-3.968 2.191,0 3.968,1.777 3.968,3.968 0,2.191 -1.777,3.966 -3.968,3.966"
     fill="url(#b)"
     id="path18"
     style="fill:url(#b)" />
</svg>
