<?xml version="1.0" encoding="UTF-8" standalone="no"?>
<!-- Generator: Adobe Illustrator 13.0.0, SVG Export Plug-In . SVG Version: 6.00 Build 14948)  -->

<svg
   version="1.2"
   id="Layer_3"
   x="0px"
   y="0px"
   width="241.70177"
   height="328.20203"
   viewBox="0 0 241.70176 328.20202"
   xml:space="preserve"
   sodipodi:docname="controller.svg"
   inkscape:version="1.1.2 (0a00cf5339, 2022-02-04)"
   xmlns:inkscape="http://www.inkscape.org/namespaces/inkscape"
   xmlns:sodipodi="http://sodipodi.sourceforge.net/DTD/sodipodi-0.dtd"
   xmlns="http://www.w3.org/2000/svg"
   xmlns:svg="http://www.w3.org/2000/svg"
   xmlns:rdf="http://www.w3.org/1999/02/22-rdf-syntax-ns#"
   xmlns:cc="http://creativecommons.org/ns#"
   xmlns:dc="http://purl.org/dc/elements/1.1/"
   xmlns:ns="&amp;#38;ns_sfw;"><defs
   id="defs20" /><sodipodi:namedview
   id="namedview18"
   pagecolor="#ffffff"
   bordercolor="#666666"
   borderopacity="1.0"
   inkscape:pageshadow="2"
   inkscape:pageopacity="0.0"
   inkscape:pagecheckerboard="0"
   showgrid="false"
   inkscape:zoom="1.451521"
   inkscape:cx="80.260637"
   inkscape:cy="234.58152"
   inkscape:window-width="1920"
   inkscape:window-height="996"
   inkscape:window-x="0"
   inkscape:window-y="0"
   inkscape:window-maximized="1"
   inkscape:current-layer="Layer_3"
   fit-margin-top="0"
   fit-margin-left="0"
   fit-margin-right="0"
   fit-margin-bottom="0" />
<metadata
   id="metadata55">
	<rdf:RDF>
		<cc:Work
   rdf:about="">
			<dc:format>image/svg+xml</dc:format>
			<dc:type
   rdf:resource="http://purl.org/dc/dcmitype/StillImage" />
			
		</cc:Work>
	</rdf:RDF>
	<ns:sfw>
		<ns:slices />
		<ns:sliceSourceBounds
   x="842.027"
   y="-7652"
   width="233.659"
   height="16383"
   bottomLeftOrigin="true" />
	</ns:sfw>
</metadata>
<path
   id="path928"
   d="m 15.768857,0 c -2.18089,0.0096 -4.40906,0.09972 -6.4566201,0.935931 -4.9434,1.810783 -8.72684997,6.527872 -9.19444997,11.801525 -0.23014,3.151027 -0.0413,6.31586 -0.10089,9.4727 0.003,83.111664 -0.007,166.223624 0.0115,249.335094 0.0649,4.14092 2.11720997,8.17858 5.36150997,10.73795 0.0159,12.79085 -0.0415,25.58376 0.0359,38.37331 0.28243,4.24583 4.32375,7.78374 8.5672101,7.53296 71.49964,-5e-4 142.999743,0.0145 214.499103,-0.0144 4.28934,-0.13208 8.04007,-4.11704 7.8223,-8.42112 0.0233,-12.49478 0.0123,-24.98958 0.013,-37.48437 3.61764,-2.84533 5.63291,-7.51639 5.34766,-12.09727 -0.004,-85.49004 0.009,-170.980345 -0.0135,-256.47022 C 241.498,7.719606 237.10957,2.147244 231.33043,0.586241 c -3.19397,-0.889873 -6.53969,-0.424124 -9.80693,-0.541279 -68.3707,0 -136.741403,0 -205.112113,0 -0.21219,-0.03306 -0.42832,-0.04021 -0.64257,-0.04492 z m 6.73633,9.472656 c 68.40691,0.01161 136.814283,-0.0035 205.220943,0.0075 2.50066,0.112841 4.69171,2.456154 4.49585,4.982778 -1.66464,-2.23224 -4.47904,-3.50312 -7.25508,-3.289078 -70.99179,-0.0013 -141.983593,-0.0027 -212.975393,-0.0039 0.0161,0.535796 0.1994,1.12505 -0.42578,1.339844 -0.81773,0.508415 -1.53111,1.18116 -2.1074201,1.951171 -0.18585,-2.732614 2.4033601,-5.265508 5.1402001,-4.958449 2.63552,-0.02948 5.27103,-0.03148 7.90668,-0.02983 z m 201.990233,11.13086 c 0.001,83.681644 -8.3e-4,167.363274 -0.006,251.044914 -69.09766,0.003 -138.195313,9.7e-4 -207.292973,-0.008 -0.003,-83.67904 -10e-4,-167.35807 0.004,-251.037114 69.0983,0 138.196613,0 207.294923,0 z m -56.08203,7.875 c -46.83591,0.0059 -93.672063,-0.0091 -140.507813,0.0098 -4.28094,0.17327 -8.0079,4.150195 -7.79136,8.451172 -0.0237,46.143209 -0.0218,92.286532 3.4e-4,138.429682 0.098,4.34238 4.1498,8.1093 8.4875,7.89845 61.72439,-4.5e-4 123.449223,0.0144 185.173333,-0.0144 4.33548,-0.13285 8.06096,-4.21716 7.80604,-8.54816 0.004,-46.13799 0.0213,-92.276214 -0.002,-138.414049 -0.16361,-4.275364 -4.1234,-8.023552 -8.42617,-7.795956 -14.91326,-0.03372 -29.82656,-0.01258 -44.73984,-0.01654 z M 29.548147,37.912109 c 3.06402,0.0039 6.20428,-0.0078 9.22071,0.0059 -3.87311,1.835323 -7.18138,4.883413 -9.22852,8.658203 0.005,-2.88606 -0.007,-5.787772 0.008,-8.664063 z m 182.609383,0 c 0,2.884766 0,5.769532 0,8.654297 -2.01919,-3.769048 -5.27882,-6.842988 -9.15039,-8.654297 3.05013,0 6.10026,0 9.15039,0 z m -90.20313,3.69336 c 22.69708,-0.03027 45.26027,1.053545 67.83578,3.2915 2.32429,0.293129 4.78208,0.37688 7.12093,0.836933 4.52822,1.012163 8.19368,5.296784 8.1528,9.994183 0.0543,3.28962 -0.009,6.581234 0.0196,9.871915 -0.004,30.333115 0.0167,60.66694 -0.0275,90.9996 -0.29753,4.65805 -4.10196,8.75943 -8.6892,9.52332 -4.01994,0.53557 -8.0695,0.8536 -12.10648,1.24818 -12.44938,1.12974 -24.84617,1.91072 -37.34403,2.34552 -16.46557,0.57561 -33.09126,0.53962 -49.568653,-0.0491 -8.29197,-0.29047 -16.59865,-0.72634 -24.80441,-1.27361 -8.35008,-0.55304 -16.67884,-1.22922 -24.97801,-2.00675 -2.74295,-0.0764 -5.47495,-1.04813 -7.50641,-2.9219 -2.27103,-1.97608 -3.53036,-4.97056 -3.45799,-7.97064 0.0185,-33.36386 -0.0149,-66.729985 0.0234,-100.09453 0.15358,-4.788799 4.10041,-8.989883 8.77165,-9.77507 2.62897,-0.405461 5.2943,-0.502283 7.93755,-0.792244 14.35906,-1.265323 28.72065,-2.1962 43.152,-2.729006 8.449393,-0.311128 16.976843,-0.47787 25.469043,-0.498281 z M 29.632137,165.29101 c 2.04583,3.72404 5.3051,6.74506 9.15234,8.54102 -3.08333,-0.001 -6.16666,-0.003 -9.25,-0.004 0,-2.9069 0,-5.81379 0,-8.7207 0.0326,0.0612 0.0651,0.12239 0.0977,0.1836 z m 182.519533,8.54492 c -3.05859,0 -6.11719,0 -9.17578,0 3.8592,-1.82283 7.14175,-4.87446 9.17578,-8.63281 0,2.8776 0,5.75521 0,8.63281 z m -34.15625,31.98242 c -1.9857,1.03168 -3.53792,2.85638 -4.25586,4.97461 -19.44181,0.007 -38.88559,-0.0218 -58.32616,0.0285 -3.71939,0.20793 -6.8089,3.78673 -6.53255,7.49184 0.0647,2.56844 -0.15798,5.15786 0.15442,7.71155 0.65575,3.41364 4.11094,5.95362 7.56054,5.64118 18.9724,0 37.94479,0 56.91719,0 0.86183,3.87713 4.6406,6.94843 8.65208,6.73763 8.20643,0.0541 16.41376,0.0111 24.62057,0.0271 3.19675,-0.0256 6.4003,0.0449 9.59258,-0.0791 4.27504,-0.5145 7.7563,-4.61128 7.5213,-8.92149 -0.0317,-5.66655 0.0783,-11.33907 -0.0659,-17.00179 -0.47885,-4.31336 -4.60671,-7.84015 -8.94959,-7.58665 -12.29622,-0.005 -24.59245,-0.007 -36.88867,-0.006 0,0.32748 0,0.65495 0,0.98242 z m 36.47266,8.45313 c -10e-4,0.79415 0.003,1.61026 -0.002,2.39062 -0.55105,-1.04262 -1.46011,-1.87955 -2.51953,-2.39062 0.8405,0 1.68099,0 2.52149,0 z m -8.80665,8.89258 c 0,1.20638 0,2.41276 0,3.61914 -5.24348,0 -10.48697,0 -15.73046,0 0.0292,-1.20838 0.0214,-2.42717 -0.19532,-3.61914 5.3086,0 10.61719,0 15.92578,0 z m -167.685543,3.42187 c -4.71747,0.0661 -9.43999,-0.0419 -14.15625,0.0566 -3.10544,0.35093 -5.49897,3.46022 -5.15016,6.54571 0.0377,4.55643 -0.0831,9.1212 0.0741,13.67219 0.39521,3.03913 3.47421,5.32396 6.49281,4.985 4.58962,-0.0379 9.18763,0.0834 13.7718,-0.0741 3.04072,-0.39354 5.32759,-3.47273 4.98891,-6.49282 -0.0376,-4.55253 0.083,-9.11339 -0.0741,-13.66047 -0.37287,-2.84762 -3.09443,-5.0968 -5.94711,-5.03211 z m 176.621093,2.9668 c 0.75708,0.87942 -0.37585,-0.0603 0,0 z m -180.031253,6.48633 c 0,2.125 0,4.25 0,6.375 -2.15495,0 -4.30989,0 -6.46484,0 0,-2.125 0,-4.25 0,-6.375 2.15495,0 4.30989,0 6.46484,0 z m 192.330083,82.72071 c -5.65365,0 -11.30729,0 -16.96094,0 3.17149,-1.04668 5.37851,-4.37055 5.09591,-7.70273 -0.0212,-5.10928 0.0603,-10.22433 -0.0566,-15.32995 -0.38666,-3.78196 -4.04001,-6.85372 -7.83303,-6.5884 -10.83031,0.0138 -21.66208,-0.025 -32.49148,0.0216 -3.8642,0.25522 -7.10264,3.92327 -6.86531,7.79206 0.0212,5.20837 -0.0605,10.4225 0.0566,15.62721 0.3012,2.80928 2.39746,5.27936 5.05295,6.18021 -52.69011,9.9e-4 -105.380213,-0.003 -158.070323,-0.006 0,-11.097 0,-22.19401 0,-33.29101 0.85813,0.007 1.71613,-0.018 2.57422,-0.0117 4.12542,4.87922 10.99074,7.23996 17.24067,5.87254 3.84863,-0.78922 7.40698,-2.89348 9.97027,-5.86864 60.762373,10e-4 121.524743,-10e-4 182.287113,-0.008 0,11.10418 0,22.20833 0,33.3125 z m -37.75,-20.1875 c 0.0686,3.71293 -0.0376,7.42881 0.0488,11.14258 -3.99153,-0.004 -7.98314,0.016 -11.97461,-0.0117 -0.004,-3.71028 -0.017,-7.42061 0.006,-11.13085 3.97331,0 7.94661,0 11.91992,0 z m 12.24219,3.04687 c 0,1.24349 0,2.48697 0,3.73046 -0.93034,0 -1.86068,0 -2.79102,0 0,-1.24349 0,-2.48697 0,-3.73046 0.93034,0 1.86068,0 2.79102,0 z" /><path
   id="path3"
   d="m 14.272757,4.042969 c -5.6580001,0 -10.2558601,4.595906 -10.2558601,10.253906 V 271.20117 c 0,3.88019 2.18929,7.21953 5.37305,8.96093 v 39.75392 c 0,2.36399 1.9377801,4.27539 4.3007801,4.27539 H 228.02862 c 2.364,0 4.29883,-1.91139 4.29883,-4.27539 v -39.76563 c 3.17105,-1.7452 5.34766,-5.07875 5.34766,-8.94922 V 14.304687 c 0,-5.663 -4.59096,-10.259765 -10.25196,-10.259765 H 14.272757 Z m 0,1.433594 H 227.4212 c 4.884,0 8.82031,3.936312 8.82031,8.820312 V 271.19531 c 0,4.885 -3.93831,8.82031 -8.82031,8.82031 H 14.272757 c -4.8820001,0.007 -8.8203101,-3.93349 -8.8203101,-8.8125 V 14.298828 c 0,-4.883 3.93831,-8.821265 8.8203101,-8.822265 z m 1.79102,9.693359 v 0.002 c -2.364,0 -4.30078,1.934828 -4.30078,4.298828 v 253.3144 c 0,2.365 1.93678,4.29883 4.30078,4.29883 H 225.63019 c 2.362,0 4.29882,-1.93383 4.29882,-4.29883 V 19.46875 c 0,-2.364 -1.93687,-4.298828 -4.29882,-4.298828 z m 0,1.433594 H 225.63019 c 1.58999,0 2.86523,1.275234 2.86523,2.865234 v 253.3164 c 0,1.591 -1.27523,2.86328 -2.86523,2.86328 H 16.063777 c -1.589,0 -2.86719,-1.27228 -2.86719,-2.86328 V 19.46875 c 0,-1.589 1.27819,-2.865234 2.86719,-2.865234 z m 12.33594,15.875 c -2.364,0 -4.29883,1.935828 -4.29883,4.298828 V 174.96875 c 0,2.364 1.93583,4.30078 4.29883,4.30078 H 213.31378 c 2.363,0 4.27539,-1.93681 4.27539,-4.30078 V 36.777344 c 0,-2.363 -1.91139,-4.298828 -4.27539,-4.298828 z m 0,1.433593 H 213.31378 c 1.589,0 2.84375,1.275235 2.84375,2.865235 V 174.96875 c 0,1.59 -1.25475,2.86718 -2.84375,2.86718 H 28.399717 c -1.59,0 -2.86524,-1.27719 -2.86524,-2.86718 V 36.777344 c 0,-1.589 1.27624,-2.865235 2.86524,-2.865235 z m 93.542973,2.259766 c -24.740013,0.04 -49.859403,1.376531 -76.275403,3.894531 h -0.0234 c -8.093,0.952 -14.46289,7.604516 -14.46289,15.853516 v 99.882808 c 0,8.25 6.37089,14.921 14.46289,15.875 h 0.0234 c 52.839,5.037 100.426543,5.354 150.394543,0 8.11,-0.869 14.46484,-7.626 14.46484,-15.875 V 55.919922 c 0,-8.248 -6.35484,-14.983516 -14.46484,-15.853516 -24.983,-2.677 -49.36333,-3.934531 -74.11133,-3.894531 z m 0,1.433594 c 24.69499,-0.04 49.02017,1.224484 73.95117,3.896484 7.413,0.794 13.18945,6.905969 13.18945,14.417969 v 99.882808 c 0,7.514 -5.77645,13.64741 -13.18945,14.44141 -49.855,5.345 -97.323173,5.026 -150.076173,0 -0.007,-10e-4 -0.0174,0 -0.0234,0 -7.402,-0.881 -13.1875,-6.93641 -13.1875,-14.44141 V 55.919922 c 0,-7.505 5.7845,-13.536969 13.1875,-14.417969 h 0.0234 c 26.37299,-2.514 51.436,-3.856484 76.125003,-3.896484 z m 60.05273,171.230461 v 0.002 c -2.582,0 -4.70117,2.11812 -4.70117,4.70312 v 0.64844 c 0,0.22399 -0.0493,0.37531 -0.11133,0.44531 -0.062,0.073 -0.15755,0.1582 -0.56055,0.1582 h -60.63086 c -1.705,0 -3.11139,1.40929 -3.11132,3.11329 v 6.64843 c 0,1.70599 1.40732,3.11133 3.11132,3.11133 h 60.63086 c 0.451,0 0.54799,0.0703 0.58399,0.11328 0.033,0.041 0.0879,0.229 0.0879,0.625 v 1.32031 c 0,2.583 2.11917,4.70313 4.70117,4.70313 h 33.20508 c 2.582,0 4.70117,-2.12013 4.70117,-4.70313 v -16.18554 c 0,-2.585 -2.11717,-4.70313 -4.70117,-4.70313 z m 0,1.43556 h 33.20508 c 1.81,0 3.26758,1.46147 3.26758,3.27147 v 16.18556 c 0,1.81 -1.45758,3.26953 -3.26758,3.26953 h -33.20508 c -1.81,0 -3.26953,-1.45953 -3.26953,-3.26953 v -1.32032 c 0,-0.531 -0.0448,-1.06748 -0.42578,-1.52149 -0.379,-0.45599 -1.00174,-0.65038 -1.67774,-0.65038 h -60.63086 c -0.93,0 -1.67968,-0.74768 -1.67968,-1.67968 v -6.64844 c 0,-0.931 0.74968,-1.67969 1.67968,-1.67969 h 60.63086 c 0.691,0 1.29525,-0.22544 1.65625,-0.64844 0.36,-0.424 0.44727,-0.94967 0.44727,-1.38867 v -0.64844 c 0.001,-1.812 1.46053,-3.27148 3.26953,-3.27148 z m -59.1582,7.45897 c -0.827,0 -1.5,0.67401 -1.5,1.5 v 3.71875 c 0,0.825 0.673,1.49806 1.5,1.49806 h 61.36914 c 0.245,0 0.25609,0.0579 0.24609,0.0469 -0.009,-0.013 0.0449,0.0565 0.0449,0.3125 v 5.88867 c 0,0.825 0.675,1.52148 1.5,1.52148 h 23.59961 c 0.825,0 1.5,-0.69548 1.5,-1.52148 v -11.46485 c 0,-0.826 -0.675,-1.5 -1.5,-1.5 h -86.75781 z m -0.002,1.43361 h 0.002 86.75781 c 0.052,0 0.0665,0.0154 0.0664,0.0664 v 11.46486 c 0,0.052 -0.0154,0.0879 -0.0664,0.0879 h -23.60156 c -0.051,0 -0.0664,-0.0349 -0.0664,-0.0879 v -5.88867 c 0,-0.439 -0.0763,-0.9094 -0.40234,-1.27539 -0.323,-0.368 -0.83632,-0.51758 -1.32032,-0.51758 h -61.36914 c -0.051,0 -0.0684,-0.0155 -0.0684,-0.0645 v -3.71875 c 0,-0.052 0.0174,-0.0664 0.0684,-0.0664 z m 92.56446,5.15038 c -1.018,0 -1.85938,0.81799 -1.85938,1.83398 0,1.019 0.84238,1.86134 1.85938,1.86134 1.017,0 1.85742,-0.84334 1.85742,-1.86134 0,-1.01599 -0.83942,-1.83398 -1.85742,-1.83398 z m -190.828133,6.28907 c -1.046,0 -1.90234,0.88174 -1.90234,1.92774 v 13.41209 c 0,1.044 0.85634,1.90235 1.90234,1.90235 h 13.52344 c 1.047,0 1.90234,-0.85834 1.90234,-1.90235 v -13.4121 c 0,-1.046 -0.85634,-1.92774 -1.90234,-1.92774 z m 0,1.43555 h 13.52344 c 0.271,0 0.4707,0.22019 0.4707,0.49219 v 13.41209 c 0,0.27 -0.1997,0.47071 -0.4707,0.47071 h -13.52344 c -0.271,0 -0.4707,-0.20071 -0.4707,-0.47071 v -13.4121 c 0,-0.273 0.1997,-0.49219 0.4707,-0.49218 z M 230.89581,280.8086 v 39.10742 c 0,1.589 -1.27623,2.84375 -2.86523,2.84375 H 13.690727 c -1.59,0 -2.86719,-1.25475 -2.86719,-2.84375 v -39.09961 c 1.0831,0.38965 2.23316,0.63867 3.44922,0.63867 h 5.11133 c 2.49454,3.76499 6.7629,6.24414 11.61328,6.24414 4.84705,0 9.13924,-2.48325 11.63672,-6.24414 H 227.4212 c 1.22534,0 2.3849,-0.25135 3.47461,-0.64648 z m -209.730473,0.64648 h 4.52344 c 1.50855,1.0445 3.33361,1.65625 5.30859,1.65625 1.97241,0 3.80826,-0.61248 5.31836,-1.65625 h 4.55274 c -2.29119,2.92682 -5.86096,4.8086 -9.86914,4.8086 -4.00233,0 -7.54609,-1.88703 -9.83399,-4.8086 z m 154.111333,11.6836 c -1.927,0 -3.49219,1.59161 -3.49219,3.51562 v 15.00196 c 0,1.92399 1.56519,3.49218 3.49219,3.49218 h 32.26367 c 1.925,0 3.49024,-1.56818 3.49024,-3.49218 V 296.6543 c 0,-1.924 -1.56524,-3.51562 -3.49024,-3.51562 z m 0,1.43359 h 32.26367 c 1.15,0 2.05859,0.93203 2.05859,2.08202 v 15.00196 c 0,1.14999 -0.90759,2.05859 -2.05859,2.05859 h -32.26367 c -1.15,0 -2.06055,-0.90761 -2.06055,-2.05859 v -15.00196 c 0,-1.14999 0.90955,-2.08202 2.06055,-2.08202 z m 19.38672,1.61133 c -0.826,0 -1.5,0.67399 -1.5,1.5 v 11.5996 c 0,0.828 0.674,1.5 1.5,1.5 h 10.63476 c 0.827,0 1.52344,-0.672 1.52344,-1.5 v -11.5996 c 0,-0.82601 -0.69844,-1.5 -1.52344,-1.5 z m 0,1.43554 h 10.63476 c 0.054,0 0.0899,0.0145 0.0899,0.0645 v 11.5996 c 0,0.052 -0.0378,0.0664 -0.0899,0.0664 h -10.63476 c -0.052,0 -0.0664,-0.0154 -0.0664,-0.0664 v -11.5996 c -0.001,-0.051 0.0144,-0.0645 0.0664,-0.0645 z"
   style="fill:#ffffff" />













</svg>
