<?xml version="1.0" encoding="UTF-8" standalone="no"?>
<!-- Generator: Adobe Illustrator 13.0.0, SVG Export Plug-In . SVG Version: 6.00 Build 14948)  -->

<svg
   version="1.2"
   id="Layer_1"
   x="0px"
   y="0px"
   width="1249.503px"
   height="547.747px"
   viewBox="0 0 1249.503 547.747"
   xml:space="preserve"
   sodipodi:docname="system_color.svg"
   inkscape:version="1.1.2 (0a00cf5339, 2022-02-04)"
   xmlns:inkscape="http://www.inkscape.org/namespaces/inkscape"
   xmlns:sodipodi="http://sodipodi.sourceforge.net/DTD/sodipodi-0.dtd"
   xmlns="http://www.w3.org/2000/svg"
   xmlns:svg="http://www.w3.org/2000/svg"
   xmlns:ns="&amp;#38;ns_sfw;"><defs
   id="defs51">
	

	

		
		
	
	

		
		
	
		
		
	
	
	

		
		
	
		
		
	</defs><sodipodi:namedview
   id="namedview49"
   pagecolor="#ffffff"
   bordercolor="#666666"
   borderopacity="1.0"
   inkscape:pageshadow="2"
   inkscape:pageopacity="0.0"
   inkscape:pagecheckerboard="0"
   showgrid="false"
   inkscape:zoom="0.59503656"
   inkscape:cx="437.78823"
   inkscape:cy="268.89104"
   inkscape:window-width="1920"
   inkscape:window-height="995"
   inkscape:window-x="0"
   inkscape:window-y="0"
   inkscape:window-maximized="1"
   inkscape:current-layer="Layer_1" />
<metadata
   id="metadata2">
	<ns:sfw>
		<ns:slices />
		<ns:sliceSourceBounds
   x="335.746"
   y="265.626"
   width="1249.505"
   height="547.75"
   bottomLeftOrigin="true" />
	</ns:sfw>
</metadata>
<path
   fill="#db1f26"
   d="m 418.30397,64.965739 h 157.05259 c 35.41274,0 62.4126,2.7137 80.99873,8.134411 24.95935,7.369222 46.34615,20.451014 64.15288,39.23952 17.80672,18.79687 31.35348,41.80688 40.64613,69.02333 9.28679,27.22481 13.93395,60.78856 13.93395,100.70128 0,35.07154 -4.36116,65.30442 -13.06841,90.68024 -10.6449,31.00392 -25.83744,56.09541 -45.57177,75.27111 -14.9057,14.5369 -35.03224,25.87256 -60.38632,34.00613 -18.96663,6.00778 -44.31987,9.00664 -76.05887,9.00664 H 418.30397 Z m 86.10333,72.247991 v 281.56836 h 64.18382 c 24.00768,0 41.33522,-1.35392 51.98932,-4.0601 13.9398,-3.47889 25.50711,-9.37042 34.70776,-17.68295 9.19397,-8.3117 16.69449,-21.98976 22.50741,-41.03249 5.80623,-19.04357 8.71395,-45.00143 8.71395,-77.86104 0,-32.85961 -2.90772,-58.09075 -8.71395,-75.68841 -5.81292,-17.59013 -13.94733,-31.31501 -24.4024,-41.17298 -10.45339,-9.8588 -23.71247,-16.53141 -39.78142,-20.0103 -12.00635,-2.70617 -35.53484,-4.05926 -70.57712,-4.05926 H 504.4073 Z"
   id="path4"
   style="stroke-width:0.836271;fill:#ffffff" /><path
   d="M 414.8393,494.48973 V 64.965739 61.499394 h 160.51726 c 35.59588,0.01087 62.82321,2.702829 81.978,8.276577 v 0 c 25.51296,7.525606 47.48348,20.962813 65.68744,40.179489 v 0 c 18.17635,19.1849 31.97901,42.66238 41.40964,70.28693 v 0 c 9.45154,27.71738 14.1171,61.63989 14.11877,101.82105 v 0 c -0.002,35.35421 -4.39042,65.96006 -13.25657,91.80336 v 0 c -10.78288,31.41285 -26.24805,57.01865 -46.42978,76.62586 v 0 c -15.38405,15.00104 -36.01486,26.56918 -61.75947,34.82736 v 0 c -19.496,6.16833 -45.14444,9.16218 -77.10338,9.1672 v 0 H 414.8393 Z m 6.92767,-6.926 h 158.23507 c 31.51823,0.006 56.57543,-2.99719 75.00016,-8.84022 v 0 c 24.97691,-8.01399 44.59667,-19.11549 59.02988,-33.19161 v 0 c 19.28274,-18.73917 34.20266,-43.31885 44.71041,-73.91217 v 0 c 8.55004,-24.91001 12.88109,-54.76908 12.87941,-89.55378 v 0 c 0.003,-39.64762 -4.62458,-72.85177 -13.74746,-99.58402 v 0 c -9.15466,-26.80835 -22.44636,-49.35255 -39.88094,-67.76056 v 0 C 700.58317,96.361872 679.77841,83.634659 655.38437,76.424328 v 0 c -18.0275,-5.268509 -44.79988,-8.003116 -80.02698,-7.994753 v 0 H 421.76781 V 487.56373 Z m 79.17482,-65.31864 v -285.03136 -3.46551 h 42.09204 c 35.16856,0.0159 58.70625,1.32047 71.31137,4.13787 v 0 c 16.57239,3.58258 30.47121,10.5412 41.42386,20.87584 v 0 c 10.97606,10.35053 19.37139,24.61982 25.31477,42.60718 v 0 c 5.99272,18.19978 8.87953,43.70271 8.88873,76.77556 v 0 c -0.005,33.06701 -2.90521,59.29833 -8.86448,78.87126 v 0 c -5.93084,19.38142 -13.60028,33.61476 -23.49922,42.59297 v 0 c -9.67064,8.73987 -21.79992,14.88563 -36.17626,18.46821 v 0 c -11.22778,2.83747 -28.68745,4.15794 -52.84315,4.16798 v 0 z m 6.92767,-6.92767 h 60.71999 c 23.86133,0.0109 41.05507,-1.3765 51.15053,-3.95724 v 0 c 13.49073,-3.37101 24.49439,-9.00915 33.22423,-16.89184 v 0 c 8.49066,-7.64854 15.82141,-20.76964 21.51809,-39.47284 v 0 c 5.65403,-18.51672 8.56927,-44.19778 8.56175,-76.84999 v 0 c 0.0109,-32.65054 -2.91942,-57.60989 -8.53917,-74.60293 v 0 c -5.68246,-17.19373 -13.55596,-30.37504 -23.49002,-39.73961 v 0 c -9.9533,-9.38045 -22.57264,-15.76873 -38.16575,-19.15061 v 0 c -11.37998,-2.58742 -34.89844,-3.98985 -69.81528,-3.97313 v 0 H 507.87114 Z M 504.4073,140.6784 v -3.46384 z"
   id="path6"
   style="stroke-width:0.836271" />
<path
   fill="#8461a9"
   d="m 745.45999,409.81308 c 17.10928,10.2669 36.69977,15.40077 58.76897,15.40077 34.40838,0 62.65177,-12.38768 84.72014,-37.1664 22.06669,-24.77454 33.10798,-61.94931 33.10798,-111.51176 0,-48.97456 -10.74776,-85.50791 -32.22572,-109.60841 -21.48799,-24.09298 -50.01989,-36.14699 -85.60157,-36.14699 -35.58083,0 -64.26912,12.2012 -86.04144,36.58771 -21.78069,24.3865 -32.66727,61.16739 -32.66727,110.33596 0,6.54633 0.20573,12.87858 0.61383,18.99757 -1.27364,27.38956 -3.74817,99.80229 -55.90139,115.02494 -22.19632,-35.03057 -33.29113,-78.73243 -33.29113,-131.10727 0,-43.5229 6.49532,-80.05709 19.49349,-109.60088 9.69489,-21.75811 22.93306,-41.28922 39.7095,-58.58582 16.77895,-17.288239 35.15099,-30.115804 55.13035,-38.474336 26.56834,-11.272937 57.21601,-16.910242 91.93465,-16.910242 62.83826,0 113.1174,19.531116 150.84244,58.592508 37.7175,39.06224 56.58208,93.37137 56.58208,162.93576 0,68.99238 -18.7199,122.96951 -56.1514,161.93139 -37.43653,38.96188 -87.47064,58.4378 -150.11572,58.4378 -45.62947,0 -84.53198,-10.03358 -116.70919,-30.10242 25.40927,-13.28835 47.42829,-39.18432 57.8014,-59.02988 z"
   id="path12"
   style="stroke-width:0.836271;fill:#ffffff" /><path
   d="m 804.36778,502.40838 c -46.12622,0.006 -85.7337,-10.15986 -118.54146,-30.6276 v 0 l -5.1347,-3.20542 5.36133,-2.80319 c 24.527,-12.76651 46.3403,-38.34805 56.33709,-57.56389 v 0 l 1.70098,-3.25644 3.15023,1.88997 c 16.54312,9.91985 35.45038,14.89984 56.98854,14.90737 v 0 c 33.57964,-0.0477 60.63469,-11.93526 82.13188,-36.00817 v 0 c 21.28143,-23.87053 32.23241,-60.12205 32.23073,-109.20616 v 0 c 0.003,-48.50541 -10.6658,-84.12304 -31.34679,-107.30364 v 0 c -20.86915,-23.33866 -48.20017,-34.9436 -83.01582,-34.98876 v 0 c -34.8031,0.0452 -62.29468,11.78808 -83.45903,35.43198 v 0 c -20.98707,23.47246 -31.78919,59.33178 -31.78668,108.02702 v 0 c 0,6.47274 0.20322,12.72889 0.60714,18.76593 v 0 l 0.0125,0.18983 -0.009,0.20322 c -0.47918,10.26188 -1.12478,27.05923 -4.55433,44.9086 v 0 c -3.44293,17.85188 -9.63218,36.8528 -21.5574,51.59292 v 0 c -7.94207,9.81532 -18.52509,17.68296 -32.2784,21.68703 v 0 l -2.50129,0.72839 -1.39407,-2.20023 c -22.6238,-35.70042 -33.83318,-80.10977 -33.829,-132.96045 v 0 c 0.002,-43.8641 6.53546,-80.87078 19.79203,-111.01167 v 0 c 9.8588,-22.12439 23.33699,-42.00841 40.38772,-59.58767 v 0 c 17.06077,-17.580099 35.83005,-30.704541 56.26266,-39.251233 v 0 c 27.07261,-11.487023 58.1978,-17.186212 93.28858,-17.184539 v 0 c 63.53236,-0.03596 114.93963,19.853917 153.33368,59.649562 v 0 c 38.47016,39.82324 57.5748,95.18272 57.5547,165.34087 v 0 c 0.019,69.58697 -18.93903,124.61195 -57.11733,164.33233 v 0 c -38.07292,39.66769 -89.18415,59.50237 -152.44891,59.50154 v 0 c -0.0544,0.002 -0.11206,0.002 -0.16558,0.002 z m 0,-6.92767 c 61.9493,-0.036 110.85027,-19.15145 147.61777,-57.37406 v 0 c 36.68555,-38.20338 55.16385,-91.1335 55.18555,-159.53213 v 0 c -0.022,-68.96981 -18.64718,-122.22774 -55.61037,-160.52813 v 0 C 914.5022,79.718401 865.35203,60.546045 803.21038,60.511758 v 0 c -34.34733,0 -64.51666,5.574584 -90.59745,16.640962 v 0 c -19.51021,8.163681 -37.48503,20.695206 -53.98048,37.68991 v 0 c -16.50298,17.01561 -29.49947,36.19299 -39.02627,57.56892 v 0 c -12.74728,28.96342 -19.2033,65.0226 -19.19912,108.20681 v 0 c 0.003,50.76585 10.5111,93.01679 31.34512,126.99533 v 0 c 11.09565,-3.77493 19.61224,-10.32461 26.34757,-18.61206 v 0 c 7.21702,-8.89625 12.30071,-19.8305 15.8557,-31.25731 v 0 c 7.09242,-22.74491 8.08089,-47.2602 8.70977,-60.99261 v 0 c -0.40392,-6.14409 -0.60964,-12.49389 -0.60964,-19.04942 v 0 c 0.002,-49.64023 10.97355,-87.3452 33.54702,-112.6424 v 0 c 22.38113,-25.13163 52.26528,-37.78943 88.62636,-37.74427 v 0 c 36.34769,-0.0452 66.07965,12.45877 88.18815,37.3069 v 0 c 22.27325,25.01873 33.10046,62.46946 33.10213,111.91317 v 0 c 0,50.03829 -11.13244,88.13797 -33.98356,113.81401 v 0 c -22.6387,25.48621 -52.0721,38.37398 -87.30672,38.32799 v 0 c -21.28394,0.008 -40.50313,-4.68228 -57.43093,-14.09201 v 0 c -10.48685,18.51923 -29.59564,40.77575 -52.25023,54.35345 v 0 c 30.54564,17.65286 67.07397,26.53657 109.81998,26.54158 z"
   id="path14"
   style="stroke-width:0.836271" />
<path
   fill="#fdc20f"
   d="m 921.36297,297.28609 c -31.45802,-9.88975 -54.46551,-21.39684 -69.025,-34.51292 -26.10253,-23.51344 -39.14836,-52.1758 -39.14836,-85.99545 0,-21.76563 6.1399,-42.12382 18.4172,-61.07457 12.27981,-18.943213 29.97029,-33.378928 53.08065,-43.291252 23.10366,-9.912323 50.99917,-14.868067 83.68232,-14.868067 53.36582,0 93.53532,11.821531 120.51092,35.466266 26.968,23.644733 41.1345,55.206453 42.4934,94.678453 l -86.1016,2.9696 c -3.6654,-21.9747 -11.528,-37.77855 -23.5904,-47.4124 -12.0641,-9.62632 -30.15513,-14.44324 -54.27069,-14.44324 -0.57786,0 -1.15321,0.003 -1.72522,0.008 -24.07375,0.23416 -42.99104,5.3881 -56.74436,15.45597 -9.07772,6.61908 -13.60864,15.46349 -13.60864,26.55161 0,10.12139 4.25328,18.78098 12.76652,25.97124 0.25841,0.21827 0.52434,0.4357 0.80031,0.65397 14.39557,35.8844 14.74012,72.74807 12.46295,99.84243 z m 85.92023,-66.83815 c 31.6704,8.34181 55.8328,16.90857 72.4762,25.69862 20.0246,10.57716 35.6904,25.04465 47.0094,43.38324 11.3189,18.34863 16.9805,41.01158 16.9805,67.99639 0,24.46428 -6.7814,47.37309 -20.3432,68.72979 -13.5618,21.35753 -32.7433,37.22243 -57.5413,47.60558 -24.7971,10.38482 -55.694,15.58224 -92.699,15.58224 -53.86089,0 -95.22036,-12.47215 -124.08343,-37.41478 -28.87059,-24.9443 -46.11451,-61.29952 -51.72673,-109.05981 l 83.62881,-7.91949 c 5.03435,28.09119 15.2469,48.72033 30.64934,61.89662 15.40077,13.17462 36.1771,19.75524 62.32646,19.75524 27.69645,0 48.57235,-5.86059 62.61415,-17.59766 14.0418,-11.73037 21.0682,-25.44773 21.0682,-41.1504 0,-10.08292 -2.9529,-18.65805 -8.8444,-25.73959 -5.8999,-7.07569 -16.1911,-13.22814 -30.8819,-18.47156 -2.492,-0.86722 -5.7719,-1.89918 -9.8437,-3.10173 3.6336,-28.63226 3.7172,-57.58146 -0.7894,-90.1927 z"
   id="path20"
   style="stroke-width:0.836271;fill:#ffffff" /><path
   d="m 846.81775,464.64906 c -29.65167,-25.60077 -47.24097,-62.9269 -52.90336,-111.2776 v 0 l -0.41228,-3.51736 90.32984,-8.55505 0.56198,3.13852 c 4.95156,27.60866 14.8965,47.39651 29.49278,59.87452 v 0 c 14.64227,12.51814 34.47862,18.9106 60.07438,18.92398 v 0 c 27.24071,0.006 47.25601,-5.78783 60.39301,-16.79149 v 0 c 13.4506,-11.30053 19.7837,-23.86551 19.8263,-38.49022 v 0 c -0.02,-9.41725 -2.6903,-17.05994 -8.0407,-23.52348 v 0 c -5.2368,-6.32137 -15.0078,-12.31409 -29.359,-17.41869 v 0 c -2.4093,-0.83627 -5.649,-1.8582 -9.6865,-3.05156 v 0 l -2.8275,-0.83376 0.3713,-2.92193 c 1.7194,-13.55763 2.6326,-27.17213 2.6326,-41.22483 v 0 c 0,-15.3322 -1.0896,-31.18958 -3.4195,-48.05717 v 0 l 3.4321,-0.47333 -3.4321,0.47333 -0.7108,-5.14725 5.0243,1.32298 c 31.8201,8.3878 56.1698,16.99304 73.2114,25.9863 v 0 c 20.5204,10.83138 36.7014,25.75799 48.3406,44.62762 v 0 c 11.7254,19.0051 17.5007,42.35797 17.4965,69.81443 v 0 c 0.01,25.10654 -6.9937,48.73204 -20.8834,70.58632 v 0 c -13.9306,21.96132 -33.7569,38.333 -59.1269,48.94278 v 0 c -25.3699,10.61897 -56.7117,15.84734 -94.037,15.85152 v 0 c -54.36266,0.002 -96.64286,-12.59425 -126.34805,-38.25858 z m 4.52924,-5.24425 c 28.01927,24.22343 68.45801,36.56847 121.81797,36.57348 v 0 c 36.68474,0.002 67.13504,-5.16397 91.36014,-15.3138 v 0 c 24.2243,-10.15651 42.7627,-25.5138 55.9557,-46.26671 v 0 c 13.2332,-20.85911 19.7946,-43.05124 19.8038,-66.87327 v 0 c -0.01,-26.51147 -5.5529,-48.4845 -16.4645,-66.17665 v 0 c -10.9995,-17.81007 -26.1511,-31.81594 -45.6788,-42.13971 v 0 c -15.3791,-8.12856 -37.6799,-16.20276 -66.7495,-24.0796 v 0 c 1.905,15.25944 2.8056,29.76457 2.8056,43.84905 v 0 c 0,13.34438 -0.8078,26.31077 -2.3306,39.18015 v 0 c 2.8399,0.86219 5.235,1.63073 7.2136,2.31814 v 0 c 15.0027,5.37388 25.8157,11.68773 32.3813,19.51941 v 0 c 6.4293,7.69955 9.6665,17.20461 9.6456,27.95738 v 0 c 0.041,16.77812 -7.6795,31.64618 -22.3118,43.8064 v 0 c -14.9466,12.47132 -36.6838,18.39965 -64.83525,18.40299 v 0 c -26.70548,0.0159 -48.42094,-6.7554 -64.57854,-20.58649 v 0 C 893.7702,396.21447 883.47319,375.80611 878.16203,348.79455 v 0 l -76.92776,7.28475 c 5.97683,45.41539 22.724,79.64648 50.11272,103.32551 z M 920.32432,300.5902 c -31.7273,-9.98759 -55.13453,-21.60089 -70.30533,-35.24299 v 0 c -26.74312,-24.03025 -40.33671,-53.84667 -40.29238,-88.56949 v 0 c -0.0117,-22.42043 6.359,-43.50701 18.97332,-62.95952 v 0 c 12.66616,-19.556205 30.98385,-34.461905 54.62106,-44.58915 v 0 c 23.6531,-10.147316 52.02026,-15.149055 85.04795,-15.150727 v 0 c 53.84166,0.0017 94.92266,11.914357 122.79556,36.326789 v 0 c 27.7065,24.243508 42.3262,56.940038 43.6718,97.163018 v 0 l 0.1187,3.46216 -92.5995,3.19372 -0.5001,-2.99552 c -3.585,-21.48381 -11.175,-36.37362 -22.3326,-45.27573 v 0 c -11.1408,-8.91716 -28.42651,-13.69645 -52.11055,-13.68725 v 0 c -0.56616,0 -1.12897,0.003 -1.69094,0.009 v 0 c -23.61714,0.22746 -41.77092,5.29025 -54.73647,14.78945 v 0 c -8.28912,6.13322 -12.11506,13.62036 -12.18614,23.75262 v 0 c 0.0468,9.12455 3.65618,16.60333 11.53887,23.32779 v 0 c 0.22663,0.19067 0.46497,0.38468 0.71418,0.58288 v 0 l 0.72086,0.57201 0.34287,0.85467 c 10.68922,26.65196 13.75499,53.72039 13.75667,77.02476 v 0 c 0,8.72817 -0.43319,16.93199 -1.05705,24.39487 v 0 l -0.36043,4.31433 z m 1.03781,-3.30495 1.03949,-3.30411 z M 886.05392,75.593911 c -22.5835,9.697402 -39.64678,23.66146 -51.54107,41.990859 v 0 c -11.94028,18.45149 -17.85021,38.08128 -17.85941,59.19211 v 0 c 0.0426,32.91732 12.53989,60.42395 38.00184,83.42141 v 0 c 13.32097,12.02307 34.53884,22.9615 63.5884,32.45067 v 0 c 0.42566,-6.09809 0.69912,-12.62602 0.69912,-19.47007 v 0 c 0.003,-22.45639 -2.93866,-48.31975 -12.92708,-73.61612 v 0 c -0.051,-0.0418 -0.10119,-0.0845 -0.15137,-0.12628 v 0 c -9.14629,-7.65857 -14.04183,-17.49814 -13.995,-28.61888 v 0 c -0.0702,-12.04147 5.16565,-22.24481 15.02613,-29.34559 v 0 c 14.5461,-10.63988 34.22775,-15.88497 58.75726,-16.12415 v 0 c 0.5812,-0.006 1.16743,-0.009 1.75867,-0.009 v 0 c 24.54791,0.009 43.44349,4.86459 56.43239,15.20091 v 0 c 12.3827,9.89894 20.3616,25.59324 24.313,46.55355 v 0 l 79.5988,-2.74548 c -2.0497,-37.07943 -15.7136,-66.3782 -41.158,-88.732568 v 0 C 1060.5194,72.738044 1021.2606,61.006831 968.36894,61.008503 v 0 c -0.008,0 -0.01,0 -0.0176,0 v 0 c -32.3269,0 -59.74991,4.910585 -82.29746,14.585408 z"
   id="path22"
   style="stroke-width:0.836271" />
<g
   id="g32"
   transform="matrix(0.8362713,0,0,0.8362713,102.28959,44.84087)">
	<path
   fill="#8461a9"
   d="M 698.208,301.772"
   id="path28" />
	<path
   d="M 698.208,301.772"
   id="path30" />
</g>
<path
   fill="#c0bfbf"
   d="M 354.93551,494.75232 H 109.93144 v -74.03593 l 167.1238,-44.45368 -167.1238,-43.95442 V 258.10594 H 354.93551 V 304.0649 H 162.07379 l 192.86172,48.63252 v 47.62984 l -192.86172,48.4661 h 192.86172 z"
   id="path34"
   style="stroke-width:0.836271;fill:#ffffff" /><path
   d="M 106.4676,498.21532 V 418.05203 L 263.50932,376.28111 106.4676,334.97767 v -80.3364 h 251.93175 v 52.88496 H 189.97514 l 168.42421,42.47255 v 53.02712 l -168.32887,42.30279 h 168.32887 v 49.42363 3.46384 H 106.4676 Z m 248.46708,-3.463 v -3.46467 z M 113.39527,329.63473 290.60702,376.2393 113.39527,423.37657 v 67.91108 H 351.47168 V 452.25636 H 162.07463 l -0.84548,-6.82314 190.24169,-47.80879 V 355.3944 l -190.24336,-47.9727 0.84715,-6.82147 189.39705,-0.002 V 261.5681 H 113.39527 Z"
   id="path36"
   style="stroke-width:0.836271" /><path
   fill="#c0bfbf"
   d="m 275.21711,247.51624 -4.67977,-48.1316 c 16.15593,-2.89601 28.02178,-8.77416 35.59756,-17.63111 7.57829,-8.85778 11.36409,-20.80643 11.36409,-35.84844 0,-15.9318 -3.3685,-27.93564 -10.11135,-36.01486 -6.73952,-8.07671 -14.62304,-12.116732 -23.64808,-12.116732 -5.79202,0 -10.72184,1.70014 -14.7903,5.097072 -4.06595,3.40028 -7.60421,9.33279 -10.61228,17.7992 -2.00538,5.79452 -5.56957,18.99674 -10.69591,39.60832 -6.57226,26.51816 -14.6498,45.12352 -24.23264,55.81943 -13.47985,15.04118 -29.91509,22.56177 -49.30153,22.56177 -12.47717,0 -24.14901,-3.53576 -35.01301,-10.61228 -10.86316,-7.07402 -19.13556,-17.26817 -24.81802,-30.58412 -5.68247,-13.31177 -8.52328,-29.3849 -8.52328,-48.21522 0,-30.75053 6.74285,-53.897686 20.22188,-69.440624 13.48236,-15.542103 31.47641,-23.702438 53.98131,-24.483515 l 2.17263,49.468789 c -12.58923,2.11744 -21.6427,6.6584 -27.15791,13.62035 -5.51521,6.96447 -8.2724,17.4095 -8.2724,31.33593 0,14.37299 2.95288,25.62753 8.85695,33.7586 3.78915,5.2384 8.85779,7.85509 15.20843,7.85509 5.79453,0 10.75362,-2.44944 14.87393,-7.35333 5.2384,-6.23775 10.69591,-21.39182 16.37837,-45.4572 5.68163,-24.06622 11.55978,-41.864578 17.63111,-53.396759 6.07384,-11.531345 14.37299,-20.556385 24.90165,-27.074284 10.52865,-6.517898 23.53769,-9.776848 39.02376,-9.776848 14.03849,0 27.18634,3.901206 39.44106,11.6986 12.25807,7.799902 21.3659,18.830321 27.32517,33.090419 5.95843,14.263442 8.94058,32.033372 8.94058,53.312292 0,30.97549 -7.15765,54.76156 -21.47545,71.36154 -14.31362,16.605 -35.17775,26.51984 -62.58655,29.74952 z"
   id="path40"
   style="stroke-width:0.836271;fill:#ffffff" /><path
   d="m 266.77997,196.53798 3.14606,-0.56365 c 15.67256,-2.81155 26.69712,-8.42376 33.57545,-16.47371 v 0 c 6.92098,-8.10012 10.51946,-19.10796 10.53284,-33.59636 v 0 c 0.003,-15.47688 -3.29658,-26.62103 -9.3077,-33.79456 v 0 c -6.30883,-7.48463 -13.03998,-10.83139 -20.9879,-10.87237 v 0 c -5.123,0.0201 -9.11954,1.43588 -12.56832,4.29091 v 0 c -3.31247,2.73461 -6.69185,8.14612 -9.56026,16.27301 v 0 c -1.91422,5.51604 -5.49764,18.75171 -10.60893,39.30893 v 0 c -6.66341,26.79162 -14.77775,45.81679 -25.01455,57.29796 v 0 c -13.99416,15.6826 -31.58597,23.75847 -51.88144,23.71415 v 0 c -13.13447,0.01 -25.53889,-3.75821 -36.90298,-11.17259 v 0 c -11.47782,-7.46455 -20.21685,-18.28507 -26.1134,-32.12703 v 0 c -5.91244,-13.85953 -8.79925,-30.40014 -8.80092,-49.575 v 0 c 0.003,-31.22052 6.82983,-55.267498 21.06985,-71.710265 v 0 c 14.07445,-16.283038 33.21335,-24.910013 56.47675,-25.676037 v 0 l 3.43038,-0.117915 2.45697,55.956587 -3.01894,0.50845 c -12.09416,2.03883 -20.23024,6.2988 -25.01789,12.35424 v 0 c -4.81191,6.03871 -7.53313,15.68761 -7.5231,29.18503 v 0 c -0.003,13.92057 2.87008,24.40658 8.19964,31.72813 v 0 c 3.30745,4.4498 7.01548,6.35065 12.40107,6.42257 v 0 c 4.78932,-0.0485 8.56592,-1.84733 12.22127,-6.11733 v 0 c 2.14336,-2.51717 4.77511,-7.60839 7.41605,-14.99016 v 0 c 2.66269,-7.38846 5.42322,-17.08753 8.24396,-29.03618 v 0 c 5.72679,-24.22092 11.62836,-42.20661 17.93802,-54.215466 v 0 c 6.32472,-12.023908 15.08466,-21.5666 26.14184,-28.403954 v 0 c 11.18764,-6.927672 24.88827,-10.300354 40.84767,-10.297009 v 0 c 14.68326,-0.0084 28.5478,4.114455 41.30177,12.240503 v 0 c 12.86018,8.170371 22.47479,19.844718 28.66069,34.678498 v 0 c 6.19259,14.832108 9.20484,33.047768 9.20819,54.646988 v 0 c 0.003,31.47641 -7.27891,56.1807 -22.3159,73.62281 v 0 c -14.96926,17.38608 -36.80681,27.64797 -64.80518,30.92782 v 0 l -3.5115,0.41312 z m 8.43798,50.97826 3.44627,-0.33535 z m 3.09922,-3.89786 c 25.05469,-3.57841 43.8064,-12.98479 56.86311,-28.11461 v 0 c 13.59693,-15.75786 20.62914,-38.62402 20.63415,-69.09859 v 0 c 0.003,-20.95863 -2.94869,-38.2845 -8.6738,-51.977603 v 0 C 341.40882,80.741161 332.8061,70.353835 321.15266,62.924401 v 0 C 309.3972,55.456498 296.96602,51.77774 283.57063,51.767705 v 0 c -15.01107,0.005 -27.32768,3.149398 -37.19902,9.25836 v 0 c -9.9993,6.197606 -17.8385,14.705831 -23.66063,25.742939 v 0 c -5.83299,11.058016 -11.68856,28.669886 -17.32419,52.578886 v 0 c -2.86172,12.11841 -5.67159,22.02739 -8.46808,29.79216 v 0 c -2.8174,7.77231 -5.53445,13.37784 -8.62949,17.09757 v 0 c -4.5836,5.53695 -10.72685,8.63618 -17.52657,8.59018 v 0 c -7.31319,0.0703 -13.74496,-3.26229 -18.01161,-9.28428 v 0 c -6.48361,-8.94476 -9.5151,-20.96867 -9.51844,-35.79409 v 0 c 0.01,-14.35459 2.80318,-25.59659 9.02169,-33.48597 v 0 c 5.75355,-7.25215 14.67489,-11.9152 26.28066,-14.32115 v 0 l -1.88746,-42.970128 c -20.09978,1.447586 -35.85346,9.090269 -48.058,23.10534 v 0 C 115.87231,96.71896 109.21392,118.96712 109.21726,149.24767 v 0 c -0.002,18.48578 2.79315,34.09144 8.24396,46.85544 v 0 c 5.47005,12.78826 13.2733,22.35688 23.52181,29.0412 v 0 c 10.36391,6.73784 21.30484,10.04111 33.12303,10.05031 v 0 c 18.47741,-0.0426 33.75693,-7.00963 46.72164,-21.40939 v 0 c 8.92971,-9.91148 16.97296,-28.09537 23.45156,-54.34341 v 0 c 5.14223,-20.66176 8.68802,-33.8322 10.79375,-39.93279 v 0 c 3.13769,-8.77834 6.83401,-15.23185 11.65595,-19.2978 v 0 c 4.68479,-3.937166 10.54873,-5.922474 17.0106,-5.901568 v 0 c 10.10132,-0.04265 19.1389,4.691482 26.30658,13.360268 v 0 c 7.47627,8.98407 10.91167,21.84759 10.91752,38.23433 v 0 c 0.0117,15.59646 -3.96141,28.48507 -12.19701,38.09968 v 0 c -7.74388,9.04846 -19.3739,15.01107 -34.47696,18.1797 v 0 z"
   id="path42"
   style="stroke-width:0.836271" />
</svg>
