<?xml version="1.0" encoding="UTF-8" standalone="no"?>
<!-- Generator: Adobe Illustrator 13.0.0, SVG Export Plug-In . SVG Version: 6.00 Build 14948)  -->

<svg
   version="1.2"
   id="Layer_1"
   x="0px"
   y="0px"
   width="1476.9066"
   height="490.04697"
   viewBox="0 0 1476.9066 490.04696"
   xml:space="preserve"
   sodipodi:docname="system.svg"
   inkscape:version="1.1.2 (0a00cf5339, 2022-02-04)"
   xmlns:inkscape="http://www.inkscape.org/namespaces/inkscape"
   xmlns:sodipodi="http://sodipodi.sourceforge.net/DTD/sodipodi-0.dtd"
   xmlns:xlink="http://www.w3.org/1999/xlink"
   xmlns="http://www.w3.org/2000/svg"
   xmlns:svg="http://www.w3.org/2000/svg"
   xmlns:ns="ns_sfw;"><defs
   id="defs51"><linearGradient
   inkscape:collect="always"
   id="linearGradient925"><stop
     style="stop-color:#cccccc;stop-opacity:1;"
     offset="0"
     id="stop921" /><stop
     style="stop-color:#cccccc;stop-opacity:0;"
     offset="1"
     id="stop923" /></linearGradient>
	

	

		
		
	
		
		
	
	

		
		
	
	
	

		
		
	
		
		
	
	
	

		
		
	
		
		
	<linearGradient
   inkscape:collect="always"
   xlink:href="#linearGradient925"
   id="linearGradient927"
   x1="247.14488"
   y1="289.81577"
   x2="574.35004"
   y2="289.81577"
   gradientUnits="userSpaceOnUse"
   gradientTransform="translate(-86.314192,-28.83488)" /><linearGradient
   inkscape:collect="always"
   xlink:href="#linearGradient925"
   id="linearGradient929"
   x1="247.14488"
   y1="289.81577"
   x2="574.35004"
   y2="289.81577"
   gradientUnits="userSpaceOnUse"
   gradientTransform="translate(-86.314192,-28.83488)" />
	

		
		
	</defs><sodipodi:namedview
   id="namedview49"
   pagecolor="#ffffff"
   bordercolor="#666666"
   borderopacity="1.0"
   inkscape:pageshadow="2"
   inkscape:pageopacity="0.0"
   inkscape:pagecheckerboard="0"
   showgrid="false"
   inkscape:zoom="0.21037719"
   inkscape:cx="-225.78493"
   inkscape:cy="35.650252"
   inkscape:window-width="1920"
   inkscape:window-height="996"
   inkscape:window-x="0"
   inkscape:window-y="0"
   inkscape:window-maximized="1"
   inkscape:current-layer="Layer_1"
   fit-margin-top="0"
   fit-margin-left="0"
   fit-margin-right="0"
   fit-margin-bottom="0"
   width="1476.9066px" />
<metadata
   id="metadata2">
	<ns:sfw>
		<ns:slices />
		<ns:sliceSourceBounds
   x="335.746"
   y="265.626"
   width="1249.505"
   height="547.75"
   bottomLeftOrigin="true" />
	</ns:sfw>
</metadata>




<g
   id="g863"
   transform="translate(200.00003)"><path
     id="path181"
     style="stroke-width:0.836271"
     d="m 196.16823,0.01082253 c -14.36908,0.121647 -28.9194,2.74649397 -41.85454,9.18627997 -17.59011,8.7602225 -31.70621,23.9070985 -39.98222,41.6587785 -0.2617,0.53059 -0.111,-0.982738 -0.19434,-1.336097 -0.63003,-14.363023 -1.26198,-28.725962 -1.89077,-43.0890395 -9.98906,0.40148 -20.049962,0.28056 -30.019532,1.492187 C 64.047338,10.132949 46.470838,17.810396 32.862408,30.125847 22.988858,39.003141 15.233818,50.155338 10.108666,62.390563 3.455283,78.22071 0.784199,95.43662 0.141661,112.51116 c -0.613549,17.46957 0.672828,35.17609 5.694048,51.98986 3.927074,13.26146 10.325149,25.90179 19.453079,36.35185 2.80671,3.22102 5.86619,6.22311 9.15288,8.95287 -10.09635,0 -20.19271,1e-5 -30.289063,0 0,36.22722 0,72.45443 0,108.68165 36.823093,9.67719 73.644393,19.3612 110.466795,29.04101 -36.822182,9.79784 -73.645042,19.59315 -110.466795,29.39258 0,36.15365 0,72.30729 0,108.46094 94.643883,0 189.287765,0 283.931645,0 0,-28.29623 0,-56.59245 0,-84.88868 -18.34375,10e-6 -36.6875,0 -55.03125,0 18.34368,-4.61159 36.6879,-9.22104 55.03125,-13.83398 0,-25.98828 0,-51.97656 0,-77.96484 -18.51253,-4.66734 -37.02472,-9.33604 -55.53711,-14.00391 18.51237,0 37.02474,0 55.53711,0 0,-28.29492 0,-56.58984 0,-84.88477 -9.92969,0 -19.85938,1e-5 -29.78906,0 9.91545,-9.04977 17.83377,-20.24539 23.15123,-32.56746 7.00859,-15.97381 10.04895,-33.42363 10.7598,-50.776 0.61267,-14.43382 -0.13376,-28.95378 -2.61899,-43.19426 C 286.96254,68.550729 282.09852,54.068488 273.96397,41.448582 266.92269,30.462369 257.39188,21.102136 246.31075,14.215175 231.39996,4.8542945 213.79659,-0.26809747 196.16823,0.01082253 Z M 713.52175,8.7647285 c -31.28155,0.313386 -62.79381,5.1180085 -91.96289,16.7167975 -7.1508,2.850953 -14.15247,6.090575 -20.88477,9.828125 -15.68866,-7.627797 -32.68771,-12.612364 -49.9414,-14.896484 -28.26759,-4.16984 -56.92099,-3.732167 -85.4168,-3.751811 -50.93073,0.0012 -101.86146,0.0026 -152.79219,0.0038 0,154.996094 0,309.992194 0,464.988284 63.06373,-0.009 126.1278,0.041 189.19129,-0.0829 21.72261,-0.41234 43.57145,-2.01745 64.71788,-7.25813 11.74393,-2.9778 23.14419,-7.22028 34.1338,-12.3035 26.17454,14.39818 55.44589,22.72019 85.08819,25.8252 22.34659,2.41023 44.96376,2.27403 67.28715,-0.32167 16.20368,-1.96919 32.24518,-5.44607 47.70864,-10.69689 25.95606,9.26169 53.62218,12.81544 81.07925,13.19085 22.50586,0.31929 45.09861,-1.21918 67.20401,-5.57418 22.7866,-4.57584 45.1497,-12.57132 64.53819,-25.57059 15.444,-10.32674 28.8441,-23.7417 38.947,-39.3467 12.2501,-18.6345 20.5041,-39.98681 23.2818,-62.14993 1.302,-10.02535 1.4836,-20.17238 0.8597,-30.25596 -1.1871,-20.73442 -5.9097,-41.51785 -15.7373,-59.92607 -11.187,-21.05425 -28.2528,-38.81572 -48.4558,-51.40188 -14.35279,-8.96608 -30.14179,-15.32473 -46.08089,-20.85529 -9.3244,-3.2119 -18.7675,-6.06706 -28.2512,-8.7665 -3.954,-20.5317 -10.269,-40.65764 -19.3574,-59.50781 3.9686,2.1418 7.4535,5.15747 10.0998,8.81287 0.812,1.06871 1.7158,2.43373 2.4536,3.68891 4.3294,7.36256 6.619,15.71475 8.1868,24.05291 0.2106,1.1459 0.4682,2.54358 0.6754,3.79012 0.5325,2.93897 0.9015,5.89418 1.4906,8.82299 1.1989,3.90112 5.5148,6.38554 9.4984,5.75452 37.9908,-1.31331 75.98159,-2.62653 113.97229,-3.9399 -0.3798,-16.28441 -0.5091,-32.71645 -3.9059,-48.71924 -4.4914,-22.25287 -14.0184,-43.6033 -28.3536,-61.269894 C 1018.3359,49.60099 999.32801,35.251311 978.03471,26.2439 954.52081,16.08514 928.97261,11.487116 903.51587,9.9135615 885.43091,8.8129665 867.24175,9.0473265 849.22238,11.001861 832.72941,12.836712 816.36724,16.265317 800.72487,21.85262 772.76642,12.204176 743.01495,8.4654345 713.52175,8.7647285 Z M 198.01198,88.41707 c 3.54559,0.27769 6.38505,2.84595 8.44665,5.55218 3.3248,4.5377 4.34334,10.25269 4.89792,15.72792 0.14111,1.34381 0.23918,2.93884 0.29125,4.12455 0.2136,6.75632 -0.18479,13.71903 -2.77144,20.04446 -1.84183,4.62229 -5.23697,8.57677 -9.50896,11.12274 -6.04917,3.67423 -13.02905,5.39933 -19.92763,6.65308 -1.23832,0.229 -2.47927,0.44346 -3.7188,0.6657 4.71331,-15.49757 8.02383,-31.37571 12.53742,-46.92959 1.1434,-4.01481 2.37597,-8.15698 4.14084,-12.02374 0.76798,-1.55662 1.61293,-3.1253 2.79049,-4.40605 0.80214,-0.60993 1.87063,-0.53419 2.82226,-0.53125 z m -99.468752,9.59766 c -2.76441,11.07124 -5.27722,22.23349 -9.01367,33.03125 -0.49465,1.46275 -1.12515,3.1067 -1.70508,4.62695 -0.25098,0.61939 -0.61231,1.54223 -0.93379,2.26534 -0.43923,1.03407 -0.88764,1.95536 -1.45984,2.98735 -0.29149,0.5181 -0.60288,1.02485 -0.93645,1.51684 -2.90949,-4.51314 -3.8434,-9.94695 -4.35843,-15.20118 -0.10103,-1.04611 -0.15902,-2.06667 -0.20602,-2.98046 -0.21275,-5.65358 0.0374,-11.38482 1.40655,-16.89401 0.79573,-3.00558 2.22857,-6.05492 4.92197,-7.79792 3.53148,-2.3959 7.7739,-3.40928 11.9,-4.24361 0.60694,-0.1155 1.44732,-0.44945 0.94232,0.47567 -0.18586,0.73793 -0.37171,1.47585 -0.55756,2.21378 z M 709.76003,123.4366 c -4.39609,23.05285 -2.61931,47.26374 5.15013,69.41165 5.25736,14.87379 13.40609,28.6732 23.62592,40.67378 9.53414,11.32314 20.83187,21.19639 33.51806,28.84714 13.19157,8.04679 27.45986,14.15655 41.94222,19.46197 -0.49832,3.70477 -1.14119,7.54669 -1.83789,11.11914 -0.32133,1.60168 -0.64514,3.20284 -1.01172,4.79492 -0.15396,-0.86453 -0.30734,-1.72916 -0.46094,-2.59375 -35.32031,3.34379 -70.64063,6.68749 -105.96094,10.03125 3.76044,-25.94533 4.11525,-52.27437 2.77325,-78.42136 -1.41024,-25.55173 -4.98689,-51.12584 -12.65272,-75.59961 -2.69009,-8.52638 -5.87067,-16.89908 -9.5424,-25.0513 6.47447,-2.03022 13.16431,-3.34197 19.91015,-4.04492 0.87931,-0.0865 2.04619,-0.19905 3.03804,-0.27068 0.62054,-0.0548 1.24263,-0.0873 1.86431,-0.1258 -0.11849,0.58919 -0.23698,1.17838 -0.35547,1.76757 z m -253.10938,4.40821 c 10.26329,0.0571 20.61181,0.12635 30.81836,0.45508 8.99501,0.31943 17.8831,0.7753 26.81836,1.75585 -11.67832,24.88582 -17.94003,52.00123 -20.92064,79.23595 -1.90319,17.55869 -2.45036,35.25 -2.05147,52.90215 0.87981,31.8822 5.95978,63.89613 17.48521,93.73819 1.74504,4.50439 3.62489,8.95636 5.65292,13.34051 -12.43238,1.14463 -24.85224,1.17362 -37.33985,1.20735 -13.18619,10e-4 -26.37239,0.002 -39.55859,0.004 6.5e-4,-80.87956 10e-4,-161.75912 0.002,-242.63867 6.36459,0 12.72917,0 19.09375,0 z m -288.16211,81.96093 c -8.90885,-0.004 -17.86458,0.008 -26.74414,-0.006 8.91054,-7.42949 16.30334,-16.64394 21.69255,-26.91428 0.70616,-1.31145 1.38182,-2.63912 2.04183,-3.9744 1.00325,10.29818 2.00651,20.59636 3.00976,30.89453 z m 768.84377,108.6836 c 3.8866,2.04829 7.7264,4.44239 10.5831,7.83464 3.1078,3.98752 4.2086,9.20387 3.9098,14.17641 -0.2683,6.68751 -3.0279,13.16129 -7.3968,18.19871 -5.4804,6.70239 -12.8849,11.7721 -21.0708,14.56988 -1.9816,0.69043 -3.9865,1.31931 -6.0214,1.83364 8.9915,-17.97116 15.4132,-37.17077 19.6191,-56.80469 0.1257,0.0638 0.2513,0.12761 0.377,0.19141 z M 695.22683,348.4327 c 1.89444,9.29004 4.35532,18.46745 7.4414,27.43359 -5.69804,-0.79274 -11.5564,-2.14275 -17.0918,-4.03906 3.58467,-7.96303 6.74704,-16.11724 9.44727,-24.42188 0.0677,0.34245 0.13542,0.6849 0.20313,1.02735 z" /><path
     fill="#db1f26"
     d="m 331.98978,36.130859 h 157.05259 c 35.41274,0 62.4126,2.7137 80.99873,8.134411 24.95935,7.369222 46.34615,20.451014 64.15288,39.23952 17.80672,18.79687 31.35348,41.80688 40.64613,69.02333 9.28679,27.22481 13.93395,60.78856 13.93395,100.70128 0,35.07154 -4.36116,65.30442 -13.06841,90.68024 -10.6449,31.00392 -25.83744,56.09541 -45.57177,75.27111 -14.9057,14.5369 -35.03224,25.87256 -60.38632,34.00613 -18.96663,6.00778 -44.31987,9.00664 -76.05887,9.00664 H 331.98978 Z m 86.10333,72.247991 v 281.56836 h 64.18382 c 24.00768,0 41.33522,-1.35392 51.98932,-4.0601 13.9398,-3.47889 25.50711,-9.37042 34.70776,-17.68295 9.19397,-8.3117 16.69449,-21.98976 22.50741,-41.03249 5.80623,-19.04357 8.71395,-45.00143 8.71395,-77.86104 0,-32.85961 -2.90772,-58.09075 -8.71395,-75.68841 -5.81292,-17.59013 -13.94733,-31.31501 -24.4024,-41.17298 -10.45339,-9.8588 -23.71247,-16.53141 -39.78142,-20.0103 -12.00635,-2.70617 -35.53484,-4.05926 -70.57712,-4.05926 h -38.62737 z"
     id="path4"
     style="stroke-width:0.836271" /><path
     d="M 328.52511,465.65485 V 36.130859 32.664514 h 160.51726 c 35.59588,0.01087 62.82321,2.702829 81.978,8.276577 v 0 c 25.51296,7.525606 47.48348,20.962813 65.68744,40.179489 v 0 c 18.17635,19.1849 31.97901,42.66238 41.40964,70.28693 v 0 c 9.45154,27.71738 14.1171,61.63989 14.11877,101.82105 v 0 c -0.002,35.35421 -4.39042,65.96006 -13.25657,91.80336 v 0 c -10.78288,31.41285 -26.24805,57.01865 -46.42978,76.62586 v 0 c -15.38405,15.00104 -36.01486,26.56918 -61.75947,34.82736 v 0 c -19.496,6.16833 -45.14444,9.16218 -77.10338,9.1672 v 0 H 328.52511 Z m 6.92767,-6.926 h 158.23507 c 31.51823,0.006 56.57543,-2.99719 75.00016,-8.84022 v 0 c 24.97691,-8.01399 44.59667,-19.11549 59.02988,-33.19161 v 0 c 19.28274,-18.73917 34.20266,-43.31885 44.71041,-73.91217 v 0 c 8.55004,-24.91001 12.88109,-54.76908 12.87941,-89.55378 v 0 c 0.003,-39.64762 -4.62458,-72.85177 -13.74746,-99.58402 v 0 C 662.40559,126.8387 649.11389,104.2945 631.67931,85.88649 v 0 C 614.26898,67.526992 593.46422,54.799779 569.07018,47.589448 v 0 C 551.04268,42.320939 524.2703,39.586332 489.0432,39.594695 v 0 H 335.45362 V 458.72885 Z m 79.17482,-65.31864 v -285.03136 -3.46551 h 42.09204 c 35.16856,0.0159 58.70625,1.32047 71.31137,4.13787 v 0 c 16.57239,3.58258 30.47121,10.5412 41.42386,20.87584 v 0 c 10.97606,10.35053 19.37139,24.61982 25.31477,42.60718 v 0 c 5.99272,18.19978 8.87953,43.70271 8.88873,76.77556 v 0 c -0.005,33.06701 -2.90521,59.29833 -8.86448,78.87126 v 0 c -5.93084,19.38142 -13.60028,33.61476 -23.49922,42.59297 v 0 c -9.67064,8.73987 -21.79992,14.88563 -36.17626,18.46821 v 0 c -11.22778,2.83747 -28.68745,4.15794 -52.84315,4.16798 v 0 z m 6.92767,-6.92767 h 60.71999 c 23.86133,0.0109 41.05507,-1.3765 51.15053,-3.95724 v 0 c 13.49073,-3.37101 24.49439,-9.00915 33.22423,-16.89184 v 0 c 8.49066,-7.64854 15.82141,-20.76964 21.51809,-39.47284 v 0 c 5.65403,-18.51672 8.56927,-44.19778 8.56175,-76.84999 v 0 c 0.0109,-32.65054 -2.91942,-57.60989 -8.53917,-74.60293 v 0 c -5.68246,-17.19373 -13.55596,-30.37504 -23.49002,-39.73961 v 0 c -9.9533,-9.38045 -22.57264,-15.76873 -38.16575,-19.15061 v 0 c -11.37998,-2.58742 -34.89844,-3.98985 -69.81528,-3.97313 v 0 h -35.16269 z m -3.46216,-274.63902 v -3.46384 z"
     id="path6"
     style="stroke-width:0.836271" /><g
     id="g18"
     transform="matrix(0.8362713,0,0,0.8362713,15.975398,16.00599)">
	<g
   id="g16">
		<path
   fill="#8461a9"
   d="m 769.093,436.428 c 20.459,12.277 43.885,18.416 70.275,18.416 41.145,0 74.918,-14.813 101.307,-44.443 26.387,-29.625 39.59,-74.078 39.59,-133.344 0,-58.563 -12.852,-102.249 -38.535,-131.068 -25.695,-28.81 -59.813,-43.224 -102.361,-43.224 -42.547,0 -76.852,14.59 -102.887,43.751 -26.045,29.161 -39.063,73.143 -39.063,131.938 0,7.828 0.246,15.4 0.734,22.717 -1.523,32.752 -4.482,119.342 -66.846,137.545 -26.542,-41.889 -39.809,-94.147 -39.809,-156.776 0,-52.044 7.767,-95.731 23.31,-131.059 11.593,-26.018 27.423,-49.373 47.484,-70.056 20.064,-20.673 42.033,-36.012 65.924,-46.007 31.77,-13.48 68.418,-20.221 109.934,-20.221 75.141,0 135.264,23.355 180.375,70.064 45.102,46.71 67.66,111.652 67.66,194.836 0,82.5 -22.385,147.045 -67.145,193.635 -44.766,46.59 -104.596,69.879 -179.506,69.879 -54.563,0 -101.082,-11.998 -139.559,-35.996 30.384,-15.89 56.714,-46.856 69.118,-70.587 z"
   id="path12" />
		<path
   d="m 839.534,547.152 c -55.157,0.007 -102.519,-12.149 -141.75,-36.624 v 0 l -6.14,-3.833 6.411,-3.352 c 29.329,-15.266 55.413,-45.856 67.367,-68.834 v 0 l 2.034,-3.894 3.767,2.26 c 19.782,11.862 42.391,17.817 68.146,17.826 v 0 c 40.154,-0.057 72.506,-14.272 98.212,-43.058 v 0 c 25.448,-28.544 38.543,-71.893 38.541,-130.587 v 0 c 0.004,-58.002 -12.754,-100.593 -37.484,-128.312 v 0 c -24.955,-27.908 -57.637,-41.785 -99.269,-41.839 v 0 c -41.617,0.054 -74.491,14.096 -99.799,42.369 v 0 c -25.096,28.068 -38.013,70.948 -38.01,129.177 v 0 c 0,7.74 0.243,15.221 0.726,22.44 v 0 l 0.015,0.227 -0.011,0.243 c -0.573,12.271 -1.345,32.357 -5.446,53.701 v 0 c -4.117,21.347 -11.518,44.068 -25.778,61.694 v 0 c -9.497,11.737 -22.152,21.145 -38.598,25.933 v 0 l -2.991,0.871 -1.667,-2.631 c -27.053,-42.69 -40.457,-95.794 -40.452,-158.992 v 0 c 0.002,-52.452 7.815,-96.704 23.667,-132.746 v 0 c 11.789,-26.456 27.906,-50.233 48.295,-71.254 v 0 c 20.401,-21.022 42.845,-36.716 67.278,-46.936 v 0 C 758.971,17.265 796.19,10.45 838.151,10.452 v 0 c 75.971,-0.043 137.443,23.741 183.354,71.328 v 0 c 46.002,47.62 68.847,113.818 68.823,197.712 v 0 c 0.023,83.211 -22.647,149.009 -68.3,196.506 v 0 c -45.527,47.434 -106.645,71.152 -182.296,71.151 v 0 c -0.065,0.003 -0.134,0.003 -0.198,0.003 z m 0,-8.284 c 74.078,-0.043 132.553,-22.901 176.519,-68.607 v 0 c 43.868,-45.683 65.964,-108.976 65.99,-190.766 v 0 c -0.026,-82.473 -22.298,-146.158 -66.498,-191.957 v 0 C 971.231,41.706 912.458,18.78 838.15,18.739 v 0 c -41.072,0 -77.148,6.666 -108.335,19.899 v 0 c -23.33,9.762 -44.824,24.747 -64.549,45.069 v 0 c -19.734,20.347 -35.275,43.279 -46.667,68.84 v 0 c -15.243,34.634 -22.963,77.753 -22.958,129.392 v 0 c 0.004,60.705 12.569,111.228 37.482,151.859 v 0 c 13.268,-4.514 23.452,-12.346 31.506,-22.256 v 0 c 8.63,-10.638 14.709,-23.713 18.96,-37.377 v 0 c 8.481,-27.198 9.663,-56.513 10.415,-72.934 v 0 c -0.483,-7.347 -0.729,-14.94 -0.729,-22.779 v 0 c 0.002,-59.359 13.122,-104.446 40.115,-134.696 v 0 c 26.763,-30.052 62.498,-45.188 105.978,-45.134 v 0 c 43.464,-0.054 79.017,14.898 105.454,44.611 v 0 c 26.634,29.917 39.581,74.7 39.583,133.824 v 0 c 0,59.835 -13.312,105.394 -40.637,136.097 v 0 c -27.071,30.476 -62.267,45.887 -104.4,45.832 v 0 c -25.451,0.009 -48.433,-5.599 -68.675,-16.851 v 0 c -12.54,22.145 -35.39,48.759 -62.48,64.995 v 0 c 36.526,21.109 80.206,31.732 131.321,31.738 z"
   id="path14" />
	</g>
</g><g
     id="g24"
     transform="matrix(0.8362713,0,0,0.8362713,15.975398,16.00599)">
		<path
   fill="#fdc20f"
   d="m 979.435,301.87 c -37.617,-11.826 -65.129,-25.586 -82.539,-41.27 -31.213,-28.117 -46.813,-62.391 -46.813,-102.832 0,-26.027 7.342,-50.371 22.023,-73.032 14.684,-22.652 35.838,-39.914 63.473,-51.767 27.627,-11.853 60.984,-17.779 100.066,-17.779 63.814,0 111.848,14.136 144.105,42.41 32.248,28.274 49.188,66.015 50.813,113.215 l -102.959,3.551 c -4.383,-26.277 -13.785,-45.175 -28.209,-56.695 -14.426,-11.511 -36.059,-17.271 -64.896,-17.271 -0.691,0 -1.379,0.004 -2.063,0.01 -28.787,0.28 -51.408,6.443 -67.854,18.482 -10.855,7.915 -16.273,18.491 -16.273,31.75 0,12.103 5.086,22.458 15.266,31.056 0.309,0.261 0.627,0.521 0.957,0.782 17.214,42.91 17.626,86.991 14.903,119.39 z m 102.742,-79.924 c 37.871,9.975 66.764,20.219 86.666,30.73 23.945,12.648 42.678,29.948 56.213,51.877 13.535,21.941 20.305,49.041 20.305,81.309 0,29.254 -8.109,56.648 -24.326,82.186 -16.217,25.539 -39.154,44.51 -68.807,56.926 -29.652,12.418 -66.598,18.633 -110.848,18.633 -64.406,0 -113.863,-14.914 -148.377,-44.74 C 858.48,469.039 837.86,425.566 831.149,368.455 l 100.002,-9.47 c 6.02,33.591 18.232,58.259 36.65,74.015 18.416,15.754 43.26,23.623 74.529,23.623 33.119,0 58.082,-7.008 74.873,-21.043 16.791,-14.027 25.193,-30.43 25.193,-49.207 0,-12.057 -3.531,-22.311 -10.576,-30.779 -7.055,-8.461 -19.361,-15.818 -36.928,-22.088 -2.98,-1.037 -6.902,-2.271 -11.771,-3.709 4.345,-34.238 4.445,-68.855 -0.944,-107.851 z"
   id="path20" />
		<path
   d="m 890.295,502 c -35.457,-30.613 -56.49,-75.247 -63.261,-133.064 v 0 l -0.493,-4.206 108.015,-10.23 0.672,3.753 c 5.921,33.014 17.813,56.676 35.267,71.597 v 0 c 17.509,14.969 41.229,22.613 71.836,22.629 v 0 c 32.574,0.007 56.508,-6.921 72.217,-20.079 v 0 c 16.084,-13.513 23.657,-28.538 23.708,-46.026 v 0 c -0.024,-11.261 -3.217,-20.4 -9.615,-28.129 v 0 c -6.262,-7.559 -17.946,-14.725 -35.107,-20.829 v 0 c -2.881,-1 -6.755,-2.222 -11.583,-3.649 v 0 l -3.381,-0.997 0.444,-3.494 c 2.056,-16.212 3.148,-32.492 3.148,-49.296 v 0 c 0,-18.334 -1.303,-37.296 -4.089,-57.466 v 0 l 4.104,-0.566 -4.104,0.566 -0.85,-6.155 6.008,1.582 c 38.05,10.03 67.167,20.32 87.545,31.074 v 0 c 24.538,12.952 43.887,30.801 57.805,53.365 v 0 c 14.021,22.726 20.927,50.651 20.922,83.483 v 0 c 0.011,30.022 -8.363,58.273 -24.972,84.406 v 0 c -16.658,26.261 -40.366,45.838 -70.703,58.525 v 0 c -30.337,12.698 -67.815,18.95 -112.448,18.955 v 0 C 976.374,547.751 925.816,532.689 890.295,502 Z m 5.416,-6.271 c 33.505,28.966 81.861,43.728 145.668,43.734 v 0 c 43.867,0.002 80.279,-6.175 109.247,-18.312 v 0 c 28.967,-12.145 51.135,-30.509 66.911,-55.325 v 0 c 15.824,-24.943 23.67,-51.48 23.681,-79.966 v 0 c -0.01,-31.702 -6.64,-57.977 -19.688,-79.133 v 0 c -13.153,-21.297 -31.271,-38.045 -54.622,-50.39 v 0 c -18.39,-9.72 -45.057,-19.375 -79.818,-28.794 v 0 c 2.278,18.247 3.355,35.592 3.355,52.434 v 0 c 0,15.957 -0.966,31.462 -2.787,46.851 v 0 c 3.396,1.031 6.26,1.95 8.626,2.772 v 0 c 17.94,6.426 30.87,13.976 38.721,23.341 v 0 c 7.688,9.207 11.559,20.573 11.534,33.431 v 0 c 0.049,20.063 -9.183,37.842 -26.68,52.383 v 0 c -17.873,14.913 -43.866,22.002 -77.529,22.006 v 0 c -31.934,0.019 -57.901,-8.078 -77.222,-24.617 v 0 C 946.44,420.167 934.127,395.763 927.776,363.463 v 0 l -91.989,8.711 c 7.147,54.307 27.173,95.24 59.924,123.555 z m 82.482,-189.908 c -37.939,-11.943 -65.929,-25.83 -84.07,-42.143 v 0 c -31.979,-28.735 -48.234,-64.389 -48.181,-105.91 v 0 c -0.014,-26.81 7.604,-52.025 22.688,-75.286 v 0 c 15.146,-23.385 37.05,-41.209 65.315,-53.319 v 0 C 962.229,17.029 996.15,11.048 1035.644,11.046 v 0 c 64.383,0.002 113.507,14.247 146.837,43.439 v 0 c 33.131,28.99 50.613,68.088 52.222,116.186 v 0 l 0.142,4.14 -110.729,3.819 -0.598,-3.582 c -4.287,-25.69 -13.363,-43.495 -26.705,-54.14 v 0 c -13.322,-10.663 -33.992,-16.378 -62.313,-16.367 v 0 c -0.677,0 -1.35,0.004 -2.022,0.011 v 0 c -28.241,0.272 -49.949,6.326 -65.453,17.685 v 0 c -9.912,7.334 -14.487,16.287 -14.572,28.403 v 0 c 0.056,10.911 4.372,19.854 13.798,27.895 v 0 c 0.271,0.228 0.556,0.46 0.854,0.697 v 0 l 0.862,0.684 0.41,1.022 c 12.782,31.87 16.448,64.238 16.45,92.105 v 0 c 0,10.437 -0.518,20.247 -1.264,29.171 v 0 l -0.431,5.159 z m 1.241,-3.952 1.243,-3.951 z M 937.213,36.774 C 910.208,48.37 889.804,65.068 875.581,86.986 v 0 c -14.278,22.064 -21.345,45.537 -21.356,70.781 v 0 c 0.051,39.362 14.995,72.254 45.442,99.754 v 0 c 15.929,14.377 41.301,27.457 76.038,38.804 v 0 c 0.509,-7.292 0.836,-15.098 0.836,-23.282 v 0 c 0.003,-26.853 -3.514,-57.78 -15.458,-88.029 v 0 c -0.061,-0.05 -0.121,-0.101 -0.181,-0.151 v 0 c -10.937,-9.158 -16.791,-20.924 -16.735,-34.222 v 0 c -0.084,-14.399 6.177,-26.6 17.968,-35.091 v 0 c 17.394,-12.723 40.929,-18.995 70.261,-19.281 v 0 c 0.695,-0.007 1.396,-0.011 2.103,-0.011 v 0 c 29.354,0.011 51.949,5.817 67.481,18.177 v 0 c 14.807,11.837 24.348,30.604 29.073,55.668 v 0 l 95.183,-3.283 c -2.451,-44.339 -18.79,-79.374 -49.216,-106.105 v 0 C 1145.836,33.359 1098.891,19.331 1035.644,19.333 v 0 c -0.01,0 -0.012,0 -0.021,0 v 0 c -38.656,0 -71.448,5.872 -98.41,17.441 z"
   id="path22" />
	</g><g
     id="g32"
     transform="matrix(0.8362713,0,0,0.8362713,15.975398,16.00599)">
	<path
   fill="#8461a9"
   d="M 698.208,301.772"
   id="path28" />
	<path
   d="M 698.208,301.772"
   id="path30" />
</g><path
     fill="#c0bfbf"
     d="M 268.62132,465.91744 H 23.617248 V 391.88151 L 190.74105,347.42783 23.617248,303.47341 V 229.27106 H 268.62132 v 45.95896 H 75.759598 l 192.861722,48.63252 v 47.62984 L 75.759598,419.95848 H 268.62132 Z"
     id="path34"
     style="fill:url(#linearGradient929);fill-opacity:1;stroke-width:0.836271" /><path
     d="M 20.153408,469.38044 V 389.21715 L 177.19513,347.44623 20.153408,306.14279 v -80.3364 H 272.08516 v 52.88496 H 103.66095 l 168.42421,42.47255 v 53.02712 l -168.32887,42.30279 h 168.32887 v 49.42363 3.46384 H 20.153408 Z m 248.467082,-3.463 v -3.46467 z M 27.081078,300.79985 204.29283,347.40442 27.081078,394.54169 v 67.91108 H 265.15749 V 423.42148 H 75.760438 l -0.84548,-6.82314 190.241692,-47.80879 v -42.23003 l -190.243362,-47.9727 0.84715,-6.82147 189.397052,-0.002 V 232.73322 H 27.081078 Z"
     id="path36"
     style="stroke-width:0.836271" /><path
     fill="#c0bfbf"
     d="m 188.90292,218.68136 -4.67977,-48.1316 c 16.15593,-2.89601 28.02178,-8.77416 35.59756,-17.63111 7.57829,-8.85778 11.36409,-20.80643 11.36409,-35.84844 0,-15.9318 -3.3685,-27.93564 -10.11135,-36.01486 -6.73952,-8.07671 -14.62304,-12.116732 -23.64808,-12.116732 -5.79202,0 -10.72184,1.70014 -14.7903,5.097072 -4.06595,3.40028 -7.60421,9.33279 -10.61228,17.7992 -2.00538,5.79452 -5.56957,18.99674 -10.69591,39.60832 -6.57226,26.51816 -14.6498,45.12352 -24.23264,55.81943 -13.47985,15.04118 -29.91509,22.56177 -49.301532,22.56177 -12.47717,0 -24.14901,-3.53576 -35.01301,-10.61228 -10.86316,-7.07402 -19.13556,-17.26817 -24.81802,-30.58412 -5.68247,-13.31177 -8.52328,-29.3849 -8.52328,-48.21522 0,-30.75053 6.74285,-53.897686 20.22188,-69.440624 13.48236,-15.542103 31.47641,-23.702438 53.98131,-24.483515 l 2.17263,49.468789 c -12.58923,2.11744 -21.6427,6.6584 -27.15791,13.62035 -5.51521,6.96447 -8.2724,17.4095 -8.2724,31.33593 0,14.37299 2.95288,25.62753 8.85695,33.7586 3.78915,5.2384 8.85779,7.85509 15.20843,7.85509 5.79453,0 10.75362,-2.44944 14.87393,-7.35333 5.238402,-6.23775 10.695912,-21.39182 16.378372,-45.4572 5.68163,-24.06622 11.55978,-41.864578 17.63111,-53.396759 6.07384,-11.531345 14.37299,-20.556385 24.90165,-27.074284 10.52865,-6.517898 23.53769,-9.776848 39.02376,-9.776848 14.03849,0 27.18634,3.901206 39.44106,11.6986 12.25807,7.799902 21.3659,18.830321 27.32517,33.090419 5.95843,14.263442 8.94058,32.033372 8.94058,53.312292 0,30.97549 -7.15765,54.76156 -21.47545,71.36154 -14.31362,16.605 -35.17775,26.51984 -62.58655,29.74952 z"
     id="path40"
     style="fill:url(#linearGradient927);fill-opacity:1;stroke-width:0.836271" /><path
     d="m 180.46578,167.7031 3.14606,-0.56365 c 15.67256,-2.81155 26.69712,-8.42376 33.57545,-16.47371 v 0 c 6.92098,-8.10012 10.51946,-19.10796 10.53284,-33.59636 v 0 c 0.003,-15.47688 -3.29658,-26.62103 -9.3077,-33.79456 v 0 C 212.1036,75.79019 205.37245,72.44343 197.42453,72.40245 v 0 c -5.123,0.0201 -9.11954,1.43588 -12.56832,4.29091 v 0 c -3.31247,2.73461 -6.69185,8.14612 -9.56026,16.27301 v 0 c -1.91422,5.51604 -5.49764,18.75171 -10.60893,39.30893 v 0 c -6.66341,26.79162 -14.77775,45.81679 -25.01455,57.29796 v 0 c -13.99416,15.6826 -31.58597,23.75847 -51.881442,23.71415 v 0 c -13.13447,0.01 -25.53889,-3.75821 -36.90298,-11.17259 v 0 c -11.47782,-7.46455 -20.21685,-18.28507 -26.1134,-32.12703 v 0 c -5.91244,-13.85953 -8.79925,-30.40014 -8.80092,-49.575 v 0 c 0.003,-31.22052 6.82983,-55.267498 21.06985,-71.710265 v 0 c 14.07445,-16.283038 33.21335,-24.910013 56.47675,-25.676037 v 0 l 3.43038,-0.117915 2.45697,55.956587 -3.01894,0.50845 c -12.09416,2.03883 -20.23024,6.2988 -25.01789,12.35424 v 0 c -4.81191,6.03871 -7.53313,15.68761 -7.5231,29.18503 v 0 c -0.003,13.92057 2.87008,24.40658 8.19964,31.72813 v 0 c 3.30745,4.4498 7.01548,6.35065 12.40107,6.42257 v 0 c 4.78932,-0.0485 8.56592,-1.84733 12.22127,-6.11733 v 0 c 2.14336,-2.51717 4.775112,-7.60839 7.416052,-14.99016 v 0 c 2.66269,-7.38846 5.42322,-17.08753 8.24396,-29.03618 v 0 C 118.05653,84.69899 123.9581,66.7133 130.26776,54.704444 v 0 c 6.32472,-12.023908 15.08466,-21.5666 26.14184,-28.403954 v 0 c 11.18764,-6.927672 24.88827,-10.300354 40.84767,-10.297009 v 0 c 14.68326,-0.0084 28.5478,4.114455 41.30177,12.240503 v 0 c 12.86018,8.170371 22.47479,19.844718 28.66069,34.678498 v 0 c 6.19259,14.832108 9.20484,33.047768 9.20819,54.646988 v 0 c 0.003,31.47641 -7.27891,56.1807 -22.3159,73.62281 v 0 c -14.96926,17.38608 -36.80681,27.64797 -64.80518,30.92782 v 0 l -3.5115,0.41312 z m 8.43798,50.97826 3.44627,-0.33535 z m 3.09922,-3.89786 c 25.05469,-3.57841 43.8064,-12.98479 56.86311,-28.11461 v 0 c 13.59693,-15.75786 20.62914,-38.62402 20.63415,-69.09859 v 0 c 0.003,-20.95863 -2.94869,-38.2845 -8.6738,-51.977603 v 0 C 255.09463,51.906281 246.49191,41.518955 234.83847,34.089521 v 0 C 223.08301,26.621618 210.65183,22.94286 197.25644,22.932825 v 0 c -15.01107,0.005 -27.32768,3.149398 -37.19902,9.25836 v 0 c -9.9993,6.197606 -17.8385,14.705831 -23.66063,25.742939 v 0 C 130.5638,68.99214 124.70823,86.60401 119.0726,110.51301 v 0 c -2.86172,12.11841 -5.67159,22.02739 -8.46808,29.79216 v 0 c -2.8174,7.77231 -5.53445,13.37784 -8.62949,17.09757 v 0 c -4.583602,5.53695 -10.726852,8.63618 -17.526572,8.59018 v 0 c -7.31319,0.0703 -13.74496,-3.26229 -18.01161,-9.28428 v 0 c -6.48361,-8.94476 -9.5151,-20.96867 -9.51844,-35.79409 v 0 c 0.01,-14.35459 2.80318,-25.59659 9.02169,-33.48597 v 0 c 5.75355,-7.25215 14.67489,-11.9152 26.28066,-14.32115 v 0 l -1.88746,-42.970128 c -20.09978,1.447586 -35.85346,9.090269 -48.058,23.10534 v 0 C 29.558118,67.88408 22.899728,90.13224 22.903068,120.41279 v 0 c -0.002,18.48578 2.79315,34.09144 8.24396,46.85544 v 0 c 5.47005,12.78826 13.2733,22.35688 23.52181,29.0412 v 0 c 10.36391,6.73784 21.30484,10.04111 33.12303,10.05031 v 0 c 18.477412,-0.0426 33.756932,-7.00963 46.721642,-21.40939 v 0 c 8.92971,-9.91148 16.97296,-28.09537 23.45156,-54.34341 v 0 c 5.14223,-20.66176 8.68802,-33.8322 10.79375,-39.93279 v 0 c 3.13769,-8.77834 6.83401,-15.23185 11.65595,-19.2978 v 0 c 4.68479,-3.937166 10.54873,-5.922474 17.0106,-5.901568 v 0 c 10.10132,-0.04265 19.1389,4.691482 26.30658,13.360268 v 0 c 7.47627,8.98407 10.91167,21.84759 10.91752,38.23433 v 0 c 0.0117,15.59646 -3.96141,28.48507 -12.19701,38.09968 v 0 c -7.74388,9.04846 -19.3739,15.01107 -34.47696,18.1797 v 0 z"
     id="path42"
     style="stroke-width:0.836271" /></g>
<g
   id="g57"
   transform="matrix(0.8362713,0,0,0.8362713,-107.00606,-461.2146)">
	<path
   fill="#8461a9"
   d="M 698.208,301.772"
   id="path163" />
	<path
   d="M 698.208,301.772"
   id="path160" />
</g></svg>
