<?xml version="1.0" encoding="UTF-8" standalone="no"?>
<!-- Generator: Adobe Illustrator 13.0.0, SVG Export Plug-In . SVG Version: 6.00 Build 14948)  -->

<svg
   version="1.2"
   id="Layer_1"
   x="0px"
   y="0px"
   width="1476.9066"
   height="490.04697"
   viewBox="0 0 1476.9066 490.04696"
   xml:space="preserve"
   sodipodi:docname="system_color.svg"
   inkscape:version="1.1.2 (0a00cf5339, 2022-02-04)"
   xmlns:inkscape="http://www.inkscape.org/namespaces/inkscape"
   xmlns:sodipodi="http://sodipodi.sourceforge.net/DTD/sodipodi-0.dtd"
   xmlns="http://www.w3.org/2000/svg"
   xmlns:svg="http://www.w3.org/2000/svg"
   xmlns:ns="ns_sfw;"><defs
   id="defs51">
	

	

		
		
	
		
		
	
	

		
		
	
	
	

		
		
	
		
		
	
	
	

		
		
	
		
		
	
	

		
		
	
	

		
		
	
		
		
	</defs><sodipodi:namedview
   id="namedview49"
   pagecolor="#ffffff"
   bordercolor="#666666"
   borderopacity="1.0"
   inkscape:pageshadow="2"
   inkscape:pageopacity="0.0"
   inkscape:pagecheckerboard="0"
   showgrid="false"
   inkscape:zoom="0.42075438"
   inkscape:cx="939.97833"
   inkscape:cy="-98.632366"
   inkscape:window-width="1920"
   inkscape:window-height="996"
   inkscape:window-x="0"
   inkscape:window-y="0"
   inkscape:window-maximized="1"
   inkscape:current-layer="Layer_1"
   fit-margin-top="0"
   fit-margin-left="0"
   fit-margin-right="0"
   fit-margin-bottom="0"
   width="1476.9066px" />
<metadata
   id="metadata2">
	<ns:sfw>
		<ns:slices />
		<ns:sliceSourceBounds
   x="335.746"
   y="265.626"
   width="1249.505"
   height="547.75"
   bottomLeftOrigin="true" />
	</ns:sfw>
</metadata>




<path
   id="path181"
   style="stroke-width:0.836271"
   d="m 396.16826,0.01082253 c -14.36908,0.121647 -28.9194,2.74649397 -41.85454,9.18627997 -17.59011,8.7602225 -31.70621,23.9070985 -39.98222,41.6587785 -0.2617,0.53059 -0.111,-0.982738 -0.19434,-1.336097 -0.63003,-14.363023 -1.26198,-28.725962 -1.89077,-43.0890395 -9.98906,0.40148 -20.04996,0.28056 -30.01953,1.492187 -18.17949,2.2100175 -35.75599,9.8874645 -49.36442,22.2029155 -9.87355,8.877294 -17.62859,20.029491 -22.75374,32.264716 -6.65339,15.830147 -9.32447,33.046057 -9.96701,50.120597 -0.61355,17.46957 0.67283,35.17609 5.69405,51.98986 3.92707,13.26146 10.32515,25.90179 19.45308,36.35185 2.80671,3.22102 5.86619,6.22311 9.15288,8.95287 -10.09635,0 -20.19271,1e-5 -30.28907,0 0,36.22722 0,72.45443 0,108.68165 36.8231,9.67719 73.6444,19.3612 110.4668,29.04101 -36.82218,9.79784 -73.64504,19.59315 -110.46679,29.39258 0,36.15365 0,72.30729 0,108.46094 94.64388,0 189.28776,0 283.93164,0 0,-28.29623 0,-56.59245 0,-84.88868 -18.34375,10e-6 -36.6875,0 -55.03125,0 18.34368,-4.61159 36.6879,-9.22104 55.03125,-13.83398 0,-25.98828 0,-51.97656 0,-77.96484 -18.51253,-4.66734 -37.02472,-9.33604 -55.53711,-14.00391 18.51237,0 37.02474,0 55.53711,0 0,-28.29492 0,-56.58984 0,-84.88477 -9.92969,0 -19.85938,1e-5 -29.78906,0 9.91545,-9.04977 17.83377,-20.24539 23.15123,-32.56746 7.00859,-15.97381 10.04895,-33.42363 10.7598,-50.776 0.61267,-14.43382 -0.13376,-28.95378 -2.61899,-43.19426 C 486.96257,68.550729 482.09855,54.068488 473.964,41.448582 466.92272,30.462369 457.39191,21.102136 446.31078,14.215175 431.39999,4.8542945 413.79662,-0.26809747 396.16826,0.01082253 Z M 913.52178,8.7647285 c -31.28155,0.313386 -62.79381,5.1180085 -91.96289,16.7167975 -7.1508,2.850953 -14.15247,6.090575 -20.88477,9.828125 -15.68866,-7.627797 -32.68771,-12.612364 -49.9414,-14.896484 -28.26759,-4.16984 -56.92099,-3.732167 -85.4168,-3.751811 -50.93073,0.0012 -101.86146,0.0026 -152.79219,0.0038 0,154.996094 0,309.992194 0,464.988284 63.06373,-0.009 126.1278,0.041 189.19129,-0.0829 21.72261,-0.41234 43.57145,-2.01745 64.71788,-7.25813 11.74393,-2.9778 23.14419,-7.22028 34.1338,-12.3035 26.17454,14.39818 55.44589,22.72019 85.08819,25.8252 22.34659,2.41023 44.96376,2.27403 67.28715,-0.32167 16.20368,-1.96919 32.24518,-5.44607 47.70866,-10.69689 25.956,9.26169 53.6222,12.81544 81.0792,13.19085 22.5059,0.31929 45.0986,-1.21918 67.204,-5.57418 22.7866,-4.57584 45.1497,-12.57132 64.5382,-25.57059 15.444,-10.32674 28.8441,-23.7417 38.947,-39.3467 12.2501,-18.6345 20.5041,-39.98681 23.2818,-62.14993 1.302,-10.02535 1.4836,-20.17238 0.8597,-30.25596 -1.1871,-20.73442 -5.9097,-41.51785 -15.7373,-59.92607 -11.187,-21.05425 -28.2528,-38.81572 -48.4558,-51.40188 -14.3528,-8.96608 -30.1418,-15.32473 -46.0809,-20.85529 -9.3244,-3.2119 -18.7675,-6.06706 -28.2512,-8.7665 -3.954,-20.5317 -10.269,-40.65764 -19.3574,-59.50781 3.9686,2.1418 7.4535,5.15747 10.0998,8.81287 0.812,1.06871 1.7158,2.43373 2.4536,3.68891 4.3294,7.36256 6.619,15.71475 8.1868,24.05291 0.2106,1.1459 0.4682,2.54358 0.6754,3.79012 0.5325,2.93897 0.9015,5.89418 1.4906,8.82299 1.1989,3.90112 5.5148,6.38554 9.4984,5.75452 37.9908,-1.31331 75.9816,-2.62653 113.9723,-3.9399 -0.3798,-16.28441 -0.5091,-32.71645 -3.9059,-48.71924 -4.4914,-22.25287 -14.0184,-43.6033 -28.3536,-61.269894 C 1218.3359,49.60099 1199.328,35.251311 1178.0347,26.2439 1154.5208,16.08514 1128.9726,11.487116 1103.5159,9.9135615 c -18.085,-1.100595 -36.2741,-0.866235 -54.2935,1.0882995 -16.493,1.834851 -32.8551,5.263456 -48.4975,10.850759 C 972.76645,12.204176 943.01498,8.4654345 913.52178,8.7647285 Z M 398.01201,88.41707 c 3.54559,0.27769 6.38505,2.84595 8.44665,5.55218 3.3248,4.5377 4.34334,10.25269 4.89792,15.72792 0.14111,1.34381 0.23918,2.93884 0.29125,4.12455 0.2136,6.75632 -0.18479,13.71903 -2.77144,20.04446 -1.84183,4.62229 -5.23697,8.57677 -9.50896,11.12274 -6.04917,3.67423 -13.02905,5.39933 -19.92763,6.65308 -1.23832,0.229 -2.47927,0.44346 -3.7188,0.6657 4.71331,-15.49757 8.02383,-31.37571 12.53742,-46.92959 1.1434,-4.01481 2.37597,-8.15698 4.14084,-12.02374 0.76798,-1.55662 1.61293,-3.1253 2.79049,-4.40605 0.80214,-0.60993 1.87063,-0.53419 2.82226,-0.53125 z m -99.46875,9.59766 c -2.76441,11.07124 -5.27722,22.23349 -9.01367,33.03125 -0.49465,1.46275 -1.12515,3.1067 -1.70508,4.62695 -0.25098,0.61939 -0.61231,1.54223 -0.93379,2.26534 -0.43923,1.03407 -0.88764,1.95536 -1.45984,2.98735 -0.29149,0.5181 -0.60288,1.02485 -0.93645,1.51684 -2.90949,-4.51314 -3.8434,-9.94695 -4.35843,-15.20118 -0.10103,-1.04611 -0.15902,-2.06667 -0.20602,-2.98046 -0.21275,-5.65358 0.0374,-11.38482 1.40655,-16.89401 0.79573,-3.00558 2.22857,-6.05492 4.92197,-7.79792 3.53148,-2.3959 7.7739,-3.40928 11.9,-4.24361 0.60694,-0.1155 1.44732,-0.44945 0.94232,0.47567 -0.18586,0.73793 -0.37171,1.47585 -0.55756,2.21378 z m 611.2168,25.42187 c -4.39609,23.05285 -2.61931,47.26374 5.15013,69.41165 5.25736,14.87379 13.40609,28.6732 23.62592,40.67378 9.53414,11.32314 20.83187,21.19639 33.51806,28.84714 13.19157,8.04679 27.45986,14.15655 41.94223,19.46197 -0.4983,3.70477 -1.1412,7.54669 -1.8379,11.11914 -0.3213,1.60168 -0.6451,3.20284 -1.0117,4.79492 -0.154,-0.86453 -0.3074,-1.72916 -0.461,-2.59375 -35.32027,3.34379 -70.64059,6.68749 -105.9609,10.03125 3.76044,-25.94533 4.11525,-52.27437 2.77325,-78.42136 -1.41024,-25.55173 -4.98689,-51.12584 -12.65272,-75.59961 -2.69009,-8.52638 -5.87067,-16.89908 -9.5424,-25.0513 6.47447,-2.03022 13.16431,-3.34197 19.91015,-4.04492 0.87931,-0.0865 2.04619,-0.19905 3.03804,-0.27068 0.62054,-0.0548 1.24263,-0.0873 1.86431,-0.1258 -0.11849,0.58919 -0.23698,1.17838 -0.35547,1.76757 z m -253.10938,4.40821 c 10.26329,0.0571 20.61181,0.12635 30.81836,0.45508 8.99501,0.31943 17.8831,0.7753 26.81836,1.75585 -11.67832,24.88582 -17.94003,52.00123 -20.92064,79.23595 -1.90319,17.55869 -2.45036,35.25 -2.05147,52.90215 0.87981,31.8822 5.95978,63.89613 17.48521,93.73819 1.74504,4.50439 3.62489,8.95636 5.65292,13.34051 -12.43238,1.14463 -24.85224,1.17362 -37.33985,1.20735 -13.18619,10e-4 -26.37239,0.002 -39.55859,0.004 6.5e-4,-80.87956 10e-4,-161.75912 0.002,-242.63867 6.36459,0 12.72917,0 19.09375,0 z m -288.16211,81.96093 c -8.90885,-0.004 -17.86458,0.008 -26.74414,-0.006 8.91054,-7.42949 16.30334,-16.64394 21.69255,-26.91428 0.70616,-1.31145 1.38182,-2.63912 2.04183,-3.9744 1.00325,10.29818 2.00651,20.59636 3.00976,30.89453 z m 768.84373,108.6836 c 3.8866,2.04829 7.7264,4.44239 10.5831,7.83464 3.1078,3.98752 4.2086,9.20387 3.9098,14.17641 -0.2683,6.68751 -3.0279,13.16129 -7.3968,18.19871 -5.4804,6.70239 -12.8849,11.7721 -21.0708,14.56988 -1.9816,0.69043 -3.9865,1.31931 -6.0214,1.83364 8.9915,-17.97116 15.4132,-37.17077 19.6191,-56.80469 0.1257,0.0638 0.2513,0.12761 0.377,0.19141 z M 895.22686,348.4327 c 1.89444,9.29004 4.35532,18.46745 7.4414,27.43359 -5.69804,-0.79274 -11.5564,-2.14275 -17.0918,-4.03906 3.58467,-7.96303 6.74704,-16.11724 9.44727,-24.42188 0.0677,0.34245 0.13542,0.6849 0.20313,1.02735 z" /><path
   fill="#db1f26"
   d="M 531.98981,36.130859 H 689.0424 c 35.41274,0 62.4126,2.7137 80.99873,8.134411 24.95935,7.369222 46.34615,20.451014 64.15288,39.23952 17.80672,18.79687 31.35348,41.80688 40.64613,69.02333 9.28679,27.22481 13.93395,60.78856 13.93395,100.70128 0,35.07154 -4.36116,65.30442 -13.06841,90.68024 -10.6449,31.00392 -25.83744,56.09541 -45.57177,75.27111 -14.9057,14.5369 -35.03224,25.87256 -60.38632,34.00613 -18.96663,6.00778 -44.31987,9.00664 -76.05887,9.00664 H 531.98981 Z m 86.10333,72.247991 v 281.56836 h 64.18382 c 24.00768,0 41.33522,-1.35392 51.98932,-4.0601 13.9398,-3.47889 25.50711,-9.37042 34.70776,-17.68295 9.19397,-8.3117 16.69449,-21.98976 22.50741,-41.03249 5.80623,-19.04357 8.71395,-45.00143 8.71395,-77.86104 0,-32.85961 -2.90772,-58.09075 -8.71395,-75.68841 -5.81292,-17.59013 -13.94733,-31.31501 -24.4024,-41.17298 -10.45339,-9.8588 -23.71247,-16.53141 -39.78142,-20.0103 -12.00635,-2.70617 -35.53484,-4.05926 -70.57712,-4.05926 h -38.62737 z"
   id="path4"
   style="stroke-width:0.836271;fill:#ffffff" /><path
   d="M 528.52514,465.65485 V 36.130859 32.664514 H 689.0424 c 35.59588,0.01087 62.82321,2.702829 81.978,8.276577 v 0 c 25.51296,7.525606 47.48348,20.962813 65.68744,40.179489 v 0 c 18.17635,19.1849 31.97901,42.66238 41.40964,70.28693 v 0 c 9.45154,27.71738 14.1171,61.63989 14.11877,101.82105 v 0 c -0.002,35.35421 -4.39042,65.96006 -13.25657,91.80336 v 0 c -10.78288,31.41285 -26.24805,57.01865 -46.42978,76.62586 v 0 c -15.38405,15.00104 -36.01486,26.56918 -61.75947,34.82736 v 0 c -19.496,6.16833 -45.14444,9.16218 -77.10338,9.1672 v 0 H 528.52514 Z m 6.92767,-6.926 h 158.23507 c 31.51823,0.006 56.57543,-2.99719 75.00016,-8.84022 v 0 c 24.97691,-8.01399 44.59667,-19.11549 59.02988,-33.19161 v 0 c 19.28274,-18.73917 34.20266,-43.31885 44.71041,-73.91217 v 0 c 8.55004,-24.91001 12.88109,-54.76908 12.87941,-89.55378 v 0 c 0.003,-39.64762 -4.62458,-72.85177 -13.74746,-99.58402 v 0 C 862.40562,126.8387 849.11392,104.2945 831.67934,85.88649 v 0 C 814.26901,67.526992 793.46425,54.799779 769.07021,47.589448 v 0 c -18.0275,-5.268509 -44.79988,-8.003116 -80.02698,-7.994753 v 0 H 535.45365 V 458.72885 Z m 79.17482,-65.31864 v -285.03136 -3.46551 h 42.09204 c 35.16856,0.0159 58.70625,1.32047 71.31137,4.13787 v 0 c 16.57239,3.58258 30.47121,10.5412 41.42386,20.87584 v 0 c 10.97606,10.35053 19.37139,24.61982 25.31477,42.60718 v 0 c 5.99272,18.19978 8.87953,43.70271 8.88873,76.77556 v 0 c -0.005,33.06701 -2.90521,59.29833 -8.86448,78.87126 v 0 c -5.93084,19.38142 -13.60028,33.61476 -23.49922,42.59297 v 0 c -9.67064,8.73987 -21.79992,14.88563 -36.17626,18.46821 v 0 c -11.22778,2.83747 -28.68745,4.15794 -52.84315,4.16798 v 0 z m 6.92767,-6.92767 h 60.71999 c 23.86133,0.0109 41.05507,-1.3765 51.15053,-3.95724 v 0 c 13.49073,-3.37101 24.49439,-9.00915 33.22423,-16.89184 v 0 c 8.49066,-7.64854 15.82141,-20.76964 21.51809,-39.47284 v 0 c 5.65403,-18.51672 8.56927,-44.19778 8.56175,-76.84999 v 0 c 0.0109,-32.65054 -2.91942,-57.60989 -8.53917,-74.60293 v 0 c -5.68246,-17.19373 -13.55596,-30.37504 -23.49002,-39.73961 v 0 c -9.9533,-9.38045 -22.57264,-15.76873 -38.16575,-19.15061 v 0 c -11.37998,-2.58742 -34.89844,-3.98985 -69.81528,-3.97313 v 0 h -35.16269 z m -3.46216,-274.63902 v -3.46384 z"
   id="path6"
   style="stroke-width:0.836271" /><path
   fill="#8461a9"
   d="m 859.14583,380.9782 c 17.10928,10.2669 36.69977,15.40077 58.76897,15.40077 34.40838,0 62.65177,-12.38768 84.7201,-37.1664 22.0667,-24.77454 33.108,-61.94931 33.108,-111.51176 0,-48.97456 -10.7477,-85.50791 -32.2257,-109.60841 -21.48799,-24.09298 -50.01989,-36.14699 -85.60157,-36.14699 -35.58083,0 -64.26912,12.2012 -86.04144,36.58771 -21.78069,24.3865 -32.66727,61.16739 -32.66727,110.33596 0,6.54633 0.20573,12.87858 0.61383,18.99757 -1.27364,27.38956 -3.74817,99.80229 -55.90139,115.02494 -22.19632,-35.03057 -33.29113,-78.73243 -33.29113,-131.10727 0,-43.5229 6.49532,-80.05709 19.49349,-109.60088 9.69489,-21.75811 22.93306,-41.28922 39.7095,-58.585822 16.77895,-17.288237 35.15099,-30.115802 55.13035,-38.474334 26.56834,-11.272937 57.21601,-16.910242 91.93465,-16.910242 62.83826,0 113.11738,19.531116 150.84248,58.592513 37.7175,39.062235 56.5821,93.371365 56.5821,162.935755 0,68.99238 -18.72,122.96951 -56.1515,161.93139 -37.4365,38.96188 -87.4706,58.4378 -150.11568,58.4378 -45.62947,0 -84.53198,-10.03358 -116.70919,-30.10242 25.40927,-13.28835 47.42829,-39.18432 57.8014,-59.02988 z"
   id="path12"
   style="stroke-width:0.836271;fill:#ffffff" /><path
   d="m 918.05362,473.5735 c -46.12622,0.006 -85.7337,-10.15986 -118.54146,-30.6276 v 0 l -5.1347,-3.20542 5.36133,-2.80319 c 24.527,-12.76651 46.3403,-38.34805 56.33709,-57.56389 v 0 l 1.70098,-3.25644 3.15023,1.88997 c 16.54312,9.91985 35.45038,14.89984 56.98854,14.90737 v 0 c 33.57964,-0.0477 60.63469,-11.93526 82.13187,-36.00817 v 0 c 21.2814,-23.87053 32.2324,-60.12205 32.2307,-109.20616 v 0 c 0,-48.50541 -10.6658,-84.12304 -31.3467,-107.30364 v 0 c -20.8692,-23.33866 -48.20022,-34.9436 -83.01587,-34.98876 v 0 c -34.8031,0.0452 -62.29468,11.78808 -83.45903,35.43198 v 0 c -20.98707,23.47246 -31.78919,59.33178 -31.78668,108.02702 v 0 c 0,6.47274 0.20322,12.72889 0.60714,18.76593 v 0 l 0.0125,0.18983 -0.009,0.20322 c -0.47918,10.26188 -1.12478,27.05923 -4.55433,44.9086 v 0 c -3.44293,17.85188 -9.63218,36.8528 -21.5574,51.59292 v 0 c -7.94207,9.81532 -18.52509,17.68296 -32.2784,21.68703 v 0 l -2.50129,0.72839 -1.39407,-2.20023 c -22.6238,-35.70042 -33.83318,-80.10977 -33.829,-132.96045 v 0 c 0.002,-43.8641 6.53546,-80.87078 19.79203,-111.01167 v 0 c 9.8588,-22.12439 23.33699,-42.008415 40.38772,-59.587674 v 0 c 17.06077,-17.580095 35.83005,-30.704537 56.26266,-39.251229 v 0 c 27.07261,-11.487023 58.1978,-17.186212 93.28858,-17.184539 v 0 c 63.53236,-0.03596 114.93964,19.853917 153.33364,59.649559 v 0 c 38.4702,39.823243 57.5748,95.182723 57.5547,165.340873 v 0 c 0.019,69.58697 -18.939,124.61195 -57.1173,164.33233 v 0 c -38.0729,39.66769 -89.18414,59.50237 -152.4489,59.50154 v 0 c -0.0544,0.002 -0.11206,0.002 -0.16558,0.002 z m 0,-6.92767 c 61.9493,-0.036 110.85028,-19.15145 147.61778,-57.37406 v 0 c 36.6855,-38.20338 55.1638,-91.1335 55.1855,-159.53213 v 0 c -0.022,-68.96981 -18.6471,-122.22774 -55.6103,-160.528133 v 0 C 1028.188,50.883521 979.03787,31.711165 916.89622,31.676878 v 0 c -34.34733,0 -64.51666,5.574584 -90.59745,16.640962 v 0 c -19.51021,8.163681 -37.48503,20.695206 -53.98048,37.689912 v 0 c -16.50298,17.015608 -29.49947,36.192988 -39.02627,57.568918 v 0 c -12.74728,28.96342 -19.2033,65.0226 -19.19912,108.20681 v 0 c 0.003,50.76585 10.5111,93.01679 31.34512,126.99533 v 0 c 11.09565,-3.77493 19.61224,-10.32461 26.34757,-18.61206 v 0 c 7.21702,-8.89625 12.30071,-19.8305 15.8557,-31.25731 v 0 c 7.09242,-22.74491 8.08089,-47.2602 8.70977,-60.99261 v 0 c -0.40392,-6.14409 -0.60964,-12.49389 -0.60964,-19.04942 v 0 c 0.002,-49.64023 10.97355,-87.3452 33.54702,-112.6424 v 0 c 22.38113,-25.13163 52.26528,-37.789431 88.62636,-37.744272 v 0 c 36.34769,-0.04516 66.07965,12.458772 88.1882,37.306902 v 0 c 22.2732,25.01873 33.1004,62.46946 33.1021,111.91317 v 0 c 0,50.03829 -11.1325,88.13797 -33.9836,113.81401 v 0 c -22.63868,25.48621 -52.07208,38.37398 -87.3067,38.32799 v 0 c -21.28394,0.008 -40.50313,-4.68228 -57.43093,-14.09201 v 0 c -10.48685,18.51923 -29.59564,40.77575 -52.25023,54.35345 v 0 c 30.54564,17.65286 67.07397,26.53657 109.81998,26.54158 z"
   id="path14"
   style="stroke-width:0.836271" /><path
   fill="#fdc20f"
   d="m 1035.0488,268.45121 c -31.458,-9.88975 -54.4655,-21.39684 -69.02499,-34.51292 -26.10253,-23.51344 -39.14836,-52.1758 -39.14836,-85.99545 0,-21.76563 6.1399,-42.12382 18.4172,-61.074565 12.27981,-18.943218 29.97029,-33.378933 53.08065,-43.291257 23.1037,-9.912323 50.9992,-14.868067 83.6823,-14.868067 53.3658,0 93.5353,11.821531 120.5109,35.466266 26.9681,23.644735 41.1345,55.206453 42.4934,94.678453 l -86.1016,2.9696 c -3.6654,-21.9747 -11.528,-37.77855 -23.5904,-47.4124 -12.064,-9.62632 -30.1551,-14.443241 -54.2706,-14.443241 -0.5779,0 -1.1533,0.0033 -1.7253,0.0084 -24.0737,0.234161 -42.991,5.388101 -56.7443,15.455971 -9.0778,6.61908 -13.6087,15.46349 -13.6087,26.55161 0,10.12139 4.2533,18.78098 12.7665,25.97124 0.2585,0.21827 0.5244,0.4357 0.8004,0.65397 14.3955,35.8844 14.7401,72.74807 12.4629,99.84243 z m 85.9202,-66.83815 c 31.6704,8.34181 55.8328,16.90857 72.4763,25.69862 20.0245,10.57716 35.6904,25.04465 47.0093,43.38324 11.3189,18.34863 16.9805,41.01158 16.9805,67.99639 0,24.46428 -6.7813,47.37309 -20.3431,68.72979 -13.5619,21.35753 -32.7434,37.22243 -57.5414,47.60558 -24.7971,10.38482 -55.694,15.58224 -92.699,15.58224 -53.8609,0 -95.22032,-12.47215 -124.08339,-37.41478 -28.87059,-24.9443 -46.11451,-61.29952 -51.72673,-109.05981 l 83.62881,-7.91949 c 5.03435,28.09119 15.24691,48.72033 30.64931,61.89662 15.4008,13.17462 36.1771,19.75524 62.3265,19.75524 27.6965,0 48.5723,-5.86059 62.6141,-17.59766 14.0419,-11.73037 21.0682,-25.44773 21.0682,-41.1504 0,-10.08292 -2.9529,-18.65805 -8.8444,-25.73959 -5.8999,-7.07569 -16.191,-13.22814 -30.8818,-18.47156 -2.4921,-0.86722 -5.772,-1.89918 -9.8438,-3.10173 3.6336,-28.63226 3.7173,-57.58146 -0.7894,-90.1927 z"
   id="path20"
   style="stroke-width:0.836271;fill:#ffffff" /><path
   d="m 960.50359,435.81418 c -29.65167,-25.60077 -47.24097,-62.9269 -52.90336,-111.2776 v 0 l -0.41228,-3.51736 90.32984,-8.55505 0.56198,3.13852 c 4.95153,27.60866 14.89653,47.39651 29.49273,59.87452 v 0 c 14.6423,12.51814 34.4787,18.9106 60.0744,18.92398 v 0 c 27.2407,0.006 47.256,-5.78783 60.393,-16.79149 v 0 c 13.4506,-11.30053 19.7837,-23.86551 19.8264,-38.49022 v 0 c -0.02,-9.41725 -2.6903,-17.05994 -8.0408,-23.52348 v 0 c -5.2367,-6.32137 -15.0077,-12.31409 -29.359,-17.41869 v 0 c -2.4093,-0.83627 -5.649,-1.8582 -9.6865,-3.05156 v 0 l -2.8274,-0.83376 0.3713,-2.92193 c 1.7193,-13.55763 2.6326,-27.17213 2.6326,-41.22483 v 0 c 0,-15.3322 -1.0897,-31.18958 -3.4196,-48.05717 v 0 l 3.4321,-0.47333 -3.4321,0.47333 -0.7108,-5.14725 5.0243,1.32298 c 31.8201,8.3878 56.1699,16.99304 73.2114,25.9863 v 0 c 20.5204,10.83138 36.7014,25.75799 48.3407,44.62762 v 0 c 11.7253,19.0051 17.5006,42.35797 17.4964,69.81443 v 0 c 0.01,25.10654 -6.9937,48.73204 -20.8833,70.58632 v 0 c -13.9306,21.96132 -33.757,38.333 -59.1269,48.94278 v 0 c -25.37,10.61897 -56.7118,15.84734 -94.0371,15.85152 v 0 c -54.3626,0.002 -96.64282,-12.59425 -126.34801,-38.25858 z m 4.52924,-5.24425 c 28.01927,24.22343 68.45797,36.56847 121.81797,36.57348 v 0 c 36.6847,0.002 67.135,-5.16397 91.3601,-15.3138 v 0 c 24.2243,-10.15651 42.7628,-25.5138 55.9558,-46.26671 v 0 c 13.2331,-20.85911 19.7945,-43.05124 19.8037,-66.87327 v 0 c -0.01,-26.51147 -5.5528,-48.4845 -16.4645,-66.17665 v 0 c -10.9995,-17.81007 -26.151,-31.81594 -45.6788,-42.13971 v 0 c -15.379,-8.12856 -37.6799,-16.20276 -66.7495,-24.0796 v 0 c 1.905,15.25944 2.8057,29.76457 2.8057,43.84905 v 0 c 0,13.34438 -0.8079,26.31077 -2.3307,39.18015 v 0 c 2.84,0.86219 5.2351,1.63073 7.2137,2.31814 v 0 c 15.0027,5.37388 25.8157,11.68773 32.3812,19.51941 v 0 c 6.4293,7.69955 9.6665,17.20461 9.6456,27.95738 v 0 c 0.041,16.77812 -7.6795,31.64618 -22.3117,43.8064 v 0 c -14.9467,12.47132 -36.6839,18.39965 -64.8353,18.40299 v 0 c -26.7055,0.0159 -48.421,-6.7554 -64.5785,-20.58649 v 0 c -15.6116,-13.36111 -25.90857,-33.76947 -31.21973,-60.78103 v 0 l -76.92776,7.28475 c 5.97683,45.41539 22.724,79.64648 50.11272,103.32551 z m 68.97737,-158.81461 c -31.7273,-9.98759 -55.13457,-21.60089 -70.30537,-35.24299 v 0 c -26.74312,-24.03025 -40.33671,-53.84667 -40.29238,-88.56949 v 0 c -0.0117,-22.42043 6.359,-43.50701 18.97332,-62.959521 v 0 C 955.05193,65.427115 973.36962,50.521415 997.00683,40.39417 v 0 c 23.65307,-10.147316 52.02027,-15.149055 85.04797,-15.150727 v 0 c 53.8416,0.0017 94.9226,11.914357 122.7956,36.326789 v 0 c 27.7065,24.243505 42.3262,56.940038 43.6717,97.163018 v 0 l 0.1188,3.46216 -92.5995,3.19372 -0.5001,-2.99552 c -3.5851,-21.48381 -11.1751,-36.37362 -22.3326,-45.27573 v 0 c -11.1408,-8.91716 -28.4266,-13.69645 -52.1106,-13.68725 v 0 c -0.5662,0 -1.129,0.003 -1.691,0.009 v 0 c -23.6171,0.22746 -41.7709,5.29025 -54.7364,14.78945 v 0 c -8.2891,6.13322 -12.1151,13.62036 -12.1862,23.75262 v 0 c 0.047,9.12455 3.6562,16.60333 11.5389,23.32779 v 0 c 0.2266,0.19067 0.465,0.38468 0.7142,0.58288 v 0 l 0.7209,0.57201 0.3428,0.85467 c 10.6892,26.65196 13.755,53.72039 13.7567,77.02476 v 0 c 0,8.72817 -0.4332,16.93199 -1.0571,24.39487 v 0 l -0.3604,4.31433 z m 1.0378,-3.30495 1.0395,-3.30411 z M 999.73976,46.759031 c -22.5835,9.697402 -39.64678,23.66146 -51.54107,41.990854 v 0 C 936.25841,107.20138 930.34848,126.83117 930.33928,147.942 v 0 c 0.0426,32.91732 12.53989,60.42395 38.00184,83.42141 v 0 c 13.32097,12.02307 34.53888,22.9615 63.58838,32.45067 v 0 c 0.4257,-6.09809 0.6991,-12.62602 0.6991,-19.47007 v 0 c 0,-22.45639 -2.9386,-48.31975 -12.927,-73.61612 v 0 c -0.051,-0.0418 -0.1012,-0.0845 -0.1514,-0.12628 v 0 c -9.1463,-7.65857 -14.0418,-17.49814 -13.995,-28.61888 v 0 c -0.07,-12.04147 5.1656,-22.24481 15.0261,-29.34559 v 0 c 14.5461,-10.63988 34.2278,-15.884975 58.7573,-16.124148 v 0 c 0.5812,-0.0059 1.1674,-0.0092 1.7587,-0.0092 v 0 c 24.5479,0.0092 43.4434,4.864588 56.4324,15.200908 v 0 c 12.3826,9.89894 20.3615,25.59324 24.3129,46.55355 v 0 l 79.5988,-2.74548 c -2.0497,-37.07943 -15.7135,-66.378201 -41.1579,-88.732569 v 0 c -26.0783,-22.877037 -65.3371,-34.60825 -118.2287,-34.606578 v 0 c -0.01,0 -0.01,0 -0.018,0 v 0 c -32.3269,0 -59.7499,4.910585 -82.29744,14.585408 z"
   id="path22"
   style="stroke-width:0.836271" /><g
   id="g32"
   transform="matrix(0.8362713,0,0,0.8362713,215.97543,16.00599)">
	<path
   fill="#8461a9"
   d="M 698.208,301.772"
   id="path28" />
	<path
   d="M 698.208,301.772"
   id="path30" />
</g><path
   fill="#c0bfbf"
   d="M 468.62135,465.91744 H 223.61728 v -74.03593 l 167.1238,-44.45368 -167.1238,-43.95442 v -74.20235 h 245.00407 v 45.95896 H 275.75963 l 192.86172,48.63252 v 47.62984 l -192.86172,48.4661 h 192.86172 z"
   id="path34"
   style="fill:#ffffff;fill-opacity:1;stroke-width:0.836271" /><path
   d="M 220.15344,469.38044 V 389.21715 L 377.19516,347.44623 220.15344,306.14279 v -80.3364 h 251.93175 v 52.88496 H 303.66098 l 168.42421,42.47255 v 53.02712 l -168.32887,42.30279 h 168.32887 v 49.42363 3.46384 H 220.15344 Z m 248.46708,-3.463 v -3.46467 z M 227.08111,300.79985 404.29286,347.40442 227.08111,394.54169 v 67.91108 H 465.15752 V 423.42148 H 275.76047 l -0.84548,-6.82314 190.24169,-47.80879 v -42.23003 l -190.24336,-47.9727 0.84715,-6.82147 189.39705,-0.002 V 232.73322 H 227.08111 Z"
   id="path36"
   style="stroke-width:0.836271" /><path
   fill="#c0bfbf"
   d="m 388.90295,218.68136 -4.67977,-48.1316 c 16.15593,-2.89601 28.02178,-8.77416 35.59756,-17.63111 7.57829,-8.85778 11.36409,-20.80643 11.36409,-35.84844 0,-15.9318 -3.3685,-27.93564 -10.11135,-36.01486 -6.73952,-8.07671 -14.62304,-12.116732 -23.64808,-12.116732 -5.79202,0 -10.72184,1.70014 -14.7903,5.097072 -4.06595,3.40028 -7.60421,9.33279 -10.61228,17.7992 -2.00538,5.79452 -5.56957,18.99674 -10.69591,39.60832 -6.57226,26.51816 -14.6498,45.12352 -24.23264,55.81943 -13.47985,15.04118 -29.91509,22.56177 -49.30153,22.56177 -12.47717,0 -24.14901,-3.53576 -35.01301,-10.61228 -10.86316,-7.07402 -19.13556,-17.26817 -24.81802,-30.58412 -5.68247,-13.31177 -8.52328,-29.3849 -8.52328,-48.21522 0,-30.75053 6.74285,-53.897686 20.22188,-69.440624 13.48236,-15.542103 31.47641,-23.702438 53.98131,-24.483515 l 2.17263,49.468789 c -12.58923,2.11744 -21.6427,6.6584 -27.15791,13.62035 -5.51521,6.96447 -8.2724,17.4095 -8.2724,31.33593 0,14.37299 2.95288,25.62753 8.85695,33.7586 3.78915,5.2384 8.85779,7.85509 15.20843,7.85509 5.79453,0 10.75362,-2.44944 14.87393,-7.35333 5.2384,-6.23775 10.69591,-21.39182 16.37837,-45.4572 5.68163,-24.06622 11.55978,-41.864578 17.63111,-53.396759 6.07384,-11.531345 14.37299,-20.556385 24.90165,-27.074284 10.52865,-6.517898 23.53769,-9.776848 39.02376,-9.776848 14.03849,0 27.18634,3.901206 39.44106,11.6986 12.25807,7.799902 21.3659,18.830321 27.32517,33.090419 5.95843,14.263442 8.94058,32.033372 8.94058,53.312292 0,30.97549 -7.15765,54.76156 -21.47545,71.36154 -14.31362,16.605 -35.17775,26.51984 -62.58655,29.74952 z"
   id="path40"
   style="fill:#ffffff;fill-opacity:1;stroke-width:0.836271" /><path
   d="m 380.46581,167.7031 3.14606,-0.56365 c 15.67256,-2.81155 26.69712,-8.42376 33.57545,-16.47371 v 0 c 6.92098,-8.10012 10.51946,-19.10796 10.53284,-33.59636 v 0 c 0.003,-15.47688 -3.29658,-26.62103 -9.3077,-33.79456 v 0 c -6.30883,-7.48463 -13.03998,-10.83139 -20.9879,-10.87237 v 0 c -5.123,0.0201 -9.11954,1.43588 -12.56832,4.29091 v 0 c -3.31247,2.73461 -6.69185,8.14612 -9.56026,16.27301 v 0 c -1.91422,5.51604 -5.49764,18.75171 -10.60893,39.30893 v 0 c -6.66341,26.79162 -14.77775,45.81679 -25.01455,57.29796 v 0 c -13.99416,15.6826 -31.58597,23.75847 -51.88144,23.71415 v 0 c -13.13447,0.01 -25.53889,-3.75821 -36.90298,-11.17259 v 0 c -11.47782,-7.46455 -20.21685,-18.28507 -26.1134,-32.12703 v 0 c -5.91244,-13.85953 -8.79925,-30.40014 -8.80092,-49.575 v 0 c 0.003,-31.22052 6.82983,-55.267498 21.06985,-71.710265 v 0 c 14.07445,-16.283038 33.21335,-24.910013 56.47675,-25.676037 v 0 l 3.43038,-0.117915 2.45697,55.956587 -3.01894,0.50845 c -12.09416,2.03883 -20.23024,6.2988 -25.01789,12.35424 v 0 c -4.81191,6.03871 -7.53313,15.68761 -7.5231,29.18503 v 0 c -0.003,13.92057 2.87008,24.40658 8.19964,31.72813 v 0 c 3.30745,4.4498 7.01548,6.35065 12.40107,6.42257 v 0 c 4.78932,-0.0485 8.56592,-1.84733 12.22127,-6.11733 v 0 c 2.14336,-2.51717 4.77511,-7.60839 7.41605,-14.99016 v 0 c 2.66269,-7.38846 5.42322,-17.08753 8.24396,-29.03618 v 0 c 5.72679,-24.22092 11.62836,-42.20661 17.93802,-54.215466 v 0 c 6.32472,-12.023908 15.08466,-21.5666 26.14184,-28.403954 v 0 C 367.59727,19.372818 381.2979,16.000136 397.2573,16.003481 v 0 c 14.68326,-0.0084 28.5478,4.114455 41.30177,12.240503 v 0 c 12.86018,8.170371 22.47479,19.844718 28.66069,34.678498 v 0 c 6.19259,14.832108 9.20484,33.047768 9.20819,54.646988 v 0 c 0.003,31.47641 -7.27891,56.1807 -22.3159,73.62281 v 0 c -14.96926,17.38608 -36.80681,27.64797 -64.80518,30.92782 v 0 l -3.5115,0.41312 z m 8.43798,50.97826 3.44627,-0.33535 z m 3.09922,-3.89786 c 25.05469,-3.57841 43.8064,-12.98479 56.86311,-28.11461 v 0 c 13.59693,-15.75786 20.62914,-38.62402 20.63415,-69.09859 v 0 c 0.003,-20.95863 -2.94869,-38.2845 -8.6738,-51.977603 v 0 C 455.09466,51.906281 446.49194,41.518955 434.8385,34.089521 v 0 C 423.08304,26.621618 410.65186,22.94286 397.25647,22.932825 v 0 c -15.01107,0.005 -27.32768,3.149398 -37.19902,9.25836 v 0 c -9.9993,6.197606 -17.8385,14.705831 -23.66063,25.742939 v 0 C 330.56383,68.99214 324.70826,86.60401 319.07263,110.51301 v 0 c -2.86172,12.11841 -5.67159,22.02739 -8.46808,29.79216 v 0 c -2.8174,7.77231 -5.53445,13.37784 -8.62949,17.09757 v 0 c -4.5836,5.53695 -10.72685,8.63618 -17.52657,8.59018 v 0 c -7.31319,0.0703 -13.74496,-3.26229 -18.01161,-9.28428 v 0 c -6.48361,-8.94476 -9.5151,-20.96867 -9.51844,-35.79409 v 0 c 0.01,-14.35459 2.80318,-25.59659 9.02169,-33.48597 v 0 c 5.75355,-7.25215 14.67489,-11.9152 26.28066,-14.32115 v 0 l -1.88746,-42.970128 c -20.09978,1.447586 -35.85346,9.090269 -48.058,23.10534 v 0 C 229.55815,67.88408 222.89976,90.13224 222.9031,120.41279 v 0 c -0.002,18.48578 2.79315,34.09144 8.24396,46.85544 v 0 c 5.47005,12.78826 13.2733,22.35688 23.52181,29.0412 v 0 c 10.36391,6.73784 21.30484,10.04111 33.12303,10.05031 v 0 c 18.47741,-0.0426 33.75693,-7.00963 46.72164,-21.40939 v 0 c 8.92971,-9.91148 16.97296,-28.09537 23.45156,-54.34341 v 0 c 5.14223,-20.66176 8.68802,-33.8322 10.79375,-39.93279 v 0 c 3.13769,-8.77834 6.83401,-15.23185 11.65595,-19.2978 v 0 c 4.68479,-3.937166 10.54873,-5.922474 17.0106,-5.901568 v 0 c 10.10132,-0.04265 19.1389,4.691482 26.30658,13.360268 v 0 c 7.47627,8.98407 10.91167,21.84759 10.91752,38.23433 v 0 c 0.0117,15.59646 -3.96141,28.48507 -12.19701,38.09968 v 0 c -7.74388,9.04846 -19.3739,15.01107 -34.47696,18.1797 v 0 z"
   id="path42"
   style="stroke-width:0.836271" />
<g
   id="g57"
   transform="matrix(0.8362713,0,0,0.8362713,-107.00606,-461.2146)">
	<path
   fill="#8461a9"
   d="M 698.208,301.772"
   id="path163" />
	<path
   d="M 698.208,301.772"
   id="path160" />
</g></svg>
