<?xml version="1.0" encoding="UTF-8" standalone="no"?>
<!-- Generator: Adobe Illustrator 13.0.0, SVG Export Plug-In . SVG Version: 6.00 Build 14948)  -->

<svg
   version="1.1"
   id="Ebene_1"
   x="0px"
   y="0px"
   width="584px"
   height="140px"
   viewBox="-8.038 -8.624 584 140"
   enable-background="new -8.038 -8.624 584 140"
   xml:space="preserve"
   sodipodi:docname="system_color.svg"
   inkscape:version="1.1.2 (0a00cf5339, 2022-02-04)"
   xmlns:inkscape="http://www.inkscape.org/namespaces/inkscape"
   xmlns:sodipodi="http://sodipodi.sourceforge.net/DTD/sodipodi-0.dtd"
   xmlns="http://www.w3.org/2000/svg"
   xmlns:svg="http://www.w3.org/2000/svg"><defs
   id="defs205">
	
	
	
	
	
	

		
		
		
		
		
	
			<linearGradient
   id="SVGID_1_"
   gradientUnits="userSpaceOnUse"
   x1="218.2256"
   y1="-2.6240001"
   x2="218.2256"
   y2="127.376">
				<stop
   offset="0.0051"
   style="stop-color:#FF6F0D"
   id="stop2" />
				<stop
   offset="0.3807"
   style="stop-color:#FF0000"
   id="stop4" />
				<stop
   offset="1"
   style="stop-color:#A80000"
   id="stop6" />
			</linearGradient>
			
			
		
		
		
		
		
		
		
	
			<linearGradient
   id="SVGID_9_"
   gradientUnits="userSpaceOnUse"
   x1="31.705601"
   y1="-2.6240001"
   x2="31.705601"
   y2="127.376">
				<stop
   offset="0.0051"
   style="stop-color:#FF6F0D"
   id="stop107" />
				<stop
   offset="0.3807"
   style="stop-color:#FF0000"
   id="stop109" />
				<stop
   offset="1"
   style="stop-color:#A80000"
   id="stop111" />
			</linearGradient>
			
			
		
			<linearGradient
   id="SVGID_10_"
   gradientUnits="userSpaceOnUse"
   x1="75.613297"
   y1="-2.6240001"
   x2="75.613297"
   y2="127.376">
				<stop
   offset="0.0051"
   style="stop-color:#FF6F0D"
   id="stop120" />
				<stop
   offset="0.3807"
   style="stop-color:#FF0000"
   id="stop122" />
				<stop
   offset="1"
   style="stop-color:#A80000"
   id="stop124" />
			</linearGradient>
			
			
		
			<linearGradient
   id="SVGID_11_"
   gradientUnits="userSpaceOnUse"
   x1="119.5562"
   y1="-2.6240001"
   x2="119.5561"
   y2="127.376">
				<stop
   offset="0.0051"
   style="stop-color:#FF6F0D"
   id="stop133" />
				<stop
   offset="0.3807"
   style="stop-color:#FF0000"
   id="stop135" />
				<stop
   offset="1"
   style="stop-color:#A80000"
   id="stop137" />
			</linearGradient>
			
			
		
			<linearGradient
   id="SVGID_3_"
   gradientUnits="userSpaceOnUse"
   x1="284.5957"
   y1="-2.6240001"
   x2="284.5957"
   y2="127.376">
				<stop
   offset="0.0051"
   style="stop-color:#FF6F0D"
   id="stop28" />
				<stop
   offset="0.3807"
   style="stop-color:#FF0000"
   id="stop30" />
				<stop
   offset="1"
   style="stop-color:#A80000"
   id="stop32" />
			</linearGradient>
			
			
		
			<linearGradient
   id="SVGID_2_"
   gradientUnits="userSpaceOnUse"
   x1="352.207"
   y1="-2.6240001"
   x2="352.207"
   y2="127.376">
				<stop
   offset="0.0051"
   style="stop-color:#FF6F0D"
   id="stop15" />
				<stop
   offset="0.3807"
   style="stop-color:#FF0000"
   id="stop17" />
				<stop
   offset="1"
   style="stop-color:#A80000"
   id="stop19" />
			</linearGradient>
			
			
		
			<linearGradient
   id="SVGID_4_"
   gradientUnits="userSpaceOnUse"
   x1="446.39059"
   y1="-2.6240001"
   x2="446.39059"
   y2="127.376">
				<stop
   offset="0.0051"
   style="stop-color:#FF6F0D"
   id="stop41" />
				<stop
   offset="0.3807"
   style="stop-color:#FF0000"
   id="stop43" />
				<stop
   offset="1"
   style="stop-color:#A80000"
   id="stop45" />
			</linearGradient>
			
			
		
			<linearGradient
   id="SVGID_5_"
   gradientUnits="userSpaceOnUse"
   x1="503.86719"
   y1="-2.6240001"
   x2="503.86719"
   y2="127.376">
				<stop
   offset="0.0051"
   style="stop-color:#FF6F0D"
   id="stop54" />
				<stop
   offset="0.3807"
   style="stop-color:#FF0000"
   id="stop56" />
				<stop
   offset="1"
   style="stop-color:#A80000"
   id="stop58" />
			</linearGradient>
			
			
		
		<linearGradient
   id="SVGID_12_"
   gradientUnits="userSpaceOnUse"
   x1="548.42682"
   y1="-2.6240001"
   x2="548.42682"
   y2="127.376"
   gradientTransform="translate(52.758452,4.3842214)">
			<stop
   offset="0.0051"
   style="stop-color:#FF6F0D"
   id="stop148" />
			<stop
   offset="0.3807"
   style="stop-color:#FF0000"
   id="stop150" />
			<stop
   offset="1"
   style="stop-color:#A80000"
   id="stop152" />
		</linearGradient>
		
		
	
		<linearGradient
   id="SVGID_13_"
   gradientUnits="userSpaceOnUse"
   x1="548.7998"
   y1="-2.6240001"
   x2="548.7998"
   y2="127.376">
			<stop
   offset="0.0051"
   style="stop-color:#FF6F0D"
   id="stop161" />
			<stop
   offset="0.3807"
   style="stop-color:#FF0000"
   id="stop163" />
			<stop
   offset="1"
   style="stop-color:#A80000"
   id="stop165" />
		</linearGradient>
		
		
	
		<linearGradient
   id="SVGID_14_"
   gradientUnits="userSpaceOnUse"
   x1="548.80182"
   y1="-2.6240001"
   x2="548.80182"
   y2="127.376">
			<stop
   offset="0.0051"
   style="stop-color:#FF6F0D"
   id="stop174" />
			<stop
   offset="0.3807"
   style="stop-color:#FF0000"
   id="stop176" />
			<stop
   offset="1"
   style="stop-color:#A80000"
   id="stop178" />
		</linearGradient>
		
		
	
		<linearGradient
   id="SVGID_15_"
   gradientUnits="userSpaceOnUse"
   x1="548.80182"
   y1="-2.6240001"
   x2="548.80182"
   y2="127.376">
			<stop
   offset="0.0051"
   style="stop-color:#FF6F0D"
   id="stop187" />
			<stop
   offset="0.3807"
   style="stop-color:#FF0000"
   id="stop189" />
			<stop
   offset="1"
   style="stop-color:#A80000"
   id="stop191" />
		</linearGradient>
		
		
	<linearGradient
   id="linearGradient1083"
   gradientUnits="userSpaceOnUse"
   x1="75.612801"
   y1="-2.6240001"
   x2="75.612801"
   y2="127.376"><stop
     offset="0.0051"
     style="stop-color:#FF6F0D"
     id="stop81-6" /><stop
     offset="0.3807"
     style="stop-color:#FF0000"
     id="stop83-0" /><stop
     offset="1"
     style="stop-color:#A80000"
     id="stop85-6" /></linearGradient><linearGradient
   id="linearGradient1326"
   gradientUnits="userSpaceOnUse"
   x1="548.42682"
   y1="-2.6240001"
   x2="548.42682"
   y2="127.376"><stop
     offset="0.0051"
     style="stop-color:#FF6F0D"
     id="stop1320" /><stop
     offset="0.3807"
     style="stop-color:#FF0000"
     id="stop1322" /><stop
     offset="1"
     style="stop-color:#A80000"
     id="stop1324" /></linearGradient>
			<linearGradient
   id="SVGID_6_"
   gradientUnits="userSpaceOnUse"
   x1="31.705601"
   y1="-2.6240001"
   x2="31.705601"
   y2="127.376">
				<stop
   offset="0.0051"
   style="stop-color:#FF6F0D"
   id="stop68" />
				<stop
   offset="0.3807"
   style="stop-color:#FF0000"
   id="stop70" />
				<stop
   offset="1"
   style="stop-color:#A80000"
   id="stop72" />
			</linearGradient>
			
			
		<linearGradient
   id="SVGID_10_-0"
   gradientUnits="userSpaceOnUse"
   x1="75.613297"
   y1="-2.6240001"
   x2="75.613297"
   y2="127.376"
   gradientTransform="translate(-157.24737,-1.0053612)"><stop
     offset="0.0051"
     style="stop-color:#FF6F0D"
     id="stop120-7" /><stop
     offset="0.3807"
     style="stop-color:#FF0000"
     id="stop122-8" /><stop
     offset="1"
     style="stop-color:#A80000"
     id="stop124-6" /></linearGradient><linearGradient
   id="linearGradient1744"
   gradientUnits="userSpaceOnUse"
   x1="31.705601"
   y1="-2.6240001"
   x2="31.705601"
   y2="127.376"><stop
     offset="0.0051"
     style="stop-color:#FF6F0D"
     id="stop1738" /><stop
     offset="0.3807"
     style="stop-color:#FF0000"
     id="stop1740" /><stop
     offset="1"
     style="stop-color:#A80000"
     id="stop1742" /></linearGradient><linearGradient
   id="linearGradient1788"
   gradientUnits="userSpaceOnUse"
   x1="75.613297"
   y1="-2.6240001"
   x2="75.613297"
   y2="127.376"><stop
     offset="0.0051"
     style="stop-color:#FF6F0D"
     id="stop1782" /><stop
     offset="0.3807"
     style="stop-color:#FF0000"
     id="stop1784" /><stop
     offset="1"
     style="stop-color:#A80000"
     id="stop1786" /></linearGradient><linearGradient
   id="linearGradient1766"
   gradientUnits="userSpaceOnUse"
   x1="119.5562"
   y1="-2.6240001"
   x2="119.5561"
   y2="127.376"><stop
     offset="0.0051"
     style="stop-color:#FF6F0D"
     id="stop1760" /><stop
     offset="0.3807"
     style="stop-color:#FF0000"
     id="stop1762" /><stop
     offset="1"
     style="stop-color:#A80000"
     id="stop1764" /></linearGradient></defs><sodipodi:namedview
   id="namedview203"
   pagecolor="#7c7c7c"
   bordercolor="#666666"
   borderopacity="1.0"
   inkscape:pageshadow="2"
   inkscape:pageopacity="1"
   inkscape:pagecheckerboard="true"
   showgrid="false"
   inkscape:zoom="1.4142136"
   inkscape:cx="98.641396"
   inkscape:cy="92.630988"
   inkscape:window-width="1920"
   inkscape:window-height="995"
   inkscape:window-x="0"
   inkscape:window-y="0"
   inkscape:window-maximized="1"
   inkscape:current-layer="Ebene_1"
   showguides="true"
   inkscape:guide-bbox="true"><sodipodi:guide
     position="-50.464855,133.87033"
     orientation="0,-1"
     id="guide4752" /><sodipodi:guide
     position="93.644,8.14"
     orientation="0,-1"
     id="guide5697" /></sodipodi:namedview>
<path
   id="path5723"
   style="fill:#ffffff"
   d="M 108.11914 4.8730469 C 107.97304 4.8679611 107.80702 4.8816297 107.63086 4.90625 C 103.63609 4.8865269 99.641285 4.8924459 95.646484 4.8964844 L 95.646484 4.890625 C 87.651044 4.897135 79.655586 4.8970625 71.660156 4.8828125 C 71.660154 4.8854167 71.660159 4.8880208 71.660156 4.890625 C 67.349604 4.8943429 63.039047 4.8916907 58.728516 4.9082031 C 58.659316 10.934303 58.804907 17.075394 58.585938 23.027344 C 58.494038 25.527188 58.392213 27.857276 58.251953 30.34375 C 57.874193 37.010166 57.245191 43.69767 56.244141 50.339844 C 55.068801 57.995311 53.340977 65.832457 50.148438 73.001953 C 46.058886 82.44792 39.889241 91.088701 31.769531 97.480469 C 25.270701 102.6118 17.638865 106.40338 9.515625 108.10547 C 7.867345 108.43348 6.1988325 108.64283 4.5390625 108.90234 C 4.5360625 117.31774 4.5510969 125.7331 4.5292969 134.14844 C 9.4719269 133.51626 14.404707 132.70647 19.185547 131.27148 C 29.742397 128.24548 39.820858 123.17676 48.017578 115.80273 C 56.042538 108.88595 63.028665 100.50828 67.203125 90.697266 C 69.133484 86.340164 70.663998 81.799017 71.666016 77.140625 C 71.666049 92.793678 71.66255 108.44656 71.669922 124.09961 C 71.682722 127.2922 71.695991 130.48516 71.712891 133.67773 C 79.690361 133.58183 87.668674 133.61817 95.646484 133.63477 C 95.647365 114.73306 95.646379 95.831385 95.646484 76.929688 C 96.180432 79.507248 96.852046 82.053736 97.748047 84.535156 C 100.14449 91.697045 103.64911 98.513082 108.35938 104.43359 C 112.84561 110.12571 118.17045 115.12591 123.9082 119.53711 C 132.57424 126.01918 142.79749 130.2148 153.3125 132.58984 C 156.43328 133.29991 159.61359 133.68232 162.78125 134.11328 C 162.75765 125.70445 162.77348 117.2956 162.77148 108.88672 C 159.11963 108.41977 155.47419 107.76426 152.00195 106.50781 C 140.37363 102.52749 130.26724 94.512352 123.41992 84.339844 C 118.55036 77.169651 115.09533 69.070996 113.08984 60.646484 C 112.97105 60.134158 112.76882 59.303039 112.63086 58.65625 C 112.04955 56.002176 111.55999 53.289998 111.16211 50.681641 C 109.81104 41.947268 109.13698 33.12087 108.80469 24.292969 C 108.58839 18.189623 108.55539 11.896971 108.62305 5.71875 C 108.81421 5.0813243 108.55745 4.8883043 108.11914 4.8730469 z M 100.73438 9.6386719 C 101.53437 9.6386719 102.33286 9.639625 103.13086 9.640625 C 103.12778 10.268625 103.12695 10.895437 103.12695 11.523438 C 103.12695 22.812437 103.59822 34.128859 104.94922 45.380859 C 106.16622 54.984859 107.88049 64.741609 111.77148 73.849609 C 115.44148 82.611609 120.7445 90.787484 127.6875 97.396484 C 134.3125 103.71548 142.34008 108.572 151.08008 111.375 C 153.11308 112.026 155.19155 112.5615 157.31055 112.9375 C 157.30955 116.0145 157.30664 119.09003 157.30664 122.16602 C 157.30664 124.14602 157.30659 126.12637 157.30859 128.10938 C 153.16159 127.42538 149.06969 126.31517 145.05469 124.95117 C 139.64569 123.07017 134.42353 120.63439 129.64453 117.52539 C 126.17153 115.29039 122.98363 112.59891 119.89062 109.75391 C 114.83262 105.08991 110.32688 99.805281 106.96289 93.863281 C 104.32689 89.235281 102.38723 84.201202 100.86523 79.033203 C 99.494234 73.945202 98.89275 68.582829 98.34375 63.173828 C 97.36975 52.457829 96.957031 41.669813 96.957031 30.882812 C 96.957031 29.954813 96.958797 29.027469 96.966797 28.105469 C 96.966797 23.660469 96.964844 19.225969 96.964844 14.792969 C 96.964844 13.074969 96.963844 11.358625 96.964844 9.640625 C 98.221844 9.639581 99.478375 9.6386719 100.73438 9.6386719 z M 81.449219 9.640625 C 84.003219 9.640625 86.562094 9.6464844 89.121094 9.6464844 L 90.185547 9.6464844 L 90.185547 69.009766 L 90.185547 128.37109 C 90.069547 128.37218 89.953891 128.37305 89.837891 128.37305 C 87.142891 128.37305 84.449 128.36523 81.75 128.36523 C 79.909 128.36523 78.066609 128.36886 76.224609 128.38086 C 76.202259 123.78186 76.197266 119.18598 76.197266 114.58398 C 76.197266 108.72698 76.207031 102.86581 76.207031 97.007812 C 76.207031 95.028813 76.207125 93.051219 76.203125 91.074219 C 76.201125 85.374219 76.201172 79.676469 76.201172 73.980469 C 76.201172 62.919469 76.203125 51.860781 76.203125 40.800781 C 76.203125 30.418781 76.200312 20.036391 76.195312 9.6503906 C 77.944313 9.6413526 79.696219 9.640625 81.449219 9.640625 z M 67.693359 9.6425781 L 69.480469 9.6425781 C 69.483469 11.753578 69.486328 13.864609 69.486328 15.974609 C 69.486328 19.243609 69.480469 22.512297 69.480469 25.779297 C 69.480469 27.133297 69.482328 28.488703 69.486328 29.845703 C 69.488428 30.330701 69.488281 30.812875 69.488281 31.296875 C 69.488281 36.819875 69.325646 42.349719 69.097656 47.886719 C 68.685646 56.574719 68.141844 65.244954 66.714844 73.751953 C 65.753844 79.510954 63.753141 85.109891 61.244141 90.462891 C 57.215141 98.959891 50.834469 106.22038 43.605469 112.35938 C 37.192469 118.00239 29.526547 122.12592 21.435547 124.91992 C 17.398547 126.30992 13.269068 127.41514 9.0800781 128.11914 C 9.0811181 125.66814 9.0800312 123.21758 9.0820312 120.76758 C 9.0799812 118.15558 9.0810781 115.5455 9.0800781 112.9375 C 14.703068 111.9285 20.074426 109.88567 25.066406 107.26367 C 31.465426 103.88167 37.212875 99.337281 42.046875 93.988281 C 47.045875 88.461281 51.011531 82.080313 54.019531 75.320312 C 57.571531 67.519313 59.452516 59.147079 60.728516 50.830078 C 62.325516 40.257078 62.989328 29.588124 63.236328 18.953125 C 63.248948 17.497125 63.251953 16.064813 63.251953 14.632812 C 63.251953 13.076813 63.246094 11.524563 63.246094 9.9765625 L 63.246094 9.6445312 C 64.003094 9.6435312 64.761484 9.6435312 65.521484 9.6445312 C 66.244484 9.6424892 66.970359 9.6425791 67.693359 9.6425781 z "
   transform="translate(-8.038,-8.624)" /><path
   fill="url(#SVGID_1_)"
   d="m 207.014,5.277 c 4.724,-6.043 14.501,-7.076 20.297,-2.006 2.37,1.996 4.031,4.75 4.88,7.715 10.73,36.92 21.508,73.822 32.223,110.746 -6.332,0.006 -12.667,-0.012 -18.999,0.006 -2.987,-10.18 -5.903,-20.377 -8.852,-30.565 -12.246,-0.024 -24.485,-0.006 -36.73,-0.012 -2.998,10.184 -5.958,20.379 -8.901,30.582 -6.298,-0.021 -12.596,-0.005 -18.895,-0.011 10.194,-35.221 20.4,-70.438 30.643,-105.647 1.218,-3.681 1.678,-7.798 4.334,-10.808 m 11.179,22.625 c -4.49,15.295 -8.889,30.619 -13.354,45.922 8.9,0.043 17.796,0.016 26.692,0.016 -4.453,-15.313 -8.884,-30.625 -13.338,-45.938 z"
   id="path9"
   style="fill:#ffffff;stroke:#000000" /><path
   fill="#470000"
   d="m 190.926,123.24 c -2.73,-0.011 -5.46,-0.013 -8.193,-0.011 v 0 c -2.436,-0.002 -4.87,-0.002 -7.304,-0.002 v 0 c -1.131,0 -2.262,0.002 -3.389,0.002 v 0 l -2.001,0.003 0.558,-1.919 C 180.79,86.092 190.996,50.874 201.256,15.612 v 0 c 1.174,-3.433 1.591,-7.781 4.585,-11.272 v 0 c 3.019,-3.839 7.757,-5.809 12.455,-5.813 v 0 c 3.579,0 7.188,1.152 9.98,3.596 v 0 c 2.626,2.214 4.433,5.226 5.355,8.443 v 0 c 10.73,36.919 21.508,73.819 32.223,110.745 v 0 l 0.557,1.918 h -1.997 c -0.984,0 -1.964,0 -2.948,0 v 0 c -3.103,0 -6.206,-0.004 -9.307,-0.004 v 0 c -2.25,0 -4.495,0.002 -6.738,0.011 v 0 l -1.129,0.004 -0.317,-1.081 c -2.884,-9.827 -5.7,-19.665 -8.542,-29.491 v 0 c -4.855,-0.009 -9.708,-0.013 -14.562,-0.011 v 0 c -5.156,-0.002 -10.31,-0.002 -15.465,0 v 0 c -1.485,-10e-4 -2.969,0 -4.453,0.001 v 0 c -2.887,9.823 -5.743,19.656 -8.581,29.499 v 0 l -0.315,1.087 z m -8.193,-3.011 c 2.357,0 4.714,0.003 7.071,0.01 v 0 c 2.84,-9.844 5.696,-19.678 8.589,-29.503 v 0 l 0.317,-1.075 h 1.121 c 1.858,-0.004 3.718,-0.004 5.576,-0.004 v 0 c 5.156,0 10.31,0 15.465,0 v 0 c 5.229,0 10.461,0.004 15.693,0.015 v 0 l 1.125,0.002 0.313,1.081 c 2.845,9.83 5.658,19.665 8.534,29.479 v 0 c 1.874,-0.007 3.749,-0.008 5.622,-0.008 v 0 c 3.103,0.002 6.206,0.006 9.307,0.006 v 0 c 0.316,0 0.633,0 0.949,0 v 0 C 251.885,83.949 241.292,47.686 230.748,11.4 v 0 c -0.774,-2.708 -2.291,-5.204 -4.426,-7 v 0 C 224.126,2.476 221.24,1.529 218.295,1.529 v 0 C 214.421,1.525 210.542,3.184 208.194,6.2 v 0 l -1.173,-0.917 1.117,0.985 c -2.274,2.521 -2.78,6.378 -4.019,10.235 v 0 c -10.057,34.568 -20.078,69.146 -30.087,103.726 v 0 c 0.465,0 0.93,0 1.396,0 v 0 c 2.435,0 4.869,0 7.305,0 z m 22.099,-44.906 -1.991,-0.012 0.557,-1.908 c 4.464,-15.299 8.864,-30.624 13.354,-45.924 v 0 l 1.446,-4.924 1.434,4.926 c 4.456,15.314 8.887,30.626 13.34,45.938 v 0 l 0.557,1.92 h -1.999 c -4.98,-0.002 -9.961,0.007 -14.946,0.007 v 0 c -3.917,10e-4 -7.834,-0.004 -11.752,-0.023 z m 11.752,-2.976 c 4.314,0 8.631,-0.006 12.948,-0.008 v 0 c -3.788,-13.028 -7.56,-26.055 -11.345,-39.083 v 0 c -3.805,13.015 -7.555,26.05 -11.351,39.076 v 0 c 3.249,0.012 6.497,0.015 9.748,0.015 z m 0.168,-44.026 1.44,-0.418 z"
   id="path11"
   style="fill:#ffffff;stroke:#ffffff" /><path
   fill="url(#SVGID_2_)"
   d="m 340.411,6.072 c 3.301,-4.787 9.681,-7.109 15.296,-5.631 5.142,1.184 9.075,5.615 10.434,10.604 10.72,36.893 21.477,73.772 32.194,110.666 -6.342,0.049 -12.679,0 -19.021,0.024 -2.948,-10.188 -5.864,-20.387 -8.834,-30.575 -12.226,0.006 -24.447,-0.021 -36.672,0.01 -2.922,10.195 -5.935,20.367 -8.855,30.563 -6.293,0.006 -12.581,-0.006 -18.874,0.006 10.188,-35.414 20.497,-70.797 30.768,-106.187 1.076,-3.195 1.492,-6.718 3.564,-9.48 m -1.543,67.768 c 8.863,0.013 17.722,0.007 26.584,0.007 -4.409,-15.347 -8.89,-30.671 -13.284,-46.015 -4.426,15.338 -8.894,30.662 -13.3,46.008 z"
   id="path22"
   style="fill:#ffffff;stroke:#000000" /><path
   fill="#470000"
   d="m 377.873,122.15 c -2.847,-9.83 -5.659,-19.667 -8.519,-29.492 v 0 c -0.929,0 -1.858,0 -2.785,0 v 0 c -6.264,0 -12.523,-0.009 -18.783,-0.006 v 0 c -4.282,-0.002 -8.565,0.001 -12.848,0.013 v 0 c -2.826,9.84 -5.729,19.653 -8.545,29.48 v 0 l -0.311,1.085 -1.129,0.002 c -1.428,0 -2.853,0 -4.28,0 v 0 c -2.544,0 -5.086,-0.004 -7.628,-0.004 v 0 c -2.32,0 -4.644,0.002 -6.964,0.01 v 0 l -1.998,0.002 0.553,-1.916 C 314.824,85.906 325.135,50.522 335.423,15.073 v 0 c 1.029,-2.962 1.414,-6.658 3.751,-9.852 v 0 0 c 2.953,-4.266 7.984,-6.714 13.072,-6.723 v 0 c 1.284,0 2.575,0.157 3.795,0.48 v 0 c 5.792,1.357 10.05,6.213 11.537,11.647 v 0 c 10.722,36.892 21.477,73.771 32.196,110.666 v 0 l 0.552,1.903 -1.982,0.015 c -2.348,0.02 -4.695,0.021 -7.037,0.021 v 0 c -2.567,0 -5.128,-0.007 -7.686,-0.007 v 0 c -1.435,0 -2.869,0.002 -4.3,0.011 v 0 l -1.135,0.006 z m -57.199,-1.916 c 1.051,0 2.1,0 3.147,0 v 0 c 2.825,-9.841 5.729,-19.653 8.544,-29.48 v 0 l 0.311,-1.082 1.128,-0.002 c 4.66,-0.015 9.322,-0.021 13.982,-0.021 v 0 c 6.262,0 12.523,0.008 18.783,0.011 v 0 c 1.304,-0.003 2.606,0 3.91,0 v 0 h 1.126 l 0.314,1.08 c 2.865,9.83 5.679,19.665 8.52,29.488 v 0 c 1.062,-0.004 2.122,-0.005 3.183,-0.005 v 0 c 2.564,0 5.125,0.008 7.686,0.008 v 0 c 1.678,0 3.355,-0.002 5.031,-0.009 v 0 C 385.805,83.963 375.235,47.722 364.693,11.438 v 0 c -1.222,-4.519 -4.831,-8.524 -9.37,-9.548 v 0 C 354.32,1.625 353.286,1.498 352.248,1.498 v 0 c -4.12,-0.008 -8.287,2.046 -10.602,5.424 v 0 0.002 l -1.235,-0.852 1.2,0.9 c -1.776,2.316 -2.225,5.645 -3.323,8.998 v 0 C 328.202,50.721 318.08,85.465 308.074,120.234 v 0 c 1.658,-0.003 3.316,-0.004 4.973,-0.004 v 0 c 2.543,-0.001 5.085,0.004 7.627,0.004 z m 44.778,-44.888 c -4.258,0 -8.51,0 -12.762,0 v 0 c -4.607,0 -9.216,-0.003 -13.824,-0.007 v 0 l -1.989,-0.002 0.549,-1.912 c 4.405,-15.348 8.874,-30.674 13.301,-46.01 v 0 l 1.445,-5.008 1.437,5.013 c 4.394,15.338 8.874,30.662 13.284,46.013 v 0 l 0.553,1.914 h -1.994 z M 352.69,72.345 c 3.588,0 7.176,0 10.768,0 v 0 C 359.71,59.311 355.911,46.29 352.162,33.254 v 0 c -3.768,13.032 -7.556,26.053 -11.304,39.087 v 0 c 3.945,0.004 7.888,0.004 11.832,0.004 z"
   id="path24"
   style="fill:#ffffff;stroke:#ffffff" /><path
   fill="url(#SVGID_3_)"
   d="m 250.237,0.256 c 22.91,0 45.814,0 68.719,0 0,6.182 0,12.355 0,18.533 -8.437,0.006 -16.865,-0.01 -25.296,0.006 0,34.313 0.006,68.627 -0.005,102.938 -6.039,0 -12.083,0 -18.122,0 0,-34.312 -0.005,-68.625 0.005,-102.938 -8.436,-0.016 -16.866,0 -25.301,-0.006 0,-6.178 -0.005,-12.351 0,-18.533 z"
   id="path35"
   style="fill:#ffffff;stroke:#000000" /><path
   fill="#470000"
   d="m 293.655,123.232 c -6.04,0 -12.083,0 -18.123,0 v 0 h -1.5 v -1.5 c 0,-17.555 -0.002,-35.11 -0.002,-52.666 v 0 c 0,-16.259 0,-32.518 0.005,-48.775 v 0 c -2.514,-0.004 -5.029,-0.005 -7.543,-0.005 v 0 c -4,0 -8,0.002 -12.002,0.002 v 0 c -1.417,0 -2.836,0 -4.253,0 v 0 l -1.501,0.002 v -1.501 c 0,-4.118 -0.002,-8.234 -0.002,-12.354 v 0 c 0,-2.059 0,-4.12 0.002,-6.181 v 0 l 0.002,-1.498 h 1.498 c 22.91,0 45.814,0 68.72,0 v 0 h 1.5 v 1.5 c -0.003,6.181 -0.003,12.354 0,18.533 v 0 1.5 h -1.5 c -1.421,0.002 -2.842,0.002 -4.261,0.002 v 0 c -4.002,0 -8.002,-0.004 -12,-0.004 v 0 c -2.513,0 -5.025,0.001 -7.536,0.005 v 0 c 0,17.402 0,34.807 0,52.209 v 0 c 0,16.41 -0.004,32.819 -0.004,49.231 v 0 1.5 z m -1.502,-3 c 0.003,-15.912 0.007,-31.821 0.007,-47.731 v 0 c 0,-17.901 0,-35.805 0,-53.707 v 0 -1.496 l 1.495,-0.004 c 3.014,-0.008 6.028,-0.008 9.04,-0.008 v 0 c 4,0 8,0.002 12,0.004 v 0 c 0.92,-10e-4 1.84,-10e-4 2.759,-0.002 v 0 c 0,-5.178 0,-10.354 0,-15.534 v 0 c -21.906,0 -43.81,0 -65.72,0 v 0 c -0.001,1.56 -0.001,3.12 -0.001,4.679 v 0 c 0,3.619 0.002,7.235 0.002,10.854 v 0 c 0.919,0 1.837,0 2.755,0 v 0 c 4,0 8,-0.002 12.002,-0.002 v 0 c 3.016,0 6.032,0.002 9.048,0.008 v 0 l 1.498,0.002 v 1.498 c -0.008,16.756 -0.008,33.514 -0.008,50.272 v 0 c 0,17.053 0.002,34.111 0.002,51.166 v 0 c 2.52,-10e-4 5.04,-10e-4 7.561,-10e-4 v 0 c 2.52,10e-4 5.041,10e-4 7.56,0.002 z"
   id="path37"
   style="fill:#ffffff;stroke:#ffffff" /><path
   fill="url(#SVGID_4_)"
   d="m 418.475,1.01 c 1.74,-0.602 3.599,-0.807 5.437,-0.764 7.223,0.025 14.446,0.006 21.667,0.01 12.164,0.225 23.773,7.771 29.037,18.719 3.646,7.109 4.021,15.377 3.102,23.176 -0.634,8.164 -4.058,16.328 -10.334,21.741 -3.313,2.952 -7.443,4.743 -10.992,7.375 -1.947,1.481 -2.047,4.364 -1.039,6.428 9.586,14.799 19.552,29.367 29.34,44.039 -7.158,0.012 -14.316,-0.017 -21.476,0.012 -9.37,-14.074 -18.643,-28.219 -27.976,-42.313 -2.743,-4.013 -3.489,-9.324 -1.846,-13.902 1.281,-3.512 4.351,-6.08 7.769,-7.406 6.524,-2.49 12.958,-6.4 16.572,-12.559 2.749,-4.627 2.605,-10.336 1.37,-15.4 -1.45,-6.574 -7.855,-11.746 -14.625,-11.52 -4.682,0.031 -9.359,-0.021 -14.033,0.021 -2.116,-0.049 -4.107,1.791 -4.08,3.934 -0.022,33.047 0.011,66.096 -0.01,99.141 -6.088,-0.012 -12.168,0 -18.256,-0.006 C 408.09,86.16 408.114,50.582 408.09,15.006 408.128,8.77 412.563,2.902 418.475,1.01 Z"
   id="path48"
   style="fill:#ffffff;stroke:#000000" /><path
   fill="#470000"
   d="M 461.967,122.575 C 452.593,108.496 443.319,94.349 434.001,80.279 v 0 c -1.949,-2.854 -2.973,-6.274 -2.975,-9.7 v 0 c 0.002,-1.88 0.31,-3.766 0.958,-5.564 v 0 c 1.481,-4.026 4.905,-6.839 8.644,-8.293 v 0 c 6.356,-2.418 12.471,-6.196 15.816,-11.923 v 0 c 1.425,-2.396 2.004,-5.16 2.004,-8.038 v 0 c 0,-2.08 -0.308,-4.208 -0.809,-6.272 v 0 c -1.229,-5.721 -6.896,-10.388 -12.732,-10.35 v 0 c -0.133,0 -0.255,0 -0.418,0.006 v 0 c -1.209,0.008 -2.414,0.01 -3.617,0.01 v 0 c -1.982,0 -3.959,-0.008 -5.932,-0.006 v 0 c -1.496,-0.002 -2.991,0.002 -4.479,0.017 v 0 h -0.038 -0.027 c -0.029,-0.002 -0.031,-0.002 -0.031,-0.002 v 0 c -0.599,-0.004 -1.256,0.274 -1.738,0.744 v 0 c -0.463,0.443 -0.735,1.006 -0.761,1.557 v 0 0 0.137 c -0.006,9.164 -0.008,18.327 -0.008,27.49 v 0 c 0,15.309 0.002,30.618 0.002,45.928 v 0 c 0,8.573 0,17.147 -0.002,25.723 v 0 1.502 l -1.505,-0.004 c -2.248,-0.004 -4.494,-0.007 -6.74,-0.007 v 0 c -2.461,0 -4.918,0 -7.377,0 v 0 c -1.378,0 -2.756,0.003 -4.134,0.003 v 0 h -1.5 v -1.501 c -0.004,-8.059 -0.006,-16.118 -0.006,-24.18 v 0 c 0,-14.376 0,-28.752 0.002,-43.126 v 0 c -0.002,-13.141 -0.005,-26.283 -0.009,-39.435 v 0 C 406.658,8.06 411.458,1.716 417.993,-0.41 v 0 c 1.784,-0.615 3.639,-0.85 5.449,-0.85 v 0 c 0.165,0 0.335,0.002 0.473,0.006 v 0 c 2.983,0.011 5.967,0.013 8.952,0.013 v 0 c 3.515,0 7.031,-0.004 10.55,-0.004 v 0 c 0.723,0 1.443,0 2.188,0.002 v 0 c 12.766,0.252 24.829,8.095 30.345,19.534 v 0 c 2.727,5.32 3.689,11.19 3.689,16.982 v 0 c 0,2.375 -0.164,4.737 -0.428,6.996 v 0 c -0.661,8.493 -4.21,17.024 -10.832,22.742 v 0 c -3.563,3.154 -7.743,4.954 -11.081,7.45 v 0 c -0.712,0.538 -1.07,1.419 -1.078,2.497 v 0 c -0.002,0.68 0.159,1.396 0.439,1.996 v 0 c 9.557,14.753 19.501,29.291 29.279,43.947 v 0 l 1.555,2.328 -2.8,0.004 c -1.363,0.003 -2.723,0 -4.081,0 v 0 c -3.214,0 -6.425,-0.006 -9.636,-0.006 v 0 c -2.585,0 -5.17,0.004 -7.754,0.017 v 0 l -0.809,0.005 z m -1.405,-92.764 c 0.538,2.221 0.886,4.575 0.886,6.949 v 0 c 0.002,3.272 -0.66,6.601 -2.419,9.563 v 0 c -3.886,6.599 -10.639,10.643 -17.324,13.198 v 0 c -3.105,1.203 -5.819,3.524 -6.9,6.517 v 0 c -0.522,1.445 -0.777,2.988 -0.775,4.541 v 0 c -0.002,2.827 0.854,5.676 2.461,8.023 v 0 c 9.188,13.873 18.312,27.791 27.527,41.638 v 0 c 2.321,-0.013 4.643,-0.014 6.96,-0.014 v 0 c 3.216,0 6.427,0.008 9.636,0.006 v 0 c 0.425,0 0.85,0 1.273,0 v 0 c -9.281,-13.876 -18.704,-27.69 -27.795,-41.723 v 0 l -0.046,-0.072 -0.042,-0.084 c -0.508,-1.045 -0.782,-2.212 -0.784,-3.396 v 0 c -0.006,-1.753 0.643,-3.651 2.278,-4.896 v 0 c 3.744,-2.756 7.823,-4.538 10.905,-7.307 v 0 c 5.914,-5.088 9.214,-12.884 9.823,-20.777 v 0 c 0.259,-2.221 0.413,-4.469 0.413,-6.705 v 0 c 0,-5.465 -0.913,-10.847 -3.376,-15.646 v 0 C 468.268,9.203 457.111,1.955 445.575,1.756 v 0 c -0.721,-0.002 -1.438,-0.004 -2.158,-0.002 v 0 c -3.515,-0.002 -7.031,0.004 -10.55,0.004 v 0 c -2.987,0 -5.973,-0.002 -9.003,-0.013 v 0 C 423.729,1.741 423.59,1.739 423.442,1.739 v 0 c -1.555,0 -3.08,0.204 -4.479,0.687 v 0 l -0.488,-1.416 0.457,1.428 c -5.275,1.663 -9.336,7.048 -9.343,12.564 v 0 c 0.005,13.143 0.007,26.285 0.007,39.426 v 0 c 0,14.374 0,28.75 0,43.126 v 0 c 0,7.56 0.002,15.118 0.004,22.68 v 0 c 0.878,-10e-4 1.757,-0.002 2.636,-0.002 v 0 c 2.459,0 4.918,0 7.377,0 v 0 c 1.748,0 3.496,0.003 5.244,0.006 v 0 c 0.002,-8.073 0.002,-16.146 0.002,-24.22 v 0 c 0,-15.31 -0.002,-30.619 -0.002,-45.928 v 0 c 0,-9.139 0.002,-18.279 0.011,-27.418 v 0 c -0.002,-0.028 -0.002,-0.053 -0.002,-0.072 v 0 c -0.002,-0.046 0,-0.046 -0.002,-0.046 v 0 c 0.061,-3.034 2.583,-5.348 5.501,-5.39 v 0 c 0.055,0 0.096,0 0.124,10e-4 v 0 c 1.483,-0.016 2.969,-0.019 4.452,-0.019 v 0 c 1.979,0 3.957,0.006 5.932,0.006 v 0 c 1.199,0 2.399,-0.002 3.54,-0.008 v 0 c 0.177,-0.008 0.341,-0.008 0.495,-0.008 v 0 c 7.382,0.037 14.05,5.555 15.654,12.675 z"
   id="path50"
   style="fill:#ffffff;stroke:#ffffff" /><path
   fill="url(#SVGID_5_)"
   d="m 494.262,0.256 c 6.402,0 12.803,0 19.21,0 -0.006,40.496 0.013,80.986 -0.012,121.481 -6.396,-0.018 -12.796,0 -19.198,-0.006 0,-40.496 0,-80.985 0,-121.475 z"
   id="path61"
   style="fill:#ffffff;stroke:#000000" /><path
   fill="#470000"
   d="m 513.454,123.236 c -2.269,-0.007 -4.539,-0.011 -6.809,-0.009 v 0 c -3.135,-0.002 -6.271,0 -9.407,0 v 0 c -0.993,0 -1.985,0.002 -2.977,0.002 v 0 l -1.501,0.002 v -1.5 c 0,-40.498 0,-80.986 0,-121.476 v 0 -1.5 h 1.501 c 6.401,0 12.802,0 19.209,0 v 0 h 1.501 v 1.5 c -0.002,6.147 -0.004,12.294 -0.004,18.44 v 0 c 0,17.05 0,34.099 0,51.147 v 0 c 0,17.296 0,34.595 -0.009,51.895 v 0 1.503 z m -1.494,-3.004 c 0.008,-16.798 0.008,-33.594 0.008,-50.39 v 0 c 0,-17.048 0,-34.097 0,-51.147 v 0 c 0,-5.647 0.002,-11.295 0.002,-16.941 v 0 c -5.406,0 -10.808,0 -16.209,0 v 0 c 0,39.489 0,78.978 0,118.475 v 0 c 0.492,-0.001 0.984,-0.002 1.478,-0.002 v 0 c 3.135,0 6.272,-0.002 9.407,0 v 0 c 0.402,0 0.805,0 1.207,0 v 0 c 1.369,10e-4 2.738,0.002 4.107,0.005 z"
   id="path63"
   style="fill:#ffffff;stroke:#ffffff" /><path
   id="path170"
   style="fill:#ffffff;stroke:#ffffff"
   d="M 563.51953 82.269531 C 557.21353 82.278531 551.20062 87.102641 551.14062 93.806641 L 540.4707 85.921875 L 539.59375 87.216797 L 536.67383 91.539062 L 553.77344 104.24414 C 556.56444 106.31814 559.8087 108.31231 563.8457 108.32031 C 570.9207 108.26931 576.42517 102.04505 576.45117 95.248047 C 576.43717 88.115047 570.71453 82.269531 563.51953 82.269531 z M 563.52148 83.769531 C 569.88148 83.769531 574.95508 88.933047 574.95508 95.248047 C 574.95508 101.24005 569.97666 106.82031 563.84766 106.82031 C 560.34166 106.82031 557.39387 105.06997 554.67188 103.04297 L 538.72266 91.191406 L 540.83789 88.056641 L 553.37695 97.322266 L 553.4707 97.230469 C 552.9617 96.213469 552.64258 95.064359 552.64258 93.818359 C 552.64258 88.103359 557.94448 83.769531 563.52148 83.769531 z M 563.98047 87.917969 C 559.64647 87.917969 556.51172 91.605969 556.51172 95.292969 C 556.51172 99.073969 559.96809 102.66992 563.74609 102.66992 C 567.75909 102.66992 571.07813 99.259969 571.07812 95.292969 C 571.08113 91.419969 567.85147 87.917969 563.98047 87.917969 z M 563.98242 89.417969 C 565.45442 89.414969 566.84758 90.085594 567.89258 91.183594 C 568.93658 92.277594 569.58012 93.774062 569.57812 95.289062 C 569.57812 95.310063 569.57908 95.330562 569.58008 95.351562 C 569.54008 98.451563 566.87205 101.16097 563.74805 101.16797 C 562.34505 101.17397 560.88511 100.48156 559.78711 99.351562 C 558.68811 98.226562 558.00572 96.718969 558.01172 95.292969 C 558.00772 93.875969 558.62913 92.373766 559.70312 91.259766 C 560.78012 90.142766 562.24942 89.419969 563.98242 89.417969 z "
   transform="translate(-8.038,-8.624)" /><path
   id="path183"
   style="fill:#ffffff;stroke:#ffffff"
   d="M 556.8418 45.111328 C 551.3628 45.109328 546.43334 47.284609 542.90234 50.849609 C 539.36634 54.410609 537.2138 59.366906 537.2168 64.878906 C 537.2208 75.674906 546.05806 84.431594 556.91406 84.433594 C 567.69706 84.431594 576.46089 75.663906 576.46289 64.878906 C 576.46489 59.366906 574.31034 54.410609 570.77734 50.849609 C 567.24234 47.284609 562.3198 45.109328 556.8418 45.111328 z M 556.8418 46.611328 C 567.0028 46.611328 574.96289 54.638859 574.96289 64.880859 C 574.96289 74.835859 566.86511 82.933594 556.91211 82.933594 C 546.87911 82.933594 538.71875 74.835859 538.71875 64.880859 C 538.71875 54.638859 546.6798 46.611328 556.8418 46.611328 z M 556.91406 50.880859 C 548.84906 50.880859 542.76758 56.993516 542.76758 65.103516 C 542.76758 72.582516 549.11306 78.666016 556.91406 78.666016 C 564.63606 78.666016 570.91797 72.582516 570.91797 65.103516 C 570.91797 57.128516 564.76806 50.880859 556.91406 50.880859 z M 556.91211 52.378906 C 563.94011 52.393906 569.39506 57.915563 569.41406 65.101562 C 569.40306 71.711562 563.83911 77.164016 556.91211 77.166016 C 549.89511 77.162016 544.27863 71.697562 544.26562 65.101562 C 544.30362 57.769562 549.63511 52.414906 556.91211 52.378906 z "
   transform="translate(-8.038,-8.624)" /><path
   id="path196"
   style="fill:#ffffff;stroke:#ffffff"
   d="M 556.8418 7.1523438 C 551.3628 7.1503438 546.43334 9.3236719 542.90234 12.888672 C 539.36634 16.449672 537.2138 21.409828 537.2168 26.923828 C 537.2208 37.715828 546.05806 46.470656 556.91406 46.472656 C 567.69706 46.470656 576.46089 37.706828 576.46289 26.923828 C 576.46489 21.409828 574.31034 16.450672 570.77734 12.888672 C 567.24234 9.3236719 562.3198 7.1503438 556.8418 7.1523438 z M 556.8418 8.6523438 C 567.0028 8.6523438 574.96289 16.679828 574.96289 26.923828 C 574.96289 36.876828 566.86511 44.974609 556.91211 44.974609 C 546.87911 44.974609 538.71875 36.876828 538.71875 26.923828 C 538.71875 16.679828 546.6798 8.6523438 556.8418 8.6523438 z M 556.91406 12.921875 C 548.84906 12.921875 542.76758 19.036531 542.76758 27.144531 C 542.76758 34.623531 549.11306 40.707031 556.91406 40.707031 C 564.63606 40.707031 570.91797 34.623531 570.91797 27.144531 C 570.91797 19.167531 564.76806 12.921875 556.91406 12.921875 z M 556.91211 14.421875 C 563.94011 14.434875 569.39697 19.956484 569.41797 27.146484 C 569.40397 33.755484 563.83911 39.205031 556.91211 39.207031 C 549.89511 39.205031 544.27863 33.743484 544.26562 27.146484 C 544.30362 19.813484 549.63511 14.455875 556.91211 14.421875 z "
   transform="translate(-8.038,-8.624)" />
<path
   id="path157"
   style="stroke:#ffffff;fill:#ffffff"
   d="m 541.09677,97.80178 c -6.943,0.004 -11.90692,5.84675 -11.91992,12.46875 -0.075,7.039 4.9132,11.85272 11.6582,12.51172 l 1.66602,0.18555 v -7.41602 l -1.4004,-0.0898 c -2.733,-0.176 -4.97007,-2.46841 -4.95507,-5.19141 -0.004,-1.376 0.5802,-2.7267 1.5332,-3.7207 0.958,-0.994 2.23547,-1.60161 3.60547,-1.59961 1.558,-0.051 3.56344,1.31595 5.27344,2.75195 l 21.11914,17.20899 V 97.80374 H 560.712 v 1.5 10.84375 l -11.51758,-9.42774 c -2.253,-1.827 -5.14065,-2.91597 -8.09765,-2.91797 z m 0,1.49805 c 2.582,0 5.16448,0.96908 7.14648,2.58008 l 13.96875,11.43359 0.002,-14.00976 h 3.96289 v 22.44922 l -18.66993,-15.21289 c -1.751,-1.431 -3.9186,-3.08985 -6.22461,-3.08985 -3.642,0 -6.63671,3.22831 -6.63671,6.82031 0,3.552 2.85542,6.4555 6.35742,6.6875 v 4.33399 c -6.177,-0.69 -10.32422,-4.70349 -10.32422,-11.02149 0,-5.897 4.37997,-10.9707 10.41797,-10.9707 z" /></svg>
