<?xml version="1.0" encoding="UTF-8" standalone="no"?>
<svg
   viewBox="0 0 1798.553 533.07682"
   version="1.1"
   id="svg45"
   sodipodi:docname="system_color.svg"
   inkscape:version="1.1.2 (0a00cf5339, 2022-02-04)"
   width="1798.553"
   height="533.07684"
   inkscape:export-filename="/home/leon/Leon/Programmering/EmulationStation-DE/emulationstation-de/themes/slate-DE/cps/images/logo.png"
   inkscape:export-xdpi="32.700729"
   inkscape:export-ydpi="32.700729"
   xmlns:inkscape="http://www.inkscape.org/namespaces/inkscape"
   xmlns:sodipodi="http://sodipodi.sourceforge.net/DTD/sodipodi-0.dtd"
   xmlns="http://www.w3.org/2000/svg"
   xmlns:svg="http://www.w3.org/2000/svg">
  <defs
     id="defs49" />
  <sodipodi:namedview
     id="namedview47"
     pagecolor="#b1b1b1"
     bordercolor="#666666"
     borderopacity="1.0"
     inkscape:pageshadow="2"
     inkscape:pageopacity="0"
     inkscape:pagecheckerboard="true"
     showgrid="false"
     inkscape:zoom="0.31347975"
     inkscape:cx="945.83462"
     inkscape:cy="23.92499"
     inkscape:window-width="1920"
     inkscape:window-height="996"
     inkscape:window-x="0"
     inkscape:window-y="0"
     inkscape:window-maximized="1"
     inkscape:current-layer="svg45"
     width="17595px"
     fit-margin-top="0"
     fit-margin-left="0"
     fit-margin-right="0"
     fit-margin-bottom="0" />
  <linearGradient
     id="a"
     gradientUnits="userSpaceOnUse"
     x1="317.84"
     y1="224.944"
     x2="317.84"
     y2="60.902">
    <stop
       offset="0"
       stop-color="#eb6101"
       id="stop2" />
    <stop
       offset="1"
       stop-color="#9a4400"
       id="stop4" />
  </linearGradient>
  <linearGradient
     id="b"
     gradientUnits="userSpaceOnUse"
     x1="216.145"
     y1="254.308"
     x2="216.145"
     y2="30.393">
    <stop
       offset="0"
       stop-color="#eb6101"
       id="stop9" />
    <stop
       offset="1"
       stop-color="#9a4400"
       id="stop11" />
  </linearGradient>
  <linearGradient
     id="c"
     gradientUnits="userSpaceOnUse"
     x1="80.224998"
     y1="306.48001"
     x2="80.224998">
    <stop
       offset="0"
       stop-color="#eb6101"
       id="stop16" />
    <stop
       offset="1"
       stop-color="#9a4400"
       id="stop18" />
  </linearGradient>
  <linearGradient
     id="d"
     gradientUnits="userSpaceOnUse"
     x1="270.914"
     y1="224.944"
     x2="270.914"
     y2="30.393">
    <stop
       offset="0"
       stop-color="#029205"
       id="stop23" />
    <stop
       offset="1"
       stop-color="#d6edd9"
       id="stop25" />
  </linearGradient>
  <linearGradient
     id="e"
     gradientUnits="userSpaceOnUse"
     x1="153.621"
     y1="254.308"
     x2="153.621">
    <stop
       offset="0"
       stop-color="#029205"
       id="stop30" />
    <stop
       offset="1"
       stop-color="#d6edd9"
       id="stop32" />
  </linearGradient>
  <path
     id="path862"
     style="clip-rule:evenodd;fill:#000000;fill-rule:evenodd;stroke-width:0.458072"
     class="st0"
     d="M 1284.1816 0.009765625 C 1250.228 0.43556363 1216.2702 8.0807536 1185.7559 23.076172 C 1170.1401 30.8131 1155.4728 40.534272 1142.5215 52.212891 C 1126.2228 34.628536 1105.5794 21.221589 1083.1055 12.951172 C 1059.1949 4.0155266 1033.5531 0.4263 1008.1074 0.375 C 986.4835 0.34273 964.74999 3.4685513 944.32031 10.681641 C 925.14532 17.39147 907.23189 27.610958 891.58008 40.550781 C 885.52173 45.525927 879.77201 50.873591 874.34961 56.535156 C 866.5683 45.878606 857.25438 36.17322 846.09766 29.025391 C 833.34205 20.723845 818.75445 15.568552 803.87305 12.666016 C 784.03783 8.6587983 763.71387 8.1887535 743.54297 8.2421875 L 580.61914 8.2421875 L 580.61914 112.47852 C 585.37128 114.13063 590.28112 115.26195 595.06055 116.82422 C 595.04145 137.05728 594.97895 157.29037 594.94141 177.52344 C 573.17896 121.09614 551.4119 64.670602 529.65234 8.2421875 L 394.67578 8.2421875 C 370.35038 72.647182 346.02472 137.05207 321.69922 201.45703 L 261.88672 201.45703 C 292.94008 168.52471 323.99364 135.5926 355.04688 102.66016 C 349.35521 90.098294 342.11493 78.218652 333.30859 67.59375 C 313.18047 43.013063 286.49954 23.80459 256.69141 12.765625 C 230.81754 3.1535067 202.84429 -0.14869587 175.36914 1.5800781 C 147.52292 3.2630491 119.84676 10.250309 95.072266 23.207031 C 66.862932 37.91994 42.777184 60.492045 26.447266 87.8125 C 12.883485 110.39318 4.426404 135.94494 1.375 162.08789 C -0.82877098 180.78879 -0.5134076 199.87265 3.2714844 218.35352 C 8.8133434 245.44519 21.47768 270.94998 39.246094 292.09766 C 56.960089 313.30666 79.467912 330.33598 104.29688 342.375 C 127.65784 353.71261 153.05636 360.75355 178.85938 363.45312 C 165.2167 371.68543 153.82321 383.57788 146.16406 397.54883 C 138.2879 411.81847 134.25487 428.21499 134.84375 444.51758 C 135.4551 464.57274 142.82209 484.40966 155.71094 499.81836 C 169.30525 516.28853 188.79525 527.87221 209.86523 531.54688 C 217.80562 532.98466 225.90576 533.20573 233.95508 533.01953 C 680.6578 533.01053 1127.3599 533.00849 1574.0625 532.99609 C 1599.0947 532.5851 1623.778 521.32278 1640.3672 502.54883 C 1654.9388 486.32753 1663.4489 464.74222 1663.6309 442.91797 C 1663.9276 421.51651 1656.5346 400.0245 1642.8008 383.56641 C 1636.7893 376.28194 1629.64 369.94014 1621.707 364.81641 L 1798.5527 364.81641 L 1798.5527 246.02344 C 1792.9101 246.17547 1787.2783 246.58779 1781.668 247.20312 C 1774.7672 203.15483 1767.8452 159.04109 1761.0547 114.94922 C 1764.1485 113.37107 1767.4556 111.86589 1769.6504 109.05859 C 1773.2635 104.84975 1774.7528 99.092013 1774.2285 93.623047 L 1774.2285 8.2421875 L 1590.0566 8.2421875 C 1588.8438 8.1685875 1587.61 8.2896675 1586.3848 8.2421875 L 1412.707 8.2421875 L 1412.707 44.939453 C 1392.0427 27.195608 1367.2924 14.338686 1341.0234 7.2207031 C 1322.5387 2.1582491 1303.3369 -0.17956437 1284.1816 0.009765625 z M 1280.5371 50.367188 C 1363.6771 50.367187 1426.1133 108.95436 1426.1133 184.58203 C 1426.1133 260.20971 1365.2346 322.2793 1280.5371 322.2793 C 1195.8396 322.2793 1134.9629 260.1639 1134.9629 184.58203 C 1134.9629 109.00016 1197.397 50.367188 1280.5371 50.367188 z M 188.12695 51.191406 C 252.44025 51.191406 291.24023 100.48047 291.24023 100.48047 L 247.49414 146.5625 C 245.20379 148.99028 241.40114 149.22041 238.83594 147.11328 L 231.41602 141.01953 C 231.09537 140.74469 230.91211 140.28691 230.91211 139.69141 C 230.91211 138.13397 235.2168 134.19509 235.2168 126.72852 C 235.2168 119.21614 233.6606 88.158203 185.83789 88.158203 C 138.01518 88.158203 116.80469 133.05029 116.80469 170.0625 C 116.80469 207.07472 139.57219 274.82227 214.05469 274.82227 C 257.3883 274.82227 266.5957 250.4082 266.5957 250.4082 L 281.48242 250.4082 L 281.48242 314.08008 L 199.90039 314.08008 C 102.65171 314.08008 48.552734 237.71934 48.552734 182.61328 C 48.552734 98.099014 121.75233 51.191406 188.12695 51.191406 z M 1018.6582 51.605469 C 1082.9256 51.651279 1121.7695 100.93945 1121.7695 100.93945 L 1078.0234 147.02148 C 1075.733 149.44926 1071.9304 149.67744 1069.3652 147.57031 L 1061.9453 141.47852 C 1061.6247 141.20368 1061.4414 140.74589 1061.4414 140.15039 C 1061.4414 138.59295 1065.748 134.65212 1065.748 127.18555 C 1065.748 119.67317 1064.19 88.617188 1016.3672 88.617188 C 968.54452 88.617186 947.33594 133.50732 947.33594 170.51953 C 947.33594 207.53175 970.10139 275.28125 1044.584 275.28125 C 1087.9176 275.28125 1097.125 250.86523 1097.125 250.86523 L 1112.0137 250.86523 L 1112.0137 314.53711 L 1030.4297 314.53711 C 933.18092 314.53711 879.08398 238.17725 879.08398 183.02539 C 879.08398 98.511117 952.28345 51.605469 1018.6582 51.605469 z M 428.47852 58.154297 L 495.53906 58.154297 L 577.12109 272.34961 C 579.45728 278.25874 583.39849 283.75452 587.33789 288.47266 C 591.2315 293.1908 600.66602 296.35156 600.66602 296.35156 L 600.66602 314.85938 L 502.22656 314.85938 L 502.22656 295.93945 C 502.22656 295.93945 508.50335 296.76533 511.66406 291.22266 C 514.82475 285.7258 514.8233 281.37381 512.44141 275.87695 C 510.10521 270.38009 493.61523 226.63477 493.61523 226.63477 L 413.22461 226.63477 C 413.22461 226.63477 396.73322 270.74614 395.17578 274.68555 C 393.61833 278.62497 393.61833 284.94623 395.17578 288.83984 C 397.78679 295.39027 406.94922 296.35156 406.94922 296.35156 L 406.94922 314.85938 L 328.16016 314.85938 L 328.16016 296.35156 C 328.16016 296.35156 335.30658 293.87791 340.66602 288.47266 C 346.57515 282.56353 348.54492 276.24219 348.54492 276.24219 L 428.47852 58.154297 z M 632 58.154297 L 757.46484 58.154297 C 803.73014 58.154297 849.99609 74.691638 849.99609 128.24023 C 849.99609 181.78884 816.28203 200.66141 787.24023 214.03711 C 753.75513 229.51994 709.5957 241.61328 709.5957 241.61328 L 709.5957 282.51953 C 709.5957 282.51953 709.96294 285.26731 713.90234 290.03125 C 717.79594 294.74939 722.14844 295.93945 722.14844 295.93945 L 722.14844 314.85938 L 631.17383 314.85938 L 631.17383 296.35156 C 631.17383 296.35156 636.67193 295.16208 640.61133 291.22266 C 644.55073 287.28324 645.32812 282.56445 645.32812 282.56445 L 645.32812 97.503906 C 645.32814 97.503906 645.69498 89.62554 642.58008 86.464844 C 639.41938 83.304147 632 78.998047 632 78.998047 L 632 58.154297 z M 1627.1152 58.154297 L 1724.7305 58.154297 L 1724.7305 73.5 C 1724.7305 73.5 1718.2246 76.249305 1715.293 79.822266 C 1711.7658 84.128142 1711.7662 87.333789 1712.5449 93.609375 C 1713.3236 99.930768 1738.4264 270.79277 1739.2051 277.06836 C 1739.9838 283.38975 1740.8078 286.91589 1742.3652 291.26758 C 1743.9226 295.57345 1751.3887 299.14648 1751.3887 299.14648 L 1751.3887 314.99609 L 1657.668 314.99609 L 1657.668 297.95508 C 1657.668 297.95508 1665.9126 296.76559 1668.6152 292.82617 C 1671.3637 288.88675 1672.555 286.50411 1671.7305 280.22852 C 1670.9518 273.90713 1648.5977 130.62109 1648.5977 130.62109 L 1607.8301 257.41602 L 1558.4492 257.41602 L 1518.0469 138.5 L 1497.6641 278.66992 C 1497.6641 278.66992 1496.8852 287.05405 1500 291.63477 C 1504.3059 297.95616 1512.1387 297.95508 1512.1387 297.95508 L 1512.1387 314.85938 L 1430.9688 314.85938 L 1430.9688 296.76562 C 1430.9688 296.76562 1437.4263 295.75663 1442.1445 290.25977 C 1446.8626 284.76291 1447.6426 277.66406 1447.6426 277.66406 L 1477.2344 92.832031 C 1477.2344 92.832031 1479.0205 85.913717 1477.0508 82.798828 C 1474.9895 79.50071 1463.9043 76.662109 1463.9043 76.662109 L 1463.9043 58.337891 L 1464.041 58.337891 L 1557.3496 58.337891 L 1591.0645 162.91602 L 1627.1152 58.154297 z M 1280.584 91.273438 C 1248.3815 91.273438 1205.2754 110.14576 1205.2754 185.77344 C 1205.2754 261.35531 1243.7092 280.27344 1280.584 280.27344 C 1317.413 280.27344 1356.668 256.63717 1356.668 185.77344 C 1356.668 114.90971 1312.7406 91.273438 1280.584 91.273438 z M 733.74219 93.855469 C 720.78644 94.220227 710.42188 96.771484 710.42188 96.771484 L 710.42188 206.20312 C 710.42186 206.20312 784.125 175.5133 784.125 132.17969 C 784.125 98.711804 755.3351 93.247539 733.74219 93.855469 z M 451.65625 111.70312 L 426.55469 186.50586 L 478.31641 186.50586 L 451.65625 111.70312 z M 169.37695 155.19922 C 169.40625 155.27282 169.43554 155.34635 169.46484 155.41992 C 170.46703 157.89697 172.3328 159.97201 174.63281 161.31641 C 191.71542 172.98485 208.71803 184.77244 225.76953 196.48633 C 228.20024 198.15997 230.62984 199.83221 233.06055 201.50586 C 231.45453 205.99899 230.50409 210.71483 228.61133 215.10547 C 226.13527 220.96613 220.05613 224.7895 213.82617 225.34375 C 209.35947 225.8797 204.79946 225.48023 200.46289 224.30273 C 200.16025 224.21003 199.41547 224.00981 198.95117 223.85156 C 192.02956 221.68568 185.85714 217.40834 181.16406 211.9043 C 174.48482 204.17059 170.52779 194.41874 168.60352 184.46094 C 167.7951 180.411 167.30279 176.29716 167.11328 172.17188 C 167.07838 171.31707 167.04286 170.18262 167.03906 169.2168 C 166.97146 164.45575 167.7313 159.67179 169.37695 155.19922 z M 840.94922 239.03711 C 840.98632 239.13221 841.02342 239.22722 841.06055 239.32227 C 851.48675 265.61019 867.52644 289.7629 888.28516 309.02539 C 907.62767 327.12475 930.75609 341.0476 955.57031 350.24414 C 895.1634 350.24479 834.75651 350.24509 774.34961 350.24609 L 774.34961 271.85547 C 797.80463 263.74628 820.12799 252.51238 840.94922 239.03711 z M 1561.6836 306.50391 L 1607.9844 306.50391 L 1607.9844 357.50977 C 1596.9832 352.78612 1585.0298 350.41284 1573.0723 350.24219 C 1569.2764 350.16169 1565.4798 350.25095 1561.6836 350.25195 L 1561.6836 306.50391 z M 1159.4043 332.41797 L 1159.4863 332.47656 L 1159.5352 332.50977 C 1169.1296 339.10598 1179.1706 345.0567 1189.5977 350.24023 C 1179.5333 350.24088 1169.4687 350.24119 1159.4043 350.24219 L 1159.4043 332.41797 z M 1380.1387 344.79297 L 1380.1387 350.24023 L 1369.9824 350.24023 C 1373.4077 348.50006 1376.7976 346.68994 1380.1387 344.79297 z M 874.27344 408.03125 C 885.31297 408.03125 893.97108 411.0074 901.02539 416.6875 L 892 429.42188 C 886.04507 425.2534 879.54035 423.00977 873.81445 423.00977 C 869.46276 423.00977 867.31055 424.88737 867.31055 427.17773 L 867.31055 427.36133 C 867.31055 430.3388 869.55499 431.62031 878.5332 433.68164 C 893.46634 436.93395 902.76562 441.74498 902.76562 453.92969 L 902.76562 454.11328 C 902.76564 467.39737 892.27615 475.27539 876.47266 475.27539 C 865.02086 475.27539 854.02709 471.65569 846.05664 464.50977 L 856.08789 452.50977 C 862.5009 457.64018 869.64582 460.29687 877.1582 460.29688 C 881.96796 460.29686 884.58008 458.64776 884.58008 455.85352 L 884.58008 455.66992 C 884.58008 452.96729 882.42779 451.50077 873.63281 449.43945 C 859.79903 446.27875 849.125 442.38547 849.125 429.00977 L 849.125 428.82617 C 849.125 416.73307 858.69899 408.03125 874.27344 408.03125 z M 1051.6387 408.03125 C 1062.6782 408.03125 1071.3363 411.0074 1078.3906 416.6875 L 1069.3652 429.42188 C 1063.4102 425.2534 1056.9075 423.00977 1051.1816 423.00977 C 1046.8299 423.00977 1044.6758 424.88737 1044.6758 427.17773 L 1044.6758 427.36133 C 1044.6758 430.3388 1046.9202 431.62031 1055.8984 433.68164 C 1070.8316 436.93395 1080.1309 441.74498 1080.1309 453.92969 L 1080.1309 454.11328 C 1080.1309 467.39737 1069.6414 475.27539 1053.8379 475.27539 C 1042.3861 475.27539 1031.4382 471.65569 1023.4219 464.50977 L 1033.4531 452.50977 C 1039.8661 457.64018 1047.013 460.29687 1054.5254 460.29688 C 1059.3352 460.29686 1061.9453 458.64776 1061.9453 455.85352 L 1061.9453 455.66992 C 1061.9453 452.96729 1059.793 451.50077 1050.998 449.43945 C 1037.1642 446.27875 1026.4902 442.38547 1026.4902 429.00977 L 1026.4902 428.82617 C 1026.4902 416.73307 1036.0642 408.03125 1051.6387 408.03125 z M 633.37305 408.67188 L 650.73438 408.67188 L 678.40234 474.13086 L 659.07031 474.13086 L 654.35352 462.54102 L 629.29688 462.54102 L 624.66992 474.13086 L 605.70508 474.13086 L 633.37305 408.67188 z M 435.48633 409.12891 L 463.33789 409.12891 C 479.78267 409.12891 490.36328 417.55901 490.36328 431.98828 L 490.36328 432.16992 C 490.36328 447.51533 478.58986 455.57813 462.41992 455.57812 L 453.48828 455.57812 L 453.48828 474.17578 L 435.48633 474.17578 L 435.48633 409.12891 z M 525.86328 409.12891 L 543.86523 409.12891 L 543.86523 458.37305 L 575.33594 458.37305 L 575.33594 474.17578 L 525.81836 474.17578 L 525.86328 409.12891 z M 696.49609 409.12891 L 717.01758 409.12891 L 730.39258 432.8125 L 743.85938 409.12891 L 764.01562 409.12891 L 739.32617 449.53125 L 739.32617 474.13086 L 721.23242 474.13086 L 721.18555 449.80664 L 696.49609 409.12891 z M 930.66211 409.12891 L 951.18359 409.12891 L 964.55859 432.8125 L 978.02734 409.12891 L 998.18164 409.12891 L 973.49219 449.53125 L 973.49219 474.13086 L 955.39844 474.13086 L 955.35156 449.80664 L 930.66211 409.12891 z M 1111.2793 409.12891 L 1168.3105 409.12891 L 1168.3105 424.93359 L 1148.7949 424.93359 L 1148.7949 474.17578 L 1130.793 474.17578 L 1130.793 424.93359 L 1111.2793 424.93359 L 1111.2793 409.12891 z M 1204.0859 409.12891 L 1256.3965 409.12891 L 1256.3965 424.47461 L 1221.9492 424.47461 L 1221.9492 434.32422 L 1253.1445 434.32422 L 1253.1445 448.52344 L 1221.9492 448.52344 L 1221.9492 458.83008 L 1256.8555 458.83008 L 1256.8555 474.17578 L 1204.0859 474.17578 L 1204.0859 409.12891 z M 1293.959 409.12891 L 1312.9238 409.12891 L 1328.4512 434.27734 L 1343.9805 409.12891 L 1363.0352 409.12891 L 1363.0352 474.13086 L 1345.125 474.13086 L 1345.125 436.79688 L 1328.498 462.26562 L 1328.1309 462.26562 L 1311.5938 436.98047 L 1311.5938 474.13086 L 1293.959 474.13086 L 1293.959 409.12891 z M 453.53516 424.24609 L 453.53516 441.42383 L 462.05469 441.46875 C 468.4677 441.46875 472.36133 438.12649 472.36133 432.99609 L 472.36133 432.8125 C 472.36133 427.22402 468.46752 424.24609 461.96289 424.24609 L 453.53516 424.24609 z M 641.93945 430.01758 L 634.60938 448.52344 L 649.17773 448.52344 L 641.93945 430.01758 z " />
  <path
     id="rect4789_00000023279678385123697860000008904562164264106648_"
     style="clip-rule:evenodd;fill:#ffffff;fill-rule:evenodd;stroke-width:0.458072"
     class="st0"
     d="M 1286.4473 19.998047 C 1233.9523 19.998047 1176.6009 39.832201 1140.9629 82.570312 C 1115.4483 43.725814 1070.7854 20.363281 1007.6172 20.363281 C 946.23562 20.363281 903.2238 48.169179 871.9375 90.449219 C 849.30879 49.543395 829.24495 28.242188 751.18945 28.242188 L 600.62109 28.242188 L 600.62109 97.548828 C 600.62109 97.548828 607.76616 99.518554 611.98047 104.41992 C 614.54567 107.35158 615.0957 111.88713 615.0957 116.00977 C 615.0957 120.13242 614.73047 266.85352 614.73047 266.85352 C 608.45486 263.69283 602.17773 251.87305 602.17773 251.87305 L 515.92383 28.242188 L 408.50586 28.242188 L 314.50977 277.11328 L 314.50977 221.45703 L 247.67578 221.45703 C 247.67578 221.45703 239.84303 245.59766 210.06836 245.59766 C 177.95751 245.59766 148.87134 218.84635 147.03906 171.61914 C 145.52742 130.6675 181.53051 109.82617 194.40234 119.62891 C 210.89293 132.22589 192.8457 149.54102 192.8457 149.54102 L 247.72266 187.33203 L 330.86328 99.152344 C 330.86328 99.152344 290.87365 21.142578 189.68555 21.142578 C 83.825114 21.142578 19.96875 96.815866 19.96875 185.77344 C 19.96875 274.73101 101.87301 344.81728 203.83984 344.77148 L 754.34961 344.77148 L 754.34961 278.44141 C 754.34961 278.44141 736.66797 275.50985 736.66797 267.21875 C 736.66797 262.63803 738.77486 261.03528 742.94336 260.11914 C 796.62936 248.02604 841.38353 215.91425 851.55273 206.20312 C 872.99053 295.66458 949.67202 344.77148 1038.9961 344.77148 L 1139.4062 344.77148 L 1139.4062 289.66406 C 1139.4064 289.66406 1196.4355 352.65039 1281.7285 352.65039 C 1348.4237 352.65039 1400.1406 306.98047 1400.1406 306.98047 L 1400.1406 344.95312 L 1541.6836 344.95312 L 1541.6836 286.50391 L 1627.9844 286.50391 L 1627.9844 344.81641 L 1778.5527 344.81641 L 1778.5527 267.63086 C 1778.5527 267.63086 1772.6896 268.36431 1768.3379 264.4707 C 1764.5817 261.12677 1763.0696 256.59191 1762.1992 252.24023 L 1741.2656 118.39062 C 1739.3875 106.29753 1743.649 101.07572 1754.2305 95.945312 L 1754.2305 28.242188 L 1604.4395 28.242188 L 1593.0801 67.224609 L 1577.7812 28.242188 L 1432.709 28.242188 L 1432.709 99.931641 C 1404.8124 51.330208 1350.9438 19.998047 1286.4473 19.998047 z M 1280.5371 50.367188 C 1363.6771 50.367187 1426.1133 108.95436 1426.1133 184.58203 C 1426.1133 260.20971 1365.2346 322.2793 1280.5371 322.2793 C 1195.8396 322.2793 1134.9629 260.1639 1134.9629 184.58203 C 1134.9629 109.00016 1197.397 50.367188 1280.5371 50.367188 z M 188.12695 51.191406 C 252.44025 51.191406 291.24023 100.48047 291.24023 100.48047 L 247.49414 146.5625 C 245.20379 148.99028 241.40114 149.22041 238.83594 147.11328 L 231.41602 141.01953 C 231.09537 140.74469 230.91211 140.28691 230.91211 139.69141 C 230.91211 138.13397 235.2168 134.19509 235.2168 126.72852 C 235.2168 119.21614 233.6606 88.158203 185.83789 88.158203 C 138.01518 88.158203 116.80469 133.05029 116.80469 170.0625 C 116.80469 207.07472 139.57219 274.82227 214.05469 274.82227 C 257.3883 274.82227 266.5957 250.4082 266.5957 250.4082 L 281.48242 250.4082 L 281.48242 314.08008 L 199.90039 314.08008 C 102.65171 314.08008 48.552734 237.71934 48.552734 182.61328 C 48.552734 98.099014 121.75233 51.191406 188.12695 51.191406 z M 1018.6582 51.605469 C 1082.9256 51.651279 1121.7695 100.93945 1121.7695 100.93945 L 1078.0234 147.02148 C 1075.733 149.44926 1071.9304 149.67744 1069.3652 147.57031 L 1061.9453 141.47852 C 1061.6247 141.20368 1061.4414 140.74589 1061.4414 140.15039 C 1061.4414 138.59295 1065.748 134.65212 1065.748 127.18555 C 1065.748 119.67317 1064.19 88.617188 1016.3672 88.617188 C 968.54452 88.617186 947.33594 133.50732 947.33594 170.51953 C 947.33594 207.53175 970.10139 275.28125 1044.584 275.28125 C 1087.9176 275.28125 1097.125 250.86523 1097.125 250.86523 L 1112.0137 250.86523 L 1112.0137 314.53711 L 1030.4297 314.53711 C 933.18092 314.53711 879.08398 238.17725 879.08398 183.02539 C 879.08398 98.511117 952.28345 51.605469 1018.6582 51.605469 z M 428.47852 58.154297 L 495.53906 58.154297 L 577.12109 272.34961 C 579.45728 278.25874 583.39849 283.75452 587.33789 288.47266 C 591.2315 293.1908 600.66602 296.35156 600.66602 296.35156 L 600.66602 314.85938 L 502.22656 314.85938 L 502.22656 295.93945 C 502.22656 295.93945 508.50335 296.76533 511.66406 291.22266 C 514.82475 285.7258 514.8233 281.37381 512.44141 275.87695 C 510.10521 270.38009 493.61523 226.63477 493.61523 226.63477 L 413.22461 226.63477 C 413.22461 226.63477 396.73322 270.74614 395.17578 274.68555 C 393.61833 278.62497 393.61833 284.94623 395.17578 288.83984 C 397.78679 295.39027 406.94922 296.35156 406.94922 296.35156 L 406.94922 314.85938 L 328.16016 314.85938 L 328.16016 296.35156 C 328.16016 296.35156 335.30658 293.87791 340.66602 288.47266 C 346.57515 282.56353 348.54492 276.24219 348.54492 276.24219 L 428.47852 58.154297 z M 632 58.154297 L 757.46484 58.154297 C 803.73014 58.154297 849.99609 74.691638 849.99609 128.24023 C 849.99609 181.78884 816.28203 200.66141 787.24023 214.03711 C 753.75513 229.51994 709.5957 241.61328 709.5957 241.61328 L 709.5957 282.51953 C 709.5957 282.51953 709.96294 285.26731 713.90234 290.03125 C 717.79594 294.74939 722.14844 295.93945 722.14844 295.93945 L 722.14844 314.85938 L 631.17383 314.85938 L 631.17383 296.35156 C 631.17383 296.35156 636.67193 295.16208 640.61133 291.22266 C 644.55073 287.28324 645.32812 282.56445 645.32812 282.56445 L 645.32812 97.503906 C 645.32814 97.503906 645.69498 89.62554 642.58008 86.464844 C 639.41938 83.304147 632 78.998047 632 78.998047 L 632 58.154297 z M 1627.1152 58.154297 L 1724.7305 58.154297 L 1724.7305 73.5 C 1724.7305 73.5 1718.2246 76.249305 1715.293 79.822266 C 1711.7658 84.128142 1711.7662 87.333789 1712.5449 93.609375 C 1713.3236 99.930768 1738.4264 270.79277 1739.2051 277.06836 C 1739.9838 283.38975 1740.8078 286.91589 1742.3652 291.26758 C 1743.9226 295.57345 1751.3887 299.14648 1751.3887 299.14648 L 1751.3887 314.99609 L 1657.668 314.99609 L 1657.668 297.95508 C 1657.668 297.95508 1665.9126 296.76559 1668.6152 292.82617 C 1671.3637 288.88675 1672.555 286.50411 1671.7305 280.22852 C 1670.9518 273.90713 1648.5977 130.62109 1648.5977 130.62109 L 1607.8301 257.41602 L 1558.4492 257.41602 L 1518.0469 138.5 L 1497.6641 278.66992 C 1497.6641 278.66992 1496.8852 287.05405 1500 291.63477 C 1504.3059 297.95616 1512.1387 297.95508 1512.1387 297.95508 L 1512.1387 314.85938 L 1430.9688 314.85938 L 1430.9688 296.76562 C 1430.9688 296.76562 1437.4263 295.75663 1442.1445 290.25977 C 1446.8626 284.76291 1447.6426 277.66406 1447.6426 277.66406 L 1477.2344 92.832031 C 1477.2344 92.832031 1479.0205 85.913717 1477.0508 82.798828 C 1474.9895 79.50071 1463.9043 76.662109 1463.9043 76.662109 L 1463.9043 58.337891 L 1464.041 58.337891 L 1557.3496 58.337891 L 1591.0645 162.91602 L 1627.1152 58.154297 z M 1280.584 91.273438 C 1248.3815 91.273438 1205.2754 110.14576 1205.2754 185.77344 C 1205.2754 261.35531 1243.7092 280.27344 1280.584 280.27344 C 1317.413 280.27344 1356.668 256.63717 1356.668 185.77344 C 1356.668 114.90971 1312.7406 91.273438 1280.584 91.273438 z M 733.74219 93.855469 C 720.78644 94.220227 710.42188 96.771484 710.42188 96.771484 L 710.42188 206.20312 C 710.42186 206.20312 784.125 175.5133 784.125 132.17969 C 784.125 98.711804 755.3351 93.247539 733.74219 93.855469 z M 451.65625 111.70312 L 426.55469 186.50586 L 478.31641 186.50586 L 451.65625 111.70312 z M 226.14648 370.24023 C 186.75229 370.24023 154.8251 402.21234 154.7793 441.65234 C 154.7793 481.04652 186.70649 513.01953 226.14648 513.01953 L 1572.2832 513.01953 C 1611.6774 513.01953 1643.6504 481.09233 1643.6504 441.65234 C 1643.6504 402.21234 1611.6783 370.24023 1572.2383 370.24023 L 226.14648 370.24023 z M 874.27344 408.03125 C 885.31297 408.03125 893.97108 411.0074 901.02539 416.6875 L 892 429.42188 C 886.04507 425.2534 879.54035 423.00977 873.81445 423.00977 C 869.46276 423.00977 867.31055 424.88737 867.31055 427.17773 L 867.31055 427.36133 C 867.31055 430.3388 869.55499 431.62031 878.5332 433.68164 C 893.46634 436.93395 902.76562 441.74498 902.76562 453.92969 L 902.76562 454.11328 C 902.76564 467.39737 892.27615 475.27539 876.47266 475.27539 C 865.02086 475.27539 854.02709 471.65569 846.05664 464.50977 L 856.08789 452.50977 C 862.5009 457.64018 869.64582 460.29687 877.1582 460.29688 C 881.96796 460.29686 884.58008 458.64776 884.58008 455.85352 L 884.58008 455.66992 C 884.58008 452.96729 882.42779 451.50077 873.63281 449.43945 C 859.79903 446.27875 849.125 442.38547 849.125 429.00977 L 849.125 428.82617 C 849.125 416.73307 858.69899 408.03125 874.27344 408.03125 z M 1051.6387 408.03125 C 1062.6782 408.03125 1071.3363 411.0074 1078.3906 416.6875 L 1069.3652 429.42188 C 1063.4102 425.2534 1056.9075 423.00977 1051.1816 423.00977 C 1046.8299 423.00977 1044.6758 424.88737 1044.6758 427.17773 L 1044.6758 427.36133 C 1044.6758 430.3388 1046.9202 431.62031 1055.8984 433.68164 C 1070.8316 436.93395 1080.1309 441.74498 1080.1309 453.92969 L 1080.1309 454.11328 C 1080.1309 467.39737 1069.6414 475.27539 1053.8379 475.27539 C 1042.3861 475.27539 1031.4382 471.65569 1023.4219 464.50977 L 1033.4531 452.50977 C 1039.8661 457.64018 1047.013 460.29687 1054.5254 460.29688 C 1059.3352 460.29686 1061.9453 458.64776 1061.9453 455.85352 L 1061.9453 455.66992 C 1061.9453 452.96729 1059.793 451.50077 1050.998 449.43945 C 1037.1642 446.27875 1026.4902 442.38547 1026.4902 429.00977 L 1026.4902 428.82617 C 1026.4902 416.73307 1036.0642 408.03125 1051.6387 408.03125 z M 633.37305 408.67188 L 650.73438 408.67188 L 678.40234 474.13086 L 659.07031 474.13086 L 654.35352 462.54102 L 629.29688 462.54102 L 624.66992 474.13086 L 605.70508 474.13086 L 633.37305 408.67188 z M 435.48633 409.12891 L 463.33789 409.12891 C 479.78267 409.12891 490.36328 417.55901 490.36328 431.98828 L 490.36328 432.16992 C 490.36328 447.51533 478.58986 455.57813 462.41992 455.57812 L 453.48828 455.57812 L 453.48828 474.17578 L 435.48633 474.17578 L 435.48633 409.12891 z M 525.86328 409.12891 L 543.86523 409.12891 L 543.86523 458.37305 L 575.33594 458.37305 L 575.33594 474.17578 L 525.81836 474.17578 L 525.86328 409.12891 z M 696.49609 409.12891 L 717.01758 409.12891 L 730.39258 432.8125 L 743.85938 409.12891 L 764.01562 409.12891 L 739.32617 449.53125 L 739.32617 474.13086 L 721.23242 474.13086 L 721.18555 449.80664 L 696.49609 409.12891 z M 930.66211 409.12891 L 951.18359 409.12891 L 964.55859 432.8125 L 978.02734 409.12891 L 998.18164 409.12891 L 973.49219 449.53125 L 973.49219 474.13086 L 955.39844 474.13086 L 955.35156 449.80664 L 930.66211 409.12891 z M 1111.2793 409.12891 L 1168.3105 409.12891 L 1168.3105 424.93359 L 1148.7949 424.93359 L 1148.7949 474.17578 L 1130.793 474.17578 L 1130.793 424.93359 L 1111.2793 424.93359 L 1111.2793 409.12891 z M 1204.0859 409.12891 L 1256.3965 409.12891 L 1256.3965 424.47461 L 1221.9492 424.47461 L 1221.9492 434.32422 L 1253.1445 434.32422 L 1253.1445 448.52344 L 1221.9492 448.52344 L 1221.9492 458.83008 L 1256.8555 458.83008 L 1256.8555 474.17578 L 1204.0859 474.17578 L 1204.0859 409.12891 z M 1293.959 409.12891 L 1312.9238 409.12891 L 1328.4512 434.27734 L 1343.9805 409.12891 L 1363.0352 409.12891 L 1363.0352 474.13086 L 1345.125 474.13086 L 1345.125 436.79688 L 1328.498 462.26562 L 1328.1309 462.26562 L 1311.5938 436.98047 L 1311.5938 474.13086 L 1293.959 474.13086 L 1293.959 409.12891 z M 453.53516 424.24609 L 453.53516 441.42383 L 462.05469 441.46875 C 468.4677 441.46875 472.36133 438.12649 472.36133 432.99609 L 472.36133 432.8125 C 472.36133 427.22402 468.46752 424.24609 461.96289 424.24609 L 453.53516 424.24609 z M 641.93945 430.01758 L 634.60938 448.52344 L 649.17773 448.52344 L 641.93945 430.01758 z " />
</svg>
