<?xml version="1.0" encoding="UTF-8" standalone="no"?>
<svg
   width="158.09mm"
   height="100.449mm"
   version="1.1"
   viewBox="0 0 158.09 100.449"
   id="svg123"
   sodipodi:docname="system_color.svg"
   inkscape:version="1.1.2 (0a00cf5339, 2022-02-04)"
   xmlns:inkscape="http://www.inkscape.org/namespaces/inkscape"
   xmlns:sodipodi="http://sodipodi.sourceforge.net/DTD/sodipodi-0.dtd"
   xmlns:xlink="http://www.w3.org/1999/xlink"
   xmlns="http://www.w3.org/2000/svg"
   xmlns:svg="http://www.w3.org/2000/svg">
  <sodipodi:namedview
     id="namedview125"
     pagecolor="#ffffff"
     bordercolor="#666666"
     borderopacity="1.0"
     inkscape:pageshadow="2"
     inkscape:pageopacity="0.0"
     inkscape:pagecheckerboard="0"
     inkscape:document-units="mm"
     showgrid="false"
     inkscape:zoom="1.24434"
     inkscape:cx="279.26451"
     inkscape:cy="159.1205"
     inkscape:window-width="1920"
     inkscape:window-height="995"
     inkscape:window-x="0"
     inkscape:window-y="0"
     inkscape:window-maximized="1"
     inkscape:current-layer="svg123"
     height="90.449mm" />
  <defs
     id="defs19">
    <linearGradient
       id="linearGradient14680">
      <stop
         offset="0"
         id="stop2" />
      <stop
         stop-color="#594d17"
         offset=".21765"
         id="stop4" />
      <stop
         stop-color="#6f601d"
         offset=".63688"
         id="stop6" />
      <stop
         stop-color="#3c3410"
         offset=".84407"
         id="stop8" />
      <stop
         stop-color="#29230b"
         offset="1"
         id="stop10" />
    </linearGradient>
    <linearGradient
       id="linearGradient14622"
       x1="50.304001"
       x2="69.417"
       y1="129.88"
       y2="201.21001"
       gradientUnits="userSpaceOnUse"
       xlink:href="#linearGradient14680"
       gradientTransform="matrix(0.96593,-0.25882,-0.25882,-0.96593,5.465,218.214)" />
    <linearGradient
       id="linearGradient14624"
       x1="50.609001"
       x2="69.632004"
       y1="130.35001"
       y2="201.34"
       gradientUnits="userSpaceOnUse"
       xlink:href="#linearGradient14680"
       gradientTransform="rotate(-165,90.678612,99.062406)" />
    <linearGradient
       id="linearGradient14708"
       x1="-1290.6"
       x2="-1290.6"
       y1="186.2"
       y2="268.60999"
       gradientUnits="userSpaceOnUse"
       xlink:href="#linearGradient14680" />
    <linearGradient
       id="linearGradient14716"
       x1="103.07"
       x2="103.07"
       y1="99.521004"
       y2="62.476002"
       gradientTransform="translate(-3.0312e-6,1.0583)"
       gradientUnits="userSpaceOnUse"
       xlink:href="#linearGradient14680" />
    <linearGradient
       id="linearGradient14724"
       x1="101.82"
       x2="101.82"
       y1="61.625999"
       y2="31.544001"
       gradientTransform="translate(-0.65807)"
       gradientUnits="userSpaceOnUse"
       xlink:href="#linearGradient14680" />
    <linearGradient
       id="linearGradient14775"
       x1="94.702003"
       x2="94.702003"
       y1="87.480003"
       y2="80.857002"
       gradientTransform="translate(-19.87872,-35.77683)"
       gradientUnits="userSpaceOnUse"
       xlink:href="#linearGradient14680" />
  </defs>
  <g
     transform="translate(-19.983,-36.306)"
     display="none"
     fill-rule="evenodd"
     id="g25">
    <rect
       x="8.8053999"
       y="31.530001"
       width="180.44"
       height="89.271004"
       ry="0"
       style="paint-order:normal"
       id="rect21" />
    <rect
       x="9.6807003"
       y="27.329"
       width="178.69"
       height="100.3"
       ry="0"
       fill="#dcdcdc"
       style="paint-order:normal"
       id="rect23" />
  </g>
  <g
     id="g930"
     transform="translate(-0.00159794,10.591084)"
     style="stroke:none;fill:#ffffff">
    <g
       id="g3610"
       style="stroke:none;fill:#ffffff">
      <path
         d="m 9.3981138,70.90604 c 0.8616272,1.2854 2.2373912,2.108995 3.6773012,2.178696 0.122919,0.0057 0.244617,0.0057 0.364927,4.66e-4 1.434977,-0.05534 2.643871,-0.872535 3.342048,-2.067643 -0.285786,0.06581 -0.578585,0.112791 -0.875388,0.139727 -1.025342,0.09505 -2.091041,-0.04784 -3.056597,-0.46339 1.421007,0.424163 2.818937,-0.06347 3.797955,-0.701162 -0.819667,-1.105427 -2.185399,-2.063708 -3.593906,-2.203215 -1.528161,0.06961 -2.344131,1.449872 -4.1582429,2.170494 0.1351073,0.334687 0.3043813,0.651534 0.5018087,0.946063 z M 5.7984227,64.412206 c 0.6728522,1.338673 1.8972217,2.295699 3.2778832,2.539155 1.5254411,0.264886 2.9472671,-0.380077 3.8427851,-1.532237 -1.268324,0.123245 -2.618991,-0.127659 -3.7583191,-0.797249 1.3198061,0.581218 2.7318201,0.285237 3.7583271,-0.208062 -0.653527,-1.171581 -1.855443,-2.264964 -3.2017153,-2.5694 -1.4866673,-0.116701 -2.4446852,1.117873 -4.2868123,1.597938 0.089366,0.338155 0.2134907,0.663113 0.3677298,0.969981 z M 3.0933784,57.702152 c 0.4922215,1.366782 1.5603777,2.43037 2.865379,2.826823 1.4420977,0.434103 2.8959438,-0.01756 3.9007531,-1.024187 -1.2413091,-0.03248 -2.5177226,-0.434371 -3.5396477,-1.21291 1.2069895,0.714353 2.6079115,0.595934 3.6599858,0.240941 -0.4927443,-1.211557 -1.5269591,-2.409197 -2.7944567,-2.85887 -1.4247063,-0.284196 -2.4958053,0.798428 -4.3333162,1.051534 0.046768,0.336161 0.1285366,0.663348 0.2413858,0.976709 z M 1.2492702,50.890201 c 0.3200444,1.372541 1.2297674,2.517714 2.4448913,3.047989 1.3431375,0.58213 2.8008864,0.313877 3.88845,-0.543864 -1.1963458,-0.173777 -2.3837288,-0.707044 -3.28228,-1.573407 1.0848834,0.825339 2.4525789,0.870494 3.510512,0.647482 C 7.4729741,51.240296 6.6082621,49.96618 5.4335524,49.389876 4.0883828,48.955869 2.9314403,49.881169 1.127177,49.921054 c 0.00712,0.329403 0.048759,0.654391 0.1221511,0.969131 z M 0.23074301,44.078275 c 0.15652068,1.358588 0.90626279,2.562571 2.01987409,3.208977 1.2313309,0.71042 2.6698774,0.615462 3.8162735,-0.09149 -1.1359218,-0.301415 -2.2230167,-0.948776 -2.994113,-1.883869 0.9555225,0.91632 2.2710869,1.112722 3.3176912,1.015116 C 6.2010379,45.102925 5.5071173,43.77673 4.4364082,43.090876 3.1856058,42.523769 1.9661551,43.289583 0.2199198,43.129908 0.19033015,43.448389 0.1946611,43.766696 0.23057621,44.07831 Z M 0.00122224,37.355789 c 0.00194326,1.32764 0.59265753,2.571233 1.59529906,3.316944 1.1089949,0.820431 2.5071015,0.887357 3.6908663,0.331847 C 4.2250803,40.588473 3.2476973,39.844763 2.607014,38.858162 3.4277489,39.846833 4.6749395,40.180923 5.6951852,40.202087 5.647322,39.000113 5.1238301,37.644402 4.1663974,36.865147 3.0221635,36.180649 1.7620485,36.786278 0.09524338,36.440462 0.03182829,36.744444 7.999286e-4,37.051374 0.00124743,37.355844 Z m 0.52235305,-6.552285 c -0.14355653,1.281734 0.28941233,2.546578 1.17369991,3.376283 0.9786027,0.913553 2.3180442,1.132648 3.5200835,0.727637 C 4.2394743,34.38899 3.3796885,33.563445 2.8704802,32.54089 3.5529067,33.585256 4.7181791,34.045549 5.6991166,34.178496 5.7855351,33.014254 5.4302822,31.648248 4.5929331,30.790333 3.5650262,30.003148 2.2833845,30.448227 0.71389373,29.930081 0.6194511,30.216599 0.556527,30.509393 0.52359443,30.803344 Z M 1.7783602,24.436569 c -0.2983776,1.240914 -0.024821,2.526006 0.73625,3.434694 0.8423026,1.000389 2.1115156,1.360257 3.3147769,1.10431 C 4.9444883,28.363895 4.206313,27.465389 3.8348639,26.409856 4.3708061,27.506102 5.4460571,28.084727 6.376331,28.324942 6.5920333,27.209916 6.4107874,25.843977 5.7093136,24.910313 4.8144297,24.021433 3.5217315,24.300103 2.0728642,23.602731 1.9449012,23.87241 1.8467493,24.15227 1.7783989,24.436559 h 9e-7 z m 2.0942533,-6.076921 c -0.4629474,1.163054 -0.379597,2.443414 0.2291528,3.419833 0.674557,1.075774 1.8511915,1.581059 3.0423421,1.486237 -0.7724349,-0.702045 -1.3623135,-1.66236 -1.5743732,-2.729957 0.3642955,1.128056 1.3219745,1.822456 2.184563,2.172636 C 8.1061278,21.66411 8.1147868,20.327354 7.5730742,19.337114 6.8392376,18.362842 5.5622504,18.458509 4.2738977,17.591305 4.1125913,17.83534 3.9786938,18.093265 3.872692,18.359555 Z m 2.9247483,-5.631074 c -0.6209005,1.059776 -0.7328856,2.309694 -0.2945762,3.335407 0.4867378,1.131068 1.5400698,1.775715 2.6903459,1.850968 -0.6375905,-0.78025 -1.0608258,-1.784865 -1.1040563,-2.843243 0.1795687,1.137902 0.9938305,1.938748 1.7663127,2.395584 0.4848841,-0.947537 0.6920481,-2.2268 0.3261951,-3.256812 -0.5520868,-1.044298 -1.7854169,-1.140467 -2.8822143,-2.16791 -0.1919116,0.212885 -0.360014,0.443419 -0.5021075,0.68594 z M 10.554015,7.6560216 c -0.48535,0.5717517 -0.7978688,1.2542452 -0.9044869,1.9459106 -0.062709,0.4258108 -0.047155,0.8512228 0.050241,1.2562058 0.2840684,1.168188 1.1889799,1.94578 2.2744449,2.196279 -0.369837,-0.645487 -0.600363,-1.39868 -0.62999,-2.181385 -0.008,-0.243394 0.0036,-0.488471 0.03659,-0.732089 -0.0059,0.296896 0.03487,0.578695 0.110093,0.842104 0.214009,0.737296 0.69539,1.33222 1.186683,1.745758 0.133413,-0.180491 0.255908,-0.376225 0.364534,-0.582219 0.396835,-0.75126 0.630112,-1.667821 0.498005,-2.4985388 C 13.196537,8.5492293 12.029369,8.2490847 11.164166,7.0709663 10.939485,7.2458579 10.73516,7.4425538 10.55401,7.6559611 Z m 4.621246,-4.2262852 c -0.935178,0.7344598 -1.473542,1.818552 -1.435375,2.8790125 0.04515,1.170606 0.770663,2.0744318 1.76096,2.5085183 C 15.19423,7.9207427 15.157157,6.8902505 15.487418,5.935124 15.250326,7.0050178 15.703743,7.9804359 16.23255,8.6340453 16.972058,7.9556799 17.592682,6.8972311 17.633454,5.8717314 17.515766,4.7681842 16.46458,4.2666588 15.869077,2.9913244 c -0.2476,0.1232845 -0.48018,0.2705904 -0.693826,0.4383734 l -2e-6,5e-7 z m 5.270932,-3.14581467 c -1.03656,0.51605636 -1.763168,1.43737247 -1.935267,2.44489947 -0.187188,1.1128723 0.326003,2.1016451 1.177781,2.6983236 -0.117045,-0.903517 0.0486,-1.8814971 0.550516,-2.7194579 -0.436375,0.963672 -0.196572,1.9692863 0.176104,2.6856433 C 21.242867,4.895565 22.036102,4.0180062 22.28007,3.0603993 22.390268,1.9974236 21.498065,1.320814 21.193937,0.00125969 20.933738,0.07045176 20.682977,0.1660199 20.446251,0.2839062 l 1e-6,-2.6e-7 z M 21.890462,5.0482803 C 18.630576,6.9353445 15.829438,9.5789794 13.671798,12.618911 10.00877,17.780464 8.0431983,23.952419 7.3335158,30.15911 5.7517683,44.034338 10.073648,58.39308 18.771066,68.918729 h 2e-6 c 1.141037,1.375763 2.362232,2.686566 3.65683,3.906266 1.538196,2.368606 3.352222,4.613609 5.486045,6.625086 -4.025771,-2.468067 -7.540903,-5.780987 -10.462767,-9.499787 l -2e-6,-9e-6 C 8.72263,58.849077 4.7133287,44.086679 6.6442123,30.061995 l 2.9e-6,-1e-6 C 7.505677,23.781918 9.6555741,17.582315 13.465934,12.463692 15.712135,9.4467224 18.590018,6.8596109 21.890695,5.0478968 Z m -0.667486,1.0652698 c 0.473917,0.6623847 1.231497,1.323054 2.113067,1.5534391 -0.797976,-0.1064161 -1.679598,-0.4480385 -2.425344,-0.9299695 0.222962,1.0108412 0.981049,1.829845 1.881312,2.2483011 1.009392,0.4662504 2.036316,0.3791149 2.756282,-0.2134592 C 24.83829,7.6386036 24.806061,6.5576067 23.98258,5.9363673 23.143415,5.4692498 22.035047,5.6019057 21.222924,6.1136674 Z m -4.296572,3.5092173 c 0.61989,0.5554706 1.523881,1.0484206 2.457483,1.0769606 -0.823116,0.07625 -1.778449,-0.06971 -2.628784,-0.38753 0.446351,0.957506 1.375125,1.610372 2.37671,1.828373 1.117753,0.240563 2.121335,-0.07247 2.720888,-0.859039 C 20.879695,10.321445 20.596263,9.2513348 19.632439,8.8238206 18.689727,8.5537994 17.618491,8.9354193 16.926417,9.6228157 Z m -3.493373,4.3670696 c 0.729447,0.425237 1.727313,0.730432 2.66891,0.560851 -0.810597,0.250742 -1.788923,0.302297 -2.698374,0.157184 0.637058,0.861175 1.69266,1.325169 2.733026,1.332555 0.589358,0.0028 1.131672,-0.139842 1.574708,-0.391608 0.42771,-0.239728 0.766713,-0.587655 0.983092,-1.035903 -1.177265,-0.749236 -1.687279,-1.753664 -2.738852,-1.975974 -0.573777,-0.04047 -1.146628,0.14121 -1.636232,0.467621 -0.354861,0.236815 -0.660073,0.544671 -0.886181,0.885248 z m -2.63267,4.972019 c 0.80569,0.298796 1.859983,0.430411 2.769481,0.08578 -0.764727,0.40273 -1.733985,0.627491 -2.672962,0.638779 0.789245,0.754429 1.928754,1.042532 2.97348,0.86064 1.167622,-0.206199 2.03362,-0.950405 2.3048,-1.951735 -1.315724,-0.516913 -2.011446,-1.424549 -3.100893,-1.445494 -1.004582,0.120366 -1.874188,0.898627 -2.273989,1.812102 z m -1.818009,5.400886 c 0.8590527,0.177491 1.944754,0.147903 2.809612,-0.349415 -0.710253,0.533507 -1.654252,0.91115 -2.6014517,1.065233 0.9112207,0.641408 2.1043857,0.763362 3.1345567,0.412788 1.15115,-0.394792 1.914145,-1.301249 2.024702,-2.375791 C 12.938804,22.815411 12.08906,22.012581 10.98784,22.171409 9.9964093,22.4587 9.2443765,23.381724 8.982352,24.362742 Z m -1.0529986,5.669957 c 0.8875246,0.06236 1.9781163,-0.113572 2.7851076,-0.737985 -0.450517,0.446167 -1.0217992,0.825761 -1.6390985,1.110275 -0.2720969,0.126018 -0.5545124,0.233888 -0.8408346,0.320339 0.9903674,0.518308 2.1910241,0.493233 3.1765151,0.0084 0.01094,-0.005 0.02161,-0.01097 0.03254,-0.01597 1.110972,-0.557104 1.770472,-1.589393 1.73665,-2.705887 -1.469038,-0.09611 -2.439974,-0.785976 -3.5295428,-0.466593 -0.9603875,0.433281 -1.5892208,1.468358 -1.7212515,2.487873 z M 7.5864086,35.83965 c 0.9034613,-0.04249 1.9824834,-0.349575 2.7173904,-1.081122 -0.5719206,0.728117 -1.4179375,1.348761 -2.3267,1.742886 1.0734835,0.409675 2.298007,0.234507 3.239274,-0.387973 1.049926,-0.697996 1.583234,-1.831483 1.408311,-2.968042 -1.49011,0.09145 -2.553648,-0.483445 -3.6098643,-0.02414 -0.910971,0.557432 -1.4178965,1.675785 -1.4283981,2.718434 z m 0.3329369,5.86355 c 0.9081528,-0.147886 1.9632875,-0.583105 2.6204055,-1.406757 -0.492901,0.801246 -1.2757493,1.525886 -2.1485958,2.028937 1.1325424,0.288416 2.3504148,-0.03046 3.2294068,-0.767897 0.980108,-0.826422 1.386113,-2.032411 1.074948,-3.159692 -1.494469,0.266828 -2.636619,-0.188811 -3.6499117,0.39785 -0.8548078,0.668511 -1.2367566,1.855321 -1.1262218,2.907675 z m 1.0054904,5.844015 c 0.9005989,-0.253738 1.9171051,-0.814187 2.4870591,-1.720114 -0.406448,0.864445 -1.115182,1.685053 -1.9395273,2.292613 1.1771543,0.160107 2.3710663,-0.301509 3.1750043,-1.14596 0.896146,-0.94581 1.168671,-2.208329 0.724699,-3.309652 -1.47968,0.44141 -2.685901,0.11332 -3.6426809,0.82164 -0.7871534,0.772557 -1.0366908,2.013532 -0.8046534,3.061489 z m 1.6720521,5.74316 c 0.879879,-0.359738 1.84214,-1.041418 2.314659,-2.018875 -0.31224,0.916745 -0.93425,1.824786 -1.696617,2.531898 1.205529,0.02452 2.355332,-0.575825 3.073579,-1.521777 0.797013,-1.054983 0.930098,-2.355704 0.357598,-3.413167 -1.444261,0.614553 -2.699558,0.423226 -3.585128,1.246617 -0.707169,0.868681 -0.817903,2.146953 -0.463989,3.175297 z m 2.332735,5.556606 c 0.844994,-0.465586 1.735925,-1.264718 2.100465,-2.301675 -0.209964,0.957047 -0.732287,1.942941 -1.418267,2.74388 1.217525,-0.118485 2.305651,-0.858603 2.9209,-1.892991 0.681987,-1.152909 0.669505,-2.472436 -0.02662,-3.46675 -1.386691,0.785747 -2.674175,0.739733 -3.473226,1.670811 -0.614079,0.955993 -0.578933,2.254467 -0.10319,3.246751 z m 2.985524,5.278164 c 0.794936,-0.571033 1.596257,-1.482666 1.841706,-2.566115 -0.09929,0.984342 -0.508136,2.037654 -1.102386,2.925928 1.210898,-0.269175 2.216546,-1.147103 2.713655,-2.258819 0.550131,-1.238386 0.385092,-2.555972 -0.42876,-3.466564 -1.305208,0.95423 -2.606556,1.063185 -3.302556,2.09371 -0.507032,1.033458 -0.318878,2.333452 0.278457,3.271829 z m 3.628819,4.900187 c 0.468464,-0.435094 0.922579,-1.011759 1.217109,-1.662049 0.1634,-0.361832 0.27792,-0.747173 0.318924,-1.145997 0.0062,0.309202 -0.01632,0.627083 -0.06437,0.947095 -0.107319,0.713315 -0.345221,1.450997 -0.682176,2.123008 1.184678,-0.432329 2.084824,-1.450531 2.447892,-2.620873 0.105342,-0.342548 0.159904,-0.68355 0.166826,-1.012523 0.02041,-0.933919 -0.329829,-1.789207 -1.016577,-2.38683 -1.198313,1.119412 -2.493562,1.392926 -3.0691,2.5137 -0.320704,0.915989 -0.133991,1.95935 0.357737,2.786883 0.09715,0.16271 0.205757,0.316151 0.323838,0.45763 z"
         fill="url(#linearGradient14622)"
         fill-rule="evenodd"
         style="fill:#ffffff;fill-opacity:1;stroke:none;stroke-width:1;stroke-opacity:0.334059;paint-order:normal"
         id="path117" />
      <path
         d="m 148.69511,70.911364 c -0.86162,1.285394 -2.23738,2.108985 -3.67728,2.178686 -0.12292,0.0057 -0.24462,0.0057 -0.36493,4.66e-4 -1.43497,-0.05534 -2.64386,-0.872532 -3.34203,-2.067635 0.28578,0.06581 0.57858,0.112791 0.87538,0.139727 1.02534,0.09505 2.09104,-0.04784 3.05659,-0.463387 -1.421,0.424161 -2.81893,-0.06347 -3.79794,-0.701161 0.81966,-1.105421 2.18539,-2.063698 3.59389,-2.203205 1.52815,0.06961 2.34412,1.449866 4.15822,2.170486 -0.1351,0.334686 -0.30438,0.651531 -0.5018,0.946059 z m 3.59968,-6.493806 c -0.67285,1.338668 -1.89721,2.295689 -3.27787,2.539144 -1.52543,0.264884 -2.94725,-0.380076 -3.84277,-1.532231 1.26832,0.123245 2.61898,-0.127658 3.75831,-0.797245 -1.3198,0.581215 -2.73181,0.285235 -3.75831,-0.208062 0.65352,-1.171576 1.85543,-2.264954 3.2017,-2.569388 1.48666,-0.116701 2.44467,1.117868 4.28679,1.597932 -0.0894,0.338153 -0.21349,0.663109 -0.36773,0.969976 z m 2.70503,-6.710024 c -0.49221,1.366776 -1.56037,2.430358 -2.86536,2.826809 -1.44209,0.434101 -2.89593,-0.01756 -3.90074,-1.024183 1.24131,-0.03248 2.51771,-0.434369 3.53963,-1.212904 -1.20698,0.71435 -2.6079,0.595932 -3.65997,0.24094 0.49275,-1.211552 1.52696,-2.409187 2.79445,-2.858858 1.4247,-0.284194 2.49579,0.798425 4.3333,1.05153 -0.0468,0.33616 -0.12854,0.663346 -0.24139,0.976706 z m 1.84411,-6.811922 c -0.32005,1.372534 -1.22977,2.517702 -2.44489,3.047975 -1.34313,0.582128 -2.80087,0.313875 -3.88843,-0.543862 1.19634,-0.173776 2.38372,-0.70704 3.28227,-1.573399 -1.08488,0.825335 -2.45257,0.870489 -3.5105,0.647478 0.33787,-1.228099 1.20258,-2.502211 2.37728,-3.078512 1.34517,-0.434004 2.5021,0.491292 4.30636,0.531177 -0.007,0.329402 -0.0488,0.654388 -0.12215,0.969127 z m 1.01852,-6.811897 c -0.15652,1.358582 -0.90626,2.56256 -2.01987,3.208963 -1.23132,0.710417 -2.66986,0.615459 -3.81625,-0.09149 1.13591,-0.301414 2.223,-0.948772 2.9941,-1.883861 -0.95552,0.916316 -2.27108,1.112717 -3.31768,1.015111 0.18943,-1.224081 0.88335,-2.550271 1.95405,-3.236122 1.2508,-0.567103 2.47025,0.198707 4.21647,0.03903 0.0296,0.31848 0.0253,0.636785 -0.0106,0.948398 z m 0.22952,-6.722457 c -0.002,1.327635 -0.59265,2.571221 -1.59529,3.316929 -1.10899,0.820428 -2.50709,0.887353 -3.69085,0.331845 1.0623,-0.416104 2.03968,-1.159811 2.68036,-2.146408 -0.82073,0.988667 -2.06792,1.322755 -3.08816,1.343918 0.0479,-1.201968 0.57135,-2.557673 1.52878,-3.336925 1.14423,-0.684495 2.40434,-0.07887 4.07114,-0.424683 0.0634,0.303981 0.0944,0.61091 0.094,0.915379 z m -0.52235,-6.552257 c 0.14356,1.281729 -0.28941,2.546567 -1.17369,3.376269 -0.9786,0.913548 -2.31804,1.132642 -3.52007,0.727632 0.97788,-0.518431 1.83766,-1.343972 2.34687,-2.366523 -0.68243,1.044362 -1.8477,1.504652 -2.82863,1.637598 -0.0864,-1.164237 0.26883,-2.530236 1.10618,-3.388148 1.0279,-0.787182 2.30954,-0.342104 3.87902,-0.860247 0.0944,0.286516 0.15737,0.579309 0.1903,0.873258 z m -1.25478,-6.366908 c 0.29838,1.240908 0.0248,2.525995 -0.73624,3.434679 -0.8423,1.000384 -2.11151,1.360251 -3.31477,1.104305 0.8849,-0.611675 1.62307,-1.510178 1.99452,-2.565706 -0.53594,1.096242 -1.61119,1.674864 -2.54146,1.915077 -0.2157,-1.115021 -0.0345,-2.480954 0.66702,-3.414614 0.89488,-0.888876 2.18757,-0.610207 3.63643,-1.307576 0.12796,0.269678 0.22611,0.549537 0.29446,0.833825 v -1e-6 z m -2.09424,-6.076895 c 0.46294,1.163049 0.37959,2.443403 -0.22915,3.419818 -0.67456,1.075769 -1.85119,1.581052 -3.04233,1.48623 0.77243,-0.702042 1.36231,-1.662353 1.57436,-2.729945 -0.36429,1.128051 -1.32196,1.822448 -2.18455,2.172626 -0.35183,-1.044283 -0.36049,-2.381032 0.18122,-3.371269 0.73384,-0.974267 2.01082,-0.8786 3.29917,-1.7458 0.1613,0.244034 0.2952,0.501958 0.4012,0.768246 z m -2.92474,-5.631051 c 0.6209,1.059771 0.73289,2.309685 0.29458,3.335392 -0.48674,1.131064 -1.54006,1.775708 -2.69034,1.850961 0.63759,-0.780247 1.06083,-1.784857 1.10406,-2.843232 -0.17957,1.137898 -0.99383,1.93874 -1.76631,2.395574 -0.48488,-0.947533 -0.69204,-2.22679 -0.32619,-3.256798 0.55208,-1.044293 1.78541,-1.140462 2.8822,-2.1679 0.19191,0.212884 0.36001,0.443417 0.5021,0.685937 z m -3.75663,-5.0725311 c 0.48535,0.5717492 0.79786,1.2542399 0.90448,1.9459024 0.0627,0.4258097 0.0472,0.8512187 -0.0502,1.2562007 -0.28407,1.168183 -1.18898,1.945771 -2.27444,2.196269 0.36984,-0.645484 0.60036,-1.398674 0.62999,-2.181376 0.008,-0.243393 -0.004,-0.488469 -0.0366,-0.732085 0.006,0.296894 -0.0349,0.578692 -0.11009,0.8421 -0.21401,0.737293 -0.69539,1.332214 -1.18668,1.74575 -0.13341,-0.18049 -0.2559,-0.376223 -0.36453,-0.582217 -0.39683,-0.751256 -0.63011,-1.667813 -0.498,-2.4985276 0.34359,-1.0988131 1.51075,-1.3989563 2.37595,-2.5770695 0.22468,0.1748909 0.429,0.371586 0.61015,0.5849924 z M 142.918,3.435348 c 0.93518,0.7344568 1.47354,1.8185445 1.43537,2.8790004 -0.0452,1.170601 -0.77066,2.0744228 -1.76095,2.5085073 0.30661,-0.8965206 0.34369,-1.9270084 0.0134,-2.8821309 0.23709,1.0698893 -0.21633,2.0453031 -0.74513,2.6989096 -0.73951,-0.6783626 -1.36013,-1.7368069 -1.4009,-2.7623022 0.11769,-1.1035425 1.16887,-1.6050656 1.76437,-2.8803944 0.2476,0.123284 0.48018,0.2705893 0.69382,0.4383716 v 5e-7 z m -5.27091,-3.14580205 c 1.03656,0.51605431 1.76316,1.43736655 1.93526,2.44488935 0.18719,1.1128675 -0.326,2.101636 -1.17777,2.6983118 0.11704,-0.9035131 -0.0486,-1.881489 -0.55052,-2.7194464 0.43638,0.963668 0.19657,1.969278 -0.1761,2.6856319 -0.82754,-0.4977633 -1.62077,-1.3753184 -1.86474,-2.3329213 -0.11019,-1.0629711 0.78201,-1.7395777 1.08613,-3.0591263 0.2602,0.06919181 0.51096,0.16475959 0.74769,0.28264542 l -1e-5,-2.6e-7 z m -1.44426,4.76433795 c 3.25987,1.8870567 6.061,4.5306807 8.21863,7.5705991 3.66301,5.161532 5.62857,11.333461 6.33825,17.540126 1.58174,13.875169 -2.74013,28.233848 -11.43751,38.759451 v 0 c -1.14103,1.375757 -2.36222,2.686554 -3.65681,3.906249 -1.53819,2.368595 -3.35221,4.613589 -5.48603,6.625056 4.02576,-2.468055 7.54087,-5.78096 10.46273,-9.499744 v -10e-6 c 8.72851,-11.101158 12.73779,-25.863493 10.80692,-39.888117 v -1e-6 c -0.86146,-6.280049 -3.01135,-12.479626 -6.82169,-17.598227 -2.24619,-3.0169578 -5.12406,-5.6040587 -8.42472,-7.4157656 z m 0.66748,1.0652654 c -0.47391,0.6623818 -1.23149,1.3230481 -2.11306,1.5534321 0.79798,-0.1064155 1.6796,-0.4480363 2.42534,-0.9299652 -0.22296,1.0108369 -0.98105,1.8298371 -1.88131,2.2482912 -1.00938,0.4662482 -2.0363,0.3791129 -2.75627,-0.2134587 0.71,-1.1332531 0.74223,-2.2142454 1.56571,-2.8354819 0.83916,-0.4671154 1.94753,-0.3344599 2.75964,0.1772998 z m 4.29656,3.5092029 c -0.61989,0.5554688 -1.52388,1.0484158 -2.45748,1.0769558 0.82312,0.07625 1.77844,-0.06971 2.62878,-0.387528 -0.44635,0.957502 -1.37512,1.610364 -2.3767,1.828364 -1.11775,0.240563 -2.12133,-0.07247 -2.72088,-0.859035 0.973,-0.960083 1.25643,-2.0301884 2.22025,-2.4577006 0.94271,-0.2700199 2.01394,0.1115985 2.70601,0.7989921 z m 3.49335,4.3670508 c -0.72944,0.425236 -1.7273,0.730429 -2.6689,0.560849 0.8106,0.250741 1.78892,0.302296 2.69837,0.157183 -0.63706,0.861172 -1.69266,1.325163 -2.73302,1.33255 -0.58935,0.0028 -1.13166,-0.139842 -1.5747,-0.391607 -0.42771,-0.239727 -0.76671,-0.587652 -0.98309,-1.035899 1.17726,-0.749232 1.68728,-1.753656 2.73884,-1.975965 0.57378,-0.04047 1.14663,0.141209 1.63623,0.46762 0.35486,0.236813 0.66007,0.544668 0.88618,0.885243 z m 2.63266,4.971999 c -0.80569,0.298794 -1.85997,0.430409 -2.76947,0.08578 0.76473,0.402728 1.73398,0.627488 2.67295,0.638777 -0.78924,0.754425 -1.92874,1.042527 -2.97346,0.860635 -1.16762,-0.206197 -2.03362,-0.950401 -2.30479,-1.951727 1.31571,-0.51691 2.01143,-1.424542 3.10088,-1.445487 1.00457,0.120365 1.87418,0.898624 2.27397,1.812095 z m 1.818,5.400863 c -0.85905,0.17749 -1.94474,0.147903 -2.8096,-0.349414 0.71025,0.533505 1.65425,0.911147 2.60144,1.065229 -0.91121,0.641405 -2.10437,0.763358 -3.13454,0.412786 -1.15115,-0.39479 -1.91414,-1.301244 -2.02469,-2.375782 1.41096,-0.300144 2.2607,-1.10297 3.36191,-0.944143 0.99143,0.28729 1.74346,1.21031 2.00548,2.191324 z m 1.05299,5.669933 c -0.88752,0.06236 -1.9781,-0.113572 -2.78509,-0.737982 0.45051,0.446165 1.02179,0.825757 1.63909,1.11027 0.2721,0.126017 0.55451,0.233887 0.84083,0.320338 -0.99036,0.518306 -2.19101,0.49323 -3.1765,0.0084 -0.0109,-0.005 -0.0216,-0.01097 -0.0325,-0.01597 -1.11096,-0.557102 -1.77046,-1.589387 -1.73664,-2.705877 1.46903,-0.09611 2.43996,-0.785972 3.52953,-0.466589 0.96038,0.433279 1.58921,1.468351 1.72124,2.487862 z m 0.34295,5.806926 c -0.90346,-0.04249 -1.98248,-0.349573 -2.71738,-1.081117 0.57192,0.728113 1.41793,1.348755 2.32669,1.742879 -1.07348,0.409672 -2.298,0.234505 -3.23926,-0.387973 -1.04992,-0.697993 -1.58323,-1.831475 -1.40831,-2.968029 1.49011,0.09145 2.55364,-0.483443 3.60985,-0.02413 0.91097,0.557429 1.41789,1.675777 1.42839,2.718423 z m -0.33294,5.863525 c -0.90815,-0.147886 -1.96328,-0.583103 -2.62039,-1.406752 0.4929,0.801243 1.27574,1.52588 2.14858,2.028929 -1.13253,0.288415 -2.3504,-0.03046 -3.22939,-0.767894 -0.9801,-0.826419 -1.38611,-2.032403 -1.07494,-3.159679 1.49446,0.266827 2.6366,-0.188809 3.64989,0.397849 0.85481,0.668509 1.23675,1.855313 1.12622,2.907663 z m -1.00549,5.84399 c -0.90059,-0.253737 -1.91709,-0.814184 -2.48704,-1.720107 0.40644,0.864441 1.11517,1.685046 1.93951,2.292603 -1.17714,0.160107 -2.37105,-0.301508 -3.17499,-1.145955 -0.89614,-0.945807 -1.16866,-2.20832 -0.72469,-3.309639 1.47967,0.441409 2.68589,0.113321 3.64266,0.821638 0.78715,0.772554 1.03669,2.013523 0.80465,3.061476 z m -1.67204,5.743135 c -0.87988,-0.359736 -1.84213,-1.041414 -2.31465,-2.018867 0.31224,0.916741 0.93424,1.824779 1.69661,2.531887 -1.20553,0.02452 -2.35532,-0.575822 -3.07357,-1.52177 -0.79701,-1.054979 -0.93009,-2.355694 -0.35759,-3.413153 1.44425,0.614551 2.69954,0.423225 3.58511,1.246613 0.70717,0.868677 0.8179,2.146943 0.46399,3.175283 z m -2.33273,5.556582 c -0.84499,-0.465584 -1.73592,-1.264713 -2.10045,-2.301665 0.20996,0.957043 0.73228,1.942933 1.41826,2.743868 -1.21752,-0.118485 -2.30564,-0.8586 -2.92089,-1.892983 -0.68198,-1.152905 -0.6695,-2.472426 0.0266,-3.466736 1.38669,0.785744 2.67417,0.739731 3.47322,1.670805 0.61407,0.955989 0.57893,2.254457 0.10318,3.246737 z m -2.98551,5.278141 c -0.79493,-0.571031 -1.59625,-1.48266 -1.8417,-2.566104 0.0993,0.984338 0.50814,2.037645 1.10238,2.925915 -1.21089,-0.269174 -2.21653,-1.147098 -2.71364,-2.25881 -0.55013,-1.23838 -0.38509,-2.55596 0.42876,-3.466548 1.3052,0.954225 2.60654,1.06318 3.30254,2.093701 0.50703,1.033453 0.31888,2.333442 -0.27846,3.271815 z m -3.6288,4.900165 c -0.46847,-0.435092 -0.92258,-1.011754 -1.21711,-1.662042 -0.1634,-0.36183 -0.27792,-0.74717 -0.31892,-1.145992 -0.006,0.309201 0.0163,0.62708 0.0644,0.947091 0.10732,0.713312 0.34522,1.450991 0.68217,2.122999 -1.18467,-0.432327 -2.08482,-1.450526 -2.44788,-2.620862 -0.10534,-0.342547 -0.1599,-0.683548 -0.16683,-1.012518 -0.0204,-0.933915 0.32983,-1.7892 1.01658,-2.386821 1.1983,1.119408 2.49355,1.392921 3.06908,2.51369 0.32071,0.915985 0.13399,1.959342 -0.35773,2.786872 -0.0971,0.162709 -0.20576,0.316148 -0.32384,0.457628 z"
         fill="url(#linearGradient14624)"
         fill-rule="evenodd"
         style="fill:#ffffff;fill-opacity:1;stroke:none;stroke-opacity:0.334059;paint-order:normal"
         id="path119" />
    </g>
    <g
       id="g3606"
       transform="translate(-0.0168474,9.4589766)"
       style="stroke:none;fill:#ffffff">
      <g
         id="g3575"
         style="stroke:none;fill:#ffffff">
        <g
           fill="url(#linearGradient14724)"
           stroke-width="0.26458"
           style="font-variant-ligatures:normal;font-variant-caps:normal;font-variant-numeric:normal;font-feature-settings:normal;fill:#ffffff;fill-opacity:1;stroke:none;stroke-opacity:0.334059"
           aria-label="Personal Selection"
           id="g111"
           transform="translate(-19.983,-36.306)">
          <path
             d="m 53.462,56.587 h 0.64078 V 55.94622 H 53.462 Z m 0.85437,-1.7087 h 0.64078 v -0.64078 h -0.64078 z m 1.7087,0 h 0.64078 V 54.23752 H 56.02507 Z M 55.1707,53.1696 h 0.64078 V 52.52882 H 55.1707 Z m -1.7087,0.85437 h 0.64078 V 53.38319 H 53.462 Z m 0,0.85437 h 0.64078 V 54.23756 H 53.462 Z m 0.85437,-1.7087 h 0.64078 v -0.64078 h -0.64078 z m 0.85437,1.7087 h 0.64078 v -0.64078 h -0.64078 z m -1.7087,0.85437 h 0.64078 v -0.64078 h -0.64078 z m 3.4175,-1.7087 h 0.64078 v -0.64078 h -0.64078 z m -0.85437,-0.85437 h 0.64078 v -0.64078 h -0.64078 z m -2.5631,0 h 0.64078 v -0.64078 h -0.64078 z"
             style="font-variant-ligatures:normal;font-variant-caps:normal;font-variant-numeric:normal;font-feature-settings:normal;fill:#ffffff;fill-opacity:1;stroke:none;stroke-opacity:0.334059"
             id="path77" />
          <path
             d="m 59.439,56.587 h 0.64078 V 55.94622 H 59.439 Z m 1.7087,0 h 0.64078 V 55.94622 H 61.1477 Z m -2.5631,-2.5631 h 0.64078 V 53.38312 H 58.5846 Z m 2.5631,0.85437 h 0.64078 V 54.23749 H 61.1477 Z m 0.85437,0 h 0.64078 v -0.64078 h -0.64078 z m 0,1.7087 h 0.64078 v -0.64078 h -0.64078 z m -3.4175,-1.7087 h 0.64078 v -0.64078 h -0.64078 z m 0,0.85437 h 0.64078 v -0.64078 h -0.64078 z m 3.4175,-1.7087 h 0.64078 v -0.64078 h -0.64078 z m -2.5631,-0.85437 h 0.64078 v -0.64078 h -0.64078 z m 0.85437,1.7087 h 0.64078 v -0.64078 h -0.64078 z m 0,1.7087 h 0.64078 v -0.64078 h -0.64078 z m -0.85437,-1.7087 h 0.64078 v -0.64078 h -0.64078 z m 1.7087,-1.7087 h 0.64078 v -0.64078 h -0.64078 z m -0.85437,0 h 0.64078 V 52.52879 H 60.2933 Z"
             style="font-variant-ligatures:normal;font-variant-caps:normal;font-variant-numeric:normal;font-feature-settings:normal;fill:#ffffff;fill-opacity:1;stroke:none;stroke-opacity:0.334059"
             id="path79" />
          <path
             d="m 64.562,56.587 h 0.64078 V 55.94622 H 64.562 Z m -0.85437,-3.4175 h 0.64078 v -0.64078 h -0.64078 z m 0.85437,1.7087 h 0.64078 V 54.23742 H 64.562 Z m 0,-0.85437 h 0.64078 V 53.38305 H 64.562 Z m 1.7087,-0.85437 h 0.64078 V 52.52868 H 66.2707 Z m -2.5631,3.4175 h 0.64078 V 55.94618 H 63.7076 Z m 0.85437,-3.4175 h 0.64078 v -0.64078 h -0.64078 z m 0.85437,3.4175 h 0.64078 v -0.64078 h -0.64078 z m 0,-2.5631 h 0.64078 v -0.64078 h -0.64078 z m 1.7087,-0.85437 h 0.64078 v -0.64078 h -0.64078 z m -2.5631,2.5631 h 0.64078 v -0.64078 h -0.64078 z m 1.7087,0.85437 h 0.64078 v -0.64078 h -0.64078 z"
             style="font-variant-ligatures:normal;font-variant-caps:normal;font-variant-numeric:normal;font-feature-settings:normal;fill:#ffffff;fill-opacity:1;stroke:none;stroke-opacity:0.334059"
             id="path81" />
          <path
             d="m 68.831,56.587 h 0.64078 V 55.94622 H 68.831 Z m 2.5631,0 h 0.64078 V 55.94622 H 71.3941 Z m 0,-1.7087 h 0.64078 V 54.23752 H 71.3941 Z M 68.831,54.02393 h 0.64078 V 53.38315 H 68.831 Z m 0.85437,-0.85437 h 0.64078 v -0.64078 h -0.64078 z m 0.85437,0 h 0.64078 v -0.64078 h -0.64078 z m -0.85437,3.4175 h 0.64078 v -0.64078 h -0.64078 z m 0.85437,-1.7087 h 0.64078 v -0.64078 h -0.64078 z m 0,1.7087 h 0.64078 v -0.64078 h -0.64078 z m 0.85437,-3.4175 h 0.64078 v -0.64078 h -0.64078 z m 0.85437,2.5631 h 0.64078 v -0.64078 h -0.64078 z m 0,-2.5631 h 0.64078 v -0.64078 h -0.64078 z m -2.5631,1.7087 h 0.64078 v -0.64078 h -0.64078 z"
             style="font-variant-ligatures:normal;font-variant-caps:normal;font-variant-numeric:normal;font-feature-settings:normal;fill:#ffffff;fill-opacity:1;stroke:none;stroke-opacity:0.334059"
             id="path83" />
          <path
             d="m 74.808,56.587 h 0.64078 V 55.94622 H 74.808 Z m 0.85437,0 h 0.64078 v -0.64078 h -0.64078 z m 1.7087,-0.85437 h 0.64078 v -0.64078 h -0.64078 z m -3.4175,0 h 0.64078 v -0.64078 h -0.64078 z m 2.5631,0.85437 h 0.64078 v -0.64078 h -0.64078 z m 0,-3.4175 h 0.64078 v -0.64078 h -0.64078 z m -2.5631,0.85437 h 0.64078 v -0.64078 h -0.64078 z m 1.7087,-0.85437 h 0.64078 v -0.64078 h -0.64078 z m -1.7087,1.7087 h 0.64078 v -0.64078 h -0.64078 z m 3.4175,0 h 0.64078 v -0.64078 h -0.64078 z m -2.5631,-1.7087 h 0.64078 v -0.64078 h -0.64078 z m 2.5631,0.85437 h 0.64078 v -0.64078 h -0.64078 z"
             style="font-variant-ligatures:normal;font-variant-caps:normal;font-variant-numeric:normal;font-feature-settings:normal;fill:#ffffff;fill-opacity:1;stroke:none;stroke-opacity:0.334059"
             id="path85" />
          <path
             d="m 79.076,56.587 h 0.64078 V 55.94622 H 79.076 Z m 3.4175,-1.7087 h 0.64078 V 54.23752 H 82.4935 Z m 0,0.85437 h 0.64078 V 55.09189 H 82.4935 Z m -3.4175,-1.7087 h 0.64078 V 53.38319 H 79.076 Z m 2.5631,-0.85437 h 0.64078 V 52.52882 H 81.6391 Z m -2.5631,2.5631 h 0.64078 V 55.09192 H 79.076 Z m 1.7087,-2.5631 h 0.64078 V 52.52882 H 80.7847 Z m -1.7087,1.7087 h 0.64078 V 54.23752 H 79.076 Z m 0,-1.7087 h 0.64078 V 52.52882 H 79.076 Z m 0.85437,0.85437 h 0.64078 v -0.64078 h -0.64078 z m 2.5631,2.5631 h 0.64078 v -0.64078 h -0.64078 z m 0,-2.5631 h 0.64078 v -0.64078 h -0.64078 z"
             style="font-variant-ligatures:normal;font-variant-caps:normal;font-variant-numeric:normal;font-feature-settings:normal;fill:#ffffff;fill-opacity:1;stroke:none;stroke-opacity:0.334059"
             id="path87" />
          <path
             d="m 85.054,56.587 h 0.64078 V 55.94622 H 85.054 Z m 2.5631,-2.5631 h 0.64078 V 53.38312 H 87.6171 Z m -2.5631,0.85437 h 0.64078 V 54.23749 H 85.054 Z m -0.85437,0.85437 h 0.64078 v -0.64078 h -0.64078 z m 3.4175,0 h 0.64078 v -0.64078 h -0.64078 z m 0,-0.85437 h 0.64078 v -0.64078 h -0.64078 z m -1.7087,1.7087 h 0.64078 v -0.64078 h -0.64078 z m 0,-3.4175 h 0.64078 v -0.64078 h -0.64078 z m 0.85437,1.7087 h 0.64078 V 54.23739 H 86.7628 Z m -1.7087,-1.7087 h 0.64078 V 52.52869 H 85.0541 Z m 1.7087,3.4175 h 0.64078 V 55.94619 H 86.7628 Z m -0.85437,-1.7087 h 0.64078 v -0.64078 h -0.64078 z m 0.85437,-1.7087 h 0.64078 V 52.52879 H 86.7628 Z m 0.85437,3.4175 h 0.64078 v -0.64078 h -0.64078 z"
             style="font-variant-ligatures:normal;font-variant-caps:normal;font-variant-numeric:normal;font-feature-settings:normal;fill:#ffffff;fill-opacity:1;stroke:none;stroke-opacity:0.334059"
             id="path89" />
          <path
             d="m 89.322,56.587 h 0.64078 V 55.94622 H 89.322 Z m 0,-2.5631 h 0.64078 V 53.38312 H 89.322 Z m 3.4175,2.5631 h 0.64078 V 55.94622 H 92.7395 Z M 89.322,54.8783 h 0.64078 V 54.23752 H 89.322 Z m 1.7087,1.7087 h 0.64078 V 55.94622 H 91.0307 Z M 89.322,55.73263 h 0.64078 V 55.09185 H 89.322 Z m 0.85437,0.85437 h 0.64078 V 55.94622 H 90.17637 Z M 89.322,53.1695 h 0.64078 V 52.52872 H 89.322 Z m 2.5631,3.4175 h 0.64078 V 55.94622 H 91.8851 Z"
             style="font-variant-ligatures:normal;font-variant-caps:normal;font-variant-numeric:normal;font-feature-settings:normal;fill:#ffffff;fill-opacity:1;stroke:none;stroke-opacity:0.334059"
             id="path91" />
          <path
             d="m 99.568,56.587 h 0.64078 V 55.94622 H 99.568 Z m 2.5631,0 h 0.64077 v -0.64078 h -0.64077 z m 0,-1.7087 h 0.64077 V 54.23752 H 102.1311 Z M 99.568,54.02393 h 0.64078 V 53.38315 H 99.568 Z m 0.85437,-0.85437 h 0.64078 v -0.64078 h -0.64078 z m 0.85437,0 h 0.64077 v -0.64078 h -0.64077 z m -0.85437,3.4175 h 0.64078 v -0.64078 h -0.64078 z m 0.85437,-1.7087 h 0.64077 v -0.64078 h -0.64077 z m 0,1.7087 h 0.64077 v -0.64078 h -0.64077 z m 0.85437,-3.4175 h 0.64077 v -0.64078 h -0.64077 z m 0.85436,2.5631 h 0.64078 v -0.64078 h -0.64078 z m 0,-2.5631 h 0.64078 v -0.64078 h -0.64078 z m -2.5631,1.7087 h 0.64078 v -0.64078 h -0.64078 z"
             style="font-variant-ligatures:normal;font-variant-caps:normal;font-variant-numeric:normal;font-feature-settings:normal;fill:#ffffff;fill-opacity:1;stroke:none;stroke-opacity:0.334059"
             id="path93" />
          <path
             d="m 105.54,56.587 h 0.64078 V 55.94622 H 105.54 Z m 1.7087,0 h 0.64077 v -0.64078 h -0.64077 z m -2.5631,-2.5631 h 0.64078 v -0.64078 h -0.64078 z m 2.5631,0.85437 h 0.64077 v -0.64078 h -0.64077 z m 0.85437,0 h 0.64077 v -0.64078 h -0.64077 z m 0,1.7087 h 0.64077 v -0.64078 h -0.64077 z m -3.4175,-1.7087 h 0.64078 v -0.64078 h -0.64078 z m 0,0.85437 h 0.64078 v -0.64078 h -0.64078 z m 3.4175,-1.7087 h 0.64077 v -0.64078 h -0.64077 z m -2.5631,-0.85437 h 0.64078 v -0.64078 h -0.64078 z m 0.85437,1.7087 h 0.64078 v -0.64078 h -0.64078 z m 0,1.7087 h 0.64078 v -0.64078 h -0.64078 z m -0.85437,-1.7087 h 0.64078 v -0.64078 h -0.64078 z m 1.7087,-1.7087 h 0.64077 v -0.64078 h -0.64077 z m -0.85437,0 h 0.64078 v -0.64078 h -0.64078 z"
             style="font-variant-ligatures:normal;font-variant-caps:normal;font-variant-numeric:normal;font-feature-settings:normal;fill:#ffffff;fill-opacity:1;stroke:none;stroke-opacity:0.334059"
             id="path95" />
          <path
             d="m 109.81,56.587 h 0.64078 V 55.94622 H 109.81 Z m 0,-2.5631 h 0.64078 V 53.38312 H 109.81 Z m 3.4175,2.5631 h 0.64078 V 55.94622 H 113.2275 Z M 109.81,54.8783 h 0.64078 V 54.23752 H 109.81 Z m 1.7087,1.7087 h 0.64077 V 55.94622 H 111.5187 Z M 109.81,55.73263 h 0.64078 V 55.09185 H 109.81 Z m 0.85437,0.85437 h 0.64078 v -0.64078 h -0.64078 z M 109.81,53.1695 h 0.64078 V 52.52872 H 109.81 Z m 2.5631,3.4175 h 0.64077 v -0.64078 h -0.64077 z"
             style="font-variant-ligatures:normal;font-variant-caps:normal;font-variant-numeric:normal;font-feature-settings:normal;fill:#ffffff;fill-opacity:1;stroke:none;stroke-opacity:0.334059"
             id="path97" />
          <path
             d="m 115.79,56.587 h 0.64077 V 55.94622 H 115.79 Z m 1.7087,0 h 0.64078 v -0.64078 h -0.64078 z m -2.5631,-2.5631 h 0.64078 v -0.64078 h -0.64078 z m 2.5631,0.85437 h 0.64078 v -0.64078 h -0.64078 z m 0.85437,0 h 0.64078 v -0.64078 h -0.64078 z m 0,1.7087 h 0.64078 v -0.64078 h -0.64078 z m -3.4175,-1.7087 h 0.64078 v -0.64078 h -0.64078 z m 0,0.85437 h 0.64078 v -0.64078 h -0.64078 z m 3.4175,-1.7087 h 0.64078 v -0.64078 h -0.64078 z m -2.5631,-0.85437 h 0.64077 v -0.64078 h -0.64077 z m 0.85436,1.7087 h 0.64078 v -0.64078 h -0.64078 z m 0,1.7087 h 0.64078 v -0.64078 h -0.64078 z m -0.85436,-1.7087 h 0.64077 v -0.64078 h -0.64077 z m 1.7087,-1.7087 h 0.64078 v -0.64078 h -0.64078 z m -0.85437,0 h 0.64078 v -0.64078 h -0.64078 z"
             style="font-variant-ligatures:normal;font-variant-caps:normal;font-variant-numeric:normal;font-feature-settings:normal;fill:#ffffff;fill-opacity:1;stroke:none;stroke-opacity:0.334059"
             id="path99" />
          <path
             d="m 120.91,56.587 h 0.64077 V 55.94622 H 120.91 Z m 2.5631,-0.85437 h 0.64078 v -0.64078 h -0.64078 z m -0.85437,0.85437 h 0.64078 v -0.64078 h -0.64078 z m -1.7087,-3.4175 h 0.64077 v -0.64078 h -0.64077 z m -0.85437,2.5631 h 0.64078 v -0.64078 h -0.64078 z m 0,-1.7087 h 0.64078 v -0.64078 h -0.64078 z m 0,0.85437 h 0.64078 v -0.64078 h -0.64078 z m 1.7087,-1.7087 h 0.64077 v -0.64078 h -0.64077 z m 0,3.4175 h 0.64077 v -0.64078 h -0.64077 z m 0.85436,-3.4175 h 0.64078 v -0.64078 h -0.64078 z m 0.85437,0.85437 h 0.64078 v -0.64078 h -0.64078 z"
             style="font-variant-ligatures:normal;font-variant-caps:normal;font-variant-numeric:normal;font-feature-settings:normal;fill:#ffffff;fill-opacity:1;stroke:none;stroke-opacity:0.334059"
             id="path101" />
          <path
             d="m 126.89,56.587 h 0.64077 V 55.94622 H 126.89 Z m -0.85437,-3.4175 h 0.64078 v -0.64078 h -0.64078 z m -0.85437,0 h 0.64078 v -0.64078 h -0.64078 z m 1.7087,0 h 0.64077 v -0.64078 h -0.64077 z m 0,1.7087 h 0.64077 v -0.64078 h -0.64077 z m 0.85437,-1.7087 h 0.64077 v -0.64078 h -0.64077 z m -0.85437,0.85437 h 0.64077 v -0.64078 h -0.64077 z m 1.7087,-0.85437 h 0.64078 v -0.64078 h -0.64078 z m -1.7087,2.5631 h 0.64077 v -0.64078 h -0.64077 z"
             style="font-variant-ligatures:normal;font-variant-caps:normal;font-variant-numeric:normal;font-feature-settings:normal;fill:#ffffff;fill-opacity:1;stroke:none;stroke-opacity:0.334059"
             id="path103" />
          <path
             d="m 130.3,56.587 h 0.64077 V 55.94622 H 130.3 Z m 1.7087,-5.1262 h 0.64078 v -0.64078 h -0.64078 z m 0,5.1262 h 0.64078 v -0.64078 h -0.64078 z m -0.85437,-3.4175 h 0.64078 v -0.64078 h -0.64078 z m 0.85437,1.7087 h 0.64078 v -0.64078 h -0.64078 z m 0,-1.7087 h 0.64078 v -0.64078 h -0.64078 z m -1.7087,0 h 0.64077 V 52.52872 H 130.3 Z m 3.4175,3.4175 h 0.64077 v -0.64078 h -0.64077 z m -1.7087,-0.85437 h 0.64078 v -0.64078 h -0.64078 z m 0,-1.7087 h 0.64078 v -0.64078 h -0.64078 z m -0.85437,2.5631 h 0.64078 v -0.64078 h -0.64078 z m 1.7087,0 h 0.64077 v -0.64078 h -0.64077 z"
             style="font-variant-ligatures:normal;font-variant-caps:normal;font-variant-numeric:normal;font-feature-settings:normal;fill:#ffffff;fill-opacity:1;stroke:none;stroke-opacity:0.334059"
             id="path105" />
          <path
             d="m 136.28,56.587 h 0.64077 V 55.94622 H 136.28 Z m 0.85436,0 h 0.64078 v -0.64078 h -0.64078 z m 1.7087,-0.85437 h 0.64077 v -0.64078 h -0.64077 z m -3.4175,0 h 0.64077 v -0.64078 h -0.64077 z m 2.5631,0.85437 h 0.64078 v -0.64078 h -0.64078 z m 0,-3.4175 h 0.64078 v -0.64078 h -0.64078 z m -2.5631,0.85437 h 0.64077 v -0.64078 h -0.64077 z m 1.7087,-0.85437 h 0.64078 v -0.64078 h -0.64078 z m -1.7087,1.7087 h 0.64077 v -0.64078 h -0.64077 z m 3.4175,0 h 0.64077 v -0.64078 h -0.64077 z m -2.5631,-1.7087 h 0.64077 v -0.64078 h -0.64077 z m 2.5631,0.85437 h 0.64077 v -0.64078 h -0.64077 z"
             style="font-variant-ligatures:normal;font-variant-caps:normal;font-variant-numeric:normal;font-feature-settings:normal;fill:#ffffff;fill-opacity:1;stroke:none;stroke-opacity:0.334059"
             id="path107" />
          <path
             d="m 140.55,56.587 h 0.64077 V 55.94622 H 140.55 Z m 3.4175,-1.7087 h 0.64078 v -0.64078 h -0.64078 z m 0,0.85437 h 0.64078 v -0.64078 h -0.64078 z m -3.4175,-1.7087 h 0.64077 V 53.38319 H 140.55 Z m 2.5631,-0.85437 h 0.64078 v -0.64078 h -0.64078 z m -2.5631,2.5631 h 0.64077 V 55.09192 H 140.55 Z m 1.7087,-2.5631 h 0.64078 v -0.64078 h -0.64078 z m -1.7087,1.7087 h 0.64077 V 54.23752 H 140.55 Z m 0,-1.7087 h 0.64077 V 52.52882 H 140.55 Z m 0.85437,0.85437 h 0.64077 v -0.64078 h -0.64077 z m 2.5631,2.5631 h 0.64078 v -0.64078 h -0.64078 z m 0,-2.5631 h 0.64078 v -0.64078 h -0.64078 z"
             style="font-variant-ligatures:normal;font-variant-caps:normal;font-variant-numeric:normal;font-feature-settings:normal;fill:#ffffff;fill-opacity:1;stroke:none;stroke-opacity:0.334059"
             id="path109" />
        </g>
      </g>
      <g
         id="g3555"
         style="stroke:none;fill:#ffffff">
        <path
           d="m 33.096473,33.794579 v 3.098793 h -5.502565 q -0.326239,0 -0.326239,0.287867 v 8.466647 H 23.157057 V 34.844443 q 0,-1.049864 1.348455,-1.049864 z m -0.0435,4.453457 v 2.810927 h -5.111077 v -2.810927 z"
           style="font-size:19.1908px;line-height:1.25;font-family:Stormfaze;-inkscape-font-specification:Stormfaze;fill:#ffffff;fill-opacity:1;stroke:none;stroke-width:0.299856;stroke-opacity:0.334059"
           id="path947" />
        <path
           d="m 42.057115,33.794579 q 0.565481,0 0.739475,0.372532 l 5.002332,11.480775 h -9.004197 l 1.022216,-3.115726 h 2.39242 l -1.674695,-4.436524 h -0.08699 l -2.631662,7.55225 H 33.444411 L 38.098756,34.167111 Q 38.251,33.794579 38.794731,33.794579 Z"
           style="font-size:19.1908px;line-height:1.25;font-family:Stormfaze;-inkscape-font-specification:Stormfaze;fill:#ffffff;fill-opacity:1;stroke:none;stroke-width:0.299856;stroke-opacity:0.334059"
           id="path949" />
        <path
           d="m 50.582802,33.794579 2.522916,7.416784 h 0.08699 l 2.631662,-7.416784 h 4.371602 l -4.74134,11.480775 q -0.152246,0.372532 -0.695977,0.372532 h -3.26239 q -0.56548,0 -0.739475,-0.372532 L 46.10245,33.794579 Z"
           style="font-size:19.1908px;line-height:1.25;font-family:Stormfaze;-inkscape-font-specification:Stormfaze;fill:#ffffff;fill-opacity:1;stroke:none;stroke-width:0.299856;stroke-opacity:0.334059"
           id="path951" />
        <path
           d="m 60.891893,38.772968 q 0,-1.219197 0.347988,-2.167462 0.347988,-0.965198 1.130961,-1.625596 0.782974,-0.660399 2.022683,-0.999065 1.261457,-0.355599 3.044896,-0.355599 1.783441,0 3.023149,0.355599 1.261458,0.338666 2.044431,0.999065 0.782974,0.660398 1.130962,1.625596 0.347988,0.948265 0.347988,2.167462 v 1.896529 q 0,1.219198 -0.347988,2.184395 -0.347988,0.948265 -1.130962,1.608663 -0.782973,0.6604 -2.044431,1.015998 -1.239708,0.338666 -3.023149,0.338666 -1.783439,0 -3.044896,-0.338666 -1.239709,-0.355598 -2.022683,-1.015998 -0.782973,-0.660398 -1.130961,-1.608663 -0.347988,-0.965197 -0.347988,-2.184395 z m 4.110611,1.761063 q 0,0.609599 0.108742,1.032931 0.130496,0.423333 0.413236,0.677332 0.282741,0.254 0.739475,0.372532 0.478484,0.1016 1.17446,0.1016 0.695977,0 1.152712,-0.1016 0.478483,-0.118532 0.761224,-0.372532 0.28274,-0.253999 0.391486,-0.677332 0.130496,-0.423332 0.130496,-1.032931 v -1.625597 q 0,-0.609598 -0.130496,-1.032931 -0.108741,-0.423332 -0.391486,-0.677332 -0.282741,-0.253999 -0.761224,-0.355598 -0.456735,-0.118534 -1.152712,-0.118534 -0.695976,0 -1.17446,0.118534 -0.456734,0.101599 -0.739475,0.355598 -0.28274,0.254 -0.413236,0.677332 -0.108742,0.423333 -0.108742,1.032931 z"
           style="font-size:19.1908px;line-height:1.25;font-family:Stormfaze;-inkscape-font-specification:Stormfaze;fill:#ffffff;fill-opacity:1;stroke:none;stroke-width:0.299856;stroke-opacity:0.334059"
           id="path953" />
        <path
           d="m 84.120099,33.794579 q 4.110611,0 4.110611,3.149593 v 0.694265 q 0,0.846665 -0.28274,1.253064 -0.260992,0.389466 -0.826473,0.643466 0.630729,0.186265 1.043966,0.694264 0.434985,0.491067 0.434985,1.303864 v 4.114791 h -4.088863 v -3.979325 q 0,-0.253999 -0.152244,-0.423332 -0.130496,-0.186266 -0.543732,-0.186266 h -2.479416 v -2.675461 h 2.305421 q 0.434986,0 0.565482,-0.169333 0.152245,-0.186266 0.152245,-0.440265 v -0.355599 q 0,-0.643466 -0.782974,-0.643466 h -2.588163 q -0.326239,0 -0.326239,0.287866 v 8.585181 H 76.551354 V 34.844443 q 0,-1.049864 1.348454,-1.049864 z"
           style="font-size:19.1908px;line-height:1.25;font-family:Stormfaze;-inkscape-font-specification:Stormfaze;fill:#ffffff;fill-opacity:1;stroke:none;stroke-width:0.299856;stroke-opacity:0.334059"
           id="path955" />
        <path
           d="M 95.36444,33.794579 V 45.647886 H 91.253827 V 33.794579 Z"
           style="font-size:19.1908px;line-height:1.25;font-family:Stormfaze;-inkscape-font-specification:Stormfaze;fill:#ffffff;fill-opacity:1;stroke:none;stroke-width:0.299856;stroke-opacity:0.334059"
           id="path957" />
        <path
           d="m 109.02296,33.794579 v 3.098793 H 97.365356 v -3.098793 z m -3.76262,3.623726 v 8.229581 h -4.11061 v -8.229581 z"
           style="font-size:19.1908px;line-height:1.25;font-family:Stormfaze;-inkscape-font-specification:Stormfaze;fill:#ffffff;fill-opacity:1;stroke:none;stroke-width:0.299856;stroke-opacity:0.334059"
           id="path959" />
        <path
           d="m 120.9198,33.794579 v 3.098793 h -5.50256 q -0.32624,0 -0.32624,0.287867 v 5.063055 q 0,0.287866 0.32624,0.287866 h 5.50256 v 3.115726 h -8.59096 q -1.34845,0 -1.34845,-1.066797 v -9.736646 q 0,-1.049864 1.34845,-1.049864 z m -0.0435,4.453457 v 2.810927 h -5.11108 v -2.810927 z"
           style="font-size:19.1908px;line-height:1.25;font-family:Stormfaze;-inkscape-font-specification:Stormfaze;fill:#ffffff;fill-opacity:1;stroke:none;stroke-width:0.299856;stroke-opacity:0.334059"
           id="path961" />
        <path
           d="m 134.38259,33.794579 v 3.098793 h -6.37253 q -0.78298,0 -0.78298,0.643465 v 0.3556 q 0,0.609598 0.71773,0.609598 h 3.30589 q 2.00093,0 2.84915,0.728132 0.86998,0.711199 0.86998,2.048929 v 1.219198 q 0,3.149592 -4.11062,3.149592 h -7.2425 V 42.53216 h 6.69877 q 0.78297,0 0.78297,-0.643465 v -0.3556 q 0,-0.304799 -0.15224,-0.457199 -0.15225,-0.152399 -0.56548,-0.152399 h -3.52338 q -0.93522,0 -1.60945,-0.186267 -0.65248,-0.203199 -1.08746,-0.541865 -0.41324,-0.355599 -0.60898,-0.812798 -0.19574,-0.474133 -0.19574,-1.015998 v -1.422397 q 0,-3.149593 4.11061,-3.149593 z"
           style="font-size:19.1908px;line-height:1.25;font-family:Stormfaze;-inkscape-font-specification:Stormfaze;fill:#ffffff;fill-opacity:1;stroke:none;stroke-width:0.299856;stroke-opacity:0.334059"
           id="path963" />
      </g>
    </g>
  </g>
</svg>
