<?xml version="1.0" encoding="UTF-8" standalone="no"?>
<svg
   width="161.59065mm"
   height="82.953201mm"
   version="1.1"
   viewBox="0 0 161.59066 82.953203"
   id="svg123"
   sodipodi:docname="system.svg"
   inkscape:version="1.1.2 (0a00cf5339, 2022-02-04)"
   xmlns:inkscape="http://www.inkscape.org/namespaces/inkscape"
   xmlns:sodipodi="http://sodipodi.sourceforge.net/DTD/sodipodi-0.dtd"
   xmlns:xlink="http://www.w3.org/1999/xlink"
   xmlns="http://www.w3.org/2000/svg"
   xmlns:svg="http://www.w3.org/2000/svg">
  <sodipodi:namedview
     id="namedview125"
     pagecolor="#ffffff"
     bordercolor="#666666"
     borderopacity="1.0"
     inkscape:pageshadow="2"
     inkscape:pageopacity="0.0"
     inkscape:pagecheckerboard="0"
     inkscape:document-units="mm"
     showgrid="false"
     inkscape:zoom="1.24434"
     inkscape:cx="259.17354"
     inkscape:cy="76.747513"
     inkscape:window-width="1920"
     inkscape:window-height="996"
     inkscape:window-x="0"
     inkscape:window-y="0"
     inkscape:window-maximized="1"
     inkscape:current-layer="svg123"
     height="90.449mm"
     fit-margin-top="0"
     fit-margin-left="0"
     fit-margin-right="0"
     fit-margin-bottom="0" />
  <defs
     id="defs19">
    <linearGradient
       id="linearGradient14680">
      <stop
         offset="0"
         id="stop2" />
      <stop
         stop-color="#594d17"
         offset=".21765"
         id="stop4" />
      <stop
         stop-color="#6f601d"
         offset=".63688"
         id="stop6" />
      <stop
         stop-color="#3c3410"
         offset=".84407"
         id="stop8" />
      <stop
         stop-color="#29230b"
         offset="1"
         id="stop10" />
    </linearGradient>
    <linearGradient
       id="linearGradient14622"
       x1="50.304001"
       x2="69.417"
       y1="129.88"
       y2="201.21001"
       gradientUnits="userSpaceOnUse"
       xlink:href="#linearGradient14680"
       gradientTransform="matrix(0.96593,-0.25882,-0.25882,-0.96593,5.465,218.214)" />
    <linearGradient
       id="linearGradient14624"
       x1="50.609001"
       x2="69.632004"
       y1="130.35001"
       y2="201.34"
       gradientUnits="userSpaceOnUse"
       xlink:href="#linearGradient14680"
       gradientTransform="rotate(-165,90.678612,99.062406)" />
    <linearGradient
       id="linearGradient14708"
       x1="-1290.6"
       x2="-1290.6"
       y1="186.2"
       y2="268.60999"
       gradientUnits="userSpaceOnUse"
       xlink:href="#linearGradient14680" />
    <linearGradient
       id="linearGradient14716"
       x1="103.07"
       x2="103.07"
       y1="99.521004"
       y2="62.476002"
       gradientTransform="translate(-3.0312e-6,1.0583)"
       gradientUnits="userSpaceOnUse"
       xlink:href="#linearGradient14680" />
    <linearGradient
       id="linearGradient14724"
       x1="101.82"
       x2="101.82"
       y1="61.625999"
       y2="31.544001"
       gradientTransform="translate(-0.65807)"
       gradientUnits="userSpaceOnUse"
       xlink:href="#linearGradient14680" />
    <linearGradient
       id="linearGradient14775"
       x1="94.702003"
       x2="94.702003"
       y1="87.480003"
       y2="80.857002"
       gradientTransform="translate(-19.87872,-35.77683)"
       gradientUnits="userSpaceOnUse"
       xlink:href="#linearGradient14680" />
    <linearGradient
       inkscape:collect="always"
       xlink:href="#linearGradient14680"
       id="linearGradient3280"
       gradientUnits="userSpaceOnUse"
       x1="82.330612"
       y1="90.195915"
       x2="83.021431"
       y2="-15.501344" />
    <linearGradient
       inkscape:collect="always"
       xlink:href="#linearGradient14680"
       id="linearGradient3282"
       gradientUnits="userSpaceOnUse"
       x1="82.330612"
       y1="90.195915"
       x2="83.021431"
       y2="-15.501344" />
    <linearGradient
       inkscape:collect="always"
       xlink:href="#linearGradient14680"
       id="linearGradient3284"
       gradientUnits="userSpaceOnUse"
       x1="82.330612"
       y1="90.195915"
       x2="83.021431"
       y2="-15.501344" />
    <linearGradient
       inkscape:collect="always"
       xlink:href="#linearGradient14680"
       id="linearGradient3286"
       gradientUnits="userSpaceOnUse"
       x1="82.330612"
       y1="90.195915"
       x2="83.021431"
       y2="-15.501344" />
    <linearGradient
       inkscape:collect="always"
       xlink:href="#linearGradient14680"
       id="linearGradient3288"
       gradientUnits="userSpaceOnUse"
       x1="82.330612"
       y1="90.195915"
       x2="83.021431"
       y2="-15.501344" />
    <linearGradient
       inkscape:collect="always"
       xlink:href="#linearGradient14680"
       id="linearGradient3290"
       gradientUnits="userSpaceOnUse"
       x1="82.330612"
       y1="90.195915"
       x2="83.021431"
       y2="-15.501344" />
    <linearGradient
       inkscape:collect="always"
       xlink:href="#linearGradient14680"
       id="linearGradient3292"
       gradientUnits="userSpaceOnUse"
       x1="82.330612"
       y1="90.195915"
       x2="83.021431"
       y2="-15.501344" />
    <linearGradient
       inkscape:collect="always"
       xlink:href="#linearGradient14680"
       id="linearGradient3294"
       gradientUnits="userSpaceOnUse"
       x1="82.330612"
       y1="90.195915"
       x2="83.021431"
       y2="-15.501344" />
    <linearGradient
       inkscape:collect="always"
       xlink:href="#linearGradient14680"
       id="linearGradient3296"
       gradientUnits="userSpaceOnUse"
       x1="82.330612"
       y1="90.195915"
       x2="83.021431"
       y2="-15.501344" />
    <linearGradient
       inkscape:collect="always"
       xlink:href="#linearGradient14680"
       id="linearGradient3298"
       gradientUnits="userSpaceOnUse"
       x1="82.330612"
       y1="90.195915"
       x2="83.021431"
       y2="-15.501344" />
    <linearGradient
       inkscape:collect="always"
       xlink:href="#linearGradient14680"
       id="linearGradient3300"
       gradientUnits="userSpaceOnUse"
       x1="82.330612"
       y1="90.195915"
       x2="83.021431"
       y2="-15.501344" />
    <linearGradient
       inkscape:collect="always"
       xlink:href="#linearGradient14680"
       id="linearGradient3302"
       gradientUnits="userSpaceOnUse"
       x1="82.330612"
       y1="90.195915"
       x2="83.021431"
       y2="-15.501344" />
    <linearGradient
       inkscape:collect="always"
       xlink:href="#linearGradient14680"
       id="linearGradient3304"
       gradientUnits="userSpaceOnUse"
       x1="82.330612"
       y1="90.195915"
       x2="83.021431"
       y2="-15.501344" />
    <linearGradient
       inkscape:collect="always"
       xlink:href="#linearGradient14680"
       id="linearGradient3306"
       gradientUnits="userSpaceOnUse"
       x1="82.330612"
       y1="90.195915"
       x2="83.021431"
       y2="-15.501344" />
    <linearGradient
       inkscape:collect="always"
       xlink:href="#linearGradient14680"
       id="linearGradient3308"
       gradientUnits="userSpaceOnUse"
       x1="82.330612"
       y1="90.195915"
       x2="83.021431"
       y2="-15.501344" />
    <linearGradient
       inkscape:collect="always"
       xlink:href="#linearGradient14680"
       id="linearGradient3310"
       gradientUnits="userSpaceOnUse"
       x1="82.330612"
       y1="90.195915"
       x2="83.021431"
       y2="-15.501344" />
    <linearGradient
       inkscape:collect="always"
       xlink:href="#linearGradient14680"
       id="linearGradient3312"
       gradientUnits="userSpaceOnUse"
       x1="82.330612"
       y1="90.195915"
       x2="83.021431"
       y2="-15.501344" />
    <linearGradient
       inkscape:collect="always"
       xlink:href="#linearGradient14680"
       id="linearGradient3314"
       gradientUnits="userSpaceOnUse"
       x1="82.330612"
       y1="90.195915"
       x2="83.021431"
       y2="-15.501344" />
    <linearGradient
       inkscape:collect="always"
       xlink:href="#linearGradient14680"
       id="linearGradient3318"
       gradientUnits="userSpaceOnUse"
       x1="82.330612"
       y1="90.195915"
       x2="83.021431"
       y2="-15.501344" />
    <linearGradient
       inkscape:collect="always"
       xlink:href="#linearGradient14680"
       id="linearGradient3320"
       gradientUnits="userSpaceOnUse"
       x1="82.330612"
       y1="90.195915"
       x2="83.021431"
       y2="-15.501344" />
    <linearGradient
       inkscape:collect="always"
       xlink:href="#linearGradient14680"
       id="linearGradient3322"
       gradientUnits="userSpaceOnUse"
       x1="82.330612"
       y1="90.195915"
       x2="83.021431"
       y2="-15.501344" />
    <linearGradient
       inkscape:collect="always"
       xlink:href="#linearGradient14680"
       id="linearGradient3324"
       gradientUnits="userSpaceOnUse"
       x1="82.330612"
       y1="90.195915"
       x2="83.021431"
       y2="-15.501344" />
    <linearGradient
       inkscape:collect="always"
       xlink:href="#linearGradient14680"
       id="linearGradient3326"
       gradientUnits="userSpaceOnUse"
       x1="82.330612"
       y1="90.195915"
       x2="83.021431"
       y2="-15.501344" />
    <linearGradient
       inkscape:collect="always"
       xlink:href="#linearGradient14680"
       id="linearGradient3328"
       gradientUnits="userSpaceOnUse"
       x1="82.330612"
       y1="90.195915"
       x2="83.021431"
       y2="-15.501344" />
    <linearGradient
       inkscape:collect="always"
       xlink:href="#linearGradient14680"
       id="linearGradient3330"
       gradientUnits="userSpaceOnUse"
       x1="82.330612"
       y1="90.195915"
       x2="83.021431"
       y2="-15.501344" />
    <linearGradient
       inkscape:collect="always"
       xlink:href="#linearGradient14680"
       id="linearGradient3332"
       gradientUnits="userSpaceOnUse"
       x1="82.330612"
       y1="90.195915"
       x2="83.021431"
       y2="-15.501344" />
    <linearGradient
       inkscape:collect="always"
       xlink:href="#linearGradient14680"
       id="linearGradient3334"
       gradientUnits="userSpaceOnUse"
       x1="82.330612"
       y1="90.195915"
       x2="83.021431"
       y2="-15.501344" />
    <linearGradient
       inkscape:collect="always"
       xlink:href="#linearGradient14680"
       id="linearGradient3336"
       gradientUnits="userSpaceOnUse"
       x1="82.330612"
       y1="90.195915"
       x2="83.021431"
       y2="-15.501344" />
    <linearGradient
       inkscape:collect="always"
       xlink:href="#linearGradient14680"
       id="linearGradient3338"
       gradientUnits="userSpaceOnUse"
       x1="82.330612"
       y1="90.195915"
       x2="83.021431"
       y2="-15.501344" />
  </defs>
  <path
     id="path1024"
     style="fill:#000000;fill-opacity:1;stroke:#000000;stroke-width:3.5;stroke-linejoin:round;stroke-miterlimit:4;stroke-dasharray:none;stroke-opacity:1;paint-order:normal"
     d="m 22.943031,1.7499594 c -0.260199,0.06919 -0.511032,0.164785 -0.747758,0.28267 -1.03656,0.516056 -1.763184,1.437285 -1.935283,2.444813 -0.187188,1.112872 0.325928,2.101864 1.177706,2.698544 -0.117045,-0.903518 0.04844,-1.88177 0.550354,-2.719731 -0.436375,0.96367 -0.196459,1.969267 0.176217,2.685624 0.82754,-0.497766 1.620517,-1.375067 1.864485,-2.332676 0.110199,-1.062974 -0.781593,-1.739691 -1.085721,-3.059244 z m 115.705109,0.0057 c -0.30411,1.319548 -1.19643,1.996273 -1.08624,3.059244 0.24397,0.957601 1.03747,1.834909 1.86501,2.332673 0.37267,-0.716354 0.61259,-1.721956 0.17621,-2.685624 0.50192,0.837956 0.6674,1.816219 0.55036,2.719731 0.85177,-0.596675 1.36489,-1.585674 1.1777,-2.698543 -0.1721,-1.007523 -0.89872,-1.928757 -1.93528,-2.444811 -0.23673,-0.117885 -0.48756,-0.213482 -0.74776,-0.28267 z M 17.617774,4.7399574 c -0.2476,0.123285 -0.479851,0.270951 -0.693497,0.438734 -0.935178,0.73446 -1.473739,1.818434 -1.435572,2.878895 0.04515,1.170604 0.770836,2.0742876 1.761133,2.5083736 -0.306616,-0.8965246 -0.343697,-1.9268706 -0.01344,-2.8819946 -0.237092,1.069893 0.216367,2.045451 0.745175,2.6990586 0.739507,-0.6783646 1.360175,-1.7371216 1.400947,-2.7626226 -0.117688,-1.103545 -1.169247,-1.605108 -1.76475,-2.880444 z m 126.355106,0.0057 c -0.5955,1.275328 -1.64653,1.776901 -1.76423,2.880444 0.0408,1.025493 0.66145,2.083742 1.40095,2.7621046 0.5288,-0.6536056 0.98226,-1.6286536 0.74517,-2.6985436 0.33029,0.955122 0.29318,1.985473 -0.0134,2.8819946 0.99029,-0.434086 1.71593,-1.3377726 1.76113,-2.5083736 0.0382,-1.060455 -0.50039,-2.144438 -1.43557,-2.878894 v -5.16e-4 c -0.21364,-0.167783 -0.44641,-0.314934 -0.69402,-0.438216 z M 23.639112,6.7971984 C 20.338694,8.6088934 17.460881,11.195467 15.21482,14.212249 11.404456,19.33087 9.2544725,25.530581 8.3930106,31.810657 6.4621269,45.835341 10.471559,60.59797 19.200107,71.699177 c 2.921864,3.7188 6.437156,7.031612 10.462927,9.499679 -2.133823,-2.011477 -3.948291,-4.256313 -5.486487,-6.624919 -1.294598,-1.2197 -2.515588,-2.530458 -3.656624,-3.906221 C 11.822505,60.142067 7.5006268,45.783036 9.0823742,31.907807 9.7920566,25.701121 11.757465,19.529347 15.420492,14.367795 c 2.15764,-3.039933 4.958734,-5.6835356 8.21862,-7.5705966 z m 114.312438,0.0052 v 5.16e-4 c 3.25986,1.887056 6.06098,4.5306796 8.21862,7.5705966 3.663,5.161531 5.62894,11.33335 6.33863,17.540015 1.58174,13.875168 -2.74017,28.233787 -11.43755,38.75939 -1.14103,1.375757 -2.36255,2.686527 -3.65714,3.906222 -1.53819,2.368595 -3.35215,4.613451 -5.48597,6.624918 4.02576,-2.468055 7.54107,-5.780894 10.46293,-9.499678 8.72851,-11.101158 12.73744,-25.863382 10.80657,-39.888005 -0.86146,-6.280049 -3.01095,-12.479808 -6.82129,-17.598408 -2.24619,-3.016959 -5.12415,-5.6038616 -8.4248,-7.4155666 z M 24.522779,7.3981944 c -0.543649,0.0087 -1.09399,0.176188 -1.550809,0.464055 0.473916,0.662384 1.231479,1.323007 2.113049,1.553393 -0.797976,-0.106416 -1.679946,-0.447728 -2.425692,-0.929659 0.222962,1.010841 0.981276,1.8294686 1.881539,2.2479236 1.009392,0.466251 2.036455,0.37915 2.756421,-0.213424 C 26.587284,9.3872254 26.554972,8.3062384 25.731491,7.6849974 25.364356,7.4806354 24.945617,7.3914364 24.522779,7.3981944 Z m 112.545611,0.0052 c -0.42283,-0.0068 -0.84158,0.08296 -1.20871,0.287322 -0.82348,0.621236 -0.85579,1.702233 -1.56579,2.8354836 0.71997,0.592571 1.74704,0.679674 2.75642,0.213426 0.90026,-0.418455 1.65806,-1.2376046 1.88102,-2.2484426 -0.74574,0.481928 -1.6272,0.823762 -2.42518,0.930175 0.88157,-0.230384 1.63914,-0.891011 2.11305,-1.553393 -0.45681,-0.287864 -1.00716,-0.455882 -1.55081,-0.464571 z M 12.913152,8.8198134 c -0.224681,0.174892 -0.429149,0.37157 -0.610299,0.584975 -0.48535,0.571752 -0.797723,1.2544716 -0.904341,1.9461346 -0.06271,0.425813 -0.04727,0.850755 0.05013,1.255739 0.284071,1.168186 1.188819,1.946264 2.274284,2.196764 -0.369837,-0.645488 -0.600309,-1.399074 -0.629936,-2.181778 -0.008,-0.243396 0.0037,-0.488122 0.03669,-0.73174 -0.0059,0.296897 0.03485,0.578401 0.110071,0.841809 0.214009,0.737296 0.695198,1.332093 1.186491,1.745631 0.133413,-0.180491 0.25621,-0.375883 0.364836,-0.581877 0.396835,-0.75126 0.629751,-1.667838 0.497644,-2.498555 C 14.94513,10.298098 13.778359,9.9979314 12.913156,8.8198134 Z m 135.764868,0.0057 c -0.86519,1.1781126 -2.03249,1.4782936 -2.37608,2.5771026 -0.13212,0.830717 0.10134,1.7473 0.49816,2.498555 0.10864,0.205994 0.23092,0.401389 0.36432,0.581877 0.49129,-0.413535 0.973,-1.008335 1.18701,-1.745628 0.0752,-0.263408 0.11607,-0.545433 0.11007,-0.842327 0.0326,0.243617 0.0447,0.488862 0.0367,0.732255 -0.0296,0.782704 -0.26062,1.535779 -0.63046,2.181262 1.08547,-0.250497 1.99072,-1.028065 2.2748,-2.196248 0.0974,-0.404982 0.11283,-0.830445 0.0501,-1.256255 -0.10662,-0.69166 -0.41898,-1.3738666 -0.90434,-1.9456156 -0.18115,-0.213407 -0.38561,-0.410085 -0.6103,-0.584978 z M 20.657899,10.486894 c -0.731433,0.02564 -1.463769,0.369152 -1.982825,0.884701 0.61989,0.555471 1.524129,1.048396 2.457731,1.076936 -0.823116,0.07625 -1.778445,-0.06975 -2.62878,-0.387572 0.446351,0.957506 1.375014,1.61031 2.376599,1.82831 1.117753,0.240565 2.121211,-0.07229 2.720764,-0.858861 -0.973006,-0.960088 -1.256195,-2.030217 -2.220019,-2.45773 -0.235678,-0.06751 -0.479659,-0.09433 -0.72347,-0.08578 z m 120.092441,0.0057 c -0.18245,0.0071 -0.36378,0.03515 -0.54054,0.08578 -0.96382,0.427514 -1.24753,1.497647 -2.22053,2.45773 0.59955,0.786567 1.60353,1.099426 2.72128,0.858864 1.00158,-0.218001 1.93025,-0.87081 2.3766,-1.828313 -0.85034,0.317818 -1.80566,0.463823 -2.62878,0.387572 0.9336,-0.02854 1.83732,-0.521467 2.45721,-1.076936 -0.5623,-0.558506 -1.37463,-0.915424 -2.16524,-0.8847 z M 9.0482679,13.791085 c -0.1919118,0.212884 -0.3602017,0.443741 -0.5022951,0.686263 -0.6209003,1.059775 -0.7328651,2.309485 -0.2945556,3.335197 0.4867378,1.131068 1.5405158,1.775796 2.6907918,1.851049 -0.63759,-0.780251 -1.061095,-1.784858 -1.1043253,-2.843236 0.1795683,1.137901 0.9938183,1.938882 1.7663003,2.39572 0.484888,-0.947539 0.691935,-2.226638 0.326082,-3.25665 -0.552091,-1.044298 -1.785201,-1.1409 -2.8819981,-2.168343 z m 143.4946321,0.0057 c -1.09679,1.027438 -2.33043,1.123535 -2.88251,2.167827 -0.36584,1.03001 -0.1588,2.309632 0.32608,3.257166 0.77248,-0.456835 1.58725,-1.257821 1.76682,-2.39572 -0.0432,1.058376 -0.46674,2.062991 -1.10433,2.843239 1.15028,-0.07526 2.20353,-0.719987 2.69028,-1.851051 0.4383,-1.025708 0.32634,-2.275425 -0.29456,-3.335198 -0.1421,-0.242519 -0.30987,-0.473379 -0.50178,-0.686263 z M 17.489617,14.380712 c -0.500727,0.01213 -0.993215,0.187229 -1.421619,0.472839 -0.354861,0.236816 -0.660143,0.544642 -0.886251,0.885219 0.729447,0.425236 1.727491,0.730269 2.669088,0.560689 -0.810597,0.250741 -1.789092,0.30221 -2.698543,0.157097 0.637058,0.861174 1.6928,1.325348 2.733166,1.332735 0.589358,0.0028 1.131545,-0.139943 1.574581,-0.391708 0.42771,-0.239728 0.767024,-0.587864 0.983403,-1.036113 -1.177266,-0.749237 -1.687278,-1.75328 -2.738851,-1.975588 -0.07172,-0.0051 -0.143442,-0.0069 -0.214974,-0.0052 z m 126.611943,0.0057 c -0.0715,-0.0017 -0.14326,-4.08e-4 -0.21498,0.0047 -1.05156,0.222308 -1.56159,1.226873 -2.73885,1.976107 0.21639,0.448246 0.55519,0.796385 0.98289,1.036111 0.44304,0.251767 0.98575,0.394507 1.57509,0.391707 1.04037,-0.0074 2.0956,-0.471561 2.73266,-1.332735 -0.90945,0.145113 -1.88743,0.09364 -2.69803,-0.157096 0.9416,0.169579 1.93913,-0.13597 2.66857,-0.561205 -0.22611,-0.340575 -0.53138,-0.648404 -0.88625,-0.885219 -0.4284,-0.285605 -0.92038,-0.460196 -1.4211,-0.472321 z M 14.823113,18.898784 c -1.004582,0.120365 -1.873962,0.8983 -2.273763,1.811774 0.80569,0.298797 1.859842,0.430414 2.76934,0.08578 -0.764727,0.40273 -1.734245,0.627432 -2.673222,0.63872 0.789245,0.75443 1.929253,1.042823 2.973979,0.86093 1.167622,-0.206198 2.033588,-0.950489 2.304769,-1.951818 -1.315724,-0.516914 -2.011656,-1.424445 -3.101103,-1.44539 z m 131.944947,0.0052 c -1.08945,0.02094 -1.78539,0.928997 -3.1011,1.445905 0.27117,1.001326 1.13715,1.745105 2.30477,1.951302 1.04471,0.181893 2.18422,-0.105987 2.97346,-0.860412 -0.93897,-0.01129 -1.90798,-0.235992 -2.67271,-0.63872 0.9095,0.344628 1.96365,0.213011 2.76934,-0.08578 -0.39979,-0.913471 -1.26919,-1.691928 -2.27376,-1.812292 z M 6.0226128,19.340099 c -0.1613064,0.244035 -0.2950075,0.502139 -0.4010091,0.768429 -0.4629476,1.163055 -0.3798234,2.443528 0.2289264,3.419946 0.6745571,1.075775 1.8510409,1.581036 3.0421916,1.486215 -0.7724349,-0.702046 -1.3620043,-1.66247 -1.5740642,-2.730066 0.3642956,1.128056 1.3217745,1.822296 2.184363,2.172478 C 9.8548499,23.412814 9.8638656,22.07597 9.3221529,21.08573 8.5883162,20.111457 7.3109653,20.207305 6.0226128,19.340099 Z m 149.5454272,0.0057 c -1.28835,0.867201 -2.56519,0.771363 -3.29902,1.74563 -0.54171,0.990235 -0.53322,2.327088 -0.18139,3.371369 0.8626,-0.350176 1.82059,-1.044424 2.18488,-2.172475 -0.21205,1.067591 -0.80215,2.027504 -1.57458,2.729547 1.19114,0.09482 2.36763,-0.410445 3.04219,-1.486215 0.60874,-0.976413 0.69239,-2.25638 0.22944,-3.419427 v -5.19e-4 c -0.106,-0.266287 -0.24021,-0.523877 -0.40152,-0.76791 z m -142.6275,4.555264 c -0.06706,0.0028 -0.134778,0.0092 -0.203605,0.01912 -0.99143,0.287292 -1.743541,1.210064 -2.005566,2.19108 0.859053,0.177491 1.944794,0.147987 2.809652,-0.349332 -0.710253,0.533506 -1.654709,0.911485 -2.601913,1.065567 0.911225,0.641409 2.104526,0.762953 3.134697,0.41238 1.15115,-0.394793 1.914125,-1.301025 2.024682,-2.375567 -1.322781,-0.281387 -2.152046,-1.004818 -3.157947,-0.963248 z m 135.71009,0.0057 c -1.00589,-0.04157 -1.83569,0.681863 -3.15846,0.96325 0.11055,1.074537 0.87353,1.980774 2.02468,2.375564 1.03017,0.350573 2.22347,0.22851 3.1347,-0.412895 -0.94721,-0.15408 -1.89115,-0.531546 -2.6014,-1.065051 0.86485,0.497318 1.9506,0.526822 2.80965,0.349334 -0.26201,-0.981014 -1.01413,-1.903791 -2.00556,-2.19108 -0.0688,-0.0099 -0.13655,-0.01635 -0.20361,-0.01912 z M 3.8217134,25.35162 c -0.1279628,0.269679 -0.2262055,0.549251 -0.2945556,0.83354 -0.298377,1.240915 -0.024681,2.526245 0.7363891,3.434932 0.8423029,1.00039 2.1112652,1.360274 3.3145264,1.104326 C 6.6931746,30.112739 5.955329,29.214216 5.5838799,28.158682 6.119822,29.25493 7.1950529,29.833598 8.1253266,30.07381 8.341029,28.958785 8.1596573,27.592696 7.458184,26.659032 6.5633002,25.770154 5.2705809,26.04899 3.8217134,25.35162 Z m 153.9477466,0.0052 c -1.44887,0.697368 -2.7416,0.419055 -3.63647,1.307931 -0.70153,0.933659 -0.88285,2.29924 -0.66715,3.414262 0.93027,-0.240215 2.00551,-0.818372 2.54145,-1.914612 -0.37145,1.055526 -1.10981,1.954059 -1.99471,2.565734 1.20326,0.255947 2.47274,-0.103942 3.31504,-1.104326 0.76104,-0.90868 1.03425,-2.194023 0.73588,-3.434932 -0.0683,-0.284287 -0.16608,-0.56438 -0.29404,-0.834057 z m -44.01179,0.364837 v 0.640786 h 0.64079 v -0.640786 z m -78.546655,1.708938 v 0.640787 h 0.640788 v -0.640787 z m 0.854212,0 v 0.640787 h 0.640788 v -0.640787 z m 0.854728,0 v 0.640787 h 0.640271 v -0.640787 z m 0.854211,0 v 0.640787 h 0.640788 v -0.640787 z m 3.413746,0 v 0.640787 H 41.8287 v -0.640787 z m 0.854212,0 v 0.640787 h 0.640786 v -0.640787 z m 0.854728,0 v 0.640787 h 0.640787 v -0.640787 z m 2.559532,0 v 0.640787 h 0.640789 v -0.640787 z m 0.854728,0 v 0.640787 h 0.640789 v -0.640787 z m 1.708423,0 v 0.640787 h 0.640789 v -0.640787 z m 0.854728,0 v 0.640787 h 0.640789 v -0.640787 z m 2.56005,0 v 0.640787 h 0.640789 v -0.640787 z m 0.854213,0 v 0.640787 h 0.640786 v -0.640787 z m 0.854728,0 v 0.640787 h 0.640787 v -0.640787 z m 0.85421,0 v 0.640787 h 0.640789 v -0.640787 z m 2.559534,0 v 0.640787 h 0.64079 v -0.640787 z m 0.854213,0 v 0.640787 h 0.640786 v -0.640787 z m 0.85421,0 v 0.640787 h 0.640789 v -0.640787 z m 2.559534,0 v 0.640787 h 0.640789 v -0.640787 z m 1.708941,0 v 0.640787 h 0.640787 v -0.640787 z m 0.85421,0 v 0.640787 h 0.640789 v -0.640787 z m 3.414779,0 v 0.640787 h 0.640789 v -0.640787 z m 0.854728,0 v 0.640787 h 0.640789 v -0.640787 z m 0.854213,0 v 0.640787 h 0.640786 v -0.640787 z m 2.559015,0 v 0.640787 h 0.640789 v -0.640787 z m 11.100615,0 v 0.640787 h 0.640787 v -0.640787 z m 0.85421,0 v 0.640787 h 0.640789 v -0.640787 z m 0.854213,0 v 0.640787 h 0.640789 v -0.640787 z m 0.854728,0 v 0.640787 h 0.640787 v -0.640787 z m 2.554367,0 v 0.640787 h 0.640786 v -0.640787 z m 0.85421,0 v 0.640787 h 0.640789 v -0.640787 z m 0.854728,0 v 0.640787 h 0.640271 v -0.640787 z m 2.561085,0 v 0.640787 h 0.640786 v -0.640787 z m 5.979996,0 v 0.640787 h 0.640789 v -0.640787 z m 0.854213,0 v 0.640787 h 0.640786 v -0.640787 z m 0.85421,0 v 0.640787 h 0.640789 v -0.640787 z m 3.411704,0 v 0.640787 h 0.64079 v -0.640787 z m 0.85422,0 v 0.640787 h 0.64078 v -0.640787 z m 0.85421,0 v 0.640787 h 0.64079 v -0.640787 z m 2.56263,0 v 0.640787 h 0.64079 v -0.640787 z m 0.85473,0 v 0.640787 h 0.64027 v -0.640787 z m 0.85421,0 v 0.640787 h 0.64079 v -0.640787 z m 0.85421,0 v 0.640787 h 0.64079 v -0.640787 z m 0.85422,0 v 0.640787 h 0.64078 v -0.640787 z m 1.7017,0 v 0.640787 h 0.64079 v -0.640787 z m 0.85421,0 v 0.640787 h 0.64079 v -0.640787 z m 0.85421,0 v 0.640787 h 0.64079 v -0.640787 z m 4.27158,0 v 0.640787 h 0.64027 v -0.640787 z m 0.85421,0 v 0.640787 h 0.64079 v -0.640787 z m 0.85421,0 v 0.640787 h 0.64079 v -0.640787 z m 2.5616,0 v 0.640787 h 0.64027 v -0.640787 z m 1.70842,0 v 0.640787 h 0.64079 v -0.640787 z m 0.85421,0 v 0.640787 h 0.64079 v -0.640787 z m -89.650885,0.854213 v 0.640786 h 0.640788 v -0.640786 z m 3.417363,0 v 0.640786 h 0.640788 v -0.640786 z m 1.705322,0 v 0.640786 h 0.640788 v -0.640786 z m 3.417362,0 v 0.640786 h 0.640789 v -0.640786 z m 2.56005,0 v 0.640786 h 0.640789 v -0.640786 z m 0.854213,0 v 0.640786 h 0.640786 v -0.640786 z m 3.414778,0 v 0.640786 h 0.640787 v -0.640786 z m 5.122686,0 v 0.640786 h 0.640786 v -0.640786 z m 3.41736,0 v 0.640786 h 0.64079 v -0.640786 z m 1.704806,0 v 0.640786 h 0.640789 v -0.640786 z m 0.854213,0 v 0.640786 h 0.640786 v -0.640786 z m 2.563151,0 v 0.640786 h 0.640786 v -0.640786 z m 5.123717,0 v 0.640786 h 0.640789 v -0.640786 z m 1.704805,0 v 0.640786 h 0.640789 v -0.640786 z m 10.246403,0 v 0.640786 h 0.640789 v -0.640786 z m 5.117517,0 v 0.640786 h 0.640789 v -0.640786 z m 3.417364,0 v 0.640786 h 0.640786 v -0.640786 z m 1.706872,0 v 0.640786 h 0.640786 v -0.640786 z m 5.125783,0 v 0.640786 h 0.64079 v -0.640786 z m 3.41736,0 v 0.640786 h 0.64079 v -0.640786 z m 1.70277,0 v 0.640786 h 0.64079 v -0.640786 z m 3.41737,0 v 0.640786 h 0.64078 v -0.640786 z m 3.41684,0 v 0.640786 h 0.64079 v -0.640786 z m 5.11855,0 v 0.640786 h 0.64079 v -0.640786 z m 3.41685,0 v 0.640786 h 0.64079 v -0.640786 z m 3.41736,0 v 0.640786 h 0.64079 v -0.640786 z m 1.70739,0 v 0.640786 h 0.64027 v -0.640786 z m 0.85421,0 v 0.640786 h 0.64079 v -0.640786 z m 2.56315,0 v 0.640786 h 0.64079 v -0.640786 z m -85.38293,0.85421 v 0.640789 h 0.640788 v -0.640789 z m 0.854212,0 v 0.640789 H 41.8287 v -0.640789 z m 0.854212,0 v 0.640789 h 0.640786 v -0.640789 z m 0.854728,0 v 0.640789 h 0.640787 v -0.640789 z m 0.85421,0 v 0.640789 h 0.640789 v -0.640789 z m 2.56005,0 v 0.640789 h 0.640789 v -0.640789 z m 5.123201,0 v 0.640789 h 0.640789 v -0.640789 z m 4.268476,0 v 0.640789 h 0.640786 v -0.640789 z m 3.41736,0 v 0.640789 h 0.64079 v -0.640789 z m 7.682736,0 v 0.640789 h 0.640789 v -0.640789 z m 0.854728,0 v 0.640789 h 0.640789 v -0.640789 z m 0.854213,0 v 0.640789 h 0.640786 v -0.640789 z m 0.85421,0 v 0.640789 h 0.640789 v -0.640789 z m 12.80542,0 v 0.640789 h 0.640787 v -0.640789 z m 4.263305,0 v 0.640789 h 0.640789 v -0.640789 z m 0.854213,0 v 0.640789 h 0.640786 v -0.640789 z m 0.85421,0 v 0.640789 h 0.640789 v -0.640789 z m 0.854728,0 v 0.640789 h 0.640789 v -0.640789 z m 0.854213,0 v 0.640789 h 0.640786 v -0.640789 z m 6.832655,0 v 0.640789 h 0.64079 v -0.640789 z m 0.854213,0 v 0.640789 h 0.640789 v -0.640789 z m 0.854213,0 v 0.640789 h 0.640786 v -0.640789 z m 0.854725,0 v 0.640789 h 0.64079 v -0.640789 z m 0.854209,0 v 0.640789 h 0.64079 v -0.640789 z m 1.70277,0 v 0.640789 h 0.64079 v -0.640789 z m 6.83421,0 v 0.640789 h 0.64079 v -0.640789 z m 5.11855,0 v 0.640789 h 0.64079 v -0.640789 z m 3.41685,0 v 0.640789 h 0.64079 v -0.640789 z m 3.41736,0 v 0.640789 h 0.64079 v -0.640789 z m -85.380865,5.16e-4 v 0.640789 h 0.640788 v -0.640789 z m 0.854212,0 v 0.640789 h 0.640788 v -0.640789 z m 0.854728,0 v 0.640789 h 0.640788 v -0.640789 z m 0.854211,0 v 0.640789 h 0.640788 v -0.640789 z m 14.51436,0 v 0.640789 h 0.640786 v -0.640789 z m 0.854728,0 v 0.640789 h 0.640787 v -0.640789 z m 7.681701,0 v 0.640789 h 0.640789 v -0.640789 z m 3.417364,0 v 0.640789 h 0.640786 v -0.640789 z m 6.828522,0 v 0.640789 h 0.640789 v -0.640789 z m 11.954825,0 v 0.640789 h 0.640789 v -0.640789 z m 0.854213,0 v 0.640789 h 0.640789 v -0.640789 z m 7.679118,0 v 0.640789 h 0.640786 v -0.640789 z m 30.740273,0 v 0.640789 h 0.64027 v -0.640789 z m 3.41736,0 v 0.640789 h 0.64079 v -0.640789 z m -113.712466,0.0708 c -0.200019,-5.11e-4 -0.400324,0.02383 -0.604619,0.08372 -0.960387,0.433281 -1.5893107,1.468188 -1.7213415,2.487702 0.8875245,0.06236 1.9778515,-0.114043 2.7848465,-0.738455 -0.450517,0.446167 -1.021364,0.826011 -1.638663,1.110525 -0.272097,0.126019 -0.554453,0.233945 -0.8407758,0.320395 0.9903678,0.518308 2.1905468,0.493101 3.1760378,0.0083 0.01094,-0.005 0.02163,-0.01102 0.03256,-0.01602 1.110972,-0.557104 1.770667,-1.589284 1.736845,-2.705778 -1.193594,-0.07809 -2.058141,-0.548134 -2.924886,-0.550354 z m 137.582846,0.0057 c -0.86675,0.0022 -1.7313,0.472262 -2.92489,0.550354 -0.0338,1.116486 0.62537,2.148676 1.73633,2.705778 0.0109,0.005 0.0217,0.01102 0.0326,0.01602 0.98549,0.484831 2.18619,0.509522 3.17655,-0.0088 -0.28633,-0.08645 -0.56869,-0.19386 -0.84078,-0.319876 -0.6173,-0.284514 -1.18865,-0.664363 -1.63917,-1.110527 0.80699,0.624411 1.89784,0.800301 2.78535,0.737938 -0.13217,-1.019347 -0.76112,-2.053979 -1.72134,-2.487186 -0.20429,-0.05988 -0.40459,-0.08423 -0.60461,-0.08371 z M 35.211015,29.993713 V 30.6345 h 0.640788 v -0.640787 z m 5.122685,0 V 30.6345 h 0.640788 v -0.640787 z m 5.977412,0 V 30.6345 h 0.640789 v -0.640787 z m 7.686352,0 V 30.6345 h 0.640789 v -0.640787 z m 1.705325,0 V 30.6345 h 0.640786 v -0.640787 z m 3.41736,0 V 30.6345 h 0.64079 v -0.640787 z m 1.704806,0 V 30.6345 h 0.640789 v -0.640787 z m 3.417364,0 V 30.6345 h 0.640786 v -0.640787 z m 1.706356,0 V 30.6345 h 0.640786 v -0.640787 z m 3.417361,0 V 30.6345 h 0.640789 v -0.640787 z m 1.704805,0 V 30.6345 h 0.640789 v -0.640787 z m 13.663766,0 V 30.6345 h 0.640787 v -0.640787 z m 1.700154,0 V 30.6345 h 0.640789 v -0.640787 z m 5.124236,0 V 30.6345 h 0.640786 v -0.640787 z m 5.125783,0 V 30.6345 h 0.64079 v -0.640787 z m 5.12013,0 V 30.6345 h 0.64079 v -0.640787 z m 3.41737,0 V 30.6345 h 0.64078 v -0.640787 z m 3.41684,0 V 30.6345 h 0.64079 v -0.640787 z m 5.11855,0 V 30.6345 h 0.64079 v -0.640787 z m 3.41685,0 V 30.6345 h 0.64079 v -0.640787 z m 3.41736,0 V 30.6345 h 0.64079 v -0.640787 z m 1.70739,0 V 30.6345 h 0.64027 v -0.640787 z m 3.41736,0 V 30.6345 h 0.64079 v -0.640787 z m -90.505615,0.854213 v 0.640786 h 0.640788 v -0.640786 z m 5.976897,0 v 0.640786 H 41.8287 v -0.640786 z m 0.854212,0 v 0.640786 h 0.640786 v -0.640786 z m 0.854728,0 v 0.640786 h 0.640787 v -0.640786 z m 0.85421,0 v 0.640786 h 0.640789 v -0.640786 z m 1.705322,0 v 0.640786 h 0.640789 v -0.640786 z m 0.854728,0 v 0.640786 h 0.640789 v -0.640786 z m 0.854213,0 v 0.640786 h 0.640786 v -0.640786 z m 0.85421,0 v 0.640786 h 0.640789 v -0.640786 z m 2.560568,0 v 0.640786 h 0.640787 v -0.640786 z m 0.85421,0 v 0.640786 h 0.640789 v -0.640786 z m 0.854213,0 v 0.640786 h 0.640786 v -0.640786 z m 0.854728,0 v 0.640786 h 0.640787 v -0.640786 z m 3.413744,0 v 0.640786 h 0.64079 v -0.640786 z m 0.854213,0 v 0.640786 h 0.640786 v -0.640786 z m 0.85421,0 v 0.640786 h 0.640789 v -0.640786 z m 2.559534,0 v 0.640786 h 0.640789 v -0.640786 z m 3.417364,0 v 0.640786 h 0.640786 v -0.640786 z m 2.560566,0 v 0.640786 h 0.640789 v -0.640786 z m 0.854728,0 v 0.640786 h 0.640789 v -0.640786 z m 0.854213,0 v 0.640786 h 0.640786 v -0.640786 z m 0.85421,0 v 0.640786 h 0.640789 v -0.640786 z m 1.704805,0 v 0.640786 h 0.640789 v -0.640786 z m 0.854729,0 v 0.640786 h 0.640789 v -0.640786 z m 0.854212,0 v 0.640786 h 0.640787 v -0.640786 z m 0.85421,0 v 0.640786 h 0.640789 v -0.640786 z m 0.854729,0 v 0.640786 h 0.640789 v -0.640786 z m 6.828523,0 v 0.640786 h 0.640789 v -0.640786 z m 0.854212,0 v 0.640786 h 0.640787 v -0.640786 z m 0.85421,0 v 0.640786 h 0.640789 v -0.640786 z m 0.854213,0 v 0.640786 h 0.640789 v -0.640786 z m 3.409095,0 v 0.640786 h 0.640786 v -0.640786 z m 0.85421,0 v 0.640786 h 0.640789 v -0.640786 z m 0.854728,0 v 0.640786 h 0.640789 v -0.640786 z m 0.854213,0 v 0.640786 h 0.640786 v -0.640786 z m 1.706872,0 v 0.640786 h 0.640786 v -0.640786 z m 0.85421,0 v 0.640786 h 0.640789 v -0.640786 z m 0.854728,0 v 0.640786 h 0.64079 v -0.640786 z m 0.854213,0 v 0.640786 h 0.640786 v -0.640786 z m 0.85421,0 v 0.640786 h 0.640789 v -0.640786 z m 2.562635,0 v 0.640786 h 0.640789 v -0.640786 z m 0.854213,0 v 0.640786 h 0.640786 v -0.640786 z m 0.854725,0 v 0.640786 h 0.64079 v -0.640786 z m 0.854209,0 v 0.640786 h 0.64079 v -0.640786 z m 2.55698,0 v 0.640786 h 0.64079 v -0.640786 z m 0.85422,0 v 0.640786 h 0.64078 v -0.640786 z m 0.85421,0 v 0.640786 h 0.64079 v -0.640786 z m 4.27157,0 v 0.640786 h 0.64079 v -0.640786 z m 3.41013,0 v 0.640786 h 0.64079 v -0.640786 z m 0.85421,0 v 0.640786 h 0.64079 v -0.640786 z m 0.85421,0 v 0.640786 h 0.64079 v -0.640786 z m 0.85473,0 v 0.640786 h 0.64027 v -0.640786 z m 0.85421,0 v 0.640786 h 0.64079 v -0.640786 z m 2.56264,0 v 0.640786 h 0.64079 v -0.640786 z m 0.85421,0 v 0.640786 h 0.64079 v -0.640786 z m 0.85421,0 v 0.640786 h 0.64079 v -0.640786 z m 2.5616,0 v 0.640786 h 0.64027 v -0.640786 z m 3.41736,0 v 0.640786 h 0.64079 V 30.847926 Z M 2.4626228,31.678881 c -0.09444,0.286518 -0.1572363,0.579382 -0.1901692,0.873332 -0.1435561,1.281734 0.2892845,2.546834 1.1735723,3.376538 0.9786028,0.913554 2.3181591,1.132615 3.5201984,0.727604 C 5.98834,36.137923 5.1282894,35.312129 4.6190807,34.289575 5.3015076,35.333941 6.4669111,35.794253 7.4478488,35.927201 7.5342665,34.76296 7.1793221,33.39721 6.341973,32.539293 5.3140663,31.75211 4.0321143,32.197028 2.4626228,31.678881 Z m 156.6654072,0.0057 c -1.56948,0.518139 -2.85094,0.07271 -3.87883,0.859896 -0.83734,0.857909 -1.1928,2.224186 -1.1064,3.388424 0.98093,-0.132948 2.14634,-0.593265 2.82877,-1.637628 -0.5092,1.022551 -1.36874,1.847834 -2.34663,2.366264 1.20204,0.405011 2.54109,0.185944 3.51969,-0.727604 0.88427,-0.829702 1.31765,-2.094291 1.17409,-3.37602 v -5.19e-4 c -0.0329,-0.293949 -0.0963,-0.586301 -0.19069,-0.872813 z M 11.769036,34.690583 c -0.344296,-0.0066 -0.67556,0.03578 -1.005627,0.179319 -0.9109713,0.557432 -1.4178355,1.676048 -1.428337,2.718697 0.903461,-0.04249 1.982756,-0.349525 2.717667,-1.081072 -0.571924,0.728118 -1.418231,1.348404 -2.3269933,1.74253 1.0734833,0.409676 2.2983323,0.234389 3.2395993,-0.388091 1.049926,-0.697994 1.583106,-1.831218 1.408183,-2.967778 -1.024451,0.06287 -1.84705,-0.189166 -2.604492,-0.203605 z m 138.053104,0.0057 c -0.75744,0.01444 -1.58005,0.266475 -2.60449,0.203605 -0.17493,1.136555 0.35826,2.269784 1.40818,2.967778 0.94126,0.622477 2.1656,0.797761 3.23908,0.388088 -0.90876,-0.394123 -1.75455,-1.014931 -2.32648,-1.743045 0.7349,0.731543 1.81369,1.038582 2.71715,1.081071 -0.0105,-1.042646 -0.51738,-2.160751 -1.42834,-2.718181 -0.33006,-0.143534 -0.66081,-0.185878 -1.0051,-0.179316 z M 1.8440558,38.189079 c -0.06342,0.303982 -0.094491,0.611235 -0.094051,0.915707 0.0019,1.327639 0.5926106,2.570882 1.5952521,3.316591 1.108995,0.820431 2.506966,0.887273 3.6907309,0.331764 -1.0623074,-0.416107 -2.0392565,-1.15952 -2.6799397,-2.146123 0.8207348,0.988672 2.0679378,1.322425 3.0881835,1.343589 -0.047863,-1.201976 -0.571673,-2.557494 -1.5291056,-3.336748 -1.1442345,-0.684498 -2.4042634,-0.07896 -4.07107,-0.42478 z m 157.9025442,0.0057 c -1.6668,0.345813 -2.92685,-0.259715 -4.07107,0.42478 -0.95744,0.779254 -1.48069,2.134781 -1.52859,3.336748 1.02024,-0.02116 2.26745,-0.355436 3.08818,-1.344104 -0.64068,0.986597 -1.61816,1.730536 -2.68045,2.146638 1.18375,0.555509 2.58174,0.488667 3.69073,-0.331761 1.00263,-0.745709 1.59325,-1.989476 1.59525,-3.31711 4e-4,-0.304469 -0.0307,-0.611209 -0.0941,-0.915191 z M 14.444325,40.146583 c -1.494469,0.266827 -2.636614,-0.188754 -3.649911,0.397906 -0.8546694,0.668404 -1.2363869,1.855089 -1.126029,2.907316 0.908153,-0.147883 1.962877,-0.58298 2.619999,-1.406631 -0.492901,0.801246 -1.275347,1.525765 -2.148193,2.028817 1.132542,0.288415 2.350272,-0.03047 3.229264,-0.767913 0.980108,-0.826421 1.386035,-2.032214 1.07487,-3.159495 z m 132.702525,0.0057 c -0.31117,1.127276 0.0948,2.333077 1.07487,3.159498 0.87898,0.737433 2.09673,1.056325 3.22926,0.767911 -0.87284,-0.50305 -1.65581,-1.227574 -2.14871,-2.028817 0.65711,0.82365 1.71236,1.258747 2.62051,1.406633 0.11053,-1.052351 -0.27123,-2.239325 -1.12603,-2.907834 -1.01328,-0.586658 -2.15544,-0.130564 -3.6499,-0.397391 z M 5.2443655,44.628995 C 4.2918584,44.597645 3.278273,44.99835 1.968596,44.878592 c -0.02959,0.318481 -0.025068,0.636648 0.010852,0.948264 0.1565209,1.358588 0.9064212,2.562698 2.0200322,3.209105 1.231331,0.710422 2.6699087,0.615484 3.8163043,-0.09147 -1.1359212,-0.301413 -2.2230364,-0.94851 -2.9941322,-1.883603 0.955522,0.916321 2.2710227,1.112531 3.317627,1.014926 C 7.9498483,46.85173 7.2561026,45.525689 6.1853934,44.839836 5.872693,44.698059 5.5618681,44.639446 5.2443655,44.628995 Z m 151.1024345,0.0052 c -0.3175,0.01045 -0.62833,0.06906 -0.94103,0.210841 -1.07068,0.68585 -1.76497,2.011897 -1.9544,3.235979 1.0466,0.0976 2.36263,-0.09861 3.31815,-1.014926 -0.77109,0.93509 -1.85823,1.582708 -2.99413,1.884121 1.14638,0.706951 2.58498,0.801886 3.8163,0.09147 1.11361,-0.646404 1.86299,-1.850525 2.01951,-3.209108 h 5.2e-4 c 0.0359,-0.311613 0.0399,-0.629782 0.0103,-0.948261 -1.30967,0.119755 -2.32275,-0.281461 -3.27526,-0.250116 z m -87.176617,0.198923 c -1.188961,0 -2.203804,0.118467 -3.044777,0.355534 -0.826466,0.225777 -1.500632,0.558638 -2.022615,0.998905 -0.521981,0.440264 -0.898687,0.982274 -1.130679,1.62574 -0.231992,0.632177 -0.3483,1.354511 -0.3483,2.167311 v 1.896523 c 0,0.8128 0.116308,1.540898 0.3483,2.184362 0.231992,0.632177 0.608698,1.168423 1.130679,1.608689 0.521983,0.440266 1.196149,0.778893 2.022615,1.015959 0.840973,0.225777 1.855816,0.338997 3.044777,0.338997 1.188961,0 2.197116,-0.11322 3.023587,-0.338997 0.840973,-0.237066 1.522338,-0.575693 2.044319,-1.015959 0.521983,-0.440266 0.898689,-0.976512 1.130681,-1.608689 0.231992,-0.643464 0.3483,-1.371562 0.3483,-2.184362 v -1.896523 c 0,-0.8128 -0.116308,-1.535134 -0.3483,-2.167311 -0.231992,-0.643466 -0.608698,-1.185476 -1.130681,-1.62574 -0.521981,-0.440267 -1.203346,-0.773128 -2.044319,-0.998905 -0.826471,-0.237067 -1.834626,-0.355534 -3.023587,-0.355534 z m -42.93278,0.168981 c -0.898969,0 -1.348238,0.350155 -1.348238,1.050065 v 10.803475 h 4.110343 v -8.466667 c 0,-0.19191 0.109103,-0.287837 0.326596,-0.287837 h 5.502506 v -3.099036 z m 14.289567,0 c -0.362487,0 -0.594585,0.124233 -0.696081,0.372587 l -4.654497,11.480953 h 4.371826 l 2.631365,-7.55251 h 0.08733 l 1.674315,4.436938 h -2.3921 l -1.022161,3.115572 H 49.53107 L 44.528792,45.374686 c -0.115991,-0.248354 -0.362501,-0.372587 -0.73949,-0.372587 z m 7.307565,0 4.654495,11.480953 c 0.115998,0.248354 0.362503,0.372587 0.739489,0.372587 h 3.262334 c 0.362487,0 0.594069,-0.124233 0.695565,-0.372587 L 61.92773,45.002099 h -4.371308 l -2.631882,7.417118 h -0.08681 l -2.522844,-7.417118 z m 31.797024,0 c -0.898969,0 -1.348237,0.350155 -1.348237,1.050065 v 10.803475 h 4.11086 v -8.585004 c 0,-0.191913 0.108585,-0.28784 0.326078,-0.28784 h 2.587956 c 0.521983,0 0.782897,0.214399 0.782897,0.643371 v 0.355537 c 0,0.169325 -0.05043,0.316105 -0.151929,0.440282 -0.087,0.112887 -0.27535,0.169497 -0.565341,0.169497 h -2.305801 v 2.67529 h 2.479437 c 0.275484,0 0.456636,0.06186 0.543634,0.186036 0.101496,0.112887 0.152445,0.254413 0.152445,0.423746 v 3.979085 h 4.08864 v -4.114993 c 0,-0.541867 -0.144608,-0.976418 -0.434599,-1.303798 -0.275492,-0.338667 -0.623377,-0.569838 -1.043863,-0.694015 0.376986,-0.169328 0.652311,-0.383726 0.826307,-0.643372 0.188491,-0.27093 0.28267,-0.688707 0.28267,-1.253151 v -0.694531 c 0,-2.099731 -1.370454,-3.14968 -4.11086,-3.14968 z m 13.354225,0 v 11.85354 h 4.11086 v -11.85354 z m 6.111772,0 v 3.099036 h 11.657204 v -3.099036 z m 14.963454,0 c -0.89896,0 -1.34875,0.350155 -1.34875,1.050065 v 9.736874 c 0,0.711198 0.44979,1.066601 1.34875,1.066601 h 8.59069 v -3.115572 h -5.5025 c -0.2175,0 -0.32608,-0.09593 -0.32608,-0.287838 v -5.063257 c 0,-0.19191 0.10858,-0.287837 0.32608,-0.287837 h 5.5025 v -3.099036 z m 15.13758,0 c -2.74041,0 -4.11086,1.049949 -4.11086,3.14968 v 1.422651 c 0,0.361244 0.0654,0.699871 0.19585,1.015958 0.1305,0.3048 0.33326,0.575804 0.60875,0.812871 0.28999,0.225777 0.6528,0.406104 1.08779,0.541568 0.44949,0.124179 0.98573,0.186552 1.60921,0.186552 h 3.5233 c 0.27548,0 0.46435,0.05085 0.56585,0.152445 0.10149,0.1016 0.15193,0.253622 0.15193,0.456822 v 0.35605 c 0,0.428977 -0.26092,0.643371 -0.7829,0.643371 h -6.69881 v 3.115572 h 7.24245 c 2.74041,0 4.11086,-1.049948 4.11086,-3.149679 v -1.219047 c 0,-0.89182 -0.29025,-1.574837 -0.87023,-2.04897 -0.56548,-0.485421 -1.51497,-0.72812 -2.84892,-0.72812 h -3.30626 c -0.47849,0 -0.71727,-0.203383 -0.71727,-0.609783 v -0.355534 c 0,-0.428977 0.26091,-0.643371 0.7829,-0.643371 h 6.37222 V 45.002099 Z M 15.120769,45.412926 c -1.47968,0.441412 -2.685892,0.113337 -3.642676,0.821655 -0.787153,0.772557 -1.036639,2.013355 -0.804601,3.061314 0.900598,-0.253738 1.917236,-0.813869 2.48719,-1.719791 -0.406448,0.864441 -1.115071,1.684805 -1.93942,2.292365 1.177158,0.160108 2.371066,-0.301733 3.175004,-1.146182 0.896146,-0.945812 1.168475,-2.208038 0.724503,-3.309361 z m 131.349121,0.0052 c -0.44397,1.10132 -0.17112,2.364071 0.72502,3.309877 0.80394,0.844447 1.99786,1.30629 3.175,1.146183 -0.82434,-0.607558 -1.5335,-1.428443 -1.93994,-2.292882 0.56995,0.905923 1.5866,1.466569 2.48719,1.720307 0.23204,-1.047953 -0.0174,-2.289275 -0.8046,-3.061829 -0.95677,-0.708316 -2.163,-0.380246 -3.64267,-0.821656 z m -77.299707,2.513542 c 0.463984,2e-6 0.84841,0.03983 1.152901,0.118856 0.318989,0.06773 0.572698,0.186203 0.761193,0.355534 0.188497,0.169333 0.319214,0.395258 0.391708,0.677479 0.087,0.282223 0.130225,0.626096 0.130225,1.032494 v 1.625743 c 0,0.406397 -0.04323,0.750789 -0.130225,1.03301 -0.0725,0.282223 -0.203214,0.508145 -0.391708,0.677478 -0.188495,0.169334 -0.442204,0.293566 -0.761193,0.372587 -0.304491,0.06773 -0.688917,0.101288 -1.152901,0.101288 -0.463984,0 -0.855099,-0.03355 -1.174088,-0.101288 -0.304491,-0.07902 -0.550998,-0.203253 -0.73949,-0.372587 -0.188494,-0.169333 -0.326416,-0.395255 -0.413411,-0.677478 -0.0725,-0.282221 -0.108522,-0.626613 -0.108522,-1.03301 v -1.625776 c 0,-0.406398 0.03603,-0.750271 0.108522,-1.032494 0.087,-0.282221 0.224917,-0.508146 0.413411,-0.677479 0.188492,-0.169331 0.434999,-0.287801 0.73949,-0.355534 0.318989,-0.07902 0.710104,-0.118854 1.174088,-0.118856 z m 33.711667,0.694531 v 8.229473 h 4.11034 v -8.229473 z m -73.207964,0.829408 v 2.811198 h 5.111316 v -2.811198 z m 87.823604,0 v 2.811198 h 5.1108 V 49.455574 Z M 16.39511,50.617261 c -1.444261,0.614553 -2.699741,0.423043 -3.585311,1.246434 -0.707169,0.868683 -0.817968,2.147173 -0.464054,3.175519 0.879879,-0.359739 1.842068,-1.041543 2.314587,-2.018999 -0.31224,0.916744 -0.93417,1.825032 -1.696537,2.532144 1.205529,0.02452 2.355467,-0.575918 3.073714,-1.521869 0.797013,-1.054984 0.930101,-2.355766 0.357601,-3.413229 z m 128.80095,0.0052 c -0.5725,1.057457 -0.4394,2.358249 0.3576,3.413228 0.71825,0.945946 1.86819,1.54639 3.07372,1.52187 -0.76237,-0.707107 -1.38482,-1.614887 -1.69706,-2.531629 0.47245,0.977297 1.43483,1.6587 2.31459,2.018483 0.35391,-1.02834 0.24363,-2.306323 -0.46354,-3.175 -0.88557,-0.823389 -2.14106,-0.632402 -3.58531,-1.246952 z M 6.4401583,51.022921 c -1.059467,-0.0026 -2.0981598,0.614582 -3.5641234,0.646988 0.0071,0.329403 0.048565,0.654193 0.1219562,0.968933 0.320045,1.372542 1.2296889,2.517601 2.4448119,3.047876 1.3431377,0.58213 2.8010882,0.314105 3.8886516,-0.543636 -1.1963458,-0.173777 -2.3839358,-0.707185 -3.282487,-1.573547 1.0848835,0.825339 2.4529637,0.870516 3.5108967,0.647504 C 9.2219951,52.988936 8.3569415,51.714981 7.1822318,51.138676 6.9300124,51.057298 6.6846505,51.023516 6.4401583,51.022921 Z m 148.7108517,0.0057 c -0.24449,5.98e-4 -0.49037,0.03386 -0.74259,0.115239 -1.1747,0.576302 -2.03924,1.850782 -2.37712,3.078882 1.05793,0.22301 2.4255,0.177829 3.51039,-0.647507 -0.89856,0.86636 -2.08564,1.399255 -3.28198,1.573032 1.08756,0.857737 2.54501,1.126281 3.88814,0.544153 1.21512,-0.530273 2.12476,-1.675341 2.44481,-3.047878 0.0733,-0.314735 0.11547,-0.640045 0.12247,-0.969449 -1.46596,-0.03241 -2.50465,-0.649057 -3.56412,-0.646472 z M 18.254945,55.67845 c -1.386691,0.785747 -2.674122,0.739621 -3.473173,1.670699 -0.614079,0.955993 -0.579096,2.254546 -0.103353,3.24683 0.844994,-0.465586 1.736107,-1.264711 2.100647,-2.301668 -0.209964,0.957047 -0.732538,1.942563 -1.418518,2.743502 1.217525,-0.118485 2.30602,-0.85852 2.921268,-1.892908 0.681988,-1.152909 0.669254,-2.472141 -0.02687,-3.466455 z m 125.081285,0.0052 c -0.69609,0.99431 -0.70885,2.314067 -0.0269,3.466972 0.61524,1.034382 1.70323,1.774422 2.92075,1.892907 -0.68598,-0.800935 -1.20804,-1.786975 -1.418,-2.744018 0.36453,1.036952 1.25514,1.836084 2.10013,2.301668 0.47576,-0.99228 0.51123,-2.290841 -0.10284,-3.24683 -0.79905,-0.931074 -2.08648,-0.884955 -3.47317,-1.670699 z M 8.4141979,57.376021 c -1.184579,0.02029 -2.205382,0.876656 -3.8132038,1.098124 0.04677,0.336161 0.1284798,0.663324 0.2413288,0.976684 0.4922219,1.366783 1.5604569,2.430248 2.8654581,2.826701 1.4420977,0.434103 2.895728,-0.0176 3.900537,-1.024227 -1.241309,-0.03248 -2.5179102,-0.434306 -3.5398353,-1.212845 1.2069895,0.714353 2.6081673,0.596321 3.6602443,0.241328 C 11.23598,59.070229 10.20156,57.872202 8.9340629,57.42253 8.7559745,57.38701 8.5834235,57.37312 8.4141979,57.376021 Z m 144.7622521,0.0052 c -0.16922,-0.0029 -0.34177,0.0115 -0.51986,0.04703 -1.26749,0.449671 -2.30139,1.647188 -2.79415,2.85874 1.05207,0.354992 2.45275,0.473538 3.65973,-0.240812 -1.02192,0.778535 -2.29853,1.180366 -3.53984,1.212846 1.00482,1.006623 2.45897,1.458328 3.90106,1.024227 1.30499,-0.396451 2.37325,-1.459925 2.86546,-2.826701 0.11285,-0.31336 0.19452,-0.640525 0.24133,-0.976685 -1.60783,-0.22147 -2.62915,-1.078352 -3.81373,-1.098645 z M 20.688388,60.508129 c -1.305208,0.95423 -2.606641,1.063404 -3.302641,2.093929 -0.506965,1.033322 -0.318612,2.33277 0.278536,3.271118 0.794748,-0.571059 1.595841,-1.48203 1.841231,-2.565218 -0.09929,0.984342 -0.508008,2.037646 -1.102258,2.92592 1.210898,-0.269175 2.216421,-1.147061 2.71353,-2.258777 0.55013,-1.238386 0.385454,-2.55638 -0.428398,-3.466972 z m 120.214392,0.0057 c -0.81385,0.910588 -0.97904,2.228075 -0.42891,3.466455 0.49711,1.111712 1.50316,1.989603 2.71405,2.258776 -0.59424,-0.88827 -1.00348,-1.941581 -1.10278,-2.925919 0.24545,1.083444 1.04682,1.995221 1.84175,2.566252 0.59734,-0.938373 0.78557,-2.238699 0.27853,-3.272152 -0.69599,-1.030521 -1.99742,-1.139187 -3.30264,-2.093412 z m -129.709424,3.07268 c -1.3369726,0.04123 -2.2867138,1.154493 -4.0137079,1.604554 0.089366,0.338155 0.2131803,0.663098 0.3674195,0.969966 0.6728518,1.338673 1.8971744,2.295407 3.2778354,2.538863 1.525446,0.264886 2.947663,-0.380046 3.843181,-1.532206 -1.268324,0.123245 -2.619099,-0.127261 -3.758431,-0.796851 1.31981,0.581219 2.731924,0.285043 3.758431,-0.208256 -0.653527,-1.171581 -1.8556,-2.264916 -3.201876,-2.569352 -0.09292,-0.0073 -0.18372,-0.0095 -0.272852,-0.0067 z m 139.204454,0.0057 c -0.0891,-0.0027 -0.17993,-0.0011 -0.27285,0.0062 -1.34627,0.304434 -2.54835,1.397776 -3.20187,2.569352 1.0265,0.493297 2.43863,0.789471 3.75843,0.208256 -1.13933,0.669587 -2.49011,0.920612 -3.75843,0.797367 0.89552,1.152155 2.31723,1.797091 3.84266,1.532207 1.38052,-0.243431 2.60494,-1.200409 3.27784,-2.538863 v -5.17e-4 c 0.15414,-0.306745 0.27857,-0.63145 0.36793,-0.96945 -1.72699,-0.45006 -2.67674,-1.56332 -4.01371,-1.604552 z M 23.680453,65.015865 c -1.198313,1.119411 -2.493525,1.392767 -3.069063,2.513541 -0.320704,0.915989 -0.134127,1.959377 0.357601,2.78691 0.09715,0.16271 0.20593,0.316374 0.324011,0.457853 0.468464,-0.435094 0.92245,-1.011624 1.21698,-1.661914 0.1634,-0.361832 0.27784,-0.747359 0.318844,-1.146183 0.0062,0.309202 -0.01655,0.627217 -0.0646,0.947229 -0.107319,0.713315 -0.345174,1.450857 -0.682129,2.122868 1.184678,-0.432329 2.084845,-1.450687 2.447913,-2.621029 0.105341,-0.342548 0.159993,-0.683368 0.166915,-1.012341 0.02041,-0.933919 -0.329728,-1.789312 -1.016476,-2.386934 z m 114.230267,0.0052 c -0.68676,0.597621 -1.03688,1.45302 -1.01648,2.386934 0.007,0.32897 0.0611,0.670311 0.1664,1.012858 0.36305,1.170336 1.26323,2.188185 2.44791,2.620512 -0.33696,-0.672008 -0.57481,-1.409556 -0.68212,-2.122867 -0.0481,-0.320011 -0.0701,-0.638028 -0.0641,-0.94723 0.041,0.398823 0.15544,0.784354 0.31884,1.146184 0.29453,0.650288 0.74851,1.226822 1.21698,1.661914 0.11808,-0.14148 0.22691,-0.294628 0.32401,-0.457337 0.49172,-0.827529 0.67831,-1.870925 0.3576,-2.786909 -0.57553,-1.120769 -1.87077,-1.394651 -3.06906,-2.514059 z M 14.803476,69.538069 c -1.528161,0.06961 -2.344291,1.450305 -4.158406,2.170927 0.135107,0.334687 0.30435,0.65115 0.501777,0.945678 0.861632,1.285401 2.237389,2.108978 3.677299,2.178679 0.122919,0.0057 0.244526,0.0058 0.364836,5.17e-4 1.434977,-0.05534 2.644255,-0.872466 3.342432,-2.067574 -0.285786,0.06581 -0.578596,0.11259 -0.875399,0.139526 -1.025342,0.09505 -2.091105,-0.04747 -3.056661,-0.463021 1.421007,0.424163 2.818683,-0.06356 3.797701,-0.701249 -0.819667,-1.105427 -2.185072,-2.063976 -3.593579,-2.203483 z m 131.984224,0.0057 c -1.40849,0.139507 -2.77444,1.097546 -3.5941,2.202967 0.97901,0.637691 2.37722,1.12541 3.79822,0.701249 -0.96555,0.415547 -2.03132,0.558587 -3.05666,0.463537 -0.29681,-0.02694 -0.58963,-0.07423 -0.8754,-0.140043 0.69817,1.195103 1.90695,2.012234 3.34192,2.067574 0.12029,0.0052 0.24191,0.0057 0.36483,0 1.4399,-0.0697 2.81567,-0.893284 3.67729,-2.178678 h 5.2e-4 c 0.19742,-0.294528 0.36668,-0.611509 0.50178,-0.946195 -1.8141,-0.72062 -2.63024,-2.100801 -4.1584,-2.170411 z" />
  <g
     transform="translate(-18.234963,-45.153919)"
     display="none"
     fill-rule="evenodd"
     id="g25">
    <rect
       x="8.8053999"
       y="31.530001"
       width="180.44"
       height="89.271004"
       ry="0"
       style="paint-order:normal"
       id="rect21" />
    <rect
       x="9.6807003"
       y="27.329"
       width="178.69"
       height="100.3"
       ry="0"
       fill="#dcdcdc"
       style="paint-order:normal"
       id="rect23" />
  </g>
  <g
     id="g930"
     transform="translate(1.7464394,1.7431654)">
    <g
       id="g3610">
      <path
         d="m 9.3981138,70.90604 c 0.8616272,1.2854 2.2373912,2.108995 3.6773012,2.178696 0.122919,0.0057 0.244617,0.0057 0.364927,4.66e-4 1.434977,-0.05534 2.643871,-0.872535 3.342048,-2.067643 -0.285786,0.06581 -0.578585,0.112791 -0.875388,0.139727 -1.025342,0.09505 -2.091041,-0.04784 -3.056597,-0.46339 1.421007,0.424163 2.818937,-0.06347 3.797955,-0.701162 -0.819667,-1.105427 -2.185399,-2.063708 -3.593906,-2.203215 -1.528161,0.06961 -2.344131,1.449872 -4.1582429,2.170494 0.1351073,0.334687 0.3043813,0.651534 0.5018087,0.946063 z M 5.7984227,64.412206 c 0.6728522,1.338673 1.8972217,2.295699 3.2778832,2.539155 1.5254411,0.264886 2.9472671,-0.380077 3.8427851,-1.532237 -1.268324,0.123245 -2.618991,-0.127659 -3.7583191,-0.797249 1.3198061,0.581218 2.7318201,0.285237 3.7583271,-0.208062 -0.653527,-1.171581 -1.855443,-2.264964 -3.2017153,-2.5694 -1.4866673,-0.116701 -2.4446852,1.117873 -4.2868123,1.597938 0.089366,0.338155 0.2134907,0.663113 0.3677298,0.969981 z M 3.0933784,57.702152 c 0.4922215,1.366782 1.5603777,2.43037 2.865379,2.826823 1.4420977,0.434103 2.8959438,-0.01756 3.9007531,-1.024187 -1.2413091,-0.03248 -2.5177226,-0.434371 -3.5396477,-1.21291 1.2069895,0.714353 2.6079115,0.595934 3.6599858,0.240941 -0.4927443,-1.211557 -1.5269591,-2.409197 -2.7944567,-2.85887 -1.4247063,-0.284196 -2.4958053,0.798428 -4.3333162,1.051534 0.046768,0.336161 0.1285366,0.663348 0.2413858,0.976709 z M 1.2492702,50.890201 c 0.3200444,1.372541 1.2297674,2.517714 2.4448913,3.047989 1.3431375,0.58213 2.8008864,0.313877 3.88845,-0.543864 -1.1963458,-0.173777 -2.3837288,-0.707044 -3.28228,-1.573407 1.0848834,0.825339 2.4525789,0.870494 3.510512,0.647482 C 7.4729741,51.240296 6.6082621,49.96618 5.4335524,49.389876 4.0883828,48.955869 2.9314403,49.881169 1.127177,49.921054 c 0.00712,0.329403 0.048759,0.654391 0.1221511,0.969131 z M 0.23074301,44.078275 c 0.15652068,1.358588 0.90626279,2.562571 2.01987409,3.208977 1.2313309,0.71042 2.6698774,0.615462 3.8162735,-0.09149 -1.1359218,-0.301415 -2.2230167,-0.948776 -2.994113,-1.883869 0.9555225,0.91632 2.2710869,1.112722 3.3176912,1.015116 C 6.2010379,45.102925 5.5071173,43.77673 4.4364082,43.090876 3.1856058,42.523769 1.9661551,43.289583 0.2199198,43.129908 0.19033015,43.448389 0.1946611,43.766696 0.23057621,44.07831 Z M 0.00122224,37.355789 c 0.00194326,1.32764 0.59265753,2.571233 1.59529906,3.316944 1.1089949,0.820431 2.5071015,0.887357 3.6908663,0.331847 C 4.2250803,40.588473 3.2476973,39.844763 2.607014,38.858162 3.4277489,39.846833 4.6749395,40.180923 5.6951852,40.202087 5.647322,39.000113 5.1238301,37.644402 4.1663974,36.865147 3.0221635,36.180649 1.7620485,36.786278 0.09524338,36.440462 0.03182829,36.744444 7.999286e-4,37.051374 0.00124743,37.355844 Z m 0.52235305,-6.552285 c -0.14355653,1.281734 0.28941233,2.546578 1.17369991,3.376283 0.9786027,0.913553 2.3180442,1.132648 3.5200835,0.727637 C 4.2394743,34.38899 3.3796885,33.563445 2.8704802,32.54089 3.5529067,33.585256 4.7181791,34.045549 5.6991166,34.178496 5.7855351,33.014254 5.4302822,31.648248 4.5929331,30.790333 3.5650262,30.003148 2.2833845,30.448227 0.71389373,29.930081 0.6194511,30.216599 0.556527,30.509393 0.52359443,30.803344 Z M 1.7783602,24.436569 c -0.2983776,1.240914 -0.024821,2.526006 0.73625,3.434694 0.8423026,1.000389 2.1115156,1.360257 3.3147769,1.10431 C 4.9444883,28.363895 4.206313,27.465389 3.8348639,26.409856 4.3708061,27.506102 5.4460571,28.084727 6.376331,28.324942 6.5920333,27.209916 6.4107874,25.843977 5.7093136,24.910313 4.8144297,24.021433 3.5217315,24.300103 2.0728642,23.602731 1.9449012,23.87241 1.8467493,24.15227 1.7783989,24.436559 h 9e-7 z m 2.0942533,-6.076921 c -0.4629474,1.163054 -0.379597,2.443414 0.2291528,3.419833 0.674557,1.075774 1.8511915,1.581059 3.0423421,1.486237 -0.7724349,-0.702045 -1.3623135,-1.66236 -1.5743732,-2.729957 0.3642955,1.128056 1.3219745,1.822456 2.184563,2.172636 C 8.1061278,21.66411 8.1147868,20.327354 7.5730742,19.337114 6.8392376,18.362842 5.5622504,18.458509 4.2738977,17.591305 4.1125913,17.83534 3.9786938,18.093265 3.872692,18.359555 Z m 2.9247483,-5.631074 c -0.6209005,1.059776 -0.7328856,2.309694 -0.2945762,3.335407 0.4867378,1.131068 1.5400698,1.775715 2.6903459,1.850968 -0.6375905,-0.78025 -1.0608258,-1.784865 -1.1040563,-2.843243 0.1795687,1.137902 0.9938305,1.938748 1.7663127,2.395584 0.4848841,-0.947537 0.6920481,-2.2268 0.3261951,-3.256812 -0.5520868,-1.044298 -1.7854169,-1.140467 -2.8822143,-2.16791 -0.1919116,0.212885 -0.360014,0.443419 -0.5021075,0.68594 z M 10.554015,7.6560216 c -0.48535,0.5717517 -0.7978688,1.2542452 -0.9044869,1.9459106 -0.062709,0.4258108 -0.047155,0.8512228 0.050241,1.2562058 0.2840684,1.168188 1.1889799,1.94578 2.2744449,2.196279 -0.369837,-0.645487 -0.600363,-1.39868 -0.62999,-2.181385 -0.008,-0.243394 0.0036,-0.488471 0.03659,-0.732089 -0.0059,0.296896 0.03487,0.578695 0.110093,0.842104 0.214009,0.737296 0.69539,1.33222 1.186683,1.745758 0.133413,-0.180491 0.255908,-0.376225 0.364534,-0.582219 0.396835,-0.75126 0.630112,-1.667821 0.498005,-2.4985388 C 13.196537,8.5492293 12.029369,8.2490847 11.164166,7.0709663 10.939485,7.2458579 10.73516,7.4425538 10.55401,7.6559611 Z m 4.621246,-4.2262852 c -0.935178,0.7344598 -1.473542,1.818552 -1.435375,2.8790125 0.04515,1.170606 0.770663,2.0744318 1.76096,2.5085183 C 15.19423,7.9207427 15.157157,6.8902505 15.487418,5.935124 15.250326,7.0050178 15.703743,7.9804359 16.23255,8.6340453 16.972058,7.9556799 17.592682,6.8972311 17.633454,5.8717314 17.515766,4.7681842 16.46458,4.2666588 15.869077,2.9913244 c -0.2476,0.1232845 -0.48018,0.2705904 -0.693826,0.4383734 l -2e-6,5e-7 z m 5.270932,-3.14581467 c -1.03656,0.51605636 -1.763168,1.43737247 -1.935267,2.44489947 -0.187188,1.1128723 0.326003,2.1016451 1.177781,2.6983236 -0.117045,-0.903517 0.0486,-1.8814971 0.550516,-2.7194579 -0.436375,0.963672 -0.196572,1.9692863 0.176104,2.6856433 C 21.242867,4.895565 22.036102,4.0180062 22.28007,3.0603993 22.390268,1.9974236 21.498065,1.320814 21.193937,0.00125969 20.933738,0.07045176 20.682977,0.1660199 20.446251,0.2839062 l 1e-6,-2.6e-7 z M 21.890462,5.0482803 C 18.630576,6.9353445 15.829438,9.5789794 13.671798,12.618911 10.00877,17.780464 8.0431983,23.952419 7.3335158,30.15911 5.7517683,44.034338 10.073648,58.39308 18.771066,68.918729 h 2e-6 c 1.141037,1.375763 2.362232,2.686566 3.65683,3.906266 1.538196,2.368606 3.352222,4.613609 5.486045,6.625086 -4.025771,-2.468067 -7.540903,-5.780987 -10.462767,-9.499787 l -2e-6,-9e-6 C 8.72263,58.849077 4.7133287,44.086679 6.6442123,30.061995 l 2.9e-6,-1e-6 C 7.505677,23.781918 9.6555741,17.582315 13.465934,12.463692 15.712135,9.4467224 18.590018,6.8596109 21.890695,5.0478968 Z m -0.667486,1.0652698 c 0.473917,0.6623847 1.231497,1.323054 2.113067,1.5534391 -0.797976,-0.1064161 -1.679598,-0.4480385 -2.425344,-0.9299695 0.222962,1.0108412 0.981049,1.829845 1.881312,2.2483011 1.009392,0.4662504 2.036316,0.3791149 2.756282,-0.2134592 C 24.83829,7.6386036 24.806061,6.5576067 23.98258,5.9363673 23.143415,5.4692498 22.035047,5.6019057 21.222924,6.1136674 Z m -4.296572,3.5092173 c 0.61989,0.5554706 1.523881,1.0484206 2.457483,1.0769606 -0.823116,0.07625 -1.778449,-0.06971 -2.628784,-0.38753 0.446351,0.957506 1.375125,1.610372 2.37671,1.828373 1.117753,0.240563 2.121335,-0.07247 2.720888,-0.859039 C 20.879695,10.321445 20.596263,9.2513348 19.632439,8.8238206 18.689727,8.5537994 17.618491,8.9354193 16.926417,9.6228157 Z m -3.493373,4.3670696 c 0.729447,0.425237 1.727313,0.730432 2.66891,0.560851 -0.810597,0.250742 -1.788923,0.302297 -2.698374,0.157184 0.637058,0.861175 1.69266,1.325169 2.733026,1.332555 0.589358,0.0028 1.131672,-0.139842 1.574708,-0.391608 0.42771,-0.239728 0.766713,-0.587655 0.983092,-1.035903 -1.177265,-0.749236 -1.687279,-1.753664 -2.738852,-1.975974 -0.573777,-0.04047 -1.146628,0.14121 -1.636232,0.467621 -0.354861,0.236815 -0.660073,0.544671 -0.886181,0.885248 z m -2.63267,4.972019 c 0.80569,0.298796 1.859983,0.430411 2.769481,0.08578 -0.764727,0.40273 -1.733985,0.627491 -2.672962,0.638779 0.789245,0.754429 1.928754,1.042532 2.97348,0.86064 1.167622,-0.206199 2.03362,-0.950405 2.3048,-1.951735 -1.315724,-0.516913 -2.011446,-1.424549 -3.100893,-1.445494 -1.004582,0.120366 -1.874188,0.898627 -2.273989,1.812102 z m -1.818009,5.400886 c 0.8590527,0.177491 1.944754,0.147903 2.809612,-0.349415 -0.710253,0.533507 -1.654252,0.91115 -2.6014517,1.065233 0.9112207,0.641408 2.1043857,0.763362 3.1345567,0.412788 1.15115,-0.394792 1.914145,-1.301249 2.024702,-2.375791 C 12.938804,22.815411 12.08906,22.012581 10.98784,22.171409 9.9964093,22.4587 9.2443765,23.381724 8.982352,24.362742 Z m -1.0529986,5.669957 c 0.8875246,0.06236 1.9781163,-0.113572 2.7851076,-0.737985 -0.450517,0.446167 -1.0217992,0.825761 -1.6390985,1.110275 -0.2720969,0.126018 -0.5545124,0.233888 -0.8408346,0.320339 0.9903674,0.518308 2.1910241,0.493233 3.1765151,0.0084 0.01094,-0.005 0.02161,-0.01097 0.03254,-0.01597 1.110972,-0.557104 1.770472,-1.589393 1.73665,-2.705887 -1.469038,-0.09611 -2.439974,-0.785976 -3.5295428,-0.466593 -0.9603875,0.433281 -1.5892208,1.468358 -1.7212515,2.487873 z M 7.5864086,35.83965 c 0.9034613,-0.04249 1.9824834,-0.349575 2.7173904,-1.081122 -0.5719206,0.728117 -1.4179375,1.348761 -2.3267,1.742886 1.0734835,0.409675 2.298007,0.234507 3.239274,-0.387973 1.049926,-0.697996 1.583234,-1.831483 1.408311,-2.968042 -1.49011,0.09145 -2.553648,-0.483445 -3.6098643,-0.02414 -0.910971,0.557432 -1.4178965,1.675785 -1.4283981,2.718434 z m 0.3329369,5.86355 c 0.9081528,-0.147886 1.9632875,-0.583105 2.6204055,-1.406757 -0.492901,0.801246 -1.2757493,1.525886 -2.1485958,2.028937 1.1325424,0.288416 2.3504148,-0.03046 3.2294068,-0.767897 0.980108,-0.826422 1.386113,-2.032411 1.074948,-3.159692 -1.494469,0.266828 -2.636619,-0.188811 -3.6499117,0.39785 -0.8548078,0.668511 -1.2367566,1.855321 -1.1262218,2.907675 z m 1.0054904,5.844015 c 0.9005989,-0.253738 1.9171051,-0.814187 2.4870591,-1.720114 -0.406448,0.864445 -1.115182,1.685053 -1.9395273,2.292613 1.1771543,0.160107 2.3710663,-0.301509 3.1750043,-1.14596 0.896146,-0.94581 1.168671,-2.208329 0.724699,-3.309652 -1.47968,0.44141 -2.685901,0.11332 -3.6426809,0.82164 -0.7871534,0.772557 -1.0366908,2.013532 -0.8046534,3.061489 z m 1.6720521,5.74316 c 0.879879,-0.359738 1.84214,-1.041418 2.314659,-2.018875 -0.31224,0.916745 -0.93425,1.824786 -1.696617,2.531898 1.205529,0.02452 2.355332,-0.575825 3.073579,-1.521777 0.797013,-1.054983 0.930098,-2.355704 0.357598,-3.413167 -1.444261,0.614553 -2.699558,0.423226 -3.585128,1.246617 -0.707169,0.868681 -0.817903,2.146953 -0.463989,3.175297 z m 2.332735,5.556606 c 0.844994,-0.465586 1.735925,-1.264718 2.100465,-2.301675 -0.209964,0.957047 -0.732287,1.942941 -1.418267,2.74388 1.217525,-0.118485 2.305651,-0.858603 2.9209,-1.892991 0.681987,-1.152909 0.669505,-2.472436 -0.02662,-3.46675 -1.386691,0.785747 -2.674175,0.739733 -3.473226,1.670811 -0.614079,0.955993 -0.578933,2.254467 -0.10319,3.246751 z m 2.985524,5.278164 c 0.794936,-0.571033 1.596257,-1.482666 1.841706,-2.566115 -0.09929,0.984342 -0.508136,2.037654 -1.102386,2.925928 1.210898,-0.269175 2.216546,-1.147103 2.713655,-2.258819 0.550131,-1.238386 0.385092,-2.555972 -0.42876,-3.466564 -1.305208,0.95423 -2.606556,1.063185 -3.302556,2.09371 -0.507032,1.033458 -0.318878,2.333452 0.278457,3.271829 z m 3.628819,4.900187 c 0.468464,-0.435094 0.922579,-1.011759 1.217109,-1.662049 0.1634,-0.361832 0.27792,-0.747173 0.318924,-1.145997 0.0062,0.309202 -0.01632,0.627083 -0.06437,0.947095 -0.107319,0.713315 -0.345221,1.450997 -0.682176,2.123008 1.184678,-0.432329 2.084824,-1.450531 2.447892,-2.620873 0.105342,-0.342548 0.159904,-0.68355 0.166826,-1.012523 0.02041,-0.933919 -0.329829,-1.789207 -1.016577,-2.38683 -1.198313,1.119412 -2.493562,1.392926 -3.0691,2.5137 -0.320704,0.915989 -0.133991,1.95935 0.357737,2.786883 0.09715,0.16271 0.205757,0.316151 0.323838,0.45763 z"
         fill="url(#linearGradient14622)"
         fill-rule="evenodd"
         style="fill:url(#linearGradient3318);fill-opacity:1;stroke:#29230b;stroke-width:1;stroke-opacity:0.334059;paint-order:normal"
         id="path117" />
      <path
         d="m 148.69511,70.911364 c -0.86162,1.285394 -2.23738,2.108985 -3.67728,2.178686 -0.12292,0.0057 -0.24462,0.0057 -0.36493,4.66e-4 -1.43497,-0.05534 -2.64386,-0.872532 -3.34203,-2.067635 0.28578,0.06581 0.57858,0.112791 0.87538,0.139727 1.02534,0.09505 2.09104,-0.04784 3.05659,-0.463387 -1.421,0.424161 -2.81893,-0.06347 -3.79794,-0.701161 0.81966,-1.105421 2.18539,-2.063698 3.59389,-2.203205 1.52815,0.06961 2.34412,1.449866 4.15822,2.170486 -0.1351,0.334686 -0.30438,0.651531 -0.5018,0.946059 z m 3.59968,-6.493806 c -0.67285,1.338668 -1.89721,2.295689 -3.27787,2.539144 -1.52543,0.264884 -2.94725,-0.380076 -3.84277,-1.532231 1.26832,0.123245 2.61898,-0.127658 3.75831,-0.797245 -1.3198,0.581215 -2.73181,0.285235 -3.75831,-0.208062 0.65352,-1.171576 1.85543,-2.264954 3.2017,-2.569388 1.48666,-0.116701 2.44467,1.117868 4.28679,1.597932 -0.0894,0.338153 -0.21349,0.663109 -0.36773,0.969976 z m 2.70503,-6.710024 c -0.49221,1.366776 -1.56037,2.430358 -2.86536,2.826809 -1.44209,0.434101 -2.89593,-0.01756 -3.90074,-1.024183 1.24131,-0.03248 2.51771,-0.434369 3.53963,-1.212904 -1.20698,0.71435 -2.6079,0.595932 -3.65997,0.24094 0.49275,-1.211552 1.52696,-2.409187 2.79445,-2.858858 1.4247,-0.284194 2.49579,0.798425 4.3333,1.05153 -0.0468,0.33616 -0.12854,0.663346 -0.24139,0.976706 z m 1.84411,-6.811922 c -0.32005,1.372534 -1.22977,2.517702 -2.44489,3.047975 -1.34313,0.582128 -2.80087,0.313875 -3.88843,-0.543862 1.19634,-0.173776 2.38372,-0.70704 3.28227,-1.573399 -1.08488,0.825335 -2.45257,0.870489 -3.5105,0.647478 0.33787,-1.228099 1.20258,-2.502211 2.37728,-3.078512 1.34517,-0.434004 2.5021,0.491292 4.30636,0.531177 -0.007,0.329402 -0.0488,0.654388 -0.12215,0.969127 z m 1.01852,-6.811897 c -0.15652,1.358582 -0.90626,2.56256 -2.01987,3.208963 -1.23132,0.710417 -2.66986,0.615459 -3.81625,-0.09149 1.13591,-0.301414 2.223,-0.948772 2.9941,-1.883861 -0.95552,0.916316 -2.27108,1.112717 -3.31768,1.015111 0.18943,-1.224081 0.88335,-2.550271 1.95405,-3.236122 1.2508,-0.567103 2.47025,0.198707 4.21647,0.03903 0.0296,0.31848 0.0253,0.636785 -0.0106,0.948398 z m 0.22952,-6.722457 c -0.002,1.327635 -0.59265,2.571221 -1.59529,3.316929 -1.10899,0.820428 -2.50709,0.887353 -3.69085,0.331845 1.0623,-0.416104 2.03968,-1.159811 2.68036,-2.146408 -0.82073,0.988667 -2.06792,1.322755 -3.08816,1.343918 0.0479,-1.201968 0.57135,-2.557673 1.52878,-3.336925 1.14423,-0.684495 2.40434,-0.07887 4.07114,-0.424683 0.0634,0.303981 0.0944,0.61091 0.094,0.915379 z m -0.52235,-6.552257 c 0.14356,1.281729 -0.28941,2.546567 -1.17369,3.376269 -0.9786,0.913548 -2.31804,1.132642 -3.52007,0.727632 0.97788,-0.518431 1.83766,-1.343972 2.34687,-2.366523 -0.68243,1.044362 -1.8477,1.504652 -2.82863,1.637598 -0.0864,-1.164237 0.26883,-2.530236 1.10618,-3.388148 1.0279,-0.787182 2.30954,-0.342104 3.87902,-0.860247 0.0944,0.286516 0.15737,0.579309 0.1903,0.873258 z m -1.25478,-6.366908 c 0.29838,1.240908 0.0248,2.525995 -0.73624,3.434679 -0.8423,1.000384 -2.11151,1.360251 -3.31477,1.104305 0.8849,-0.611675 1.62307,-1.510178 1.99452,-2.565706 -0.53594,1.096242 -1.61119,1.674864 -2.54146,1.915077 -0.2157,-1.115021 -0.0345,-2.480954 0.66702,-3.414614 0.89488,-0.888876 2.18757,-0.610207 3.63643,-1.307576 0.12796,0.269678 0.22611,0.549537 0.29446,0.833825 v -1e-6 z m -2.09424,-6.076895 c 0.46294,1.163049 0.37959,2.443403 -0.22915,3.419818 -0.67456,1.075769 -1.85119,1.581052 -3.04233,1.48623 0.77243,-0.702042 1.36231,-1.662353 1.57436,-2.729945 -0.36429,1.128051 -1.32196,1.822448 -2.18455,2.172626 -0.35183,-1.044283 -0.36049,-2.381032 0.18122,-3.371269 0.73384,-0.974267 2.01082,-0.8786 3.29917,-1.7458 0.1613,0.244034 0.2952,0.501958 0.4012,0.768246 z m -2.92474,-5.631051 c 0.6209,1.059771 0.73289,2.309685 0.29458,3.335392 -0.48674,1.131064 -1.54006,1.775708 -2.69034,1.850961 0.63759,-0.780247 1.06083,-1.784857 1.10406,-2.843232 -0.17957,1.137898 -0.99383,1.93874 -1.76631,2.395574 -0.48488,-0.947533 -0.69204,-2.22679 -0.32619,-3.256798 0.55208,-1.044293 1.78541,-1.140462 2.8822,-2.1679 0.19191,0.212884 0.36001,0.443417 0.5021,0.685937 z m -3.75663,-5.0725311 c 0.48535,0.5717492 0.79786,1.2542399 0.90448,1.9459024 0.0627,0.4258097 0.0472,0.8512187 -0.0502,1.2562007 -0.28407,1.168183 -1.18898,1.945771 -2.27444,2.196269 0.36984,-0.645484 0.60036,-1.398674 0.62999,-2.181376 0.008,-0.243393 -0.004,-0.488469 -0.0366,-0.732085 0.006,0.296894 -0.0349,0.578692 -0.11009,0.8421 -0.21401,0.737293 -0.69539,1.332214 -1.18668,1.74575 -0.13341,-0.18049 -0.2559,-0.376223 -0.36453,-0.582217 -0.39683,-0.751256 -0.63011,-1.667813 -0.498,-2.4985276 0.34359,-1.0988131 1.51075,-1.3989563 2.37595,-2.5770695 0.22468,0.1748909 0.429,0.371586 0.61015,0.5849924 z M 142.918,3.435348 c 0.93518,0.7344568 1.47354,1.8185445 1.43537,2.8790004 -0.0452,1.170601 -0.77066,2.0744228 -1.76095,2.5085073 0.30661,-0.8965206 0.34369,-1.9270084 0.0134,-2.8821309 0.23709,1.0698893 -0.21633,2.0453031 -0.74513,2.6989096 -0.73951,-0.6783626 -1.36013,-1.7368069 -1.4009,-2.7623022 0.11769,-1.1035425 1.16887,-1.6050656 1.76437,-2.8803944 0.2476,0.123284 0.48018,0.2705893 0.69382,0.4383716 v 5e-7 z m -5.27091,-3.14580205 c 1.03656,0.51605431 1.76316,1.43736655 1.93526,2.44488935 0.18719,1.1128675 -0.326,2.101636 -1.17777,2.6983118 0.11704,-0.9035131 -0.0486,-1.881489 -0.55052,-2.7194464 0.43638,0.963668 0.19657,1.969278 -0.1761,2.6856319 -0.82754,-0.4977633 -1.62077,-1.3753184 -1.86474,-2.3329213 -0.11019,-1.0629711 0.78201,-1.7395777 1.08613,-3.0591263 0.2602,0.06919181 0.51096,0.16475959 0.74769,0.28264542 l -1e-5,-2.6e-7 z m -1.44426,4.76433795 c 3.25987,1.8870567 6.061,4.5306807 8.21863,7.5705991 3.66301,5.161532 5.62857,11.333461 6.33825,17.540126 1.58174,13.875169 -2.74013,28.233848 -11.43751,38.759451 v 0 c -1.14103,1.375757 -2.36222,2.686554 -3.65681,3.906249 -1.53819,2.368595 -3.35221,4.613589 -5.48603,6.625056 4.02576,-2.468055 7.54087,-5.78096 10.46273,-9.499744 v -10e-6 c 8.72851,-11.101158 12.73779,-25.863493 10.80692,-39.888117 v -1e-6 c -0.86146,-6.280049 -3.01135,-12.479626 -6.82169,-17.598227 -2.24619,-3.0169578 -5.12406,-5.6040587 -8.42472,-7.4157656 z m 0.66748,1.0652654 c -0.47391,0.6623818 -1.23149,1.3230481 -2.11306,1.5534321 0.79798,-0.1064155 1.6796,-0.4480363 2.42534,-0.9299652 -0.22296,1.0108369 -0.98105,1.8298371 -1.88131,2.2482912 -1.00938,0.4662482 -2.0363,0.3791129 -2.75627,-0.2134587 0.71,-1.1332531 0.74223,-2.2142454 1.56571,-2.8354819 0.83916,-0.4671154 1.94753,-0.3344599 2.75964,0.1772998 z m 4.29656,3.5092029 c -0.61989,0.5554688 -1.52388,1.0484158 -2.45748,1.0769558 0.82312,0.07625 1.77844,-0.06971 2.62878,-0.387528 -0.44635,0.957502 -1.37512,1.610364 -2.3767,1.828364 -1.11775,0.240563 -2.12133,-0.07247 -2.72088,-0.859035 0.973,-0.960083 1.25643,-2.0301884 2.22025,-2.4577006 0.94271,-0.2700199 2.01394,0.1115985 2.70601,0.7989921 z m 3.49335,4.3670508 c -0.72944,0.425236 -1.7273,0.730429 -2.6689,0.560849 0.8106,0.250741 1.78892,0.302296 2.69837,0.157183 -0.63706,0.861172 -1.69266,1.325163 -2.73302,1.33255 -0.58935,0.0028 -1.13166,-0.139842 -1.5747,-0.391607 -0.42771,-0.239727 -0.76671,-0.587652 -0.98309,-1.035899 1.17726,-0.749232 1.68728,-1.753656 2.73884,-1.975965 0.57378,-0.04047 1.14663,0.141209 1.63623,0.46762 0.35486,0.236813 0.66007,0.544668 0.88618,0.885243 z m 2.63266,4.971999 c -0.80569,0.298794 -1.85997,0.430409 -2.76947,0.08578 0.76473,0.402728 1.73398,0.627488 2.67295,0.638777 -0.78924,0.754425 -1.92874,1.042527 -2.97346,0.860635 -1.16762,-0.206197 -2.03362,-0.950401 -2.30479,-1.951727 1.31571,-0.51691 2.01143,-1.424542 3.10088,-1.445487 1.00457,0.120365 1.87418,0.898624 2.27397,1.812095 z m 1.818,5.400863 c -0.85905,0.17749 -1.94474,0.147903 -2.8096,-0.349414 0.71025,0.533505 1.65425,0.911147 2.60144,1.065229 -0.91121,0.641405 -2.10437,0.763358 -3.13454,0.412786 -1.15115,-0.39479 -1.91414,-1.301244 -2.02469,-2.375782 1.41096,-0.300144 2.2607,-1.10297 3.36191,-0.944143 0.99143,0.28729 1.74346,1.21031 2.00548,2.191324 z m 1.05299,5.669933 c -0.88752,0.06236 -1.9781,-0.113572 -2.78509,-0.737982 0.45051,0.446165 1.02179,0.825757 1.63909,1.11027 0.2721,0.126017 0.55451,0.233887 0.84083,0.320338 -0.99036,0.518306 -2.19101,0.49323 -3.1765,0.0084 -0.0109,-0.005 -0.0216,-0.01097 -0.0325,-0.01597 -1.11096,-0.557102 -1.77046,-1.589387 -1.73664,-2.705877 1.46903,-0.09611 2.43996,-0.785972 3.52953,-0.466589 0.96038,0.433279 1.58921,1.468351 1.72124,2.487862 z m 0.34295,5.806926 c -0.90346,-0.04249 -1.98248,-0.349573 -2.71738,-1.081117 0.57192,0.728113 1.41793,1.348755 2.32669,1.742879 -1.07348,0.409672 -2.298,0.234505 -3.23926,-0.387973 -1.04992,-0.697993 -1.58323,-1.831475 -1.40831,-2.968029 1.49011,0.09145 2.55364,-0.483443 3.60985,-0.02413 0.91097,0.557429 1.41789,1.675777 1.42839,2.718423 z m -0.33294,5.863525 c -0.90815,-0.147886 -1.96328,-0.583103 -2.62039,-1.406752 0.4929,0.801243 1.27574,1.52588 2.14858,2.028929 -1.13253,0.288415 -2.3504,-0.03046 -3.22939,-0.767894 -0.9801,-0.826419 -1.38611,-2.032403 -1.07494,-3.159679 1.49446,0.266827 2.6366,-0.188809 3.64989,0.397849 0.85481,0.668509 1.23675,1.855313 1.12622,2.907663 z m -1.00549,5.84399 c -0.90059,-0.253737 -1.91709,-0.814184 -2.48704,-1.720107 0.40644,0.864441 1.11517,1.685046 1.93951,2.292603 -1.17714,0.160107 -2.37105,-0.301508 -3.17499,-1.145955 -0.89614,-0.945807 -1.16866,-2.20832 -0.72469,-3.309639 1.47967,0.441409 2.68589,0.113321 3.64266,0.821638 0.78715,0.772554 1.03669,2.013523 0.80465,3.061476 z m -1.67204,5.743135 c -0.87988,-0.359736 -1.84213,-1.041414 -2.31465,-2.018867 0.31224,0.916741 0.93424,1.824779 1.69661,2.531887 -1.20553,0.02452 -2.35532,-0.575822 -3.07357,-1.52177 -0.79701,-1.054979 -0.93009,-2.355694 -0.35759,-3.413153 1.44425,0.614551 2.69954,0.423225 3.58511,1.246613 0.70717,0.868677 0.8179,2.146943 0.46399,3.175283 z m -2.33273,5.556582 c -0.84499,-0.465584 -1.73592,-1.264713 -2.10045,-2.301665 0.20996,0.957043 0.73228,1.942933 1.41826,2.743868 -1.21752,-0.118485 -2.30564,-0.8586 -2.92089,-1.892983 -0.68198,-1.152905 -0.6695,-2.472426 0.0266,-3.466736 1.38669,0.785744 2.67417,0.739731 3.47322,1.670805 0.61407,0.955989 0.57893,2.254457 0.10318,3.246737 z m -2.98551,5.278141 c -0.79493,-0.571031 -1.59625,-1.48266 -1.8417,-2.566104 0.0993,0.984338 0.50814,2.037645 1.10238,2.925915 -1.21089,-0.269174 -2.21653,-1.147098 -2.71364,-2.25881 -0.55013,-1.23838 -0.38509,-2.55596 0.42876,-3.466548 1.3052,0.954225 2.60654,1.06318 3.30254,2.093701 0.50703,1.033453 0.31888,2.333442 -0.27846,3.271815 z m -3.6288,4.900165 c -0.46847,-0.435092 -0.92258,-1.011754 -1.21711,-1.662042 -0.1634,-0.36183 -0.27792,-0.74717 -0.31892,-1.145992 -0.006,0.309201 0.0163,0.62708 0.0644,0.947091 0.10732,0.713312 0.34522,1.450991 0.68217,2.122999 -1.18467,-0.432327 -2.08482,-1.450526 -2.44788,-2.620862 -0.10534,-0.342547 -0.1599,-0.683548 -0.16683,-1.012518 -0.0204,-0.933915 0.32983,-1.7892 1.01658,-2.386821 1.1983,1.119408 2.49355,1.392921 3.06908,2.51369 0.32071,0.915985 0.13399,1.959342 -0.35773,2.786872 -0.0971,0.162709 -0.20576,0.316148 -0.32384,0.457628 z"
         fill="url(#linearGradient14624)"
         fill-rule="evenodd"
         style="fill:url(#linearGradient3320);fill-opacity:1;stroke:#29230b;stroke-opacity:0.334059;paint-order:normal"
         id="path119" />
    </g>
    <g
       id="g3606"
       transform="translate(-0.0168474,9.4589766)">
      <g
         id="g3575">
        <g
           fill="url(#linearGradient14724)"
           stroke-width="0.26458"
           style="font-variant-ligatures:normal;font-variant-caps:normal;font-variant-numeric:normal;font-feature-settings:normal;fill:url(#linearGradient3314);fill-opacity:1;stroke:#29230b;stroke-opacity:0.334059"
           aria-label="Personal Selection"
           id="g111"
           transform="translate(-19.983,-36.306)">
          <path
             d="m 53.462,56.587 h 0.64078 V 55.94622 H 53.462 Z m 0.85437,-1.7087 h 0.64078 v -0.64078 h -0.64078 z m 1.7087,0 h 0.64078 V 54.23752 H 56.02507 Z M 55.1707,53.1696 h 0.64078 V 52.52882 H 55.1707 Z m -1.7087,0.85437 h 0.64078 V 53.38319 H 53.462 Z m 0,0.85437 h 0.64078 V 54.23756 H 53.462 Z m 0.85437,-1.7087 h 0.64078 v -0.64078 h -0.64078 z m 0.85437,1.7087 h 0.64078 v -0.64078 h -0.64078 z m -1.7087,0.85437 h 0.64078 v -0.64078 h -0.64078 z m 3.4175,-1.7087 h 0.64078 v -0.64078 h -0.64078 z m -0.85437,-0.85437 h 0.64078 v -0.64078 h -0.64078 z m -2.5631,0 h 0.64078 v -0.64078 h -0.64078 z"
             style="font-variant-ligatures:normal;font-variant-caps:normal;font-variant-numeric:normal;font-feature-settings:normal;fill:url(#linearGradient3280);fill-opacity:1;stroke:#29230b;stroke-opacity:0.334059"
             id="path77" />
          <path
             d="m 59.439,56.587 h 0.64078 V 55.94622 H 59.439 Z m 1.7087,0 h 0.64078 V 55.94622 H 61.1477 Z m -2.5631,-2.5631 h 0.64078 V 53.38312 H 58.5846 Z m 2.5631,0.85437 h 0.64078 V 54.23749 H 61.1477 Z m 0.85437,0 h 0.64078 v -0.64078 h -0.64078 z m 0,1.7087 h 0.64078 v -0.64078 h -0.64078 z m -3.4175,-1.7087 h 0.64078 v -0.64078 h -0.64078 z m 0,0.85437 h 0.64078 v -0.64078 h -0.64078 z m 3.4175,-1.7087 h 0.64078 v -0.64078 h -0.64078 z m -2.5631,-0.85437 h 0.64078 v -0.64078 h -0.64078 z m 0.85437,1.7087 h 0.64078 v -0.64078 h -0.64078 z m 0,1.7087 h 0.64078 v -0.64078 h -0.64078 z m -0.85437,-1.7087 h 0.64078 v -0.64078 h -0.64078 z m 1.7087,-1.7087 h 0.64078 v -0.64078 h -0.64078 z m -0.85437,0 h 0.64078 V 52.52879 H 60.2933 Z"
             style="font-variant-ligatures:normal;font-variant-caps:normal;font-variant-numeric:normal;font-feature-settings:normal;fill:url(#linearGradient3282);fill-opacity:1;stroke:#29230b;stroke-opacity:0.334059"
             id="path79" />
          <path
             d="m 64.562,56.587 h 0.64078 V 55.94622 H 64.562 Z m -0.85437,-3.4175 h 0.64078 v -0.64078 h -0.64078 z m 0.85437,1.7087 h 0.64078 V 54.23742 H 64.562 Z m 0,-0.85437 h 0.64078 V 53.38305 H 64.562 Z m 1.7087,-0.85437 h 0.64078 V 52.52868 H 66.2707 Z m -2.5631,3.4175 h 0.64078 V 55.94618 H 63.7076 Z m 0.85437,-3.4175 h 0.64078 v -0.64078 h -0.64078 z m 0.85437,3.4175 h 0.64078 v -0.64078 h -0.64078 z m 0,-2.5631 h 0.64078 v -0.64078 h -0.64078 z m 1.7087,-0.85437 h 0.64078 v -0.64078 h -0.64078 z m -2.5631,2.5631 h 0.64078 v -0.64078 h -0.64078 z m 1.7087,0.85437 h 0.64078 v -0.64078 h -0.64078 z"
             style="font-variant-ligatures:normal;font-variant-caps:normal;font-variant-numeric:normal;font-feature-settings:normal;fill:url(#linearGradient3284);fill-opacity:1;stroke:#29230b;stroke-opacity:0.334059"
             id="path81" />
          <path
             d="m 68.831,56.587 h 0.64078 V 55.94622 H 68.831 Z m 2.5631,0 h 0.64078 V 55.94622 H 71.3941 Z m 0,-1.7087 h 0.64078 V 54.23752 H 71.3941 Z M 68.831,54.02393 h 0.64078 V 53.38315 H 68.831 Z m 0.85437,-0.85437 h 0.64078 v -0.64078 h -0.64078 z m 0.85437,0 h 0.64078 v -0.64078 h -0.64078 z m -0.85437,3.4175 h 0.64078 v -0.64078 h -0.64078 z m 0.85437,-1.7087 h 0.64078 v -0.64078 h -0.64078 z m 0,1.7087 h 0.64078 v -0.64078 h -0.64078 z m 0.85437,-3.4175 h 0.64078 v -0.64078 h -0.64078 z m 0.85437,2.5631 h 0.64078 v -0.64078 h -0.64078 z m 0,-2.5631 h 0.64078 v -0.64078 h -0.64078 z m -2.5631,1.7087 h 0.64078 v -0.64078 h -0.64078 z"
             style="font-variant-ligatures:normal;font-variant-caps:normal;font-variant-numeric:normal;font-feature-settings:normal;fill:url(#linearGradient3286);fill-opacity:1;stroke:#29230b;stroke-opacity:0.334059"
             id="path83" />
          <path
             d="m 74.808,56.587 h 0.64078 V 55.94622 H 74.808 Z m 0.85437,0 h 0.64078 v -0.64078 h -0.64078 z m 1.7087,-0.85437 h 0.64078 v -0.64078 h -0.64078 z m -3.4175,0 h 0.64078 v -0.64078 h -0.64078 z m 2.5631,0.85437 h 0.64078 v -0.64078 h -0.64078 z m 0,-3.4175 h 0.64078 v -0.64078 h -0.64078 z m -2.5631,0.85437 h 0.64078 v -0.64078 h -0.64078 z m 1.7087,-0.85437 h 0.64078 v -0.64078 h -0.64078 z m -1.7087,1.7087 h 0.64078 v -0.64078 h -0.64078 z m 3.4175,0 h 0.64078 v -0.64078 h -0.64078 z m -2.5631,-1.7087 h 0.64078 v -0.64078 h -0.64078 z m 2.5631,0.85437 h 0.64078 v -0.64078 h -0.64078 z"
             style="font-variant-ligatures:normal;font-variant-caps:normal;font-variant-numeric:normal;font-feature-settings:normal;fill:url(#linearGradient3288);fill-opacity:1;stroke:#29230b;stroke-opacity:0.334059"
             id="path85" />
          <path
             d="m 79.076,56.587 h 0.64078 V 55.94622 H 79.076 Z m 3.4175,-1.7087 h 0.64078 V 54.23752 H 82.4935 Z m 0,0.85437 h 0.64078 V 55.09189 H 82.4935 Z m -3.4175,-1.7087 h 0.64078 V 53.38319 H 79.076 Z m 2.5631,-0.85437 h 0.64078 V 52.52882 H 81.6391 Z m -2.5631,2.5631 h 0.64078 V 55.09192 H 79.076 Z m 1.7087,-2.5631 h 0.64078 V 52.52882 H 80.7847 Z m -1.7087,1.7087 h 0.64078 V 54.23752 H 79.076 Z m 0,-1.7087 h 0.64078 V 52.52882 H 79.076 Z m 0.85437,0.85437 h 0.64078 v -0.64078 h -0.64078 z m 2.5631,2.5631 h 0.64078 v -0.64078 h -0.64078 z m 0,-2.5631 h 0.64078 v -0.64078 h -0.64078 z"
             style="font-variant-ligatures:normal;font-variant-caps:normal;font-variant-numeric:normal;font-feature-settings:normal;fill:url(#linearGradient3290);fill-opacity:1;stroke:#29230b;stroke-opacity:0.334059"
             id="path87" />
          <path
             d="m 85.054,56.587 h 0.64078 V 55.94622 H 85.054 Z m 2.5631,-2.5631 h 0.64078 V 53.38312 H 87.6171 Z m -2.5631,0.85437 h 0.64078 V 54.23749 H 85.054 Z m -0.85437,0.85437 h 0.64078 v -0.64078 h -0.64078 z m 3.4175,0 h 0.64078 v -0.64078 h -0.64078 z m 0,-0.85437 h 0.64078 v -0.64078 h -0.64078 z m -1.7087,1.7087 h 0.64078 v -0.64078 h -0.64078 z m 0,-3.4175 h 0.64078 v -0.64078 h -0.64078 z m 0.85437,1.7087 h 0.64078 V 54.23739 H 86.7628 Z m -1.7087,-1.7087 h 0.64078 V 52.52869 H 85.0541 Z m 1.7087,3.4175 h 0.64078 V 55.94619 H 86.7628 Z m -0.85437,-1.7087 h 0.64078 v -0.64078 h -0.64078 z m 0.85437,-1.7087 h 0.64078 V 52.52879 H 86.7628 Z m 0.85437,3.4175 h 0.64078 v -0.64078 h -0.64078 z"
             style="font-variant-ligatures:normal;font-variant-caps:normal;font-variant-numeric:normal;font-feature-settings:normal;fill:url(#linearGradient3292);fill-opacity:1;stroke:#29230b;stroke-opacity:0.334059"
             id="path89" />
          <path
             d="m 89.322,56.587 h 0.64078 V 55.94622 H 89.322 Z m 0,-2.5631 h 0.64078 V 53.38312 H 89.322 Z m 3.4175,2.5631 h 0.64078 V 55.94622 H 92.7395 Z M 89.322,54.8783 h 0.64078 V 54.23752 H 89.322 Z m 1.7087,1.7087 h 0.64078 V 55.94622 H 91.0307 Z M 89.322,55.73263 h 0.64078 V 55.09185 H 89.322 Z m 0.85437,0.85437 h 0.64078 V 55.94622 H 90.17637 Z M 89.322,53.1695 h 0.64078 V 52.52872 H 89.322 Z m 2.5631,3.4175 h 0.64078 V 55.94622 H 91.8851 Z"
             style="font-variant-ligatures:normal;font-variant-caps:normal;font-variant-numeric:normal;font-feature-settings:normal;fill:url(#linearGradient3294);fill-opacity:1;stroke:#29230b;stroke-opacity:0.334059"
             id="path91" />
          <path
             d="m 99.568,56.587 h 0.64078 V 55.94622 H 99.568 Z m 2.5631,0 h 0.64077 v -0.64078 h -0.64077 z m 0,-1.7087 h 0.64077 V 54.23752 H 102.1311 Z M 99.568,54.02393 h 0.64078 V 53.38315 H 99.568 Z m 0.85437,-0.85437 h 0.64078 v -0.64078 h -0.64078 z m 0.85437,0 h 0.64077 v -0.64078 h -0.64077 z m -0.85437,3.4175 h 0.64078 v -0.64078 h -0.64078 z m 0.85437,-1.7087 h 0.64077 v -0.64078 h -0.64077 z m 0,1.7087 h 0.64077 v -0.64078 h -0.64077 z m 0.85437,-3.4175 h 0.64077 v -0.64078 h -0.64077 z m 0.85436,2.5631 h 0.64078 v -0.64078 h -0.64078 z m 0,-2.5631 h 0.64078 v -0.64078 h -0.64078 z m -2.5631,1.7087 h 0.64078 v -0.64078 h -0.64078 z"
             style="font-variant-ligatures:normal;font-variant-caps:normal;font-variant-numeric:normal;font-feature-settings:normal;fill:url(#linearGradient3296);fill-opacity:1;stroke:#29230b;stroke-opacity:0.334059"
             id="path93" />
          <path
             d="m 105.54,56.587 h 0.64078 V 55.94622 H 105.54 Z m 1.7087,0 h 0.64077 v -0.64078 h -0.64077 z m -2.5631,-2.5631 h 0.64078 v -0.64078 h -0.64078 z m 2.5631,0.85437 h 0.64077 v -0.64078 h -0.64077 z m 0.85437,0 h 0.64077 v -0.64078 h -0.64077 z m 0,1.7087 h 0.64077 v -0.64078 h -0.64077 z m -3.4175,-1.7087 h 0.64078 v -0.64078 h -0.64078 z m 0,0.85437 h 0.64078 v -0.64078 h -0.64078 z m 3.4175,-1.7087 h 0.64077 v -0.64078 h -0.64077 z m -2.5631,-0.85437 h 0.64078 v -0.64078 h -0.64078 z m 0.85437,1.7087 h 0.64078 v -0.64078 h -0.64078 z m 0,1.7087 h 0.64078 v -0.64078 h -0.64078 z m -0.85437,-1.7087 h 0.64078 v -0.64078 h -0.64078 z m 1.7087,-1.7087 h 0.64077 v -0.64078 h -0.64077 z m -0.85437,0 h 0.64078 v -0.64078 h -0.64078 z"
             style="font-variant-ligatures:normal;font-variant-caps:normal;font-variant-numeric:normal;font-feature-settings:normal;fill:url(#linearGradient3298);fill-opacity:1;stroke:#29230b;stroke-opacity:0.334059"
             id="path95" />
          <path
             d="m 109.81,56.587 h 0.64078 V 55.94622 H 109.81 Z m 0,-2.5631 h 0.64078 V 53.38312 H 109.81 Z m 3.4175,2.5631 h 0.64078 V 55.94622 H 113.2275 Z M 109.81,54.8783 h 0.64078 V 54.23752 H 109.81 Z m 1.7087,1.7087 h 0.64077 V 55.94622 H 111.5187 Z M 109.81,55.73263 h 0.64078 V 55.09185 H 109.81 Z m 0.85437,0.85437 h 0.64078 v -0.64078 h -0.64078 z M 109.81,53.1695 h 0.64078 V 52.52872 H 109.81 Z m 2.5631,3.4175 h 0.64077 v -0.64078 h -0.64077 z"
             style="font-variant-ligatures:normal;font-variant-caps:normal;font-variant-numeric:normal;font-feature-settings:normal;fill:url(#linearGradient3300);fill-opacity:1;stroke:#29230b;stroke-opacity:0.334059"
             id="path97" />
          <path
             d="m 115.79,56.587 h 0.64077 V 55.94622 H 115.79 Z m 1.7087,0 h 0.64078 v -0.64078 h -0.64078 z m -2.5631,-2.5631 h 0.64078 v -0.64078 h -0.64078 z m 2.5631,0.85437 h 0.64078 v -0.64078 h -0.64078 z m 0.85437,0 h 0.64078 v -0.64078 h -0.64078 z m 0,1.7087 h 0.64078 v -0.64078 h -0.64078 z m -3.4175,-1.7087 h 0.64078 v -0.64078 h -0.64078 z m 0,0.85437 h 0.64078 v -0.64078 h -0.64078 z m 3.4175,-1.7087 h 0.64078 v -0.64078 h -0.64078 z m -2.5631,-0.85437 h 0.64077 v -0.64078 h -0.64077 z m 0.85436,1.7087 h 0.64078 v -0.64078 h -0.64078 z m 0,1.7087 h 0.64078 v -0.64078 h -0.64078 z m -0.85436,-1.7087 h 0.64077 v -0.64078 h -0.64077 z m 1.7087,-1.7087 h 0.64078 v -0.64078 h -0.64078 z m -0.85437,0 h 0.64078 v -0.64078 h -0.64078 z"
             style="font-variant-ligatures:normal;font-variant-caps:normal;font-variant-numeric:normal;font-feature-settings:normal;fill:url(#linearGradient3302);fill-opacity:1;stroke:#29230b;stroke-opacity:0.334059"
             id="path99" />
          <path
             d="m 120.91,56.587 h 0.64077 V 55.94622 H 120.91 Z m 2.5631,-0.85437 h 0.64078 v -0.64078 h -0.64078 z m -0.85437,0.85437 h 0.64078 v -0.64078 h -0.64078 z m -1.7087,-3.4175 h 0.64077 v -0.64078 h -0.64077 z m -0.85437,2.5631 h 0.64078 v -0.64078 h -0.64078 z m 0,-1.7087 h 0.64078 v -0.64078 h -0.64078 z m 0,0.85437 h 0.64078 v -0.64078 h -0.64078 z m 1.7087,-1.7087 h 0.64077 v -0.64078 h -0.64077 z m 0,3.4175 h 0.64077 v -0.64078 h -0.64077 z m 0.85436,-3.4175 h 0.64078 v -0.64078 h -0.64078 z m 0.85437,0.85437 h 0.64078 v -0.64078 h -0.64078 z"
             style="font-variant-ligatures:normal;font-variant-caps:normal;font-variant-numeric:normal;font-feature-settings:normal;fill:url(#linearGradient3304);fill-opacity:1;stroke:#29230b;stroke-opacity:0.334059"
             id="path101" />
          <path
             d="m 126.89,56.587 h 0.64077 V 55.94622 H 126.89 Z m -0.85437,-3.4175 h 0.64078 v -0.64078 h -0.64078 z m -0.85437,0 h 0.64078 v -0.64078 h -0.64078 z m 1.7087,0 h 0.64077 v -0.64078 h -0.64077 z m 0,1.7087 h 0.64077 v -0.64078 h -0.64077 z m 0.85437,-1.7087 h 0.64077 v -0.64078 h -0.64077 z m -0.85437,0.85437 h 0.64077 v -0.64078 h -0.64077 z m 1.7087,-0.85437 h 0.64078 v -0.64078 h -0.64078 z m -1.7087,2.5631 h 0.64077 v -0.64078 h -0.64077 z"
             style="font-variant-ligatures:normal;font-variant-caps:normal;font-variant-numeric:normal;font-feature-settings:normal;fill:url(#linearGradient3306);fill-opacity:1;stroke:#29230b;stroke-opacity:0.334059"
             id="path103" />
          <path
             d="m 130.3,56.587 h 0.64077 V 55.94622 H 130.3 Z m 1.7087,-5.1262 h 0.64078 v -0.64078 h -0.64078 z m 0,5.1262 h 0.64078 v -0.64078 h -0.64078 z m -0.85437,-3.4175 h 0.64078 v -0.64078 h -0.64078 z m 0.85437,1.7087 h 0.64078 v -0.64078 h -0.64078 z m 0,-1.7087 h 0.64078 v -0.64078 h -0.64078 z m -1.7087,0 h 0.64077 V 52.52872 H 130.3 Z m 3.4175,3.4175 h 0.64077 v -0.64078 h -0.64077 z m -1.7087,-0.85437 h 0.64078 v -0.64078 h -0.64078 z m 0,-1.7087 h 0.64078 v -0.64078 h -0.64078 z m -0.85437,2.5631 h 0.64078 v -0.64078 h -0.64078 z m 1.7087,0 h 0.64077 v -0.64078 h -0.64077 z"
             style="font-variant-ligatures:normal;font-variant-caps:normal;font-variant-numeric:normal;font-feature-settings:normal;fill:url(#linearGradient3308);fill-opacity:1;stroke:#29230b;stroke-opacity:0.334059"
             id="path105" />
          <path
             d="m 136.28,56.587 h 0.64077 V 55.94622 H 136.28 Z m 0.85436,0 h 0.64078 v -0.64078 h -0.64078 z m 1.7087,-0.85437 h 0.64077 v -0.64078 h -0.64077 z m -3.4175,0 h 0.64077 v -0.64078 h -0.64077 z m 2.5631,0.85437 h 0.64078 v -0.64078 h -0.64078 z m 0,-3.4175 h 0.64078 v -0.64078 h -0.64078 z m -2.5631,0.85437 h 0.64077 v -0.64078 h -0.64077 z m 1.7087,-0.85437 h 0.64078 v -0.64078 h -0.64078 z m -1.7087,1.7087 h 0.64077 v -0.64078 h -0.64077 z m 3.4175,0 h 0.64077 v -0.64078 h -0.64077 z m -2.5631,-1.7087 h 0.64077 v -0.64078 h -0.64077 z m 2.5631,0.85437 h 0.64077 v -0.64078 h -0.64077 z"
             style="font-variant-ligatures:normal;font-variant-caps:normal;font-variant-numeric:normal;font-feature-settings:normal;fill:url(#linearGradient3310);fill-opacity:1;stroke:#29230b;stroke-opacity:0.334059"
             id="path107" />
          <path
             d="m 140.55,56.587 h 0.64077 V 55.94622 H 140.55 Z m 3.4175,-1.7087 h 0.64078 v -0.64078 h -0.64078 z m 0,0.85437 h 0.64078 v -0.64078 h -0.64078 z m -3.4175,-1.7087 h 0.64077 V 53.38319 H 140.55 Z m 2.5631,-0.85437 h 0.64078 v -0.64078 h -0.64078 z m -2.5631,2.5631 h 0.64077 V 55.09192 H 140.55 Z m 1.7087,-2.5631 h 0.64078 v -0.64078 h -0.64078 z m -1.7087,1.7087 h 0.64077 V 54.23752 H 140.55 Z m 0,-1.7087 h 0.64077 V 52.52882 H 140.55 Z m 0.85437,0.85437 h 0.64077 v -0.64078 h -0.64077 z m 2.5631,2.5631 h 0.64078 v -0.64078 h -0.64078 z m 0,-2.5631 h 0.64078 v -0.64078 h -0.64078 z"
             style="font-variant-ligatures:normal;font-variant-caps:normal;font-variant-numeric:normal;font-feature-settings:normal;fill:url(#linearGradient3312);fill-opacity:1;stroke:#29230b;stroke-opacity:0.334059"
             id="path109" />
        </g>
      </g>
      <g
         id="g3555">
        <path
           d="m 33.096473,33.794579 v 3.098793 h -5.502565 q -0.326239,0 -0.326239,0.287867 v 8.466647 H 23.157057 V 34.844443 q 0,-1.049864 1.348455,-1.049864 z m -0.0435,4.453457 v 2.810927 h -5.111077 v -2.810927 z"
           style="font-size:19.1908px;line-height:1.25;font-family:Stormfaze;-inkscape-font-specification:Stormfaze;fill:url(#linearGradient3322);fill-opacity:1;stroke:#29230b;stroke-width:0.299856;stroke-opacity:0.334059"
           id="path947" />
        <path
           d="m 42.057115,33.794579 q 0.565481,0 0.739475,0.372532 l 5.002332,11.480775 h -9.004197 l 1.022216,-3.115726 h 2.39242 l -1.674695,-4.436524 h -0.08699 l -2.631662,7.55225 H 33.444411 L 38.098756,34.167111 Q 38.251,33.794579 38.794731,33.794579 Z"
           style="font-size:19.1908px;line-height:1.25;font-family:Stormfaze;-inkscape-font-specification:Stormfaze;fill:url(#linearGradient3324);fill-opacity:1;stroke:#29230b;stroke-width:0.299856;stroke-opacity:0.334059"
           id="path949" />
        <path
           d="m 50.582802,33.794579 2.522916,7.416784 h 0.08699 l 2.631662,-7.416784 h 4.371602 l -4.74134,11.480775 q -0.152246,0.372532 -0.695977,0.372532 h -3.26239 q -0.56548,0 -0.739475,-0.372532 L 46.10245,33.794579 Z"
           style="font-size:19.1908px;line-height:1.25;font-family:Stormfaze;-inkscape-font-specification:Stormfaze;fill:url(#linearGradient3326);fill-opacity:1;stroke:#29230b;stroke-width:0.299856;stroke-opacity:0.334059"
           id="path951" />
        <path
           d="m 60.891893,38.772968 q 0,-1.219197 0.347988,-2.167462 0.347988,-0.965198 1.130961,-1.625596 0.782974,-0.660399 2.022683,-0.999065 1.261457,-0.355599 3.044896,-0.355599 1.783441,0 3.023149,0.355599 1.261458,0.338666 2.044431,0.999065 0.782974,0.660398 1.130962,1.625596 0.347988,0.948265 0.347988,2.167462 v 1.896529 q 0,1.219198 -0.347988,2.184395 -0.347988,0.948265 -1.130962,1.608663 -0.782973,0.6604 -2.044431,1.015998 -1.239708,0.338666 -3.023149,0.338666 -1.783439,0 -3.044896,-0.338666 -1.239709,-0.355598 -2.022683,-1.015998 -0.782973,-0.660398 -1.130961,-1.608663 -0.347988,-0.965197 -0.347988,-2.184395 z m 4.110611,1.761063 q 0,0.609599 0.108742,1.032931 0.130496,0.423333 0.413236,0.677332 0.282741,0.254 0.739475,0.372532 0.478484,0.1016 1.17446,0.1016 0.695977,0 1.152712,-0.1016 0.478483,-0.118532 0.761224,-0.372532 0.28274,-0.253999 0.391486,-0.677332 0.130496,-0.423332 0.130496,-1.032931 v -1.625597 q 0,-0.609598 -0.130496,-1.032931 -0.108741,-0.423332 -0.391486,-0.677332 -0.282741,-0.253999 -0.761224,-0.355598 -0.456735,-0.118534 -1.152712,-0.118534 -0.695976,0 -1.17446,0.118534 -0.456734,0.101599 -0.739475,0.355598 -0.28274,0.254 -0.413236,0.677332 -0.108742,0.423333 -0.108742,1.032931 z"
           style="font-size:19.1908px;line-height:1.25;font-family:Stormfaze;-inkscape-font-specification:Stormfaze;fill:url(#linearGradient3328);fill-opacity:1;stroke:#29230b;stroke-width:0.299856;stroke-opacity:0.334059"
           id="path953" />
        <path
           d="m 84.120099,33.794579 q 4.110611,0 4.110611,3.149593 v 0.694265 q 0,0.846665 -0.28274,1.253064 -0.260992,0.389466 -0.826473,0.643466 0.630729,0.186265 1.043966,0.694264 0.434985,0.491067 0.434985,1.303864 v 4.114791 h -4.088863 v -3.979325 q 0,-0.253999 -0.152244,-0.423332 -0.130496,-0.186266 -0.543732,-0.186266 h -2.479416 v -2.675461 h 2.305421 q 0.434986,0 0.565482,-0.169333 0.152245,-0.186266 0.152245,-0.440265 v -0.355599 q 0,-0.643466 -0.782974,-0.643466 h -2.588163 q -0.326239,0 -0.326239,0.287866 v 8.585181 H 76.551354 V 34.844443 q 0,-1.049864 1.348454,-1.049864 z"
           style="font-size:19.1908px;line-height:1.25;font-family:Stormfaze;-inkscape-font-specification:Stormfaze;fill:url(#linearGradient3330);fill-opacity:1;stroke:#29230b;stroke-width:0.299856;stroke-opacity:0.334059"
           id="path955" />
        <path
           d="M 95.36444,33.794579 V 45.647886 H 91.253827 V 33.794579 Z"
           style="font-size:19.1908px;line-height:1.25;font-family:Stormfaze;-inkscape-font-specification:Stormfaze;fill:url(#linearGradient3332);fill-opacity:1;stroke:#29230b;stroke-width:0.299856;stroke-opacity:0.334059"
           id="path957" />
        <path
           d="m 109.02296,33.794579 v 3.098793 H 97.365356 v -3.098793 z m -3.76262,3.623726 v 8.229581 h -4.11061 v -8.229581 z"
           style="font-size:19.1908px;line-height:1.25;font-family:Stormfaze;-inkscape-font-specification:Stormfaze;fill:url(#linearGradient3334);fill-opacity:1;stroke:#29230b;stroke-width:0.299856;stroke-opacity:0.334059"
           id="path959" />
        <path
           d="m 120.9198,33.794579 v 3.098793 h -5.50256 q -0.32624,0 -0.32624,0.287867 v 5.063055 q 0,0.287866 0.32624,0.287866 h 5.50256 v 3.115726 h -8.59096 q -1.34845,0 -1.34845,-1.066797 v -9.736646 q 0,-1.049864 1.34845,-1.049864 z m -0.0435,4.453457 v 2.810927 h -5.11108 v -2.810927 z"
           style="font-size:19.1908px;line-height:1.25;font-family:Stormfaze;-inkscape-font-specification:Stormfaze;fill:url(#linearGradient3336);fill-opacity:1;stroke:#29230b;stroke-width:0.299856;stroke-opacity:0.334059"
           id="path961" />
        <path
           d="m 134.38259,33.794579 v 3.098793 h -6.37253 q -0.78298,0 -0.78298,0.643465 v 0.3556 q 0,0.609598 0.71773,0.609598 h 3.30589 q 2.00093,0 2.84915,0.728132 0.86998,0.711199 0.86998,2.048929 v 1.219198 q 0,3.149592 -4.11062,3.149592 h -7.2425 V 42.53216 h 6.69877 q 0.78297,0 0.78297,-0.643465 v -0.3556 q 0,-0.304799 -0.15224,-0.457199 -0.15225,-0.152399 -0.56548,-0.152399 h -3.52338 q -0.93522,0 -1.60945,-0.186267 -0.65248,-0.203199 -1.08746,-0.541865 -0.41324,-0.355599 -0.60898,-0.812798 -0.19574,-0.474133 -0.19574,-1.015998 v -1.422397 q 0,-3.149593 4.11061,-3.149593 z"
           style="font-size:19.1908px;line-height:1.25;font-family:Stormfaze;-inkscape-font-specification:Stormfaze;fill:url(#linearGradient3338);fill-opacity:1;stroke:#29230b;stroke-width:0.299856;stroke-opacity:0.334059"
           id="path963" />
      </g>
    </g>
  </g>
</svg>
