<?xml version="1.0" encoding="UTF-8" standalone="no"?>
<svg
   width="161.59065mm"
   height="82.953201mm"
   version="1.1"
   viewBox="0 0 161.59066 82.953203"
   id="svg123"
   sodipodi:docname="controller.svg"
   inkscape:version="1.1.2 (0a00cf5339, 2022-02-04)"
   xmlns:inkscape="http://www.inkscape.org/namespaces/inkscape"
   xmlns:sodipodi="http://sodipodi.sourceforge.net/DTD/sodipodi-0.dtd"
   xmlns:xlink="http://www.w3.org/1999/xlink"
   xmlns="http://www.w3.org/2000/svg"
   xmlns:svg="http://www.w3.org/2000/svg">
  <sodipodi:namedview
     id="namedview125"
     pagecolor="#ffffff"
     bordercolor="#666666"
     borderopacity="1.0"
     inkscape:pageshadow="2"
     inkscape:pageopacity="0.0"
     inkscape:pagecheckerboard="0"
     inkscape:document-units="mm"
     showgrid="false"
     inkscape:zoom="1.24434"
     inkscape:cx="259.17354"
     inkscape:cy="76.747513"
     inkscape:window-width="1920"
     inkscape:window-height="996"
     inkscape:window-x="0"
     inkscape:window-y="0"
     inkscape:window-maximized="1"
     inkscape:current-layer="svg123"
     height="90.449mm"
     fit-margin-top="0"
     fit-margin-left="0"
     fit-margin-right="0"
     fit-margin-bottom="0" />
  <defs
     id="defs19">
    <linearGradient
       id="linearGradient14680">
      <stop
         offset="0"
         id="stop2" />
      <stop
         stop-color="#594d17"
         offset=".21765"
         id="stop4" />
      <stop
         stop-color="#6f601d"
         offset=".63688"
         id="stop6" />
      <stop
         stop-color="#3c3410"
         offset=".84407"
         id="stop8" />
      <stop
         stop-color="#29230b"
         offset="1"
         id="stop10" />
    </linearGradient>
    <linearGradient
       id="linearGradient14622"
       x1="50.304001"
       x2="69.417"
       y1="129.88"
       y2="201.21001"
       gradientUnits="userSpaceOnUse"
       xlink:href="#linearGradient14680"
       gradientTransform="matrix(0.96593,-0.25882,-0.25882,-0.96593,5.465,218.214)" />
    <linearGradient
       id="linearGradient14624"
       x1="50.609001"
       x2="69.632004"
       y1="130.35001"
       y2="201.34"
       gradientUnits="userSpaceOnUse"
       xlink:href="#linearGradient14680"
       gradientTransform="rotate(-165,90.678612,99.062406)" />
    <linearGradient
       id="linearGradient14708"
       x1="-1290.6"
       x2="-1290.6"
       y1="186.2"
       y2="268.60999"
       gradientUnits="userSpaceOnUse"
       xlink:href="#linearGradient14680" />
    <linearGradient
       id="linearGradient14716"
       x1="103.07"
       x2="103.07"
       y1="99.521004"
       y2="62.476002"
       gradientTransform="translate(-3.0312e-6,1.0583)"
       gradientUnits="userSpaceOnUse"
       xlink:href="#linearGradient14680" />
    <linearGradient
       id="linearGradient14724"
       x1="101.82"
       x2="101.82"
       y1="61.625999"
       y2="31.544001"
       gradientTransform="translate(-0.65807)"
       gradientUnits="userSpaceOnUse"
       xlink:href="#linearGradient14680" />
    <linearGradient
       id="linearGradient14775"
       x1="94.702003"
       x2="94.702003"
       y1="87.480003"
       y2="80.857002"
       gradientTransform="translate(-19.87872,-35.77683)"
       gradientUnits="userSpaceOnUse"
       xlink:href="#linearGradient14680" />
  </defs>
  <path
     id="path1024"
     style="fill:#ffffff;fill-opacity:1;stroke:#000000;stroke-width:3.5;stroke-linejoin:round;stroke-miterlimit:4;stroke-dasharray:none;stroke-opacity:1;paint-order:normal"
     d="m 22.943031,1.7499594 c -0.260199,0.06919 -0.511032,0.164785 -0.747758,0.28267 -1.03656,0.516056 -1.763184,1.437285 -1.935283,2.444813 -0.187188,1.112872 0.325928,2.101864 1.177706,2.698544 -0.117045,-0.903518 0.04844,-1.88177 0.550354,-2.719731 -0.436375,0.96367 -0.196459,1.969267 0.176217,2.685624 0.82754,-0.497766 1.620517,-1.375067 1.864485,-2.332676 0.110199,-1.062974 -0.781593,-1.739691 -1.085721,-3.059244 z m 115.705109,0.0057 c -0.30411,1.319548 -1.19643,1.996273 -1.08624,3.059244 0.24397,0.957601 1.03747,1.834909 1.86501,2.332673 0.37267,-0.716354 0.61259,-1.721956 0.17621,-2.685624 0.50192,0.837956 0.6674,1.816219 0.55036,2.719731 0.85177,-0.596675 1.36489,-1.585674 1.1777,-2.698543 -0.1721,-1.007523 -0.89872,-1.928757 -1.93528,-2.444811 -0.23673,-0.117885 -0.48756,-0.213482 -0.74776,-0.28267 z M 17.617774,4.7399574 c -0.2476,0.123285 -0.479851,0.270951 -0.693497,0.438734 -0.935178,0.73446 -1.473739,1.818434 -1.435572,2.878895 0.04515,1.170604 0.770836,2.0742876 1.761133,2.5083736 -0.306616,-0.8965246 -0.343697,-1.9268706 -0.01344,-2.8819946 -0.237092,1.069893 0.216367,2.045451 0.745175,2.6990586 0.739507,-0.6783646 1.360175,-1.7371216 1.400947,-2.7626226 -0.117688,-1.103545 -1.169247,-1.605108 -1.76475,-2.880444 z m 126.355106,0.0057 c -0.5955,1.275328 -1.64653,1.776901 -1.76423,2.880444 0.0408,1.025493 0.66145,2.083742 1.40095,2.7621046 0.5288,-0.6536056 0.98226,-1.6286536 0.74517,-2.6985436 0.33029,0.955122 0.29318,1.985473 -0.0134,2.8819946 0.99029,-0.434086 1.71593,-1.3377726 1.76113,-2.5083736 0.0382,-1.060455 -0.50039,-2.144438 -1.43557,-2.878894 v -5.16e-4 c -0.21364,-0.167783 -0.44641,-0.314934 -0.69402,-0.438216 z M 23.639112,6.7971984 C 20.338694,8.6088934 17.460881,11.195467 15.21482,14.212249 11.404456,19.33087 9.2544725,25.530581 8.3930106,31.810657 6.4621269,45.835341 10.471559,60.59797 19.200107,71.699177 c 2.921864,3.7188 6.437156,7.031612 10.462927,9.499679 -2.133823,-2.011477 -3.948291,-4.256313 -5.486487,-6.624919 -1.294598,-1.2197 -2.515588,-2.530458 -3.656624,-3.906221 C 11.822505,60.142067 7.5006268,45.783036 9.0823742,31.907807 9.7920566,25.701121 11.757465,19.529347 15.420492,14.367795 c 2.15764,-3.039933 4.958734,-5.6835356 8.21862,-7.5705966 z m 114.312438,0.0052 v 5.16e-4 c 3.25986,1.887056 6.06098,4.5306796 8.21862,7.5705966 3.663,5.161531 5.62894,11.33335 6.33863,17.540015 1.58174,13.875168 -2.74017,28.233787 -11.43755,38.75939 -1.14103,1.375757 -2.36255,2.686527 -3.65714,3.906222 -1.53819,2.368595 -3.35215,4.613451 -5.48597,6.624918 4.02576,-2.468055 7.54107,-5.780894 10.46293,-9.499678 8.72851,-11.101158 12.73744,-25.863382 10.80657,-39.888005 -0.86146,-6.280049 -3.01095,-12.479808 -6.82129,-17.598408 -2.24619,-3.016959 -5.12415,-5.6038616 -8.4248,-7.4155666 z M 24.522779,7.3981944 c -0.543649,0.0087 -1.09399,0.176188 -1.550809,0.464055 0.473916,0.662384 1.231479,1.323007 2.113049,1.553393 -0.797976,-0.106416 -1.679946,-0.447728 -2.425692,-0.929659 0.222962,1.010841 0.981276,1.8294686 1.881539,2.2479236 1.009392,0.466251 2.036455,0.37915 2.756421,-0.213424 C 26.587284,9.3872254 26.554972,8.3062384 25.731491,7.6849974 25.364356,7.4806354 24.945617,7.3914364 24.522779,7.3981944 Z m 112.545611,0.0052 c -0.42283,-0.0068 -0.84158,0.08296 -1.20871,0.287322 -0.82348,0.621236 -0.85579,1.702233 -1.56579,2.8354836 0.71997,0.592571 1.74704,0.679674 2.75642,0.213426 0.90026,-0.418455 1.65806,-1.2376046 1.88102,-2.2484426 -0.74574,0.481928 -1.6272,0.823762 -2.42518,0.930175 0.88157,-0.230384 1.63914,-0.891011 2.11305,-1.553393 -0.45681,-0.287864 -1.00716,-0.455882 -1.55081,-0.464571 z M 12.913152,8.8198134 c -0.224681,0.174892 -0.429149,0.37157 -0.610299,0.584975 -0.48535,0.571752 -0.797723,1.2544716 -0.904341,1.9461346 -0.06271,0.425813 -0.04727,0.850755 0.05013,1.255739 0.284071,1.168186 1.188819,1.946264 2.274284,2.196764 -0.369837,-0.645488 -0.600309,-1.399074 -0.629936,-2.181778 -0.008,-0.243396 0.0037,-0.488122 0.03669,-0.73174 -0.0059,0.296897 0.03485,0.578401 0.110071,0.841809 0.214009,0.737296 0.695198,1.332093 1.186491,1.745631 0.133413,-0.180491 0.25621,-0.375883 0.364836,-0.581877 0.396835,-0.75126 0.629751,-1.667838 0.497644,-2.498555 C 14.94513,10.298098 13.778359,9.9979314 12.913156,8.8198134 Z m 135.764868,0.0057 c -0.86519,1.1781126 -2.03249,1.4782936 -2.37608,2.5771026 -0.13212,0.830717 0.10134,1.7473 0.49816,2.498555 0.10864,0.205994 0.23092,0.401389 0.36432,0.581877 0.49129,-0.413535 0.973,-1.008335 1.18701,-1.745628 0.0752,-0.263408 0.11607,-0.545433 0.11007,-0.842327 0.0326,0.243617 0.0447,0.488862 0.0367,0.732255 -0.0296,0.782704 -0.26062,1.535779 -0.63046,2.181262 1.08547,-0.250497 1.99072,-1.028065 2.2748,-2.196248 0.0974,-0.404982 0.11283,-0.830445 0.0501,-1.256255 -0.10662,-0.69166 -0.41898,-1.3738666 -0.90434,-1.9456156 -0.18115,-0.213407 -0.38561,-0.410085 -0.6103,-0.584978 z M 20.657899,10.486894 c -0.731433,0.02564 -1.463769,0.369152 -1.982825,0.884701 0.61989,0.555471 1.524129,1.048396 2.457731,1.076936 -0.823116,0.07625 -1.778445,-0.06975 -2.62878,-0.387572 0.446351,0.957506 1.375014,1.61031 2.376599,1.82831 1.117753,0.240565 2.121211,-0.07229 2.720764,-0.858861 -0.973006,-0.960088 -1.256195,-2.030217 -2.220019,-2.45773 -0.235678,-0.06751 -0.479659,-0.09433 -0.72347,-0.08578 z m 120.092441,0.0057 c -0.18245,0.0071 -0.36378,0.03515 -0.54054,0.08578 -0.96382,0.427514 -1.24753,1.497647 -2.22053,2.45773 0.59955,0.786567 1.60353,1.099426 2.72128,0.858864 1.00158,-0.218001 1.93025,-0.87081 2.3766,-1.828313 -0.85034,0.317818 -1.80566,0.463823 -2.62878,0.387572 0.9336,-0.02854 1.83732,-0.521467 2.45721,-1.076936 -0.5623,-0.558506 -1.37463,-0.915424 -2.16524,-0.8847 z M 9.0482679,13.791085 c -0.1919118,0.212884 -0.3602017,0.443741 -0.5022951,0.686263 -0.6209003,1.059775 -0.7328651,2.309485 -0.2945556,3.335197 0.4867378,1.131068 1.5405158,1.775796 2.6907918,1.851049 -0.63759,-0.780251 -1.061095,-1.784858 -1.1043253,-2.843236 0.1795683,1.137901 0.9938183,1.938882 1.7663003,2.39572 0.484888,-0.947539 0.691935,-2.226638 0.326082,-3.25665 -0.552091,-1.044298 -1.785201,-1.1409 -2.8819981,-2.168343 z m 143.4946321,0.0057 c -1.09679,1.027438 -2.33043,1.123535 -2.88251,2.167827 -0.36584,1.03001 -0.1588,2.309632 0.32608,3.257166 0.77248,-0.456835 1.58725,-1.257821 1.76682,-2.39572 -0.0432,1.058376 -0.46674,2.062991 -1.10433,2.843239 1.15028,-0.07526 2.20353,-0.719987 2.69028,-1.851051 0.4383,-1.025708 0.32634,-2.275425 -0.29456,-3.335198 -0.1421,-0.242519 -0.30987,-0.473379 -0.50178,-0.686263 z M 17.489617,14.380712 c -0.500727,0.01213 -0.993215,0.187229 -1.421619,0.472839 -0.354861,0.236816 -0.660143,0.544642 -0.886251,0.885219 0.729447,0.425236 1.727491,0.730269 2.669088,0.560689 -0.810597,0.250741 -1.789092,0.30221 -2.698543,0.157097 0.637058,0.861174 1.6928,1.325348 2.733166,1.332735 0.589358,0.0028 1.131545,-0.139943 1.574581,-0.391708 0.42771,-0.239728 0.767024,-0.587864 0.983403,-1.036113 -1.177266,-0.749237 -1.687278,-1.75328 -2.738851,-1.975588 -0.07172,-0.0051 -0.143442,-0.0069 -0.214974,-0.0052 z m 126.611943,0.0057 c -0.0715,-0.0017 -0.14326,-4.08e-4 -0.21498,0.0047 -1.05156,0.222308 -1.56159,1.226873 -2.73885,1.976107 0.21639,0.448246 0.55519,0.796385 0.98289,1.036111 0.44304,0.251767 0.98575,0.394507 1.57509,0.391707 1.04037,-0.0074 2.0956,-0.471561 2.73266,-1.332735 -0.90945,0.145113 -1.88743,0.09364 -2.69803,-0.157096 0.9416,0.169579 1.93913,-0.13597 2.66857,-0.561205 -0.22611,-0.340575 -0.53138,-0.648404 -0.88625,-0.885219 -0.4284,-0.285605 -0.92038,-0.460196 -1.4211,-0.472321 z M 14.823113,18.898784 c -1.004582,0.120365 -1.873962,0.8983 -2.273763,1.811774 0.80569,0.298797 1.859842,0.430414 2.76934,0.08578 -0.764727,0.40273 -1.734245,0.627432 -2.673222,0.63872 0.789245,0.75443 1.929253,1.042823 2.973979,0.86093 1.167622,-0.206198 2.033588,-0.950489 2.304769,-1.951818 -1.315724,-0.516914 -2.011656,-1.424445 -3.101103,-1.44539 z m 131.944947,0.0052 c -1.08945,0.02094 -1.78539,0.928997 -3.1011,1.445905 0.27117,1.001326 1.13715,1.745105 2.30477,1.951302 1.04471,0.181893 2.18422,-0.105987 2.97346,-0.860412 -0.93897,-0.01129 -1.90798,-0.235992 -2.67271,-0.63872 0.9095,0.344628 1.96365,0.213011 2.76934,-0.08578 -0.39979,-0.913471 -1.26919,-1.691928 -2.27376,-1.812292 z M 6.0226128,19.340099 c -0.1613064,0.244035 -0.2950075,0.502139 -0.4010091,0.768429 -0.4629476,1.163055 -0.3798234,2.443528 0.2289264,3.419946 0.6745571,1.075775 1.8510409,1.581036 3.0421916,1.486215 -0.7724349,-0.702046 -1.3620043,-1.66247 -1.5740642,-2.730066 0.3642956,1.128056 1.3217745,1.822296 2.184363,2.172478 C 9.8548499,23.412814 9.8638656,22.07597 9.3221529,21.08573 8.5883162,20.111457 7.3109653,20.207305 6.0226128,19.340099 Z m 149.5454272,0.0057 c -1.28835,0.867201 -2.56519,0.771363 -3.29902,1.74563 -0.54171,0.990235 -0.53322,2.327088 -0.18139,3.371369 0.8626,-0.350176 1.82059,-1.044424 2.18488,-2.172475 -0.21205,1.067591 -0.80215,2.027504 -1.57458,2.729547 1.19114,0.09482 2.36763,-0.410445 3.04219,-1.486215 0.60874,-0.976413 0.69239,-2.25638 0.22944,-3.419427 v -5.19e-4 c -0.106,-0.266287 -0.24021,-0.523877 -0.40152,-0.76791 z m -142.6275,4.555264 c -0.06706,0.0028 -0.134778,0.0092 -0.203605,0.01912 -0.99143,0.287292 -1.743541,1.210064 -2.005566,2.19108 0.859053,0.177491 1.944794,0.147987 2.809652,-0.349332 -0.710253,0.533506 -1.654709,0.911485 -2.601913,1.065567 0.911225,0.641409 2.104526,0.762953 3.134697,0.41238 1.15115,-0.394793 1.914125,-1.301025 2.024682,-2.375567 -1.322781,-0.281387 -2.152046,-1.004818 -3.157947,-0.963248 z m 135.71009,0.0057 c -1.00589,-0.04157 -1.83569,0.681863 -3.15846,0.96325 0.11055,1.074537 0.87353,1.980774 2.02468,2.375564 1.03017,0.350573 2.22347,0.22851 3.1347,-0.412895 -0.94721,-0.15408 -1.89115,-0.531546 -2.6014,-1.065051 0.86485,0.497318 1.9506,0.526822 2.80965,0.349334 -0.26201,-0.981014 -1.01413,-1.903791 -2.00556,-2.19108 -0.0688,-0.0099 -0.13655,-0.01635 -0.20361,-0.01912 z M 3.8217134,25.35162 c -0.1279628,0.269679 -0.2262055,0.549251 -0.2945556,0.83354 -0.298377,1.240915 -0.024681,2.526245 0.7363891,3.434932 0.8423029,1.00039 2.1112652,1.360274 3.3145264,1.104326 C 6.6931746,30.112739 5.955329,29.214216 5.5838799,28.158682 6.119822,29.25493 7.1950529,29.833598 8.1253266,30.07381 8.341029,28.958785 8.1596573,27.592696 7.458184,26.659032 6.5633002,25.770154 5.2705809,26.04899 3.8217134,25.35162 Z m 153.9477466,0.0052 c -1.44887,0.697368 -2.7416,0.419055 -3.63647,1.307931 -0.70153,0.933659 -0.88285,2.29924 -0.66715,3.414262 0.93027,-0.240215 2.00551,-0.818372 2.54145,-1.914612 -0.37145,1.055526 -1.10981,1.954059 -1.99471,2.565734 1.20326,0.255947 2.47274,-0.103942 3.31504,-1.104326 0.76104,-0.90868 1.03425,-2.194023 0.73588,-3.434932 -0.0683,-0.284287 -0.16608,-0.56438 -0.29404,-0.834057 z m -44.01179,0.364837 v 0.640786 h 0.64079 v -0.640786 z m -78.546655,1.708938 v 0.640787 h 0.640788 v -0.640787 z m 0.854212,0 v 0.640787 h 0.640788 v -0.640787 z m 0.854728,0 v 0.640787 h 0.640271 v -0.640787 z m 0.854211,0 v 0.640787 h 0.640788 v -0.640787 z m 3.413746,0 v 0.640787 H 41.8287 v -0.640787 z m 0.854212,0 v 0.640787 h 0.640786 v -0.640787 z m 0.854728,0 v 0.640787 h 0.640787 v -0.640787 z m 2.559532,0 v 0.640787 h 0.640789 v -0.640787 z m 0.854728,0 v 0.640787 h 0.640789 v -0.640787 z m 1.708423,0 v 0.640787 h 0.640789 v -0.640787 z m 0.854728,0 v 0.640787 h 0.640789 v -0.640787 z m 2.56005,0 v 0.640787 h 0.640789 v -0.640787 z m 0.854213,0 v 0.640787 h 0.640786 v -0.640787 z m 0.854728,0 v 0.640787 h 0.640787 v -0.640787 z m 0.85421,0 v 0.640787 h 0.640789 v -0.640787 z m 2.559534,0 v 0.640787 h 0.64079 v -0.640787 z m 0.854213,0 v 0.640787 h 0.640786 v -0.640787 z m 0.85421,0 v 0.640787 h 0.640789 v -0.640787 z m 2.559534,0 v 0.640787 h 0.640789 v -0.640787 z m 1.708941,0 v 0.640787 h 0.640787 v -0.640787 z m 0.85421,0 v 0.640787 h 0.640789 v -0.640787 z m 3.414779,0 v 0.640787 h 0.640789 v -0.640787 z m 0.854728,0 v 0.640787 h 0.640789 v -0.640787 z m 0.854213,0 v 0.640787 h 0.640786 v -0.640787 z m 2.559015,0 v 0.640787 h 0.640789 v -0.640787 z m 11.100615,0 v 0.640787 h 0.640787 v -0.640787 z m 0.85421,0 v 0.640787 h 0.640789 v -0.640787 z m 0.854213,0 v 0.640787 h 0.640789 v -0.640787 z m 0.854728,0 v 0.640787 h 0.640787 v -0.640787 z m 2.554367,0 v 0.640787 h 0.640786 v -0.640787 z m 0.85421,0 v 0.640787 h 0.640789 v -0.640787 z m 0.854728,0 v 0.640787 h 0.640271 v -0.640787 z m 2.561085,0 v 0.640787 h 0.640786 v -0.640787 z m 5.979996,0 v 0.640787 h 0.640789 v -0.640787 z m 0.854213,0 v 0.640787 h 0.640786 v -0.640787 z m 0.85421,0 v 0.640787 h 0.640789 v -0.640787 z m 3.411704,0 v 0.640787 h 0.64079 v -0.640787 z m 0.85422,0 v 0.640787 h 0.64078 v -0.640787 z m 0.85421,0 v 0.640787 h 0.64079 v -0.640787 z m 2.56263,0 v 0.640787 h 0.64079 v -0.640787 z m 0.85473,0 v 0.640787 h 0.64027 v -0.640787 z m 0.85421,0 v 0.640787 h 0.64079 v -0.640787 z m 0.85421,0 v 0.640787 h 0.64079 v -0.640787 z m 0.85422,0 v 0.640787 h 0.64078 v -0.640787 z m 1.7017,0 v 0.640787 h 0.64079 v -0.640787 z m 0.85421,0 v 0.640787 h 0.64079 v -0.640787 z m 0.85421,0 v 0.640787 h 0.64079 v -0.640787 z m 4.27158,0 v 0.640787 h 0.64027 v -0.640787 z m 0.85421,0 v 0.640787 h 0.64079 v -0.640787 z m 0.85421,0 v 0.640787 h 0.64079 v -0.640787 z m 2.5616,0 v 0.640787 h 0.64027 v -0.640787 z m 1.70842,0 v 0.640787 h 0.64079 v -0.640787 z m 0.85421,0 v 0.640787 h 0.64079 v -0.640787 z m -89.650885,0.854213 v 0.640786 h 0.640788 v -0.640786 z m 3.417363,0 v 0.640786 h 0.640788 v -0.640786 z m 1.705322,0 v 0.640786 h 0.640788 v -0.640786 z m 3.417362,0 v 0.640786 h 0.640789 v -0.640786 z m 2.56005,0 v 0.640786 h 0.640789 v -0.640786 z m 0.854213,0 v 0.640786 h 0.640786 v -0.640786 z m 3.414778,0 v 0.640786 h 0.640787 v -0.640786 z m 5.122686,0 v 0.640786 h 0.640786 v -0.640786 z m 3.41736,0 v 0.640786 h 0.64079 v -0.640786 z m 1.704806,0 v 0.640786 h 0.640789 v -0.640786 z m 0.854213,0 v 0.640786 h 0.640786 v -0.640786 z m 2.563151,0 v 0.640786 h 0.640786 v -0.640786 z m 5.123717,0 v 0.640786 h 0.640789 v -0.640786 z m 1.704805,0 v 0.640786 h 0.640789 v -0.640786 z m 10.246403,0 v 0.640786 h 0.640789 v -0.640786 z m 5.117517,0 v 0.640786 h 0.640789 v -0.640786 z m 3.417364,0 v 0.640786 h 0.640786 v -0.640786 z m 1.706872,0 v 0.640786 h 0.640786 v -0.640786 z m 5.125783,0 v 0.640786 h 0.64079 v -0.640786 z m 3.41736,0 v 0.640786 h 0.64079 v -0.640786 z m 1.70277,0 v 0.640786 h 0.64079 v -0.640786 z m 3.41737,0 v 0.640786 h 0.64078 v -0.640786 z m 3.41684,0 v 0.640786 h 0.64079 v -0.640786 z m 5.11855,0 v 0.640786 h 0.64079 v -0.640786 z m 3.41685,0 v 0.640786 h 0.64079 v -0.640786 z m 3.41736,0 v 0.640786 h 0.64079 v -0.640786 z m 1.70739,0 v 0.640786 h 0.64027 v -0.640786 z m 0.85421,0 v 0.640786 h 0.64079 v -0.640786 z m 2.56315,0 v 0.640786 h 0.64079 v -0.640786 z m -85.38293,0.85421 v 0.640789 h 0.640788 v -0.640789 z m 0.854212,0 v 0.640789 H 41.8287 v -0.640789 z m 0.854212,0 v 0.640789 h 0.640786 v -0.640789 z m 0.854728,0 v 0.640789 h 0.640787 v -0.640789 z m 0.85421,0 v 0.640789 h 0.640789 v -0.640789 z m 2.56005,0 v 0.640789 h 0.640789 v -0.640789 z m 5.123201,0 v 0.640789 h 0.640789 v -0.640789 z m 4.268476,0 v 0.640789 h 0.640786 v -0.640789 z m 3.41736,0 v 0.640789 h 0.64079 v -0.640789 z m 7.682736,0 v 0.640789 h 0.640789 v -0.640789 z m 0.854728,0 v 0.640789 h 0.640789 v -0.640789 z m 0.854213,0 v 0.640789 h 0.640786 v -0.640789 z m 0.85421,0 v 0.640789 h 0.640789 v -0.640789 z m 12.80542,0 v 0.640789 h 0.640787 v -0.640789 z m 4.263305,0 v 0.640789 h 0.640789 v -0.640789 z m 0.854213,0 v 0.640789 h 0.640786 v -0.640789 z m 0.85421,0 v 0.640789 h 0.640789 v -0.640789 z m 0.854728,0 v 0.640789 h 0.640789 v -0.640789 z m 0.854213,0 v 0.640789 h 0.640786 v -0.640789 z m 6.832655,0 v 0.640789 h 0.64079 v -0.640789 z m 0.854213,0 v 0.640789 h 0.640789 v -0.640789 z m 0.854213,0 v 0.640789 h 0.640786 v -0.640789 z m 0.854725,0 v 0.640789 h 0.64079 v -0.640789 z m 0.854209,0 v 0.640789 h 0.64079 v -0.640789 z m 1.70277,0 v 0.640789 h 0.64079 v -0.640789 z m 6.83421,0 v 0.640789 h 0.64079 v -0.640789 z m 5.11855,0 v 0.640789 h 0.64079 v -0.640789 z m 3.41685,0 v 0.640789 h 0.64079 v -0.640789 z m 3.41736,0 v 0.640789 h 0.64079 v -0.640789 z m -85.380865,5.16e-4 v 0.640789 h 0.640788 v -0.640789 z m 0.854212,0 v 0.640789 h 0.640788 v -0.640789 z m 0.854728,0 v 0.640789 h 0.640788 v -0.640789 z m 0.854211,0 v 0.640789 h 0.640788 v -0.640789 z m 14.51436,0 v 0.640789 h 0.640786 v -0.640789 z m 0.854728,0 v 0.640789 h 0.640787 v -0.640789 z m 7.681701,0 v 0.640789 h 0.640789 v -0.640789 z m 3.417364,0 v 0.640789 h 0.640786 v -0.640789 z m 6.828522,0 v 0.640789 h 0.640789 v -0.640789 z m 11.954825,0 v 0.640789 h 0.640789 v -0.640789 z m 0.854213,0 v 0.640789 h 0.640789 v -0.640789 z m 7.679118,0 v 0.640789 h 0.640786 v -0.640789 z m 30.740273,0 v 0.640789 h 0.64027 v -0.640789 z m 3.41736,0 v 0.640789 h 0.64079 v -0.640789 z m -113.712466,0.0708 c -0.200019,-5.11e-4 -0.400324,0.02383 -0.604619,0.08372 -0.960387,0.433281 -1.5893107,1.468188 -1.7213415,2.487702 0.8875245,0.06236 1.9778515,-0.114043 2.7848465,-0.738455 -0.450517,0.446167 -1.021364,0.826011 -1.638663,1.110525 -0.272097,0.126019 -0.554453,0.233945 -0.8407758,0.320395 0.9903678,0.518308 2.1905468,0.493101 3.1760378,0.0083 0.01094,-0.005 0.02163,-0.01102 0.03256,-0.01602 1.110972,-0.557104 1.770667,-1.589284 1.736845,-2.705778 -1.193594,-0.07809 -2.058141,-0.548134 -2.924886,-0.550354 z m 137.582846,0.0057 c -0.86675,0.0022 -1.7313,0.472262 -2.92489,0.550354 -0.0338,1.116486 0.62537,2.148676 1.73633,2.705778 0.0109,0.005 0.0217,0.01102 0.0326,0.01602 0.98549,0.484831 2.18619,0.509522 3.17655,-0.0088 -0.28633,-0.08645 -0.56869,-0.19386 -0.84078,-0.319876 -0.6173,-0.284514 -1.18865,-0.664363 -1.63917,-1.110527 0.80699,0.624411 1.89784,0.800301 2.78535,0.737938 -0.13217,-1.019347 -0.76112,-2.053979 -1.72134,-2.487186 -0.20429,-0.05988 -0.40459,-0.08423 -0.60461,-0.08371 z M 35.211015,29.993713 V 30.6345 h 0.640788 v -0.640787 z m 5.122685,0 V 30.6345 h 0.640788 v -0.640787 z m 5.977412,0 V 30.6345 h 0.640789 v -0.640787 z m 7.686352,0 V 30.6345 h 0.640789 v -0.640787 z m 1.705325,0 V 30.6345 h 0.640786 v -0.640787 z m 3.41736,0 V 30.6345 h 0.64079 v -0.640787 z m 1.704806,0 V 30.6345 h 0.640789 v -0.640787 z m 3.417364,0 V 30.6345 h 0.640786 v -0.640787 z m 1.706356,0 V 30.6345 h 0.640786 v -0.640787 z m 3.417361,0 V 30.6345 h 0.640789 v -0.640787 z m 1.704805,0 V 30.6345 h 0.640789 v -0.640787 z m 13.663766,0 V 30.6345 h 0.640787 v -0.640787 z m 1.700154,0 V 30.6345 h 0.640789 v -0.640787 z m 5.124236,0 V 30.6345 h 0.640786 v -0.640787 z m 5.125783,0 V 30.6345 h 0.64079 v -0.640787 z m 5.12013,0 V 30.6345 h 0.64079 v -0.640787 z m 3.41737,0 V 30.6345 h 0.64078 v -0.640787 z m 3.41684,0 V 30.6345 h 0.64079 v -0.640787 z m 5.11855,0 V 30.6345 h 0.64079 v -0.640787 z m 3.41685,0 V 30.6345 h 0.64079 v -0.640787 z m 3.41736,0 V 30.6345 h 0.64079 v -0.640787 z m 1.70739,0 V 30.6345 h 0.64027 v -0.640787 z m 3.41736,0 V 30.6345 h 0.64079 v -0.640787 z m -90.505615,0.854213 v 0.640786 h 0.640788 v -0.640786 z m 5.976897,0 v 0.640786 H 41.8287 v -0.640786 z m 0.854212,0 v 0.640786 h 0.640786 v -0.640786 z m 0.854728,0 v 0.640786 h 0.640787 v -0.640786 z m 0.85421,0 v 0.640786 h 0.640789 v -0.640786 z m 1.705322,0 v 0.640786 h 0.640789 v -0.640786 z m 0.854728,0 v 0.640786 h 0.640789 v -0.640786 z m 0.854213,0 v 0.640786 h 0.640786 v -0.640786 z m 0.85421,0 v 0.640786 h 0.640789 v -0.640786 z m 2.560568,0 v 0.640786 h 0.640787 v -0.640786 z m 0.85421,0 v 0.640786 h 0.640789 v -0.640786 z m 0.854213,0 v 0.640786 h 0.640786 v -0.640786 z m 0.854728,0 v 0.640786 h 0.640787 v -0.640786 z m 3.413744,0 v 0.640786 h 0.64079 v -0.640786 z m 0.854213,0 v 0.640786 h 0.640786 v -0.640786 z m 0.85421,0 v 0.640786 h 0.640789 v -0.640786 z m 2.559534,0 v 0.640786 h 0.640789 v -0.640786 z m 3.417364,0 v 0.640786 h 0.640786 v -0.640786 z m 2.560566,0 v 0.640786 h 0.640789 v -0.640786 z m 0.854728,0 v 0.640786 h 0.640789 v -0.640786 z m 0.854213,0 v 0.640786 h 0.640786 v -0.640786 z m 0.85421,0 v 0.640786 h 0.640789 v -0.640786 z m 1.704805,0 v 0.640786 h 0.640789 v -0.640786 z m 0.854729,0 v 0.640786 h 0.640789 v -0.640786 z m 0.854212,0 v 0.640786 h 0.640787 v -0.640786 z m 0.85421,0 v 0.640786 h 0.640789 v -0.640786 z m 0.854729,0 v 0.640786 h 0.640789 v -0.640786 z m 6.828523,0 v 0.640786 h 0.640789 v -0.640786 z m 0.854212,0 v 0.640786 h 0.640787 v -0.640786 z m 0.85421,0 v 0.640786 h 0.640789 v -0.640786 z m 0.854213,0 v 0.640786 h 0.640789 v -0.640786 z m 3.409095,0 v 0.640786 h 0.640786 v -0.640786 z m 0.85421,0 v 0.640786 h 0.640789 v -0.640786 z m 0.854728,0 v 0.640786 h 0.640789 v -0.640786 z m 0.854213,0 v 0.640786 h 0.640786 v -0.640786 z m 1.706872,0 v 0.640786 h 0.640786 v -0.640786 z m 0.85421,0 v 0.640786 h 0.640789 v -0.640786 z m 0.854728,0 v 0.640786 h 0.64079 v -0.640786 z m 0.854213,0 v 0.640786 h 0.640786 v -0.640786 z m 0.85421,0 v 0.640786 h 0.640789 v -0.640786 z m 2.562635,0 v 0.640786 h 0.640789 v -0.640786 z m 0.854213,0 v 0.640786 h 0.640786 v -0.640786 z m 0.854725,0 v 0.640786 h 0.64079 v -0.640786 z m 0.854209,0 v 0.640786 h 0.64079 v -0.640786 z m 2.55698,0 v 0.640786 h 0.64079 v -0.640786 z m 0.85422,0 v 0.640786 h 0.64078 v -0.640786 z m 0.85421,0 v 0.640786 h 0.64079 v -0.640786 z m 4.27157,0 v 0.640786 h 0.64079 v -0.640786 z m 3.41013,0 v 0.640786 h 0.64079 v -0.640786 z m 0.85421,0 v 0.640786 h 0.64079 v -0.640786 z m 0.85421,0 v 0.640786 h 0.64079 v -0.640786 z m 0.85473,0 v 0.640786 h 0.64027 v -0.640786 z m 0.85421,0 v 0.640786 h 0.64079 v -0.640786 z m 2.56264,0 v 0.640786 h 0.64079 v -0.640786 z m 0.85421,0 v 0.640786 h 0.64079 v -0.640786 z m 0.85421,0 v 0.640786 h 0.64079 v -0.640786 z m 2.5616,0 v 0.640786 h 0.64027 v -0.640786 z m 3.41736,0 v 0.640786 h 0.64079 V 30.847926 Z M 2.4626228,31.678881 c -0.09444,0.286518 -0.1572363,0.579382 -0.1901692,0.873332 -0.1435561,1.281734 0.2892845,2.546834 1.1735723,3.376538 0.9786028,0.913554 2.3181591,1.132615 3.5201984,0.727604 C 5.98834,36.137923 5.1282894,35.312129 4.6190807,34.289575 5.3015076,35.333941 6.4669111,35.794253 7.4478488,35.927201 7.5342665,34.76296 7.1793221,33.39721 6.341973,32.539293 5.3140663,31.75211 4.0321143,32.197028 2.4626228,31.678881 Z m 156.6654072,0.0057 c -1.56948,0.518139 -2.85094,0.07271 -3.87883,0.859896 -0.83734,0.857909 -1.1928,2.224186 -1.1064,3.388424 0.98093,-0.132948 2.14634,-0.593265 2.82877,-1.637628 -0.5092,1.022551 -1.36874,1.847834 -2.34663,2.366264 1.20204,0.405011 2.54109,0.185944 3.51969,-0.727604 0.88427,-0.829702 1.31765,-2.094291 1.17409,-3.37602 v -5.19e-4 c -0.0329,-0.293949 -0.0963,-0.586301 -0.19069,-0.872813 z M 11.769036,34.690583 c -0.344296,-0.0066 -0.67556,0.03578 -1.005627,0.179319 -0.9109713,0.557432 -1.4178355,1.676048 -1.428337,2.718697 0.903461,-0.04249 1.982756,-0.349525 2.717667,-1.081072 -0.571924,0.728118 -1.418231,1.348404 -2.3269933,1.74253 1.0734833,0.409676 2.2983323,0.234389 3.2395993,-0.388091 1.049926,-0.697994 1.583106,-1.831218 1.408183,-2.967778 -1.024451,0.06287 -1.84705,-0.189166 -2.604492,-0.203605 z m 138.053104,0.0057 c -0.75744,0.01444 -1.58005,0.266475 -2.60449,0.203605 -0.17493,1.136555 0.35826,2.269784 1.40818,2.967778 0.94126,0.622477 2.1656,0.797761 3.23908,0.388088 -0.90876,-0.394123 -1.75455,-1.014931 -2.32648,-1.743045 0.7349,0.731543 1.81369,1.038582 2.71715,1.081071 -0.0105,-1.042646 -0.51738,-2.160751 -1.42834,-2.718181 -0.33006,-0.143534 -0.66081,-0.185878 -1.0051,-0.179316 z M 1.8440558,38.189079 c -0.06342,0.303982 -0.094491,0.611235 -0.094051,0.915707 0.0019,1.327639 0.5926106,2.570882 1.5952521,3.316591 1.108995,0.820431 2.506966,0.887273 3.6907309,0.331764 -1.0623074,-0.416107 -2.0392565,-1.15952 -2.6799397,-2.146123 0.8207348,0.988672 2.0679378,1.322425 3.0881835,1.343589 -0.047863,-1.201976 -0.571673,-2.557494 -1.5291056,-3.336748 -1.1442345,-0.684498 -2.4042634,-0.07896 -4.07107,-0.42478 z m 157.9025442,0.0057 c -1.6668,0.345813 -2.92685,-0.259715 -4.07107,0.42478 -0.95744,0.779254 -1.48069,2.134781 -1.52859,3.336748 1.02024,-0.02116 2.26745,-0.355436 3.08818,-1.344104 -0.64068,0.986597 -1.61816,1.730536 -2.68045,2.146638 1.18375,0.555509 2.58174,0.488667 3.69073,-0.331761 1.00263,-0.745709 1.59325,-1.989476 1.59525,-3.31711 4e-4,-0.304469 -0.0307,-0.611209 -0.0941,-0.915191 z M 14.444325,40.146583 c -1.494469,0.266827 -2.636614,-0.188754 -3.649911,0.397906 -0.8546694,0.668404 -1.2363869,1.855089 -1.126029,2.907316 0.908153,-0.147883 1.962877,-0.58298 2.619999,-1.406631 -0.492901,0.801246 -1.275347,1.525765 -2.148193,2.028817 1.132542,0.288415 2.350272,-0.03047 3.229264,-0.767913 0.980108,-0.826421 1.386035,-2.032214 1.07487,-3.159495 z m 132.702525,0.0057 c -0.31117,1.127276 0.0948,2.333077 1.07487,3.159498 0.87898,0.737433 2.09673,1.056325 3.22926,0.767911 -0.87284,-0.50305 -1.65581,-1.227574 -2.14871,-2.028817 0.65711,0.82365 1.71236,1.258747 2.62051,1.406633 0.11053,-1.052351 -0.27123,-2.239325 -1.12603,-2.907834 -1.01328,-0.586658 -2.15544,-0.130564 -3.6499,-0.397391 z M 5.2443655,44.628995 C 4.2918584,44.597645 3.278273,44.99835 1.968596,44.878592 c -0.02959,0.318481 -0.025068,0.636648 0.010852,0.948264 0.1565209,1.358588 0.9064212,2.562698 2.0200322,3.209105 1.231331,0.710422 2.6699087,0.615484 3.8163043,-0.09147 -1.1359212,-0.301413 -2.2230364,-0.94851 -2.9941322,-1.883603 0.955522,0.916321 2.2710227,1.112531 3.317627,1.014926 C 7.9498483,46.85173 7.2561026,45.525689 6.1853934,44.839836 5.872693,44.698059 5.5618681,44.639446 5.2443655,44.628995 Z m 151.1024345,0.0052 c -0.3175,0.01045 -0.62833,0.06906 -0.94103,0.210841 -1.07068,0.68585 -1.76497,2.011897 -1.9544,3.235979 1.0466,0.0976 2.36263,-0.09861 3.31815,-1.014926 -0.77109,0.93509 -1.85823,1.582708 -2.99413,1.884121 1.14638,0.706951 2.58498,0.801886 3.8163,0.09147 1.11361,-0.646404 1.86299,-1.850525 2.01951,-3.209108 h 5.2e-4 c 0.0359,-0.311613 0.0399,-0.629782 0.0103,-0.948261 -1.30967,0.119755 -2.32275,-0.281461 -3.27526,-0.250116 z m -87.176617,0.198923 c -1.188961,0 -2.203804,0.118467 -3.044777,0.355534 -0.826466,0.225777 -1.500632,0.558638 -2.022615,0.998905 -0.521981,0.440264 -0.898687,0.982274 -1.130679,1.62574 -0.231992,0.632177 -0.3483,1.354511 -0.3483,2.167311 v 1.896523 c 0,0.8128 0.116308,1.540898 0.3483,2.184362 0.231992,0.632177 0.608698,1.168423 1.130679,1.608689 0.521983,0.440266 1.196149,0.778893 2.022615,1.015959 0.840973,0.225777 1.855816,0.338997 3.044777,0.338997 1.188961,0 2.197116,-0.11322 3.023587,-0.338997 0.840973,-0.237066 1.522338,-0.575693 2.044319,-1.015959 0.521983,-0.440266 0.898689,-0.976512 1.130681,-1.608689 0.231992,-0.643464 0.3483,-1.371562 0.3483,-2.184362 v -1.896523 c 0,-0.8128 -0.116308,-1.535134 -0.3483,-2.167311 -0.231992,-0.643466 -0.608698,-1.185476 -1.130681,-1.62574 -0.521981,-0.440267 -1.203346,-0.773128 -2.044319,-0.998905 -0.826471,-0.237067 -1.834626,-0.355534 -3.023587,-0.355534 z m -42.93278,0.168981 c -0.898969,0 -1.348238,0.350155 -1.348238,1.050065 v 10.803475 h 4.110343 v -8.466667 c 0,-0.19191 0.109103,-0.287837 0.326596,-0.287837 h 5.502506 v -3.099036 z m 14.289567,0 c -0.362487,0 -0.594585,0.124233 -0.696081,0.372587 l -4.654497,11.480953 h 4.371826 l 2.631365,-7.55251 h 0.08733 l 1.674315,4.436938 h -2.3921 l -1.022161,3.115572 H 49.53107 L 44.528792,45.374686 c -0.115991,-0.248354 -0.362501,-0.372587 -0.73949,-0.372587 z m 7.307565,0 4.654495,11.480953 c 0.115998,0.248354 0.362503,0.372587 0.739489,0.372587 h 3.262334 c 0.362487,0 0.594069,-0.124233 0.695565,-0.372587 L 61.92773,45.002099 h -4.371308 l -2.631882,7.417118 h -0.08681 l -2.522844,-7.417118 z m 31.797024,0 c -0.898969,0 -1.348237,0.350155 -1.348237,1.050065 v 10.803475 h 4.11086 v -8.585004 c 0,-0.191913 0.108585,-0.28784 0.326078,-0.28784 h 2.587956 c 0.521983,0 0.782897,0.214399 0.782897,0.643371 v 0.355537 c 0,0.169325 -0.05043,0.316105 -0.151929,0.440282 -0.087,0.112887 -0.27535,0.169497 -0.565341,0.169497 h -2.305801 v 2.67529 h 2.479437 c 0.275484,0 0.456636,0.06186 0.543634,0.186036 0.101496,0.112887 0.152445,0.254413 0.152445,0.423746 v 3.979085 h 4.08864 v -4.114993 c 0,-0.541867 -0.144608,-0.976418 -0.434599,-1.303798 -0.275492,-0.338667 -0.623377,-0.569838 -1.043863,-0.694015 0.376986,-0.169328 0.652311,-0.383726 0.826307,-0.643372 0.188491,-0.27093 0.28267,-0.688707 0.28267,-1.253151 v -0.694531 c 0,-2.099731 -1.370454,-3.14968 -4.11086,-3.14968 z m 13.354225,0 v 11.85354 h 4.11086 v -11.85354 z m 6.111772,0 v 3.099036 h 11.657204 v -3.099036 z m 14.963454,0 c -0.89896,0 -1.34875,0.350155 -1.34875,1.050065 v 9.736874 c 0,0.711198 0.44979,1.066601 1.34875,1.066601 h 8.59069 v -3.115572 h -5.5025 c -0.2175,0 -0.32608,-0.09593 -0.32608,-0.287838 v -5.063257 c 0,-0.19191 0.10858,-0.287837 0.32608,-0.287837 h 5.5025 v -3.099036 z m 15.13758,0 c -2.74041,0 -4.11086,1.049949 -4.11086,3.14968 v 1.422651 c 0,0.361244 0.0654,0.699871 0.19585,1.015958 0.1305,0.3048 0.33326,0.575804 0.60875,0.812871 0.28999,0.225777 0.6528,0.406104 1.08779,0.541568 0.44949,0.124179 0.98573,0.186552 1.60921,0.186552 h 3.5233 c 0.27548,0 0.46435,0.05085 0.56585,0.152445 0.10149,0.1016 0.15193,0.253622 0.15193,0.456822 v 0.35605 c 0,0.428977 -0.26092,0.643371 -0.7829,0.643371 h -6.69881 v 3.115572 h 7.24245 c 2.74041,0 4.11086,-1.049948 4.11086,-3.149679 v -1.219047 c 0,-0.89182 -0.29025,-1.574837 -0.87023,-2.04897 -0.56548,-0.485421 -1.51497,-0.72812 -2.84892,-0.72812 h -3.30626 c -0.47849,0 -0.71727,-0.203383 -0.71727,-0.609783 v -0.355534 c 0,-0.428977 0.26091,-0.643371 0.7829,-0.643371 h 6.37222 V 45.002099 Z M 15.120769,45.412926 c -1.47968,0.441412 -2.685892,0.113337 -3.642676,0.821655 -0.787153,0.772557 -1.036639,2.013355 -0.804601,3.061314 0.900598,-0.253738 1.917236,-0.813869 2.48719,-1.719791 -0.406448,0.864441 -1.115071,1.684805 -1.93942,2.292365 1.177158,0.160108 2.371066,-0.301733 3.175004,-1.146182 0.896146,-0.945812 1.168475,-2.208038 0.724503,-3.309361 z m 131.349121,0.0052 c -0.44397,1.10132 -0.17112,2.364071 0.72502,3.309877 0.80394,0.844447 1.99786,1.30629 3.175,1.146183 -0.82434,-0.607558 -1.5335,-1.428443 -1.93994,-2.292882 0.56995,0.905923 1.5866,1.466569 2.48719,1.720307 0.23204,-1.047953 -0.0174,-2.289275 -0.8046,-3.061829 -0.95677,-0.708316 -2.163,-0.380246 -3.64267,-0.821656 z m -77.299707,2.513542 c 0.463984,2e-6 0.84841,0.03983 1.152901,0.118856 0.318989,0.06773 0.572698,0.186203 0.761193,0.355534 0.188497,0.169333 0.319214,0.395258 0.391708,0.677479 0.087,0.282223 0.130225,0.626096 0.130225,1.032494 v 1.625743 c 0,0.406397 -0.04323,0.750789 -0.130225,1.03301 -0.0725,0.282223 -0.203214,0.508145 -0.391708,0.677478 -0.188495,0.169334 -0.442204,0.293566 -0.761193,0.372587 -0.304491,0.06773 -0.688917,0.101288 -1.152901,0.101288 -0.463984,0 -0.855099,-0.03355 -1.174088,-0.101288 -0.304491,-0.07902 -0.550998,-0.203253 -0.73949,-0.372587 -0.188494,-0.169333 -0.326416,-0.395255 -0.413411,-0.677478 -0.0725,-0.282221 -0.108522,-0.626613 -0.108522,-1.03301 v -1.625776 c 0,-0.406398 0.03603,-0.750271 0.108522,-1.032494 0.087,-0.282221 0.224917,-0.508146 0.413411,-0.677479 0.188492,-0.169331 0.434999,-0.287801 0.73949,-0.355534 0.318989,-0.07902 0.710104,-0.118854 1.174088,-0.118856 z m 33.711667,0.694531 v 8.229473 h 4.11034 v -8.229473 z m -73.207964,0.829408 v 2.811198 h 5.111316 v -2.811198 z m 87.823604,0 v 2.811198 h 5.1108 V 49.455574 Z M 16.39511,50.617261 c -1.444261,0.614553 -2.699741,0.423043 -3.585311,1.246434 -0.707169,0.868683 -0.817968,2.147173 -0.464054,3.175519 0.879879,-0.359739 1.842068,-1.041543 2.314587,-2.018999 -0.31224,0.916744 -0.93417,1.825032 -1.696537,2.532144 1.205529,0.02452 2.355467,-0.575918 3.073714,-1.521869 0.797013,-1.054984 0.930101,-2.355766 0.357601,-3.413229 z m 128.80095,0.0052 c -0.5725,1.057457 -0.4394,2.358249 0.3576,3.413228 0.71825,0.945946 1.86819,1.54639 3.07372,1.52187 -0.76237,-0.707107 -1.38482,-1.614887 -1.69706,-2.531629 0.47245,0.977297 1.43483,1.6587 2.31459,2.018483 0.35391,-1.02834 0.24363,-2.306323 -0.46354,-3.175 -0.88557,-0.823389 -2.14106,-0.632402 -3.58531,-1.246952 z M 6.4401583,51.022921 c -1.059467,-0.0026 -2.0981598,0.614582 -3.5641234,0.646988 0.0071,0.329403 0.048565,0.654193 0.1219562,0.968933 0.320045,1.372542 1.2296889,2.517601 2.4448119,3.047876 1.3431377,0.58213 2.8010882,0.314105 3.8886516,-0.543636 -1.1963458,-0.173777 -2.3839358,-0.707185 -3.282487,-1.573547 1.0848835,0.825339 2.4529637,0.870516 3.5108967,0.647504 C 9.2219951,52.988936 8.3569415,51.714981 7.1822318,51.138676 6.9300124,51.057298 6.6846505,51.023516 6.4401583,51.022921 Z m 148.7108517,0.0057 c -0.24449,5.98e-4 -0.49037,0.03386 -0.74259,0.115239 -1.1747,0.576302 -2.03924,1.850782 -2.37712,3.078882 1.05793,0.22301 2.4255,0.177829 3.51039,-0.647507 -0.89856,0.86636 -2.08564,1.399255 -3.28198,1.573032 1.08756,0.857737 2.54501,1.126281 3.88814,0.544153 1.21512,-0.530273 2.12476,-1.675341 2.44481,-3.047878 0.0733,-0.314735 0.11547,-0.640045 0.12247,-0.969449 -1.46596,-0.03241 -2.50465,-0.649057 -3.56412,-0.646472 z M 18.254945,55.67845 c -1.386691,0.785747 -2.674122,0.739621 -3.473173,1.670699 -0.614079,0.955993 -0.579096,2.254546 -0.103353,3.24683 0.844994,-0.465586 1.736107,-1.264711 2.100647,-2.301668 -0.209964,0.957047 -0.732538,1.942563 -1.418518,2.743502 1.217525,-0.118485 2.30602,-0.85852 2.921268,-1.892908 0.681988,-1.152909 0.669254,-2.472141 -0.02687,-3.466455 z m 125.081285,0.0052 c -0.69609,0.99431 -0.70885,2.314067 -0.0269,3.466972 0.61524,1.034382 1.70323,1.774422 2.92075,1.892907 -0.68598,-0.800935 -1.20804,-1.786975 -1.418,-2.744018 0.36453,1.036952 1.25514,1.836084 2.10013,2.301668 0.47576,-0.99228 0.51123,-2.290841 -0.10284,-3.24683 -0.79905,-0.931074 -2.08648,-0.884955 -3.47317,-1.670699 z M 8.4141979,57.376021 c -1.184579,0.02029 -2.205382,0.876656 -3.8132038,1.098124 0.04677,0.336161 0.1284798,0.663324 0.2413288,0.976684 0.4922219,1.366783 1.5604569,2.430248 2.8654581,2.826701 1.4420977,0.434103 2.895728,-0.0176 3.900537,-1.024227 -1.241309,-0.03248 -2.5179102,-0.434306 -3.5398353,-1.212845 1.2069895,0.714353 2.6081673,0.596321 3.6602443,0.241328 C 11.23598,59.070229 10.20156,57.872202 8.9340629,57.42253 8.7559745,57.38701 8.5834235,57.37312 8.4141979,57.376021 Z m 144.7622521,0.0052 c -0.16922,-0.0029 -0.34177,0.0115 -0.51986,0.04703 -1.26749,0.449671 -2.30139,1.647188 -2.79415,2.85874 1.05207,0.354992 2.45275,0.473538 3.65973,-0.240812 -1.02192,0.778535 -2.29853,1.180366 -3.53984,1.212846 1.00482,1.006623 2.45897,1.458328 3.90106,1.024227 1.30499,-0.396451 2.37325,-1.459925 2.86546,-2.826701 0.11285,-0.31336 0.19452,-0.640525 0.24133,-0.976685 -1.60783,-0.22147 -2.62915,-1.078352 -3.81373,-1.098645 z M 20.688388,60.508129 c -1.305208,0.95423 -2.606641,1.063404 -3.302641,2.093929 -0.506965,1.033322 -0.318612,2.33277 0.278536,3.271118 0.794748,-0.571059 1.595841,-1.48203 1.841231,-2.565218 -0.09929,0.984342 -0.508008,2.037646 -1.102258,2.92592 1.210898,-0.269175 2.216421,-1.147061 2.71353,-2.258777 0.55013,-1.238386 0.385454,-2.55638 -0.428398,-3.466972 z m 120.214392,0.0057 c -0.81385,0.910588 -0.97904,2.228075 -0.42891,3.466455 0.49711,1.111712 1.50316,1.989603 2.71405,2.258776 -0.59424,-0.88827 -1.00348,-1.941581 -1.10278,-2.925919 0.24545,1.083444 1.04682,1.995221 1.84175,2.566252 0.59734,-0.938373 0.78557,-2.238699 0.27853,-3.272152 -0.69599,-1.030521 -1.99742,-1.139187 -3.30264,-2.093412 z m -129.709424,3.07268 c -1.3369726,0.04123 -2.2867138,1.154493 -4.0137079,1.604554 0.089366,0.338155 0.2131803,0.663098 0.3674195,0.969966 0.6728518,1.338673 1.8971744,2.295407 3.2778354,2.538863 1.525446,0.264886 2.947663,-0.380046 3.843181,-1.532206 -1.268324,0.123245 -2.619099,-0.127261 -3.758431,-0.796851 1.31981,0.581219 2.731924,0.285043 3.758431,-0.208256 -0.653527,-1.171581 -1.8556,-2.264916 -3.201876,-2.569352 -0.09292,-0.0073 -0.18372,-0.0095 -0.272852,-0.0067 z m 139.204454,0.0057 c -0.0891,-0.0027 -0.17993,-0.0011 -0.27285,0.0062 -1.34627,0.304434 -2.54835,1.397776 -3.20187,2.569352 1.0265,0.493297 2.43863,0.789471 3.75843,0.208256 -1.13933,0.669587 -2.49011,0.920612 -3.75843,0.797367 0.89552,1.152155 2.31723,1.797091 3.84266,1.532207 1.38052,-0.243431 2.60494,-1.200409 3.27784,-2.538863 v -5.17e-4 c 0.15414,-0.306745 0.27857,-0.63145 0.36793,-0.96945 -1.72699,-0.45006 -2.67674,-1.56332 -4.01371,-1.604552 z M 23.680453,65.015865 c -1.198313,1.119411 -2.493525,1.392767 -3.069063,2.513541 -0.320704,0.915989 -0.134127,1.959377 0.357601,2.78691 0.09715,0.16271 0.20593,0.316374 0.324011,0.457853 0.468464,-0.435094 0.92245,-1.011624 1.21698,-1.661914 0.1634,-0.361832 0.27784,-0.747359 0.318844,-1.146183 0.0062,0.309202 -0.01655,0.627217 -0.0646,0.947229 -0.107319,0.713315 -0.345174,1.450857 -0.682129,2.122868 1.184678,-0.432329 2.084845,-1.450687 2.447913,-2.621029 0.105341,-0.342548 0.159993,-0.683368 0.166915,-1.012341 0.02041,-0.933919 -0.329728,-1.789312 -1.016476,-2.386934 z m 114.230267,0.0052 c -0.68676,0.597621 -1.03688,1.45302 -1.01648,2.386934 0.007,0.32897 0.0611,0.670311 0.1664,1.012858 0.36305,1.170336 1.26323,2.188185 2.44791,2.620512 -0.33696,-0.672008 -0.57481,-1.409556 -0.68212,-2.122867 -0.0481,-0.320011 -0.0701,-0.638028 -0.0641,-0.94723 0.041,0.398823 0.15544,0.784354 0.31884,1.146184 0.29453,0.650288 0.74851,1.226822 1.21698,1.661914 0.11808,-0.14148 0.22691,-0.294628 0.32401,-0.457337 0.49172,-0.827529 0.67831,-1.870925 0.3576,-2.786909 -0.57553,-1.120769 -1.87077,-1.394651 -3.06906,-2.514059 z M 14.803476,69.538069 c -1.528161,0.06961 -2.344291,1.450305 -4.158406,2.170927 0.135107,0.334687 0.30435,0.65115 0.501777,0.945678 0.861632,1.285401 2.237389,2.108978 3.677299,2.178679 0.122919,0.0057 0.244526,0.0058 0.364836,5.17e-4 1.434977,-0.05534 2.644255,-0.872466 3.342432,-2.067574 -0.285786,0.06581 -0.578596,0.11259 -0.875399,0.139526 -1.025342,0.09505 -2.091105,-0.04747 -3.056661,-0.463021 1.421007,0.424163 2.818683,-0.06356 3.797701,-0.701249 -0.819667,-1.105427 -2.185072,-2.063976 -3.593579,-2.203483 z m 131.984224,0.0057 c -1.40849,0.139507 -2.77444,1.097546 -3.5941,2.202967 0.97901,0.637691 2.37722,1.12541 3.79822,0.701249 -0.96555,0.415547 -2.03132,0.558587 -3.05666,0.463537 -0.29681,-0.02694 -0.58963,-0.07423 -0.8754,-0.140043 0.69817,1.195103 1.90695,2.012234 3.34192,2.067574 0.12029,0.0052 0.24191,0.0057 0.36483,0 1.4399,-0.0697 2.81567,-0.893284 3.67729,-2.178678 h 5.2e-4 c 0.19742,-0.294528 0.36668,-0.611509 0.50178,-0.946195 -1.8141,-0.72062 -2.63024,-2.100801 -4.1584,-2.170411 z" />
  <g
     transform="translate(-18.234963,-45.153919)"
     display="none"
     fill-rule="evenodd"
     id="g25">
    <rect
       x="8.8053999"
       y="31.530001"
       width="180.44"
       height="89.271004"
       ry="0"
       style="paint-order:normal"
       id="rect21" />
    <rect
       x="9.6807003"
       y="27.329"
       width="178.69"
       height="100.3"
       ry="0"
       fill="#dcdcdc"
       style="paint-order:normal"
       id="rect23" />
  </g>
  <path
     id="path997"
     style="fill:#ffffff;fill-opacity:1;stroke:none;stroke-width:3.5;stroke-linejoin:round;stroke-miterlimit:4;stroke-dasharray:none;stroke-opacity:1;paint-order:normal"
     d="m 22.943031,1.7499594 c -0.260199,0.06919 -0.511032,0.164785 -0.747758,0.28267 -1.03656,0.516056 -1.763184,1.437285 -1.935283,2.444813 -0.187188,1.112872 0.325928,2.101864 1.177706,2.698544 -0.117045,-0.903518 0.04844,-1.88177 0.550354,-2.719731 -0.436375,0.96367 -0.196459,1.969267 0.176217,2.685624 0.82754,-0.497766 1.620517,-1.375067 1.864485,-2.332676 0.110199,-1.062974 -0.781593,-1.739691 -1.085721,-3.059244 z m 115.705109,0.0057 c -0.30411,1.319548 -1.19643,1.996273 -1.08624,3.059244 0.24397,0.957601 1.03747,1.834909 1.86501,2.332673 0.37267,-0.716354 0.61259,-1.721956 0.17621,-2.685624 0.50192,0.837956 0.6674,1.816219 0.55036,2.719731 0.85177,-0.596675 1.36489,-1.585674 1.1777,-2.698543 -0.1721,-1.007523 -0.89872,-1.928757 -1.93528,-2.444811 -0.23673,-0.117885 -0.48756,-0.213482 -0.74776,-0.28267 z M 17.617774,4.7399574 c -0.2476,0.123285 -0.479851,0.270951 -0.693497,0.438734 -0.935178,0.73446 -1.473739,1.818434 -1.435572,2.878895 0.04515,1.170604 0.770836,2.0742876 1.761133,2.5083736 -0.306616,-0.8965246 -0.343697,-1.9268706 -0.01344,-2.8819946 -0.237092,1.069893 0.216367,2.045451 0.745175,2.6990586 0.739507,-0.6783646 1.360175,-1.7371216 1.400947,-2.7626226 -0.117688,-1.103545 -1.169247,-1.605108 -1.76475,-2.880444 z m 126.355106,0.0057 c -0.5955,1.275328 -1.64653,1.776901 -1.76423,2.880444 0.0408,1.025493 0.66145,2.083742 1.40095,2.7621046 0.5288,-0.6536056 0.98226,-1.6286536 0.74517,-2.6985436 0.33029,0.955122 0.29318,1.985473 -0.0134,2.8819946 0.99029,-0.434086 1.71593,-1.3377726 1.76113,-2.5083736 0.0382,-1.060455 -0.50039,-2.144438 -1.43557,-2.878894 v -5.16e-4 c -0.21364,-0.167783 -0.44641,-0.314934 -0.69402,-0.438216 z M 23.639112,6.7971984 C 20.338694,8.6088934 17.460881,11.195467 15.21482,14.212249 11.404456,19.33087 9.2544725,25.530581 8.3930106,31.810657 6.4621269,45.835341 10.471559,60.59797 19.200107,71.699177 c 2.921864,3.7188 6.437156,7.031612 10.462927,9.499679 -2.133823,-2.011477 -3.948291,-4.256313 -5.486487,-6.624919 -1.294598,-1.2197 -2.515588,-2.530458 -3.656624,-3.906221 C 11.822505,60.142067 7.5006268,45.783036 9.0823742,31.907807 9.7920566,25.701121 11.757465,19.529347 15.420492,14.367795 c 2.15764,-3.039933 4.958734,-5.6835356 8.21862,-7.5705966 z m 114.312438,0.0052 v 5.16e-4 c 3.25986,1.887056 6.06098,4.5306796 8.21862,7.5705966 3.663,5.161531 5.62894,11.33335 6.33863,17.540015 1.58174,13.875168 -2.74017,28.233787 -11.43755,38.75939 -1.14103,1.375757 -2.36255,2.686527 -3.65714,3.906222 -1.53819,2.368595 -3.35215,4.613451 -5.48597,6.624918 4.02576,-2.468055 7.54107,-5.780894 10.46293,-9.499678 8.72851,-11.101158 12.73744,-25.863382 10.80657,-39.888005 -0.86146,-6.280049 -3.01095,-12.479808 -6.82129,-17.598408 -2.24619,-3.016959 -5.12415,-5.6038616 -8.4248,-7.4155666 z M 24.522779,7.3981944 c -0.543649,0.0087 -1.09399,0.176188 -1.550809,0.464055 0.473916,0.662384 1.231479,1.323007 2.113049,1.553393 -0.797976,-0.106416 -1.679946,-0.447728 -2.425692,-0.929659 0.222962,1.010841 0.981276,1.8294686 1.881539,2.2479236 1.009392,0.466251 2.036455,0.37915 2.756421,-0.213424 C 26.587284,9.3872254 26.554972,8.3062384 25.731491,7.6849974 25.364356,7.4806354 24.945617,7.3914364 24.522779,7.3981944 Z m 112.545611,0.0052 c -0.42283,-0.0068 -0.84158,0.08296 -1.20871,0.287322 -0.82348,0.621236 -0.85579,1.702233 -1.56579,2.8354836 0.71997,0.592571 1.74704,0.679674 2.75642,0.213426 0.90026,-0.418455 1.65806,-1.2376046 1.88102,-2.2484426 -0.74574,0.481928 -1.6272,0.823762 -2.42518,0.930175 0.88157,-0.230384 1.63914,-0.891011 2.11305,-1.553393 -0.45681,-0.287864 -1.00716,-0.455882 -1.55081,-0.464571 z M 12.913152,8.8198134 c -0.224681,0.174892 -0.429149,0.37157 -0.610299,0.584975 -0.48535,0.571752 -0.797723,1.2544716 -0.904341,1.9461346 -0.06271,0.425813 -0.04727,0.850755 0.05013,1.255739 0.284071,1.168186 1.188819,1.946264 2.274284,2.196764 -0.369837,-0.645488 -0.600309,-1.399074 -0.629936,-2.181778 -0.008,-0.243396 0.0037,-0.488122 0.03669,-0.73174 -0.0059,0.296897 0.03485,0.578401 0.110071,0.841809 0.214009,0.737296 0.695198,1.332093 1.186491,1.745631 0.133413,-0.180491 0.25621,-0.375883 0.364836,-0.581877 0.396835,-0.75126 0.629751,-1.667838 0.497644,-2.498555 C 14.94513,10.298098 13.778359,9.9979314 12.913156,8.8198134 Z m 135.764868,0.0057 c -0.86519,1.1781126 -2.03249,1.4782936 -2.37608,2.5771026 -0.13212,0.830717 0.10134,1.7473 0.49816,2.498555 0.10864,0.205994 0.23092,0.401389 0.36432,0.581877 0.49129,-0.413535 0.973,-1.008335 1.18701,-1.745628 0.0752,-0.263408 0.11607,-0.545433 0.11007,-0.842327 0.0326,0.243617 0.0447,0.488862 0.0367,0.732255 -0.0296,0.782704 -0.26062,1.535779 -0.63046,2.181262 1.08547,-0.250497 1.99072,-1.028065 2.2748,-2.196248 0.0974,-0.404982 0.11283,-0.830445 0.0501,-1.256255 -0.10662,-0.69166 -0.41898,-1.3738666 -0.90434,-1.9456156 -0.18115,-0.213407 -0.38561,-0.410085 -0.6103,-0.584978 z M 20.657899,10.486894 c -0.731433,0.02564 -1.463769,0.369152 -1.982825,0.884701 0.61989,0.555471 1.524129,1.048396 2.457731,1.076936 -0.823116,0.07625 -1.778445,-0.06975 -2.62878,-0.387572 0.446351,0.957506 1.375014,1.61031 2.376599,1.82831 1.117753,0.240565 2.121211,-0.07229 2.720764,-0.858861 -0.973006,-0.960088 -1.256195,-2.030217 -2.220019,-2.45773 -0.235678,-0.06751 -0.479659,-0.09433 -0.72347,-0.08578 z m 120.092441,0.0057 c -0.18245,0.0071 -0.36378,0.03515 -0.54054,0.08578 -0.96382,0.427514 -1.24753,1.497647 -2.22053,2.45773 0.59955,0.786567 1.60353,1.099426 2.72128,0.858864 1.00158,-0.218001 1.93025,-0.87081 2.3766,-1.828313 -0.85034,0.317818 -1.80566,0.463823 -2.62878,0.387572 0.9336,-0.02854 1.83732,-0.521467 2.45721,-1.076936 -0.5623,-0.558506 -1.37463,-0.915424 -2.16524,-0.8847 z M 9.0482679,13.791085 c -0.1919118,0.212884 -0.3602017,0.443741 -0.5022951,0.686263 -0.6209003,1.059775 -0.7328651,2.309485 -0.2945556,3.335197 0.4867378,1.131068 1.5405158,1.775796 2.6907918,1.851049 -0.63759,-0.780251 -1.061095,-1.784858 -1.1043253,-2.843236 0.1795683,1.137901 0.9938183,1.938882 1.7663003,2.39572 0.484888,-0.947539 0.691935,-2.226638 0.326082,-3.25665 -0.552091,-1.044298 -1.785201,-1.1409 -2.8819981,-2.168343 z m 143.4946321,0.0057 c -1.09679,1.027438 -2.33043,1.123535 -2.88251,2.167827 -0.36584,1.03001 -0.1588,2.309632 0.32608,3.257166 0.77248,-0.456835 1.58725,-1.257821 1.76682,-2.39572 -0.0432,1.058376 -0.46674,2.062991 -1.10433,2.843239 1.15028,-0.07526 2.20353,-0.719987 2.69028,-1.851051 0.4383,-1.025708 0.32634,-2.275425 -0.29456,-3.335198 -0.1421,-0.242519 -0.30987,-0.473379 -0.50178,-0.686263 z M 17.489617,14.380712 c -0.500727,0.01213 -0.993215,0.187229 -1.421619,0.472839 -0.354861,0.236816 -0.660143,0.544642 -0.886251,0.885219 0.729447,0.425236 1.727491,0.730269 2.669088,0.560689 -0.810597,0.250741 -1.789092,0.30221 -2.698543,0.157097 0.637058,0.861174 1.6928,1.325348 2.733166,1.332735 0.589358,0.0028 1.131545,-0.139943 1.574581,-0.391708 0.42771,-0.239728 0.767024,-0.587864 0.983403,-1.036113 -1.177266,-0.749237 -1.687278,-1.75328 -2.738851,-1.975588 -0.07172,-0.0051 -0.143442,-0.0069 -0.214974,-0.0052 z m 126.611943,0.0057 c -0.0715,-0.0017 -0.14326,-4.08e-4 -0.21498,0.0047 -1.05156,0.222308 -1.56159,1.226873 -2.73885,1.976107 0.21639,0.448246 0.55519,0.796385 0.98289,1.036111 0.44304,0.251767 0.98575,0.394507 1.57509,0.391707 1.04037,-0.0074 2.0956,-0.471561 2.73266,-1.332735 -0.90945,0.145113 -1.88743,0.09364 -2.69803,-0.157096 0.9416,0.169579 1.93913,-0.13597 2.66857,-0.561205 -0.22611,-0.340575 -0.53138,-0.648404 -0.88625,-0.885219 -0.4284,-0.285605 -0.92038,-0.460196 -1.4211,-0.472321 z M 14.823113,18.898784 c -1.004582,0.120365 -1.873962,0.8983 -2.273763,1.811774 0.80569,0.298797 1.859842,0.430414 2.76934,0.08578 -0.764727,0.40273 -1.734245,0.627432 -2.673222,0.63872 0.789245,0.75443 1.929253,1.042823 2.973979,0.86093 1.167622,-0.206198 2.033588,-0.950489 2.304769,-1.951818 -1.315724,-0.516914 -2.011656,-1.424445 -3.101103,-1.44539 z m 131.944947,0.0052 c -1.08945,0.02094 -1.78539,0.928997 -3.1011,1.445905 0.27117,1.001326 1.13715,1.745105 2.30477,1.951302 1.04471,0.181893 2.18422,-0.105987 2.97346,-0.860412 -0.93897,-0.01129 -1.90798,-0.235992 -2.67271,-0.63872 0.9095,0.344628 1.96365,0.213011 2.76934,-0.08578 -0.39979,-0.913471 -1.26919,-1.691928 -2.27376,-1.812292 z M 6.0226128,19.340099 c -0.1613064,0.244035 -0.2950075,0.502139 -0.4010091,0.768429 -0.4629476,1.163055 -0.3798234,2.443528 0.2289264,3.419946 0.6745571,1.075775 1.8510409,1.581036 3.0421916,1.486215 -0.7724349,-0.702046 -1.3620043,-1.66247 -1.5740642,-2.730066 0.3642956,1.128056 1.3217745,1.822296 2.184363,2.172478 C 9.8548499,23.412814 9.8638656,22.07597 9.3221529,21.08573 8.5883162,20.111457 7.3109653,20.207305 6.0226128,19.340099 Z m 149.5454272,0.0057 c -1.28835,0.867201 -2.56519,0.771363 -3.29902,1.74563 -0.54171,0.990235 -0.53322,2.327088 -0.18139,3.371369 0.8626,-0.350176 1.82059,-1.044424 2.18488,-2.172475 -0.21205,1.067591 -0.80215,2.027504 -1.57458,2.729547 1.19114,0.09482 2.36763,-0.410445 3.04219,-1.486215 0.60874,-0.976413 0.69239,-2.25638 0.22944,-3.419427 v -5.19e-4 c -0.106,-0.266287 -0.24021,-0.523877 -0.40152,-0.76791 z m -142.6275,4.555264 c -0.06706,0.0028 -0.134778,0.0092 -0.203605,0.01912 -0.99143,0.287292 -1.743541,1.210064 -2.005566,2.19108 0.859053,0.177491 1.944794,0.147987 2.809652,-0.349332 -0.710253,0.533506 -1.654709,0.911485 -2.601913,1.065567 0.911225,0.641409 2.104526,0.762953 3.134697,0.41238 1.15115,-0.394793 1.914125,-1.301025 2.024682,-2.375567 -1.322781,-0.281387 -2.152046,-1.004818 -3.157947,-0.963248 z m 135.71009,0.0057 c -1.00589,-0.04157 -1.83569,0.681863 -3.15846,0.96325 0.11055,1.074537 0.87353,1.980774 2.02468,2.375564 1.03017,0.350573 2.22347,0.22851 3.1347,-0.412895 -0.94721,-0.15408 -1.89115,-0.531546 -2.6014,-1.065051 0.86485,0.497318 1.9506,0.526822 2.80965,0.349334 -0.26201,-0.981014 -1.01413,-1.903791 -2.00556,-2.19108 -0.0688,-0.0099 -0.13655,-0.01635 -0.20361,-0.01912 z M 3.8217134,25.35162 c -0.1279628,0.269679 -0.2262055,0.549251 -0.2945556,0.83354 -0.298377,1.240915 -0.024681,2.526245 0.7363891,3.434932 0.8423029,1.00039 2.1112652,1.360274 3.3145264,1.104326 C 6.6931746,30.112739 5.955329,29.214216 5.5838799,28.158682 6.119822,29.25493 7.1950529,29.833598 8.1253266,30.07381 8.341029,28.958785 8.1596573,27.592696 7.458184,26.659032 6.5633002,25.770154 5.2705809,26.04899 3.8217134,25.35162 Z m 153.9477466,0.0052 c -1.44887,0.697368 -2.7416,0.419055 -3.63647,1.307931 -0.70153,0.933659 -0.88285,2.29924 -0.66715,3.414262 0.93027,-0.240215 2.00551,-0.818372 2.54145,-1.914612 -0.37145,1.055526 -1.10981,1.954059 -1.99471,2.565734 1.20326,0.255947 2.47274,-0.103942 3.31504,-1.104326 0.76104,-0.90868 1.03425,-2.194023 0.73588,-3.434932 -0.0683,-0.284287 -0.16608,-0.56438 -0.29404,-0.834057 z m -44.01179,0.364837 v 0.640786 h 0.64079 v -0.640786 z m -78.546655,1.708938 v 0.640787 h 0.640788 v -0.640787 z m 0.854212,0 v 0.640787 h 0.640788 v -0.640787 z m 0.854728,0 v 0.640787 h 0.640271 v -0.640787 z m 0.854211,0 v 0.640787 h 0.640788 v -0.640787 z m 3.413746,0 v 0.640787 H 41.8287 v -0.640787 z m 0.854212,0 v 0.640787 h 0.640786 v -0.640787 z m 0.854728,0 v 0.640787 h 0.640787 v -0.640787 z m 2.559532,0 v 0.640787 h 0.640789 v -0.640787 z m 0.854728,0 v 0.640787 h 0.640789 v -0.640787 z m 1.708423,0 v 0.640787 h 0.640789 v -0.640787 z m 0.854728,0 v 0.640787 h 0.640789 v -0.640787 z m 2.56005,0 v 0.640787 h 0.640789 v -0.640787 z m 0.854213,0 v 0.640787 h 0.640786 v -0.640787 z m 0.854728,0 v 0.640787 h 0.640787 v -0.640787 z m 0.85421,0 v 0.640787 h 0.640789 v -0.640787 z m 2.559534,0 v 0.640787 h 0.64079 v -0.640787 z m 0.854213,0 v 0.640787 h 0.640786 v -0.640787 z m 0.85421,0 v 0.640787 h 0.640789 v -0.640787 z m 2.559534,0 v 0.640787 h 0.640789 v -0.640787 z m 1.708941,0 v 0.640787 h 0.640787 v -0.640787 z m 0.85421,0 v 0.640787 h 0.640789 v -0.640787 z m 3.414779,0 v 0.640787 h 0.640789 v -0.640787 z m 0.854728,0 v 0.640787 h 0.640789 v -0.640787 z m 0.854213,0 v 0.640787 h 0.640786 v -0.640787 z m 2.559015,0 v 0.640787 h 0.640789 v -0.640787 z m 11.100615,0 v 0.640787 h 0.640787 v -0.640787 z m 0.85421,0 v 0.640787 h 0.640789 v -0.640787 z m 0.854213,0 v 0.640787 h 0.640789 v -0.640787 z m 0.854728,0 v 0.640787 h 0.640787 v -0.640787 z m 2.554367,0 v 0.640787 h 0.640786 v -0.640787 z m 0.85421,0 v 0.640787 h 0.640789 v -0.640787 z m 0.854728,0 v 0.640787 h 0.640271 v -0.640787 z m 2.561085,0 v 0.640787 h 0.640786 v -0.640787 z m 5.979996,0 v 0.640787 h 0.640789 v -0.640787 z m 0.854213,0 v 0.640787 h 0.640786 v -0.640787 z m 0.85421,0 v 0.640787 h 0.640789 v -0.640787 z m 3.411704,0 v 0.640787 h 0.64079 v -0.640787 z m 0.85422,0 v 0.640787 h 0.64078 v -0.640787 z m 0.85421,0 v 0.640787 h 0.64079 v -0.640787 z m 2.56263,0 v 0.640787 h 0.64079 v -0.640787 z m 0.85473,0 v 0.640787 h 0.64027 v -0.640787 z m 0.85421,0 v 0.640787 h 0.64079 v -0.640787 z m 0.85421,0 v 0.640787 h 0.64079 v -0.640787 z m 0.85422,0 v 0.640787 h 0.64078 v -0.640787 z m 1.7017,0 v 0.640787 h 0.64079 v -0.640787 z m 0.85421,0 v 0.640787 h 0.64079 v -0.640787 z m 0.85421,0 v 0.640787 h 0.64079 v -0.640787 z m 4.27158,0 v 0.640787 h 0.64027 v -0.640787 z m 0.85421,0 v 0.640787 h 0.64079 v -0.640787 z m 0.85421,0 v 0.640787 h 0.64079 v -0.640787 z m 2.5616,0 v 0.640787 h 0.64027 v -0.640787 z m 1.70842,0 v 0.640787 h 0.64079 v -0.640787 z m 0.85421,0 v 0.640787 h 0.64079 v -0.640787 z m -89.650885,0.854213 v 0.640786 h 0.640788 v -0.640786 z m 3.417363,0 v 0.640786 h 0.640788 v -0.640786 z m 1.705322,0 v 0.640786 h 0.640788 v -0.640786 z m 3.417362,0 v 0.640786 h 0.640789 v -0.640786 z m 2.56005,0 v 0.640786 h 0.640789 v -0.640786 z m 0.854213,0 v 0.640786 h 0.640786 v -0.640786 z m 3.414778,0 v 0.640786 h 0.640787 v -0.640786 z m 5.122686,0 v 0.640786 h 0.640786 v -0.640786 z m 3.41736,0 v 0.640786 h 0.64079 v -0.640786 z m 1.704806,0 v 0.640786 h 0.640789 v -0.640786 z m 0.854213,0 v 0.640786 h 0.640786 v -0.640786 z m 2.563151,0 v 0.640786 h 0.640786 v -0.640786 z m 5.123717,0 v 0.640786 h 0.640789 v -0.640786 z m 1.704805,0 v 0.640786 h 0.640789 v -0.640786 z m 10.246403,0 v 0.640786 h 0.640789 v -0.640786 z m 5.117517,0 v 0.640786 h 0.640789 v -0.640786 z m 3.417364,0 v 0.640786 h 0.640786 v -0.640786 z m 1.706872,0 v 0.640786 h 0.640786 v -0.640786 z m 5.125783,0 v 0.640786 h 0.64079 v -0.640786 z m 3.41736,0 v 0.640786 h 0.64079 v -0.640786 z m 1.70277,0 v 0.640786 h 0.64079 v -0.640786 z m 3.41737,0 v 0.640786 h 0.64078 v -0.640786 z m 3.41684,0 v 0.640786 h 0.64079 v -0.640786 z m 5.11855,0 v 0.640786 h 0.64079 v -0.640786 z m 3.41685,0 v 0.640786 h 0.64079 v -0.640786 z m 3.41736,0 v 0.640786 h 0.64079 v -0.640786 z m 1.70739,0 v 0.640786 h 0.64027 v -0.640786 z m 0.85421,0 v 0.640786 h 0.64079 v -0.640786 z m 2.56315,0 v 0.640786 h 0.64079 v -0.640786 z m -85.38293,0.85421 v 0.640789 h 0.640788 v -0.640789 z m 0.854212,0 v 0.640789 H 41.8287 v -0.640789 z m 0.854212,0 v 0.640789 h 0.640786 v -0.640789 z m 0.854728,0 v 0.640789 h 0.640787 v -0.640789 z m 0.85421,0 v 0.640789 h 0.640789 v -0.640789 z m 2.56005,0 v 0.640789 h 0.640789 v -0.640789 z m 5.123201,0 v 0.640789 h 0.640789 v -0.640789 z m 4.268476,0 v 0.640789 h 0.640786 v -0.640789 z m 3.41736,0 v 0.640789 h 0.64079 v -0.640789 z m 7.682736,0 v 0.640789 h 0.640789 v -0.640789 z m 0.854728,0 v 0.640789 h 0.640789 v -0.640789 z m 0.854213,0 v 0.640789 h 0.640786 v -0.640789 z m 0.85421,0 v 0.640789 h 0.640789 v -0.640789 z m 12.80542,0 v 0.640789 h 0.640787 v -0.640789 z m 4.263305,0 v 0.640789 h 0.640789 v -0.640789 z m 0.854213,0 v 0.640789 h 0.640786 v -0.640789 z m 0.85421,0 v 0.640789 h 0.640789 v -0.640789 z m 0.854728,0 v 0.640789 h 0.640789 v -0.640789 z m 0.854213,0 v 0.640789 h 0.640786 v -0.640789 z m 6.832655,0 v 0.640789 h 0.64079 v -0.640789 z m 0.854213,0 v 0.640789 h 0.640789 v -0.640789 z m 0.854213,0 v 0.640789 h 0.640786 v -0.640789 z m 0.854725,0 v 0.640789 h 0.64079 v -0.640789 z m 0.854209,0 v 0.640789 h 0.64079 v -0.640789 z m 1.70277,0 v 0.640789 h 0.64079 v -0.640789 z m 6.83421,0 v 0.640789 h 0.64079 v -0.640789 z m 5.11855,0 v 0.640789 h 0.64079 v -0.640789 z m 3.41685,0 v 0.640789 h 0.64079 v -0.640789 z m 3.41736,0 v 0.640789 h 0.64079 v -0.640789 z m -85.380865,5.16e-4 v 0.640789 h 0.640788 v -0.640789 z m 0.854212,0 v 0.640789 h 0.640788 v -0.640789 z m 0.854728,0 v 0.640789 h 0.640788 v -0.640789 z m 0.854211,0 v 0.640789 h 0.640788 v -0.640789 z m 14.51436,0 v 0.640789 h 0.640786 v -0.640789 z m 0.854728,0 v 0.640789 h 0.640787 v -0.640789 z m 7.681701,0 v 0.640789 h 0.640789 v -0.640789 z m 3.417364,0 v 0.640789 h 0.640786 v -0.640789 z m 6.828522,0 v 0.640789 h 0.640789 v -0.640789 z m 11.954825,0 v 0.640789 h 0.640789 v -0.640789 z m 0.854213,0 v 0.640789 h 0.640789 v -0.640789 z m 7.679118,0 v 0.640789 h 0.640786 v -0.640789 z m 30.740273,0 v 0.640789 h 0.64027 v -0.640789 z m 3.41736,0 v 0.640789 h 0.64079 v -0.640789 z m -113.712466,0.0708 c -0.200019,-5.11e-4 -0.400324,0.02383 -0.604619,0.08372 -0.960387,0.433281 -1.5893107,1.468188 -1.7213415,2.487702 0.8875245,0.06236 1.9778515,-0.114043 2.7848465,-0.738455 -0.450517,0.446167 -1.021364,0.826011 -1.638663,1.110525 -0.272097,0.126019 -0.554453,0.233945 -0.8407758,0.320395 0.9903678,0.518308 2.1905468,0.493101 3.1760378,0.0083 0.01094,-0.005 0.02163,-0.01102 0.03256,-0.01602 1.110972,-0.557104 1.770667,-1.589284 1.736845,-2.705778 -1.193594,-0.07809 -2.058141,-0.548134 -2.924886,-0.550354 z m 137.582846,0.0057 c -0.86675,0.0022 -1.7313,0.472262 -2.92489,0.550354 -0.0338,1.116486 0.62537,2.148676 1.73633,2.705778 0.0109,0.005 0.0217,0.01102 0.0326,0.01602 0.98549,0.484831 2.18619,0.509522 3.17655,-0.0088 -0.28633,-0.08645 -0.56869,-0.19386 -0.84078,-0.319876 -0.6173,-0.284514 -1.18865,-0.664363 -1.63917,-1.110527 0.80699,0.624411 1.89784,0.800301 2.78535,0.737938 -0.13217,-1.019347 -0.76112,-2.053979 -1.72134,-2.487186 -0.20429,-0.05988 -0.40459,-0.08423 -0.60461,-0.08371 z M 35.211015,29.993713 V 30.6345 h 0.640788 v -0.640787 z m 5.122685,0 V 30.6345 h 0.640788 v -0.640787 z m 5.977412,0 V 30.6345 h 0.640789 v -0.640787 z m 7.686352,0 V 30.6345 h 0.640789 v -0.640787 z m 1.705325,0 V 30.6345 h 0.640786 v -0.640787 z m 3.41736,0 V 30.6345 h 0.64079 v -0.640787 z m 1.704806,0 V 30.6345 h 0.640789 v -0.640787 z m 3.417364,0 V 30.6345 h 0.640786 v -0.640787 z m 1.706356,0 V 30.6345 h 0.640786 v -0.640787 z m 3.417361,0 V 30.6345 h 0.640789 v -0.640787 z m 1.704805,0 V 30.6345 h 0.640789 v -0.640787 z m 13.663766,0 V 30.6345 h 0.640787 v -0.640787 z m 1.700154,0 V 30.6345 h 0.640789 v -0.640787 z m 5.124236,0 V 30.6345 h 0.640786 v -0.640787 z m 5.125783,0 V 30.6345 h 0.64079 v -0.640787 z m 5.12013,0 V 30.6345 h 0.64079 v -0.640787 z m 3.41737,0 V 30.6345 h 0.64078 v -0.640787 z m 3.41684,0 V 30.6345 h 0.64079 v -0.640787 z m 5.11855,0 V 30.6345 h 0.64079 v -0.640787 z m 3.41685,0 V 30.6345 h 0.64079 v -0.640787 z m 3.41736,0 V 30.6345 h 0.64079 v -0.640787 z m 1.70739,0 V 30.6345 h 0.64027 v -0.640787 z m 3.41736,0 V 30.6345 h 0.64079 v -0.640787 z m -90.505615,0.854213 v 0.640786 h 0.640788 v -0.640786 z m 5.976897,0 v 0.640786 H 41.8287 v -0.640786 z m 0.854212,0 v 0.640786 h 0.640786 v -0.640786 z m 0.854728,0 v 0.640786 h 0.640787 v -0.640786 z m 0.85421,0 v 0.640786 h 0.640789 v -0.640786 z m 1.705322,0 v 0.640786 h 0.640789 v -0.640786 z m 0.854728,0 v 0.640786 h 0.640789 v -0.640786 z m 0.854213,0 v 0.640786 h 0.640786 v -0.640786 z m 0.85421,0 v 0.640786 h 0.640789 v -0.640786 z m 2.560568,0 v 0.640786 h 0.640787 v -0.640786 z m 0.85421,0 v 0.640786 h 0.640789 v -0.640786 z m 0.854213,0 v 0.640786 h 0.640786 v -0.640786 z m 0.854728,0 v 0.640786 h 0.640787 v -0.640786 z m 3.413744,0 v 0.640786 h 0.64079 v -0.640786 z m 0.854213,0 v 0.640786 h 0.640786 v -0.640786 z m 0.85421,0 v 0.640786 h 0.640789 v -0.640786 z m 2.559534,0 v 0.640786 h 0.640789 v -0.640786 z m 3.417364,0 v 0.640786 h 0.640786 v -0.640786 z m 2.560566,0 v 0.640786 h 0.640789 v -0.640786 z m 0.854728,0 v 0.640786 h 0.640789 v -0.640786 z m 0.854213,0 v 0.640786 h 0.640786 v -0.640786 z m 0.85421,0 v 0.640786 h 0.640789 v -0.640786 z m 1.704805,0 v 0.640786 h 0.640789 v -0.640786 z m 0.854729,0 v 0.640786 h 0.640789 v -0.640786 z m 0.854212,0 v 0.640786 h 0.640787 v -0.640786 z m 0.85421,0 v 0.640786 h 0.640789 v -0.640786 z m 0.854729,0 v 0.640786 h 0.640789 v -0.640786 z m 6.828523,0 v 0.640786 h 0.640789 v -0.640786 z m 0.854212,0 v 0.640786 h 0.640787 v -0.640786 z m 0.85421,0 v 0.640786 h 0.640789 v -0.640786 z m 0.854213,0 v 0.640786 h 0.640789 v -0.640786 z m 3.409095,0 v 0.640786 h 0.640786 v -0.640786 z m 0.85421,0 v 0.640786 h 0.640789 v -0.640786 z m 0.854728,0 v 0.640786 h 0.640789 v -0.640786 z m 0.854213,0 v 0.640786 h 0.640786 v -0.640786 z m 1.706872,0 v 0.640786 h 0.640786 v -0.640786 z m 0.85421,0 v 0.640786 h 0.640789 v -0.640786 z m 0.854728,0 v 0.640786 h 0.64079 v -0.640786 z m 0.854213,0 v 0.640786 h 0.640786 v -0.640786 z m 0.85421,0 v 0.640786 h 0.640789 v -0.640786 z m 2.562635,0 v 0.640786 h 0.640789 v -0.640786 z m 0.854213,0 v 0.640786 h 0.640786 v -0.640786 z m 0.854725,0 v 0.640786 h 0.64079 v -0.640786 z m 0.854209,0 v 0.640786 h 0.64079 v -0.640786 z m 2.55698,0 v 0.640786 h 0.64079 v -0.640786 z m 0.85422,0 v 0.640786 h 0.64078 v -0.640786 z m 0.85421,0 v 0.640786 h 0.64079 v -0.640786 z m 4.27157,0 v 0.640786 h 0.64079 v -0.640786 z m 3.41013,0 v 0.640786 h 0.64079 v -0.640786 z m 0.85421,0 v 0.640786 h 0.64079 v -0.640786 z m 0.85421,0 v 0.640786 h 0.64079 v -0.640786 z m 0.85473,0 v 0.640786 h 0.64027 v -0.640786 z m 0.85421,0 v 0.640786 h 0.64079 v -0.640786 z m 2.56264,0 v 0.640786 h 0.64079 v -0.640786 z m 0.85421,0 v 0.640786 h 0.64079 v -0.640786 z m 0.85421,0 v 0.640786 h 0.64079 v -0.640786 z m 2.5616,0 v 0.640786 h 0.64027 v -0.640786 z m 3.41736,0 v 0.640786 h 0.64079 V 30.847926 Z M 2.4626228,31.678881 c -0.09444,0.286518 -0.1572363,0.579382 -0.1901692,0.873332 -0.1435561,1.281734 0.2892845,2.546834 1.1735723,3.376538 0.9786028,0.913554 2.3181591,1.132615 3.5201984,0.727604 C 5.98834,36.137923 5.1282894,35.312129 4.6190807,34.289575 5.3015076,35.333941 6.4669111,35.794253 7.4478488,35.927201 7.5342665,34.76296 7.1793221,33.39721 6.341973,32.539293 5.3140663,31.75211 4.0321143,32.197028 2.4626228,31.678881 Z m 156.6654072,0.0057 c -1.56948,0.518139 -2.85094,0.07271 -3.87883,0.859896 -0.83734,0.857909 -1.1928,2.224186 -1.1064,3.388424 0.98093,-0.132948 2.14634,-0.593265 2.82877,-1.637628 -0.5092,1.022551 -1.36874,1.847834 -2.34663,2.366264 1.20204,0.405011 2.54109,0.185944 3.51969,-0.727604 0.88427,-0.829702 1.31765,-2.094291 1.17409,-3.37602 v -5.19e-4 c -0.0329,-0.293949 -0.0963,-0.586301 -0.19069,-0.872813 z M 11.769036,34.690583 c -0.344296,-0.0066 -0.67556,0.03578 -1.005627,0.179319 -0.9109713,0.557432 -1.4178355,1.676048 -1.428337,2.718697 0.903461,-0.04249 1.982756,-0.349525 2.717667,-1.081072 -0.571924,0.728118 -1.418231,1.348404 -2.3269933,1.74253 1.0734833,0.409676 2.2983323,0.234389 3.2395993,-0.388091 1.049926,-0.697994 1.583106,-1.831218 1.408183,-2.967778 -1.024451,0.06287 -1.84705,-0.189166 -2.604492,-0.203605 z m 138.053104,0.0057 c -0.75744,0.01444 -1.58005,0.266475 -2.60449,0.203605 -0.17493,1.136555 0.35826,2.269784 1.40818,2.967778 0.94126,0.622477 2.1656,0.797761 3.23908,0.388088 -0.90876,-0.394123 -1.75455,-1.014931 -2.32648,-1.743045 0.7349,0.731543 1.81369,1.038582 2.71715,1.081071 -0.0105,-1.042646 -0.51738,-2.160751 -1.42834,-2.718181 -0.33006,-0.143534 -0.66081,-0.185878 -1.0051,-0.179316 z M 1.8440558,38.189079 c -0.06342,0.303982 -0.094491,0.611235 -0.094051,0.915707 0.0019,1.327639 0.5926106,2.570882 1.5952521,3.316591 1.108995,0.820431 2.506966,0.887273 3.6907309,0.331764 -1.0623074,-0.416107 -2.0392565,-1.15952 -2.6799397,-2.146123 0.8207348,0.988672 2.0679378,1.322425 3.0881835,1.343589 -0.047863,-1.201976 -0.571673,-2.557494 -1.5291056,-3.336748 -1.1442345,-0.684498 -2.4042634,-0.07896 -4.07107,-0.42478 z m 157.9025442,0.0057 c -1.6668,0.345813 -2.92685,-0.259715 -4.07107,0.42478 -0.95744,0.779254 -1.48069,2.134781 -1.52859,3.336748 1.02024,-0.02116 2.26745,-0.355436 3.08818,-1.344104 -0.64068,0.986597 -1.61816,1.730536 -2.68045,2.146638 1.18375,0.555509 2.58174,0.488667 3.69073,-0.331761 1.00263,-0.745709 1.59325,-1.989476 1.59525,-3.31711 4e-4,-0.304469 -0.0307,-0.611209 -0.0941,-0.915191 z M 14.444325,40.146583 c -1.494469,0.266827 -2.636614,-0.188754 -3.649911,0.397906 -0.8546694,0.668404 -1.2363869,1.855089 -1.126029,2.907316 0.908153,-0.147883 1.962877,-0.58298 2.619999,-1.406631 -0.492901,0.801246 -1.275347,1.525765 -2.148193,2.028817 1.132542,0.288415 2.350272,-0.03047 3.229264,-0.767913 0.980108,-0.826421 1.386035,-2.032214 1.07487,-3.159495 z m 132.702525,0.0057 c -0.31117,1.127276 0.0948,2.333077 1.07487,3.159498 0.87898,0.737433 2.09673,1.056325 3.22926,0.767911 -0.87284,-0.50305 -1.65581,-1.227574 -2.14871,-2.028817 0.65711,0.82365 1.71236,1.258747 2.62051,1.406633 0.11053,-1.052351 -0.27123,-2.239325 -1.12603,-2.907834 -1.01328,-0.586658 -2.15544,-0.130564 -3.6499,-0.397391 z M 5.2443655,44.628995 C 4.2918584,44.597645 3.278273,44.99835 1.968596,44.878592 c -0.02959,0.318481 -0.025068,0.636648 0.010852,0.948264 0.1565209,1.358588 0.9064212,2.562698 2.0200322,3.209105 1.231331,0.710422 2.6699087,0.615484 3.8163043,-0.09147 -1.1359212,-0.301413 -2.2230364,-0.94851 -2.9941322,-1.883603 0.955522,0.916321 2.2710227,1.112531 3.317627,1.014926 C 7.9498483,46.85173 7.2561026,45.525689 6.1853934,44.839836 5.872693,44.698059 5.5618681,44.639446 5.2443655,44.628995 Z m 151.1024345,0.0052 c -0.3175,0.01045 -0.62833,0.06906 -0.94103,0.210841 -1.07068,0.68585 -1.76497,2.011897 -1.9544,3.235979 1.0466,0.0976 2.36263,-0.09861 3.31815,-1.014926 -0.77109,0.93509 -1.85823,1.582708 -2.99413,1.884121 1.14638,0.706951 2.58498,0.801886 3.8163,0.09147 1.11361,-0.646404 1.86299,-1.850525 2.01951,-3.209108 h 5.2e-4 c 0.0359,-0.311613 0.0399,-0.629782 0.0103,-0.948261 -1.30967,0.119755 -2.32275,-0.281461 -3.27526,-0.250116 z m -87.176617,0.198923 c -1.188961,0 -2.203804,0.118467 -3.044777,0.355534 -0.826466,0.225777 -1.500632,0.558638 -2.022615,0.998905 -0.521981,0.440264 -0.898687,0.982274 -1.130679,1.62574 -0.231992,0.632177 -0.3483,1.354511 -0.3483,2.167311 v 1.896523 c 0,0.8128 0.116308,1.540898 0.3483,2.184362 0.231992,0.632177 0.608698,1.168423 1.130679,1.608689 0.521983,0.440266 1.196149,0.778893 2.022615,1.015959 0.840973,0.225777 1.855816,0.338997 3.044777,0.338997 1.188961,0 2.197116,-0.11322 3.023587,-0.338997 0.840973,-0.237066 1.522338,-0.575693 2.044319,-1.015959 0.521983,-0.440266 0.898689,-0.976512 1.130681,-1.608689 0.231992,-0.643464 0.3483,-1.371562 0.3483,-2.184362 v -1.896523 c 0,-0.8128 -0.116308,-1.535134 -0.3483,-2.167311 -0.231992,-0.643466 -0.608698,-1.185476 -1.130681,-1.62574 -0.521981,-0.440267 -1.203346,-0.773128 -2.044319,-0.998905 -0.826471,-0.237067 -1.834626,-0.355534 -3.023587,-0.355534 z m -42.93278,0.168981 c -0.898969,0 -1.348238,0.350155 -1.348238,1.050065 v 10.803475 h 4.110343 v -8.466667 c 0,-0.19191 0.109103,-0.287837 0.326596,-0.287837 h 5.502506 v -3.099036 z m 14.289567,0 c -0.362487,0 -0.594585,0.124233 -0.696081,0.372587 l -4.654497,11.480953 h 4.371826 l 2.631365,-7.55251 h 0.08733 l 1.674315,4.436938 h -2.3921 l -1.022161,3.115572 H 49.53107 L 44.528792,45.374686 c -0.115991,-0.248354 -0.362501,-0.372587 -0.73949,-0.372587 z m 7.307565,0 4.654495,11.480953 c 0.115998,0.248354 0.362503,0.372587 0.739489,0.372587 h 3.262334 c 0.362487,0 0.594069,-0.124233 0.695565,-0.372587 L 61.92773,45.002099 h -4.371308 l -2.631882,7.417118 h -0.08681 l -2.522844,-7.417118 z m 31.797024,0 c -0.898969,0 -1.348237,0.350155 -1.348237,1.050065 v 10.803475 h 4.11086 v -8.585004 c 0,-0.191913 0.108585,-0.28784 0.326078,-0.28784 h 2.587956 c 0.521983,0 0.782897,0.214399 0.782897,0.643371 v 0.355537 c 0,0.169325 -0.05043,0.316105 -0.151929,0.440282 -0.087,0.112887 -0.27535,0.169497 -0.565341,0.169497 h -2.305801 v 2.67529 h 2.479437 c 0.275484,0 0.456636,0.06186 0.543634,0.186036 0.101496,0.112887 0.152445,0.254413 0.152445,0.423746 v 3.979085 h 4.08864 v -4.114993 c 0,-0.541867 -0.144608,-0.976418 -0.434599,-1.303798 -0.275492,-0.338667 -0.623377,-0.569838 -1.043863,-0.694015 0.376986,-0.169328 0.652311,-0.383726 0.826307,-0.643372 0.188491,-0.27093 0.28267,-0.688707 0.28267,-1.253151 v -0.694531 c 0,-2.099731 -1.370454,-3.14968 -4.11086,-3.14968 z m 13.354225,0 v 11.85354 h 4.11086 v -11.85354 z m 6.111772,0 v 3.099036 h 11.657204 v -3.099036 z m 14.963454,0 c -0.89896,0 -1.34875,0.350155 -1.34875,1.050065 v 9.736874 c 0,0.711198 0.44979,1.066601 1.34875,1.066601 h 8.59069 v -3.115572 h -5.5025 c -0.2175,0 -0.32608,-0.09593 -0.32608,-0.287838 v -5.063257 c 0,-0.19191 0.10858,-0.287837 0.32608,-0.287837 h 5.5025 v -3.099036 z m 15.13758,0 c -2.74041,0 -4.11086,1.049949 -4.11086,3.14968 v 1.422651 c 0,0.361244 0.0654,0.699871 0.19585,1.015958 0.1305,0.3048 0.33326,0.575804 0.60875,0.812871 0.28999,0.225777 0.6528,0.406104 1.08779,0.541568 0.44949,0.124179 0.98573,0.186552 1.60921,0.186552 h 3.5233 c 0.27548,0 0.46435,0.05085 0.56585,0.152445 0.10149,0.1016 0.15193,0.253622 0.15193,0.456822 v 0.35605 c 0,0.428977 -0.26092,0.643371 -0.7829,0.643371 h -6.69881 v 3.115572 h 7.24245 c 2.74041,0 4.11086,-1.049948 4.11086,-3.149679 v -1.219047 c 0,-0.89182 -0.29025,-1.574837 -0.87023,-2.04897 -0.56548,-0.485421 -1.51497,-0.72812 -2.84892,-0.72812 h -3.30626 c -0.47849,0 -0.71727,-0.203383 -0.71727,-0.609783 v -0.355534 c 0,-0.428977 0.26091,-0.643371 0.7829,-0.643371 h 6.37222 V 45.002099 Z M 15.120769,45.412926 c -1.47968,0.441412 -2.685892,0.113337 -3.642676,0.821655 -0.787153,0.772557 -1.036639,2.013355 -0.804601,3.061314 0.900598,-0.253738 1.917236,-0.813869 2.48719,-1.719791 -0.406448,0.864441 -1.115071,1.684805 -1.93942,2.292365 1.177158,0.160108 2.371066,-0.301733 3.175004,-1.146182 0.896146,-0.945812 1.168475,-2.208038 0.724503,-3.309361 z m 131.349121,0.0052 c -0.44397,1.10132 -0.17112,2.364071 0.72502,3.309877 0.80394,0.844447 1.99786,1.30629 3.175,1.146183 -0.82434,-0.607558 -1.5335,-1.428443 -1.93994,-2.292882 0.56995,0.905923 1.5866,1.466569 2.48719,1.720307 0.23204,-1.047953 -0.0174,-2.289275 -0.8046,-3.061829 -0.95677,-0.708316 -2.163,-0.380246 -3.64267,-0.821656 z m -77.299707,2.513542 c 0.463984,2e-6 0.84841,0.03983 1.152901,0.118856 0.318989,0.06773 0.572698,0.186203 0.761193,0.355534 0.188497,0.169333 0.319214,0.395258 0.391708,0.677479 0.087,0.282223 0.130225,0.626096 0.130225,1.032494 v 1.625743 c 0,0.406397 -0.04323,0.750789 -0.130225,1.03301 -0.0725,0.282223 -0.203214,0.508145 -0.391708,0.677478 -0.188495,0.169334 -0.442204,0.293566 -0.761193,0.372587 -0.304491,0.06773 -0.688917,0.101288 -1.152901,0.101288 -0.463984,0 -0.855099,-0.03355 -1.174088,-0.101288 -0.304491,-0.07902 -0.550998,-0.203253 -0.73949,-0.372587 -0.188494,-0.169333 -0.326416,-0.395255 -0.413411,-0.677478 -0.0725,-0.282221 -0.108522,-0.626613 -0.108522,-1.03301 v -1.625776 c 0,-0.406398 0.03603,-0.750271 0.108522,-1.032494 0.087,-0.282221 0.224917,-0.508146 0.413411,-0.677479 0.188492,-0.169331 0.434999,-0.287801 0.73949,-0.355534 0.318989,-0.07902 0.710104,-0.118854 1.174088,-0.118856 z m 33.711667,0.694531 v 8.229473 h 4.11034 v -8.229473 z m -73.207964,0.829408 v 2.811198 h 5.111316 v -2.811198 z m 87.823604,0 v 2.811198 h 5.1108 V 49.455574 Z M 16.39511,50.617261 c -1.444261,0.614553 -2.699741,0.423043 -3.585311,1.246434 -0.707169,0.868683 -0.817968,2.147173 -0.464054,3.175519 0.879879,-0.359739 1.842068,-1.041543 2.314587,-2.018999 -0.31224,0.916744 -0.93417,1.825032 -1.696537,2.532144 1.205529,0.02452 2.355467,-0.575918 3.073714,-1.521869 0.797013,-1.054984 0.930101,-2.355766 0.357601,-3.413229 z m 128.80095,0.0052 c -0.5725,1.057457 -0.4394,2.358249 0.3576,3.413228 0.71825,0.945946 1.86819,1.54639 3.07372,1.52187 -0.76237,-0.707107 -1.38482,-1.614887 -1.69706,-2.531629 0.47245,0.977297 1.43483,1.6587 2.31459,2.018483 0.35391,-1.02834 0.24363,-2.306323 -0.46354,-3.175 -0.88557,-0.823389 -2.14106,-0.632402 -3.58531,-1.246952 z M 6.4401583,51.022921 c -1.059467,-0.0026 -2.0981598,0.614582 -3.5641234,0.646988 0.0071,0.329403 0.048565,0.654193 0.1219562,0.968933 0.320045,1.372542 1.2296889,2.517601 2.4448119,3.047876 1.3431377,0.58213 2.8010882,0.314105 3.8886516,-0.543636 -1.1963458,-0.173777 -2.3839358,-0.707185 -3.282487,-1.573547 1.0848835,0.825339 2.4529637,0.870516 3.5108967,0.647504 C 9.2219951,52.988936 8.3569415,51.714981 7.1822318,51.138676 6.9300124,51.057298 6.6846505,51.023516 6.4401583,51.022921 Z m 148.7108517,0.0057 c -0.24449,5.98e-4 -0.49037,0.03386 -0.74259,0.115239 -1.1747,0.576302 -2.03924,1.850782 -2.37712,3.078882 1.05793,0.22301 2.4255,0.177829 3.51039,-0.647507 -0.89856,0.86636 -2.08564,1.399255 -3.28198,1.573032 1.08756,0.857737 2.54501,1.126281 3.88814,0.544153 1.21512,-0.530273 2.12476,-1.675341 2.44481,-3.047878 0.0733,-0.314735 0.11547,-0.640045 0.12247,-0.969449 -1.46596,-0.03241 -2.50465,-0.649057 -3.56412,-0.646472 z M 18.254945,55.67845 c -1.386691,0.785747 -2.674122,0.739621 -3.473173,1.670699 -0.614079,0.955993 -0.579096,2.254546 -0.103353,3.24683 0.844994,-0.465586 1.736107,-1.264711 2.100647,-2.301668 -0.209964,0.957047 -0.732538,1.942563 -1.418518,2.743502 1.217525,-0.118485 2.30602,-0.85852 2.921268,-1.892908 0.681988,-1.152909 0.669254,-2.472141 -0.02687,-3.466455 z m 125.081285,0.0052 c -0.69609,0.99431 -0.70885,2.314067 -0.0269,3.466972 0.61524,1.034382 1.70323,1.774422 2.92075,1.892907 -0.68598,-0.800935 -1.20804,-1.786975 -1.418,-2.744018 0.36453,1.036952 1.25514,1.836084 2.10013,2.301668 0.47576,-0.99228 0.51123,-2.290841 -0.10284,-3.24683 -0.79905,-0.931074 -2.08648,-0.884955 -3.47317,-1.670699 z M 8.4141979,57.376021 c -1.184579,0.02029 -2.205382,0.876656 -3.8132038,1.098124 0.04677,0.336161 0.1284798,0.663324 0.2413288,0.976684 0.4922219,1.366783 1.5604569,2.430248 2.8654581,2.826701 1.4420977,0.434103 2.895728,-0.0176 3.900537,-1.024227 -1.241309,-0.03248 -2.5179102,-0.434306 -3.5398353,-1.212845 1.2069895,0.714353 2.6081673,0.596321 3.6602443,0.241328 C 11.23598,59.070229 10.20156,57.872202 8.9340629,57.42253 8.7559745,57.38701 8.5834235,57.37312 8.4141979,57.376021 Z m 144.7622521,0.0052 c -0.16922,-0.0029 -0.34177,0.0115 -0.51986,0.04703 -1.26749,0.449671 -2.30139,1.647188 -2.79415,2.85874 1.05207,0.354992 2.45275,0.473538 3.65973,-0.240812 -1.02192,0.778535 -2.29853,1.180366 -3.53984,1.212846 1.00482,1.006623 2.45897,1.458328 3.90106,1.024227 1.30499,-0.396451 2.37325,-1.459925 2.86546,-2.826701 0.11285,-0.31336 0.19452,-0.640525 0.24133,-0.976685 -1.60783,-0.22147 -2.62915,-1.078352 -3.81373,-1.098645 z M 20.688388,60.508129 c -1.305208,0.95423 -2.606641,1.063404 -3.302641,2.093929 -0.506965,1.033322 -0.318612,2.33277 0.278536,3.271118 0.794748,-0.571059 1.595841,-1.48203 1.841231,-2.565218 -0.09929,0.984342 -0.508008,2.037646 -1.102258,2.92592 1.210898,-0.269175 2.216421,-1.147061 2.71353,-2.258777 0.55013,-1.238386 0.385454,-2.55638 -0.428398,-3.466972 z m 120.214392,0.0057 c -0.81385,0.910588 -0.97904,2.228075 -0.42891,3.466455 0.49711,1.111712 1.50316,1.989603 2.71405,2.258776 -0.59424,-0.88827 -1.00348,-1.941581 -1.10278,-2.925919 0.24545,1.083444 1.04682,1.995221 1.84175,2.566252 0.59734,-0.938373 0.78557,-2.238699 0.27853,-3.272152 -0.69599,-1.030521 -1.99742,-1.139187 -3.30264,-2.093412 z m -129.709424,3.07268 c -1.3369726,0.04123 -2.2867138,1.154493 -4.0137079,1.604554 0.089366,0.338155 0.2131803,0.663098 0.3674195,0.969966 0.6728518,1.338673 1.8971744,2.295407 3.2778354,2.538863 1.525446,0.264886 2.947663,-0.380046 3.843181,-1.532206 -1.268324,0.123245 -2.619099,-0.127261 -3.758431,-0.796851 1.31981,0.581219 2.731924,0.285043 3.758431,-0.208256 -0.653527,-1.171581 -1.8556,-2.264916 -3.201876,-2.569352 -0.09292,-0.0073 -0.18372,-0.0095 -0.272852,-0.0067 z m 139.204454,0.0057 c -0.0891,-0.0027 -0.17993,-0.0011 -0.27285,0.0062 -1.34627,0.304434 -2.54835,1.397776 -3.20187,2.569352 1.0265,0.493297 2.43863,0.789471 3.75843,0.208256 -1.13933,0.669587 -2.49011,0.920612 -3.75843,0.797367 0.89552,1.152155 2.31723,1.797091 3.84266,1.532207 1.38052,-0.243431 2.60494,-1.200409 3.27784,-2.538863 v -5.17e-4 c 0.15414,-0.306745 0.27857,-0.63145 0.36793,-0.96945 -1.72699,-0.45006 -2.67674,-1.56332 -4.01371,-1.604552 z M 23.680453,65.015865 c -1.198313,1.119411 -2.493525,1.392767 -3.069063,2.513541 -0.320704,0.915989 -0.134127,1.959377 0.357601,2.78691 0.09715,0.16271 0.20593,0.316374 0.324011,0.457853 0.468464,-0.435094 0.92245,-1.011624 1.21698,-1.661914 0.1634,-0.361832 0.27784,-0.747359 0.318844,-1.146183 0.0062,0.309202 -0.01655,0.627217 -0.0646,0.947229 -0.107319,0.713315 -0.345174,1.450857 -0.682129,2.122868 1.184678,-0.432329 2.084845,-1.450687 2.447913,-2.621029 0.105341,-0.342548 0.159993,-0.683368 0.166915,-1.012341 0.02041,-0.933919 -0.329728,-1.789312 -1.016476,-2.386934 z m 114.230267,0.0052 c -0.68676,0.597621 -1.03688,1.45302 -1.01648,2.386934 0.007,0.32897 0.0611,0.670311 0.1664,1.012858 0.36305,1.170336 1.26323,2.188185 2.44791,2.620512 -0.33696,-0.672008 -0.57481,-1.409556 -0.68212,-2.122867 -0.0481,-0.320011 -0.0701,-0.638028 -0.0641,-0.94723 0.041,0.398823 0.15544,0.784354 0.31884,1.146184 0.29453,0.650288 0.74851,1.226822 1.21698,1.661914 0.11808,-0.14148 0.22691,-0.294628 0.32401,-0.457337 0.49172,-0.827529 0.67831,-1.870925 0.3576,-2.786909 -0.57553,-1.120769 -1.87077,-1.394651 -3.06906,-2.514059 z M 14.803476,69.538069 c -1.528161,0.06961 -2.344291,1.450305 -4.158406,2.170927 0.135107,0.334687 0.30435,0.65115 0.501777,0.945678 0.861632,1.285401 2.237389,2.108978 3.677299,2.178679 0.122919,0.0057 0.244526,0.0058 0.364836,5.17e-4 1.434977,-0.05534 2.644255,-0.872466 3.342432,-2.067574 -0.285786,0.06581 -0.578596,0.11259 -0.875399,0.139526 -1.025342,0.09505 -2.091105,-0.04747 -3.056661,-0.463021 1.421007,0.424163 2.818683,-0.06356 3.797701,-0.701249 -0.819667,-1.105427 -2.185072,-2.063976 -3.593579,-2.203483 z m 131.984224,0.0057 c -1.40849,0.139507 -2.77444,1.097546 -3.5941,2.202967 0.97901,0.637691 2.37722,1.12541 3.79822,0.701249 -0.96555,0.415547 -2.03132,0.558587 -3.05666,0.463537 -0.29681,-0.02694 -0.58963,-0.07423 -0.8754,-0.140043 0.69817,1.195103 1.90695,2.012234 3.34192,2.067574 0.12029,0.0052 0.24191,0.0057 0.36483,0 1.4399,-0.0697 2.81567,-0.893284 3.67729,-2.178678 h 5.2e-4 c 0.19742,-0.294528 0.36668,-0.611509 0.50178,-0.946195 -1.8141,-0.72062 -2.63024,-2.100801 -4.1584,-2.170411 z" />
</svg>
