<?xml version="1.0" encoding="UTF-8" standalone="no"?>
<!-- Generator: Adobe Illustrator 13.0.0, SVG Export Plug-In . SVG Version: 6.00 Build 14948)  -->

<svg
   version="1.2"
   id="Layer_3"
   x="0px"
   y="0px"
   width="570.28925"
   height="254.01558"
   viewBox="0 0 570.28922 254.01557"
   xml:space="preserve"
   sodipodi:docname="controller.svg"
   inkscape:version="1.1.2 (0a00cf5339, 2022-02-04)"
   xmlns:inkscape="http://www.inkscape.org/namespaces/inkscape"
   xmlns:sodipodi="http://sodipodi.sourceforge.net/DTD/sodipodi-0.dtd"
   xmlns="http://www.w3.org/2000/svg"
   xmlns:svg="http://www.w3.org/2000/svg"
   xmlns:rdf="http://www.w3.org/1999/02/22-rdf-syntax-ns#"
   xmlns:cc="http://creativecommons.org/ns#"
   xmlns:dc="http://purl.org/dc/elements/1.1/"
   xmlns:ns="&amp;ns_sfw;"><defs
   id="defs44">
	
	

	
	

	
	

	
	

	
	
	

	
	
	

	
	

	
	
</defs><sodipodi:namedview
   id="namedview42"
   pagecolor="#ffffff"
   bordercolor="#666666"
   borderopacity="1.0"
   inkscape:pageshadow="2"
   inkscape:pageopacity="0.0"
   inkscape:pagecheckerboard="0"
   showgrid="false"
   fit-margin-top="0"
   fit-margin-left="0"
   fit-margin-right="0"
   fit-margin-bottom="0"
   inkscape:zoom="1.0263804"
   inkscape:cx="189.5009"
   inkscape:cy="132.99163"
   inkscape:window-width="1920"
   inkscape:window-height="996"
   inkscape:window-x="1920"
   inkscape:window-y="0"
   inkscape:window-maximized="1"
   inkscape:current-layer="Layer_3" />
<metadata
   id="metadata55">
	<rdf:RDF>
		<cc:Work
   rdf:about="">
			<dc:format>image/svg+xml</dc:format>
			<dc:type
   rdf:resource="http://purl.org/dc/dcmitype/StillImage" />
			
		</cc:Work>
	</rdf:RDF>
	<ns:sfw>
		<ns:slices />
		<ns:sliceSourceBounds
   x="679.97"
   y="-7652"
   width="562.29"
   height="16383"
   bottomLeftOrigin="true" />
	</ns:sfw>
</metadata>



















<path
   id="path861"
   d="m 532.47579,0.01363826 c -10.70608,0.195445 -21.17507,5.39223904 -27.84178,13.76570874 -5.94671,7.348187 -8.87949,17.040682 -7.99267,26.453757 0.87604,10.092849 6.14688,19.69766 14.18011,25.86899 7.53372,5.875264 17.40947,8.621014 26.89511,7.467064 10.30324,-1.17471 19.95946,-6.959631 25.87688,-15.472899 5.71809,-8.086366 7.94242,-18.528833 6.01777,-28.244221 -1.91592,-9.982779 -8.16479,-19.036465 -16.83705,-24.3451267 -6.04507,-3.740644 -13.18852,-5.69062604 -20.29837,-5.49327304 z m 0.92969,9.83398404 c 4.70075,-0.02417 9.38578,1.2567927 13.46093,3.5898437 0.28022,0.156804 0.92051,0.542537 1.32725,0.813038 6.50148,4.180976 10.97362,11.29715 11.9946,18.952095 0.22421,1.586269 0.29566,3.193047 0.23089,4.793461 -0.009,0.314912 -0.0604,1.076729 -0.1137,1.56033 -0.7913,8.960709 -6.44993,17.281233 -14.44586,21.382803 -7.90502,4.148168 -17.8833,4.034091 -25.65303,-0.386912 -7.1079,-3.954291 -12.27388,-11.238768 -13.51948,-19.291767 -1.25533,-7.649079 0.91811,-15.806794 5.9443,-21.728617 5.06464,-6.074001 12.85216,-9.7539087 20.7741,-9.6842747 z M 532.13204,10.5527 c -8.63122,0.345651 -16.89251,5.29379 -21.31502,12.70715 -4.16135,6.825547 -4.96057,15.575237 -2.07131,23.033591 3.08737,8.205748 10.50399,14.631217 19.10167,16.415197 7.82935,1.708206 16.39714,-0.386757 22.49411,-5.605588 6.18604,-5.151211 9.78171,-13.250657 9.39797,-21.298396 -0.2985,-8.369089 -4.88284,-16.445385 -11.9284,-20.977888 -4.60348,-3.030632 -10.17625,-4.535396 -15.67902,-4.274066 z m 1.23242,9.816407 c 6.43197,-0.0984 12.66429,3.992189 15.17775,9.905814 2.47642,5.608526 1.52028,12.566967 -2.47002,17.241828 -3.18443,3.819879 -8.16113,6.116048 -13.14523,5.916811 -1.5343,-0.01672 -3.27856,-0.314491 -4.80715,-0.845891 -5.39086,-1.791427 -9.69573,-6.521098 -10.86176,-12.095752 -1.1475,-5.155859 0.28998,-10.8319 3.89421,-14.720095 3.086,-3.384785 7.62096,-5.435384 12.2122,-5.402715 z m -295.19531,46.8125 c 0,18.864581 0,37.729173 0,56.593753 3.57487,0 7.14974,0 10.72461,0 1.59948,10.47895 7.99213,20.09429 17.01758,25.65039 8.52186,5.32747 19.26873,6.8968 28.96365,4.2555 10.23912,-2.72954 19.12319,-10.10483 23.66109,-19.68567 1.552,-3.22754 2.62907,-6.68247 3.1858,-10.22022 3.55078,0 7.10156,0 10.65235,0 1.61426,10.53505 8.07156,20.19752 17.18281,25.72665 8.78501,5.42414 19.89486,6.86762 29.77611,3.87555 9.5211,-2.83071 17.77204,-9.66676 22.26493,-18.53339 1.77924,-3.46709 3.00563,-7.21841 3.60818,-11.06881 3.55143,0 7.10286,0 10.65429,0 1.61427,10.53505 8.07156,20.19752 17.18281,25.72665 8.97423,5.54264 20.37806,6.92571 30.41485,3.67675 9.48006,-3.00471 17.61879,-9.99947 21.9409,-18.96555 1.60862,-3.2891 2.72852,-6.81982 3.29347,-10.43785 3.57553,0 7.15105,0 10.72657,0 0,-19.53125 0,-39.062502 0,-58.593753 -87.08334,0 -174.16667,0 -261.25,0 0,0.666666 0,1.333333 0,2 z M 88.954301,65.730435 C 70.741687,66.467535 52.799159,72.744058 38.112435,83.543258 21.917319,95.363018 9.6741316,112.53037 3.9340436,131.75393 c -6.00851,19.90452 -5.127944,41.82949 2.597541,61.14426 6.8623644,17.32216 19.0712604,32.47095 34.5477874,42.84638 13.108156,8.85036 28.510606,14.26809 44.281548,15.5095 17.54353,1.44199 35.48997,-2.16985 51.03743,-10.4482 17.25645,-9.12705 31.5282,-23.80004 40.07934,-41.35753 7.21314,-14.68414 10.40864,-31.29918 9.18902,-47.61179 -1.14966,-16.31692 -6.72256,-32.29661 -16.01344,-45.7631 -10.33812,-15.091992 -25.19478,-27.059012 -42.20557,-33.813432 -11.04214,-4.42344 -22.93725,-6.665175 -34.830369,-6.6263 -1.22101,-0.01525 -2.44202,-0.03055 -3.66303,-0.04586 v 0.1 z m 400.619139,9.294923 c 0,12.9681 0,25.936202 0,38.904302 -0.75777,0.26837 -0.66703,-0.42376 -0.72265,-0.94727 -1.3497,-10.01442 -7.0395,-19.339752 -15.32278,-25.127302 -8.12512,-5.77256 -18.64538,-8.00344 -28.41654,-6.04114 -9.94972,1.94148 -18.97246,8.18414 -24.24649,16.84848 -2.85275,4.615722 -4.67093,9.872092 -5.26029,15.267232 -3.37168,-0.009 -6.77503,0.0182 -10.12695,-0.0137 -1.09695,-10.19844 -6.7118,-19.789912 -15.03609,-25.776742 -8.12976,-5.93846 -18.74983,-8.29547 -28.62982,-6.36081 -10.01547,1.89869 -19.11409,8.15441 -24.42221,16.86423 -2.86048,4.620402 -4.68026,9.884242 -5.27125,15.287002 -3.37039,-0.0117 -6.7828,0.0235 -10.12696,-0.0176 -1.11507,-10.35931 -6.89387,-20.090552 -15.43294,-26.055322 -8.12597,-5.774 -18.64749,-8.00536 -28.41966,-6.04281 -9.91656,1.93481 -18.91217,8.14228 -24.19231,16.7632 -2.88004,4.637632 -4.71891,9.923862 -5.31056,15.352512 -0.90169,0.29401 -0.57174,-0.64362 -0.62304,-1.2 0,-12.5681 0,-25.136202 0,-37.704302 80.52018,0 161.04036,0 241.56054,0 z m -396.535149,0.46289 c 6.05867,-0.003 12.114829,0.67104 18.029289,1.98242 0.80994,0.18646 1.90326,0.44252 2.81537,0.6801 16.28536,4.17825 31.17372,13.50876 42.10328,26.275602 10.40588,12.04234 17.2316,27.13972 19.32208,42.9222 0.85061,6.31815 0.97888,12.73098 0.39599,19.07913 -0.0393,0.40092 -0.12474,1.19419 -0.1817,1.74528 -0.44083,3.80535 -1.13414,7.58093 -2.08587,11.29183 -0.1096,0.38475 -0.31409,1.1589 -0.46001,1.6927 -4.68971,16.83264 -14.92478,32.02333 -28.65748,42.80947 -11.87965,9.38368 -26.37912,15.3887 -41.41205,17.16758 -2.08849,0.25781 -4.370469,0.42685 -6.355229,0.5158 -9.36599,0.39888 -18.796235,-0.77313 -27.767578,-3.49805 -0.739743,-0.22515 -1.767556,-0.55331 -2.610927,-0.83872 -16.237757,-5.47045 -30.627962,-16.17426 -40.634307,-30.07392 -9.304444,-12.79566 -14.774224,-28.3191 -15.5776994,-44.11751 -0.852765,-15.39338 2.6357414,-31.0182 10.1083844,-44.51512 0.338588,-0.62899 0.710912,-1.25154 1.105174,-1.94887 0.275984,-0.45876 0.711021,-1.20689 1.070369,-1.7722 5.212684,-8.40038 11.919651,-15.870742 19.7226,-21.942642 0.459496,-0.33829 1.165763,-0.89848 1.735748,-1.3067 4.813425,-3.54032 10.000832,-6.57491 15.46347,-8.99799 0.579475,-0.25426 1.460326,-0.63791 2.16412,-0.9211 10.026504,-4.12659 20.86478,-6.25078 31.706976,-6.22929 z m -2.01758,15.62891 c -2.36509,8.982152 -4.73295,17.963572 -7.099609,26.945312 -4.685672,1.05052 -9.185041,2.92047 -13.240235,5.49219 -10.237615,-5.97334 -20.476192,-11.94502 -30.71289,-17.91993 5.983999,10.22353 11.968536,20.44674 17.953125,30.66993 -2.585167,4.06302 -4.461754,8.57613 -5.515625,13.27539 -11.444128,3.00932 -22.887549,6.02133 -34.332032,9.02929 11.446236,3.00873 22.891923,6.01955 34.337891,9.0293 1.052419,4.69804 2.91772,9.21481 5.505859,13.27539 -5.983042,10.2208 -11.966187,20.44275 -17.949218,30.66406 10.237059,-5.97493 20.475269,-11.9479 30.71289,-17.92187 4.051745,2.58185 8.555218,4.45404 13.244141,5.50195 3.010293,11.42434 6.020433,22.84872 9.029293,34.27344 3.00949,-11.42716 6.01954,-22.85417 9.029299,-34.28125 4.68936,-1.04827 9.19857,-2.90757 13.25391,-5.48633 10.20314,5.94593 20.405,11.89406 30.60937,17.83789 -5.94677,-10.20862 -11.89454,-20.41666 -17.8418,-30.625 2.57525,-4.05395 4.45726,-8.55068 5.5,-13.24023 11.46225,-3.00974 22.92405,-6.02118 34.38672,-9.0293 -11.4649,-3.01608 -22.95096,-6.0102 -34.40234,-9.04102 -1.04415,-4.68628 -2.90102,-9.19215 -5.48047,-13.24218 5.94528,-10.2038 11.89299,-20.40618 17.83594,-30.61133 -10.20972,5.94816 -20.41985,11.89425 -30.62891,17.84375 -4.04978,-2.57383 -8.54168,-4.46451 -13.23047,-5.4961 -3.010399,-11.42838 -6.021479,-22.856592 -9.031249,-34.285152 -0.64453,2.44726 -1.28906,4.89453 -1.93359,7.3418 z m 194.310549,-0.14844 c 1.46091,-3.8e-4 3.02498,0.13614 4.34919,0.3548 7.26695,1.13542 13.93576,5.43225 18.03594,11.529852 4.64703,6.70721 5.88151,15.57245 3.39461,23.32783 -2.39245,7.81397 -8.58372,14.29834 -16.22418,17.16082 -7.68053,2.97769 -16.69645,2.11534 -23.69865,-2.21341 -7.00487,-4.21473 -11.82029,-11.78094 -12.7575,-19.89281 -0.86684,-6.9986 1.16794,-14.27696 5.50475,-19.83349 5.02788,-6.537832 13.1489,-10.492472 21.39584,-10.433592 z m 83.44922,0 c 8.78206,-0.073 17.43668,4.48416 22.3462,11.766802 4.91041,7.03928 6.07679,16.47467 3.11032,24.51842 -3.10025,8.73674 -11.01979,15.54773 -20.12819,17.29073 -7.9068,1.59523 -16.49286,-0.52389 -22.66252,-5.74598 -6.14687,-5.09475 -9.84141,-13.01148 -9.71745,-21.00341 0.0314,-7.98696 3.81122,-15.86689 10.0667,-20.844612 4.76253,-3.84132 10.8604,-6.01746 16.98494,-5.98195 z m 83.47851,0 c 1.47523,-0.003 3.056,0.13379 4.39412,0.3548 7.53759,1.17396 14.41749,5.76341 18.48459,12.204712 4.86707,7.51353 5.53797,17.4888 1.82167,25.62027 -1.60214,3.55326 -4.00376,6.73191 -6.93866,9.29287 -0.23846,0.19521 -0.7963,0.67859 -1.17918,0.96682 -5.98548,4.70442 -14.01775,6.61486 -21.48996,5.20124 -7.73231,-1.34757 -14.69688,-6.32248 -18.55938,-13.14462 -4.09242,-7.01282 -4.69998,-15.89378 -1.67269,-23.41941 1.13358,-2.92606 2.90258,-5.76651 4.93832,-8.01809 1.58327,-1.792282 3.41303,-3.362312 5.41602,-4.667972 0.26274,-0.16256 0.88612,-0.56161 1.29998,-0.79132 4.07882,-2.34567 8.776,-3.62415 13.48517,-3.5993 z m -168.22461,0.70703 c -8.67199,0.34546 -16.96579,5.34497 -21.37505,12.811932 -4.44073,7.32343 -4.95136,16.84833 -1.30377,24.60041 3.53208,7.6855 10.94452,13.46177 19.29551,14.89164 7.86391,1.43123 16.32883,-0.94224 22.24448,-6.33407 6.08377,-5.39495 9.41238,-13.72432 8.67964,-21.82826 -0.66455,-8.63951 -5.92609,-16.757872 -13.54661,-20.885762 -4.2433,-2.35404 -9.14859,-3.48291 -13.9942,-3.25589 z m 83.48633,0 c -8.54998,0.34395 -16.73706,5.20233 -21.18945,12.501952 -4.56989,7.30754 -5.18864,16.89993 -1.57305,24.72784 3.48344,7.74405 10.90109,13.58996 19.27896,15.05568 7.89112,1.46981 16.40281,-0.90084 22.34275,-6.31556 6.08377,-5.39495 9.41238,-13.72432 8.67964,-21.82826 -0.66454,-8.63951 -5.92609,-16.757872 -13.54661,-20.885762 -4.24249,-2.35472 -9.14719,-3.48272 -13.99224,-3.25589 z m 83.48633,0 c -8.54998,0.34395 -16.73706,5.20233 -21.18946,12.501952 -4.56988,7.30754 -5.18863,16.89993 -1.57304,24.72784 3.48344,7.74405 10.90109,13.58996 19.27896,15.05568 7.89112,1.46981 16.4028,-0.90084 22.34275,-6.31556 6.08377,-5.39495 9.41238,-13.72432 8.67964,-21.82826 -0.66455,-8.63951 -5.92609,-16.757872 -13.54661,-20.885762 -4.24249,-2.35472 -9.14719,-3.48272 -13.99224,-3.25589 z M 285.40743,101.4902 c 6.35516,-0.039 12.48898,3.99698 15.00517,9.82665 2.53618,5.64957 1.56513,12.70109 -2.50525,17.39094 -3.16042,3.77497 -8.21439,6.01714 -13.04875,5.81952 -6.45095,-0.0703 -12.58687,-4.36392 -14.91719,-10.37212 -2.24521,-5.56917 -1.18268,-12.33626 2.77725,-16.87453 0.38203,-0.45242 0.74399,-0.82753 1.07061,-1.13442 3.07378,-2.97011 7.33472,-4.71772 11.61816,-4.65604 z m 83.34961,0.002 c 6.40139,-0.0978 12.60867,3.9514 15.13994,9.82469 2.53671,5.64994 1.56409,12.70048 -2.50456,17.39153 -3.18977,3.76269 -8.12932,6.01461 -13.07288,5.81698 -1.561,-0.0202 -3.33258,-0.31769 -4.88405,-0.87086 -5.35121,-1.79831 -9.62367,-6.49564 -10.78486,-12.03563 -1.1558,-5.17135 0.29852,-10.86559 3.92151,-14.75724 3.08805,-3.36348 7.60686,-5.40356 12.1849,-5.36947 z m 83.48633,0 c 6.40139,-0.0978 12.60867,3.9514 15.13994,9.82469 2.53841,5.6532 1.56226,12.70725 -2.51024,17.39949 -3.59835,4.27566 -9.44903,6.50374 -14.97986,5.65845 -5.97897,-0.82156 -11.30512,-5.18541 -13.23969,-10.90998 -1.91328,-5.47252 -0.73995,-11.92288 3.11719,-16.2793 3.08719,-3.55697 7.75147,-5.72808 12.47266,-5.69335 z M 92.997271,126.91989 c 8.166189,-0.0328 16.279589,3.28979 22.101569,9.01172 0.27522,0.28708 0.71253,0.71577 1.08984,1.12305 5.08784,5.44233 8.1406,12.72525 8.41668,20.17347 0.43864,8.65754 -2.90459,17.42015 -9.02573,23.5628 -5.69136,5.86281 -13.72352,9.37155 -21.899279,9.49597 -6.40341,0.13915 -12.863705,-1.65844 -18.192843,-5.23224 -0.840783,-0.55366 -1.877051,-1.30331 -2.730469,-2.01368 -4.338592,-3.5932 -7.688941,-8.36006 -9.615234,-13.65234 -0.120616,-0.32432 -0.3769,-1.07324 -0.523438,-1.56445 -2.786211,-9.05953 -1.217973,-19.33468 4.184265,-27.12755 5.399782,-7.95756 14.595017,-13.20729 24.208309,-13.7162 0.52517,-0.0337 1.35638,-0.0496 1.98633,-0.0606 z M 368.11055,163.0527 c -8.14752,0.11873 -16.19277,3.08153 -22.51182,8.21749 -7.36562,5.91606 -12.28506,14.76997 -13.40615,24.15165 -3.41792,-0.0169 -6.89861,0.0339 -10.27734,-0.0254 -1.24326,-10.297 -7.089,-19.91751 -15.63687,-25.78848 -8.49287,-5.94128 -19.55777,-8.01246 -29.62269,-5.53203 -8.93886,2.13715 -16.97549,7.75754 -22.04115,15.42745 -3.16082,4.75512 -5.22098,10.24689 -5.90827,15.91845 -3.51237,0 -7.02474,0 -10.53711,0 0,19.53125 0,39.0625 0,58.59375 87.08333,0 174.16666,0 261.25,0 0,-19.53125 0,-39.0625 0,-58.59375 -3.50117,-0.0209 -7.07608,0.0418 -10.53125,-0.0312 -1.2611,-10.43371 -7.25245,-20.16632 -15.97852,-26.01862 -8.24156,-5.61939 -18.81558,-7.63755 -28.55075,-5.47049 -10.25478,2.22587 -19.40007,9.06051 -24.40004,18.29208 -2.24826,4.08349 -3.71805,8.59919 -4.27772,13.22828 -3.42513,0 -6.85026,0 -10.27539,0 -1.25324,-10.44535 -7.2475,-20.19178 -15.98243,-26.04987 -6.22948,-4.23184 -13.78669,-6.45198 -21.3125,-6.31927 z m -82.77734,9.84375 c 8.65407,-0.057 17.17937,4.38142 22.10433,11.49724 4.99335,6.96564 6.29157,16.36641 3.44481,24.44153 -2.99469,8.88435 -10.965,15.85666 -20.1674,17.65021 -7.00862,1.42 -14.58423,-0.0128 -20.50674,-4.04796 -0.40147,-0.27686 -1.08671,-0.75521 -1.5744,-1.14619 -5.69948,-4.42755 -9.51328,-11.20577 -10.22146,-18.39954 -0.90263,-7.82092 1.83652,-15.97093 7.32929,-21.61988 4.75527,-5.03517 11.50446,-8.1133 18.43152,-8.34639 0.38614,-0.0226 0.77342,-0.0189 1.16005,-0.029 z m 83.44727,0 c 8.73439,-0.0713 17.33751,4.44262 22.25781,11.65821 4.9184,6.97764 6.16302,16.34121 3.2976,24.37503 -3.01068,8.81705 -10.92468,15.73232 -20.06443,17.54133 -7.87635,1.63699 -16.45258,-0.41119 -22.64919,-5.56871 -6.22896,-5.07381 -9.99479,-13.02791 -9.89334,-21.06992 0.008,-8.05337 3.8242,-16.00712 10.14654,-21.00682 4.74955,-3.80691 10.81237,-5.96145 16.90501,-5.92912 z m 83.48632,0 c 8.66722,-0.0699 17.21111,4.37045 22.1434,11.49724 5.01211,6.99304 6.30061,16.44038 3.41176,24.53591 -3.01673,8.84061 -10.96621,15.76726 -20.13435,17.55583 -7.86856,1.61273 -16.42532,-0.44506 -22.6051,-5.60434 -5.3639,-4.40818 -8.96487,-10.94074 -9.69266,-17.85768 -0.13825,-1.14644 -0.20995,-2.55111 -0.16458,-3.80181 0.0125,-0.48756 0.0287,-0.89894 0.0792,-1.46777 0.0806,-1.02791 0.26858,-2.3003 0.45257,-3.15621 1.49709,-7.62551 6.46477,-14.47852 13.27081,-18.23698 4.01961,-2.2594 8.62376,-3.4886 13.23895,-3.46419 z m -168.22851,0.73828 c -8.47206,0.34177 -16.5912,5.10988 -21.06773,12.30284 -4.43857,6.97935 -5.28907,16.0872 -2.19399,23.76162 3.17163,8.07971 10.5591,14.35833 19.07888,16.08449 7.79953,1.66571 16.31432,-0.42733 22.39025,-5.61238 6.18512,-5.1425 9.78325,-13.23505 9.40001,-21.2768 -0.2949,-8.33775 -4.84375,-16.38689 -11.84318,-20.93088 -4.61937,-3.0643 -10.22933,-4.59306 -15.76424,-4.32889 z m 83.48633,0 c -8.62857,0.34656 -16.88849,5.28961 -21.31292,12.69844 -4.20484,6.8834 -4.97774,15.72842 -2.0042,23.23058 3.14443,8.14345 10.56549,14.48566 19.13428,16.21993 7.79865,1.66584 16.31329,-0.42685 22.38829,-5.61238 6.18512,-5.1425 9.78325,-13.23505 9.40001,-21.2768 -0.29489,-8.33775 -4.84374,-16.38689 -11.84317,-20.93088 -4.61759,-3.06501 -10.22901,-4.59256 -15.76229,-4.32889 z m 83.48632,0 c -8.62856,0.34656 -16.88848,5.28961 -21.31291,12.69844 -4.20485,6.8834 -4.97775,15.72842 -2.0042,23.23058 3.14442,8.14345 10.56549,14.48566 19.13427,16.21993 7.79865,1.66584 16.31329,-0.42685 22.3883,-5.61238 6.18512,-5.1425 9.78325,-13.23505 9.40001,-21.2768 -0.2949,-8.33775 -4.84375,-16.38689 -11.84318,-20.93088 -4.61758,-3.06501 -10.229,-4.59256 -15.76229,-4.32889 z m -165.60351,9.81446 c 6.35526,-0.039 12.48878,3.99706 15.00532,9.82658 2.521,5.61996 1.57743,12.62732 -2.44221,17.31708 -3.59209,4.3284 -9.4831,6.59344 -15.04999,5.74287 -5.967,-0.8202 -11.28353,-5.16813 -13.2253,-10.87781 -1.92838,-5.47143 -0.76338,-11.92941 3.08804,-16.29458 0.40546,-0.47206 0.71166,-0.77956 1.07751,-1.12799 3.06968,-2.92638 7.29582,-4.64783 11.54663,-4.58615 z m 83.34961,0.002 c 6.40149,-0.0978 12.60848,3.95149 15.14009,9.82463 2.53459,5.64878 1.56687,12.70107 -2.50514,17.38928 -3.59394,4.28421 -9.45129,6.51361 -14.98523,5.67151 -5.97843,-0.82413 -11.3054,-5.18693 -13.23957,-10.91276 -1.91328,-5.47253 -0.73995,-11.92288 3.11719,-16.2793 3.08876,-3.55721 7.75077,-5.72815 12.47266,-5.69336 z m 83.48633,0 c 6.40149,-0.0978 12.60847,3.95149 15.14008,9.82463 2.53589,5.65029 1.56476,12.70238 -2.50574,17.39267 -3.62637,4.32178 -9.55796,6.5504 -15.13372,5.6433 -6.03067,-0.88333 -11.3645,-5.37836 -13.19453,-11.20267 -1.78378,-5.44643 -0.53866,-11.78945 3.3093,-16.06459 3.08673,-3.49798 7.70805,-5.62758 12.38461,-5.59334 z M 248.81758,205.2676 c 1.45334,10.36344 7.58174,19.94804 16.36676,25.63227 8.38901,5.51338 19.07894,7.33309 28.82403,4.93249 9.9295,-2.38882 18.72258,-9.10393 23.60191,-18.08143 2.12648,-3.86535 3.56112,-8.11456 4.18387,-12.48333 3.49669,0.013 7.04058,-0.0261 10.50781,0.0195 1.46871,10.42558 7.67045,20.05637 16.53997,25.72638 8.12453,5.26389 18.36189,7.10351 27.8131,5.01276 10.23313,-2.20466 19.37025,-8.99704 24.39083,-18.18805 2.1557,-3.88756 3.6063,-8.1691 4.23462,-12.57062 3.49669,0.013 7.04058,-0.0261 10.50781,0.0195 1.46871,10.42558 7.67044,20.05637 16.53997,25.72638 8.33909,5.40541 18.90724,7.19515 28.56176,4.83984 10.02711,-2.38175 18.90499,-9.1806 23.78248,-18.26515 2.07808,-3.82207 3.47549,-8.01416 4.09626,-12.3206 0.85106,-0.2495 0.90446,0.29865 0.80468,1 0,12.63411 0,25.26823 0,37.90234 -80.52018,0 -161.04036,0 -241.56054,0 0,-12.96745 0,-25.9349 0,-38.90234 0.26823,0 0.53646,0 0.80468,0 z" /><g
   id="g1061"
   style="fill:#ffffff"
   transform="translate(-14.573039,-30.455112)"><path
     id="circle3"
     fill="#F4F4F4"
     d="m 107.527,100.097 c -49.126,0 -88.963,39.837 -88.963,88.959 0,49.126 39.837,88.963 88.963,88.963 49.125,0 88.963,-39.836 88.963,-88.963 0,-49.125 -39.836,-88.963 -88.963,-88.963 z m 0,1.845 c 48.128,0 87.118,38.989 87.118,87.118 0,48.129 -38.989,87.119 -87.118,87.119 -48.133,0 -87.122,-38.984 -87.122,-87.12 0,-48.126 38.989,-87.115 87.118,-87.115 z"
     style="fill:#ffffff" /><path
     id="circle5"
     fill="#F4F4F4"
     d="m 107.527,151.53 c -20.715,0 -37.534,16.817 -37.534,37.534 0,20.715 16.818,37.533 37.534,37.533 20.716,0 37.534,-16.817 37.534,-37.533 0,-20.716 -16.817,-37.534 -37.534,-37.534 z m 0,1.845 c 19.718,0 35.689,15.97 35.689,35.689 0,19.718 -15.97,35.688 -35.689,35.688 -19.718,0 -35.689,-15.97 -35.689,-35.688 0,-19.718 15.971,-35.689 35.689,-35.689 z"
     style="fill:#ffffff" /><path
     id="polygon7"
     fill="#F4F4F4"
     d="m 107.527,129.934 v 0 l 4.526,17.182 h -9.052 z"
     style="fill:#ffffff" /><path
     id="polygon9"
     fill="#F4F4F4"
     d="m 65.698,147.231 15.365,8.965 -6.371,6.4 z"
     style="fill:#ffffff" /><path
     id="polygon11"
     fill="#F4F4F4"
     d="m 65.583,184.537 v 9.053 l -17.21,-4.526 z"
     style="fill:#ffffff" /><path
     id="polygon13"
     fill="#F4F4F4"
     d="m 74.692,215.528 6.371,6.398 -15.365,8.966 z"
     style="fill:#ffffff" /><path
     id="polygon15"
     fill="#F4F4F4"
     d="m 103.001,231.002 h 9.052 l -4.526,17.182 z"
     style="fill:#ffffff" /><path
     id="polygon17"
     fill="#F4F4F4"
     d="m 140.39,215.528 8.937,15.335 -15.336,-8.937 z"
     style="fill:#ffffff" /><path
     id="polygon19"
     fill="#F4F4F4"
     d="m 149.475,184.537 17.239,4.526 -17.239,4.526 z"
     style="fill:#ffffff" /><path
     id="polygon21"
     fill="#F4F4F4"
     d="m 149.326,147.26 -8.937,15.337 -6.4,-6.4 z"
     style="fill:#ffffff" /><g
     id="g23"
     style="fill:#ffffff">
	<path
   id="circle25"
   fill="#F4F4F4"
   d="m 299.868,115.579 c -18.162,0 -32.892,14.73 -32.892,32.892 0,18.162 14.73,32.922 32.892,32.922 18.161,0 32.922,-14.759 32.922,-32.922 0,-18.162 -14.759,-32.892 -32.922,-32.892 z m 0,1.845 c 17.165,0 31.076,13.882 31.076,31.047 0,17.165 -13.911,31.077 -31.076,31.077 -17.164,0 -31.047,-13.912 -31.047,-31.077 0,-17.165 13.883,-31.047 31.047,-31.047 z"
   style="fill:#ffffff" />
	<path
   id="circle27"
   fill="#F4F4F4"
   d="m 299.868,126.101 c -12.345,0 -22.37,10.025 -22.37,22.37 0,12.345 10.025,22.371 22.37,22.371 12.346,0 22.37,-10.026 22.37,-22.371 0,-12.345 -10.024,-22.37 -22.37,-22.37 z m 0,1.844 c 11.347,0 20.525,9.178 20.525,20.525 0,11.347 -9.179,20.525 -20.525,20.525 -11.348,0 -20.525,-9.178 -20.525,-20.525 0,-11.347 9.178,-20.525 20.525,-20.525 z"
   style="fill:#ffffff" />
</g><g
     id="g29"
     style="fill:#ffffff">
	<path
   id="circle31"
   fill="#F4F4F4"
   d="m 383.354,115.579 c -18.164,0 -32.894,14.731 -32.894,32.892 0,18.162 14.731,32.893 32.894,32.893 18.161,0 32.922,-14.731 32.922,-32.893 0,-18.162 -14.76,-32.892 -32.922,-32.892 z m 0,1.845 c 17.163,0 31.076,13.883 31.076,31.047 0,17.165 -13.913,31.047 -31.076,31.047 -17.166,0 -31.048,-13.883 -31.048,-31.047 0.001,-17.165 13.882,-31.047 31.048,-31.047 z"
   style="fill:#ffffff" />
	<path
   id="circle33"
   fill="#F4F4F4"
   d="m 383.354,126.101 c -12.346,0 -22.371,10.025 -22.371,22.37 0,12.345 10.025,22.371 22.371,22.371 12.344,0 22.369,-10.026 22.369,-22.371 0,-12.345 -10.025,-22.37 -22.369,-22.37 z m 0,1.844 c 11.348,0 20.523,9.178 20.523,20.525 0,11.347 -9.178,20.525 -20.523,20.525 -11.348,0 -20.526,-9.178 -20.526,-20.525 0,-11.347 9.179,-20.525 20.526,-20.525 z"
   style="fill:#ffffff" />
</g><g
     id="g35"
     style="fill:#ffffff">
	<path
   id="circle37"
   fill="#F4F4F4"
   d="m 466.839,115.579 c -18.162,0 -32.893,14.731 -32.893,32.892 0,18.162 14.73,32.893 32.893,32.893 18.163,0 32.922,-14.731 32.922,-32.893 0,-18.162 -14.76,-32.892 -32.922,-32.892 z m 0,1.845 c 17.165,0 31.077,13.883 31.077,31.047 0,17.165 -13.912,31.047 -31.077,31.047 -17.165,0 -31.048,-13.883 -31.048,-31.047 0,-17.165 13.884,-31.047 31.048,-31.047 z"
   style="fill:#ffffff" />
	<path
   id="circle39"
   fill="#F4F4F4"
   d="m 466.839,126.101 c -12.346,0 -22.371,10.025 -22.371,22.37 0,12.345 10.025,22.371 22.371,22.371 12.344,0 22.371,-10.026 22.371,-22.371 0,-12.345 -10.027,-22.37 -22.371,-22.37 z m 0,1.844 c 11.348,0 20.525,9.178 20.525,20.525 0,11.347 -9.178,20.525 -20.525,20.525 -11.347,0 -20.525,-9.178 -20.525,-20.525 0,-11.347 9.177,-20.525 20.525,-20.525 z"
   style="fill:#ffffff" />
</g><g
     id="g41"
     style="fill:#ffffff">
	<path
   id="circle43"
   fill="#F4F4F4"
   d="m 547.962,34.457 c -18.162,0 -32.892,14.731 -32.892,32.892 0,18.162 14.731,32.922 32.892,32.922 18.163,0 32.893,-14.76 32.893,-32.922 -0.009,-18.161 -14.742,-32.892 -32.896,-32.892 z m 0,1.845 c 17.165,0 31.048,13.884 31.048,31.047 0,17.165 -13.883,31.077 -31.048,31.077 -17.164,0 -31.047,-13.912 -31.047,-31.077 0,-17.164 13.883,-31.047 31.052,-31.047 z"
   style="fill:#ffffff" />
	<path
   id="circle45"
   fill="#F4F4F4"
   d="m 547.962,44.979 c -12.345,0 -22.369,10.026 -22.369,22.371 0,12.345 10.024,22.398 22.369,22.398 12.346,0 22.37,-10.054 22.37,-22.398 0,-12.344 -10.024,-22.371 -22.37,-22.371 z m 0,1.844 c 11.349,0 20.525,9.178 20.525,20.526 0,11.348 -9.177,20.554 -20.525,20.554 -11.348,0 -20.524,-9.206 -20.524,-20.554 0,-11.348 9.176,-20.526 20.524,-20.526 z"
   style="fill:#ffffff" />
</g><g
     id="g47"
     style="fill:#ffffff">
	<path
   id="circle49"
   fill="#F4F4F4"
   d="m 299.868,197.507 c -18.162,0 -32.892,14.759 -32.892,32.922 0,18.161 14.73,32.892 32.892,32.892 18.161,0 32.922,-14.73 32.922,-32.892 0,-18.162 -14.759,-32.922 -32.922,-32.922 z m 0,1.845 c 17.165,0 31.076,13.911 31.076,31.077 0,17.164 -13.911,31.047 -31.076,31.047 -17.164,0 -31.047,-13.883 -31.047,-31.047 0,-17.165 13.883,-31.077 31.047,-31.077 z"
   style="fill:#ffffff" />
	<path
   id="circle51"
   fill="#F4F4F4"
   d="m 299.868,208.06 c -12.345,0 -22.37,10.026 -22.37,22.371 0,12.345 10.025,22.37 22.37,22.37 12.346,0 22.37,-10.025 22.37,-22.37 0,-12.345 -10.024,-22.371 -22.37,-22.371 z m 0,1.844 c 11.347,0 20.525,9.179 20.525,20.526 0,11.347 -9.179,20.525 -20.525,20.525 -11.348,0 -20.525,-9.179 -20.525,-20.525 0,-11.347 9.178,-20.526 20.525,-20.526 z"
   style="fill:#ffffff" />
</g><g
     id="g53"
     style="fill:#ffffff">
	<path
   id="circle55"
   fill="#F4F4F4"
   d="m 383.354,197.507 c -18.164,0 -32.894,14.76 -32.894,32.922 0,18.161 14.731,32.892 32.894,32.892 18.161,0 32.922,-14.731 32.922,-32.892 0,-18.162 -14.76,-32.922 -32.922,-32.922 z m 0,1.845 c 17.163,0 31.076,13.912 31.076,31.077 0,17.164 -13.913,31.047 -31.076,31.047 -17.166,0 -31.048,-13.884 -31.048,-31.047 0.001,-17.165 13.882,-31.077 31.048,-31.077 z"
   style="fill:#ffffff" />
	<path
   id="circle57"
   fill="#F4F4F4"
   d="m 383.354,208.06 c -12.346,0 -22.371,10.026 -22.371,22.371 0,12.345 10.025,22.37 22.371,22.37 12.344,0 22.369,-10.025 22.369,-22.37 0,-12.345 -10.025,-22.371 -22.369,-22.371 z m 0,1.844 c 11.348,0 20.523,9.179 20.523,20.526 0,11.347 -9.178,20.525 -20.523,20.525 -11.348,0 -20.526,-9.179 -20.526,-20.525 0,-11.347 9.179,-20.526 20.526,-20.526 z"
   style="fill:#ffffff" />
</g><path
     id="circle59"
     fill="#F4F4F4"
     d="m 466.839,197.507 c -18.162,0 -32.893,14.76 -32.893,32.922 0,18.161 14.73,32.892 32.893,32.892 18.163,0 32.922,-14.731 32.922,-32.892 0,-18.162 -14.76,-32.922 -32.922,-32.922 z m 0,1.845 c 17.165,0 31.077,13.912 31.077,31.077 0,17.164 -13.912,31.047 -31.077,31.047 -17.165,0 -31.048,-13.884 -31.048,-31.047 0,-17.165 13.884,-31.077 31.048,-31.077 z"
     style="fill:#ffffff" /><path
     id="circle61"
     fill="#F4F4F4"
     d="m 466.839,208.06 c -12.346,0 -22.371,10.026 -22.371,22.371 0,12.345 10.025,22.37 22.371,22.37 12.344,0 22.371,-10.025 22.371,-22.37 0,-12.345 -10.027,-22.371 -22.371,-22.371 z m 0,1.844 c 11.348,0 20.525,9.179 20.525,20.526 0,11.347 -9.178,20.525 -20.525,20.525 -11.347,0 -20.525,-9.179 -20.525,-20.525 -0.001,-11.347 9.177,-20.526 20.525,-20.526 z"
     style="fill:#ffffff" /><g
     id="g63"
     style="fill:#ffffff">
	<path
   id="line65"
   fill="#F4F4F4"
   d="m 415.382,229.877 v 1.845 h 19.604 v -1.845 z"
   style="fill:#ffffff" />
	<path
   id="line67"
   fill="#F4F4F4"
   d="m 331.952,229.877 v 1.845 h 19.517 v -1.845 z"
   style="fill:#ffffff" />
	<path
   id="polyline69"
   fill="#F4F4F4"
   d="m 256.742,229.877 v 0.923 48.747 0.923 h 0.922 251.406 0.923 v -0.923 -48.747 -0.923 h -0.923 -10.177 v 1.845 h 9.254 v 46.903 H 258.586 v -46.903 h 9.399 v -1.845 h -10.321 z"
   style="fill:#ffffff" />
</g><g
     id="g71"
     style="fill:#ffffff">
	<path
   id="line73"
   fill="#F4F4F4"
   d="m 415.382,148.384 v 1.846 h 19.604 v -1.846 z"
   style="fill:#ffffff" />
	<path
   id="line75"
   fill="#F4F4F4"
   d="m 331.952,148.384 v 1.846 h 19.517 v -1.846 z"
   style="fill:#ffffff" />
	<path
   id="polyline77"
   fill="#F4F4F4"
   d="m 256.742,99.636 v 0.922 48.749 0.923 h 0.922 10.321 v -1.846 h -9.399 v -46.903 h 249.561 v 46.903 h -9.254 v 1.846 h 10.177 0.923 v -0.923 -48.749 -0.922 H 509.07 257.664 Z"
   style="fill:#ffffff" />
</g></g>
</svg>
