<?xml version="1.0" encoding="UTF-8" standalone="no"?>
<!-- Generator: Adobe Illustrator 16.0.3, SVG Export Plug-In . SVG Version: 6.00 Build 0)  -->

<svg
   version="1.1"
   id="TEXT"
   x="0px"
   y="0px"
   width="574.90973"
   height="165.82338"
   viewBox="0 -0.001 574.90971 165.82338"
   enable-background="new 0 -0.001 566.929 157.78"
   xml:space="preserve"
   sodipodi:docname="system.svg"
   inkscape:version="1.1.2 (0a00cf5339, 2022-02-04)"
   xmlns:inkscape="http://www.inkscape.org/namespaces/inkscape"
   xmlns:sodipodi="http://sodipodi.sourceforge.net/DTD/sodipodi-0.dtd"
   xmlns:xlink="http://www.w3.org/1999/xlink"
   xmlns="http://www.w3.org/2000/svg"
   xmlns:svg="http://www.w3.org/2000/svg"
   xmlns:rdf="http://www.w3.org/1999/02/22-rdf-syntax-ns#"
   xmlns:cc="http://creativecommons.org/ns#"
   xmlns:dc="http://purl.org/dc/elements/1.1/"><metadata
   id="metadata339"><rdf:RDF><cc:Work
       rdf:about=""><dc:format>image/svg+xml</dc:format><dc:type
         rdf:resource="http://purl.org/dc/dcmitype/StillImage" /></cc:Work></rdf:RDF></metadata><defs
   id="defs337">
	
	
	
	
	
	
	
	

	
	
	
	
	
	

	
	
	
	
	
	
	

	
	
	
	
	
	
	
	

	
	
	
	
	
	
	

	
	
	
	
	
	
	
	

	
	
	
	
	
	

	
	
	
	
	
	
	
	
<linearGradient
   inkscape:collect="always"
   xlink:href="#SVGID_1_"
   id="linearGradient5643"
   gradientUnits="userSpaceOnUse"
   gradientTransform="translate(-0.1797,-875.4102)"
   x1="558.12842"
   y1="955.59772"
   x2="11.77"
   y2="955.59772" /><linearGradient
   inkscape:collect="always"
   xlink:href="#SVGID_2_"
   id="linearGradient5645"
   gradientUnits="userSpaceOnUse"
   gradientTransform="translate(3.8222531,-871.38756)"
   x1="64.709503"
   y1="938.78912"
   x2="60.764999"
   y2="934.84479" /><linearGradient
   inkscape:collect="always"
   xlink:href="#SVGID_3_"
   id="linearGradient5647"
   gradientUnits="userSpaceOnUse"
   gradientTransform="translate(3.8222531,-871.38756)"
   x1="123.2954"
   y1="1013.9102"
   x2="119.6701"
   y2="1010.2849" /><linearGradient
   inkscape:collect="always"
   xlink:href="#SVGID_4_"
   id="linearGradient5649"
   gradientUnits="userSpaceOnUse"
   gradientTransform="translate(-0.1797,-875.4102)"
   x1="25.7236"
   y1="994.05078"
   x2="25.7236"
   y2="989.73828" /><linearGradient
   inkscape:collect="always"
   xlink:href="#SVGID_5_"
   id="linearGradient5651"
   gradientUnits="userSpaceOnUse"
   gradientTransform="translate(-0.1797,-875.4102)"
   x1="121.1855"
   y1="1033.1816"
   x2="121.1855"
   y2="1028.7246" /><linearGradient
   inkscape:collect="always"
   xlink:href="#SVGID_6_"
   id="linearGradient5653"
   gradientUnits="userSpaceOnUse"
   gradientTransform="translate(-0.1797,-875.4102)"
   x1="427.69379"
   y1="994.02338"
   x2="427.69379"
   y2="989.55658" /><linearGradient
   inkscape:collect="always"
   xlink:href="#SVGID_7_"
   id="linearGradient5655"
   gradientUnits="userSpaceOnUse"
   gradientTransform="translate(3.8222531,-871.38756)"
   x1="251.0645"
   y1="994.89447"
   x2="251.0645"
   y2="990.41602" /><linearGradient
   inkscape:collect="always"
   xlink:href="#SVGID_8_"
   id="linearGradient5657"
   gradientUnits="userSpaceOnUse"
   gradientTransform="translate(3.8222531,-871.38756)"
   x1="522.28082"
   y1="882.1875"
   x2="522.28082"
   y2="877.32422" /><linearGradient
   inkscape:collect="always"
   xlink:href="#SVGID_9_"
   id="linearGradient5659"
   gradientUnits="userSpaceOnUse"
   gradientTransform="translate(-0.1797,-875.4102)"
   x1="515.01318"
   y1="906.71478"
   x2="515.01318"
   y2="902.50488" /><linearGradient
   inkscape:collect="always"
   xlink:href="#SVGID_10_"
   id="linearGradient5661"
   gradientUnits="userSpaceOnUse"
   gradientTransform="translate(-0.1797,-875.4102)"
   x1="459.3696"
   y1="950.23053"
   x2="459.3696"
   y2="946.51172" /><linearGradient
   inkscape:collect="always"
   xlink:href="#SVGID_11_"
   id="linearGradient5663"
   gradientUnits="userSpaceOnUse"
   gradientTransform="translate(3.8222531,-871.38756)"
   x1="490.16061"
   y1="925.11133"
   x2="490.16061"
   y2="919.55658" /><linearGradient
   inkscape:collect="always"
   xlink:href="#SVGID_12_"
   id="linearGradient5665"
   gradientUnits="userSpaceOnUse"
   gradientTransform="translate(3.8222531,-871.38756)"
   x1="74.389198"
   y1="968.8252"
   x2="70.846001"
   y2="965.28198" /><linearGradient
   inkscape:collect="always"
   xlink:href="#SVGID_13_"
   id="linearGradient5667"
   gradientUnits="userSpaceOnUse"
   gradientTransform="translate(3.8222531,-871.38756)"
   x1="120.2554"
   y1="904.36908"
   x2="114.8892"
   y2="904.36908" /><linearGradient
   inkscape:collect="always"
   xlink:href="#SVGID_14_"
   id="linearGradient5669"
   gradientUnits="userSpaceOnUse"
   gradientTransform="translate(3.8222531,-871.38756)"
   x1="173.0811"
   y1="919.96088"
   x2="166.4209"
   y2="919.96088" /><linearGradient
   inkscape:collect="always"
   xlink:href="#SVGID_15_"
   id="linearGradient5671"
   gradientUnits="userSpaceOnUse"
   gradientTransform="translate(3.8222531,-871.38756)"
   x1="255.9883"
   y1="925.21582"
   x2="249.9951"
   y2="925.21582" /><linearGradient
   inkscape:collect="always"
   xlink:href="#SVGID_16_"
   id="linearGradient5673"
   gradientUnits="userSpaceOnUse"
   gradientTransform="translate(3.8222531,-871.38756)"
   x1="349.27689"
   y1="904.625"
   x2="343.57571"
   y2="904.625" /><linearGradient
   inkscape:collect="always"
   xlink:href="#SVGID_17_"
   id="linearGradient5675"
   gradientUnits="userSpaceOnUse"
   gradientTransform="translate(3.8222531,-871.38756)"
   x1="400.96039"
   y1="918.44629"
   x2="395.1636"
   y2="918.44629" /><linearGradient
   inkscape:collect="always"
   xlink:href="#SVGID_18_"
   id="linearGradient5677"
   gradientUnits="userSpaceOnUse"
   gradientTransform="translate(3.8222531,-871.38756)"
   x1="101.7651"
   y1="968.93848"
   x2="96.654297"
   y2="968.93848" /><linearGradient
   inkscape:collect="always"
   xlink:href="#SVGID_19_"
   id="linearGradient5679"
   gradientUnits="userSpaceOnUse"
   gradientTransform="translate(3.8222531,-871.38756)"
   x1="121.2485"
   y1="973.83789"
   x2="117.6964"
   y2="970.28583" /><linearGradient
   inkscape:collect="always"
   xlink:href="#SVGID_20_"
   id="linearGradient5681"
   gradientUnits="userSpaceOnUse"
   gradientTransform="translate(3.8222531,-871.38756)"
   x1="553.43597"
   y1="892.5"
   x2="549.76727"
   y2="888.83112" /><linearGradient
   inkscape:collect="always"
   xlink:href="#SVGID_21_"
   id="linearGradient5683"
   gradientUnits="userSpaceOnUse"
   gradientTransform="translate(3.8222531,-871.38756)"
   x1="145.99409"
   y1="969.87891"
   x2="140.5957"
   y2="969.87891" /><linearGradient
   inkscape:collect="always"
   xlink:href="#SVGID_22_"
   id="linearGradient5685"
   gradientUnits="userSpaceOnUse"
   gradientTransform="translate(3.8222531,-871.38756)"
   x1="148.7769"
   y1="907.00983"
   x2="144.28909"
   y2="902.52197" /><linearGradient
   inkscape:collect="always"
   xlink:href="#SVGID_23_"
   id="linearGradient5687"
   gradientUnits="userSpaceOnUse"
   gradientTransform="translate(3.8222531,-871.38756)"
   x1="215.8457"
   y1="922.32129"
   x2="211.688"
   y2="918.16357" /><linearGradient
   inkscape:collect="always"
   xlink:href="#SVGID_24_"
   id="linearGradient5689"
   gradientUnits="userSpaceOnUse"
   gradientTransform="translate(3.8222531,-871.38756)"
   x1="304.31589"
   y1="927.81049"
   x2="299.9317"
   y2="923.42627" /><linearGradient
   inkscape:collect="always"
   xlink:href="#SVGID_25_"
   id="linearGradient5691"
   gradientUnits="userSpaceOnUse"
   gradientTransform="translate(3.8222531,-871.38756)"
   x1="376.97119"
   y1="906.86133"
   x2="372.76331"
   y2="902.65302" /><linearGradient
   inkscape:collect="always"
   xlink:href="#SVGID_26_"
   id="linearGradient5693"
   gradientUnits="userSpaceOnUse"
   gradientTransform="translate(3.8222531,-871.38756)"
   x1="488.73779"
   y1="935.26459"
   x2="485.28159"
   y2="931.80859" /><linearGradient
   inkscape:collect="always"
   xlink:href="#SVGID_27_"
   id="linearGradient5695"
   gradientUnits="userSpaceOnUse"
   gradientTransform="translate(3.8222531,-871.38756)"
   x1="499.80811"
   y1="979.37701"
   x2="495.84851"
   y2="975.41748" /><linearGradient
   inkscape:collect="always"
   xlink:href="#SVGID_28_"
   id="linearGradient5697"
   gradientUnits="userSpaceOnUse"
   gradientTransform="translate(3.8222531,-871.38756)"
   x1="441.8374"
   y1="921.61328"
   x2="437.55469"
   y2="917.33063" /><linearGradient
   inkscape:collect="always"
   xlink:href="#SVGID_29_"
   id="linearGradient5699"
   gradientUnits="userSpaceOnUse"
   gradientTransform="translate(3.8222531,-871.38756)"
   x1="486.85889"
   y1="916.64941"
   x2="481.74481"
   y2="911.53528" /><linearGradient
   inkscape:collect="always"
   xlink:href="#SVGID_30_"
   id="linearGradient5701"
   gradientUnits="userSpaceOnUse"
   gradientTransform="translate(3.8222531,-871.38756)"
   x1="185.9771"
   y1="992.33008"
   x2="182.33521"
   y2="988.68817" /><linearGradient
   inkscape:collect="always"
   xlink:href="#SVGID_31_"
   id="linearGradient5703"
   gradientUnits="userSpaceOnUse"
   gradientTransform="translate(3.8222531,-871.38756)"
   x1="303.0278"
   y1="969.13959"
   x2="299.3873"
   y2="965.49908" /><linearGradient
   inkscape:collect="always"
   xlink:href="#SVGID_32_"
   id="linearGradient5705"
   gradientUnits="userSpaceOnUse"
   gradientTransform="translate(3.8222531,-871.38756)"
   x1="349.88919"
   y1="973.08502"
   x2="346.37991"
   y2="969.57562" /><linearGradient
   inkscape:collect="always"
   xlink:href="#SVGID_33_"
   id="linearGradient5707"
   gradientUnits="userSpaceOnUse"
   gradientTransform="translate(3.8222531,-871.38756)"
   x1="370.8042"
   y1="993.63959"
   x2="366.38129"
   y2="989.21692" /><linearGradient
   inkscape:collect="always"
   xlink:href="#SVGID_34_"
   id="linearGradient5709"
   gradientUnits="userSpaceOnUse"
   gradientTransform="translate(3.8222531,-871.38756)"
   x1="229.457"
   y1="971.76862"
   x2="223.4189"
   y2="971.76862" /><linearGradient
   inkscape:collect="always"
   xlink:href="#SVGID_35_"
   id="linearGradient5711"
   gradientUnits="userSpaceOnUse"
   gradientTransform="translate(3.8222531,-871.38756)"
   x1="330.3042"
   y1="968.51862"
   x2="325.09229"
   y2="968.51862" /><linearGradient
   inkscape:collect="always"
   xlink:href="#SVGID_36_"
   id="linearGradient5713"
   gradientUnits="userSpaceOnUse"
   gradientTransform="translate(3.8222531,-871.38756)"
   x1="374.97021"
   y1="967.80658"
   x2="368.7251"
   y2="967.80658" /><linearGradient
   inkscape:collect="always"
   xlink:href="#SVGID_37_"
   id="linearGradient5715"
   gradientUnits="userSpaceOnUse"
   gradientTransform="translate(3.8222531,-871.38756)"
   x1="440.63721"
   y1="959.6748"
   x2="436.21909"
   y2="955.25677" /><linearGradient
   inkscape:collect="always"
   xlink:href="#SVGID_38_"
   id="linearGradient5717"
   gradientUnits="userSpaceOnUse"
   gradientTransform="translate(3.8222531,-871.38756)"
   x1="472.92041"
   y1="969.50983"
   x2="472.92041"
   y2="963.70801" /><linearGradient
   inkscape:collect="always"
   xlink:href="#SVGID_1_"
   id="linearGradient5719"
   gradientUnits="userSpaceOnUse"
   gradientTransform="translate(-0.1797,-875.4102)"
   x1="558.12842"
   y1="955.59772"
   x2="11.77"
   y2="955.59772" /><linearGradient
   inkscape:collect="always"
   xlink:href="#SVGID_2_"
   id="linearGradient5721"
   gradientUnits="userSpaceOnUse"
   gradientTransform="translate(3.8222531,-871.38756)"
   x1="64.709503"
   y1="938.78912"
   x2="60.764999"
   y2="934.84479" /><linearGradient
   inkscape:collect="always"
   xlink:href="#SVGID_3_"
   id="linearGradient5723"
   gradientUnits="userSpaceOnUse"
   gradientTransform="translate(3.8222531,-871.38756)"
   x1="123.2954"
   y1="1013.9102"
   x2="119.6701"
   y2="1010.2849" /><linearGradient
   inkscape:collect="always"
   xlink:href="#SVGID_4_"
   id="linearGradient5725"
   gradientUnits="userSpaceOnUse"
   gradientTransform="translate(-0.1797,-875.4102)"
   x1="25.7236"
   y1="994.05078"
   x2="25.7236"
   y2="989.73828" /><linearGradient
   inkscape:collect="always"
   xlink:href="#SVGID_5_"
   id="linearGradient5727"
   gradientUnits="userSpaceOnUse"
   gradientTransform="translate(-0.1797,-875.4102)"
   x1="121.1855"
   y1="1033.1816"
   x2="121.1855"
   y2="1028.7246" /><linearGradient
   inkscape:collect="always"
   xlink:href="#SVGID_6_"
   id="linearGradient5729"
   gradientUnits="userSpaceOnUse"
   gradientTransform="translate(-0.1797,-875.4102)"
   x1="427.69379"
   y1="994.02338"
   x2="427.69379"
   y2="989.55658" /><linearGradient
   inkscape:collect="always"
   xlink:href="#SVGID_7_"
   id="linearGradient5731"
   gradientUnits="userSpaceOnUse"
   gradientTransform="translate(3.8222531,-871.38756)"
   x1="251.0645"
   y1="994.89447"
   x2="251.0645"
   y2="990.41602" /><linearGradient
   inkscape:collect="always"
   xlink:href="#SVGID_8_"
   id="linearGradient5733"
   gradientUnits="userSpaceOnUse"
   gradientTransform="translate(3.8222531,-871.38756)"
   x1="522.28082"
   y1="882.1875"
   x2="522.28082"
   y2="877.32422" /><linearGradient
   inkscape:collect="always"
   xlink:href="#SVGID_9_"
   id="linearGradient5735"
   gradientUnits="userSpaceOnUse"
   gradientTransform="translate(-0.1797,-875.4102)"
   x1="515.01318"
   y1="906.71478"
   x2="515.01318"
   y2="902.50488" /><linearGradient
   inkscape:collect="always"
   xlink:href="#SVGID_10_"
   id="linearGradient5737"
   gradientUnits="userSpaceOnUse"
   gradientTransform="translate(-0.1797,-875.4102)"
   x1="459.3696"
   y1="950.23053"
   x2="459.3696"
   y2="946.51172" /><linearGradient
   inkscape:collect="always"
   xlink:href="#SVGID_11_"
   id="linearGradient5739"
   gradientUnits="userSpaceOnUse"
   gradientTransform="translate(3.8222531,-871.38756)"
   x1="490.16061"
   y1="925.11133"
   x2="490.16061"
   y2="919.55658" /><linearGradient
   inkscape:collect="always"
   xlink:href="#SVGID_12_"
   id="linearGradient5741"
   gradientUnits="userSpaceOnUse"
   gradientTransform="translate(3.8222531,-871.38756)"
   x1="74.389198"
   y1="968.8252"
   x2="70.846001"
   y2="965.28198" /><linearGradient
   inkscape:collect="always"
   xlink:href="#SVGID_13_"
   id="linearGradient5743"
   gradientUnits="userSpaceOnUse"
   gradientTransform="translate(3.8222531,-871.38756)"
   x1="120.2554"
   y1="904.36908"
   x2="114.8892"
   y2="904.36908" /><linearGradient
   inkscape:collect="always"
   xlink:href="#SVGID_14_"
   id="linearGradient5745"
   gradientUnits="userSpaceOnUse"
   gradientTransform="translate(3.8222531,-871.38756)"
   x1="173.0811"
   y1="919.96088"
   x2="166.4209"
   y2="919.96088" /><linearGradient
   inkscape:collect="always"
   xlink:href="#SVGID_15_"
   id="linearGradient5747"
   gradientUnits="userSpaceOnUse"
   gradientTransform="translate(3.8222531,-871.38756)"
   x1="255.9883"
   y1="925.21582"
   x2="249.9951"
   y2="925.21582" /><linearGradient
   inkscape:collect="always"
   xlink:href="#SVGID_16_"
   id="linearGradient5749"
   gradientUnits="userSpaceOnUse"
   gradientTransform="translate(3.8222531,-871.38756)"
   x1="349.27689"
   y1="904.625"
   x2="343.57571"
   y2="904.625" /><linearGradient
   inkscape:collect="always"
   xlink:href="#SVGID_17_"
   id="linearGradient5751"
   gradientUnits="userSpaceOnUse"
   gradientTransform="translate(3.8222531,-871.38756)"
   x1="400.96039"
   y1="918.44629"
   x2="395.1636"
   y2="918.44629" /><linearGradient
   inkscape:collect="always"
   xlink:href="#SVGID_18_"
   id="linearGradient5753"
   gradientUnits="userSpaceOnUse"
   gradientTransform="translate(3.8222531,-871.38756)"
   x1="101.7651"
   y1="968.93848"
   x2="96.654297"
   y2="968.93848" /><linearGradient
   inkscape:collect="always"
   xlink:href="#SVGID_19_"
   id="linearGradient5755"
   gradientUnits="userSpaceOnUse"
   gradientTransform="translate(3.8222531,-871.38756)"
   x1="121.2485"
   y1="973.83789"
   x2="117.6964"
   y2="970.28583" /><linearGradient
   inkscape:collect="always"
   xlink:href="#SVGID_20_"
   id="linearGradient5757"
   gradientUnits="userSpaceOnUse"
   gradientTransform="translate(3.8222531,-871.38756)"
   x1="553.43597"
   y1="892.5"
   x2="549.76727"
   y2="888.83112" /><linearGradient
   inkscape:collect="always"
   xlink:href="#SVGID_21_"
   id="linearGradient5759"
   gradientUnits="userSpaceOnUse"
   gradientTransform="translate(3.8222531,-871.38756)"
   x1="145.99409"
   y1="969.87891"
   x2="140.5957"
   y2="969.87891" /><linearGradient
   inkscape:collect="always"
   xlink:href="#SVGID_22_"
   id="linearGradient5761"
   gradientUnits="userSpaceOnUse"
   gradientTransform="translate(3.8222531,-871.38756)"
   x1="148.7769"
   y1="907.00983"
   x2="144.28909"
   y2="902.52197" /><linearGradient
   inkscape:collect="always"
   xlink:href="#SVGID_23_"
   id="linearGradient5763"
   gradientUnits="userSpaceOnUse"
   gradientTransform="translate(3.8222531,-871.38756)"
   x1="215.8457"
   y1="922.32129"
   x2="211.688"
   y2="918.16357" /><linearGradient
   inkscape:collect="always"
   xlink:href="#SVGID_24_"
   id="linearGradient5765"
   gradientUnits="userSpaceOnUse"
   gradientTransform="translate(3.8222531,-871.38756)"
   x1="304.31589"
   y1="927.81049"
   x2="299.9317"
   y2="923.42627" /><linearGradient
   inkscape:collect="always"
   xlink:href="#SVGID_25_"
   id="linearGradient5767"
   gradientUnits="userSpaceOnUse"
   gradientTransform="translate(3.8222531,-871.38756)"
   x1="376.97119"
   y1="906.86133"
   x2="372.76331"
   y2="902.65302" /><linearGradient
   inkscape:collect="always"
   xlink:href="#SVGID_26_"
   id="linearGradient5769"
   gradientUnits="userSpaceOnUse"
   gradientTransform="translate(3.8222531,-871.38756)"
   x1="488.73779"
   y1="935.26459"
   x2="485.28159"
   y2="931.80859" /><linearGradient
   inkscape:collect="always"
   xlink:href="#SVGID_27_"
   id="linearGradient5771"
   gradientUnits="userSpaceOnUse"
   gradientTransform="translate(3.8222531,-871.38756)"
   x1="499.80811"
   y1="979.37701"
   x2="495.84851"
   y2="975.41748" /><linearGradient
   inkscape:collect="always"
   xlink:href="#SVGID_28_"
   id="linearGradient5773"
   gradientUnits="userSpaceOnUse"
   gradientTransform="translate(3.8222531,-871.38756)"
   x1="441.8374"
   y1="921.61328"
   x2="437.55469"
   y2="917.33063" /><linearGradient
   inkscape:collect="always"
   xlink:href="#SVGID_29_"
   id="linearGradient5775"
   gradientUnits="userSpaceOnUse"
   gradientTransform="translate(3.8222531,-871.38756)"
   x1="486.85889"
   y1="916.64941"
   x2="481.74481"
   y2="911.53528" /><linearGradient
   inkscape:collect="always"
   xlink:href="#SVGID_30_"
   id="linearGradient5777"
   gradientUnits="userSpaceOnUse"
   gradientTransform="translate(3.8222531,-871.38756)"
   x1="185.9771"
   y1="992.33008"
   x2="182.33521"
   y2="988.68817" /><linearGradient
   inkscape:collect="always"
   xlink:href="#SVGID_31_"
   id="linearGradient5779"
   gradientUnits="userSpaceOnUse"
   gradientTransform="translate(3.8222531,-871.38756)"
   x1="303.0278"
   y1="969.13959"
   x2="299.3873"
   y2="965.49908" /><linearGradient
   inkscape:collect="always"
   xlink:href="#SVGID_32_"
   id="linearGradient5781"
   gradientUnits="userSpaceOnUse"
   gradientTransform="translate(3.8222531,-871.38756)"
   x1="349.88919"
   y1="973.08502"
   x2="346.37991"
   y2="969.57562" /><linearGradient
   inkscape:collect="always"
   xlink:href="#SVGID_33_"
   id="linearGradient5783"
   gradientUnits="userSpaceOnUse"
   gradientTransform="translate(3.8222531,-871.38756)"
   x1="370.8042"
   y1="993.63959"
   x2="366.38129"
   y2="989.21692" /><linearGradient
   inkscape:collect="always"
   xlink:href="#SVGID_34_"
   id="linearGradient5785"
   gradientUnits="userSpaceOnUse"
   gradientTransform="translate(3.8222531,-871.38756)"
   x1="229.457"
   y1="971.76862"
   x2="223.4189"
   y2="971.76862" /><linearGradient
   inkscape:collect="always"
   xlink:href="#SVGID_35_"
   id="linearGradient5787"
   gradientUnits="userSpaceOnUse"
   gradientTransform="translate(3.8222531,-871.38756)"
   x1="330.3042"
   y1="968.51862"
   x2="325.09229"
   y2="968.51862" /><linearGradient
   inkscape:collect="always"
   xlink:href="#SVGID_36_"
   id="linearGradient5789"
   gradientUnits="userSpaceOnUse"
   gradientTransform="translate(3.8222531,-871.38756)"
   x1="374.97021"
   y1="967.80658"
   x2="368.7251"
   y2="967.80658" /><linearGradient
   inkscape:collect="always"
   xlink:href="#SVGID_37_"
   id="linearGradient5791"
   gradientUnits="userSpaceOnUse"
   gradientTransform="translate(3.8222531,-871.38756)"
   x1="440.63721"
   y1="959.6748"
   x2="436.21909"
   y2="955.25677" /><linearGradient
   inkscape:collect="always"
   xlink:href="#SVGID_38_"
   id="linearGradient5793"
   gradientUnits="userSpaceOnUse"
   gradientTransform="translate(3.8222531,-871.38756)"
   x1="472.92041"
   y1="969.50983"
   x2="472.92041"
   y2="963.70801" /></defs><sodipodi:namedview
   pagecolor="#9b9494"
   bordercolor="#666666"
   borderopacity="1"
   objecttolerance="10"
   gridtolerance="10"
   guidetolerance="10"
   inkscape:pageopacity="0"
   inkscape:pageshadow="2"
   inkscape:window-width="1920"
   inkscape:window-height="996"
   id="namedview335"
   showgrid="false"
   inkscape:zoom="1.2297964"
   inkscape:cx="242.7231"
   inkscape:cy="-18.295711"
   inkscape:window-x="0"
   inkscape:window-y="0"
   inkscape:window-maximized="1"
   inkscape:current-layer="TEXT"
   inkscape:pagecheckerboard="0"
   showguides="true"
   inkscape:guide-bbox="true"
   fit-margin-top="0"
   fit-margin-left="0"
   fit-margin-right="0"
   fit-margin-bottom="0" />
<linearGradient
   id="SVGID_1_"
   gradientUnits="userSpaceOnUse"
   x1="558.12842"
   y1="955.59772"
   x2="11.77"
   y2="955.59772"
   gradientTransform="translate(-0.1797,-875.4102)">
	<stop
   offset="0"
   style="stop-color:#013A67"
   id="stop2" />
	<stop
   offset="1"
   style="stop-color:#6CD1FF"
   id="stop4" />
</linearGradient>
<polygon
   fill="url(#SVGID_1_)"
   points="557.949,5.927 479.951,5.642 406.662,79.217 396.4,79.784 396.686,9.001 355.481,51.055 345.625,52.224 345.625,9.374 261.264,92.842 250.775,93.958 251.667,8.077 177.937,82.94 168.255,82.987 167.12,11.089 127.342,51.15 116.278,51.717 116.697,8.939 11.591,114.895 46.209,114.328 91.598,70.276 100.303,70.276 99.883,114.54 136.035,77.543 144.679,77.543 144.679,115.23 104.892,154.73 143.019,154.165 218.036,78.299 228.14,78.299 228.14,115.57 274.897,115.854 320.115,70.353 328.843,69.786 328.708,112.799 364.839,76.667 373.375,76.667 373.941,113.102 373.203,114.998 482.378,114.998 503.279,93.815 435.398,92.661 434.781,82.809 445.357,71.67 470.968,71.667 493.216,49.133 479.769,48.565 479.769,39.082 491.191,27.662 536.777,27.946 "
   id="polygon7"
   style="fill:url(#linearGradient5643)"
   transform="translate(4.0019531,4.0226435)" />
<linearGradient
   id="SVGID_2_"
   gradientUnits="userSpaceOnUse"
   x1="64.709503"
   y1="938.78912"
   x2="60.764999"
   y2="934.84479"
   gradientTransform="translate(-0.1797,-875.4102)">
	<stop
   offset="0"
   style="stop-color:#08406F"
   id="stop9" />
	<stop
   offset="1"
   style="stop-color:#60C5F5"
   id="stop11" />
</linearGradient>
<path
   fill="url(#SVGID_2_)"
   d="M 118.69395,17.235644 17.578953,118.35064 l -11.4709999,4.313 c 0,0 -0.604,0.039 -0.271,-0.445 0,0 117.2599969,-117.2919965 117.4719969,-117.4709965 0.212,-0.181 0.467,-0.028 0.467,-0.028 z"
   id="path14"
   style="fill:url(#linearGradient5645)" />
<linearGradient
   id="SVGID_3_"
   gradientUnits="userSpaceOnUse"
   x1="123.2954"
   y1="1013.9102"
   x2="119.6701"
   y2="1010.2849"
   gradientTransform="translate(-0.1797,-875.4102)">
	<stop
   offset="0"
   style="stop-color:#08406F"
   id="stop16" />
	<stop
   offset="1"
   style="stop-color:#60C5F5"
   id="stop18" />
</linearGradient>
<path
   fill="url(#SVGID_3_)"
   d="m 149.81595,119.81964 -37.518,37.521 -11.065,4.457 c 0,0 -0.576,0.065 -0.236,-0.407 l 43.929,-43.749 z"
   id="path21"
   style="fill:url(#linearGradient5647)" />
<linearGradient
   id="SVGID_4_"
   gradientUnits="userSpaceOnUse"
   x1="25.7236"
   y1="994.05078"
   x2="25.7236"
   y2="989.73828"
   gradientTransform="translate(-0.1797,-875.4102)">
	<stop
   offset="0"
   style="stop-color:#08406F"
   id="stop23" />
	<stop
   offset="1"
   style="stop-color:#60C5F5"
   id="stop25" />
</linearGradient>
<polygon
   fill="url(#SVGID_4_)"
   points="13.603,114.328 46.209,114.328 48.982,118.641 2.106,118.641 "
   id="polygon28"
   style="fill:url(#linearGradient5649)"
   transform="translate(4.0019531,4.0226435)" />
<linearGradient
   id="SVGID_5_"
   gradientUnits="userSpaceOnUse"
   x1="121.1855"
   y1="1033.1816"
   x2="121.1855"
   y2="1028.7246"
   gradientTransform="translate(-0.1797,-875.4102)">
	<stop
   offset="0"
   style="stop-color:#08406F"
   id="stop30" />
	<stop
   offset="1"
   style="stop-color:#60C5F5"
   id="stop32" />
</linearGradient>
<polygon
   fill="url(#SVGID_5_)"
   points="108.296,153.314 142.168,153.314 144.781,157.771 97.23,157.771 "
   id="polygon35"
   style="fill:url(#linearGradient5651)"
   transform="translate(4.0019531,4.0226435)" />
<linearGradient
   id="SVGID_6_"
   gradientUnits="userSpaceOnUse"
   x1="427.69379"
   y1="994.02338"
   x2="427.69379"
   y2="989.55658"
   gradientTransform="translate(-0.1797,-875.4102)">
	<stop
   offset="0"
   style="stop-color:#08406F"
   id="stop37" />
	<stop
   offset="1"
   style="stop-color:#60C5F5"
   id="stop39" />
</linearGradient>
<polygon
   fill="url(#SVGID_6_)"
   points="374.052,114.148 481.529,114.146 484.787,118.613 370.242,118.584 "
   id="polygon42"
   style="fill:url(#linearGradient5653)"
   transform="translate(4.0019531,4.0226435)" />
<linearGradient
   id="SVGID_7_"
   gradientUnits="userSpaceOnUse"
   x1="251.0645"
   y1="994.89447"
   x2="251.0645"
   y2="990.41602"
   gradientTransform="translate(-0.1797,-875.4102)">
	<stop
   offset="0"
   style="stop-color:#08406F"
   id="stop44" />
	<stop
   offset="1"
   style="stop-color:#60C5F5"
   id="stop46" />
</linearGradient>
<path
   fill="url(#SVGID_7_)"
   d="m 281.05495,123.50664 -51.527,-0.029 c -0.333,0.005 -0.81,-0.335 -0.81,-0.335 l 4.561,-4.115 h 45.054 z"
   id="path49"
   style="fill:url(#linearGradient5655)" />
<linearGradient
   id="SVGID_8_"
   gradientUnits="userSpaceOnUse"
   x1="522.28082"
   y1="882.1875"
   x2="522.28082"
   y2="877.32422"
   gradientTransform="translate(-0.1797,-875.4102)">
	<stop
   offset="0"
   style="stop-color:#08406F"
   id="stop51" />
	<stop
   offset="1"
   style="stop-color:#60C5F5"
   id="stop53" />
</linearGradient>
<path
   fill="url(#SVGID_8_)"
   d="m 481.38395,5.9356435 h 88.652 c 0.785,0 0.785,0.313 0.785,0.313 l -10.572,4.5500005 h -75.164 z"
   id="path56"
   style="fill:url(#linearGradient5657)" />
<linearGradient
   id="SVGID_9_"
   gradientUnits="userSpaceOnUse"
   x1="515.01318"
   y1="906.71478"
   x2="515.01318"
   y2="902.50488"
   gradientTransform="translate(-0.1797,-875.4102)">
	<stop
   offset="0"
   style="stop-color:#08406F"
   id="stop58" />
	<stop
   offset="1"
   style="stop-color:#60C5F5"
   id="stop60" />
</linearGradient>
<polygon
   fill="url(#SVGID_9_)"
   points="490.625,27.094 535.927,27.094 539.042,31.304 492.697,31.304 "
   id="polygon63"
   style="fill:url(#linearGradient5659)"
   transform="translate(4.0019531,4.0226435)" />
<linearGradient
   id="SVGID_10_"
   gradientUnits="userSpaceOnUse"
   x1="459.3696"
   y1="950.23053"
   x2="459.3696"
   y2="946.51172"
   gradientTransform="translate(-0.1797,-875.4102)">
	<stop
   offset="0"
   style="stop-color:#08406F"
   id="stop65" />
	<stop
   offset="1"
   style="stop-color:#60C5F5"
   id="stop67" />
</linearGradient>
<polygon
   fill="url(#SVGID_10_)"
   points="444.791,71.102 470.402,71.1 473.589,74.82 448.91,74.82 "
   id="polygon70"
   style="fill:url(#linearGradient5661)"
   transform="translate(4.0019531,4.0226435)" />
<linearGradient
   id="SVGID_11_"
   gradientUnits="userSpaceOnUse"
   x1="490.16061"
   y1="925.11133"
   x2="490.16061"
   y2="919.55658"
   gradientTransform="translate(-0.1797,-875.4102)">
	<stop
   offset="0"
   style="stop-color:#08406F"
   id="stop72" />
	<stop
   offset="1"
   style="stop-color:#60C5F5"
   id="stop74" />
</linearGradient>
<path
   fill="url(#SVGID_11_)"
   d="m 495.80195,53.722644 h -13.58 l -1.193,-5.548 h 25.467 c 0.346,-0.043 0.441,0.146 0.441,0.146 z"
   id="path77"
   style="fill:url(#linearGradient5663)" />
<linearGradient
   id="SVGID_12_"
   gradientUnits="userSpaceOnUse"
   x1="74.389198"
   y1="968.8252"
   x2="70.846001"
   y2="965.28198"
   gradientTransform="translate(-0.1797,-875.4102)">
	<stop
   offset="0"
   style="stop-color:#08406F"
   id="stop79" />
	<stop
   offset="1"
   style="stop-color:#60C5F5"
   id="stop81" />
</linearGradient>
<path
   fill="url(#SVGID_12_)"
   d="m 100.87395,74.656644 -47.889997,48.008996 -2.773,-4.313 46.601,-46.364996 c 2,-2.313 4.674997,-1.731 4.674997,-1.731 z"
   id="path84"
   style="fill:url(#linearGradient5665)" />
<linearGradient
   id="SVGID_13_"
   gradientUnits="userSpaceOnUse"
   x1="120.2554"
   y1="904.36908"
   x2="114.8892"
   y2="904.36908"
   gradientTransform="translate(-0.1797,-875.4102)">
	<stop
   offset="0"
   style="stop-color:#08406F"
   id="stop86" />
	<stop
   offset="1"
   style="stop-color:#60C5F5"
   id="stop88" />
</linearGradient>
<path
   fill="url(#SVGID_13_)"
   d="m 118.71195,55.691644 v -38.476 l 5.063,-12.4990005 c 0,0 0.303,0.075 0.303,0.571 0,0.493 0,53.6470005 0,53.6470005 l -0.315,2.311 c 0,0.001 -4.496,0.025 -5.051,-5.554 z"
   id="path91"
   style="fill:url(#linearGradient5667)" />
<linearGradient
   id="SVGID_14_"
   gradientUnits="userSpaceOnUse"
   x1="173.0811"
   y1="919.96088"
   x2="166.4209"
   y2="919.96088"
   gradientTransform="translate(-0.1797,-875.4102)">
	<stop
   offset="0"
   style="stop-color:#08406F"
   id="stop93" />
	<stop
   offset="1"
   style="stop-color:#60C5F5"
   id="stop95" />
</linearGradient>
<path
   fill="url(#SVGID_14_)"
   d="m 176.90395,92.865644 c 0,0 -6.539,1.95 -6.621,-5.625 -0.08,-7.313 -0.013,-69.291 -0.013,-69.291 l 5.214,-13.8960005 c 0,0 0.182,-0.027 0.182,0.725 l -0.017,81.7930005 z"
   id="path98"
   style="fill:url(#linearGradient5669)" />
<linearGradient
   id="SVGID_15_"
   gradientUnits="userSpaceOnUse"
   x1="255.9883"
   y1="925.21582"
   x2="249.9951"
   y2="925.21582"
   gradientTransform="translate(-0.1797,-875.4102)">
	<stop
   offset="0"
   style="stop-color:#08406F"
   id="stop100" />
	<stop
   offset="1"
   style="stop-color:#60C5F5"
   id="stop102" />
</linearGradient>
<path
   fill="url(#SVGID_15_)"
   d="m 259.81095,102.93264 c 0,0 -5.889,0.577 -5.96,-6.087996 l -0.033,-80.063 4.651,-12.0710005 c 0,0 0.583,0.153 0.583,0.907 l -0.016,91.1400005 z"
   id="path105"
   style="fill:url(#linearGradient5671)" />
<linearGradient
   id="SVGID_16_"
   gradientUnits="userSpaceOnUse"
   x1="349.27689"
   y1="904.625"
   x2="343.57571"
   y2="904.625"
   gradientTransform="translate(-0.1797,-875.4102)">
	<stop
   offset="0"
   style="stop-color:#08406F"
   id="stop107" />
	<stop
   offset="1"
   style="stop-color:#60C5F5"
   id="stop109" />
</linearGradient>
<path
   id="polygon1230"
   style="fill:#000000"
   d="m 175.06055,-1.9882812 c -2.39474,0.075061 -4.27413,1.78609308 -5.7633,3.4929947 -13.09767,13.0414695 -26.1458,26.1325655 -39.22108,39.1964585 -0.007,-12.082424 0.0361,-24.167053 -0.0508,-36.248047 -0.21353,-2.6637746 -2.32492,-4.81952217 -4.76907,-5.6715653 -1.72511,-0.8050581 -3.71299,-0.160825 -5.15866,0.9215653 -1.7438,1.24752114 -3.06724,2.9669445 -4.64149,4.4071363 C 77.314207,42.252217 39.174844,80.396791 1.03125,118.53711 c -1.41910109,2.0363 -1.88753583,4.94379 -0.43208712,7.08797 1.28031072,2.35124 4.16091942,3.27187 6.70044652,3.04671 16.0576816,-0.009 32.1153636,-0.0109 48.1730466,-0.008 13.140767,-13.17433 26.282637,-26.34757 39.423828,-39.521482 0.03101,11.829172 0.0046,23.660462 0.10106,35.488242 0.233658,2.7252 2.299635,5.1116 4.881362,5.92582 -0.765625,0 -1.53125,0 -2.296875,0 0,2.63932 0,5.27865 0,7.91797 -0.596137,-0.031 -0.136906,-1.11726 -0.28125,-1.6 0,-2.07995 0,-4.1599 0,-6.23984 -4.640625,0 -9.28125,0 -13.921875,0 -0.03808,0.5436 0.231254,1.56718 -0.547849,0.87329 -2.674141,-1.33215 -5.752877,-0.86019 -8.632587,-0.94137 -10.212458,-0.0229 -20.425313,-0.002 -30.637923,-0.008 -0.422251,0.17424 -1.166698,0.0263 -1.713281,0.0762 -2.344271,0 -4.688542,0 -7.032813,0 -0.44005,-0.18665 -1.226534,-0.0269 -1.8,-0.0801 -11.673515,-0.001 -23.3410178,0.003 -35.014453,0.002 0,7.17383 0,14.34766 0,21.52148 7.0651042,0 14.130208,10e-6 21.195312,0 0.133383,-0.35525 -0.293598,-1.72078 0.263541,-1.30836 2.685489,1.71164 6.152152,1.82938 9.144663,0.94118 0.856017,-0.28298 1.680222,-0.66849 2.421875,-1.1836 0.151284,0.4663 -0.332879,1.56804 0.3,1.55274 16.97637,0.0243 33.943526,-0.0552 50.920703,0.0391 0,-1.45703 0,-2.91406 0,-4.37109 0.406487,-0.0123 1.283438,-0.99018 1.132812,-0.17227 0,1.50143 0,3.00287 0,4.5043 6.152995,-4.2e-4 12.30599,-0.003 18.458984,-0.004 -1.953953,1.97163 -3.969659,3.89845 -5.828124,5.95508 -1.471886,2.11483 -1.552604,5.13673 0.0243,7.22087 1.397229,2.02437 4.015383,2.77527 6.371793,2.5428 16.28659,0 32.57318,0 48.85976,0 9.95062,-9.93285 19.90385,-19.86308 29.85547,-29.79492 -1.82815,4.6927 -3.65568,9.38564 -5.48437,14.07812 14.46298,-0.0108 28.90182,0.0178 43.375,0 1.32313,0.27793 2.75876,0.13179 4.03008,0 9.72281,-0.007 19.40785,0.0113 29.12868,-0.006 2.07332,-0.0435 4.19913,-0.5061 5.89397,-1.75814 0.0684,0.55475 -0.1358,1.38229 0.1,1.76944 6.38008,-0.006 12.76016,-0.009 19.14024,-0.0155 0,-4.51042 0,-9.02083 0,-13.53125 -0.41104,-0.30554 -0.0699,-1.10618 -0.18164,-1.59688 0,-2.12786 0,-4.25572 0,-6.38359 -6.35222,0 -12.70443,0 -19.05664,0 -0.0579,0.50442 0.1112,1.45169 -0.0832,1.68974 -2.10229,-1.50871 -4.76859,-1.81233 -7.28586,-1.68829 -6.489,-0.006 -12.9793,5.2e-4 -19.46883,-0.001 -0.58049,1.49033 -1.16144,2.98048 -1.74219,4.4707 -1.75349,-3.032 -5.28413,-4.75791 -8.74179,-4.62205 -2.89341,-0.0301 -5.72439,1.33026 -7.6254,3.49119 -1.46723,-2.00638 -3.88656,-3.11908 -6.33562,-3.25359 -2.46528,-0.21126 -4.94314,-0.008 -7.41399,-0.0863 -1.41484,0 -2.82969,0 -4.24453,0 0,0.75651 0,1.51302 0,2.26953 -0.3031,-0.75662 -0.60658,-1.51309 -0.91016,-2.26953 -1.8789,0 -3.75781,0 -5.63672,0 11.11589,-11.09245 22.23178,-22.1849 33.34766,-33.277343 0.0313,8.386343 0.005,16.775863 0.11022,25.160083 0.19508,2.88413 2.24699,5.46701 4.964,6.40952 2.48047,0.99759 5.19416,0.5449 7.79336,0.64267 14.83755,-0.029 29.67601,0.0366 44.513,-0.004 2.36165,-0.0217 4.8275,-0.62848 6.55887,-2.32701 8.02887,-7.96458 16.00474,-15.98486 24.01386,-23.97021 4.5045,-4.500818 9.00899,-9.001634 13.51349,-13.50245 0.0324,11.73177 -0.003,23.46539 0.0981,35.19594 0.14391,2.68851 2.49603,4.78868 5.05272,5.23388 2.83204,0.61374 5.94427,-0.39913 7.82028,-2.62295 10.29089,-10.28198 20.58178,-20.56395 30.87267,-30.845932 0,5.224612 0,10.449222 0,15.673832 -2.16927,2.23824 -4.50209,4.33869 -6.4919,6.7382 -2.07602,2.93901 -0.86911,7.52935 2.38643,9.06648 2.22367,1.21468 4.81402,0.65313 7.22344,0.78321 2.2263,0 4.4526,0 6.6789,0 0.22219,-0.5871 1.01833,-0.18427 1.49649,-0.30379 37.66817,-0.006 75.33531,-0.37142 113.00351,-0.36614 10.31395,-10.13132 20.60869,-20.28179 30.81055,-30.523433 2.03451,-2.416381 2.18474,-6.193219 0.29297,-8.736328 -1.38718,-2.155177 -4.15341,-2.768942 -6.56016,-2.673148 -20.71625,0.03524 -41.43255,0.003 -62.14883,0.01299 0.53469,-0.468522 0.99101,-1.12604 1.57461,-1.476562 8.19128,0 16.38256,0 24.57383,0 10.63371,-10.631262 21.26502,-21.264938 31.90039,-31.894531 1.63472,-2.702185 1.58759,-6.581905 -0.77207,-8.854498 -1.60658,-1.783676 -4.16236,-2.080553 -6.42519,-1.907221 -2.13933,-0.004 -4.27864,-0.01294 -6.41797,-0.01367 0.44598,-0.441746 0.82251,-1.050096 1.53789,-0.845703 15.21198,0 30.42396,0 45.63594,0 9.93892,-9.984983 19.91008,-19.935493 29.80273,-29.964844 1.81724,-2.1134712 1.92019,-5.2081982 0.99219,-7.7324216 -0.44876,-2.014999 -2.44421,-3.33158785 -4.42969,-3.44921878 -2.32428,-0.49186224 -4.71147,-0.1332251 -7.06445,-0.24609374 -27.24754,0.0065293 -54.49562,-0.01305694 -81.74282,0.0097902 -2.71527,0.0063636 -5.28103,1.25248839 -7.23376,3.09017059 -3.68066,3.5490451 -7.2352,7.2296513 -10.86743,10.8291873 -18.29679,18.332211 -36.59358,36.664422 -54.89037,54.996633 -0.009,-21.240407 0.0312,-42.481772 -0.0429,-63.7215654 -0.12997,-2.9102577 -2.16825,-5.86267637 -5.16233,-6.34216 -2.79179,-0.6228588 -5.54208,0.96186694 -7.33858,3.0027485 -13.06519,13.1078309 -26.13258,26.2134689 -39.20617,39.3129299 -0.0131,-12.082739 0.0473,-24.170356 -0.0586,-36.2499998 -0.1405,-0.9038076 -0.54428,-1.7356295 -0.66797,-2.6425781 -0.6158,-1.96281373 -2.68581,-3.06940358 -4.64986,-3.12778505 -2.93101,-0.52796325 -5.9542,0.8619911 -7.80261,3.12692065 -26.71181,26.6851843 -53.42361,53.3703683 -80.13542,80.0555523 0.004,-25.759738 0.0191,-51.520283 -0.0137,-77.2795153 -0.16216,-3.9711916 -4.41573,-7.1749917 -8.27446,-6.1385417 -2.56477,0.48426212 -4.35925,2.5137354 -6.08006,4.3033567 -23.01924,22.9878493 -46.01016,46.0044613 -69.01851,69.0033713 0.01,-22.524166 -0.0117,-45.052919 0.0176,-67.5742182 0.77822,-2.1460031 -0.44646,-4.76935482 -2.62248,-5.49817175 -1.22363,-0.65245555 -2.57303,-1.18302875 -3.98494,-1.07995325 z M 138.91797,115.15234 c -7.42578,7.39519 -14.85156,14.79037 -22.27735,22.18555 0,-2.26042 1e-5,-4.52083 0,-6.78125 -4.13476,0 -8.26953,0 -12.40429,0 2.62787,-0.78973 4.23222,-3.16841 6.15796,-4.94557 9.49422,-9.50642 18.98844,-19.01285 28.48266,-28.519273 0.0137,6.020183 0.0274,12.040363 0.041,18.060543 z m 184.69336,15.25782 c -3.4283,0.12006 -6.66288,2.17415 -8.36719,5.1289 -0.666,-1.66081 -1.33156,-3.3218 -1.99805,-4.98242 -3.39648,0 -6.79297,0 -10.18945,0 -0.22654,0.58139 -0.45286,1.16286 -0.67969,1.74414 -0.0709,-0.54383 0.13928,-1.36871 -0.1,-1.74414 -7.03242,0 -14.06484,0 -21.09726,0 0,7.17383 0,14.34766 0,21.52148 13.5761,-7.9e-4 27.1335,0.001 40.69726,-0.002 0.0471,-0.21221 0.79405,0.15142 1.08203,0.0937 2.40509,0.27842 4.92668,-0.2564 6.93946,-1.62304 0.1542,0.45621 -0.33748,1.55831 0.3,1.53124 20.08312,-0.005 40.15513,0.012 60.2332,-0.01 0,-4.51042 0,-9.02083 0,-13.53125 -0.41103,-0.30554 -0.0699,-1.10618 -0.18164,-1.59688 0,-2.12786 0,-4.25572 0,-6.38359 -20.11788,-0.005 -40.23562,-4.5e-4 -60.35352,0 -0.12916,0.33624 0.27395,1.62433 -0.21891,1.30461 -1.81422,-1.09443 -3.95914,-1.55767 -6.06624,-1.45109 z m 172.13476,-0.008 c -0.66406,0.003 -1.32812,0.005 -1.99218,0.008 0.0294,0.5146 -0.86367,0.31183 -1.19336,0.58593 -0.56108,0.20699 -1.11124,0.4451 -1.63086,0.74219 -0.006,-0.62077 0.21451,-1.46764 -0.7,-1.17969 -9.4334,0.001 -18.86209,-0.002 -28.29414,-0.002 -1.02585,2.63329 -2.05075,5.26694 -3.07617,7.90039 -0.61154,0.042 -1.22971,0.005 -1.84376,0.0176 0,-2.61328 10e-6,-5.22656 0,-7.83984 -3.37695,0 -6.7539,0 -10.13085,0 -0.32815,-0.27122 -1.17728,-0.0124 -1.69975,-0.0859 -8.57231,0.16639 -17.14561,-0.0542 -25.71861,0.008 -8.12487,0 -16.24974,0 -24.37461,0 0,7.17513 0,14.35026 0,21.52539 12.05794,-0.006 24.11588,-0.009 36.17382,-0.004 0.12982,-0.36089 -0.28574,-1.70252 0.25773,-1.31004 3.04025,1.85568 7.00324,1.92008 10.23642,0.5327 0.43855,-0.13682 1.08091,-0.72187 1.33398,-0.6793 0.14957,0.46996 -0.36662,1.60568 0.4,1.4586 14.89181,-0.002 29.73349,-0.005 44.61953,-0.002 0.007,-1.15746 -0.0131,-2.38756 0.01,-3.5 3.4217,4.14613 10.07776,4.85309 14.41211,1.75196 0.0691,0.54889 -0.13923,1.37493 0.098,1.75586 7.25313,-0.002 14.50625,-0.005 21.75938,-0.01 -0.88788,-3.17145 -1.83769,-6.34687 -2.6875,-9.51562 1.6882,-4.03916 -0.1204,-9.33125 -4.21164,-11.11928 -3.09668,-1.3447 -6.53341,-0.74536 -9.80086,-0.88658 -1.71589,0 -3.43177,0 -5.14766,0 -0.055,0.52139 0.10993,1.46521 -0.0819,1.72393 -1.93514,-1.41025 -4.35052,-1.95423 -6.71689,-1.87628 z m -274.52343,9.63086 c 0.78265,0.67562 0.49137,2.12726 -0.41407,2.5625 -0.76508,-0.53874 -0.98691,-1.68637 -0.46093,-2.46679 0.27656,-0.11948 0.57907,-0.14961 0.875,-0.0957 z m 275.12695,-0.0117 c 0.70965,0.0939 0.26542,0.96599 0.35311,1.43345 -0.0273,0.41361 0.1266,1.37364 -0.57234,1.10002 -0.83174,-0.46694 -0.80205,-1.94255 -0.0503,-2.4905 0.0844,-0.0333 0.1791,-0.0483 0.26953,-0.043 z m -171.87109,0.0117 c 0.528,0.19125 0.46683,1.02479 0.3958,1.50303 -0.10757,0.3882 -0.56115,1.31406 -1.01487,0.86136 -0.61389,-0.53493 -0.81125,-1.70771 -0.16113,-2.2609 0.24347,-0.10773 0.51754,-0.12694 0.7802,-0.10349 z m -110.38868,1.83789 c 0.40574,0.67741 -0.29896,0.92082 -0.81416,1.13109 -0.54616,0.18686 -1.20879,0.92457 -1.5425,0.10679 -0.19913,-0.36664 -1.27444,-1.06387 -0.34126,-1.15614 0.69142,-0.14628 1.42319,-0.52311 2.08931,-0.52483 0.20287,0.1477 0.40574,0.2954 0.60861,0.44309 z" /><path
   fill="url(#SVGID_16_)"
   d="m 353.09895,61.447644 c 0,0 -4.868,0.452 -5.701,-4.563 v -39.723 l 4.393,-12.1470005 c 0,0 0.563,0.134 0.563,0.886 V 55.567644 Z"
   id="path112"
   style="fill:url(#linearGradient5673)" />
<linearGradient
   id="SVGID_17_"
   gradientUnits="userSpaceOnUse"
   x1="400.96039"
   y1="918.44629"
   x2="395.1636"
   y2="918.44629"
   gradientTransform="translate(-0.1797,-875.4102)">
	<stop
   offset="0"
   style="stop-color:#08406F"
   id="stop114" />
	<stop
   offset="1"
   style="stop-color:#60C5F5"
   id="stop116" />
</linearGradient>
<path
   fill="url(#SVGID_17_)"
   d="m 404.78295,89.355644 c 0,0 -4.938,0.643 -5.797,-4.373 v -67.706 l 4.85,-12.5440005 c 0,0 0.268,0.221 0.268,1.708 V 83.666644 Z"
   id="path119"
   style="fill:url(#linearGradient5675)" />
<linearGradient
   id="SVGID_18_"
   gradientUnits="userSpaceOnUse"
   x1="101.7651"
   y1="968.93848"
   x2="96.654297"
   y2="968.93848"
   gradientTransform="translate(-0.1797,-875.4102)">
	<stop
   offset="0"
   style="stop-color:#08406F"
   id="stop121" />
	<stop
   offset="1"
   style="stop-color:#60C5F5"
   id="stop123" />
</linearGradient>
<path
   fill="url(#SVGID_18_)"
   d="m 101.76095,124.84264 c 0,0 -0.833,-0.069 -0.809,-1.149 -10e-4,-0.917 -0.078,-49.035996 -0.078,-49.035996 0,0 -1.217997,-1.577 0.613,-4.4 0.547,0.131 3.495,0.727 4.101,4.256 v 40.369996 z"
   id="path126"
   style="fill:url(#linearGradient5677)" />
<linearGradient
   id="SVGID_19_"
   gradientUnits="userSpaceOnUse"
   x1="121.2485"
   y1="973.83789"
   x2="117.6964"
   y2="970.28583"
   gradientTransform="translate(-0.1797,-875.4102)">
	<stop
   offset="0"
   style="stop-color:#08406F"
   id="stop128" />
	<stop
   offset="1"
   style="stop-color:#60C5F5"
   id="stop130" />
</linearGradient>
<path
   fill="url(#SVGID_19_)"
   d="m 144.84495,82.620644 c 0,0 -41.489,41.547996 -41.883,41.937996 -0.346,0.379 -1.202,0.282 -1.202,0.282 l 3.827,-9.963 36.059,-36.087996 c 0,0 1.34,-1.727 3.831,-1.637 z"
   id="path133"
   style="fill:url(#linearGradient5679)" />
<linearGradient
   id="SVGID_20_"
   gradientUnits="userSpaceOnUse"
   x1="553.43597"
   y1="892.5"
   x2="549.76727"
   y2="888.83112"
   gradientTransform="translate(-0.1797,-875.4102)">
	<stop
   offset="0"
   style="stop-color:#08406F"
   id="stop135" />
	<stop
   offset="1"
   style="stop-color:#60C5F5"
   id="stop137" />
</linearGradient>
<path
   fill="url(#SVGID_20_)"
   d="m 570.61095,7.6616435 -27.566,27.6650005 -3.115,-4.211 20.312,-20.324 10.582,-4.5420005 c 0,10e-4 0.349,0.847 -0.213,1.412 z"
   id="path140"
   style="fill:url(#linearGradient5681)" />
<linearGradient
   id="SVGID_21_"
   gradientUnits="userSpaceOnUse"
   x1="145.99409"
   y1="969.87891"
   x2="140.5957"
   y2="969.87891"
   gradientTransform="translate(-0.1797,-875.4102)">
	<stop
   offset="0"
   style="stop-color:#08406F"
   id="stop142" />
	<stop
   offset="1"
   style="stop-color:#60C5F5"
   id="stop144" />
</linearGradient>
<path
   fill="url(#SVGID_21_)"
   d="m 144.92595,117.63864 -0.079,-35.024996 c 0,0 -1.301,-2.633 0.631,-5.456 0.593,-0.007 3.7,0.421 4.339,4.146 l -0.001,38.519996 z"
   id="path147"
   style="fill:url(#linearGradient5683)" />
<linearGradient
   id="SVGID_22_"
   gradientUnits="userSpaceOnUse"
   x1="148.7769"
   y1="907.00983"
   x2="144.28909"
   y2="902.52197"
   gradientTransform="translate(-0.1797,-875.4102)">
	<stop
   offset="0"
   style="stop-color:#08406F"
   id="stop149" />
	<stop
   offset="1"
   style="stop-color:#60C5F5"
   id="stop151" />
</linearGradient>
<path
   fill="url(#SVGID_22_)"
   d="m 170.27095,17.948644 -41.462,41.463 c -1.987,1.986 -5.045,1.836 -5.045,1.836 -1.795,-3.531 0.315,-6.065 0.315,-6.065 0,0 50.503,-50.4900005 50.867,-50.8700005 0.331,-0.417 0.541,-0.264 0.541,-0.264 z"
   id="path154"
   style="fill:url(#linearGradient5685)" />
<linearGradient
   id="SVGID_23_"
   gradientUnits="userSpaceOnUse"
   x1="215.8457"
   y1="922.32129"
   x2="211.688"
   y2="918.16357"
   gradientTransform="translate(-0.1797,-875.4102)">
	<stop
   offset="0"
   style="stop-color:#08406F"
   id="stop156" />
	<stop
   offset="1"
   style="stop-color:#60C5F5"
   id="stop158" />
</linearGradient>
<path
   fill="url(#SVGID_23_)"
   d="m 253.81695,16.784644 -74.376,74.375 c -1.55,1.551 -2.537,1.703 -2.537,1.703 -3.781,-1.878 -1.213,-6.255 -1.213,-6.255 0,0 80.652,-80.6350005 81.016,-81.0150005 0.943,-1.093 1.761,-0.883 1.761,-0.883 z"
   id="path161"
   style="fill:url(#linearGradient5687)" />
<linearGradient
   id="SVGID_24_"
   gradientUnits="userSpaceOnUse"
   x1="304.31589"
   y1="927.81049"
   x2="299.9317"
   y2="923.42627"
   gradientTransform="translate(-0.1797,-875.4102)">
	<stop
   offset="0"
   style="stop-color:#08406F"
   id="stop163" />
	<stop
   offset="1"
   style="stop-color:#60C5F5"
   id="stop165" />
</linearGradient>
<path
   fill="url(#SVGID_24_)"
   d="m 347.39795,17.161644 -84.163,84.160996 c -1.429,1.432 -3.424,1.608 -3.424,1.608 -3.115,-1.556 -0.776,-6.174996 -0.776,-6.174996 0,0 90.61,-90.5000005 90.974,-90.8810005 0.941,-1.098 1.781,-0.862 1.781,-0.862 z"
   id="path168"
   style="fill:url(#linearGradient5689)" />
<linearGradient
   id="SVGID_25_"
   gradientUnits="userSpaceOnUse"
   x1="376.97119"
   y1="906.86133"
   x2="372.76331"
   y2="902.65302"
   gradientTransform="translate(-0.1797,-875.4102)">
	<stop
   offset="0"
   style="stop-color:#08406F"
   id="stop170" />
	<stop
   offset="1"
   style="stop-color:#60C5F5"
   id="stop172" />
</linearGradient>
<path
   fill="url(#SVGID_25_)"
   d="m 398.98595,17.276644 -42.513,42.514 c -1.429,1.432 -3.374,1.657 -3.374,1.657 -2.932,-1.908 -0.588,-5.983 -0.588,-5.983 0,0 49.584,-49.6900005 49.947,-50.0700005 1.047,-1.033 1.377,-0.66 1.377,-0.66 z"
   id="path175"
   style="fill:url(#linearGradient5691)" />
<linearGradient
   id="SVGID_26_"
   gradientUnits="userSpaceOnUse"
   x1="488.73779"
   y1="935.26459"
   x2="485.28159"
   y2="931.80859"
   gradientTransform="translate(-0.1797,-875.4102)">
	<stop
   offset="0"
   style="stop-color:#08406F"
   id="stop177" />
	<stop
   offset="1"
   style="stop-color:#60C5F5"
   id="stop179" />
</linearGradient>
<path
   fill="url(#SVGID_26_)"
   d="m 506.95995,49.475644 -29.369,29.367 -3.188,-3.722 21.399,-21.398 11.135,-5.401 c 0,0 0.414,0.294 0.023,1.154 z"
   id="path182"
   style="fill:url(#linearGradient5693)" />
<linearGradient
   id="SVGID_27_"
   gradientUnits="userSpaceOnUse"
   x1="499.80811"
   y1="979.37701"
   x2="495.84851"
   y2="975.41748"
   gradientTransform="translate(-0.1797,-875.4102)">
	<stop
   offset="0"
   style="stop-color:#08406F"
   id="stop184" />
	<stop
   offset="1"
   style="stop-color:#60C5F5"
   id="stop186" />
</linearGradient>
<path
   fill="url(#SVGID_27_)"
   d="m 517.63595,93.982644 -28.848,28.650996 -3.258,-4.465 20.049,-20.048996 12.289,-5.38 c 0.001,0.003 0.397,0.435 -0.232,1.243 z"
   id="path189"
   style="fill:url(#linearGradient5695)" />
<linearGradient
   id="SVGID_28_"
   gradientUnits="userSpaceOnUse"
   x1="441.8374"
   y1="921.61328"
   x2="437.55469"
   y2="917.33063"
   gradientTransform="translate(-0.1797,-875.4102)">
	<stop
   offset="0"
   style="stop-color:#08406F"
   id="stop191" />
	<stop
   offset="1"
   style="stop-color:#60C5F5"
   id="stop193" />
</linearGradient>
<path
   fill="url(#SVGID_28_)"
   d="m 485.08495,10.799644 -76.912,76.913 c -1.43,1.432 -3.395,1.644 -3.395,1.644 -2.449,-3.092 -0.686,-5.979 -0.686,-5.979 l 77.289,-77.4400005 z"
   id="path196"
   style="fill:url(#linearGradient5697)" />
<linearGradient
   id="SVGID_29_"
   gradientUnits="userSpaceOnUse"
   x1="486.85889"
   y1="916.64941"
   x2="481.74481"
   y2="911.53528"
   gradientTransform="translate(-0.1797,-875.4102)">
	<stop
   offset="0"
   style="stop-color:#08406F"
   id="stop198" />
	<stop
   offset="1"
   style="stop-color:#60C5F5"
   id="stop200" />
</linearGradient>
<path
   fill="url(#SVGID_29_)"
   d="m 496.69895,35.326644 -12.676,12.786 c -2.771,2.282 -1.801,5.608 -1.801,5.608 -2.25,-0.21 -3.125,-2.065 -3.412,-3.695 -0.285,-1.63 0.303,-3.422 1.348,-4.467 l 14.469,-14.44 z"
   id="path203"
   style="fill:url(#linearGradient5699)" />
<linearGradient
   id="SVGID_30_"
   gradientUnits="userSpaceOnUse"
   x1="185.9771"
   y1="992.33008"
   x2="182.33521"
   y2="988.68817"
   gradientTransform="translate(-0.1797,-875.4102)">
	<stop
   offset="0"
   style="stop-color:#08406F"
   id="stop205" />
	<stop
   offset="1"
   style="stop-color:#60C5F5"
   id="stop207" />
</linearGradient>
<path
   fill="url(#SVGID_30_)"
   d="m 146.17195,157.33864 77.913,-77.942996 c 0,0 1.437,-1.873 4.267,-1.771 l -0.456,5.223 c 0,0 -78.666,78.505996 -79.113,78.947996 z"
   id="path210"
   style="fill:url(#linearGradient5701)" />
<linearGradient
   id="SVGID_31_"
   gradientUnits="userSpaceOnUse"
   x1="303.0278"
   y1="969.13959"
   x2="299.3873"
   y2="965.49908"
   gradientTransform="translate(-0.1797,-875.4102)">
	<stop
   offset="0"
   style="stop-color:#08406F"
   id="stop212" />
	<stop
   offset="1"
   style="stop-color:#60C5F5"
   id="stop214" />
</linearGradient>
<path
   fill="url(#SVGID_31_)"
   d="m 278.33195,119.02664 47.643,-47.658996 c 0,0 1.437,-1.871 4.267,-1.771 l -0.857,5.621 -48.325,48.289996 z"
   id="path217"
   style="fill:url(#linearGradient5703)" />
<linearGradient
   id="SVGID_32_"
   gradientUnits="userSpaceOnUse"
   x1="349.88919"
   y1="973.08502"
   x2="346.37991"
   y2="969.57562"
   gradientTransform="translate(-0.1797,-875.4102)">
	<stop
   offset="0"
   style="stop-color:#08406F"
   id="stop219" />
	<stop
   offset="1"
   style="stop-color:#60C5F5"
   id="stop221" />
</linearGradient>
<path
   fill="url(#SVGID_32_)"
   d="m 334.12695,114.27264 36.779,-36.788996 c 0.842,-0.843 1.779,-1.771 3.396,-1.771 l -0.107,5.501 -43.081,43.042996 c -0.569,0.563 -1.019,0.399 -1.019,0.399 z"
   id="path224"
   style="fill:url(#linearGradient5705)" />
<linearGradient
   id="SVGID_33_"
   gradientUnits="userSpaceOnUse"
   x1="370.8042"
   y1="993.63959"
   x2="366.38129"
   y2="989.21692"
   gradientTransform="translate(-0.1797,-875.4102)">
	<stop
   offset="0"
   style="stop-color:#08406F"
   id="stop226" />
	<stop
   offset="1"
   style="stop-color:#60C5F5"
   id="stop228" />
</linearGradient>
<path
   fill="url(#SVGID_33_)"
   d="m 365.98595,122.07964 7.25,-7.281 5.557,2.326 -0.734,1.047 -3.813,4.437 -0.272,0.3 h -7.72 c -0.34,0.014 -0.521,-0.271 -0.521,-0.271 0,0 -0.155,-0.147 0.253,-0.558 z"
   id="path231"
   style="fill:url(#linearGradient5707)" />
<linearGradient
   id="SVGID_34_"
   gradientUnits="userSpaceOnUse"
   x1="229.457"
   y1="971.76862"
   x2="223.4189"
   y2="971.76862"
   gradientTransform="translate(-0.1797,-875.4102)">
	<stop
   offset="0"
   style="stop-color:#08406F"
   id="stop233" />
	<stop
   offset="1"
   style="stop-color:#60C5F5"
   id="stop235" />
</linearGradient>
<path
   fill="url(#SVGID_34_)"
   d="m 227.98495,121.36064 -0.09,-38.514996 c 0,0 -1.738,-2.016 0.457,-5.223 0.673,-0.01 4.202,0.478 4.928,4.707 l -0.001,36.693996 -4.561,4.115 c 0,0.003 -0.73,-0.475 -0.733,-1.778 z"
   id="path238"
   style="fill:url(#linearGradient5709)" />
<linearGradient
   id="SVGID_35_"
   gradientUnits="userSpaceOnUse"
   x1="330.3042"
   y1="968.51862"
   x2="325.09229"
   y2="968.51862"
   gradientTransform="translate(-0.1797,-875.4102)">
	<stop
   offset="0"
   style="stop-color:#08406F"
   id="stop240" />
	<stop
   offset="1"
   style="stop-color:#60C5F5"
   id="stop242" />
</linearGradient>
<path
   fill="url(#SVGID_35_)"
   d="m 329.45095,123.96764 -0.08,-48.749996 c 0,0 -1.472,-2.681 0.871,-5.621 0.596,-0.009 3.243,0.472 3.885,4.702 v 39.974996 l -4.028,10.39 c -0.004,-0.002 -0.605,-0.143 -0.648,-0.696 z"
   id="path245"
   style="fill:url(#linearGradient5711)" />
<linearGradient
   id="SVGID_36_"
   gradientUnits="userSpaceOnUse"
   x1="374.97021"
   y1="967.80658"
   x2="368.7251"
   y2="967.80658"
   gradientTransform="translate(-0.1797,-875.4102)">
	<stop
   offset="0"
   style="stop-color:#08406F"
   id="stop247" />
	<stop
   offset="1"
   style="stop-color:#60C5F5"
   id="stop249" />
</linearGradient>
<path
   fill="url(#SVGID_36_)"
   d="M 373.23595,114.79764 V 82.168644 c 0,0 -2.113,-3.379 1.064,-6.456 0.693,-0.008 4.132,0.24 4.492,4.323 v 37.087996 z"
   id="path252"
   style="fill:url(#linearGradient5713)" />
<linearGradient
   id="SVGID_37_"
   gradientUnits="userSpaceOnUse"
   x1="440.63721"
   y1="959.6748"
   x2="436.21909"
   y2="955.25677"
   gradientTransform="translate(-0.1797,-875.4102)">
	<stop
   offset="0"
   style="stop-color:#08406F"
   id="stop254" />
	<stop
   offset="1"
   style="stop-color:#60C5F5"
   id="stop256" />
</linearGradient>
<path
   fill="url(#SVGID_37_)"
   d="m 452.91195,78.842644 -13.451,13.479 -3.844,4.809 c -3.896,-2.458 -1.953,-6.874 -0.912,-7.925 l 14.088,-14.079 z"
   id="path259"
   style="fill:url(#linearGradient5715)" />
<linearGradient
   id="SVGID_38_"
   gradientUnits="userSpaceOnUse"
   x1="472.92041"
   y1="969.50983"
   x2="472.92041"
   y2="963.70801"
   gradientTransform="translate(-0.1797,-875.4102)">
	<stop
   offset="0"
   style="stop-color:#08406F"
   id="stop261" />
	<stop
   offset="1"
   style="stop-color:#60C5F5"
   id="stop263" />
</linearGradient>
<path
   fill="url(#SVGID_38_)"
   d="m 505.58195,98.120644 h -66.391 c -2.502,-0.196 -3.574,-0.992 -3.574,-0.992 -0.012,-3.571 3.844,-4.809 3.844,-4.809 l 77.746,0.001 c 0.543,-0.001 0.662,0.422 0.662,0.422 z"
   id="path266"
   style="fill:url(#linearGradient5717)" />
<g
   id="g284"
   style="fill:#ffffff"
   transform="translate(4.0019531,4.0226435)">
	<path
   d="m 0,142.055 v -9.521 h 2.876 l 1.728,6.494 1.708,-6.494 h 2.883 v 9.521 H 7.41 v -7.496 l -1.89,7.496 H 3.669 l -1.883,-7.496 v 7.496 z"
   id="path268"
   style="fill:#ffffff" />
	<path
   d="m 17.224,132.532 h 1.922 v 5.155 c 0,0.816 0.024,1.35 0.071,1.592 0.083,0.391 0.278,0.701 0.588,0.938 0.31,0.237 0.732,0.354 1.27,0.354 0.545,0 0.957,-0.11 1.234,-0.334 0.277,-0.223 0.443,-0.496 0.5,-0.821 0.056,-0.324 0.084,-0.863 0.084,-1.616 v -5.268 h 1.922 v 5.001 c 0,1.144 -0.052,1.95 -0.155,2.423 -0.104,0.472 -0.296,0.87 -0.575,1.193 -0.279,0.324 -0.652,0.582 -1.12,0.773 -0.468,0.192 -1.078,0.289 -1.832,0.289 -0.909,0 -1.599,-0.104 -2.068,-0.313 -0.47,-0.211 -0.841,-0.482 -1.114,-0.818 -0.273,-0.335 -0.452,-0.688 -0.539,-1.057 -0.125,-0.545 -0.188,-1.353 -0.188,-2.416 z"
   id="path270"
   style="fill:#ffffff" />
	<path
   d="m 33.025,142.055 v -9.443 h 1.922 v 7.84 h 4.78 v 1.604 h -6.702 z"
   id="path272"
   style="fill:#ffffff" />
	<path
   d="m 48.385,142.055 v -7.91 H 45.56 v -1.61 h 7.566 v 1.61 h -2.819 v 7.91 z"
   id="path274"
   style="fill:#ffffff" />
	<path
   d="m 60.438,142.055 v -9.521 h 1.922 v 9.521 z"
   id="path276"
   style="fill:#ffffff" />
	<path
   d="m 70.324,142.055 v -9.521 h 3.085 c 1.169,0 1.931,0.048 2.286,0.144 0.545,0.146 1.002,0.453 1.37,0.935 0.368,0.479 0.552,1.098 0.552,1.854 0,0.584 -0.106,1.075 -0.318,1.477 -0.212,0.396 -0.482,0.711 -0.809,0.938 -0.327,0.229 -0.659,0.378 -0.997,0.452 -0.459,0.09 -1.124,0.136 -1.994,0.136 h -1.253 v 3.594 z m 1.922,-7.91 v 2.701 h 1.052 c 0.757,0 1.264,-0.053 1.52,-0.15 0.256,-0.098 0.456,-0.254 0.601,-0.467 0.145,-0.213 0.217,-0.459 0.217,-0.74 0,-0.346 -0.102,-0.633 -0.305,-0.856 -0.204,-0.225 -0.461,-0.362 -0.773,-0.422 -0.229,-0.043 -0.691,-0.063 -1.383,-0.063 z"
   id="path278"
   style="fill:#ffffff" />
	<path
   d="m 85.378,142.055 v -9.443 H 87.3 v 7.84 h 4.78 v 1.604 h -6.702 z"
   id="path280"
   style="fill:#ffffff" />
	<path
   d="m 99.582,142.055 v -9.521 h 7.059 v 1.609 h -5.137 v 2.108 h 4.78 v 1.604 h -4.78 v 2.592 h 5.319 v 1.604 z"
   id="path282"
   style="fill:#ffffff" />
</g>
<g
   id="g298"
   style="fill:#ffffff"
   transform="translate(4.0019531,4.0226435)">
	<path
   d="m 189.966,142.055 h -2.091 l -0.831,-2.164 h -3.806 l -0.786,2.164 h -2.039 l 3.708,-9.521 h 2.032 z m -3.539,-3.769 -1.313,-3.532 -1.286,3.532 z"
   id="path286"
   style="fill:#ffffff" />
	<path
   d="m 197.124,142.055 v -9.521 h 4.046 c 1.018,0 1.757,0.086 2.218,0.258 0.461,0.171 0.83,0.477 1.107,0.912 0.277,0.438 0.416,0.938 0.416,1.5 0,0.714 -0.21,1.304 -0.63,1.771 -0.419,0.465 -1.047,0.758 -1.883,0.879 0.416,0.242 0.758,0.51 1.029,0.799 0.271,0.291 0.635,0.808 1.094,1.548 l 1.162,1.856 h -2.299 l -1.39,-2.072 c -0.493,-0.739 -0.832,-1.207 -1.013,-1.398 -0.181,-0.189 -0.375,-0.322 -0.578,-0.396 -0.203,-0.069 -0.526,-0.104 -0.968,-0.104 h -0.389 v 3.978 h -1.922 z m 1.922,-5.496 h 1.422 c 0.922,0 1.498,-0.037 1.727,-0.115 0.23,-0.077 0.409,-0.213 0.539,-0.402 0.13,-0.188 0.195,-0.43 0.195,-0.714 0,-0.32 -0.085,-0.579 -0.256,-0.776 -0.171,-0.193 -0.412,-0.318 -0.724,-0.371 -0.156,-0.021 -0.623,-0.031 -1.403,-0.031 h -1.5 z"
   id="path288"
   style="fill:#ffffff" />
	<path
   d="m 218.945,138.552 1.864,0.593 c -0.286,1.041 -0.761,1.813 -1.425,2.313 -0.664,0.504 -1.508,0.757 -2.53,0.757 -1.264,0 -2.303,-0.433 -3.117,-1.296 -0.814,-0.86 -1.221,-2.044 -1.221,-3.542 0,-1.585 0.409,-2.813 1.228,-3.689 0.818,-0.877 1.894,-1.313 3.228,-1.313 1.165,0 2.11,0.344 2.838,1.03 0.433,0.406 0.757,0.992 0.974,1.755 l -1.903,0.452 c -0.113,-0.491 -0.347,-0.881 -0.705,-1.168 -0.358,-0.284 -0.791,-0.428 -1.302,-0.428 -0.706,0 -1.278,0.252 -1.718,0.76 -0.44,0.507 -0.66,1.326 -0.66,2.461 0,1.203 0.217,2.062 0.65,2.572 0.433,0.51 0.996,0.767 1.688,0.767 0.511,0 0.95,-0.162 1.318,-0.486 0.369,-0.33 0.633,-0.84 0.793,-1.538 z"
   id="path290"
   style="fill:#ffffff" />
	<path
   d="m 237.175,142.055 h -2.091 l -0.832,-2.164 h -3.806 l -0.786,2.164 h -2.039 l 3.708,-9.521 h 2.033 z m -3.539,-3.769 -1.313,-3.532 -1.286,3.532 z"
   id="path292"
   style="fill:#ffffff" />
	<path
   d="m 244.32,132.532 h 3.514 c 0.792,0 1.396,0.062 1.812,0.183 0.559,0.165 1.037,0.457 1.435,0.877 0.398,0.419 0.702,0.936 0.91,1.542 0.208,0.608 0.312,1.358 0.312,2.251 0,0.782 -0.098,1.458 -0.292,2.025 -0.238,0.691 -0.578,1.254 -1.02,1.682 -0.333,0.325 -0.784,0.578 -1.351,0.762 -0.424,0.136 -0.991,0.203 -1.701,0.203 h -3.617 v -9.521 z m 1.922,1.613 v 6.307 h 1.435 c 0.537,0 0.924,-0.03 1.163,-0.092 0.312,-0.077 0.57,-0.211 0.776,-0.396 0.206,-0.188 0.374,-0.49 0.503,-0.92 0.13,-0.426 0.195,-1.007 0.195,-1.743 0,-0.733 -0.065,-1.301 -0.195,-1.692 -0.13,-0.396 -0.312,-0.701 -0.545,-0.924 -0.234,-0.223 -0.53,-0.369 -0.89,-0.447 -0.269,-0.063 -0.795,-0.09 -1.578,-0.09 z"
   id="path294"
   style="fill:#ffffff" />
	<path
   d="m 260.063,142.055 v -9.521 h 7.059 v 1.609 h -5.137 v 2.108 h 4.78 v 1.604 h -4.78 v 2.592 h 5.319 v 1.604 z"
   id="path296"
   style="fill:#ffffff" />
</g>
<g
   id="g314"
   style="fill:#ffffff"
   transform="translate(4.0019531,4.0226435)">
	<path
   d="m 283.18,142.055 v -9.521 h 2.877 l 1.729,6.494 1.707,-6.494 h 2.883 v 9.521 h -1.785 v -7.496 l -1.891,7.496 h -1.854 l -1.887,-7.496 v 7.496 z"
   id="path300"
   style="fill:#ffffff" />
	<path
   d="m 309.001,142.055 h -2.09 l -0.832,-2.164 h -3.809 l -0.782,2.164 h -2.04 l 3.709,-9.521 h 2.029 z m -3.539,-3.769 -1.313,-3.532 -1.286,3.532 z"
   id="path302"
   style="fill:#ffffff" />
	<path
   d="m 322.246,138.552 1.863,0.593 c -0.285,1.041 -0.761,1.813 -1.425,2.313 -0.665,0.505 -1.509,0.757 -2.53,0.757 -1.264,0 -2.303,-0.433 -3.115,-1.296 -0.813,-0.86 -1.223,-2.044 -1.223,-3.542 0,-1.585 0.409,-2.813 1.229,-3.689 0.818,-0.877 1.896,-1.313 3.229,-1.313 1.165,0 2.108,0.344 2.839,1.03 0.434,0.406 0.76,0.992 0.977,1.755 l -1.902,0.452 c -0.111,-0.491 -0.35,-0.881 -0.704,-1.168 -0.356,-0.284 -0.791,-0.428 -1.303,-0.428 -0.705,0 -1.277,0.252 -1.718,0.76 -0.439,0.507 -0.66,1.326 -0.66,2.461 0,1.203 0.218,2.062 0.648,2.572 0.434,0.51 0.994,0.767 1.688,0.767 0.51,0 0.946,-0.162 1.313,-0.486 0.369,-0.33 0.633,-0.84 0.794,-1.538 z"
   id="path304"
   style="fill:#ffffff" />
	<path
   d="m 331.897,142.055 v -9.521 h 1.923 v 3.748 h 3.766 v -3.748 h 1.924 v 9.521 h -1.924 v -4.164 h -3.766 v 4.164 z"
   id="path306"
   style="fill:#ffffff" />
	<path
   d="m 347.569,142.055 v -9.521 h 1.923 v 9.521 z"
   id="path308"
   style="fill:#ffffff" />
	<path
   d="m 357.472,142.055 v -9.521 h 1.871 l 3.896,6.357 v -6.357 h 1.786 v 9.521 h -1.929 l -3.839,-6.209 v 6.209 z"
   id="path310"
   style="fill:#ffffff" />
	<path
   d="m 373.19,142.055 v -9.521 h 7.06 v 1.609 h -5.138 v 2.108 h 4.78 v 1.604 h -4.78 v 2.592 h 5.319 v 1.604 z"
   id="path312"
   style="fill:#ffffff" />
</g>
<g
   id="g332"
   style="fill:#ffffff"
   transform="translate(4.0019531,4.0226435)">
	<path
   d="m 397.091,142.055 v -9.521 h 7.06 v 1.609 h -5.137 v 2.108 h 4.78 v 1.604 h -4.78 v 2.592 h 5.319 v 1.604 z"
   id="path316"
   style="fill:#ffffff" />
	<path
   d="m 412.069,142.055 v -9.521 h 2.877 l 1.728,6.494 1.709,-6.494 h 2.883 v 9.521 h -1.783 v -7.496 l -1.893,7.496 h -1.852 l -1.884,-7.496 v 7.496 z"
   id="path318"
   style="fill:#ffffff" />
	<path
   d="m 429.292,132.532 h 1.922 v 5.155 c 0,0.816 0.023,1.35 0.07,1.592 0.082,0.391 0.273,0.701 0.588,0.938 0.311,0.236 0.729,0.354 1.27,0.354 0.547,0 0.957,-0.11 1.234,-0.334 0.277,-0.223 0.443,-0.496 0.5,-0.821 0.057,-0.324 0.084,-0.863 0.084,-1.616 v -5.268 h 1.924 v 5.001 c 0,1.144 -0.053,1.95 -0.156,2.423 -0.104,0.472 -0.297,0.87 -0.574,1.193 -0.279,0.324 -0.652,0.582 -1.121,0.773 -0.467,0.192 -1.078,0.289 -1.83,0.289 -0.91,0 -1.6,-0.104 -2.068,-0.313 -0.471,-0.211 -0.842,-0.482 -1.109,-0.818 -0.271,-0.335 -0.451,-0.688 -0.537,-1.057 -0.127,-0.545 -0.189,-1.353 -0.189,-2.416 v -5.077 z"
   id="path320"
   style="fill:#ffffff" />
	<path
   d="m 445.093,142.055 v -9.443 h 1.922 v 7.84 h 4.781 v 1.604 h -6.703 z"
   id="path322"
   style="fill:#ffffff" />
	<path
   d="m 467.882,142.055 h -2.092 l -0.83,-2.164 h -3.807 l -0.785,2.164 h -2.039 l 3.707,-9.521 h 2.033 z m -3.539,-3.769 -1.313,-3.532 -1.285,3.532 z"
   id="path324"
   style="fill:#ffffff" />
	<path
   d="m 476.191,142.055 v -7.91 h -2.826 v -1.61 h 7.564 v 1.61 h -2.816 v 7.91 z"
   id="path326"
   style="fill:#ffffff" />
	<path
   d="m 487.671,137.352 c 0,-0.972 0.146,-1.783 0.438,-2.44 0.215,-0.484 0.51,-0.92 0.885,-1.308 0.375,-0.387 0.785,-0.67 1.23,-0.854 0.594,-0.251 1.277,-0.376 2.053,-0.376 1.402,0 2.525,0.438 3.367,1.305 0.842,0.87 1.264,2.081 1.264,3.633 0,1.535 -0.418,2.737 -1.254,3.605 -0.836,0.867 -1.953,1.302 -3.352,1.302 -1.416,0 -2.541,-0.433 -3.377,-1.296 -0.836,-0.863 -1.254,-2.057 -1.254,-3.571 z m 1.983,-0.066 c 0,1.078 0.248,1.896 0.746,2.45 0.498,0.558 1.131,0.834 1.896,0.834 0.768,0 1.396,-0.273 1.887,-0.825 0.492,-0.554 0.736,-1.381 0.736,-2.485 0,-1.09 -0.238,-1.902 -0.717,-2.439 -0.48,-0.535 -1.113,-0.805 -1.906,-0.805 -0.793,0 -1.43,0.271 -1.916,0.813 -0.486,0.542 -0.726,1.362 -0.726,2.457 z"
   id="path328"
   style="fill:#ffffff" />
	<path
   d="m 504.544,142.055 v -9.521 h 4.047 c 1.018,0 1.756,0.086 2.217,0.258 0.461,0.171 0.83,0.477 1.107,0.912 0.277,0.438 0.416,0.938 0.416,1.5 0,0.714 -0.211,1.304 -0.631,1.771 -0.42,0.465 -1.047,0.758 -1.883,0.879 0.416,0.242 0.76,0.51 1.021,0.799 0.271,0.291 0.645,0.808 1.102,1.548 l 1.156,1.856 H 510.8 l -1.391,-2.072 c -0.492,-0.739 -0.83,-1.207 -1.012,-1.398 -0.186,-0.189 -0.375,-0.322 -0.578,-0.396 -0.203,-0.069 -0.525,-0.104 -0.971,-0.104 h -0.391 v 3.978 h -1.92 v -0.006 h 0.004 v -0.002 h 0.003 z m 1.922,-5.496 h 1.424 c 0.922,0 1.498,-0.037 1.727,-0.115 0.23,-0.077 0.41,-0.213 0.541,-0.402 0.129,-0.188 0.193,-0.43 0.193,-0.714 0,-0.32 -0.086,-0.579 -0.258,-0.776 -0.17,-0.193 -0.41,-0.318 -0.723,-0.371 -0.156,-0.021 -0.623,-0.031 -1.402,-0.031 h -1.502 z"
   id="path330"
   style="fill:#ffffff" />
</g>
<polygon
   fill="url(#SVGID_1_)"
   points="557.949,5.927 479.951,5.642 406.662,79.217 396.4,79.784 396.686,9.001 355.481,51.055 345.625,52.224 345.625,9.374 261.264,92.842 250.775,93.958 251.667,8.077 177.937,82.94 168.255,82.987 167.12,11.089 127.342,51.15 116.278,51.717 116.697,8.939 11.591,114.895 46.209,114.328 91.598,70.276 100.303,70.276 99.883,114.54 136.035,77.543 144.679,77.543 144.679,115.23 104.892,154.73 143.019,154.165 218.036,78.299 228.14,78.299 228.14,115.57 274.897,115.854 320.115,70.353 328.843,69.786 328.708,112.799 364.839,76.667 373.375,76.667 373.941,113.102 373.203,114.998 482.378,114.998 503.279,93.815 435.398,92.661 434.781,82.809 445.357,71.67 470.968,71.667 493.216,49.133 479.769,48.565 479.769,39.082 491.191,27.662 536.777,27.946 "
   id="polygon1006"
   style="fill:url(#linearGradient5719)"
   transform="translate(4.0019531,4.0226435)" /><path
   fill="url(#SVGID_2_)"
   d="M 118.69395,17.235644 17.578953,118.35064 l -11.4709999,4.313 c 0,0 -0.604,0.039 -0.271,-0.445 0,0 117.2599969,-117.2919965 117.4719969,-117.4709965 0.212,-0.181 0.467,-0.028 0.467,-0.028 z"
   id="path1008"
   style="fill:url(#linearGradient5721)" /><path
   fill="url(#SVGID_3_)"
   d="m 149.81595,119.81964 -37.518,37.521 -11.065,4.457 c 0,0 -0.576,0.065 -0.236,-0.407 l 43.929,-43.749 z"
   id="path1010"
   style="fill:url(#linearGradient5723)" /><polygon
   fill="url(#SVGID_4_)"
   points="13.603,114.328 46.209,114.328 48.982,118.641 2.106,118.641 "
   id="polygon1012"
   style="fill:url(#linearGradient5725)"
   transform="translate(4.0019531,4.0226435)" /><polygon
   fill="url(#SVGID_5_)"
   points="108.296,153.314 142.168,153.314 144.781,157.771 97.23,157.771 "
   id="polygon1014"
   style="fill:url(#linearGradient5727)"
   transform="translate(4.0019531,4.0226435)" /><polygon
   fill="url(#SVGID_6_)"
   points="374.052,114.148 481.529,114.146 484.787,118.613 370.242,118.584 "
   id="polygon1016"
   style="fill:url(#linearGradient5729)"
   transform="translate(4.0019531,4.0226435)" /><path
   fill="url(#SVGID_7_)"
   d="m 281.05495,123.50664 -51.527,-0.029 c -0.333,0.005 -0.81,-0.335 -0.81,-0.335 l 4.561,-4.115 h 45.054 z"
   id="path1018"
   style="fill:url(#linearGradient5731)" /><path
   fill="url(#SVGID_8_)"
   d="m 481.38395,5.9356435 h 88.652 c 0.785,0 0.785,0.313 0.785,0.313 l -10.572,4.5500005 h -75.164 z"
   id="path1020"
   style="fill:url(#linearGradient5733)" /><polygon
   fill="url(#SVGID_9_)"
   points="490.625,27.094 535.927,27.094 539.042,31.304 492.697,31.304 "
   id="polygon1022"
   style="fill:url(#linearGradient5735)"
   transform="translate(4.0019531,4.0226435)" /><polygon
   fill="url(#SVGID_10_)"
   points="444.791,71.102 470.402,71.1 473.589,74.82 448.91,74.82 "
   id="polygon1024"
   style="fill:url(#linearGradient5737)"
   transform="translate(4.0019531,4.0226435)" /><path
   fill="url(#SVGID_11_)"
   d="m 495.80195,53.722644 h -13.58 l -1.193,-5.548 h 25.467 c 0.346,-0.043 0.441,0.146 0.441,0.146 z"
   id="path1026"
   style="fill:url(#linearGradient5739)" /><path
   fill="url(#SVGID_12_)"
   d="m 100.87395,74.656644 -47.889997,48.008996 -2.773,-4.313 46.601,-46.364996 c 2,-2.313 4.674997,-1.731 4.674997,-1.731 z"
   id="path1028"
   style="fill:url(#linearGradient5741)" /><path
   fill="url(#SVGID_13_)"
   d="m 118.71195,55.691644 v -38.476 l 5.063,-12.4990005 c 0,0 0.303,0.075 0.303,0.571 0,0.493 0,53.6470005 0,53.6470005 l -0.315,2.311 c 0,0.001 -4.496,0.025 -5.051,-5.554 z"
   id="path1030"
   style="fill:url(#linearGradient5743)" /><path
   fill="url(#SVGID_14_)"
   d="m 176.90395,92.865644 c 0,0 -6.539,1.95 -6.621,-5.625 -0.08,-7.313 -0.013,-69.291 -0.013,-69.291 l 5.214,-13.8960005 c 0,0 0.182,-0.027 0.182,0.725 l -0.017,81.7930005 z"
   id="path1032"
   style="fill:url(#linearGradient5745)" /><path
   fill="url(#SVGID_15_)"
   d="m 259.81095,102.93264 c 0,0 -5.889,0.577 -5.96,-6.087996 l -0.033,-80.063 4.651,-12.0710005 c 0,0 0.583,0.153 0.583,0.907 l -0.016,91.1400005 z"
   id="path1034"
   style="fill:url(#linearGradient5747)" /><path
   fill="url(#SVGID_16_)"
   d="m 353.09895,61.447644 c 0,0 -4.868,0.452 -5.701,-4.563 v -39.723 l 4.393,-12.1470005 c 0,0 0.563,0.134 0.563,0.886 V 55.567644 Z"
   id="path1036"
   style="fill:url(#linearGradient5749)" /><path
   fill="url(#SVGID_17_)"
   d="m 404.78295,89.355644 c 0,0 -4.938,0.643 -5.797,-4.373 v -67.706 l 4.85,-12.5440005 c 0,0 0.268,0.221 0.268,1.708 V 83.666644 Z"
   id="path1038"
   style="fill:url(#linearGradient5751)" /><path
   fill="url(#SVGID_18_)"
   d="m 101.76095,124.84264 c 0,0 -0.833,-0.069 -0.809,-1.149 -10e-4,-0.917 -0.078,-49.035996 -0.078,-49.035996 0,0 -1.217997,-1.577 0.613,-4.4 0.547,0.131 3.495,0.727 4.101,4.256 v 40.369996 z"
   id="path1040"
   style="fill:url(#linearGradient5753)" /><path
   fill="url(#SVGID_19_)"
   d="m 144.84495,82.620644 c 0,0 -41.489,41.547996 -41.883,41.937996 -0.346,0.379 -1.202,0.282 -1.202,0.282 l 3.827,-9.963 36.059,-36.087996 c 0,0 1.34,-1.727 3.831,-1.637 z"
   id="path1042"
   style="fill:url(#linearGradient5755)" /><path
   fill="url(#SVGID_20_)"
   d="m 570.61095,7.6616435 -27.566,27.6650005 -3.115,-4.211 20.312,-20.324 10.582,-4.5420005 c 0,10e-4 0.349,0.847 -0.213,1.412 z"
   id="path1044"
   style="fill:url(#linearGradient5757)" /><path
   fill="url(#SVGID_21_)"
   d="m 144.92595,117.63864 -0.079,-35.024996 c 0,0 -1.301,-2.633 0.631,-5.456 0.593,-0.007 3.7,0.421 4.339,4.146 l -0.001,38.519996 z"
   id="path1046"
   style="fill:url(#linearGradient5759)" /><path
   fill="url(#SVGID_22_)"
   d="m 170.27095,17.948644 -41.462,41.463 c -1.987,1.986 -5.045,1.836 -5.045,1.836 -1.795,-3.531 0.315,-6.065 0.315,-6.065 0,0 50.503,-50.4900005 50.867,-50.8700005 0.331,-0.417 0.541,-0.264 0.541,-0.264 z"
   id="path1048"
   style="fill:url(#linearGradient5761)" /><path
   fill="url(#SVGID_23_)"
   d="m 253.81695,16.784644 -74.376,74.375 c -1.55,1.551 -2.537,1.703 -2.537,1.703 -3.781,-1.878 -1.213,-6.255 -1.213,-6.255 0,0 80.652,-80.6350005 81.016,-81.0150005 0.943,-1.093 1.761,-0.883 1.761,-0.883 z"
   id="path1050"
   style="fill:url(#linearGradient5763)" /><path
   fill="url(#SVGID_24_)"
   d="m 347.39795,17.161644 -84.163,84.160996 c -1.429,1.432 -3.424,1.608 -3.424,1.608 -3.115,-1.556 -0.776,-6.174996 -0.776,-6.174996 0,0 90.61,-90.5000005 90.974,-90.8810005 0.941,-1.098 1.781,-0.862 1.781,-0.862 z"
   id="path1052"
   style="fill:url(#linearGradient5765)" /><path
   fill="url(#SVGID_25_)"
   d="m 398.98595,17.276644 -42.513,42.514 c -1.429,1.432 -3.374,1.657 -3.374,1.657 -2.932,-1.908 -0.588,-5.983 -0.588,-5.983 0,0 49.584,-49.6900005 49.947,-50.0700005 1.047,-1.033 1.377,-0.66 1.377,-0.66 z"
   id="path1054"
   style="fill:url(#linearGradient5767)" /><path
   fill="url(#SVGID_26_)"
   d="m 506.95995,49.475644 -29.369,29.367 -3.188,-3.722 21.399,-21.398 11.135,-5.401 c 0,0 0.414,0.294 0.023,1.154 z"
   id="path1056"
   style="fill:url(#linearGradient5769)" /><path
   fill="url(#SVGID_27_)"
   d="m 517.63595,93.982644 -28.848,28.650996 -3.258,-4.465 20.049,-20.048996 12.289,-5.38 c 0.001,0.003 0.397,0.435 -0.232,1.243 z"
   id="path1058"
   style="fill:url(#linearGradient5771)" /><path
   fill="url(#SVGID_28_)"
   d="m 485.08495,10.799644 -76.912,76.913 c -1.43,1.432 -3.395,1.644 -3.395,1.644 -2.449,-3.092 -0.686,-5.979 -0.686,-5.979 l 77.289,-77.4400005 z"
   id="path1060"
   style="fill:url(#linearGradient5773)" /><path
   fill="url(#SVGID_29_)"
   d="m 496.69895,35.326644 -12.676,12.786 c -2.771,2.282 -1.801,5.608 -1.801,5.608 -2.25,-0.21 -3.125,-2.065 -3.412,-3.695 -0.285,-1.63 0.303,-3.422 1.348,-4.467 l 14.469,-14.44 z"
   id="path1062"
   style="fill:url(#linearGradient5775)" /><path
   fill="url(#SVGID_30_)"
   d="m 146.17195,157.33864 77.913,-77.942996 c 0,0 1.437,-1.873 4.267,-1.771 l -0.456,5.223 c 0,0 -78.666,78.505996 -79.113,78.947996 z"
   id="path1064"
   style="fill:url(#linearGradient5777)" /><path
   fill="url(#SVGID_31_)"
   d="m 278.33195,119.02664 47.643,-47.658996 c 0,0 1.437,-1.871 4.267,-1.771 l -0.857,5.621 -48.325,48.289996 z"
   id="path1066"
   style="fill:url(#linearGradient5779)" /><path
   fill="url(#SVGID_32_)"
   d="m 334.12695,114.27264 36.779,-36.788996 c 0.842,-0.843 1.779,-1.771 3.396,-1.771 l -0.107,5.501 -43.081,43.042996 c -0.569,0.563 -1.019,0.399 -1.019,0.399 z"
   id="path1068"
   style="fill:url(#linearGradient5781)" /><path
   fill="url(#SVGID_33_)"
   d="m 365.98595,122.07964 7.25,-7.281 5.557,2.326 -0.734,1.047 -3.813,4.437 -0.272,0.3 h -7.72 c -0.34,0.014 -0.521,-0.271 -0.521,-0.271 0,0 -0.155,-0.147 0.253,-0.558 z"
   id="path1070"
   style="fill:url(#linearGradient5783)" /><path
   fill="url(#SVGID_34_)"
   d="m 227.98495,121.36064 -0.09,-38.514996 c 0,0 -1.738,-2.016 0.457,-5.223 0.673,-0.01 4.202,0.478 4.928,4.707 l -0.001,36.693996 -4.561,4.115 c 0,0.003 -0.73,-0.475 -0.733,-1.778 z"
   id="path1072"
   style="fill:url(#linearGradient5785)" /><path
   fill="url(#SVGID_35_)"
   d="m 329.45095,123.96764 -0.08,-48.749996 c 0,0 -1.472,-2.681 0.871,-5.621 0.596,-0.009 3.243,0.472 3.885,4.702 v 39.974996 l -4.028,10.39 c -0.004,-0.002 -0.605,-0.143 -0.648,-0.696 z"
   id="path1074"
   style="fill:url(#linearGradient5787)" /><path
   fill="url(#SVGID_36_)"
   d="M 373.23595,114.79764 V 82.168644 c 0,0 -2.113,-3.379 1.064,-6.456 0.693,-0.008 4.132,0.24 4.492,4.323 v 37.087996 z"
   id="path1076"
   style="fill:url(#linearGradient5789)" /><path
   fill="url(#SVGID_37_)"
   d="m 452.91195,78.842644 -13.451,13.479 -3.844,4.809 c -3.896,-2.458 -1.953,-6.874 -0.912,-7.925 l 14.088,-14.079 z"
   id="path1078"
   style="fill:url(#linearGradient5791)" /><path
   fill="url(#SVGID_38_)"
   d="m 505.58195,98.120644 h -66.391 c -2.502,-0.196 -3.574,-0.992 -3.574,-0.992 -0.012,-3.571 3.844,-4.809 3.844,-4.809 l 77.746,0.001 c 0.543,-0.001 0.662,0.422 0.662,0.422 z"
   id="path1080"
   style="fill:url(#linearGradient5793)" /><g
   id="g1098"
   style="fill:#ffffff"
   transform="translate(4.0019531,4.0226435)">
	<path
   d="m 0,142.055 v -9.521 h 2.876 l 1.728,6.494 1.708,-6.494 h 2.883 v 9.521 H 7.41 v -7.496 l -1.89,7.496 H 3.669 l -1.883,-7.496 v 7.496 z"
   id="path1082"
   style="fill:#ffffff" />
	<path
   d="m 17.224,132.532 h 1.922 v 5.155 c 0,0.816 0.024,1.35 0.071,1.592 0.083,0.391 0.278,0.701 0.588,0.938 0.31,0.237 0.732,0.354 1.27,0.354 0.545,0 0.957,-0.11 1.234,-0.334 0.277,-0.223 0.443,-0.496 0.5,-0.821 0.056,-0.324 0.084,-0.863 0.084,-1.616 v -5.268 h 1.922 v 5.001 c 0,1.144 -0.052,1.95 -0.155,2.423 -0.104,0.472 -0.296,0.87 -0.575,1.193 -0.279,0.324 -0.652,0.582 -1.12,0.773 -0.468,0.192 -1.078,0.289 -1.832,0.289 -0.909,0 -1.599,-0.104 -2.068,-0.313 -0.47,-0.211 -0.841,-0.482 -1.114,-0.818 -0.273,-0.335 -0.452,-0.688 -0.539,-1.057 -0.125,-0.545 -0.188,-1.353 -0.188,-2.416 z"
   id="path1084"
   style="fill:#ffffff" />
	<path
   d="m 33.025,142.055 v -9.443 h 1.922 v 7.84 h 4.78 v 1.604 h -6.702 z"
   id="path1086"
   style="fill:#ffffff" />
	<path
   d="m 48.385,142.055 v -7.91 H 45.56 v -1.61 h 7.566 v 1.61 h -2.819 v 7.91 z"
   id="path1088"
   style="fill:#ffffff" />
	<path
   d="m 60.438,142.055 v -9.521 h 1.922 v 9.521 z"
   id="path1090"
   style="fill:#ffffff" />
	<path
   d="m 70.324,142.055 v -9.521 h 3.085 c 1.169,0 1.931,0.048 2.286,0.144 0.545,0.146 1.002,0.453 1.37,0.935 0.368,0.479 0.552,1.098 0.552,1.854 0,0.584 -0.106,1.075 -0.318,1.477 -0.212,0.396 -0.482,0.711 -0.809,0.938 -0.327,0.229 -0.659,0.378 -0.997,0.452 -0.459,0.09 -1.124,0.136 -1.994,0.136 h -1.253 v 3.594 z m 1.922,-7.91 v 2.701 h 1.052 c 0.757,0 1.264,-0.053 1.52,-0.15 0.256,-0.098 0.456,-0.254 0.601,-0.467 0.145,-0.213 0.217,-0.459 0.217,-0.74 0,-0.346 -0.102,-0.633 -0.305,-0.856 -0.204,-0.225 -0.461,-0.362 -0.773,-0.422 -0.229,-0.043 -0.691,-0.063 -1.383,-0.063 z"
   id="path1092"
   style="fill:#ffffff" />
	<path
   d="m 85.378,142.055 v -9.443 H 87.3 v 7.84 h 4.78 v 1.604 h -6.702 z"
   id="path1094"
   style="fill:#ffffff" />
	<path
   d="m 99.582,142.055 v -9.521 h 7.059 v 1.609 h -5.137 v 2.108 h 4.78 v 1.604 h -4.78 v 2.592 h 5.319 v 1.604 z"
   id="path1096"
   style="fill:#ffffff" />
</g><g
   id="g1112"
   style="fill:#ffffff"
   transform="translate(4.0019531,4.0226435)">
	<path
   d="m 189.966,142.055 h -2.091 l -0.831,-2.164 h -3.806 l -0.786,2.164 h -2.039 l 3.708,-9.521 h 2.032 z m -3.539,-3.769 -1.313,-3.532 -1.286,3.532 z"
   id="path1100"
   style="fill:#ffffff" />
	<path
   d="m 197.124,142.055 v -9.521 h 4.046 c 1.018,0 1.757,0.086 2.218,0.258 0.461,0.171 0.83,0.477 1.107,0.912 0.277,0.438 0.416,0.938 0.416,1.5 0,0.714 -0.21,1.304 -0.63,1.771 -0.419,0.465 -1.047,0.758 -1.883,0.879 0.416,0.242 0.758,0.51 1.029,0.799 0.271,0.291 0.635,0.808 1.094,1.548 l 1.162,1.856 h -2.299 l -1.39,-2.072 c -0.493,-0.739 -0.832,-1.207 -1.013,-1.398 -0.181,-0.189 -0.375,-0.322 -0.578,-0.396 -0.203,-0.069 -0.526,-0.104 -0.968,-0.104 h -0.389 v 3.978 h -1.922 z m 1.922,-5.496 h 1.422 c 0.922,0 1.498,-0.037 1.727,-0.115 0.23,-0.077 0.409,-0.213 0.539,-0.402 0.13,-0.188 0.195,-0.43 0.195,-0.714 0,-0.32 -0.085,-0.579 -0.256,-0.776 -0.171,-0.193 -0.412,-0.318 -0.724,-0.371 -0.156,-0.021 -0.623,-0.031 -1.403,-0.031 h -1.5 z"
   id="path1102"
   style="fill:#ffffff" />
	<path
   d="m 218.945,138.552 1.864,0.593 c -0.286,1.041 -0.761,1.813 -1.425,2.313 -0.664,0.504 -1.508,0.757 -2.53,0.757 -1.264,0 -2.303,-0.433 -3.117,-1.296 -0.814,-0.86 -1.221,-2.044 -1.221,-3.542 0,-1.585 0.409,-2.813 1.228,-3.689 0.818,-0.877 1.894,-1.313 3.228,-1.313 1.165,0 2.11,0.344 2.838,1.03 0.433,0.406 0.757,0.992 0.974,1.755 l -1.903,0.452 c -0.113,-0.491 -0.347,-0.881 -0.705,-1.168 -0.358,-0.284 -0.791,-0.428 -1.302,-0.428 -0.706,0 -1.278,0.252 -1.718,0.76 -0.44,0.507 -0.66,1.326 -0.66,2.461 0,1.203 0.217,2.062 0.65,2.572 0.433,0.51 0.996,0.767 1.688,0.767 0.511,0 0.95,-0.162 1.318,-0.486 0.369,-0.33 0.633,-0.84 0.793,-1.538 z"
   id="path1104"
   style="fill:#ffffff" />
	<path
   d="m 237.175,142.055 h -2.091 l -0.832,-2.164 h -3.806 l -0.786,2.164 h -2.039 l 3.708,-9.521 h 2.033 z m -3.539,-3.769 -1.313,-3.532 -1.286,3.532 z"
   id="path1106"
   style="fill:#ffffff" />
	<path
   d="m 244.32,132.532 h 3.514 c 0.792,0 1.396,0.062 1.812,0.183 0.559,0.165 1.037,0.457 1.435,0.877 0.398,0.419 0.702,0.936 0.91,1.542 0.208,0.608 0.312,1.358 0.312,2.251 0,0.782 -0.098,1.458 -0.292,2.025 -0.238,0.691 -0.578,1.254 -1.02,1.682 -0.333,0.325 -0.784,0.578 -1.351,0.762 -0.424,0.136 -0.991,0.203 -1.701,0.203 h -3.617 v -9.521 z m 1.922,1.613 v 6.307 h 1.435 c 0.537,0 0.924,-0.03 1.163,-0.092 0.312,-0.077 0.57,-0.211 0.776,-0.396 0.206,-0.188 0.374,-0.49 0.503,-0.92 0.13,-0.426 0.195,-1.007 0.195,-1.743 0,-0.733 -0.065,-1.301 -0.195,-1.692 -0.13,-0.396 -0.312,-0.701 -0.545,-0.924 -0.234,-0.223 -0.53,-0.369 -0.89,-0.447 -0.269,-0.063 -0.795,-0.09 -1.578,-0.09 z"
   id="path1108"
   style="fill:#ffffff" />
	<path
   d="m 260.063,142.055 v -9.521 h 7.059 v 1.609 h -5.137 v 2.108 h 4.78 v 1.604 h -4.78 v 2.592 h 5.319 v 1.604 z"
   id="path1110"
   style="fill:#ffffff" />
</g><g
   id="g1128"
   style="fill:#ffffff"
   transform="translate(4.0019531,4.0226435)">
	<path
   d="m 283.18,142.055 v -9.521 h 2.877 l 1.729,6.494 1.707,-6.494 h 2.883 v 9.521 h -1.785 v -7.496 l -1.891,7.496 h -1.854 l -1.887,-7.496 v 7.496 z"
   id="path1114"
   style="fill:#ffffff" />
	<path
   d="m 309.001,142.055 h -2.09 l -0.832,-2.164 h -3.809 l -0.782,2.164 h -2.04 l 3.709,-9.521 h 2.029 z m -3.539,-3.769 -1.313,-3.532 -1.286,3.532 z"
   id="path1116"
   style="fill:#ffffff" />
	<path
   d="m 322.246,138.552 1.863,0.593 c -0.285,1.041 -0.761,1.813 -1.425,2.313 -0.665,0.505 -1.509,0.757 -2.53,0.757 -1.264,0 -2.303,-0.433 -3.115,-1.296 -0.813,-0.86 -1.223,-2.044 -1.223,-3.542 0,-1.585 0.409,-2.813 1.229,-3.689 0.818,-0.877 1.896,-1.313 3.229,-1.313 1.165,0 2.108,0.344 2.839,1.03 0.434,0.406 0.76,0.992 0.977,1.755 l -1.902,0.452 c -0.111,-0.491 -0.35,-0.881 -0.704,-1.168 -0.356,-0.284 -0.791,-0.428 -1.303,-0.428 -0.705,0 -1.277,0.252 -1.718,0.76 -0.439,0.507 -0.66,1.326 -0.66,2.461 0,1.203 0.218,2.062 0.648,2.572 0.434,0.51 0.994,0.767 1.688,0.767 0.51,0 0.946,-0.162 1.313,-0.486 0.369,-0.33 0.633,-0.84 0.794,-1.538 z"
   id="path1118"
   style="fill:#ffffff" />
	<path
   d="m 331.897,142.055 v -9.521 h 1.923 v 3.748 h 3.766 v -3.748 h 1.924 v 9.521 h -1.924 v -4.164 h -3.766 v 4.164 z"
   id="path1120"
   style="fill:#ffffff" />
	<path
   d="m 347.569,142.055 v -9.521 h 1.923 v 9.521 z"
   id="path1122"
   style="fill:#ffffff" />
	<path
   d="m 357.472,142.055 v -9.521 h 1.871 l 3.896,6.357 v -6.357 h 1.786 v 9.521 h -1.929 l -3.839,-6.209 v 6.209 z"
   id="path1124"
   style="fill:#ffffff" />
	<path
   d="m 373.19,142.055 v -9.521 h 7.06 v 1.609 h -5.138 v 2.108 h 4.78 v 1.604 h -4.78 v 2.592 h 5.319 v 1.604 z"
   id="path1126"
   style="fill:#ffffff" />
</g><g
   id="g1146"
   style="fill:#ffffff"
   transform="translate(4.0019531,4.0226435)">
	<path
   d="m 397.091,142.055 v -9.521 h 7.06 v 1.609 h -5.137 v 2.108 h 4.78 v 1.604 h -4.78 v 2.592 h 5.319 v 1.604 z"
   id="path1130"
   style="fill:#ffffff" />
	<path
   d="m 412.069,142.055 v -9.521 h 2.877 l 1.728,6.494 1.709,-6.494 h 2.883 v 9.521 h -1.783 v -7.496 l -1.893,7.496 h -1.852 l -1.884,-7.496 v 7.496 z"
   id="path1132"
   style="fill:#ffffff" />
	<path
   d="m 429.292,132.532 h 1.922 v 5.155 c 0,0.816 0.023,1.35 0.07,1.592 0.082,0.391 0.273,0.701 0.588,0.938 0.311,0.236 0.729,0.354 1.27,0.354 0.547,0 0.957,-0.11 1.234,-0.334 0.277,-0.223 0.443,-0.496 0.5,-0.821 0.057,-0.324 0.084,-0.863 0.084,-1.616 v -5.268 h 1.924 v 5.001 c 0,1.144 -0.053,1.95 -0.156,2.423 -0.104,0.472 -0.297,0.87 -0.574,1.193 -0.279,0.324 -0.652,0.582 -1.121,0.773 -0.467,0.192 -1.078,0.289 -1.83,0.289 -0.91,0 -1.6,-0.104 -2.068,-0.313 -0.471,-0.211 -0.842,-0.482 -1.109,-0.818 -0.271,-0.335 -0.451,-0.688 -0.537,-1.057 -0.127,-0.545 -0.189,-1.353 -0.189,-2.416 v -5.077 z"
   id="path1134"
   style="fill:#ffffff" />
	<path
   d="m 445.093,142.055 v -9.443 h 1.922 v 7.84 h 4.781 v 1.604 h -6.703 z"
   id="path1136"
   style="fill:#ffffff" />
	<path
   d="m 467.882,142.055 h -2.092 l -0.83,-2.164 h -3.807 l -0.785,2.164 h -2.039 l 3.707,-9.521 h 2.033 z m -3.539,-3.769 -1.313,-3.532 -1.285,3.532 z"
   id="path1138"
   style="fill:#ffffff" />
	<path
   d="m 476.191,142.055 v -7.91 h -2.826 v -1.61 h 7.564 v 1.61 h -2.816 v 7.91 z"
   id="path1140"
   style="fill:#ffffff" />
	<path
   d="m 487.671,137.352 c 0,-0.972 0.146,-1.783 0.438,-2.44 0.215,-0.484 0.51,-0.92 0.885,-1.308 0.375,-0.387 0.785,-0.67 1.23,-0.854 0.594,-0.251 1.277,-0.376 2.053,-0.376 1.402,0 2.525,0.438 3.367,1.305 0.842,0.87 1.264,2.081 1.264,3.633 0,1.535 -0.418,2.737 -1.254,3.605 -0.836,0.867 -1.953,1.302 -3.352,1.302 -1.416,0 -2.541,-0.433 -3.377,-1.296 -0.836,-0.863 -1.254,-2.057 -1.254,-3.571 z m 1.983,-0.066 c 0,1.078 0.248,1.896 0.746,2.45 0.498,0.558 1.131,0.834 1.896,0.834 0.768,0 1.396,-0.273 1.887,-0.825 0.492,-0.554 0.736,-1.381 0.736,-2.485 0,-1.09 -0.238,-1.902 -0.717,-2.439 -0.48,-0.535 -1.113,-0.805 -1.906,-0.805 -0.793,0 -1.43,0.271 -1.916,0.813 -0.486,0.542 -0.726,1.362 -0.726,2.457 z"
   id="path1142"
   style="fill:#ffffff" />
	<path
   d="m 504.544,142.055 v -9.521 h 4.047 c 1.018,0 1.756,0.086 2.217,0.258 0.461,0.171 0.83,0.477 1.107,0.912 0.277,0.438 0.416,0.938 0.416,1.5 0,0.714 -0.211,1.304 -0.631,1.771 -0.42,0.465 -1.047,0.758 -1.883,0.879 0.416,0.242 0.76,0.51 1.021,0.799 0.271,0.291 0.645,0.808 1.102,1.548 l 1.156,1.856 H 510.8 l -1.391,-2.072 c -0.492,-0.739 -0.83,-1.207 -1.012,-1.398 -0.186,-0.189 -0.375,-0.322 -0.578,-0.396 -0.203,-0.069 -0.525,-0.104 -0.971,-0.104 h -0.391 v 3.978 h -1.92 v -0.006 h 0.004 v -0.002 h 0.003 z m 1.922,-5.496 h 1.424 c 0.922,0 1.498,-0.037 1.727,-0.115 0.23,-0.077 0.41,-0.213 0.541,-0.402 0.129,-0.188 0.193,-0.43 0.193,-0.714 0,-0.32 -0.086,-0.579 -0.258,-0.776 -0.17,-0.193 -0.41,-0.318 -0.723,-0.371 -0.156,-0.021 -0.623,-0.031 -1.402,-0.031 h -1.502 z"
   id="path1144"
   style="fill:#ffffff" />
</g></svg>
