<?xml version="1.0" encoding="UTF-8" standalone="no"?>
<!-- Generator: Adobe Illustrator 13.0.0, SVG Export Plug-In . SVG Version: 6.00 Build 14948)  -->

<svg
   version="1.2"
   id="Layer_3"
   x="0px"
   y="0px"
   width="544.02679"
   height="228.43945"
   viewBox="0 0 544.02677 228.43945"
   xml:space="preserve"
   sodipodi:docname="controller.svg"
   inkscape:version="1.1.2 (0a00cf5339, 2022-02-04)"
   xmlns:inkscape="http://www.inkscape.org/namespaces/inkscape"
   xmlns:sodipodi="http://sodipodi.sourceforge.net/DTD/sodipodi-0.dtd"
   xmlns="http://www.w3.org/2000/svg"
   xmlns:svg="http://www.w3.org/2000/svg"
   xmlns:rdf="http://www.w3.org/1999/02/22-rdf-syntax-ns#"
   xmlns:cc="http://creativecommons.org/ns#"
   xmlns:dc="http://purl.org/dc/elements/1.1/"
   xmlns:ns="&amp;ns_sfw;"><defs
   id="defs35" /><sodipodi:namedview
   id="namedview33"
   pagecolor="#ffffff"
   bordercolor="#666666"
   borderopacity="1.0"
   inkscape:pageshadow="2"
   inkscape:pageopacity="0.0"
   inkscape:pagecheckerboard="0"
   showgrid="false"
   fit-margin-top="0"
   fit-margin-left="0"
   fit-margin-right="0"
   fit-margin-bottom="0"
   inkscape:zoom="0.72576052"
   inkscape:cx="97.13948"
   inkscape:cy="102.65094"
   inkscape:window-width="1920"
   inkscape:window-height="996"
   inkscape:window-x="0"
   inkscape:window-y="0"
   inkscape:window-maximized="1"
   inkscape:current-layer="Layer_3" />
<metadata
   id="metadata55">
	<rdf:RDF>
		<cc:Work
   rdf:about="">
			<dc:format>image/svg+xml</dc:format>
			<dc:type
   rdf:resource="http://purl.org/dc/dcmitype/StillImage" />
			
		</cc:Work>
	</rdf:RDF>
	<ns:sfw>
		<ns:slices />
		<ns:sliceSourceBounds
   x="692.15"
   y="-7652"
   width="535.939"
   height="16383"
   bottomLeftOrigin="true" />
	</ns:sfw>
</metadata>
<path
   id="path853"
   d="m 529.60362,0.00672724 c -17.19362,0.02406 -34.38892,0.0023 -51.5832,0.0098 -155.00699,0.0035 -310.01426,-0.0069 -465.021081,0.0052 C 7.2303531,-0.24358476 1.6679921,4.0342292 0.39053708,9.6553392 c -0.663203,2.8266428 -0.253938,5.7481688 -0.370919,8.6194288 5.3e-4,66.007088 -0.0089,132.014532 0.01395,198.021402 0.142014,5.77617 4.78184502,11.07172 10.50368592,11.93087 2.630068,0.39507 5.29751,0.0994 7.944495,0.19381 171.083701,-0.004 342.167501,-6e-5 513.251131,-0.009 4.93812,-0.0817 9.5661,-3.4996 11.25942,-8.11235 0.88813,-0.50738 1.18271,-1.62778 0.9668,-2.58242 -5.6e-4,-68.52662 0.009,-137.053594 -0.0139,-205.579995 -0.13993,-5.7363898 -4.70747,-11.0142488 -10.38751,-11.91214376 -1.30416,-0.22395700336 -2.63419,-0.238564 -3.95402,-0.218412 z M 28.005968,1.9325082 c -0.654948,-0.156901 -1.309896,-0.313802 -1.964844,-0.470703 0.613281,-0.277994 1.226563,-0.55598896 1.839844,-0.83398396 0.04167,0.43489596 0.08333,0.86979196 0.125,1.30468696 z M 28.236437,218.51454 c -5.372492,-0.0202 -10.749569,0.0525 -16.119141,-0.0488 -1.498115,-0.29006 -2.4246879,-1.89028 -2.1894529,-3.35079 0.0043,-67.56983 -0.0099,-135.140534 0.01392,-202.70983 0.1116999,-1.591842 1.7585309,-2.7231028 3.2942819,-2.4844118 5.00013,-0.0013 10.00026,-0.0025 15.000391,-0.0038 -1e-6,69.5325478 0,139.0651018 0,208.5976518 z M 38.773546,9.9168842 c 0,69.5325518 0,139.0651058 0,208.5976558 -0.904356,0.29342 -0.586626,-0.63524 -0.632813,-1.2 0,-69.13255 0,-138.265104 0,-207.3976558 0.210938,0 0.421875,0 0.632813,0 z M 528.81261,14.620008 c 0,14.944011 0,29.888018 0,44.832028 -91.54753,0 -183.09505,0 -274.64258,0 0,-14.94401 0,-29.888017 0,-44.832028 91.54753,10e-7 183.09505,0 274.64258,0 z m -293.91797,2.560547 c 0,20.716151 0,41.432291 0,62.148441 31.13412,0 62.26823,0 93.40234,0 0,34.517584 0,69.035154 0,103.552734 -31.13476,0 -62.26953,0 -93.40429,0 0,9.11719 0,18.23438 0,27.35156 -62.07227,0 -124.14453,0 -186.2168,0 0,-64.35091 0,-128.701824 0,-193.052735 62.07292,0 124.14583,0 186.21875,0 z M 53.209093,24.32704 c -0.43758,0.341873 -1.048882,0.561214 -1.042636,1.211671 -0.242421,0.533036 -0.212483,1.05141 0.08498,1.555263 0.136641,0.522942 0.748582,0.761069 0.957654,1.182675 0,55.583207 0,111.166411 0,166.749611 -0.812481,0.65531 -1.406008,1.8035 -0.888652,2.8078 0.05268,0.70895 0.972483,0.77226 1.17015,1.38397 0.405878,0.41775 0.671148,1.10647 1.367249,0.96111 0.966478,0.26438 1.854695,-0.37782 2.423518,-1.11186 55.608904,0.005 111.225884,6.3e-4 166.837894,0.002 0.64781,0.79202 1.80195,1.42233 2.78147,0.87986 0.85168,-0.14903 0.94238,-1.25474 1.74075,-1.54082 0.25597,-0.41862 0.5873,-0.99933 0.49557,-1.51491 -0.0357,-0.71202 -0.45312,-1.31879 -0.98263,-1.77139 0,-55.66407 0,-111.328134 0,-166.992196 0.69438,-0.547732 1.13768,-1.429419 1.07621,-2.299303 -0.28651,-0.553902 -0.42724,-1.242683 -1.10356,-1.438978 -0.46703,-0.325366 -0.47779,-1.128258 -1.19482,-1.136434 -0.51138,-0.277828 -1.0311,-0.321344 -1.5614,-0.06627 -0.7229,0.10423 -0.9899,1.103153 -1.76331,0.933173 -55.43801,-0.0046 -110.87632,-6.22e-4 -166.314455,-0.002 -0.941322,-1.169783 -2.511536,-1.402202 -3.789008,-2.054778 -0.616867,-0.324332 -0.150094,0.987002 -0.294976,1.375091 0,0.295573 0,0.591146 0,0.886719 z m 155.046877,9.699218 c -4.52669,4.525388 -9.05339,9.050778 -13.58008,13.576168 -9.63148,-7.44863 -21.84576,-11.45588 -34.01758,-11.18594 -14.34965,0.0109 -28.70019,-0.0425 -43.04928,0.0336 -11.13411,0.38397 -22.108891,4.35536 -30.923371,11.16603 -4.52409,-4.52995 -9.04818,-9.0599 -13.572269,-13.589848 45.04753,10e-7 90.09505,10e-7 135.14258,0 z m 9.99219,145.158212 c -4.52409,-4.5306 -9.04818,-9.0612 -13.57227,-13.5918 7.4536,-9.63206 11.46082,-21.85042 11.19178,-34.025 -0.0119,-14.35029 0.0454,-28.70162 -0.0375,-43.051254 -0.37474,-11.13068 -4.34947,-22.10162 -11.15427,-30.91399 4.52409,-4.53059 9.04818,-9.06119 13.57227,-13.59179 0,45.05794 0,90.115884 0,135.173834 z M 76.699329,57.604386 c -7.475059,9.65721 -11.476715,21.91538 -11.189856,34.12109 0.01189,14.317614 -0.04534,28.636254 0.03753,42.953204 0.373956,11.1202 4.343882,22.08073 11.136696,30.8886 -4.522787,4.52799 -9.045574,9.05599 -13.56836,13.58398 0,-45.04232 0,-90.084634 0,-135.126954 4.527995,4.52669 9.055989,9.05338 13.58399,13.58008 z m 34.210941,-10.41211 c -10.58057,2.39619 -20.241031,8.59728 -26.805881,17.23626 -1.2083,1.57685 -2.30889,3.23517 -3.30936,4.95124 0.59263,-1.10382 1.40485,-2.45004 2.18164,-3.59961 3.6631,-5.40885 8.52692,-10.00498 14.15821,-13.32031 0.28915,-0.15823 0.91514,-0.53388 1.34711,-0.75903 4.120101,-2.24872 8.600121,-3.83498 13.217341,-4.68043 -0.26302,0.0573 -0.52604,0.11459 -0.78906,0.17188 z m 59.0625,-0.11328 c 10.17967,1.90713 19.60659,7.52272 26.1136,15.58308 1.89681,2.33866 3.54823,4.87535 4.93522,7.54778 -5.62116,-10.24884 -15.23674,-18.20782 -26.3485,-21.83232 -1.61471,-0.54112 -3.26237,-0.98123 -4.92689,-1.33956 0.0755,0.0137 0.15104,0.0273 0.22657,0.041 z m -34.5586,9.20117 c -2.8362,1.78931 -4.70696,5.06338 -4.59129,8.44211 -0.0305,4.24294 -0.0183,8.48722 -0.005,12.73042 -0.17214,4.00925 2.47087,7.85306 6.1572,9.34325 3.48045,1.47018 7.74426,0.63954 10.45012,-1.98902 2.08359,-1.86554 3.14634,-4.66388 3.11753,-7.43301 -0.0637,-4.60451 0.0701,-9.2132 -0.0664,-13.81641 -0.29554,-3.19306 -2.34591,-6.10775 -5.14453,-7.62695 5.60854,0.0205 11.21917,-0.0331 16.82636,0.0611 7.08896,0.3812 14.02968,2.91411 19.74981,7.10886 0.2925,0.21237 0.92732,0.69572 1.33585,1.02829 7.5145,6.02829 12.48324,15.09824 13.51265,24.67708 0.38788,3.81506 0.1472,7.65749 0.21591,11.484874 6.7e-4,2.68724 0.001,5.37447 0.002,8.06171 -1.25198,-3.66059 -4.79338,-6.44829 -8.69063,-6.60126 -2.4375,-0.10266 -4.87967,0.0104 -7.31953,-0.0365 -2.55563,0.0371 -5.11877,-0.0781 -7.66953,0.0773 -4.53857,0.55617 -8.36543,4.62253 -8.54769,9.20924 -0.3709,4.85948 3.40062,9.66749 8.25793,10.32695 2.28438,0.31538 4.59725,0.0609 6.89445,0.14236 3.09864,-0.0419 6.2088,0.11931 9.29961,-0.1141 3.53103,-0.52112 6.59129,-3.17193 7.77734,-6.51367 -0.0214,5.77846 0.0375,11.55924 -0.0573,17.33622 -0.36945,8.52563 -3.88598,16.83783 -9.66725,23.10366 -6.22056,6.8653 -15.1267,11.1829 -24.36169,11.86398 -3.393,0.23902 -6.79837,0.0557 -10.19699,0.11303 -2.45833,3.6e-4 -4.91667,7.2e-4 -7.375,0.001 3.0422,-1.59657 5.1252,-4.85816 5.19586,-8.30693 0.0577,-3.10319 -0.0181,-6.20906 0.0247,-9.31375 -0.0667,-2.06989 0.14492,-4.17135 -0.23114,-6.21748 -0.94133,-4.50097 -5.34691,-8.02121 -9.97139,-7.76435 -5.05633,0.0625 -9.58181,4.63181 -9.50402,9.70658 -0.059,4.20695 -0.0102,8.41593 -0.0219,12.62361 -0.0925,2.27354 0.51194,4.58901 1.90831,6.40904 0.87061,1.17354 1.99634,2.15059 3.27148,2.86328 -5.60203,-0.0202 -11.20614,0.0338 -16.80683,-0.061 -10.49102,-0.54715 -20.611841,-5.86525 -27.018571,-14.19078 -3.82812,-4.90425 -6.3928,-10.79013 -7.34842,-16.93959 -0.0622,-0.47022 -0.15302,-1.02642 -0.2129,-1.5957 -0.44636,-4.49027 -0.14043,-9.00899 -0.23477,-13.51211 -5.2e-4,-2.06693 -0.001,-4.13386 -0.002,-6.20078 1.20459,3.55009 4.52215,6.32953 8.29444,6.64156 2.2425,0.17885 4.49593,0.008 6.74344,0.0673 2.954911,-0.0351 5.921271,0.11459 8.868371,-0.11314 4.7205,-0.67619 8.50922,-5.1931 8.33203,-9.96406 -0.0201,-4.79772 -4.02934,-9.25591 -8.84928,-9.6011 -2.30001,-0.19189 -4.61209,-0.007 -6.91752,-0.0762 -2.794331,0.0347 -5.595541,-0.0745 -8.385551,0.0711 -3.64804,0.44227 -6.89597,3.11919 -8.08789,6.58594 0.0197,-5.90605 -0.0422,-11.814424 0.0691,-17.718934 0.0985,-1.75605 0.33145,-3.50327 0.68285,-5.22639 0.0746,-0.33062 0.23026,-1.07026 0.35772,-1.54909 0.51999,-2.07393 1.23098,-4.09756 2.0954,-6.05247 0.15085,-0.31607 0.48645,-1.05238 0.72342,-1.51997 1.8739,-3.7335 4.37694,-7.15479 7.39963,-10.04058 0.96596,-0.94936 2.17609,-1.98731 3.32812,-2.85937 6.617681,-5.01605 14.949521,-7.69688 23.251571,-7.47278 4.57695,-6.1e-4 9.1539,-10e-4 13.73086,-0.002 -0.19662,0.11654 -0.39323,0.23307 -0.58985,0.34961 z m 398.64063,13.14453 c -94.17513,0 -188.35026,0 -282.52539,0 1.06629,-0.15919 2.25491,-0.0231 3.36836,-0.0684 92.74244,-6.5e-4 185.48489,-0.001 278.22734,-0.002 0.23867,0.0897 1.00269,-0.2971 0.92969,0.0703 z m -428.5625,3.33594 c -1.60273,1.60626 -3.20831,3.20966 -4.8125,4.81445 4.45383,6.5759 8.89493,13.1579 13.40429,19.69531 4.09236,-4.09254 8.18694,-8.18285 12.2793,-12.27539 -6.54579,-4.50154 -13.12644,-8.94718 -19.70117,-13.40625 -0.38998,0.39063 -0.77995,0.78125 -1.16992,1.17188 z m 67.80468,-0.23242 c -6.14147,4.15782 -12.28376,8.31199 -18.39257,12.51757 4.20579,3.99787 8.27939,8.13044 12.39062,12.22461 4.50536,-6.55476 8.95695,-13.14293 13.41992,-19.72656 -2.02281,-1.97652 -4.04463,-3.95405 -6.0664,-5.93164 -0.45052,0.30534 -0.90104,0.61068 -1.35157,0.91602 z m 352.07227,6.80078 c 0,34.517574 0,69.035154 0,103.552734 -5.5013,0 -11.0026,0 -16.50391,0 0,-34.51758 0,-69.03515 0,-103.552734 5.50131,0 11.00261,0 16.50391,0 z m -115.60547,7.97656 c 0,1.11263 0,2.22526 0,3.33789 -23.85351,0 -47.70703,0 -71.56055,0 0,-1.11263 0,-2.22526 0,-3.33789 23.85352,0 47.70704,0 71.56055,0 z m 89.19531,0 c 0,1.11263 0,2.22526 0,3.33789 -23.84375,0 -47.6875,0 -71.53125,0 0,-1.11263 0,-2.22526 0,-3.33789 23.84375,0 47.6875,0 71.53125,0 z M 355.91417,105.04579 c -7.6501,3.88837 -13.97983,10.31335 -17.71094,18.04493 0,-6.01498 0,-12.02995 0,-18.04493 5.90365,0 11.8073,0 17.71094,0 z m 53.84961,0 c 0,6.02474 0,12.04948 0,18.07422 -3.73108,-7.74872 -10.07787,-14.19256 -17.74805,-18.07422 5.91602,0 11.83204,0 17.74805,0 z m 35.375,0 c -7.64149,3.8796 -13.96994,10.28714 -17.71094,18.00196 0,-6.00065 0,-12.00131 0,-18.00196 5.90365,0 11.8073,0 17.71094,0 z m 53.82031,0 c 0,6.00261 0,12.00521 0,18.00782 -3.73326,-7.71763 -10.06249,-14.1255 -17.70117,-18.00782 5.90039,0 11.80078,0 17.70117,0 z m -124.97656,14.10938 c 7.32631,-0.0721 14.49138,3.99913 18.25288,10.27506 3.81562,6.20957 4.12737,14.40194 0.72645,20.85908 -3.3768,6.63514 -10.43448,11.22617 -17.88587,11.53234 -6.41818,0.3566 -12.92767,-2.35455 -17.14232,-7.21943 -4.30603,-4.86475 -6.18183,-11.74636 -4.92515,-18.12275 1.28715,-6.83157 6.10828,-12.89031 12.52706,-15.59101 2.65683,-1.15033 5.55333,-1.73219 8.44695,-1.73329 z m 89.25195,0 c 6.74588,-0.0385 13.39342,3.37179 17.27464,8.89404 3.90205,5.3315 5.05962,12.52093 3.05014,18.81135 -1.9758,6.53682 -7.30627,11.93263 -13.83072,13.95946 -6.42102,2.11292 -13.81922,0.92662 -19.21648,-3.15799 -5.45689,-3.95751 -8.79094,-10.64337 -8.63777,-17.3869 0.0198,-6.30764 3.02708,-12.51697 7.97852,-16.42739 1.24112,-0.99485 2.59532,-1.84767 4.02425,-2.54609 0.24178,-0.1213 0.8761,-0.41708 1.291,-0.5786 2.55058,-1.0573 5.30624,-1.58408 8.06642,-1.56788 z m -297.64843,8.46484 c -3.53831,3.53364 -7.06183,7.08622 -10.6875,10.53321 6.56476,4.49871 13.15283,8.95837 19.74023,13.42382 2.02514,-1.97482 4.04867,-3.95128 6.07031,-5.92968 -4.46297,-6.58365 -8.91456,-13.17181 -13.41992,-19.72657 -0.56771,0.56641 -1.13541,1.13282 -1.70312,1.69922 z m -52.86328,0.28321 c -4.04189,5.88564 -8.02813,11.80857 -12.04297,17.71289 1.9968,1.99342 3.99342,3.98704 5.99023,5.98046 6.57256,-4.45762 13.15449,-8.90098 19.70117,-13.39648 -4.09569,-4.0918 -8.19103,-8.18397 -12.28515,-12.27734 -0.45443,0.66015 -0.90886,1.32031 -1.36328,1.98047 z m 87.99023,25.67187 c -5.2639,9.89975 -14.45719,17.60647 -25.11514,21.0828 -2.01393,0.67314 -4.08,1.18472 -6.17002,1.55783 10.92103,-2.21284 20.95062,-8.48408 27.72421,-17.33217 1.42905,-1.84861 2.70905,-3.81145 3.84415,-5.85338 -0.0944,0.18164 -0.1888,0.36328 -0.2832,0.54492 z m -119.529301,0.90625 c 5.77283,9.62827 15.11949,17.03802 25.819631,20.44053 1.49885,0.48459 3.02275,0.89239 4.56319,1.22158 -10.17211,-1.86272 -19.610181,-7.42897 -26.138761,-15.45275 -1.78056,-2.17612 -3.35858,-4.51796 -4.70109,-6.98866 0.15235,0.25977 0.30469,0.51954 0.45703,0.7793 z m 328.580081,22.12305 c -6.33854,0 -12.67708,0 -19.01562,0 8.23617,-3.79776 15.07235,-10.52092 19.01562,-18.6875 0,6.22916 0,12.45833 0,18.6875 z m -71.37695,-18.29688 c 3.96219,7.98875 10.70479,14.55995 18.80273,18.29688 -6.32877,0 -12.65755,0 -18.98633,0 0,-6.22526 0,-12.45052 0,-18.67578 0.0612,0.1263 0.1224,0.2526 0.1836,0.3789 z m 89.22656,0.0449 c 3.97309,7.96828 10.70801,14.52455 18.79688,18.25196 -6.32748,0 -12.65495,0 -18.98243,0 0,-6.21094 0,-12.42188 0,-18.63282 0.0618,0.12696 0.1237,0.25391 0.18555,0.38086 z m 71.3457,18.25196 c -6.31805,-0.003 -12.68023,0.005 -18.9707,-0.004 8.20767,-3.78841 15.01827,-10.48405 18.9707,-18.61133 0,6.20508 0,12.41016 0,18.61524 z M 87.314559,176.05945 c 9.57811,7.1704 21.587451,11.02168 33.552741,10.70533 14.21468,0.006 28.42998,0.0441 42.6443,-0.0157 11.21329,-0.33123 22.28406,-4.30314 31.16038,-11.16033 4.5254,4.52474 9.05079,9.04948 13.57618,13.57422 -45.04688,0 -90.09375,0 -135.14063,0 4.527999,-4.52734 9.055989,-9.05469 13.583989,-13.58203 0.20768,0.15951 0.41536,0.31901 0.62304,0.47852 z m 441.501961,25.83593 c -0.004,3.97005 0.0163,7.9402 -0.0176,11.91016 -91.54359,0.005 -183.08725,6.5e-4 -274.63086,0.002 6.5e-4,-3.9707 0.001,-7.9414 0.002,-11.91211 91.54883,0 183.09766,0 274.64649,0 z" /><path
   id="path3"
   d="m 12.681749,4.0125872 c -4.7659999,0 -8.6621089,3.896109 -8.6621089,8.6621088 V 215.75868 c 0,4.766 3.897109,8.66211 8.6621089,8.66211 H 531.32823 c 4.429,0 7.95613,-3.41098 8.45313,-7.70898 h 0.17773 V 215.75868 12.674696 c 0,-4.7619998 -3.86667,-8.6582028 -8.63867,-8.6582028 H 12.673937 Z m 0,1.904297 H 32.236437 V 222.51454 H 12.681749 c -3.7319999,0.01 -6.7539059,-3.0199 -6.7539059,-6.7539 V 12.678602 c 0,-3.7359998 3.019859,-6.7558588 6.7558589,-6.7558588 z m 21.458984,0 H 531.32823 c 3.737,0 6.72657,3.021812 6.72657,6.7578118 v 202.130864 0.95312 c 0,3.736 -2.98857,6.75586 -6.72657,6.75586 H 34.140733 Z m 215.939457,2.798828 c -0.987,0 -1.81641,0.826453 -1.81641,1.8144528 v 53.011721 c 0,0.988 0.83041,1.81445 1.81641,1.81445 H 532.9337 c 0.985,0 1.78516,-0.83045 1.78516,-1.81445 V 13.50868 c 0,-2.641 -2.15102,-4.7929678 -4.79102,-4.7929678 H 250.08409 Z m 0.0898,1.9042958 h 279.75586 c 1.613,0 2.88672,1.276672 2.88672,2.888672 V 63.452036 H 250.17003 Z M 42.773546,11.274305 v 0.953125 202.96094 0.95117 h 0.953125 196.123049 0.95117 v -0.95117 -26.40234 h 289.52149 0.95117 V 187.83486 74.377826 73.424696 H 530.32238 240.80089 V 12.22743 11.276258 H 239.84777 43.726671 Z m 1.902344,1.904297 0.002,0.002 h 194.21675 v 61.195311 0.95313 h 0.95313 0.71484 288.80664 V 186.88177 h -289.22656 -0.29688 -0.95312 v 0.95313 26.39843 H 44.67589 Z m 14.169921,14.941406 1.636719,1.609376 24.544919,24.574222 c -0.55636,0.5315 -1.10132,1.07447 -1.63281,1.63086 L 58.816515,31.387587 57.209093,29.750868 v 0.0078 2.291016 159.060546 2.32226 l 1.607422,-1.63672 24.572264,-24.54492 c 0.53204,0.55714 1.07779,1.10061 1.63477,1.63281 l -24.548831,24.54883 -1.636719,1.63672 h 2.292969 159.062502 2.29101 l -1.60742,-1.63672 -24.53515,-24.53515 c 0.56349,-0.53804 1.11436,-1.08881 1.65234,-1.65235 l 24.52148,24.55469 1.63868,1.63672 V 191.11415 32.051649 29.760634 l -1.63868,1.634765 -24.55078,24.521487 c -0.53415,-0.55861 -1.08138,-1.10322 -1.64062,-1.63672 l 24.55859,-24.552736 1.60742,-1.607422 H 220.19933 61.136827 Z m 4.615235,1.90625 H 217.91222 l -22.97656,22.972658 c -8.84272,-7.82461 -20.46038,-12.58594 -33.18946,-12.58594 h -42.11718 c -12.73799,0 -24.361841,4.76825 -33.207041,12.60352 z M 222.24816,34.342665 V 188.85243 l -22.96875,-23 c 7.8291,-8.84366 12.59179,-20.46443 12.59179,-33.19726 V 90.537976 c 0,-12.7325 -4.76268,-24.35325 -12.59179,-33.19726 z m -163.132817,0.02539 22.980466,22.976561 c -7.82748,8.84353 -12.589841,20.46192 -12.589841,33.19336 v 42.117194 c 0,12.722 4.755151,24.33296 12.572261,33.17383 l -22.962886,22.99023 z m 60.513677,7.951171 h 42.11718 c 26.644,0 48.21875,21.57775 48.21875,48.21875 v 42.117194 c 0,26.644 -21.57675,48.21875 -48.21875,48.21875 h -42.11718 c -26.642001,0 -48.216802,-21.57475 -48.216802,-48.21875 V 90.537976 c 0,-26.642 21.575801,-48.21875 48.216802,-48.21875 z m 1.69726,7.70899 c -23.656001,0 -42.861331,19.20432 -42.861331,42.86132 v 37.414074 c 0,23.658 19.20533,42.85937 42.861331,42.85937 h 38.69336 c 23.656,0 42.86133,-19.20137 42.86133,-42.85937 V 92.889536 c 0,-23.657 -19.20533,-42.86132 -42.86133,-42.86132 z m 0,1.90429 h 38.69336 c 22.627,0 40.95508,18.32903 40.95508,40.95703 v 37.414074 c 0,22.629 -18.32808,40.95507 -40.95508,40.95507 h -38.69336 c -22.628001,0 -40.957031,-18.32607 -40.957031,-40.95507 V 92.889536 c 0,-22.629 18.32903,-40.95703 40.957031,-40.95703 z m 19.34375,6.81641 c -3.23,0 -5.86328,2.63228 -5.86328,5.86328 v 13.03711 c 0,3.23 2.63228,5.86328 5.86328,5.86328 3.23,0 5.86328,-2.63328 5.86328,-5.86328 v -13.03711 c 0,-3.23 -2.63328,-5.86328 -5.86328,-5.86328 z m 0,1.90625 c 2.201,0 3.95899,1.75703 3.95899,3.95703 v 13.03711 c 0,2.2 -1.75899,3.95898 -3.95899,3.95898 -2.202,0 -3.95703,-1.75898 -3.95703,-3.95898 v -13.03711 c -0.001,-2.2 1.75603,-3.95703 3.95703,-3.95703 z m 107.06641,4.19726 -6.2793,6.2793 1.36914,1.33984 6.25,-6.25 z m -140.58203,11.9043 -1.31055,1.31055 8.1543,12.02539 0.65625,0.95117 0.80273,-0.80273 3.86914,-3.8711 0.80469,-0.80273 -0.95313,-0.65625 z m 67.0332,0 -12.02539,8.1543 -0.95313,0.65625 0.83399,0.80273 3.86914,3.8711 0.80469,0.80273 0.65429,-0.95117 8.15625,-12.02539 z m 158.10937,4.64258 v 0.95312 13.24414 0.95313 h 0.95313 81.46484 0.95313 v -0.95313 -13.24414 -0.95312 h -0.95313 -81.46484 z m 89.22657,0 v 0.95312 13.24414 0.95313 h 0.95312 81.43555 0.95312 v -0.95313 -13.24414 -0.95312 h -0.95312 -81.43555 z m -87.32032,1.90625 h 79.56055 v 11.33789 h -79.56055 z m 89.22461,0 h 79.53125 v 11.33789 h -79.53125 z m -91.13086,15.83398 v 0.953134 81.46484 0.95313 h 0.95313 81.46484 0.95313 v -0.95313 -81.46484 -0.953134 h -0.95313 -81.46484 z m 89.22657,0 v 0.953134 81.46484 0.95313 h 0.95312 81.43555 0.95312 v -0.95313 -81.46484 -0.953134 h -0.95312 -81.43555 z m -87.32032,1.906254 h 79.56055 v 79.5586 h -79.56055 z m 89.22461,0 h 79.53125 v 79.5586 h -79.53125 z m -49.46093,3.66211 c -19.762,0 -35.77735,16.04564 -35.77735,35.80664 0,19.761 16.01835,35.80664 35.77735,35.80664 19.759,0 35.80664,-16.04564 35.80664,-35.80664 0,-19.761 -16.04664,-35.80664 -35.80664,-35.80664 z m 89.22851,0 c -19.762,0 -35.80859,16.04564 -35.80859,35.80664 0,19.761 16.04659,35.80664 35.80859,35.80664 19.76,0 35.80664,-16.04564 35.80664,-35.80664 0,-19.761 -16.04664,-35.80664 -35.80664,-35.80664 z m -369.494141,1.00782 c -3.23,0 -5.86523,2.63228 -5.86523,5.86328 0,3.231 2.63323,5.89453 5.86523,5.89453 h 13.037111 c 3.229,0 5.86328,-2.66253 5.86328,-5.89453 0,-3.229 -2.63228,-5.86328 -5.86328,-5.86328 z m 80.894531,0 c -3.229,0 -5.86328,2.63228 -5.86328,5.86328 0,3.231 2.63328,5.89453 5.86328,5.89453 h 13.06836 c 3.229,0 5.86328,-2.66253 5.86328,-5.89453 0,-3.229 -2.63328,-5.86328 -5.86328,-5.86328 z m 199.3711,0.89648 c 18.73,0 33.90234,15.17034 33.90234,33.90234 0,18.732 -15.17234,33.90235 -33.90234,33.90235 -18.731,0 -33.8711,-15.17135 -33.8711,-33.90235 0,-18.731 15.1401,-33.90234 33.8711,-33.90234 z m 89.22851,0 c 18.73,0 33.90039,15.17034 33.90039,33.90234 0,18.732 -15.17039,33.90235 -33.90039,33.90235 -18.731,0 -33.90234,-15.17135 -33.90234,-33.90235 0,-18.731 15.17134,-33.90234 33.90234,-33.90234 z m -369.492191,1.00586 -0.002,0.002 h 13.037111 c 2.201,0 3.95899,1.75899 3.95899,3.95899 0,2.201 -1.75899,3.98828 -3.95899,3.98828 H 93.701229 c -2.198,-0.01 -3.95508,-1.79124 -3.95508,-3.99024 0,-2.201 1.75703,-3.95898 3.95703,-3.95898 z m 80.892581,0.002 h 13.06836 c 2.2,0 3.95703,1.75999 3.95703,3.95899 0,2.201 -1.75703,3.98828 -3.95703,3.98828 h -13.06836 c -2.2,0 -3.95703,-1.78828 -3.95703,-3.98828 0,-2.2 1.75803,-3.95899 3.95703,-3.95899 z m 199.3711,5.63086 c -15.039,0 -27.23438,12.22567 -27.23438,27.26367 0,15.038 12.19538,27.23438 27.23438,27.23438 15.036,0 27.26367,-12.19638 27.26367,-27.23438 0,-15.038 -12.22667,-27.26367 -27.26367,-27.26367 z m 89.22851,0 c -15.039,0 -27.23437,12.22567 -27.23437,27.26367 0,15.038 12.19537,27.23438 27.23437,27.23438 15.036,0 27.23242,-12.19638 27.23242,-27.23438 0,-15.038 -12.19442,-27.26367 -27.23242,-27.26367 z m -89.22851,1.9043 c 14.008,0 25.35937,11.35137 25.35937,25.35937 0,14.008 -11.35237,25.33008 -25.35937,25.33008 -14.01,0 -25.33008,-11.32108 -25.33008,-25.33008 0,-14.009 11.32108,-25.35937 25.33008,-25.35937 z m 89.22851,0 c 14.008,0 25.32813,11.35137 25.32813,25.35937 0,14.008 -11.32013,25.33008 -25.32813,25.33008 -14.01,0 -25.33008,-11.32108 -25.33008,-25.33008 0,-14.009 11.32008,-25.35937 25.33008,-25.35937 z m -348.53711,16.99219 -0.65429,0.95117 -8.15625,12.02539 1.31054,1.30859 12.02539,-8.15429 0.95313,-0.6543 -0.80469,-0.80469 -3.86914,-3.86914 z m 52.05274,0 -0.80469,0.80273 -3.86914,3.86914 -0.83203,0.80469 0.95312,0.6543 12.02344,8.15429 1.33984,-1.30859 -8.15625,-12.02539 z m -26.04102,7.5039 c -3.23,0 -5.86328,2.66353 -5.86328,5.89453 v 13.03907 c 0,3.229 2.63228,5.86132 5.86328,5.86132 3.23,0 5.86328,-2.63132 5.86328,-5.86132 v -13.03907 c 0,-3.23 -2.63328,-5.89453 -5.86328,-5.89453 z m 0,1.90625 c 2.201,0 3.95899,1.78928 3.95899,3.98828 v 13.03907 c 0,2.2 -1.75799,3.95703 -3.95899,3.95703 -2.202,0 -3.95703,-1.75803 -3.95703,-3.95703 v -13.03907 c -0.001,-2.2 1.75603,-3.98828 3.95703,-3.98828 z m -54.238281,28.62696 c 8.84404,7.8301 20.463771,12.59375 33.197271,12.59375 h 42.11718 c 12.72848,0 24.34474,-4.7599 33.1875,-12.58399 l 22.97071,22.96875 H 63.45128 Z m 156.390631,19.26171 -1.36915,1.33985 6.2793,6.28125 1.33985,-1.36914 z m 7.2539,6.54493 c -0.98525,0.002 -1.8125,0.82977 -1.8125,1.81445 v 20.0918 c 0,0.987 0.83041,1.8164 1.81641,1.8164 h 279.84375 c 2.64,0 4.79101,-2.18326 4.79101,-4.82226 v -17.08594 c 0,-0.985 -0.80015,-1.81445 -1.78515,-1.81445 H 250.08019 Z m 0.0937,1.90429 h 282.64453 v 16.9961 c 0,1.611 -1.27667,2.91601 -2.88867,2.91601 H 250.16808 Z"
   style="fill:#ffffff" />




























</svg>
