<?xml version="1.0" encoding="UTF-8" standalone="no"?>
<!-- Generator: Adobe Illustrator 16.0.3, SVG Export Plug-In . SVG Version: 6.00 Build 0)  -->

<svg
   version="1.1"
   id="Ebene_1"
   x="0px"
   y="0px"
   width="541.67377"
   height="206.69708"
   viewBox="0 -0.002 541.67375 206.69708"
   enable-background="new 0 -0.002 566.929 202.382"
   xml:space="preserve"
   sodipodi:docname="system.svg"
   inkscape:version="1.1.2 (0a00cf5339, 2022-02-04)"
   xmlns:inkscape="http://www.inkscape.org/namespaces/inkscape"
   xmlns:sodipodi="http://sodipodi.sourceforge.net/DTD/sodipodi-0.dtd"
   xmlns="http://www.w3.org/2000/svg"
   xmlns:svg="http://www.w3.org/2000/svg"><defs
   id="defs45">
	
	
	
	
	
	
	
	
	
	
	
	

		
		
	
			
			
			
			
			
			
			
			
			
			
			
			
		</defs><sodipodi:namedview
   id="namedview43"
   pagecolor="#ffffff"
   bordercolor="#666666"
   borderopacity="1.0"
   inkscape:pageshadow="2"
   inkscape:pageopacity="0.0"
   inkscape:pagecheckerboard="0"
   showgrid="false"
   inkscape:zoom="0.92359459"
   inkscape:cx="80.663097"
   inkscape:cy="-49.264039"
   inkscape:window-width="1920"
   inkscape:window-height="996"
   inkscape:window-x="0"
   inkscape:window-y="0"
   inkscape:window-maximized="1"
   inkscape:current-layer="Ebene_1"
   fit-margin-top="0"
   fit-margin-left="0"
   fit-margin-right="0"
   fit-margin-bottom="0" />
<path
   id="path1144"
   d="m 387.66793,0.00941032 c -9.06417,0.2242478 -18.02602,5.44742898 -22.11524,13.63671968 -1.64407,3.389772 -2.53863,7.071758 -3.84856,10.591996 -3.1911,9.375584 -6.38221,18.751169 -9.57331,28.126754 0,-16.967448 0,-33.934896 0,-50.9023447 -16.36138,0.01669 -32.72439,-0.052728 -49.08471,0.057318 -8.37292,0.4215096 -16.44166,4.5299388 -21.85084,10.9114327 0,-3.6562505 0,-7.3125007 0,-10.9687507 -16.70974,0.014309 -33.4207,-0.039829 -50.12967,0.042969 -9.11194,0.4179478 -17.88593,5.177679 -23.29025,12.5117187 -0.0277,-4.1849065 -0.0595,-8.3697851 -0.0879,-12.5546874 -15.80615,0.013848 -31.61333,-0.039289 -47.41881,0.043384 -11.15969,0.4611271 -21.89197,6.6325029 -27.92885,16.0268204 -5.9858,9.134457 -7.44371,21.094414 -3.68505,31.365406 1.97579,5.506868 5.33523,10.511139 9.68115,14.427671 -3.91472,0 -7.82943,0 -11.74414,0 4e-4,13.343099 0.002,26.686199 0.002,40.029293 15.9044,-0.0151 31.81008,0.0494 47.71365,-0.0548 11.6212,-0.5308 22.71836,-7.281018 28.59478,-17.312229 0.3857,-0.651705 0.75843,-1.312128 1.09587,-1.990389 3.23552,7.93388 9.86594,14.43157 17.9408,17.347328 4.18242,1.56049 8.68569,2.11424 13.13224,1.93001 15.32071,0 30.64141,0 45.96211,0 0,-3.735668 0,-7.471348 0,-11.207026 3.50209,4.19235 8.11498,7.452728 13.24805,9.326166 -8.76092,0.32692 -17.46798,4.84384 -22.16445,12.35322 -3.34926,5.1292 -4.32206,11.55869 -3.31797,17.54522 -1.59319,-4.38592 -5.79737,-7.6871 -10.45899,-8.10351 -4.00418,-0.46521 -8.00284,0.81966 -11.46093,2.76757 -0.81576,-0.81575 -1.63151,-1.63151 -2.44727,-2.44726 -7.54365,0.50539 -15.08723,1.01182 -22.63086,1.51758 -4.35943,-1.78888 -9.15017,-2.40689 -13.83738,-2.03219 -3.21519,0.24113 -6.38505,1.09379 -9.28957,2.49312 0.0909,-0.69804 0.0607,-1.27499 -0.8,-1.02148 -4.37917,0 -8.75834,0 -13.1375,0 0,-5.03906 0,-10.07813 0,-15.11719 -6.98763,0 -13.97526,0 -20.96289,0 0,4.49219 0,8.98438 0,13.47656 -2.46875,0 -4.9375,10e-6 -7.40625,0 -0.33462,0.45003 -0.49022,1.32994 -1.20044,0.87875 -6.45866,-1.51587 -13.6192,-1.05456 -19.42456,2.34977 -2.04307,1.23681 -3.88194,2.81591 -5.38477,4.67383 -3.12107,-4.23687 -8.13926,-6.84323 -13.32656,-7.42351 -4.9635,-0.63463 -10.11714,-0.66847 -14.92245,0.89482 -5.194901,1.63837 -10.198401,4.6727 -13.133801,9.37634 -0.0016,-4.85939 0.02,-9.71875 0.03125,-14.57812 3.106732,-0.70595 6.31025,-0.68819 9.47461,-0.875 0,-5.05924 0,-10.11849 0,-15.17773 -11.38802,0 -22.776042,0 -34.164063,0 -0.374618,3.14729 -0.541143,6.34802 -1.538818,9.38174 -1.295432,4.21297 -3.118555,8.23724 -4.649916,12.36577 -2.597245,6.66034 -5.19449,13.32067 -7.791734,19.981 -5.308235,-13.90874 -10.614101,-27.81839 -15.923829,-41.72656 -11.322265,0 -22.64453,0 -33.966796,0 0,5.04036 0,10.08073 0,15.12109 2.6091936,0.27076 5.2590317,0.16465 7.841741,0.65658 1.0801023,0.27183 2.493851,0.57421 2.80121,1.82892 0.567244,2.00672 0.230773,4.12413 0.326303,6.18052 0.0026,11.91138 0.05869,23.82418 -0.0509,35.73463 -0.09858,1.94154 -0.04073,3.95122 -0.726945,5.79857 -0.9775571,0.5967 -2.1991076,0.58083 -3.2930637,0.84133 -2.4383683,0.34612 -4.8955456,0.5361 -7.3436553,0.7993 0,4.972 0,9.94401 0,14.91601 13.40625,0 26.8125,0 40.21875,0 0,-1.41536 0,-2.83073 0,-4.24609 0.387906,1.03821 0.775799,2.07643 1.162109,3.11523 3.5625,0 7.125,0 10.6875,0 1.211281,-3.01952 2.419097,-6.04043 3.628907,-9.06054 0,3.39843 0,6.79687 0,10.19531 13.46289,-4.5e-4 26.92578,-10e-4 40.388673,-0.002 4.813401,1.7475 10.167841,1.52252 15.043021,0.14786 2.25583,-0.69254 4.40401,-1.73092 6.35932,-3.0502 2.93911,2.79372 7.0816,4.01409 11.07964,3.88422 1.97266,-0.004 3.9226,-0.38715 5.83091,-0.83539 1.75963,0 3.51927,0 5.2789,0 -0.0767,-0.82937 0.7966,-0.0285 1.23349,-0.0438 6.08584,1.85354 12.80817,1.51525 18.71198,-0.83143 2.59156,-1.07469 5.00927,-2.59638 7.03696,-4.54078 1.88827,2.803 4.85636,4.79828 8.1343,5.58796 4.13171,1.08684 8.50013,0.82338 12.6609,0.0499 2.99519,-0.66065 5.81152,-1.90391 8.67745,-2.96205 6.51409,3.79586 14.5062,4.75325 21.81882,3.10478 1.14625,-0.23922 2.29173,-0.68144 3.37845,-0.99736 0.91469,0.86548 2.22665,0.38074 3.34101,0.48437 11.1487,0 22.2974,0 33.4461,0 0,-4.89453 0,-9.78906 0,-14.68359 -3.09002,-0.453 -6.22886,-0.4602 -9.30664,-0.9961 -6.5e-4,-8.35481 -0.001,-16.70963 -0.002,-25.06445 2.17355,3.18213 6.04498,4.97092 9.86485,4.84375 3.18023,0.008 6.43112,-1.35246 8.31266,-3.98406 2.20937,-2.89015 3.01926,-6.68378 2.59984,-10.26203 1.20618,4.00375 3.60944,7.59486 6.765,10.3269 4.88379,4.32315 11.14653,6.50007 17.14056,8.78665 2.60166,1.01505 5.27453,1.91027 7.73122,3.24628 2.69405,1.75815 4.00749,5.18599 3.45093,8.31819 -0.17755,1.61954 -1.01658,3.29893 -2.63271,3.88307 -2.05846,0.82297 -4.36269,0.85571 -6.53746,0.59221 -3.23106,-0.41828 -5.99605,-2.467 -7.97211,-4.96956 -2.1261,-2.63904 -3.49376,-5.79537 -4.52942,-8.9982 -0.33713,-1.03644 -0.7241,-2.32394 -1.04458,-3.47078 -0.32595,-1.14832 -0.65187,-2.29665 -0.9769,-3.44523 -4.89779,0 -9.79557,0 -14.69336,0 0.34398,11.97854 0.689,23.95706 1.03516,35.93555 4.40039,0 8.80078,0 13.20117,0 0.34422,-0.5854 0.6885,-1.17075 1.0332,-1.75586 8.12561,3.37563 17.48745,4.26694 25.91016,1.44921 7.63533,-2.56431 14.37918,-8.32057 17.27387,-15.93888 0.29811,-0.76374 0.55021,-1.54465 0.7691,-2.33455 1.66699,4.07791 3.3078,8.16645 4.96093,12.25 -1.13583,2.59859 -2.52622,5.10338 -4.06836,7.46875 -3.24523,-2.78439 -8.06904,-3.80853 -12.04296,-2.05078 -3.13829,1.32119 -5.44248,4.23587 -6.22989,7.52231 -1.05078,3.97823 0.12447,8.51751 3.20321,11.30361 3.68862,3.55027 9.25791,4.5359 14.15565,3.52195 4.4993,-0.95296 8.22474,-4.00666 11.04546,-7.51968 4.21358,-5.17112 6.99769,-11.30209 9.72452,-17.33891 1.62255,-3.64322 3.14294,-7.33068 4.65573,-11.02053 0.14069,4.8444 0.28066,9.68882 0.42188,14.5332 4.60937,0 9.21875,0 13.82812,0 0.0645,-0.87347 0.76064,-0.30304 1.28409,-0.18306 5.44808,1.79622 11.44784,1.72085 16.92595,0.0948 3.43243,-1.04932 6.67517,-2.82348 9.26652,-5.32388 1.91587,2.85169 4.95444,4.8519 8.28907,5.62695 4.04054,1.02228 8.29721,0.77709 12.3612,0.0326 3.04137,-0.65753 5.9134,-1.88605 8.80481,-3.00325 6.40535,3.75779 14.25995,4.7265 21.48009,3.20335 1.25278,-0.28207 2.48637,-0.64885 3.68593,-1.10765 0.91162,0.90691 2.25258,0.41924 3.38203,0.51951 30.34336,-6.3e-4 60.68672,-0.001 91.03008,-0.002 0,-4.91667 0,-9.83333 0,-14.75 -2.43852,-0.33148 -4.91595,-0.29921 -7.33985,-0.72851 -0.0452,-8.86128 0.0901,-17.72545 -0.0892,-26.58479 -0.29503,-5.30508 -1.94036,-10.80588 -5.81828,-14.60972 -3.9233,-3.9705 -9.73771,-5.60168 -15.21326,-5.16414 -5.11305,0.27927 -10.09395,2.2933 -14.0238,5.56568 -3.60775,-3.5492 -8.61095,-5.66538 -13.68799,-5.60207 -4.36544,-0.0742 -8.77636,0.97354 -12.55615,3.18214 -0.87499,-0.87566 -1.74953,-1.75176 -2.625,-2.62695 -7.53319,0.50278 -15.06641,1.00518 -22.59961,1.50781 -5.38816,-2.20718 -11.4505,-2.66348 -17.15076,-1.54456 -2.0442,0.42752 -4.03505,1.10755 -5.9176,2.01136 0.0915,-0.69801 0.0598,-1.27283 -0.8,-1.01953 -4.37916,0 -8.75833,0 -13.1375,0 0,-5.03906 0,-10.07813 0,-15.11719 -6.98893,0 -13.97786,0 -20.96679,0 0,4.49219 0,8.98438 0,13.47656 -2.4694,0 -4.93881,1e-5 -7.40821,0 -0.33205,0.45068 -0.48296,1.33823 -1.19331,0.8775 -5.10363,-1.1982 -10.56302,-1.14636 -15.54692,0.56 -14.06987,0.002 -28.13403,-0.003 -42.20313,-0.002 -0.11961,-6.99544 -0.2408,-13.99086 -0.35937,-20.98633 39.71159,-0.002 79.42318,-0.002 119.13477,-0.002 C 432.30098,74.039672 422.47828,44.788998 412.56349,15.571224 409.13352,6.9155447 400.40155,0.88055002 391.20019,0.12260172 c -1.17308,-0.1171621 -2.3541,-0.1431054 -3.53226,-0.1131914 z M 273.85543,41.409801 c 10e-4,7.304037 0.003,14.608073 0.004,21.91211 -0.49427,-0.123834 -1.49055,0.254347 -1.6543,-0.2 0,-7.23737 0,-14.47474 0,-21.71211 0.55013,0 1.10026,0 1.65039,0 z m -72.16016,0.002 c -6.5e-4,2.158855 -0.001,4.317709 -0.002,6.476563 -1.62259,-2.381067 -3.53928,-4.562451 -5.69336,-6.476563 1.89844,1e-6 3.79687,0 5.69531,0 z m 105.99414,61.863279 c 0.63802,0 1.27604,0 1.91407,0 -0.34131,0.44096 -0.51841,1.40393 -1.18507,0.8092 -0.61426,-0.27756 -1.40167,-0.572 -1.94189,-0.79357 0.40431,-0.004 0.80859,-0.0113 1.21289,-0.0156 z m -12.36133,14.38282 c 2.60051,-0.0703 5.1918,1.07381 6.8313,3.10581 2.48425,2.8313 3.61985,6.51953 4.74306,10.03753 0.17006,1.08383 0.006,2.1821 0.0545,3.27267 -4.76081,-2.10828 -9.87603,-3.46221 -14.35351,-6.17578 -1.59463,-1.06114 -2.81259,-2.77821 -2.90476,-4.73402 -0.22573,-1.51328 0.10621,-3.24365 1.41269,-4.19065 1.14835,-0.98752 2.71644,-1.43784 4.21667,-1.31556 z m -185.29882,20.82417 c 0.96885,-0.0276 1.86329,0.51599 2.25751,1.40685 0.64377,1.21665 0.71539,2.62725 0.71124,3.97596 -1.40578,0.53989 -2.82418,1.04681 -4.25,1.53125 1.05975,-2.14032 1.11258,-4.60077 0.70898,-6.91211 0.19036,-0.0157 0.38167,-0.008 0.57227,-0.002 z m 100.66601,0.0977 c 1.55594,0.0603 2.35659,1.59432 2.76125,2.90108 0.0108,0.39497 0.59025,1.31636 0.15008,1.40552 -2.84479,-6.4e-4 -5.68958,-0.001 -8.53437,-0.002 0.81053,-2.07416 2.48887,-4.24782 4.91211,-4.29297 0.2371,-0.002 0.47388,-0.0264 0.71093,-0.0117 z m 226.17969,0.0176 c 1.67483,0.23917 2.34585,2.0458 2.72429,3.47137 0.43539,0.82324 -0.0745,0.93233 -0.81804,0.81747 -2.57747,-5.8e-4 -5.15495,-0.001 -7.73242,-0.002 0.81003,-2.07583 2.49207,-4.25675 4.92045,-4.28929 0.30144,-0.005 0.60469,-0.0159 0.90572,0.002 z m -94.13086,0.28125 c 1.29841,0.18361 2.61033,0.29147 3.89258,0.57422 -1.46229,3.89919 -3.01292,7.76565 -4.60156,11.61523 -1.58615,-3.83151 -3.18654,-7.6585 -4.73047,-11.50781 1.27467,-0.0915 2.5494,-0.18209 3.82422,-0.27148 -0.2918,-0.93837 0.64161,-0.48279 1.19008,-0.46517 0.14171,0.0183 0.28343,0.0367 0.42515,0.055 z m -194.18555,-0.20117 c 2.96022,0.0318 5.27573,2.573 6.08239,5.25686 0.20954,0.56477 -0.85454,-0.14657 -1.239,-0.17303 -2.49959,-0.87191 -5.09046,-1.59447 -7.39417,-2.92563 -0.76599,-0.37424 -0.68798,-1.71495 0.21207,-1.87874 0.74189,-0.28272 1.5559,-0.28633 2.33871,-0.27946 z m 225.97071,0 c 2.92222,0.025 5.22535,2.50591 6.04937,5.14997 0.37401,0.75116 -0.81131,-0.0497 -1.20352,-0.0659 -2.60656,-0.89601 -5.32946,-1.65936 -7.67788,-3.12899 -0.42661,-0.56839 -0.26846,-1.52525 0.50976,-1.67969 0.73954,-0.27542 1.54354,-0.28078 2.32227,-0.27539 z m 106.86914,2.14453 c 1.37805,0.41576 1.66717,2.06859 1.79765,3.31057 0.20982,2.73535 0.005,5.48304 0.0775,8.2238 0.004,5.70989 0.0334,11.41997 -0.0236,17.12969 -1.4369,0.12053 -2.88444,0.28665 -4.31964,0.31441 -1.37723,-0.15647 -2.78616,-0.11694 -4.13348,-0.48042 -0.0228,-8.42601 -0.003,-16.85294 -0.01,-25.2793 1.49016,-2.08054 4.04148,-3.38152 6.61133,-3.21875 z m 29.57812,-0.006 c 1.22678,0.12969 1.70809,1.55727 1.87305,2.60742 0.35969,2.66145 0.078,5.35483 0.17431,8.03047 -0.005,6.00677 0.0256,12.01374 -0.0337,18.02031 -1.45225,0.11275 -2.90249,0.267 -4.38862,0.30309 -1.33832,-0.12652 -2.6966,-0.0975 -4.01567,-0.38512 -0.0175,-8.51272 -0.003,-17.02608 -0.008,-25.53906 1.50792,-1.9259 3.93487,-3.15098 6.39844,-3.03711 z M 89.132773,147.3316 c 1.14956,1.74637 2.816236,3.17057 4.804688,3.86133 -1.855624,1.12031 -3.578361,2.49213 -4.964844,4.16602 0,-2.75977 0,-5.51953 0,-8.2793 0.05339,0.084 0.106771,0.16797 0.160156,0.25195 z m -22.548828,5.9668 c -0.0014,5.18947 -0.0085,10.37892 -0.02539,15.56836 -2.913535,0.42366 -5.860648,0.50413 -8.798828,0.61524 2.941406,-7.34701 5.882812,-14.69402 8.824218,-22.04102 0,1.95247 0,3.90495 0,5.85742 z m -30.515626,16.16609 c -2.242525,-0.11971 -4.397744,-0.79218 -6.515625,-1.48242 -0.576935,-0.40206 -0.622501,-1.26027 -0.83382,-1.89654 -0.63091,-3.59691 -0.452851,-7.27276 -0.517311,-10.90932 -0.0042,-2.25417 -0.0056,-4.50834 0.0035,-6.7625 2.621094,7.01692 5.242188,14.03385 7.863281,21.05078 z M 357.12496,156.07581 c -0.44852,0.16669 -0.20793,-0.47369 0,0 z m -132.62109,2.94727 c -1.78835,2.87278 -3.12037,6.18019 -5.80262,8.36926 -2.37738,1.66672 -5.55632,1.53827 -8.22969,0.74968 -2.8497,-0.98839 -4.65477,-3.73625 -5.43805,-6.53278 -0.2665,-0.8466 -0.46767,-1.71303 -0.62535,-2.58616 6.69857,0 13.39714,0 20.09571,0 z m 225.97656,0 c -1.77964,2.86842 -3.11527,6.16138 -5.78304,8.35173 -2.37831,1.68146 -5.57153,1.56171 -8.25307,0.7669 -2.86516,-0.99595 -4.66807,-3.7695 -5.45523,-6.5795 -0.26271,-0.83066 -0.45196,-1.6826 -0.60827,-2.53913 6.69987,0 13.39974,0 20.09961,0 z m -337.64063,7.53125 c -1.49442,1.43355 -3.68305,2.57891 -5.77734,1.90039 -0.54531,-0.19223 -0.35807,-0.92499 -0.48242,-1.36914 -0.15572,-1.68079 0.65515,-3.34659 2.04178,-4.2989 1.29081,-1.05318 2.79338,-1.80921 4.32736,-2.43938 -0.0365,2.06901 -0.0729,4.13802 -0.10938,6.20703 z m 27.72071,-4.45117 c 3.74184,1.50381 7.71793,2.39906 11.36189,4.14393 0.72896,0.39218 1.63235,0.98349 1.44475,1.94591 0.0263,0.74978 -0.29545,1.5973 -1.12862,1.72076 -2.62591,0.91695 -5.73556,0.29433 -7.75192,-1.64468 -1.93472,-1.6442 -3.28917,-3.88159 -4.1429,-6.25381 0.0723,0.0293 0.14453,0.0586 0.2168,0.0879 z m 226.14648,0.0684 c 2.90411,1.13404 6.13373,2.03806 8.91016,3.08789 1.277,0.569 2.85722,0.93463 3.65234,2.17969 0.18794,0.88944 0.0945,2.24174 -1.00832,2.45814 -2.59449,0.93092 -5.6548,0.32537 -7.70208,-1.52552 -1.9587,-1.67614 -3.37457,-3.93401 -4.23101,-6.35255 0.12631,0.0508 0.25261,0.10157 0.37891,0.15235 z" /><path
   fill="#17569b"
   d="m 132.59496,97.354192 h 39.796 c 16.265,0 29.501,-13.238 29.501,-29.5 0,-16.261 -13.236,-29.42 -29.501,-29.42 h -10.376 c -0.817,0 -1.474,-0.652 -1.474,-1.471 0,-0.898 0.654,-1.551 1.474,-1.551 h 39.716 l 0.082,-12.423 h -39.798 c -7.683,0 -13.894,6.212 -13.894,13.894 0,7.764 6.209,14.056 13.894,14.056 h 10.376 c 9.316,0 16.918,7.602 16.918,16.917 0,9.317 -7.602,16.834 -16.918,16.834 h -39.796 z"
   id="path2" /><path
   fill="#17569b"
   d="m 132.59496,81.828192 h 39.796 c 7.765,0 13.977,-6.292 13.977,-13.974 0,-7.682 -6.211,-13.974 -13.977,-13.974 h -10.376 c -9.315,0 -16.835,-7.682 -16.835,-16.998 0,-9.317 7.521,-16.834 16.835,-16.834 h 39.796 l -0.082,-12.5850005 h -39.718 c -16.261,0 -29.418,13.1560005 -29.418,29.5000005 0,16.262 13.156,29.42 29.418,29.42 h 10.297 c 0.816,0 1.472,0.654 1.472,1.471 0,0.817 -0.655,1.471 -1.472,1.471 h -39.716 z"
   id="path4" /><path
   fill="#17569b"
   d="m 232.70096,84.769192 c -6.862,0 -12.5,-5.475 -12.5,-12.503 v -39.962 c 0,-6.7 5.639,-12.339 12.5,-12.339 h 42.495 V 7.4631915 h -42.495 c -13.809,0 -25.005,11.1960005 -25.005,25.0070005 v 39.796 c 0,13.812 11.194,25.008 25.005,25.008 h 42.333 v -12.503 z"
   id="path6" /><path
   fill="#17569b"
   d="m 223.22196,32.468192 c 0,-5.23 4.249,-9.562 9.479,-9.562 h 42.495 v 12.504 h -36.609 c -2.944,0 -2.944,2.94 -2.944,2.94 h 30.563 v 12.504 h -42.984 z"
   id="path8" /><path
   fill="#17569b"
   d="m 232.70096,81.748192 c -5.229,0 -9.479,-4.25 -9.479,-9.48 v -18.39 h 42.983 v 12.502 h -30.562 c 0,2.942 2.941,2.942 2.941,2.942 h 36.447 v 12.423 z"
   id="path10" /><path
   fill="#17569b"
   d="m 305.02396,84.769192 c -6.946,0 -12.586,-5.64 -12.586,-12.503 v -39.796 c 0,-6.866 5.642,-12.505 12.506,-12.505 h 41.188 V 7.4631915 h -41.271 c -13.811,0 -25.005,11.1960005 -25.005,25.0070005 v 39.796 c 0,13.812 11.274,25.008 25.088,25.008 h 41.188 v -58.92 h -35.387 v 12.502 h 22.883 v 33.914 z"
   id="path12" /><path
   fill="#17569b"
   d="m 295.37796,72.266192 c 0,5.23 4.334,9.563 9.563,9.563 h 25.741 v -28.031 h -19.938 v 12.585 h 7.437 v 2.942 h -7.353 c -1.637,0 -2.943,-1.387 -2.943,-2.942 v -28.031 c 0,0 0,-2.943 2.943,-2.943 h 35.301 v -12.504 h -41.187 c -5.229,0 -9.563,4.332 -9.563,9.563 z"
   id="path14" /><path
   fill="#17569b"
   d="m 384.78296,22.746192 c 0.57,-1.634 2.043,-2.778 3.842,-2.778 1.797,0 3.271,1.146 3.844,2.778 l 19.938,59.166 h -29.171 v -13.894 h 9.808 l -4.414,-13.159 -14.385,42.414 h -14.709 z"
   id="path16" /><path
   fill="#17569b"
   d="m 416.49196,84.769192 h -33.261 v 12.503 h 50.585 l -26.313,-78.042 c -2.291,-7.6 -9.891,-13.2390005 -18.881,-13.2390005 -8.986,0 -16.586,5.5580005 -18.877,13.2390005 l -26.563,78.042 h 13.241 l 25.738,-75.917 c 1.063,-2.534 3.514,-4.25 6.455,-4.25 2.862,0 5.316,1.716 6.377,4.25 z"
   id="path18" /><g
   id="flowRoot6696"
   transform="translate(-61.069848,990.17924)">
			<path
   id="path6717"
   fill="#ff0000"
   d="m 153.646,-811.351 h -30.878 v -3.498 c 1.118,-0.029 2.554,-0.146 4.31,-0.347 1.758,-0.194 2.963,-0.472 3.621,-0.838 1.019,-0.62 1.767,-1.333 2.241,-2.142 0.477,-0.805 0.713,-1.813 0.713,-3.029 v -50.821 h -0.738 l -23.836,59.54 h -2.461 l -22.704,-60.77 h -0.64 v 41.712 c 0,4.036 0.255,7.108 0.763,9.208 0.51,2.102 1.289,3.611 2.341,4.527 0.723,0.688 2.214,1.352 4.479,1.976 2.265,0.624 3.744,0.953 4.433,0.981 v 3.496 H 67.07 v -3.496 c 1.479,-0.129 3.028,-0.375 4.653,-0.735 1.625,-0.361 2.88,-0.901 3.768,-1.625 1.15,-0.915 1.938,-2.33 2.364,-4.236 0.429,-1.899 0.64,-5.088 0.64,-9.554 v -35.756 c 0,-2.067 -0.245,-3.757 -0.738,-5.069 -0.491,-1.312 -1.198,-2.379 -2.117,-3.201 -1.018,-0.887 -2.265,-1.542 -3.743,-1.972 -1.478,-0.424 -2.938,-0.668 -4.382,-0.738 v -3.495 h 23.836 l 19.993,52.399 17.091,-43.831 c 0.623,-1.604 1.157,-3.288 1.601,-5.048 0.443,-1.757 0.683,-2.932 0.714,-3.521 h 22.801 v 3.496 c -0.919,0.034 -2.094,0.183 -3.521,0.444 -1.428,0.266 -2.471,0.512 -3.127,0.737 -1.115,0.393 -1.872,1.055 -2.267,1.972 -0.395,0.919 -0.591,1.919 -0.591,3.003 v 50.379 c 0,1.15 0.196,2.117 0.591,2.906 0.395,0.785 1.149,1.479 2.267,2.064 0.592,0.334 1.643,0.637 3.153,0.914 1.509,0.275 2.708,0.437 3.594,0.465 v 3.5 h -0.004 z" />
			<path
   id="path6719"
   fill="#ff0000"
   d="m 197.354,-812.24 c -1.542,0.563 -2.895,1.01 -4.062,1.356 -1.167,0.345 -2.487,0.516 -3.965,0.516 -2.563,0 -4.604,-0.596 -6.132,-1.796 -1.526,-1.197 -2.503,-2.943 -2.93,-5.244 h -0.296 c -2.134,2.361 -4.424,4.172 -6.871,5.416 -2.446,1.252 -5.393,1.871 -8.84,1.871 -3.645,0 -6.64,-1.109 -8.987,-3.35 -2.348,-2.229 -3.52,-5.151 -3.52,-8.765 0,-1.872 0.262,-3.549 0.788,-5.024 0.526,-1.479 1.314,-2.807 2.363,-3.988 0.822,-0.98 1.905,-1.857 3.25,-2.634 1.348,-0.769 2.61,-1.382 3.792,-1.847 1.48,-0.557 4.475,-1.593 8.988,-3.104 4.515,-1.505 7.559,-2.687 9.135,-3.544 v -4.874 c 0,-0.427 -0.089,-1.248 -0.271,-2.462 -0.182,-1.214 -0.566,-2.365 -1.158,-3.449 -0.657,-1.21 -1.583,-2.271 -2.783,-3.175 -1.197,-0.9 -2.896,-1.354 -5.096,-1.354 -1.512,0 -2.914,0.255 -4.211,0.762 -1.297,0.514 -2.208,1.044 -2.732,1.602 0,0.66 0.156,1.625 0.468,2.905 0.313,1.278 0.468,2.462 0.468,3.545 0,1.15 -0.518,2.2 -1.553,3.15 -1.033,0.959 -2.47,1.428 -4.308,1.428 -1.641,0 -2.848,-0.578 -3.621,-1.747 -0.77,-1.161 -1.156,-2.468 -1.156,-3.915 0,-1.509 0.533,-2.955 1.601,-4.335 1.067,-1.378 2.454,-2.608 4.163,-3.691 1.478,-0.915 3.267,-1.701 5.367,-2.34 2.103,-0.642 4.153,-0.961 6.156,-0.961 2.758,0 5.161,0.19 7.215,0.565 2.053,0.381 3.915,1.191 5.59,2.439 1.673,1.217 2.946,2.866 3.816,4.948 0.87,2.088 1.305,4.77 1.305,8.053 0,4.695 -0.051,8.857 -0.147,12.482 -0.1,3.63 -0.146,7.595 -0.146,11.896 0,1.279 0.221,2.3 0.664,3.056 0.443,0.758 1.125,1.396 2.045,1.918 0.492,0.298 1.271,0.461 2.34,0.492 1.066,0.034 2.157,0.053 3.273,0.053 v 3.146 z m -17.186,-26.003 c -2.792,0.823 -5.236,1.623 -7.338,2.413 -2.103,0.787 -4.055,1.771 -5.859,2.955 -1.643,1.117 -2.939,2.438 -3.893,3.962 -0.949,1.526 -1.428,3.347 -1.428,5.442 0,2.729 0.714,4.728 2.143,6.009 1.429,1.278 3.24,1.921 5.441,1.921 2.331,0 4.383,-0.568 6.156,-1.7 1.772,-1.134 3.268,-2.466 4.481,-4.015 z" />
			<path
   id="path6721"
   fill="#ff0000"
   d="m 223.777,-835.139 c 1.346,1.182 2.381,2.546 3.104,4.084 0.723,1.547 1.083,3.435 1.083,5.664 0,4.502 -1.685,8.177 -5.046,11.033 -3.366,2.854 -7.727,4.285 -13.076,4.285 -2.825,0 -5.427,-0.512 -7.807,-1.529 -2.382,-1.017 -4.081,-1.95 -5.098,-2.807 l -0.984,3.202 h -3.693 l -0.492,-16.896 h 3.397 c 0.263,1.279 0.82,2.778 1.674,4.479 0.854,1.708 1.888,3.249 3.104,4.629 1.28,1.448 2.814,2.66 4.604,3.646 1.789,0.982 3.801,1.48 6.033,1.48 3.151,0 5.582,-0.715 7.29,-2.146 1.706,-1.426 2.562,-3.471 2.562,-6.133 0,-1.379 -0.27,-2.563 -0.813,-3.566 -0.542,-1 -1.339,-1.876 -2.389,-2.637 -1.083,-0.756 -2.413,-1.433 -3.989,-2.043 -1.576,-0.606 -3.332,-1.207 -5.27,-1.799 -1.545,-0.459 -3.259,-1.088 -5.146,-1.896 -1.889,-0.806 -3.505,-1.752 -4.852,-2.833 -1.444,-1.146 -2.626,-2.563 -3.546,-4.235 -0.919,-1.673 -1.38,-3.644 -1.38,-5.909 0,-3.973 1.479,-7.336 4.433,-10.097 2.956,-2.758 6.912,-4.138 11.87,-4.138 1.901,0 3.849,0.246 5.836,0.735 1.984,0.497 3.602,1.085 4.851,1.773 l 1.133,-2.56 h 3.545 l 0.738,15.608 h -3.397 c -0.689,-3.479 -2.176,-6.309 -4.458,-8.496 -2.283,-2.181 -5.065,-3.273 -8.35,-3.273 -2.69,0 -4.811,0.676 -6.353,2.021 -1.543,1.351 -2.314,2.975 -2.314,4.876 0,1.479 0.253,2.709 0.763,3.693 0.51,0.986 1.271,1.82 2.291,2.513 0.983,0.659 2.223,1.275 3.718,1.847 1.494,0.574 3.34,1.228 5.542,1.945 2.167,0.688 4.211,1.497 6.131,2.412 1.92,0.934 3.502,1.955 4.751,3.068 z" />
			<path
   id="path6723"
   fill="#ff0000"
   d="m 254.78,-813.473 c -2.135,0.889 -4.153,1.637 -6.058,2.242 -1.904,0.61 -4.236,0.91 -6.993,0.91 -4.072,0 -6.937,-1.021 -8.594,-3.076 -1.659,-2.051 -2.488,-4.951 -2.488,-8.69 v -32.896 h -8.767 v -4.73 h 8.964 v -15.118 h 8.963 v 15.118 h 13.937 v 4.73 h -13.838 v 27.133 c 0,2.039 0.073,3.738 0.222,5.101 0.147,1.362 0.5,2.558 1.058,3.569 0.525,0.953 1.314,1.676 2.364,2.166 1.05,0.492 2.462,0.738 4.234,0.738 0.82,0 2.026,-0.074 3.621,-0.226 1.593,-0.146 2.716,-0.332 3.374,-0.565 z" />
			<path
   id="path6725"
   fill="#ff0000"
   d="m 292.331,-822.777 c -2.035,3.875 -4.76,6.961 -8.175,9.258 -3.414,2.299 -7.338,3.444 -11.77,3.444 -3.906,0 -7.329,-0.688 -10.27,-2.067 -2.937,-1.377 -5.358,-3.252 -7.264,-5.613 -1.903,-2.362 -3.324,-5.119 -4.26,-8.271 -0.937,-3.154 -1.403,-6.479 -1.403,-9.996 0,-3.151 0.501,-6.246 1.502,-9.285 1.002,-3.032 2.471,-5.768 4.408,-8.198 1.872,-2.327 4.194,-4.209 6.968,-5.64 2.775,-1.429 5.887,-2.142 9.334,-2.142 3.545,0 6.582,0.562 9.109,1.674 2.529,1.118 4.58,2.644 6.156,4.578 1.511,1.844 2.635,4.012 3.374,6.504 0.737,2.494 1.108,5.205 1.108,8.123 v 3.251 h -32.157 c 0,3.188 0.303,6.076 0.909,8.67 0.609,2.595 1.568,4.875 2.882,6.847 1.278,1.905 2.953,3.406 5.022,4.506 2.067,1.104 4.53,1.646 7.387,1.646 2.922,0 5.441,-0.68 7.559,-2.047 2.12,-1.354 4.163,-3.813 6.132,-7.357 z m -10.884,-18.517 c 0,-1.839 -0.155,-3.808 -0.467,-5.909 -0.313,-2.102 -0.813,-3.857 -1.502,-5.271 -0.754,-1.507 -1.789,-2.734 -3.104,-3.693 -1.312,-0.949 -3.005,-1.427 -5.071,-1.427 -3.449,0 -6.313,1.436 -8.595,4.311 -2.28,2.873 -3.52,6.868 -3.717,11.988 z" />
			<path
   id="path6727"
   fill="#ff0000"
   d="m 324.761,-853.657 c 0,1.673 -0.411,3.16 -1.23,4.457 -0.82,1.3 -2.083,1.944 -3.79,1.944 -1.841,0 -3.243,-0.477 -4.214,-1.43 -0.967,-0.949 -1.452,-2.001 -1.452,-3.149 0,-0.723 0.057,-1.379 0.172,-1.971 0.114,-0.594 0.221,-1.185 0.319,-1.773 -1.542,0 -3.35,0.623 -5.417,1.871 -2.068,1.25 -3.824,3.021 -5.271,5.317 v 28.268 c 0,1.154 0.224,2.088 0.666,2.811 0.442,0.725 1.141,1.265 2.092,1.625 0.822,0.33 1.881,0.574 3.176,0.734 1.299,0.17 2.422,0.281 3.376,0.348 v 3.25 h -25.61 v -3.25 c 0.756,-0.065 1.536,-0.127 2.339,-0.195 0.805,-0.063 1.502,-0.194 2.094,-0.397 0.918,-0.295 1.601,-0.812 2.043,-1.549 0.443,-0.738 0.664,-1.699 0.664,-2.879 v -29.992 c 0,-1.017 -0.238,-2.021 -0.713,-3.004 -0.476,-0.986 -1.143,-1.772 -1.996,-2.364 -0.622,-0.396 -1.359,-0.678 -2.215,-0.862 -0.854,-0.177 -1.773,-0.3 -2.758,-0.367 v -3.202 l 16.152,-1.084 0.689,0.689 v 6.846 h 0.246 c 2.038,-2.661 4.304,-4.679 6.797,-6.057 2.496,-1.381 4.777,-2.069 6.845,-2.069 2.069,0 3.752,0.675 5.049,2.021 1.3,1.344 1.947,3.148 1.947,5.413 z" />
			<path
   id="path6729"
   fill="#ff0000"
   d="m 377.213,-843.412 c 1.476,1.646 2.565,3.441 3.271,5.395 0.709,1.955 1.063,4.229 1.063,6.819 0,6.177 -2.286,11.267 -6.848,15.269 -4.563,4.008 -10.226,6.006 -16.989,6.006 -3.12,0 -6.236,-0.479 -9.356,-1.45 -3.119,-0.966 -5.812,-2.144 -8.077,-3.521 l -2.117,3.597 h -3.938 l -0.689,-23.935 h 3.988 c 0.821,2.953 1.782,5.625 2.882,8.002 1.102,2.385 2.554,4.604 4.359,6.674 1.707,1.939 3.701,3.48 5.981,4.629 2.283,1.151 4.934,1.723 7.951,1.723 2.267,0 4.242,-0.294 5.936,-0.886 1.691,-0.593 3.064,-1.433 4.112,-2.513 1.05,-1.084 1.827,-2.354 2.34,-3.815 0.511,-1.458 0.765,-3.144 0.765,-5.05 0,-2.784 -0.787,-5.392 -2.361,-7.807 -1.575,-2.414 -3.922,-4.242 -7.045,-5.49 -2.135,-0.854 -4.58,-1.799 -7.338,-2.832 -2.756,-1.033 -5.138,-2.01 -7.14,-2.933 -3.938,-1.771 -7.002,-4.094 -9.186,-6.968 -2.184,-2.871 -3.273,-6.626 -3.273,-11.256 0,-2.655 0.542,-5.135 1.624,-7.436 1.084,-2.296 2.625,-4.352 4.629,-6.156 1.904,-1.704 4.154,-3.045 6.747,-4.014 2.593,-0.968 5.304,-1.452 8.125,-1.452 3.218,0 6.099,0.49 8.644,1.479 2.543,0.982 4.869,2.136 6.967,3.443 l 2.021,-3.349 h 3.94 l 0.396,23.195 h -3.988 c -0.719,-2.659 -1.533,-5.199 -2.438,-7.636 -0.901,-2.427 -2.073,-4.629 -3.521,-6.598 -1.41,-1.901 -3.135,-3.426 -5.168,-4.559 -2.037,-1.13 -4.533,-1.699 -7.485,-1.699 -3.117,0 -5.778,1.005 -7.979,3.003 -2.2,2.008 -3.3,4.452 -3.3,7.338 0,3.023 0.705,5.525 2.118,7.512 1.411,1.987 3.465,3.619 6.155,4.898 2.397,1.15 4.751,2.142 7.063,2.976 2.315,0.84 4.557,1.737 6.723,2.687 1.973,0.854 3.865,1.823 5.688,2.908 1.815,1.094 3.399,2.357 4.748,3.802 z" />
			<path
   id="path6731"
   fill="#ff0000"
   d="m 374.825,-795.494 c 0,-1.641 0.447,-2.979 1.354,-4.016 0.9,-1.035 2.023,-1.551 3.373,-1.551 1.049,0 1.951,0.192 2.709,0.592 0.754,0.396 1.428,0.906 2.02,1.524 0.492,0.49 1.021,1.167 1.576,2.019 0.559,0.857 1.002,1.564 1.328,2.119 1.645,-0.887 3.604,-3.203 5.889,-6.942 2.277,-3.745 3.936,-7.022 4.947,-9.853 -3.123,-7.778 -5.941,-14.737 -8.471,-20.881 -2.529,-6.139 -5.172,-12.49 -7.928,-19.061 -0.623,-1.506 -1.676,-2.685 -3.152,-3.522 -1.477,-0.838 -2.955,-1.369 -4.434,-1.602 v -3.25 H 396.2 v 3.447 c -0.988,0.034 -2.168,0.241 -3.547,0.615 -1.379,0.38 -2.068,0.813 -2.068,1.305 0,0.196 0.073,0.527 0.223,0.985 0.147,0.461 0.317,0.938 0.519,1.427 1.247,3.251 3.147,7.941 5.712,14.062 2.564,6.128 4.548,11.023 5.958,14.702 1.479,-3.515 3.015,-7.147 4.604,-10.907 1.594,-3.76 3.379,-8.199 5.346,-13.322 0.23,-0.621 0.563,-1.481 0.982,-2.583 0.426,-1.101 0.643,-2.045 0.643,-2.832 0,-0.852 -0.744,-1.65 -2.24,-2.39 -1.496,-0.736 -2.913,-1.19 -4.262,-1.356 v -3.151 h 18.025 v 3.057 c -0.986,0.167 -2.287,0.731 -3.892,1.697 -1.61,0.972 -2.81,2.341 -3.597,4.112 -3.908,9.063 -7.385,17.319 -10.416,24.772 -3.039,7.454 -5.344,12.937 -6.918,16.446 -2.07,4.603 -3.916,8.185 -5.541,10.763 -1.625,2.58 -3.213,4.604 -4.754,6.08 -1.512,1.381 -2.881,2.311 -4.109,2.785 -1.228,0.474 -2.508,0.714 -3.813,0.714 -2.563,0 -4.574,-0.606 -6.035,-1.819 -1.466,-1.21 -2.195,-2.61 -2.195,-4.185 z" />
			<path
   id="path6733"
   fill="#ff0000"
   d="m 449.757,-835.139 c 1.342,1.182 2.379,2.546 3.102,4.084 0.723,1.547 1.082,3.435 1.082,5.664 0,4.502 -1.684,8.177 -5.045,11.033 -3.369,2.854 -7.726,4.285 -13.078,4.285 -2.82,0 -5.428,-0.512 -7.803,-1.529 -2.384,-1.017 -4.082,-1.95 -5.1,-2.807 l -0.986,3.202 h -3.693 l -0.491,-16.896 h 3.397 c 0.26,1.279 0.817,2.778 1.676,4.479 0.854,1.708 1.886,3.249 3.104,4.629 1.278,1.448 2.812,2.66 4.604,3.646 1.787,0.982 3.798,1.48 6.031,1.48 3.15,0 5.582,-0.715 7.289,-2.146 1.703,-1.426 2.561,-3.471 2.561,-6.133 0,-1.379 -0.271,-2.563 -0.813,-3.566 -0.543,-1 -1.34,-1.876 -2.392,-2.637 -1.08,-0.756 -2.411,-1.433 -3.985,-2.043 -1.576,-0.606 -3.334,-1.207 -5.272,-1.799 -1.546,-0.459 -3.261,-1.088 -5.146,-1.896 -1.892,-0.806 -3.504,-1.752 -4.851,-2.833 -1.442,-1.146 -2.629,-2.563 -3.548,-4.235 -0.922,-1.673 -1.379,-3.644 -1.379,-5.909 0,-3.973 1.48,-7.336 4.436,-10.097 2.956,-2.758 6.906,-4.138 11.867,-4.138 1.902,0 3.852,0.246 5.834,0.735 1.984,0.497 3.605,1.085 4.854,1.773 l 1.135,-2.56 h 3.543 l 0.738,15.608 h -3.397 c -0.688,-3.479 -2.177,-6.309 -4.452,-8.496 -2.287,-2.181 -5.064,-3.273 -8.352,-3.273 -2.692,0 -4.813,0.676 -6.354,2.021 -1.544,1.351 -2.313,2.975 -2.313,4.876 0,1.479 0.252,2.709 0.763,3.693 0.51,0.986 1.272,1.82 2.29,2.513 0.986,0.659 2.229,1.275 3.722,1.847 1.488,0.574 3.339,1.228 5.539,1.945 2.171,0.688 4.212,1.497 6.134,2.412 1.914,0.934 3.499,1.955 4.749,3.068 z" />
			<path
   id="path6735"
   fill="#ff0000"
   d="m 480.756,-813.473 c -2.132,0.889 -4.151,1.637 -6.06,2.242 -1.901,0.61 -4.23,0.91 -6.989,0.91 -4.071,0 -6.937,-1.021 -8.595,-3.076 -1.658,-2.051 -2.487,-4.951 -2.487,-8.69 v -32.896 h -8.765 v -4.73 h 8.959 v -15.118 h 8.966 v 15.118 h 13.937 v 4.73 h -13.84 v 27.133 c 0,2.039 0.075,3.738 0.223,5.101 0.148,1.363 0.502,2.558 1.064,3.569 0.521,0.953 1.313,1.676 2.357,2.166 1.051,0.492 2.463,0.738 4.234,0.738 0.821,0 2.027,-0.074 3.62,-0.226 1.593,-0.146 2.718,-0.332 3.374,-0.565 z" />
			<path
   id="path6737"
   fill="#ff0000"
   d="m 518.308,-822.777 c -2.033,3.875 -4.76,6.961 -8.176,9.258 -3.414,2.299 -7.338,3.444 -11.771,3.444 -3.898,0 -7.326,-0.688 -10.266,-2.067 -2.938,-1.377 -5.357,-3.252 -7.268,-5.613 -1.9,-2.362 -3.324,-5.119 -4.26,-8.271 -0.938,-3.154 -1.401,-6.479 -1.401,-9.996 0,-3.151 0.504,-6.246 1.501,-9.285 1.001,-3.032 2.473,-5.768 4.408,-8.198 1.869,-2.327 4.193,-4.209 6.968,-5.64 2.772,-1.429 5.886,-2.142 9.329,-2.142 3.549,0 6.584,0.562 9.111,1.674 2.529,1.118 4.58,2.644 6.156,4.578 1.512,1.844 2.635,4.012 3.375,6.504 0.734,2.494 1.104,5.205 1.104,8.123 v 3.251 h -32.154 c 0,3.188 0.305,6.076 0.91,8.67 0.604,2.595 1.564,4.875 2.883,6.847 1.275,1.905 2.957,3.406 5.02,4.506 2.066,1.104 4.527,1.646 7.389,1.646 2.924,0 5.439,-0.68 7.561,-2.047 2.117,-1.354 4.162,-3.813 6.135,-7.357 z m -10.885,-18.517 c 0,-1.839 -0.154,-3.808 -0.467,-5.909 -0.309,-2.102 -0.813,-3.857 -1.502,-5.271 -0.752,-1.507 -1.785,-2.734 -3.102,-3.693 -1.316,-0.949 -3.006,-1.427 -5.074,-1.427 -3.445,0 -6.313,1.436 -8.594,4.311 -2.279,2.873 -3.521,6.868 -3.718,11.988 z" />
			<path
   id="path6739"
   fill="#ff0000"
   d="m 596.737,-811.351 h -23.689 v -3.254 c 0.756,-0.063 1.52,-0.127 2.291,-0.193 0.77,-0.064 1.449,-0.196 2.041,-0.396 0.918,-0.297 1.602,-0.813 2.045,-1.551 0.445,-0.736 0.666,-1.7 0.666,-2.879 v -25.068 c 0,-3.412 -0.781,-6.048 -2.342,-7.903 -1.561,-1.854 -3.502,-2.782 -5.832,-2.782 -1.609,0 -3.121,0.243 -4.531,0.736 -1.412,0.491 -2.709,1.18 -3.889,2.068 -0.957,0.726 -1.752,1.501 -2.395,2.339 -0.639,0.838 -1.123,1.538 -1.453,2.092 v 28.021 c 0,1.154 0.199,2.096 0.594,2.834 0.396,0.736 1.064,1.307 2.02,1.699 0.756,0.296 1.438,0.518 2.045,0.665 0.605,0.146 1.402,0.256 2.387,0.319 v 3.25 h -23.189 v -3.25 c 0.756,-0.063 1.479,-0.129 2.188,-0.195 0.703,-0.063 1.355,-0.195 1.941,-0.398 0.922,-0.295 1.602,-0.813 2.045,-1.55 0.445,-0.737 0.67,-1.698 0.67,-2.882 v -25.066 c 0,-3.412 -0.783,-6.047 -2.346,-7.903 -1.557,-1.854 -3.504,-2.783 -5.83,-2.783 -1.609,0 -3.123,0.256 -4.533,0.766 -1.412,0.515 -2.709,1.208 -3.891,2.094 -0.951,0.724 -1.756,1.536 -2.412,2.437 -0.656,0.908 -1.148,1.586 -1.48,2.044 v 27.825 c 0,1.117 0.232,2.055 0.691,2.807 0.459,0.76 1.146,1.331 2.063,1.727 0.689,0.33 1.398,0.572 2.117,0.735 0.729,0.167 1.527,0.281 2.414,0.347 v 3.252 H 513.55 v -3.252 c 0.756,-0.063 1.535,-0.127 2.344,-0.195 0.801,-0.061 1.496,-0.194 2.092,-0.396 0.918,-0.295 1.602,-0.813 2.041,-1.552 0.443,-0.735 0.664,-1.696 0.664,-2.88 v -30.188 c 0,-1.048 -0.232,-1.994 -0.713,-2.83 -0.477,-0.84 -1.141,-1.555 -1.992,-2.146 -0.625,-0.396 -1.395,-0.715 -2.313,-0.959 -0.92,-0.248 -1.871,-0.399 -2.857,-0.471 v -3.199 l 16.254,-1.083 0.688,0.688 v 6.943 h 0.346 c 0.82,-0.816 1.822,-1.79 3.004,-2.906 1.186,-1.111 2.283,-2.021 3.301,-2.707 1.148,-0.786 2.588,-1.441 4.314,-1.971 1.721,-0.521 3.586,-0.788 5.588,-0.788 3.15,0 5.857,0.847 8.125,2.535 2.27,1.693 3.895,3.737 4.875,6.133 1.184,-1.146 2.227,-2.156 3.129,-3.028 0.902,-0.868 2.094,-1.796 3.57,-2.782 1.25,-0.854 2.715,-1.543 4.408,-2.069 1.688,-0.521 3.566,-0.788 5.639,-0.788 4.104,0 7.354,1.352 9.754,4.037 2.393,2.694 3.592,6.834 3.592,12.415 v 24.671 c 0,1.151 0.195,2.092 0.596,2.832 0.395,0.735 1.064,1.31 2.02,1.698 0.756,0.296 1.5,0.518 2.238,0.667 0.74,0.145 1.566,0.254 2.488,0.317 v 3.252 h -0.006 v -0.002 z" />
		</g>
</svg>
