<?xml version="1.0" encoding="UTF-8" standalone="no"?>
<!-- Generator: Adobe Illustrator 16.0.0, SVG Export Plug-In . SVG Version: 6.00 Build 0)  -->

<svg
   xmlns:dc="http://purl.org/dc/elements/1.1/"
   xmlns:cc="http://creativecommons.org/ns#"
   xmlns:rdf="http://www.w3.org/1999/02/22-rdf-syntax-ns#"
   xmlns:svg="http://www.w3.org/2000/svg"
   xmlns="http://www.w3.org/2000/svg"
   xmlns:sodipodi="http://sodipodi.sourceforge.net/DTD/sodipodi-0.dtd"
   xmlns:inkscape="http://www.inkscape.org/namespaces/inkscape"
   version="1.1"
   id="Capa_1"
   x="0px"
   y="0px"
   width="579.57043"
   height="512.33319"
   viewBox="0 0 579.57045 512.3332"
   xml:space="preserve"
   sodipodi:docname="controller.svg"
   inkscape:version="0.92.5 (2060ec1f9f, 2020-04-08)"><metadata
   id="metadata67"><rdf:RDF><cc:Work
       rdf:about=""><dc:format>image/svg+xml</dc:format><dc:type
         rdf:resource="http://purl.org/dc/dcmitype/StillImage" /><dc:title /></cc:Work></rdf:RDF></metadata><defs
   id="defs65">
	
</defs><sodipodi:namedview
   pagecolor="#ffffff"
   bordercolor="#666666"
   borderopacity="1"
   objecttolerance="10"
   gridtolerance="10"
   guidetolerance="10"
   inkscape:pageopacity="0"
   inkscape:pageshadow="2"
   inkscape:window-width="1360"
   inkscape:window-height="683"
   id="namedview63"
   showgrid="false"
   fit-margin-top="0"
   fit-margin-left="0"
   fit-margin-right="0"
   fit-margin-bottom="0"
   inkscape:zoom="4.6149429"
   inkscape:cx="308.33917"
   inkscape:cy="395.25179"
   inkscape:window-x="0"
   inkscape:window-y="0"
   inkscape:window-maximized="1"
   inkscape:current-layer="Capa_1" />
<g
   style="fill:none;stroke:#f4f4f4;stroke-width:1.79999995;stroke-miterlimit:4;stroke-dasharray:none;stroke-opacity:1"
   id="g28"
   transform="translate(0.50185034,-33.114109)">
		<circle
   style="fill:none;stroke:#f4f4f4;stroke-width:1.79999995;stroke-miterlimit:4;stroke-dasharray:none;stroke-opacity:1"
   id="circle2"
   r="7.7969999"
   cy="236.603"
   cx="286.91199" />
		<circle
   style="fill:none;stroke:#f4f4f4;stroke-width:1.79999995;stroke-miterlimit:4;stroke-dasharray:none;stroke-opacity:1"
   id="circle4"
   r="16.584999"
   cy="236.786"
   cx="502.87399" />
		<path
   inkscape:connector-curvature="0"
   style="fill:none;stroke:#f4f4f4;stroke-width:1.79999995;stroke-miterlimit:4;stroke-dasharray:none;stroke-opacity:1"
   id="path6"
   d="m 356.845,296.622 c -14.92,0 -27.062,12.136 -27.062,27.062 0,14.926 12.143,27.062 27.062,27.062 14.921,0 27.062,-12.136 27.062,-27.062 0,-14.926 -12.141,-27.062 -27.062,-27.062 z" />
		<path
   inkscape:connector-curvature="0"
   style="fill:none;stroke:#f4f4f4;stroke-width:1.79999995;stroke-miterlimit:4;stroke-dasharray:none;stroke-opacity:1"
   id="path8"
   d="m 562.367,255.012 c -0.337,-2.742 -0.741,-5.459 -1.243,-8.146 -0.281,-1.493 -0.575,-2.98 -0.905,-4.456 -0.588,-2.656 -1.273,-5.269 -2.02,-7.858 -0.44,-1.53 -0.888,-3.054 -1.383,-4.56 -0.925,-2.809 -1.935,-5.569 -3.036,-8.292 -0.605,-1.5 -1.261,-2.974 -1.922,-4.449 -0.905,-2.014 -1.866,-3.99 -2.864,-5.942 -0.71,-1.396 -1.389,-2.809 -2.147,-4.174 -1.561,-2.809 -3.237,-5.539 -4.994,-8.219 -0.998,-1.524 -2.062,-2.993 -3.121,-4.468 -1.047,-1.462 -2.118,-2.901 -3.226,-4.314 -1.181,-1.512 -2.356,-3.023 -3.599,-4.486 -1.31,-1.536 -2.687,-2.999 -4.063,-4.474 -2.111,-2.265 -4.296,-4.443 -6.561,-6.555 -1.04,-0.967 -2.087,-1.934 -3.158,-2.87 -1.652,-1.438 -3.316,-2.852 -5.036,-4.211 -0.912,-0.716 -1.86,-1.389 -2.791,-2.087 -3.269,-2.448 -6.652,-4.743 -10.147,-6.885 -0.979,-0.6 -1.945,-1.212 -2.938,-1.787 -2.001,-1.157 -4.033,-2.258 -6.102,-3.311 -1.034,-0.526 -2.099,-1.016 -3.151,-1.518 -1.946,-0.924 -3.85,-1.91 -5.845,-2.742 0.006,-2.699 -0.808,-6.512 -5.055,-8.666 -7.021,-3.568 -48.33,-10.71 -61.592,-8.672 -8.238,1.267 -10.502,4.822 -11.041,7.338 -3.133,0.061 -6.377,0.141 -9.688,0.238 -0.208,0.006 -0.416,0.013 -0.625,0.019 -3.176,0.098 -6.377,0.22 -9.553,0.367 -0.318,0.012 -0.624,0.031 -0.937,0.049 -3.134,0.153 -6.224,0.324 -9.198,0.533 -0.238,0.018 -0.465,0.037 -0.704,0.055 -3.054,0.22 -5.997,0.465 -8.709,0.752 -0.562,0.061 -1.144,0.123 -1.737,0.178 v -0.067 c -0.067,-1.028 -1.047,-1.922 -2.656,-2.613 -1.077,-0.459 -2.436,-0.826 -3.996,-1.083 -1.561,-0.257 -3.33,-0.397 -5.227,-0.404 -0.949,-0.006 -1.922,0.024 -2.926,0.092 -7.992,0.533 -14.32,3.195 -14.137,5.937 0,0.018 0.006,0.037 0.006,0.061 -4.192,0.202 -8.396,0.374 -12.454,0.533 -4.058,0.159 -7.975,0.293 -11.604,0.41 -2.418,0.08 -4.7,0.147 -6.812,0.208 -2.846,0.08 -5.343,0.147 -7.442,0.196 -4.7569,0.0798 -10.84723,0.0911 -24.943,-0.331 -6.426,-0.196 -13.954,-0.459 -21.683,-0.796 -2.944,-0.128 -5.912,-0.269 -8.856,-0.416 0,-0.336 -0.104,-0.673 -0.293,-1.003 -0.563,-0.992 -1.928,-1.928 -3.837,-2.718 -2.552,-1.046 -6.077,-1.823 -10.012,-2.087 -0.961,-0.061 -1.897,-0.098 -2.809,-0.092 -0.912,0 -1.793,0.031 -2.638,0.092 -1.689,0.123 -3.231,0.355 -4.553,0.686 -2.644,0.667 -4.413,1.714 -4.743,2.993 -1.555,-0.147 -3.164,-0.288 -4.816,-0.416 -0.673,-0.055 -1.377,-0.098 -2.062,-0.147 -1.016,-0.073 -2.026,-0.147 -3.066,-0.214 -0.526,-0.031 -1.071,-0.062 -1.604,-0.092 -1.224,-0.074 -2.442,-0.147 -3.685,-0.208 -0.6,-0.03 -1.206,-0.055 -1.812,-0.085 -1.193,-0.055 -2.387,-0.116 -3.592,-0.165 -0.532,-0.025 -1.071,-0.037 -1.604,-0.062 -1.291,-0.049 -2.576,-0.098 -3.862,-0.141 -0.367,-0.012 -0.728,-0.019 -1.089,-0.031 -1.438,-0.042 -2.87,-0.092 -4.29,-0.128 -0.306,-0.006 -0.594,-0.012 -0.899,-0.019 -1.481,-0.037 -2.95,-0.073 -4.388,-0.098 -0.11,0 -0.214,-0.006 -0.324,-0.006 -1.61,-0.03 -3.188,-0.061 -4.725,-0.08 -0.569,-2.509 -2.864,-6.01 -11.016,-7.264 -13.25,-2.007 -54.56,5.135 -61.579,8.703 -5.521,2.809 -5.27,8.396 -4.909,10.679 -0.042,0.019 -0.085,0.043 -0.128,0.062 -5.012,2.313 -9.841,4.933 -14.486,7.833 -0.098,0.061 -0.196,0.116 -0.294,0.177 -6.867,4.309 -13.287,9.223 -19.229,14.688 -0.293,0.27 -0.594,0.533 -0.887,0.808 -1.928,1.805 -3.813,3.647 -5.63,5.569 -0.074,0.08 -0.147,0.166 -0.221,0.245 -3.366,3.562 -6.505,7.326 -9.461,11.242 -0.551,0.729 -1.107,1.457 -1.64,2.197 -1.377,1.91 -2.717,3.837 -3.996,5.82 -0.49,0.765 -0.937,1.554 -1.414,2.325 -2.068,3.366 -3.99,6.818 -5.752,10.374 -0.63,1.267 -1.255,2.54 -1.842,3.831 -0.869,1.897 -1.713,3.794 -2.491,5.741 -0.734,1.824 -1.383,3.69 -2.032,5.557 -0.949,2.717 -1.812,5.465 -2.589,8.262 -0.471,1.708 -0.924,3.427 -1.328,5.166 -0.44,1.879 -0.869,3.757 -1.23,5.673 -0.576,3.066 -1.059,6.163 -1.42,9.296 l -0.043,-0.037 c 0,0 -26.928,128.27 -11.401,223.65 16.065,98.685 66.555,72.675 96.39,6.12 23.477,-52.369 27.063,-74.829 38.74,-82.712 C 91.5,396.25 41.17,368.661 27.596,316.824 c -0.429,-1.64 0.551,-3.311 2.185,-3.733 1.64,-0.446 3.305,0.551 3.733,2.179 0.306,1.169 0.753,2.246 1.095,3.385 16.078,53.195 74.163,78.397 124.328,79.964 1.665,0.049 3.348,0.153 4.994,0.153 0.129,0 0.233,0.055 0.355,0.073 1.64,-0.098 3.348,-0.196 5.147,-0.3 2.105,-0.123 4.284,-0.257 6.567,-0.392 0.808,-0.049 1.628,-0.099 2.448,-0.147 0.985,-0.061 1.977,-0.122 2.993,-0.184 0.71,-0.043 1.414,-0.085 2.136,-0.135 1.107,-0.067 2.221,-0.141 3.341,-0.208 0.716,-0.043 1.42,-0.092 2.136,-0.135 1.787,-0.116 3.586,-0.226 5.398,-0.349 0.306,-0.019 0.612,-0.043 0.918,-0.061 1.518,-0.099 3.036,-0.202 4.56,-0.301 0.728,-0.049 1.457,-0.098 2.185,-0.146 1.163,-0.079 2.313,-0.159 3.47,-0.232 0.734,-0.049 1.463,-0.098 2.191,-0.153 1.23,-0.086 2.454,-0.171 3.672,-0.257 0.612,-0.043 1.23,-0.086 1.836,-0.129 1.817,-0.128 3.623,-0.263 5.385,-0.392 30.784,-2.307 70.729,-2.962 70.729,-2.962 0,0 39.945,0.655 70.722,2.95 1.763,0.128 3.556,0.263 5.367,0.392 0.612,0.043 1.23,0.086 1.849,0.129 1.229,0.085 2.46,0.171 3.702,0.257 0.661,0.043 1.316,0.092 1.977,0.135 1.285,0.085 2.577,0.177 3.874,0.263 0.624,0.043 1.243,0.086 1.867,0.123 3.647,0.244 7.289,0.477 10.856,0.703 0.747,0.049 1.481,0.092 2.222,0.141 1.102,0.067 2.191,0.141 3.274,0.208 0.783,0.05 1.548,0.099 2.319,0.147 0.918,0.055 1.823,0.11 2.724,0.165 0.795,0.049 1.597,0.098 2.381,0.146 3.097,0.19 6.059,0.367 8.812,0.526 0.275,0.019 0.532,0.031 0.802,0.05 0.942,-0.013 1.897,-0.062 2.846,-0.086 50.165,-1.567 108.25,-26.77 124.328,-79.964 0.343,-1.145 0.789,-2.216 1.095,-3.385 0.429,-1.634 2.1,-2.632 3.733,-2.179 1.641,0.423 2.613,2.1 2.185,3.733 -13.219,50.483 -61.304,77.956 -108.562,85.698 12.381,7.356 15.539,29.67 39.578,83.3 29.835,66.555 80.325,92.564 96.391,-6.12 14.314,-87.933 -7.442,-203.742 -10.931,-221.3 -0.106,-1.136 -0.301,-2.25 -0.442,-3.382 z M 163.129,252.76 H 140.24 v 22.883 c 0,3.488 -2.839,6.334 -6.334,6.334 h -22.43 c -3.495,0 -6.334,-2.846 -6.334,-6.334 V 252.76 H 82.253 c -3.488,0 -6.334,-2.846 -6.334,-6.334 v -22.423 c 0,-3.488 2.84,-6.334 6.334,-6.334 h 22.889 v -22.882 c 0,-3.489 2.84,-6.334 6.334,-6.334 h 22.43 c 3.488,0 6.334,2.846 6.334,6.334 v 22.882 h 22.889 c 3.495,0 6.334,2.846 6.334,6.334 v 22.423 c 0,3.488 -2.839,6.334 -6.334,6.334 z m 96.708,70.313 -12.442,32.087 c -0.306,0.783 -0.912,1.401 -1.689,1.726 l -31.108,12.772 c -0.373,0.147 -0.765,0.227 -1.163,0.227 -0.398,0 -0.79,-0.079 -1.163,-0.227 L 181.17,356.886 c -0.777,-0.324 -1.389,-0.942 -1.689,-1.726 l -12.442,-32.087 c -0.3,-0.771 -0.269,-1.635 0.074,-2.387 l 13.421,-29.138 c 0.325,-0.71 0.912,-1.268 1.64,-1.561 l 30.123,-12.112 c 0.728,-0.3 1.548,-0.3 2.283,0 l 30.123,12.112 c 0.728,0.293 1.31,0.851 1.64,1.561 l 13.421,29.138 c 0.342,0.759 0.373,1.616 0.073,2.387 z m -12.46,-72.553 c -7.668,0 -13.911,-6.243 -13.911,-13.911 0,-7.668 6.242,-13.917 13.911,-13.917 7.675,0 13.917,6.249 13.917,13.917 0,7.668 -6.242,13.911 -13.917,13.911 z m 21.537,-47.369 c -0.563,0.147 -1.916,0.147 -2.43,0.006 -1.347,-0.374 -2.663,-1.622 -3.244,-3.079 -0.386,-0.979 -1.781,-5.887 -6.665,-23.464 l -0.734,-2.638 3.305,-0.019 c 1.817,-0.012 3.329,0.006 3.36,0.037 0.03,0.03 1.267,4.822 2.748,10.648 l 2.699,10.588 1.285,-4.908 c 3.048,-11.659 3.562,-13.538 3.947,-14.346 0.521,-1.089 1.426,-1.866 2.497,-2.148 0.569,-0.147 1.873,-0.147 2.43,0 1.187,0.306 2.111,1.163 2.619,2.417 0.312,0.765 0.979,3.231 3.476,12.809 0.845,3.225 1.555,5.924 1.585,5.998 0.03,0.08 1.077,-3.88 2.766,-10.49 l 2.711,-10.618 h 3.359 c 2.656,0 3.354,0.019 3.323,0.092 -0.019,0.049 -0.734,2.613 -1.591,5.698 -4.095,14.737 -5.515,19.688 -5.918,20.557 -0.679,1.481 -1.824,2.515 -3.188,2.87 -0.569,0.147 -1.805,0.147 -2.368,0 -0.784,-0.202 -1.23,-0.477 -1.91,-1.15 -0.526,-0.526 -0.691,-0.753 -0.979,-1.34 -0.471,-0.955 -0.924,-2.515 -3.807,-13.109 -0.679,-2.491 -1.255,-4.578 -1.273,-4.639 -0.019,-0.061 -0.722,2.375 -1.555,5.417 -1.83,6.677 -2.791,10.128 -3.09,11.071 -0.635,2.032 -1.811,3.342 -3.358,3.74 z m 17.998,47.369 c -7.674,0 -13.917,-6.243 -13.917,-13.911 0,-7.668 6.242,-13.917 13.917,-13.917 7.674,0 13.917,6.249 13.917,13.917 0,7.668 -6.243,13.911 -13.917,13.911 z m 20.661,-57.608 v 10.135 h -3.158 -3.158 v -10.135 -10.135 h 3.158 3.158 z m -1.041,-14.223 c -0.826,0.532 -2.068,0.771 -3.005,0.582 -1.432,-0.288 -2.613,-1.512 -2.857,-2.956 -0.294,-1.757 0.875,-3.519 2.638,-3.978 0.899,-0.233 2.05,-0.11 2.876,0.306 0.489,0.25 1.236,0.967 1.493,1.426 0.857,1.591 0.348,3.666 -1.145,4.62 z m 20.955,43.997 c 7.675,0 13.917,6.249 13.917,13.917 0,7.668 -6.242,13.911 -13.917,13.911 -7.675,0 -13.917,-6.242 -13.917,-13.911 0,-7.669 6.242,-13.917 13.917,-13.917 z m -13.525,-19.639 v -10.135 -10.135 h 3.158 3.158 v 10.135 10.135 h -3.158 z m 2.044,-30.704 c 0.9,-0.232 2.051,-0.11 2.871,0.3 0.495,0.25 1.193,0.918 1.469,1.401 0.894,1.566 0.385,3.678 -1.12,4.645 -0.826,0.532 -2.068,0.771 -3.005,0.582 -1.854,-0.374 -3.164,-2.222 -2.864,-4.033 0.232,-1.384 1.285,-2.54 2.649,-2.895 z m 87.73,150.73 -12.441,32.087 c -0.307,0.783 -0.912,1.401 -1.689,1.726 l -31.108,12.772 c -0.373,0.147 -0.765,0.227 -1.162,0.227 -0.398,0 -0.79,-0.079 -1.163,-0.227 l -31.108,-12.772 c -0.776,-0.324 -1.389,-0.942 -1.688,-1.726 l -12.442,-32.087 c -0.3,-0.771 -0.27,-1.635 0.073,-2.387 l 13.422,-29.138 c 0.324,-0.71 0.911,-1.268 1.64,-1.561 l 30.123,-12.112 c 0.728,-0.3 1.548,-0.3 2.282,0 l 30.123,12.112 c 0.729,0.293 1.31,0.851 1.64,1.561 l 13.428,29.138 c 0.346,0.759 0.37,1.616 0.07,2.387 z m -5.312,-63.581 c -12.521,0 -22.705,-10.184 -22.705,-22.705 0,-12.521 10.184,-22.705 22.705,-22.705 12.521,0 22.706,10.184 22.706,22.705 0,12.521 -10.185,22.705 -22.706,22.705 z m 52.063,38.904 c -12.521,0 -22.705,-10.184 -22.705,-22.705 0,-12.521 10.184,-22.705 22.705,-22.705 12.521,0 22.705,10.184 22.705,22.705 0,12.521 -10.183,22.705 -22.705,22.705 z m 0,-77.815 c -12.521,0 -22.705,-10.184 -22.705,-22.705 0,-12.521 10.184,-22.705 22.705,-22.705 12.521,0 22.705,10.184 22.705,22.705 0,12.521 -10.183,22.705 -22.705,22.705 z m 52.387,38.911 c -12.521,0 -22.705,-10.184 -22.705,-22.705 0,-12.521 10.184,-22.705 22.705,-22.705 12.521,0 22.705,10.184 22.705,22.705 0,12.521 -10.183,22.705 -22.705,22.705 z"
   sodipodi:nodetypes="cccccccccccccccccccccccccccccccccccccccccscccccccccccccccccccccccccccccccccccccccccccccccccccscccccccscccccccccccccccccccccccccccccccccccccccccccscsssscsssscsssscssssccccscccccccccccccsssssccccccscccccccccccsccccccccccccsssssccccccccccccccccsssssccccccccccccccccccccscccccccccccccssssssssssssssssssss" />
		<path
   inkscape:connector-curvature="0"
   style="fill:none;stroke:#f4f4f4;stroke-width:1.79999995;stroke-miterlimit:4;stroke-dasharray:none;stroke-opacity:1"
   id="path10"
   d="m 357.335,284.015 -27.853,11.2 -12.368,26.854 11.493,29.657 28.728,11.8 28.727,-11.8 11.5,-29.657 -12.375,-26.854 z m -0.49,72.852 c -18.299,0 -33.183,-14.89 -33.183,-33.183 0,-18.293 14.884,-33.183 33.183,-33.183 18.299,0 33.183,14.89 33.183,33.183 0,18.293 -14.884,33.183 -33.183,33.183 z" />
		<circle
   style="fill:none;stroke:#f4f4f4;stroke-width:1.79999995;stroke-miterlimit:4;stroke-dasharray:none;stroke-opacity:1"
   id="circle12"
   r="7.7969999"
   cy="236.603"
   cx="247.377" />
		<path
   inkscape:connector-curvature="0"
   style="fill:none;stroke:#f4f4f4;stroke-width:1.79999995;stroke-miterlimit:4;stroke-dasharray:none;stroke-opacity:1"
   id="path14"
   d="m 212.946,296.622 c -14.92,0 -27.062,12.136 -27.062,27.062 0,14.926 12.142,27.062 27.062,27.062 14.921,0 27.063,-12.136 27.063,-27.062 0,-14.926 -12.142,-27.062 -27.063,-27.062 z" />
		<path
   inkscape:connector-curvature="0"
   style="fill:none;stroke:#f4f4f4;stroke-width:1.79999995;stroke-miterlimit:4;stroke-dasharray:none;stroke-opacity:1"
   id="path16"
   d="m 134.12,194.779 -22.638,-0.214 -0.214,29.217 H 82.259 l -0.214,22.638 29.217,0.214 v 29.002 l 22.644,0.214 c 0.122,0 0.214,-0.098 0.214,-0.214 v -29.002 h 29.009 l 0.214,-22.638 -29.223,-0.214 z" />
		<circle
   style="fill:none;stroke:#f4f4f4;stroke-width:1.79999995;stroke-miterlimit:4;stroke-dasharray:none;stroke-opacity:1"
   id="circle18"
   r="16.584999"
   cy="197.87601"
   cx="450.487" />
		<circle
   style="fill:none;stroke:#f4f4f4;stroke-width:1.79999995;stroke-miterlimit:4;stroke-dasharray:none;stroke-opacity:1"
   id="circle20"
   r="7.7969999"
   cy="236.603"
   cx="327.487" />
		<path
   inkscape:connector-curvature="0"
   style="fill:none;stroke:#f4f4f4;stroke-width:1.79999995;stroke-miterlimit:4;stroke-dasharray:none;stroke-opacity:1"
   id="path22"
   d="m 213.436,284.015 -27.852,11.2 -12.369,26.854 11.5,29.657 28.721,11.8 28.727,-11.8 11.5,-29.657 -12.368,-26.854 z m -0.49,72.852 c -18.299,0 -33.183,-14.89 -33.183,-33.183 0,-18.293 14.884,-33.183 33.183,-33.183 18.299,0 33.183,14.89 33.183,33.183 0,18.293 -14.884,33.183 -33.183,33.183 z" />
		<circle
   style="fill:none;stroke:#f4f4f4;stroke-width:1.79999995;stroke-miterlimit:4;stroke-dasharray:none;stroke-opacity:1"
   id="circle24"
   r="16.584999"
   cy="275.69101"
   cx="450.487" />
		<circle
   style="fill:none;stroke:#f4f4f4;stroke-width:1.79999995;stroke-miterlimit:4;stroke-dasharray:none;stroke-opacity:1"
   id="circle26"
   r="16.584999"
   cy="236.786"
   cx="398.42401" />
	</g>
<g
   id="g32"
   transform="translate(0.50185034,-33.114109)">
</g>
<g
   id="g34"
   transform="translate(0.50185034,-33.114109)">
</g>
<g
   id="g36"
   transform="translate(0.50185034,-33.114109)">
</g>
<g
   id="g38"
   transform="translate(0.50185034,-33.114109)">
</g>
<g
   id="g40"
   transform="translate(0.50185034,-33.114109)">
</g>
<g
   id="g42"
   transform="translate(0.50185034,-33.114109)">
</g>
<g
   id="g44"
   transform="translate(0.50185034,-33.114109)">
</g>
<g
   id="g46"
   transform="translate(0.50185034,-33.114109)">
</g>
<g
   id="g48"
   transform="translate(0.50185034,-33.114109)">
</g>
<g
   id="g50"
   transform="translate(0.50185034,-33.114109)">
</g>
<g
   id="g52"
   transform="translate(0.50185034,-33.114109)">
</g>
<g
   id="g54"
   transform="translate(0.50185034,-33.114109)">
</g>
<g
   id="g56"
   transform="translate(0.50185034,-33.114109)">
</g>
<g
   id="g58"
   transform="translate(0.50185034,-33.114109)">
</g>
<g
   id="g60"
   transform="translate(0.50185034,-33.114109)">
</g>
</svg>