<?xml version="1.0" encoding="UTF-8" standalone="no"?>
<!-- Generator: Adobe Illustrator 25.4.1, SVG Export Plug-In . SVG Version: 6.00 Build 0)  -->

<svg
   version="1.1"
   id="Layer_1"
   x="0px"
   y="0px"
   viewBox="0 0 3968.5574 1948.2137"
   xml:space="preserve"
   sodipodi:docname="system (cópia).svg"
   width="3968.5574"
   height="1948.2137"
   inkscape:version="1.1.2 (0a00cf5339, 2022-02-04)"
   xmlns:inkscape="http://www.inkscape.org/namespaces/inkscape"
   xmlns:sodipodi="http://sodipodi.sourceforge.net/DTD/sodipodi-0.dtd"
   xmlns="http://www.w3.org/2000/svg"
   xmlns:svg="http://www.w3.org/2000/svg"><defs
   id="defs19">
	
	
	
	
	
</defs><sodipodi:namedview
   id="namedview17"
   pagecolor="#ffffff"
   bordercolor="#666666"
   borderopacity="1.0"
   inkscape:pageshadow="2"
   inkscape:pageopacity="0.0"
   inkscape:pagecheckerboard="0"
   showgrid="false"
   fit-margin-top="0"
   fit-margin-left="0"
   fit-margin-right="0"
   fit-margin-bottom="0"
   inkscape:zoom="0.096444387"
   inkscape:cx="316.24443"
   inkscape:cy="1228.6874"
   inkscape:window-width="1920"
   inkscape:window-height="996"
   inkscape:window-x="0"
   inkscape:window-y="0"
   inkscape:window-maximized="1"
   inkscape:current-layer="Layer_1" />
<style
   type="text/css"
   id="style2">
	.st0{fill:#17B3E8;}
	.st1{fill:#22B2E9;}
	.st2{fill:#A19FA3;}
	.st3{fill:#FFFFFF;}
</style>
<path
   id="path836"
   style="fill:#000000"
   class="st0"
   d="m 2935.0234,0.01528582 c -52.2135,0.833241 -104.209,16.50927118 -147.8476,45.26757818 -42.7166,28.057925 -77.5293,68.328126 -98.1094,115.187506 -15.7043,35.63297 -23.4043,74.82568 -21.8957,113.75857 1.4034,39.92468 12.1962,79.50365 31.3796,114.55389 23.5835,43.28313 59.4864,79.68116 102.2437,104.16109 39.2718,22.59565 84.1615,35.34725 129.4548,36.67848 53.8059,1.76269 108.2267,-11.21017 154.8596,-38.27518 31.5889,-18.29521 59.5577,-42.93365 81.2674,-72.31178 21.124,-28.4897 36.3504,-61.36484 44.1746,-95.96931 11.5995,-50.80178 7.6322,-105.09917 -11.5966,-153.55794 -12.4391,-31.52551 -31.2654,-60.47319 -54.8222,-84.821676 -22.031,-22.848611 -48.1508,-41.718249 -76.7022,-55.57232 -34.99,-17.080552 -73.5107,-26.7421912 -112.3769,-28.69500318 -6.6693,-0.355532 -13.3508,-0.462968 -20.0291,-0.403905 z m 751.6309,-0.0059 C 3632.396,0.83579382 3578.3814,17.771489 3533.707,48.651964 c -41.453,28.56344 -75.0068,68.783876 -94.5998,115.237136 -14.9308,35.21041 -22.0594,73.74463 -20.3946,111.96971 1.8286,43.52937 14.811,86.58211 37.6219,123.72148 21.1775,34.7686 50.4452,64.52883 84.7118,86.48782 43.3397,27.85192 94.6093,43.17128 146.1222,43.69113 52.4836,0.76572 105.31,-12.4639 150.6485,-39.06943 34.6619,-20.2896 64.8829,-48.29339 87.1965,-81.72902 18.7905,-28.06707 32.0462,-59.84781 38.5692,-92.9968 10.6942,-53.83017 4.0899,-111.07567 -19.2733,-160.79418 -16.5444,-35.39621 -41.2848,-66.862093 -71.485,-91.619392 -28.2746,-23.229594 -61.2984,-40.552028 -96.3269,-51.068892 -27.4684,-8.2766712 -56.1548,-12.41549918 -84.8362,-12.47083218 -1.669,-0.0074 -3.338,2.66e-4 -5.007,-0.0013 z M 1314.709,87.298489 c -23.0035,0.15214 -46.0163,2.411531 -68.5447,7.104896 -21.4063,4.471868 -42.4007,11.146015 -62.1835,20.509045 -31.4706,14.82722 -60.0077,35.87818 -83.3697,61.66426 -25.3407,27.889 -44.9937,60.62403 -59.6795,95.24276 -9.4071,22.10212 -16.7441,45.01912 -23.2022,68.13572 -10.0512,36.00258 -19.90682,72.05625 -29.64326,108.14619 -13.00017,48.22985 -25.86151,96.50318 -38.69901,144.77893 -24.43269,92.02124 -48.63956,184.1026 -72.85172,276.18212 -29.25983,111.3567 -58.43352,222.73339 -87.5276,334.13449 C 695.25236,835.6519 601.49362,468.10771 507.74023,100.56216 c -169.24674,0 -338.49349,0 -507.74023,0 43.776406,157.97841 87.596755,315.94466 131.52746,473.88024 31.04915,111.54895 62.15183,223.08967 93.30573,334.61201 33.84157,121.09879 67.72118,242.18719 101.88579,363.19529 20.76219,73.462 41.54055,146.9301 62.57223,220.3153 12.30366,42.868 24.67628,85.7163 37.26282,128.5015 7.02738,23.8558 14.11237,47.7007 21.86833,71.331 11.39129,34.0005 26.75619,66.7041 46.02443,96.9589 19.38278,30.3988 42.81116,58.3302 70.16801,81.8678 23.93835,20.621 50.81967,37.8947 79.77379,50.5878 32.46657,14.2766 67.40376,22.8383 102.76562,25.4364 28.24345,2.1209 56.73439,0.6997 84.66461,-3.9518 30.33052,-5.1361 59.92994,-14.7691 87.29585,-28.8493 23.30198,-11.9482 44.90074,-27.1422 64.23676,-44.7882 20.84727,-18.9818 39.08037,-40.7503 54.66667,-64.2224 23.6348,-35.4553 41.4162,-74.5709 54.7484,-114.973 5.9199,-17.9694 11.0869,-36.1744 16.378,-54.3353 13.871,-48.0522 27.3558,-96.2154 40.8218,-144.3833 24.5801,-88.0985 48.8598,-176.2853 73.0928,-264.4823 19.5392,-71.066 39.0003,-142.1564 58.4008,-213.2625 12.1024,-44.30221 24.171,-88.61375 36.2569,-132.92056 33.7412,123.66636 67.4605,247.33756 101.4819,370.92536 28.7483,104.5528 57.5815,209.0818 86.9557,313.4604 10.57,37.28 21.0588,74.5856 32.2688,111.6796 6.2392,20.2975 13.3487,40.3481 21.8973,59.7952 17.0942,39.1943 39.324,76.3993 67.7718,108.4403 22.8066,25.6412 49.635,47.8369 79.6768,64.5061 31.5198,17.5683 66.3045,29.1403 101.984,34.4162 34.0241,5.1519 68.8179,5.2135 102.8605,0.1862 40.8375,-6.1805 80.4505,-20.5318 115.6387,-42.1805 34.1927,-20.9289 64.2421,-48.3602 89.0797,-79.7729 31.3603,-39.4908 54.7624,-84.9837 70.67,-132.7521 4.8758,-14.6757 9.2481,-29.5127 13.7008,-44.3206 18.8856,-63.3873 37.0462,-126.9924 55.2081,-190.5918 32.7183,-114.7628 65.0376,-229.6354 97.2519,-344.5414 42.8329,-152.68762 85.3783,-305.45944 127.9315,-458.22294 33.5869,-120.66531 67.0589,-241.36291 100.517,-362.06398 17.5023,-63.16031 35.0067,-126.32005 52.5078,-189.48072 -169.1803,0 -338.3607,0 -507.541,0 -93.7482,367.52993 -187.5017,735.05849 -281.2519,1102.58794 -33.5657,-128.5156 -67.1358,-257.02822 -100.9675,-385.47233 -27.4082,-104.14852 -54.8599,-208.28562 -82.7474,-312.30643 -15.4751,-57.7942 -30.9949,-115.57475 -47.3346,-173.13003 -7.4647,-26.02632 -16.2993,-51.74519 -28.0525,-76.17146 -15.5399,-32.56214 -35.7516,-63.12362 -61.2827,-88.73086 -25.5775,-25.62764 -56.4185,-46.05421 -90.1884,-59.17509 -31.7991,-12.509086 -65.8099,-18.920226 -99.8913,-20.421404 -7.0452,-0.340975 -14.0995,-0.467707 -21.1528,-0.444007 z M 2702.9082,629.16177 c 0,435.33333 0,870.66663 0,1306.00003 160.5338,0 321.0677,0 481.6015,0 0,-436 0,-872 0,-1308.00003 -160.5338,0 -321.0677,0 -481.6015,0 0,0.66667 0,1.33334 0,2 z m 751.3008,0 c 0,435.33333 0,870.66663 0,1306.00003 160.6002,0 321.2005,0 481.8007,0 0,-436 0,-872 0,-1308.00003 -160.6002,0 -321.2005,0 -481.8007,0 0,0.66667 0,1.33334 0,2 z" /><g
   id="g14"
   transform="translate(73.607422,55.960598)"
   style="fill:#ffffff">
	<path
   class="st0"
   d="m 2649.3,209.1 c 0,115.3 97.1,208.8 216.5,208.8 124.2,0 221.7,-91.6 221.7,-208.8 C 3087.5,91.8 2990,0 2865.9,0 2746.4,0 2649.3,93.7 2649.3,209.1"
   id="path4"
   style="fill:#ffffff" />
	<rect
   x="2685.3"
   y="627.20001"
   class="st0"
   width="369.60001"
   height="1196"
   id="rect6"
   style="fill:#ffffff" />
	<path
   class="st0"
   d="m 3400.8,209.1 c 0,115.3 97.2,208.8 216.6,208.8 124.2,0 221.6,-91.6 221.6,-208.8 C 3839,91.8 3741.7,0 3617.4,0 3498,0 3400.8,93.7 3400.8,209.1"
   id="path8"
   style="fill:#ffffff" />
	<rect
   x="3436.6001"
   y="627.20001"
   class="st0"
   width="369.79999"
   height="1196"
   id="rect10"
   style="fill:#ffffff" />
	<path
   class="st0"
   d="m 2097.5,100.6 -324.2,1270.8 c 0,0 -247.8,-953.9 -288.2,-1089.2 -40.3,-135.5 -123.3,-194.9 -241,-194.9 -117.7,0 -200.8,59.4 -241.2,194.9 C 962.8,417.5 714.8,1371.4 714.8,1371.4 L 390.6,100.6 H 0 c 0,0 375.1,1355.9 426.1,1512.9 39.7,122.6 133.6,222.8 272.9,222.8 159.3,0 233.7,-116.1 268.2,-222.8 34.1,-106 276.9,-1001.6 276.9,-1001.6 0,0 242.9,895.6 276.9,1001.6 34.5,106.7 108.9,222.8 268.1,222.8 139.4,0 233.2,-100.2 273.1,-222.8 50.9,-157 425.7,-1512.9 425.7,-1512.9 z"
   id="path12"
   style="fill:#ffffff" />
</g>
</svg>
