<?xml version="1.0" encoding="UTF-8" standalone="no"?>
<!-- Generator: Adobe Illustrator 13.0.0, SVG Export Plug-In . SVG Version: 6.00 Build 14948)  -->

<svg
   version="1.2"
   id="Layer_3"
   x="0px"
   y="0px"
   width="511.92758"
   height="317.30688"
   viewBox="0 0 511.92756 317.30688"
   xml:space="preserve"
   sodipodi:docname="controller.svg"
   inkscape:version="1.1.2 (0a00cf5339, 2022-02-04)"
   xmlns:inkscape="http://www.inkscape.org/namespaces/inkscape"
   xmlns:sodipodi="http://sodipodi.sourceforge.net/DTD/sodipodi-0.dtd"
   xmlns="http://www.w3.org/2000/svg"
   xmlns:svg="http://www.w3.org/2000/svg"
   xmlns:rdf="http://www.w3.org/1999/02/22-rdf-syntax-ns#"
   xmlns:cc="http://creativecommons.org/ns#"
   xmlns:dc="http://purl.org/dc/elements/1.1/"
   xmlns:ns="&amp;ns_sfw;"><defs
   id="defs121">
	
	
	
	
	
	
	
	
	
	
	
	
	
	
	
	
	
	
	
	
	
	
	
	
	
	
	
	
	
	
	
	

	
</defs><sodipodi:namedview
   id="namedview119"
   pagecolor="#ffffff"
   bordercolor="#666666"
   borderopacity="1.0"
   inkscape:pageshadow="2"
   inkscape:pageopacity="0.0"
   inkscape:pagecheckerboard="0"
   showgrid="false"
   fit-margin-top="0"
   fit-margin-left="0"
   fit-margin-right="0"
   fit-margin-bottom="0"
   inkscape:zoom="1.0263804"
   inkscape:cx="206.06396"
   inkscape:cy="104.737"
   inkscape:window-width="1920"
   inkscape:window-height="996"
   inkscape:window-x="0"
   inkscape:window-y="0"
   inkscape:window-maximized="1"
   inkscape:current-layer="Layer_3" />
<metadata
   id="metadata55">
	<rdf:RDF>
		<cc:Work
   rdf:about="">
			<dc:format>image/svg+xml</dc:format>
			<dc:type
   rdf:resource="http://purl.org/dc/dcmitype/StillImage" />
			
		</cc:Work>
	</rdf:RDF>
	<ns:sfw>
		<ns:slices />
		<ns:sliceSourceBounds
   x="708.486"
   y="-7652"
   width="503.928"
   height="16383"
   bottomLeftOrigin="true" />
	</ns:sfw>
</metadata>
<path
   id="path993"
   style="fill:#000000"
   d="m 502.42383,0.00413133 c -13.96171,0.04562 -27.92626,0.0066 -41.88907,0.0197 -150.51415,0.0032 -301.02863,-0.004 -451.542572,0.0057 -3.1397,0.0264 -5.801648,3.08352697 -5.466797,6.19179697 0,0.7375 0,1.475 0,2.2125 -1.17513,0 -2.350261,0 -3.525391,0 0,31.2792967 0,62.5585937 0,93.8378917 1.201172,0 2.402344,0 3.603516,0 -0.193935,1.70233 -0.0098,3.42107 -0.07809,5.13125 0.0039,68.15478 -0.0026,136.30987 0.0078,204.46445 0.04928,3.14475 3.138334,5.74617 6.236719,5.41016 164.385895,-0.003 328.772125,0.004 493.157805,-0.006 3.13895,-0.0239 5.77365,-3.09428 5.43946,-6.1918 0.004,-69.42239 8.6e-4,-138.84479 -0.008,-208.26719 -0.34764,-0.87233 0.74202,-0.44224 1.24727,-0.54101 0.7737,0 1.54739,0 2.32109,0 0,-31.279299 0,-62.558595 0,-93.8378917 -1.1862,0 -2.37239,0 -3.55859,0 -0.039,-1.97931 0.2841,-4.177731 -0.94531,-5.888672 -1.09877,-1.61827297 -3.04234,-2.61650397 -5,-2.54101597 z M 27.767578,18.142803 c 0,24.806641 0,49.613281 0,74.419917 -6.019531,1e-5 -12.039062,1e-5 -18.058594,0 0,-24.806636 1e-6,-49.613276 0,-74.419917 6.019532,0 12.039063,0 18.058594,0 z m 474.453122,0 c 0,24.806641 0,49.613281 0,74.419917 -90.15885,1e-5 -180.31771,0 -270.47656,0 0,-24.806636 0,-49.613276 0,-74.419917 90.15885,0 180.31771,0 270.47656,0 z m -6.82422,0.472656 c -16.90843,0.04118 -33.8189,0.0062 -50.72812,0.01808 -48.77225,0.0068 -97.54528,-0.01167 -146.31703,0.01093 -3.10372,0.07174 -5.68034,3.11894 -5.35134,6.184269 0.0139,10.999409 -0.0374,22.002533 0.0352,32.999609 0.2724,3.022962 3.3047,5.359379 6.2918,5.007812 65.52697,-0.0041 131.05486,0.0095 196.58125,-0.01367 3.09191,-0.110382 5.61897,-3.156028 5.28712,-6.207422 -0.0139,-10.990946 0.0374,-21.985606 -0.0352,-32.974219 -0.2687,-2.836471 -2.93595,-5.103049 -5.76367,-5.025391 z m -193.49218,9.41211 c -0.20497,0.197211 -0.2694,-0.232678 0,0 z m 165.8496,0.314453 c -4.43826,3.363397 -6.79233,9.224713 -5.88802,14.722594 0.56523,3.944095 2.71135,7.61523 5.85287,10.062562 -2.98373,0 -5.96745,0 -8.95117,0 -0.0171,-8.130834 0.0447,-16.267141 -0.043,-24.394531 -0.29133,-0.758508 0.91705,-0.238935 1.3375,-0.390625 2.56393,0 5.12786,0 7.69179,0 z m 23.72852,0 c 0,1.807943 0,3.615885 0,5.423828 -1.04599,-2.101219 -2.55245,-3.976174 -4.40234,-5.423828 1.46744,0 2.93489,0 4.40234,0 z m -13.75781,6.390625 c 3.26175,0.08088 6.03958,3.248087 5.67248,6.496395 -0.20653,3.03312 -2.98756,5.65437 -6.05645,5.513906 -2.88773,0.01269 -5.60006,-2.296807 -5.89086,-5.198734 -0.36607,-2.550503 1.05062,-5.245446 3.43895,-6.270148 0.88226,-0.408359 1.8655,-0.593532 2.83588,-0.541419 z m -157.03907,1.191406 c 0,3.207031 10e-6,6.414063 0,9.621094 -3.17252,0 -6.34505,0 -9.51757,0 0,-3.207031 0,-6.414063 0,-9.621094 3.17252,0 6.34505,0 9.51757,0 z m 104.87305,0 c 0,3.207031 0,6.414063 0,9.621094 -31.01888,0 -62.03776,0 -93.05664,0 0,-3.207031 0,-6.414063 0,-9.621094 31.01888,0 62.03776,0 93.05664,0 z m 20.69141,0 c 0,3.207031 0,6.414063 0,9.621094 -2.95768,0 -5.91537,0 -8.87305,0 0,-3.207031 0,-6.414063 0,-9.621094 2.95768,0 5.91537,0 8.87305,0 z m 45.23242,17.203125 c -1.47005,0 -2.9401,0 -4.41016,0 1.84028,-1.454022 3.35817,-3.314048 4.41016,-5.410156 0,1.803385 0,3.606771 0,5.410156 z m -189.70508,0.189453 c 0.52549,0.305828 1.05739,0.973555 0.50977,1.510333 -0.0819,0.419977 -1.51751,0.688076 -1.21667,0.21986 0.21545,-0.585194 0.4309,-1.170389 0.64636,-1.755583 z m 196.88477,53.839849 c 0,66.80533 0,133.61067 0,200.41601 -161.8099,0 -323.61979,0 -485.429688,0 0,-66.80534 0,-133.61068 0,-200.41601 161.809898,-1e-5 323.619788,0 485.429688,0 z m -384.5625,7.94726 c -8.68254,0.0642 -17.371168,-0.0386 -26.052738,0.0644 -1.44739,0.15927 -2.83878,0.77099 -3.9414,1.72071 -1.60532,-1.40693 -3.80486,-1.95012 -5.90235,-1.76364 -8.37513,0.0161 -16.75186,-0.0296 -25.125998,0.0251 -3.409447,0.21897 -6.361993,3.18716 -6.629858,6.58234 -1.307403,-0.94633 -2.962091,-1.08346 -4.520703,-0.97638 -2.856149,0.034 -5.719232,-0.0657 -8.571094,0.0525 -2.883292,0.36973 -5.133647,3.23556 -4.839185,6.12383 0.05823,2.52993 -0.132425,5.07817 0.121296,7.59597 0.511657,2.84774 3.463378,4.88215 6.304607,4.53375 3.085583,-0.0366 6.180649,0.083 9.259968,-0.0766 0.805851,-0.11255 1.581238,-0.42985 2.247064,-0.89567 -0.284725,3.72699 2.837682,7.24323 6.536709,7.54043 5.933864,0.0662 11.874214,0.0144 17.810554,0.0307 3.18714,-0.0224 6.38131,0.0344 9.56397,-0.0694 1.37763,-0.18493 2.69312,-0.7902 3.74306,-1.69894 1.63459,1.43702 3.88223,1.95277 6.01407,1.76581 8.39726,-0.0132 16.797768,0.0443 25.192958,-0.0431 1.44681,-0.16168 2.8399,-0.77149 3.94141,-1.72266 1.60572,1.40756 3.80587,1.95239 5.9043,1.76578 8.43587,-0.0121 16.87445,0.042 25.30859,-0.0412 1.44644,-0.15593 2.83776,-0.77008 3.9375,-1.7207 1.63696,1.4326 3.8806,1.9497 6.01211,1.7619 8.39727,-0.0132 16.79777,0.0443 25.19297,-0.0431 1.4482,-0.15873 2.84076,-0.77196 3.94336,-1.72266 1.63051,1.43951 3.87505,1.95294 6.0043,1.76581 8.40825,-0.0146 16.82038,0.047 25.22617,-0.0451 3.70522,-0.32977 6.72366,-3.91132 6.44736,-7.61797 -0.0227,-5.50593 0.0639,-11.01836 -0.0587,-16.52016 -0.37607,-3.70557 -4.00247,-6.66223 -7.70432,-6.35025 -8.65618,0.0123 -17.31507,-0.0425 -25.96953,0.0411 -1.44936,0.15545 -2.84294,0.77054 -3.94336,1.72461 -1.63697,-1.43531 -3.88299,-1.9541 -6.01601,-1.76581 -8.39727,0.0132 -16.79778,-0.0443 -25.19297,0.0431 -1.44659,0.15834 -2.83654,0.7711 -3.93945,1.71875 -1.60576,-1.40366 -3.80217,-1.94735 -5.89844,-1.76187 -8.43588,0.0121 -16.87445,-0.042 -25.3086,0.0412 -1.44831,0.15527 -2.84071,0.77079 -3.9414,1.72266 -1.42185,-1.2025 -3.29598,-1.84764 -5.15625,-1.78516 z m 230.09961,0.002 c -8.65537,0.0614 -17.31452,-0.0226 -25.96977,0.0444 -3.74283,0.23393 -6.906,3.78009 -6.67291,7.53257 0.0232,5.5469 -0.0647,11.10037 0.0592,16.64312 0.39818,3.71467 4.05541,6.65562 7.76393,6.33272 8.63932,-0.0136 17.28188,0.0451 25.91914,-0.043 1.44614,-0.15916 2.83453,-0.77325 3.93359,-1.72461 1.60676,1.40727 3.80694,1.95429 5.90625,1.76773 8.44094,-0.0147 16.88574,0.0471 25.32422,-0.0451 3.70529,-0.33012 6.72554,-3.91064 6.44931,-7.61797 -0.0227,-5.50593 0.0639,-11.01836 -0.0587,-16.52016 -0.37615,-3.70622 -4.0048,-6.66082 -7.70628,-6.35025 -8.65553,0.0123 -17.31377,-0.0425 -25.96757,0.0411 -1.45045,0.15468 -2.84412,0.77236 -3.94532,1.72656 -1.38291,-1.18686 -3.21505,-1.82996 -5.03515,-1.78711 z m 82.8789,0.76758 c -5.41299,0.074 -10.83148,-0.0381 -16.24414,0.0586 -3.64609,0.37825 -6.6683,3.84226 -6.4415,7.52031 0.0231,5.54561 -0.0645,11.09778 0.0591,16.63924 0.39781,3.70534 4.02971,6.64259 7.73128,6.33668 5.4405,-0.0166 10.88535,0.0513 16.32305,-0.049 1.09952,-0.13 2.16169,-0.51852 3.09765,-1.10742 1.64915,1.08653 3.67926,1.28256 5.60235,1.1566 5.05324,-0.0161 10.11091,0.0499 15.16133,-0.0492 1.10098,-0.13287 2.16781,-0.51741 3.10351,-1.11133 1.6479,1.09278 3.68222,1.28455 5.60625,1.16051 5.08599,-0.0223 10.17852,0.0622 15.26039,-0.0589 3.70518,-0.37858 6.66131,-4.00377 6.3503,-7.70627 -0.0226,-5.47195 0.0636,-10.9504 -0.0587,-16.41821 -0.37619,-3.70637 -4.00384,-6.66253 -7.70628,-6.3503 -5.45091,0.0165 -10.90617,-0.0513 -16.35429,0.049 -1.09773,0.13184 -2.16023,0.51677 -3.0918,1.11133 -1.65291,-1.08985 -3.68825,-1.28664 -5.61601,-1.16051 -5.08397,0.0242 -10.17463,-0.066 -15.25437,0.062 -1.06492,0.13443 -2.09028,0.52341 -2.99681,1.09456 -1.34167,-0.85147 -2.95142,-1.22386 -4.53125,-1.17774 z m -350.158198,8.96089 c 0,3.70573 0,7.41146 0,11.11719 -6.92708,0 -13.85417,0 -20.78125,0 0,-3.70573 0,-7.41146 0,-11.11719 6.92708,0 13.85417,0 20.78125,0 z m 35.162108,0 c 0,3.70573 0,7.41146 0,11.11719 -6.9362,0 -13.872398,0 -20.808588,0 0,-3.70573 0,-7.41146 0,-11.11719 6.93619,0 13.872388,0 20.808588,0 z m 35.13867,0 c 0,3.70573 0,7.41146 0,11.11719 -6.92708,0 -13.85417,0 -20.78125,0 0,-3.70573 0,-7.41146 0,-11.11719 6.92708,0 13.85417,0 20.78125,0 z m 35.16016,0 c 0,3.70573 0,7.41146 0,11.11719 -6.93685,0 -13.8737,0 -20.81055,0 0,-3.70573 0,-7.41146 0,-11.11719 6.93685,0 13.8737,0 20.81055,0 z m 35.13867,0 c 0,3.70573 0,7.41146 0,11.11719 -6.92708,0 -13.85417,0 -20.78125,0 0,-3.70573 0,-7.41146 0,-11.11719 6.92708,0 13.85417,0 20.78125,0 z m 124.52344,0 c 0,3.70573 0,7.41146 0,11.11719 -6.92644,0 -13.85287,0 -20.7793,0 0,-3.70573 0,-7.41146 0,-11.11719 6.92643,0 13.85286,0 20.7793,0 z m 35.16015,0 c 0,3.70573 0,7.41146 0,11.11719 -6.92708,0 -13.85416,0 -20.78125,0 0,-3.70573 0,-7.41146 0,-11.11719 6.92709,0 13.85417,0 20.78125,0 z m 48.03907,0.76953 c 0,3.70508 0,7.41016 0,11.11524 -3.7142,0 -7.42839,-10e-6 -11.14258,0 0,-3.70508 0,-7.41016 0,-11.11524 3.71419,0 7.42838,0 11.14258,0 z m 23.86328,0 c 0,3.70508 0,7.41016 0,11.11524 -3.70573,-10e-6 -7.41146,0 -11.11719,0 0,-3.70508 0,-7.41016 0,-11.11524 3.70573,0 7.41146,0 11.11719,0 z m 23.87304,0 c 0,3.70508 0,7.41016 0,11.11524 -3.70638,-10e-6 -7.41276,0 -11.11914,0 0,-3.70508 0,-7.41016 0,-11.11524 3.70638,0 7.41276,0 11.11914,0 z M 47.666016,150.21312 c -5.376191,0.0682 -10.757306,-0.0362 -16.132813,0.0547 -3.696541,0.31318 -6.769922,3.83638 -6.543064,7.54766 0.02304,5.53456 -0.06428,11.07561 0.05884,16.60607 0.312921,2.84533 2.520884,5.32014 5.253758,6.09823 -0.19938,1.98072 -0.0055,3.97707 -0.07903,5.96484 0.02063,3.947 -0.05836,7.89991 0.05986,11.84315 0.376562,3.42226 3.516424,6.25149 6.946905,6.33849 -0.108375,1.07992 -0.02659,2.16572 -0.02344,3.24805 -1.321394,-1.74468 -3.646696,-2.2857 -5.73164,-2.08968 -2.434633,0.04 -4.878616,-0.0755 -7.307422,0.0643 -2.92633,0.4076 -5.121739,3.3766 -4.781577,6.28983 -0.06815,1.93394 -0.08068,4.10358 1.31478,5.62423 1.359244,1.74199 3.71198,2.22215 5.808201,2.02796 2.490025,-0.0539 4.998056,0.12962 7.476052,-0.12062 1.257745,-0.23257 2.404439,-0.95851 3.204028,-1.95031 0.06097,1.68038 -0.113565,3.38399 0.160157,5.04688 0.542691,2.58923 2.625271,4.75638 5.158203,5.48046 -0.206804,1.98943 -0.0081,3.99533 -0.08294,5.99219 0.02064,3.93724 -0.05834,7.88038 0.05981,11.81386 0.394255,3.70712 4.015516,6.66473 7.723521,6.36392 9.139317,-0.01 18.280827,0.0297 27.418747,-0.0313 -0.11258,2.37622 -5.9e-4,4.76131 -0.0417,7.1414 0.0162,3.47416 -0.0446,6.95396 0.0616,10.4244 0.39598,3.70574 4.02992,6.6431 7.73128,6.33668 5.4418,-0.0165 10.88795,0.0513 16.326958,-0.049 1.09715,-0.13294 2.15981,-0.51536 3.09375,-1.10547 1.64591,1.0834 3.67205,1.27628 5.59062,1.15465 5.05975,-0.0162 10.12393,0.05 15.18086,-0.0492 1.09982,-0.13308 2.16606,-0.51474 3.09961,-1.11133 1.67756,1.11707 3.75202,1.28048 5.7082,1.16018 61.61676,9.3e-4 123.23383,0.006 184.85039,-0.0117 3.85128,-0.0747 7.18724,-3.70107 6.94536,-7.54531 -0.003,-5.43803 0.0231,-10.87617 -0.0254,-16.31406 4.78791,-0.0218 9.58323,0.0644 14.36643,-0.0639 1.06726,-0.1361 2.09585,-0.52588 3.00271,-1.1021 1.64967,1.09272 3.68356,1.29378 5.61015,1.16611 9.29765,-0.0125 18.59752,0.0354 27.89375,-0.0333 3.78089,-0.26088 6.89538,-3.91027 6.61138,-7.68007 -0.0167,-5.46877 0.0517,-10.94178 -0.0489,-16.40782 -0.14504,-1.1887 -0.58567,-2.34092 -1.27734,-3.31836 1.02691,-1.66618 1.13633,-3.67637 1.03357,-5.57734 5.3e-4,-1.16628 10e-4,-2.33255 0.002,-3.49883 0.70819,2.41568 3.20052,3.98868 5.66992,3.91406 2.86537,-0.11689 5.75189,0.12649 8.60672,-0.14239 0.43089,-0.0722 0.84741,-0.21915 1.24289,-0.40253 0.0195,8.95748 -0.0231,17.91658 0.0351,26.87305 0.32375,4.84903 4.82354,9.03883 9.71448,8.83569 7.97876,0.0595 15.95864,0.008 23.93787,0.0266 15.59752,-0.007 31.1961,0.0168 46.79297,-0.0302 4.88483,-0.27298 9.13241,-4.79831 8.92553,-9.72034 0.0595,-7.97876 0.008,-15.95863 0.0266,-23.93786 -0.007,-15.59818 0.0168,-31.19741 -0.0302,-46.79493 -0.27115,-4.88521 -4.79671,-9.13293 -9.71838,-8.92748 -8.04543,-0.0598 -16.09198,-0.008 -24.13787,-0.0252 -15.48015,0.008 -30.96076,-0.0146 -46.44062,0.0132 -4.83974,0.20965 -9.13655,4.57034 -9.07618,9.45313 -0.0705,4.93938 -0.007,9.88108 -0.03,14.82148 -4.3e-4,5.48854 -8.6e-4,10.97708 -0.001,16.46563 -1.92771,-0.90074 -4.09388,-0.42553 -6.13984,-0.53749 -1.78598,0.0742 -3.59971,-0.16074 -5.36602,0.15467 -1.85737,0.46386 -3.39173,1.93724 -4.01171,3.73829 0.002,-1.71229 -0.0182,-3.4245 -0.0293,-5.13672 3.27046,-0.30726 5.97214,-3.17221 6.28874,-6.4099 0.12364,-1.93903 -0.006,-3.89035 0.0415,-5.83503 -0.0207,-3.96152 0.0559,-7.9303 -0.066,-11.88713 -0.12863,-1.02867 -0.49807,-2.01804 -1.03371,-2.9031 1.14141,-1.66245 1.36038,-3.74003 1.22887,-5.70195 -0.0224,-5.08143 0.0624,-10.1694 -0.0591,-15.2467 -0.39257,-3.71874 -4.04011,-6.68068 -7.75649,-6.36585 -5.43207,0.018 -10.86924,-0.048 -16.29805,0.0489 -1.09976,0.13174 -2.16307,0.52305 -3.0957,1.11914 -1.64621,-1.09072 -3.67516,-1.29376 -5.59844,-1.16815 -5.05911,0.0175 -10.12257,-0.0467 -15.17891,0.049 -1.10008,0.13204 -2.16216,0.52392 -3.09765,1.11523 -1.64835,-1.09043 -3.67984,-1.29085 -5.6043,-1.16424 -5.05456,0.0174 -10.11341,-0.0466 -15.16523,0.049 -1.0997,0.13671 -2.16335,0.52498 -3.09766,1.11914 -1.67387,-1.12231 -3.74848,-1.28886 -5.7043,-1.16817 -5.03033,0.0173 -10.06501,-0.0464 -15.09257,0.049 -1.09573,0.13131 -2.15444,0.52021 -3.08399,1.11328 -1.6714,-1.11877 -3.743,-1.28132 -5.69453,-1.16231 -5.02968,0.0173 -10.06372,-0.0464 -15.09062,0.049 -1.09883,0.13226 -2.16289,0.52153 -3.09376,1.11914 -1.64967,-1.09476 -3.68651,-1.29438 -5.61406,-1.16815 -5.0539,0.0174 -10.11215,-0.0467 -15.16328,0.049 -1.09959,0.13082 -2.16161,0.52381 -3.09375,1.11914 -1.64414,-1.09286 -3.67441,-1.29254 -5.59648,-1.16815 -5.06041,0.0174 -10.12518,-0.0467 -15.18282,0.049 -1.0977,0.13064 -2.1546,0.52596 -3.08789,1.11523 -1.64517,-1.08773 -3.67168,-1.28919 -5.59257,-1.16424 -5.06107,0.0174 -10.12644,-0.0467 -15.18477,0.049 -1.09987,0.13457 -2.1614,0.52576 -3.0957,1.11914 -1.67595,-1.12185 -3.75095,-1.28897 -5.70821,-1.16817 -5.02187,0.0173 -10.04805,-0.0464 -15.06718,0.049 -1.10009,0.13439 -2.16149,0.52546 -3.09571,1.11914 -1.64681,-1.09679 -3.68261,-1.29347 -5.6082,-1.16815 -5.06302,0.0174 -10.13038,-0.0466 -15.19062,0.049 -1.09591,0.13032 -2.15264,0.52187 -3.08399,1.11132 -1.6405,-1.08591 -3.6633,-1.2837 -5.57891,-1.16033 -5.06822,0.0174 -10.1408,-0.0467 -15.20625,0.049 -1.0985,0.12976 -2.15764,0.52467 -3.08984,1.11718 -1.64334,-1.09138 -3.6719,-1.29029 -5.59258,-1.16619 -5.05976,0.0175 -10.12387,-0.0467 -15.18086,0.049 -1.10083,0.12937 -2.16048,0.52804 -3.095698,1.11914 -1.64422,-1.0924 -3.67438,-1.29248 -5.59648,-1.16815 -5.05911,0.0175 -10.12258,-0.0467 -15.17891,0.049 -1.09974,0.132 -2.16261,0.52314 -3.09766,1.11523 -1.64486,-1.0877 -3.67187,-1.28874 -5.59257,-1.16424 -5.05846,0.0175 -10.12132,-0.0467 -15.176956,0.049 -1.102502,0.13256 -2.169831,0.52223 -3.105469,1.11914 -1.338346,-0.86142 -2.954717,-1.23965 -4.537109,-1.1875 z m -1.84961,9.72656 c 0,3.71484 0,7.42969 0,11.14453 -3.705729,0 -7.411458,0 -11.117187,0 0,-3.71484 0,-7.42969 0,-11.14453 3.705729,0 7.411458,0 11.117187,0 z m 23.896486,0 c 0,3.71484 0,7.42969 0,11.14453 -3.71484,0 -7.42969,0 -11.14453,0 0,-3.71484 0,-7.42969 0,-11.14453 3.71484,0 7.42968,0 11.14453,0 z m 23.86719,0 c 0,3.71484 0,7.42969 0,11.14453 -3.7142,0 -7.42839,0 -11.14258,0 0,-3.71484 0,-7.42969 0,-11.14453 3.71419,0 7.42838,0 11.14258,0 z m 23.873038,0 c 0,3.71484 0,7.42969 0,11.14453 -3.70508,0 -7.41015,0 -11.11523,0 0,-3.71484 0,-7.42969 0,-11.14453 3.70508,0 7.41016,0 11.11523,0 z m 23.86328,0 c 0,3.71484 0,7.42969 0,11.14453 -3.70572,0 -7.41145,0 -11.11718,0 0,-3.71484 0,-7.42969 0,-11.14453 3.70573,0 7.41146,0 11.11718,0 z m 23.8711,0 c 0,3.71484 0,7.42969 0,11.14453 -3.70573,0 -7.41146,0 -11.11719,0 0,-3.71484 0,-7.42969 0,-11.14453 3.70573,0 7.41146,0 11.11719,0 z m 23.87109,0 c 0,3.71484 0,7.42969 0,11.14453 -3.70573,0 -7.41146,0 -11.11719,0 0,-3.71484 0,-7.42969 0,-11.14453 3.70573,0 7.41146,0 11.11719,0 z m 23.89844,0 c 0,3.71484 0,7.42969 0,11.14453 -3.71484,0 -7.42969,0 -11.14453,0 0,-3.71484 0,-7.42969 0,-11.14453 3.71484,0 7.42969,0 11.14453,0 z m 23.86133,0 c 0,3.71484 0,7.42969 0,11.14453 -3.70508,0 -7.41016,0 -11.11524,0 0,-3.71484 0,-7.42969 0,-11.14453 3.70508,0 7.41016,0 11.11524,0 z m 23.87109,0 c 0,3.71484 0,7.42969 0,11.14453 -3.70573,0 -7.41146,0 -11.11719,0 0,-3.71484 0,-7.42969 0,-11.14453 3.70573,0 7.41146,0 11.11719,0 z m 23.87305,0 c 0,3.71484 0,7.42969 0,11.14453 -3.70638,0 -7.41276,0 -11.11914,0 0,-3.71484 0,-7.42969 0,-11.14453 3.70638,0 7.41276,0 11.11914,0 z m 23.87109,0 c 0,3.71484 0,7.42969 0,11.14453 -3.70573,0 -7.41146,0 -11.11719,0 0,-3.71484 0,-7.42969 0,-11.14453 3.70573,0 7.41146,0 11.11719,0 z m 23.86914,0 c 0,3.71484 0,7.42969 0,11.14453 -3.70573,0 -7.41146,0 -11.11719,0 0,-3.71484 10e-6,-7.42969 0,-11.14453 3.70573,0 7.41146,0 11.11719,0 z m 23.88867,0 c 0,3.71484 0,7.42969 0,11.14453 -3.71419,0 -7.42838,0 -11.14257,0 0,-3.71484 0,-7.42969 0,-11.14453 3.71419,0 7.42838,0 11.14257,0 z m 23.87305,0 c 0,3.71484 0,7.42969 0,11.14453 -3.70573,0 -7.41146,0 -11.11719,0 0,-3.71484 0,-7.42969 0,-11.14453 3.70573,0 7.41146,0 11.11719,0 z m 28.64453,15.35156 c 6.63478,0.064 13.27659,0.009 19.91406,0.0273 -6.67141,6.70602 -13.38948,13.3658 -20.05468,20.07813 0.004,-6.69112 -0.0182,-13.39507 0.0215,-20.07813 0.0379,-0.0146 0.0785,-0.0252 0.11914,-0.0273 z m 69.82813,0.0273 c 0.20942,0.14477 -0.06,0.60216 0.0488,0.83165 0,6.28593 0,12.57187 0,18.85781 -6.59534,-6.54785 -13.13652,-13.14701 -19.73633,-19.68946 6.5625,0 13.125,0 19.6875,0 z m -34.59961,3.45704 c 2.12778,0.0534 3.94232,1.39927 5.27734,2.95515 2.55338,2.55401 5.10677,5.10802 7.66016,7.66203 -4.4336,4.4336 -8.86719,8.86719 -13.30078,13.30078 -4.43229,-4.43294 -8.86459,-8.86588 -13.29688,-13.29882 3.16363,-3.12571 6.23869,-6.35147 9.48758,-9.38632 1.19055,-0.88035 2.69594,-1.31679 4.17258,-1.23282 z m -386.828128,5.06054 c 0,3.70573 0,7.41146 0,11.11719 -5.725257,0 -11.450518,0 -17.175778,0 0,-3.70573 0,-7.41146 0,-11.11719 5.72526,0 11.450521,0 17.175778,0 z m 23.86914,0 c 0,3.70638 0,7.41276 0,11.11914 -3.71419,0 -7.42838,0 -11.14257,0 0,-3.70638 0,-7.41276 0,-11.11914 3.71419,0 7.42838,0 11.14257,0 z m 23.873048,0 c 0,3.70638 0,7.41276 0,11.11914 -3.70573,0 -7.411458,0 -11.117188,0 0,-3.70638 0,-7.41276 0,-11.11914 3.70573,0 7.411458,0 11.117188,0 z m 23.86328,0 c 0,3.70638 0,7.41276 0,11.11914 -3.70573,0 -7.41146,0 -11.11719,0 0,-3.70638 0,-7.41276 0,-11.11914 3.70573,0 7.41146,0 11.11719,0 z m 23.8711,0 c 0,3.70638 0,7.41276 0,11.11914 -3.70573,0 -7.41146,0 -11.11719,0 0,-3.70638 0,-7.41276 0,-11.11914 3.70573,0 7.41146,0 11.11719,0 z m 23.86914,0 c 0,3.70638 0,7.41276 0,11.11914 -3.70508,0 -7.41016,0 -11.11524,0 0,-3.70638 0,-7.41276 0,-11.11914 3.70508,0 7.41016,0 11.11524,0 z m 23.90039,0 c 0,3.70638 0,7.41276 0,11.11914 -3.71485,0 -7.42969,0 -11.14453,0 0,-3.70638 0,-7.41276 0,-11.11914 3.71484,0 7.42968,0 11.14453,0 z m 23.86914,0 c 0,3.70638 0,7.41276 0,11.11914 -3.70508,0 -7.41016,0 -11.11524,0 0,-3.70638 0,-7.41276 0,-11.11914 3.70508,0 7.41016,0 11.11524,0 z m 23.86328,0 c 0,3.70638 0,7.41276 0,11.11914 -3.70573,0 -7.41146,0 -11.11719,0 0,-3.70638 0,-7.41276 0,-11.11914 3.70573,0 7.41146,0 11.11719,0 z m 23.87109,0 c 0,3.70638 0,7.41276 0,11.11914 -3.70508,0 -7.41015,0 -11.11523,0 0,-3.70638 0,-7.41276 0,-11.11914 3.70508,0 7.41015,0 11.11523,0 z m 23.87305,0 c 0,3.70638 0,7.41276 0,11.11914 -3.70638,0 -7.41276,0 -11.11914,0 0,-3.70638 0,-7.41276 0,-11.11914 3.70638,0 7.41276,0 11.11914,0 z m 23.86914,0 c 0,3.70638 0,7.41276 0,11.11914 -3.70573,0 -7.41146,0 -11.11719,0 0,-3.70638 0,-7.41276 0,-11.11914 3.70573,0 7.41146,0 11.11719,0 z m 23.89063,0 c -10e-6,3.70638 0,7.41276 0,11.11914 -3.7155,0 -7.43099,0 -11.14649,0 0,-3.70638 0,-7.41276 0,-11.11914 3.7155,0 7.43099,0 11.14649,0 z m 36.33984,0 c 0,3.70638 0,7.41276 0,11.11914 -7.86198,0 -15.72396,0 -23.58594,0 0,-3.70638 0,-7.41276 0,-11.11914 7.86198,0 15.72396,0 23.58594,0 z m 56.01562,26.49024 c -4.43294,4.43294 -8.86588,8.86588 -13.29882,13.29882 -3.12653,-3.15939 -6.34171,-6.23917 -9.38465,-9.47811 -1.90535,-2.47693 -1.60413,-6.38195 0.75574,-8.46915 2.84385,-2.91536 5.75735,-5.76219 8.62305,-8.65625 4.43489,4.4349 8.86979,8.86979 13.30468,13.30469 z m 37.28516,-4.57813 c 2.4322,2.28293 2.56617,6.5439 0.20117,8.92774 -1.83245,1.91096 -3.751,3.73889 -5.60218,5.63308 -1.10656,1.10733 -2.21313,2.21466 -3.31969,3.32199 -4.43425,-4.43424 -8.86849,-8.86849 -13.30274,-13.30273 4.43425,-4.43359 8.86849,-8.86719 13.30274,-13.30078 2.9069,2.9069 5.8138,5.8138 8.7207,8.7207 z m -409.955078,1.98633 c 0,3.70573 0,7.41146 0,11.11719 -5.45898,0 -10.917967,0 -16.376951,0 0,-3.70573 0,-7.41146 0,-11.11719 5.458984,0 10.917971,0 16.376951,0 z m 23.8711,0 c 0,3.70573 0,7.41146 0,11.11719 -3.70638,0 -7.41276,0 -11.11914,0 -1e-5,-3.70573 0,-7.41146 0,-11.11719 3.70638,0 7.41276,0 11.11914,0 z m 23.871088,0 c 0,3.70573 0,7.41146 0,11.11719 -3.70573,0 -7.41146,0 -11.117188,0 0,-3.70573 0,-7.41146 0,-11.11719 3.705728,0 7.411458,0 11.117188,0 z m 23.86523,0 c 0,3.70573 0,7.41146 0,11.11719 -3.70638,0 -7.41276,0 -11.11914,0 0,-3.70573 0,-7.41146 0,-11.11719 3.70638,0 7.41276,0 11.11914,0 z m 23.86719,0 c 0,3.70573 0,7.41146 0,11.11719 -3.70508,0 -7.41015,0 -11.11523,0 0,-3.70573 0,-7.41146 0,-11.11719 3.70508,0 7.41015,0 11.11523,0 z m 23.90039,0 c 0,3.70573 0,7.41146 0,11.11719 -3.71484,0 -7.42969,0 -11.14453,0 0,-3.70573 0,-7.41146 0,-11.11719 3.71484,0 7.42969,0 11.14453,0 z m 23.86914,0 c 0,3.70573 0,7.41146 0,11.11719 -3.71419,0 -7.42838,0 -11.14258,0 0,-3.70573 0,-7.41146 0,-11.11719 3.7142,0 7.42839,0 11.14258,0 z m 23.86524,0 c 0,3.70573 0,7.41146 0,11.11719 -3.70638,0 -7.41276,0 -11.11914,0 0,-3.70573 0,-7.41146 0,-11.11719 3.70638,0 7.41276,0 11.11914,0 z m 23.87109,0 c 0,3.70573 0,7.41146 0,11.11719 -3.70573,0 -7.41146,0 -11.11719,0 0,-3.70573 0,-7.41146 0,-11.11719 3.70573,0 7.41146,0 11.11719,0 z m 23.86914,0 c 0,3.70573 0,7.41146 0,11.11719 -3.70508,0 -7.41016,0 -11.11523,0 0,-3.70573 0,-7.41146 0,-11.11719 3.70507,0 7.41015,0 11.11523,0 z m 23.87109,0 c 0,3.70573 10e-6,7.41146 0,11.11719 -3.70507,0 -7.41015,0 -11.11523,0 0,-3.70573 0,-7.41146 0,-11.11719 3.70508,0 7.41016,0 11.11523,0 z m 23.89649,0 c 0,3.70573 0,7.41146 0,11.11719 -3.71419,0 -7.42839,0 -11.14258,0 0,-3.70573 0,-7.41146 0,-11.11719 3.71419,0 7.42839,0 11.14258,0 z m 23.86523,0 c 0,3.70573 0,7.41146 0,11.11719 -3.70573,0 -7.41145,0 -11.11718,0 0,-3.70573 0,-7.41146 0,-11.11719 3.70573,0 7.41145,0 11.11718,0 z m 23.8711,0 c 0,3.70573 0,7.41146 0,11.11719 -3.70573,0 -7.41146,0 -11.11719,0 0,-3.70573 0,-7.41146 0,-11.11719 3.70573,0 7.41146,0 11.11719,0 z M 456.875,231.258 c -3.17704,3.13824 -6.26477,6.37409 -9.52521,9.42342 -2.49479,1.86802 -6.37795,1.54608 -8.44728,-0.8228 -2.90528,-2.84663 -5.7469,-5.75765 -8.63298,-8.62406 4.43359,-4.43359 8.86719,-8.86719 13.30078,-13.30078 4.4349,4.4414 8.86979,8.88281 13.30469,13.32422 z m 21.71094,14.02929 c -0.14359,0.20839 -0.60425,-0.0593 -0.8336,0.0488 -6.41614,0 -12.83229,0 -19.24844,0 6.67734,-6.7185 13.40571,-13.38779 20.08204,-20.10742 0,6.6862 0,13.3724 0,20.05859 z M 410.1582,227.25214 c 6.02801,6.03576 12.05591,12.07178 18.10742,18.08398 -6.56445,0.001 -13.12892,0.008 -19.69336,-0.0137 -0.01,-6.53387 -8.1e-4,-13.09458 -0.004,-19.63867 0.52995,0.52279 1.05989,1.04557 1.58984,1.56836 z m -335.613278,4.35355 c 0,3.71485 0,7.42969 0,11.14453 -7.47005,0 -14.9401,10e-6 -22.410156,0 0,-3.71484 0,-7.42968 0,-11.14453 7.470056,0 14.940106,0 22.410156,0 z m 23.86719,0 c 0,3.71485 0,7.42969 0,11.14453 -3.70508,0 -7.41016,10e-6 -11.11524,0 0,-3.71484 0,-7.42968 0,-11.14453 3.70508,0 7.41016,0 11.11524,0 z m 23.867188,0 c -1e-5,3.71485 0,7.42969 0,11.14453 -3.70508,0 -7.41016,10e-6 -11.11524,0 0,-3.71484 0,-7.42968 0,-11.14453 3.70508,0 7.41016,0 11.11524,0 z m 23.87304,0 c 0,3.71485 0,7.42969 0,11.14453 -3.70573,0 -7.41146,0 -11.11719,0 0,-3.71484 0,-7.42968 0,-11.14453 3.70573,0 7.41146,0 11.11719,0 z m 23.89649,0 c 0,3.71485 0,7.42969 0,11.14453 -3.7142,0 -7.42839,10e-6 -11.14258,0 0,-3.71484 0,-7.42968 0,-11.14453 3.71419,0 7.42838,0 11.14258,0 z m 23.87109,0 c 0,3.71485 0,7.42969 0,11.14453 -3.71419,0 -7.42839,10e-6 -11.14258,0 0,-3.71484 0,-7.42968 0,-11.14453 3.71419,0 7.42839,0 11.14258,0 z m 23.86328,0 c 0,3.71485 0,7.42969 0,11.14453 -3.70573,10e-6 -7.41146,0 -11.11719,0 0,-3.71484 0,-7.42968 0,-11.14453 3.70573,0 7.41146,0 11.11719,0 z m 23.8711,0 c -1e-5,3.71485 0,7.42969 0,11.14453 -3.70573,10e-6 -7.41146,0 -11.11719,0 0,-3.71484 0,-7.42968 0,-11.14453 3.70573,0 7.41146,0 11.11719,0 z m 23.86914,0 c 0,3.71485 0,7.42969 0,11.14453 -3.70508,0 -7.41016,10e-6 -11.11524,0 0,-3.71484 0,-7.42968 0,-11.14453 3.70508,0 7.41016,0 11.11524,0 z m 23.87304,0 c 0,3.71485 0,7.42969 0,11.14453 -3.70573,10e-6 -7.41146,0 -11.11718,0 0,-3.71484 0,-7.42968 0,-11.14453 3.70572,0 7.41145,0 11.11718,0 z m 23.88867,0 c 0,3.71485 0,7.42969 0,11.14453 -3.71419,10e-6 -7.42838,0 -11.14257,0 0,-3.71484 0,-7.42968 0,-11.14453 3.71419,0 7.42838,0 11.14257,0 z m 23.8711,0 c 0,3.71485 0,7.42969 0,11.14453 -3.70573,10e-6 -7.41146,0 -11.11719,0 0,-3.71484 0,-7.42968 0,-11.14453 3.70573,0 7.41146,0 11.11719,0 z m 36.76758,0 c 0,3.71485 0,7.42969 0,11.14453 -8.00456,0 -16.00912,0 -24.01368,0 0,-3.71484 0,-7.42968 0,-11.14453 8.00456,0 16.00912,0 24.01368,0 z M 105.2832,247.55882 c 0.52829,0.28479 1.1046,0.76046 1.01624,1.42557 0.26445,0.85992 -0.44899,1.68589 -1.31731,1.70306 -0.8488,0.0364 -1.80791,-0.52327 -1.80036,-1.46136 -0.15217,-1.13925 1.03197,-2.03617 2.10143,-1.66727 z m 23.93945,0.0332 c 0.48681,0.30361 1.04725,0.74371 0.91626,1.39019 0.22936,0.76849 -0.26614,1.63627 -1.10935,1.65659 -0.86497,0.16392 -1.98391,-0.42421 -1.958,-1.40692 -0.15839,-1.16526 1.07268,-2.0654 2.15109,-1.63986 z m -30.783198,7.91016 c 0,3.70573 0,7.41146 0,11.11719 -3.71419,0 -7.42838,0 -11.14258,0 0,-3.70573 0,-7.41146 0,-11.11719 3.7142,0 7.42839,0 11.14258,0 z m 23.867188,0 c 0,3.70573 0,7.41146 0,11.11719 -3.71484,0 -7.42969,0 -11.14453,0 0,-3.70573 0,-7.41146 0,-11.11719 3.71484,0 7.42968,0 11.14453,0 z m 194.1582,0 c 0,3.70573 0,7.41146 0,11.11719 -60.4681,0 -120.9362,0 -181.4043,0 0,-3.70573 0,-7.41146 0,-11.11719 60.4681,0 120.9362,0 181.4043,0 z" /><path
   id="polyline5"
   d="m 9.207031,4.0236623 c -0.907,0 -1.68164,0.75025 -1.68164,1.65625 V 12.433819 H 4.855469 4 v 0.853515 84.128906 0.85547 h 0.855469 3.84375 v 3.38477 c -0.6442,0.23094 -1.173828,0.73504 -1.173828,1.44726 v 208.51758 c 0,0.906 0.77364,1.65625 1.68164,1.65625 H 502.71289 c 0.906,0 1.6543,-0.75125 1.6543,-1.65625 V 103.10374 c 0,-0.905 -0.7503,-1.6543 -1.6543,-1.6543 h -0.15625 v -3.17773 h 4.51758 0.85351 V 97.41624 13.287334 12.433819 h -0.85351 -2.70508 V 5.6799123 c 0,-0.905999 -0.75025,-1.65625 -1.65625,-1.65625 z m 0.02539,1.708985 H 502.66211 v 6.7011717 h -275.77149 -0.85547 v 0.853515 84.128906 0.85547 h 0.85547 273.95703 v 3.17773 H 10.408203 v -3.17773 h 22.214844 0.853516 V 97.41624 13.287334 12.433819 H 32.623047 9.232422 Z M 39.109374,13.287334 V 96.56468 h -3.150391 v 1.70703 h 4.00586 0.853516 V 97.41819 13.287334 Z m 7.341797,0 V 96.56468 h -3.148438 v 1.70703 h 4.003907 0.853515 V 97.41819 13.287334 Z m 7.341797,0 V 96.56468 H 50.64453 v 1.70703 h 4.003907 0.853515 V 97.41819 13.287334 Z m 7.369143,0 V 96.56468 h -3.17578 v 1.70703 h 4.03125 0.85351 V 97.41819 13.287334 Z m 7.34375,0 V 96.56468 h -3.17774 v 1.70703 h 4.03125 0.85547 V 97.41819 13.287334 Z m 7.34179,0 V 96.56468 h -3.17578 v 1.70703 h 4.03125 0.85352 V 97.41819 13.287334 Z m 7.34375,0 V 96.56468 h -3.17773 v 1.70703 h 4.03125 0.85547 V 97.41819 13.287334 Z m 7.33985,0 V 96.56468 h -3.17774 v 1.70703 h 4.03321 0.85351 V 97.41819 13.287334 Z m 7.34765,0 V 96.56468 h -3.17773 v 1.70703 h 4.0332 0.85352 V 97.41819 13.287334 Z m 7.339849,0 V 96.56468 h -3.17774 v 1.70703 h 4.03125 0.85352 V 97.41819 13.287334 Z m 7.33984,0 V 96.56468 h -3.17773 v 1.70703 h 4.03125 0.85547 V 97.41819 13.287334 Z m 7.34571,0 V 96.56468 h -3.17579 v 1.70703 h 4.03125 0.85352 V 97.41819 13.287334 Z m 7.33984,0 V 96.56468 h -3.17774 v 1.70703 h 4.03125 0.85352 V 97.41819 13.287334 Z m 7.33789,0 V 96.56468 h -3.17578 v 1.70703 h 4.03125 0.85351 V 97.41819 13.287334 Z m 7.34961,0 V 96.56468 h -3.17774 v 1.70703 h 4.03125 0.85547 V 97.41819 13.287334 Z m 7.33789,0 V 96.56468 h -3.17773 v 1.70703 h 4.03124 0.85547 V 97.41819 13.287334 Z m 7.33984,0 V 96.56468 h -3.17773 v 1.70703 h 4.0332 0.85352 V 97.41819 13.287334 Z m 7.34766,0 V 96.56468 h -3.17773 v 1.70703 h 4.0332 0.85351 V 97.41819 13.287334 Z m 7.33984,0 V 96.56468 h -3.17968 v 1.70703 h 4.0332 0.85547 V 97.41819 13.287334 Z m 7.34766,0 V 96.56468 h -3.17773 v 1.70703 h 4.03124 0.85352 V 97.41819 13.287334 Z m 7.33789,0 V 96.56468 h -3.17578 v 1.70703 h 4.03125 0.85351 V 97.41819 13.287334 Z m 7.33984,0 V 96.56468 h -3.17773 v 1.70703 h 4.03125 0.85547 V 97.41819 13.287334 Z m 7.34571,0 V 96.56468 h -3.17578 v 1.70703 h 4.03125 0.85351 V 97.41819 13.287334 Z m 7.33984,0 V 96.56468 h -3.17773 v 1.70703 h 4.0332 0.85352 V 97.41819 13.287334 Z m 7.34766,0 V 96.56468 h -3.17578 v 1.70703 h 4.03125 0.85351 V 97.41819 13.287334 Z m 7.33984,0 V 96.56468 h -3.17773 v 1.70703 h 4.03125 0.85351 V 97.41819 13.287334 Z M 5.708984,14.142803 H 31.767578 V 96.56272 H 5.708984 Z m 222.035156,0 H 506.2207 V 96.56272 H 227.74414 Z m 70.91211,8.490235 c -0.906,0 -1.65625,0.748296 -1.65625,1.654296 v 32.894532 c 0,0.905 0.75025,1.654296 1.65625,1.654296 h 196.88281 c 0.906,0 1.65625,-0.748296 1.65625,-1.654296 V 24.287334 c 0,-0.905 -0.75025,-1.654296 -1.65625,-1.654296 z m 0.0547,1.708984 H 495.48242 V 57.127178 H 298.71094 Z m 5.73828,3.070312 c -1.128,0 -2.08203,0.928641 -2.08203,2.056641 v 22.533203 c 0,1.128 0.95403,2.056641 2.08203,2.056641 h 148.26172 c 0.799,0 1.36703,-0.527172 1.70703,-1.201172 h 0.34961 V 52.002178 29.468975 c 0,-1.128 -0.92664,-2.056641 -2.05664,-2.056641 z m 172.95312,1.601563 c -6.465,0 -11.7207,5.257656 -11.7207,11.722656 0,6.464 5.2547,11.720703 11.7207,11.720703 6.465,0 11.72071,-5.256703 11.7207,-11.720703 0,-6.465 -5.2557,-11.722656 -11.7207,-11.722656 z m -172.95313,0.107422 h 148.26172 c 0.205,0 0.34765,0.142656 0.34765,0.347656 v 21.679687 0.853516 c 0,0.205 -0.14265,0.347656 -0.34765,0.347656 H 304.44922 c -0.204,0 -0.37305,-0.143656 -0.37305,-0.347656 V 29.468975 c 0,-0.205 0.16905,-0.347656 0.37305,-0.347656 z m 2.26562,1.09375 c -0.684,0 -1.25586,0.568859 -1.25586,1.255859 v 18.527344 c 0,0.687 0.57186,1.255859 1.25586,1.255859 h 143.98633 c 0.686,0 1.25586,-0.571859 1.25586,-1.255859 V 31.470928 c 0,-0.685 -0.56986,-1.255859 -1.25586,-1.255859 z m 170.6875,0.507812 c 5.54,0 10.01172,4.471672 10.01172,10.013672 0,5.541 -4.47172,10.011719 -10.01172,10.011719 -5.541,0 -10.01172,-4.470719 -10.01172,-10.011719 10e-4,-5.542 4.47072,-10.013672 10.01172,-10.013672 z M 307.16797,31.924053 H 450.25 V 49.545147 H 307.16797 Z m 19.17187,0.02734 c -0.906,0 -1.6543,0.77464 -1.6543,1.681641 v 14.177734 c 0,0.906 0.7483,1.65625 1.6543,1.65625 h 0.50781 c 0.905,0 1.6543,-0.75125 1.6543,-1.65625 v -14.17773 c 0,-0.905001 -0.7493,-1.681641 -1.6543,-1.681641 z m 104.875,0 c -0.906,0 -1.65625,0.776641 -1.65625,1.681641 v 14.177734 c 0,0.905 0.75025,1.65625 1.65625,1.65625 h 0.50781 c 0.906,0 1.6543,-0.75025 1.6543,-1.65625 v -14.17773 c 0,-0.906 -0.7483,-1.681641 -1.6543,-1.681641 z m -104.82031,1.708984 h 0.39844 v 14.097657 h -0.39844 z m 104.87305,0 h 0.40039 v 14.097657 h -0.40039 z M 9.232422,103.15648 H 502.66211 V 311.57249 H 9.232422 Z M 53.6875,119.12522 c -1.796,0 -3.257812,1.46182 -3.257812,3.25782 v 16.01953 c 0,1.795 1.461812,3.25586 3.257812,3.25586 h 25.683592 c 1.794,0 3.25781,-1.45986 3.25781,-3.25586 v -16.01953 c 0,-1.796 -1.46281,-3.25782 -3.25781,-3.25782 z m 35.162112,0 c -1.796,0 -3.28321,1.46182 -3.28321,3.25782 v 16.01953 c 0,1.794 1.48721,3.25586 3.28321,3.25586 h 25.658198 c 1.795,0 3.2832,-1.45986 3.2832,-3.25586 v -16.01953 c 0,-1.796 -1.4882,-3.25782 -3.2832,-3.25782 z m 35.138668,0 c -1.796,0 -3.25586,1.46282 -3.25586,3.25782 v 16.01953 c 0,1.794 1.45886,3.25586 3.25586,3.25586 h 25.68555 c 1.795,0 3.25586,-1.45986 3.25586,-3.25586 v -16.01953 c 0,-1.796 -1.46086,-3.25782 -3.25586,-3.25782 z m 35.1582,0 c -1.796,0 -3.28515,1.46282 -3.28515,3.25782 v 16.01953 c 0,1.794 1.48815,3.25586 3.28515,3.25586 h 25.65821 c 1.796,0 3.28515,-1.45986 3.28515,-3.25586 v -0.85352 -15.16601 c 0,-1.796 -1.48915,-3.25782 -3.28515,-3.25782 z m 35.14063,0 c -1.795,0 -3.25781,1.46182 -3.25781,3.25782 v 16.01953 c 0,1.794 1.46181,3.25586 3.25781,3.25586 h 25.68554 c 1.795,0 3.25586,-1.45986 3.25586,-3.25586 v -16.01953 c 0,-1.795 -1.45986,-3.25782 -3.25586,-3.25782 z m 124.55273,0 c -1.795,0 -3.2832,1.46182 -3.2832,3.25782 v 16.01953 c 0,1.796 1.4882,3.25586 3.2832,3.25586 h 25.65625 c 1.797,0 3.25586,-1.45986 3.25586,-3.25586 v -16.01953 c 0,-1.795 -1.45886,-3.25782 -3.25586,-3.25782 z m 35.13086,0 c -1.795,0 -3.25781,1.46182 -3.25781,3.25782 v 16.01953 c 0,1.796 1.46281,3.25586 3.25781,3.25586 h 25.6836 c 1.79599,0 3.25781,-1.45986 3.25781,-3.25586 v -16.01953 c 0,-1.794 -1.45982,-3.25782 -3.25781,-3.25782 z m 57.70508,0.76954 c -1.795,0 -3.2832,1.46281 -3.2832,3.25781 v 16.01758 c 0,1.796 1.4882,3.25781 3.2832,3.25781 h 15.99219 c 1.794,0 3.2832,-1.46081 3.2832,-3.25781 v -16.01758 c 0,-1.796 -1.4882,-3.25781 -3.2832,-3.25781 z m 23.86133,0 c -1.796,0 -3.25781,1.46181 -3.25781,3.25781 v 16.01758 c 0,1.796 1.46181,3.25781 3.25781,3.25781 h 15.99219 c 1.79599,0 3.28515,-1.46181 3.28515,-3.25781 v -16.01758 c 0,-1.795 -1.48715,-3.25781 -3.28515,-3.25781 z m 23.87109,0 c -1.794,0 -3.25781,1.46181 -3.25781,3.25781 v 16.01758 c 0,1.796 1.46381,3.25781 3.25781,3.25781 h 16.02149 c 1.794,0 3.25781,-1.46081 3.25781,-3.25781 v -16.01758 c 0,-1.796 -1.46281,-3.25781 -3.25781,-3.25781 z m -405.7207,0.93945 h 25.683592 c 0.871,0 1.54883,0.67583 1.54883,1.54883 v 16.01953 c 0,0.873 -0.67783,1.54883 -1.54883,1.54883 H 53.6875 c -0.873,0 -1.548828,-0.67583 -1.548828,-1.54883 v -16.01953 c 0,-0.874 0.676828,-1.54883 1.548828,-1.54883 z m 35.162112,0 h 25.658198 c 0.871,0 1.57422,0.67583 1.57422,1.54883 v 16.01953 c 0,0.873 -0.70322,1.54883 -1.57422,1.54883 H 88.849612 c -0.873,0 -1.57617,-0.67583 -1.57617,-1.54883 v -16.01953 c 0,-0.874 0.70417,-1.54883 1.57617,-1.54883 z m 35.138668,0 h 25.68555 c 0.872,0 1.54687,0.67583 1.54687,1.54883 v 16.01953 c 0,0.873 -0.67587,1.54883 -1.54687,1.54883 h -25.68555 c -0.874,0 -1.54883,-0.67583 -1.54883,-1.54883 v -16.01953 c 0.001,-0.875 0.67683,-1.54883 1.54883,-1.54883 z m 35.1582,0 h 25.65821 c 0.872,0 1.57617,0.67583 1.57617,1.54883 v 16.01953 c 0,0.873 -0.70317,1.54883 -1.57617,1.54883 h -25.65821 c -0.874,0 -1.57617,-0.67583 -1.57617,-1.54883 v -16.01953 c 0,-0.875 0.70317,-1.54883 1.57617,-1.54883 z m 35.14063,0 h 25.68554 c 0.873,0 1.54688,0.67483 1.54688,1.54883 v 16.01953 c 0,0.873 -0.67488,1.54883 -1.54688,1.54883 h -25.68554 c -0.872,0 -1.54883,-0.67583 -1.54883,-1.54883 v -16.01953 c -0.001,-0.874 0.67683,-1.54883 1.54883,-1.54883 z m 124.55273,0 h 25.65625 c 0.874,0 1.54688,0.67483 1.54688,1.54883 v 16.01953 c 0,0.873 -0.67288,1.54883 -1.54688,1.54883 h -25.65625 c -0.871,0 -1.57617,-0.67583 -1.57617,-1.54883 v -16.01953 c 0,-0.873 0.70517,-1.54883 1.57617,-1.54883 z m 35.13086,0 h 25.6836 c 0.87299,0 1.54882,0.67483 1.54882,1.54883 v 16.01953 c 0,0.873 -0.67583,1.54883 -1.54882,1.54883 h -25.6836 c -0.872,0 -1.54883,-0.67583 -1.54883,-1.54883 v -16.01953 c 0,-0.873 0.67883,-1.54883 1.54883,-1.54883 z m 57.70508,0.76953 h 15.99219 c 0.871,0 1.57422,0.67683 1.57422,1.54883 v 16.01758 c 0,0.874 -0.70322,1.54882 -1.57422,1.54883 h -15.99219 c -0.875,0 -1.57617,-0.67483 -1.57617,-1.54883 v -16.01758 c 0,-0.874 0.70317,-1.54883 1.57617,-1.54883 z m 23.86133,0 h 15.99219 c 0.874,0 1.57617,0.67583 1.57617,1.54883 v 16.01758 c 0,0.874 -0.70217,1.54882 -1.57617,1.54883 h -15.99219 c -0.873,0 -1.54883,-0.67483 -1.54883,-1.54883 v -16.01758 c 0,-0.873 0.67783,-1.54883 1.54883,-1.54883 z m 23.87109,0 h 16.02149 c 0.871,0 1.54882,0.67683 1.54882,1.54883 v 16.01758 c 0,0.874 -0.67782,1.54882 -1.54882,1.54883 H 459.4082 c -0.872,0 -1.54883,-0.67483 -1.54883,-1.54883 v -16.01758 c 0,-0.873 0.67883,-1.54883 1.54883,-1.54883 z m -425.238278,3.15234 c -0.908,0 -1.654297,0.75025 -1.654297,1.65625 v 6.9668 c 0,0.905 0.748297,1.6836 1.654297,1.68359 h 9.130859 c 0.907,0 1.654297,-0.77759 1.654297,-1.68359 v -6.9668 c 0,-0.906 -0.747297,-1.65625 -1.654297,-1.65625 z m 0.05273,1.70899 h 9.023438 v 6.88867 h -9.023438 z m -1.949218,27.76758 c -1.795,0 -3.283203,1.4862 -3.283204,3.2832 v 15.99414 c 0,1.796 1.486204,3.2832 3.283204,3.2832 h 15.99414 c 1.796,0 3.257813,-1.4862 3.257813,-3.2832 v -0.85547 -15.13867 c 0,-1.795 -1.461813,-3.2832 -3.257813,-3.2832 z m 23.871093,0 c -1.795,0 -3.285156,1.4862 -3.285156,3.2832 v 15.99414 c 0,1.796 1.488156,3.2832 3.285156,3.2832 h 15.992195 c 1.796,0 3.28515,-1.4862 3.28515,-3.2832 v -15.99414 c 0,-1.796 -1.49015,-3.2832 -3.28515,-3.2832 z m 23.869141,0 c -1.794,0 -3.28516,1.4862 -3.28516,3.2832 v 15.99414 c 0,1.795 1.48816,3.2832 3.28516,3.2832 h 15.99219 c 1.795,0 3.2832,-1.4862 3.2832,-3.2832 v -15.99414 c 0,-1.795 -1.4872,-3.2832 -3.2832,-3.2832 z m 23.871092,0 c -1.794,0 -3.25586,1.4862 -3.25586,3.2832 v 15.99414 c 0,1.796 1.45986,3.2832 3.25586,3.2832 h 15.99414 c 1.796,0 3.28321,-1.4862 3.28321,-3.2832 v -15.99414 c 0,-1.796 -1.48821,-3.2832 -3.28321,-3.2832 z m 23.86328,0 c -1.794,0 -3.25781,1.4862 -3.25781,3.2832 v 15.99414 c 0,1.795 1.46081,3.2832 3.25781,3.2832 h 16.01954 c 1.795,0 3.25781,-1.4862 3.25781,-3.2832 v -15.99414 c 0,-1.795 -1.46281,-3.2832 -3.25781,-3.2832 z m 23.8711,0 c -1.795,0 -3.25781,1.4862 -3.25781,3.2832 v 15.99414 c 0,1.796 1.46181,3.2832 3.25781,3.2832 h 16.01953 c 1.796,0 3.25781,-1.4862 3.25781,-3.2832 v -15.99414 c 0,-1.796 -1.46281,-3.2832 -3.25781,-3.2832 z m 23.89844,0 c -1.794,0 -3.28516,1.4862 -3.28516,3.2832 v 15.99414 c 0,1.796 1.48916,3.2832 3.28516,3.2832 h 15.99218 c 1.795,0 3.25782,-1.4862 3.25782,-3.2832 v -15.99414 c 0,-1.796 -1.46382,-3.2832 -3.25782,-3.2832 z m 23.87109,0 c -1.794,0 -3.28516,1.4862 -3.28516,3.2832 v 15.99414 c 0,1.796 1.49016,3.2832 3.28516,3.2832 h 15.99219 c 1.795,0 3.2832,-1.4862 3.2832,-3.2832 v -15.99414 c 0,-1.796 -1.4892,-3.2832 -3.2832,-3.2832 z m 23.86133,0 c -1.794,0 -3.25586,1.4862 -3.25586,3.2832 v 15.99414 c 0,1.795 1.45886,3.2832 3.25586,3.2832 h 15.99414 c 1.797,0 3.2832,-1.4862 3.2832,-3.2832 v -15.99414 c 0,-1.796 -1.4872,-3.2832 -3.2832,-3.2832 z m 23.87109,0 c -1.795,0 -3.25781,1.4862 -3.25781,3.2832 v 15.99414 c 0,1.795 1.46081,3.2832 3.25781,3.2832 h 15.99414 c 1.796,0 3.28321,-1.4862 3.28321,-3.2832 v -15.99414 c 0,-1.795 -1.48721,-3.2832 -3.28321,-3.2832 z m 23.8711,0 c -1.796,0 -3.25586,1.4862 -3.25586,3.2832 v 15.99414 c 0,1.796 1.45886,3.2832 3.25586,3.2832 h 16.02148 c 1.793,0 3.25586,-1.4862 3.25586,-3.2832 v -15.99414 c 0,-1.796 -1.46286,-3.2832 -3.25586,-3.2832 z m 23.87109,0 c -1.794,0 -3.25781,1.4862 -3.25781,3.2832 v 15.99414 c 0,1.795 1.45981,3.2832 3.25781,3.2832 h 16.02148 c 1.796,0 3.25782,-1.4862 3.25782,-3.2832 v -15.99414 c 0,-1.795 -1.46182,-3.2832 -3.25782,-3.2832 z m 23.89844,0 c -1.794,0 -3.28516,1.4862 -3.28516,3.2832 v 15.99414 c 0,1.796 1.48916,3.2832 3.28516,3.2832 h 15.99023 c 1.798,0 3.25977,-1.4862 3.25977,-3.2832 v -15.99414 c 0,-1.795 -1.46377,-3.2832 -3.25977,-3.2832 z m 23.86132,0 c -1.79399,0 -3.2832,1.4862 -3.2832,3.2832 v 15.99414 c 0,1.795 1.48821,3.2832 3.2832,3.2832 h 15.99219 c 1.797,0 3.28516,-1.4862 3.28516,-3.2832 v -15.99414 c 0,-1.795 -1.48916,-3.2832 -3.28516,-3.2832 z m 23.87305,0 c -1.796,0 -3.25781,1.4862 -3.25781,3.2832 v 15.99414 c 0,1.796 1.46081,3.2832 3.25781,3.2832 h 15.99219 c 1.793,0 3.2832,-1.4862 3.2832,-3.2832 v -15.99414 c 0,-1.796 -1.4902,-3.2832 -3.2832,-3.2832 z m -334.222656,1.70703 h 15.99414 c 0.874,0 1.548828,0.70417 1.548828,1.57617 v 15.99414 c 0,0.872 -0.676828,1.57422 -1.548828,1.57422 h -15.99414 c -0.872,0 -1.574219,-0.70322 -1.574219,-1.57422 v -15.99414 c 0,-0.874 0.701219,-1.57617 1.574219,-1.57617 z m 23.871093,0 h 15.992195 c 0.874,0 1.57617,0.70417 1.57617,1.57617 v 15.99414 c 0,0.872 -0.70317,1.57422 -1.57617,1.57422 H 56.144531 c -0.873,0 -1.576172,-0.70322 -1.576171,-1.57422 v -15.99414 c -10e-4,-0.874 0.702171,-1.57617 1.576171,-1.57617 z m 23.869141,0 h 15.99219 c 0.873,0 1.57422,0.70417 1.57422,1.57617 v 15.99414 c 0,0.872 -0.70222,1.57422 -1.57422,1.57422 h -15.99219 c -0.873,0 -1.57617,-0.70322 -1.57617,-1.57422 v -15.99414 c 0,-0.874 0.70417,-1.57617 1.57617,-1.57617 z m 23.871092,0 h 15.99414 c 0.874,0 1.57422,0.70417 1.57422,1.57617 v 15.99414 c 0,0.872 -0.70122,1.57422 -1.57422,1.57422 h -15.99414 c -0.872,0 -1.54687,-0.70322 -1.54687,-1.57422 v -15.99414 c 0,-0.874 0.67287,-1.57617 1.54687,-1.57617 z m 23.86328,0 h 16.01954 c 0.874,0 1.54882,0.70417 1.54882,1.57617 v 15.99414 c 0,0.872 -0.67682,1.57422 -1.54882,1.57422 h -16.01954 c -0.87299,0 -1.54882,-0.70322 -1.54882,-1.57422 v -15.99414 c 0,-0.874 0.67583,-1.57617 1.54882,-1.57617 z m 23.8711,0 h 16.01953 c 0.874,0 1.54883,0.70417 1.54883,1.57617 v 15.99414 c 0,0.872 -0.67583,1.57422 -1.54883,1.57422 h -16.01953 c -0.872,0 -1.54883,-0.70322 -1.54883,-1.57422 v -15.99414 c 0,-0.874 0.67583,-1.57617 1.54883,-1.57617 z m 23.89844,0 h 15.99218 c 0.872,0 1.54883,0.70417 1.54883,1.57617 v 15.99414 c 0,0.872 -0.67883,1.57422 -1.54883,1.57422 h -15.99218 c -0.871,0 -1.57618,-0.70322 -1.57618,-1.57422 v -15.99414 c -10e-4,-0.874 0.70418,-1.57617 1.57618,-1.57617 z m 23.87109,0 h 15.99219 c 0.871,0 1.57617,0.70417 1.57617,1.57617 v 15.99414 c 0,0.872 -0.70517,1.57422 -1.57617,1.57422 h -15.99219 c -0.871,0 -1.57617,-0.70322 -1.57617,-1.57422 v -15.99414 c 0,-0.874 0.70417,-1.57617 1.57617,-1.57617 z m 23.86133,0 h 15.99414 c 0.874,0 1.57422,0.70417 1.57422,1.57617 v 15.99414 c 0,0.872 -0.70122,1.57422 -1.57422,1.57422 H 223.25 c -0.873,0 -1.54688,-0.70322 -1.54688,-1.57422 v -15.99414 c -0.001,-0.874 0.67388,-1.57617 1.54688,-1.57617 z m 23.87109,0 h 15.99414 c 0.872,0 1.57422,0.70417 1.57422,1.57617 v 15.99414 c 0,0.872 -0.70322,1.57422 -1.57422,1.57422 h -15.99414 c -0.873,0 -1.54883,-0.70322 -1.54883,-1.57422 v -15.99414 c 0,-0.874 0.67583,-1.57617 1.54883,-1.57617 z m 23.8711,0 h 16.02148 c 0.872,0 1.54883,0.70417 1.54883,1.57617 v 15.99414 c 0,0.871 -0.68083,1.57422 -1.54883,1.57422 h -16.02148 c -0.872,0 -1.54883,-0.70322 -1.54883,-1.57422 v -15.99414 c 0,-0.872 0.67683,-1.57617 1.54883,-1.57617 z m 23.87109,0 h 16.02148 c 0.873,0 1.54883,0.70417 1.54883,1.57617 v 15.99414 c 0,0.872 -0.67783,1.57422 -1.54883,1.57422 h -16.02148 c -0.873,0 -1.54688,-0.70322 -1.54688,-1.57422 v -15.99414 c 0,-0.874 0.67388,-1.57617 1.54688,-1.57617 z m 23.89844,0 h 15.99023 c 0.875,0 1.55078,0.70417 1.55078,1.57617 v 15.99414 c 0,0.872 -0.67678,1.57422 -1.55078,1.57422 h -15.99023 c -0.871,0 -1.57618,-0.70322 -1.57618,-1.57422 v -15.99414 c 0,-0.872 0.70318,-1.57617 1.57618,-1.57617 z m 23.86132,0 h 15.99219 c 0.874,0 1.57617,0.70417 1.57617,1.57617 v 15.99414 c 0,0.872 -0.70417,1.57422 -1.57617,1.57422 h -15.99219 c -0.87099,0 -1.57421,-0.70322 -1.57421,-1.57422 v -15.99414 c 0,-0.874 0.70122,-1.57617 1.57421,-1.57617 z m 23.87305,0 h 15.99219 c 0.871,0 1.57617,0.70417 1.57617,1.57617 v 15.99414 c 0,0.871 -0.70717,1.57422 -1.57617,1.57422 h -15.99219 c -0.873,0 -1.54883,-0.70322 -1.54883,-1.57422 v -15.99414 c 0,-0.872 0.67583,-1.57617 1.54883,-1.57617 z m 42.05274,13.66992 c -3.129,0 -5.6875,2.5585 -5.6875,5.6875 v 70.06055 c 0,3.129 2.5585,5.6875 5.6875,5.6875 h 70.05859 c 3.132,0 5.68555,-2.5585 5.68555,-5.6875 V 175.2971 c 0,-3.129 -2.55355,-5.6875 -5.68555,-5.6875 z m 0,1.70898 h 70.05859 c 2.207,0 3.97852,1.77057 3.97852,3.97657 v 70.0625 c 0,2.206 -1.77052,3.97851 -3.97852,3.97851 h -70.05859 c -2.204,0 -3.98047,-1.77251 -3.98047,-3.97851 v -70.0625 c 0,-2.205 1.77647,-3.97657 3.98047,-3.97657 z m 35.21679,0.40235 c -3.623,0 -7.25467,1.38376 -10.01367,4.13476 l -24.67578,24.67579 c -5.514,5.513 -5.514,14.48009 0,19.99609 l 24.29687,24.27148 c 5.51601,5.516 14.48405,5.513 19.99805,0 l 24.66992,-24.67187 c 5.507,-5.506 5.51635,-14.45171 0.0274,-19.9707 l -0.0274,-0.0273 -24.29687,-24.26758 c -2.757,-2.758 -6.36338,-4.13867 -9.98438,-4.13867 z m -0.1914,3.04297 h 0.002 c 2.664,0 5.33214,1.00597 7.36914,3.04297 l 11.58594,11.58593 -18.95703,18.95703 -18.95508,-18.95703 11.58594,-11.58593 c 2.038,-2.037 4.70514,-3.04297 7.36914,-3.04297 z m -406.066411,3.36328 c -1.795,0 -3.283204,1.46276 -3.283203,3.25976 v 16.01954 c 0,1.79599 1.488203,3.25781 3.283203,3.25781 h 22.027339 c 1.49,0 2.70866,-1.03135 3.09766,-2.40235 h 0.18555 v -0.85546 -16.01954 c 0,-1.796 -1.48621,-3.25781 -3.28321,-3.25781 H 37.507813 Z m 29.902339,0 c -1.795,0 -3.2832,1.46276 -3.2832,3.25976 v 16.01954 c 0,1.79599 1.4872,3.25781 3.2832,3.25781 h 15.99415 c 1.79599,0 3.2832,-1.46181 3.2832,-3.25781 v -16.01954 c 0,-1.796 -1.48621,-3.25976 -3.2832,-3.25976 z m 23.87305,0 c -1.795,0 -3.25781,1.46276 -3.25781,3.25976 v 16.01954 c 0,1.79599 1.46181,3.25781 3.25781,3.25781 h 15.992192 c 1.796,0 3.28515,-1.46181 3.28515,-3.25781 v -16.01954 c 0,-1.796 -1.48815,-3.25976 -3.28515,-3.25976 z m 23.863282,0 c -1.796,0 -3.25781,1.46376 -3.25781,3.25976 v 16.01954 c 0,1.79499 1.46181,3.25781 3.25781,3.25781 h 16.01953 c 1.796,0 3.25782,-1.46181 3.25782,-3.25781 v -16.01954 c 0,-1.796 -1.46182,-3.25976 -3.25782,-3.25976 z m 23.8711,0 c -1.795,0 -3.25782,1.46276 -3.25782,3.25976 v 16.01954 c 0,1.79599 1.46182,3.25781 3.25782,3.25781 h 16.01953 c 1.796,0 3.25781,-1.46181 3.25781,-3.25781 v -16.01954 c 0,-1.796 -1.46081,-3.25976 -3.25781,-3.25976 z m 23.89648,0 c -1.796,0 -3.2832,1.46376 -3.2832,3.25976 v 16.01954 c 0,1.79499 1.4862,3.25781 3.2832,3.25781 h 15.99219 c 1.796,0 3.25781,-1.46181 3.25781,-3.25781 v -16.01954 c 0,-1.796 -1.46181,-3.25976 -3.25781,-3.25976 z m 23.87109,0 c -1.795,0 -3.2832,1.46276 -3.2832,3.25976 v 16.01954 c 0,1.79599 1.4872,3.25781 3.2832,3.25781 h 15.99415 c 1.79599,0 3.28515,-1.46181 3.28515,-3.25781 v -16.01954 c 0,-1.796 -1.48815,-3.25976 -3.28515,-3.25976 z m 23.8711,0 c -1.795,0 -3.25586,1.46276 -3.25586,3.25976 v 16.01954 c 0,1.79599 1.46086,3.25781 3.25586,3.25781 h 15.99414 c 1.796,0 3.2832,-1.46181 3.2832,-3.25781 v -16.01954 c 0,-1.796 -1.4862,-3.25976 -3.2832,-3.25976 z m 23.86328,0 c -1.795,0 -3.25781,1.46276 -3.25781,3.25976 v 16.01954 c 0,1.79599 1.46181,3.25781 3.25781,3.25781 h 15.99414 c 1.796,0 3.2832,-1.46181 3.2832,-3.25781 v -16.01954 c 0,-1.796 -1.4862,-3.25976 -3.2832,-3.25976 z m 23.87305,0 c -1.796,0 -3.25782,1.46276 -3.25782,3.25976 v 16.01954 c 0,1.79599 1.46082,3.25781 3.25782,3.25781 h 16.01953 c 1.795,0 3.25586,-1.46181 3.25586,-3.25781 v -16.01954 c 0,-1.796 -1.46086,-3.25976 -3.25586,-3.25976 z m 23.87109,0 c -1.796,0 -3.25781,1.46276 -3.25781,3.25976 v 16.01954 c 0,1.79599 1.46181,3.25781 3.25781,3.25781 h 16.01758 c 1.797,0 3.25976,-1.46181 3.25976,-3.25781 v -16.01954 c 0,-1.796 -1.46276,-3.25976 -3.25976,-3.25976 z m 23.89648,0 c -1.796,0 -3.28515,1.46276 -3.28515,3.25976 v 16.01954 c 0,1.79599 1.48715,3.25781 3.28515,3.25781 h 15.99219 c 1.794,0 3.25781,-1.46181 3.25781,-3.25781 v -16.01954 c 0,-1.796 -1.46181,-3.25976 -3.25781,-3.25976 z m 23.86329,0 c -1.795,0 -3.28321,1.46276 -3.28321,3.25976 v 16.01954 c 0,1.79599 1.48621,3.25781 3.28321,3.25781 h 15.99218 c 1.794,0 3.28516,-1.46081 3.28516,-3.25781 v -16.01954 c 0,-1.796 -1.49016,-3.25976 -3.28516,-3.25976 z m 23.87109,0 c -1.796,0 -3.25781,1.46276 -3.25781,3.25976 v 16.01954 c 0,1.79599 1.46081,3.25781 3.25781,3.25781 h 28.48828 c 1.794,0 3.25781,-1.46181 3.25781,-3.25781 v -16.01954 c 0,-1.796 -1.46181,-3.25976 -3.25781,-3.25976 z m -316.386721,1.70898 h 22.027339 c 0.873,0 1.57422,0.67878 1.57422,1.55078 v 15.16407 0.85351 c 0,0.873 -0.70122,1.54883 -1.57422,1.54883 H 37.507813 c -0.871,0 -1.574219,-0.67783 -1.574219,-1.54883 v -16.01953 c 0,-0.872 0.703219,-1.54883 1.574219,-1.54883 z m 29.902339,0 h 15.99415 c 0.873,0 1.57421,0.67878 1.57421,1.55078 v 16.01954 c 0,0.87299 -0.70122,1.54882 -1.57421,1.54882 h -15.99415 c -0.873,0 -1.57421,-0.67682 -1.57421,-1.54882 v -16.01954 c 0,-0.873 0.70221,-1.55078 1.57421,-1.55078 z m 23.87305,0 h 15.992192 c 0.873,0 1.57617,0.67878 1.57617,1.55078 v 16.01954 c 0,0.87299 -0.70317,1.54882 -1.57617,1.54882 H 91.283198 c -0.873,0 -1.54883,-0.67682 -1.54883,-1.54882 v -16.01954 c 0,-0.873 0.67683,-1.55078 1.54883,-1.55078 z m 23.863282,0 h 16.01953 c 0.873,0 1.54883,0.67878 1.54883,1.55078 v 16.01954 c 0,0.87299 -0.67583,1.54882 -1.54883,1.54882 h -16.01953 c -0.873,0 -1.54883,-0.67582 -1.54883,-1.54882 v -16.01954 c 0,-0.874 0.67583,-1.55078 1.54883,-1.55078 z m 23.8711,0 h 16.01953 c 0.875,0 1.54883,0.67778 1.54883,1.55078 v 16.01954 c 0,0.87299 -0.67483,1.54882 -1.54883,1.54882 h -16.01953 c -0.873,0 -1.54883,-0.67682 -1.54883,-1.54882 v -16.01954 c 0,-0.873 0.67683,-1.55078 1.54883,-1.55078 z m 23.89648,0 h 15.99219 c 0.873,0 1.54883,0.67878 1.54883,1.55078 v 16.01954 c 0,0.87299 -0.67583,1.54882 -1.54883,1.54882 h -15.99219 c -0.874,0 -1.57422,-0.67582 -1.57422,-1.54882 v -16.01954 c 0,-0.874 0.70022,-1.55078 1.57422,-1.55078 z m 23.87109,0 h 15.99415 c 0.87299,0 1.57617,0.67778 1.57617,1.55078 v 16.01954 c 0,0.87299 -0.70418,1.54882 -1.57617,1.54882 h -15.99415 c -0.873,0 -1.57421,-0.67682 -1.57421,-1.54882 v -16.01954 c 0,-0.873 0.70221,-1.55078 1.57421,-1.55078 z m 23.8711,0 h 15.99414 c 0.873,0 1.57422,0.67878 1.57422,1.55078 v 16.01954 c 0,0.87299 -0.70122,1.54882 -1.57422,1.54882 h -15.99414 c -0.872,0 -1.54688,-0.67783 -1.54688,-1.54882 v -16.01954 c -0.001,-0.873 0.67488,-1.55078 1.54688,-1.55078 z m 23.86328,0 h 15.99414 c 0.873,0 1.57422,0.67778 1.57422,1.55078 v 16.01954 c 0,0.87299 -0.70222,1.54882 -1.57422,1.54882 h -15.99414 c -0.873,0 -1.54883,-0.67682 -1.54883,-1.54882 v -16.01954 c 0,-0.873 0.67683,-1.55078 1.54883,-1.55078 z m 23.87305,0 h 16.01953 c 0.873,0 1.54687,0.67778 1.54687,1.55078 v 16.01954 c 0,0.87299 -0.67587,1.54882 -1.54687,1.54882 h -16.01953 c -0.873,0 -1.54883,-0.67783 -1.54883,-1.54882 v -16.01954 c 0,-0.873 0.67583,-1.55078 1.54883,-1.55078 z m 23.87109,0 h 16.01758 c 0.873,0 1.55078,0.67778 1.55078,1.55078 v 16.01954 c 0,0.87299 -0.67778,1.54882 -1.55078,1.54882 h -16.01758 c -0.874,0 -1.55078,-0.67682 -1.55078,-1.54882 v -16.01954 c 0,-0.873 0.67678,-1.55078 1.55078,-1.55078 z m 23.89648,0 h 15.99219 c 0.872,0 1.54883,0.67778 1.54883,1.55078 v 16.01954 c 0,0.87299 -0.67783,1.54882 -1.54883,1.54882 h -15.99219 c -0.874,0 -1.57617,-0.67783 -1.57617,-1.54882 v -16.01954 c 0,-0.873 0.70317,-1.55078 1.57617,-1.55078 z m 23.86329,0 h 15.99218 c 0.873,0 1.57617,0.67878 1.57618,1.55078 v 16.01954 c 0,0.87299 -0.70518,1.54882 -1.57618,1.54882 h -15.99218 c -0.874,0 -1.57813,-0.67682 -1.57813,-1.54882 v -16.01954 c -0.001,-0.873 0.70513,-1.55078 1.57813,-1.55078 z m 23.87109,0 h 28.48828 c 0.873,0 1.54883,0.67778 1.54883,1.55078 v 16.01954 c 0,0.87299 -0.67683,1.54882 -1.54883,1.54882 h -28.48828 c -0.872,0 -1.54883,-0.67682 -1.54883,-1.54882 v -16.01954 c 0,-0.873 0.67683,-1.55078 1.54883,-1.55078 z m 68.75,11.52735 0.002,0.006 18.95703,18.95703 -18.95703,18.95703 -11.58789,-11.58789 c -4.073,-4.075 -4.073,-10.66228 0,-14.73828 z m 41.86719,0.008 11.58398,11.58594 c 4.075,4.074 4.075,10.66228 0,14.73828 l -11.58398,11.59179 -18.95899,-18.95898 z m -420.035161,10.6543 c -1.795,0 -3.285157,1.46281 -3.285157,3.25781 v 15.99219 c 0,1.797 1.490157,3.28515 3.285157,3.28515 h 21.226563 c 1.795,0 3.28321,-1.48815 3.28321,-3.28515 v -0.85371 -15.13867 c 0,-1.795 -1.48621,-3.25781 -3.28321,-3.25781 z m 29.101559,0 c -1.796,0 -3.25586,1.46081 -3.25586,3.25781 v 15.99219 c 0,1.796 1.45886,3.28515 3.25586,3.28515 h 15.99414 c 1.795,0 3.28516,-1.48815 3.28516,-3.28515 v -15.99219 c 0,-1.797 -1.48916,-3.25781 -3.28516,-3.25781 z m 23.87305,0 c -1.795,0 -3.25781,1.46081 -3.25781,3.25781 v 15.99219 c 0,1.795 1.46081,3.28515 3.25781,3.28515 h 16.021482 c 1.795,0 3.25586,-1.48815 3.25586,-3.28515 v -15.99219 c 0,-1.795 -1.45986,-3.25781 -3.25586,-3.25781 z m 23.863282,0 c -1.795,0 -3.25586,1.46081 -3.25586,3.25781 v 15.99219 c 0,1.796 1.45986,3.28515 3.25586,3.28515 h 16.01953 c 1.796,0 3.25977,-1.48815 3.25977,-3.28515 v -15.99219 c 0,-1.797 -1.46377,-3.25781 -3.25977,-3.25781 z m 23.89844,0 c -1.794,0 -3.28516,1.46081 -3.28516,3.25781 v 15.99219 c 0,1.795 1.48916,3.28515 3.28516,3.28515 h 15.99219 c 1.795,0 3.25781,-1.48815 3.25781,-3.28515 v -15.99219 c 0,-1.795 -1.46181,-3.25781 -3.25781,-3.25781 z m 23.86914,0 c -1.796,0 -3.2832,1.46081 -3.2832,3.25781 v 15.99219 c 0,1.796 1.4862,3.28515 3.2832,3.28515 h 15.99414 c 1.796,0 3.28516,-1.48815 3.28516,-3.28515 v -15.99219 c 0,-1.797 -1.48816,-3.25781 -3.28516,-3.25781 z m 23.87109,0 c -1.794,0 -3.2832,1.46081 -3.2832,3.25781 v 15.99219 c 0,1.797 1.4882,3.28515 3.2832,3.28515 h 15.99414 c 1.796,0 3.28321,-1.48815 3.28321,-3.28515 v -15.99219 c 0,-1.797 -1.48721,-3.25781 -3.28321,-3.25781 z m 23.86328,0 c -1.794,0 -3.25585,1.46081 -3.25586,3.25781 v 15.99219 c 0,1.796 1.46086,3.28515 3.25586,3.28515 h 15.99414 c 1.794,0 3.28321,-1.48815 3.28321,-3.28515 v -15.99219 c 0,-1.797 -1.48821,-3.25781 -3.28321,-3.25781 z m 23.87305,0 c -1.795,0 -3.25781,1.46081 -3.25781,3.25781 v 15.99219 c 0,1.795 1.46081,3.28515 3.25781,3.28515 h 16.01758 c 1.796,0 3.25977,-1.48815 3.25977,-3.28515 v -15.99219 c 0,-1.795 -1.46277,-3.25781 -3.25977,-3.25781 z m 23.87109,0 c -1.79599,0 -3.25781,1.46081 -3.25781,3.25781 v 15.99219 c 0,1.795 1.46182,3.28515 3.25781,3.28515 h 16.01954 c 1.795,0 3.25586,-1.48815 3.25586,-3.28515 v -15.99219 c 0,-1.795 -1.45986,-3.25781 -3.25586,-3.25781 z m 23.89454,0 c -1.795,0 -3.28125,1.46081 -3.28125,3.25781 v 15.99219 c 0,1.796 1.48625,3.28515 3.28125,3.28515 h 15.99414 c 1.795,0 3.25781,-1.48815 3.25781,-3.28515 v -15.99219 c 0,-1.797 -1.46281,-3.25781 -3.25781,-3.25781 z m 23.87109,0 c -1.794,0 -3.2832,1.46081 -3.2832,3.25781 v 15.99219 c 0,1.795 1.4882,3.28515 3.2832,3.28515 h 15.99414 c 1.796,0 3.2832,-1.48815 3.2832,-3.28515 v -15.99219 c 0,-1.795 -1.4872,-3.25781 -3.2832,-3.25781 z m 23.86523,0 c -1.794,0 -3.25781,1.46081 -3.25781,3.25781 v 15.99219 c 0,1.796 1.46181,3.28515 3.25781,3.28515 h 15.99219 c 1.796,0 3.28516,-1.48815 3.28516,-3.28515 v -15.99219 c 0,-1.795 -1.48916,-3.25781 -3.28516,-3.25781 z m 23.86914,0 c -1.793,0 -3.25585,1.46081 -3.25585,3.25781 v 15.99219 c 0,1.795 1.46085,3.28515 3.25585,3.28515 h 16.02149 c 1.796,0 3.25781,-1.48815 3.25781,-3.28515 v -15.99219 c 0,-1.795 -1.46181,-3.25781 -3.25781,-3.25781 z M 44.476563,203.7346 h 21.226559 c 0.873,0 1.57422,0.67783 1.57422,1.54883 v 15.99219 c 0,0.874 -0.70122,1.57617 -1.57422,1.57617 H 44.476563 c -0.873,0 -1.576172,-0.70117 -1.576172,-1.57617 v -15.99219 c -10e-4,-0.873 0.705172,-1.54883 1.576172,-1.54883 z m 29.101559,0 h 15.99414 c 0.874,0 1.57618,0.67583 1.57618,1.54883 v 15.99219 c 0,0.873 -0.70218,1.57617 -1.57618,1.57617 h -15.99414 c -0.873,0 -1.54882,-0.70417 -1.54882,-1.57617 v -15.99219 c -1e-5,-0.875 0.67582,-1.54883 1.54882,-1.54883 z m 23.87305,0 h 16.021478 c 0.873,0 1.54688,0.67583 1.54688,1.54883 v 15.99219 c 0,0.873 -0.67488,1.57617 -1.54688,1.57617 H 97.451172 c -0.873,0 -1.54883,-0.70417 -1.54883,-1.57617 v -15.99219 c 0,-0.875 0.67683,-1.54883 1.54883,-1.54883 z m 23.863278,0 h 16.01953 c 0.874,0 1.55078,0.67583 1.55078,1.54883 v 15.99219 c 0,0.873 -0.67678,1.57617 -1.55078,1.57617 h -16.01953 c -0.873,0 -1.54883,-0.70417 -1.54883,-1.57617 v -15.99219 c 0,-0.875 0.67483,-1.54883 1.54883,-1.54883 z m 23.89844,0 h 15.99219 c 0.873,0 1.54687,0.67583 1.54687,1.54883 v 15.99219 c 0,0.873 -0.67487,1.57617 -1.54687,1.57617 h -15.99219 c -0.873,0 -1.57617,-0.70417 -1.57617,-1.57617 v -15.99219 c -0.001,-0.875 0.70317,-1.54883 1.57617,-1.54883 z m 23.86914,0 h 15.99414 c 0.874,0 1.57617,0.67583 1.57617,1.54883 v 15.99219 c 0,0.873 -0.70217,1.57617 -1.57617,1.57617 h -15.99414 c -0.873,0 -1.57422,-0.70417 -1.57422,-1.57617 v -15.99219 c 0,-0.875 0.70122,-1.54883 1.57422,-1.54883 z m 23.87109,0 h 15.99414 c 0.874,0 1.57422,0.67583 1.57422,1.54883 v 15.99219 c 0,0.873 -0.70122,1.57617 -1.57422,1.57617 h -15.99414 c -0.871,0 -1.57422,-0.70417 -1.57422,-1.57617 v -15.99219 c 0,-0.875 0.70322,-1.54883 1.57422,-1.54883 z m 23.86328,0 h 15.99414 c 0.871,0 1.57618,0.67583 1.57618,1.54883 v 15.99219 c 0,0.873 -0.70518,1.57617 -1.57618,1.57617 H 216.8164 c -0.871,0 -1.54882,-0.70417 -1.54882,-1.57617 v -15.99219 c 0,-0.875 0.67682,-1.54883 1.54882,-1.54883 z m 23.87305,0 h 16.01758 c 0.875,0 1.55078,0.67583 1.55078,1.54883 v 15.99219 c 0,0.873 -0.67778,1.57617 -1.55078,1.57617 h -16.01758 c -0.873,0 -1.54883,-0.70417 -1.54883,-1.57617 v -15.99219 c 0,-0.875 0.67583,-1.54883 1.54883,-1.54883 z m 23.87109,0 h 16.01954 c 0.874,0 1.54687,0.67583 1.54687,1.54883 v 15.99219 c 0,0.873 -0.67487,1.57617 -1.54687,1.57617 h -16.01954 c -0.87099,0 -1.54882,-0.70417 -1.54882,-1.57617 v -15.99219 c 0,-0.875 0.67783,-1.54883 1.54882,-1.54883 z m 23.89454,0 h 15.99414 c 0.872,0 1.54882,0.67583 1.54882,1.54883 v 15.99219 c 0,0.872 -0.67882,1.57617 -1.54882,1.57617 h -15.99414 c -0.873,0 -1.57227,-0.70417 -1.57227,-1.57617 v -15.99219 c 0,-0.875 0.69927,-1.54883 1.57227,-1.54883 z m 23.87109,0 h 15.99414 c 0.873,0 1.57422,0.67583 1.57422,1.54883 v 15.99219 c 0,0.873 -0.70122,1.57617 -1.57422,1.57617 h -15.99414 c -0.872,0 -1.57422,-0.70417 -1.57422,-1.57617 v -15.99219 c 0,-0.875 0.70222,-1.54883 1.57422,-1.54883 z m 23.86523,0 h 15.99219 c 0.872,0 1.57617,0.67583 1.57617,1.54883 v 15.99219 c 0,0.873 -0.70417,1.57617 -1.57617,1.57617 H 336.1914 c -0.873,0 -1.54882,-0.70417 -1.54882,-1.57617 v -15.99219 c 0,-0.875 0.67482,-1.54883 1.54882,-1.54883 z m 23.86914,0 h 16.02149 c 0.872,0 1.54883,0.67583 1.54883,1.54883 v 15.99219 c 0,0.873 -0.67683,1.57617 -1.54883,1.57617 h -16.02149 c -0.872,0 -1.54687,-0.70417 -1.54687,-1.57617 v -15.99219 c 0,-0.875 0.67487,-1.54883 1.54687,-1.54883 z m -335.021477,6.08984 c -0.906,0 -1.654297,0.7766 -1.654297,1.6836 v 2.66992 c 0,0.905 0.749297,1.6543 1.654297,1.6543 h 7.794921 c 0.905001,0 1.65625,-0.7463 1.65625,-1.6543 v -2.66992 c 0,-0.907 -0.74925,-1.6836 -1.65625,-1.6836 z m 363.669917,0 c -0.906,0 -1.65625,0.7766 -1.65625,1.6836 v 2.66992 c 0,0.905 0.75125,1.6543 1.65625,1.6543 h 7.76953 c 0.906,0 1.65625,-0.7463 1.65625,-1.6543 v -2.66992 c 0,-0.906 -0.74825,-1.6836 -1.65625,-1.6836 z m 54.86524,2.45118 h 0.002 l 18.95703,18.98437 -11.58789,11.58594 c -4.073,4.077 -10.66228,4.077 -14.73828,0 L 424.61328,231.2346 Z M 49.708984,225.89671 c -1.796,0 -3.283203,1.48816 -3.283203,3.28516 v 15.99218 c 0,1.796 1.487204,3.28321 3.283203,3.28321 h 27.261718 c 1.795,0 3.2832,-1.48621 3.2832,-3.28321 v -15.99218 c 0,-1.796 -1.4862,-3.28516 -3.2832,-3.28516 z m 35.136718,0 c -1.795,0 -3.25781,1.48816 -3.25781,3.28516 v 15.99218 c 0,1.796 1.46181,3.28321 3.25781,3.28321 h 16.019528 c 1.796,0 3.25586,-1.48621 3.25586,-3.28321 v -15.99218 c 0,-1.796 -1.45886,-3.28516 -3.25586,-3.28516 z m 23.867188,0 c -1.796,0 -3.25781,1.48816 -3.25781,3.28516 v 15.99218 c 0,1.796 1.46081,3.28321 3.25781,3.28321 h 16.01953 c 1.796,0 3.25781,-1.48621 3.25781,-3.28321 v -15.99218 c 0,-1.796 -1.46081,-3.28516 -3.25781,-3.28516 z m 23.89648,0 c -1.796,0 -3.2832,1.49016 -3.2832,3.28516 v 15.99218 c 0,1.796 1.4872,3.28321 3.2832,3.28321 h 15.99414 c 1.796,0 3.25586,-1.48621 3.25586,-3.28321 v -15.99218 c 0,-1.796 -1.45886,-3.28516 -3.25586,-3.28516 z m 23.8711,0 c -1.796,0 -3.28321,1.49016 -3.28321,3.28516 v 15.99218 c 0,1.796 1.48621,3.28321 3.28321,3.28321 h 15.99414 c 1.796,0 3.2832,-1.48621 3.2832,-3.28321 v -15.99218 c 0,-1.796 -1.4862,-3.28516 -3.2832,-3.28516 z m 23.87109,0 c -1.796,0 -3.2832,1.49016 -3.2832,3.28516 v 15.99218 c 0,1.796 1.4872,3.28321 3.2832,3.28321 h 15.99414 c 1.796,0 3.2832,-1.48621 3.2832,-3.28321 v -15.99218 c 0,-1.796 -1.4872,-3.28516 -3.2832,-3.28516 z m 23.86328,0 c -1.795,0 -3.25781,1.48816 -3.25781,3.28516 v 15.99218 c 0,1.796 1.46181,3.28321 3.25781,3.28321 h 15.99219 c 1.795,0 3.28516,-1.48621 3.28516,-3.28321 v -15.99218 c 0,-1.795 -1.48916,-3.28516 -3.28516,-3.28516 z m 23.8711,0 c -1.795,0 -3.25782,1.48816 -3.25782,3.28516 v 15.99218 c 0,1.797 1.46182,3.28321 3.25782,3.28321 h 16.01953 c 1.796,0 3.25781,-1.48621 3.25781,-3.28321 v -15.99218 c 0,-1.795 -1.46081,-3.28516 -3.25781,-3.28516 z m 23.89648,0 c -1.796,0 -3.2832,1.48816 -3.2832,3.28516 v 15.99218 c 0,1.796 1.4862,3.28321 3.2832,3.28321 h 15.99414 c 1.795,0 3.25586,-1.48621 3.25586,-3.28321 v -15.99218 c 0,-1.795 -1.45886,-3.28516 -3.25586,-3.28516 z m 23.87109,0 c -1.795,0 -3.2832,1.48816 -3.2832,3.28516 v 15.99218 c 0,1.797 1.4882,3.28321 3.2832,3.28321 h 15.99414 c 1.796,0 3.25782,-1.48621 3.25782,-3.28321 v -15.99218 c 0,-1.795 -1.45982,-3.28516 -3.25782,-3.28516 z m 23.86329,0 c -1.79501,0 -3.28321,1.48816 -3.28321,3.28516 v 15.99218 c 0,1.796 1.4882,3.28321 3.28321,3.28321 h 15.99218 c 1.796,0 3.28516,-1.48621 3.28516,-3.28321 v -0.85547 -15.13867 c 0,-1.795 -1.48816,-3.2832 -3.28516,-3.2832 z m 23.87304,0 c -1.796,0 -3.25976,1.48816 -3.25976,3.28516 v 15.99218 c 0,1.797 1.46376,3.28321 3.25976,3.28321 h 15.99024 c 1.795,0 3.28515,-1.48621 3.28515,-3.28321 v -15.99218 c 0,-1.795 -1.48815,-3.28516 -3.28515,-3.28516 z m 23.86914,0 c -1.795,0 -3.25781,1.48816 -3.25781,3.28516 v 15.99218 c 0,1.796 1.46281,3.28321 3.25781,3.28321 h 28.89063 c 1.795,0 3.2832,-1.48621 3.2832,-3.28321 v -15.99218 c 0,-1.795 -1.4862,-3.28516 -3.2832,-3.28516 z m -297.749996,1.70898 h 27.261718 c 0.872,0 1.57422,0.70418 1.57422,1.57618 v 15.99218 c 0,0.874 -0.70222,1.57617 -1.57422,1.57617 H 49.708984 c -0.873,0 -1.574218,-0.70317 -1.574218,-1.57617 v -15.99218 c 0,-0.872 0.702218,-1.57618 1.574218,-1.57618 z m 35.136718,0 h 16.019528 c 0.872,0 1.54688,0.70418 1.54688,1.57618 v 15.99218 c 0,0.874 -0.67388,1.57617 -1.54688,1.57617 H 84.845702 c -0.873,0 -1.54883,-0.70317 -1.54883,-1.57617 v -15.99218 c 0,-0.872 0.67783,-1.57618 1.54883,-1.57618 z m 23.867188,0 h 16.01953 c 0.873,0 1.54688,0.70418 1.54688,1.57618 v 15.99218 c 0,0.874 -0.67388,1.57617 -1.54688,1.57617 h -16.01953 c -0.873,0 -1.54883,-0.70317 -1.54883,-1.57617 v -15.99218 c 0,-0.872 0.67683,-1.57618 1.54883,-1.57618 z m 23.89648,0 h 15.99414 c 0.873,0 1.54883,0.70418 1.54883,1.57618 v 15.99218 c 0,0.874 -0.67483,1.57617 -1.54883,1.57617 h -15.99414 c -0.874,0 -1.57422,-0.70317 -1.57422,-1.57617 v -15.99218 c 0,-0.873 0.70022,-1.57618 1.57422,-1.57618 z m 23.8711,0 h 15.99414 c 0.873,0 1.57422,0.70418 1.57422,1.57618 v 15.99218 c 0,0.874 -0.70122,1.57617 -1.57422,1.57617 h -15.99414 c -0.872,0 -1.57422,-0.70317 -1.57422,-1.57617 v -15.99218 c -0.001,-0.873 0.70122,-1.57618 1.57422,-1.57618 z m 23.87109,0 h 15.99414 c 0.873,0 1.57422,0.70418 1.57422,1.57618 v 15.99218 c 0,0.874 -0.70122,1.57617 -1.57422,1.57617 h -15.99414 c -0.873,0 -1.57422,-0.70317 -1.57422,-1.57617 v -15.99218 c 0,-0.873 0.70122,-1.57618 1.57422,-1.57618 z m 23.86328,0 h 15.99219 c 0.872,0 1.57617,0.70418 1.57617,1.57618 v 15.99218 c 0,0.874 -0.70417,1.57617 -1.57617,1.57617 h -15.99219 c -0.873,0 -1.54883,-0.70317 -1.54883,-1.57617 v -15.99218 c 0,-0.872 0.67783,-1.57618 1.54883,-1.57618 z m 23.8711,0 h 16.01953 c 0.873,0 1.54883,0.70418 1.54883,1.57618 v 15.99218 c 0,0.874 -0.67683,1.57617 -1.54883,1.57617 h -16.01953 c -0.871,0 -1.54883,-0.70317 -1.54883,-1.57617 v -15.99218 c 0,-0.872 0.67683,-1.57618 1.54883,-1.57618 z m 23.89648,0 h 15.99414 c 0.872,0 1.54688,0.70418 1.54688,1.57618 v 15.99218 c 0,0.874 -0.67488,1.57617 -1.54688,1.57617 h -15.99414 c -0.873,0 -1.57422,-0.70317 -1.57422,-1.57617 v -15.99218 c 0,-0.872 0.70222,-1.57618 1.57422,-1.57618 z m 23.87109,0 h 15.99414 c 0.873,0 1.54883,0.70418 1.54883,1.57618 v 15.99218 c 0,0.874 -0.67583,1.57617 -1.54883,1.57617 h -15.99414 c -0.872,0 -1.57421,-0.70317 -1.57421,-1.57617 v -15.99218 c -10e-4,-0.872 0.70321,-1.57618 1.57421,-1.57618 z m 23.86329,0 h 15.99218 c 0.872,0 1.57617,0.70418 1.57617,1.57618 v 15.99218 c 0,0.874 -0.70417,1.57617 -1.57617,1.57617 H 299.7168 c -0.873,0 -1.57422,-0.70317 -1.57422,-1.57617 v -15.99218 c 0,-0.872 0.70322,-1.57618 1.57422,-1.57618 z m 23.87304,0 h 15.99024 c 0.873,0 1.57617,0.70418 1.57617,1.57618 v 15.99218 c 0,0.874 -0.70317,1.57617 -1.57617,1.57617 h -15.99024 c -0.874,0 -1.55078,-0.70317 -1.55078,-1.57617 v -15.99218 c 0,-0.872 0.67878,-1.57618 1.55078,-1.57618 z m 23.86914,0 h 28.89063 c 0.872,0 1.57422,0.70418 1.57422,1.57618 v 15.99218 c 0,0.874 -0.70222,1.57617 -1.57422,1.57617 h -28.89063 c -0.873,0 -1.54883,-0.70317 -1.54883,-1.57617 v -15.99218 c 0,-0.872 0.67783,-1.57618 1.54883,-1.57618 z m -262.587888,22.1875 c -1.795,0 -3.2832,1.46182 -3.2832,3.25782 v 16.01953 c 0,1.796 1.4872,3.25781 3.2832,3.25781 h 15.994138 c 1.796,0 3.28321,-1.46181 3.28321,-3.25781 v -0.85352 -15.16406 c 0,-1.796 -1.48621,-3.25977 -3.28321,-3.25977 z m 23.867188,0 c -1.795,0 -3.28516,1.46182 -3.28516,3.25782 v 16.01953 c 0,1.796 1.48916,3.25781 3.28516,3.25781 h 15.99414 c 1.795,0 3.2832,-1.46181 3.2832,-3.25781 v -16.01953 c 0,-1.796 -1.4882,-3.25782 -3.2832,-3.25782 z m 23.87109,0 c -1.796,0 -3.25586,1.46182 -3.25586,3.25782 v 16.01953 c 0,1.796 1.45986,3.25781 3.25586,3.25781 h 186.2793 c 1.796,0 3.28516,-1.46181 3.28516,-3.25781 v -16.01953 c 0,-1.795 -1.48716,-3.25782 -3.28516,-3.25782 z m -47.738278,1.70899 h 15.994138 c 0.872,0 1.57422,0.67783 1.57422,1.54883 v 16.01953 c 0,0.873 -0.70222,1.54883 -1.57422,1.54883 H 84.871092 c -0.872,0 -1.57422,-0.67783 -1.57422,-1.54883 v -16.01953 c 0,-0.871 0.70222,-1.54883 1.57422,-1.54883 z m 23.867188,0 h 15.99414 c 0.872,0 1.57422,0.67783 1.57422,1.54883 v 16.01953 c 0,0.873 -0.70322,1.54883 -1.57422,1.54883 h -15.99414 c -0.872,0 -1.57617,-0.67783 -1.57617,-1.54883 v -16.01953 c 0,-0.871 0.70417,-1.54883 1.57617,-1.54883 z m 23.87109,0 h 186.2793 c 0.873,0 1.57617,0.67783 1.57617,1.54883 v 16.01953 c 0,0.873 -0.70317,1.54883 -1.57617,1.54883 h -186.2793 c -0.872,0 -1.54883,-0.67783 -1.54883,-1.54883 v -16.01953 c 0,-0.871 0.67683,-1.54883 1.54883,-1.54883 z"
   style="fill:#ffffff" />

















































































</svg>
