<?xml version="1.0" encoding="UTF-8" standalone="no"?>
<!-- Generator: Adobe Illustrator 13.0.0, SVG Export Plug-In . SVG Version: 6.00 Build 14948)  -->

<svg
   version="1.2"
   id="svg2"
   inkscape:version="1.1.2 (0a00cf5339, 2022-02-04)"
   sodipodi:docname="system (cópia).svg"
   x="0px"
   y="0px"
   width="702.92773"
   height="250.74219"
   viewBox="-25.928 -4 702.92776 250.74218"
   xml:space="preserve"
   xmlns:inkscape="http://www.inkscape.org/namespaces/inkscape"
   xmlns:sodipodi="http://sodipodi.sourceforge.net/DTD/sodipodi-0.dtd"
   xmlns="http://www.w3.org/2000/svg"
   xmlns:svg="http://www.w3.org/2000/svg">
<defs
   id="defs4">
	
	
		<inkscape:perspective
   id="perspective10"
   inkscape:persp3d-origin="372.04724 : 366.78557 : 1"
   inkscape:vp_z="744.09447 : 542.17927 : 1"
   inkscape:vp_x="0 : 542.17927 : 1"
   sodipodi:type="inkscape:persp3d"
   inkscape:vp_y="0 : 999.99998 : 0">
		</inkscape:perspective>
	
		<inkscape:perspective
   id="perspective2824"
   inkscape:persp3d-origin="0.5 : 16.331517 : 1"
   inkscape:vp_z="0.99999999 : 16.498184 : 1"
   inkscape:vp_x="0 : 16.498184 : 1"
   sodipodi:type="inkscape:persp3d"
   inkscape:vp_y="0 : 999.99998 : 0">
		</inkscape:perspective>
</defs>
<sodipodi:namedview
   id="base"
   bordercolor="#666666"
   inkscape:cx="173"
   inkscape:zoom="0.5"
   inkscape:cy="-121"
   pagecolor="#ffffff"
   borderopacity="1.0"
   inkscape:window-x="0"
   inkscape:pageshadow="2"
   inkscape:current-layer="svg2"
   inkscape:window-width="1920"
   inkscape:window-y="0"
   inkscape:pageopacity="0.0"
   inkscape:window-height="996"
   inkscape:window-maximized="1"
   inkscape:document-units="px"
   showgrid="false"
   inkscape:pagecheckerboard="true"
   fit-margin-top="0"
   fit-margin-left="0"
   fit-margin-right="0"
   fit-margin-bottom="0"
   width="642.92773px">
	</sodipodi:namedview>

<path
   id="rect825"
   d="M 60 0 L 60 2 L 60 250.74219 L 642.92773 250.74219 L 642.92773 0 L 60 0 z M 148.25586 39.953125 L 188.1875 39.953125 L 208.93555 113.94531 L 230.4668 39.953125 L 268.05078 39.953125 L 303.2832 164.83789 L 389.24805 164.67578 C 398.27105 164.58778 398.82608 145.92764 388.58008 145.93164 L 338.51562 145.26367 C 317.01862 145.47067 294.34912 122.21228 295.45312 91.238281 C 295.68212 62.826281 320.45639 40.452937 352.15039 40.460938 L 479.8418 40.347656 L 512.33594 84.585938 L 544.04492 39.955078 L 596.89453 40.347656 L 538.95703 121.77539 L 601.59375 210.06836 L 549.02148 209.90625 L 512.56445 159.24414 L 477.88477 209.90625 L 424.25195 209.85938 L 485.32227 122.55859 L 458.69922 83.802734 L 347.70117 83.964844 C 335.58717 84.075844 336.03287 103.13239 347.79688 102.77539 L 394.56445 103.49219 C 414.33145 103.61919 442.16761 124.16052 441.47461 156.22852 C 441.77561 193.50752 408.1992 210.53991 392.0332 209.62891 L 269.61523 209.79297 L 249.25781 133.52148 L 228.90039 209.62891 L 190.25781 209.62891 L 169.00195 133.91016 L 150.32422 209.74414 L 105.19141 209.46484 L 148.25586 39.953125 z "
   transform="translate(-25.928,-4)" /><path
   id="rect3604"
   d="M 68 7.9980469 L 68 242.74219 L 634.92773 242.74219 L 634.92773 7.9980469 L 68 7.9980469 z M 148.25586 39.953125 L 188.1875 39.953125 L 208.93555 113.94531 L 230.4668 39.953125 L 268.05078 39.953125 L 303.2832 164.83789 L 389.24805 164.67578 C 398.27105 164.58778 398.82608 145.92764 388.58008 145.93164 L 338.51562 145.26367 C 317.01862 145.47067 294.34912 122.21228 295.45312 91.238281 C 295.68212 62.826281 320.45639 40.452937 352.15039 40.460938 L 479.8418 40.347656 L 512.33594 84.585938 L 544.04492 39.955078 L 596.89453 40.347656 L 538.95703 121.77539 L 601.59375 210.06836 L 549.02148 209.90625 L 512.56445 159.24414 L 477.88477 209.90625 L 424.25195 209.85938 L 485.32227 122.55859 L 458.69922 83.802734 L 347.70117 83.964844 C 335.58717 84.075844 336.03287 103.13239 347.79688 102.77539 L 394.56445 103.49219 C 414.33145 103.61919 442.16761 124.16052 441.47461 156.22852 C 441.77561 193.50752 408.1992 210.53991 392.0332 209.62891 L 269.61523 209.79297 L 249.25781 133.52148 L 228.90039 209.62891 L 190.25781 209.62891 L 169.00195 133.91016 L 150.32422 209.74414 L 105.19141 209.46484 L 148.25586 39.953125 z "
   transform="translate(-25.928,-4)"
   style="fill:#ffffff" />
</svg>
