<?xml version="1.0" encoding="UTF-8" standalone="no"?>
<!-- Generator: Adobe Illustrator 13.0.0, SVG Export Plug-In . SVG Version: 6.00 Build 14948)  -->

<svg
   version="1.2"
   id="svg2"
   inkscape:version="1.1.2 (0a00cf5339, 2022-02-04)"
   sodipodi:docname="system.svg"
   x="0px"
   y="0px"
   width="702.92773"
   height="250.74219"
   viewBox="-25.928 -4 702.92776 250.74218"
   xml:space="preserve"
   xmlns:inkscape="http://www.inkscape.org/namespaces/inkscape"
   xmlns:sodipodi="http://sodipodi.sourceforge.net/DTD/sodipodi-0.dtd"
   xmlns="http://www.w3.org/2000/svg"
   xmlns:svg="http://www.w3.org/2000/svg">
<defs
   id="defs4">
	
	
		<inkscape:perspective
   id="perspective10"
   inkscape:persp3d-origin="372.04724 : 366.78557 : 1"
   inkscape:vp_z="744.09447 : 542.17927 : 1"
   inkscape:vp_x="0 : 542.17927 : 1"
   sodipodi:type="inkscape:persp3d"
   inkscape:vp_y="0 : 999.99998 : 0">
		</inkscape:perspective>
	
		<inkscape:perspective
   id="perspective2824"
   inkscape:persp3d-origin="0.5 : 16.331517 : 1"
   inkscape:vp_z="0.99999999 : 16.498184 : 1"
   inkscape:vp_x="0 : 16.498184 : 1"
   sodipodi:type="inkscape:persp3d"
   inkscape:vp_y="0 : 999.99998 : 0">
		</inkscape:perspective>
</defs>
<sodipodi:namedview
   id="base"
   bordercolor="#666666"
   inkscape:cx="277.5"
   inkscape:zoom="1"
   inkscape:cy="-43.5"
   pagecolor="#ffffff"
   borderopacity="1.0"
   inkscape:window-x="0"
   inkscape:pageshadow="2"
   inkscape:current-layer="svg2"
   inkscape:window-width="1920"
   inkscape:window-y="0"
   inkscape:pageopacity="0.0"
   inkscape:window-height="996"
   inkscape:window-maximized="1"
   inkscape:document-units="px"
   showgrid="false"
   inkscape:pagecheckerboard="0"
   fit-margin-top="0"
   fit-margin-left="0"
   fit-margin-right="0"
   fit-margin-bottom="0"
   width="642.92773px">
	</sodipodi:namedview>

<g
   id="g869"
   transform="translate(0.00329819)"><path
     id="rect825"
     d="m 34.068428,-1.9999999 c 0,82.9140629 0,165.8281299 0,248.7421899 194.309792,0 388.619042,0 582.928282,0 0,-83.58073 0,-167.161461 0,-250.74219 -194.30924,0 -388.61849,0 -582.928282,0 0,0.666667 0,1.333333 0,2.0000001 z" /><rect
     id="rect3604"
     x="42.069321"
     y="3.9980471"
     fill="#003e99"
     width="566.92798"
     height="234.744" /><path
     id="path2830"
     sodipodi:nodetypes="cccccccccccccccccccccccccccccccccccc"
     fill="#ffffff"
     d="M 79.259272,205.46505 122.32382,35.954047 h 39.932 l 20.749,73.991003 21.531,-73.991003 h 37.583 l 35.233,124.883003 85.965,-0.162 c 9.023,-0.088 9.577,-18.748 -0.669,-18.744 l -50.063,-0.668 c -21.497,0.207 -44.167,-23.05 -43.063,-54.024003 0.229,-28.412 25.004,-50.786 56.698,-50.778 l 127.69,-0.114 32.494,44.238 31.709,-44.629 52.85,0.392 -57.938,81.428003 62.637,88.292 -52.572,-0.161 -36.457,-50.662 -34.68,50.662 -53.633,-0.048 61.072,-87.3 -26.623,-38.757003 -110.999,0.162 c -12.114,0.111 -11.669,19.169 0.095,18.812 l 46.768,0.716 c 19.767,0.127 47.604,20.668003 46.911,52.736003 0.301,37.279 -33.275,54.312 -49.441,53.401 l -122.419,0.163 -20.357,-76.271 -20.357,76.108 h -38.644 l -21.255,-75.718 -18.677,75.833 z" /></g>
</svg>
