<?xml version="1.0" encoding="UTF-8" standalone="no"?>
<!-- Generator: Adobe Illustrator 13.0.0, SVG Export Plug-In . SVG Version: 6.00 Build 14948)  -->

<svg
   version="1.2"
   id="svg2"
   inkscape:version="1.1.2 (0a00cf5339, 2022-02-04)"
   sodipodi:docname="system_color.svg"
   x="0px"
   y="0px"
   width="566.928px"
   height="234.744px"
   viewBox="-25.928 -4 566.928 234.744"
   xml:space="preserve"
   xmlns:inkscape="http://www.inkscape.org/namespaces/inkscape"
   xmlns:sodipodi="http://sodipodi.sourceforge.net/DTD/sodipodi-0.dtd"
   xmlns="http://www.w3.org/2000/svg"
   xmlns:svg="http://www.w3.org/2000/svg">
<defs
   id="defs4">
	
	
		<inkscape:perspective
   id="perspective10"
   inkscape:persp3d-origin="372.04724 : 350.78739 : 1"
   inkscape:vp_z="744.09448 : 526.18109 : 1"
   inkscape:vp_x="0 : 526.18109 : 1"
   sodipodi:type="inkscape:persp3d"
   inkscape:vp_y="0 : 1000 : 0">
		</inkscape:perspective>
	
		<inkscape:perspective
   id="perspective2824"
   inkscape:persp3d-origin="0.5 : 0.33333333 : 1"
   inkscape:vp_z="1 : 0.5 : 1"
   inkscape:vp_x="0 : 0.5 : 1"
   sodipodi:type="inkscape:persp3d"
   inkscape:vp_y="0 : 1000 : 0">
		</inkscape:perspective>
</defs>
<sodipodi:namedview
   id="base"
   bordercolor="#666666"
   inkscape:cx="68.589358"
   inkscape:zoom="0.70710678"
   inkscape:cy="107.48023"
   pagecolor="#ffffff"
   borderopacity="1.0"
   inkscape:window-x="0"
   inkscape:pageshadow="2"
   inkscape:current-layer="svg2"
   inkscape:window-width="1920"
   inkscape:window-y="0"
   inkscape:pageopacity="0.0"
   inkscape:window-height="995"
   inkscape:window-maximized="1"
   inkscape:document-units="px"
   showgrid="false"
   inkscape:pagecheckerboard="0">
	</sodipodi:namedview>
<path
   id="rect3604"
   d="M 27.464844 0 L 27.464844 234.74414 L 594.39258 234.74414 L 594.39258 0 L 27.464844 0 z M 107.71875 31.955078 L 147.65039 31.955078 L 168.39844 105.94727 L 189.92969 31.955078 L 227.51367 31.955078 L 262.74609 156.83984 L 348.71094 156.67773 C 357.73394 156.58973 358.28897 137.92959 348.04297 137.93359 L 297.97852 137.26562 C 276.48152 137.47262 253.81202 114.21423 254.91602 83.240234 C 255.14502 54.828234 279.91928 32.454891 311.61328 32.462891 L 439.30469 32.349609 L 471.79883 76.587891 L 503.50781 31.957031 L 556.35742 32.349609 L 498.41992 113.77734 L 561.05664 202.07031 L 508.48438 201.9082 L 472.02734 151.24609 L 437.34766 201.9082 L 383.71484 201.86133 L 444.78516 114.56055 L 418.16211 75.804688 L 307.16406 75.966797 C 295.05006 76.077797 295.49577 95.134344 307.25977 94.777344 L 354.02734 95.494141 C 373.79434 95.621141 401.6305 116.16247 400.9375 148.23047 C 401.2385 185.50947 367.66209 202.54186 351.49609 201.63086 L 229.07812 201.79492 L 208.7207 125.52344 L 188.36328 201.63086 L 149.7207 201.63086 L 128.46484 125.91211 L 109.78711 201.74609 L 64.654297 201.4668 L 107.71875 31.955078 z "
   transform="translate(-25.928,-4)"
   style="fill:#ffffff" />

</svg>
