<?xml version="1.0" encoding="UTF-8" standalone="no"?>
<!-- Generator: Adobe Illustrator 13.0.0, SVG Export Plug-In . SVG Version: 6.00 Build 14948)  -->

<svg
   version="1.1"
   id="Layer_2_1_"
   x="0px"
   y="0px"
   width="566.929px"
   height="129.21px"
   viewBox="0 0 566.929 129.21"
   enable-background="new 0 0 566.929 129.21"
   xml:space="preserve"
   sodipodi:docname="system_color.svg"
   inkscape:version="1.1.2 (0a00cf5339, 2022-02-04)"
   xmlns:inkscape="http://www.inkscape.org/namespaces/inkscape"
   xmlns:sodipodi="http://sodipodi.sourceforge.net/DTD/sodipodi-0.dtd"
   xmlns="http://www.w3.org/2000/svg"
   xmlns:svg="http://www.w3.org/2000/svg"
   xmlns:rdf="http://www.w3.org/1999/02/22-rdf-syntax-ns#"
   xmlns:cc="http://creativecommons.org/ns#"
   xmlns:dc="http://purl.org/dc/elements/1.1/"><metadata
     id="metadata58"><rdf:RDF><cc:Work
         rdf:about=""><dc:format>image/svg+xml</dc:format><dc:type
           rdf:resource="http://purl.org/dc/dcmitype/StillImage" /></cc:Work></rdf:RDF></metadata><defs
     id="defs56" /><sodipodi:namedview
     pagecolor="#ffffff"
     bordercolor="#666666"
     borderopacity="1"
     objecttolerance="10"
     gridtolerance="10"
     guidetolerance="10"
     inkscape:pageopacity="0"
     inkscape:pageshadow="2"
     inkscape:window-width="1920"
     inkscape:window-height="995"
     id="namedview54"
     showgrid="false"
     inkscape:zoom="2.215445"
     inkscape:cx="282.78743"
     inkscape:cy="53.262437"
     inkscape:window-x="0"
     inkscape:window-y="0"
     inkscape:window-maximized="1"
     inkscape:current-layer="g5137"
     inkscape:pagecheckerboard="0" /><g
     transform="matrix(0.10252157,0,0,0.10252157,199.56464,0.76250092)"
     id="g5137"><path
       id="rect5207"
       style="color:#000000;clip-rule:nonzero;display:inline;overflow:visible;visibility:visible;isolation:auto;mix-blend-mode:normal;color-interpolation:sRGB;color-interpolation-filters:linearRGB;solid-color:#000000;solid-opacity:1;vector-effect:none;fill:#ffffff;fill-opacity:1;fill-rule:nonzero;stroke:none;stroke-width:1.5366;stroke-linecap:round;stroke-linejoin:miter;stroke-miterlimit:4;stroke-dasharray:none;stroke-dashoffset:0;stroke-opacity:1;color-rendering:auto;image-rendering:auto;shape-rendering:auto;text-rendering:auto;enable-background:accumulate"
       d="m 81.007812,30.449219 c -11.604672,0 -19.01382,8.365447 -20.93164,15.357422 l -9.830078,35.84375 c -2.250605,8.205242 6.849116,15.359375 15.357422,15.359375 H 487.81641 c 8.5083,0 17.56774,-7.154133 19.81836,-15.359375 l 8.98242,-32.748047 c 2.49752,-9.32085 -6.61555,-18.453125 -18.96875,-18.453125 z m 405.517578,13.498047 9.0625,1.84375 -5.63672,11.433593 c -1.15904,-0.807812 -2.54648,-1.457506 -4.16211,-1.949218 -1.5805,-0.491712 -2.75856,-0.738282 -3.53125,-0.738282 -0.73757,0 -1.36965,0.140897 -1.89648,0.421875 -0.52684,0.245856 -0.85951,0.666593 -1,1.263672 -0.14049,0.667323 0.79099,1.369855 2.79297,2.107422 2.77465,1.018545 4.70613,1.932423 5.79492,2.740234 2.14245,1.54538 3.21289,3.600138 3.21289,6.164063 0,0.948301 -0.0881,1.825001 -0.26367,2.632813 -0.70245,3.231247 -2.38735,6.00615 -5.05664,8.324218 -3.16101,2.739537 -7.05918,4.109375 -11.69532,4.109375 -1.61562,0 -3.3377,-0.227005 -5.16406,-0.683593 -2.42344,-0.597079 -4.65431,-1.546181 -6.6914,-2.845704 l 5.05859,-10.43164 c 2.66929,1.334646 4.54793,2.195686 5.63672,2.582031 1.08879,0.386344 2.19444,0.580078 3.31836,0.580078 1.5805,0 2.47677,-0.563588 2.6875,-1.6875 0.17561,-0.807812 -0.73827,-1.578839 -2.74024,-2.316406 -2.98539,-1.123913 -4.96969,-2.020177 -5.95312,-2.6875 -2.2127,-1.54538 -3.31836,-3.600138 -3.31836,-6.164063 0,-0.948301 0.0881,-1.826953 0.26367,-2.634765 0.70244,-3.336615 2.36974,-6.023457 5.00391,-8.060547 2.63417,-2.037091 5.83176,-3.054688 9.58984,-3.054688 h 1.68555 c 0.45659,0 1.24718,0.07045 2.37109,0.210938 z m -28.35547,0.158203 h 10.0625 L 462.64648,56.75 h -11.32617 l -0.42187,2.054688 h 13.22461 l -4.42578,9.271484 h -10.80079 l -0.47265,2.21289 h 13.01172 l -5.05664,11.275391 h -21.60157 l 5.32227,-25.130859 h -2.5293 l 4.84571,-10.90625 h 14.96289 z m -110.88867,0.632812 c 2.3532,0 4.24944,0.473574 5.68945,1.421875 l 0.78907,-0.632812 7.06054,4.162109 -9.90429,8.535156 c -0.70244,-0.421466 -1.28169,-0.736531 -1.73829,-0.947265 -1.47513,-0.667323 -2.82736,-1.001953 -4.05664,-1.001953 -2.31806,0 -4.35521,0.808204 -6.11132,2.423828 -1.54539,1.440012 -2.52972,3.124916 -2.95118,5.05664 -0.0702,0.316101 -0.1231,0.615507 -0.1582,0.896485 -0.0351,0.245856 -0.0527,0.527649 -0.0527,0.84375 0,1.756113 0.63208,3.125952 1.89648,4.109375 1.29952,0.983424 2.89831,1.474609 4.79492,1.474609 1.08879,0 2.09074,-0.228957 3.00391,-0.685547 0.9483,-0.45659 1.77216,-1.07106 2.47461,-1.84375 h -5.79492 l 4.37304,-9.324219 h 16.85938 c -0.0703,0.386346 -0.10547,0.666186 -0.10547,0.841797 -0.10537,0.702445 -0.17584,1.142748 -0.21094,1.31836 -1.2644,5.935662 -4.12735,10.886653 -8.58789,14.855469 -4.46052,3.968814 -9.27257,5.953125 -14.43555,5.953124 -4.67125,10e-7 -8.48137,-1.352226 -11.43164,-4.05664 -2.91514,-2.739536 -4.37304,-6.338301 -4.37304,-10.798828 0,-1.334645 0.15851,-2.722097 0.47461,-4.16211 1.12392,-5.303461 4.17866,-9.800443 9.16601,-13.488281 4.46053,-3.301492 8.90468,-4.951172 13.33008,-4.951172 z m 26.92578,0.789063 h 17.91211 l 2.58203,36.037109 h -11.95898 l 0.0527,-5.005859 h -10.2207 l -2.5293,5.005859 h -11.58984 l 12.69531,-26.341797 h -2.52734 z m 29.21094,0 h 11.38086 l 4.95117,7.58789 7.58789,-7.58789 h 11.0625 l -7.63867,36.037109 h -10.48438 l 4.26758,-20.072265 -8.06054,7.74414 -5.26758,-7.166016 -4.16211,19.494141 H 395.7793 l 5.32226,-25.025391 h -2.52929 z m -21.41406,10.853515 -5.10938,10.695313 h 5.63672 z"
       transform="matrix(9.7540449,0,0,9.7540449,-1946.5625,-7.4374682)" /><path
       style="color:#000000;clip-rule:nonzero;display:inline;overflow:visible;visibility:visible;isolation:auto;mix-blend-mode:normal;color-interpolation:sRGB;color-interpolation-filters:linearRGB;solid-color:#000000;solid-opacity:1;vector-effect:none;fill:#050608;fill-opacity:1;fill-rule:nonzero;stroke:none;stroke-width:27.1393;stroke-linecap:round;stroke-linejoin:miter;stroke-miterlimit:4;stroke-dasharray:none;stroke-dashoffset:0;stroke-opacity:1;color-rendering:auto;image-rendering:auto;shape-rendering:auto;text-rendering:auto;enable-background:accumulate"
       d="M -609.38278,34.937686 H 884.50028 c 152.46092,0 301.30582,161.678464 251.82042,342.091594 L 1021.4003,796.00531 C 942.85789,1089.1297 745.17193,1205.5191 587.92397,1210.5076 H -895.85499 c -150.27311,0 -311.00111,-126.3307 -271.25111,-271.25118 L -997.29024,320.14309 C -955.51393,164.23205 -743.44125,39.470021 -609.38278,34.937686 Z"
       id="path5211"
       inkscape:connector-curvature="0"
       sodipodi:nodetypes="cccccsscc" /><g
       id="text5215"
       style="font-style:normal;font-variant:normal;font-weight:normal;font-stretch:normal;font-size:390.162px;line-height:243.851px;font-family:'namco regular';-inkscape-font-specification:'namco regular, ';letter-spacing:0px;word-spacing:0px;fill:#ffffff;fill-opacity:1;stroke:none;stroke-width:9.75404px;stroke-linecap:butt;stroke-linejoin:miter;stroke-opacity:1"
       transform="matrix(1.0975706,0,-0.06680267,1.0975706,-1181.1446,-52.504109)"
       aria-label="ALL "><path
         inkscape:connector-curvature="0"
         id="path4550"
         style="font-style:italic;font-variant:normal;font-weight:500;font-stretch:normal;font-size:1196.5px;font-family:Nougat;-inkscape-font-specification:'Nougat Medium Italic';fill:#ffffff;fill-opacity:1;stroke-width:9.75404px"
         d="M 981.37204,1024.403 H 709.7674 l 1.1965,-113.66719 H 478.84363 L 421.41181,1024.403 H 158.18265 L 446.53823,426.15485 H 389.10642 L 515.93501,205.99954 H 922.74373 Z M 704.98142,695.36649 693.01645,452.47776 576.95632,695.36649 Z" /><path
         inkscape:connector-curvature="0"
         id="path4552"
         style="font-style:italic;font-variant:normal;font-weight:500;font-stretch:normal;font-size:1196.5px;font-family:Nougat;-inkscape-font-specification:'Nougat Medium Italic';fill:#ffffff;fill-opacity:1;stroke-width:9.75404px"
         d="M 1488.0695,769.54926 1375.5989,1024.403 h -369.7174 l 122.0426,-573.12173 h -57.4318 l 108.8812,-245.28173 h 256.0502 L 1315.774,769.54926 Z" /><path
         inkscape:connector-curvature="0"
         id="path4554"
         style="font-style:italic;font-variant:normal;font-weight:500;font-stretch:normal;font-size:1196.5px;font-family:Nougat;-inkscape-font-specification:'Nougat Medium Italic';fill:#ffffff;fill-opacity:1;stroke-width:9.75404px"
         d="M 1950.777,769.54926 1838.3064,1024.403 H 1468.589 l 122.0427,-573.12173 h -57.4319 L 1642.081,205.99954 h 256.0502 l -119.6496,563.54972 z" /></g><g
       aria-label="ALL "
       style="font-style:normal;font-variant:normal;font-weight:normal;font-stretch:normal;font-size:390.162px;line-height:243.851px;font-family:'namco regular';-inkscape-font-specification:'namco regular, ';letter-spacing:0px;word-spacing:0px;fill:#ed1e24;fill-opacity:1;stroke:none;stroke-width:9.75404px;stroke-linecap:butt;stroke-linejoin:miter;stroke-opacity:1"
       id="text4502" /></g></svg>
