<?xml version="1.0" encoding="UTF-8" standalone="no"?>
<svg
   id="svg"
   width="351.47089"
   height="221.35741"
   viewBox="0 0 351.47089 221.35741"
   version="1.1"
   sodipodi:docname="controller.svg"
   inkscape:version="1.1.2 (0a00cf5339, 2022-02-04)"
   xmlns:inkscape="http://www.inkscape.org/namespaces/inkscape"
   xmlns:sodipodi="http://sodipodi.sourceforge.net/DTD/sodipodi-0.dtd"
   xmlns="http://www.w3.org/2000/svg"
   xmlns:svg="http://www.w3.org/2000/svg"
   xmlns:rdf="http://www.w3.org/1999/02/22-rdf-syntax-ns#"
   xmlns:cc="http://creativecommons.org/ns#"
   xmlns:dc="http://purl.org/dc/elements/1.1/">
  <metadata
     id="metadata9">
    <rdf:RDF>
      <cc:Work
         rdf:about="">
        <dc:format>image/svg+xml</dc:format>
        <dc:type
           rdf:resource="http://purl.org/dc/dcmitype/StillImage" />
      </cc:Work>
    </rdf:RDF>
  </metadata>
  <defs
     id="defs7" />
  <sodipodi:namedview
     pagecolor="#ffffff"
     bordercolor="#666666"
     borderopacity="1"
     objecttolerance="10"
     gridtolerance="10"
     guidetolerance="10"
     inkscape:pageopacity="0"
     inkscape:pageshadow="2"
     inkscape:window-width="1920"
     inkscape:window-height="996"
     id="namedview5"
     showgrid="false"
     inkscape:pagecheckerboard="true"
     inkscape:zoom="2.5355249"
     inkscape:cx="179.64722"
     inkscape:cy="46.341489"
     inkscape:window-x="0"
     inkscape:window-y="0"
     inkscape:window-maximized="1"
     inkscape:current-layer="svgg"
     fit-margin-top="0"
     fit-margin-left="0"
     fit-margin-right="0"
     fit-margin-bottom="0" />
  <g
     id="svgg"
     transform="translate(-14.544435,-20.402306)">
    <path
       id="path82"
       style="fill:#000000;fill-rule:evenodd;stroke:none"
       d="m 288.9082,20.421875 c -6.34181,0.301631 -12.91553,1.440561 -18.26173,5.076178 -1.48031,1.025211 -2.74051,2.335616 -4.28332,3.277345 -1.76491,1.169789 -3.3292,2.719981 -4.13916,4.708101 -1.56969,3.346208 -1.92652,7.073989 -2.63303,10.659387 -0.52785,3.118893 -0.97952,6.249354 -1.44057,9.378598 -18.6235,0.05139 -37.2505,-0.136236 -55.87122,0.213478 -1.86667,0.155356 -3.68238,0.737361 -5.57029,0.670872 -5.6832,0.244953 -11.39668,0.298978 -17.06384,-0.205024 -3.62897,-0.828468 -7.37785,-0.469207 -11.06532,-0.615203 -16.00214,-0.146656 -32.00712,0.08985 -48.00745,-0.255529 -1.23211,-6.617657 -1.65673,-13.436804 -3.88142,-19.832311 -1.07107,-2.627469 -3.5286,-4.237576 -5.75186,-5.8084 -2.49411,-2.122493 -5.23846,-4.088226 -8.44609,-4.946303 -8.251814,-2.761069 -17.285822,-3.018613 -25.731966,-0.998044 -4.112616,1.070624 -8.008945,3.086704 -11.099071,6.022754 -2.275975,1.536121 -4.829262,3.161365 -5.753087,5.902219 -2.038007,5.848785 -2.359222,12.088125 -3.537522,18.128309 -0.191895,0.995162 -0.137723,2.10599 -0.556801,3.016151 -2.671925,2.226025 -5.588439,4.172849 -8.006674,6.69411 -7.089372,6.837968 -12.240892,15.554259 -15.266832,24.900554 -1.587927,4.044672 -1.834744,8.430441 -2.676757,12.655968 -5.363951,32.883525 -9.801118,65.922085 -14.884543,98.836625 -0.810642,5.85923 -0.656503,12.07909 1.916479,17.51302 4.29341,10.30389 13.021867,18.45178 23.239155,22.76751 8.726188,3.71209 18.746931,4.69342 27.901828,2.01698 7.494043,-2.19532 14.275578,-6.96675 18.547475,-13.54381 6.495983,-9.82415 11.650995,-20.43871 17.131056,-30.84133 2.50551,-4.86226 5.00867,-9.72455 7.50116,-14.59338 4.46399,4.96023 10.22883,8.73626 16.58998,10.76925 12.30572,4.03393 26.64981,1.84062 36.82747,-6.29445 3.84923,-3.07187 7.02689,-6.97464 9.27786,-11.3537 h 31.72461 c 4.21251,7.04534 10.41417,13.00589 17.9517,16.36714 11.94484,5.48579 26.74844,4.3752 37.5753,-3.15479 2.90384,-1.94413 5.47937,-4.35409 7.73472,-7.01704 7.52296,14.88711 15.20103,29.70384 23.43938,44.20904 5.9875,9.74189 16.84671,16.41704 28.3178,16.94281 12.63559,0.75294 25.25268,-4.55729 34.20766,-13.3706 6.2668,-6.21337 10.66081,-14.59349 11.12041,-23.49721 0.1947,-3.26044 -0.55674,-6.46764 -0.96753,-9.68301 -0.88071,-5.68773 -1.83972,-11.29292 -2.62079,-16.97062 -3.97888,-26.42695 -7.39671,-52.94311 -11.92603,-79.289618 -1.47859,-8.415792 -3.39315,-16.958511 -7.78452,-24.392193 -4.84048,-8.473934 -11.8746,-15.630724 -20.08326,-20.878287 -1.10468,-6.542143 -1.74377,-13.211416 -3.6583,-19.597352 -0.97652,-2.67178 -3.10711,-4.83658 -5.65607,-6.050539 -2.40156,-1.823972 -4.67099,-3.976217 -7.6059,-4.914594 -5.29915,-2.150693 -11.09407,-2.765853 -16.77309,-2.623062 z M 92.111328,32.955078 c 0.820919,0.02494 1.435591,0.05716 2.253906,0.103516 0.851083,0.05341 1.985272,0.144195 2.941559,0.261195 3.566267,0.43491 7.180267,1.273241 10.285007,3.141149 0.89069,0.59458 1.33613,1.620505 1.36493,2.663381 0.66215,3.437587 1.24859,6.888955 1.80889,10.344431 -8.39192,-3.447034 -17.575196,-5.04993 -26.634654,-4.300974 -6.256775,0.477126 -12.41484,2.013393 -18.224716,4.369333 0.552038,-3.686808 1.118445,-7.376683 1.88038,-11.025084 0.439281,-1.984455 2.493212,-2.95533 4.234436,-3.58877 4.898541,-1.65161 10.1614,-1.854886 15.233858,-1.962385 1.619056,-0.0453 3.237359,-0.05982 4.856404,-0.0058 z m 196.400392,-0.0078 c 6.52469,0.01879 13.30568,-0.04465 19.41531,2.574305 1.21339,0.552963 2.84748,1.227828 2.90939,2.786144 0.64208,3.47215 1.33826,6.934771 1.88233,10.424707 -14.3775,-5.422791 -30.88977,-4.863745 -44.87109,1.509766 0.67753,-4.067964 1.24099,-8.064242 2.05928,-12.093139 0.16999,-1.203647 1.39738,-1.794946 2.33036,-2.361767 1.5591,-0.787455 3.23471,-1.229011 4.84849,-1.659097 3.73849,-0.88158 7.58993,-1.214317 11.42593,-1.180919 z m 4.68555,21.041015 c 14.5368,0.464853 28.81942,7.554414 37.6473,19.171354 9.52379,12.187458 12.90205,29.040953 8.39014,43.884863 -4.10436,14.03764 -14.76592,26.01512 -28.30498,31.58807 -10.399,4.38847 -22.33429,5.03021 -33.13871,1.75805 -0.20562,-0.12006 -0.17056,-0.92256 -0.28622,-1.31111 -0.14938,-0.89599 -0.33875,-1.78493 -0.55363,-2.6674 1.93109,0.95296 4.14846,1.04367 6.25934,1.2205 3.67608,0.15182 7.35516,-0.0689 11.03283,0.005 4.07398,0.0109 8.28239,0.36825 12.21124,-0.93645 3.25026,-1.27372 4.94569,-4.90182 4.92396,-8.24319 0.17221,-5.16618 0.0655,-10.33551 0.0687,-15.5032 5.73466,-0.0695 11.48155,0.0788 17.20568,-0.30833 3.20347,-0.39481 6.36218,-2.68103 6.94443,-5.98863 1.01696,-4.56849 0.4046,-9.26987 0.53274,-13.90106 -0.0655,-4.581038 0.47613,-9.270728 -0.73546,-13.750444 -1.11837,-3.328621 -4.70147,-5.310817 -8.1042,-5.236918 -5.27927,-0.302083 -10.56921,-0.115926 -15.85296,-0.222821 -0.0188,-5.725429 0.21914,-11.465688 -0.20017,-17.179843 -0.42342,-3.153834 -2.63936,-6.251861 -5.88229,-6.901062 -4.53873,-1.06676 -9.22985,-0.495059 -13.84137,-0.595651 -4.26096,0.07153 -8.56668,-0.264956 -12.78515,0.492962 -3.16219,0.803244 -5.90009,3.648248 -5.93861,7.011711 -0.54448,5.713306 -0.26084,11.459152 -0.411,17.187508 -5.8733,0.01177 -11.77154,-0.204558 -17.62136,0.408977 -2.98003,0.58522 -5.6046,2.719887 -6.9138,5.417585 v 28.267186 c 0.56903,0.54621 -0.68079,-0.0188 -1.00483,-0.007 -0.67896,-0.14822 -1.36153,-0.28037 -2.04595,-0.40127 -0.14957,-0.64759 -0.4894,-1.53003 -0.58789,-2.00586 -0.22666,-0.89457 -0.46201,-1.90096 -0.60296,-2.67014 -2.3183,-11.70255 3.2e-4,-24.196377 6.18063,-34.381641 0.55177,-0.914863 1.31023,-2.10026 2.01022,-3.090798 2.64204,-3.750878 5.78833,-7.147788 9.34375,-10.048828 0.54463,-0.445249 1.33411,-1.071969 2.00135,-1.558733 0.93457,-0.691021 1.75715,-1.25814 2.76678,-1.906791 7.00131,-4.484405 15.16559,-7.226036 23.49163,-7.559866 0.74772,-0.02841 1.79809,-0.06234 2.66286,-0.05704 0.37931,0.0066 0.75862,0.01329 1.13793,0.01993 z M 88.875,54.046875 c 14.20236,0.02883 28.23933,6.654843 37.25776,17.632734 9.52859,11.368231 13.65508,27.184292 10.44627,41.714851 -0.25547,1.27435 -0.52565,2.54872 -0.91106,3.79109 -1.58137,0.13897 -3.12514,0.50827 -4.66602,0.87304 1.05741,-1.86643 1.09819,-4.08595 1.28914,-6.17068 0.17287,-3.7776 -0.0862,-7.55849 -0.002,-11.3379 -0.002,-4.200344 0.43183,-8.539601 -0.88826,-12.600292 -1.26284,-3.213996 -4.84916,-4.930324 -8.16665,-4.874996 -5.19958,-0.207864 -10.40463,-0.142111 -15.60709,-0.18605 -0.15079,-5.867907 0.31559,-11.761562 -0.29584,-17.611945 -0.53321,-3.378679 -3.3452,-6.392374 -6.82644,-6.707688 -4.599552,-0.75803 -9.274189,-0.253673 -13.908576,-0.365914 -3.654065,0.04606 -7.33661,-0.163952 -10.965235,0.355469 -3.386651,0.503294 -6.462014,3.347674 -6.664981,6.857696 -0.539696,5.808907 -0.288814,11.648475 -0.420956,17.472382 -5.740906,0.07392 -11.498439,-0.107001 -17.224405,0.366925 -3.181238,0.446366 -6.281508,2.725329 -6.890878,6.0057 -1.048548,4.535024 -0.444661,9.213047 -0.574396,13.816023 0.04937,4.55361 -0.443719,9.22306 0.812715,13.66337 1.15917,3.34642 4.747375,5.33712 8.182208,5.29219 5.224565,0.34519 10.463613,0.15412 15.694756,0.25032 0.08034,5.72134 -0.09742,11.45793 0.343993,17.16601 0.434645,3.14887 2.680433,6.23705 5.929741,6.84052 4.605377,1.01424 9.345224,0.4437 14.014154,0.6221 4.501138,-0.009 9.131791,0.50461 13.50653,-0.82456 0.28176,0.0437 -0.15252,0.95496 -0.15379,1.35218 -0.2083,1.08561 -0.35553,2.18212 -0.4668,3.28125 -2.635703,0.6441 -5.276105,1.31157 -7.940443,1.55002 -12.551844,1.40474 -25.553984,-2.38954 -35.460822,-10.20565 -10.798129,-8.38533 -17.987463,-21.39168 -18.938579,-35.06898 -0.08941,-1.16893 -0.15781,-2.59258 -0.158203,-3.86328 0.007,-12.982751 5.390095,-25.89734 14.741533,-34.926479 8.29408,-8.160891 19.544994,-13.261151 31.158858,-14.05594 0.34985,-0.01835 1.173065,-0.07285 1.706832,-0.0805 0.6822,-0.02821 1.364466,-0.02391 2.047074,-0.02302 z m -8.162109,13.783203 c -1.157345,1.125881 -2.102099,2.442312 -3.042969,3.748047 0.02018,-1.380208 0.04036,-2.760417 0.06055,-4.140625 1.170697,-0.02133 2.340301,-0.09869 3.511719,-0.09766 l -0.529297,0.490234 z m 17.84375,-0.425781 c 0.01731,1.924439 0.01104,3.848971 0.002,5.773437 -0.153655,-0.620857 -1.1734,-0.421927 -0.997155,-1.019693 0.195131,-1.716019 -0.774249,-3.273517 -1.998128,-4.38425 -0.901511,-0.62131 0.453385,-0.315092 0.90464,-0.380329 0.69623,0.0036 1.39246,0.0072 2.08869,0.01084 z m 193.769529,3.730469 c 3.45784,0.04908 6.60404,3.189616 6.72071,6.544922 0.37238,4.192638 -3.7038,8.191136 -7.91016,7.537109 -3.43018,-0.435143 -6.44696,-3.586247 -6.23799,-7.131597 0.0693,-3.303886 2.66576,-6.422287 5.98764,-6.850648 0.47498,-0.08285 0.95827,-0.106459 1.4398,-0.09979 z M 190.1582,71.587891 c 17.6133,0.02009 35.22678,-6.24e-4 52.83985,0.105468 -8.60387,13.274412 -11.36333,30.126001 -7.66993,45.486331 -10.34251,1.45711 -20.27162,6.72608 -26.67868,15.06709 -6.00201,7.61686 -8.68616,17.6521 -7.65725,27.26299 -7.45256,0.0974 -14.90681,0.15953 -22.35938,0.0312 1.337,-10.52081 -2.62343,-21.30008 -9.59208,-29.15461 -6.13808,-6.97592 -14.72996,-11.8285 -23.9587,-13.1325 0.59596,-2.30939 1.02467,-4.66152 1.29297,-7.03125 0.46254,1.26991 1.26848,2.57874 2.55469,3.1289 1.2703,0.35286 2.61337,0.35285 3.92187,0.49414 4.51629,0.27759 9.04883,0.11925 13.5625,-0.0976 1.62634,-0.21784 3.20364,-1.06923 4.20512,-2.35111 1.07284,-3.86407 0.88259,-7.94278 0.35979,-11.875123 -0.51222,-2.456363 -3.04771,-4.18991 -5.51857,-3.89694 -4.4005,-0.162056 -8.81035,-0.09738 -13.20845,0.101685 -1.547,0.103925 -3.07574,0.372781 -4.58203,0.734376 -0.51858,0.78892 -0.95365,1.633452 -1.16211,2.560546 -0.71333,-7.961998 -2.95737,-15.795521 -6.5957,-22.914062 -0.81394,-1.542315 -1.69049,-3.05082 -2.63086,-4.519531 z M 89.480469,80.583984 c 0.668054,0.0025 1.336369,0.007 2.003906,0.0332 0.06869,2.42744 0.192395,4.88568 0.06055,7.326171 -1.056916,0.88889 -2.14153,1.747585 -3.279297,2.53125 -1.137186,-0.802058 -2.202119,-1.699702 -3.298828,-2.554687 -0.08118,-2.442821 -0.285862,-4.881204 -0.302735,-7.326172 1.605357,0.02191 3.211051,0.0046 4.816407,-0.0098 z m 192.087891,9.94336 c 4.2786,3.582809 10.43417,4.745159 15.71225,2.908959 1.93925,-0.644139 3.75308,-1.666056 5.30142,-3.000756 0.0131,0.760394 0.0233,1.520836 0.0352,2.28125 0.78415,0.01638 1.61118,0.01216 2.36914,0.04102 -2.80316,3.147896 -4.31698,7.410323 -4.00412,11.625453 0.19168,3.42678 1.57057,6.75381 3.76974,9.37846 -0.70575,0.009 -1.41145,0.0211 -2.11718,0.0312 -0.0169,0.87435 -0.0332,1.74871 -0.0508,2.62305 -3.18733,-2.82689 -7.51711,-4.4201 -11.7871,-4.04297 -1.49186,0.0526 -3.18758,0.40198 -4.6504,0.99414 -1.80933,0.71017 -3.46498,1.78449 -4.90234,3.08789 -0.0146,-0.89712 -0.0274,-1.79427 -0.041,-2.69141 -0.67578,-0.005 -1.35155,-0.0116 -2.02734,-0.0156 3.71859,-4.38884 4.94727,-10.81383 2.81741,-16.196209 -0.68655,-1.754208 -1.68819,-3.385122 -2.94046,-4.79208 0.71679,-0.0066 1.4336,-0.01161 2.15039,-0.01758 0.0124,-0.832683 0.0252,-1.665358 0.0371,-2.498047 0.10938,0.0944 0.21875,0.188802 0.32813,0.283203 z M 58.955078,92.25 c -0.277154,0.594016 -0.754343,0.593568 -1.339844,0.529297 -1.897437,-0.0045 -3.19926,1.542659 -4.509765,2.689453 -0.333738,0.203933 -0.02386,-1.083844 -0.108603,-1.457018 0.0123,-0.582967 0.03682,-1.165707 0.06563,-1.74806 1.95489,0.0055 3.983342,-0.07109 5.892578,-0.01367 z m 64.285152,0.02148 v 3.169922 L 120.0293,92.27148 Z m 90.35547,3.285157 c -2.45205,0.237785 -4.501,2.099559 -5.30664,4.378906 -0.93272,2.881917 -0.76408,6.047797 0.022,8.944447 0.67051,2.05703 2.01517,4.20726 4.2085,4.8329 2.01923,0.60282 4.05548,-0.20898 5.90635,-0.96616 3.90207,-1.41935 7.85377,-2.8353 11.42776,-4.97247 0.4661,-0.43805 1.20161,-0.82827 1.05333,-1.56526 0.16496,-1.7819 -0.13986,-3.86025 -1.71141,-4.96258 -1.16482,-0.90876 -2.55108,-1.246703 -3.83089,-1.84617 -3.70759,-1.503677 -7.41849,-3.075179 -11.34319,-3.927598 -0.14192,0.028 -0.28385,0.05599 -0.42578,0.08398 z m 103.55274,0.669921 c 3.50702,-0.05338 6.62895,2.937308 6.9874,6.381762 0.49739,3.6225 -2.30229,7.35979 -5.96149,7.78407 -3.92655,0.57013 -8.12828,-2.65275 -8.11639,-6.72515 -0.0761,-3.57187 2.72799,-7.058983 6.35002,-7.404032 0.24553,-0.0336 0.49339,-0.02753 0.74046,-0.03665 z m -49.58399,0.01367 c 3.7132,0.252297 6.75107,3.923942 6.3391,7.619962 -0.26828,3.75242 -3.88358,7.05517 -7.70031,6.57119 -3.49169,-0.32463 -6.53348,-3.50615 -6.44093,-7.06264 -0.006,-3.874789 3.58299,-7.340442 7.47049,-7.134514 l 0.33165,0.006 z M 74.837891,100.81055 c 0.3713,0.60423 0.861412,1.12012 1.316406,1.66015 -0.823559,1.13884 -1.816203,2.14262 -2.658203,3.26758 -2.359301,-0.0227 -4.718753,-0.0104 -7.078125,-0.0117 v -6.44531 c 2.334367,-0.09447 4.66912,-0.178369 7.003906,-0.261719 0.472005,0.597005 0.94401,1.194009 1.416016,1.791019 z m 10.199218,-1.535159 c 1.943724,0.990179 4.382173,1.216419 6.345703,0.158203 -1.269735,1.929276 -1.066944,4.503966 0.03711,6.458986 -1.814267,-1.03795 -4.077071,-1.12647 -5.97461,-0.25586 -0.499105,0.22708 -1.026744,0.58308 -0.513397,-0.11749 1.16325,-1.91909 0.945118,-4.39972 -0.06473,-6.335636 l 0.08798,0.04753 z m 21.845701,0.002 c 1.10914,0.03356 2.21885,0.0209 3.32813,0.04492 0.18007,2.292279 0.0765,4.593669 0.0137,6.888679 -2.35109,-0.0378 -4.71916,0.0491 -7.05859,0 -1.02478,-1.17254 -2.02609,-2.36796 -2.93555,-3.63282 0.86858,-1.10182 1.73848,-2.20229 2.61133,-3.300781 h 4.04101 z m 51.75,5.341799 h 3.64063 c -0.0378,0.5873 -1.11868,0.13159 -1.6,0.27539 h -5.68125 c 0.0378,-0.58729 1.11867,-0.13159 1.6,-0.27539 z m -105.091794,5.36524 c 1.180356,1.15321 2.605927,2.00176 3.941406,2.95703 -1.474609,-0.0117 -2.949219,-0.0234 -4.423828,-0.0352 -0.0072,-1.13411 -0.01432,-2.26823 -0.02148,-3.40234 0.167969,0.16015 0.335938,0.32031 0.503907,0.48047 z m 69.699214,2.91796 c -1.89386,0.0131 -3.78775,0.004 -5.68164,0.002 0.34451,-0.26595 0.46758,-0.9442 0.86133,-1.00391 1.85963,0.202 3.70792,-0.73137 4.82031,-2.20312 v 3.20507 z m -34.824214,1.93164 c 1.065678,0.7805 2.08504,1.62132 3.123046,2.4375 -0.01479,2.42508 0.0596,4.85193 -0.05664,7.2754 -2.296261,-0.007 -4.592675,0.0972 -6.888672,0.0391 -0.03185,-2.38402 0.02489,-4.76823 0.0078,-7.15235 1.125187,-0.99845 2.295544,-1.9504 3.546876,-2.78711 0.08919,0.0625 0.178385,0.125 0.267578,0.1875 z m 204.072264,6.57227 c 3.40955,0.14538 6.3899,3.17134 6.50214,6.58202 0.30764,3.81061 -2.923,7.67528 -6.84311,7.59515 -3.67475,0.0141 -7.28025,-3.09201 -7.24301,-6.8803 -0.0749,-3.56958 2.82107,-7.03318 6.44922,-7.26562 0.37732,-0.0336 0.75615,-0.0435 1.13476,-0.0312 z m -172.17578,1.07031 c -5.03117,2.99981 -9.4259,7.08775 -12.69141,11.95703 0.0782,-4.05056 -0.0309,-8.10157 -0.0234,-12.15234 4.41578,-0.0581 8.83354,0.027 13.24804,-0.11133 -0.17773,0.10222 -0.35547,0.20443 -0.5332,0.30664 z m 140.22852,0.42578 c 3.9495,0.10944 7.90106,0.0461 11.85156,0.0488 0.0402,4.23232 -0.0265,8.46646 0.11133,12.69727 -3.08836,-5.14908 -7.36934,-9.60506 -12.48438,-12.76563 0.17383,0.007 0.34766,0.013 0.52149,0.0195 z m -225.367192,4.11133 c 5.222798,11.72241 14.518467,21.50806 25.821414,27.5461 10.659146,5.77108 23.149787,8.18953 35.17456,6.49389 1.857203,-0.25173 3.701806,-0.59364 5.529418,-1.00874 0.5521,4.34361 1.76234,8.60219 3.60742,12.57422 -4.50583,8.99836 -9.03771,18.06824 -13.708984,26.92969 -3.769968,7.09928 -7.622001,14.16157 -11.785424,21.03862 -2.935927,4.76669 -7.520411,8.4688 -12.798154,10.33568 -8.705498,3.16761 -18.657735,1.79684 -26.64656,-2.69731 -1.052518,-0.58753 -2.045312,-1.20863 -2.966808,-1.84401 -4.751789,-3.34238 -8.931753,-7.64927 -11.651407,-12.81344 -2.264213,-4.78885 -2.161809,-10.26403 -1.589147,-15.41407 0.118951,-1.0012 0.281846,-2.26083 0.464871,-3.35633 3.592476,-22.87265 6.661341,-45.80923 10.152317,-68.69055 0.132161,0.30209 0.264323,0.60417 0.396484,0.90625 z m 310.591792,0.0449 c 3.0421,20.11947 5.76251,40.27319 8.83783,60.38868 0.65774,4.36905 1.45494,8.71872 2.05048,13.09589 0.56151,5.6267 -0.49249,11.63022 -3.97199,16.21053 -6.26068,8.92569 -16.49528,15.20447 -27.46514,15.88498 -0.65785,0.0407 -1.11417,0.0562 -1.81796,0.061 -1.2089,0.01 -2.52675,-0.0765 -3.60262,-0.20769 -6.92091,-0.81014 -13.73082,-4.22843 -17.78371,-10.01641 -0.93038,-1.26877 -1.92428,-2.84427 -2.82334,-4.27839 -4.60177,-7.35795 -8.4356,-15.15634 -12.50177,-22.81409 -4.06558,-7.86524 -8.12174,-15.75695 -12.11318,-23.64672 1.67855,-3.76986 2.69643,-7.8096 3.22851,-11.89453 8.92098,2.18803 18.36178,2.30744 27.29783,0.13301 17.63052,-4.17608 33.20993,-16.7739 40.43129,-33.4644 0.18891,-0.71422 0.15224,0.41578 0.23377,0.54818 z M 98.552734,137.58594 h -3.123046 c 1.404729,-1.26013 2.093234,-3.07743 2.560546,-4.85938 -0.637594,-0.40997 0.498155,-0.94938 0.56058,-0.98594 6.4e-4,1.94844 0.0013,3.89688 0.0019,5.84532 z m -19.330078,-1.90625 c 0.629321,0.63564 1.26054,1.26944 1.888672,1.90625 h -3.382812 c -0.01693,-1.15235 -0.03386,-2.30469 -0.05078,-3.45703 0.514974,0.51692 1.029948,1.03385 1.544922,1.55078 z m 60.667964,1.33984 c 6.21331,-1.4e-4 12.49064,3.16533 15.70616,8.56988 3.9615,6.29761 3.69083,15.06649 -0.97226,20.93317 -4.01639,5.37198 -11.09597,8.4777 -17.75899,7.1879 -7.2383,-1.17304 -13.50381,-7.09391 -14.85628,-14.33775 -1.47681,-6.91669 1.46482,-14.46365 7.07358,-18.72372 3.07324,-2.35673 6.95053,-3.59106 10.80779,-3.62948 z m 99.7793,0.004 c 6.54374,0.1241 13.07439,3.82813 16.00583,9.77296 3.58198,6.8112 2.6042,15.94906 -2.88941,21.47734 -4.98695,5.21178 -13.21146,7.26181 -19.9367,4.43145 -7.1573,-2.75553 -12.34508,-10.29348 -11.82347,-18.02719 0.35262,-7.39971 5.62239,-14.23549 12.5736,-16.68635 1.96513,-0.59863 4.00713,-1.01518 6.07015,-0.96821 z"
       sodipodi:nodetypes="cccccccccccccccccccccccccccccccccccccccccccccccccsccccccccccssccccccccccccccccccccccccccccccccccccccccccccccccccccccccccccccccccccccccccccccccccccccsccccscccccccsccccsscccccccccccccccccccccccccccccccccccccccccccccccccsccccssccccscccccccccssccccccscccccsccccccccccccccccccccccccccccccccccccccccccccccccccsccccssscccsscccccccccccccccccccccscccccccccccccssccccscscccsscccccccccccccc" />
    <path
       id="path0"
       style="fill:#ffffff;fill-rule:evenodd;stroke:none"
       d="m 288.98047,24.421875 c -5.93059,0.302488 -12.24579,1.331288 -17.04492,5.082031 -1.51496,1.559591 -3.54934,2.4966 -5.08789,4.013672 -2.07693,2.736976 -2.31747,6.350901 -3.03321,9.601563 -0.83552,4.783029 -1.49943,9.593599 -2.20898,14.396484 -19.21449,0.0608 -38.43175,-0.115416 -57.64453,0.166016 -1.54429,-0.04512 -3.03144,0.2338 -4.48828,0.583984 -6.70691,0.425356 -13.45745,0.446928 -20.16211,-0.02344 -2.72544,-0.801047 -5.64157,-0.517434 -8.46289,-0.638672 -17.25401,-0.195397 -34.5144,0.09956 -51.76563,-0.28711 -0.69444,-0.140843 -1.97343,0.267034 -1.95508,-0.8125 -1.50938,-6.852466 -1.8412,-13.957006 -3.84961,-20.697265 -0.5635,-2.169036 -2.53167,-3.382811 -4.27734,-4.533203 -2.01822,-1.621743 -3.96123,-3.427991 -6.46289,-4.283204 -7.060292,-2.674477 -14.889799,-3.16759 -22.308594,-1.912109 -4.332234,0.756243 -8.606238,2.461276 -11.773438,5.599609 -1.766197,1.426381 -4.229121,2.355125 -4.9375,4.736328 -1.615541,5.003949 -1.982121,10.30754 -2.929687,15.460938 -0.40463,1.96774 -0.460716,4.0764 -1.09375,5.958984 -2.369784,2.427917 -5.40551,4.099954 -7.804688,6.509766 -7.109186,6.489829 -12.328788,14.923177 -15.246094,24.083984 -1.472572,3.377031 -1.640292,7.126584 -2.373047,10.701172 -5.453285,33.038607 -9.835638,66.243357 -14.992187,99.326177 -0.792922,5.36273 -0.97835,11.06398 1.369141,16.0918 6.827229,16.78175 26.366658,27.11802 44.082031,23.41796 7.54904,-1.57915 14.538588,-6.03602 18.744141,-12.56054 5.909188,-8.8532 10.58181,-18.45213 15.560546,-27.84375 3.912626,-7.55655 7.785576,-15.13489 11.664066,-22.70899 3.48259,5.11444 8.04814,9.5775 13.64648,12.3125 12.87961,6.57253 29.91161,4.57696 40.33008,-5.66601 2.96197,-2.8713 5.28198,-6.37048 6.9043,-10.15625 h 36.57617 c 3.42448,6.36891 8.41298,12.0119 14.82422,15.47461 10.83584,6.12042 25.01339,5.76593 35.42773,-1.10157 4.54489,-2.86248 8.18403,-6.94999 11.0918,-11.41796 0.73864,0.17556 0.96456,1.33043 1.39648,1.91796 7.79377,15.54623 15.80465,31.01047 24.31055,46.1836 4.86989,8.75917 13.99324,15.06016 24,16.13476 11.60904,1.34183 23.46307,-3.22832 31.98633,-11.04297 6.5976,-6.07047 11.28559,-14.76634 11.01758,-23.89062 -0.83156,-7.22151 -2.26589,-14.36245 -3.23243,-21.56836 -3.98577,-26.35475 -7.40567,-52.79787 -11.82226,-79.08594 -1.52491,-8.664513 -3.10393,-17.555657 -7.61719,-25.250001 -4.80888,-8.537736 -12.0003,-15.627237 -20.38867,-20.660156 -1.14681,-6.543908 -1.79836,-13.196394 -3.45117,-19.638672 -0.47998,-2.124267 -1.92303,-3.959934 -3.96094,-4.783203 -2.25212,-1.429146 -4.0228,-3.580972 -6.57813,-4.542969 -4.99253,-2.19748 -10.57049,-2.795888 -15.97851,-2.648437 z M 88.263672,25.556641 c 4.90292,0.06109 9.972875,0.447123 14.476558,2.542968 1.03958,0.512175 2.04881,1.104694 2.96094,1.820313 -7.237677,-2.057558 -14.872386,-2.231225 -22.347654,-1.992188 -4.226112,0.182893 -8.448557,0.748847 -12.482422,2.050782 3.072397,-2.675384 7.29179,-3.353161 11.173828,-3.984375 2.061039,-0.27616 4.139471,-0.418522 6.21875,-0.4375 z m 202.833988,0.02539 c 5.45953,-0.01308 11.08063,0.724317 15.77929,3.6875 1.5324,1.015661 -0.6587,0.185646 -1.42383,0.04883 -8.03919,-1.827119 -16.42538,-1.833938 -24.59179,-0.935547 -2.595,0.274105 -5.14048,0.942565 -7.66992,1.466797 2.42664,-2.285447 5.9036,-2.825639 9.04101,-3.492187 2.91753,-0.503889 5.89257,-0.754851 8.86524,-0.775391 z M 89.806641,28.910156 c 6.432089,0.04695 13.253629,0.570275 18.982419,3.59961 2.12617,1.110291 3.87621,3.099619 4.04297,5.578125 1.17959,6.033248 2.10529,12.112446 3.05274,18.185547 -7.04374,-3.722195 -14.70798,-6.428469 -22.691411,-7.066407 -10.608977,-0.998077 -21.364332,1.46301 -30.78125,6.347657 -0.37843,0.05693 -1.761064,1.08143 -1.449218,0.07031 0.901219,-6.084036 1.721586,-12.233496 2.96289,-18.271484 0.973382,-3.868476 4.964744,-5.834388 8.5625,-6.761719 5.605944,-1.535995 11.534738,-1.583333 17.31836,-1.681641 z m 198.703129,0.03711 c 7.54101,-0.01025 15.48048,0.04072 22.35742,3.542968 1.98149,1.023165 3.7472,2.784154 3.88086,5.13086 1.21461,5.882707 2.20137,11.826825 3.0039,17.787109 -12.79478,-6.936997 -28.3914,-8.245011 -42.22851,-3.818359 -4.47452,1.334038 -8.65035,3.465885 -12.7168,5.71289 0.22466,-3.147802 0.95302,-6.518464 1.41016,-9.74414 0.69692,-3.79356 1.10429,-7.662275 2.0625,-11.396485 1.54032,-3.33438 5.43769,-4.67965 8.75976,-5.646484 4.38012,-1.158512 8.92513,-1.626005 13.47071,-1.568359 z m 3.36718,21.017578 c 15.52574,0.06662 30.93023,7.119458 40.85157,19.154297 10.78091,12.751724 15.10999,30.750295 10.91406,46.970699 -3.71919,14.99456 -14.31643,28.17325 -28.26172,34.90235 -12.18488,6.06352 -26.76238,7.15892 -39.70117,2.91601 -1.9805,-0.25674 -1.76668,-2.55699 -2.10547,-4.01758 -1.70455,-10.46045 -8.41971,-20.00282 -17.875,-24.86914 -4.20099,-2.28622 -8.93631,-3.4755 -13.60352,-4.1582 -0.99823,-0.74337 -0.94387,-2.27579 -1.41797,-3.36523 -4.03208,-13.95164 -1.73379,-29.405463 5.89844,-41.720706 8.56334,-14.169448 23.86431,-24.203366 40.44922,-25.59961 1.61169,-0.151745 3.23301,-0.210599 4.85156,-0.21289 z m -202.935544,0.08203 c 14.431914,0.05612 28.696864,6.321521 38.445314,17.007813 10.9419,11.73612 16.216,28.555341 13.62109,44.419923 -0.531,2.92171 -1.04262,5.88708 -2.11719,8.6582 -1.0615,1.30075 -3.02687,0.83003 -4.49414,1.28711 -12.99407,2.24529 -24.62613,12.18973 -27.90429,25.10156 -0.67887,2.23706 -0.66395,4.61133 -1.13672,6.8711 -1.03482,1.20621 -2.91555,1.09925 -4.31836,1.62109 -14.251321,3.64567 -29.946402,0.72476 -42.072266,-7.55273 C 45.818298,138.71983 36.850705,123.97529 35.474609,108.26172 34.004001,93.604098 38.997775,78.499003 48.947266,67.658203 59.010865,56.459883 73.879932,49.843076 88.941406,50.046874 Z m 83.861324,8.445313 c 1.88762,0.09637 3.92205,-0.09895 5.65821,0.716796 5.95494,0.626468 11.97348,0.436105 17.95312,0.322266 1.9064,-0.04314 3.8295,-0.144581 5.6543,-0.660156 10.05436,-0.437194 20.12728,-0.187659 30.18945,-0.279297 l 28.79688,-0.0098 c -3.15652,2.282682 -6.04887,4.894491 -8.83789,7.607422 H 128.14062 c -2.64815,-2.656673 -5.45912,-5.138921 -8.4414,-7.414062 27.54774,-0.127932 28.66428,-0.11556 53.10351,-0.283203 z m -78.533199,3.65039 c -2.038949,0.0079 -4.084195,0.09977 -6.101562,0.04492 -4.040047,0.118119 -8.126569,-0.225183 -12.136719,0.34375 -1.501667,0.412466 -2.997486,1.493799 -3.0625,3.189453 -0.570876,5.477395 -0.265415,11.01021 -0.423828,16.509766 l -0.04102,4.603515 c -6.510134,0.144204 -13.031188,-0.03095 -19.535156,0.269532 -1.882495,0.06968 -4.12399,0.834635 -4.607422,2.886718 -0.932088,3.798539 -0.389244,7.771155 -0.521484,11.642579 0.141139,4.37352 -0.39176,8.81764 0.423828,13.14258 0.3241,1.96959 2.234624,3.13184 4.113281,3.2168 5.421865,0.44366 10.878772,0.13913 16.314453,0.30859 1.267947,0.0124 2.536741,0.0247 3.804688,0.0371 0.137363,6.47597 -0.02,12.9607 0.248047,19.43164 0.05011,1.89882 0.80952,4.17741 2.912109,4.61719 3.916713,0.87182 7.988713,0.35506 11.96875,0.52734 4.219048,-0.0991 8.518153,0.46497 12.681644,-0.39258 2.04618,-0.34811 3.11868,-2.41174 3.18359,-4.32812 0.33945,-5.81738 0.0252,-11.65502 0.12891,-17.48047 0.0151,-1.24317 -0.43318,-2.94655 1.40039,-2.38867 6.1608,-0.14733 12.3314,0.0429 18.48633,-0.24219 1.89064,-0.0393 4.04039,-0.97466 4.39258,-3.03515 0.82119,-4.16044 0.26693,-8.44777 0.40429,-12.66016 -0.13133,-4.097278 0.41769,-8.274842 -0.41992,-12.316411 -0.37562,-2.06809 -2.56979,-2.955846 -4.45898,-2.988281 -6.41894,-0.271496 -12.85292,-0.09883 -19.27735,-0.242187 -1.13837,-0.114722 -0.24199,-2.245217 -0.52734,-3.205078 -0.11198,-5.614064 0.22371,-11.244882 -0.13672,-16.84961 -0.0619,-1.881137 -1.15198,-3.859184 -3.14844,-4.1875 -1.992847,-0.386997 -4.025504,-0.463008 -6.064453,-0.455078 z M 298.5957,62.808594 c -1.99259,0.0045 -3.99452,0.110872 -5.9707,0.04297 -0.20731,8.96e-4 -0.41379,0.0011 -0.62109,0.002 -4.04089,0.115944 -8.1272,-0.221983 -12.13868,0.34375 -1.50164,0.416766 -2.9965,1.496479 -3.06054,3.193359 -0.57003,5.417148 -0.26389,10.888809 -0.42188,16.328125 l -0.043,4.822266 c -6.68399,0.101629 -13.38754,-0.212827 -20.05859,0.271484 -1.83343,0.04718 -3.42142,1.18738 -4.4375,2.609375 v 25.744147 c 1.12547,1.35524 2.61101,2.49321 4.44727,2.52929 6.66876,0.4801 13.36789,0.16885 20.04882,0.26953 0.1447,6.51657 -0.0466,13.04467 0.26368,19.55469 0.047,1.96678 0.95245,4.24795 3.10156,4.66211 4.16347,0.88526 8.47526,0.32622 12.69922,0.4707 3.98202,-0.12533 8.05329,0.39839 11.97265,-0.47656 2.15848,-0.4344 2.97325,-2.77106 3.00196,-4.72851 0.22153,-6.47345 1.5e-4,-12.95795 0.0762,-19.43555 6.56126,-0.1416 13.13087,0.004 19.6875,-0.24414 1.86618,-0.0423 4.09702,-0.81576 4.53515,-2.86328 0.89076,-3.89257 0.33402,-7.94089 0.4668,-11.89844 -0.14431,-4.351878 0.39752,-8.767454 -0.36914,-13.076174 -0.28947,-1.958463 -2.21096,-3.067577 -4.05664,-3.13086 -5.36543,-0.375141 -10.75895,-0.101361 -16.13477,-0.263672 l -4.1289,-0.04102 c -0.0801,-6.503646 0.15437,-13.01463 -0.082,-19.513672 -0.0481,-1.883605 -0.80897,-4.129439 -2.86133,-4.611328 -1.9399,-0.469159 -3.92343,-0.565042 -5.91602,-0.560547 z M 83.091797,63.324219 c 1.864486,0.0028 3.729733,0.03359 5.591797,0.02539 4.011068,0.02276 8.022132,0.04558 12.033206,0.06836 0.7532,1.031427 2.21027,1.794187 1.83593,3.255859 0.0759,6.781835 -0.16756,13.577547 0.18165,20.351563 -0.0775,0.863902 0.67911,1.282522 1.46289,1.117187 7.06769,0.204107 14.13931,0.103771 21.20898,0.128906 0.77712,0.942654 2.2432,1.599151 1.83398,3.033204 v 23.759762 c -0.94259,0.77727 -1.59934,2.24275 -3.0332,1.83399 -7.00548,0.07 -14.03867,-0.16796 -21.02734,0.22851 -0.85367,0.93136 -0.37927,2.47529 -0.58203,3.63672 -0.0747,6.29846 -0.0339,12.59769 -0.0449,18.89649 -0.83503,0.72643 -1.26947,2.31051 -2.621089,1.92578 H 75.607422 c -0.773801,-0.98043 -2.234866,-1.67776 -1.867188,-3.12696 -0.104033,-7.1313 -0.21118,-14.26322 -0.314453,-21.39453 -7.504579,-0.0536 -15.009123,-0.11497 -22.513672,-0.17383 -0.769582,-0.97835 -2.22963,-1.67349 -1.849609,-3.11914 0.02302,-7.43434 -0.328972,-14.880918 0.02344,-22.308589 -0.01295,-1.334011 0.864685,-2.627556 1.986328,-3.183594 7.450913,-0.05789 14.902587,-0.119142 22.353515,-0.173828 0.10924,-7.528012 0.222115,-15.055979 0.332031,-22.583985 0.878953,-1.229814 2.182072,-2.122837 3.746094,-2.05664 1.859526,-0.117993 3.723405,-0.143414 5.587891,-0.140625 z m 204.775393,0.589843 c 5.53146,0.07259 11.10121,-0.127908 16.60351,0.46875 1.91894,0.660399 1.57645,2.954385 1.75,4.566407 0.19058,6.605692 0.22415,13.214934 0.33789,19.822265 7.67124,0.109246 15.34244,0.221986 23.01368,0.332032 0.8022,0.940162 1.87441,1.778455 1.5039,3.152343 v 23.394531 c -0.80669,0.93584 -1.4697,2.17602 -2.90429,1.76953 -7.20459,0.10498 -14.40865,0.21222 -21.61329,0.31446 -0.16206,6.80606 -0.0849,13.62 -0.32617,20.42187 -0.0175,1.77506 -0.78887,3.89925 -2.80469,4.14648 -4.41102,0.6677 -8.90111,0.0962 -13.34375,0.20118 -3.47475,-0.0281 -6.94907,-0.0558 -10.42382,-0.084 -0.8047,-1.04133 -2.47265,-1.7168 -2.08204,-3.26367 -0.10574,-7.14105 -0.21338,-14.28274 -0.3164,-21.42383 -7.51694,-0.0552 -15.03386,-0.11735 -22.55078,-0.17578 -1.12149,-0.86405 -1.95394,-2.07948 -1.85352,-3.54687 -0.21247,-7.71095 0.0512,-15.429124 0.0527,-23.142582 0.94294,-0.804774 1.57656,-2.328524 3.03906,-1.929688 7.10393,-0.05361 14.20857,-0.111736 21.3125,-0.164062 0.10888,-7.528027 0.22236,-15.055995 0.33398,-22.583985 0.96014,-1.11945 2.10735,-2.372333 3.74219,-2.128906 2.17433,-0.110786 4.35266,-0.126006 6.5293,-0.146485 z m 3.52343,2.21875 c -5.6288,-0.03411 -10.5341,4.63841 -11.36914,10.097657 -1.05833,5.307901 2.05959,11.017335 7.08399,13.017578 4.65284,2.112151 10.58587,0.986063 13.93555,-2.939453 3.74868,-3.877329 4.1283,-10.3037 1.09765,-14.708985 -2.29668,-3.579802 -6.51579,-5.662042 -10.74805,-5.466797 z M 88.179688,66.777344 c -1.590087,0.410422 -2.500314,2.048859 -3.738282,3.023437 -0.778607,0.809266 -1.679586,1.530572 -2.3125,2.464844 1.33535,0.518179 2.917923,0.173937 4.339844,0.316406 2.277823,-0.110194 4.648075,0.29523 6.871094,-0.267578 0.794237,-0.716504 -0.555979,-1.563511 -0.976563,-2.097656 -1.369347,-1.079005 -2.343259,-2.807059 -4.015625,-3.433594 -0.05609,0.0016 -0.112602,-0.0097 -0.167968,-0.0059 z m 203.712892,0.357422 c 5.47067,-0.172009 10.55652,4.269695 11.07617,9.689453 0.88042,5.886077 -3.88497,11.816386 -9.74805,12.36914 -5.56836,0.711815 -11.30803,-3.448958 -12.15234,-9.033203 -0.94186,-5.04035 2.04719,-10.467699 6.88281,-12.240234 1.25072,-0.500886 2.5952,-0.760409 3.94141,-0.785156 z m -162.38281,0.453125 h 60.65234 c 20.235,0.02631 40.47071,-0.0185 60.70508,0.154297 -3.83837,4.660636 -7.14849,9.797131 -9.29688,15.46289 -4.67652,11.887808 -5.162,25.421542 -1.05469,37.542972 -10.71805,0.27612 -21.47089,4.92842 -28.24609,13.37695 -6.31493,7.63112 -8.75247,18.11188 -6.87695,27.79883 0.69558,1.51251 -0.36135,1.6758 -1.64258,1.55078 -9.60259,0.1453 -19.21359,0.22925 -28.81445,-0.002 -0.85417,0.0894 -1.52345,-0.18464 -0.89649,-1.10547 2.70456,-10.59641 -1.21513,-22.05686 -8.5332,-29.91211 -6.32314,-6.96046 -15.44156,-11.35079 -24.88086,-11.57031 -1.56511,0.28004 -0.18407,-1.36191 -0.11719,-2.17969 3.97371,-12.46929 2.37561,-26.290329 -2.88476,-38.136721 -2.05529,-4.700893 -4.97954,-8.941498 -8.11328,-12.980468 z m -41.263676,0.09375 0.5,0.490234 c 1.112454,1.116725 2.222587,2.235755 3.332031,3.355469 h -7.966797 c 1.379833,-1.280205 2.757746,-2.562474 4.134766,-3.845703 z m -2.28711,7.74414 -1.234375,0.0039 c -1.423135,0.189571 -3.190019,-0.291607 -4.365234,0.716796 -1.153547,1.636731 -0.59328,3.835285 -0.707031,5.707032 0.247536,2.770894 -0.151437,5.666311 0.699218,8.347656 1.191544,2.094247 3.544087,3.15906 5.310547,4.699219 1.177408,0.981095 2.966632,1.858147 4.324219,0.667968 2.226838,-1.75965 4.717789,-3.303309 6.570313,-5.472656 0.354441,-3.474839 0.06492,-7.030324 -0.08594,-10.527344 -0.221546,-1.068929 0.09738,-2.452321 -0.59375,-3.34375 -3.21835,-0.819287 -6.615172,-0.670788 -9.917969,-0.798828 z m -1.794922,1.154297 c 3.639894,0.10807 7.323755,-0.198224 10.933594,0.314453 0.503992,1.406741 0.284517,3.12496 0.435547,4.644531 0.02566,2.792183 0.214847,5.614703 -0.132812,8.388672 -2.233124,1.925372 -4.570176,3.822064 -7.128907,5.275391 -2.642878,-1.415143 -4.854948,-3.500705 -7.25,-5.283203 -0.04047,-3.904995 -0.51265,-7.816699 -0.324218,-11.716797 0.139779,-1.758349 2.204744,-1.558312 3.466796,-1.623047 z M 316.49023,91.150391 c -6.00579,0.326759 -11.37567,5.573706 -11.51171,11.652339 -0.34993,5.32328 3.25373,10.57514 8.38476,12.08789 5.56617,2.06293 12.11643,-0.98752 14.6836,-6.20507 2.51242,-4.63305 1.20149,-10.736442 -2.70899,-14.183597 -2.35767,-2.214398 -5.59628,-3.528715 -8.84766,-3.351562 z m -50.53906,0.03516 c -5.96616,0.350657 -11.179,5.666126 -11.25586,11.673829 -0.30939,5.34551 3.36046,10.57724 8.51758,12.05273 4.66033,1.66465 10.1542,-0.0804 13.10938,-4.02344 3.33589,-4.05136 3.69529,-10.32296 0.48242,-14.546869 -2.44675,-3.390717 -6.67581,-5.406893 -10.85352,-5.15625 z m 51.10156,1.041015 c 4.96636,-0.100047 9.58878,3.565685 10.73243,8.380854 1.59162,5.29311 -1.60639,11.36888 -6.7793,13.15039 -4.85573,1.93246 -10.72384,-0.30304 -13.3457,-4.66797 -3.03239,-4.55949 -1.55704,-11.070396 2.63086,-14.39257 1.85793,-1.547074 4.29496,-2.481529 6.76171,-2.470704 z m -49.76757,0.002 c 5.5116,0.04263 10.39441,4.825012 10.59765,10.324214 0.52147,5.87772 -4.31914,11.55963 -10.1914,11.8711 -5.52548,0.5133 -11.00519,-3.75868 -11.75782,-9.24219 -1.06338,-5.512903 2.84397,-11.21701 8.22071,-12.562499 1.01544,-0.290683 2.07631,-0.406162 3.13086,-0.390625 z M 73.111328,93.951172 c -3.387762,0.208737 -6.810997,0.0052 -10.179687,0.402344 -1.820592,0.383654 -1.698648,2.640567 -1.742188,4.074218 0.08022,3.487496 -0.206379,6.998356 0.125,10.472656 0.101097,1.61309 1.841525,2.14741 3.207031,2.04102 3.832123,-0.0615 7.759092,-0.0293 11.53125,-0.22461 1.797432,-2.46337 4.051263,-4.63473 5.501954,-7.33008 0.769233,-2.04521 -1.315613,-3.678602 -2.316407,-5.195314 -1.373545,-1.442198 -2.315181,-3.72831 -4.419922,-4.214844 -0.563625,-0.09137 -1.13985,-0.02978 -1.707031,-0.02539 z m 30.441402,0.251953 c -1.09042,-0.0101 -2.17318,-0.0045 -3.21679,0.08398 -1.850661,2.524982 -4.209111,4.718378 -5.691409,7.488285 -0.696702,1.93282 1.379386,3.38865 2.277344,4.83008 1.516806,1.88728 2.983327,4.53359 5.738285,4.58008 3.40031,0.14012 6.83184,0.23707 10.22461,-0.0352 1.58397,-0.0704 2.38024,-1.6652 2.33593,-3.08594 0.0763,-3.74822 0.19163,-7.51827 -0.0625,-11.259766 -0.0303,-1.518686 -1.40807,-2.541591 -2.85351,-2.515626 -1.82562,-0.147153 -3.66091,-0.0614 -5.49024,-0.07617 -1.07321,0.02614 -2.17129,3.38e-4 -3.26172,-0.0098 z m -28.248042,0.746094 2.769531,3.505859 c 0.844967,1.379789 2.622659,2.564092 2.517578,4.337892 -0.950066,2.25277 -2.922787,3.91121 -4.304688,5.90234 -0.553658,1.42496 -2.006896,0.98127 -3.222656,1.03125 H 62.417969 V 95.4375 c 4.295197,-0.172175 8.590366,-0.347425 12.886719,-0.488281 z m 25.603512,0.328125 h 6.06446 c 2.23509,0.08355 4.54305,-0.09405 6.73046,0.351562 0.79135,3.188676 0.57408,6.557814 0.57422,9.826174 -0.13661,1.4387 0.0455,3.03255 -0.57422,4.35547 -2.0794,0.69535 -4.3841,0.26539 -6.54882,0.41601 h -5.73828 c -2.079493,-2.22776 -4.098181,-4.62101 -5.718754,-7.21875 -0.257151,-1.52225 1.322433,-2.58063 2.048828,-3.751951 1.059147,-1.322227 2.108364,-2.651989 3.162106,-3.978515 z m 17.32422,0.841797 v 0.478515 c 0.10757,3.598674 -0.22144,7.231804 0.17969,10.810544 0.24871,1.08069 1.42297,0.24578 1.79101,-0.29297 1.20131,-1.47224 2.92417,-2.63924 3.67579,-4.41796 0.0438,-1.59501 -1.73739,-2.46386 -2.60743,-3.578129 -1.01368,-0.999543 -2.02625,-1.999573 -3.03906,-3 z m -60.378904,0.65039 c -0.0584,-0.0024 -0.125811,0.01702 -0.171875,0.02539 -2.075631,1.577488 -3.804996,3.617709 -5.433594,5.646489 -0.0869,0.89604 1.157726,1.4901 1.611328,2.21875 1.309306,1.23617 2.466849,2.70744 3.994141,3.67382 0.5994,-1.14585 0.206458,-2.64138 0.376953,-3.9082 -0.05145,-2.50898 0.164794,-5.083658 -0.261719,-7.552734 -0.0075,-0.07671 -0.05684,-0.101069 -0.115234,-0.103515 z m -0.720704,1.753907 c 0.0085,0.291015 0.01693,0.582031 0.02539,0.873046 0.02484,2.376236 0.0262,4.752566 0.02344,7.128906 -1.264762,-1.30166 -2.528997,-2.60383 -3.792969,-3.90625 1.244386,-1.37317 2.469887,-2.751073 3.74414,-4.095702 z m 62.166018,0.224609 c 0.55338,0.547526 1.10677,1.095057 1.66015,1.642573 0.66193,0.70995 1.43133,1.38437 1.92579,2.2129 -1.02653,1.42454 -2.35891,2.56005 -3.58594,3.82031 z m 39.03125,0.796875 c -2.63795,0.134862 -5.35131,-0.07773 -7.93946,0.451172 -0.71515,2.003896 -0.38963,4.259606 -0.45507,6.363286 0.17855,1.03749 -0.16727,2.44203 0.60742,3.24023 4.33081,0.59033 8.74299,0.3614 13.10547,0.29492 1.07394,-0.17765 2.456,0.16052 3.33398,-0.53711 0.64585,-2.71046 0.42028,-5.58275 0.17188,-8.33984 0.0252,-0.77222 -0.39865,-1.535515 -1.27344,-1.365236 -2.51255,-0.163881 -5.03439,-0.113481 -7.55078,-0.107422 z m 55.67187,0.0098 c -1.95751,0.224287 -2.30691,2.676008 -2.35156,4.259758 0.0673,2.02662 0.13529,4.48467 1.73242,5.95117 1.16018,0.54622 2.39843,-0.45809 3.53711,-0.69531 3.3637,-1.30946 6.84421,-2.4516 9.9961,-4.21679 0.0844,-0.74269 -1.23195,-0.83796 -1.75782,-1.21875 -3.66635,-1.46952 -7.32928,-3.09812 -11.15625,-4.080078 z m -63.00976,1.064448 h 7.64062 7.64063 v 8.27539 h -15.28125 z m 63.31836,0.11914 c 3.49148,0.82862 6.76571,2.42295 10.06836,3.80469 1.26952,0.38632 -0.78471,0.67243 -1.16211,0.98437 -3.06859,1.14289 -6.10852,2.48998 -9.25977,3.35547 -1.15418,-0.79267 -0.7528,-2.55807 -0.90625,-3.79883 0.12767,-1.38534 -0.34516,-3.05462 0.48828,-4.20898 0.22248,-0.15361 0.51242,-0.16242 0.77149,-0.13672 z m 131.92187,3.90625 c 0.0508,0.26237 0.10156,0.52474 0.15235,0.78711 2.99093,17.6581 5.43864,35.40409 8.02539,53.125 1.89252,13.24715 3.75325,26.52553 5.99804,39.70313 1.01251,6.74146 0.14737,13.98385 -3.72656,19.73632 -7.13152,10.84384 -19.47691,18.42546 -32.58789,18.6836 -9.67696,0.29539 -19.75416,-3.85779 -25.39258,-11.95508 -5.5631,-7.9175 -9.80824,-16.65408 -14.35742,-25.16602 -4.79976,-9.22314 -9.50988,-18.49316 -14.24414,-27.75 2.35988,-4.50703 3.52866,-9.58509 3.97461,-14.6289 0.10067,-0.77396 -0.12955,-1.912 0.2207,-2.45899 7.52529,2.38059 15.5166,3.44855 23.38281,2.49414 19.25459,-2.07758 37.03294,-15.03307 44.47657,-32.97851 2.67076,-6.17845 3.82714,-12.89321 4.07812,-19.5918 z M 34.130859,105.293 c 0.471822,8.30686 2.509136,16.57805 6.580079,23.87109 8.820177,16.26833 26.368936,27.3746 44.857421,28.32422 6.450748,0.42208 12.929911,-0.551 19.107421,-2.33984 0.98763,0.17018 0.56622,1.70006 0.79883,2.43945 0.36826,5.25015 1.86199,10.39098 4.29492,15.05469 -8.12984,16.24946 -16.198787,32.55211 -25.441405,48.20703 -2.752413,4.9961 -6.770004,9.28816 -11.833984,11.98437 -9.949193,5.43476 -22.502267,4.79895 -32.5,-0.27929 -6.86094,-3.45807 -12.763948,-8.85638 -16.841797,-15.375 -4.278399,-6.98294 -3.666572,-15.56388 -2.433594,-23.33203 4.573197,-28.88569 8.199281,-57.91701 13.044922,-86.75977 0.101926,-0.55918 0.254976,-1.39591 0.367187,-1.79492 z m 53.966797,3.7207 c -2.197055,0.32955 -3.685024,2.29729 -5.460937,3.45508 -1.51499,1.06642 -3.113723,2.48427 -3.042969,4.51367 -0.0647,3.44935 -0.183504,6.91845 0.04492,10.36133 0.04436,1.57071 1.640841,2.3221 3.03125,2.25781 3.759021,0.0426 7.532215,0.14109 11.287109,-0.0391 1.412733,0.0213 2.504744,-1.16835 2.472657,-2.55859 0.118589,-3.56038 0.273631,-7.13994 0.101562,-10.69922 -0.284462,-2.57452 -3.063386,-3.67103 -4.726562,-5.25586 -1.113874,-0.79757 -2.240909,-2.01545 -3.707032,-2.03516 z m 0.111328,0.95508 c 2.674401,1.43461 4.913352,3.54686 7.337891,5.35156 -0.07465,4.1764 0.195386,8.38605 -0.316406,12.53907 -0.298975,1.38944 -2.211934,0.43348 -3.273438,0.71484 -3.321887,-0.11809 -6.677127,0.2494 -9.978515,-0.17188 -1.72696,-0.4221 -1.323104,-2.59657 -1.396485,-3.92382 0.0266,-2.9455 0.01553,-5.89036 0.01758,-8.83594 2.324315,-2.12181 4.803096,-4.2525 7.609375,-5.67383 z m 202.943356,6.39063 c -7.28193,0.18755 -12.97327,8.15898 -10.97656,15.11914 1.37976,5.91971 7.70808,10.03502 13.6836,9.00195 6.32841,-0.86229 11.30182,-7.39944 10.11523,-13.74414 -0.9179,-6.08904 -6.6113,-10.86891 -12.82227,-10.37695 z m 1.05274,1.04101 c 5.02852,-0.0234 9.72683,3.86351 10.56445,8.86719 1.23689,5.49771 -2.39786,11.52502 -7.84375,12.92969 -5.99307,1.73867 -12.88577,-2.54187 -13.8457,-8.70704 -0.99632,-5.21457 2.2983,-10.91137 7.43945,-12.51171 1.18541,-0.39596 2.43567,-0.59367 3.68555,-0.57813 z m -152.6875,4.56445 c 11.0303,-0.10941 22.07371,5.41401 28.13672,14.70704 7.32835,10.78191 7.81621,25.92289 0.66601,36.96289 -6.54159,10.32858 -19.09485,16.77351 -31.36133,15.375 -12.69057,-1.19583 -24.26291,-10.06895 -28.47851,-22.09961 -3.73559,-10.1136 -2.11684,-22.03394 4.25586,-30.74219 6.07771,-8.59279 16.22398,-14.14358 26.78125,-14.20313 z m 100.10547,0.006 c 11.51491,0.0882 22.8031,6.43698 28.60547,16.42774 5.98566,9.83037 6.40482,22.84664 0.79882,32.95703 -4.90865,9.24684 -14.25252,16.15335 -24.73242,17.46484 -12.67124,1.8202 -26.08939,-4.22236 -32.94726,-15.03906 -5.83264,-8.95561 -7.22868,-20.80161 -2.99219,-30.68555 5.02882,-12.39721 17.78211,-21.35731 31.26758,-21.125 z m -0.44532,6.48438 c -5.81844,0.4763 -11.75682,2.08221 -16.35351,5.83789 -9.42363,7.36704 -12.75822,21.31667 -7.80469,32.18164 4.21424,9.58839 14.43702,16.3775 25,15.83594 11.71203,-0.3321 22.90296,-8.82892 25.66602,-20.33789 2.10172,-8.40475 -0.31225,-17.73325 -6.21875,-24.07032 -5.09356,-5.66098 -12.53406,-9.69947 -20.28907,-9.44726 z m -100.16406,0.11133 c -9.91613,0.61886 -19.38038,6.81253 -23.49023,15.93164 -3.9146,8.2305 -3.09917,18.47926 2.20117,25.91797 4.99815,7.29623 13.58491,12.27892 22.54297,11.96679 11.84646,-0.16618 23.09877,-8.8451 25.88867,-20.42773 2.11117,-8.51261 -0.13137,-18.13039 -6.34766,-24.4336 -5.32524,-5.58985 -12.97987,-9.28608 -20.79492,-8.95507 z m 1.1875,1.0957 c 9.82448,0.0768 19.27941,6.14762 23.24219,15.16016 3.93618,8.40632 2.79785,18.84053 -2.8457,26.20703 -5.06501,7.05933 -13.94858,11.01717 -22.56446,10.16601 -9.71005,-0.71238 -18.82935,-7.22202 -22.1289,-16.46093 -3.20648,-8.32769 -1.6541,-18.22847 3.96093,-25.14649 4.83536,-6.17752 12.47513,-10.04461 20.33594,-9.92578 z m 99.48633,0.0547 c 8.94454,0.0774 17.70022,5.08186 22.06641,12.95312 4.6977,7.9858 4.60734,18.60465 -0.35547,26.4082 -4.77418,7.96108 -13.95714,12.72574 -23.20899,12.18165 -9.13929,-0.34372 -17.79191,-5.87675 -21.77343,-14.13282 -4.02326,-7.71768 -3.54107,-17.49405 1.0625,-24.89453 4.57459,-7.6807 13.20241,-12.7617 22.20898,-12.51562 z m -0.69727,2.16211 c -9.12251,0.27767 -17.7862,6.23318 -21.20312,14.71679 -3.29904,7.59971 -2.0761,16.91092 3.13672,23.36524 4.74504,6.31056 12.84618,9.89113 20.70898,8.97265 9.00131,-0.82304 17.25693,-7.20012 20.07617,-15.83007 2.17226,-6.1002 1.63189,-13.10086 -1.64843,-18.70313 -4.18202,-7.44694 -12.39905,-12.77237 -21.07032,-12.52148 z m -99.65625,0.0254 c -8.70715,0.3478 -17.02789,5.80452 -20.57421,13.80664 -3.8627,8.13 -2.65846,18.50924 3.42968,25.24023 5.32821,6.17201 13.98222,9.38539 22.01953,7.68555 9.54111,-1.7706 17.70887,-9.81449 19.05469,-19.51367 1.38263,-8.69572 -2.68044,-17.84097 -9.87109,-22.85938 -4.04859,-2.91938 -9.05235,-4.56532 -14.0586,-4.35937 z m -57.564449,0.67382 c 0.11263,0.1133 0.225261,0.22657 0.337891,0.33985 1.886381,1.72546 3.468347,3.81876 5.517578,5.3457 1.366046,0.5109 2.247101,-1.23671 3.197266,-1.88476 0.873199,-1.0445 2.401803,-1.75984 2.794922,-3.125 -0.473288,-0.94442 -1.891578,-0.51512 -2.751954,-0.66993 -3.031588,-0.0142 -6.064069,-0.002 -9.095703,-0.006 z m 157.169919,0.44336 c 7.83572,-0.11684 15.72731,3.93358 19.66016,10.8086 4.98151,8.24651 4.1276,19.70929 -2.5332,26.79883 -5.80899,6.36108 -15.38757,9.12615 -23.60938,6.18945 -8.96228,-2.94098 -15.65015,-11.85736 -15.45312,-21.37109 -0.0415,-9.17218 6.28771,-17.81294 14.77343,-21.08204 2.29322,-0.73892 4.74431,-1.31003 7.16211,-1.34375 z m -99.69531,0.004 c 7.21132,-0.17311 14.54246,3.06444 18.76367,9.00977 5.47207,7.29336 5.89481,18.02283 0.70313,25.62695 -4.5473,6.99235 -13.03183,11.29779 -21.38867,10.15234 -8.70967,-0.94554 -16.60384,-7.52561 -18.8418,-16.08398 -2.09883,-7.19474 -0.20665,-15.27114 4.6875,-20.91211 3.3897,-4.11297 8.32171,-6.86813 13.61719,-7.53125 0.80734,-0.18561 1.63208,-0.2542 2.45898,-0.26172 z m -51.15039,0.61914 h 3.984375 c -1.274157,1.28509 -2.548233,2.57026 -3.822266,3.85547 -1.328178,-1.27419 -2.650849,-2.55433 -3.996093,-3.81055 1.277396,-0.0429 2.556086,-0.0276 3.833984,-0.0449 z m 86.18164,30.94336 c 0.28152,-0.0338 0.60802,-0.006 0.98047,0.0859 10.22877,-0.001 20.45677,-0.002 30.68555,-0.004 0.26172,0.73438 0.52343,1.46875 0.78515,2.20313 0.60218,1.31636 1.10718,2.56395 -0.86133,2.06836 -10.90963,-0.0676 -21.82727,0.15712 -32.73242,-0.17969 -1.70948,0.29605 -0.41401,-1.40278 -0.25976,-2.3086 0.11169,-1.11209 0.5578,-1.76379 1.40234,-1.86523 z"
       sodipodi:nodetypes="sccccccccccccccccccccccccccccccccccccccccccccccsscccccccscccccsssccccccccsscccccccccccccccccccccccccccccccccccccccccccccsccccccccccccccccccccccccccccsssccccccccccccccccccccccccccssscccccccccccccccccccccccssscccccccccccccccccccccssccccccccccccccccccccccccccccccccccccccccccccccccccccsccccccccccccccccccccccccccccccccccccccccccccccccccccccccccccccccccccccccccccccccccccccccscccssccccccccccccccccccccccccccccccccccccccccccccccccccccccccccccccccccccccccsccccccssccccccccccccccccccccccccccccccccccccccccccccccccccccccccccccccccccccccccccccccccccccccccccccccscccccccccc" />
  </g>
</svg>
