<?xml version="1.0" encoding="UTF-8" standalone="no"?>
<!-- Generator: Adobe Illustrator 16.0.3, SVG Export Plug-In . SVG Version: 6.00 Build 0)  -->

<svg
   version="1.1"
   id="Ebene_2"
   x="0px"
   y="0px"
   width="574.92578"
   height="187.31841"
   viewBox="0 0 574.92576 187.31841"
   enable-background="new 0 0 566.926 179.318"
   xml:space="preserve"
   sodipodi:docname="system (cópia).svg"
   inkscape:version="1.1.2 (0a00cf5339, 2022-02-04)"
   xmlns:inkscape="http://www.inkscape.org/namespaces/inkscape"
   xmlns:sodipodi="http://sodipodi.sourceforge.net/DTD/sodipodi-0.dtd"
   xmlns="http://www.w3.org/2000/svg"
   xmlns:svg="http://www.w3.org/2000/svg"
   xmlns:rdf="http://www.w3.org/1999/02/22-rdf-syntax-ns#"
   xmlns:cc="http://creativecommons.org/ns#"
   xmlns:dc="http://purl.org/dc/elements/1.1/"><metadata
   id="metadata43"><rdf:RDF><cc:Work
       rdf:about=""><dc:format>image/svg+xml</dc:format><dc:type
         rdf:resource="http://purl.org/dc/dcmitype/StillImage" /></cc:Work></rdf:RDF></metadata><defs
   id="defs41">
	
		<linearGradient
   gradientTransform="translate(-0.0898,-416.1621)"
   y2="513.92462"
   x2="478.70651"
   y1="416.1619"
   x1="478.70651"
   gradientUnits="userSpaceOnUse"
   id="SVGID_1_">
		<stop
   id="stop2"
   style="stop-color:#33438A"
   offset="0" />
		<stop
   id="stop4"
   style="stop-color:#0098DF"
   offset="1" />
	</linearGradient>
	
	
		<linearGradient
   gradientTransform="translate(-0.0898,-416.1621)"
   y2="513.92462"
   x2="270.46481"
   y1="416.1619"
   x1="270.46481"
   gradientUnits="userSpaceOnUse"
   id="SVGID_2_">
		<stop
   id="stop9"
   style="stop-color:#33438A"
   offset="0" />
		<stop
   id="stop11"
   style="stop-color:#0098DF"
   offset="1" />
	</linearGradient>
	
	
		<linearGradient
   gradientTransform="translate(-0.0898,-416.1621)"
   y2="513.92462"
   x2="88.399399"
   y1="416.1619"
   x1="88.399399"
   gradientUnits="userSpaceOnUse"
   id="SVGID_3_">
		<stop
   id="stop16"
   style="stop-color:#33438A"
   offset="0" />
		<stop
   id="stop18"
   style="stop-color:#0098DF"
   offset="1" />
	</linearGradient>
	
	
	
	
	
	
	
	
	
	
	
	
	
	
</defs><sodipodi:namedview
   pagecolor="#ffffff"
   bordercolor="#666666"
   borderopacity="1"
   objecttolerance="10"
   gridtolerance="10"
   guidetolerance="10"
   inkscape:pageopacity="0"
   inkscape:pageshadow="2"
   inkscape:window-width="1920"
   inkscape:window-height="996"
   id="namedview39"
   showgrid="false"
   inkscape:zoom="1.2298029"
   inkscape:cx="316.71741"
   inkscape:cy="215.88825"
   inkscape:window-x="0"
   inkscape:window-y="0"
   inkscape:window-maximized="1"
   inkscape:current-layer="Ebene_2"
   inkscape:pagecheckerboard="0"
   fit-margin-top="0"
   fit-margin-left="0"
   fit-margin-right="0"
   fit-margin-bottom="0" />
<path
   id="polygon846"
   style="fill:#000000"
   d="m 0,2 c 0,4.2897135 0,8.579427 0,12.869141 56.546223,0.03901 113.09245,0.07531 169.63867,0.113281 0,10.134766 0,20.269531 0,30.404297 -56.54622,0 -113.092446,0 -169.63867,0 0,20.125 0,40.25 0,60.375001 4.9954427,0 9.9908854,0 14.986328,0 0,-15.128907 0,-30.257814 0,-45.38672 56.544922,0 113.089842,0 169.634762,0 0,-20.125 0,-40.25 0,-60.375 C 123.08073,0 61.540365,0 0,0 0,0.6666667 0,1.3333333 0,2 Z m 266.71289,0 c 0,29.592448 0,59.184896 0,88.777344 -30.0306,0 -60.0612,0 -90.0918,0 0,4.994791 0,9.989586 0,14.984376 35.13933,0 70.27865,0 105.41797,0 0,-30.258465 0,-60.516928 0,-90.775392 30.0306,0 60.0612,0 90.0918,0 0,-4.9954426 0,-9.9908853 0,-14.986328 -35.13932,0 -70.27865,0 -105.41797,0 0,0.6666667 0,1.3333333 0,2 z m 123.59375,0 c 0,4.328776 0,8.657552 0,12.986328 56.54102,0 113.08203,0 169.62305,0 0,10.133464 0,20.266927 0,30.400391 -56.54102,0 -113.08203,0 -169.62305,0 0,20.125 0,40.25 0,60.375001 61.53971,0 123.07943,0 184.61914,0 0,-4.99479 0,-9.989585 0,-14.984376 -56.54297,0 -113.08594,0 -169.6289,0 -10e-6,-10.134115 0,-20.268229 0,-30.402344 56.54296,0 113.08593,0 169.6289,0 0,-20.125 0,-40.25 0,-60.375 -61.53971,0 -123.07943,0 -184.61914,0 0,0.6666667 0,1.3333333 0,2 z m 24.56445,123.54492 c -6.49312,0.11477 -12.98227,0.34399 -19.4707,0.61133 0,4.01042 0,8.02083 0,12.03125 6.75218,-0.0841 13.50922,-0.32683 20.25977,-0.18555 0.88734,0.15381 0.66308,1.24131 0.8457,1.88672 0.10429,1.12935 0.14405,2.39008 -0.46875,3.38672 -3.06691,0.25094 -6.15091,-0.2464 -9.21632,0.10562 -4.32004,0.40339 -8.7059,2.55723 -10.87362,6.4518 -1.66151,2.74258 -1.6836,6.03975 -1.85051,9.141 -0.10299,3.32659 -0.0697,6.65852 -0.0146,9.98517 0.3219,3.46521 3.5141,6.42616 7.02568,6.29963 5.31878,0.0875 10.64005,0.009 15.95987,0.0363 4.32578,0 8.65156,0 12.97734,0 0,-4.11849 0,-8.23698 0,-12.35547 -7.21679,0 -14.43359,0 -21.65039,0 -0.0107,-2.37775 -0.0874,-4.76217 0.14258,-7.13281 1.7957,-0.72689 3.78975,-0.28457 5.67187,-0.29297 3.64418,0.15309 7.49471,0.10996 10.78805,-1.66686 3.06222,-1.52616 5.05719,-4.66144 5.63969,-7.97767 0.40415,-2.31275 0.30102,-4.68001 0.25338,-7.01723 -0.0971,-3.60063 -1.26416,-7.34052 -3.98892,-9.82258 -3.1738,-3.04677 -7.83374,-3.57986 -12.03009,-3.48441 z m -270.88086,8.2207 c 0,13.46224 0,26.92448 0,40.38672 4.45638,0 8.91276,0 13.36915,0 0.0157,-4.47523 -0.0313,-9.01305 0.0234,-13.44922 3.54201,-0.0321 7.3014,0.36024 10.58584,-1.256 0.92058,-0.44176 1.77013,-1.03659 2.48252,-1.76939 0,5.49154 0,10.98308 0,16.47461 4.46029,0 8.92057,0 13.38086,0 0,-1.08984 0,-2.17968 0,-3.26953 2.2329,2.34773 5.61069,2.88018 8.69364,3.08665 4.30369,0.26128 8.61516,-0.0854 12.92197,-0.10031 1.36902,-0.0298 2.73804,-0.0598 4.10705,-0.0898 -0.012,-5.21941 0.004,-10.4388 0,-15.65821 1.44336,3.78386 2.88672,7.56771 4.33008,11.35157 -2.42899,5.94858 -4.85866,11.8969 -7.28711,17.8457 4.36393,0 8.72786,0 13.09179,0 4.63339,-11.2964 9.27117,-22.59101 13.90625,-33.88672 1.84972,3.24841 5.52285,5.1751 9.20966,5.28488 1.06577,0.0493 2.13206,0.13206 3.19269,0.25223 0.17849,1.23084 0.22547,2.57309 -0.20899,3.77344 -1.62006,0.33539 -3.30129,0.0585 -4.9446,0.0708 -2.52282,-0.0785 -5.04479,-0.1813 -7.56712,-0.27395 0,3.76172 0,7.52344 0,11.28516 4.52684,0.0776 9.00803,0.32931 13.55532,0.29876 3.52931,-0.0513 7.37308,-0.9379 9.74595,-3.74859 0.40963,-0.53347 0.76816,-1.1039 1.08545,-1.69666 0.85252,3.09352 3.94323,5.11555 7.03589,5.40895 2.0433,0.17895 4.09773,-0.0626 6.14638,-0.0434 1.51672,-0.0333 3.03343,-0.0666 4.55015,-0.0999 0,-0.70768 0,-1.41537 0,-2.12305 2.66475,1.90903 6.07743,2.07452 9.23577,2.22873 4.26871,0.0603 8.53561,-0.17011 12.80405,-0.21299 0.86368,-0.0188 1.72736,-0.0378 2.59104,-0.0567 0.0236,-0.84818 -0.0502,-1.96671 0.0332,-2.65039 1.97605,2.48514 5.35968,3.28067 8.39953,2.98954 1.95602,-0.0427 3.91203,-0.0855 5.86804,-0.12822 0.24888,0.37184 1.18257,0.0588 1.70001,0.16211 3.88971,0 7.77942,0 11.66914,0 0,-1.83463 0,-3.66927 0,-5.5039 1.57654,2.62931 4.31936,4.41946 7.29419,5.05652 4.1084,1.00882 8.50721,0.89653 12.55346,-0.33777 2.64115,-0.88593 5.05274,-2.68056 6.31836,-5.20313 0,1.98112 0,3.96224 0,5.94336 4.44466,0 8.88932,0 13.33399,0 0,-7.59831 0,-15.19661 0,-22.79492 0.68321,-0.0214 1.4311,-0.13255 2.07421,0.0879 0.31994,1.46605 0.0829,2.99864 0.15625,4.4918 0,6.07304 0,12.14609 0,18.21914 4.45769,0 8.91537,0 13.37305,0 -0.0386,-7.87511 0.0694,-15.75272 -0.0608,-23.62619 -0.23121,-3.84248 -2.33755,-7.73622 -5.94502,-9.36014 -3.06544,-1.48745 -6.55442,-1.41303 -9.87604,-1.29652 -4.35187,0.0825 -8.70373,0.1654 -13.0556,0.24769 0,1.89518 0,3.79037 0,5.68555 -1.49389,-2.96328 -4.51107,-4.85717 -7.67977,-5.5823 -3.82013,-0.87614 -7.87329,-0.83983 -11.66606,0.15776 -2.77964,0.75002 -5.36206,2.45157 -6.82018,4.97727 0,-4.51627 0,-9.03255 0,-13.54883 -4.45638,1e-5 -8.91276,0 -13.36915,0 10e-6,2.66993 0,5.33985 0,8.00977 -0.88932,0 -1.77864,0 -2.66796,0 0,-1.56966 0,-3.13932 0,-4.70898 -4.45769,0 -8.91537,0 -13.37305,0 0,3.31119 0,6.62239 0,9.93359 -1.64086,-2.89785 -4.83169,-4.56204 -8.05333,-4.99649 -3.08269,-0.45551 -6.20479,-0.0606 -9.30425,-0.0608 -1.4407,0.0386 -2.8814,0.0772 -4.32211,0.11585 -0.0287,-0.59907 -1.11678,-0.13868 -1.6,-0.2832 -1.48554,0 -2.97109,0 -4.45664,0 0.001,-1.56966 0.002,-3.13932 0.002,-4.70898 -4.37955,0 -8.75911,0 -13.13867,0 0,-0.97136 0,-1.94271 0,-2.91407 -4.29948,-0.0964 -8.59913,-0.34975 -12.89952,-0.30652 -3.46325,0.0888 -7.2242,0.91914 -9.6017,3.63521 -1.08025,1.22718 -1.78936,2.73718 -2.25268,4.29436 -2.39714,0 -4.79427,0 -7.19141,0 -1.3805,3.76511 -2.76176,7.52993 -4.14258,11.29492 -1.28655,-3.76494 -2.57215,-7.53021 -3.85937,-11.29492 -4.97006,0 -9.94011,0 -14.91016,0 0.0633,0.38406 0.82028,1.46451 -0.0352,0.92578 -3.70447,-1.38938 -7.71488,-0.78978 -11.57064,-0.77159 -2.27528,0.0612 -4.55057,0.12187 -6.82584,0.1837 0,3.83529 0,7.67057 0,11.50586 0.62826,-0.0182 1.25651,-0.0365 1.88477,-0.0547 -0.80925,0.45268 -1.53516,1.04253 -2.17774,1.70899 0,-7.16927 0,-14.33854 0,-21.50782 -4.46029,1e-5 -8.92057,0 -13.38086,0 0,1.10222 0,2.20443 0,3.30665 -2.4056,-2.47655 -6.01708,-3.0703 -9.31603,-3.24659 -3.99814,-0.1352 -8.00249,-0.0237 -12.00311,-0.0601 -1.71393,1e-5 -3.42786,0 -5.1418,0 0,0.66667 0,1.33334 0,2 z m 103.18946,9.3086 c 3.33746,0.0962 6.6748,0.22068 10.01172,0.3457 -6.5e-4,2.33203 -0.001,4.66406 -0.002,6.9961 -2.05101,-2.92428 -5.66826,-4.42345 -9.17399,-4.41519 -0.85673,-0.0739 -1.71609,-0.11599 -2.57015,-0.21958 -0.0303,-0.85571 -0.28257,-1.83812 0.1211,-2.61328 0.5274,-0.12627 1.07531,-0.1038 1.61328,-0.0937 z m -88.9375,-0.008 c 0.59528,0.0945 1.37603,-0.029 1.83997,0.34428 0.53416,1.90548 0.29731,3.92588 0.18131,5.87385 0.11225,0.64193 -0.64189,0.30648 -1.00602,0.3731 -0.63256,-0.0166 -1.26511,0.0211 -1.89807,0.006 -10e-6,-2.19922 0,-4.39843 0,-6.59765 0.29427,0 0.58854,0 0.88281,0 z m 116.36523,7.94531 c -0.25316,0.83626 0.55591,0.57582 1.11317,0.57602 1.10096,-0.15355 0.47342,0.15328 -0.1164,0.55296 -2.95211,2.14454 -4.37591,5.86071 -4.38451,9.42919 -0.12113,0.38345 0.21492,1.15398 -0.19456,1.24319 -0.67133,0.24955 -0.39774,-0.56124 -0.4685,-0.96105 -0.0259,-3.6132 0.0159,-7.22682 -0.006,-10.84031 1.35221,0 2.70443,0 4.05664,0 z m 39.7207,0 c 10e-6,3.88411 0,7.76823 0,11.65234 -0.87826,0.0497 -1.75465,0.12406 -2.63281,0.17383 -0.10037,-3.94092 0.006,-7.88418 -0.0371,-11.82617 0.88998,0 1.77995,0 2.66992,0 z m 26.8086,0.12109 c 0.52531,-0.0865 0.66765,0.37396 0.70859,0.79653 0.62081,2.56958 0.49294,5.27787 0.35802,7.83389 -0.12109,0.96373 -0.12811,1.96315 -0.59591,2.9106 -0.49114,0.19902 -1.23548,0.27867 -1.6289,-0.10352 -0.64825,-1.96533 -0.59196,-4.08752 -0.63604,-6.13749 0.0453,-1.70047 0.1136,-3.44667 0.63213,-5.0754 0.17372,-0.3544 0.83865,-0.18213 1.16211,-0.22461 z M 195.5332,160.9043 c 0.86405,-0.27361 0.63624,0.53523 0.64844,1.10586 0.26953,0.88439 -0.41775,0.85261 -1.09141,0.7313 -0.70509,0.1165 -0.80022,-0.38839 -0.72158,-0.96137 -0.0203,-0.41115 -0.11454,-1.03705 0.50683,-0.86325 0.21921,-0.005 0.43848,-0.01 0.65772,-0.0125 z m 90.47852,0 c 0.86464,-0.27295 0.64226,0.53183 0.65234,1.10586 0.26953,0.88442 -0.41774,0.85255 -1.09141,0.73134 -0.64026,0.0942 -0.82872,-0.30544 -0.7222,-0.87118 -0.0492,-0.50073 -0.0772,-1.14615 0.61867,-0.95623 0.18087,-0.003 0.36172,-0.008 0.5426,-0.01 z" /><polygon
   style="fill:#ffffff"
   id="polygon7"
   points="566.926,97.762 566.926,90.777 397.297,90.777 397.297,52.375 566.926,52.375 566.926,0 390.307,0 390.307,6.986 559.93,6.986 559.93,45.387 390.307,45.387 390.307,97.762 "
   transform="translate(4,4)" /><polygon
   style="fill:#ffffff"
   id="polygon14"
   points="176.62,97.762 176.62,90.777 266.713,90.777 266.713,0 364.131,0 364.131,6.986 274.038,6.986 274.038,97.762 "
   transform="translate(4,4)" /><polygon
   style="fill:#ffffff"
   id="polygon21"
   points="0,0 0,6.873 169.639,6.986 169.639,45.387 0,45.387 0,97.762 6.986,97.762 6.986,52.375 176.62,52.375 176.62,0 "
   transform="translate(4,4)" /><path
   style="fill:#ffffff"
   inkscape:connector-curvature="0"
   d="m 147.989,135.765 v 34.387 h 5.37 v -31.087 h 4.972 c 0,0 3.604,-0.015 4.842,1.604 1.046,1.375 1.238,3.858 1.238,5.541 0,1.803 -0.11,4.575 -0.717,5.594 -0.915,1.551 -2.41,1.859 -3.791,1.859 h -3.28 v 3.048 h 4.712 c 0,0 4.255,0.188 6.09,-1.676 2.243,-2.29 2.81,-5.348 2.81,-9.446 0,-3.736 -1.35,-7.494 -4.116,-8.763 -2.288,-1.063 -6.414,-1.063 -6.414,-1.063 z"
   id="path788" /><polygon
   style="fill:#ffffff"
   points="170.451,166.152 175.831,166.152 175.831,131.765 170.451,131.765 "
   id="polygon790"
   transform="translate(4,4)" /><polygon
   style="fill:#ffffff"
   points="229.233,139.775 224.262,139.775 217.191,159.049 210.608,139.775 204.365,139.775 214.186,165.518 208.55,179.318 213.005,179.318 "
   id="polygon792"
   transform="translate(4,4)" /><path
   style="fill:#ffffff"
   inkscape:connector-curvature="0"
   d="m 237.277,169.93 v -3.242 c 0,0 5.674,0.221 6.853,0.221 2.623,0 3.927,-0.563 4.909,-1.609 0.583,-0.627 1.111,-3.439 1.111,-4.433 0,-1.008 -0.187,-3.164 -0.579,-4.039 -0.404,-0.868 -1.316,-1.675 -2.692,-1.786 -0.973,-0.09 -2.494,-0.277 -4.253,-0.364 -2.478,-0.113 -4.115,-1.414 -4.91,-2.336 -0.776,-0.938 -1.827,-2.321 -1.827,-6.629 0,-4.286 1.11,-6.683 2.219,-7.805 1.118,-1.121 2.753,-1.612 3.999,-1.829 1.432,-0.254 3.791,-0.271 3.791,-0.271 l 7.516,0.225 v 3.245 c 0,0 -5.484,-0.211 -6.661,-0.211 -2.623,0 -3.408,0.552 -4.39,1.604 -0.574,0.634 -1.027,2.363 -1.027,3.368 0,0.988 0.117,3 0.506,3.868 0.392,0.875 1.312,1.676 2.679,1.799 0.975,0.073 2.495,0.271 4.256,0.357 2.49,0.124 4.124,1.407 4.908,2.344 0.784,0.935 1.836,2.898 1.836,7.187 0,4.289 -1.118,7.354 -2.229,8.458 -1.11,1.133 -2.74,1.626 -3.99,1.841 -1.44,0.261 -3.798,0.261 -3.798,0.261 z"
   id="path794" /><path
   style="fill:#ffffff"
   inkscape:connector-curvature="0"
   d="m 266.552,139.065 h -5.361 v 25.23 c 0,0 0.129,2.3 0.257,3.104 0.135,0.813 1.315,2.75 4.388,2.75 l 5.561,-0.12 v -3.237 c 0,0 -1.514,0.113 -2.418,0.113 -0.921,0 -2.041,-0.067 -2.229,-1.629 -0.199,-1.543 -0.199,-3.408 -0.199,-3.408 v -14.857 h 6.056 v -3.236 h -6.056 z"
   id="path796" /><polygon
   style="fill:#ffffff"
   points="314.328,166.152 319.696,166.152 319.696,139.775 314.328,139.775 "
   id="polygon798"
   transform="translate(4,4)" /><polygon
   style="fill:#ffffff"
   points="314.328,136.551 319.696,136.551 319.696,131.765 314.328,131.765 "
   id="polygon800"
   transform="translate(4,4)" /><path
   style="fill:#ffffff"
   inkscape:connector-curvature="0"
   d="m 340.653,143.557 c 3.65,0 6.482,0.821 8.005,2.052 1.535,1.236 3.418,3.829 3.418,11.353 0,7.524 -1.883,10.114 -3.418,11.363 -1.522,1.229 -4.354,2.049 -8.005,2.049 -3.658,0 -6.482,-0.82 -8.01,-2.049 -1.527,-1.249 -3.414,-3.839 -3.414,-11.363 0,-7.521 1.887,-10.114 3.414,-11.353 1.527,-1.229 4.352,-2.052 8.01,-2.052 z m -3.672,5.058 c -0.741,0.905 -1.637,2.824 -1.637,8.346 0,5.538 0.896,7.44 1.637,8.345 0.729,0.901 2.083,1.515 3.838,1.515 1.764,0 3.111,-0.611 3.859,-1.515 0.733,-0.902 1.636,-2.807 1.636,-8.345 0,-5.521 -0.901,-7.438 -1.636,-8.346 -0.748,-0.901 -2.097,-1.501 -3.859,-1.501 -1.755,0 -3.11,0.6 -3.838,1.501 z"
   id="path802" /><path
   style="fill:#ffffff"
   inkscape:connector-curvature="0"
   d="m 363.197,147.49 5.255,-0.225 c 1.385,0 2.997,0.373 3.778,1.361 0.737,0.941 1.198,2.056 1.198,3.858 v 17.626 h 5.371 v -18.065 c 0,-3.419 -1.049,-5.396 -2.627,-6.644 -2.254,-1.789 -6.279,-1.629 -6.279,-1.629 l -12.03,0.229 v 26.106 h 5.334 z"
   id="path804" /><path
   style="fill:#ffffff"
   inkscape:connector-curvature="0"
   d="m 307.66,139.065 h -5.374 v 25.23 c 0,0 0.127,2.3 0.26,3.104 0.131,0.813 1.303,2.75 4.381,2.75 l 5.566,-0.12 v -3.237 c 0,0 -1.509,0.113 -2.424,0.113 -0.907,0 -2.029,-0.067 -2.223,-1.629 -0.188,-1.543 -0.188,-3.408 -0.188,-3.408 v -14.857 h 6.042 v -3.236 h -6.041 v -4.71 z"
   id="path806" /><path
   style="fill:#ffffff"
   inkscape:connector-curvature="0"
   d="m 200.182,152.487 c 0,-1.803 -0.46,-2.917 -1.194,-3.858 -0.787,-0.988 -2.407,-1.359 -3.784,-1.359 l -7.079,0.223 v -3.486 l 8.522,-0.229 c 0,0 4.03,-0.16 6.284,1.629 1.565,1.245 2.621,3.225 2.621,6.644 v 17.813 l -10.288,0.221 c 0,0 -4.662,0.023 -7.001,-0.935 -2.29,-0.93 -3.537,-3.485 -3.537,-7.021 0,-3.415 1.052,-5.411 2.622,-6.659 2.255,-1.783 6.275,-1.61 6.275,-1.61 h 3.288 v 3.048 h -1.844 c -1.375,0 -2.795,0.253 -3.577,1.236 -0.744,0.944 -1.136,1.749 -1.136,3.55 0,2.362 0.46,3.422 1.572,4.227 0.981,0.714 2.741,0.87 4.71,0.87 l 3.546,-0.22 z"
   id="path808" /><path
   style="fill:#ffffff"
   inkscape:connector-curvature="0"
   d="m 290.663,152.487 c 0,-1.803 -0.453,-2.917 -1.188,-3.858 -0.793,-0.988 -2.409,-1.359 -3.782,-1.359 l -7.072,0.223 v -3.486 l 8.505,-0.229 c 0,0 4.032,-0.16 6.285,1.629 1.571,1.245 2.614,3.225 2.614,6.644 v 17.813 l -10.272,0.221 c 0,0 -4.664,0.023 -7.013,-0.935 -2.28,-0.93 -3.534,-3.485 -3.534,-7.021 0,-3.415 1.058,-5.411 2.619,-6.659 2.257,-1.783 6.288,-1.61 6.288,-1.61 h 3.278 v 3.048 h -1.843 c -1.367,0 -2.801,0.253 -3.58,1.236 -0.734,0.944 -1.135,1.749 -1.135,3.55 0,2.362 0.471,3.422 1.572,4.227 0.981,0.714 2.749,0.87 4.713,0.87 l 3.545,-0.22 z"
   id="path810" /><path
   style="fill:#ffffff"
   inkscape:connector-curvature="0"
   d="m 426.934,140.211 c 0.068,3.962 -0.125,6.048 -1.457,8.031 -1.174,1.742 -3.498,3.331 -8.635,3.331 l -6.373,-0.189 c -1.008,0.019 -3.607,0.313 -4.84,1.632 -1.055,1.14 -1.138,1.993 -1.244,5.026 v 8.896 h 21.66 v 4.357 h -23.678 l -1.138,-0.007 c -1.609,0 -3.191,-1.092 -3.191,-3.277 v -6.636 c 0.113,-7.752 0.667,-8.863 2.351,-10.897 1.168,-1.405 3.912,-2.979 7.24,-3.146 0.656,-0.029 1.885,-0.113 3.614,-0.066 1.259,0.056 2.519,0.092 3.071,0.102 2.951,0.03 4.025,-0.514 4.833,-1.571 0.921,-1.188 1.416,-2.595 1.416,-4.896 0,-2.156 -0.44,-4.188 -1.263,-5.131 -0.994,-1.093 -1.948,-1.822 -4.717,-1.822 -7.007,-0.019 -15.182,0.167 -15.182,0.167 v -4.116 c 0,0 7.99,-0.34 16.139,-0.46 5.074,-0.087 7.872,1.262 9.295,3.118 1.503,1.932 2.032,3.761 2.099,7.554 z"
   id="path816" />
</svg>
