<?xml version="1.0" encoding="UTF-8" standalone="no"?>
<!-- Generator: Adobe Illustrator 13.0.0, SVG Export Plug-In . SVG Version: 6.00 Build 14948)  -->

<svg
   version="1.2"
   id="Ebene_1"
   x="0px"
   y="0px"
   width="254.9903"
   height="138.36328"
   viewBox="48.598 9.613 254.99029 138.36328"
   xml:space="preserve"
   sodipodi:docname="system.svg"
   inkscape:version="1.1.2 (0a00cf5339, 2022-02-04)"
   xmlns:inkscape="http://www.inkscape.org/namespaces/inkscape"
   xmlns:sodipodi="http://sodipodi.sourceforge.net/DTD/sodipodi-0.dtd"
   xmlns:xlink="http://www.w3.org/1999/xlink"
   xmlns="http://www.w3.org/2000/svg"
   xmlns:svg="http://www.w3.org/2000/svg"
   xmlns:rdf="http://www.w3.org/1999/02/22-rdf-syntax-ns#"
   xmlns:cc="http://creativecommons.org/ns#"
   xmlns:dc="http://purl.org/dc/elements/1.1/"
   xmlns:ns="&amp;#38;ns_sfw;"
   xmlns:a="http://ns.adobe.com/AdobeSVGViewerExtensions/3.0/"><defs
   id="defs140"><linearGradient
     inkscape:collect="always"
     id="linearGradient7739"><stop
       style="stop-color:#759098;stop-opacity:1"
       offset="0"
       id="stop7735" /><stop
       style="stop-color:#af7445;stop-opacity:1"
       offset="1"
       id="stop7737" /></linearGradient><linearGradient
     inkscape:collect="always"
     id="linearGradient59802"><stop
       style="stop-color:#1f2d39;stop-opacity:1;"
       offset="0"
       id="stop59798" /><stop
       style="stop-color:#759098;stop-opacity:1"
       offset="1"
       id="stop59800" /></linearGradient><linearGradient
     inkscape:collect="always"
     id="linearGradient76079-3"><stop
       style="stop-color:#fcd072;stop-opacity:1;"
       offset="0"
       id="stop76075" /><stop
       style="stop-color:#752f23;stop-opacity:1"
       offset="1"
       id="stop76077" /></linearGradient><linearGradient
     inkscape:collect="always"
     xlink:href="#linearGradient59802"
     id="linearGradient1680"
     x1="124.5724"
     y1="6.9603148"
     x2="121.04102"
     y2="64.996094"
     gradientUnits="userSpaceOnUse"
     gradientTransform="translate(56.918656,13.612719)" /><linearGradient
     inkscape:collect="always"
     xlink:href="#linearGradient76079-3"
     id="linearGradient2200"
     x1="104.40625"
     y1="109.0957"
     x2="104.40625"
     y2="48.721561"
     gradientUnits="userSpaceOnUse"
     gradientTransform="translate(56.918656,13.612719)" /><linearGradient
     inkscape:collect="always"
     xlink:href="#linearGradient7739"
     id="linearGradient2822"
     x1="116.13767"
     y1="3.1180406"
     x2="116.12714"
     y2="119.29089"
     gradientUnits="userSpaceOnUse"
     gradientTransform="translate(56.918656,13.612719)" /></defs><sodipodi:namedview
   id="namedview138"
   pagecolor="#ffffff"
   bordercolor="#666666"
   borderopacity="1.0"
   inkscape:pageshadow="2"
   inkscape:pageopacity="0.0"
   inkscape:pagecheckerboard="0"
   showgrid="false"
   fit-margin-top="5"
   fit-margin-left="10"
   fit-margin-right="5"
   fit-margin-bottom="5"
   inkscape:zoom="2.8727207"
   inkscape:cx="83.022341"
   inkscape:cy="47.515931"
   inkscape:window-width="1920"
   inkscape:window-height="996"
   inkscape:window-x="1920"
   inkscape:window-y="0"
   inkscape:window-maximized="1"
   inkscape:current-layer="Ebene_1"
   lock-margins="false" />
<metadata
   id="metadata27">
	<rdf:RDF>
		<cc:Work
   rdf:about="">
			<dc:format>image/svg+xml</dc:format>
			<dc:type
   rdf:resource="http://purl.org/dc/dcmitype/StillImage" />
			
		</cc:Work>
	</rdf:RDF>
	<ns:sfw>
		<ns:slices />
		<ns:sliceSourceBounds
   height="129.104"
   width="354.746"
   y="476.208"
   x="725.634"
   bottomLeftOrigin="true" />
	</ns:sfw>
</metadata>



























<linearGradient
   id="SVGID_1_"
   gradientUnits="userSpaceOnUse"
   x1="200.2363"
   y1="91.424103"
   x2="200.2363"
   y2="23.424101"
   gradientTransform="translate(-165.677,-15.541)">
	<stop
   offset="0"
   style="stop-color:#9B9B9B"
   id="stop43" />
	<stop
   offset="1"
   style="stop-color:#5B5C60"
   id="stop45" />
	<a:midPointStop
   offset="0"
   style="stop-color:#9B9B9B" />
	<a:midPointStop
   offset="0.5"
   style="stop-color:#9B9B9B" />
	<a:midPointStop
   offset="1"
   style="stop-color:#5B5C60" />
</linearGradient>

<linearGradient
   id="SVGID_2_"
   gradientUnits="userSpaceOnUse"
   x1="246.4277"
   y1="91.424103"
   x2="246.4277"
   y2="23.424101"
   gradientTransform="translate(-117.079,-5.928)">
	<stop
   offset="0"
   style="stop-color:#9B9B9B"
   id="stop50" />
	<stop
   offset="1"
   style="stop-color:#5B5C60"
   id="stop52" />
	<a:midPointStop
   offset="0"
   style="stop-color:#9B9B9B" />
	<a:midPointStop
   offset="0.5"
   style="stop-color:#9B9B9B" />
	<a:midPointStop
   offset="1"
   style="stop-color:#5B5C60" />
</linearGradient>

<linearGradient
   id="SVGID_3_"
   gradientUnits="userSpaceOnUse"
   x1="290.79349"
   y1="91.424103"
   x2="290.79349"
   y2="23.424101"
   gradientTransform="translate(-117.079,-5.928)">
	<stop
   offset="0"
   style="stop-color:#9B9B9B"
   id="stop57" />
	<stop
   offset="1"
   style="stop-color:#5B5C60"
   id="stop59" />
	<a:midPointStop
   offset="0"
   style="stop-color:#9B9B9B" />
	<a:midPointStop
   offset="0.5"
   style="stop-color:#9B9B9B" />
	<a:midPointStop
   offset="1"
   style="stop-color:#5B5C60" />
</linearGradient>

<linearGradient
   id="SVGID_4_"
   gradientUnits="userSpaceOnUse"
   x1="336.71439"
   y1="91.424103"
   x2="336.71439"
   y2="23.424101"
   gradientTransform="translate(-117.079,-5.928)">
	<stop
   offset="0"
   style="stop-color:#9B9B9B"
   id="stop64" />
	<stop
   offset="1"
   style="stop-color:#5B5C60"
   id="stop66" />
	<a:midPointStop
   offset="0"
   style="stop-color:#9B9B9B" />
	<a:midPointStop
   offset="0.5"
   style="stop-color:#9B9B9B" />
	<a:midPointStop
   offset="1"
   style="stop-color:#5B5C60" />
</linearGradient>

<linearGradient
   id="SVGID_5_"
   gradientUnits="userSpaceOnUse"
   x1="380.40381"
   y1="91.424103"
   x2="380.40381"
   y2="23.424101"
   gradientTransform="translate(-117.079,-5.928)">
	<stop
   offset="0"
   style="stop-color:#9B9B9B"
   id="stop71" />
	<stop
   offset="1"
   style="stop-color:#5B5C60"
   id="stop73" />
	<a:midPointStop
   offset="0"
   style="stop-color:#9B9B9B" />
	<a:midPointStop
   offset="0.5"
   style="stop-color:#9B9B9B" />
	<a:midPointStop
   offset="1"
   style="stop-color:#5B5C60" />
</linearGradient>

<linearGradient
   id="SVGID_6_"
   gradientUnits="userSpaceOnUse"
   x1="201.0303"
   y1="132.37131"
   x2="201.0303"
   y2="61.621899"
   gradientTransform="translate(-165.677,-15.541)"
   xlink:href="#linearGradient76079-3">
	<stop
   offset="0"
   style="stop-color:#F9DA55"
   id="stop78" />
	<stop
   offset="1"
   style="stop-color:#E04305"
   id="stop80" />
	<a:midPointStop
   offset="0"
   style="stop-color:#F9DA55" />
	<a:midPointStop
   offset="0.5"
   style="stop-color:#F9DA55" />
	<a:midPointStop
   offset="1"
   style="stop-color:#E04305" />
</linearGradient>

<linearGradient
   id="SVGID_7_"
   gradientUnits="userSpaceOnUse"
   x1="246.4106"
   y1="132.37131"
   x2="246.4106"
   y2="61.621899"
   gradientTransform="translate(-117.079,-5.928)">
	<stop
   offset="0"
   style="stop-color:#F9DA55"
   id="stop85" />
	<stop
   offset="1"
   style="stop-color:#E04305"
   id="stop87" />
	<a:midPointStop
   offset="0"
   style="stop-color:#F9DA55" />
	<a:midPointStop
   offset="0.5"
   style="stop-color:#F9DA55" />
	<a:midPointStop
   offset="1"
   style="stop-color:#E04305" />
</linearGradient>

<linearGradient
   id="SVGID_8_"
   gradientUnits="userSpaceOnUse"
   x1="291.38531"
   y1="132.37131"
   x2="291.38531"
   y2="61.621899"
   gradientTransform="translate(-117.079,-5.928)">
	<stop
   offset="0"
   style="stop-color:#F9DA55"
   id="stop92" />
	<stop
   offset="1"
   style="stop-color:#E04305"
   id="stop94" />
	<a:midPointStop
   offset="0"
   style="stop-color:#F9DA55" />
	<a:midPointStop
   offset="0.5"
   style="stop-color:#F9DA55" />
	<a:midPointStop
   offset="1"
   style="stop-color:#E04305" />
</linearGradient>

<linearGradient
   id="SVGID_9_"
   gradientUnits="userSpaceOnUse"
   x1="336.42719"
   y1="132.37131"
   x2="336.42719"
   y2="61.621899"
   gradientTransform="translate(-117.079,-5.928)">
	<stop
   offset="0"
   style="stop-color:#F9DA55"
   id="stop99" />
	<stop
   offset="1"
   style="stop-color:#E04305"
   id="stop101" />
	<a:midPointStop
   offset="0"
   style="stop-color:#F9DA55" />
	<a:midPointStop
   offset="0.5"
   style="stop-color:#F9DA55" />
	<a:midPointStop
   offset="1"
   style="stop-color:#E04305" />
</linearGradient>

<linearGradient
   id="SVGID_10_"
   gradientUnits="userSpaceOnUse"
   x1="381.1987"
   y1="132.37131"
   x2="381.1987"
   y2="61.621899"
   gradientTransform="translate(-117.079,-5.928)">
	<stop
   offset="0"
   style="stop-color:#F9DA55"
   id="stop106" />
	<stop
   offset="1"
   style="stop-color:#E04305"
   id="stop108" />
	<a:midPointStop
   offset="0"
   style="stop-color:#F9DA55" />
	<a:midPointStop
   offset="0.5"
   style="stop-color:#F9DA55" />
	<a:midPointStop
   offset="1"
   style="stop-color:#E04305" />
</linearGradient>








<g
   id="g3182"><path
     id="path2696"
     style="fill:#000000"
     d="m 152.84019,14.614953 c -10.83463,0 -21.66927,0 -32.50391,0 -1.58336,2.077793 -3.16941,4.153536 -4.7539,6.230469 -3.4447,-2.076769 -6.88913,-4.153975 -10.33399,-6.230469 -15.55013,0 -31.10026,0 -46.65039,0 2.88141,3.602424 5.761796,7.205668 8.642578,10.808594 0,32.035807 0,64.071615 0,96.107423 -2.979986,6.95839 -5.766584,13.99593 -8.583984,21.02148 7.39265,-5.76076 14.733726,-11.58642 21.966652,-17.54528 8.704616,-7.08654 17.412246,-14.16949 26.117334,-21.2555 -4.44987,0 -8.899742,0 -13.349612,0 0,-4.934243 10e-7,-9.868487 0,-14.802732 6.162761,-3.430339 12.325522,-6.860677 18.488282,-10.291016 0,10.321615 0,20.643229 0,30.964848 7.95456,7.37551 15.90958,14.75052 23.86329,22.12695 7.19608,-6.08947 14.3891,-12.18255 21.58398,-18.27344 -0.0137,2.9601 0.0417,5.92953 -0.0519,8.88353 -1.81912,6.61244 -3.63693,13.22524 -5.45786,19.83718 11.90831,-8.79474 23.81228,-17.59536 35.71875,-26.39258 0.0757,-0.43096 0.92918,-0.72925 1.2992,-1.11001 7.98626,-5.84932 15.97202,-11.69933 23.95862,-17.548197 -1.431,-1.227314 -2.86287,-2.453611 -4.29493,-3.679687 6.3e-4,-8.957682 0.001,-17.915365 0.002,-26.873047 -2.77463,-1.483766 -5.55226,-2.961922 -8.32813,-4.443359 2.77602,-1.586624 5.55225,-3.172895 8.32813,-4.759766 0,-5.272135 0,-10.544271 0,-15.816406 1.9681,0 3.9362,0 5.90429,0 0,26.865234 0,53.730468 0,80.595702 -1.5404,6.93554 -3.08193,13.87083 -4.62109,20.80664 11.60676,-8.35314 23.2148,-16.70449 34.82227,-25.05664 -1.39453,-2.09223 -2.79034,-4.18361 -4.18555,-6.27539 0,-23.356771 0,-46.713541 0,-70.070312 2.33008,0 4.66016,0 6.99023,0 0,7.939453 0,15.878906 0,23.818359 4.35572,2.461659 8.7123,4.921769 13.06836,7.382813 -4.35677,0 -8.71354,0 -13.07031,0 0,16.251953 0,32.50391 0,48.75586 -2.97643,7.02279 -5.86019,14.08415 -8.7793,21.13086 15.87019,-12.44601 31.55433,-25.12097 47.3205,-37.69738 4.21258,-3.37072 8.42723,-6.738851 12.63849,-10.111215 0,-9.414063 0,-18.828125 0,-28.242188 -8.43301,-4.554571 -16.86588,-9.109394 -25.29883,-13.664062 0,-2.708985 0,-5.417969 0,-8.126954 8.43229,10e-7 16.86458,0 25.29687,0 0,-7.422526 1e-5,-14.845052 0,-22.267578 -4.38893,-2.648211 -8.77998,-5.292914 -13.16992,-7.939453 -44.1924,0.0023 -88.3842,-1.6e-5 -132.57617,0.002 z m -50.65235,11 c 1.74154,1.050131 3.48308,2.100261 5.22461,3.150391 0,13.261719 0,26.523437 0,39.785156 -8.339823,4.644564 -16.679798,9.288859 -25.019528,13.933594 0,8.96875 0,17.937496 0,26.906246 -1.383464,1.12566 -2.766927,2.25131 -4.150391,3.37696 0,-29.052086 0,-58.10417 0,-87.156253 7.981771,0.0013 15.963542,0.0026 23.945309,0.0039 z m 180.16993,0 c 1.74154,1.050131 3.48307,2.100261 5.22461,3.150391 0,1.684896 0,3.369792 0,5.054687 -1.74349,0 -3.48698,10e-7 -5.23047,0 -4.8e-4,-1.082031 8.8e-4,-2.164062 0.002,-3.246093 -6.6888,0 -13.3776,0 -20.0664,0 0,9.645182 0,19.290364 0,28.935547 8.43109,4.55384 16.86196,9.108104 25.29297,13.662109 0,5.464193 0,10.928385 0,16.392578 -9.72331,7.779297 -19.44662,15.558598 -29.16993,23.337888 0,-9.70833 0,-19.416664 0,-29.124997 1.29232,0 2.58464,0 3.87696,0 0,4.980469 0,9.960937 0,14.941406 6.68707,-4.892511 13.37411,-9.785066 20.0625,-14.675781 0,-3.848959 0,-7.697917 0,-11.546875 -7.98014,-4.509697 -15.96099,-9.018136 -23.94141,-13.527344 6.5e-4,-11.119141 0.001,-22.238281 0.002,-33.357422 7.98243,0.0013 15.96485,0.0026 23.94727,0.0039 z m -132.87305,-0.002 c 0.99089,1.147787 1.98177,2.295573 2.97266,3.44336 0,24.708984 0,49.417968 0,74.126957 -1.74349,1.47591 -3.48698,2.95182 -5.23047,4.42773 0,-26.129557 0,-52.259114 0,-78.388672 -6.68815,0 -13.3763,0 -20.06445,0 0,22.951172 0,45.902344 0,68.853516 5.11912,4.506356 10.23546,9.015856 15.35351,13.523436 -2.14843,1.81836 -4.29687,3.63672 -6.44531,5.45508 -4.39779,-4.07748 -8.79557,-8.15495 -13.19336,-12.23242 0,-25.135419 0,-50.270836 0,-75.406252 0.9681,-1.267579 1.9362,-2.535157 2.9043,-3.802735 7.90104,0 15.80208,0 23.70312,0 z m 42.78516,0 c 1.74219,1.050781 3.48437,2.101563 5.22656,3.152344 0,7.414714 0,14.829427 0,22.244141 -6.6927,3.82423 -13.38549,7.648301 -20.07812,11.472656 6.69369,3.567817 13.38533,7.139479 20.07812,10.708984 0,7.174479 0,14.348959 0,21.523438 -1.24739,0.913411 -2.49479,1.826823 -3.74219,2.740234 6.2e-4,-8.175781 0.002,-16.351562 0.002,-24.527344 -6.57449,-3.461005 -13.15063,-6.918886 -19.72461,-10.380859 6.66476,-3.998608 13.32908,-7.997962 19.99414,-11.996094 0,-6.658203 0,-13.316406 0,-19.974609 -7.27409,0 -14.54818,0 -21.82227,0 0,11.022786 0,22.045573 0,33.068359 0.57082,-0.400288 0.13609,0.971031 0.27149,1.337891 0,16.055989 0,32.111979 0,48.167966 -0.25963,0.42754 -0.97363,0.7538 -1.40836,1.1423 -0.91336,0.67523 -1.82672,1.35045 -2.74008,2.02567 0,-30.235025 0,-60.470051 0,-90.705077 7.98112,0 15.96224,0 23.94336,0 z m 50.27148,0.002 c 0,1.653646 0,3.307292 0,4.960938 -4.37304,0 -8.74609,0 -13.11914,0 0,28.090495 0,56.180989 0,84.271489 0.41176,0.58578 -0.73972,0.79221 -1.05142,1.20243 -0.98807,0.71117 -1.97614,1.42234 -2.9642,2.1335 0,-29.202471 0,-58.404945 0,-87.607419 -4.01302,0 -8.02604,0 -12.03906,0 -1e-5,-1.653646 0,-3.307292 0,-4.960938 9.7246,0 19.44921,0 29.17382,0 z M 82.119484,32.575891 c 0,15.319661 0,30.639323 0,45.958984 7.27272,-4.370712 14.543625,-8.74279 21.822266,-13.103515 0,-11.61849 0,-23.23698 0,-34.855469 -7.274089,0 -14.548177,0 -21.822266,0 0,0.666667 0,1.333333 0,2 z" /><path
     id="path48"
     style="fill:url(#linearGradient1680);fill-opacity:1"
     d="m 205.16475,20.612719 2.70508,3.382812 V 36.57561 h 12.03711 v 86.70117 l -1.62305,7.30664 18.80274,-13.52734 -2.16406,-3.24609 V 36.57561 h 13.12109 V 23.995531 l 2.43359,-3.042968 2.4336,3.042968 v 38.685547 l 23.9414,13.525391 v 5.546875 l -9.0625,6.626953 v -9.603516 h -14.8789 v 44.369139 l -1.08203,2.56836 41.25586,-33.003905 V 70.392016 L 267.78975,56.729907 V 36.57561 h 9.0625 v 3.246093 h 16.23243 V 26.159594 l -9.19727,-5.544922 h -33.14063 l 0.002,-0.002 z m -135.126953,0.002 2.705078,3.380859 v 99.148442 l -1.082031,2.57031 19.615234,-15.96094 H 87.893265 V 86.216235 L 112.9167,72.284594 v -46.125 l -9.19726,-5.544922 z m 53.023433,0 -5.67968,7.439453 V 107.7241 l 18.52929,17.17773 22.04884,-18.66601 V 27.51311 l -5.95118,-6.898438 z m 37.06055,0 2.70508,3.380859 V 123.4155 l -1.48632,5.41016 18.66601,-13.79687 -2.0293,-2.97657 V 71.337328 l 10.2793,5.41211 v 32.056642 l 15.69141,-11.496095 -0.94727,-0.8125 V 70.392016 L 188.79757,62.815844 203.00069,54.70061 V 26.159594 l -9.19726,-5.544922 z m -27.45703,14.607425 h 9.0625 V 104.0717 l -9.0625,-7.980465 z M 87.621781,36.57561 h 10.822266 v 26.240234 l -10.822266,6.492187 z m 90.083989,0 h 10.82031 v 11.361328 l -10.82031,6.492187 z" /><path
     id="path83"
     style="fill:url(#linearGradient2200);fill-opacity:1"
     d="m 117.36201,62.858813 v 44.810547 l 18.53125,17.17969 22.04884,-18.66602 V 85.276781 l -16.23243,-8.916015 v 27.656254 l -9.0625,-7.980473 v -24.84375 z m -4.46289,0.417968 -40.17187,23 V 123.09124 L 71.645218,125.66155 91.2585,109.70061 H 87.875687 V 86.1635 L 112.89912,72.23186 Z m 171.0547,2.138672 -14.81836,6.388672 7.70117,4.351563 v 5.544922 l -9.06445,6.628906 v -9.605469 h -14.87891 v 44.367193 l -1.08203,2.57031 41.25586,-33.003909 v -22.31836 z m -64.0625,1.277344 v 56.531253 l -1.62305,7.30664 18.80078,-13.52735 -2.16406,-3.24609 V 76.108813 Z m -20.81641,1.560547 -13.87891,6.839844 3.04297,1.601562 v 32.05859 l 15.69141,-11.498043 -0.94727,-0.8125 V 70.339281 Z m -21.11523,10.355469 -15.1504,7.167968 v 37.583989 l -1.48632,5.41015 18.66601,-13.79492 -2.02929,-2.97656 z" /><path
     id="path127"
     d="m 156.99874,18.612719 4.32422,5.40625 0.002,98.689451 -2.58398,9.39844 23.31835,-17.23242 -2.58203,-3.78516 V 73.321703 l 7.2793,3.830078 V 111.2592 l 19.60352,-14.359372 -1.86133,-1.59375 0.002,-26.314453 -12.60156,-6.722656 12.60156,-7.199219 V 24.811938 l -10.2833,-6.199219 z m 90.08789,0 0.002,0.002 h -45.04297 l 4.32227,5.404297 v 13.554688 h 12.03711 v 85.041016 l -2.44141,10.98633 23.17383,-16.67383 -2.7168,-4.07227 V 37.573654 h 13.1211 V 24.020922 l 0.93554,-1.167969 0.9336,1.167969 v 39.035156 l 23.93945,13.523438 v 3.912109 l -6.0625,4.431641 v -8.148438 h -17.87891 v 45.566412 l -3.25781,7.73046 46.4375,-37.140622 V 68.997485 L 269.28975,55.333422 V 37.57561 h 6.06446 v 3.24414 h 19.23242 V 24.809985 l -10.2832,-6.197266 h -0.41602 z m -180.167974,0.002 4.322266,5.404297 v 98.324224 l -3.298828,7.82812 4.666015,-3.79492 22.882813,-18.625 h -6.09961 V 86.597094 L 114.41475,72.667407 V 24.811938 l -10.2793,-6.197266 z m 55.398434,0 -6.4375,8.431641 v 80.83008 l 19.98438,18.5293 23.59375,-19.97656 V 26.452563 l -6.76758,-7.837891 h -0.68359 z m -49.160153,2.996094 30.144533,0.0039 8.11133,4.890625 v 44.39648 L 86.393265,84.835375 v 25.916015 h 0.660157 L 74.242875,121.17717 V 22.968188 Z m 180.166023,0 30.14843,0.0039 8.11133,4.890625 v 11.314453 h -13.23437 l 0.002,-3.246093 h -12.0625 v 22.548828 l 25.29297,13.662109 V 91.489672 L 254.41085,121.226 V 79.776781 h 11.87695 v 11.058594 l 12.0625,-8.824218 v -7.179688 l -23.94141,-13.527344 0.002,-38.333984 z m -129.52149,0.002 h 27.51562 l 5.14063,5.955078 V 105.04241 L 135.95381,122.39788 118.87764,106.5678 V 28.059985 Z m 39.43946,0 h 30.14257 l 8.11328,4.892578 V 53.32961 l -15.80468,9.03125 15.80468,8.429687 v 25.894532 l 0.0371,0.0293 -11.77929,8.630861 0.002,-30.003907 -13.28125,-6.988282 v 43.658199 l 1.47656,2.16797 -14.01953,10.36132 0.39258,-1.42382 h 0.002 V 122.9135 22.968188 Z m 45.04101,0.002 h 39.34375 l -1.08398,1.353516 V 34.57561 h -13.11914 v 79.1875 l 1.60937,2.42188 -14.43164,10.38281 0.80664,-3.62696 V 34.57561 h -1.5 -10.53906 V 22.968188 Z M 131.1628,33.222094 v 1.5 61.544922 l 12.06445,10.626954 V 33.222094 Z M 86.119828,34.57561 v 36.884765 l 2.271484,-1.367187 11.550782,-6.927735 V 34.57561 Z m 90.083992,0 v 22.003906 l 2.27343,-1.363281 11.54883,-6.931641 V 34.57561 Z m -42.04102,1.646484 h 6.0625 v 64.029296 l -6.0625,-5.33789 z m -45.042972,1.351563 7.820312,0.002 v 23.890625 l -7.820312,4.691406 z m 90.083992,0 h 7.82031 v 9.013671 l -7.82031,4.69336 z"
     style="fill:url(#linearGradient2822);fill-opacity:1" /></g>




</svg>
