<?xml version="1.0" encoding="UTF-8" standalone="no"?>
<!-- Generator: Adobe Illustrator 13.0.0, SVG Export Plug-In . SVG Version: 6.00 Build 14948)  -->

<svg
   version="1.2"
   id="Ebene_1"
   x="0px"
   y="0px"
   width="254.9903"
   height="138.36328"
   viewBox="48.598 9.613 254.99029 138.36328"
   xml:space="preserve"
   sodipodi:docname="system_color.svg"
   inkscape:version="1.1.2 (0a00cf5339, 2022-02-04)"
   xmlns:inkscape="http://www.inkscape.org/namespaces/inkscape"
   xmlns:sodipodi="http://sodipodi.sourceforge.net/DTD/sodipodi-0.dtd"
   xmlns:xlink="http://www.w3.org/1999/xlink"
   xmlns="http://www.w3.org/2000/svg"
   xmlns:svg="http://www.w3.org/2000/svg"
   xmlns:rdf="http://www.w3.org/1999/02/22-rdf-syntax-ns#"
   xmlns:cc="http://creativecommons.org/ns#"
   xmlns:dc="http://purl.org/dc/elements/1.1/"
   xmlns:ns="ns_sfw;"
   xmlns:a="http://ns.adobe.com/AdobeSVGViewerExtensions/3.0/"><defs
   id="defs140"><linearGradient
     inkscape:collect="always"
     id="linearGradient76079-3"><stop
       style="stop-color:#fcd072;stop-opacity:1;"
       offset="0"
       id="stop76075" /><stop
       style="stop-color:#752f23;stop-opacity:1"
       offset="1"
       id="stop76077" /></linearGradient><linearGradient
     inkscape:collect="always"
     xlink:href="#linearGradient76079-3"
     id="linearGradient2200"
     x1="104.40625"
     y1="109.0957"
     x2="104.40625"
     y2="48.721561"
     gradientUnits="userSpaceOnUse"
     gradientTransform="translate(56.918656,13.612719)" /></defs><sodipodi:namedview
   id="namedview138"
   pagecolor="#ababab"
   bordercolor="#666666"
   borderopacity="1.0"
   inkscape:pageshadow="2"
   inkscape:pageopacity="0"
   inkscape:pagecheckerboard="0"
   showgrid="false"
   fit-margin-top="5"
   fit-margin-left="10"
   fit-margin-right="5"
   fit-margin-bottom="5"
   inkscape:zoom="2.8727207"
   inkscape:cx="113.30722"
   inkscape:cy="39.509584"
   inkscape:window-width="1920"
   inkscape:window-height="996"
   inkscape:window-x="0"
   inkscape:window-y="0"
   inkscape:window-maximized="1"
   inkscape:current-layer="Ebene_1"
   lock-margins="false" />
<metadata
   id="metadata27">
	<rdf:RDF>
		<cc:Work
   rdf:about="">
			<dc:format>image/svg+xml</dc:format>
			<dc:type
   rdf:resource="http://purl.org/dc/dcmitype/StillImage" />
			
		</cc:Work>
	</rdf:RDF>
	<ns:sfw>
		<ns:slices />
		<ns:sliceSourceBounds
   height="129.104"
   width="354.746"
   y="476.208"
   x="725.634"
   bottomLeftOrigin="true" />
	</ns:sfw>
</metadata>



























<linearGradient
   id="SVGID_1_"
   gradientUnits="userSpaceOnUse"
   x1="200.2363"
   y1="91.424103"
   x2="200.2363"
   y2="23.424101"
   gradientTransform="translate(-165.677,-15.541)">
	<stop
   offset="0"
   style="stop-color:#9B9B9B"
   id="stop43" />
	<stop
   offset="1"
   style="stop-color:#5B5C60"
   id="stop45" />
	<a:midPointStop
   offset="0"
   style="stop-color:#9B9B9B" />
	<a:midPointStop
   offset="0.5"
   style="stop-color:#9B9B9B" />
	<a:midPointStop
   offset="1"
   style="stop-color:#5B5C60" />
</linearGradient>

<linearGradient
   id="SVGID_2_"
   gradientUnits="userSpaceOnUse"
   x1="246.4277"
   y1="91.424103"
   x2="246.4277"
   y2="23.424101"
   gradientTransform="translate(-117.079,-5.928)">
	<stop
   offset="0"
   style="stop-color:#9B9B9B"
   id="stop50" />
	<stop
   offset="1"
   style="stop-color:#5B5C60"
   id="stop52" />
	<a:midPointStop
   offset="0"
   style="stop-color:#9B9B9B" />
	<a:midPointStop
   offset="0.5"
   style="stop-color:#9B9B9B" />
	<a:midPointStop
   offset="1"
   style="stop-color:#5B5C60" />
</linearGradient>

<linearGradient
   id="SVGID_3_"
   gradientUnits="userSpaceOnUse"
   x1="290.79349"
   y1="91.424103"
   x2="290.79349"
   y2="23.424101"
   gradientTransform="translate(-117.079,-5.928)">
	<stop
   offset="0"
   style="stop-color:#9B9B9B"
   id="stop57" />
	<stop
   offset="1"
   style="stop-color:#5B5C60"
   id="stop59" />
	<a:midPointStop
   offset="0"
   style="stop-color:#9B9B9B" />
	<a:midPointStop
   offset="0.5"
   style="stop-color:#9B9B9B" />
	<a:midPointStop
   offset="1"
   style="stop-color:#5B5C60" />
</linearGradient>

<linearGradient
   id="SVGID_4_"
   gradientUnits="userSpaceOnUse"
   x1="336.71439"
   y1="91.424103"
   x2="336.71439"
   y2="23.424101"
   gradientTransform="translate(-117.079,-5.928)">
	<stop
   offset="0"
   style="stop-color:#9B9B9B"
   id="stop64" />
	<stop
   offset="1"
   style="stop-color:#5B5C60"
   id="stop66" />
	<a:midPointStop
   offset="0"
   style="stop-color:#9B9B9B" />
	<a:midPointStop
   offset="0.5"
   style="stop-color:#9B9B9B" />
	<a:midPointStop
   offset="1"
   style="stop-color:#5B5C60" />
</linearGradient>

<linearGradient
   id="SVGID_5_"
   gradientUnits="userSpaceOnUse"
   x1="380.40381"
   y1="91.424103"
   x2="380.40381"
   y2="23.424101"
   gradientTransform="translate(-117.079,-5.928)">
	<stop
   offset="0"
   style="stop-color:#9B9B9B"
   id="stop71" />
	<stop
   offset="1"
   style="stop-color:#5B5C60"
   id="stop73" />
	<a:midPointStop
   offset="0"
   style="stop-color:#9B9B9B" />
	<a:midPointStop
   offset="0.5"
   style="stop-color:#9B9B9B" />
	<a:midPointStop
   offset="1"
   style="stop-color:#5B5C60" />
</linearGradient>

<linearGradient
   id="SVGID_6_"
   gradientUnits="userSpaceOnUse"
   x1="201.0303"
   y1="132.37131"
   x2="201.0303"
   y2="61.621899"
   gradientTransform="translate(-165.677,-15.541)"
   xlink:href="#linearGradient76079-3">
	<stop
   offset="0"
   style="stop-color:#F9DA55"
   id="stop78" />
	<stop
   offset="1"
   style="stop-color:#E04305"
   id="stop80" />
	<a:midPointStop
   offset="0"
   style="stop-color:#F9DA55" />
	<a:midPointStop
   offset="0.5"
   style="stop-color:#F9DA55" />
	<a:midPointStop
   offset="1"
   style="stop-color:#E04305" />
</linearGradient>

<linearGradient
   id="SVGID_7_"
   gradientUnits="userSpaceOnUse"
   x1="246.4106"
   y1="132.37131"
   x2="246.4106"
   y2="61.621899"
   gradientTransform="translate(-117.079,-5.928)">
	<stop
   offset="0"
   style="stop-color:#F9DA55"
   id="stop85" />
	<stop
   offset="1"
   style="stop-color:#E04305"
   id="stop87" />
	<a:midPointStop
   offset="0"
   style="stop-color:#F9DA55" />
	<a:midPointStop
   offset="0.5"
   style="stop-color:#F9DA55" />
	<a:midPointStop
   offset="1"
   style="stop-color:#E04305" />
</linearGradient>

<linearGradient
   id="SVGID_8_"
   gradientUnits="userSpaceOnUse"
   x1="291.38531"
   y1="132.37131"
   x2="291.38531"
   y2="61.621899"
   gradientTransform="translate(-117.079,-5.928)">
	<stop
   offset="0"
   style="stop-color:#F9DA55"
   id="stop92" />
	<stop
   offset="1"
   style="stop-color:#E04305"
   id="stop94" />
	<a:midPointStop
   offset="0"
   style="stop-color:#F9DA55" />
	<a:midPointStop
   offset="0.5"
   style="stop-color:#F9DA55" />
	<a:midPointStop
   offset="1"
   style="stop-color:#E04305" />
</linearGradient>

<linearGradient
   id="SVGID_9_"
   gradientUnits="userSpaceOnUse"
   x1="336.42719"
   y1="132.37131"
   x2="336.42719"
   y2="61.621899"
   gradientTransform="translate(-117.079,-5.928)">
	<stop
   offset="0"
   style="stop-color:#F9DA55"
   id="stop99" />
	<stop
   offset="1"
   style="stop-color:#E04305"
   id="stop101" />
	<a:midPointStop
   offset="0"
   style="stop-color:#F9DA55" />
	<a:midPointStop
   offset="0.5"
   style="stop-color:#F9DA55" />
	<a:midPointStop
   offset="1"
   style="stop-color:#E04305" />
</linearGradient>

<linearGradient
   id="SVGID_10_"
   gradientUnits="userSpaceOnUse"
   x1="381.1987"
   y1="132.37131"
   x2="381.1987"
   y2="61.621899"
   gradientTransform="translate(-117.079,-5.928)">
	<stop
   offset="0"
   style="stop-color:#F9DA55"
   id="stop106" />
	<stop
   offset="1"
   style="stop-color:#E04305"
   id="stop108" />
	<a:midPointStop
   offset="0"
   style="stop-color:#F9DA55" />
	<a:midPointStop
   offset="0.5"
   style="stop-color:#F9DA55" />
	<a:midPointStop
   offset="1"
   style="stop-color:#E04305" />
</linearGradient>








<path
   id="path59"
   style="fill:url(#linearGradient2200);fill-opacity:1"
   d="m 117.36201,62.858813 v 44.810547 l 18.53125,17.17969 22.04884,-18.66602 V 85.276781 l -16.23243,-8.916015 v 27.656254 l -9.0625,-7.980473 v -24.84375 z m -4.46289,0.417968 -40.17187,23 V 123.09124 L 71.645218,125.66155 91.2585,109.70061 H 87.875687 V 86.1635 L 112.89912,72.23186 Z m 171.0547,2.138672 -14.81836,6.388672 7.70117,4.351563 v 5.544922 l -9.06445,6.628906 v -9.605469 h -14.87891 v 44.367193 l -1.08203,2.57031 41.25586,-33.003909 v -22.31836 z m -64.0625,1.277344 v 56.531253 l -1.62305,7.30664 18.80078,-13.52735 -2.16406,-3.24609 V 76.108813 Z m -20.81641,1.560547 -13.87891,6.839844 3.04297,1.601562 v 32.05859 l 15.69141,-11.498043 -0.94727,-0.8125 V 70.339281 Z m -21.11523,10.355469 -15.1504,7.167968 v 37.583989 l -1.48632,5.41015 18.66601,-13.79492 -2.02929,-2.97656 z" /><path
   id="path61"
   style="fill:url(#linearGradient2200);fill-opacity:1"
   d="m 117.36201,62.858813 v 44.810547 l 18.53125,17.17969 22.04884,-18.66602 V 85.276781 l -16.23243,-8.916015 v 27.656254 l -9.0625,-7.980473 v -24.84375 z m -4.46289,0.417968 -40.17187,23 V 123.09124 L 71.645218,125.66155 91.2585,109.70061 H 87.875687 V 86.1635 L 112.89912,72.23186 Z m 171.0547,2.138672 -14.81836,6.388672 7.70117,4.351563 v 5.544922 l -9.06445,6.628906 v -9.605469 h -14.87891 v 44.367193 l -1.08203,2.57031 41.25586,-33.003909 v -22.31836 z m -64.0625,1.277344 v 56.531253 l -1.62305,7.30664 18.80078,-13.52735 -2.16406,-3.24609 V 76.108813 Z m -20.81641,1.560547 -13.87891,6.839844 3.04297,1.601562 v 32.05859 l 15.69141,-11.498043 -0.94727,-0.8125 V 70.339281 Z m -21.11523,10.355469 -15.1504,7.167968 v 37.583989 l -1.48632,5.41015 18.66601,-13.79492 -2.02929,-2.97656 z" /><path
   id="path2696"
   style="fill:#000000"
   d="M 236.81836 5 C 192.62596 5.0023 148.43416 4.9999371 104.24219 5.0019531 L 71.738281 5.0019531 C 70.154921 7.0797461 68.568865 9.1554889 66.984375 11.232422 C 63.539675 9.1556529 60.095251 7.0784471 56.650391 5.0019531 L 10 5.0019531 C 12.88141 8.6043771 15.761796 12.207621 18.642578 15.810547 L 18.642578 111.91797 C 15.662592 118.87636 12.875994 125.9139 10.058594 132.93945 C 17.451244 127.17869 24.792465 121.35339 32.025391 115.39453 C 40.730007 108.30799 49.43749 101.22468 58.142578 94.138672 L 44.792969 94.138672 L 44.792969 79.335938 L 63.28125 69.044922 L 63.28125 100.00977 C 71.23581 107.38528 79.190821 114.76029 87.144531 122.13672 C 94.340611 116.04725 101.53364 109.95417 108.72852 103.86328 C 108.71482 106.82338 108.76938 109.79209 108.67578 112.74609 C 106.85666 119.35853 105.03968 125.97204 103.21875 132.58398 C 115.12706 123.78924 127.03103 114.98863 138.9375 106.19141 C 139.0132 105.76045 139.86631 105.46279 140.23633 105.08203 C 148.22259 99.232711 156.20871 93.38207 164.19531 87.533203 C 162.76431 86.305889 161.33245 85.079592 159.90039 83.853516 C 159.90102 74.895834 159.90134 65.938151 159.90234 56.980469 C 157.12771 55.496703 154.35009 54.018546 151.57422 52.537109 C 154.35024 50.950485 157.12646 49.364215 159.90234 47.777344 L 159.90234 31.960938 L 165.80664 31.960938 L 165.80664 112.55664 C 164.26624 119.49218 162.72471 126.42747 161.18555 133.36328 C 172.79231 125.01014 184.40034 116.65879 196.00781 108.30664 C 194.61328 106.21441 193.21748 104.12303 191.82227 102.03125 L 191.82227 31.960938 L 198.8125 31.960938 L 198.8125 55.779297 C 203.16822 58.240956 207.5248 60.701065 211.88086 63.162109 L 198.81055 63.162109 L 198.81055 111.91797 C 195.83412 118.94076 192.95036 126.00212 190.03125 133.04883 C 205.90144 120.60282 221.58539 107.92797 237.35156 95.351562 C 241.56414 91.980842 245.77897 88.612598 249.99023 85.240234 L 249.99023 56.998047 C 241.55722 52.443476 233.12436 47.888652 224.69141 43.333984 L 224.69141 35.207031 L 249.98828 35.207031 C 249.98828 27.784505 249.98829 20.361979 249.98828 12.939453 C 245.59935 10.291242 241.2083 7.646539 236.81836 5 z M 156.56641 11 L 202.15039 11 L 202.14844 11.001953 L 235.28906 11.001953 L 244.48633 16.546875 L 244.48633 30.208984 L 228.25391 30.208984 L 228.25391 26.962891 L 219.19141 26.962891 L 219.19141 47.117188 L 244.48633 60.779297 L 244.48633 83.097656 L 203.23047 116.10156 L 204.3125 113.5332 L 204.3125 69.164062 L 219.19141 69.164062 L 219.19141 78.767578 L 228.25391 72.140625 L 228.25391 66.59375 L 204.3125 53.068359 L 204.3125 14.382812 L 201.87891 11.339844 L 199.44531 14.382812 L 199.44531 26.962891 L 186.32422 26.962891 L 186.32422 104.19727 L 188.48828 107.44336 L 169.68555 120.9707 L 171.30859 113.66406 L 171.30859 26.962891 L 159.27148 26.962891 L 159.27148 14.382812 L 156.56641 11 z M 21.439453 11.001953 L 55.121094 11.001953 L 64.318359 16.546875 L 64.318359 62.671875 L 39.294922 76.603516 L 39.294922 100.14062 L 42.677734 100.14062 L 23.0625 116.10156 L 24.144531 113.53125 L 24.144531 14.382812 L 21.439453 11.001953 z M 74.462891 11.001953 L 103.41016 11.001953 L 109.36133 17.900391 L 109.36133 96.623047 L 87.3125 115.28906 L 68.783203 98.111328 L 68.783203 18.441406 L 74.462891 11.001953 z M 111.52344 11.001953 L 145.20508 11.001953 L 154.40234 16.546875 L 154.40234 45.087891 L 140.19922 53.203125 L 154.40234 60.779297 L 154.40234 86.884766 L 155.34961 87.697266 L 139.6582 99.193359 L 139.6582 67.136719 L 129.37891 61.724609 L 129.37891 102.43945 L 131.4082 105.41602 L 112.74219 119.21289 L 114.22852 113.80273 L 114.22852 14.382812 L 111.52344 11.001953 z M 84.066406 25.609375 L 84.066406 86.478516 L 93.128906 94.458984 L 93.128906 25.609375 L 84.066406 25.609375 z M 39.023438 26.962891 L 39.023438 59.695312 L 49.845703 53.203125 L 49.845703 26.962891 L 39.023438 26.962891 z M 129.10742 26.962891 L 129.10742 44.816406 L 139.92773 38.324219 L 139.92773 26.962891 L 129.10742 26.962891 z "
   transform="translate(48.598,9.613)" /><path
   id="path83"
   style="fill:url(#linearGradient2200);fill-opacity:1"
   d="m 117.36201,62.858813 v 44.810547 l 18.53125,17.17969 22.04884,-18.66602 V 85.276781 l -16.23243,-8.916015 v 27.656254 l -9.0625,-7.980473 v -24.84375 z m -4.46289,0.417968 -40.17187,23 V 123.09124 L 71.645218,125.66155 91.2585,109.70061 H 87.875687 V 86.1635 L 112.89912,72.23186 Z m 171.0547,2.138672 -14.81836,6.388672 7.70117,4.351563 v 5.544922 l -9.06445,6.628906 v -9.605469 h -14.87891 v 44.367193 l -1.08203,2.57031 41.25586,-33.003909 v -22.31836 z m -64.0625,1.277344 v 56.531253 l -1.62305,7.30664 18.80078,-13.52735 -2.16406,-3.24609 V 76.108813 Z m -20.81641,1.560547 -13.87891,6.839844 3.04297,1.601562 v 32.05859 l 15.69141,-11.498043 -0.94727,-0.8125 V 70.339281 Z m -21.11523,10.355469 -15.1504,7.167968 v 37.583989 l -1.48632,5.41015 18.66601,-13.79492 -2.02929,-2.97656 z" />




<path
   id="path57"
   style="fill:#ffffff;fill-opacity:1"
   d="m 117.36201,62.858813 v 44.810547 l 18.53125,17.17969 22.04884,-18.66602 V 85.276781 l -16.23243,-8.916015 v 27.656254 l -9.0625,-7.980473 v -24.84375 z m -4.46289,0.417968 -40.17187,23 V 123.09124 L 71.645218,125.66155 91.2585,109.70061 H 87.875687 V 86.1635 L 112.89912,72.23186 Z m 171.0547,2.138672 -14.81836,6.388672 7.70117,4.351563 v 5.544922 l -9.06445,6.628906 v -9.605469 h -14.87891 v 44.367193 l -1.08203,2.57031 41.25586,-33.003909 v -22.31836 z m -64.0625,1.277344 v 56.531253 l -1.62305,7.30664 18.80078,-13.52735 -2.16406,-3.24609 V 76.108813 Z m -20.81641,1.560547 -13.87891,6.839844 3.04297,1.601562 v 32.05859 l 15.69141,-11.498043 -0.94727,-0.8125 V 70.339281 Z m -21.11523,10.355469 -15.1504,7.167968 v 37.583989 l -1.48632,5.41015 18.66601,-13.79492 -2.02929,-2.97656 z" /><path
   id="path127"
   d="m 156.99874,18.612719 4.32422,5.40625 0.002,98.689451 -2.58398,9.39844 23.31835,-17.23242 -2.58203,-3.78516 V 73.321703 l 7.2793,3.830078 V 111.2592 l 19.60352,-14.359372 -1.86133,-1.59375 0.002,-26.314453 -12.60156,-6.722656 12.60156,-7.199219 V 24.811938 l -10.2833,-6.199219 z m 90.08789,0 0.002,0.002 h -45.04297 l 4.32227,5.404297 v 13.554688 h 12.03711 v 85.041016 l -2.44141,10.98633 23.17383,-16.67383 -2.7168,-4.07227 V 37.573654 h 13.1211 V 24.020922 l 0.93554,-1.167969 0.9336,1.167969 v 39.035156 l 23.93945,13.523438 v 3.912109 l -6.0625,4.431641 v -8.148438 h -17.87891 v 45.566412 l -3.25781,7.73046 46.4375,-37.140622 V 68.997485 L 269.28975,55.333422 V 37.57561 h 6.06446 v 3.24414 h 19.23242 V 24.809985 l -10.2832,-6.197266 h -0.41602 z m -180.167974,0.002 4.322266,5.404297 v 98.324224 l -3.298828,7.82812 4.666015,-3.79492 22.882813,-18.625 h -6.09961 V 86.597094 L 114.41475,72.667407 V 24.811938 l -10.2793,-6.197266 z m 55.398434,0 -6.4375,8.431641 v 80.83008 l 19.98438,18.5293 23.59375,-19.97656 V 26.452563 l -6.76758,-7.837891 h -0.68359 z m -49.160153,2.996094 30.144533,0.0039 8.11133,4.890625 v 44.39648 L 86.393265,84.835375 v 25.916015 h 0.660157 L 74.242875,121.17717 V 22.968188 Z m 180.166023,0 30.14843,0.0039 8.11133,4.890625 v 11.314453 h -13.23437 l 0.002,-3.246093 h -12.0625 v 22.548828 l 25.29297,13.662109 V 91.489672 L 254.41085,121.226 V 79.776781 h 11.87695 v 11.058594 l 12.0625,-8.824218 v -7.179688 l -23.94141,-13.527344 0.002,-38.333984 z m -129.52149,0.002 h 27.51562 l 5.14063,5.955078 V 105.04241 L 135.95381,122.39788 118.87764,106.5678 V 28.059985 Z m 39.43946,0 h 30.14257 l 8.11328,4.892578 V 53.32961 l -15.80468,9.03125 15.80468,8.429687 v 25.894532 l 0.0371,0.0293 -11.77929,8.630861 0.002,-30.003907 -13.28125,-6.988282 v 43.658199 l 1.47656,2.16797 -14.01953,10.36132 0.39258,-1.42382 h 0.002 V 122.9135 22.968188 Z m 45.04101,0.002 h 39.34375 l -1.08398,1.353516 V 34.57561 h -13.11914 v 79.1875 l 1.60937,2.42188 -14.43164,10.38281 0.80664,-3.62696 V 34.57561 h -1.5 -10.53906 V 22.968188 Z M 131.1628,33.222094 v 1.5 61.544922 l 12.06445,10.626954 V 33.222094 Z M 86.119828,34.57561 v 36.884765 l 2.271484,-1.367187 11.550782,-6.927735 V 34.57561 Z m 90.083992,0 v 22.003906 l 2.27343,-1.363281 11.54883,-6.931641 V 34.57561 Z m -42.04102,1.646484 h 6.0625 v 64.029296 l -6.0625,-5.33789 z m -45.042972,1.351563 7.820312,0.002 v 23.890625 l -7.820312,4.691406 z m 90.083992,0 h 7.82031 v 9.013671 l -7.82031,4.69336 z"
   style="fill:#ffffff;fill-opacity:1" /></svg>
