<?xml version="1.0" encoding="UTF-8" standalone="no"?>
<!-- Generator: Adobe Illustrator 13.0.0, SVG Export Plug-In . SVG Version: 6.00 Build 14948)  -->

<svg
   version="1.2"
   id="Ebene_1"
   x="0px"
   y="0px"
   width="242.66901"
   height="124.988"
   viewBox="48.598 9.613 242.669 124.988"
   xml:space="preserve"
   sodipodi:docname="system (cópia).svg"
   inkscape:version="1.1.2 (0a00cf5339, 2022-02-04)"
   xmlns:inkscape="http://www.inkscape.org/namespaces/inkscape"
   xmlns:sodipodi="http://sodipodi.sourceforge.net/DTD/sodipodi-0.dtd"
   xmlns="http://www.w3.org/2000/svg"
   xmlns:svg="http://www.w3.org/2000/svg"
   xmlns:rdf="http://www.w3.org/1999/02/22-rdf-syntax-ns#"
   xmlns:cc="http://creativecommons.org/ns#"
   xmlns:dc="http://purl.org/dc/elements/1.1/"
   xmlns:ns="&amp;#38;ns_sfw;"
   xmlns:a="http://ns.adobe.com/AdobeSVGViewerExtensions/3.0/"><defs
   id="defs140" /><sodipodi:namedview
   id="namedview138"
   pagecolor="#9e9e9e"
   bordercolor="#666666"
   borderopacity="1.0"
   inkscape:pageshadow="2"
   inkscape:pageopacity="0.54117647"
   inkscape:pagecheckerboard="true"
   showgrid="false"
   fit-margin-top="5"
   fit-margin-left="10"
   fit-margin-right="5"
   fit-margin-bottom="5"
   inkscape:zoom="2.8727207"
   inkscape:cx="122.70598"
   inkscape:cy="74.667892"
   inkscape:window-width="1920"
   inkscape:window-height="996"
   inkscape:window-x="0"
   inkscape:window-y="0"
   inkscape:window-maximized="1"
   inkscape:current-layer="Ebene_1"
   lock-margins="false" />
<metadata
   id="metadata27">
	<rdf:RDF>
		<cc:Work
   rdf:about="">
			<dc:format>image/svg+xml</dc:format>
			<dc:type
   rdf:resource="http://purl.org/dc/dcmitype/StillImage" />
			
		</cc:Work>
	</rdf:RDF>
	<ns:sfw>
		<ns:slices />
		<ns:sliceSourceBounds
   height="129.104"
   width="354.746"
   y="476.208"
   x="725.634"
   bottomLeftOrigin="true" />
	</ns:sfw>
</metadata>



























<linearGradient
   id="SVGID_1_"
   gradientUnits="userSpaceOnUse"
   x1="200.2363"
   y1="91.424103"
   x2="200.2363"
   y2="23.424101"
   gradientTransform="translate(-165.677,-15.541)">
	<stop
   offset="0"
   style="stop-color:#9B9B9B"
   id="stop43" />
	<stop
   offset="1"
   style="stop-color:#5B5C60"
   id="stop45" />
	<a:midPointStop
   offset="0"
   style="stop-color:#9B9B9B" />
	<a:midPointStop
   offset="0.5"
   style="stop-color:#9B9B9B" />
	<a:midPointStop
   offset="1"
   style="stop-color:#5B5C60" />
</linearGradient>
<path
   id="path48"
   style="fill:#ffffff"
   d="M 148.24609 7 L 150.95117 10.382812 L 150.95117 22.962891 L 162.98828 22.962891 L 162.98828 109.66406 L 161.36523 116.9707 L 180.16797 103.44336 L 178.00391 100.19727 L 178.00391 22.962891 L 191.125 22.962891 L 191.125 10.382812 L 193.55859 7.3398438 L 195.99219 10.382812 L 195.99219 49.068359 L 219.93359 62.59375 L 219.93359 68.140625 L 210.87109 74.767578 L 210.87109 65.164062 L 195.99219 65.164062 L 195.99219 109.5332 L 194.91016 112.10156 L 236.16602 79.097656 L 236.16602 56.779297 L 210.87109 43.117188 L 210.87109 22.962891 L 219.93359 22.962891 L 219.93359 26.208984 L 236.16602 26.208984 L 236.16602 12.546875 L 226.96875 7.0019531 L 193.82812 7.0019531 L 193.83008 7 L 148.24609 7 z M 13.119141 7.0019531 L 15.824219 10.382812 L 15.824219 109.53125 L 14.742188 112.10156 L 34.357422 96.140625 L 30.974609 96.140625 L 30.974609 72.603516 L 55.998047 58.671875 L 55.998047 12.546875 L 46.800781 7.0019531 L 13.119141 7.0019531 z M 66.142578 7.0019531 L 60.462891 14.441406 L 60.462891 94.111328 L 78.992188 111.28906 L 101.04102 92.623047 L 101.04102 13.900391 L 95.089844 7.0019531 L 66.142578 7.0019531 z M 103.20312 7.0019531 L 105.9082 10.382812 L 105.9082 109.80273 L 104.42188 115.21289 L 123.08789 101.41602 L 121.05859 98.439453 L 121.05859 57.724609 L 131.33789 63.136719 L 131.33789 95.193359 L 147.0293 83.697266 L 146.08203 82.884766 L 146.08203 56.779297 L 131.87891 49.203125 L 146.08203 41.087891 L 146.08203 12.546875 L 136.88477 7.0019531 L 103.20312 7.0019531 z M 75.746094 21.609375 L 84.808594 21.609375 L 84.808594 90.458984 L 75.746094 82.478516 L 75.746094 21.609375 z M 30.703125 22.962891 L 41.525391 22.962891 L 41.525391 49.203125 L 30.703125 55.695312 L 30.703125 22.962891 z M 120.78711 22.962891 L 131.60742 22.962891 L 131.60742 34.324219 L 120.78711 40.816406 L 120.78711 22.962891 z "
   transform="translate(48.598,9.613)" />
<linearGradient
   id="SVGID_2_"
   gradientUnits="userSpaceOnUse"
   x1="246.4277"
   y1="91.424103"
   x2="246.4277"
   y2="23.424101"
   gradientTransform="translate(-117.079,-5.928)">
	<stop
   offset="0"
   style="stop-color:#9B9B9B"
   id="stop50" />
	<stop
   offset="1"
   style="stop-color:#5B5C60"
   id="stop52" />
	<a:midPointStop
   offset="0"
   style="stop-color:#9B9B9B" />
	<a:midPointStop
   offset="0.5"
   style="stop-color:#9B9B9B" />
	<a:midPointStop
   offset="1"
   style="stop-color:#5B5C60" />
</linearGradient>

<linearGradient
   id="SVGID_3_"
   gradientUnits="userSpaceOnUse"
   x1="290.79349"
   y1="91.424103"
   x2="290.79349"
   y2="23.424101"
   gradientTransform="translate(-117.079,-5.928)">
	<stop
   offset="0"
   style="stop-color:#9B9B9B"
   id="stop57" />
	<stop
   offset="1"
   style="stop-color:#5B5C60"
   id="stop59" />
	<a:midPointStop
   offset="0"
   style="stop-color:#9B9B9B" />
	<a:midPointStop
   offset="0.5"
   style="stop-color:#9B9B9B" />
	<a:midPointStop
   offset="1"
   style="stop-color:#5B5C60" />
</linearGradient>

<linearGradient
   id="SVGID_4_"
   gradientUnits="userSpaceOnUse"
   x1="336.71439"
   y1="91.424103"
   x2="336.71439"
   y2="23.424101"
   gradientTransform="translate(-117.079,-5.928)">
	<stop
   offset="0"
   style="stop-color:#9B9B9B"
   id="stop64" />
	<stop
   offset="1"
   style="stop-color:#5B5C60"
   id="stop66" />
	<a:midPointStop
   offset="0"
   style="stop-color:#9B9B9B" />
	<a:midPointStop
   offset="0.5"
   style="stop-color:#9B9B9B" />
	<a:midPointStop
   offset="1"
   style="stop-color:#5B5C60" />
</linearGradient>

<linearGradient
   id="SVGID_5_"
   gradientUnits="userSpaceOnUse"
   x1="380.40381"
   y1="91.424103"
   x2="380.40381"
   y2="23.424101"
   gradientTransform="translate(-117.079,-5.928)">
	<stop
   offset="0"
   style="stop-color:#9B9B9B"
   id="stop71" />
	<stop
   offset="1"
   style="stop-color:#5B5C60"
   id="stop73" />
	<a:midPointStop
   offset="0"
   style="stop-color:#9B9B9B" />
	<a:midPointStop
   offset="0.5"
   style="stop-color:#9B9B9B" />
	<a:midPointStop
   offset="1"
   style="stop-color:#5B5C60" />
</linearGradient>

<linearGradient
   id="SVGID_6_"
   gradientUnits="userSpaceOnUse"
   x1="201.0303"
   y1="132.37131"
   x2="201.0303"
   y2="61.621899"
   gradientTransform="translate(-165.677,-15.541)">
	<stop
   offset="0"
   style="stop-color:#F9DA55"
   id="stop78" />
	<stop
   offset="1"
   style="stop-color:#E04305"
   id="stop80" />
	<a:midPointStop
   offset="0"
   style="stop-color:#F9DA55" />
	<a:midPointStop
   offset="0.5"
   style="stop-color:#F9DA55" />
	<a:midPointStop
   offset="1"
   style="stop-color:#E04305" />
</linearGradient>
<path
   id="path83"
   style="fill:#ececec"
   d="M 60.443359 49.246094 L 60.443359 94.056641 L 78.974609 111.23633 L 101.02344 92.570312 L 101.02344 71.664062 L 84.791016 62.748047 L 84.791016 90.404297 L 75.728516 82.423828 L 75.728516 57.580078 L 60.443359 49.246094 z M 55.980469 49.664062 L 15.808594 72.664062 L 15.808594 109.47852 L 14.726562 112.04883 L 34.339844 96.087891 L 30.957031 96.087891 L 30.957031 72.550781 L 55.980469 58.619141 L 55.980469 49.664062 z M 227.03516 51.802734 L 212.2168 58.191406 L 219.91797 62.542969 L 219.91797 68.087891 L 210.85352 74.716797 L 210.85352 65.111328 L 195.97461 65.111328 L 195.97461 109.47852 L 194.89258 112.04883 L 236.14844 79.044922 L 236.14844 56.726562 L 227.03516 51.802734 z M 162.97266 53.080078 L 162.97266 109.61133 L 161.34961 116.91797 L 180.15039 103.39062 L 177.98633 100.14453 L 177.98633 62.496094 L 162.97266 53.080078 z M 142.15625 54.640625 L 128.27734 61.480469 L 131.32031 63.082031 L 131.32031 95.140625 L 147.01172 83.642578 L 146.06445 82.830078 L 146.06445 56.726562 L 142.15625 54.640625 z M 121.04102 64.996094 L 105.89062 72.164062 L 105.89062 109.74805 L 104.4043 115.1582 L 123.07031 101.36328 L 121.04102 98.386719 L 121.04102 64.996094 z "
   transform="translate(48.598,9.613)" />
<linearGradient
   id="SVGID_7_"
   gradientUnits="userSpaceOnUse"
   x1="246.4106"
   y1="132.37131"
   x2="246.4106"
   y2="61.621899"
   gradientTransform="translate(-117.079,-5.928)">
	<stop
   offset="0"
   style="stop-color:#F9DA55"
   id="stop85" />
	<stop
   offset="1"
   style="stop-color:#E04305"
   id="stop87" />
	<a:midPointStop
   offset="0"
   style="stop-color:#F9DA55" />
	<a:midPointStop
   offset="0.5"
   style="stop-color:#F9DA55" />
	<a:midPointStop
   offset="1"
   style="stop-color:#E04305" />
</linearGradient>

<linearGradient
   id="SVGID_8_"
   gradientUnits="userSpaceOnUse"
   x1="291.38531"
   y1="132.37131"
   x2="291.38531"
   y2="61.621899"
   gradientTransform="translate(-117.079,-5.928)">
	<stop
   offset="0"
   style="stop-color:#F9DA55"
   id="stop92" />
	<stop
   offset="1"
   style="stop-color:#E04305"
   id="stop94" />
	<a:midPointStop
   offset="0"
   style="stop-color:#F9DA55" />
	<a:midPointStop
   offset="0.5"
   style="stop-color:#F9DA55" />
	<a:midPointStop
   offset="1"
   style="stop-color:#E04305" />
</linearGradient>

<linearGradient
   id="SVGID_9_"
   gradientUnits="userSpaceOnUse"
   x1="336.42719"
   y1="132.37131"
   x2="336.42719"
   y2="61.621899"
   gradientTransform="translate(-117.079,-5.928)">
	<stop
   offset="0"
   style="stop-color:#F9DA55"
   id="stop99" />
	<stop
   offset="1"
   style="stop-color:#E04305"
   id="stop101" />
	<a:midPointStop
   offset="0"
   style="stop-color:#F9DA55" />
	<a:midPointStop
   offset="0.5"
   style="stop-color:#F9DA55" />
	<a:midPointStop
   offset="1"
   style="stop-color:#E04305" />
</linearGradient>

<linearGradient
   id="SVGID_10_"
   gradientUnits="userSpaceOnUse"
   x1="381.1987"
   y1="132.37131"
   x2="381.1987"
   y2="61.621899"
   gradientTransform="translate(-117.079,-5.928)">
	<stop
   offset="0"
   style="stop-color:#F9DA55"
   id="stop106" />
	<stop
   offset="1"
   style="stop-color:#E04305"
   id="stop108" />
	<a:midPointStop
   offset="0"
   style="stop-color:#F9DA55" />
	<a:midPointStop
   offset="0.5"
   style="stop-color:#F9DA55" />
	<a:midPointStop
   offset="1"
   style="stop-color:#E04305" />
</linearGradient>








<path
   d="M 62.921,118.343 V 20.02 l -4.323,-5.406 h 37.217 l 10.28,6.198 V 68.667 L 81.071,82.598 v 21.154 h 6.1 l -22.884,18.624 -4.666,3.796 z m 1.801,3.452 -1.383,-0.582 z m 1.2,-102.827 v 98.209 l 12.81,-10.425 h -0.66 V 80.835 L 103.093,66.902 V 22.505 L 94.981,17.614 64.836,17.612 Z M 77.8,30.575 h 13.822 v 28.59 L 80.071,66.094 79.3,64.808 80.071,66.094 77.8,67.46 Z m 3,31.583 7.82,-4.691 V 33.575 L 80.8,33.573 Z"
   id="path127" />
<path
   d="m 107.558,103.876 v -80.83 l 6.438,-8.432 h 29.689 v 1.5 -1.5 h 0.685 l 6.768,7.839 v 79.977 l -23.595,19.976 z m 2.999,-79.815 v 78.508 l 17.077,15.83 20.503,-17.356 V 23.568 l -5.14,-5.955 h -27.516 z m 12.286,68.207 v -61.545 -1.5 h 12.063 v 73.672 z m 3,-1.355 6.062,5.339 V 32.223 h -6.062 z m -1.5,-58.69 v -1.5 z"
   id="path129" />
<path
   d="m 153.005,118.708 -0.002,-98.688 -4.324,-5.407 h 37.218 l 10.283,6.199 v 30.259 l -12.602,7.199 12.602,6.721 -0.002,26.316 1.861,1.593 -19.604,14.36 V 73.153 l -7.279,-3.831 v 37.768 l 2.582,3.785 -23.318,17.233 z m 3,0.409 -0.393,1.424 14.02,-10.361 -1.477,-2.168 V 64.353 l 13.28,6.988 -0.002,30.004 11.78,-8.631 -0.036,-0.029 V 66.791 L 177.372,58.362 193.177,49.33 V 22.506 l -8.115,-4.893 h -30.141 l 1.085,1.356 v 99.944 0.204 z m 11.879,-88.542 h 13.821 v 13.709 l -11.549,6.932 -0.772,-1.287 0.772,1.287 -2.272,1.363 z m 2.999,16.705 7.821,-4.693 v -9.013 h -7.821 z"
   id="path131" />
<path
   d="M 210.085,118.615 V 33.574 H 198.047 V 20.02 l -4.323,-5.406 h 51.824 l -4.326,5.408 V 33.574 H 228.1 v 75.282 l 2.716,4.072 -23.173,16.673 z m 3.001,-88.04 v 88.367 l -0.807,3.627 14.433,-10.384 -1.611,-2.421 V 30.575 h 13.12 V 18.969 l 1.084,-1.355 h -39.343 l 1.086,1.355 v 11.606 h 10.538 v 1.5 -1.5 z"
   id="path133" />
<path
   d="M 243.089,118.342 V 72.776 h 17.879 v 8.147 l 6.062,-4.432 V 72.579 L 243.09,59.056 V 20.021 l -4.324,-5.408 h 36.8 v 1.5 -1.5 h 0.417 l 10.283,6.198 v 16.01 h -19.232 v -3.246 h -6.064 v 17.759 l 25.297,13.663 v 23.935 l -46.436,37.14 z m 3.001,-1.116 37.171,-29.737 V 66.785 L 257.967,53.123 V 30.574 h 12.063 l -0.002,3.246 h 13.234 V 22.505 l -8.112,-4.891 -30.147,-0.002 1.087,1.358 -0.002,38.335 23.942,13.526 v 7.181 l -12.063,8.824 V 75.777 H 246.09 Z"
   id="path135" />
</svg>
