<?xml version="1.0" encoding="UTF-8" standalone="no"?>
<!-- Generator: Adobe Illustrator 13.0.0, SVG Export Plug-In . SVG Version: 6.00 Build 14948)  -->

<svg
   version="1.2"
   id="Ebene_1"
   x="0px"
   y="0px"
   width="242.66901"
   height="124.988"
   viewBox="48.598 9.613 242.669 124.988"
   xml:space="preserve"
   sodipodi:docname="system_color.svg"
   inkscape:version="1.1.2 (0a00cf5339, 2022-02-04)"
   xmlns:inkscape="http://www.inkscape.org/namespaces/inkscape"
   xmlns:sodipodi="http://sodipodi.sourceforge.net/DTD/sodipodi-0.dtd"
   xmlns="http://www.w3.org/2000/svg"
   xmlns:svg="http://www.w3.org/2000/svg"
   xmlns:rdf="http://www.w3.org/1999/02/22-rdf-syntax-ns#"
   xmlns:cc="http://creativecommons.org/ns#"
   xmlns:dc="http://purl.org/dc/elements/1.1/"
   xmlns:ns="&amp;#38;ns_sfw;"
   xmlns:a="http://ns.adobe.com/AdobeSVGViewerExtensions/3.0/"><defs
   id="defs140" /><sodipodi:namedview
   id="namedview138"
   pagecolor="#66717a"
   bordercolor="#666666"
   borderopacity="1.0"
   inkscape:pageshadow="2"
   inkscape:pageopacity="0"
   inkscape:pagecheckerboard="0"
   showgrid="false"
   fit-margin-top="5"
   fit-margin-left="10"
   fit-margin-right="5"
   fit-margin-bottom="5"
   inkscape:zoom="4.0626406"
   inkscape:cx="108.91931"
   inkscape:cy="34.2142"
   inkscape:window-width="1920"
   inkscape:window-height="995"
   inkscape:window-x="0"
   inkscape:window-y="0"
   inkscape:window-maximized="1"
   inkscape:current-layer="Ebene_1"
   lock-margins="false" />
<metadata
   id="metadata27">
	<rdf:RDF>
		<cc:Work
   rdf:about="">
			<dc:format>image/svg+xml</dc:format>
			<dc:type
   rdf:resource="http://purl.org/dc/dcmitype/StillImage" />
			
		</cc:Work>
	</rdf:RDF>
	<ns:sfw>
		<ns:slices />
		<ns:sliceSourceBounds
   height="129.104"
   width="354.746"
   y="476.208"
   x="725.634"
   bottomLeftOrigin="true" />
	</ns:sfw>
</metadata>



























<linearGradient
   id="SVGID_1_"
   gradientUnits="userSpaceOnUse"
   x1="200.2363"
   y1="91.424103"
   x2="200.2363"
   y2="23.424101"
   gradientTransform="translate(-28.498,4.084)">
	<stop
   offset="0"
   style="stop-color:#9B9B9B"
   id="stop43" />
	<stop
   offset="1"
   style="stop-color:#5B5C60"
   id="stop45" />
	<a:midPointStop
   offset="0"
   style="stop-color:#9B9B9B" />
	<a:midPointStop
   offset="0.5"
   style="stop-color:#9B9B9B" />
	<a:midPointStop
   offset="1"
   style="stop-color:#5B5C60" />
</linearGradient>

<linearGradient
   id="SVGID_2_"
   gradientUnits="userSpaceOnUse"
   x1="246.4277"
   y1="91.424103"
   x2="246.4277"
   y2="23.424101"
   gradientTransform="translate(-117.079,-5.928)">
	<stop
   offset="0"
   style="stop-color:#9B9B9B"
   id="stop50" />
	<stop
   offset="1"
   style="stop-color:#5B5C60"
   id="stop52" />
	<a:midPointStop
   offset="0"
   style="stop-color:#9B9B9B" />
	<a:midPointStop
   offset="0.5"
   style="stop-color:#9B9B9B" />
	<a:midPointStop
   offset="1"
   style="stop-color:#5B5C60" />
</linearGradient>

<linearGradient
   id="SVGID_3_"
   gradientUnits="userSpaceOnUse"
   x1="290.79349"
   y1="91.424103"
   x2="290.79349"
   y2="23.424101"
   gradientTransform="translate(-117.079,-5.928)">
	<stop
   offset="0"
   style="stop-color:#9B9B9B"
   id="stop57" />
	<stop
   offset="1"
   style="stop-color:#5B5C60"
   id="stop59" />
	<a:midPointStop
   offset="0"
   style="stop-color:#9B9B9B" />
	<a:midPointStop
   offset="0.5"
   style="stop-color:#9B9B9B" />
	<a:midPointStop
   offset="1"
   style="stop-color:#5B5C60" />
</linearGradient>

<linearGradient
   id="SVGID_4_"
   gradientUnits="userSpaceOnUse"
   x1="336.71439"
   y1="91.424103"
   x2="336.71439"
   y2="23.424101"
   gradientTransform="translate(-117.079,-5.928)">
	<stop
   offset="0"
   style="stop-color:#9B9B9B"
   id="stop64" />
	<stop
   offset="1"
   style="stop-color:#5B5C60"
   id="stop66" />
	<a:midPointStop
   offset="0"
   style="stop-color:#9B9B9B" />
	<a:midPointStop
   offset="0.5"
   style="stop-color:#9B9B9B" />
	<a:midPointStop
   offset="1"
   style="stop-color:#5B5C60" />
</linearGradient>

<linearGradient
   id="SVGID_5_"
   gradientUnits="userSpaceOnUse"
   x1="380.40381"
   y1="91.424103"
   x2="380.40381"
   y2="23.424101"
   gradientTransform="translate(-117.079,-5.928)">
	<stop
   offset="0"
   style="stop-color:#9B9B9B"
   id="stop71" />
	<stop
   offset="1"
   style="stop-color:#5B5C60"
   id="stop73" />
	<a:midPointStop
   offset="0"
   style="stop-color:#9B9B9B" />
	<a:midPointStop
   offset="0.5"
   style="stop-color:#9B9B9B" />
	<a:midPointStop
   offset="1"
   style="stop-color:#5B5C60" />
</linearGradient>

<linearGradient
   id="SVGID_6_"
   gradientUnits="userSpaceOnUse"
   x1="201.0303"
   y1="132.37131"
   x2="201.0303"
   y2="61.621899"
   gradientTransform="translate(-117.079,-5.928)">
	<stop
   offset="0"
   style="stop-color:#F9DA55"
   id="stop78" />
	<stop
   offset="1"
   style="stop-color:#E04305"
   id="stop80" />
	<a:midPointStop
   offset="0"
   style="stop-color:#F9DA55" />
	<a:midPointStop
   offset="0.5"
   style="stop-color:#F9DA55" />
	<a:midPointStop
   offset="1"
   style="stop-color:#E04305" />
</linearGradient>

<linearGradient
   id="SVGID_7_"
   gradientUnits="userSpaceOnUse"
   x1="246.4106"
   y1="132.37131"
   x2="246.4106"
   y2="61.621899"
   gradientTransform="translate(-117.079,-5.928)">
	<stop
   offset="0"
   style="stop-color:#F9DA55"
   id="stop85" />
	<stop
   offset="1"
   style="stop-color:#E04305"
   id="stop87" />
	<a:midPointStop
   offset="0"
   style="stop-color:#F9DA55" />
	<a:midPointStop
   offset="0.5"
   style="stop-color:#F9DA55" />
	<a:midPointStop
   offset="1"
   style="stop-color:#E04305" />
</linearGradient>

<linearGradient
   id="SVGID_8_"
   gradientUnits="userSpaceOnUse"
   x1="291.38531"
   y1="132.37131"
   x2="291.38531"
   y2="61.621899"
   gradientTransform="translate(-117.079,-5.928)">
	<stop
   offset="0"
   style="stop-color:#F9DA55"
   id="stop92" />
	<stop
   offset="1"
   style="stop-color:#E04305"
   id="stop94" />
	<a:midPointStop
   offset="0"
   style="stop-color:#F9DA55" />
	<a:midPointStop
   offset="0.5"
   style="stop-color:#F9DA55" />
	<a:midPointStop
   offset="1"
   style="stop-color:#E04305" />
</linearGradient><path
   id="path1888"
   style="fill:#000000"
   d="m 144.51988,12.614953 c -10.50456,0 -21.00912,0 -31.51368,0 -1.74597,2.290798 -3.49496,4.579294 -5.24218,6.869141 -3.79678,-2.290959 -7.595,-4.579522 -11.392582,-6.869141 -13.977865,0 -27.95573,0 -41.933594,0 2.159988,2.703129 4.321253,5.405237 6.482422,8.107422 0,32.404948 0,64.809896 0,97.214845 -2.040778,4.78992 -4.03377,9.59952 -5.953125,14.43945 7.95603,-6.19128 15.694978,-12.65387 23.534067,-18.99126 4.76463,-3.87798 9.528999,-7.75628 14.294058,-11.63374 -3.241537,0 -6.483073,0 -9.72461,0 0,-5.992837 0,-11.985675 0,-17.978514 7.496094,-4.172526 14.992188,-8.345052 22.488284,-12.517578 0,11.164714 0,22.329427 0,33.494142 7.30805,6.77593 14.61665,13.55126 21.92383,20.32812 7.84193,-6.63632 15.68076,-13.2763 23.52148,-19.91406 -0.0177,4.45738 0.0354,8.92431 -0.0265,13.37572 -1.33931,4.8709 -2.67851,9.74183 -4.01841,14.61256 9.84013,-7.26956 19.67825,-14.54185 29.51758,-21.8125 -1.10682,-1.62236 -2.21355,-3.24478 -3.32032,-4.86718 0,-11.279302 0,-22.558599 0,-33.837896 1.0931,0.57487 2.1862,1.14974 3.2793,1.72461 0,12.28125 0,24.5625 0,36.843746 8.27389,-6.05928 16.54638,-12.120467 24.82031,-18.179684 -1.02569,-0.879314 -2.05108,-1.758985 -3.07812,-2.636718 6.2e-4,-8.864584 0.001,-17.729167 0.002,-26.59375 -3.48902,-1.860508 -6.97785,-3.721377 -10.4668,-5.582032 3.4889,-1.99356 6.97817,-3.986453 10.4668,-5.980468 0,-5.552084 0,-11.104167 0,-16.65625 3.30143,-10e-7 6.60287,0 9.9043,0 0,27.606119 0,55.212239 0,82.818362 -1.17736,5.29876 -2.3556,10.59733 -3.53125,15.89648 9.66526,-6.95612 19.33201,-13.91018 28.99804,-20.86523 -1.14965,-1.7251 -2.30066,-3.4493 -3.45117,-5.17383 0,-24.225262 0,-48.450522 0,-72.675782 3.66341,-10e-7 7.32683,0 10.99024,0 0,8.216796 0,16.433593 0,24.65039 6.22486,3.517632 12.45058,7.033744 18.67578,10.550781 -6.22591,0 -12.45182,0 -18.67774,0 0,15.720052 0,31.440101 0,47.160161 -2.03246,4.79447 -4.0384,9.59999 -6.00976,14.41992 11.01985,-8.6545 21.90723,-17.47602 32.86648,-26.20691 6.77406,-5.419 13.55031,-10.835247 20.32297,-16.255983 0,-8.695964 0,-17.391927 0,-26.087891 -8.433,-4.554571 -16.86587,-9.109393 -25.29883,-13.664062 0,-4.854818 0,-9.709636 0,-14.564453 0.68815,0 1.37631,0 2.06446,0 0,1.08138 0,2.16276 0,3.24414 7.74414,0 15.48828,0 23.23242,0 0,-6.379557 0,-12.759114 0,-19.138672 -3.90773,-2.357989 -7.81779,-4.712102 -11.72656,-7.068359 -28.99624,-0.0013 -57.97816,0.0033 -86.97461,0.002 0.96371,1.204943 1.92587,2.411129 2.89062,3.615234 -2.00066,-1.205705 -4.00121,-2.411612 -6.00195,-3.617187 -13.97628,0.0013 -27.96518,-0.0026 -41.93359,0.002 z m -50.095708,7 c 2.222656,1.340495 4.445312,2.68099 6.667968,4.021485 0,11.777343 0,23.554687 0,35.332031 -11.05664,6.330078 -22.113281,12.660156 -33.169921,18.990234 0,-19.449219 0,-38.898437 0,-58.347656 8.833984,0.0013 17.667968,0.0026 26.501953,0.0039 z m 180.169918,0 c 2.22266,1.340495 4.44532,2.68099 6.66797,4.021485 0,2.727864 0,5.455729 0,8.183593 -3.07747,0 -6.15495,0 -9.23242,0 -4.8e-4,-1.082032 8.8e-4,-2.164062 0.002,-3.246093 -5.35481,-10e-7 -10.70963,0 -16.06445,0 0,8.580729 0,17.161458 0,25.742187 4.59911,2.484092 9.19789,4.968792 13.79688,7.453125 -2.21355,0.953776 -4.42709,1.907552 -6.64063,2.861328 -5.01172,-2.83138 -10.02344,-5.66276 -15.03516,-8.49414 6.6e-4,-12.175131 0.001,-24.350261 0.002,-36.525391 8.83463,0.0013 17.66927,0.0026 26.5039,0.0039 z M 142.08042,19.613 c 1.35221,1.566406 2.70443,3.132812 4.05664,4.699219 0,17.589844 0,35.179687 0,52.769531 -3.07682,-1.690104 -6.15364,-3.380208 -9.23047,-5.070312 0,-14.929688 0,-29.859375 0,-44.789063 -5.35481,0 -10.70963,0 -16.06445,0 0,11.93099 0,23.861979 0,35.792969 -2.76172,-1.50586 -5.52344,-3.011719 -8.28516,-4.517578 0,-11.253256 0,-22.506511 0,-33.759766 1.30469,-1.708333 2.60938,-3.416667 3.91407,-5.125 8.53645,0 17.07291,0 25.60937,0 z m 42.42578,0 c 2.22331,1.340495 4.44662,2.68099 6.66992,4.021484 0,8.178386 1e-5,16.356771 0,24.535157 -5.98046,3.417322 -11.96098,6.83456 -17.9414,10.251953 3.97347,2.120709 7.94788,4.239648 11.92187,6.359375 -2.04752,1.009114 -4.09505,2.018229 -6.14257,3.027343 -4.28646,-2.255858 -8.57302,-4.511538 -12.85938,-6.767578 0,4.334636 0,8.669271 0,13.003907 -2.71615,1.284505 -5.43229,2.56901 -8.14844,3.853515 0,-19.428385 0,-38.856771 0,-58.285156 8.83334,0 17.66667,0 26.5,0 z m 51.71485,0.002 c 0,2.986979 0,5.973958 0,8.960938 -4.37305,0 -8.7461,0 -13.11914,0 0,12.996093 0,25.992187 0,38.988281 -2.67188,-1.675781 -5.34375,-3.351563 -8.01563,-5.027344 0,-11.320312 0,-22.640625 0,-33.960937 -4.01302,0 -8.02604,0 -12.03906,0 0,-2.98698 0,-5.973959 0,-8.960938 11.05794,0 22.11588,0 33.17383,0 z M 75.799172,30.575891 c 0,13.474609 0,26.949218 0,40.423828 5.933239,-3.579548 11.880503,-7.135656 17.822266,-10.701172 -10e-7,-10.574219 0,-21.148438 0,-31.722656 -5.940756,0 -11.881511,0 -17.822266,0 0,0.666666 0,1.333333 0,2 z m 90.083988,0 c 0,8.511718 0,17.023437 0,25.535156 5.94253,-3.561496 11.8812,-7.12941 17.82226,-10.693359 0,-5.613933 0,-11.227865 0,-16.841797 -5.94075,0 -11.88151,0 -17.82226,0 0,0.666666 0,1.333333 0,2 z m -35.97852,3.646484 c 0,19.200521 0,38.401042 0,57.601563 -0.6875,-0.604818 -1.375,-1.209636 -2.0625,-1.814454 0,-18.595703 0,-37.191406 0,-55.787109 0.6875,0 1.375,0 2.0625,0 z m -43.285156,1.353516 c 0,6.91927 0,13.838541 0,20.757812 -1.273437,0.764323 -2.546875,1.528646 -3.820312,2.292969 0,-7.684245 0,-15.36849 0,-23.052734 1.273437,6.51e-4 2.546875,0.0013 3.820312,0.002 z m 90.083986,-0.002 c 0,1.960286 0,3.920572 0,5.880859 -1.27344,0.764323 -2.54688,1.528646 -3.82031,2.292969 0,-2.72461 0,-5.449219 0,-8.173828 1.27343,0 2.54687,0 3.82031,0 z m 88.32617,38.173828 c -0.0584,0.57985 0.11408,1.276927 -0.0807,1.787532 -0.66059,0.482932 -1.32118,0.965864 -1.98177,1.448796 0,-1.466797 0,-2.933594 0,-4.400391 0.6875,0.388021 1.375,0.776042 2.0625,1.164063 z" /><path
   id="path83"
   style="fill:#ffffff"
   d="M 100.08008 5 L 104.4043 10.40625 L 104.40625 109.0957 L 101.82227 118.49414 L 125.14062 101.26172 L 122.55859 97.476562 L 122.55859 59.708984 L 129.83789 63.539062 L 129.83789 97.646484 L 149.44141 83.287109 L 147.58008 81.693359 L 147.58203 55.378906 L 134.98047 48.65625 L 147.58203 41.457031 L 147.58203 11.199219 L 137.29883 5 L 100.08008 5 z M 190.16797 5 L 190.16992 5.0019531 L 145.12695 5.0019531 L 149.44922 10.40625 L 149.44922 23.960938 L 161.48633 23.960938 L 161.48633 109.00195 L 159.04492 119.98828 L 182.21875 103.31445 L 179.50195 99.242188 L 179.50195 23.960938 L 192.62305 23.960938 L 192.62305 10.408203 L 193.55859 9.2402344 L 194.49219 10.408203 L 194.49219 49.443359 L 218.43164 62.966797 L 218.43164 66.878906 L 212.36914 71.310547 L 212.36914 63.162109 L 194.49023 63.162109 L 194.49023 108.72852 L 191.23242 116.45898 L 237.66992 79.318359 L 237.66992 55.384766 L 212.37109 41.720703 L 212.37109 23.962891 L 218.43555 23.962891 L 218.43555 27.207031 L 237.66797 27.207031 L 237.66797 11.197266 L 227.38477 5 L 226.96875 5 L 190.16797 5 z M 10 5.0019531 L 14.322266 10.40625 L 14.322266 108.73047 L 11.023438 116.55859 L 15.689453 112.76367 L 38.572266 94.138672 L 32.472656 94.138672 L 32.472656 72.984375 L 57.496094 59.054688 L 57.496094 11.199219 L 47.216797 5.0019531 L 10 5.0019531 z M 65.398438 5.0019531 L 58.960938 13.433594 L 58.960938 94.263672 L 78.945312 112.79297 L 102.53906 92.816406 L 102.53906 12.839844 L 95.771484 5.0019531 L 95.087891 5.0019531 L 65.398438 5.0019531 z M 16.238281 7.9980469 L 46.382812 8.0019531 L 54.494141 12.892578 L 54.494141 50.515625 L 17.324219 71.796875 L 17.324219 9.3554688 L 16.238281 7.9980469 z M 196.4043 7.9980469 L 226.55273 8.0019531 L 234.66406 12.892578 L 234.66406 24.207031 L 221.42969 24.207031 L 221.43164 20.960938 L 209.36914 20.960938 L 209.36914 43.509766 L 225.74805 52.357422 L 214.4043 57.248047 L 197.49023 47.691406 L 197.49219 9.3574219 L 196.4043 7.9980469 z M 66.882812 8 L 94.398438 8 L 99.539062 13.955078 L 99.539062 70.849609 L 86.308594 63.582031 L 86.308594 19.609375 L 74.244141 19.609375 L 74.244141 21.109375 L 74.244141 56.771484 L 61.958984 50.072266 L 61.958984 14.447266 L 66.882812 8 z M 106.32227 8 L 136.46484 8 L 144.57812 12.892578 L 144.57812 39.716797 L 128.77344 48.748047 L 140.94336 55.238281 L 130.38867 60.439453 L 119.55664 54.740234 L 119.55664 65.699219 L 107.4082 71.445312 L 107.4082 9.3554688 L 106.32227 8 z M 151.36328 8.0019531 L 190.70703 8.0019531 L 189.62305 9.3554688 L 189.62305 20.962891 L 176.50391 20.962891 L 176.50391 61.566406 L 164.48828 54.03125 L 164.48828 20.962891 L 162.98828 20.962891 L 152.44922 20.962891 L 152.44922 9.3554688 L 151.36328 8.0019531 z M 29.201172 20.962891 L 29.201172 57.847656 L 31.472656 56.480469 L 43.023438 49.552734 L 43.023438 20.962891 L 29.201172 20.962891 z M 119.28516 20.962891 L 119.28516 42.966797 L 121.55859 41.603516 L 133.10742 34.671875 L 133.10742 20.962891 L 119.28516 20.962891 z M 77.244141 22.609375 L 83.306641 22.609375 L 83.306641 86.638672 L 77.244141 81.300781 L 77.244141 22.609375 z M 32.201172 23.960938 L 40.021484 23.962891 L 40.021484 47.853516 L 32.201172 52.544922 L 32.201172 23.960938 z M 122.28516 23.960938 L 130.10547 23.960938 L 130.10547 32.974609 L 122.28516 37.667969 L 122.28516 23.960938 z "
   transform="translate(48.598,9.613)" />

<linearGradient
   id="SVGID_9_"
   gradientUnits="userSpaceOnUse"
   x1="336.42719"
   y1="132.37131"
   x2="336.42719"
   y2="61.621899"
   gradientTransform="translate(-117.079,-5.928)">
	<stop
   offset="0"
   style="stop-color:#F9DA55"
   id="stop99" />
	<stop
   offset="1"
   style="stop-color:#E04305"
   id="stop101" />
	<a:midPointStop
   offset="0"
   style="stop-color:#F9DA55" />
	<a:midPointStop
   offset="0.5"
   style="stop-color:#F9DA55" />
	<a:midPointStop
   offset="1"
   style="stop-color:#E04305" />
</linearGradient>

<linearGradient
   id="SVGID_10_"
   gradientUnits="userSpaceOnUse"
   x1="381.1987"
   y1="132.37131"
   x2="381.1987"
   y2="61.621899"
   gradientTransform="translate(-117.079,-5.928)">
	<stop
   offset="0"
   style="stop-color:#F9DA55"
   id="stop106" />
	<stop
   offset="1"
   style="stop-color:#E04305"
   id="stop108" />
	<a:midPointStop
   offset="0"
   style="stop-color:#F9DA55" />
	<a:midPointStop
   offset="0.5"
   style="stop-color:#F9DA55" />
	<a:midPointStop
   offset="1"
   style="stop-color:#E04305" />
</linearGradient>













</svg>
