<?xml version="1.0" encoding="UTF-8" standalone="no"?>
<!-- Generator: Adobe Illustrator 13.0.0, SVG Export Plug-In . SVG Version: 6.00 Build 14948)  -->

<svg
   version="1.2"
   id="Layer_3"
   x="0px"
   y="0px"
   width="608.24414"
   height="230.95523"
   viewBox="0 0 608.24411 230.95522"
   xml:space="preserve"
   sodipodi:docname="controller.svg"
   inkscape:version="1.1.2 (0a00cf5339, 2022-02-04)"
   xmlns:inkscape="http://www.inkscape.org/namespaces/inkscape"
   xmlns:sodipodi="http://sodipodi.sourceforge.net/DTD/sodipodi-0.dtd"
   xmlns="http://www.w3.org/2000/svg"
   xmlns:svg="http://www.w3.org/2000/svg"
   xmlns:rdf="http://www.w3.org/1999/02/22-rdf-syntax-ns#"
   xmlns:cc="http://creativecommons.org/ns#"
   xmlns:dc="http://purl.org/dc/elements/1.1/"
   xmlns:ns="&amp;ns_sfw;"><defs
   id="defs46">
	

	

	

	
</defs><sodipodi:namedview
   id="namedview44"
   pagecolor="#ffffff"
   bordercolor="#666666"
   borderopacity="1.0"
   inkscape:pageshadow="2"
   inkscape:pageopacity="0.0"
   inkscape:pagecheckerboard="0"
   showgrid="false"
   inkscape:zoom="1.451521"
   inkscape:cx="330.34313"
   inkscape:cy="106.44007"
   inkscape:window-width="1920"
   inkscape:window-height="996"
   inkscape:window-x="1920"
   inkscape:window-y="0"
   inkscape:window-maximized="1"
   inkscape:current-layer="Layer_3"
   fit-margin-top="0"
   fit-margin-left="0"
   fit-margin-right="0"
   fit-margin-bottom="0" />
<metadata
   id="metadata55">
	<rdf:RDF>
		<cc:Work
   rdf:about="">
			<dc:format>image/svg+xml</dc:format>
			<dc:type
   rdf:resource="http://purl.org/dc/dcmitype/StillImage" />
			
		</cc:Work>
	</rdf:RDF>
	<ns:sfw>
		<ns:slices />
		<ns:sliceSourceBounds
   x="668.378"
   y="444.268"
   width="596.243"
   height="218.469"
   bottomLeftOrigin="true" />
	</ns:sfw>
</metadata>
<path
   id="path917"
   d="m 405.74414,0.00405608 c -2.07282,-0.0936 -3.83076,1.44597502 -4.64453,3.25000002 -0.75481,1.137283 -1.4533,2.396112 -2.25391,3.451172 -1.29379,-0.03242 -2.59116,-0.0233 -3.88281,0.002 -1.74517,0.365972 -3.56367,0.261213 -5.3418,0.419922 -81.04162,4.4263199 -162.0829,8.8876009 -243.125,13.3261719 -43.43407,2.374693 -86.868624,4.775673 -130.30273,7.132812 -2.003122,-0.0952 -3.87388,1.087043 -4.939454,2.734375 C 7.4960735,34.701126 3.779948,39.116756 0,43.478666 V 187.25015 c 4.5174875,5.21517 8.9376918,10.50895 13.472656,15.70899 31.500558,1.79089 63.006565,3.46705 94.509764,5.21093 96.37601,5.28487 192.7529,10.57061 289.1289,15.85547 0.58784,0.10416 1.19263,0.10788 1.78321,0.0254 1.4824,2.29229 2.9395,4.60075 4.40429,6.9043 33.7611,-3.62614 67.51823,-7.28907 101.27735,-10.93359 0.47467,-1.20959 0.94642,-2.42053 1.42383,-3.62891 0.55188,0.3245 1.20108,-0.19225 1.79492,-0.23047 3.33647,-0.84403 6.69248,-1.61676 9.99804,-2.57812 2.98226,-3.78335 6.30397,-7.28457 9.33399,-11.02539 1.04224,-1.56222 1.30599,-3.3923 1.97266,-5.08789 1.376,-4.22882 2.88371,-8.42635 4.15234,-12.68165 v -42.66211 c 24.9974,-1.1021 49.99476,-2.20509 74.99219,-3.30664 V 99.826328 c -24.99742,-1.10099 -49.99479,-2.20321 -74.99219,-3.30468 V 45.636869 c -1.96177,-5.702184 -3.84018,-11.432009 -5.74219,-17.154297 -3.05499,-3.443246 -6.01647,-6.840683 -8.95312,-10.384766 -1.6172,-1.684427 -4.08776,-1.754676 -6.19532,-2.388672 -2.15326,-0.539076 -4.30846,-1.074975 -6.46093,-1.617187 C 505.45548,12.965741 505.00991,11.8398 504.5664,10.71304 471.99102,7.1896281 439.41578,3.6648621 406.83984,0.14663408 c -0.35783,-0.0865 -0.7274,-0.14138 -1.0957,-0.142578 z M 411.1875,14.679837 c 0.32143,0.05252 0.65991,0.142302 0.94726,0.123047 l 82.58399,8.939453 c 0.38164,0.614645 -0.66078,0.907962 -0.96094,1.369141 -0.51455,0.393867 -0.95582,1.003752 -1.51367,1.271484 L 418.14257,20.87515 c -2.59961,-2.033203 -5.19921,-4.066397 -7.79882,-6.09961 0.21858,-0.164101 0.52231,-0.148222 0.84375,-0.0957 z m -15.82227,6.154297 c 5.24089,4.089193 10.48177,8.178386 15.72266,12.267578 1.3888,1.374693 3.41926,1.652929 5.28515,1.673828 26.92621,1.995453 53.85302,3.99178 80.7793,5.986329 4.31781,-3.635815 8.42286,-7.510663 12.62305,-11.279297 0.93617,0.873372 1.72202,1.98879 2.61328,2.943359 0.94369,1.162958 2.05202,2.236792 2.83203,3.505859 l 2.60547,7.826172 C 478.56195,42.523671 439.30431,41.264555 400.03906,40.072416 l -383.13281,5.201171 3.3125,-3.888671 z M 264.9082,57.486478 v 31.83008 83.923832 C 181.6569,172.20718 98.405599,171.17398 15.154297,170.14078 V 60.609528 c 5.554936,-0.12415 11.116201,-0.14226 16.673828,-0.22852 z m 33.83594,0.2793 h 74.05468 c -1.9401,1.86002 -3.8802,3.72 -5.82031,5.58008 -5.25708,-0.0319 -10.52564,0.0677 -15.77539,-0.0567 -10.30324,-3.14388 -21.54575,-3.12287 -31.83789,0.0567 -4.85937,0 -9.71875,-3e-5 -14.57812,0 -2.01433,-1.86003 -4.02865,-3.72006 -6.04297,-5.58008 z m 36.66211,17.17578 c 0.74892,0.001 1.54462,0.0164 2.1582,0.0527 7.4,0.38507 14.6582,2.9015 20.76953,7.08008 0.36342,0.24366 1.01188,0.70746 1.46875,1.05078 9.25819,6.88979 15.29048,17.889392 16.14063,29.396492 1.03594,12.43757 -4.12246,25.18891 -13.47071,33.44726 -7.66394,6.9101 -18.04643,10.71275 -28.36523,10.31836 -1.20219,-0.0346 -2.27994,-0.11388 -3.51953,-0.25586 -5.5392,-0.64682 -10.85726,-2.41048 -15.72461,-5.25781 -0.36595,-0.22902 -0.87032,-0.51738 -1.32227,-0.81445 -0.94893,-0.60521 -2.14112,-1.43666 -3.13476,-2.21485 -7.91521,-6.12335 -13.4582,-15.24941 -15.10352,-25.13281 -1.8247,-10.25103 0.48103,-21.17439 6.37891,-29.765622 5.94255,-8.83932 15.48037,-15.17113 25.95117,-17.15235 2.55911,-0.5035 5.16593,-0.74215 7.77344,-0.75195 z m -30.61719,92.441402 h 12.89453 c 11.3608,3.90712 24.01937,3.9057 35.38086,0.002 h 13.91406 c 1.94011,1.85937 3.88021,3.71875 5.82031,5.57812 h -74.05273 c 2.01432,-1.86002 4.02865,-3.72005 6.04297,-5.58008 z M 17.695313,185.47867 c 31.5877,0.46059 63.177253,0.86121 94.765617,1.29883 96.15884,1.30219 192.31779,2.61324 288.47657,3.91015 l 116.88867,-3.71094 c -0.93092,2.72217 -1.77753,5.4931 -2.76563,8.1836 -1.72897,2.02025 -3.45852,4.04029 -5.1875,6.06055 -0.50429,-0.171 -0.8976,-0.78219 -1.36132,-1.11524 -3.42436,-3.084 -6.79244,-6.23983 -10.30079,-9.22461 -1.51887,-1.05118 -3.4299,-0.77279 -5.15234,-0.5957 -26.30659,1.92261 -52.61247,3.88121 -78.91602,5.85156 -2.15495,0.29477 -3.59453,2.06709 -5.29101,3.23633 -4.49589,3.50753 -8.99239,7.01591 -13.48828,10.52344 C 270.3151,203.04572 145.26692,196.19481 20.21875,189.3439 l -3.289062,-3.86328 c 0.255208,-6.4e-4 0.510416,-9.5e-4 0.765625,-0.002 z M 492.375,204.36148 c 0.83203,0.75456 1.66406,1.50911 2.49609,2.26367 -0.16703,0.68265 -1.10698,0.33364 -1.64258,0.52344 l -82.77929,8.96289 c -0.0712,-0.48373 0.8912,-0.79332 1.23632,-1.20703 l 6.45899,-5.05274 c 24.74349,-1.83007 49.48698,-3.66015 74.23047,-5.49023 z" /><path
   id="polyline3"
   d="m 406.37695,6.1310091 -0.31445,0.53125 -5.31836,8.2246099 -2.52539,-1.976563 -0.3125,-0.220703 h -0.37305 v 0.002 l -380.7832,20.875 -0.40625,0.03125 -0.28125,0.314453 -9.8125001,11.529297 -0.25,0.28125 v 0.375 49.593752 39.345705 49.59375 0.375 l 0.25,0.28125 9.8125001,11.5293 0.28125,0.31445 0.40625,0.0312 380.7832,20.875 0.375,0.0293 0.3125,-0.25 2.52148,-1.97266 5.32032,8.25586 0.31445,0.5 0.625,-0.0625 92.71875,-10.03125 0.59375,-0.0625 0.21875,-0.5625 3.06055,-7.45117 3.56445,3.23047 0.4043,0.375 0.5,-0.125 5.90625,-1.46875 0.31445,-0.0937 0.1875,-0.25 7.625,-8.8125 0.125,-0.15625 0.0625,-0.18946 4.90625,-14.71874 0.0625,-0.15626 v -0.1875 -4.15624 -1 h -0.53125 v -0.59376 h 0.53125 v -1 -40.74218 l 7.10742,-0.3125 v -6.63086 h 4.50977 v 6.43164 l 1.04297,-0.0469 7.91992,-0.35156 v -6.0332 h 4.50781 v 5.83789 l 1.04297,-0.0469 7.92187,-0.35156 v -5.43945 h 4.50391 v 5.24414 l 1.04492,-0.0469 7.92383,-0.34961 v -4.84765 h 4.50391 v 4.65039 l 1.04492,-0.0469 7.92187,-0.35351 v -4.25 h 4.50586 v 4.05469 l 9.49024,-0.41797 v -27.50977 l -9.49024,-0.41797 v 1.04688 3.02539 h -4.50586 v -4.26953 l -8.96679,-0.39649 v 4.66602 h -4.50391 v -4.86328 l -8.96875,-0.39453 v 5.25781 h -4.50391 v -5.45899 l -8.96484,-0.39648 v 5.85547 h -4.50781 V 103.172 l -8.96289,-0.39649 v 6.44727 h -4.50977 v -6.64844 l -7.10742,-0.31055 v -48.666017 -1 h -0.53125 v -0.59375 h 0.53125 v -1 -4.15625 -0.15625 l -0.0625,-0.154297 -4.90625,-14.75 -0.0625,-0.189453 -0.125,-0.125 -7.625,-8.84375 -0.1875,-0.25 -0.31445,-0.09375 -5.90625,-1.46875 -0.5,-0.125 -0.4043,0.375 -3.56641,3.232422 -3.05859,-7.449219 -0.2207,-0.5625 -0.59375,-0.06445 L 407,6.1915261 Z m 1.03125,2.125 91.5,9.9062499 3.11523,7.558594 -7.55468,6.845703 -78.59375,-5.84375 -13.53907,-10.591797 z m -10.125,6.4667969 17.625,13.75 0.25,0.189453 0.2793,0.0293 79.31445,5.875 0.40625,0.03125 0.34375,-0.28125 12.625,-11.4375 5.09375,1.3125 7.21875,8.40625 4.8125,14.46875 v 2.923828 L 400.75,46.066556 h -0.0312 l -386.59375,5.25 H 14.0313 13.9063 L 7.9999999,52.800931 V 46.472806 L 17.3125,35.537259 Z m 3.40234,33.34375 h 0.0645 l 123.9707,3.908203 v 1.625 0.999999 h 0.53125 v 47.576172 l -0.13281,-0.006 v 34.3086 l 0.13281,-0.006 v 39.6582 h -0.53125 v 1 1.625 l -123.9707,3.9375 h -0.0645 L 272.90625,180.95718 V 180.31656 141.41031 89.316558 50.412259 49.802884 Z m -120.24023,1.701172 -7.46094,7.45703 v 32.5332 h 9.91211 v 1.22071 h -9.9082 v 4.39648 h 9.9082 v 1.22266 h -9.9082 v 4.578122 h 9.9082 v 1.22071 h -9.9082 v 4.58007 h 9.9082 v 1.21875 l -9.9082,0.002 v 4.20898 h 9.91015 v 1.22266 h -9.91015 v 4.39258 h 9.91015 v 1.22461 h -9.91015 v 4.85351 h 9.9082 v 1.22266 h -9.9082 v 4.76172 h 9.91015 v 1.2207 l -9.91015,0.002 v 4.11914 h 9.91015 v 1.21875 l -9.91015,0.002 v 4.2832 l -0.004,32.57226 7.46094,7.4629 v 0.002 h 110.19922 l 8.32031,-8.32031 v -30.97852 -5.02148 h -10.95703 v -1.22071 h 10.95508 v -4.11914 h -10.95508 v -1.22461 l 10.95508,0.002 v -4.76172 h -10.95508 v -1.22266 h 10.95508 v -4.85351 h -10.95508 v -1.22461 h 10.95508 v -4.39258 h -10.95508 v -1.22266 h 10.95508 v -4.20898 h -10.95508 v -1.22071 h 10.95508 v -4.58007 h -10.95508 v -1.22071 h 10.95508 v -4.578122 h -10.95508 v -1.22266 h 10.95508 v -4.39648 h -10.95508 v -1.22071 h 10.95703 v -31.67382 l -8.32031,-8.31641 z m 120.38672,0.21875 V 178.715 l 1.02539,-0.0234 7.41797,-0.1836 V 50.220853 Z m 9.02148,0.253906 V 178.49429 l 1.02735,-0.0254 6.95507,-0.17383 V 50.461087 Z m 8.5625,0.238282 V 178.2814 l 1.02539,-0.0254 6.95899,-0.17578 V 50.701322 Z m 8.5625,0.240234 v 127.3457 l 1.02344,-0.0234 6.95898,-0.17383 V 50.939603 Z m 8.5625,0.238281 V 177.85367 l 1.02344,-0.0234 6.96094,-0.17578 V 51.18179 Z m 8.56055,0.242188 V 177.63687 l 1.02734,-0.0234 6.95703,-0.17383 V 51.422025 Z M 270.9082,51.410306 v 37.906252 52.093752 37.90625 l -256.718747,-3.1875 h -0.0625 l -4.9726563,-1.46485 v -39.2207 -40.156252 -39.22461 l 4.9726563,-1.46484 h 0.0625 z m 181.75586,0.0293 V 177.42593 l 1.02539,-0.0254 6.95898,-0.17383 V 51.662259 Z m 8.5625,0.240234 v 125.53125 l 1.02344,-0.0254 6.96093,-0.17188 V 51.90054 Z m -177.82422,0.08593 h 104.32812 l -18.33984,17.580083 h -18.91211 c -4.7565,-1.55247 -9.82857,-2.4043 -15.10156,-2.4043 -5.27338,0 -10.34683,0.85179 -15.10352,2.4043 h -17.83007 z m 186.38477,0.152344 V 177.00015 l 1.02343,-0.0254 6.95899,-0.17383 V 52.140775 Z m -66.95313,0.123047 4.43945,0.125 V 176.55875 l -4.43945,0.10937 z m -121.94726,0.111328 19.70507,18.220704 -10.88672,10.88867 -14.45703,-23.47266 z m 197.46289,0.0059 V 176.78531 l 1.02539,-0.0254 6.95898,-0.17188 V 52.381009 Z m -88.11719,0.02344 6.42187,6.421878 -15.66211,21.52929 -9.76172,-9.76367 z m 21.62304,0.113282 3.98243,0.111328 V 176.3439 l -3.98243,0.0996 z m 75.05665,0.103515 V 176.57046 l 1.02343,-0.0234 6.96094,-0.17188 V 52.621244 Z m -66.49415,0.136719 3.98243,0.111328 V 176.12906 l -3.98243,0.0996 z m 75.05665,0.103516 V 176.35953 l 1.02343,-0.0254 6.95899,-0.17383 V 52.859525 Z m -66.4961,0.136718 3.98242,0.111329 V 175.91812 l -3.98242,0.0977 z m 75.0586,0.101563 V 176.14468 l 1.02343,-0.0234 6.95703,-0.17383 V 53.099759 Z m -66.4961,0.136719 3.98242,0.113281 V 175.70132 l -3.98242,0.10157 z m 75.05469,0.103515 v 1.029297 121.783202 l 8.44726,-0.20898 V 53.351712 Z m -66.49219,0.138672 3.98047,0.111328 V 175.49039 l -3.98047,0.0977 z m 8.5625,0.238281 3.98242,0.111329 V 175.27554 l -3.98242,0.0996 z m 8.56055,0.244141 3.98437,0.107422 V 175.06265 l -3.98437,0.10156 z m 8.5625,0.234375 3.98047,0.113281 V 174.85171 l -3.98047,0.0996 z m 8.55859,0.240234 3.98438,0.113278 V 174.63496 l -3.98438,0.0996 z m 8.56446,0.242188 3.98437,0.11133 V 174.42207 l -3.98437,0.0996 z m 8.5625,0.24023 3.98242,0.11133 V 174.20918 l -3.98242,0.0996 z m 8.56054,0.23829 3.98242,0.11328 V 173.99629 l -3.98242,0.0976 z m 8.5625,0.24023 4.44336,0.125 V 173.77363 l -4.44531,0.10742 z m -239.61328,6.00781 13.5293,21.9668 V 102.4416 c -1.1799,4.19673 -1.82617,8.61686 -1.82617,13.18945 0,4.57206 0.64646,8.99114 1.82617,13.1875 v 18.76172 l -13.52735,21.96484 v -28.61718 l -0.002,-2.28125 h 9.91211 v -5.22461 h -9.91211 v -0.11524 h 9.91211 v -5.22265 h -9.91211 v -0.76172 h 9.91211 v -5.22266 h -9.91211 v -0.85351 h 9.91211 v -5.22461 h -9.91211 v -0.39258 h 9.91211 v -5.22266 h -9.91211 v -0.20898 h 9.91211 v -5.22071 h -9.91211 v -0.58007 h 9.91211 v -5.220708 h -9.91211 v -0.58007 h 9.91211 v -5.22071 h -9.91211 v -0.39648 h 9.91211 v -5.22071 h -9.91211 z m 121.97852,0.41992 v 26.1543 h -10.95508 v 5.22266 h 10.95703 v 0.39453 l -10.95703,0.002 v 5.22071 h 10.95508 v 0.57617 l -10.95508,0.002 v 5.222658 h 10.95508 v 0.57812 h -10.95508 v 5.22266 h 10.95508 v 0.20703 h -10.95508 v 5.22265 h 10.95703 v 0.39454 h -10.95703 v 5.22461 h 10.95703 v 0.85156 h -10.95703 v 5.22265 h 10.95703 v 0.76172 h -10.95703 v 5.22266 h 10.95508 v 0.11719 h -10.95508 v 1.00195 4.2207 h 10.95508 v 3.02149 27.46093 l -14.84571,-20.4082 v -19.4668 c 1.25957,-4.32468 1.94727,-8.8913 1.94727,-13.62109 -1.8e-4,-4.73093 -0.68909,-9.29946 -1.94922,-13.625 V 82.012012 Z m -61.58594,7.33985 c 5.09892,0 9.99965,0.82905 14.5918,2.33789 l -0.004,0.0176 c 14.51,4.773 25.87841,16.47154 30.19141,31.185538 l 0.0195,-0.002 c 1.22148,4.17188 1.88867,8.58193 1.88867,13.15039 0,4.57674 -0.66868,8.99324 -1.89453,13.17188 l -0.0137,-0.002 c -2.59813,8.86 -7.75129,16.63195 -14.60938,22.45508 -1.37162,1.16463 -2.81134,2.25004 -4.3125,3.25195 -1.45223,0.96926 -2.96837,1.84998 -4.5293,2.6543 -0.10146,0.0522 -0.20279,0.10479 -0.30468,0.15625 -1.53588,0.77712 -3.11837,1.47585 -4.7461,2.08203 -5.06839,1.88424 -10.5505,2.91797 -16.27734,2.91797 -5.82684,0 -11.39909,-1.07613 -16.54102,-3.02344 -1.48296,-0.56165 -2.92972,-1.19625 -4.33593,-1.90039 -0.24425,-0.12225 -0.48674,-0.24665 -0.72852,-0.37304 -1.39483,-0.7295 -2.74929,-1.52466 -4.05664,-2.38672 -0.14194,-0.0935 -0.28884,-0.18035 -0.42969,-0.27539 -1.37562,-0.92882 -2.69309,-1.9336 -3.95898,-3 -0.17475,-0.1471 -0.34504,-0.29962 -0.51758,-0.44922 -1.19555,-1.03743 -2.34144,-2.13276 -3.42578,-3.28516 -0.114,-0.12108 -0.23104,-0.23903 -0.34375,-0.36133 -1.14819,-1.24657 -2.23171,-2.55175 -3.24024,-3.91796 -0.0826,-0.11187 -0.16054,-0.22722 -0.24218,-0.33985 -0.95983,-1.3248 -1.84893,-2.70445 -2.66797,-4.12891 -0.0832,-0.14459 -0.16835,-0.28802 -0.25,-0.43359 -0.84901,-1.51399 -1.62345,-3.07534 -2.30274,-4.6875 -0.019,-0.0451 -0.0358,-0.0915 -0.0547,-0.13672 -0.659,-1.57797 -1.22564,-3.20328 -1.71094,-4.86328 -1.21699,-4.16484 -1.88281,-8.56536 -1.88281,-13.125 0,-4.51369 0.65428,-8.87239 1.84765,-13 1.0526,-3.632898 2.52785,-7.085748 4.38086,-10.294918 0.0181,-0.0313 0.0366,-0.0625 0.0547,-0.0937 5.6898,-9.80111 14.8407,-17.34334 25.78516,-20.94531 l -0.002,-0.008 c 4.60066,-1.51501 9.51306,-2.34765 14.62305,-2.34765 z m -32.92969,2.4043 h 12.70508 c -0.0128,0.006 -0.0244,0.0137 -0.0371,0.0195 -1.34002,0.61476 -2.64662,1.28804 -3.91797,2.01757 -0.0547,0.0314 -0.10947,0.0622 -0.16406,0.0937 -1.24404,0.72031 -2.45368,1.49231 -3.625,2.31641 -0.0727,0.0511 -0.14443,0.10285 -0.2168,0.1543 -1.14361,0.81395 -2.25099,1.6747 -3.31836,2.58203 -0.094,0.0799 -0.18589,0.16163 -0.27929,0.24219 -1.03991,0.8976 -2.04349,1.83514 -3.00391,2.8164 -0.10159,0.10373 -0.20012,0.20983 -0.30078,0.31446 -0.94554,0.98336 -1.85385,2.0007 -2.71484,3.06054 -0.0846,0.10407 -0.16433,0.21163 -0.24805,0.31641 -0.86632,1.08447 -1.69213,2.20218 -2.46485,3.35937 -0.0503,0.0753 -0.0966,0.15294 -0.14648,0.22852 -0.79013,1.19764 -1.53472,2.42897 -2.21875,3.69726 -0.0156,0.0289 -0.0294,0.0589 -0.0449,0.0879 -0.70402,1.31174 -1.3537,2.65694 -1.9375,4.0371 v -13.40624 z m 53.14649,0 h 13.78515 l 10.73828,10.74023 v 14.33398 c -4.77441,-11.09666 -13.55885,-20.05677 -24.52343,-25.07421 z m 171.6582,32.919918 5.10742,0.22461 v 29.66797 l -5.10742,0.2246 v -16.3457 -5.3457 z m 13.61523,0.59765 4.96485,0.22071 v 28.47851 l -4.96485,0.22071 z m 13.47071,0.59571 4.96679,0.21875 v 27.28906 l -4.96679,0.2207 z m 13.47265,0.59375 4.9668,0.21875 v 26.10351 l -4.9668,0.2168 z m 13.47266,0.59375 4.96484,0.2207 v 24.91406 l -4.96484,0.21875 z m 13.4707,0.5957 5.48828,0.24219 v 23.67968 l -5.48828,0.24024 z m -60.39453,3.98047 h 4.50977 v 16.21875 h -4.50977 z m 13.47266,0 h 4.50781 v 16.21875 h -4.50781 z m 13.47265,0 h 4.50391 v 16.21875 h -4.50391 z m 13.47266,0 h 4.50391 v 16.21875 h -4.50391 z m 13.4707,0 h 4.50586 v 16.21875 h -4.50586 z m -297.73437,23.36914 c 0.0525,0.12414 0.12035,0.23967 0.17383,0.36328 0.44904,1.03628 0.93753,2.05135 1.45507,3.04883 0.13538,0.26131 0.26241,0.52664 0.40235,0.78515 0.53897,0.99419 1.1219,1.96114 1.72656,2.91211 0.2041,0.32143 0.40387,0.64469 0.61524,0.96094 0.59102,0.88323 1.21533,1.74087 1.86132,2.58203 0.27917,0.36393 0.56051,0.72438 0.84961,1.08008 0.64428,0.7919 1.31201,1.56299 2.00391,2.3125 0.31631,0.34294 0.63891,0.67802 0.96484,1.01172 0.70321,0.71946 1.42361,1.42268 2.16992,2.09766 0.35168,0.31821 0.71332,0.62368 1.07422,0.93164 0.69411,0.59207 1.40198,1.16774 2.12891,1.7207 0.44942,0.34192 0.90764,0.66965 1.36914,0.99609 0.66906,0.47327 1.34959,0.93132 2.04297,1.3711 0.5212,0.33049 1.04762,0.64996 1.58203,0.96093 0.72657,0.423 1.46504,0.82706 2.21484,1.21289 0.27568,0.14177 0.53575,0.3087 0.81446,0.44532 h -11.51367 l -11.9336,-11.93555 z m 89.60156,0.25195 v 13.80078 l -10.73633,10.73633 -12.61914,0.002 c 0.11313,-0.0554 0.21745,-0.12535 0.33008,-0.18164 1.13324,-0.56622 2.24533,-1.16845 3.32617,-1.81836 0.0657,-0.0395 0.13368,-0.0754 0.19922,-0.11523 h 0.002 c 1.12041,-0.68097 2.20296,-1.41714 3.26172,-2.18359 0.13586,-0.0984 0.27536,-0.19123 0.41016,-0.29102 1.01996,-0.75447 2.00412,-1.55279 2.96094,-2.38281 0.15066,-0.13084 0.30214,-0.25993 0.45117,-0.39258 0.94787,-0.84276 1.86079,-1.72328 2.74023,-2.63672 0.11406,-0.11863 0.22699,-0.23764 0.33985,-0.35742 0.90114,-0.95503 1.76358,-1.94531 2.58593,-2.9707 0.065,-0.0811 0.12892,-0.16259 0.19336,-0.24414 2.63712,-3.33144 4.85294,-7.01056 6.55469,-10.96485 z m -90.41016,14.62305 10.88672,10.89062 -19.70312,18.21875 -5.63867,-5.63867 z m 91.28907,1.13281 15.66015,21.52344 -6.4375,6.43945 -18.98633,-18.20117 z m -78.54883,10.7832 h 16.25391 c 5.20312,1.89858 10.81967,2.93555 16.67773,2.93555 5.8561,0 11.46999,-1.03596 16.67187,-2.93359 h 17.34375 l 18.33594,17.57812 H 283.40625 Z m -294.4453101,16.57618 5.9062501,1.45312 0.125,0.0312 H 14.125 l 386.59375,5.25 h 0.0312 l 124.50195,-3.95312 v 2.92382 l -4.8125,14.4375 -7.25,8.46875 -5.0625,1.28125 -12.625,-11.4375 -0.34375,-0.28125 -0.40625,0.0312 -79.31445,5.875 -0.2793,0.0293 -0.25,0.18945 -17.625,13.75 L 17.31245,195.1915 7.9999499,184.254 Z m 486.5019501,20.23242 7.52344,6.8164 -3.11719,7.56055 -91.5,9.90625 -5.07422,-7.87695 13.54297,-10.59375 z"
   style="fill:#ffffff" />





























</svg>
