<?xml version="1.0" encoding="UTF-8" standalone="no"?>
<svg
   viewBox="0 0 545.41376 133.98638"
   height="133.98637"
   width="545.41376"
   xml:space="preserve"
   version="1.1"
   id="svg2"
   sodipodi:docname="system.svg"
   inkscape:version="1.1.2 (0a00cf5339, 2022-02-04)"
   xmlns:inkscape="http://www.inkscape.org/namespaces/inkscape"
   xmlns:sodipodi="http://sodipodi.sourceforge.net/DTD/sodipodi-0.dtd"
   xmlns="http://www.w3.org/2000/svg"
   xmlns:svg="http://www.w3.org/2000/svg"
   xmlns:rdf="http://www.w3.org/1999/02/22-rdf-syntax-ns#"
   xmlns:cc="http://creativecommons.org/ns#"
   xmlns:dc="http://purl.org/dc/elements/1.1/"><sodipodi:namedview
     id="namedview267"
     pagecolor="#ffffff"
     bordercolor="#666666"
     borderopacity="1.0"
     inkscape:pageshadow="2"
     inkscape:pageopacity="0.0"
     inkscape:pagecheckerboard="0"
     showgrid="false"
     fit-margin-top="0"
     fit-margin-left="0"
     fit-margin-right="0"
     fit-margin-bottom="0"
     inkscape:zoom="0.98164161"
     inkscape:cx="107.47303"
     inkscape:cy="-18.845982"
     inkscape:window-width="1920"
     inkscape:window-height="996"
     inkscape:window-x="0"
     inkscape:window-y="0"
     inkscape:window-maximized="1"
     inkscape:current-layer="svg2" /><metadata
     id="metadata8"><rdf:RDF><cc:Work
         rdf:about=""><dc:format>image/svg+xml</dc:format><dc:type
           rdf:resource="http://purl.org/dc/dcmitype/StillImage" /></cc:Work></rdf:RDF></metadata><defs
     id="defs6"><clipPath
       id="clipPath16"
       clipPathUnits="userSpaceOnUse"><path
         id="path18"
         d="M 0,95.175 H 426.724 V 0 H 0 Z" /></clipPath></defs><path
     id="path2958"
     style="fill:#000000;fill-opacity:1;fill-rule:evenodd;stroke:none;stroke-width:1.25"
     d="m 91.177735,0 c -4.808072,0.0784242 -9.637634,0.0104088 -14.454297,0.0332031 -3.614844,0 -7.229688,0 -10.844532,0 0.07512,0.686451 -1.044744,0.1779115 -1.5,0.3339844 -4.530599,0 -9.061198,0 -13.591797,0 -0.06627,16.3996505 -0.116733,32.8010615 -0.366261,49.1985205 -0.290113,4.194473 -1.796342,8.165746 -2.881709,12.193949 -1.271693,4.266431 -2.738126,8.511778 -5.01683,12.359113 -3.154586,5.409713 -6.889679,10.550801 -11.600161,14.716409 -4.126359,3.731964 -8.849063,6.761121 -13.791611,9.291041 -3.541899,1.780703 -7.3690023,2.93023 -11.2707682,3.5905 -2.8896324,0.47166 -5.2069955,2.94285 -5.7054714,5.795 -0.3142785,1.737 -0.034257,3.50761 -0.1297894,5.26092 C -0.001358,118.82496 0.001101,124.87733 0,130.92968 c 6.5342382,-0.0181 13.164436,0.3875 19.584502,-1.10646 11.908476,-2.47589 23.075069,-8.53437 31.530744,-17.2937 4.158636,-4.23123 8.023186,-8.79991 11.033829,-13.930712 1.369941,-2.295512 2.613039,-4.666224 3.72983,-7.094902 0,13.036454 0,26.072914 0,39.109374 9.214844,0 18.429688,0 27.644532,0 0.0013,-13.22055 -0.0026,-26.46316 0.002,-39.669921 4.730059,10.283831 11.648073,19.688931 20.673823,26.600151 8.35096,6.83327 18.59601,11.33319 29.27048,12.89337 3.83327,0.56177 7.71991,0.62528 11.58305,0.50648 0.6723,0.0276 1.34958,-0.0908 1.96875,-0.35547 -0.42705,0.7675 0.84828,0.27635 1.27304,0.41406 11.35886,0 22.71771,0 34.07657,0 2.6925,-8.58621 5.38685,-17.17183 8.08007,-25.75781 8.05274,0 16.10547,0 24.15821,0 2.66055,8.58601 5.32324,17.17137 7.98242,25.75781 28.05599,0 56.11198,0 84.16797,0 2.6925,-8.58621 5.38685,-17.17183 8.08008,-25.75781 8.04817,0 16.09635,0 24.14453,0 2.66055,8.58601 5.32324,17.17137 7.98242,25.75781 18.67773,0 37.35547,0 56.0332,0 0,-11.05013 0,-22.10026 0,-33.150388 7.78005,11.046568 15.54213,22.096698 23.31446,33.150388 27.27434,-2.6e-4 54.54845,-2.7e-4 81.82031,0.002 0,-3.75911 0,-7.51823 0,-11.27734 9.08917,4.75329 18.17853,9.50623 27.26758,14.25976 0,-7.13346 0,-14.26692 0,-21.40039 -5.29448,-2.76847 -10.58851,-5.53782 -15.88282,-8.30663 3.30277,0.12632 6.60089,-1.04473 9.10521,-3.19761 4.11508,-3.500101 6.38124,-8.852507 6.73653,-14.181741 0.43788,-6.34396 -1.87119,-13.038572 -6.76207,-17.233729 -0.24123,-0.341658 -1.23286,-0.577171 -0.56241,-0.97153 4.52418,-4.708927 6.67957,-11.592464 5.51015,-18.032213 -0.8429,-4.859099 -3.43549,-9.404154 -7.22467,-12.566774 5.09787,-4.243602 8.02019,-10.986076 7.47387,-17.61421 C 543.30184,13.471 539.08107,6.8048762 532.82706,3.5406768 c -6.0602,-3.3052897 -13.78885,-3.3390379 -19.8231,0.049217 -5.31342,2.8673643 -9.27966,8.1139162 -10.48311,14.0413352 -1.45145,6.824916 0.68622,14.349215 5.71761,19.228905 0.43672,0.431291 0.89071,0.845619 1.36316,1.237572 -5.07,4.215681 -8.0008,10.900776 -7.49324,17.49439 0.34046,5.01071 2.52915,9.880585 6.07722,13.439204 -3.80704,2.781389 -6.25443,7.163309 -7.21289,11.730469 0,-26.570313 0,-53.140625 0,-79.7109377 -11.40169,0 -22.80339,0 -34.20508,0 0,11.6061197 0,23.2122397 0,34.8183597 C 466.26882,29.2599 463.64522,22.875561 459.47968,17.73337 455.66639,12.993467 450.81528,9.1142393 445.4697,6.2323156 439.45139,2.9841529 432.66135,1.199955 425.82232,1.0820813 c -6.00078,-0.081706 -12.00352,0.00521 -18.00508,-0.035792 -3.70791,0.03119 -7.42298,-0.057937 -11.12578,0.1334481 -7.84446,0.8232495 -15.10185,6.5486946 -17.28023,14.1976176 -0.98156,3.732557 -0.4865,7.621686 -0.60454,11.430507 0,19.752865 0,39.50573 0,59.258594 C 371.6575,62.889503 364.51711,39.712506 357.32905,16.547463 355.43934,11.094878 351.88723,5.9320889 346.63307,3.2797913 340.72791,0.308558 333.44833,0.3256939 327.49353,3.1461582 c -4.86957,2.4293001 -8.45451,6.9625518 -10.3529,12.0003258 0,-4.698567 0,-9.3971351 0,-14.0957028 -28.30469,0 -56.60938,0 -84.91406,0 0,4.5403646 0,9.0807288 0,13.6210938 -2.2124,-5.2899607 -6.22344,-10.094955 -11.69089,-12.164722 -5.1809,-2.0018463 -11.14435,-1.9560391 -16.28933,0.1366027 -4.6369,1.9077221 -8.31263,5.7256212 -10.46969,10.2083553 -2.05507,4.180894 -3.06313,8.761236 -4.51776,13.16384 -9.86299,31.99273 -19.72598,63.98546 -29.58897,95.978189 -0.008,-6.16146 -0.001,-12.32292 -0.002,-18.48437 -2.77366,-1.11019 -5.67329,-1.85184 -8.60863,-2.38418 -3.14618,-0.7299 -6.20406,-1.824744 -9.11988,-3.211528 -0.4173,-0.210142 -0.91705,-0.441313 -1.40009,-0.698572 -5.72498,-2.941592 -10.77324,-7.079433 -15.06085,-11.860021 -3.38424,-3.611412 -6.43442,-7.570444 -8.68248,-11.995612 -2.5934,-4.951121 -4.64412,-10.201458 -6.01117,-15.621952 -0.71879,-3.309025 -1.05033,-6.685766 -1.55504,-10.030052 -0.51821,-4.97939 -0.26087,-9.994731 -0.36216,-14.991056 -0.016,-10.787766 0.0119,-21.575529 0.0269,-32.3632814 -5.48177,0 -10.96354,0 -16.445311,0 C 92.081922,0.1046888 91.617031,0.0063466 91.177735,0 Z M 523.20899,18.675781 c 2.24688,0.105513 3.84827,2.912525 2.65083,4.869218 -0.79912,1.595999 -2.96257,2.326388 -4.50372,1.348144 -1.62318,-0.870507 -2.21656,-3.132019 -1.17439,-4.664594 0.63163,-1.031512 1.81505,-1.65795 3.02728,-1.552768 z M 257.58203,33.220703 c 0,21.033854 0,42.067708 0,63.101562 -6.48502,-21.033854 -12.97005,-42.067708 -19.45507,-63.101562 6.48502,0 12.97005,0 19.45507,0 z m 53.8418,0 c -6.54557,21.230469 -13.09114,42.460938 -19.63672,63.691406 0,-21.230468 0,-42.460937 0,-63.691406 6.54558,0 13.09115,0 19.63672,0 z m 112.88086,0 c 3.38819,-0.051 6.65318,2.159888 8.0539,5.207797 0.82328,2.192937 -0.0556,4.684806 -1.69944,6.252899 -2.35141,2.506996 -5.68316,3.637861 -8.62588,5.260804 -3.02023,1.535408 -6.02484,3.100968 -9.03327,4.659359 0,-7.126953 0,-14.253906 0,-21.380859 3.76823,0 7.53646,0 11.30469,0 z m 42.46289,83.318357 c -9.01237,-12.97265 -18.02474,-25.94531 -27.03711,-38.917966 9.7796,-4.713602 18.25933,-12.420177 23.22456,-22.136708 2.11883,-4.28828 3.43315,-8.978119 3.81255,-13.748058 0,24.934245 0,49.86849 0,74.802732 z m 56.4375,-65.656248 c 2.25026,0.103845 3.8506,2.908716 2.6563,4.870052 -0.80237,1.590873 -2.95854,2.326878 -4.50142,1.351292 -1.62589,-0.871857 -2.22563,-3.143017 -1.17318,-4.676879 0.62928,-1.023837 1.81489,-1.647356 3.0183,-1.544465 z M 214.75,73.072265 c -1.44661,0 -2.89323,10e-7 -4.33984,0 0.72331,-2.333333 1.44661,-4.666666 2.16992,-7 0.72331,2.333334 1.44662,4.666667 2.16992,7 z m 124.38867,0 c -1.44661,0 -2.89322,0 -4.33984,0 0.72331,-2.333333 1.44662,-4.666666 2.16992,-7 0.72331,2.333334 1.44662,4.666667 2.16992,7 z m 161.87696,17.117188 c 0.58733,2.672008 1.6684,5.246045 3.24219,7.488281 -1.59571,1.451287 -2.71349,3.388836 -3.28516,5.460936 0,-4.386066 0,-8.772134 0,-13.158201 0.0143,0.06966 0.0287,0.139323 0.043,0.208984 z" /><g
     transform="matrix(1.25,0,0,-1.25,5.9980474,125.00257)"
     id="g10"><g
       id="g12"><g
         clip-path="url(#clipPath16)"
         id="g14"><g
           transform="translate(157.0191,36.744)"
           id="g20"><path
             id="path22"
             style="fill:#a92d38;fill-opacity:1;fill-rule:nonzero;stroke:none"
             d="M 0,0 8.247,26.613 16.494,0 Z m 20.294,47.621 c -2.139,6.665 -6.151,9.997 -12.047,9.997 -5.94,0 -9.952,-3.332 -12.036,-9.997 l -26.012,-84.365 h 18.355 l 6.464,20.607 h 26.391 l 6.386,-20.607 h 18.5 z" /></g><g
           transform="translate(185.7835,94.3619)"
           id="g24"><path
             id="path26"
             style="fill:#a92d38;fill-opacity:1;fill-rule:nonzero;stroke:none"
             d="m 0,0 v -16.137 h 20.283 v -78.225 h 17.765 v 78.225 H 58.331 V 0 Z" /></g><g
           transform="translate(256.5298,36.744)"
           id="g28"><path
             id="path30"
             style="fill:#a92d38;fill-opacity:1;fill-rule:nonzero;stroke:none"
             d="M 0,0 8.247,26.613 16.494,0 Z m 20.283,47.621 c -2.128,6.665 -6.14,9.997 -12.036,9.997 -5.951,0 -9.963,-3.332 -12.036,-9.997 l -26.012,-84.365 h 18.355 l 6.464,20.607 h 26.38 l 6.386,-20.607 h 18.511 z" /></g><g
           transform="translate(339.6022,40.1208)"
           id="g32"><path
             id="path34"
             style="fill:#a92d38;fill-opacity:1;fill-rule:nonzero;stroke:none"
             d="m 0,0 c 6.999,2.251 12.783,6.018 17.363,11.278 4.625,5.316 6.944,11.19 6.944,17.631 0,6.932 -2.954,12.884 -8.849,17.832 -5.896,5.004 -12.65,7.5 -20.284,7.5 h -20.283 c -3.076,0 -5.751,-1.036 -8.035,-3.109 -2.274,-2.073 -3.411,-4.48 -3.411,-7.222 v -84.031 h 17.754 V 38.104 H -4.87 c 2.964,0 5.606,-1.059 7.935,-3.177 2.318,-2.117 3.477,-4.502 3.477,-7.166 0,-3.867 -2.196,-7.132 -6.587,-9.796 -2.084,-1.036 -4.101,-2.062 -6.085,-3.098 -1.972,-1.036 -4,-2.073 -6.073,-3.109 -4.391,-2.931 -6.598,-6.709 -6.598,-11.346 0,-2.485 1.56,-5.906 4.67,-10.275 L 7.144,-40.121 h 20.729 z" /></g><path
           id="path36"
           style="fill:#a92d38;fill-opacity:1;fill-rule:nonzero;stroke:none"
           d="M 373.415,0 H 391.18 V 94.362 H 373.415 Z" /><g
           transform="translate(404.705,18.5436)"
           id="g38"><path
             id="path40"
             style="fill:#a92d38;fill-opacity:1;fill-rule:nonzero;stroke:none"
             d="m 0,0 c -0.501,0.257 -0.972,0.39 -1.412,0.39 -0.767,0 -1.443,-0.421 -2.016,-1.284 -0.583,-0.801 -0.869,-1.767 -0.869,-2.887 V -18.544 H 0.205 V -6.4 l 21.814,-11.404 v 6.287 z" /></g><g
           transform="translate(421.6284,27.9328)"
           id="g42"><path
             id="path44"
             style="fill:#a92d38;fill-opacity:1;fill-rule:nonzero;stroke:none"
             d="m 0,0 c -0.859,-0.863 -1.86,-1.288 -2.989,-1.288 -0.936,0 -1.77,0.515 -2.514,1.546 -0.731,1.03 -1.103,2.202 -1.103,3.516 0,1.301 0.372,2.46 1.103,3.49 0.744,1.03 1.578,1.546 2.514,1.546 C -1.86,8.81 -0.859,8.385 0,7.522 0.962,6.581 1.45,5.332 1.45,3.774 1.45,2.241 0.962,0.979 0,0 m -10.78,0.482 c -0.685,-0.965 -1.477,-1.447 -2.366,-1.447 -1.032,0 -1.957,0.398 -2.785,1.206 -0.901,0.916 -1.345,2.097 -1.345,3.532 0,1.459 0.444,2.628 1.345,3.508 0.828,0.808 1.753,1.205 2.785,1.205 0.889,0 1.681,-0.482 2.366,-1.446 0.696,-0.965 1.044,-2.05 1.044,-3.267 0,-1.23 -0.348,-2.327 -1.044,-3.291 M 2.906,10.963 c -1.463,2.054 -3.182,3.092 -5.157,3.092 -2.363,0 -4.297,-1.027 -5.801,-3.072 -1.443,2.045 -3.162,3.072 -5.147,3.072 h -0.634 c -1.975,0 -3.694,-1.038 -5.168,-3.092 -1.483,-2.045 -2.22,-4.449 -2.22,-7.192 0,-2.743 0.737,-5.147 2.22,-7.212 1.474,-2.055 3.193,-3.092 5.168,-3.092 2.373,0 4.297,1.037 5.781,3.092 1.442,-2.055 3.161,-3.092 5.146,-3.092 h 0.655 c 1.975,0 3.694,1.037 5.157,3.092 1.463,2.086 2.19,4.49 2.19,7.212 0,2.712 -0.727,5.106 -2.19,7.192" /></g><g
           transform="translate(413.5658,49.1722)"
           id="g46"><path
             id="path48"
             style="fill:#a92d38;fill-opacity:1;fill-rule:nonzero;stroke:none"
             d="m 0,0 c -4.104,0 -7.435,3.345 -7.435,7.466 0,4.121 3.331,7.465 7.435,7.465 4.104,0 7.435,-3.344 7.435,-7.465 C 7.435,3.345 4.104,0 0,0 m 0,19.424 c -6.579,0 -11.91,-5.353 -11.91,-11.958 0,-6.606 5.331,-11.959 11.91,-11.959 6.579,0 11.91,5.353 11.91,11.959 0,6.605 -5.331,11.958 -11.91,11.958" /></g><g
           transform="translate(413.5658,74.938)"
           id="g50"><path
             id="path52"
             style="fill:#a92d38;fill-opacity:1;fill-rule:nonzero;stroke:none"
             d="m 0,0 c -4.104,0 -7.435,3.345 -7.435,7.466 0,4.121 3.331,7.465 7.435,7.465 4.104,0 7.435,-3.344 7.435,-7.465 C 7.435,3.345 4.104,0 0,0 m 0,19.424 c -6.579,0 -11.91,-5.353 -11.91,-11.958 0,-6.606 5.331,-11.959 11.91,-11.959 6.579,0 11.91,5.353 11.91,11.959 0,6.605 -5.331,11.958 -11.91,11.958" /></g><path
           id="path54"
           style="fill:#6c4d9d;fill-opacity:1;fill-rule:evenodd;stroke:none"
           d="M 65.22,0.312 H 52.704 v 9.963 H 65.22 Z" /><g
           transform="translate(118.1353,10.2754)"
           id="g56"><path
             id="path58"
             style="fill:#6c4d9d;fill-opacity:1;fill-rule:evenodd;stroke:none"
             d="m 0,0 v -10.231 c -4.993,-0.212 -9.852,0.446 -14.544,2.017 -4.725,1.583 -9.083,3.778 -12.916,6.776 -0.602,0.468 -1.215,0.948 -1.806,1.438 z" /></g><g
           transform="translate(29.3903,10.2754)"
           id="g60"><path
             id="path62"
             style="fill:#6c4d9d;fill-opacity:1;fill-rule:evenodd;stroke:none"
             d="m 0,0 c -4.023,-3.399 -8.637,-5.996 -13.764,-7.835 -4.692,-1.671 -9.517,-2.541 -14.555,-2.396 h -1.069 c 0,3.477 -0.012,6.865 0.022,10.231 z" /></g><g
           transform="translate(41.8723,25.4544)"
           id="g64"><path
             id="path66"
             style="fill:#3e6eb2;fill-opacity:1;fill-rule:evenodd;stroke:none"
             d="m 0,0 c -1.683,-3.12 -3.689,-6.074 -6.13,-8.804 -1.861,-2.084 -3.766,-4.146 -5.895,-5.996 -0.156,-0.134 -0.301,-0.256 -0.457,-0.379 h -29.366 c -0.011,0.947 0,1.883 0.011,2.831 0,0.278 0.39,0.758 0.657,0.802 3.957,0.647 7.713,1.861 11.156,3.7 2.742,1.471 5.417,3.121 7.891,4.948 1.237,0.903 2.407,1.873 3.521,2.898 z" /></g><g
           transform="translate(118.1353,13.7413)"
           id="g68"><path
             id="path70"
             style="fill:#3e6eb2;fill-opacity:1;fill-rule:evenodd;stroke:none"
             d="m 0,0 v -3.466 h -29.266 c -1.103,0.88 -2.173,1.783 -3.176,2.742 -3.054,2.953 -5.639,6.241 -7.846,9.785 -0.546,0.869 -1.059,1.761 -1.549,2.652 h 18.678 c 0.792,-0.769 1.605,-1.516 2.463,-2.207 C -14.945,4.826 -8.381,1.482 -0.713,0.19 -0.468,0.156 -0.234,0.067 0,0" /></g><path
           id="path72"
           style="fill:#3e6eb2;fill-opacity:1;fill-rule:evenodd;stroke:none"
           d="M 65.22,10.275 H 52.704 V 25.454 H 65.22 Z" /><path
           id="path74"
           style="fill:#35afdf;fill-opacity:1;fill-rule:evenodd;stroke:none"
           d="M 65.22,25.454 H 52.704 V 40.31 H 65.22 Z" /><g
           transform="translate(94.9767,25.4544)"
           id="g76"><path
             id="path78"
             style="fill:#35afdf;fill-opacity:1;fill-rule:evenodd;stroke:none"
             d="m 0,0 h -18.678 c -1.572,2.82 -2.876,5.751 -3.912,8.793 -0.68,2.006 -1.293,4.012 -1.761,6.063 h 13.128 C -9.428,11.234 -7.244,7.801 -4.447,4.703 -3.009,3.109 -1.56,1.493 0,0" /></g><g
           transform="translate(47.5004,40.3103)"
           id="g80"><path
             id="path82"
             style="fill:#35afdf;fill-opacity:1;fill-rule:evenodd;stroke:none"
             d="m 0,0 c -0.613,-2.909 -1.538,-5.74 -2.664,-8.515 -0.88,-2.173 -1.85,-4.29 -2.964,-6.341 H -24.24 c 2.764,2.485 5.16,5.294 7.256,8.336 1.448,2.107 2.797,4.269 3.945,6.52 z" /></g><g
           transform="translate(48.9269,52.5694)"
           id="g84"><path
             id="path86"
             style="fill:#9ecf81;fill-opacity:1;fill-rule:evenodd;stroke:none"
             d="m 0,0 c 0,-0.557 -0.011,-1.114 -0.011,-1.672 -0.022,-2.819 -0.602,-5.65 -1.026,-8.459 -0.111,-0.713 -0.234,-1.426 -0.39,-2.128 h -13.039 c 0.747,1.471 1.404,2.975 1.95,4.525 0.892,2.552 1.672,5.137 2.397,7.734 z" /></g><path
           id="path88"
           style="fill:#9ecf81;fill-opacity:1;fill-rule:evenodd;stroke:none"
           d="M 65.22,40.31 H 52.704 V 52.569 H 65.22 Z" /><g
           transform="translate(83.754,40.3103)"
           id="g90"><path
             id="path92"
             style="fill:#9ecf81;fill-opacity:1;fill-rule:evenodd;stroke:none"
             d="m 0,0 h -13.128 c -0.368,1.549 -0.636,3.12 -0.781,4.703 -0.234,2.519 -0.49,5.037 -0.601,7.556 h 9.941 C -3.967,9.674 -3.065,7.155 -2.073,4.647 -1.449,3.076 -0.758,1.516 0,0" /></g><g
           transform="translate(48.9826,68.5397)"
           id="g94"><path
             id="path96"
             style="fill:#fdd255;fill-opacity:1;fill-rule:evenodd;stroke:none"
             d="m 0,0 c 0,-5.327 -0.022,-10.654 -0.056,-15.97 h -10.119 c 0.301,1.092 0.591,2.173 0.869,3.265 0.457,1.75 0.68,3.6 0.702,5.405 0.034,2.43 0.056,4.87 0.078,7.3 z" /></g><g
           transform="translate(79.1847,52.5694)"
           id="g98"><path
             id="path100"
             style="fill:#fdd255;fill-opacity:1;fill-rule:evenodd;stroke:none"
             d="m 0,0 h -9.941 c -0.022,0.635 -0.045,1.271 -0.045,1.906 -0.022,4.692 -0.033,9.372 -0.033,14.064 h 8.358 c 0,-1.226 0.023,-2.452 0.034,-3.666 C -1.583,9.239 -0.981,6.185 -0.579,3.132 -0.446,2.073 -0.245,1.036 0,0" /></g><path
           id="path102"
           style="fill:#fdd255;fill-opacity:1;fill-rule:evenodd;stroke:none"
           d="M 65.22,52.569 H 52.704 v 15.97 H 65.22 Z" /><path
           id="path104"
           style="fill:#f89f5c;fill-opacity:1;fill-rule:evenodd;stroke:none"
           d="M 65.22,68.54 H 52.704 V 81.178 H 65.22 Z" /><g
           transform="translate(77.5241,68.5397)"
           id="g106"><path
             id="path108"
             style="fill:#f89f5c;fill-opacity:1;fill-rule:evenodd;stroke:none"
             d="M 0,0 H -8.359 C -8.37,4.213 -8.37,8.425 -8.37,12.638 h 8.337 C -0.045,8.414 -0.045,4.202 0,0" /></g><g
           transform="translate(48.9826,81.1778)"
           id="g110"><path
             id="path112"
             style="fill:#f89f5c;fill-opacity:1;fill-rule:evenodd;stroke:none"
             d="M 0,0 V -12.638 H -8.526 C -8.492,-8.425 -8.459,-4.213 -8.437,0 Z" /></g><g
           transform="translate(48.9715,93.7267)"
           id="g114"><path
             id="path116"
             style="fill:#ee3d57;fill-opacity:1;fill-rule:evenodd;stroke:none"
             d="m 0,0 c 0,-4.19 0,-8.37 0.011,-12.549 h -8.436 c 0.033,4.358 0.055,8.715 0.078,13.073 V 1.181 H 0 Z" /></g><g
           transform="translate(77.513,94.9192)"
           id="g118"><path
             id="path120"
             style="fill:#ee3d57;fill-opacity:1;fill-rule:evenodd;stroke:none"
             d="M 0,0 V -1.126 C 0,-5.327 -0.022,-9.54 -0.022,-13.741 h -8.337 c 0.012,4.168 0.012,8.325 0.012,12.493 V 0 Z" /></g><path
           id="path122"
           style="fill:#ee3d57;fill-opacity:1;fill-rule:evenodd;stroke:none"
           d="M 52.705,95.175 H 65.221 V 81.177 H 52.705 Z" /></g></g></g><g
     transform="matrix(1.25,0,0,-1.25,189.24195,-266.75498)"
     id="g2426" /><g
     transform="matrix(1.25,0,0,-1.25,225.19746,-338.77736)"
     id="g2430" /><g
     transform="matrix(1.25,0,0,-1.25,313.63033,-266.75498)"
     id="g2434" /><g
     transform="matrix(1.25,0,0,-1.25,417.47083,-270.97598)"
     id="g2438" /><g
     transform="matrix(1.25,0,0,-1.25,498.84933,-244.00448)"
     id="g2444" /><g
     transform="matrix(1.25,0,0,-1.25,520.00358,-255.74098)"
     id="g2448" /><g
     transform="matrix(1.25,0,0,-1.25,509.92533,-282.29023)"
     id="g2452" /><g
     transform="matrix(1.25,0,0,-1.25,509.92533,-314.49748)"
     id="g2456" /><g
     transform="matrix(1.25,0,0,-1.25,140.63721,-238.0016)"
     id="g2474" /><g
     transform="matrix(1.25,0,0,-1.25,52.343577,-271.21285)"
     id="g2486" /><g
     transform="matrix(1.25,0,0,-1.25,54.126702,-286.53673)"
     id="g2490" /><g
     transform="matrix(1.25,0,0,-1.25,97.660577,-271.21285)"
     id="g2496" /><g
     transform="matrix(1.25,0,0,-1.25,54.196327,-306.4996)"
     id="g2500" /><g
     transform="matrix(1.25,0,0,-1.25,91.948952,-286.53673)"
     id="g2504" /><g
     transform="matrix(1.25,0,0,-1.25,89.873202,-306.4996)"
     id="g2512" /><g
     transform="matrix(1.25,0,0,-1.25,54.196327,-322.29723)"
     id="g2516" /><g
     transform="matrix(1.25,0,0,-1.25,54.182452,-337.98335)"
     id="g2520" /><g
     transform="matrix(1.25,0,0,-1.25,89.859327,-339.47398)"
     id="g2524" /></svg>
