<?xml version="1.0" encoding="UTF-8" standalone="no"?>
<!-- Created with Inkscape (http://www.inkscape.org/) -->

<svg
   width="142.32233mm"
   height="20.465906mm"
   viewBox="0 0 142.32233 20.465906"
   version="1.1"
   id="svg5"
   xml:space="preserve"
   inkscape:version="1.2.2 (b0a8486541, 2022-12-01)"
   sodipodi:docname="tst.svg"
   xmlns:inkscape="http://www.inkscape.org/namespaces/inkscape"
   xmlns:sodipodi="http://sodipodi.sourceforge.net/DTD/sodipodi-0.dtd"
   xmlns:xlink="http://www.w3.org/1999/xlink"
   xmlns="http://www.w3.org/2000/svg"
   xmlns:svg="http://www.w3.org/2000/svg"><sodipodi:namedview
     id="namedview7"
     pagecolor="#ffffff"
     bordercolor="#000000"
     borderopacity="0.25"
     inkscape:showpageshadow="2"
     inkscape:pageopacity="0.0"
     inkscape:pagecheckerboard="0"
     inkscape:deskcolor="#d1d1d1"
     inkscape:document-units="mm"
     showgrid="false"
     inkscape:zoom="1.4142136"
     inkscape:cx="181.37288"
     inkscape:cy="3.8890872"
     inkscape:window-width="1920"
     inkscape:window-height="995"
     inkscape:window-x="1920"
     inkscape:window-y="0"
     inkscape:window-maximized="1"
     inkscape:current-layer="layer1" /><defs
     id="defs2"><linearGradient
       inkscape:collect="always"
       id="linearGradient59802"><stop
         style="stop-color:#1f2d39;stop-opacity:1;"
         offset="0"
         id="stop59798" /><stop
         style="stop-color:#759098;stop-opacity:1"
         offset="1"
         id="stop59800" /></linearGradient><linearGradient
       inkscape:collect="always"
       id="linearGradient76079-3"><stop
         style="stop-color:#fcd072;stop-opacity:1;"
         offset="0"
         id="stop76075" /><stop
         style="stop-color:#752f23;stop-opacity:1"
         offset="1"
         id="stop76077" /></linearGradient><linearGradient
       inkscape:collect="always"
       id="linearGradient7739"><stop
         style="stop-color:#759098;stop-opacity:1"
         offset="0"
         id="stop7735" /><stop
         style="stop-color:#af7445;stop-opacity:1"
         offset="1"
         id="stop7737" /></linearGradient><linearGradient
       inkscape:collect="always"
       xlink:href="#linearGradient59802"
       id="linearGradient632"
       gradientUnits="userSpaceOnUse"
       x1="86.023865"
       y1="99.259087"
       x2="86.162819"
       y2="107.20258" /><linearGradient
       inkscape:collect="always"
       xlink:href="#linearGradient76079-3"
       id="linearGradient1126"
       x1="70.441086"
       y1="124.40234"
       x2="70.437012"
       y2="130.41512"
       gradientUnits="userSpaceOnUse" /><linearGradient
       inkscape:collect="always"
       xlink:href="#linearGradient7739"
       id="linearGradient1961"
       x1="31.837435"
       y1="113.40203"
       x2="31.948839"
       y2="129.92149"
       gradientUnits="userSpaceOnUse"
       gradientTransform="matrix(0.9993528,0,0,1.0720431,0.28750028,-24.152687)" /></defs><g
     inkscape:label="Camada 1"
     inkscape:groupmode="layer"
     id="layer1"
     transform="translate(-21.841644,-95.742905)"><g
       id="g4485"><path
         id="path4475"
         style="color:#000000;-inkscape-font-specification:DooM;fill:#000000;fill-opacity:1;stroke-width:1.03506;stroke-linecap:round;stroke-linejoin:round;-inkscape-stroke:none"
         d="m 60.224609,95.751953 c -1.556981,0.143202 -3.176807,-0.2075 -4.693359,0.216797 -0.512813,0.05409 -0.638325,1.099885 -0.907505,0.880604 -1.351906,-1.377484 -3.886878,-1.46283 -5.129173,0.110439 -1.111705,1.123375 -1.837555,2.544321 -2.744572,3.823407 -1.11146,-1.469111 -1.865651,-3.289884 -3.411667,-4.383084 -1.392676,-1.087747 -3.456325,-0.638628 -4.611771,0.580353 -0.143512,-0.901167 -1.090055,-1.28542 -1.912442,-1.192841 -2.815338,-0.01804 -5.635448,-0.05297 -8.449211,0.02701 -2.994522,0.317336 -5.234673,2.946258 -5.933268,5.747862 -0.857862,3.09298 -0.775347,6.46015 0.215711,9.51049 0.890412,2.57806 3.122515,4.94629 5.987599,5.05572 2.398985,0.12845 4.804567,-0.0178 7.206453,0.0515 0.734767,0.0123 1.544775,-0.009 2.207579,-0.18739 0.948268,0.3837 2.023355,0.0798 3.02365,0.18434 1.009419,-0.0818 2.11553,0.18595 3.05432,-0.25332 1.103821,-0.79503 0.614156,-2.30802 0.716797,-3.45469 0.07903,-0.28972 -0.185112,-1.71792 0.185547,-1.04141 0.461954,0.74822 1.273051,1.62096 2.237758,1.17672 0.651456,-0.27354 1.030696,-0.90832 1.377476,-1.48726 0.03487,1.38354 -0.141938,2.81379 0.173828,4.16406 0.574743,1.1761 2.022967,0.85698 3.084758,0.89075 1.218629,-0.0773 2.509256,0.20414 3.675008,-0.21302 1.11201,-0.6021 0.705958,-2.1413 0.804687,-3.03906 1.185095,1.92065 3.311443,3.32816 5.620033,3.23756 1.714844,-8.7e-4 3.464706,0.14744 5.1541,-0.19246 1.939088,-0.51038 3.489011,-2.02562 4.364539,-3.79119 0.540985,1.91317 2.036821,3.66319 4.087378,3.94605 1.573708,0.14949 3.165847,-0.003 4.747778,0.0575 1.447919,0.0207 2.894903,-0.085 4.336682,0.005 1.463458,-0.097 2.972995,0.16782 4.407088,-0.16776 1.209325,-0.58218 1.046368,-2.10763 1.434622,-3.19236 0.252645,-1.04941 0.505291,-2.09881 0.757937,-3.14822 0.35332,0.24408 1.263565,-0.24419 1.283647,0.23711 0.0385,1.73614 -0.110881,3.49491 0.106978,5.21601 0.40299,1.19385 1.846115,1.09143 2.860149,1.04518 1.316415,-0.0814 2.704396,0.21057 3.967976,-0.21315 1.150251,-0.6969 0.699111,-2.17439 0.785151,-3.2789 1e-5,-3.1388 0,-6.27761 1e-5,-9.41641 0.54543,0.068 1.52715,-0.30023 1.24001,0.6 0.0261,3.70254 -0.062,7.41413 0.0569,11.11094 0.27907,1.20507 1.70541,1.30614 2.71601,1.19686 1.35632,-0.0678 2.76552,0.17788 4.0857,-0.17054 1.17409,-0.59608 0.82435,-2.05651 0.86821,-3.12085 0,-3.21003 0,-6.42005 0,-9.63008 0.66171,0.007 1.32731,0.073 1.98633,-0.0176 -0.50266,3.65799 -0.19655,7.75397 2.23695,10.71288 1.43593,1.68334 3.72663,2.46063 5.90166,2.22068 2.15909,-0.0672 4.36684,0.23088 6.48832,-0.26311 1.57958,-0.45657 2.87452,-1.61622 3.74416,-2.9849 0.0778,1.0313 -0.2732,2.4693 0.85383,3.04712 1.10367,0.43287 2.32838,0.0985 3.48359,0.20912 0.99831,-0.0725 2.24747,0.27578 3.00829,-0.55116 0.70518,-0.96915 0.26519,-2.23664 0.38672,-3.34297 0,-0.85313 0,-1.70625 0,-2.55938 0.78637,0.009 1.57346,-0.0265 2.35937,0.01 0.0412,1.79651 -0.11248,3.61505 0.10742,5.39648 0.42464,1.23297 1.92113,1.07562 2.9621,1.04452 1.31744,-0.0691 2.69211,0.1701 3.97137,-0.15604 0.46203,0.0189 1.01749,0.26604 1.5513,0.15761 3.81048,-0.0297 7.62752,0.071 11.43365,-0.0654 2.57142,-0.43868 4.08701,-3.07736 4.31123,-5.49968 0.31829,-2.59455 -0.12806,-5.58955 -2.22965,-7.36378 0.82664,0.073 1.89052,-0.0271 2.18555,-0.95898 0.31514,-1.21727 0.0442,-2.500427 0.14362,-3.744927 -0.003,-0.928755 0.12988,-2.212582 -0.9444,-2.618361 -1.1373,-0.333108 -2.35236,-0.06027 -3.52148,-0.148162 -3.12311,0.02308 -6.25181,-0.07183 -9.3711,0.07199 -1.5101,0.319193 -2.76994,1.463881 -3.42188,2.839844 -0.84864,-1.81298 -2.7773,-3.135046 -4.82031,-2.914232 -3.75039,0.02935 -7.51158,-0.0699 -11.25515,0.06178 -1.2196,0.28651 -1.27552,1.73461 -1.18625,2.745418 0.13874,0.984896 -0.36229,-0.182774 -0.6543,-0.422266 -1.24392,-1.55069 -3.20316,-2.479572 -5.1983,-2.370352 -2.12163,-0.01946 -4.25165,-0.06165 -6.36888,0.04867 -1.94705,0.256003 -3.64988,1.542354 -4.68087,3.179103 -0.0879,-1.002998 0.28709,-2.362949 -0.74609,-2.992188 -1.06273,-0.503756 -2.28777,-0.135258 -3.41875,-0.250456 -3.10219,0.02588 -6.21306,-0.06287 -9.309767,0.05905 -0.473051,0.117535 -0.854807,0.489387 -1.027344,0.939453 -1.360886,-1.079473 -3.167096,-1.050773 -4.809702,-1.008109 -1.849834,-0.0957 -3.828167,0.296514 -5.176438,1.658729 -2.66778,2.452099 -3.395155,6.176116 -4.227287,9.541826 -0.15642,0.60517 -0.286143,1.24835 -0.46626,1.82708 -1.010147,-0.26928 -2.07354,-0.0118 -3.107031,-0.10742 -0.489371,-0.15003 -1.480909,0.34468 -1.56321,-0.33629 -0.115355,-1.38473 0.01575,-2.78246 -0.04346,-4.17347 -0.02563,-2.43028 0.08008,-4.87404 -0.07484,-7.295555 -0.334693,-1.199176 -1.785725,-1.189181 -2.791064,-1.096934 -1.283198,0.05693 -2.628403,-0.181694 -3.870269,0.162593 -0.432284,-0.05218 -0.964799,-0.268708 -1.470427,-0.167579 -1.506774,0.04479 -3.040166,-0.124712 -4.528877,0.114007 -1.154288,0.398207 -1.080669,1.77295 -1.035787,2.7647 -0.04196,3.325608 0.08128,6.664748 -0.07167,9.981658 -0.625576,0.1645 -1.353979,-0.0208 -2.01914,0.0469 -0.723504,0.20221 -0.514586,-0.7846 -0.578516,-1.21875 0.05862,-2.93881 0.01365,-5.88185 0.01711,-8.822596 -0.03944,-0.920767 0.221829,-2.189861 -0.821799,-2.665682 -0.419931,-0.206816 -0.900808,-0.237151 -1.361329,-0.222656 z m 91.691411,3.191406 c 3.03638,0.04674 6.07408,-8.83e-4 9.11132,0.01563 0.009,0.613759 0.1959,1.405581 -0.69999,1.116931 -2.51936,0.0316 -5.05176,-0.09132 -7.56257,0.0849 -2.22268,0.56986 -2.4369,4.13887 -0.35267,5.03451 1.48669,0.4574 3.0686,0.0981 4.59647,0.23364 1.07441,0.0529 2.50078,-0.37259 3.22219,0.6797 0.97907,1.43887 0.91463,3.35016 0.55578,4.98369 -0.22921,0.95193 -0.94234,2.01787 -2.05275,1.88167 -3.18856,0.0255 -6.37982,1.5e-4 -9.56974,0.0104 -0.009,-0.61376 -0.19589,-1.40558 0.7,-1.11695 2.52283,-0.0342 5.05954,0.0904 7.57344,-0.0842 2.2159,-0.55966 2.42192,-4.09527 0.37647,-5.01556 -1.434,-0.48871 -2.97289,-0.11905 -4.4538,-0.24946 -0.97808,-0.0466 -2.07447,0.22291 -2.96721,-0.25436 -1.3108,-1.10259 -1.28775,-3.02612 -1.16014,-4.59136 0.13014,-1.1131 0.63429,-2.648637 1.96823,-2.689474 0.23738,-0.03042 0.47608,-0.03333 0.71497,-0.03963 z m -58.755864,0.002 c 0.930619,0.118108 1.910091,-0.147066 2.806641,0.148438 1.299864,0.617826 1.200924,2.245723 1.232109,3.459373 -0.04477,3.47669 -1.55e-4,6.95406 -0.01531,10.43126 -0.484243,-0.14844 -1.626317,0.36383 -1.497833,-0.4 -0.0445,-1.69531 0.138022,-3.42321 -0.129706,-5.09693 -0.379176,-1.00607 -1.587627,-1.02255 -2.487696,-0.95815 0.198821,-0.32715 -0.231116,-1.23596 0.298829,-1.11719 0.902591,0.16915 1.964326,-0.19121 2.240234,-1.15039 0.222188,-0.7647 -0.01431,-1.5703 0.101562,-2.35547 0.07154,-0.97298 -0.700028,-1.87388 -1.699325,-1.8337 -1.092358,0.0105 -2.389556,-0.184057 -3.200691,0.72939 -1.24114,1.3835 -1.285501,3.36814 -1.804654,5.06974 -0.5711,2.3709 -1.142199,4.7418 -1.713298,7.1127 -0.425977,-0.14784 -1.645021,0.32466 -1.47267,-0.29117 0.859317,-3.26668 1.461151,-6.61207 2.574844,-9.80535 0.633847,-1.62576 1.615407,-3.543633 3.510683,-3.871306 0.415288,-0.06502 0.836826,-0.06898 1.256283,-0.07125 z m 28.423824,0.0059 c 1.32565,0.09338 2.75982,-0.219363 3.99414,0.382812 1.95801,1.201579 2.44565,3.688799 2.58264,5.812909 0.11795,2.22285 -0.13638,4.63731 -1.46432,6.49301 -0.73296,1.01998 -2.00697,1.49675 -3.23589,1.34107 -2.03898,-0.0514 -4.10235,0.1428 -6.12461,-0.13331 -1.92426,-0.66845 -2.74697,-2.82922 -2.99787,-4.68917 -0.25937,-1.62553 -0.25314,-3.45791 0.10529,-5.0374 0.36466,-1.73275 1.30033,-3.714265 3.20585,-4.109426 1.30064,-0.120779 2.62677,-0.003 3.93477,-0.0605 z m -92.402339,0.0078 c 2.165364,0 4.330729,0 6.496093,0 0.0083,0.613989 0.196417,1.407301 -0.699997,1.119261 -2.122204,0.0245 -4.255751,-0.08783 -6.370315,0.0819 -1.625209,0.58 -2.295828,2.54919 -2.06836,4.13476 0.349518,1.18895 1.777771,1.20356 2.788671,1.12212 1.156381,0.003 2.312761,0.006 3.469142,0.009 0.01076,0.61254 0.193337,1.3961 -0.699993,1.10867 -1.533967,0.0322 -3.097429,-0.11847 -4.61167,0.11776 -1.2883,0.49939 -1.143836,2.1642 -0.684431,3.20521 0.370153,1.26199 1.642144,2.26144 2.989063,2.01172 1.96263,0 3.92526,0 5.88789,0 0.0091,0.61356 0.195379,1.40477 -0.699997,1.11135 -2.257878,-0.0407 -4.536242,0.12844 -6.780471,-0.11721 -1.940017,-0.62585 -2.78157,-2.78806 -3.041324,-4.64157 -0.388753,-2.54459 -0.276577,-5.43176 1.150699,-7.7139 0.644925,-0.931139 1.70571,-1.632477 2.875,-1.548831 z m 30.117187,0 c 0.03995,3.322781 -0.08836,6.656101 0.07983,9.971961 0.202207,1.45518 1.288642,3.10835 2.942025,2.93603 1.350596,-0.0864 2.774712,0.22348 4.069945,-0.23612 1.656004,-0.90725 1.872735,-3.01304 1.785156,-4.70663 0,-2.65508 0,-5.31016 0,-7.965241 0.481036,0.148557 1.625535,-0.364188 1.488929,0.399998 -0.06466,3.057983 0.193161,6.141673 -0.219271,9.180523 -0.328726,1.76646 -1.192449,3.85805 -3.111397,4.33774 -1.481149,0.26068 -2.995471,0.013 -4.488917,0.1196 -1.417128,-0.0348 -2.575452,-1.06752 -3.122573,-2.32147 -1.313392,-2.74642 -0.817971,-5.87804 -0.915911,-8.81718 0,-0.96639 0,-1.932804 0,-2.899211 0.497395,0 0.994791,0 1.492187,0 z m 16.417969,0 c 0.04043,3.323331 -0.08934,6.657571 0.08062,9.973761 0.203816,1.45069 1.281437,3.09706 2.929539,2.93639 0.917188,0 1.834375,0 2.751563,0 0.0091,0.61358 0.195378,1.40498 -0.699995,1.11066 -1.689078,-0.0363 -3.412525,0.1242 -5.079302,-0.1126 -1.38682,-0.80147 -1.474872,-2.63989 -1.464012,-4.06796 -0.02172,-3.28003 -0.0088,-6.56016 -0.0106,-9.840251 0.497396,0 0.994792,0 1.492188,0 z m 33.888673,0 c -0.0383,0.53389 0.24868,1.410761 -0.59503,1.111951 -1.00901,-0.0645 -2.42836,-0.0661 -2.76472,1.1294 -0.23135,1.06913 -0.0159,2.17965 -0.0973,3.26685 0,2.83907 0,5.67813 0,8.51719 -0.48314,-0.14848 -1.62614,0.36396 -1.49477,-0.4 -0.0357,-3.7946 0.0815,-7.60116 -0.0697,-11.38813 -0.26655,-1.06328 -1.51726,-1.218867 -2.43165,-1.14156 -0.43451,-0.0927 -1.2141,0.34122 -0.95507,-0.449216 -0.29247,-0.907964 0.62349,-0.607499 1.2,-0.646485 2.40273,0 4.80546,0 7.2082,0 z m 32.91601,0 c 1.35455,0.0082 1.87929,1.577231 2.01364,2.692521 0.21109,1.28065 0.0266,2.66636 -0.79194,3.70575 -0.49071,0.98284 0.48631,1.76329 0.72166,2.63493 0.28995,1.65774 0.08,3.34306 0.14063,5.01367 -0.59296,-0.066 -1.18848,-0.0654 -1.78125,0.004 -0.0898,-1.69787 0.22876,-3.45517 -0.23828,-5.10939 -0.52963,-1.22959 -2.00518,-1.53179 -3.20664,-1.36882 -1.39449,0.0589 -2.82904,-0.153 -4.19571,0.14813 -1.19815,0.52916 -0.92641,1.9884 -0.94531,3.0457 0,1.08633 0,2.17265 0,3.25898 -0.48221,-0.14852 -1.62553,0.36406 -1.49219,-0.4 0,-2.3901 0,-4.7802 0,-7.17031 2.75623,-0.042 5.52572,0.0928 8.27344,-0.084 2.22574,-0.5625 2.41732,-4.1266 0.35156,-5.02735 -1.50748,-0.471027 -3.1154,-0.11629 -4.66718,-0.22851 -1.31927,0 -2.63855,0 -3.95782,0 -0.009,-0.613786 -0.19589,-1.40606 0.7,-1.115241 3.02513,0 6.05026,0 9.07539,0 z m -101.042964,0.03516 c 1.170093,0.816452 1.632326,2.260001 2.531601,3.323731 0.697729,0.93762 1.159933,2.17332 2.214492,2.76611 1.106464,0.4056 1.98617,-0.64643 2.433832,-1.52222 1.064141,-1.49705 1.950631,-3.14154 3.187262,-4.503168 0.683206,-0.324188 1.046436,0.668387 1.220553,1.160018 0.367174,1.59304 0.09449,3.25049 0.181791,4.87045 0,2.63177 0,5.26354 0,7.89532 -0.482421,-0.14852 -1.625022,0.36406 -1.492743,-0.4 -0.03287,-2.36776 0.09061,-4.74907 -0.08148,-7.10782 -0.341785,-1.35176 -2.456895,-1.41994 -2.944277,-0.13173 -0.663105,0.99118 -1.326211,1.98235 -1.989317,2.97353 -0.860393,-1.21927 -1.569798,-2.57244 -2.599609,-3.65625 -1.077194,-0.81327 -2.68677,0.36787 -2.414063,1.63711 1e-6,2.22838 0,4.45677 0,6.68516 -0.481993,-0.14852 -1.626071,0.36406 -1.491589,-0.4 0.03561,-3.96741 -0.0835,-7.94265 0.07628,-11.9049 0.130267,-0.62337 0.37662,-1.69095 1.167259,-1.685341 z m 82.205074,1.080081 c -1.92905,0.0442 -3.87389,-0.0836 -5.79297,0.0703 -1.75679,0.50509 -2.31417,2.5972 -2.22664,4.22185 0.0393,1.72699 -0.18251,3.49787 0.21992,5.19114 0.33152,1.32809 1.54648,2.56298 3.0075,2.31078 1.88512,-0.0418 3.78243,0.0963 5.65938,-0.0851 1.78163,-0.64091 2.26025,-2.77972 2.13328,-4.47057 -0.0762,-1.92563 0.3507,-4.0114 -0.5825,-5.79115 -0.4624,-0.87529 -1.38586,-1.575186 -2.41797,-1.44726 z m -30.546871,2.67187 c -0.08329,0.21187 -0.08298,-0.2203 0,0 z m -56,0.62891 c -0.05582,1.77296 0.0041,3.55215 -0.01758,5.32812 -0.36239,-0.14152 -1.224197,0.1478 -1.277344,-0.16992 0.185803,-1.26539 -0.0087,-2.55777 0.08789,-3.83398 0.07077,-0.4499 -0.193503,-1.16499 -0.03478,-1.44134 0.336388,0.0895 1.161391,-0.21307 1.241815,0.11712 z m 86.310551,-0.11133 c 0.31993,1.2553 0.0246,2.57081 0.12963,3.85192 0.0107,0.52188 0.0615,1.06471 -0.11792,1.56605 -1.51822,0 -3.03645,0 -4.55468,0 -0.32971,-1.21266 -0.0284,-2.49164 -0.12974,-3.7316 -0.005,-0.56258 -0.0763,-1.14415 0.11606,-1.68637 1.51889,0 3.03777,0 4.55665,0 z m 24.27734,4.83203 c 0.61885,0.41529 0.63684,0.85577 -0.0187,0.50559 0.0911,-0.12638 -0.21736,-0.88377 0.0187,-0.50559 z" /><g
         id="g1137"
         transform="matrix(0.9993528,0,0,1.0720431,-1.9699385,-25.038234)"><g
           aria-label="EMULATORS"
           transform="matrix(0.84736515,0,0,1.1801288,4.1626821,-2.199208)"
           id="text113"
           style="font-size:17.0079px;font-family:dsrom10;-inkscape-font-specification:dsrom10;fill:#fcd072;fill-opacity:1;stroke-width:0.19931"><path
             id="path704"
             style="font-family:DooM;-inkscape-font-specification:DooM;fill:url(#linearGradient632);fill-opacity:1"
             d="m 189.40878,107.96163 q 0,1.89128 -1.18375,3.07503 -1.17015,1.18375 -3.06143,1.18375 h -13.44304 v -3.40158 h 10.88506 q 0.42179,0 0.72113,-0.2177 0.29934,-0.23131 0.29934,-0.6395 0,-0.39458 -0.31295,-0.61228 -0.29933,-0.23131 -0.70752,-0.23131 h -6.62628 q -1.90489,0 -3.08864,-1.17014 -1.17014,-1.18375 -1.17014,-3.08864 0,-1.90488 1.17014,-3.075023 1.18375,-1.170144 3.08864,-1.170144 h 13.42944 v 3.401577 h -10.88506 q -0.39458,0 -0.70753,0.23131 -0.31294,0.23131 -0.31294,0.61228 0,0.39459 0.32655,0.6395 0.28573,0.2177 0.69392,0.2177 h 6.63988 q 1.90489,0 3.07503,1.17015 1.17015,1.17014 1.17015,3.07502 z m -19.389,4.25878 h -5.78269 v -4.25878 q 0,-0.84359 -1.02047,-0.84359 h -5.44253 v 5.10237 h -5.44253 v -8.50395 h 10.88506 q 0.42179,0 0.72113,-0.2177 0.29934,-0.23131 0.29934,-0.6395 0,-0.39458 -0.31295,-0.61228 -0.29933,-0.23131 -0.70752,-0.23131 h -10.88506 v -3.401577 h 13.44304 q 1.90489,0 3.07503,1.170144 1.17015,1.170143 1.17015,3.075023 0,1.59194 -1.18375,2.55799 1.18375,0.96605 1.18375,2.54438 z m -19.38901,-6.80316 q 0,3.11585 -1.85046,4.96631 -1.83685,1.83685 -4.9527,1.83685 h -6.63988 q -3.10224,0 -4.9527,-1.85046 -1.85046,-1.85046 -1.85046,-4.9527 0,-3.11584 1.83685,-4.9527 1.85046,-1.850457 4.96631,-1.850457 h 6.63988 q 3.11585,0 4.9527,1.850457 1.85046,1.83686 1.85046,4.9527 z m -5.44252,1.70079 v -3.40158 q 0,-0.55786 -0.39459,-1.10211 -0.42179,-0.59868 -0.96605,-0.59868 h -6.63988 q -0.54425,0 -0.96605,0.59868 -0.39458,0.54425 -0.39458,1.10211 v 3.40158 q 0,0.55786 0.39458,1.10212 0.4218,0.59867 0.96605,0.59867 h 6.63988 q 0.54426,0 0.96605,-0.59867 0.39459,-0.54426 0.39459,-1.10212 z m -16.50446,-5.10237 h -4.0819 v 10.20474 h -5.44252 v -10.20474 h -4.0819 v -3.401577 h 13.60632 z m -14.66763,10.20474 h -5.44253 v -5.10237 h -3.06142 v -3.40158 h 3.06142 v -1.70079 h -2.04095 q -0.92523,0 -1.53751,1.70079 l -3.06142,8.50395 h -5.619415 l 2.734871,-7.48347 q 2.231434,-6.122847 7.483474,-6.122847 h 3.2247 q 2.28586,0 3.40158,1.18375 0.8572,0.898017 0.8572,2.217827 z m -18.545414,0 h -7.98691 q -1.904885,0 -3.088635,-1.17014 -1.170143,-1.18375 -1.170143,-3.08864 v -9.347537 h 5.442528 v 8.503947 q 0,0.55786 0.394583,1.10212 0.421796,0.59867 0.966049,0.59867 h 5.442528 z m -13.946468,-6.80316 q 0,3.11585 -1.85046,4.96631 -1.836853,1.83685 -4.9527,1.83685 h -4.081896 q -3.102241,0 -4.952701,-1.85046 -1.85046,-1.85046 -1.85046,-4.9527 v -6.803157 h 5.442529 v 8.503947 q 0,0.55786 0.394583,1.10212 0.421796,0.59867 0.966049,0.59867 h 4.081896 q 0.544252,0 0.966048,-0.59867 0.394584,-0.54426 0.394584,-1.10212 v -8.503947 h 5.442528 z m -19.388994,6.80316 h -5.442528 v -6.80316 l -4.081897,4.0819 -4.081896,-4.0819 v 6.80316 h -5.442528 v -10.20474 q 0,-1.53751 0.92523,-2.462741 0.938836,-0.938836 2.47635,-0.938836 0.952443,0 2.217831,1.020474 l 3.905013,3.905013 3.918621,-3.905013 q 1.251781,-1.020474 2.204224,-1.020474 1.537514,0 2.462743,0.938836 0.938837,0.925231 0.938837,2.462741 z m -20.749631,0 h -9.524424 q -3.102241,0 -4.9527,-1.85046 -1.85046,-1.85046 -1.85046,-4.9527 0,-3.11584 1.836853,-4.9527 1.85046,-1.850457 4.966307,-1.850457 h 9.524424 v 3.401577 h -9.524424 q -0.544252,0 -0.966048,0.59868 -0.394584,0.54425 -0.394584,1.10211 l 7.483476,0.0136 v 3.38797 h -7.483476 q 0,0.55786 0.394584,1.10212 0.421796,0.59867 0.966048,0.59867 h 9.524424 z" /></g><path
           id="path423"
           style="font-size:17.0079px;font-family:DooM;-inkscape-font-specification:DooM;fill:url(#linearGradient1126);fill-opacity:1;stroke-width:0.19931"
           d="m 25.555546,124.3459 c 0.22465,1.46593 0.690198,2.70506 1.4087,3.70572 1.045341,1.45585 2.444157,2.18384 4.196643,2.18384 h 8.070308 v -4.01422 h -8.070308 c -0.307453,0 -0.580279,-0.23593 -0.818555,-0.70694 -0.200527,-0.38521 -0.305947,-0.77454 -0.326078,-1.1684 z m 15.116907,0 v 5.88956 h 4.612121 v -5.88956 z m 6.147945,0 1.92288,2.67787 1.92288,-2.67787 z m 5.381584,0 v 5.88956 h 4.612121 v -5.88956 z m 6.21254,0 c 0.22465,1.46593 0.690198,2.70506 1.4087,3.70572 1.045342,1.45585 2.444157,2.18384 4.196643,2.18384 h 3.458704 c 1.760171,0 3.159504,-0.72268 4.197159,-2.16782 0.719897,-1.00261 1.185608,-2.24698 1.409733,-3.72174 h -4.46226 c -0.02013,0.39387 -0.125551,0.7832 -0.326078,1.1684 -0.238276,0.47101 -0.511101,0.70694 -0.818554,0.70694 h -3.458704 c -0.307454,0 -0.580278,-0.23593 -0.818555,-0.70694 -0.200526,-0.3852 -0.305947,-0.77453 -0.326078,-1.1684 z m 16.270325,0 v 0.86351 c 0,1.49868 0.330129,2.71394 0.991154,3.64526 0.668712,0.9206 1.541324,1.38079 2.617411,1.38079 h 6.768063 v -4.01422 h -4.612122 c -0.307454,0 -0.580278,-0.23593 -0.818555,-0.70694 -0.200527,-0.38521 -0.305949,-0.77453 -0.326078,-1.1684 z m 12.636438,0 -1.545125,5.88956 h 4.761466 l 1.522388,-5.88956 z m 8.842871,0 v 5.88956 h 4.611604 v -5.88956 z m 8.969994,0 v 5.88956 h 4.61161 v -5.88956 z m 9.67125,0 c 0.22464,1.46593 0.6902,2.70506 1.4087,3.70572 1.04534,1.45585 2.44415,2.18384 4.19664,2.18384 h 5.62653 c 1.76017,0 3.15898,-0.72268 4.19664,-2.16782 0.7199,-1.00261 1.18613,-2.24698 1.41025,-3.72174 h -4.46226 c -0.0201,0.39387 -0.12555,0.7832 -0.32608,1.1684 -0.23827,0.47101 -0.51109,0.70694 -0.81855,0.70694 h -5.62653 c -0.30745,0 -0.58028,-0.23593 -0.81856,-0.70694 -0.20052,-0.3852 -0.30594,-0.77453 -0.32607,-1.1684 z m 18.43763,0 v 5.88956 h 4.61212 v -5.88956 z m 9.73584,0 c 0.23433,0.15336 0.35243,0.44036 0.35243,0.86351 v 5.02605 h 4.89996 v -5.02605 c 0,-0.30226 -0.0203,-0.58979 -0.0599,-0.86351 z m 16.34784,0 c 0.0591,0.0392 0.11595,0.084 0.16898,0.14108 0.17679,0.17127 0.2651,0.412 0.2651,0.72243 0,0.32115 -0.0841,0.57249 -0.25321,0.75448 -0.16911,0.17127 -0.37306,0.25735 -0.61134,0.25735 h -9.22372 v 4.01422 h 11.39155 c 1.0684,0 1.93312,-0.46602 2.59416,-1.39733 0.66871,-0.93132 1.00304,-2.14075 1.00304,-3.62872 0,-0.30058 -0.0168,-0.58618 -0.0434,-0.86351 z" /></g><path
         style="color:#000000;-inkscape-font-specification:DooM;fill:url(#linearGradient1961);fill-opacity:1;stroke-width:1.03506;stroke-linecap:round;stroke-linejoin:round;-inkscape-stroke:none"
         d="m 29.171315,96.830046 c -1.896657,0 -3.490162,0.888552 -4.612247,2.564949 -1.114977,1.665785 -1.649323,3.873185 -1.649323,6.576735 0,2.69299 0.539285,4.90293 1.661033,6.57883 1.121747,1.67589 2.710957,2.56495 4.600537,2.56495 h 8.065088 a 0.49922665,0.53553909 0 0 0 0.499677,-0.53602 v -4.30284 a 0.49922665,0.53553909 0 0 0 -0.499677,-0.53602 h -8.065088 c -0.02617,0 -0.04316,0.002 -0.109305,-0.0586 -0.06614,-0.0612 -0.163959,-0.19304 -0.263501,-0.40412 a 0.49922665,0.53553909 0 0 0 -0.0039,-0.006 c -0.10154,-0.20924 -0.103051,-0.40884 -0.148342,-0.6114 h 5.709193 a 0.49922665,0.53553909 0 0 0 0.499677,-0.53602 v -4.28608 a 0.49922665,0.53553909 0 0 0 -0.497725,-0.53602 l -5.711145,-0.0147 c 0.04526,-0.2032 0.04648,-0.40358 0.148342,-0.61349 a 0.49922665,0.53553909 0 0 0 0.0039,-0.006 c 0.09955,-0.21109 0.19736,-0.34287 0.263501,-0.40412 0.06614,-0.0612 0.08314,-0.0586 0.109305,-0.0586 h 8.065088 a 0.49922665,0.53553909 0 0 0 0.499677,-0.53602 v -4.302827 a 0.49922665,0.53553909 0 0 0 -0.499677,-0.536021 z m 12.386509,0 c -1.009496,0 -1.898925,0.506905 -2.504237,1.411248 -0.598739,0.894513 -0.876387,2.053696 -0.876387,3.427606 v 12.91059 a 0.49922665,0.53553909 0 0 0 0.499677,0.53602 h 4.608344 a 0.49922665,0.53553909 0 0 0 0.499677,-0.53602 v -6.94106 l 2.551081,3.81077 a 0.49922665,0.53553909 0 0 0 0.811975,0 l 2.551081,-3.81077 v 6.94106 a 0.49922665,0.53553909 0 0 0 0.499677,0.53602 h 4.608343 a 0.49922665,0.53553909 0 0 0 0.499677,-0.53602 V 101.6689 c 0,-1.37202 -0.281394,-2.531838 -0.886144,-3.425515 l -0.002,-0.0021 c -0.597621,-0.904408 -1.48398,-1.411238 -2.492527,-1.411238 -0.785983,0 -1.492546,0.560711 -2.240737,1.471958 a 0.49922665,0.53553909 0 0 0 -0.02928,0.04192 l -2.914128,4.334245 -2.902418,-4.334245 a 0.49922665,0.53553909 0 0 0 -0.03123,-0.04395 c -0.755729,-0.91053 -1.464512,-1.469868 -2.250495,-1.469868 z m 14.689705,0 a 0.49922665,0.53553909 0 0 0 -0.499676,0.536022 v 8.605662 c 0,2.69299 0.539286,4.90293 1.661033,6.57883 1.121748,1.67589 2.710958,2.56495 4.600537,2.56495 h 3.456745 c 1.895646,0 3.483607,-0.88242 4.598585,-2.5482 1.122086,-1.6764 1.661033,-3.89146 1.661033,-6.59558 V 97.366068 A 0.49922665,0.53553909 0 0 0 71.22611,96.830046 h -4.608343 a 0.49922665,0.53553909 0 0 0 -0.499677,0.536022 v 10.758122 c 0,0.37986 -0.08665,0.75484 -0.277164,1.14742 a 0.49922665,0.53553909 0 0 0 -0.0039,0.006 c -0.09955,0.21109 -0.19736,0.34288 -0.263501,0.40412 -0.06614,0.0612 -0.08118,0.0586 -0.107353,0.0586 h -3.456745 c -0.02617,0 -0.04316,0.002 -0.109304,-0.0586 -0.06614,-0.0612 -0.16396,-0.19303 -0.263502,-0.40412 a 0.49922665,0.53553909 0 0 0 -0.0039,-0.006 c -0.190507,-0.39258 -0.277165,-0.76756 -0.277165,-1.14742 V 97.366068 A 0.49922665,0.53553909 0 0 0 60.85588,96.830046 Z m 16.419054,0 a 0.49922665,0.53553909 0 0 0 -0.499676,0.536022 v 11.825982 c 0,1.68537 0.349536,3.10802 1.083283,4.21698 a 0.49922665,0.53553909 0 0 0 0.0039,0.004 c 0.743102,1.09743 1.801786,1.70229 3.019528,1.70229 h 6.763198 a 0.49922665,0.53553909 0 0 0 0.296683,-0.31827 0.49922665,0.53553909 0 0 0 0.417699,0.31827 h 4.758637 a 0.49922665,0.53553909 0 0 0 0.48211,-0.40202 l 2.049453,-8.49888 v 1.90958 a 0.49922665,0.53553909 0 0 0 0.497725,0.53602 h 2.094347 v 5.91928 a 0.49922665,0.53553909 0 0 0 0.497724,0.53602 h 4.610296 a 0.49922665,0.53553909 0 0 0 0.497724,-0.53602 v -12.80391 a 0.49922665,0.53553909 0 0 0 0.400132,0.42924 h 2.957074 v 12.37457 a 0.49922665,0.53553909 0 0 0 0.49968,0.53602 h 4.60834 a 0.49922665,0.53553909 0 0 0 0.49967,-0.53602 v -12.37457 h 2.95708 a 0.49922665,0.53553909 0 0 0 0.49967,-0.53602 v -4.302832 a 0.49922665,0.53553909 0 0 0 -0.49967,-0.536022 H 99.63935 a 0.49922665,0.53553909 0 0 0 -0.499676,0.536022 v 3.921762 c -0.05713,-1.01677 -0.23078,-1.971694 -0.710478,-2.724086 l -0.002,-0.0021 C 97.708554,97.424087 96.543872,96.8298 95.134454,96.8298 H 92.4038 c -1.617581,0 -3.050276,0.734553 -4.182838,2.118968 -1.132562,1.384402 -1.994952,3.396272 -2.636964,6.028142 l -2.047502,8.36487 v -3.06538 a 0.49922665,0.53553909 0 0 0 -0.499677,-0.53602 h -4.608343 c -0.02617,0 -0.04316,0.002 -0.109305,-0.0586 -0.06614,-0.0612 -0.163958,-0.19303 -0.263501,-0.40412 a 0.49922665,0.53553909 0 0 0 -0.0039,-0.006 c -0.190506,-0.39258 -0.277165,-0.76756 -0.277165,-1.14742 V 97.366068 a 0.49922665,0.53553909 0 0 0 -0.499676,-0.536022 z m 45.696967,0 c -1.89666,0 -3.49016,0.888552 -4.61225,2.564949 -1.11497,1.665785 -1.64932,3.873185 -1.64932,6.576735 0,2.69299 0.53929,4.90293 1.66103,6.57883 1.12175,1.67589 2.71097,2.56495 4.60054,2.56495 h 5.62136 c 1.89565,0 3.48556,-0.88242 4.60054,-2.5482 1.12209,-1.6764 1.66104,-3.89146 1.66104,-6.59558 0,-2.70294 -0.53881,-4.91122 -1.66104,-6.576735 l -0.002,-0.0021 c -1.11433,-1.675593 -2.70291,-2.562848 -4.59859,-2.562848 z m 12.82374,0 a 0.49922665,0.53553909 0 0 0 -0.49968,0.536022 v 4.302832 a 0.49922665,0.53553909 0 0 0 0.49968,0.53602 h 9.21668 c 0.0991,0 0.14226,0.0152 0.23423,0.12145 a 0.49922665,0.53553909 0 0 0 0.0176,0.0209 c 0.0685,0.0711 0.11321,0.1583 0.11321,0.38945 0,0.24671 -0.0494,0.35775 -0.11711,0.43761 -0.0819,0.0868 -0.1331,0.11098 -0.24789,0.11098 h -9.21668 a 0.49922665,0.53553909 0 0 0 -0.49968,0.53602 v 10.75813 a 0.49922665,0.53553909 0 0 0 0.49968,0.53602 h 4.60833 a 0.49922665,0.53553909 0 0 0 0.49968,-0.53602 v -5.91928 h 4.10867 c 0.19226,0 0.23533,0.0372 0.27131,0.0817 0.036,0.0445 0.0936,0.17195 0.0936,0.45018 v 5.38744 a 0.49922665,0.53553909 0 0 0 0.49968,0.53602 h 4.89722 a 0.49922665,0.53553909 0 0 0 0.49967,-0.53602 v -5.38744 c 0,-1.2694 -0.34339,-2.34135 -0.9408,-3.22032 0.59812,-0.88083 0.9408,-1.95578 0.9408,-3.23497 0,-1.68537 -0.34979,-3.103568 -1.08523,-4.202326 -0.73545,-1.098769 -1.79203,-1.704388 -3.00977,-1.704388 z m 20.02413,0 c -1.21774,0 -2.27447,0.602756 -3.01758,1.700196 a 0.49922665,0.53553909 0 0 0 -0.002,0.0043 c -0.73544,1.098759 -1.08523,2.516958 -1.08523,4.202318 0,1.68538 0.34954,3.10802 1.08329,4.21699 a 0.49922665,0.53553909 0 0 0 0.004,0.004 c 0.74311,1.09744 1.79984,1.70229 3.01758,1.70229 h 5.6116 c 0.0991,0 0.14226,0.0152 0.23422,0.12144 a 0.49922665,0.53553909 0 0 0 0.0176,0.0189 c 0.0685,0.0711 0.11321,0.1604 0.11321,0.39155 0,0.24561 -0.0498,0.35569 -0.11711,0.43552 -0.0818,0.0868 -0.13309,0.11305 -0.24789,0.11305 h -9.21669 a 0.49922665,0.53553909 0 0 0 -0.49967,0.53603 v 4.30283 a 0.49922665,0.53553909 0 0 0 0.49967,0.53603 h 11.38326 c 1.21181,0 2.26406,-0.61331 2.99806,-1.72114 0.74174,-1.10817 1.09694,-2.52694 1.09694,-4.20232 0,-1.68537 -0.34977,-3.10357 -1.08523,-4.20232 -0.73544,-1.09877 -1.79203,-1.70439 -3.00977,-1.70439 h -5.62332 c -0.10685,0 -0.14452,-0.0158 -0.22446,-0.10678 a 0.49922665,0.53553909 0 0 0 -0.002,-0.004 c -0.0917,-0.1028 -0.13858,-0.21086 -0.13858,-0.4376 0,-0.21605 0.0437,-0.31232 0.12492,-0.40202 0.10361,-0.11442 0.15316,-0.12981 0.24007,-0.12982 h 9.21864 a 0.49922665,0.53553909 0 0 0 0.49968,-0.53603 v -4.302821 a 0.49922665,0.53553909 0 0 0 -0.49968,-0.536021 z M 29.171315,97.899999 h 7.565412 v 3.232871 h -7.565412 c -0.281082,1e-5 -0.554679,0.12913 -0.761226,0.32036 -0.205217,0.19001 -0.361749,0.4352 -0.499677,0.72657 -0.255016,0.5255 -0.390372,1.08039 -0.390372,1.64156 a 0.49922665,0.53553909 0 0 0 0.497725,0.53392 l 5.838016,0.0167 v 3.21614 h -5.838016 a 0.49922665,0.53553909 0 0 0 -0.497725,0.53601 c 0,0.56117 0.135357,1.11605 0.390372,1.64157 0.137742,0.29065 0.29484,0.53691 0.499677,0.72656 0.206547,0.19123 0.480147,0.31826 0.761226,0.31826 h 7.565412 v 3.23288 h -7.565412 c -1.613124,0 -2.820979,-0.67129 -3.788563,-2.11686 -0.967584,-1.44558 -1.473655,-3.41478 -1.473655,-5.95487 0,-2.55245 0.502953,-4.52003 1.461945,-5.95278 0.967245,-1.445067 2.178864,-2.118953 3.800273,-2.118953 z m 12.386509,0 c 0.287864,0 0.829049,0.304417 1.497077,1.105544 l 3.281078,4.903757 a 0.49922665,0.53553909 0 0 0 0.810023,0 l 3.298645,-4.905847 c 0.659424,-0.798737 1.193864,-1.103454 1.481462,-1.103454 0.726493,0 1.231579,0.285485 1.6786,0.963166 a 0.49922665,0.53553909 0 0 0 0.0039,0.0064 c 0.452519,0.666265 0.698765,1.580935 0.698765,2.799465 v 12.37456 h -3.608991 v -8.07174 a 0.49922665,0.53553909 0 0 0 -0.905663,-0.31198 l -3.050759,4.55828 -3.050758,-4.55828 a 0.49922665,0.53553909 0 0 0 -0.905663,0.31198 v 8.07174 H 39.176553 V 101.669 c 0,-1.21965 0.24308,-2.137416 0.689008,-2.803637 0.454715,-0.679343 0.96577,-0.965257 1.692263,-0.965257 z m 15.189382,0 h 3.610942 v 10.224191 c 0,0.56117 0.13536,1.11605 0.390373,1.64157 0.137741,0.29065 0.29484,0.53691 0.499676,0.72656 0.206547,0.19124 0.480146,0.31826 0.761226,0.31826 h 3.456745 c 0.28108,0 0.552726,-0.12702 0.759275,-0.31826 0.204836,-0.18965 0.361934,-0.43591 0.499676,-0.72656 0.255014,-0.52552 0.392324,-1.0804 0.392324,-1.64157 V 97.899999 h 3.608991 v 8.071731 c 0,2.55189 -0.504458,4.52654 -1.471703,5.97162 -0.958991,1.43274 -2.166141,2.10012 -3.788563,2.10012 h -3.456745 c -1.613124,0 -2.820978,-0.67129 -3.788562,-2.11687 -0.967585,-1.44558 -1.473655,-3.41478 -1.473655,-5.95487 z m 16.419054,0 h 3.60899 v 10.224191 c 0,0.56117 0.137311,1.11605 0.392324,1.64157 0.137742,0.29065 0.29484,0.53691 0.499677,0.72656 0.206548,0.19124 0.480146,0.31826 0.761226,0.31826 h 4.108667 v 3.23289 h -6.263522 c -0.93304,0 -1.618003,-0.38197 -2.211458,-1.2584 -0.585894,-0.88745 -0.895904,-2.06719 -0.895904,-3.59302 z m 19.237541,0 h 2.730654 c 1.170463,0 1.925966,0.40475 2.467152,1.262577 a 0.49922665,0.53553909 0 0 0 0.002,0.0043 c 0.419456,0.656509 0.638258,1.472204 0.638258,2.502134 v 12.37456 h -3.610942 v -5.91927 a 0.49922665,0.53553909 0 0 0 -0.499677,-0.53602 H 92.03885 v -3.23288 h 2.092395 a 0.49922665,0.53553909 0 0 0 0.499677,-0.53393 V 101.669 a 0.49922665,0.53553909 0 0 0 -0.499677,-0.53602 h -1.727397 c -0.474158,0 -0.869191,0.34218 -1.135983,0.7831 -0.266792,0.44091 -0.469516,1.02249 -0.649969,1.77138 l -2.494479,10.3561 h -3.726103 l 2.152903,-8.7962 c 0.617731,-2.53233 1.440495,-4.39493 2.420307,-5.59263 0.979814,-1.197687 2.0859,-1.754635 3.433324,-1.754635 z m 7.735229,0 h 10.52443 v 3.232871 h -2.95902 a 0.49922665,0.53553909 0 0 0 -0.49772,0.53603 v 12.37457 h -3.61094 V 101.6689 a 0.49922665,0.53553909 0 0 0 -0.49968,-0.53603 h -2.95707 z m 18.22452,0 h 5.62136 c 1.62141,0 2.82901,0.672664 3.78857,2.116871 a 0.49922665,0.53553909 0 0 0 0.002,0.004 c 0.96611,1.43277 1.4717,3.3988 1.4717,5.95068 0,2.55189 -0.50641,4.52654 -1.47365,5.97161 -0.959,1.43274 -2.16615,2.10012 -3.78857,2.10012 h -5.62136 c -1.61312,0 -2.82098,-0.67129 -3.78856,-2.11686 -0.96759,-1.44558 -1.47366,-3.41478 -1.47366,-5.95487 0,-2.55244 0.50295,-4.52002 1.46194,-5.95277 0.96726,-1.445068 2.17887,-2.118965 3.80028,-2.118965 z m 13.32341,0 h 10.88358 c 0.93303,0 1.61399,0.383277 2.19974,1.258396 0.58575,0.875105 0.89591,2.050455 0.89591,3.578365 0,1.24738 -0.29989,2.17584 -0.87834,2.88111 a 0.49922665,0.53553909 0 0 0 0,0.70772 c 0.57922,0.70622 0.87834,1.63137 0.87834,2.86646 v 4.85142 h -3.89787 v -4.85142 c 0,-0.43327 -0.0875,-0.8403 -0.33963,-1.15161 -0.25205,-0.31131 -0.64089,-0.45227 -1.02472,-0.45227 h -4.60835 a 0.49922665,0.53553909 0 0 0 -0.49967,0.53602 v 5.91928 h -3.60899 v -9.68819 h 8.71701 c 0.35773,0 0.71483,-0.16032 0.96617,-0.43341 a 0.49922665,0.53553909 0 0 0 0.0117,-0.0125 c 0.26866,-0.31017 0.38647,-0.73429 0.38647,-1.17255 0,-0.42888 -0.13444,-0.84968 -0.41184,-1.14533 -0.24561,-0.27712 -0.59583,-0.45856 -0.95251,-0.45856 h -8.71701 z m 19.52446,0 h 10.87382 v 3.232871 h -8.71897 c -0.35859,1e-5 -0.70667,0.18069 -0.95641,0.45647 -0.27209,0.30048 -0.40598,0.72082 -0.40598,1.14742 0,0.43887 0.13879,0.86849 0.41575,1.17883 0.24259,0.27416 0.5941,0.43969 0.94664,0.43969 h 5.62332 c 0.93305,0 1.61205,0.38329 2.1978,1.25841 0.58575,0.87511 0.89785,2.05046 0.89785,3.57836 0,1.51494 -0.31279,2.6897 -0.90762,3.57837 a 0.49922665,0.53553909 0 0 0 -0.002,0.002 c -0.58714,0.88737 -1.26343,1.27096 -2.18609,1.27096 h -10.88358 v -3.23288 h 8.71701 c 0.35773,0 0.71483,-0.16033 0.96618,-0.43343 a 0.49922665,0.53553909 0 0 0 0.0117,-0.0125 c 0.26867,-0.31017 0.38647,-0.73429 0.38647,-1.17255 0,-0.42889 -0.13442,-0.84968 -0.41184,-1.14533 -0.2456,-0.27712 -0.59583,-0.45856 -0.95251,-0.45856 h -5.6116 c -0.9311,0 -1.61495,-0.38164 -2.20755,-1.2542 -0.58744,-0.88786 -0.89786,-2.06929 -0.89786,-3.59721 0,-1.52666 0.30914,-2.70139 0.89395,-3.57627 l 0.002,-0.0021 c 0.59303,-0.874498 1.27743,-1.258396 2.2095,-1.258396 z m -32.84787,3.232871 c -0.28108,1e-5 -0.55467,0.12913 -0.76122,0.32036 -0.20522,0.19001 -0.36175,0.4352 -0.49968,0.72657 -0.25502,0.5255 -0.39037,1.08039 -0.39037,1.64156 v 4.30283 c 0,0.56117 0.13536,1.11605 0.39037,1.64157 0.13774,0.29065 0.29484,0.53691 0.49968,0.72656 0.20655,0.19124 0.48014,0.31826 0.76122,0.31826 h 5.62136 c 0.28109,0 0.55468,-0.12702 0.76123,-0.31826 0.20484,-0.18965 0.36193,-0.43591 0.49967,-0.72656 0.25502,-0.52552 0.39038,-1.0804 0.39038,-1.64157 v -4.30283 c 0,-0.56117 -0.13535,-1.11606 -0.39038,-1.64156 -0.13792,-0.29137 -0.29445,-0.53656 -0.49967,-0.72657 -0.20655,-0.19123 -0.48014,-0.32035 -0.76123,-0.32036 z m -25.959749,1.07205 h 1.229673 v 1.08042 h -1.809376 c 0.09555,-0.27242 0.190716,-0.63796 0.281068,-0.78728 0.167205,-0.27633 0.250461,-0.29314 0.298635,-0.29314 z m 25.959749,0 h 5.62136 c 0.0262,0 0.0432,-0.002 0.10931,0.0586 0.0662,0.0612 0.16396,0.19303 0.2635,0.40411 a 0.49922665,0.53553909 0 0 0 0.004,0.006 c 0.1905,0.39257 0.27716,0.76756 0.27716,1.14742 v 4.30282 c 0,0.37986 -0.0867,0.75484 -0.27716,1.14742 a 0.49922665,0.53553909 0 0 0 -0.004,0.006 c -0.0995,0.21109 -0.19736,0.34289 -0.2635,0.40412 -0.0662,0.0612 -0.0832,0.0586 -0.10931,0.0586 h -5.62136 c -0.0262,0 -0.0432,0.002 -0.1093,-0.0586 -0.0661,-0.0612 -0.16396,-0.19303 -0.2635,-0.40412 a 0.49922665,0.53553909 0 0 0 -0.004,-0.006 c -0.19051,-0.39258 -0.27716,-0.76756 -0.27716,-1.14742 V 103.821 c 0,-0.37987 0.0866,-0.75486 0.27716,-1.14743 a 0.49922665,0.53553909 0 0 0 0.004,-0.006 c 0.0995,-0.21107 0.19736,-0.34287 0.2635,-0.40411 0.0662,-0.0612 0.0832,-0.0586 0.1093,-0.0586 z"
         id="path1928" /></g></g></svg>
