<?xml version="1.0" encoding="UTF-8" standalone="no"?>
<!-- Generator: Adobe Illustrator 13.0.0, SVG Export Plug-In . SVG Version: 6.00 Build 14948)  -->

<svg
   version="1.2"
   id="Layer_3"
   x="0px"
   y="0px"
   width="200.7041"
   height="334.16153"
   viewBox="0 0 200.70409 334.16152"
   xml:space="preserve"
   sodipodi:docname="controller.svg"
   inkscape:version="1.1.2 (0a00cf5339, 2022-02-04)"
   xmlns:inkscape="http://www.inkscape.org/namespaces/inkscape"
   xmlns:sodipodi="http://sodipodi.sourceforge.net/DTD/sodipodi-0.dtd"
   xmlns="http://www.w3.org/2000/svg"
   xmlns:svg="http://www.w3.org/2000/svg"
   xmlns:rdf="http://www.w3.org/1999/02/22-rdf-syntax-ns#"
   xmlns:cc="http://creativecommons.org/ns#"
   xmlns:dc="http://purl.org/dc/elements/1.1/"
   xmlns:ns="&amp;ns_sfw;"><defs
   id="defs58">
	

	

	

	
</defs><sodipodi:namedview
   id="namedview56"
   pagecolor="#ffffff"
   bordercolor="#666666"
   borderopacity="1.0"
   inkscape:pageshadow="2"
   inkscape:pageopacity="0.0"
   inkscape:pagecheckerboard="0"
   showgrid="false"
   showguides="true"
   inkscape:guide-bbox="true"
   fit-margin-top="0"
   fit-margin-left="0"
   fit-margin-right="0"
   fit-margin-bottom="0"
   inkscape:zoom="0.36288026"
   inkscape:cx="-863.92133"
   inkscape:cy="-166.72166"
   inkscape:window-width="1920"
   inkscape:window-height="996"
   inkscape:window-x="0"
   inkscape:window-y="0"
   inkscape:window-maximized="1"
   inkscape:current-layer="Layer_3"><sodipodi:guide
     position="55.549517,140.81574"
     orientation="0,-1"
     id="guide1139" /></sodipodi:namedview>
<metadata
   id="metadata55">
	<rdf:RDF>
		<cc:Work
   rdf:about="">
			<dc:format>image/svg+xml</dc:format>
			<dc:type
   rdf:resource="http://purl.org/dc/dcmitype/StillImage" />
			
		</cc:Work>
	</rdf:RDF>
	<ns:sfw>
		<ns:slices />
		<ns:sliceSourceBounds
   x="864.52"
   y="-7652"
   width="192.733"
   height="16383"
   bottomLeftOrigin="true" />
	</ns:sfw>
</metadata>
<path
   id="path3"
   style="fill:#000000"
   d="M 38.9747,0.02785139 C 30.0912,0.30338179 21.21782,0.88357479 12.36479,1.6528028 8.77544,2.0683658 5.10437,3.7426858 3.20802,6.9522448 0.86026,10.675811 0.81319,15.235614 0.78412,19.491796 0.44604,48.41873 0.37598,77.347939 0.21223,106.2762 0.12113,126.34706 0.00992,146.41815 0,166.48914 c 0.21845,33.91298 0.59907,67.8248 1.04891,101.73543 0.16345,10.75555 0.24995,21.51432 0.59735,32.26555 0.33138,5.9877 1.49163,12.20283 5.07453,17.15883 3.22571,4.42244 8.31048,7.10457 13.53229,8.41652 6.89928,1.85407 14.05449,2.38203 21.094,3.44954 7.87053,1.15957 15.71972,2.47882 23.63745,3.29038 9.14334,0.9959 18.34403,1.5 27.54251,1.32027 8.16355,-0.0175 16.32811,0.0412 24.49103,-0.0305 13.66453,-0.31884 27.22793,-2.20267 40.70692,-4.35317 7.46548,-1.1382 15.06958,-1.73009 22.43606,-3.57988 4.90959,-1.27527 9.76827,-3.5627 13.04119,-7.55844 3.80019,-4.56994 5.23526,-10.58441 5.7002,-16.3884 0.38261,-5.1136 0.31925,-10.2473 0.44901,-15.37106 0.57876,-36.95429 0.95243,-73.91151 1.29036,-110.86868 0.16662,-18.14433 -0.0483,-36.28896 -0.0972,-54.43335 -0.16889,-34.590243 -0.31104,-69.181403 -0.6422,-103.770228 -0.0981,-3.932389 -0.43486,-8.1469712 -2.8457,-11.4257812 -1.92782,-2.787175 -5.23949,-4.222197 -8.51161,-4.653222 -3.36522,-0.402517 -6.75683,-0.5418 -10.13544,-0.80348901 -7.72961,-0.536621 -15.47272,-0.9801021 -23.22443,-0.8735313 -38.73686,-0.00449 -77.4737,8.12e-4 -116.21055,0.011883 z M 97.00204,9.4341018 c 21.72951,0.01023 43.45974,-0.0296 65.1888,0.02825 8.25125,0.283467 16.42645,0.8298432 24.64519,1.5069112 1.08902,0.152082 2.62397,0.260957 2.93501,1.563646 0.93585,2.572886 0.62216,5.364944 0.74693,8.049208 0.36861,40.429967 0.49207,80.861633 0.70384,121.292603 0.057,12.76447 0.10153,25.52931 -0.0471,38.29334 -0.26428,32.23354 -0.64019,64.46615 -1.08479,96.69769 -1.02086,-1.68504 -2.89118,-2.81538 -4.85547,-2.94922 -0.87313,-2.10164 -2.97218,-3.65136 -5.24804,-3.81641 -0.99047,-2.81865 -4.20537,-4.57845 -7.11328,-3.88476 -2.17497,0.47269 -3.97975,2.22546 -4.60547,4.34961 -1.88658,-2.43331 -5.6931,-3.02658 -8.19661,-1.21532 -1.24085,0.8451 -2.16741,2.14871 -2.54167,3.60399 -1.49169,-2.22255 -4.48625,-3.27204 -7.022,-2.37092 -2.46386,0.79148 -4.23826,3.29887 -4.24363,5.84943 -2.73443,0.24099 -5.13388,2.48601 -5.47736,5.22033 -0.35931,2.4424 0.88421,5.07393 3.07111,6.25428 -2.40216,1.34198 -3.71087,4.36104 -2.91601,7.01758 0.3901,1.57614 1.64964,2.92731 2.90429,3.71875 -2.38296,1.32841 -3.68704,4.31349 -2.91434,6.95189 0.66366,2.50588 3.04879,4.43014 5.637,4.55983 0.71991,2.30988 2.90773,4.07864 5.3164,4.30078 0.7864,3.02532 4.11305,5.12319 7.18165,4.4043 2.28845,-0.43152 4.18594,-2.31582 4.74609,-4.56055 1.57598,2.20354 4.66315,3.15263 7.18359,2.11133 1.87391,-0.72543 3.30881,-2.4305 3.77539,-4.37696 1.70462,2.15007 4.90352,2.91075 7.36993,1.67943 2.34185,-1.06915 3.79684,-3.75764 3.53632,-6.26146 1.16202,-0.19566 2.30562,-0.65843 3.18555,-1.45703 -0.71318,3.28226 -2.16483,6.68035 -5.1083,8.54641 -3.39601,2.23142 -7.50338,2.87635 -11.41966,3.62208 -6.62782,1.06227 -13.30734,1.76984 -19.93102,2.86276 -3.77774,0.60224 -7.56262,1.1579 -11.35547,1.65625 -1.64734,0.20479 -3.51285,0.44082 -5.24734,0.63216 -8.74305,0.99736 -17.5438,1.53881 -26.34562,1.39377 -8.72794,-0.0488 -17.45712,0.0577 -26.18431,-0.0471 -12.19639,-0.34014 -24.28194,-1.91954 -36.34308,-3.84927 -6.65415,-1.0903 -13.37485,-1.73114 -20.01491,-2.90843 -3.95036,-0.80887 -8.18645,-1.60786 -11.29127,-4.38513 -2.56645,-2.35304 -3.57046,-5.88476 -4.12479,-9.21267 -0.0639,-0.39272 -0.13683,-0.93856 -0.19458,-1.45694 -0.45226,-4.15263 -0.3434,-8.33862 -0.48522,-12.50814 C 10.33251,262.41851 10.05747,234.49339 9.75523,206.56903 9.62628,191.25944 9.42866,175.94982 9.41959,160.63962 9.54838,119.78685 9.75227,78.934281 10.02279,38.082205 c 0.0807,-7.282514 0.0772,-14.568594 0.27002,-21.848243 0.14124,-1.554553 0.11572,-3.34365 1.19523,-4.580855 1.35232,-0.843531 3.04441,-0.666333 4.56734,-0.870728 7.80622,-0.580027 15.55978,-1.1274882 23.3947,-1.3366182 19.18399,-0.01204 38.36796,-0.01581 57.55195,-0.01162 z m -3.10937,3.6464842 c -21.99067,0.09346 -43.98211,0.214489 -65.97063,0.530228 -3.66969,0.09078 -7.55232,-0.11451 -10.93953,1.540084 -2.76826,1.415588 -4.60479,4.272922 -5.03586,7.319362 -0.52197,3.10511 -0.17505,6.264779 -0.28584,9.3947 -0.0257,38.790682 -0.13279,77.58166 -0.02,116.37219 0.0796,3.65977 -0.17497,7.44937 1.0462,10.96104 1.15064,3.048 3.85654,5.30405 6.90912,6.30882 5.39051,1.92586 11.15786,2.3106 16.81049,2.86101 11.609,0.96829 23.2496,1.50383 34.88694,2.00416 11.32018,0.47708 22.65093,0.71058 33.98153,0.60915 11.51171,-0.0329 23.01437,-0.55728 34.51284,-1.06574 9.91592,-0.49724 19.83529,-1.05354 29.7161,-2.04398 4.40642,-0.50796 8.88398,-1.14865 12.98209,-2.92739 2.98435,-1.38723 5.38327,-4.12577 5.98496,-7.40719 0.7587,-3.48337 0.50552,-7.07515 0.59569,-10.61347 0.0959,-39.17767 -0.005,-78.355509 -0.0358,-117.533195 -0.0822,-3.143383 0.29628,-6.429351 -0.9793,-9.400372 -0.99883,-2.674282 -3.31964,-4.733441 -6.05041,-5.521432 -3.29261,-1.010703 -6.78552,-0.75393 -10.1837,-0.877553 -21.6144,-0.296953 -43.23091,-0.423748 -64.84707,-0.507467 -4.35923,-0.01426 -8.71852,-8.94e-4 -13.07777,-0.003 z m 2.00976,9.414062 c 25.86433,0.003 51.7285,0.210242 77.59088,0.509277 1.93035,0.0865 3.90564,0.01353 5.78803,0.498536 0.34331,0.569379 0.26787,1.395988 0.33638,2.073 0.0165,40.861315 0.13649,81.725009 0.0263,122.587139 -0.0625,2.4732 0.0892,4.98667 -0.39393,7.42385 -0.19658,0.83257 -1.22165,0.8892 -1.86419,1.22141 -4.02154,1.30512 -8.27334,1.63048 -12.45808,2.04031 -6.1448,0.53839 -12.41887,0.95002 -18.62307,1.29154 -9.61427,0.50687 -19.37348,0.96665 -29.00637,1.22011 -10.63164,0.29364 -21.27115,0.2841 -31.90403,0.062 -10.32858,-0.2871 -20.81228,-0.71286 -31.1553,-1.28836 -8.19335,-0.49717 -16.40089,-0.9331 -24.55129,-1.93733 -2.61998,-0.37862 -5.2858,-0.84111 -7.70988,-1.9363 -0.82571,-0.42204 -0.58398,-1.49521 -0.74936,-2.25518 -0.25913,-3.46847 -0.12521,-6.9529 -0.17936,-10.42838 -0.0739,-39.33465 0.002,-78.669747 0.0522,-118.004167 0.078,-0.663276 -0.0747,-1.485479 0.305,-2.040375 1.84768,-0.574668 3.82768,-0.421917 5.74028,-0.50664 18.12446,-0.284432 36.25155,-0.356524 54.37765,-0.479714 4.79268,-0.0282 9.58542,-0.03829 14.37816,-0.05076 z m 58.59571,6.396485 c -17.08167,0.04131 -34.16526,0.0065 -51.24766,0.0185 -19.19348,0.01074 -38.38822,-0.0201 -57.58091,0.01663 -3.15535,0.138115 -5.73367,3.2516 -5.39605,6.371515 0.003,32.198881 -0.0158,64.399438 0.0234,96.597262 0.1914,3.11945 3.26931,5.6326 6.35782,5.30469 36.15265,-0.003 72.30703,0.0158 108.45859,-0.0234 3.12535,-0.17947 5.64533,-3.26415 5.31836,-6.35586 -0.003,-32.201484 0.0158,-64.404634 -0.0234,-96.605073 -0.19712,-2.970936 -2.95451,-5.393088 -5.91015,-5.324219 z m -3.48633,9.435547 v 89.45508 H 49.69345 V 38.32668 Z M 32.64657,202.07043 v 6.29532 c -2.83293,0.0195 -5.67658,-0.0852 -8.50242,0.0906 -3.77586,0.48547 -6.76951,4.17459 -6.50893,7.96685 0.0409,2.99878 -0.0986,6.00774 0.0945,8.99963 0.5032,3.82525 4.27945,6.82018 8.1149,6.50545 h 6.80586 c 0.0197,2.8342 -0.0855,5.67921 0.091,8.50626 0.50231,3.82603 4.28046,6.8173 8.1149,6.50508 2.98909,-0.048 5.99124,0.11459 8.97151,-0.1097 3.7796,-0.55112 6.69243,-4.3078 6.38513,-8.09969 v -6.80391 c 2.84072,-0.0197 5.69226,0.0855 8.52582,-0.0908 3.82755,-0.50039 6.82153,-4.28121 6.50897,-8.11696 -0.0451,-2.96024 0.10609,-5.9314 -0.0965,-8.88439 -0.50751,-3.81969 -4.29225,-6.78316 -8.1149,-6.47225 h -6.82735 c -0.0195,-2.84009 0.0852,-5.6909 -0.0906,-8.52391 -0.48962,-3.81329 1.13459,-6.49223 -4.6624,-6.49223 H 36.86874 c -4.1987,0 -4.20299,4.79188 -4.22217,8.72465 z m 137.39649,-4.84336 c -6.57273,0.21575 -12.73599,4.74661 -14.93626,10.93987 -2.21841,5.883 -0.71546,12.96221 3.73488,17.41269 4.20069,4.37693 10.88943,6.13923 16.69558,4.35865 6.03302,-1.74945 10.81351,-7.16534 11.73822,-13.38894 1.02001,-6.10168 -1.6855,-12.65819 -6.76462,-16.20967 -3.01151,-2.16933 -6.76019,-3.28423 -10.4678,-3.1126 z m -125.29883,8.64844 c 1.20277,0.25343 1.9367,1.84644 1.1064,2.83752 -0.79803,1.04765 -2.6591,0.72548 -3.10054,-0.49572 0.46224,-0.77995 0.92448,-1.5599 1.38672,-2.33984 0.19973,-0.0531 0.4046,-0.004 0.60742,-0.002 z m 126.48828,0.76953 c 3.71567,0.12751 6.923,3.54782 6.834,7.26405 0.0163,3.2636 -2.35537,6.40018 -5.57571,7.09554 -3.04668,0.73912 -6.48439,-0.68162 -8.01591,-3.4412 -1.69777,-2.9063 -1.09054,-6.96462 1.52529,-9.13278 1.42246,-1.24573 3.34368,-1.90764 5.23233,-1.78561 z m -36.41992,2.08203 c -6.53057,0.21369 -12.66595,4.67753 -14.89955,10.81591 -2.26457,5.88717 -0.79108,12.99929 3.65811,17.47984 4.15381,4.34612 10.75118,6.14691 16.52868,4.45455 6.14894,-1.68826 11.05511,-7.17925 11.97181,-13.50069 1.00292,-6.08853 -1.71641,-12.61609 -6.79078,-16.14337 -3.00958,-2.16763 -6.76413,-3.27539 -10.46827,-3.10624 z m -94.66406,5.87305 c -0.62094,0.28444 -0.53264,-0.85341 0,0 z m 95.84765,3.54297 c 3.65334,0.13185 6.86209,3.41485 6.85938,7.08398 0.0874,3.28679 -2.26057,6.48218 -5.48693,7.23435 -3.09342,0.80282 -6.6216,-0.64316 -8.15565,-3.47263 -1.62792,-2.86273 -1.07565,-6.81471 1.45869,-8.97968 1.43543,-1.29358 3.39401,-1.98718 5.32451,-1.86602 z m -78.21875,0.43164 c 1.05304,0.53393 1.30438,2.16887 0.2971,2.86615 -0.56641,0.56302 -1.54127,0.59791 -2.17991,0.14166 0.004,-0.96484 0.008,-1.92968 0.0117,-2.89453 0.54942,-0.42487 1.26136,-0.34893 1.87109,-0.11328 z m -25.125,-0.0742 c 1.21691,0.57573 1.34666,2.50713 0.16169,3.1895 -1.20622,0.75244 -2.88576,-0.46134 -2.64216,-1.83012 0.78646,-0.4668 1.57292,-0.9336 2.35938,-1.40039 l 0.0947,0.0321 z m 11.7461,1.47656 c 0.33994,-0.0106 0.12076,0.49773 -0.0977,0.23438 -0.056,-0.0853 0.0309,-0.18975 0.0977,-0.23438 z m 0.75195,11.05664 c 1.1212,0.41783 1.42922,2.01591 0.53062,2.80056 -0.35296,0.43524 -0.98643,0.65143 -1.53843,0.56468 -0.4642,-0.78841 -0.92839,-1.57682 -1.39258,-2.36524 0.35175,-0.93173 1.50131,-1.31726 2.40039,-1 z m 70.64063,36.58204 c -3.52047,0.11567 -7.352,0.5497 -10.11333,2.9597 -2.74792,2.43741 -2.99982,7.16885 -0.36187,9.7819 2.38485,2.51665 6.02755,3.09454 9.33066,3.27402 3.70119,0.17032 7.57576,0.0729 11.01172,-1.46484 2.51395,-1.18542 4.45644,-3.76325 4.35352,-6.61641 -0.0228,-3.15598 -2.45418,-5.90319 -5.39729,-6.81037 -2.81365,-1.03673 -5.85642,-1.15547 -8.82341,-1.124 z m -28.91797,0 c -3.50429,0.11473 -7.31018,0.54353 -10.07324,2.92161 -2.5994,2.26347 -3.08294,6.57514 -0.87598,9.26979 2.09378,2.71069 5.68089,3.53202 8.92816,3.76299 3.7784,0.26574 7.70856,0.21421 11.29449,-1.13994 2.60595,-1.03144 4.7915,-3.43745 4.93256,-6.3244 0.23842,-3.21382 -2.06755,-6.23179 -5.06225,-7.23849 -2.89455,-1.1619 -6.06488,-1.27887 -9.14374,-1.25156 z m 103.05078,19.625 c -0.51167,-0.75445 -1.20077,-1.38451 -1.98828,-1.8418 0.83146,-0.48242 1.53394,-1.17678 2.05273,-1.98438 l -0.0645,3.82618 z m -0.1543,7.57031 c -0.0236,0.91797 -0.0483,1.83594 -0.0723,2.75391 -0.47612,-0.6201 -1.07887,-1.14158 -1.7539,-1.53516 0.72458,-0.4184 1.34792,-1.00641 1.83594,-1.6836 -0.003,0.15495 -0.007,0.3099 -0.01,0.46485 z"
   sodipodi:nodetypes="ccccccccccccccccccccccccccccscccccccccccccccccccccccccccccccccccccccccccccccccsssccccccccccccccccccccssscccccccccccccccccccsssccccccccsscccccccccccccccccccccccccccccccccscccsscccccccccccccccccccccscccssccccccccccccccccccccccccccccccscccscccccc" />










































<path
   id="path908"
   d="m 40.09384,4.0161328 c -5.56401,9.12e-4 -20.61983,1.021536 -26.10938,1.486328 -2.808,0.238 -5.09082,0.876234 -6.67382,2.615234 -1.583,1.739 -2.34338,4.4251102 -2.48438,8.5371102 -0.143,4.143 -0.35725,37.325812 -0.53125,71.382812 -0.174,34.052003 -0.31055,68.883333 -0.31055,76.027353 0,7.15799 0.28758,39.29348 0.64258,70.64648 0.177,15.677 0.37469,31.15136 0.55469,43.19336 0.18,12.043 0.33484,20.60162 0.46484,22.64062 0.375,5.907 1.51243,10.24191 3.48243,13.50391 1.971,3.261 4.78445,5.40705 8.31445,6.87305 7.059,2.935 17.00981,3.35251 30.13281,5.47851 26.371,4.271 39.86986,3.72461 43.50586,3.72461 h 18.53711 c 3.638,0 17.11147,0.54639 43.48047,-3.72461 13.123,-2.126 23.10025,-2.54351 30.15625,-5.47851 3.531,-1.466 6.32192,-3.61205 8.29492,-6.87305 1.971,-3.262 3.10547,-7.59691 3.48047,-13.50391 0.129,-2.039 0.2868,-10.59762 0.4668,-22.64062 0.178,-12.042 0.37673,-27.51736 0.55273,-43.19336 0.355,-31.354 0.66602,-63.4885 0.66602,-70.64648 0,-7.146 -0.15802,-41.97916 -0.33204,-76.035165 -0.18599,-34.048 -0.37653,-67.23 -0.51953,-71.375 -0.141,-4.111 -0.9219,-6.7971102 -2.5039,-8.5371102 -1.59,-1.739 -3.86674,-2.377234 -6.67774,-2.615234 -5.492,-0.465 -20.54065,-1.486328 -26.09765,-1.486328 H 103.66611 96.98837 40.10556 Z m 0.0117,1.417969 h 56.89648 6.67383 56.91992 c 5.381,0 20.54128,1.024328 25.98828,1.486328 2.66,0.226 4.49819,0.78439 5.74219,2.15039 1.244,1.3660002 1.99191,3.6759072 2.12891,7.6289072 0.135,3.921 0.33576,37.304515 0.50976,71.353515 0.174,34.051008 0.33203,68.882818 0.33203,76.007818 0,7.118 -0.30906,39.29548 -0.66406,70.64648 -0.178,15.675 -0.37469,31.13188 -0.55469,43.17188 -0.18,12.039 -0.34784,20.71626 -0.46484,22.57226 -0.367,5.769 -1.4772,9.86938 -3.2832,12.85938 -1.807,2.989 -4.29696,4.91383 -7.62696,6.29883 -6.66,2.766 -16.62326,3.24967 -29.82226,5.38867 -26.278,4.256 -39.48367,3.70117 -43.26367,3.70117 H 91.0821 c -3.778,0 -16.98372,0.55483 -43.26172,-3.70117 l -0.11133,-0.0234 c -13.138,-2.121 -23.07489,-2.60723 -29.71289,-5.36523 -3.33,-1.385 -5.84339,-3.30788 -7.65039,-6.29688 -1.806,-2.99 -2.91425,-7.09333 -3.28125,-12.86133 -0.111,-1.854 -0.27898,-10.52931 -0.45898,-22.57031 -0.18,-12.042 -0.37474,-27.49673 -0.55274,-43.17773 -0.355,-31.35 -0.64453,-63.52558 -0.64453,-70.64258 0,-7.125 0.13655,-41.95681 0.31055,-76.007818 0.174,-34.053 0.3982,-67.435515 0.5332,-71.353515 0.136,-3.953 0.88591,-6.262907 2.12891,-7.6289072 1.244,-1.366 3.08119,-1.92439 5.74219,-2.15039 5.447,-0.461 20.60728,-1.484375 25.98828,-1.484375 z M 95.89265,17.074727 v 0.002 c -15.769,0 -64.79653,0.387172 -70.64453,0.576172 -2.892,0.093 -5.22289,0.223 -6.96289,1.375 -1.741,1.151 -2.61719,3.291234 -2.61719,6.740234 0,3.33 -0.0434,32.956625 -0.0664,62.640625 -0.022,29.674002 -0.0276,59.307062 0.0664,63.039062 v 0.0215 c 0.093,3.626 0.18644,6.14935 1.77344,8.02735 1.587,1.878 4.41659,2.83453 9.55859,3.76953 5.231,0.951 18.52897,1.87626 32.41797,2.57226 13.889,0.695 28.28297,1.15235 35.54297,1.15235 h 10.7539 c 7.26,0 21.67741,-0.45735 35.56641,-1.15235 13.889,-0.696 27.18597,-1.62126 32.41797,-2.57226 5.141,-0.934 7.94715,-1.89053 9.53515,-3.76953 1.586,-1.878 1.70293,-4.40235 1.79493,-8.02735 0.096,-3.714 0.0904,-33.3775 0.0664,-63.062495 -0.023,-29.684 -0.0664,-59.308672 -0.0664,-62.638672 0,-3.449 -0.87328,-5.590187 -2.61328,-6.742188 -1.74201,-1.150999 -4.07185,-1.281999 -6.96485,-1.375 -5.846,-0.187999 -54.89997,-0.576171 -70.66797,-0.576171 z m 0,1.419921 h 0.006 8.88476 c 15.746,0 64.95452,0.372688 70.60352,0.554688 2.855,0.092 4.97995,0.333781 6.25195,1.175781 1.273,0.841 1.97461,2.317969 1.97461,5.542969 0,3.344 0.0434,32.956625 0.0664,62.640625 0.023,29.683999 0.0226,59.501579 -0.0664,63.017579 v 0.0215 c -0.094,3.588 -0.27284,5.71014 -1.46484,7.11914 -1.193,1.412 -3.65789,2.38373 -8.71289,3.30273 -4.967,0.902 -18.36919,1.85578 -32.24219,2.55078 -13.871,0.694 -28.27756,1.15235 -35.47656,1.15235 H 94.96103 c -7.199,0 -21.60652,-0.45735 -35.47852,-1.15235 -13.872,-0.695 -27.27323,-1.64778 -32.24023,-2.55078 -5.048,-0.923 -7.51499,-1.89464 -8.70899,-3.30664 -1.193,-1.413 -1.34745,-3.53367 -1.43945,-7.13867 -0.09,-3.512 -0.0904,-33.33362 -0.0664,-63.015629 0.023,-29.684 0.0664,-59.297625 0.0664,-62.640625 0,-3.225 0.70066,-4.701969 1.97266,-5.542969 1.272,-0.841 3.37742,-1.083781 6.23242,-1.175781 5.64557,-0.182986 54.84391,-0.554632 70.59375,-0.554688 z M 46.09187,32.908711 c -0.997,0 -1.81836,0.820359 -1.81836,1.818359 v 96.65625 c 0,0.998 0.82136,1.81641 1.81836,1.81641 h 108.52148 c 0.996,0 1.81836,-0.81841 1.81836,-1.81641 V 34.72707 c 0,-0.997 -0.82036,-1.818359 -1.81836,-1.818359 z m 0,1.417969 h 108.52148 c 0.23,0 0.39844,0.17039 0.39844,0.40039 v 96.65625 c 0,0.232 -0.16844,0.39844 -0.39844,0.39844 H 46.09189 c -0.23,0 -0.39844,-0.16744 -0.39844,-0.39844 V 34.72707 c -10e-4,-0.23 0.16844,-0.40039 0.39844,-0.40039 z m -5.76563,163 v 0.002 c -2.021,0 -3.67969,1.65964 -3.67969,3.68164 v 11.24219 c 0,0.11 0.007,0.0684 0,0.10937 H 25.31452 c -2.022,0 -3.67969,1.6362 -3.67969,3.6582 v 8.22852 c 0,2.023 1.65769,3.67969 3.67969,3.67969 h 11.33203 v 11.33203 c 0,2.021 1.65769,3.67968 3.67969,3.67969 h 8.22852 c 2.021,0 3.6582,-1.65769 3.6582,-3.67969 v -11.21875 c 0,-0.102 0.0175,-0.0853 0.0215,-0.11133 H 63.5665 c 2.021,0 3.68164,-1.65864 3.68164,-3.68164 v -8.22852 c 0,-2.022 -1.66064,-3.6582 -3.68164,-3.6582 H 52.21298 c -0.004,-0.019 0,0.0211 0,-0.0449 v -11.3086 c 0,-2.021 -1.6372,-3.68164 -3.6582,-3.68164 z m 0,1.42188 h 8.22852 c 1.254,0 2.23828,1.00572 2.23828,2.26172 v 11.30859 c 0,0.342 0.06,0.72802 0.33398,1.04102 0.274,0.314 0.68802,0.42187 1.04102,0.42187 h 11.39648 c 1.254,0 2.26172,0.98424 2.26172,2.24024 v 8.22656 c 0,1.257 -1.00672,2.26172 -2.26172,2.26172 h -11.375 c -0.422,0 -0.88986,0.1872 -1.13086,0.5332 -0.24,0.346 -0.26562,0.69509 -0.26562,0.99609 v 11.22071 c 0,1.254 -0.98624,2.26172 -2.24024,2.26172 h -8.22656 c -1.254,0 -2.26172,-1.00772 -2.26172,-2.26172 v -11.41992 c 0,-0.127 0.0443,-0.41241 -0.17773,-0.77539 -0.222,-0.362 -0.7063,-0.55469 -1.1543,-0.55469 H 25.31452 c -1.254,0 -2.26172,-1.00672 -2.26172,-2.26172 V 216.022 c 0,-1.256 1.00572,-2.24024 2.26172,-2.24024 h 11.46289 c 0.387,0 0.86894,-0.19969 1.08594,-0.55469 0.217,-0.354 0.19922,-0.6686 0.19922,-0.9746 v -11.24219 c 10e-4,-1.256 1.00867,-2.26172 2.26367,-2.26172 z m 130.46875,2.46289 c -7.004,0 -12.70508,5.69912 -12.70508,12.70312 0,7.005 5.70108,12.70508 12.70508,12.70508 7.004,0 12.68357,-5.70108 12.6836,-12.70508 0,-7.004 -5.6796,-12.70312 -12.6836,-12.70312 z m -126.36133,0.51172 c -0.467,0 -0.89479,0.21183 -1.17383,0.54883 l -0.0449,0.0547 -3.52343,6.62305 c -0.114,0.204 -0.18555,0.45952 -0.18555,0.72852 0.002,0.845 0.68625,1.52929 1.53125,1.52929 v -0.002 h 0.70898 v -0.002 h 6.08789 c 0.844,0 1.52735,-0.67939 1.52735,-1.52539 0,-0.252 -0.0618,-0.49794 -0.17383,-0.71094 l -3.50781,-6.60742 -0.0391,-0.0469 c -0.279,-0.361 -0.72103,-0.58984 -1.20703,-0.58984 z m 126.36133,0.90625 c 6.236,0 11.26367,5.04915 11.26367,11.28515 0,6.237 -5.02667,11.28516 -11.26367,11.28516 -6.237,0 -11.28711,-5.04816 -11.28711,-11.28516 0,-6.236 5.05011,-11.28515 11.28711,-11.28515 z m -126.35937,0.51172 c 0.023,0 0.0435,0.007 0.0605,0.0176 l 3.4375,6.47266 c 0.007,0.01 0.01,0.0229 0.01,0.0469 0,0.057 -0.0494,0.10742 -0.10938,0.10742 h -6.81836 c -0.05,-0.009 -0.0879,-0.0554 -0.0879,-0.10742 0,-0.021 6.8e-4,-0.0298 0.0137,-0.0508 l 3.4414,-6.47266 c 0.013,-0.009 0.0307,-0.0127 0.0527,-0.0137 z m 91.12695,9.57031 c -7.004,0 -12.70508,5.67959 -12.70508,12.68359 0,7.004 5.70108,12.70508 12.70508,12.70508 7.006,0 12.70508,-5.70108 12.70508,-12.70508 0,-7.004 -5.70108,-12.68359 -12.70508,-12.68359 z m 0,1.41992 c 6.238,0 11.28711,5.02467 11.28711,11.26367 0,6.237 -5.04911,11.28711 -11.28711,11.28711 -6.236,0 -11.28516,-5.05011 -11.28516,-11.28711 0,-6.239 5.04916,-11.26367 11.28516,-11.26367 z m -91.13281,0.42578 c -3.071,0 -5.56641,2.51689 -5.56641,5.58789 0,3.07 2.49641,5.56446 5.56641,5.56446 3.07,0 5.58789,-2.49446 5.58789,-5.56446 -0.001,-3.072 -2.51789,-5.58789 -5.58789,-5.58789 z m 10.46289,0.6543 c -0.842,0 -1.52135,0.67853 -1.52735,1.51953 v 0.01 6.79687 c 0.002,0.846 0.6853,1.5273 1.5293,1.5293 0.252,0 0.49689,-0.0618 0.71289,-0.17383 l 6.60742,-3.51172 0.043,-0.0352 c 0.36,-0.277 0.5918,-0.71907 0.5918,-1.20507 0,-0.473 -0.21778,-0.90078 -0.55078,-1.17578 l -0.0586,-0.0469 -6.61718,-3.52148 c -0.205,-0.115 -0.46347,-0.18755 -0.73047,-0.18555 z m -20.91797,0.002 c -0.252,0 -0.49403,0.0599 -0.70703,0.17188 l -6.60352,3.50781 -0.0527,0.0391 c -0.36,0.277 -0.5918,0.72199 -0.5918,1.20899 0,0.47 0.21683,0.89487 0.54883,1.17187 l 0.0566,0.0469 6.625,3.52343 c 0.209,0.113 0.45861,0.1836 0.72461,0.1836 0.843,-0.002 1.5273,-0.68244 1.5293,-1.52344 v -0.006 -6.79687 c 0,-0.842 -0.6843,-1.52735 -1.5293,-1.52735 z m 10.45508,0.76172 c 2.304,0 4.16797,1.86592 4.16797,4.16992 0,2.305 -1.86397,4.14649 -4.16797,4.14649 -2.304,0 -4.14649,-1.84249 -4.14649,-4.14649 -0.001,-2.304 1.84149,-4.16992 4.14649,-4.16992 z m 10.46484,0.6543 c 0.02,0 0.0318,0.004 0.0488,0.0117 l 6.47461,3.44531 c 0.008,0.015 0.0127,0.0317 0.0137,0.0527 0,0.024 -0.007,0.0435 -0.0195,0.0605 l -6.46875,3.4375 c -0.008,0.004 -0.0268,0.01 -0.0488,0.01 -0.063,0 -0.10742,-0.0484 -0.10742,-0.10938 v -6.79883 c 0,-0.06 0.0494,-0.10937 0.10742,-0.10937 z m -20.91797,0.002 c 0.06,0 0.10938,0.0484 0.10938,0.10938 v 6.79882 c 0,0.058 -0.0494,0.10743 -0.10938,0.10743 -0.019,0 -0.0376,-0.004 -0.0566,-0.0137 l -6.4668,-3.43945 c -0.009,-0.016 -0.0137,-0.0318 -0.0137,-0.0508 0,-0.027 0.008,-0.0455 0.0176,-0.0625 l 6.4707,-3.4375 c 0.01,-0.006 0.0278,-0.0117 0.0488,-0.0117 z m 7.06055,12.4336 c -0.846,0.002 -1.5293,0.68524 -1.5293,1.53124 0,0.25301 0.0617,0.49685 0.17774,0.71485 l 3.5039,6.60156 0.041,0.0488 c 0.276,0.352 0.71408,0.58889 1.20508,0.58789 0.471,0 0.89587,-0.21783 1.17187,-0.54883 l 0.043,-0.0547 3.52539,-6.625 c 0.117,-0.207 0.18555,-0.46056 0.18555,-0.72656 0,-0.84434 -0.6823,-1.5263 -1.52539,-1.52929 h -0.002 z m 0,1.42187 h 6.79883 c 0.0565,0.002 0.10547,0.0477 0.10547,0.10742 0,0.019 -0.004,0.0357 -0.0137,0.0527 l -3.43945,6.46679 c -0.016,0.011 -0.0317,0.0156 -0.0527,0.0156 -0.024,0 -0.0455,-0.007 -0.0645,-0.0215 l -3.43359,-6.46679 c -0.006,-0.011 -0.0117,-0.0259 -0.0117,-0.0449 0,-0.06 0.0533,-0.10937 0.11133,-0.10937 z m 133.17773,39.5918 c -1.186,0 -2.17187,0.96539 -2.17187,2.15039 0,1.185 0.98587,2.15039 2.17187,2.15039 1.186,0 2.14844,-0.96639 2.14844,-2.15039 0,-1.185 -0.96344,-2.15039 -2.14844,-2.15039 z m -86.41797,1.52539 c -2.411,0 -4.61387,0.22783 -6.29687,0.79883 -0.842,0.286 -1.56247,0.66126 -2.10547,1.19726 -0.544,0.536 -0.88672,1.2645 -0.88672,2.0625 0,0.8 0.34272,1.5245 0.88672,2.0625 0.543,0.536 1.26447,0.91127 2.10547,1.19727 1.683,0.572 3.88587,0.77539 6.29687,0.77539 2.412,0 4.61388,-0.20339 6.29688,-0.77539 0.841,-0.286 1.56247,-0.66127 2.10547,-1.19727 0.543,-0.537 0.88867,-1.2625 0.88867,-2.0625 0,-0.798 -0.34567,-1.5255 -0.88867,-2.0625 -0.544,-0.536 -1.26447,-0.91126 -2.10547,-1.19726 -1.683,-0.572 -3.88588,-0.79883 -6.29688,-0.79883 z m 28.92188,0 c -2.412,0 -4.61288,0.22783 -6.29688,0.79883 -0.842,0.286 -1.56442,0.66126 -2.10742,1.19726 -0.543,0.536 -0.86328,1.2645 -0.86328,2.0625 0,0.8 0.31928,1.5245 0.86328,2.0625 0.544,0.536 1.26642,0.91127 2.10742,1.19727 1.684,0.572 3.88488,0.77539 6.29688,0.77539 2.412,0 4.61387,-0.20339 6.29687,-0.77539 0.841,-0.286 1.56443,-0.66127 2.10743,-1.19727 0.543,-0.537 0.88672,-1.2625 0.88671,-2.0625 0,-0.798 -0.34371,-1.5255 -0.88671,-2.0625 -0.544,-0.536 -1.26743,-0.91126 -2.10743,-1.19726 -1.683,-0.571 -3.88487,-0.79883 -6.29687,-0.79883 z m 46.78125,0.68945 c -1.186,0 -2.15039,0.96439 -2.15039,2.15039 0,1.185 0.96539,2.17383 2.15039,2.17383 1.185,0 2.17383,-0.98883 2.17383,-2.17383 0,-1.186 -0.98883,-2.15039 -2.17383,-2.15039 z m -75.70313,0.73047 c 2.324,0 4.41104,0.22698 5.83204,0.70898 0.71,0.24 1.25117,0.54524 1.57617,0.86524 0.324,0.32 0.46484,0.6335 0.46484,1.0625 0,0.429 -0.14084,0.72297 -0.46484,1.04297 -0.325,0.32 -0.86617,0.62423 -1.57617,0.86523 -1.42,0.482 -3.50804,0.70899 -5.83204,0.70899 -2.324,0 -4.41203,-0.22699 -5.83203,-0.70899 -0.71,-0.241 -1.25122,-0.54523 -1.57422,-0.86523 -0.324,-0.32 -0.46484,-0.61297 -0.46484,-1.04297 0,-0.43 0.14084,-0.7425 0.46484,-1.0625 0.323,-0.32 0.86422,-0.62524 1.57422,-0.86524 1.42,-0.482 3.50803,-0.70898 5.83203,-0.70898 z m 28.92188,0 c 2.324,0 4.41203,0.22698 5.83203,0.70898 0.711,0.24 1.25022,0.54524 1.57422,0.86524 0.324,0.32 0.46484,0.6335 0.46484,1.0625 0,0.429 -0.14084,0.72297 -0.46484,1.04297 -0.324,0.32 -0.86322,0.62423 -1.57422,0.86523 -1.42,0.482 -3.50803,0.70899 -5.83203,0.70899 -2.324,0 -4.41203,-0.22699 -5.83203,-0.70899 -0.71,-0.241 -1.25022,-0.54523 -1.57422,-0.86523 -0.324,-0.32 -0.44336,-0.61297 -0.44336,-1.04297 0,-0.43 0.11936,-0.7425 0.44336,-1.0625 0.323,-0.32 0.86422,-0.62524 1.57422,-0.86524 1.42,-0.482 3.50703,-0.70898 5.83203,-0.70898 z m 62.79687,1.06445 c -1.186,0 -2.15039,0.96639 -2.15039,2.15039 0,1.186 0.96539,2.17188 2.15039,2.17188 1.184,0 2.17188,-0.98588 2.17188,-2.17188 -0.001,-1.184 -0.98888,-2.15039 -2.17188,-2.15039 z m -27.05664,0.1836 c -1.186,0 -2.17187,0.96639 -2.17187,2.15039 0,1.184 0.98587,2.17386 2.17187,2.17382 1.186,0 2.15039,-0.98882 2.15039,-2.17382 0,-1.185 -0.96539,-2.15039 -2.15039,-2.15039 z m 16.29883,2.34961 c -1.184,0 -2.15039,0.96639 -2.15039,2.15039 0,1.186 0.96739,2.17382 2.15039,2.17382 1.186,0 2.17383,-0.98782 2.17383,-2.17382 0,-1.184 -0.98883,-2.15039 -2.17383,-2.15039 z m 16.08008,1.2832 c -1.188,0 -2.17383,0.98683 -2.17383,2.17383 0,1.185 0.98583,2.15039 2.17383,2.15039 1.184,0 2.14844,-0.96639 2.14844,-2.15039 0,-1.186 -0.96544,-2.17383 -2.14844,-2.17383 z m -27.01563,0.86523 c -1.18599,0 -2.14843,0.98883 -2.14843,2.17383 0,1.187 0.96347,2.15039 2.14843,2.15039 1.18501,0 2.17383,-0.96439 2.17383,-2.15039 0,-1.184 -0.98782,-2.17383 -2.17383,-2.17383 z m -10.92773,1.6211 c -1.186,0 -2.17187,0.96439 -2.17187,2.15039 0,1.185 0.98587,2.17187 2.17187,2.17187 1.186,0 2.15234,-0.98687 2.15234,-2.17187 0.001,-1.187 -0.96634,-2.15039 -2.15234,-2.15039 z m 27.32031,0.31054 c -1.186,0 -2.17187,0.96639 -2.17187,2.15039 0,1.186 0.98587,2.17188 2.17187,2.17188 1.186,0 2.14844,-0.98588 2.14844,-2.17188 0,-1.184 -0.96344,-2.15039 -2.14844,-2.15039 z m -10.71484,2.21289 c -1.186,0 -2.15039,0.98883 -2.15039,2.17383 0,1.187 0.96539,2.15039 2.15039,2.15039 1.185,0 2.17383,-0.96439 2.17383,-2.15039 0,-1.185 -0.98883,-2.17383 -2.17383,-2.17383 z m 16.01562,1.79688 c -1.186,0 -2.15039,0.96439 -2.15039,2.15039 0,1.185 0.96539,2.17187 2.15039,2.17187 1.184,0 2.17188,-0.98687 2.17188,-2.17187 -0.001,-1.186 -0.98888,-2.15039 -2.17188,-2.15039 z m -27.05664,0.17773 c -1.186,0 -2.17187,0.98688 -2.17187,2.17188 0,1.185 0.98587,2.15234 2.17187,2.15234 1.186,0 2.15039,-0.96834 2.15039,-2.15234 0,-1.184 -0.96539,-2.17188 -2.15039,-2.17188 z m 16.29883,2.35352 c -1.184,0 -2.15039,0.98878 -2.15039,2.17578 0,1.185 0.96739,2.14844 2.15039,2.14844 1.186,0 2.17383,-0.96444 2.17383,-2.14844 0,-1.187 -0.98883,-2.17578 -2.17383,-2.17578 z m 16.08008,1.30664 c -1.188,0 -2.17383,0.96539 -2.17383,2.15039 0,1.185 0.98583,2.17383 2.17383,2.17383 1.184,0 2.14844,-0.98883 2.14844,-2.17383 0,-1.186 -0.96544,-2.15039 -2.14844,-2.15039 z m -27.01563,0.86523 c -1.18599,0 -2.14843,0.96636 -2.14843,2.1504 0,1.187 0.96347,2.17187 2.14843,2.17187 1.18501,0 2.17383,-0.98487 2.17383,-2.17187 0,-1.184 -0.98782,-2.1504 -2.17383,-2.1504 z m -10.92773,1.6836 c -1.186,0 -2.17187,0.98587 -2.17187,2.17187 0,1.185 0.98587,2.15039 2.17187,2.15039 1.186,0 2.15234,-0.96639 2.15234,-2.15039 0.001,-1.186 -0.96634,-2.17187 -2.15234,-2.17187 z m 27.32031,0.22461 c -1.186,0 -2.17187,0.98878 -2.17187,2.17578 0,1.185 0.98587,2.14844 2.17187,2.14844 1.186,0 2.14844,-0.96444 2.14844,-2.14844 0,-1.187 -0.96344,-2.17578 -2.14844,-2.17578 z m -10.71484,2.21484 c -1.186,0 -2.15039,0.98883 -2.15039,2.17383 0,1.185 0.96539,2.14844 2.15039,2.14844 1.185,0 2.17383,-0.96444 2.17383,-2.14844 0,-1.184 -0.98883,-2.17383 -2.17383,-2.17383 z m 16.01562,1.79492 c -1.186,0 -2.15039,0.98783 -2.15039,2.17383 0,1.186 0.96539,2.14844 2.15039,2.14844 1.184,0 2.17188,-0.96344 2.17188,-2.14844 0,-1.185 -0.98888,-2.17383 -2.17188,-2.17383 z m -27.05664,0.19922 c -1.186,0 -2.17187,0.96639 -2.17187,2.15039 0,1.186 0.98587,2.17188 2.17187,2.17188 1.186,0 2.15039,-0.98588 2.15039,-2.17188 0,-1.184 -0.96539,-2.15039 -2.15039,-2.15039 z m 16.29883,2.35547 c -1.184,0 -2.15039,0.96439 -2.15039,2.15039 0,1.185 0.96739,2.15039 2.15039,2.15039 1.186,0 2.17383,-0.96639 2.17383,-2.15039 0,-1.187 -0.98883,-2.15039 -2.17383,-2.15039 z m 16.08008,1.2832 c -1.188,0 -2.17383,0.98783 -2.17383,2.17383 0,1.186 0.98583,2.15039 2.17383,2.15039 1.184,0 2.14844,-0.96539 2.14844,-2.15039 0,-1.185 -0.96544,-2.17383 -2.14844,-2.17383 z m -27.01563,0.86524 c -1.18599,0 -2.14843,0.98978 -2.14843,2.17578 0,1.185 0.96347,2.14844 2.14843,2.14844 1.18501,0 2.17383,-0.96444 2.17383,-2.14844 0,-1.186 -0.98782,-2.17578 -2.17383,-2.17578 z m -10.92773,1.79687 c -1.186,0 -2.17187,0.96539 -2.17187,2.15039 0,1.185 0.98587,2.17188 2.17187,2.17188 1.186,0 2.15234,-0.98588 2.15234,-2.17188 0,-1.186 -0.96634,-2.15039 -2.15234,-2.15039 z m 27.32031,0.11133 c -1.186,0 -2.17187,0.98783 -2.17187,2.17383 0,1.186 0.98587,2.15039 2.17187,2.15039 1.186,0 2.14844,-0.96539 2.14844,-2.15039 0,-1.185 -0.96344,-2.17383 -2.14844,-2.17383 z m -10.71484,2.23828 c -1.186,0 -2.15039,0.96639 -2.15039,2.15039 0,1.184 0.96539,2.17188 2.15039,2.17188 1.185,0 2.17383,-0.98688 2.17383,-2.17188 0,-1.185 -0.98883,-2.15039 -2.17383,-2.15039 z m 16.01562,1.79297 c -1.186,0 -2.15039,0.96731 -2.15039,2.15235 0,1.185 0.96539,2.17187 2.15039,2.17187 1.184,0 2.17188,-0.98588 2.17188,-2.17187 0,-1.186 -0.98888,-2.15235 -2.17188,-2.15235 z m -27.05664,0.17774 c -1.186,0 -2.17187,0.96639 -2.17187,2.15039 0,1.187 0.98587,2.17382 2.17187,2.17382 1.186,0 2.15039,-0.98682 2.15039,-2.17382 0,-1.184 -0.96539,-2.15039 -2.15039,-2.15039 z m 16.29883,2.34961 c -1.184,0 -2.15039,0.96539 -2.15039,2.15039 0,1.185 0.96739,2.17187 2.15039,2.17187 1.186,0 2.17383,-0.98687 2.17383,-2.17187 0,-1.185 -0.98883,-2.15039 -2.17383,-2.15039 z m -10.93555,2.15624 c -1.18599,0 -2.14843,0.98683 -2.14843,2.17383 0,1.185 0.96347,2.15039 2.14843,2.15039 1.18501,0 2.17383,-0.96639 2.17383,-2.15039 0,-1.187 -0.98782,-2.17383 -2.17383,-2.17383 z"
   style="fill:#ffffff" /></svg>
