<?xml version="1.0" encoding="UTF-8" standalone="no"?>
<!-- Generator: Adobe Illustrator 16.0.3, SVG Export Plug-In . SVG Version: 6.00 Build 0)  -->

<svg
   version="1.1"
   id="Ebene_2"
   x="0px"
   y="0px"
   width="574.93317"
   height="73.428459"
   viewBox="0 0 574.93317 73.428455"
   enable-background="new 0 0 566.93 65.438"
   xml:space="preserve"
   sodipodi:docname="system.svg"
   inkscape:version="1.1.2 (0a00cf5339, 2022-02-04)"
   xmlns:inkscape="http://www.inkscape.org/namespaces/inkscape"
   xmlns:sodipodi="http://sodipodi.sourceforge.net/DTD/sodipodi-0.dtd"
   xmlns="http://www.w3.org/2000/svg"
   xmlns:svg="http://www.w3.org/2000/svg"><defs
   id="defs16" /><sodipodi:namedview
   id="namedview14"
   pagecolor="#ffffff"
   bordercolor="#666666"
   borderopacity="1.0"
   inkscape:pageshadow="2"
   inkscape:pageopacity="0.0"
   inkscape:pagecheckerboard="0"
   showgrid="false"
   fit-margin-top="0"
   fit-margin-left="0"
   fit-margin-right="0"
   fit-margin-bottom="0"
   inkscape:zoom="0.923593"
   inkscape:cx="149.95783"
   inkscape:cy="-12.451372"
   inkscape:window-width="1920"
   inkscape:window-height="996"
   inkscape:window-x="0"
   inkscape:window-y="0"
   inkscape:window-maximized="1"
   inkscape:current-layer="Ebene_2" />
<path
   id="path833"
   d="m 378.98135,0.016054 c -5.14693,0.1770869 -10.24175,2.0331339 -14.32067,5.1063106 -5.24108,3.6946043 -9.36886,8.7251964 -13.00472,13.9519604 -2.83068,4.108591 -5.58067,8.357778 -7.16135,13.127369 -1.29851,3.692214 -1.88889,7.616534 -1.74682,11.527608 0.0431,2.924843 0.0436,5.892119 0.89445,8.72062 1.59121,5.72401 4.90926,11.041243 9.70848,14.606829 4.1581,3.220086 9.38075,4.649199 14.52645,5.268404 5.79059,0.702557 11.62947,0.219764 17.43749,0.06919 2.30148,-0.151617 4.69827,0.130498 6.88263,-0.780228 2.41255,-0.933843 4.40298,-2.778726 5.84461,-4.894939 0.54652,0.137213 1.209,0.617673 1.81758,0.85167 4.76038,2.214277 10.07824,3.140274 15.3096,2.943483 4.81436,-0.26489 9.59666,-1.437062 13.96266,-3.490465 3.85525,-1.822097 7.40387,-4.476878 10.24219,-7.574219 0.31808,2.1517 0.36327,4.368982 1.02344,6.453125 1.15028,3.369414 4.25863,6.034525 7.84292,6.373003 4.55613,0.652973 9.06831,-0.891356 13.11085,-2.865545 2.16921,-1.022262 4.49134,-1.735593 6.8943,-1.883074 3.29343,-0.360498 6.64157,-0.843985 9.67341,-2.249384 2.77625,2.239476 6.15434,3.633109 9.6122,4.413901 5.59461,1.173683 11.40659,0.314932 16.83069,-1.266867 5.16799,-1.562099 10.02843,-4.153834 14.18016,-7.607972 0.28086,3.82619 2.40709,7.509998 5.75645,9.444008 2.77273,1.634003 6.16044,2.554251 9.34706,1.725914 3.16414,-0.713459 5.92606,-2.996091 7.10342,-6.035399 0.85613,-2.050769 1.07197,-4.291483 1.18174,-6.489991 4.72897,3.849893 9.28173,7.919987 14.15888,11.584371 1.45409,1.085399 3.02625,2.16351 4.8919,2.31016 2.57817,0.257432 5.29882,-0.145732 7.49024,-1.601563 3.48308,-2.238651 6.21312,-5.981197 6.43492,-10.209676 0.24814,-3.135833 -1.2545,-6.261855 -3.72594,-8.173136 -4.83857,-3.858557 -9.62888,-7.779826 -14.43359,-11.681641 4.93645,-3.05317 9.47974,-7.154069 11.85759,-12.550966 1.42352,-3.314173 2.20743,-7.058131 1.4826,-10.640082 -0.75503,-3.618444 -3.14169,-6.81145 -6.33685,-8.6501847 -5.43534,-3.8215271 -11.70905,-6.6342811 -18.36647,-7.3171463 -2.60855,-0.2915287 -5.24418,-0.2260384 -7.79924,-0.096645 -7.17081,0.4842103 -14.28858,3.911862 -18.58035,9.770036 -1.00427,1.463664 -1.66806,3.151784 -1.97799,4.897098 -5.97459,-3.884714 -13.26611,-5.694351 -20.36436,-5.021805 -7.27501,0.406191 -14.31592,3.565246 -19.60653,8.548523 -4.91785,4.641063 -8.14629,10.970963 -9.32596,17.606016 -0.31205,1.809741 -0.46052,3.649932 -0.41018,5.486406 -2.69245,0.192361 -5.28932,0.972722 -7.79883,1.929688 -0.29599,-0.149709 -0.13705,-1.002781 -0.23812,-1.441731 -0.10903,-1.535217 -0.1995,-3.058703 -0.2466,-4.51467 -0.15817,-4.026674 0.0894,-8.05596 -0.0963,-12.082876 -0.17055,-3.855076 -0.30578,-7.738258 -1.03033,-11.536895 -0.96263,-4.744618 -3.12174,-9.536519 -7.17291,-12.4113812 -2.63437,-1.9563361 -6.17011,-2.9151461 -9.35497,-1.8427224 -2.75504,0.7895453 -5.1617,2.6648115 -6.55396,5.1765753 -1.42577,2.4527536 -2.00547,5.4105173 -1.49824,8.2103413 -5.49477,-3.480349 -12.19201,-5.3205703 -18.68598,-4.325198 -4.85181,0.670033 -9.38121,2.809665 -13.43168,5.493801 -0.40838,0.275746 -0.80947,0.562424 -1.20461,0.856787 C 400.54963,13.177751 399.3238,8.8820555 396.48718,5.8930061 393.44144,2.573788 388.92941,1.2028772 384.6272,0.4263275 382.7681,0.0680504 380.87214,-0.0460244 378.98132,0.0160529 Z M 40.741121,2.703554 C 30.47309,3.0400491 20.524712,7.2024049 12.586135,13.629873 6.7664081,18.444279 2.5069912,25.17755 0.9403399,32.590273 c -1.178505,5.418456 -1.2410954,11.081975 -0.2337681,16.531133 1.6507181,7.680554 7.1082158,14.21768 13.9511442,17.914281 7.413503,4.08341 16.396339,5.08228 24.573639,2.98818 -0.603413,0.78557 0.661744,0.352617 1.096876,0.460937 6.639583,0 13.279166,0 19.91875,0 2.614451,-5.800253 5.226386,-11.601642 7.839843,-17.402343 2.625651,0 5.251302,0 7.876953,0 1.019004,5.800759 2.036854,11.601721 3.056641,17.402343 8.871745,0 17.74349,0 26.615232,0 2.19776,-6.902392 4.39586,-13.80468 6.59375,-20.707031 1.40815,6.902355 2.81676,13.804614 4.22461,20.707031 4.62305,0 9.24609,0 13.86914,0 3.23071,-7.482686 6.45949,-14.966207 9.68945,-22.449219 0.33178,7.483085 0.66586,14.966067 0.9961,22.449219 17.82617,0 35.65234,0 53.47851,0 1.09338,-6.829383 2.18546,-13.658972 3.2793,-20.488281 -6.95638,0 -13.91276,0 -20.86914,0 0.12565,-0.78776 0.2513,-1.575521 0.37695,-2.363281 6.05078,0 12.10156,0 18.15235,0 1.08665,-6.832332 2.17682,-13.664104 3.26562,-20.496094 -6.12174,0 -12.24349,0 -18.36523,0 0.12109,-0.788411 0.24218,-1.576823 0.36328,-2.365234 6.94661,0 13.89323,0 20.83984,0 1.09288,-6.828604 2.18184,-13.657833 3.27539,-20.4863287 -13.72917,0 -27.45833,0 -41.1875,0 -1.44723,9.0461257 -2.89313,18.0924637 -4.33984,27.1386717 -0.39104,-9.046885 -0.78412,-18.093682 -1.17383,-27.1406248 -6.94271,0 -13.88542,0 -20.82813,0 -3.12809,7.3565618 -6.25513,14.7135748 -9.38281,22.0703128 -1.34905,-7.356754 -2.69729,-14.713657 -4.04687,-22.0703128 -6.02084,0 -12.04167,0 -18.0625,0 -3.7081,11.4121838 -7.416704,22.8242068 -11.125,34.2363288 -1.901913,-11.411422 -3.802005,-22.823147 -5.705078,-34.2343757 -6.915365,0 -13.830729,0 -20.746094,0 -4.332292,9.8318397 -8.666836,19.6626857 -13,29.4941407 -9.669922,0 -19.339844,0 -29.009766,0 -0.82613,5.268479 -1.646797,10.537813 -2.470703,15.806641 -2.924734,-2.148026 -3.977151,-6.011072 -3.849609,-9.494141 0.262748,-4.797251 3.329038,-8.964657 6.994274,-11.851082 4.870015,-3.7604 11.144377,-5.30147 17.218988,-5.309062 3.747063,2.41e-4 7.514319,0.829904 10.83166,2.57616 1.081159,0.625554 2.627851,0.281895 3.170406,-0.885876 0.446706,-1.325351 0.505673,-2.77557 0.797828,-4.149462 0.775399,-4.643272 1.478646,-9.298641 2.133328,-13.9607562 C 54.966277,4.2208276 48.560055,2.6043517 42.045029,2.6826256 41.610276,2.6778456 41.175761,2.6965836 40.741121,2.703554 Z M 283.03799,4.2621478 c -7.96195,0.1024393 -15.51262,4.1622867 -20.76068,10.0193982 -1.39359,1.534517 -2.6541,3.19017 -3.76275,4.941539 -1.73044,-6.686994 -7.37289,-11.9667563 -13.89063,-13.9687497 -2.11485,-0.6741387 -4.34454,-0.7179122 -6.54217,-0.669304 -7.72613,-0.059882 -15.45241,0.00688 -23.17853,0.034538 -3.50249,21.9173363 -7.00347,43.8349143 -10.50782,65.7519533 10.84804,-0.01426 21.69816,0.03741 32.54489,-0.03466 6.35152,-0.482392 12.15395,-4.05263 16.26882,-8.791081 1.19462,-1.409642 2.25378,-2.942392 3.08278,-4.596132 3.16171,6.099222 8.52185,11.186931 15.10551,13.362433 6.52781,2.212793 13.90411,1.451615 19.96538,-1.774206 8.01413,-4.147918 13.88557,-11.790816 16.72598,-20.269868 -1.1687,7.405586 -2.33659,14.811301 -3.50586,22.216797 6.69467,0 13.38933,0 20.08399,0 1.35578,-8.962646 2.70808,-17.925819 4.0625,-26.888672 8.32578,-13.103998 16.64923,-26.209481 24.97656,-39.3124998 -7.81901,0 -15.63802,0 -23.45703,0 -2.92669,4.7067809 -5.85703,9.4112948 -8.78516,14.1171878 -1.8425,-4.705708 -3.68449,-9.4116143 -5.52734,-14.1171878 -7.55208,0 -15.10417,0 -22.65625,0 0.403,0.8782552 0.80599,1.7565104 1.20899,2.6347656 C 290.9606,5.1269256 286.997,4.1941121 283.03799,4.2621498 Z M 378.96573,22.27582 c 2.20547,4.037379 7.16381,6.131089 11.6289,5.289062 -2.68842,4.463112 -4.49456,9.461005 -5.33789,14.59961 -0.38592,2.73462 -0.39293,5.536781 0.13086,8.253906 -2.57037,0.241982 -5.14284,0.462911 -7.72707,0.491246 -1.63992,0.0586 -3.49207,0.05981 -5.00535,-0.02835 -1.80586,-0.164876 -3.69567,-0.249479 -5.3657,-1.012511 -2.41424,-1.308759 -3.19884,-4.318517 -3.00224,-6.882604 0.37711,-4.076523 2.12138,-7.90242 4.21755,-11.37051 2.43054,-3.786213 5.50437,-7.346086 9.52676,-9.483545 0.47075,-0.188821 0.73843,-0.567817 0.93418,0.143701 z m -94.79102,1.361328 c 2.56077,0.357515 4.23547,2.740144 4.98959,5.037002 1.67872,4.813418 1.00359,10.189738 -0.92255,14.825964 -1.45592,3.408878 -3.81608,6.704342 -7.30141,8.228831 -1.75738,0.716208 -3.92997,0.477367 -5.28534,-0.926358 -2.38326,-2.275948 -3.11254,-5.727176 -3.23746,-8.902149 -0.14359,-5.298669 1.56983,-10.714652 5.01168,-14.778928 1.6909,-1.916493 4.05465,-3.695441 6.74549,-3.484362 z m -47.86328,1.238281 c 0.5299,0.02251 1.26137,-0.01949 1.61328,0.441406 0.15129,1.459559 -1.45932,2.468553 -2.78711,2.34375 -1.21347,0.047 -2.42846,0.03688 -3.64258,0.02344 0.16016,-0.936198 0.32032,-1.872396 0.48047,-2.808594 1.44532,0 2.89063,0 4.33594,0 z m 306.13477,0.460938 c 0.95192,-0.04401 -0.46951,0.293641 -0.7454,0.408793 -0.47371,-0.602181 0.33231,-0.381965 0.7454,-0.408793 z m -122.16211,6.93164 c 1.30578,0.44829 1.99685,1.823056 2.56778,2.989895 1.00182,2.323676 1.54939,4.88378 1.45082,7.416689 -0.007,1.900979 -1.24459,3.489341 -2.59282,4.702791 -2.17563,1.908004 -5.30422,2.483383 -8.06119,1.695149 -3.52935,-0.83678 -6.08343,-4.38403 -5.37045,-7.992024 0.67795,-3.809439 3.84188,-6.729792 7.38276,-7.984781 1.4727,-0.553896 3.04755,-0.86105 4.6231,-0.827719 z m 78.5957,1.248047 c 2.18585,0.214208 4.64768,-0.06544 6.46824,1.412898 1.20468,0.858525 2.41526,2.15817 2.19593,3.757723 -0.0224,3.20744 -1.97304,6.229575 -4.79012,7.720687 -2.93364,1.763562 -6.8288,2.452527 -9.92288,0.684864 -1.5698,-0.824241 -2.78944,-2.256399 -3.23653,-3.98404 -0.59405,-1.756778 -0.58551,-3.800532 0.52656,-5.358811 1.87941,-2.835447 5.39381,-4.434344 8.7588,-4.233321 z m -263.99414,14.03711 c 1.01971,0.01257 2.38753,0.135239 2.875,1.18164 0.19973,1.2114 -1.13058,1.955687 -2.14401,2.180007 -2.19224,0.488174 -4.45553,0.126368 -6.67904,0.243821 -0.6203,-0.0073 -1.50859,0.214005 -1.07662,-0.691287 0.15471,-0.971394 0.30942,-1.942788 0.46412,-2.914181 2.18685,0 4.3737,0 6.56055,0 z" /><path
   id="path5256"
   fill="#2d288b"
   d="m 441.05179,30.355523 c -1.192,-3.612 -4.341,-7.049 -4.341,-7.049 0,0 -4.731,-6.146 -14.024,-8.242 -7.956,-1.664 -14.208,1.845 -14.208,1.845 0,0 -5.677,2.275 -9.943,6.978 -6.796,6.542 -8.749,16.088 -8.749,16.088 0,0 -2.604,8.314 1.521,14.896 l 4.482,5.422 c 6.326,5.279 13.087,5.819 13.087,5.819 0,0 5.46,1.229 11.824,-0.434 5.563,-1.122 9.614,-3.869 9.614,-3.869 0,0 9.222,-5.097 11.749,-15.509 z m -14.357,17.317 c 0,0 -3.686,6.437 -11.782,5.675 -9.51,-0.975 -10.628,-9.325 -10.628,-9.325 0,0 -1.305,-6.146 4.553,-11.498 5.931,-4.987 12.113,-4.229 12.113,-4.229 0,0 4.154,0.397 6.292,7.268 2.744,8.747 -0.548,12.109 -0.548,12.109" />
<path
   id="path5262"
   fill="#639d01"
   d="m 471.77779,47.783523 c -3.044,-0.672 -7.917,0.575 -7.917,0.575 0,0 -6.796,2.493 -7.845,2.458 -0.396,-0.577 -1.263,-11.677 -1.012,-16.123 0.146,-7.846 -0.509,-14.243 -0.509,-14.243 0,0 -0.323,-7.558 -4.373,-12.0390002 -4.771,-4.811 -8.101,-2.747 -10.016,-1.593 -4.591,4.1220002 -2.457,9.1460002 -2.457,9.1460002 l 2.389,6.762 c 0,0 1.155,2.894 1.012,7.628 l 1.012,15.944 c 0,2.133 1.737,16.484 1.737,16.484 0,0 0.176,4.665 4.661,5.496 4.593,0.759 9.109,-1.52 11.025,-2.423 1.917,-0.901 4.447,-1.697 4.447,-1.697 0,0 2.098,-0.471 4.194,-0.65 4.916,-0.472 6.688,-1.338 6.688,-1.338 0,0 1.901,-0.286 3.184,-2.099 1.278,-1.81 2.826,-10.302 -6.22,-12.288" />
<path
   id="path5264"
   fill="#94012c"
   d="m 391.30479,54.868523 c -3.229,-0.969 -6.938,-0.327 -6.938,-0.327 0,0 -10.485,1.011 -15.945,-0.146 -8.457,-1.48 -8.174,-10.592 -8.174,-10.592 0,0 -0.283,-6.039 4.813,-14.208 6.289,-10.088 13.23,-11.895 13.23,-11.895 0,0 1.733,-0.649 3.36,0.217 1.013,5.854 6.688,5.818 6.688,5.818 0,0 8.171,0.545 7.771,-9.359 -0.938,-8.1380002 -8.782,-9.2570002 -12.074,-10.0180002 -9.864,-1.771 -16.269,3.508 -16.269,3.508 0,0 -6.614,3.5780002 -14.531,16.0510002 -5.391,7.735 -6.04,13.811 -6.04,13.811 0,0 -0.649,1.446 -0.396,7.883 -0.145,5.023 1.737,8.676 1.737,8.676 0,0 2.854,8.645 11.891,12.187 5.497,2.276 13.525,2.241 13.525,2.241 0,0 7.771,-0.108 13.733,-0.435 3.255,0.252 4.812,-1.447 4.812,-1.447 0,0 3.648,-2.385 3.289,-6.543 0,0 -0.708,-4.295 -4.482,-5.422" />
<path
   id="path5266"
   fill="#2e3192"
   d="m 156.79279,66.484523 h -11.956 l -1.598,-36.012 -15.545,36.012 h -7.975 l -6.642,-32.557 -10.367,32.557 H 82.378793 l -3.057,-17.403 h -13.822 l -7.84,17.403 h -12.495 l 25.652,-58.2000002 h 14.749 l 7.839,47.0400002 15.284997,-47.0410002 h 11.823 l 5.848,31.8930002 13.56,-31.8930002 h 14.351 z m -79.272997,-28.707 -2.189,-11.29 -5.049,11.29 h 7.238" />
<path
   id="path5268"
   fill="#2e3192"
   d="m 191.07679,66.484523 1.998,-12.488 h -20.866 l 1.654,-10.365 h 18.148 l 1.994,-12.495 h -18.341 l 1.594,-10.366 h 20.861 l 1.995,-12.4860002 h -33.087 l -9.305,58.2000002 h 33.355" />
<path
   id="path5270"
   fill="#2e3192"
   d="m 346.42379,8.2835228 h -13.954 l -11.827,19.0000002 -7.438,-19.0000002 h -13.688 l 14.084,30.6920002 -4.339,27.508 h 11.963 l 3.671,-24.315 21.528,-33.8850002" />
<path
   id="path5272"
   fill="#2e3192"
   d="m 257.31079,32.378523 c 3.714,-16.093 17.469,-26.6540002 30.717,-23.5910002 13.256,3.0630002 20.989,18.5860002 17.278,34.6790002 -3.714,16.089 -17.467,26.652 -30.721,23.589 -13.253,-3.063 -20.985,-18.59 -17.274,-34.677 z m 18.099,23.023 c 6.327,2.83 14.078,-2.721 17.302,-12.398 3.223,-9.685 0.714,-19.828 -5.614,-22.659 -6.328,-2.832 -14.069,2.722 -17.298,12.404 -3.227,9.683 -0.713,19.821 5.61,22.653" />
<path
   id="path5276"
   fill="#2e3192"
   d="m 228.59979,20.873523 c 0,0 0.265,0 7.786,0 8.439,0 6.727,10.812 -1.316,10.812 -6.596,0 -8.313,0 -8.313,0 z m -3.689,22.679 c 0,0 2.505,0 10.021,0 9.499,0 9.233,11.605 -1.317,11.605 -6.59,0 -10.55,0 -10.55,0 z m -6.595,-34.9490002 -9.229,57.7670002 c 0,0 19.122,0 26.903,0 11.076,0 27.276,-16.326 12.531,-29.672 15.162,-15.692 0.126,-27.9550002 -7.916,-28.0950002 -6.461,-0.104 -22.416,0 -22.416,0 h 0.127" />
<path
   id="path5274"
   fill="#2e3192"
   d="m 19.652793,13.464523 c -11.396,7.053 -16.876,17.803 -15.417,32.422 1.697,16.957 23.656,27.64 42.259,16.879 1.629,-0.94 0.992,-0.792 1.595,-1.331 l 3.723,-23.656 h -22.194 l -1.702,10.897 h 9.276 l -1.065,5.85 c -5.314,2.125 -14.352,1.327 -18.204,-5.582 -2.44,-4.376 -4.703,-14.142 5.583,-23.124 8.369,-7.309 22.856,-8.633 31.23,-4.78 0,0 1.062,-6.111 1.857,-11.8290002 -16.078,-5.58 -28.571,-0.927 -36.941,4.2540002" />
<path
   id="path5258"
   fill="#c8a601"
   d="m 522.64679,28.439523 c -6.325,-10.339 -17.46,-11.894 -17.46,-11.894 0,0 -3.543,-1.194 -11.133,-0.183 -14.246,2.713 -19.2,13.667 -19.2,13.667 0,0 -5.099,8.024 -3.074,17.75 l 6.224,12.292 c 4.59,4.302 6.469,4.302 6.757,4.558 6.076,2.747 13.125,1.156 13.125,1.156 0,0 8.895,-0.867 17.029,-7.194 6.506,-4.771 9.326,-11.786 9.326,-11.786 l 0.863,-9.41 z m -17.316,21.113 c -10.231,6.146 -16.668,-0.579 -16.668,-0.579 0,0 -2.855,-1.88 -3.47,-7.593 -0.438,-6.615 6.146,-10.05 6.146,-10.05 0,0 3.471,-2.134 7.81,-1.808 4.339,0.324 5.708,0.035 9.219,2.64 3.324,3.002 3.107,5.206 3.107,5.206 0,0 1.195,7.449 -6.144,12.184" />
<path
   id="path5260"
   fill="#00766a"
   d="m 524.23879,46.805523 c 0,0 0.218,5.783 -0.688,7.194 -1.229,2.639 -1.047,5.206 -1.047,5.206 0,0 -0.835,7.809 8.209,9.107 6.214,-0.035 6.971,-5.206 7.081,-7.411 0.36,-1.732 0.217,-9.798 0.217,-9.798 l 8.063,6.581 c 0,0 5.856,4.917 9.295,7.772 3.581,2.818 4.479,3.325 4.479,3.325 0,0 0.763,0.901 3.506,0.577 2.211,0.038 4.234,-1.952 4.234,-1.952 0,0 2.563,-1.875 3.214,-5.167 0.795,-3.905 -2.24,-5.821 -2.24,-5.821 0,0 -11.205,-9.039 -18.798,-15.258 5.097,-2.783 7.556,-4.699 7.556,-4.699 0,0 7.088,-4.698 8.604,-11.896 2.099,-7.918 -3.867,-11.024 -3.867,-11.024 0,0 -3.726,-2.676 -6.87,-4.0870002 -7.92,-3.868 -15.293,-3.073 -15.293,-3.073 0,0 -10.483,-0.722 -17.316,7.7030002 -3.144,4.083 -1.19,9.436 -1.19,9.436 0,0 0.388,0.857 1.263,4.916 1.753,8.167 1.588,18.369 1.588,18.369 z m 13.738,-16.053 -0.688,-9.435 c 0,0 6.614,-0.146 9.363,0.324 5.426,0.831 5.134,2.352 5.134,2.352 0,0 -0.181,1.915 -4.303,3.796 -4.48,2.17 -9.506,2.963 -9.506,2.963" />
</svg>
