<?xml version="1.0" encoding="UTF-8" standalone="no"?>
<svg
   width="335.14206"
   height="127.40268"
   viewBox="0 0 335.14206 127.40268"
   version="1.1"
   xml:space="preserve"
   style="clip-rule:evenodd;fill-rule:evenodd;stroke-linejoin:round;stroke-miterlimit:1.41420996"
   id="svg11"
   sodipodi:docname="system_color.svg"
   inkscape:version="1.1.2 (0a00cf5339, 2022-02-04)"
   xmlns:inkscape="http://www.inkscape.org/namespaces/inkscape"
   xmlns:sodipodi="http://sodipodi.sourceforge.net/DTD/sodipodi-0.dtd"
   xmlns="http://www.w3.org/2000/svg"
   xmlns:svg="http://www.w3.org/2000/svg"
   xmlns:rdf="http://www.w3.org/1999/02/22-rdf-syntax-ns#"
   xmlns:cc="http://creativecommons.org/ns#"
   xmlns:dc="http://purl.org/dc/elements/1.1/"><metadata
     id="metadata17"><rdf:RDF><cc:Work
         rdf:about=""><dc:format>image/svg+xml</dc:format><dc:type
           rdf:resource="http://purl.org/dc/dcmitype/StillImage" /></cc:Work></rdf:RDF></metadata><defs
     id="defs15" /><sodipodi:namedview
     pagecolor="#7f7f81"
     bordercolor="#666666"
     borderopacity="1"
     objecttolerance="10"
     gridtolerance="10"
     guidetolerance="10"
     inkscape:pageopacity="0"
     inkscape:pageshadow="2"
     inkscape:window-width="1920"
     inkscape:window-height="995"
     id="namedview13"
     showgrid="false"
     units="px"
     inkscape:zoom="3.0519798"
     inkscape:cx="213.79565"
     inkscape:cy="38.663428"
     inkscape:window-x="0"
     inkscape:window-y="0"
     inkscape:window-maximized="1"
     inkscape:current-layer="g4180"
     fit-margin-top="0"
     fit-margin-left="0"
     fit-margin-right="0"
     fit-margin-bottom="0"
     inkscape:pagecheckerboard="true" /><g
     id="g4180"
     transform="matrix(1.1526871,0,0,1.1526871,0,3.0783984e-4)"><path
       id="path8930"
       style="fill-rule:nonzero;stroke:none;stroke-width:1.15269;fill:#000000"
       d="M 281.44531 0.021484375 C 276.5758 0.1362459 272.32566 3.4732571 269.99219 7.5859375 C 268.12796 10.732665 267.26671 14.377322 267.12109 18.007812 C 266.86053 19.491901 265.49664 20.590047 263.99609 20.570312 C 261.64903 20.710762 259.33179 20.257933 256.9668 20.701172 C 249.33569 21.689934 242.54515 26.029146 237.15039 31.335938 C 236.69938 31.707898 236.38471 32.306371 235.81836 32.498047 C 235.43813 31.821826 235.51721 30.955414 235.16406 30.240234 C 233.64182 26.085736 229.60854 23.434046 225.48828 22.302734 C 223.12495 21.597497 220.63797 21.585045 218.24414 21.041016 C 209.65705 19.558242 200.32033 20.824548 193.02539 25.806641 C 191.35701 26.937049 189.88321 28.3453 188.47852 29.761719 C 188.00481 29.836471 188.07059 28.951443 187.84766 28.650391 C 186.15732 24.179104 181.65986 21.395939 177.13086 20.488281 C 172.68037 19.537055 168.051 20.15694 163.6875 21.253906 C 160.15119 22.21948 156.76517 23.647717 153.39844 25.080078 C 151.86955 23.016064 149.72178 21.383156 147.20117 20.767578 C 142.24925 19.386515 136.83622 20.698022 132.5918 23.449219 C 129.98256 21.656004 126.75705 20.855632 123.61133 21.191406 C 118.8704 21.597311 114.07872 24.457742 112.39648 29.0625 C 111.23571 33.20413 109.09109 36.969762 106.91016 40.646484 C 106.53065 41.01297 106.31388 42.28383 105.72266 41.960938 C 103.91153 35.431932 103.89134 28.555428 103.2168 21.839844 C 102.71328 16.795977 101.91989 11.660836 99.710938 7.0507812 C 98.984295 5.503322 97.506972 4.4663086 96.130859 3.5214844 C 88.992649 -0.92490354 78.931586 0.94579677 73.40625 7.1328125 C 71.718935 8.9696597 70.693373 11.271041 69.3125 13.326172 C 65.826198 19.073447 62.608095 25.124627 58.929688 30.611328 C 56.417348 34.421902 53.366386 37.834831 50.800781 41.607422 C 36.882108 60.763781 23.412717 80.259243 8.9785156 99.003906 C 5.2584485 103.9033 1.3654289 109.03727 0.16015625 115.21484 C -0.25026952 117.31767 0.97209216 119.30199 2.1464844 120.93945 C 5.5516028 125.23765 11.424212 126.92226 16.730469 126.30273 C 22.642013 125.49877 27.977662 122.10428 31.857422 117.66016 C 36.425913 112.59121 39.344293 106.36071 42.537109 100.40234 C 44.781034 96.51119 47.1397 92.680188 49.748047 89.021484 C 62.256062 88.511782 74.837404 88.525229 87.267578 90.171875 C 89.855072 98.841458 90.268567 108.15758 94.199219 116.41602 C 95.805085 119.74027 98.014366 122.85523 100.9375 125.14062 C 105.45382 128.38916 111.85857 127.97539 116.40039 124.99805 C 117.43158 124.3337 118.38432 123.54624 119.22266 122.65039 C 122.19951 125.99077 126.77264 127.54015 131.17578 127.39844 C 136.35612 127.25352 141.26853 125.19128 145.67188 122.58594 C 147.87458 124.3944 150.66979 125.43214 153.52539 125.43164 C 157.61333 125.53953 161.66209 124.03017 164.85156 121.50586 C 168.21296 124.39193 173.09781 124.65223 177.17773 123.35938 C 179.32184 122.73496 181.32372 121.6905 183.15625 120.42383 C 185.70096 122.43853 189.05089 123.29483 192.25586 122.85742 C 194.83519 122.53546 197.32458 121.43481 199.25195 119.68359 C 204.86711 122.85201 211.92893 122.43149 217.66406 119.80273 C 219.21856 119.14397 220.63926 118.21725 222.00781 117.23828 C 224.72466 119.12123 227.98694 120.15642 231.29297 120.17188 C 236.30713 120.30008 241.28092 118.71182 245.54688 116.14453 C 246.06318 115.72269 246.61546 114.95153 247.35742 115.0918 C 248.20764 115.8934 249.10143 116.72764 250.25 117.13281 C 255.46954 119.50938 262.02235 118.02386 265.95703 113.92773 C 271.32022 117.4835 278.36475 117.62657 284.27344 115.41602 C 286.2075 114.70093 288.05003 113.70637 289.77539 112.61328 C 294.6417 115.42746 300.62592 116.06797 306.02148 114.56836 C 310.79782 113.27633 315.33383 110.21152 317.52148 105.66992 C 319.02878 102.33353 319.00649 98.370544 317.54297 95.023438 C 323.2092 92.554042 328.20855 88.458985 331.41992 83.144531 C 333.00935 80.569579 334.31655 77.785572 335.11719 74.869141 C 335.41315 71.771428 332.95567 69.086371 330.1543 68.150391 C 328.38508 67.429644 326.4483 67.436262 324.57422 67.474609 C 323.31321 67.28922 322.02837 65.682027 322.98242 64.521484 C 324.13436 63.426069 325.56372 62.656341 326.67188 61.5 C 330.13752 58.416608 333.26568 54.442965 333.80859 49.693359 C 333.97462 47.712992 333.77186 45.538747 332.62891 43.871094 C 331.37887 42.430049 329.40633 41.979367 328.04688 40.695312 C 327.53302 40.173796 328.17499 39.462648 328.16992 38.835938 C 329.38074 32.742916 326.354 26.201413 321.14844 22.900391 C 317.44104 20.419922 312.75765 19.727633 308.42773 20.275391 C 301.10149 21.043453 294.54496 24.941204 288.91211 29.478516 C 288.40513 29.813099 288.01016 30.42304 287.39844 30.525391 C 287.21379 29.765621 287.64645 28.936416 287.7168 28.154297 C 289.21098 21.035598 291.86577 14.201585 293.11719 7.0292969 C 293.28757 5.9348758 293.39578 4.638637 292.75977 3.6953125 C 290.65514 0.95969553 287.03964 0.18300625 283.76953 0.056640625 C 282.99595 0.019385778 282.21983 0.0055311855 281.44531 0.021484375 z M 282.45312 5.1875 C 283.05908 5.1562154 283.66082 5.168384 284.24609 5.2167969 L 284.24805 5.2167969 C 285.80879 5.3470505 287.25673 5.7397721 288.38867 6.4394531 C 288.76445 6.6711432 288.93769 7.1277452 288.80859 7.5507812 C 283.80593 24.01 278.20524 40.256938 273.33398 56.701172 C 273.55761 57.289042 273.80568 57.748011 274.0293 57.933594 C 274.29096 58.150299 274.52071 58.213564 274.89648 58.183594 C 275.64919 58.122501 276.91593 57.427148 278.20117 56.3125 C 280.74054 54.109715 283.39886 50.518189 284.52734 48.794922 C 285.9659 42.588855 289.36104 36.600496 294.13086 32.242188 C 298.94563 27.843534 305.25966 25.511399 312.10547 25.46875 C 316.15486 25.443391 320.91375 28.071193 322.30273 32.066406 C 323.70671 36.101964 323.0115 41.088146 319.68945 44.294922 C 313.75311 50.30388 305.11071 50.671195 297.54102 51.052734 C 297.10645 54.335587 298.62889 56.701913 301.11523 58.083984 C 303.78947 59.569798 307.48918 59.77033 310.42969 58.269531 C 310.50692 58.23034 310.58853 58.200884 310.67383 58.183594 C 313.84718 57.524257 316.58287 55.231767 319.26172 52.775391 C 321.94172 50.320167 324.52609 47.691937 327.73633 46.761719 C 328.37837 46.574983 329.01194 47.078688 328.97852 47.746094 C 328.7791 51.743613 326.34461 54.878983 323.39258 57.441406 C 320.44055 60.00383 316.90912 62.076678 314.21875 63.984375 C 314.17956 64.012039 314.13755 64.03474 314.09375 64.056641 C 307.20875 67.544672 298.87236 67.916407 291.60352 65.945312 C 289.87333 65.657142 288.61202 64.55151 287.66797 63.351562 C 286.71931 62.147005 286.02034 60.806499 285.38867 59.835938 C 285.07284 59.351809 284.77331 58.965104 284.53125 58.746094 C 284.28919 58.527083 284.16179 58.488281 284.04883 58.488281 C 283.93586 58.488281 283.70928 58.536558 283.30469 58.878906 C 282.90009 59.221254 282.36373 59.839152 281.73438 60.783203 C 281.72515 60.798188 281.71625 60.81234 281.70703 60.826172 C 279.32327 64.024879 274.56874 66.5533 270.08594 67.080078 C 269.96465 67.094359 269.84566 67.090375 269.72461 67.101562 C 270.74451 68.675888 271.38139 70.509911 271.49414 72.482422 C 278.35904 72.556861 298.68737 72.807305 298.98828 72.806641 C 336.59239 72.736327 332.50414 70.491725 325.4082 82.337891 C 323.05882 86.259573 320.33369 88.623755 317.30664 90.050781 C 316.58165 91.178941 315.60156 92.126443 314.29688 92.697266 C 314.59541 95.082175 316.98584 97.920566 316.01758 100.79883 C 314.52139 108.81692 305.45491 112.32721 298.09961 111.5918 C 295.00926 111.84885 292.50059 110.16659 290.11914 108.48828 C 287.34808 109.93145 284.41006 112.00264 281.11914 112.63086 C 275.78796 114.04521 269.66994 113.12905 265.54102 109.38281 C 261.77173 115.71568 250.57434 116.8187 247.10938 109.58789 C 246.25754 110.53309 245.47819 112.07324 244.35547 113 C 238.15862 116.4765 229.30126 118.5626 223.18164 113.78125 C 222.20301 112.18017 221.34953 112.99565 220.28906 114.14258 C 214.37462 118.82249 204.61529 120.24188 198.6582 114.91992 C 196.12921 119.48917 188.94584 121.08332 185.08203 117.40625 C 183.92934 115.25418 182.09624 116.33956 180.74414 117.61328 C 176.27287 121.49899 168.45333 121.8866 164.82812 116.64648 C 160.68768 122.00533 150.92069 124.16732 146.03906 118.28516 C 143.53082 119.66031 140.44925 121.91584 137.25977 122.63281 C 131.09174 125.00274 122.78593 123.86597 119.47656 117.52734 C 114.01628 105.53709 124.10465 91.049697 136.51562 89.248047 C 140.78287 88.852675 147.0007 88.74158 148.84961 93.539062 C 149.79433 90.843878 150.42903 87.104312 151.39453 83.640625 C 136.10359 83.088437 122.28356 82.777988 112.26758 82.962891 C 108.92363 85.344342 109.07788 87.765151 113.16992 97.029297 C 119.65724 111.72029 117.92865 122.21235 109.01953 122.20312 C 107.43343 122.20083 104.9812 121.49467 103.57031 120.63477 C 99.842525 118.36167 97.228952 112.0536 94.650391 99.105469 C 93.419321 92.92015 92.004973 87.302332 91.505859 86.621094 C 90.006213 84.568158 83.448446 83.657626 64.535156 83.693359 C 58.541183 83.703734 47.137253 82.785115 46.066406 84.824219 C 44.252077 88.277669 39.056979 95.626319 36.542969 100.32812 C 30.293099 112.05095 28.232799 114.93641 23.820312 118.13281 C 17.957747 122.37931 9.5963193 122.11491 6.0195312 117.56641 C 4.4876102 115.61837 4.4698457 115.35103 5.7089844 112.92578 C 6.4317192 111.50913 9.1128133 107.59036 11.666016 104.21875 C 14.219218 100.84599 19.847793 93.427048 24.173828 87.730469 C 28.49871 82.033889 32.662702 76.147731 33.425781 74.650391 C 34.190013 73.151897 40.148723 64.80435 46.666016 56.101562 C 61.059619 36.880506 69.621884 24.309574 73.330078 16.953125 C 76.524174 10.614499 78.209793 8.8561084 82.576172 7.2988281 C 84.791925 6.5086611 86.834358 6.1699963 88.652344 6.25 C 94.106301 6.4900111 97.53823 10.489745 97.546875 17.3125 C 97.557249 23.267282 99.650084 38.986437 102.04883 51.078125 C 105.05849 66.254403 105.78299 68.329086 108.60938 69.888672 C 109.8015 70.547371 195.12944 71.598807 249.25586 72.220703 C 249.51374 69.031776 251.15588 66.237076 253.55273 64.361328 C 252.026 65.305173 250.39658 66.096515 248.68555 66.587891 C 244.75719 67.715219 240.45201 67.418952 236.91211 64.708984 C 236.90058 64.699763 236.88963 64.692015 236.87695 64.681641 C 234.97502 63.075947 234.13321 60.408259 233.3125 59.238281 C 233.10732 58.945499 232.9197 58.762168 232.8125 58.695312 C 232.7053 58.628458 232.72067 58.632396 232.625 58.654297 C 232.43481 58.696946 231.67523 59.200917 230.65625 60.710938 C 230.64818 60.722463 230.63893 60.734567 230.63086 60.746094 C 228.24941 63.960938 223.48367 66.522434 218.98242 67.072266 C 216.73238 67.347758 214.51022 67.102386 212.73047 65.978516 C 210.95072 64.854646 209.73579 62.828534 209.51562 60.013672 C 209.50526 59.890334 209.51895 59.767965 209.55469 59.650391 C 209.89934 58.533437 209.9326 58.059052 209.99023 57.570312 C 209.79082 57.714398 209.73781 57.716184 209.49805 57.9375 C 208.91363 58.4735 208.23237 59.192352 207.54883 59.953125 L 207.57422 59.921875 C 205.06251 62.975343 201.39484 65.502539 197.42383 66.617188 C 193.45397 67.730682 189.10829 67.382581 185.59375 64.552734 C 185.56147 64.526223 185.52882 64.49872 185.5 64.46875 C 183.87241 62.768537 183.00136 60.294047 182.16797 59.232422 C 181.95933 58.967304 181.76902 58.804337 181.64453 58.736328 C 181.51889 58.667167 181.47826 58.659035 181.3457 58.685547 C 181.07943 58.73857 180.33948 59.194517 179.33203 60.554688 C 179.28592 60.616932 179.2318 60.675044 179.17188 60.724609 C 172.02291 66.673627 162.37527 67.926 153.5918 66.601562 L 153.58594 66.599609 C 149.27835 65.928745 146.34397 63.053157 144.87891 59.535156 C 143.4196 56.028682 143.32007 51.871582 144.47852 48.263672 C 145.98162 42.01265 149.54316 35.966147 154.48242 31.65625 C 159.40785 27.35788 165.75133 24.802044 172.68359 25.675781 C 176.62233 25.112117 180.01495 26.156395 181.89844 28.488281 C 183.76579 30.800572 183.9125 34.254314 181.94141 37.869141 C 181.8757 40.138782 181.25704 41.929506 179.91992 42.998047 C 178.57271 44.075142 176.70081 44.258453 174.56836 43.828125 C 173.98735 43.903606 173.44611 43.891872 172.95898 43.707031 C 172.40915 43.498395 171.97093 43.069906 171.72656 42.599609 C 171.23898 41.659017 171.29911 40.635331 171.38672 39.589844 C 171.47432 38.543204 171.64824 37.45801 171.70703 36.53125 C 171.76351 35.62178 171.65507 34.919736 171.49023 34.626953 C 170.0609 32.960168 168.75851 32.552026 167.39258 32.767578 C 166.00128 32.987741 164.45696 33.993886 163.04492 35.503906 C 160.22084 38.522794 158.01649 43.489087 157.78711 46.423828 C 157.78019 46.516043 157.75884 46.608862 157.72656 46.695312 C 156.47359 49.996608 157.05507 53.751806 158.86133 56.277344 C 160.66759 58.802881 163.52803 60.165657 167.37109 58.876953 C 167.40222 58.866579 167.43452 58.858479 167.4668 58.851562 C 174.459 57.278146 181.98905 52.796988 183.53711 45.599609 C 183.54864 45.545433 183.56599 45.491324 183.58789 45.439453 C 188.43379 33.430759 201.05108 23.468414 214.65625 25.841797 C 214.70351 25.849866 214.74997 25.861968 214.79492 25.876953 C 217.38616 26.732247 222.18487 26.856184 225.71094 27.931641 C 227.4734 28.468793 229.07168 29.290151 229.74023 30.880859 C 230.39035 32.432376 229.93209 34.350171 228.43359 36.660156 C 227.71086 40.579292 225.85028 44.585316 224.45898 48.443359 C 223.18757 51.972887 222.42571 55.296336 223.00781 58.220703 C 229.46862 56.188516 233.65937 48.884125 236.09961 42.509766 C 236.10998 42.480948 236.12289 42.453446 236.13672 42.425781 C 238.77637 37.116504 243.23475 32.130571 248.60742 28.96875 C 253.9801 25.805777 260.33069 24.481449 266.53906 26.699219 C 267.21223 27.004681 267.65921 27.357256 268.4707 27.652344 C 268.83034 27.686924 269.02654 27.615014 269.30664 27.367188 C 269.86685 26.872685 270.4869 25.460588 270.94336 23.679688 C 271.39982 21.897633 271.76254 19.776775 272.21094 17.818359 C 273.05125 14.197769 274.20226 9.4930115 277.22461 6.7265625 C 278.77987 5.7539828 280.63528 5.2813539 282.45312 5.1875 z M 143.17969 25.335938 C 144.15256 25.333632 145.14496 25.494742 146.13281 25.835938 C 147.03076 26.005382 147.78796 26.363526 148.33203 26.917969 C 148.87956 27.477022 149.1736 28.202886 149.27734 28.939453 C 149.48483 30.41374 149.05582 32.002944 148.4668 33.658203 C 147.87662 35.312309 147.09123 37.02315 146.42383 38.578125 C 145.75757 40.1331 145.22455 41.557199 145.10352 42.435547 C 145.04819 42.837835 144.74729 43.163196 144.34961 43.251953 C 142.82576 43.593149 140.58367 44.163587 138.6875 43.923828 C 137.73884 43.803949 136.73499 43.416707 136.23242 42.472656 C 135.77365 41.609294 135.89545 40.533004 136.34961 39.300781 C 136.30465 38.317539 136.12055 37.677803 135.9707 37.447266 C 135.81509 37.206354 135.84017 37.238218 135.60156 37.257812 C 135.12435 37.299309 133.74823 38.141622 132.39844 39.515625 C 129.70115 42.264784 126.70279 46.898724 126.07227 48.558594 C 126.05843 48.59548 126.04108 48.633388 126.02148 48.667969 C 123.22737 53.962261 120.75752 61.430151 119.30859 65.447266 C 119.15068 65.884134 118.00894 67.506273 117.56055 67.625 C 109.456 67.754101 107.94273 68.639467 107.22461 60.919922 C 106.80503 49.346943 114.35186 38.971273 118.73438 28.140625 C 118.83926 27.882423 119.04969 27.681258 119.3125 27.587891 C 122.38095 26.502059 126.02697 25.951665 128.58594 26.919922 C 129.86542 27.40405 130.9342 28.50948 130.99414 29.994141 C 131.01489 30.503628 130.90773 31.041709 130.73828 31.599609 C 131.64084 30.887249 132.58358 30.120886 133.68555 29.310547 C 136.38514 27.321009 139.61558 25.342853 143.17969 25.335938 z M 210.27344 31.976562 C 206.30935 31.668796 201.28842 34.631264 199.70117 38.386719 C 199.68042 38.436284 199.65382 38.482389 199.625 38.527344 C 198.05273 41.015995 195.84319 45.851608 195.24609 49.960938 C 194.94755 52.016178 195.06479 53.865753 195.69531 55.140625 C 196.30969 56.383222 197.34265 57.194187 199.38867 57.431641 L 200.58203 57.113281 L 201.7793 56.541016 C 208.37497 51.488788 212.57974 43.730434 215.51562 35.914062 C 214.43787 33.266341 212.55576 32.154076 210.27344 31.976562 z M 261.00195 31.978516 C 258.89254 31.95892 256.48752 32.834084 254.44727 34.271484 C 252.40701 35.708885 250.74678 37.693671 250.01367 39.730469 C 249.98255 39.815768 249.93974 39.896931 249.88672 39.970703 C 248.39053 42.042082 246.36123 48.024567 246.35547 52.363281 C 246.35316 54.532638 246.86003 56.203943 247.74414 56.933594 C 248.18562 57.297843 248.73615 57.506276 249.59375 57.484375 C 250.43175 57.462474 251.56167 57.175058 252.9668 56.521484 C 259.5302 51.515364 263.64341 43.792324 266.67383 36.056641 C 265.46466 33.083861 263.43873 32.001569 261.00195 31.978516 z M 308.91602 32.378906 C 308.30048 32.385822 307.42993 32.594989 306.3418 33.091797 C 305.0139 34.078497 302.36399 36.811679 300.64648 39.4375 C 299.77736 40.765396 299.14867 42.082397 298.97461 43.019531 C 298.88816 43.487522 298.9131 43.839776 298.99609 44.070312 C 299.05488 44.236299 299.20482 44.343716 299.35352 44.458984 C 299.48607 44.63304 302.21578 44.354081 305.11133 43.308594 C 307.46742 42.457911 309.68588 40.060476 310.52734 37.216797 C 310.94692 35.794381 310.98384 34.426245 310.69336 33.585938 C 310.40403 32.744476 310.02951 32.365074 308.91602 32.378906 z M 81.230469 34.337891 C 80.069713 33.620919 56.347798 65.978164 55.675781 69.195312 C 55.510947 69.982598 56.938256 70.432178 60.761719 70.792969 C 67.524534 71.430405 88.259912 71.276749 88.949219 70.583984 C 89.236238 70.295813 88.487057 64.410807 87.287109 57.503906 C 85.062423 44.710232 82.566433 35.164367 81.230469 34.337891 z M 261.15039 57.570312 C 260.95213 57.714398 260.89716 57.715031 260.65625 57.9375 C 260.07299 58.4735 259.39057 59.192352 258.70703 59.953125 L 258.73438 59.921875 C 257.64999 61.235839 256.32505 62.420559 254.88477 63.46875 C 256.51391 62.533577 258.36963 61.955078 260.36719 61.955078 C 260.58911 61.955078 260.80651 61.975234 261.02539 61.988281 C 260.85039 61.379287 260.72991 60.720998 260.67578 60.009766 C 260.66656 59.888733 260.67991 59.766812 260.7168 59.650391 C 261.0603 58.533437 261.09391 58.059052 261.15039 57.570312 z M 172.43555 84.521484 C 172.0492 85.71602 171.55331 86.858907 170.9375 87.837891 C 167.17398 94.899252 159.83195 100.11971 159.12305 108.64844 C 159.03198 110.96764 162.02211 106.0746 162.5293 104.66602 C 165.14244 94.559251 174.35384 85.834879 185.12109 85.912109 C 189.53243 86.929932 195.11507 85.441778 198.48438 89.242188 C 200.63989 94.071945 197.10795 99.341603 196.31836 104.1875 C 197.5794 102.18989 198.85892 100.05772 200.91992 98.785156 C 203.1642 98.364425 201.94558 96.177731 201.58594 94.746094 C 201.28997 91.22846 203.29935 88.225424 206.11133 86.224609 C 194.83619 85.59895 183.54142 85.033429 172.43555 84.521484 z M 226.32031 87.414062 C 226.48609 87.664815 226.64488 87.924602 226.78711 88.207031 C 226.9738 87.958074 227.19992 87.722838 227.40234 87.478516 C 227.02924 87.456387 226.69489 87.43622 226.32031 87.414062 z M 264.49414 89.689453 C 263.65243 93.048234 262.0617 96.379324 261.74805 99.726562 C 262.50882 99.86719 263.11029 97.143045 263.63477 96.232422 C 264.05268 93.953365 264.90708 91.782608 266.07227 89.783203 C 265.44582 89.744565 265.13904 89.729307 264.49414 89.689453 z M 279.63867 90.59375 C 277.29151 93.438729 276.64602 97.655962 277.55469 101.21484 C 281.41158 104.26716 287.3866 100.37278 288.50586 96.296875 C 284.75547 97.900709 281.05587 94.403103 280.94727 90.671875 C 280.59718 90.651838 280.00548 90.615025 279.63867 90.59375 z M 293.16211 91.255859 C 293.02541 91.837534 293.85218 91.737382 294.20312 91.283203 C 293.8629 91.264763 293.5051 91.271321 293.16211 91.255859 z M 226.29102 95.15625 C 226.18074 95.254643 226.03897 95.591252 225.96289 95.617188 C 225.0027 97.036144 227.1083 96.156782 226.38672 95.15625 C 226.3605 95.115618 226.32778 95.123452 226.29102 95.15625 z M 182.88477 95.472656 C 178.02734 96.980371 176.16364 103.34587 176.53711 107.97852 C 178.62117 108.12606 180.1681 104.46763 181.56055 102.71094 C 183.1916 100.98421 185.54863 97.170564 182.88477 95.472656 z M 248.84375 96.455078 C 248.77113 97.008368 247.21274 96.837842 246.875 97.65625 C 246.34361 100.91605 249.59761 99.203084 248.84375 96.455078 z M 299.75195 98.574219 C 298.33761 98.971896 297.50342 101.21912 299.53906 101.73438 C 302.14414 102.53664 301.69538 98.968438 299.75195 98.574219 z M 136.04492 99.488281 C 132.31367 102.1971 130.98152 107.94065 132.96875 112.18945 C 137.22332 113.65682 141.24111 110.49403 143.94531 107.48438 C 146.09738 105.50291 144.80927 105.93483 142.99609 106.64258 C 138.73922 108.3474 135.14006 103.39589 136.04492 99.488281 z M 232.43164 102.53906 C 232.09506 103.21223 231.13947 105.14191 231.35156 106.39258 C 233.78027 108.5043 234.61598 103.45084 232.43164 102.53906 z M 207.67773 104.29883 C 207.42414 105.48033 206.86035 107.14918 207.57617 108.32031 C 210.38873 109.63438 209.64998 104.78411 207.67773 104.29883 z "
       transform="matrix(0.86753812,0,0,0.86753812,0,-2.670628e-4)" /><path
       id="path9853"
       style="fill:#ffffff;fill-rule:nonzero"
       d="m 245.11914,6.2597656 c -1.33889,0.1171513 -2.82541,0.335339 -3.85156,1.2675782 -2.26242,2.5860072 -2.90371,6.0920152 -3.66043,9.3368152 -0.61997,2.644037 -0.8608,5.519454 -2.46262,7.801857 -0.76639,1.041166 -2.28788,1.447167 -3.41015,0.748046 -2.0019,-1.179282 -4.4009,-1.500665 -6.69181,-1.425127 -5.72042,0.273612 -10.88068,3.563352 -14.62814,7.727881 -1.97882,2.227736 -3.68029,4.748745 -4.70494,7.559767 -1.95863,4.47963 -4.63689,8.946109 -8.87551,11.598417 -1.38165,0.872024 -2.93281,1.436254 -4.55664,1.625 -0.61148,-1.511764 -0.85739,-3.144972 -0.70168,-4.769741 0.4801,-5.820521 3.91969,-10.844738 4.93606,-16.540806 0.65091,-1.118961 1.64568,-2.445185 1.12791,-3.797778 -0.77148,-1.216507 -2.35608,-1.463091 -3.64978,-1.802089 -2.79391,-0.593824 -5.6777,-0.720773 -8.43431,-1.48981 -5.76305,-0.933611 -11.69269,1.102866 -16.19422,4.691796 -3.76106,2.992847 -6.80492,6.958665 -8.5333,11.451661 -1.06739,4.566891 -4.69952,8.0761 -8.75143,10.175452 -2.52044,1.343719 -5.28661,2.160334 -8.06764,2.747611 -2.86269,0.522516 -5.88144,-0.807806 -7.53048,-3.18383 -2.10114,-2.842591 -2.50186,-6.741963 -1.32089,-10.034974 0.45745,-3.31974 2.01194,-6.41776 3.98109,-9.09593 1.61152,-2.066911 3.83126,-4.114839 6.6,-4.175781 1.86971,-0.02669 3.61678,1.156408 4.59727,2.681641 0.882,2.12053 -0.20059,4.400815 0.0723,6.582031 0.0972,0.74005 0.98486,0.23349 1.43639,0.427449 1.30388,0.289843 3.07904,0.247005 3.73549,-1.146199 0.52203,-0.914619 0.37342,-2.020628 0.62003,-2.986826 1.06992,-1.865345 1.69896,-4.425234 0.30742,-6.296654 -1.56031,-1.997469 -4.37767,-2.251229 -6.71456,-1.890348 -5.14024,-0.75724 -10.41421,1.124538 -14.31301,4.46362 -4.33773,3.642342 -7.31033,8.775191 -8.61175,14.26543 -1.04627,3.705346 -0.50666,8.099516 2.17914,10.998594 1.49191,1.66631 3.72777,2.367209 5.90183,2.50424 6.29725,0.701918 13.05956,-0.290379 18.28715,-4.075634 1.32517,-0.789654 1.97926,-2.428882 3.51758,-2.910156 1.25341,-0.469986 2.41213,0.570042 3.0039,1.591797 1.01063,1.613201 1.62542,3.697261 3.46985,4.573524 3.26847,1.885382 7.38243,1.207662 10.55974,-0.531668 2.16532,-1.117538 3.95647,-2.808289 5.51845,-4.653697 0.62391,-0.615033 1.18791,-1.394003 1.9911,-1.755533 0.61586,-0.04942 1.23172,-0.09883 1.84758,-0.148251 0.27164,0.862419 0.94029,1.680346 0.61914,2.615234 -0.1832,0.704768 -0.39201,1.408859 -0.1095,2.124099 0.33865,1.74944 1.8338,3.143918 3.60329,3.354239 3.10916,0.420945 6.25284,-0.712675 8.83215,-2.393281 1.3848,-0.862726 2.41804,-2.130314 3.37508,-3.423629 0.68881,-0.836947 1.68938,-1.658316 2.82614,-1.488397 1.56829,0.632076 2.10152,2.412237 2.84123,3.698709 0.65369,1.397007 1.85083,2.459798 3.28281,3.014153 3.60713,1.545919 7.7756,0.423204 10.93454,-1.640844 1.94137,-1.172372 3.39184,-2.929373 4.91739,-4.566558 0.58467,-0.582027 1.18355,-1.330003 2.10257,-1.201527 0.61592,-0.05257 1.35944,-0.314002 1.41556,0.54968 0.2806,0.635701 0.61457,1.271547 0.36351,1.973356 -0.18317,0.706157 -0.39275,1.411435 -0.11021,2.128188 0.33615,1.740662 1.81852,3.129199 3.57831,3.345924 3.14019,0.430226 6.32278,-0.709159 8.91632,-2.428833 1.37248,-0.867567 2.3839,-2.143088 3.31675,-3.443716 0.79718,-1.043525 2.24323,-2.04053 3.55751,-1.298653 1.70339,1.107899 2.28054,3.218525 3.56686,4.709625 0.68144,0.945633 1.73899,1.522402 2.88252,1.677692 5.89665,1.471187 12.40753,1.136321 17.86828,-1.66123 3.60881,-2.559254 7.69559,-4.711264 10.3553,-8.359075 0.5963,-0.863517 1.08591,-1.812116 1.3418,-2.833985 -3.04126,1.703071 -5.23519,4.512127 -8.00203,6.585474 -1.66161,1.320932 -3.57336,2.340109 -5.63418,2.854798 -3.96245,1.851486 -9.27116,0.981161 -12.02395,-2.547693 -1.384,-1.756641 -1.66597,-4.106655 -1.31606,-6.25931 -0.17899,-0.878614 0.48665,-0.875306 1.17432,-0.848984 2.01597,-0.108072 4.15702,-0.197746 6.05094,-0.408747 4.3509,-0.434138 8.92534,-1.562598 12.1506,-4.704007 2.76907,-2.427055 3.3873,-6.815481 1.68239,-10.019187 -1.69308,-2.645111 -5.02931,-3.939424 -8.09424,-3.565625 -5.51955,0.281018 -10.92711,2.732997 -14.60571,6.888335 -3.15751,3.439127 -5.34866,7.730975 -6.38013,12.278853 -1.95339,2.874238 -4.10039,5.705333 -6.8711,7.841797 -1.29785,0.943411 -3.13638,1.893403 -4.66796,0.912109 -0.88139,-0.570904 -1.34518,-1.660085 -1.59038,-2.613352 4.21106,-14.218405 9.0165,-28.25026 13.356,-42.4296168 -1.11362,-0.4603936 -2.33763,-0.5652754 -3.53125,-0.5253906 z M 75.759766,7.1992188 c -2.340056,0.2449031 -4.713749,0.9600626 -6.615431,2.379012 -2.440756,2.1345702 -3.52451,5.3012452 -5.121853,8.0350022 -4.139441,7.282697 -9.035625,14.097788 -13.903779,20.902995 -6.25061,8.695311 -12.853784,17.073788 -18.880725,25.926166 -1.210965,1.981186 -2.446803,3.948647 -3.821041,5.823855 -5.021522,7.017678 -10.360503,13.801495 -15.54038,20.70237 -1.9566672,2.639862 -3.9786337,5.2601 -5.5666399,8.143819 -0.1666233,0.427372 -0.6534421,0.933812 -0.1399952,1.319202 1.621148,2.48317 4.8549101,3.22299 7.6420901,2.89742 3.955759,-0.37218 7.350233,-2.92335 9.738008,-5.966654 3.750514,-5.003697 6.107331,-10.862647 9.556091,-16.059345 1.879646,-2.963162 3.827656,-5.88913 5.586509,-8.925642 1.285745,-1.380794 3.347507,-1.400916 5.099438,-1.569092 5.078413,-0.236994 10.158775,0.187234 15.239579,0.09683 5.489265,0.07794 11.013355,0.04215 16.452551,0.87647 1.943423,0.36008 4.202068,0.79306 5.390812,2.542588 0.936356,2.036534 1.314296,4.28123 1.867008,6.443663 1.437552,6.200248 2.291624,12.618384 4.929817,18.466017 0.902884,1.937521 2.213735,3.955721 4.396534,4.564931 2.045929,0.78165 4.749069,0.77965 6.269557,-1.01554 1.674444,-2.13893 1.591744,-5.061782 1.316381,-7.62704 -0.561901,-4.506944 -2.389025,-8.70586 -4.186501,-12.832155 -0.935893,-2.437723 -2.0835,-4.981431 -1.815452,-7.654173 0.193095,-1.917143 1.634709,-3.492779 3.223041,-4.399451 15.274725,-0.211627 30.545855,0.389317 45.804855,1.013702 34.42727,1.490693 68.81568,3.752377 103.21187,5.821704 2.67997,0.179939 5.36177,0.263112 8.04639,0.310753 5.23647,0.159505 10.47735,1.053974 15.71683,0.50652 3.38344,-0.32729 6.7068,-1.78833 8.95776,-4.383602 1.84814,-2.030432 3.01885,-4.548631 4.61813,-6.763017 0.38733,-0.587431 0.7881,-1.167571 1.12816,-1.784343 -3.14239,-0.414926 -6.32786,-0.203689 -9.48889,-0.21728 -8.00891,0.123082 -16.01901,0.202337 -24.0282,0.05702 -41.57066,-0.454801 -83.14112,-0.950778 -124.70893,-1.620702 -10.12085,-0.192195 -20.24512,-0.307414 -30.360897,-0.687994 -1.076214,-0.0559 -2.25173,-0.0036 -3.105629,-0.776892 -2.28715,-1.52783 -2.979146,-4.373926 -3.661695,-6.869451 C 87.640818,49.258592 86.553042,43.574436 85.566846,37.878955 84.421185,30.873151 83.355019,23.837197 82.920012,16.746191 82.858524,14.290317 82.911307,11.628105 81.419922,9.53125 80.188486,7.6952426 77.877437,7.0074274 75.759766,7.1992188 Z M 123.73633,23.759766 c -3.38143,0.314598 -6.10544,2.587352 -8.68733,4.586981 -0.41689,0.544521 -1.05575,0.4894 -1.67162,0.496392 -0.71883,0.189653 -1.15435,-0.05 -1.24996,-0.804735 -0.18005,-0.529764 -0.54707,-1.041782 -0.26804,-1.600904 0.23288,-1.1367 -1.12645,-1.620864 -2.02311,-1.691688 -1.82834,-0.211995 -3.67499,0.165966 -5.40854,0.732704 -2.82474,6.926139 -6.99277,13.312602 -8.906483,20.597157 -0.804166,3.265165 -1.221678,6.791464 -0.178922,10.050177 0.329042,1.052204 1.653159,0.844117 2.511581,0.914918 1.147962,0.0024 2.295334,-0.0423 3.442974,-0.06421 0.92552,-1.085246 1.0926,-2.57422 1.65039,-3.851562 1.45424,-4.120576 3.02935,-8.211213 5.00816,-12.111613 1.53875,-2.949642 3.50231,-5.695144 5.81485,-8.088423 1.13276,-1.037698 2.3955,-2.223481 4.00511,-2.33512 0.57911,-0.0018 1.05012,0.215435 1.41016,0.671875 0.68216,0.919607 0.8682,2.166133 0.77531,3.267427 -0.15507,0.542043 -0.69326,1.564642 0.14327,1.791053 1.38059,0.322564 2.80504,-0.05665 4.16149,-0.337777 0.87697,-3.329619 2.92323,-6.270246 3.49334,-9.689441 0.16853,-0.836386 -0.0986,-1.939699 -1.0799,-2.087386 -0.96259,-0.267118 -1.92922,-0.552361 -2.94273,-0.445829 z m 58.00781,2.255859 c 2.55383,-0.114308 5.14223,1.220861 6.33203,3.521484 0.25146,0.545371 0.63278,1.123059 0.71027,1.692972 -2.52568,6.807656 -6.00257,13.538721 -11.59699,18.332419 -1.07282,1.029924 -2.42837,1.706535 -3.88562,1.990841 -1.05817,0.0901 -2.17715,-0.260584 -3.11828,-0.766232 -2.14345,-1.193699 -2.82196,-3.846545 -2.68555,-6.140625 0.24833,-3.991097 1.80249,-7.784116 3.68572,-11.265729 0.74376,-1.331306 1.41553,-2.740408 2.56945,-3.782256 2.11204,-2.077438 5.00374,-3.487986 7.98897,-3.582874 z m 44.72266,0.01953 c 2.42805,-0.04456 4.78496,1.330572 5.91797,3.482422 0.28278,0.593479 0.68702,1.226619 0.78703,1.848689 -2.57358,6.627172 -5.91308,13.233241 -11.34769,17.981284 -0.83959,0.768917 -1.74652,1.477626 -2.86408,1.782042 -1.79619,0.696632 -4.16593,0.842191 -5.54673,-0.746645 -1.59847,-1.927694 -1.57217,-4.636629 -1.30721,-6.998868 0.44797,-3.218122 1.34653,-6.428105 2.96227,-9.262986 0.61443,-1.209616 1.19197,-2.474356 2.13223,-3.485992 2.3051,-2.652777 5.69297,-4.583896 9.26621,-4.599946 z m 41.56836,0.347656 c 1.44428,-0.09473 2.81763,0.897128 3.15039,2.3125 0.70377,2.68871 -0.36493,5.569393 -2.04688,7.679688 -1.36198,1.744673 -3.36062,2.885856 -5.5055,3.36495 -1.44453,0.351851 -2.95109,0.786078 -4.44567,0.551066 -1.27585,-0.459653 -1.8596,-1.911977 -1.55664,-3.179688 0.59491,-2.67168 2.37855,-4.882308 4.1216,-6.916359 1.02202,-1.09768 2.03667,-2.281456 3.32371,-3.060203 0.93347,-0.41042 1.92863,-0.748833 2.95899,-0.751954 z M 70.601562,28.087891 c 1.16552,0.06458 1.76983,1.304332 2.207032,2.248047 1.611137,4.114076 2.460762,8.474399 3.381338,12.781497 1.10579,5.635893 2.156914,11.296716 2.712412,17.017331 0.0782,0.817136 0.03774,1.735778 -0.444214,2.399605 -1.427232,0.888657 -3.187893,0.674726 -4.793044,0.83315 -6.654652,0.217935 -13.323555,0.248444 -19.973771,-0.107673 -1.9788,-0.206321 -4.06944,-0.211063 -5.895578,-1.084411 -1.166396,-0.560598 -1.601403,-2.074043 -0.975425,-3.193015 1.559374,-3.105358 3.640111,-5.912332 5.578178,-8.786653 4.631728,-6.59194 9.364788,-13.124794 14.493489,-19.341673 0.982874,-1.048265 1.841243,-2.415624 3.30138,-2.81894 0.136068,0.01758 0.272136,0.03516 0.408203,0.05273 z" /><path
       id="path5396"
       d="m 234.095,63.398 c 0,4.587 -3.774,8.361 -8.361,8.361 -4.586,0 -8.36,-3.774 -8.36,-8.361 0,-4.586 3.774,-8.36 8.36,-8.36 4.587,0 8.361,3.774 8.361,8.36 z"
       style="fill:#000000;stroke:none"
       inkscape:connector-curvature="0" /><path
       id="circle5398"
       d="m 224.796,59.584 c 0,1.068 -0.879,1.947 -1.947,1.947 -1.068,0 -1.948,-0.879 -1.948,-1.947 0,-1.069 0.88,-1.948 1.948,-1.948 1.068,0 1.947,0.879 1.947,1.948 z"
       style="fill:#ffffff;stroke:none"
       inkscape:connector-curvature="0" /><path
       id="path9749"
       d="m 142.24791,64.24908 c -2.383,-0.028 -4.936,0.974 -6.428,3.208 -0.009,0.014 -0.018,0.028 -0.026,0.043 -2.801,5.389 -3.472,11.562 -5.093,17.233 l 0.011,-0.033 c -0.561,1.505 -0.748,3.142 -1.076,4.652 -0.328,1.51 -0.785,2.871 -1.807,3.902 -0.011,0.011 -0.022,0.023 -0.032,0.035 -1.647,2.05 -3.922,4.274 -6.404,5.574 -2.451,1.283 -5.045,1.668 -7.598,0.231 -1.557,-2.327 -1.881,-5.611 -1.095,-8.603 0.794,-3.018 2.688,-5.687 5.403,-6.803 0.607,-0.152 1.042,-0.153 1.324,-0.071 0.288,0.084 0.453,0.229 0.596,0.473 0.286,0.486 0.36,1.41 0.365,2.38 0.006,0.97 -0.055,1.966 0.227,2.766 0.141,0.401 0.408,0.779 0.833,0.958 0.409,0.172 0.895,0.141 1.455,-0.031 1.135,0.176 2.056,-0.086 2.645,-0.705 0.621,-0.653 0.902,-1.572 1.061,-2.556 0.317,-1.968 0.147,-4.324 0.402,-5.476 0.045,-0.205 -0.055,-0.414 -0.243,-0.508 -7.767,-3.848 -17.689,0.847 -20.581,8.824 0,0.003 -0.005,0.007 -0.005,0.011 -2.031,3.264 -2.152,7.526 -0.632,10.736 1.515,3.199 4.789,5.325 9.25,4.163 5.094,0.216 9.752,-3.231 12.867,-6.359 0.037,1.449 0.507,2.613 1.309,3.433 1.008,1.032 2.456,1.528 3.993,1.612 3.074,0.168 6.603,-1.259 8.206,-3.869 v -0.003 c 0.667,-1.1 1.197,-1.697 1.538,-1.907 0.171,-0.105 0.275,-0.122 0.371,-0.113 0.095,0.01 0.209,0.056 0.359,0.174 0.598,0.474 1.432,2.074 2.761,3.684 0.044,0.053 0.099,0.096 0.162,0.125 3.155,1.44 6.292,0.688 8.894,-1.034 1.741,-1.152 3.241,-2.742 4.463,-4.421 0.016,0.257 -0.044,0.519 0.014,0.769 0.289,1.257 1.059,2.412 2.113,3.247 1.053,0.834 2.401,1.35 3.846,1.284 1.444,-0.066 2.968,-0.723 4.335,-2.155 0.029,-0.03 0.053,-0.065 0.073,-0.102 0.778,-1.467 1.406,-1.954 1.875,-2.033 0.47,-0.079 1.023,0.216 1.717,0.755 0.694,0.539 1.479,1.272 2.437,1.811 0.958,0.538 2.119,0.871 3.46,0.563 l -0.107,0.012 0.758,0.006 c 0.005,0.001 0.011,0.001 0.017,0 l 0.752,-0.02 -0.038,-0.001 c 2.879,0.16 6.108,-0.791 8.421,-2.636 2.313,-1.845 3.687,-4.675 2.655,-8.023 -0.329,-1.118 -1.31,-2.169 -2.441,-3.257 -1.132,-1.088 -2.435,-2.192 -3.443,-3.232 -1.008,-1.041 -1.668,-2.028 -1.683,-2.701 -0.008,-0.337 0.096,-0.619 0.437,-0.943 0.331,-0.315 0.917,-0.642 1.789,-0.936 1.024,-0.045 1.474,0.265 1.8,0.788 0.333,0.533 0.483,1.349 0.614,2.166 0.131,0.818 0.217,1.642 0.717,2.246 0.249,0.302 0.636,0.517 1.082,0.55 0.434,0.031 0.92,-0.091 1.494,-0.334 0.667,-0.193 1.128,-0.775 1.477,-1.476 0.354,-0.709 0.595,-1.575 0.707,-2.454 0.112,-0.88 0.098,-1.771 -0.102,-2.538 -0.2,-0.767 -0.611,-1.455 -1.33,-1.73 -0.015,-0.006 -0.03,-0.01 -0.046,-0.015 -2.557,-0.679 -5.827,-1.121 -8.805,-0.644 -2.978,0.478 -5.708,1.929 -6.92,4.998 0,0.006 -0.005,0.012 -0.007,0.018 -0.624,1.794 -0.013,3.5 1.011,5.019 1.024,1.518 2.469,2.919 3.671,4.255 1.202,1.335 2.126,2.604 2.237,3.701 0.055,0.549 -0.061,1.066 -0.459,1.635 -0.389,0.554 -1.076,1.15 -2.128,1.763 -1.568,0.327 -2.53,0.093 -3.133,-0.415 -0.613,-0.516 -0.93,-1.383 -1.014,-2.437 -0.167,-2.11 0.654,-4.857 1.249,-6.04 0.145,-0.288 -0.046,-0.633 -0.368,-0.661 -1.572,-0.139 -2.813,0.482 -3.777,1.42 -0.964,0.938 -1.698,2.179 -2.422,3.385 -0.723,1.206 -1.437,2.377 -2.278,3.179 -0.733,0.699 -1.574,1.053 -2.637,1.061 0.011,-4.521 1.738,-8.976 2.712,-13.558 l -0.036,0.102 c 0.438,-0.91 0.692,-1.67 0.746,-2.335 0.054,-0.665 -0.121,-1.264 -0.532,-1.679 -0.808,-0.816 -2.221,-0.902 -4.137,-0.758 -7.402,-2.295 -15.867,0.568 -19.89,7.328 v 0.004 c -1.364,2.334 -2.558,5.985 -4.222,8.816 -0.832,1.416 -1.776,2.613 -2.862,3.34 -1.003,0.67 -2.125,0.94 -3.502,0.672 -0.347,-3.414 1.103,-6.857 1.807,-10.419 3.357,-4.754 7.973,-9.098 9.924,-15.013 l -0.029,0.067 c 1.265,-2.448 1.044,-4.546 -0.07,-5.966 -1.113,-1.42 -3.019,-2.15 -5.005,-2.174 z m 0.308,4.326 c 0.448,0.273 0.71,0.637 0.776,1.219 0.083,0.744 -0.122,1.764 -0.501,2.845 -0.754,2.15 -2.137,4.523 -2.848,5.934 l -0.413,0.666 c 0.008,-0.123 -0.006,-0.185 0.012,-0.327 0.102,-0.911 0.353,-2.17 0.687,-3.519 0.621,-2.502 1.531,-5.229 2.287,-6.818 z m 126.872,0.543 c -1.042,-0.081 -2.14,-0.047 -3.188,0.032 -1.397,0.104 -2.703,0.3 -3.637,0.452 l -0.01,0.002 c -2.341,0.44 -3.905,1.431 -4.772,2.758 -0.867,1.327 -1.016,2.944 -0.688,4.556 0.644,3.174 3.082,6.413 5.94,8.111 1.155,1.859 1.066,3.121 0.47,3.981 -0.602,0.87 -1.843,1.386 -3.14,1.417 -1.298,0.031 -2.597,-0.424 -3.3,-1.292 -0.7,-0.864 -0.922,-2.168 0.053,-4.163 1.04,-1.078 1.537,-1.885 1.479,-2.633 -0.031,-0.385 -0.271,-0.73 -0.581,-0.904 -0.31,-0.174 -0.666,-0.223 -1.044,-0.208 -0.756,0.03 -1.63,0.327 -2.435,0.845 -0.805,0.519 -1.54,1.268 -1.917,2.241 v 0.007 c -0.904,2.458 -3.416,4.886 -6.184,6.043 -2.743,1.146 -5.625,1.077 -7.626,-1.185 -0.836,-2.504 -0.89,-5.597 -0.063,-8.312 0.835,-2.739 2.536,-5.066 5.164,-6.128 0.609,-0.153 1.045,-0.153 1.328,-0.07 0.288,0.084 0.453,0.229 0.596,0.472 0.286,0.487 0.361,1.411 0.366,2.381 0.005,0.97 -0.055,1.965 0.227,2.766 0.141,0.4 0.408,0.779 0.833,0.957 0.408,0.172 0.895,0.141 1.455,-0.03 1.135,0.175 2.055,-0.087 2.644,-0.706 0.621,-0.652 0.902,-1.571 1.061,-2.555 0.317,-1.968 0.147,-4.323 0.402,-5.475 0.045,-0.205 -0.055,-0.415 -0.243,-0.508 -7.295,-3.618 -16.642,0.325 -20.004,7.553 -0.006,0.013 -0.01,0.025 -0.014,0.038 -0.814,2.251 -1.813,5.431 -3.271,7.954 -0.728,1.262 -1.57,2.355 -2.531,3.088 -0.832,0.634 -1.769,0.939 -2.825,0.958 0.28,-5.131 2.235,-10.218 3.328,-15.427 l -0.036,0.105 c 0.359,-0.742 0.57,-1.355 0.625,-1.891 0.054,-0.535 -0.074,-1.041 -0.432,-1.361 -0.358,-0.321 -0.846,-0.412 -1.39,-0.393 -0.526,0.018 -1.141,0.153 -1.839,0.363 -1.743,0.064 -3.002,0.816 -3.824,1.951 -0.831,1.149 -1.258,2.646 -1.559,4.25 -0.601,3.207 -0.72,6.896 -1.905,9.044 l -0.006,0.005 c -1.764,3.31 -0.806,6.379 1.332,7.926 2.138,1.547 5.412,1.59 8.08,-0.772 l -0.206,0.104 c 0.784,-0.167 1.383,-0.817 1.984,-1.541 0.6,-0.724 1.176,-1.562 1.691,-2.193 0.258,-0.316 0.502,-0.579 0.702,-0.742 0.2,-0.164 0.34,-0.201 0.368,-0.2 0.029,0.001 0.068,-0.011 0.191,0.207 0.123,0.218 0.263,0.638 0.375,1.271 0.012,0.07 0.041,0.136 0.083,0.193 1.999,2.694 5.122,3.573 8.284,3.442 3.161,-0.132 6.406,-1.244 8.87,-2.579 0.059,-0.032 0.11,-0.077 0.15,-0.132 0.921,-1.252 1.645,-1.683 2.251,-1.755 0.606,-0.071 1.224,0.215 1.95,0.699 1.451,0.968 3.223,2.685 5.826,2.324 l -0.064,0.005 c 2.065,0.006 4.485,-0.148 6.7,-0.822 2.212,-0.673 4.24,-1.884 5.404,-3.992 0.979,-1.642 1.224,-3.176 0.95,-4.568 -0.275,-1.393 -1.046,-2.625 -2.004,-3.758 -1.877,-2.221 -4.487,-4.134 -5.921,-6.068 0,-1.301 0.366,-1.96 0.838,-2.232 0.493,-0.283 1.227,-0.232 1.99,0.149 0.763,0.381 1.513,1.077 1.965,1.91 0.452,0.834 0.616,1.782 0.278,2.756 -0.099,0.286 0.103,0.588 0.406,0.605 1.296,0.076 2.442,-0.053 3.281,-0.664 0.806,-0.587 1.182,-1.637 1.082,-3.031 0.49,-1.244 0.582,-2.286 0.294,-3.13 -0.294,-0.86 -0.967,-1.462 -1.789,-1.844 -0.822,-0.381 -1.806,-0.576 -2.848,-0.657 z m -58.677,3.981 c -0.59,-0.009 -1.228,0.052 -1.904,0.175 -3.031,-0.595 -6.532,0.606 -8.698,2.728 -1.098,1.075 -1.856,2.404 -1.965,3.87 -0.109,1.467 0.452,3.036 1.853,4.518 0.04,0.041 0.086,0.075 0.138,0.099 2.189,1.033 4.328,3.956 4.823,6.403 0.247,1.224 0.099,2.279 -0.514,2.984 -0.607,0.7 -1.746,1.147 -3.726,0.99 -1.408,-0.332 -1.987,-0.893 -2.237,-1.594 -0.252,-0.706 -0.142,-1.65 0.123,-2.653 0.264,-1.004 0.669,-2.045 0.895,-2.985 0.113,-0.471 0.184,-0.918 0.151,-1.346 -0.033,-0.429 -0.194,-0.859 -0.537,-1.16 -0.109,-0.096 -0.257,-0.134 -0.398,-0.104 -3.959,0.858 -5.782,4.516 -5.485,7.802 0.148,1.642 0.817,3.217 2.023,4.325 1.206,1.108 2.949,1.72 5.115,1.465 l -0.064,0.004 c 3.282,0.069 6.756,-0.414 9.666,-2.183 l 0.006,-0.004 c 2.982,-1.87 3.77,-4.921 3.092,-7.732 -0.678,-2.808 -2.744,-5.432 -5.449,-6.748 l -0.007,-0.004 c -1.718,-0.878 -2.264,-1.806 -2.291,-2.558 -0.027,-0.754 0.485,-1.477 1.241,-1.917 0.755,-0.439 1.698,-0.554 2.42,-0.186 0.722,0.368 1.334,1.224 1.377,3.034 l 0.033,-0.182 c -0.304,0.75 -0.209,1.456 0.203,1.888 0.412,0.432 1.009,0.574 1.602,0.58 0.592,0.007 1.203,-0.129 1.716,-0.396 0.513,-0.267 0.971,-0.699 1.031,-1.31 l -0.036,0.139 c 0.92,-2.105 1.012,-4.059 0.266,-5.533 -0.746,-1.473 -2.333,-2.377 -4.463,-2.409 z m -50.968,7.362 c 1.508,0.803 2.14,1.853 2.266,3.123 0.13,1.297 -0.314,2.848 -1.105,4.427 -1.576,3.147 -4.488,6.371 -6.373,8.097 -0.625,0.457 -1.16,0.577 -1.63,0.513 -0.474,-0.066 -0.911,-0.33 -1.284,-0.747 -0.745,-0.833 -1.154,-2.269 -0.932,-3.397 0.005,-0.017 0.005,-0.034 0.007,-0.051 0.216,-2.61 0.989,-5.777 2.471,-8.177 1.466,-2.376 3.555,-3.979 6.581,-3.788 z"
       style="fill:#ffffff;fill-rule:nonzero;stroke:#000000"
       inkscape:connector-curvature="0" /></g></svg>
