<?xml version="1.0" encoding="UTF-8" standalone="no"?>
<svg
   role="img"
   viewBox="0 0 138.82292 13.48"
   version="1.1"
   id="svg6"
   sodipodi:docname="nomarquee.svg"
   width="138.82292"
   height="13.48"
   inkscape:version="1.1.2 (0a00cf5339, 2022-02-04)"
   xmlns:inkscape="http://www.inkscape.org/namespaces/inkscape"
   xmlns:sodipodi="http://sodipodi.sourceforge.net/DTD/sodipodi-0.dtd"
   xmlns="http://www.w3.org/2000/svg"
   xmlns:svg="http://www.w3.org/2000/svg"
   xmlns:rdf="http://www.w3.org/1999/02/22-rdf-syntax-ns#"
   xmlns:cc="http://creativecommons.org/ns#"
   xmlns:dc="http://purl.org/dc/elements/1.1/">
  <defs
     id="defs10" />
  <sodipodi:namedview
     id="namedview8"
     pagecolor="#505050"
     bordercolor="#ffffff"
     borderopacity="1"
     inkscape:pageshadow="0"
     inkscape:pageopacity="0"
     inkscape:pagecheckerboard="1"
     showgrid="false"
     showguides="false"
     fit-margin-top="0"
     fit-margin-left="0"
     fit-margin-right="0"
     fit-margin-bottom="0"
     inkscape:zoom="84.734963"
     inkscape:cx="89.744537"
     inkscape:cy="10.709865"
     inkscape:window-width="1920"
     inkscape:window-height="996"
     inkscape:window-x="0"
     inkscape:window-y="0"
     inkscape:window-maximized="1"
     inkscape:current-layer="svg6" />
  <title
     id="title2">RetroArch icon</title>
  <metadata
     id="metadata827">
    <rdf:RDF>
      <cc:Work
         rdf:about="">
        <dc:title>RetroArch icon</dc:title>
      </cc:Work>
    </rdf:RDF>
  </metadata>
  <path
     d="m 7.4803882,0.5 1.56,1.92 h -3.12 l -0.72,2.88 h -1.92 l 0.72,-2.88 h -1.92 l -1.44,5.76 h 3.84 l -0.48,1.92 h 3.36 l -2.52,2.88 h 2.82 L 10.000388,10.1 h 5.28 l 2.34,2.88 h 2.82 l -2.52,-2.88 h 3.36 l -0.48,-1.92 h 3.84 l -1.44,-5.76 h -1.92 l 0.72,2.88 h -1.92 l -0.72,-2.88 h -3.12 l 1.56,-1.92 h -2.04 l -1.68,1.92 h -2.88 L 9.5203882,0.5 Z m 0.24,3.84 h 1.92 v 1.92 h -1.92 z m 7.9249998,0 h 1.92 v 1.92 h -1.92 z"
     id="path40105"
     style="fill:#000000;stroke:#000000" />
  <g
     aria-label="RETROARCH"
     id="text40109"
     style="font-size:24px;line-height:1.25;stroke:#000000">
    <path
       d="m 27.611198,7.6639989 h 1.344 v 1.344 h -1.344 z m 1.584,0 h 1.344 v 1.344 h -1.344 z m 3.168,0 h 1.344 v 1.344 h -1.344 z m 1.608,0 h 1.344 v 1.344 h -1.344 z m -6.36,1.584 h 1.344 v 1.3440001 h -1.344 z m 1.584,0 h 1.344 v 1.3440001 h -1.344 z m 4.776,0 h 1.344 v 1.3440001 h -1.344 z m 1.584,0 h 1.344 v 1.3440001 h -1.344 z m -7.944,1.5840001 h 1.344 v 1.344 h -1.344 z m 1.584,0 h 1.344 v 1.344 h -1.344 z m 6.36,0 h 1.344 v 1.344 h -1.344 z m 1.584,0 h 1.344 v 1.344 h -1.344 z m -9.528,-9.5280001 h 1.344 v 1.344 h -1.344 z m 1.584,0 h 1.344 v 1.344 h -1.344 z m 1.584,0 h 1.344 v 1.344 h -1.344 z m 1.584,0 h 1.344 v 1.344 h -1.344 z m 1.608,0 h 1.344 v 1.344 h -1.344 z m 1.584,0 h 1.344 v 1.344 h -1.344 z m -7.944,1.584 h 1.344 v 1.344 h -1.344 z m 1.584,0 h 1.344 v 1.344 h -1.344 z m 6.36,0 h 1.344 v 1.344 h -1.344 z m 1.584,0 h 1.344 v 1.344 h -1.344 z m -9.528,1.584 h 1.344 v 1.344 h -1.344 z m 1.584,0 h 1.344 v 1.344 h -1.344 z m 6.36,0 h 1.344 v 1.344 h -1.344 z m 1.584,0 h 1.344 v 1.344 h -1.344 z m -9.528,1.584 h 1.344 v 1.344 h -1.344 z m 1.584,0 h 1.344 v 1.344 h -1.344 z m 1.584,0 h 1.344 v 1.344 h -1.344 z m 1.584,0 h 1.344 v 1.344 h -1.344 z m 1.608,0 h 1.344 v 1.344 h -1.344 z m 1.584,0 h 1.344 v 1.344 h -1.344 z"
       style="font-family:Arcade;-inkscape-font-specification:Arcade"
       id="path873" />
    <path
       d="m 40.091164,7.6639989 h 1.344 v 1.344 h -1.344 z m 1.584,0 h 1.344 v 1.344 h -1.344 z m -1.584,1.584 h 1.344 v 1.3440001 h -1.344 z m 1.584,0 h 1.344 v 1.3440001 h -1.344 z m -1.584,1.5840001 h 1.344 v 1.344 h -1.344 z m 1.584,0 h 1.344 v 1.344 h -1.344 z m 1.584,0 h 1.344 v 1.344 h -1.344 z m 1.584,0 h 1.344 v 1.344 h -1.344 z m 1.608,0 h 1.344 v 1.344 h -1.344 z m 1.584,0 h 1.344 v 1.344 h -1.344 z m 1.584,0 h 1.344 v 1.344 h -1.344 z m -9.528,-9.5280001 h 1.344 v 1.344 h -1.344 z m 1.584,0 h 1.344 v 1.344 h -1.344 z m 1.584,0 h 1.344 v 1.344 h -1.344 z m 1.584,0 h 1.344 v 1.344 h -1.344 z m 1.608,0 h 1.344 v 1.344 h -1.344 z m 1.584,0 h 1.344 v 1.344 h -1.344 z m 1.584,0 h 1.344 v 1.344 h -1.344 z m -9.528,1.584 h 1.344 v 1.344 h -1.344 z m 1.584,0 h 1.344 v 1.344 h -1.344 z m -1.584,1.584 h 1.344 v 1.344 h -1.344 z m 1.584,0 h 1.344 v 1.344 h -1.344 z m -1.584,1.584 h 1.344 v 1.344 h -1.344 z m 1.584,0 h 1.344 v 1.344 h -1.344 z m 1.584,0 h 1.344 v 1.344 h -1.344 z m 1.584,0 h 1.344 v 1.344 h -1.344 z m 1.608,0 h 1.344 v 1.344 h -1.344 z m 1.584,0 h 1.344 v 1.344 h -1.344 z"
       style="font-family:Arcade;-inkscape-font-specification:Arcade"
       id="path875" />
    <path
       d="m 55.739129,7.6639989 h 1.344 v 1.344 h -1.344 z m 1.584,0 h 1.344 v 1.344 h -1.344 z m -1.584,1.584 h 1.344 v 1.3440001 h -1.344 z m 1.584,0 h 1.344 v 1.3440001 h -1.344 z m -1.584,1.5840001 h 1.344 v 1.344 h -1.344 z m 1.584,0 h 1.344 v 1.344 h -1.344 z m -4.752,-9.5280001 h 1.344 v 1.344 h -1.344 z m 1.584,0 h 1.344 v 1.344 h -1.344 z m 1.584,0 h 1.344 v 1.344 h -1.344 z m 1.584,0 h 1.344 v 1.344 h -1.344 z m 1.608,0 h 1.344 v 1.344 h -1.344 z m 1.584,0 h 1.344 v 1.344 h -1.344 z m -4.776,1.584 h 1.344 v 1.344 h -1.344 z m 1.584,0 h 1.344 v 1.344 h -1.344 z m -1.584,1.584 h 1.344 v 1.344 h -1.344 z m 1.584,0 h 1.344 v 1.344 h -1.344 z m -1.584,1.584 h 1.344 v 1.344 h -1.344 z m 1.584,0 h 1.344 v 1.344 h -1.344 z"
       style="font-family:Arcade;-inkscape-font-specification:Arcade"
       id="path877" />
    <path
       d="m 65.051094,7.6639989 h 1.344 v 1.344 h -1.344 z m 1.584,0 h 1.344 v 1.344 h -1.344 z m 3.168,0 h 1.344 v 1.344 h -1.344 z m 1.608,0 h 1.344 v 1.344 h -1.344 z m -6.36,1.584 h 1.344 v 1.3440001 h -1.344 z m 1.584,0 h 1.344 v 1.3440001 h -1.344 z m 4.776,0 h 1.344 v 1.3440001 h -1.344 z m 1.584,0 h 1.344 v 1.3440001 h -1.344 z m -7.944,1.5840001 h 1.344 v 1.344 h -1.344 z m 1.584,0 h 1.344 v 1.344 h -1.344 z m 6.36,0 h 1.344 v 1.344 h -1.344 z m 1.584,0 h 1.344 v 1.344 h -1.344 z m -9.528,-9.5280001 h 1.344 v 1.344 h -1.344 z m 1.584,0 h 1.344 v 1.344 h -1.344 z m 1.584,0 h 1.344 v 1.344 h -1.344 z m 1.584,0 h 1.344 v 1.344 h -1.344 z m 1.608,0 h 1.344 v 1.344 h -1.344 z m 1.584,0 h 1.344 v 1.344 h -1.344 z m -7.944,1.584 h 1.344 v 1.344 h -1.344 z m 1.584,0 h 1.344 v 1.344 h -1.344 z m 6.36,0 h 1.344 v 1.344 h -1.344 z m 1.584,0 h 1.344 v 1.344 h -1.344 z m -9.528,1.584 h 1.344 v 1.344 h -1.344 z m 1.584,0 h 1.344 v 1.344 h -1.344 z m 6.36,0 h 1.344 v 1.344 h -1.344 z m 1.584,0 h 1.344 v 1.344 h -1.344 z m -9.528,1.584 h 1.344 v 1.344 h -1.344 z m 1.584,0 h 1.344 v 1.344 h -1.344 z m 1.584,0 h 1.344 v 1.344 h -1.344 z m 1.584,0 h 1.344 v 1.344 h -1.344 z m 1.608,0 h 1.344 v 1.344 h -1.344 z m 1.584,0 h 1.344 v 1.344 h -1.344 z"
       style="font-family:Arcade;-inkscape-font-specification:Arcade"
       id="path879" />
    <path
       d="m 77.531059,7.6639989 h 1.344 v 1.344 h -1.344 z m 1.584,0 h 1.344 v 1.344 h -1.344 z m 6.36,0 h 1.344 v 1.344 h -1.344 z m 1.584,0 h 1.344 v 1.344 h -1.344 z m -9.528,1.584 h 1.344 v 1.3440001 h -1.344 z m 1.584,0 h 1.344 v 1.3440001 h -1.344 z m 6.36,0 h 1.344 v 1.3440001 h -1.344 z m 1.584,0 h 1.344 v 1.3440001 h -1.344 z m -7.944,1.5840001 h 1.344 v 1.344 h -1.344 z m 1.584,0 h 1.344 v 1.344 h -1.344 z m 1.584,0 h 1.344 v 1.344 h -1.344 z m 1.608,0 h 1.344 v 1.344 h -1.344 z m 1.584,0 h 1.344 v 1.344 h -1.344 z m -6.36,-9.5280001 h 1.344 v 1.344 h -1.344 z m 1.584,0 h 1.344 v 1.344 h -1.344 z m 1.584,0 h 1.344 v 1.344 h -1.344 z m 1.608,0 h 1.344 v 1.344 h -1.344 z m 1.584,0 h 1.344 v 1.344 h -1.344 z m -7.944,1.584 h 1.344 v 1.344 h -1.344 z m 1.584,0 h 1.344 v 1.344 h -1.344 z m 6.36,0 h 1.344 v 1.344 h -1.344 z m 1.584,0 h 1.344 v 1.344 h -1.344 z m -9.528,1.584 h 1.344 v 1.344 h -1.344 z m 1.584,0 h 1.344 v 1.344 h -1.344 z m 6.36,0 h 1.344 v 1.344 h -1.344 z m 1.584,0 h 1.344 v 1.344 h -1.344 z m -9.528,1.584 h 1.344 v 1.344 h -1.344 z m 1.584,0 h 1.344 v 1.344 h -1.344 z m 6.36,0 h 1.344 v 1.344 h -1.344 z m 1.584,0 h 1.344 v 1.344 h -1.344 z"
       style="font-family:Arcade;-inkscape-font-specification:Arcade"
       id="path881" />
    <path
       d="m 90.011024,7.6639989 h 1.344 v 1.344 h -1.344 z m 1.584,0 h 1.344 v 1.344 h -1.344 z m 1.584,0 h 1.344 v 1.344 h -1.344 z m 1.584,0 h 1.344 v 1.344 h -1.344 z m 1.608,0 h 1.344 v 1.344 h -1.344 z m 1.584,0 h 1.344 v 1.344 h -1.344 z m 1.584,0 h 1.343996 v 1.344 h -1.343996 z m -9.528,1.584 h 1.344 v 1.3440001 h -1.344 z m 1.584,0 h 1.344 v 1.3440001 h -1.344 z m 6.36,0 h 1.344 v 1.3440001 h -1.344 z m 1.584,0 h 1.343996 v 1.3440001 h -1.343996 z m -9.528,1.5840001 h 1.344 v 1.344 h -1.344 z m 1.584,0 h 1.344 v 1.344 h -1.344 z m 6.36,0 h 1.344 v 1.344 h -1.344 z m 1.584,0 h 1.343996 v 1.344 h -1.343996 z m -6.36,-9.5280001 h 1.344 v 1.344 h -1.344 z m 1.584,0 h 1.344 v 1.344 h -1.344 z m 1.608,0 h 1.344 v 1.344 h -1.344 z m -4.776,1.584 h 1.344 v 1.344 h -1.344 z m 1.584,0 h 1.344 v 1.344 h -1.344 z m 3.192,0 h 1.344 v 1.344 h -1.344 z m 1.584,0 h 1.344 v 1.344 h -1.344 z m -7.944,1.584 h 1.344 v 1.344 h -1.344 z m 1.584,0 h 1.344 v 1.344 h -1.344 z m 6.36,0 h 1.344 v 1.344 h -1.344 z m 1.584,0 h 1.343996 v 1.344 h -1.343996 z m -9.528,1.584 h 1.344 v 1.344 h -1.344 z m 1.584,0 h 1.344 v 1.344 h -1.344 z m 6.36,0 h 1.344 v 1.344 h -1.344 z m 1.584,0 h 1.343996 v 1.344 h -1.343996 z"
       style="font-family:Arcade;-inkscape-font-specification:Arcade"
       id="path883" />
    <path
       d="m 102.49099,7.6639989 h 1.344 v 1.344 h -1.344 z m 1.584,0 h 1.344 v 1.344 h -1.344 z m 3.168,0 h 1.344 v 1.344 h -1.344 z m 1.608,0 h 1.344 v 1.344 h -1.344 z m -6.36,1.584 h 1.344 v 1.3440001 h -1.344 z m 1.584,0 h 1.344 v 1.3440001 h -1.344 z m 4.776,0 h 1.344 v 1.3440001 h -1.344 z m 1.584,0 h 1.344 v 1.3440001 h -1.344 z m -7.944,1.5840001 h 1.344 v 1.344 h -1.344 z m 1.584,0 h 1.344 v 1.344 h -1.344 z m 6.36,0 h 1.344 v 1.344 h -1.344 z m 1.584,0 h 1.344 v 1.344 h -1.344 z m -9.528,-9.5280001 h 1.344 v 1.344 h -1.344 z m 1.584,0 h 1.344 v 1.344 h -1.344 z m 1.584,0 h 1.344 v 1.344 h -1.344 z m 1.584,0 h 1.344 v 1.344 h -1.344 z m 1.608,0 h 1.344 v 1.344 h -1.344 z m 1.584,0 h 1.344 v 1.344 h -1.344 z m -7.944,1.584 h 1.344 v 1.344 h -1.344 z m 1.584,0 h 1.344 v 1.344 h -1.344 z m 6.36,0 h 1.344 v 1.344 h -1.344 z m 1.584,0 h 1.344 v 1.344 h -1.344 z m -9.528,1.584 h 1.344 v 1.344 h -1.344 z m 1.584,0 h 1.344 v 1.344 h -1.344 z m 6.36,0 h 1.344 v 1.344 h -1.344 z m 1.584,0 h 1.344 v 1.344 h -1.344 z m -9.528,1.584 h 1.344 v 1.344 h -1.344 z m 1.584,0 h 1.344 v 1.344 h -1.344 z m 1.584,0 h 1.344 v 1.344 h -1.344 z m 1.584,0 h 1.344 v 1.344 h -1.344 z m 1.608,0 h 1.344 v 1.344 h -1.344 z m 1.584,0 h 1.344 v 1.344 h -1.344 z"
       style="font-family:Arcade;-inkscape-font-specification:Arcade"
       id="path885" />
    <path
       d="m 114.97095,7.6639989 h 1.344 v 1.344 h -1.344 z m 1.584,0 h 1.344 v 1.344 h -1.344 z m -1.584,1.584 h 1.344 v 1.3440001 h -1.344 z m 1.584,0 h 1.344 v 1.3440001 h -1.344 z m 6.36,0 h 1.344 v 1.3440001 h -1.344 z m 1.584,0 h 1.344 v 1.3440001 h -1.344 z m -7.944,1.5840001 h 1.344 v 1.344 h -1.344 z m 1.584,0 h 1.344 v 1.344 h -1.344 z m 1.584,0 h 1.344 v 1.344 h -1.344 z m 1.608,0 h 1.344 v 1.344 h -1.344 z m 1.584,0 h 1.344 v 1.344 h -1.344 z m -6.36,-9.5280001 h 1.344 v 1.344 h -1.344 z m 1.584,0 h 1.344 v 1.344 h -1.344 z m 1.584,0 h 1.344 v 1.344 h -1.344 z m 1.608,0 h 1.344 v 1.344 h -1.344 z m 1.584,0 h 1.344 v 1.344 h -1.344 z m -7.944,1.584 h 1.344 v 1.344 h -1.344 z m 1.584,0 h 1.344 v 1.344 h -1.344 z m 6.36,0 h 1.344 v 1.344 h -1.344 z m 1.584,0 h 1.344 v 1.344 h -1.344 z m -9.528,1.584 h 1.344 v 1.344 h -1.344 z m 1.584,0 h 1.344 v 1.344 h -1.344 z m -1.584,1.584 h 1.344 v 1.344 h -1.344 z m 1.584,0 h 1.344 v 1.344 h -1.344 z"
       style="font-family:Arcade;-inkscape-font-specification:Arcade"
       id="path887" />
    <path
       d="m 127.45092,7.6639989 h 1.344 v 1.344 h -1.344 z m 1.584,0 h 1.344 v 1.344 h -1.344 z m 6.36,0 h 1.344 v 1.344 h -1.344 z m 1.584,0 h 1.344 v 1.344 h -1.344 z m -9.528,1.584 h 1.344 v 1.3440001 h -1.344 z m 1.584,0 h 1.344 v 1.3440001 h -1.344 z m 6.36,0 h 1.344 v 1.3440001 h -1.344 z m 1.584,0 h 1.344 v 1.3440001 h -1.344 z m -9.528,1.5840001 h 1.344 v 1.344 h -1.344 z m 1.584,0 h 1.344 v 1.344 h -1.344 z m 6.36,0 h 1.344 v 1.344 h -1.344 z m 1.584,0 h 1.344 v 1.344 h -1.344 z m -9.528,-9.5280001 h 1.344 v 1.344 h -1.344 z m 1.584,0 h 1.344 v 1.344 h -1.344 z m 6.36,0 h 1.344 v 1.344 h -1.344 z m 1.584,0 h 1.344 v 1.344 h -1.344 z m -9.528,1.584 h 1.344 v 1.344 h -1.344 z m 1.584,0 h 1.344 v 1.344 h -1.344 z m 6.36,0 h 1.344 v 1.344 h -1.344 z m 1.584,0 h 1.344 v 1.344 h -1.344 z m -9.528,1.584 h 1.344 v 1.344 h -1.344 z m 1.584,0 h 1.344 v 1.344 h -1.344 z m 6.36,0 h 1.344 v 1.344 h -1.344 z m 1.584,0 h 1.344 v 1.344 h -1.344 z m -9.528,1.584 h 1.344 v 1.344 h -1.344 z m 1.584,0 h 1.344 v 1.344 h -1.344 z m 1.584,0 h 1.344 v 1.344 h -1.344 z m 1.584,0 h 1.344 v 1.344 h -1.344 z m 1.608,0 h 1.344 v 1.344 h -1.344 z m 1.584,0 h 1.344 v 1.344 h -1.344 z m 1.584,0 h 1.344 v 1.344 h -1.344 z"
       style="font-family:Arcade;-inkscape-font-specification:Arcade"
       id="path889" />
  </g>
  <path
     d="m 7.4803882,0.5 1.56,1.92 h -3.12 l -0.72,2.88 h -1.92 l 0.72,-2.88 h -1.92 l -1.44,5.76 h 3.84 l -0.48,1.92 h 3.36 l -2.52,2.88 h 2.82 L 10.000388,10.1 h 5.28 l 2.34,2.88 h 2.82 l -2.52,-2.88 h 3.36 l -0.48,-1.92 h 3.84 l -1.44,-5.76 h -1.92 l 0.72,2.88 h -1.92 l -0.72,-2.88 h -3.12 l 1.56,-1.92 h -2.04 l -1.68,1.92 h -2.88 L 9.5203882,0.5 Z m 0.24,3.84 h 1.92 v 1.92 h -1.92 z m 7.9249998,0 h 1.92 v 1.92 h -1.92 z"
     id="path39981"
     style="fill:#ffffff" />
  <g
     aria-label="RETROARCH"
     id="text39985"
     style="font-size:24px;line-height:1.25;fill:#ffffff">
    <path
       d="m 27.611198,7.6639989 h 1.344 v 1.344 h -1.344 z m 1.584,0 h 1.344 v 1.344 h -1.344 z m 3.168,0 h 1.344 v 1.344 h -1.344 z m 1.608,0 h 1.344 v 1.344 h -1.344 z m -6.36,1.584 h 1.344 v 1.3440001 h -1.344 z m 1.584,0 h 1.344 v 1.3440001 h -1.344 z m 4.776,0 h 1.344 v 1.3440001 h -1.344 z m 1.584,0 h 1.344 v 1.3440001 h -1.344 z m -7.944,1.5840001 h 1.344 v 1.344 h -1.344 z m 1.584,0 h 1.344 v 1.344 h -1.344 z m 6.36,0 h 1.344 v 1.344 h -1.344 z m 1.584,0 h 1.344 v 1.344 h -1.344 z m -9.528,-9.5280001 h 1.344 v 1.344 h -1.344 z m 1.584,0 h 1.344 v 1.344 h -1.344 z m 1.584,0 h 1.344 v 1.344 h -1.344 z m 1.584,0 h 1.344 v 1.344 h -1.344 z m 1.608,0 h 1.344 v 1.344 h -1.344 z m 1.584,0 h 1.344 v 1.344 h -1.344 z m -7.944,1.584 h 1.344 v 1.344 h -1.344 z m 1.584,0 h 1.344 v 1.344 h -1.344 z m 6.36,0 h 1.344 v 1.344 h -1.344 z m 1.584,0 h 1.344 v 1.344 h -1.344 z m -9.528,1.584 h 1.344 v 1.344 h -1.344 z m 1.584,0 h 1.344 v 1.344 h -1.344 z m 6.36,0 h 1.344 v 1.344 h -1.344 z m 1.584,0 h 1.344 v 1.344 h -1.344 z m -9.528,1.584 h 1.344 v 1.344 h -1.344 z m 1.584,0 h 1.344 v 1.344 h -1.344 z m 1.584,0 h 1.344 v 1.344 h -1.344 z m 1.584,0 h 1.344 v 1.344 h -1.344 z m 1.608,0 h 1.344 v 1.344 h -1.344 z m 1.584,0 h 1.344 v 1.344 h -1.344 z"
       style="font-family:Arcade;-inkscape-font-specification:Arcade"
       id="path833" />
    <path
       d="m 40.091164,7.6639989 h 1.344 v 1.344 h -1.344 z m 1.584,0 h 1.344 v 1.344 h -1.344 z m -1.584,1.584 h 1.344 v 1.3440001 h -1.344 z m 1.584,0 h 1.344 v 1.3440001 h -1.344 z m -1.584,1.5840001 h 1.344 v 1.344 h -1.344 z m 1.584,0 h 1.344 v 1.344 h -1.344 z m 1.584,0 h 1.344 v 1.344 h -1.344 z m 1.584,0 h 1.344 v 1.344 h -1.344 z m 1.608,0 h 1.344 v 1.344 h -1.344 z m 1.584,0 h 1.344 v 1.344 h -1.344 z m 1.584,0 h 1.344 v 1.344 h -1.344 z m -9.528,-9.5280001 h 1.344 v 1.344 h -1.344 z m 1.584,0 h 1.344 v 1.344 h -1.344 z m 1.584,0 h 1.344 v 1.344 h -1.344 z m 1.584,0 h 1.344 v 1.344 h -1.344 z m 1.608,0 h 1.344 v 1.344 h -1.344 z m 1.584,0 h 1.344 v 1.344 h -1.344 z m 1.584,0 h 1.344 v 1.344 h -1.344 z m -9.528,1.584 h 1.344 v 1.344 h -1.344 z m 1.584,0 h 1.344 v 1.344 h -1.344 z m -1.584,1.584 h 1.344 v 1.344 h -1.344 z m 1.584,0 h 1.344 v 1.344 h -1.344 z m -1.584,1.584 h 1.344 v 1.344 h -1.344 z m 1.584,0 h 1.344 v 1.344 h -1.344 z m 1.584,0 h 1.344 v 1.344 h -1.344 z m 1.584,0 h 1.344 v 1.344 h -1.344 z m 1.608,0 h 1.344 v 1.344 h -1.344 z m 1.584,0 h 1.344 v 1.344 h -1.344 z"
       style="font-family:Arcade;-inkscape-font-specification:Arcade"
       id="path835" />
    <path
       d="m 55.739129,7.6639989 h 1.344 v 1.344 h -1.344 z m 1.584,0 h 1.344 v 1.344 h -1.344 z m -1.584,1.584 h 1.344 v 1.3440001 h -1.344 z m 1.584,0 h 1.344 v 1.3440001 h -1.344 z m -1.584,1.5840001 h 1.344 v 1.344 h -1.344 z m 1.584,0 h 1.344 v 1.344 h -1.344 z m -4.752,-9.5280001 h 1.344 v 1.344 h -1.344 z m 1.584,0 h 1.344 v 1.344 h -1.344 z m 1.584,0 h 1.344 v 1.344 h -1.344 z m 1.584,0 h 1.344 v 1.344 h -1.344 z m 1.608,0 h 1.344 v 1.344 h -1.344 z m 1.584,0 h 1.344 v 1.344 h -1.344 z m -4.776,1.584 h 1.344 v 1.344 h -1.344 z m 1.584,0 h 1.344 v 1.344 h -1.344 z m -1.584,1.584 h 1.344 v 1.344 h -1.344 z m 1.584,0 h 1.344 v 1.344 h -1.344 z m -1.584,1.584 h 1.344 v 1.344 h -1.344 z m 1.584,0 h 1.344 v 1.344 h -1.344 z"
       style="font-family:Arcade;-inkscape-font-specification:Arcade"
       id="path837" />
    <path
       d="m 65.051094,7.6639989 h 1.344 v 1.344 h -1.344 z m 1.584,0 h 1.344 v 1.344 h -1.344 z m 3.168,0 h 1.344 v 1.344 h -1.344 z m 1.608,0 h 1.344 v 1.344 h -1.344 z m -6.36,1.584 h 1.344 v 1.3440001 h -1.344 z m 1.584,0 h 1.344 v 1.3440001 h -1.344 z m 4.776,0 h 1.344 v 1.3440001 h -1.344 z m 1.584,0 h 1.344 v 1.3440001 h -1.344 z m -7.944,1.5840001 h 1.344 v 1.344 h -1.344 z m 1.584,0 h 1.344 v 1.344 h -1.344 z m 6.36,0 h 1.344 v 1.344 h -1.344 z m 1.584,0 h 1.344 v 1.344 h -1.344 z m -9.528,-9.5280001 h 1.344 v 1.344 h -1.344 z m 1.584,0 h 1.344 v 1.344 h -1.344 z m 1.584,0 h 1.344 v 1.344 h -1.344 z m 1.584,0 h 1.344 v 1.344 h -1.344 z m 1.608,0 h 1.344 v 1.344 h -1.344 z m 1.584,0 h 1.344 v 1.344 h -1.344 z m -7.944,1.584 h 1.344 v 1.344 h -1.344 z m 1.584,0 h 1.344 v 1.344 h -1.344 z m 6.36,0 h 1.344 v 1.344 h -1.344 z m 1.584,0 h 1.344 v 1.344 h -1.344 z m -9.528,1.584 h 1.344 v 1.344 h -1.344 z m 1.584,0 h 1.344 v 1.344 h -1.344 z m 6.36,0 h 1.344 v 1.344 h -1.344 z m 1.584,0 h 1.344 v 1.344 h -1.344 z m -9.528,1.584 h 1.344 v 1.344 h -1.344 z m 1.584,0 h 1.344 v 1.344 h -1.344 z m 1.584,0 h 1.344 v 1.344 h -1.344 z m 1.584,0 h 1.344 v 1.344 h -1.344 z m 1.608,0 h 1.344 v 1.344 h -1.344 z m 1.584,0 h 1.344 v 1.344 h -1.344 z"
       style="font-family:Arcade;-inkscape-font-specification:Arcade"
       id="path839" />
    <path
       d="m 77.531059,7.6639989 h 1.344 v 1.344 h -1.344 z m 1.584,0 h 1.344 v 1.344 h -1.344 z m 6.36,0 h 1.344 v 1.344 h -1.344 z m 1.584,0 h 1.344 v 1.344 h -1.344 z m -9.528,1.584 h 1.344 v 1.3440001 h -1.344 z m 1.584,0 h 1.344 v 1.3440001 h -1.344 z m 6.36,0 h 1.344 v 1.3440001 h -1.344 z m 1.584,0 h 1.344 v 1.3440001 h -1.344 z m -7.944,1.5840001 h 1.344 v 1.344 h -1.344 z m 1.584,0 h 1.344 v 1.344 h -1.344 z m 1.584,0 h 1.344 v 1.344 h -1.344 z m 1.608,0 h 1.344 v 1.344 h -1.344 z m 1.584,0 h 1.344 v 1.344 h -1.344 z m -6.36,-9.5280001 h 1.344 v 1.344 h -1.344 z m 1.584,0 h 1.344 v 1.344 h -1.344 z m 1.584,0 h 1.344 v 1.344 h -1.344 z m 1.608,0 h 1.344 v 1.344 h -1.344 z m 1.584,0 h 1.344 v 1.344 h -1.344 z m -7.944,1.584 h 1.344 v 1.344 h -1.344 z m 1.584,0 h 1.344 v 1.344 h -1.344 z m 6.36,0 h 1.344 v 1.344 h -1.344 z m 1.584,0 h 1.344 v 1.344 h -1.344 z m -9.528,1.584 h 1.344 v 1.344 h -1.344 z m 1.584,0 h 1.344 v 1.344 h -1.344 z m 6.36,0 h 1.344 v 1.344 h -1.344 z m 1.584,0 h 1.344 v 1.344 h -1.344 z m -9.528,1.584 h 1.344 v 1.344 h -1.344 z m 1.584,0 h 1.344 v 1.344 h -1.344 z m 6.36,0 h 1.344 v 1.344 h -1.344 z m 1.584,0 h 1.344 v 1.344 h -1.344 z"
       style="font-family:Arcade;-inkscape-font-specification:Arcade"
       id="path841" />
    <path
       d="m 90.011024,7.6639989 h 1.344 v 1.344 h -1.344 z m 1.584,0 h 1.344 v 1.344 h -1.344 z m 1.584,0 h 1.344 v 1.344 h -1.344 z m 1.584,0 h 1.344 v 1.344 h -1.344 z m 1.608,0 h 1.344 v 1.344 h -1.344 z m 1.584,0 h 1.344 v 1.344 h -1.344 z m 1.584,0 h 1.343996 v 1.344 h -1.343996 z m -9.528,1.584 h 1.344 v 1.3440001 h -1.344 z m 1.584,0 h 1.344 v 1.3440001 h -1.344 z m 6.36,0 h 1.344 v 1.3440001 h -1.344 z m 1.584,0 h 1.343996 v 1.3440001 h -1.343996 z m -9.528,1.5840001 h 1.344 v 1.344 h -1.344 z m 1.584,0 h 1.344 v 1.344 h -1.344 z m 6.36,0 h 1.344 v 1.344 h -1.344 z m 1.584,0 h 1.343996 v 1.344 h -1.343996 z m -6.36,-9.5280001 h 1.344 v 1.344 h -1.344 z m 1.584,0 h 1.344 v 1.344 h -1.344 z m 1.608,0 h 1.344 v 1.344 h -1.344 z m -4.776,1.584 h 1.344 v 1.344 h -1.344 z m 1.584,0 h 1.344 v 1.344 h -1.344 z m 3.192,0 h 1.344 v 1.344 h -1.344 z m 1.584,0 h 1.344 v 1.344 h -1.344 z m -7.944,1.584 h 1.344 v 1.344 h -1.344 z m 1.584,0 h 1.344 v 1.344 h -1.344 z m 6.36,0 h 1.344 v 1.344 h -1.344 z m 1.584,0 h 1.343996 v 1.344 h -1.343996 z m -9.528,1.584 h 1.344 v 1.344 h -1.344 z m 1.584,0 h 1.344 v 1.344 h -1.344 z m 6.36,0 h 1.344 v 1.344 h -1.344 z m 1.584,0 h 1.343996 v 1.344 h -1.343996 z"
       style="font-family:Arcade;-inkscape-font-specification:Arcade"
       id="path843" />
    <path
       d="m 102.49099,7.6639989 h 1.344 v 1.344 h -1.344 z m 1.584,0 h 1.344 v 1.344 h -1.344 z m 3.168,0 h 1.344 v 1.344 h -1.344 z m 1.608,0 h 1.344 v 1.344 h -1.344 z m -6.36,1.584 h 1.344 v 1.3440001 h -1.344 z m 1.584,0 h 1.344 v 1.3440001 h -1.344 z m 4.776,0 h 1.344 v 1.3440001 h -1.344 z m 1.584,0 h 1.344 v 1.3440001 h -1.344 z m -7.944,1.5840001 h 1.344 v 1.344 h -1.344 z m 1.584,0 h 1.344 v 1.344 h -1.344 z m 6.36,0 h 1.344 v 1.344 h -1.344 z m 1.584,0 h 1.344 v 1.344 h -1.344 z m -9.528,-9.5280001 h 1.344 v 1.344 h -1.344 z m 1.584,0 h 1.344 v 1.344 h -1.344 z m 1.584,0 h 1.344 v 1.344 h -1.344 z m 1.584,0 h 1.344 v 1.344 h -1.344 z m 1.608,0 h 1.344 v 1.344 h -1.344 z m 1.584,0 h 1.344 v 1.344 h -1.344 z m -7.944,1.584 h 1.344 v 1.344 h -1.344 z m 1.584,0 h 1.344 v 1.344 h -1.344 z m 6.36,0 h 1.344 v 1.344 h -1.344 z m 1.584,0 h 1.344 v 1.344 h -1.344 z m -9.528,1.584 h 1.344 v 1.344 h -1.344 z m 1.584,0 h 1.344 v 1.344 h -1.344 z m 6.36,0 h 1.344 v 1.344 h -1.344 z m 1.584,0 h 1.344 v 1.344 h -1.344 z m -9.528,1.584 h 1.344 v 1.344 h -1.344 z m 1.584,0 h 1.344 v 1.344 h -1.344 z m 1.584,0 h 1.344 v 1.344 h -1.344 z m 1.584,0 h 1.344 v 1.344 h -1.344 z m 1.608,0 h 1.344 v 1.344 h -1.344 z m 1.584,0 h 1.344 v 1.344 h -1.344 z"
       style="font-family:Arcade;-inkscape-font-specification:Arcade"
       id="path845" />
    <path
       d="m 114.97095,7.6639989 h 1.344 v 1.344 h -1.344 z m 1.584,0 h 1.344 v 1.344 h -1.344 z m -1.584,1.584 h 1.344 v 1.3440001 h -1.344 z m 1.584,0 h 1.344 v 1.3440001 h -1.344 z m 6.36,0 h 1.344 v 1.3440001 h -1.344 z m 1.584,0 h 1.344 v 1.3440001 h -1.344 z m -7.944,1.5840001 h 1.344 v 1.344 h -1.344 z m 1.584,0 h 1.344 v 1.344 h -1.344 z m 1.584,0 h 1.344 v 1.344 h -1.344 z m 1.608,0 h 1.344 v 1.344 h -1.344 z m 1.584,0 h 1.344 v 1.344 h -1.344 z m -6.36,-9.5280001 h 1.344 v 1.344 h -1.344 z m 1.584,0 h 1.344 v 1.344 h -1.344 z m 1.584,0 h 1.344 v 1.344 h -1.344 z m 1.608,0 h 1.344 v 1.344 h -1.344 z m 1.584,0 h 1.344 v 1.344 h -1.344 z m -7.944,1.584 h 1.344 v 1.344 h -1.344 z m 1.584,0 h 1.344 v 1.344 h -1.344 z m 6.36,0 h 1.344 v 1.344 h -1.344 z m 1.584,0 h 1.344 v 1.344 h -1.344 z m -9.528,1.584 h 1.344 v 1.344 h -1.344 z m 1.584,0 h 1.344 v 1.344 h -1.344 z m -1.584,1.584 h 1.344 v 1.344 h -1.344 z m 1.584,0 h 1.344 v 1.344 h -1.344 z"
       style="font-family:Arcade;-inkscape-font-specification:Arcade"
       id="path847" />
    <path
       d="m 127.45092,7.6639989 h 1.344 v 1.344 h -1.344 z m 1.584,0 h 1.344 v 1.344 h -1.344 z m 6.36,0 h 1.344 v 1.344 h -1.344 z m 1.584,0 h 1.344 v 1.344 h -1.344 z m -9.528,1.584 h 1.344 v 1.3440001 h -1.344 z m 1.584,0 h 1.344 v 1.3440001 h -1.344 z m 6.36,0 h 1.344 v 1.3440001 h -1.344 z m 1.584,0 h 1.344 v 1.3440001 h -1.344 z m -9.528,1.5840001 h 1.344 v 1.344 h -1.344 z m 1.584,0 h 1.344 v 1.344 h -1.344 z m 6.36,0 h 1.344 v 1.344 h -1.344 z m 1.584,0 h 1.344 v 1.344 h -1.344 z m -9.528,-9.5280001 h 1.344 v 1.344 h -1.344 z m 1.584,0 h 1.344 v 1.344 h -1.344 z m 6.36,0 h 1.344 v 1.344 h -1.344 z m 1.584,0 h 1.344 v 1.344 h -1.344 z m -9.528,1.584 h 1.344 v 1.344 h -1.344 z m 1.584,0 h 1.344 v 1.344 h -1.344 z m 6.36,0 h 1.344 v 1.344 h -1.344 z m 1.584,0 h 1.344 v 1.344 h -1.344 z m -9.528,1.584 h 1.344 v 1.344 h -1.344 z m 1.584,0 h 1.344 v 1.344 h -1.344 z m 6.36,0 h 1.344 v 1.344 h -1.344 z m 1.584,0 h 1.344 v 1.344 h -1.344 z m -9.528,1.584 h 1.344 v 1.344 h -1.344 z m 1.584,0 h 1.344 v 1.344 h -1.344 z m 1.584,0 h 1.344 v 1.344 h -1.344 z m 1.584,0 h 1.344 v 1.344 h -1.344 z m 1.608,0 h 1.344 v 1.344 h -1.344 z m 1.584,0 h 1.344 v 1.344 h -1.344 z m 1.584,0 h 1.344 v 1.344 h -1.344 z"
       style="font-family:Arcade;-inkscape-font-specification:Arcade"
       id="path849" />
  </g>
</svg>
