<?xml version="1.0" encoding="UTF-8" standalone="no"?>
<svg
   viewBox="0 0 381.34149 118.60667"
   version="1.1"
   id="svg16"
   sodipodi:docname="system.svg"
   width="381.34149"
   height="118.60667"
   inkscape:version="1.1.2 (0a00cf5339, 2022-02-04)"
   xmlns:inkscape="http://www.inkscape.org/namespaces/inkscape"
   xmlns:sodipodi="http://sodipodi.sourceforge.net/DTD/sodipodi-0.dtd"
   xmlns="http://www.w3.org/2000/svg"
   xmlns:svg="http://www.w3.org/2000/svg">
  <defs
     id="defs20" />
  <sodipodi:namedview
     id="namedview18"
     pagecolor="#ffffff"
     bordercolor="#666666"
     borderopacity="1.0"
     inkscape:pageshadow="2"
     inkscape:pageopacity="0.0"
     inkscape:pagecheckerboard="0"
     showgrid="false"
     fit-margin-top="0"
     fit-margin-left="0"
     fit-margin-right="0"
     fit-margin-bottom="0"
     inkscape:zoom="0.93027638"
     inkscape:cx="266.04997"
     inkscape:cy="61.809588"
     inkscape:window-width="1920"
     inkscape:window-height="996"
     inkscape:window-x="0"
     inkscape:window-y="0"
     inkscape:window-maximized="1"
     inkscape:current-layer="svg16" />
  <path
     id="path917"
     style="fill:#000000"
     d="m 177.10547,0.0174483 c -6.44502,0.1442509 -12.63474,4.3290584 -15.01499,10.3472957 -2.28676,5.480568 -1.26201,12.171191 2.6031,16.68976 3.69357,4.483687 9.77004,6.800619 15.5145,5.988916 6.15553,-0.71157 11.9036,-4.870936 14.0888,-10.734957 2.19951,-5.669662 0.82489,-12.5347199 -3.44141,-16.8828116 -3.51143,-3.6994388 -8.68357,-5.615967 -13.75,-5.4082031 z m 45.44531,0 c -6.56567,0.1504847 -12.89445,4.4091204 -15.28906,10.5624997 -2.15364,5.292677 -1.19265,11.692902 2.43945,16.109375 3.90912,4.950219 10.64221,7.408126 16.82772,6.214045 6.27323,-1.073866 11.87529,-5.838184 13.52824,-12.047318 1.66949,-5.862886 -0.3698,-12.5718705 -5.02326,-16.5127258 -3.39342,-2.9891894 -7.9812,-4.5066265 -12.48309,-4.3258759 z m 60.41211,-0.0117188 c -3.03531,-0.00843 -6.12709,-0.092071 -9.06508,0.8027842 -5.2454,1.3932885 -10.03436,5.0408258 -12.1115,10.1426483 -1.15203,2.706743 -1.37304,5.689602 -1.25219,8.597535 0.0294,16.831666 -0.002,33.664396 0.0879,50.495364 0.1973,6.423 2.91652,12.905261 7.95986,17.011043 5.01038,4.176899 11.70439,5.812617 18.12755,5.663751 24.11236,-3.97e-4 48.22527,0.02575 72.33729,-0.01856 7.16692,-0.231821 14.35144,-3.662983 18.4669,-9.637427 2.86363,-4.043455 4.03202,-9.098395 3.79898,-14.006749 -0.0104,-17.324573 0.0302,-34.650633 -0.0298,-51.97427 -0.37512,-6.035586 -3.65429,-12.0534656 -9.05009,-14.9866956 -2.30019,-1.2312979 -4.96071,-1.537249 -7.5323,-1.3941124 -6.25234,0 -12.50469,0 -18.75703,0 -0.0149,16.200092 0.0392,32.401398 -0.0365,48.600723 -0.20523,5.260857 -2.71641,10.415951 -6.89481,13.657626 -5.18371,4.147229 -11.98674,5.823894 -18.53651,5.715253 -6.53367,-0.122245 -13.26987,-2.091316 -18.188,-6.538711 -3.42201,-3.128477 -5.50917,-7.640392 -5.65195,-12.277896 -0.11051,-3.364935 0.005,-6.733434 -0.0418,-10.099964 0,-13.250782 0,-26.501562 0,-39.7523435 -4.54362,5.007e-4 -9.08724,-0.00391 -13.63086,0 z m 18.96875,2 c 0.0165,13.8809875 -0.043,27.7631195 0.0384,41.6433755 0.22985,5.757651 2.17898,11.705319 6.47981,15.711464 4.78895,4.569837 12.11515,5.965809 18.37044,4.006488 5.8315,-1.720063 10.8282,-6.409059 12.42383,-12.341797 1.0587,-3.770718 0.54438,-7.721881 0.66797,-11.58125 0,-13.146094 0,-26.292187 0,-39.4382805 -12.66016,0 -25.32031,0 -37.98047,0 0,0.6666667 0,1.3333333 0,2 z M 79.435547,5.1912764 C 74.31235,5.2522311 69.127715,7.4474998 65.931775,11.531418 63.036738,15.021963 61.652954,19.44004 60.601876,23.776783 56.433321,39.381338 52.366219,55.011312 48.291015,70.640495 42.787718,49.122927 37.284758,27.605274 31.78125,6.0877607 c -10.59375,1e-7 -21.1875,0 -31.78125,0 8.2212018,29.6615913 16.372762,59.3431083 24.839788,88.9345023 1.079656,3.607907 1.968686,7.299577 3.500806,10.750897 2.612493,5.69422 7.540726,10.5623 13.715721,12.13485 6.573499,1.7793 14.13384,0.12522 18.989014,-4.76006 3.534116,-3.46129 5.621242,-8.10231 6.876175,-12.82411 3.43189,-11.583562 6.542551,-23.258062 9.762631,-34.901677 0.848416,-3.086631 1.687104,-6.175555 2.528755,-9.26409 4.172932,15.261393 8.278148,30.542215 12.622663,45.755337 1.752669,5.65728 5.104385,11.11764 10.331547,14.1494 7.18278,4.13249 16.96364,3.16793 23.10288,-2.44079 3.79709,-3.34135 6.28158,-7.94486 7.6557,-12.76798 4.67161,-16.024383 9.11563,-32.114704 13.62531,-48.184836 4.31567,-15.524699 8.6303,-31.049785 12.92753,-46.5794901 -10.6849,-2.623e-4 -21.3698,-0.00157 -32.05469,-0.00195 C 122.9538,27.599815 117.4809,49.111142 112.00977,70.622917 107.62418,53.957571 103.31417,37.266514 98.681304,20.665668 97.528235,16.501698 95.664748,12.359101 92.349944,9.4676674 89.069082,6.55136 84.650791,5.1401345 80.296247,5.1824793 c -0.28687,-0.00232 -0.573823,0.00694 -0.8607,0.0088 z M 163.0625,39.617057 c 0,26.078776 0,52.157552 0,78.236333 10.10026,0 20.20052,0 30.30078,0 0,-26.745447 0,-53.49089 0,-80.236333 -10.10026,0 -20.20052,0 -30.30078,0 0,0.666667 0,1.333333 0,2 z m 45.1875,0 c 0,26.078776 0,52.157552 0,78.236333 10.11784,0 20.23568,0 30.35352,0 0,-26.745447 0,-53.49089 0,-80.236333 -10.11784,0 -20.23568,0 -30.35352,0 0,0.666667 0,1.333333 0,2 z" />
  <g
     fill="#1f9ebb"
     id="g10"
     transform="translate(5.2558594,4.0057295)">
    <path
       d="m 300.675,38.038 c 0,25.394 29.982,21.766 29.982,4.001 V 0 h -29.982 z"
       id="path6" />
    <path
       d="m 259.329,64.712 c 0,12.537 8.643,20.006 21.34,20.006 h 72.021 c 10.723,0 19.366,-7.362 19.366,-18.032 V 14.031 c 0,-6.402 -4.748,-13.337 -10.67,-13.337 h -16.698 v 43.319 c 0,32.916 -57.35,32.65 -57.35,0.694 V 0 h -12.697 c -8.269,0 -15.365,5.228 -15.365,13.337 z"
       id="path8" />
  </g>
  <g
     fill="#898d89"
     id="g14"
     transform="translate(5.2558594,4.0057295)">
    <path
       d="m 159.62,12.591 c 0,6.829 5.762,12.59 12.964,12.59 7.576,0 13.497,-5.602 13.497,-12.59 0,-7.042 -5.922,-12.59 -13.497,-12.59 -7.202,-0.054 -12.964,5.548 -12.964,12.59 z m 24.487,97.255 V 37.611 h -22.3 v 72.235 z M 204.86,12.591 c 0,6.829 5.922,12.59 13.177,12.59 7.362,0 13.337,-5.602 13.337,-12.59 0,-7.042 -5.922,-12.59 -13.337,-12.59 -7.255,-0.054 -13.177,5.548 -13.177,12.59 z m 24.487,97.255 V 37.611 h -22.353 v 72.235 z M 126.277,6.082 106.805,82.638 c 0,0 -14.938,-57.457 -17.498,-65.779 C 86.959,8.75 81.944,5.175 74.902,5.175 67.7,5.175 62.845,8.803 60.284,16.858 57.937,25.127 42.999,82.637 42.999,82.637 L 23.42,6.082 H 0 c 0,0 22.513,81.624 25.608,91.173 2.347,7.362 8.109,13.337 16.378,13.337 9.71,0 14.244,-7.042 16.218,-13.337 2.187,-6.509 16.752,-60.338 16.752,-60.338 0,0 14.617,53.883 16.591,60.339 2.187,6.295 6.669,13.337 16.218,13.337 8.482,0 14.031,-5.922 16.592,-13.337 3.041,-9.549 25.608,-91.173 25.608,-91.173 z"
       id="path12" />
  </g>
</svg>
