<?xml version="1.0" encoding="UTF-8" standalone="no"?>
<!-- Generator: Adobe Illustrator 13.0.0, SVG Export Plug-In . SVG Version: 6.00 Build 14948)  -->

<svg
   version="1.2"
   id="Layer_3"
   x="0px"
   y="0px"
   width="192.83318"
   height="313.69296"
   viewBox="0 0 192.83317 313.69295"
   xml:space="preserve"
   sodipodi:docname="controller.svg"
   inkscape:version="1.1.2 (0a00cf5339, 2022-02-04)"
   xmlns:inkscape="http://www.inkscape.org/namespaces/inkscape"
   xmlns:sodipodi="http://sodipodi.sourceforge.net/DTD/sodipodi-0.dtd"
   xmlns="http://www.w3.org/2000/svg"
   xmlns:svg="http://www.w3.org/2000/svg"
   xmlns:rdf="http://www.w3.org/1999/02/22-rdf-syntax-ns#"
   xmlns:cc="http://creativecommons.org/ns#"
   xmlns:dc="http://purl.org/dc/elements/1.1/"
   xmlns:ns="&amp;ns_sfw;"><defs
   id="defs43" /><sodipodi:namedview
   id="namedview41"
   pagecolor="#ffffff"
   bordercolor="#666666"
   borderopacity="1.0"
   inkscape:pageshadow="2"
   inkscape:pageopacity="0.0"
   inkscape:pagecheckerboard="0"
   showgrid="false"
   fit-margin-top="0"
   fit-margin-left="0"
   fit-margin-right="0"
   fit-margin-bottom="0"
   inkscape:zoom="1.451521"
   inkscape:cx="27.212833"
   inkscape:cy="127.10804"
   inkscape:window-width="1920"
   inkscape:window-height="996"
   inkscape:window-x="0"
   inkscape:window-y="0"
   inkscape:window-maximized="1"
   inkscape:current-layer="Layer_3" />
<metadata
   id="metadata55">
	<rdf:RDF>
		<cc:Work
   rdf:about="">
			<dc:format>image/svg+xml</dc:format>
			<dc:type
   rdf:resource="http://purl.org/dc/dcmitype/StillImage" />
			
		</cc:Work>
	</rdf:RDF>
	<ns:sfw>
		<ns:slices />
		<ns:sliceSourceBounds
   x="867.765"
   y="-7652"
   width="184.796"
   height="16383"
   bottomLeftOrigin="true" />
	</ns:sfw>
</metadata>
<path
   id="path3"
   style="fill:#000000"
   d="m 22.890605,0.01529994 c -1.13017,0.161602 -2.32558,0.06178 -3.38477,0.552735 -1.84837,-0.742326 -3.86888,-0.293272 -5.79961,-0.449219 -2.637,-0.08373 -5.3741099,0.283769 -7.6495699,1.70779896 -3.62125,2.124944 -6.06441998,6.185661 -6.02099998,10.4130861 -0.0545,2.179539 0.004,4.363221 -0.001,6.541433 -0.034799999,0.762069 0.54124,1.479524 0.18153,2.210125 -0.39892,1.481113 -0.10592,3.036585 -0.19471,4.550994 0.003,92.446297 -0.007,184.892837 0.0119,277.338977 0.13706,5.43311 4.76668998,10.35926 10.21268988,10.71397 2.45323,0.18222 4.91682,0.007 7.37467,0.0725 22.86596,-0.008 45.73242,0.0252 68.59805,-0.0255 0.51324,-0.056 0.97636,-0.39179 1.47656,-0.11524 1.29812,0.31694 2.67795,0.10405 3.95409,-0.0358 1.38947,0.31075 2.87467,0.24064 4.2355,-0.0605 1.9404,0.46638 3.94731,0.13521 5.919015,0.23704 15.58924,-0.0131 31.17942,0.0356 46.76807,-0.0347 12.40243,-0.39414 24.50368,-6.14491 32.68712,-15.46617 7.21842,-8.12822 11.44344,-18.87448 11.54334,-29.75745 0.0438,-5.24575 -0.006,-10.49216 0.0159,-15.7383 -0.004,-76.93038 0.01,-153.861194 -0.0142,-230.791304 0.0507,-0.738292 -0.54785,-1.411859 -0.15962,-2.110649 0.34911,-1.522717 0.084,-2.972695 0.16992,-4.480469 0.0471,-2.827926 0.11207,-5.8104351 -1.27539,-8.3744971 -2.10177,-4.343857 -6.96037,-7.10822596 -11.76523,-6.77016096 -1.91121,0.06154 -3.85554,-0.169459 -5.74258,0.181767 -0.4794,0.191569 -0.90881,0.355348 -1.38531,0.06662 -1.80033,-0.483139 -3.6847,-0.149553 -5.5225,-0.24826 H 40.265655 c -0.68773,-0.03845 -1.33442,0.447735 -1.99056,0.134266 -1.2009,-0.249803 -2.48117,-0.184767 -3.67059,0.04235 -0.6328,0.01355 -1.32047,-0.257827 -1.9912,-0.200057 -0.85651,-0.01312 -1.74722,0.119203 -2.55385,0.286737 -1.70968,-0.515291 -3.51335,-0.152811 -5.26646,-0.263299 -0.65691,0.08588 -1.24967,-0.213465 -1.90234,-0.128907 z m 10.08984,5.18554696 c 1.29393,0.334568 1.52175,2.397105 0.25758,2.923972 -0.45758,0.189009 -1.32064,0.305394 -1.5601,-0.189219 -0.13088,-0.674028 -0.47665,-1.374526 -0.48062,-2.032924 0.35283,-0.597243 1.11685,-0.892778 1.78314,-0.701829 z m 4.14062,0 c 1.29393,0.334568 1.52175,2.397105 0.25758,2.923972 -0.45757,0.189009 -1.32063,0.305394 -1.56009,-0.189219 -0.13088,-0.674028 -0.47665,-1.374526 -0.48063,-2.032924 0.35284,-0.597243 1.11685,-0.892778 1.78314,-0.701829 z m -24.51562,4.279297 c 0.77349,-0.201982 0.93233,0.202058 0.80078,0.9019531 V 14.30241 H 9.3593551 c 0.0145,-1.40405 -0.25647,-3.139949 1.0078099,-4.119141 0.61827,-0.5171341 1.43248,-0.7897841 2.23828,-0.7031251 z m 154.453125,0.002 V 14.300504 H 65.404275 c 0.25994,-1.615936 0.072,-3.302748 -0.54688,-4.8183601 z m 13.46485,0 c 1.75119,-0.114308 3.21609,1.6397211 2.95117,3.3433601 -0.14891,0.476739 0.3651,1.616404 -0.4,1.476953 h -3.64492 V 9.4821439 Z M 24.226535,14.372769 c 0.52946,0.261364 1.08125,0.583471 1.25196,1.191406 -0.64519,0.645183 -1.29037,1.290365 -1.93555,1.935547 -0.53685,-0.425626 -1.25836,-0.730211 -1.68633,-1.227205 -0.17571,-1.190476 1.08475,-2.148695 2.20098,-1.903495 l 0.1,0.0022 z m -3.82031,11.861328 c -3.86165,1.591184 -6.71616,5.477639 -6.82415,9.689898 -0.0851,2.682426 0.0104,5.368129 -0.0295,8.05229 0.002,32.687478 -0.0122,65.375755 0.0214,98.062735 0.22164,5.35969 4.90328,10.15368 10.29557,10.34168 2.57423,0.12873 5.1545,-0.007 7.73155,0.0468 39.99235,-7.2e-4 79.985155,0.01 119.977215,-0.017 7.32723,-0.30053 14.1499,-4.13155 19.09154,-9.4089 4.96415,-5.28153 8.26536,-12.40701 8.00977,-19.74648 -0.002,-29.152854 0.0129,-58.30648 -0.0213,-87.458835 -0.18896,-4.14957 -3.01369,-7.987704 -6.83226,-9.562268 h 11.65039 c -0.001,80.781733 0.0104,161.563633 -0.0151,242.345253 -0.0148,0.93414 -0.0691,1.86796 -0.16462,2.79733 -4.11442,-7.45831 -8.15197,-14.96147 -12.33647,-22.37892 -1.938,-2.92106 -6.29171,-3.82068 -9.19772,-1.83359 -1.53599,0.98737 -2.67149,2.59966 -3.03417,4.39415 -4.47345,-1.42988 -7.9182,1.17943 -9.10938,4.98443 -3.91581,-1.18052 -8.27553,0.5998 -8.8125,3.98828 -0.22736,0.4676 -0.11042,1.32608 -0.81345,0.83944 -2.64394,-0.82081 -5.70998,0.16936 -7.34085,2.41642 -0.60367,0.81171 -1.05849,1.74691 -1.25,2.74414 -2.71253,-1.10374 -6.05377,-0.16765 -7.79386,2.1908 -0.64853,0.81093 -1.09664,1.81245 -1.31746,2.80334 -2.76485,-1.13399 -6.16876,-0.12274 -7.89214,2.31136 -1.68645,2.13468 -1.73493,5.23919 -0.38525,7.55479 4.2346,7.63729 8.39111,15.31819 12.64457,22.94635 h -22.92968 c 1.935,-3.09121 1.69203,-7.36804 -0.67861,-10.16077 -1.8841,-2.33234 -4.970565,-3.48759 -7.928825,-3.22558 -7.03922,0.0294 -14.08229,-0.0648 -21.11903,0.0555 -4.41381,0.40309 -8.06866,4.61391 -7.80313,9.04761 0.0393,1.5119 0.51051,3.00513 1.3167,4.28321 -18.84277,-0.008 -37.68741,0.0258 -56.52899,-0.0274 -1.1917599,-0.16987 -1.8301099,-1.47196 -1.6292199,-2.58114 V 26.234087 H 20.406095 Z m 147.271485,8.521485 c 1.14091,-0.0046 1.86889,1.233315 1.66408,2.280078 -0.004,29.284905 0.0162,58.570826 -0.026,87.8551 -0.37484,5.60272 -3.73665,10.63469 -8.03044,14.07997 -3.34803,2.69273 -7.61849,4.40715 -11.96078,4.11495 -41.62904,-1.8e-4 -83.258585,0.009 -124.887315,-0.0159 -1.09459,-0.0666 -1.73336,-1.27082 -1.54278,-2.2759 8.6e-4,-34.82457 -0.01,-69.649826 0.0169,-104.473972 0.0444,-1.08115 1.18768,-1.758841 2.19405,-1.574096 47.52409,-0.0039 95.048185,-5.37e-4 142.572265,0.0098 z m -22.79296,4.144531 c -17.04702,0.04167 -34.09599,0.0072 -51.143755,0.01964 -15.33292,0.01121 -30.66715,-0.01993 -45.99925,0.01773 -3.13848,0.143076 -5.66694,3.262007 -5.30623,6.35599 10e-4,29.269805 -0.0109,58.540557 0.0176,87.809777 0.11344,3.12733 3.19459,5.68314 6.28164,5.35156 32.2172,-0.001 64.435345,0.0109 96.651955,-0.0176 3.12667,-0.11323 5.68362,-3.19268 5.35156,-6.27969 -0.003,-29.29532 0.009,-58.591599 -0.0176,-87.886332 -0.12218,-2.978723 -2.87983,-5.445525 -5.83593,-5.371094 z m -3.48438,9.355469 V 129.11692 H 51.773415 V 48.255582 Z M 30.208965,66.863004 c -3.88155,0.01084 -7.31445,3.573971 -7.18261,7.453885 -0.0584,3.932717 3.53438,7.458747 7.46776,7.319557 3.92723,0.0486 7.45445,-3.533949 7.3125,-7.466802 0.0332,-3.994075 -3.59455,-7.51547 -7.59765,-7.30664 z m 6.43164,117.085946 c -1.54337,0.10711 -3.17355,0.0591 -4.55599,0.87522 -2.53726,1.27995 -4.1516,4.13268 -3.91276,6.97048 v 6.63477 c -2.78862,0.019 -5.58804,-0.0844 -8.36945,0.0897 -3.56391,0.49466 -6.32824,4.03023 -6.01897,7.60448 0.0354,4.18806 -0.0841,8.38382 0.0778,12.56675 0.44714,3.60733 4.01041,6.43138 7.62001,6.11801 h 6.69453 c 0.019,2.78862 -0.0844,5.58803 0.0897,8.36945 0.49465,3.56391 4.03022,6.32824 7.60447,6.01897 4.18677,-0.0354 8.38121,0.084 12.56286,-0.0777 3.60932,-0.44324 6.4353,-4.00949 6.12191,-7.62007 v -6.69453 c 2.78732,-0.019 5.58545,0.0844 8.36556,-0.0895 3.56701,-0.48933 6.33152,-4.03024 6.02285,-7.6046 -0.0354,-4.18742 0.084,-8.38251 -0.0777,-12.56481 -0.44518,-3.6097 -4.01142,-6.43297 -7.62203,-6.11996 h -6.69258 c -0.019,-2.78797 0.0845,-5.58673 -0.0897,-8.36749 -0.49466,-3.56409 -4.03023,-6.32789 -7.60448,-6.01923 -3.1222,-0.028 -6.25407,0.0556 -9.37031,-0.041 -0.27901,-0.0617 -0.56182,-0.0598 -0.8457,-0.0488 z m 126.402345,1.54883 c -6.48644,0.21295 -12.56345,4.72018 -14.67509,10.85323 -2.10801,5.76815 -0.59516,12.66786 3.78056,16.99052 4.24083,4.36664 11.02397,6.01015 16.78747,4.03268 5.95193,-1.92922 10.51574,-7.53417 11.11682,-13.77487 0.71973,-6.177 -2.44674,-12.6157 -7.82324,-15.76246 -2.74208,-1.66389 -5.98312,-2.48523 -9.18652,-2.3391 z m -119.246095,9.30273 c 0.002,2.20964 -0.0144,4.41926 -0.004,6.62891 -1.59023,-0.37613 -3.27021,-0.37393 -4.85938,0.006 0.0118,-2.21161 -0.0101,-4.42317 -0.004,-6.63477 h 4.86719 z m 120.306645,0.88672 c 2.8805,0.0811 5.49448,2.50721 5.79297,5.37305 0.13559,0.84153 0.0319,1.99003 -0.32719,2.88154 -0.93206,2.72122 -3.93385,4.53512 -6.77595,3.97194 -2.89545,-0.39895 -5.24632,-3.10286 -5.16321,-6.03674 -0.0746,-2.70356 1.84602,-5.27303 4.46208,-5.95926 0.65143,-0.18806 1.33408,-0.26763 2.0113,-0.23053 z m -31.55079,3.77734 c -6.48608,0.21162 -12.55578,4.7186 -14.67382,10.84766 -2.11416,5.78164 -0.58974,12.69655 3.80273,17.02148 4.24386,4.35013 11.0141,5.98414 16.76794,4.0073 6.0154,-1.94927 10.60555,-7.65926 11.13196,-13.97397 0.6417,-6.15144 -2.56379,-12.51631 -7.92789,-15.61504 -2.7241,-1.62913 -5.93063,-2.43206 -9.10092,-2.28743 z m -107.107425,9.72071 c 1.91081,0.007 3.82161,0.009 5.73242,0.006 -0.37564,1.58937 -0.37707,3.26988 0.008,4.85742 -2.21356,-0.0107 -4.42709,0.007 -6.64063,0.004 v -4.86523 c 0.30013,-6.5e-4 0.60026,-10e-4 0.90039,-0.002 z m 31.85742,0 c 0.77168,-0.177 1.04081,0.14744 0.87891,0.90195 v 3.96523 c -2.21289,0.003 -4.42577,-0.0114 -6.63867,-0.004 0.38347,-1.58772 0.38342,-3.26814 0.008,-4.85742 1.91733,0.003 3.83464,0.001 5.75195,-0.006 z m 76.320325,0.46875 c 2.87758,0.0861 5.48437,2.50802 5.7832,5.37109 0.13602,0.84282 0.0307,1.99239 -0.32684,2.88557 -0.9428,2.74843 -4.00042,4.56561 -6.86289,3.95158 -2.86441,-0.43724 -5.16566,-3.12979 -5.07546,-6.0391 -0.0675,-2.73545 1.91238,-5.32476 4.57129,-5.97008 0.62108,-0.16926 1.26832,-0.23141 1.9107,-0.19906 z m -92.117195,0.83593 c 1.09092,0.059 1.37525,1.80992 0.30078,2.1543 -0.90441,0.45096 -1.90631,-0.60625 -1.4707,-1.49805 0.1682,-0.46014 0.70353,-0.70141 1.16992,-0.65625 z m -2.32813,11.36329 c 1.51797,0.31532 3.10591,0.30563 4.61524,-0.0527 -0.0121,2.21226 0.0183,4.42446 0.002,6.63672 h -4.86133 c 10e-4,-2.21419 0.003,-4.42839 0,-6.64258 0.0814,0.0195 0.16276,0.0391 0.24414,0.0586 z m 70.330085,20.68554 c -3.04015,0.0416 -5.64257,1.79981 -8.37997,2.88938 -3.931355,1.79887 -7.940425,3.43758 -11.807535,5.36843 -0.34299,0.13554 -0.84418,0.70751 -1.04687,0.63868 -0.52866,-4.08424 -3.73441,-7.62224 -7.73264,-8.58577 -2.59163,-0.70953 -5.35586,-0.1763 -7.72256,1.00874 -5.0149,2.32484 -10.13142,4.43297 -15.10854,6.83539 -4.25916,2.42661 -6.21953,8.13629 -4.3372,12.66662 1.7073,4.52038 6.88679,7.37846 11.61924,6.34975 2.47365,-0.53739 4.65395,-1.89807 6.98631,-2.82759 3.80867,-1.73749 7.68352,-3.33842 11.43406,-5.19714 0.37578,-0.16472 0.85799,-0.67241 1.12109,-0.71485 0.49114,3.9648 3.51716,7.41055 7.34188,8.51232 2.70374,0.86897 5.65331,0.33875 8.144535,-0.91914 4.99295,-2.309 10.08191,-4.4143 15.03951,-6.79746 4.30709,-2.42765 6.28524,-8.20336 4.34985,-12.75971 -1.54372,-3.93939 -5.67322,-6.63628 -9.90116,-6.46765 z m 66.18164,39.83203 c 1.50123,0.54044 3.18243,0.57725 4.69336,0.0527 -4.33336,10.05368 -13.44483,17.88151 -24.03113,20.66343 -3.97926,1.09137 -8.12732,1.36716 -12.23723,1.25063 h -5.67109 c 0.39682,-0.5835 0.55167,-1.46852 0.79687,-1.98828 2.51384,0.97783 5.55572,0.31829 7.37696,-1.68945 0.86762,-0.91461 1.43763,-2.11655 1.69336,-3.32422 2.52195,0.99853 5.59008,0.33299 7.41283,-1.69387 0.87779,-0.89392 1.42178,-2.13793 1.70631,-3.29246 2.56156,1.00238 5.67613,0.2979 7.49414,-1.78516 0.83061,-0.88438 1.34406,-2.10855 1.62109,-3.21289 2.56185,1.00087 5.6756,0.29776 7.49219,-1.78711 0.81147,-0.90061 1.36001,-2.03065 1.5918,-3.21875 z"
   sodipodi:nodetypes="ccccccccccccccccccccccccccccccccccccccccccccccccccccccccccccccccccccccccccccccccccccccccccccccccccccccccccccsccccccccsssccccccccssccccccccccccccccccccccccccccccccccccccccccccccccccccccccccccccccccccccccccccccccccccccccccccccccccccccccccccccccccccccccccccc" />




































<path
   id="path879"
   d="m 12.240205,4.1422539 c -4.5299999,0 -8.2187399,3.688749 -8.2187399,8.2187501 v 6.126953 c 0,0.274287 0.11585,0.632932 0.37695,0.859375 v 2.011718 c -0.0441,0.05126 -0.11506,0.08687 -0.14649,0.142578 -0.189,0.333 -0.23046,0.680907 -0.23046,1.003907 V 302.36882 c 0,4.022 3.27582,7.29883 7.2988199,7.29883 h 74.22657 c 0.355,0 0.7019,-0.22795 0.8789,-0.50195 0.175,-0.27301 0.22852,-0.58841 0.22852,-0.94141 v -4.05664 c 0,-0.229 -0.073,-0.53042 -0.29297,-0.73242 -0.22,-0.202 -0.50995,-0.26953 -0.75195,-0.26953 h -10.625 c -1.91,0 -3.45118,-1.52165 -3.45118,-3.43165 0,-1.91 1.54118,-3.45117 3.45118,-3.45117 h 21.26953 c 1.911,0 3.45117,1.54217 3.45117,3.45117 0,1.617 -1.10175,2.94718 -2.59375,3.32618 v 0.0215 c -0.31,0.081 -0.50594,0.32449 -0.58594,0.52149 -0.08,0.197 -0.10351,0.37745 -0.10351,0.56445 v 4.05664 c 0.001,0.222 -0.0235,0.42742 0.0625,0.73242 0.044,0.151 0.12945,0.35395 0.31445,0.50195 0.184,0.146 0.41847,0.20899 0.60547,0.20899 h 49.439455 c 23.18,0 41.97461,-18.8161 41.97461,-41.9961 V 22.288738 c 0,-0.325 -0.0915,-0.642922 -0.3125,-0.919922 -0.0807,-0.101104 -0.20041,-0.176846 -0.31641,-0.251953 v -1.597656 c 0.086,-0.03836 0.16837,-0.08757 0.24805,-0.152344 0.278,-0.225 0.37695,-0.596906 0.37695,-0.878906 v -6.126953 c 0,-4.5300011 -3.66545,-8.2187501 -8.18945,-8.2187501 h -5.23047 -0.006 c -0.415,0 -0.75389,0.234953 -0.96289,0.501953 -0.12498,0.159662 -0.21896,0.335381 -0.27539,0.523437 h -1.82812 c -0.0628,-0.254523 -0.16232,-0.492112 -0.34375,-0.667969 -0.287,-0.284 -0.66008,-0.355468 -0.95508,-0.355468 H 40.480445 c -0.288,0 -0.70144,0.136453 -0.89844,0.439453 -0.137,0.21249 -0.16601,0.402715 -0.17578,0.583984 h -1.20117 c -0.014,-0.132544 -0.0462,-0.279858 -0.11524,-0.439453 -0.112,-0.26 -0.48295,-0.585938 -0.87695,-0.585937 h -1.29687 c -0.206,0 -0.45494,0.126437 -0.58594,0.273437 -0.131,0.147 -0.18199,0.265 -0.20899,0.375 -0.0347,0.1345 -0.0496,0.257302 -0.0566,0.376953 h -0.99609 c -0.0113,-0.154455 -0.0428,-0.31948 -0.13867,-0.501953 -0.146,-0.276 -0.54891,-0.523438 -0.87891,-0.523437 h -1.21289 c -0.221,0 -0.47242,0.111953 -0.60742,0.251953 -0.134,0.14 -0.19247,0.280484 -0.23047,0.396484 -0.0437,0.13746 -0.0624,0.261392 -0.0723,0.376953 h -1.33398 c -0.0293,-0.204972 -0.085,-0.405917 -0.21875,-0.583984 -0.185,-0.244 -0.51886,-0.439453 -0.88086,-0.439453 h -6.90039 -0.004 v -0.002 c -0.446,0 -0.8454,0.246437 -1.0664,0.523437 -0.12697,0.159865 -0.20119,0.327675 -0.25,0.501953 h -1.58399 c -0.0502,-0.187716 -0.13314,-0.362809 -0.25781,-0.521484 -0.209,-0.266 -0.56837,-0.501953 -0.98437,-0.501953 h -5.20704 z m 158.814465,1.318359 h 0.004 c -0.034,-0.032 0,-0.0265 0,0.1875 V 18.134441 c 0,0.104 -0.0115,0.104016 -0.0215,0.166016 H 21.542945 V 5.5660819 c 0,0.019 5.3e-4,-0.06098 0.0195,-0.08398 0.019,-0.023 4.9e-4,0 0.0215,0 h 6.6914 v 2.84375 c -1.893,0.639 -3.2832,2.3950941 -3.2832,4.4960941 0,2.634 2.15506,4.791016 4.78906,4.791016 h 26.95898 c 2.63401,0 4.78907,-2.156016 4.78907,-4.791016 0,-2.634 -2.15506,-4.7890631 -4.78907,-4.7890631 H 40.720655 V 5.4821019 H 171.01363 c 0.089,0 0.075,0.01152 0.041,-0.02148 z m -158.814465,0.02148 h 5.125 c 0.013,0.024 0.041,0.05798 0.041,0.08398 V 18.302401 H 5.3612851 v -5.939453 c -0.001,-3.8070001 3.0729,-6.8808601 6.8788999,-6.8808601 z m 20.01563,0 h 0.48047 v 2.550781 h -0.48047 z m 4.14063,0 h 0.48046 v 2.550781 h -0.48046 z m 139.074215,0 h 5.14649 c 3.807,0 6.85937,3.07386 6.85937,6.8808601 v 5.939453 H 175.42967 V 5.5660819 c 0,-0.026 0.029,-0.05998 0.041,-0.08398 z M 18.744115,6.5074839 h 1.4668 V 18.530921 c 0,0.607 0.50042,1.107422 1.10742,1.107422 H 171.41404 c 0.44,0 0.69941,-0.339469 0.81641,-0.605469 0.117,-0.265999 0.16601,-0.541437 0.16602,-0.898437 V 6.5074879 h 1.69531 V 18.530925 c 0,0.607 0.5209,1.107422 1.1289,1.107422 h 11.63086 v 1.25 H 5.7363051 v -1.25 H 17.636695 c 0.606,0 1.10742,-0.500422 1.10742,-1.107422 z m 10.88086,0 h 1.29297 v 1.880859 c 0,0.24 0.0865,0.494453 0.27148,0.689453 0.185,0.195 0.47443,0.292969 0.73243,0.292969 h 1.10742 c 0.572,0 1.04492,-0.416422 1.04492,-0.982422 v -1.880859 h 0.98437 v 1.880859 c 0,0.181 0.053,0.420438 0.25,0.648438 0.197,0.228 0.5134,0.333984 0.7754,0.333984 h 1.08789 c 0.231,0 0.4755,-0.05747 0.6875,-0.230469 0.212,-0.173 0.35546,-0.468953 0.35546,-0.751953 v -1.880859 h 1.17969 v 1.882812 c 0,0.228 0.0925,0.507938 0.3125,0.710938 0.22,0.203 0.48847,0.271484 0.73047,0.271484 h 16.31445 c 1.91,0 3.44922,1.5392191 3.44922,3.4492191 0,1.911 -1.53922,3.451172 -3.44922,3.451172 h -26.95898 c -1.91,0 -3.44922,-1.540172 -3.44922,-3.451172 0,-1.617 1.12228,-2.9697031 2.61328,-3.3457031 0.307,-0.083 0.50499,-0.325485 0.58399,-0.521484 0.08,-0.197 0.084,-0.376454 0.084,-0.564454 z m 2.52539,3.9101561 -0.50195,0.271484 -3.15821,1.736329 -0.52148,0.292968 0.52148,0.291016 3.15821,1.736328 0.50195,0.271485 v -0.5625 -3.472657 z m 22.50391,0 v 0.564453 3.472657 0.5625 l 0.48047,-0.271485 3.1582,-1.736328 0.54297,-0.292969 -0.54297,-0.291015 -3.1582,-1.736329 z M 5.4023151,22.234046 H 187.45506 c 0.006,0.013 0.0215,0.0215 0.0215,0.0625 V 267.67937 c 0,22.456 -18.18072,40.6582 -40.63672,40.6582 H 97.755855 c -0.002,-0.053 0.001,-0.0415 0,-0.10547 v -3.99414 c 1.901,-0.636 3.283205,-2.39205 3.283205,-4.49805 0,-2.632 -2.155065,-4.78906 -4.789065,-4.78906 h -21.26953 c -2.634,0 -4.78906,2.15706 -4.78906,4.78906 0,2.634 2.15506,4.76953 4.78906,4.76953 h 10.33008 v 3.72266 c 0,0.087 -0.01,0.0705 -0.0195,0.10547 h -73.97266 c -3.3009999,0.007 -5.9609399,-2.65803 -5.9609399,-5.95703 V 22.517254 c 0,-0.153 0.027,-0.228485 0.041,-0.271485 z m 19.1992199,7.171875 c -3.892,0 -7.04883,3.178313 -7.04883,7.070313 V 141.35905 c 0,3.893 3.15683,7.06836 7.04883,7.06836 H 150.75193 c 5.978,0 11.93597,-3.02782 16.41797,-7.54882 4.484,-4.518 7.50977,-10.56155 7.50977,-16.68555 V 36.476238 c 0,-3.893 -3.17941,-7.06836 -7.06641,-7.06836 z m 0.002,1.335938 -0.002,0.0039 H 167.61131 c 3.169,0 5.73047,2.560516 5.73047,5.728516 v 87.710945 c 0,5.682 -2.85782,11.43604 -7.13281,15.74804 -4.27401,4.312 -9.93508,7.15235 -15.45508,7.15235 H 24.603495 c -3.169,0 -5.70899,-2.56147 -5.70899,-5.73047 V 36.474285 c 0,-3.169 2.54099,-5.732422 5.70899,-5.732422 z m 23.56836,12.175781 c -0.95,0 -1.73633,0.786328 -1.73633,1.736328 v 88.066402 c 0,0.95 0.78633,1.73438 1.73633,1.73438 h 96.832035 c 0.95,0 1.73437,-0.78538 1.73437,-1.73438 V 44.653972 c 0,-0.95 -0.78437,-1.736328 -1.73437,-1.736328 z m 0,1.337891 h 96.832035 c 0.227,0 0.39648,0.170484 0.39648,0.396484 v 88.066405 c 0,0.227 -0.17048,0.39844 -0.39648,0.39844 H 48.171895 c -0.227,0 -0.39844,-0.17144 -0.39844,-0.39844 V 44.653972 c -10e-4,-0.227 0.17144,-0.398437 0.39844,-0.398437 z m -17.75586,26.603515 c -1.866,0 -3.38868,1.522672 -3.38868,3.388672 0,1.866 1.52268,3.386719 3.38868,3.386719 1.865,0 3.38867,-1.520719 3.38867,-3.386719 0,-1.866 -1.52367,-3.388672 -3.38867,-3.388672 z m 4.91406,117.177734 c -1.735,0 -3.1582,1.4242 -3.1582,3.1582 v 11.20899 c 0,0.039 0.002,-0.002 0,0.0215 h -11.23051 c -1.735,0 -3.15821,1.4232 -3.15821,3.1582 v 12.06641 c 0,1.735 1.42321,3.1582 3.15821,3.1582 h 11.23047 c 0.004,0.031 0,-0.013 0,0.041 v 11.18945 c 0,1.735 1.4232,3.1582 3.1582,3.1582 h 12.06641 c 1.734,0 3.1582,-1.4232 3.1582,-3.1582 v -11.18945 c 0,-0.076 -0.005,-0.015 0,-0.041 h 11.22851 c 1.736,0 3.16016,-1.4232 3.16016,-3.1582 v -12.06641 c 0,-1.735 -1.42416,-3.1582 -3.16016,-3.1582 h -11.20898 c -0.032,0 10e-4,0.003 -0.0195,0 V 191.195 c 0,-1.734 -1.4242,-3.15625 -3.1582,-3.15625 h -12.06641 z m 0,1.33984 h 12.06641 c 1.01099,0 1.82031,0.80836 1.82031,1.81836 v 11.27149 c 0,0.391 0.16151,0.81387 0.47851,1.04687 0.318,0.231 0.63391,0.25 0.87891,0.25 h 11.20898 c 1.013,0 1.82032,0.80931 1.82032,1.82031 v 12.06641 c 0,1.012 -0.80832,1.81836 -1.82032,1.81836 h -11.22851 c -0.354,-0.001 -0.77292,0.0735 -1.04492,0.39648 -0.272,0.323 -0.29297,0.68038 -0.29297,0.98438 v 11.1875 c 0,1.013 -0.80932,1.81836 -1.82031,1.81836 h -12.06641 c -1.011,0 -1.82031,-0.80636 -1.82031,-1.81836 v -11.1875 c 0,-0.252 0.029,-0.55839 -0.20899,-0.90039 -0.236,-0.341 -0.67745,-0.48047 -1.06445,-0.48047 h -11.29496 c -1.012,0 -1.81836,-0.80931 -1.81836,-1.82031 V 205.5817 c 0,-1.012 0.80636,-1.81836 1.81836,-1.81836 h 11.29297 c 0.297,0 0.6564,-0.0605 0.9414,-0.35547 0.285,-0.295 0.33594,-0.6629 0.33594,-1.0039 v -11.20899 c 10e-4,-1.012 0.80836,-1.81936 1.81836,-1.81836 z m 1.42187,0.0859 c -1.735,0 -3.1582,1.4232 -3.1582,3.1582 v 11.20899 c 0,0.038 0.002,-5.2e-4 0,0.0215 h -11.23047 c -1.734,0 -3.15625,1.42421 -3.15625,3.1582 v 9.22266 c 0,1.734 1.42225,3.1582 3.15625,3.1582 h 11.23047 c 0.004,0.031 0,-0.013 0,0.041 v 11.18945 c 0,1.734 1.4232,3.15625 3.1582,3.15625 h 9.24219 c 1.734,0 3.13867,-1.42225 3.13867,-3.15625 v -11.1894 c 0,-0.077 -0.004,-0.017 0,-0.041 h 11.22852 c 1.735,0 3.16015,-1.4242 3.16016,-3.1582 v -9.22266 c 0,-1.735 -1.42516,-3.1582 -3.16016,-3.1582 h -11.20899 c -0.033,0 4.7e-4,0.003 -0.0195,0 v -11.23047 c 0,-1.735 -1.40367,-3.1582 -3.13867,-3.1582 z m 127.031255,0.0195 c -6.818,0 -12.35937,5.54138 -12.35937,12.35938 0,6.819 5.54137,12.35937 12.35937,12.35937 6.818,0 12.35938,-5.54037 12.35938,-12.35937 0,-6.818 -5.54138,-12.35938 -12.35938,-12.35938 z m -127.031255,1.31836 h 9.24219 c 1.011,0 1.80078,0.80831 1.80078,1.82031 v 11.27149 c 0,0.39 0.16052,0.81292 0.47852,1.04492 0.319,0.232 0.6359,0.25195 0.8789,0.25195 h 11.20899 c 1.012,0 1.82031,0.80932 1.82031,1.82031 v 9.22266 c 0,1.011 -0.80931,1.81836 -1.82031,1.81836 h -11.22856 c -0.354,0 -0.77392,0.0735 -1.04492,0.39648 -0.271,0.32301 -0.29297,0.67938 -0.29297,0.98438 v 11.18758 c 0,1.011 -0.78978,1.81836 -1.80078,1.81836 h -9.24219 c -1.011,0 -1.82031,-0.80836 -1.82031,-1.81836 v -11.1875 c 0,-0.252 0.029,-0.55939 -0.20898,-0.90039 -0.238,-0.342 -0.69894,-0.48047 -1.08594,-0.48047 h -11.27344 c -1.012,0 -1.81836,-0.80736 -1.81836,-1.81836 v -9.22266 c 0,-1.012 0.80736,-1.82031 1.81836,-1.82031 h 11.27344 c 0.297,0 0.67494,-0.0585 0.96094,-0.35351 0.285,-0.297 0.33398,-0.66386 0.33398,-1.00586 v -11.20899 c 0,-1.013 0.80931,-1.82031 1.82031,-1.82031 z m 127.031255,0.87695 c 5.62,0 10.16407,4.54502 10.16407,10.16602 0,5.62 -4.54407,10.16406 -10.16407,10.16406 -5.621,0 -10.16601,-4.54406 -10.16601,-10.16406 0,-5.621 4.54501,-10.16602 10.16601,-10.16602 z m -30.49023,11.77149 c -6.817,0 -12.35938,5.54237 -12.35938,12.35937 0,6.818 5.54238,12.36133 12.35938,12.36133 6.818,0 12.35937,-5.54333 12.35937,-12.36133 0,-6.817 -5.54137,-12.35937 -12.35937,-12.35937 z m -91.917975,1.69336 c -3.565,0 -6.48437,2.89689 -6.48437,6.46289 0,3.566 2.91937,6.48242 6.48437,6.48242 3.565,0 6.46289,-2.91742 6.46289,-6.48242 0,-3.565 -2.89789,-6.46289 -6.46289,-6.46289 z m 91.917975,0.50195 c 5.621,0 10.16406,4.54306 10.16406,10.16406 0,5.62 -4.54206,10.16407 -10.16406,10.16407 -5.62,0 -10.16406,-4.54307 -10.16406,-10.16407 0,-5.621 4.54306,-10.16406 10.16406,-10.16406 z m -91.917975,0.83594 c 2.842,0 5.12305,2.283 5.12305,5.125 0,2.843 -2.28105,5.14453 -5.12305,5.14453 -2.842,0 -5.14648,-2.30153 -5.14648,-5.14453 0,-2.841 2.30448,-5.125 5.14648,-5.125 z m 36.51758,40.05469 c -0.823,0.017 -1.64927,0.18892 -2.44727,0.54492 l -15.03711,6.71289 c -3.188,1.425 -4.62322,5.17628 -3.19921,8.36328 1.425,3.188 5.19771,4.62522 8.38671,3.19922 l 15.01563,-6.71094 c 3.188,-1.426 4.62422,-5.17919 3.19922,-8.36719 -1.069,-2.391 -3.44897,-3.79018 -5.91797,-3.74218 z m 31.789065,0 c -0.823,0.017 -1.64926,0.18892 -2.44726,0.54492 l -15.037115,6.71289 c -3.188,1.425 -4.62322,5.17628 -3.19922,8.36328 1.425,3.188 5.17723,4.62522 8.36523,3.19922 l 15.037115,-6.71094 c 3.188,-1.426 4.62322,-5.17919 3.19922,-8.36719 -1.069,-2.391 -3.44997,-3.79018 -5.91797,-3.74218 z m -31.750005,1.33007 0.002,0.01 c 1.948,-0.041 3.81807,1.05227 4.66407,2.94726 1.13,2.527 -0.003,5.48038 -2.53125,6.60938 l -15.01758,6.70508 c -2.529,1.13 -5.48038,-0.005 -6.60938,-2.53125 -1.129,-2.528 0.004,-5.47842 2.53125,-6.60742 l 15.01563,-6.71289 c 0.633,-0.282 1.29731,-0.40593 1.94531,-0.41993 z m 31.769535,0 0.002,0.01 c 1.947,-0.041 3.81511,1.05227 4.6621,2.94726 1.13,2.527 0.0192,5.48038 -2.50976,6.60938 l -15.037115,6.70508 c -2.526,1.13 -5.45889,-0.005 -6.58789,-2.53125 -1.13,-2.528 -0.0202,-5.47842 2.50976,-6.60742 l 15.037115,-6.71289 c 0.633,-0.282 1.27383,-0.40593 1.92383,-0.41993 z m -31.708985,1.11133 c -0.468,0.021 -0.93286,0.12294 -1.38086,0.33594 l -15.3086,7.30078 c -1.78699,0.852 -2.54635,3.0225 -1.69335,4.8125 0.853,1.785 3.00206,2.54341 4.78906,1.69141 l 15.30859,-7.29883 c 1.786,-0.852 2.5668,-3.00106 1.7168,-4.78906 -0.64,-1.34 -2.02964,-2.10883 -3.43164,-2.04883 z m 31.789065,0 c -0.468,0.021 -0.93291,0.12294 -1.37891,0.33594 l -15.310545,7.29883 c -1.786,0.853 -2.54636,3.02154 -1.69336,4.81054 0.852,1.785 3.00306,2.54436 4.78906,1.69336 l 15.310555,-7.29882 c 1.787,-0.854 2.54436,-3.00207 1.69336,-4.78907 -0.639,-1.34 -2.00916,-2.10978 -3.41016,-2.05078 z m 55.74024,1.12305 c -0.13249,-0.006 -0.26723,-0.003 -0.4004,0.01 -0.361,0.036 -0.7294,0.14899 -1.0664,0.33399 -1.349,0.74 -1.84942,2.45764 -1.10742,3.80664 l 12.67578,23.10937 c 0.738,1.349 2.45469,1.84843 3.80468,1.10743 1.349,-0.738 1.84943,-2.45664 1.10743,-3.80664 l -12.68164,-23.10743 c -0.48475,-0.88725 -1.38657,-1.4093 -2.33203,-1.45312 z m -87.464855,0.2168 c 0.88,-0.041 1.7493,0.42639 2.1543,1.27539 0.54,1.135 0.0666,2.47072 -1.06641,3.01172 l -15.30859,7.29882 c -1.135,0.541 -2.47167,0.0666 -3.01367,-1.0664 -0.541,-1.135 -0.0676,-2.47072 1.0664,-3.01172 l 15.3086,-7.29883 c 0.283,-0.135 0.56637,-0.19498 0.85937,-0.20898 z m 31.789065,0 c 0.88,-0.041 1.7493,0.42639 2.1543,1.27539 0.54,1.134 0.0666,2.47072 -1.06641,3.01172 l -15.310545,7.29882 c -1.134,0.541 -2.47172,0.0666 -3.01172,-1.0664 -0.542,-1.135 -0.0676,-2.47072 1.0664,-3.01172 l 15.308605,-7.29883 c 0.283,-0.135 0.56637,-0.19498 0.85937,-0.20898 z m 55.69922,1.12695 c 0.0928,0.008 0.18394,0.0267 0.27344,0.0527 l -0.008,-0.008 c 0.359,0.104 0.6839,0.35489 0.8789,0.71289 l 12.67578,23.11524 c 0.393,0.714 0.12807,1.59432 -0.58593,1.98632 -0.716,0.392 -1.59633,0.12907 -1.98633,-0.58593 L 164.12483,253.6068 c -0.393,-0.713 -0.13002,-1.59337 0.58399,-1.98437 0.2685,-0.14775 0.55759,-0.20505 0.83593,-0.17969 z m -9.13867,3.6543 c -0.13488,-0.006 -0.27075,-0.004 -0.40625,0.01 -0.356,0.035 -0.71392,0.15594 -1.04492,0.33594 -0.006,0.003 -0.0165,-0.004 -0.0215,0 v 0.0215 c -1.329,0.746 -1.84537,2.42267 -1.10937,3.76368 l 12.69531,23.13085 c 0.739,1.35 2.45664,1.84843 3.80664,1.10743 1.348,-0.74 1.84938,-2.45664 1.10938,-3.80664 l -12.69727,-23.10743 c -0.4865,-0.8855 -1.38788,-1.41023 -2.33203,-1.45507 z m 0.0254,1.3457 c 0.0948,0.008 0.18785,0.0267 0.27735,0.0527 l 0.002,-0.008 c 0.357,0.104 0.66142,0.33245 0.85742,0.68945 l 12.67383,23.13086 c 0.393,0.715 0.14955,1.59528 -0.56446,1.98828 -0.71499,0.391 -1.59532,0.12807 -1.98632,-0.58593 L 155.01571,258.6068 c -0.393,-0.715 -0.14955,-1.59533 0.56445,-1.98633 0.267,-0.14625 0.56712,-0.2029 0.85156,-0.17773 z m -9.12695,3.64648 c -0.13504,-0.006 -0.27245,-0.002 -0.4082,0.0117 l 0.008,0.006 c -0.361,0.036 -0.72941,0.1285 -1.06641,0.3125 -1.349,0.74 -1.84842,2.45864 -1.10742,3.80664 l 12.67383,23.13086 c 0.739,1.348 2.45764,1.85038 3.80664,1.10938 1.351,-0.739 1.84937,-2.4586 1.10937,-3.8086 l -12.68359,-23.11328 c -0.4865,-0.88637 -1.38673,-1.41108 -2.33203,-1.45508 z m 0.0215,1.34571 c 0.0909,0.008 0.18178,0.0276 0.26953,0.0527 0.357,0.104 0.68291,0.33345 0.87891,0.68945 l 12.67383,23.13086 c 0.393,0.715 0.12806,1.59533 -0.58594,1.98633 -0.715,0.392 -1.59533,0.12906 -1.98633,-0.58594 l -12.66992,-23.1289 c -0.392,-0.714 -0.12706,-1.5748 0.58594,-1.9668 0.2685,-0.147 0.55564,-0.20286 0.83398,-0.17773 z m -9.13086,3.66015 c -0.13516,-0.006 -0.27037,-0.004 -0.40625,0.01 -0.361,0.036 -0.7294,0.12945 -1.0664,0.31445 -1.349,0.738 -1.84843,2.45664 -1.10743,3.80664 l 12.69336,23.13086 c 0.737,1.343 2.43916,1.83542 3.78516,1.10742 0.01,-0.004 0.0135,-0.0165 0.0215,-0.0215 1.33,-0.747 1.84443,-2.44416 1.10743,-3.78516 l -12.69345,-23.13099 c -0.48475,-0.88375 -1.38785,-1.39084 -2.33399,-1.43164 z m 0.0117,1.31836 c 0.0926,0.009 0.18249,0.0267 0.27149,0.0527 0.358,0.104 0.6829,0.35393 0.8789,0.71093 l 12.67383,23.13086 c 0.393,0.715 0.15055,1.59633 -0.56445,1.98633 -0.713,0.393 -1.59633,0.12706 -1.98633,-0.58594 l -12.67383,-23.13086 c -0.393,-0.714 -0.14855,-1.59632 0.56445,-1.98632 0.2685,-0.1485 0.55816,-0.20333 0.83594,-0.17774 z m -9.11328,3.66211 c -0.1351,-0.006 -0.2705,-0.004 -0.40625,0.01 -0.361,0.036 -0.72941,0.14993 -1.06641,0.33593 -1.35,0.738 -1.84942,2.45569 -1.10742,3.80469 l 12.67383,23.10938 c 0.74,1.35 2.45764,1.87086 3.80664,1.13086 1.35,-0.739 1.84842,-2.45764 1.10742,-3.80664 l -12.67383,-23.13086 c -0.48562,-0.8855 -1.38831,-1.40895 -2.33398,-1.45313 z m 0.0117,1.33789 c 0.0929,0.008 0.18369,0.0265 0.27344,0.0527 0.356,0.104 0.68195,0.35393 0.87695,0.71093 l 12.67383,23.13086 c 0.393,0.714 0.13001,1.5748 -0.58399,1.9668 -0.715,0.392 -1.59728,0.14955 -1.98828,-0.56445 l -12.67187,-23.13086 c -0.393,-0.713 -0.13002,-1.59633 0.58398,-1.98633 0.26775,-0.1485 0.55722,-0.20514 0.83594,-0.17969 z m -9.13477,3.6543 c -0.13516,-0.006 -0.27037,-0.002 -0.40625,0.0117 -0.35942,0.0369 -0.72306,0.14934 -1.05859,0.33398 -1.349,0.738 -1.84942,2.45569 -1.10742,3.80469 l 12.69531,23.11133 c 0.739,1.349 2.43616,1.84647 3.78516,1.10547 1.349,-0.739 1.84942,-2.43716 1.10742,-3.78516 L 122.3047,276.52106 c -0.48475,-0.88637 -1.38785,-1.40932 -2.33399,-1.45312 z m 0.0195,1.3457 c 0.0927,0.008 0.18444,0.025 0.27344,0.0508 v -0.006 c 0.356,0.104 0.68296,0.35394 0.87696,0.71094 l 12.67578,23.11524 c 0.393,0.715 0.1495,1.59532 -0.5625,1.98632 -0.715,0.393 -1.59533,0.14955 -1.98633,-0.56445 l -12.67383,-23.13086 c -0.393,-0.713 -0.1515,-1.59437 0.5625,-1.98437 0.267,-0.147 0.55602,-0.20272 0.83398,-0.17774 z m -31.101565,26.75196 c -0.232,0 -0.47845,0.0779 -0.68945,0.25195 -0.213,0.175 -0.35547,0.46995 -0.35547,0.75195 v 4.0586 c 0,0.26299 -0.0425,0.47792 0.0625,0.79492 0.053,0.159 0.18595,0.35447 0.37695,0.48047 0.19,0.127 0.39846,0.16796 0.56446,0.16796 h 1.21289 c 0.183,0 0.44042,-0.0735 0.60742,-0.23046 0.167,-0.156 0.216,-0.34347 0.25,-0.48047 0.069,-0.274 0.0625,-0.47842 0.0625,-0.73242 v -4.05665 c 0,-0.183 -0.0325,-0.44192 -0.22852,-0.66992 -0.198,-0.228 -0.51343,-0.33398 -0.77343,-0.33398 h -1.08985 z m 4.12305,0 c -0.572,0 -1.02539,0.4389 -1.02539,1.0039 v 4.0586 c 0,0.295 -0.008,0.51592 0.084,0.79492 0.046,0.139 0.12697,0.3035 0.29297,0.4375 0.167,0.137 0.39746,0.21093 0.56445,0.21093 h 1.3379 c 0.214,0 0.47342,-0.12996 0.60742,-0.29296 0.136,-0.164 0.18298,-0.31746 0.20898,-0.43946 0.052,-0.244 0.041,-0.44894 0.041,-0.71093 v -4.0586 c 0,-0.24 -0.0865,-0.49545 -0.27149,-0.68945 -0.184,-0.195 -0.45193,-0.3125 -0.71093,-0.3125 z m -3.83008,1.33984 h 0.46094 v 3.72266 c -0.001,0.065 0.002,0.0515 0,0.10351 h -0.46094 c -0.004,-0.056 0,-0.0305 0,-0.10351 z m 4.14258,0 h 0.45898 v 3.72266 c 0,0.057 0.002,0.0565 0,0.10351 h -0.45898 c -0.003,-0.053 0,-0.0345 0,-0.10351 z"
   style="fill:#ffffff" /></svg>
