<?xml version="1.0" encoding="UTF-8" standalone="no"?>
<!-- Generator: Adobe Illustrator 13.0.0, SVG Export Plug-In . SVG Version: 6.00 Build 14948)  -->

<svg
   version="1.2"
   id="svg2"
   sodipodi:version="0.32"
   inkscape:version="1.1.2 (0a00cf5339, 2022-02-04)"
   sodipodi:docname="system_color.svg"
   x="0px"
   y="0px"
   width="578.25171"
   height="106.56158"
   viewBox="0 0 578.25169 106.56159"
   xml:space="preserve"
   xmlns:inkscape="http://www.inkscape.org/namespaces/inkscape"
   xmlns:sodipodi="http://sodipodi.sourceforge.net/DTD/sodipodi-0.dtd"
   xmlns="http://www.w3.org/2000/svg"
   xmlns:svg="http://www.w3.org/2000/svg"><defs
   id="defs48">
	<linearGradient
   id="linearGradient869"
   gradientUnits="userSpaceOnUse"
   x1="527.771"
   y1="-0.71289998"
   x2="527.771"
   y2="98.787102">
		<stop
   offset="0.0051"
   style="stop-color:#2E5C92"
   id="stop865" />
		<stop
   offset="1"
   style="stop-color:#2E3192"
   id="stop867" />
	</linearGradient>
	
	<linearGradient
   id="linearGradient877"
   gradientUnits="userSpaceOnUse"
   x1="290.73779"
   y1="-0.71289998"
   x2="290.73779"
   y2="98.787102">
		<stop
   offset="0.0051"
   style="stop-color:#2E5C92"
   id="stop873" />
		<stop
   offset="1"
   style="stop-color:#2E3192"
   id="stop875" />
	</linearGradient>
	
	<linearGradient
   id="linearGradient885"
   gradientUnits="userSpaceOnUse"
   x1="127.5713"
   y1="-0.71289998"
   x2="127.5713"
   y2="98.787102">
		<stop
   offset="0.0051"
   style="stop-color:#2E5C92"
   id="stop881" />
		<stop
   offset="1"
   style="stop-color:#2E3192"
   id="stop883" />
	</linearGradient>
	
	<linearGradient
   id="linearGradient893"
   gradientUnits="userSpaceOnUse"
   x1="458.99371"
   y1="-0.71289998"
   x2="458.99371"
   y2="98.787102">
		<stop
   offset="0.0051"
   style="stop-color:#2E5C92"
   id="stop889" />
		<stop
   offset="1"
   style="stop-color:#2E3192"
   id="stop891" />
	</linearGradient>
	
	<linearGradient
   id="linearGradient901"
   gradientUnits="userSpaceOnUse"
   x1="378.92139"
   y1="-0.71289998"
   x2="378.92139"
   y2="98.787102">
		<stop
   offset="0.0051"
   style="stop-color:#2E5C92"
   id="stop897" />
		<stop
   offset="1"
   style="stop-color:#2E3192"
   id="stop899" />
	</linearGradient>
	
	<linearGradient
   id="linearGradient909"
   gradientUnits="userSpaceOnUse"
   x1="538.59808"
   y1="-0.71289998"
   x2="538.59808"
   y2="98.787102">
		<stop
   offset="0.0051"
   style="stop-color:#2E5C92"
   id="stop905" />
		<stop
   offset="1"
   style="stop-color:#2E3192"
   id="stop907" />
	</linearGradient>
	
	<linearGradient
   id="linearGradient917"
   gradientUnits="userSpaceOnUse"
   x1="539.14398"
   y1="-0.71289998"
   x2="539.14398"
   y2="98.787102">
		<stop
   offset="0.0051"
   style="stop-color:#2E5C92"
   id="stop913" />
		<stop
   offset="1"
   style="stop-color:#2E3192"
   id="stop915" />
	</linearGradient>
	

	<linearGradient
   id="_43443024_1_"
   gradientUnits="userSpaceOnUse"
   x1="527.771"
   y1="-0.71289998"
   x2="527.771"
   y2="98.787102">
		<stop
   offset="0.0051"
   style="stop-color:#2E5C92"
   id="stop3" />
		<stop
   offset="1"
   style="stop-color:#2E3192"
   id="stop5" />
	</linearGradient>
	
	<linearGradient
   id="_43441624_1_"
   gradientUnits="userSpaceOnUse"
   x1="290.73779"
   y1="-0.71289998"
   x2="290.73779"
   y2="98.787102">
		<stop
   offset="0.0051"
   style="stop-color:#2E5C92"
   id="stop9" />
		<stop
   offset="1"
   style="stop-color:#2E3192"
   id="stop11" />
	</linearGradient>
	
	<linearGradient
   id="_43775888_1_"
   gradientUnits="userSpaceOnUse"
   x1="127.5713"
   y1="-0.71289998"
   x2="127.5713"
   y2="98.787102"
   gradientTransform="translate(4.0017117,3.9966912)">
		<stop
   offset="0.0051"
   style="stop-color:#2E5C92"
   id="stop15" />
		<stop
   offset="1"
   style="stop-color:#2E3192"
   id="stop17" />
	</linearGradient>
	
	<linearGradient
   id="_44102912_1_"
   gradientUnits="userSpaceOnUse"
   x1="458.99371"
   y1="-0.71289998"
   x2="458.99371"
   y2="98.787102"
   gradientTransform="translate(4.0017117,3.9966912)">
		<stop
   offset="0.0051"
   style="stop-color:#2E5C92"
   id="stop21" />
		<stop
   offset="1"
   style="stop-color:#2E3192"
   id="stop23" />
	</linearGradient>
	
	<linearGradient
   id="_44104296_1_"
   gradientUnits="userSpaceOnUse"
   x1="378.92139"
   y1="-0.71289998"
   x2="378.92139"
   y2="98.787102"
   gradientTransform="translate(4.0017117,3.9966912)">
		<stop
   offset="0.0051"
   style="stop-color:#2E5C92"
   id="stop27" />
		<stop
   offset="1"
   style="stop-color:#2E3192"
   id="stop29" />
	</linearGradient>
	
	<linearGradient
   id="_44106160_1_"
   gradientUnits="userSpaceOnUse"
   x1="538.59808"
   y1="-0.71289998"
   x2="538.59808"
   y2="98.787102">
		<stop
   offset="0.0051"
   style="stop-color:#2E5C92"
   id="stop33" />
		<stop
   offset="1"
   style="stop-color:#2E3192"
   id="stop35" />
	</linearGradient>
	
	<linearGradient
   id="_42975192_1_"
   gradientUnits="userSpaceOnUse"
   x1="539.14398"
   y1="-0.71289998"
   x2="539.14398"
   y2="98.787102">
		<stop
   offset="0.0051"
   style="stop-color:#2E5C92"
   id="stop39" />
		<stop
   offset="1"
   style="stop-color:#2E3192"
   id="stop41" />
	</linearGradient>
	
</defs>
<sodipodi:namedview
   height="200px"
   width="1000px"
   id="base"
   bordercolor="#666666"
   guidetolerance="10.0"
   inkscape:cx="259.15463"
   objecttolerance="10.0"
   inkscape:zoom="1.4142136"
   inkscape:cy="21.566756"
   gridtolerance="10.0"
   pagecolor="#ffffff"
   borderopacity="1.0"
   inkscape:window-x="0"
   inkscape:pageshadow="2"
   inkscape:current-layer="svg2"
   inkscape:window-width="1920"
   inkscape:window-y="0"
   inkscape:pageopacity="0.0"
   inkscape:window-height="996"
   inkscape:pagecheckerboard="0"
   showgrid="false"
   fit-margin-top="0"
   fit-margin-left="0"
   fit-margin-right="0"
   fit-margin-bottom="0"
   inkscape:window-maximized="1">
	</sodipodi:namedview>
<path
   id="polygon871"
   style="fill:#000000"
   d="m 466.34155,0.00645683 c -11.1512,0.1713419 -22.08188,5.00277667 -29.87894,12.94730317 -4.74761,4.74891 -8.43963,10.478953 -11.20309,16.58004 0.28646,-7.88812 -3.3744,-15.62589 -9.13809,-20.9164994 -4.33526,-4.0657147 -9.88576,-7.0943052 -15.87218,-7.62666827 -3.35774,-0.1798304 -6.7229,-0.014388 -10.08387,-0.074019 -11.90742,0 -23.81484,0 -35.72226,0 C 349.62574,35.622659 344.80417,70.328124 339.98413,105.0338 c 16.21969,-0.0137 32.44039,0.0363 48.65945,-0.0336 8.76007,-0.2498 17.57093,-3.42013 23.98471,-9.493057 4.01049,-3.7391 7.07326,-8.464964 8.94764,-13.612024 2.86617,6.661245 7.68863,12.473861 13.78701,16.414434 7.78955,5.093867 17.27464,7.503967 26.55125,6.923037 12.70258,-0.81421 24.88206,-7.20614 32.90006,-17.071228 7.02086,-8.507212 10.95096,-19.225273 12.41428,-30.076515 0.48419,-3.397218 0.78161,-6.822737 0.8513,-10.254182 0.88803,1.91862 1.77605,3.83724 2.66407,5.75586 -2.32766,17.150454 -4.65919,34.300384 -6.98438,51.451175 10.10873,0 20.21745,0 30.32617,0 1.99495,-14.906145 3.98815,-29.812521 5.98243,-44.718753 12.72774,-19.802161 25.45649,-39.603677 38.18359,-59.40624997 -11.36849,0 -22.73698,0 -34.10547,0 -4.97422,7.63111127 -9.94928,15.26167797 -14.92383,22.89257797 -3.31842,-7.63083 -6.63629,-15.2619057 -9.95508,-22.89257797 -10.9694,0 -21.9388,0 -32.9082,0 0.75456,1.63020707 1.50912,3.26041427 2.26367,4.89062497 -6.65907,-4.062444 -14.51358,-5.92795347 -22.28125,-5.79687497 z M 69.718509,0.32481623 C 55.526815,0.59526233 41.195627,3.871482 28.8839,11.094407 19.373041,16.689271 11.347267,24.935607 6.4908446,34.884082 2.4353571,43.090872 0.31017808,52.208619 0.00731558,61.342784 -0.15673102,70.272969 2.4385272,79.315176 7.7592025,86.536281 14.346936,95.632687 24.407623,101.84643 35.159396,104.77859 c 4.785368,1.32456 9.762496,1.8412 14.7195,1.77784 6.697729,0.0529 13.353707,-1.18881 19.736097,-3.16325 -0.09562,0.50737 -0.569832,1.28792 -0.442969,1.63476 10.245964,0 20.491928,0 30.737891,0 3.658905,-9.492565 7.316295,-18.98572 10.974605,-28.478515 4.63151,0 9.26302,0 13.89453,0 1.18737,9.492855 2.37585,18.985572 3.5625,28.478515 14.3099,0 28.6198,0 42.92969,0 4.22227,-13.04135 8.44678,-26.081976 12.66992,-39.123046 2.07468,13.041047 4.15095,26.081839 6.22461,39.123046 8.47982,0 16.95964,0 25.43946,0 5.26385,-13.601093 10.52872,-27.201792 15.79296,-40.802733 0.87835,13.600905 1.75595,27.201859 2.63477,40.802733 28.41667,0.003 56.83333,0.007 85.25,0.01 1.35713,-9.790679 2.71834,-19.58079 4.07813,-29.371097 -11.29232,0 -22.58464,0 -33.87696,0 0.35873,-2.867839 0.71745,-5.735677 1.07617,-8.603516 9.77149,0 19.54297,0 29.31446,0 1.36202,-9.787013 2.72266,-19.574217 4.08398,-29.361328 -9.69661,0 -19.39323,0 -29.08984,0 0.33333,-2.476562 0.66666,-4.953125 1,-7.429687 11.24935,0 22.4987,0 33.74804,0 1.49652,-9.786395 2.99301,-19.572791 4.48829,-29.35937517 -21.403,0 -42.80599,0 -64.20899,0 C 266.91558,22.395692 263.9297,43.877725 260.94702,65.360202 259.62169,43.876467 258.29481,22.392826 256.97046,0.90903063 c -10.66862,0 -21.33724,0 -32.00586,0 C 219.82287,14.041382 214.67649,27.171914 209.53296,40.303562 207.5364,27.172023 205.53832,14.040715 203.54273,0.90903063 c -9.72396,0 -19.44792,0 -29.17188,0 C 167.22772,22.506283 160.08297,44.103 152.93921,65.700046 150.26043,44.103009 147.57959,22.506228 144.9021,0.90903063 c -11.57682,0 -23.15365,0 -34.73047,0 C 103.24576,18.332582 96.31304,35.753646 89.384524,53.176379 c 0.159797,-1.205213 0.321272,-2.410202 0.482422,-3.615235 -15.53776,0 -31.07552,0 -46.613281,0 -1.210458,8.600887 -2.420315,17.201859 -3.630859,25.802735 -4.291372,-1.695698 -7.894539,-5.294768 -9.137038,-9.791952 -1.774878,-6.159474 -0.71311,-12.98062 2.592608,-18.442551 4.366441,-7.36162 11.70186,-12.600732 19.642086,-15.533076 8.04321,-2.967966 16.84922,-3.629047 25.298828,-2.326171 0.633697,0.102777 1.582854,0.261899 2.33238,0.4105 3.174286,0.63054 6.323579,1.473125 9.359026,2.571921 1.406647,0.354251 2.801408,-0.843841 2.867975,-2.249605 0.898946,-6.11373 1.93698,-12.211958 2.889618,-18.319706 C 95.847253,9.3105069 96.224181,6.9374494 96.605228,4.5650506 91.010376,2.4779352 85.135516,1.1667788 79.184617,0.67473693 76.039569,0.36882123 72.876946,0.29520723 69.718509,0.32481623 Z M 466.1189,28.494738 c 4.43955,-0.05198 8.82099,2.584592 10.68898,6.642232 2.236,4.475361 2.4186,9.642431 2.0817,14.541876 -0.49148,6.548357 -1.89107,13.231841 -5.43854,18.850068 -2.72687,4.276966 -7.17727,7.649858 -12.29646,8.283616 -4.0216,0.541747 -8.39004,-1.080262 -10.70365,-4.499433 -2.04272,-3.008156 -2.62374,-6.745701 -2.75422,-10.309702 -0.0754,-5.435933 0.78935,-10.869525 2.28503,-16.087642 1.612,-5.328908 4.18598,-10.603897 8.4952,-14.266252 2.1339,-1.77226 4.80448,-3.190966 7.64196,-3.154763 z m -74.73633,1.78125 c 1.5834,-0.01497 3.07863,1.402963 3.16211,2.966797 -0.35054,2.121982 -2.18703,3.769965 -4.2721,4.131109 -2.80697,0.614163 -5.69961,0.203023 -8.54509,0.327875 -0.77252,0 -1.54505,0 -2.31758,0 0.33334,-2.47526 0.66667,-4.950521 1,-7.425781 3.65756,0 7.31511,0 10.97266,0 z M 419.23023,49.1588 c -0.16566,0.936666 -0.33188,1.873308 -0.47071,2.814453 -0.3984,-0.56824 -0.82492,-1.116351 -1.26562,-1.652343 0.67626,-0.572505 1.29953,-1.205572 1.875,-1.878907 -0.0462,0.238933 -0.0924,0.477865 -0.13867,0.716797 z m -28.44141,17.904297 c 1.56409,-0.01553 3.02083,1.358085 3.16247,2.891797 -0.4379,2.732507 -2.64697,5.168066 -5.44958,5.524219 -2.60544,0.405979 -5.2517,0.08953 -7.875,0.195312 -2.17253,0 -4.34505,0 -6.51758,0 0.41016,-2.870442 0.82031,-5.740885 1.23047,-8.611328 5.14974,0 10.29948,0 15.44922,0 z M 54.679446,76.547472 c -2.685556,0.456212 -5.428958,0.650143 -8.150383,0.53796 -1.13124,-0.09261 -2.257864,-0.261892 -3.359382,-0.53796 3.836588,0 7.673177,0 11.509765,0 z" /><polygon
   id="_43443024"
   fill="url(#_43443024_1_)"
   points="566.927,0.917 532.22,54.913 526.585,97.041 504.337,97.041 510.863,48.973 488.615,0.917 512.644,0.917 524.513,28.215 542.312,0.917 "
   style="fill:#ffffff"
   transform="translate(4.0017117,3.9966912)" /><polygon
   id="_43441624"
   fill="url(#_43441624_1_)"
   points="312.392,59.066 315.363,37.706 286.291,37.706 288.369,22.276 322.181,22.276 325.447,0.917 269.379,0.917 256.029,97.041 311.798,97.041 314.765,75.671 280.951,75.671 283.027,59.066 "
   style="fill:#ffffff"
   transform="translate(4.0017117,3.9966912)" /><path
   id="_43775888"
   fill="url(#_43775888_1_)"
   d="m 116.14771,53.561691 7.416,-19.874 2.375,19.874 z m -8.009,18.987 h 20.172 l 3.563,28.479999 h 36.488 l 16.91,-52.212999 8.309,52.212999 h 19.283 l 21.359,-55.178999 3.561,55.178999 h 21.359 l -5.934,-96.1189988 h -25.514 l -19.875,50.7279998 -7.715,-50.7279998 h -22.842 l -26.105,78.9119998 -9.791,-78.9119998 h -28.48 l -31.743998,79.7999998 4.154,-31.149 h -38.566 l -2.672,18.987 h 16.912 l -1.188,6.526 c -2.967,1.778 -9.789,2.075 -12.459,2.075 -2.67,0 -22.545,-1.778 -21.656,-23.139 0.889,-21.359 29.369,-41.235 63.188,-30.259 l 3.266,-20.4699998 c -22.548,-7.71099997 -81.766,-3.395 -87.8150003,49.5439998 -3.55900002,31.148 24.9210003,45.981999 43.9060003,45.687999 10.977,0.594 23.438,-3.560999 27.887,-5.934999 l -1.482,4.450999 h 22.547 z"
   style="fill:#ffffff" /><path
   id="_44102912"
   fill="url(#_44102912_1_)"
   d="m 468.58371,4.0246912 c -15.428,-0.594 -37.678,8.3059998 -45.094,44.2039998 -7.416,35.894 12.459,50.431 30.852,52.803999 18.396,2.373 44.205,-9.195999 48.951,-43.608999 4.748,-34.414 -12.166,-52.5079998 -34.709,-53.3989998 z m -2.374,20.4699998 c 6.229,0 19.578,4.154 16.314,29.071 -3.264,24.92 -18.689,27.887 -24.326,27.292 -5.639,-0.594 -17.207,-4.447 -13.943,-27.292 3.262,-22.841 15.424,-29.368 21.955,-29.071 z"
   style="fill:#ffffff" /><path
   id="_44104296"
   fill="url(#_44104296_1_)"
   d="m 374.83471,41.702691 h 12.461 c 9.197,0 10.977,-5.934 11.271,-8.305 0.297,-2.375 -2.371,-7.122 -7.117,-7.122 h -14.537 z m -5.339,37.971 h 16.912 c 9.193,0 11.27,-7.118 11.564,-9.493 0.299,-2.373 -2.371,-7.117 -7.117,-7.117 h -18.984 z m -24.918,21.360999 13.35,-96.1179988 h 40.938 c 9.793,0 24.031,11.2739998 22.252,26.4029998 -1.779,15.13 -6.527,16.02 -9.791,18.393 5.045,4.447 10.088,11.568 8.012,24.918 -2.078,13.353 -13.055,26.402999 -32.338,26.402999 z"
   style="fill:#ffffff" />
</svg>
