<?xml version="1.0" encoding="UTF-8" standalone="no"?>
<!-- Generator: Adobe Illustrator 15.0.0, SVG Export Plug-In . SVG Version: 6.00 Build 0)  -->

<svg
   version="1.1"
   x="0px"
   y="0px"
   width="530.03412"
   height="183.8822"
   viewBox="0 0 530.0341 183.88221"
   id="svg27"
   sodipodi:docname="system_color.svg"
   inkscape:version="1.1.2 (0a00cf5339, 2022-02-04)"
   xmlns:inkscape="http://www.inkscape.org/namespaces/inkscape"
   xmlns:sodipodi="http://sodipodi.sourceforge.net/DTD/sodipodi-0.dtd"
   xmlns="http://www.w3.org/2000/svg"
   xmlns:svg="http://www.w3.org/2000/svg"
   xmlns:rdf="http://www.w3.org/1999/02/22-rdf-syntax-ns#"
   xmlns:cc="http://creativecommons.org/ns#"
   xmlns:dc="http://purl.org/dc/elements/1.1/">
  <metadata
     id="metadata33">
    <rdf:RDF>
      <cc:Work
         rdf:about="">
        <dc:format>image/svg+xml</dc:format>
        <dc:type
           rdf:resource="http://purl.org/dc/dcmitype/StillImage" />
        <dc:title>3DO Logo</dc:title>
      </cc:Work>
    </rdf:RDF>
  </metadata>
  <defs
     id="defs31" />
  <sodipodi:namedview
     pagecolor="#ffffff"
     bordercolor="#666666"
     borderopacity="1"
     objecttolerance="10"
     gridtolerance="10"
     guidetolerance="10"
     inkscape:pageopacity="0"
     inkscape:pageshadow="2"
     inkscape:window-width="1920"
     inkscape:window-height="996"
     id="namedview29"
     showgrid="false"
     fit-margin-top="0"
     fit-margin-left="0"
     fit-margin-right="0"
     fit-margin-bottom="0"
     inkscape:zoom="0.92709555"
     inkscape:cx="219.50273"
     inkscape:cy="178.5145"
     inkscape:window-x="1920"
     inkscape:window-y="0"
     inkscape:window-maximized="1"
     inkscape:current-layer="svg27"
     inkscape:pagecheckerboard="0"
     showguides="false" />
  <title
     id="title2">3DO Logo</title>
  <radialGradient
     id="SVGID_1_"
     cx="109.1953"
     cy="155.1304"
     r="36.6576"
     gradientUnits="userSpaceOnUse">
    <stop
       offset="0.5225"
       stop-color="#FFE41B"
       id="stop14" />
    <stop
       offset="0.8933"
       stop-color="#716A13"
       id="stop16" />
    <stop
       offset="1"
       stop-color="#49482E"
       id="stop18" />
  </radialGradient>
  <path
     id="path20"
     style="fill:#000000;stroke-width:3.84167"
     d="m 438.88867,0.0234375 c -14.19204,0.2719379 -28.40422,3.6616016 -40.90234,10.4687505 -11.16526,6.051134 -21.02211,14.465967 -28.89649,24.417968 -8.09902,10.368932 -13.62359,22.692004 -16.13476,35.59961 -2.36262,11.839193 -2.534,24.068858 -0.97656,36.023434 1.90467,14.0906 6.93343,27.82471 15.08984,39.50977 7.27231,10.51902 16.70279,19.63078 27.76562,26.0957 10.1752,5.94335 21.63182,9.56172 33.31641,10.94336 10.02046,1.21281 20.229,1.07653 30.1875,-0.60547 12.56858,-2.15794 24.67884,-7.09269 35.03711,-14.55468 11.3704,-8.09641 21.00534,-18.80428 27.16602,-31.37891 5.93117,-11.88068 8.7481,-25.12165 9.36523,-38.332032 0.3928,-9.305223 -0.0922,-18.67385 -1.77734,-27.841797 -2.21085,-11.932089 -6.652,-23.553786 -13.74024,-33.457032 C 509.55026,30.083471 503.49061,24.193634 496.8457,19.134766 485.51196,10.40491 472.20693,4.1120964 458.09766,1.5410156 451.77105,0.36335601 445.32051,-0.1136938 438.88867,0.0234375 Z M 61.507812,1.1757812 C 50.070713,1.3320482 38.440283,3.1965212 28.115234,8.3164062 21.108729,11.857854 14.488495,16.666107 10.119141,23.294922 6.4751285,28.932824 4.8441546,36.051093 6.4199219,42.644531 c 1.2809647,5.093371 4.8202211,9.368871 9.1269531,12.257813 7.028327,4.850673 16.369455,6.379529 24.498047,3.628906 4.580614,-1.57693 8.830927,-4.416735 11.660156,-8.390625 2.954089,-4.310766 4.008447,-9.899707 2.810547,-14.986328 -1.292425,-5.011986 -4.94382,-9.010629 -8.984375,-12.058594 -1.277207,-0.983108 -2.817253,-1.90774 -4.058594,-2.742187 -0.175776,-0.276559 0.823706,-0.455254 1.115235,-0.666016 1.758631,-0.792129 3.598731,-1.396248 5.476562,-1.833984 0.327369,-0.07355 1.080332,-0.238656 1.583985,-0.322266 4.483237,-0.73127 9.18244,-0.81339 13.566406,0.509766 3.164694,0.945849 5.973355,3.06441 7.589844,5.964843 2.472123,4.336619 3.306499,9.365324 3.847656,14.263672 0.469776,5.199661 0.522507,10.451876 -0.01172,15.648438 -0.639455,5.78104 -2.234873,11.665908 -5.820313,16.345703 -2.719268,3.449708 -6.962836,5.208188 -11.128906,6.185547 -2.753711,0.663825 -5.778693,1.008027 -8.478515,1.173828 -1.055175,0.05809 -1.876739,0.09784 -2.949219,0.115234 -4.028175,0.0155 -8.078686,-0.259074 -12.146484,-0.384765 -2.600848,-0.07869 -5.322252,-0.340482 -7.769532,0.753906 -2.487459,0.953112 -4.360608,3.224552 -4.84375,5.841797 -0.730826,3.116787 0.340626,6.762403 3.126953,8.52539 2.525071,1.704503 5.704195,1.720099 8.628907,1.517579 5.781075,-0.202274 11.560299,-0.550802 17.34375,-0.634766 6.161858,0.141879 12.57987,1.582719 17.458984,5.539062 4.950476,3.985056 7.701129,10.058626 9.042969,16.146486 1.675368,7.56977 1.679565,15.4075 1.085937,23.10351 -0.634044,6.62753 -1.906037,13.4301 -5.492187,19.15235 -2.679795,4.46363 -7.339965,7.64157 -12.466797,8.53515 -4.709138,0.8815 -9.556445,0.47569 -14.25586,-0.25976 -3.215825,-0.5876 -6.429165,-1.36012 -9.445312,-2.64063 -0.274977,-0.22262 -1.462208,-0.50232 -1.128906,-0.76171 5.02278,-2.58733 9.846465,-5.99695 12.955078,-10.8086 4.073126,-6.08694 4.10295,-14.42549 0.52539,-20.74219 -3.318334,-5.68004 -9.34308,-9.40605 -15.667968,-10.83984 -7.333555,-1.61263 -15.364177,-0.62564 -21.808594,3.3418 -4.9886066,3.03032 -9.0368929,7.83132 -10.52539062,13.53906 -1.98362388,7.41572 -0.53428689,15.57293 3.52148442,22.04883 3.5147788,5.69432 8.5876512,10.2932 14.1542972,13.93554 8.264421,5.36671 17.982127,8.0284 27.679687,9.24219 8.828167,1.06056 17.77139,1.0496 26.621094,0.25781 12.939548,-1.2056 25.905001,-4.65863 36.935549,-11.70898 7.75766,-4.94093 14.67769,-11.55854 18.87109,-19.83008 4.00764,-7.88796 5.36572,-17.02196 4.16211,-25.76367 -0.92529,-6.80403 -3.65644,-13.32249 -7.77148,-18.8125 -4.17432,-5.60833 -9.51217,-10.337106 -15.50586,-13.923828 -6.65967,-3.925852 -14.080153,-6.405403 -21.615237,-8.013672 8.3682,-2.267145 16.619787,-5.392784 23.841797,-10.261719 6.17719,-4.182813 11.49716,-9.938873 14.19727,-16.974609 2.7764,-7.198907 3.06103,-15.335353 0.84179,-22.720703 C 124.59421,26.968629 119.75025,20.833505 113.83594,16.3125 106.68626,10.761702 98.300701,6.9321026 89.607422,4.5136719 80.475027,1.9990953 70.961305,1.0705398 61.507812,1.1757812 Z M 143.94727,2.3496094 V 18.705078 h 24.22851 V 165.17383 h -24.22851 v 16.35937 c 31.10318,-0.01 62.20753,0.028 93.31054,-0.0293 13.33208,-0.20464 26.76112,-1.18381 39.70508,-4.55469 12.10214,-3.35796 22.95356,-10.24613 32.25391,-18.56445 10.84483,-9.57458 19.78815,-21.4999 25,-35.05469 4.99832,-12.69953 6.76777,-26.548173 5.80273,-40.128908 C 339.08899,69.17359 335.02835,55.239493 327.46289,43.330078 321.03936,33.115559 312.42448,24.274424 302.36719,17.605469 291.49185,10.44524 278.96046,6.0348326 266.14258,3.9746094 c -8.02927,-1.3074059 -16.18166,-1.7175069 -24.3086,-1.625 z M 440.59766,16.351562 c 5.46198,0.03983 11.18364,0.658509 15.95312,3.533204 3.23312,1.958265 5.45323,5.18326 7.16406,8.478515 2.77504,5.424181 3.71211,11.544645 4.11133,17.560547 0.44361,6.028393 0.63344,12.118089 0.78906,18.101563 0.32551,14.036659 0.31898,28.079817 0.21289,42.119139 -0.11977,10.32085 -0.31621,20.5528 -1.03515,30.84961 -0.16441,2.1888 -0.37183,4.56746 -0.63867,6.71094 -0.37891,2.99401 -0.95333,5.97668 -1.94727,8.83203 -1.98221,5.58981 -1.36989,4.72519 -4.92383,8.24805 -4.33007,4.26481 -10.44116,6.16702 -16.38867,6.59375 -4.69377,0.29321 -9.48506,0.0811 -14.03125,-1.20118 -3.32835,-0.96131 -6.54357,-2.6452 -8.8418,-5.28711 -3.70642,-4.99988 -3.48576,-4.92533 -5.10156,-8.51562 -2.30289,-5.94137 -2.6074,-12.38026 -3.00976,-18.66797 -0.75329,-14.49372 -0.77112,-29.01928 -0.80469,-43.568358 0.0303,-10.540829 0.10033,-21.132407 0.48828,-31.619141 0.27892,-6.510862 0.50523,-13.039663 1.38086,-19.503906 0.0662,-0.456594 0.15384,-1.050074 0.24023,-1.527344 0.89834,-5.423486 2.8293,-10.962617 6.8711,-14.857422 5.18775,-4.866591 12.6303,-6.269335 19.51172,-6.279297 z m -217.70313,2.357422 h 19.51367 c 1.88018,0.01012 3.76021,0.07625 5.63477,0.22461 0.37604,0.04436 1.15518,0.100216 1.6875,0.166015 4.6555,0.513611 9.29423,1.639931 13.48437,3.775391 0.38045,0.181982 1.05254,0.558377 1.51563,0.876953 4.42035,3.002552 7.04436,7.915918 8.87109,12.804688 1.63903,4.403807 2.64193,9.017999 3.34375,13.65625 0.18903,1.300616 0.40029,2.831289 0.5586,4.228515 0.44879,3.80788 0.76438,7.630935 1.00976,11.457032 0.058,0.990772 0.1245,2.148712 0.17188,3.195312 0.49265,10.272902 0.53723,20.65805 0.30664,31 -0.0925,4.05 -0.2513,8.27069 -0.49414,12.3418 -0.19175,3.32905 -0.45888,6.6931 -0.76758,9.92773 -0.90876,8.75323 -2.12648,17.56568 -5.04297,25.90625 -1.10175,3.20682 -2.94033,6.1799 -5.52344,8.40235 -4.79846,4.17806 -11.06736,6.1282 -17.2207,7.24804 -8.92053,1.63888 -18.02798,1.18565 -27.04883,1.25391 z"
     sodipodi:nodetypes="ccccccccccccccccccccccccccccccccccccccccccccccccccccccccccccccccccccccccccccccccccccccccccccccccccccccccccccccccccccccccccccccccc" />
  <path
     inkscape:connector-curvature="0"
     id="path8"
     d="m 61.548849,84.822331 v 0.510942 c 23.103779,0.430266 40.164621,5.024899 51.174831,13.783897 11.01406,8.75516 16.52301,19.34279 16.52301,31.75521 0,13.86073 -6.25808,25.30506 -18.80496,34.30992 -12.519988,9.02792 -29.204343,13.53803 -49.999281,13.53803 -17.971314,0 -31.858936,-3.60348 -41.693601,-10.77587 -9.8308234,-7.17239 -14.7481559,-15.33977 -14.7481559,-24.52904 0,-6.09672 2.2012746,-11.04095 6.6076659,-14.77889 4.406391,-3.7341 9.696365,-5.58578 15.850714,-5.58578 5.774024,0 10.745139,1.64039 14.855722,4.8866 4.137474,3.28078 6.177399,7.60266 6.177399,12.95025 0,7.1455 -4.782874,13.13466 -14.371673,17.97132 -1.878574,0.94121 -2.846674,2.01303 -2.846674,3.20011 0,2.20127 2.685324,4.13363 8.086707,5.80475 5.374491,1.66344 10.852706,2.47019 16.492272,2.47019 18.459205,0 27.698412,-13.56492 27.698412,-40.6986 0,-26.86478 -11.094732,-40.29524 -33.257303,-40.29524 l -18.405422,0.749125 c -3.707207,0 -5.589624,-1.367633 -5.589624,-4.106741 0,-3.146324 1.963092,-4.72909 5.858541,-4.72909 l 13.403573,0.510941 c 13.676331,0 22.834862,-3.034916 27.483278,-9.135482 4.671466,-6.069832 6.984149,-14.721264 6.984149,-25.950453 0,-11.55189 -1.747958,-20.068864 -5.266924,-25.497138 -3.518966,-5.455165 -9.565748,-8.16354 -18.105772,-8.16354 -4.644574,0 -9.024073,0.776017 -13.111606,2.358783 -4.083691,1.559716 -6.150507,3.092541 -6.150507,4.625366 0,1.417575 1.344583,2.900458 4.029907,4.429441 7.037933,4.487066 10.58379,9.350615 10.58379,14.586805 0,5.159358 -1.959249,9.239207 -5.912324,12.304857 -3.949232,3.034916 -8.382515,4.563899 -13.326739,4.563899 -5.693349,0 -10.772032,-1.747958 -15.232206,-5.209299 -4.460174,-3.492075 -6.7190736,-7.790899 -6.7190736,-12.977148 0,-8.80894 4.9711156,-16.438489 14.9095056,-22.861754 9.93839,-6.4501575 22.673513,-9.6694736 38.25531,-9.6694736 17.222189,0 31.72832,3.6495827 43.54528,10.9333816 11.8477,7.279957 17.76003,16.599839 17.76003,28.021112 0.0154,22.458379 -20.91403,36.027143 -62.738251,40.698609 z"
     style="fill:#ffffff;stroke-width:3.84167" />
  <path
     inkscape:connector-curvature="0"
     id="path10"
     d="M 218.8946,14.708085 V 169.17763 h 15.12464 c 23.13067,0 37.09898,-6.06983 41.90875,-18.18644 4.80976,-12.13967 7.20312,-32.88082 7.20312,-62.242676 0,-22.969321 -1.48288,-39.492327 -4.43328,-49.515233 C 275.77048,29.191166 271.28341,22.579659 265.29041,19.441018 259.2974,16.294693 251.6717,14.711927 242.45554,14.711927 H 218.8946 Z M 172.1761,169.17763 V 14.708085 H 147.94671 V 6.3524615 h 97.08659 c 28.0749,0 50.31813,7.9522485 66.67983,23.8836375 16.35781,15.904497 24.55208,35.99641 24.55208,60.256531 0,12.56993 -2.49324,24.42147 -7.49125,35.46242 -4.998,11.06784 -12.68134,21.14069 -23.04999,30.19165 -10.37254,9.05481 -21.01009,14.88262 -31.91658,17.49111 -10.91033,2.60465 -24.28703,3.89929 -40.19152,3.89929 h -85.66916 v -8.35947 z"
     style="fill:#ffffff;stroke-width:3.84167" />
  <path
     inkscape:connector-curvature="0"
     id="path12"
     d="m 472.90052,92.012009 c 0,-26.21937 -0.54168,-43.495342 -1.6135,-51.820233 -1.09872,-8.359465 -3.89545,-15.074697 -8.40557,-20.180271 -4.51395,-5.101732 -11.95526,-7.65644 -22.30087,-7.65644 -8.72826,0 -15.68552,2.070658 -20.87561,6.18124 -5.18625,4.137475 -8.40557,10.74514 -9.69637,19.85373 -1.26006,9.104749 -1.90546,26.891662 -1.90546,53.353058 0,26.192477 0.53783,43.545287 1.63655,52.008477 1.07566,8.46319 3.97996,15.20915 8.68216,20.23405 4.7022,5.02106 12.08588,7.52198 22.16257,7.52198 8.35563,0 15.17843,-2.01303 20.44151,-6.04678 5.27076,-4.0568 8.57076,-10.61068 9.88845,-19.71927 1.34074,-9.11243 1.98614,-27.02612 1.98614,-53.729541 z M 354.96521,91.285934 c 0,-25.604704 8.43246,-46.55715 25.36268,-62.865022 16.89181,-16.277139 37.17965,-24.4176293 60.81742,-24.4176293 21.95128,0 41.58987,7.6564403 58.91579,22.9693213 17.33359,15.31288 25.98118,37.098968 25.98118,65.335213 0,26.465233 -8.16738,47.686603 -24.55593,63.644883 -16.38854,15.95444 -36.40362,23.93358 -60.04139,23.93358 -25.54708,0 -46.36891,-8.49008 -62.40787,-25.41262 -16.03895,-16.93023 -24.07188,-37.99024 -24.07188,-63.187726 z"
     style="fill:#ffffff;stroke-width:3.84167" />
</svg>
