<?xml version="1.0" encoding="UTF-8" standalone="no"?>
<!-- Generator: Adobe Illustrator 15.0.0, SVG Export Plug-In . SVG Version: 6.00 Build 0)  -->

<svg
   version="1.1"
   x="0px"
   y="0px"
   width="530.03412"
   height="183.8822"
   viewBox="0 0 530.0341 183.88221"
   id="svg27"
   sodipodi:docname="system.svg"
   inkscape:version="1.1.2 (0a00cf5339, 2022-02-04)"
   xmlns:inkscape="http://www.inkscape.org/namespaces/inkscape"
   xmlns:sodipodi="http://sodipodi.sourceforge.net/DTD/sodipodi-0.dtd"
   xmlns="http://www.w3.org/2000/svg"
   xmlns:svg="http://www.w3.org/2000/svg"
   xmlns:rdf="http://www.w3.org/1999/02/22-rdf-syntax-ns#"
   xmlns:cc="http://creativecommons.org/ns#"
   xmlns:dc="http://purl.org/dc/elements/1.1/">
  <metadata
     id="metadata33">
    <rdf:RDF>
      <cc:Work
         rdf:about="">
        <dc:format>image/svg+xml</dc:format>
        <dc:type
           rdf:resource="http://purl.org/dc/dcmitype/StillImage" />
        <dc:title>3DO Logo</dc:title>
      </cc:Work>
    </rdf:RDF>
  </metadata>
  <defs
     id="defs31" />
  <sodipodi:namedview
     pagecolor="#ffffff"
     bordercolor="#666666"
     borderopacity="1"
     objecttolerance="10"
     gridtolerance="10"
     guidetolerance="10"
     inkscape:pageopacity="0"
     inkscape:pageshadow="2"
     inkscape:window-width="1920"
     inkscape:window-height="996"
     id="namedview29"
     showgrid="false"
     fit-margin-top="0"
     fit-margin-left="0"
     fit-margin-right="0"
     fit-margin-bottom="0"
     inkscape:zoom="1.3111111"
     inkscape:cx="188.77119"
     inkscape:cy="109.44915"
     inkscape:window-x="0"
     inkscape:window-y="0"
     inkscape:window-maximized="1"
     inkscape:current-layer="svg27"
     inkscape:pagecheckerboard="0"
     showguides="false" />
  <title
     id="title2">3DO Logo</title>
  <radialGradient
     id="SVGID_1_"
     cx="109.1953"
     cy="155.1304"
     r="36.6576"
     gradientUnits="userSpaceOnUse">
    <stop
       offset="0.5225"
       stop-color="#FFE41B"
       id="stop14" />
    <stop
       offset="0.8933"
       stop-color="#716A13"
       id="stop16" />
    <stop
       offset="1"
       stop-color="#49482E"
       id="stop18" />
  </radialGradient>
  <path
     id="path20"
     style="fill:#000000;stroke-width:3.84167"
     d="m 438.88936,0.02279569 c -14.19204,0.2719379 -28.40439,3.66180891 -40.90251,10.46895731 -11.16526,6.051134 -21.02194,14.46576 -28.89632,24.417761 -8.09902,10.368932 -13.62405,22.692154 -16.13522,35.59976 -2.36262,11.839193 -2.53359,24.069327 -0.97615,36.023906 1.90467,14.0906 6.93372,27.82402 15.09013,39.50908 7.27231,10.51902 16.70219,19.63078 27.76502,26.0957 10.1752,5.94335 21.6318,9.56185 33.31639,10.94349 10.02046,1.21281 20.2278,1.07667 30.1863,-0.60533 12.56858,-2.15794 24.67948,-7.0919 35.03775,-14.55389 11.3704,-8.09641 21.00628,-18.80528 27.16696,-31.37991 5.93117,-11.88068 8.74668,-25.12101 9.36381,-38.331395 0.3928,-9.305223 -0.0908,-18.67448 -1.77592,-27.842427 C 525.91875,58.436409 521.47611,46.815827 514.38787,36.912581 509.54946,30.083943 503.49021,24.193307 496.8453,19.134439 485.51156,10.404583 472.20619,4.1128932 458.09692,1.5418124 451.77031,0.36415279 445.3212,-0.11433561 438.88936,0.02279569 Z M 61.508504,1.1751395 C 50.071405,1.3314064 38.440298,3.1973193 28.115249,8.3172043 21.108744,11.858652 14.488233,16.666643 10.118879,23.295458 6.4748669,28.93336 4.8441387,36.050206 6.419906,42.643644 c 1.2809647,5.093371 4.819915,9.370491 9.126647,12.259433 7.028327,4.850673 16.369131,6.378263 24.497723,3.62764 4.580614,-1.57693 8.831973,-4.417175 11.661202,-8.391065 2.954089,-4.310766 4.008983,-9.897978 2.811083,-14.984599 -1.292425,-5.011986 -4.945234,-9.011448 -8.985789,-12.059413 -1.277207,-0.983108 -2.816083,-1.90832 -4.057424,-2.742767 -0.175776,-0.276559 0.823719,-0.454475 1.115248,-0.665237 1.758631,-0.792129 3.598718,-1.397027 5.476549,-1.834763 0.327369,-0.07355 1.078925,-0.237871 1.582577,-0.321481 4.483237,-0.73127 9.183848,-0.814175 13.567814,0.508981 3.164694,0.945849 5.972289,3.064124 7.588778,5.964557 2.472124,4.336619 3.307565,9.365611 3.848722,14.263959 0.469776,5.199661 0.520886,10.452972 -0.01334,15.649534 -0.639455,5.78104 -2.233821,11.664583 -5.819261,16.344378 -2.719269,3.449708 -6.962669,5.208149 -11.128739,6.185508 -2.753711,0.663825 -5.778287,1.008295 -8.478109,1.174096 -1.055175,0.05809 -1.87788,0.09826 -2.95036,0.115656 -4.028175,0.0155 -8.078229,-0.257898 -12.146028,-0.383589 -2.600847,-0.07869 -5.322178,-0.342304 -7.769458,0.752084 -2.487459,0.953112 -4.359997,3.224775 -4.843139,5.84202 -0.730826,3.116787 0.340415,6.762957 3.126742,8.525944 2.525071,1.704503 5.7036,1.720435 8.628312,1.517914 5.781075,-0.202273 11.559762,-0.551869 17.343213,-0.635833 6.161858,0.141879 12.580489,1.583643 17.459603,5.539986 4.950476,3.985053 7.700589,10.059283 9.042429,16.147143 1.675368,7.56977 1.681018,15.40585 1.08739,23.10186 -0.634044,6.62753 -1.906825,13.43143 -5.492975,19.15368 -2.679795,4.46363 -7.340681,7.64058 -12.467513,8.53416 -4.709138,0.8815 -9.555476,0.47567 -14.254891,-0.25978 -3.215825,-0.5876 -6.429166,-1.35979 -9.445313,-2.6403 -0.274977,-0.22262 -1.4624,-0.50179 -1.129098,-0.76119 5.02278,-2.58732 9.847052,-5.9971 12.955665,-10.80875 4.073126,-6.08694 4.103,-14.42468 0.525441,-20.74138 -3.318334,-5.68004 -9.343179,-9.40764 -15.668067,-10.84143 -7.333555,-1.61263 -15.364631,-0.62518 -21.809048,3.34226 -4.9886066,3.03032 -9.037472,7.83111 -10.52596976,13.53885 -1.98362384,7.41572 -0.53356,15.57422 3.52221126,22.05012 3.5147789,5.69432 8.5879555,10.29299 14.1546015,13.93533 8.264421,5.36671 17.981843,8.02834 27.679403,9.24213 8.828167,1.06056 17.771062,1.04852 26.620766,0.25673 12.939548,-1.2056 25.90423,-4.65722 36.934776,-11.70757 7.75766,-4.94093 14.67907,-11.56013 18.87247,-19.83167 4.00764,-7.88796 5.36453,-17.02041 4.16092,-25.76212 -0.92529,-6.80403 -3.65497,-13.32361 -7.77001,-18.81362 -4.17432,-5.60833 -9.51352,-10.337152 -15.50721,-13.923874 -6.65967,-3.925852 -14.079076,-6.405789 -21.61416,-8.014058 8.3682,-2.267145 16.61858,-5.391952 23.84059,-10.260887 6.17719,-4.182813 11.49686,-9.9394 14.19697,-16.975136 2.7764,-7.198907 3.06243,-15.334914 0.84319,-22.720264 C 124.5948,26.968731 119.74949,20.833523 113.83518,16.312518 106.6855,10.76172 98.300383,6.9314245 89.607104,4.5129938 80.474709,1.9984172 70.961997,1.069898 61.508504,1.1751395 Z M 241.83467,2.3489676 c -32.6289,0 -65.25781,0 -97.88671,0 0,5.4518229 0,10.9036454 0,16.3554684 8.07617,0 16.15234,0 24.22851,0 0,48.822917 0,97.645834 0,146.468744 -8.07617,0 -16.15234,0 -24.22851,0 0,5.45313 0,10.90625 0,16.35938 31.10318,-0.01 62.20665,0.0289 93.30966,-0.0284 13.33208,-0.20464 26.76048,-1.18483 39.70444,-4.55571 12.10214,-3.35796 22.95448,-10.2461 32.25483,-18.56442 10.84483,-9.57458 19.78778,-21.4993 24.99963,-35.05409 4.99832,-12.69953 6.76781,-26.548344 5.80277,-40.129079 C 339.08875,69.173279 335.02888,55.239379 327.46342,43.329964 321.03989,33.115445 312.42519,24.274144 302.3679,17.605189 291.49256,10.44496 278.96068,6.0339513 266.1428,3.9737281 258.11353,2.6663222 249.96161,2.2564607 241.83467,2.3489676 Z M 440.59835,16.35092 c 5.46198,0.03983 11.18226,0.658764 15.95174,3.533459 3.23312,1.958265 5.45443,5.184019 7.16526,8.479274 2.77504,5.424181 3.71188,11.544463 4.1111,17.560365 0.44361,6.028393 0.63307,12.11882 0.78869,18.102294 0.32551,14.036659 0.31811,28.079295 0.21202,42.118618 -0.11978,10.32085 -0.31482,20.5521 -1.03376,30.84891 -0.16441,2.1888 -0.37177,4.56778 -0.63861,6.71126 -0.37891,2.99401 -0.95313,5.97601 -1.94707,8.83136 -1.50809,-2.31285 -4.35875,-3.01872 -6.87305,-3.64843 -4.89496,-1.06283 -9.91932,-1.37082 -14.91482,-1.52038 -6.04882,-0.0958 -12.13229,0.0636 -18.11517,1.02261 -2.78356,0.53018 -5.74284,0.96646 -8.10477,2.64816 -0.48632,0.38217 -0.92877,0.82507 -1.2793,1.33593 -2.30289,-5.94137 -2.60836,-12.37872 -3.01072,-18.66643 -0.75329,-14.49372 -0.77016,-29.02081 -0.80373,-43.56989 0.0303,-10.540829 0.0997,-21.131729 0.48765,-31.618463 0.27892,-6.510862 0.50586,-13.040341 1.38149,-19.504584 0.0662,-0.456594 0.15338,-1.048908 0.23977,-1.526178 0.89834,-5.423486 2.82976,-10.963783 6.87156,-14.858588 5.18775,-4.866591 12.6303,-6.269336 19.51172,-6.279297 z m -198.18946,2.357422 c 1.88018,0.01012 3.76021,0.07625 5.63477,0.22461 0.37604,0.04436 1.15433,0.10177 1.68665,0.167569 4.6555,0.513611 9.29508,1.638377 13.48522,3.773837 0.38045,0.181982 1.05144,0.559253 1.51453,0.877829 4.42035,3.002552 7.04481,7.916189 8.87154,12.804959 1.63903,4.403807 2.64258,9.016851 3.3444,13.655102 0.18903,1.300616 0.3991,2.832121 0.55741,4.229347 0.44879,3.80788 0.76557,7.630104 1.01095,11.4562 0.058,0.990772 0.1242,2.149487 0.17158,3.196087 0.49265,10.272902 0.53724,20.657088 0.30665,30.999038 -0.0925,4.05 -0.25139,8.27133 -0.49423,12.34244 -0.19175,3.32905 -0.4585,6.69265 -0.7672,9.92728 -0.90876,8.75323 -2.12789,17.56561 -5.04438,25.90618 -1.10175,3.20682 -2.93928,6.18006 -5.52239,8.4025 -4.79846,4.17807 -11.06829,6.12953 -17.22163,7.24937 -8.92053,1.63888 -18.02669,1.18423 -27.04754,1.25249 0,-48.82161 0,-97.643223 0,-146.464838 6.50456,0 13.00912,0 19.51367,0 z m 196.67969,2.066406 c -8.53355,8.556292 -17.06803,17.111661 -25.60156,25.667969 6.43634,6.452982 12.87377,12.904873 19.31055,19.357422 -3.41481,0.431219 -6.87324,0.891153 -10.12772,2.05081 -2.04282,0.801884 -3.54534,2.588539 -4.27896,4.625244 -1.40887,3.418628 -1.82657,7.136964 -2.22814,10.78129 -0.0957,2.60851 0.43438,5.190297 0.85772,7.751727 0.52216,2.503934 1.20257,5.087103 2.73999,7.175695 1.3356,1.723365 3.45797,2.502005 5.52045,2.940165 0.67687,0.18572 1.48533,0.30808 2.09673,0.47585 -5.25414,3.83999 -8.70796,10.04615 -9.07422,16.55664 -0.4526,6.76419 2.34869,13.66777 7.46094,18.13672 5.31517,4.75626 12.99253,6.69791 19.92249,4.98234 7.1254,-1.67922 13.23712,-7.10122 15.7023,-14.00228 2.67961,-7.21582 1.30326,-15.79776 -3.62699,-21.7339 -1.20636,-1.49031 -2.61143,-2.81849 -4.15795,-3.95124 2.02958,-0.44224 4.15493,-0.80208 5.96289,-1.874998 2.62856,-1.745768 3.55333,-4.961572 4.23379,-7.867323 0.59164,-2.698068 0.99382,-5.458011 1.06672,-8.216548 -0.4424,-4.311321 -0.91767,-8.777539 -2.96848,-12.670036 -1.06054,-1.837053 -2.91467,-3.130961 -4.98047,-3.576172 -2.84432,-0.810147 -5.78021,-1.230775 -8.71094,-1.582031 6.43805,-6.453223 12.87696,-12.905591 19.31445,-19.359375 -9.00555,-9.029598 -18.012,-18.058309 -27.01757,-27.087891 -0.47201,0.473308 -0.94401,0.946615 -1.41602,1.419922 z m 21.19531,140.009762 c -4.33007,4.26481 -10.44146,6.1667 -16.38897,6.59343 -4.69377,0.29321 -9.48512,0.0816 -14.03131,-1.2007 -3.32835,-0.96131 -6.54321,-2.64536 -8.84144,-5.28726 4.80121,1.27743 9.79065,1.63741 14.73565,1.88052 6.725,0.23432 13.49019,0.0228 20.14877,-0.99362 1.46922,-0.23655 2.9932,-0.57579 4.3773,-0.99237 z" />
  <g
     id="g883"
     transform="matrix(3.841666,0,0,3.841666,-92.270824,-1010.7323)">
    <path
       inkscape:connector-curvature="0"
       id="path8"
       d="m 40.039835,285.17696 v 0.133 c 6.014,0.112 10.455,1.308 13.321,3.588 2.867,2.279 4.301,5.035 4.301,8.266 0,3.608 -1.629,6.587 -4.895,8.931 -3.259,2.35 -7.602,3.524 -13.015,3.524 -4.678,0 -8.293,-0.938 -10.853,-2.805 -2.559,-1.867 -3.839,-3.993 -3.839,-6.385 0,-1.587 0.573,-2.874 1.72,-3.847 1.147,-0.972 2.524,-1.454 4.126,-1.454 1.503,0 2.797,0.427 3.867,1.272 1.077,0.854 1.608,1.979 1.608,3.371 0,1.86 -1.245,3.419 -3.741,4.678 -0.489,0.245 -0.741,0.524 -0.741,0.833 0,0.573 0.699,1.076 2.105,1.511 1.399,0.433 2.825,0.643 4.293,0.643 4.805,0 7.21,-3.531 7.21,-10.594 0,-6.993 -2.888,-10.489 -8.657,-10.489 l -4.791,0.195 c -0.965,0 -1.455,-0.356 -1.455,-1.069 0,-0.819 0.511,-1.231 1.525,-1.231 l 3.489,0.133 c 3.56,0 5.944,-0.79 7.154,-2.378 1.216,-1.58 1.818,-3.832 1.818,-6.755 0,-3.007 -0.455,-5.224 -1.371,-6.637 -0.916,-1.42 -2.49,-2.125 -4.713,-2.125 -1.209,0 -2.349,0.202 -3.413,0.614 -1.063,0.406 -1.601,0.805 -1.601,1.204 0,0.369 0.35,0.755 1.049,1.153 1.832,1.168 2.755,2.434 2.755,3.797 0,1.343 -0.51,2.405 -1.539,3.203 -1.028,0.79 -2.182,1.188 -3.469,1.188 -1.482,0 -2.804,-0.455 -3.965,-1.356 -1.161,-0.909 -1.749,-2.028 -1.749,-3.378 0,-2.293 1.294,-4.279 3.881,-5.951 2.587,-1.679 5.902,-2.517 9.958,-2.517 4.483,0 8.259,0.95 11.335,2.846 3.084,1.895 4.623,4.321 4.623,7.294 0.004,5.846 -5.444,9.378 -16.331,10.594 z"
       style="fill:#ececec" />
    <path
       inkscape:connector-curvature="0"
       id="path10"
       d="m 80.997522,266.92596 v 40.209 h 3.937 c 6.021,0 9.657003,-1.58 10.909003,-4.734 1.252,-3.16 1.875,-8.559 1.875,-16.202 0,-5.979 -0.386,-10.28 -1.154,-12.889 -0.762,-2.614 -1.93,-4.335 -3.49,-5.152 -1.560003,-0.819 -3.545003,-1.231 -5.944003,-1.231 h -6.133 z m -12.161,40.209 v -40.209 h -6.307 v -2.175 h 25.272 c 7.308003,0 13.097998,2.07 17.357008,6.217 4.258,4.14 6.391,9.37 6.391,15.685 0,3.272 -0.649,6.357 -1.95,9.231 -1.301,2.881 -3.301,5.503 -6,7.859 -2.70001,2.357 -5.469005,3.874 -8.308005,4.553 -2.84,0.678 -6.322003,1.015 -10.462003,1.015 h -22.3 v -2.176 z"
       style="fill:#ececec" />
    <path
       inkscape:connector-curvature="0"
       id="path12"
       d="m 147.11621,287.04846 c 0,-6.825 -0.141,-11.322 -0.42,-13.489 -0.286,-2.176 -1.014,-3.924 -2.188,-5.253 -1.175,-1.328 -3.112,-1.993 -5.805,-1.993 -2.272,0 -4.083,0.539 -5.434,1.609 -1.35,1.077 -2.188,2.797 -2.524,5.168 -0.328,2.37 -0.496,7 -0.496,13.888 0,6.818 0.14,11.335 0.426,13.538 0.28,2.203 1.036,3.959 2.26,5.267 1.224,1.307 3.146,1.958 5.769,1.958 2.175,0 3.951,-0.524 5.321,-1.574 1.372,-1.056 2.231,-2.762 2.574,-5.133 0.349,-2.372 0.517,-7.035 0.517,-13.986 z m -30.699,-0.189 c 0,-6.665 2.195,-12.119 6.602,-16.364 4.397,-4.237 9.678,-6.356 15.831,-6.356 5.714,0 10.826,1.993 15.336,5.979 4.512,3.986 6.763,9.657 6.763,17.007 0,6.889 -2.126,12.413 -6.392,16.567 -4.266,4.153 -9.476,6.23 -15.629,6.23 -6.65,0 -12.07,-2.21 -16.245,-6.615 -4.175,-4.407 -6.266,-9.889 -6.266,-16.448 z"
       style="fill:#ececec" />
    <g
       transform="matrix(0.15642212,0,0,0.15642212,122.25881,269.02607)"
       id="g856">
      <path
         inkscape:connector-curvature="0"
         style="fill:#888888"
         d="m 69.287,220.202 c 0,-3.461 15.986,-6.266 35.713,-6.266 19.727,0 35.714,2.805 35.714,6.266 0,3.462 -15.986,6.266 -35.714,6.266 -19.728,0 -35.713,-2.804 -35.713,-6.266 z"
         id="path6" />
      <path
         inkscape:connector-curvature="0"
         style="fill:#ffe41b;fill-opacity:1"
         d="m 74.643,161.126 c 0,-16.812 13.587,-30.434 30.357,-30.434 16.769,0 30.356,13.622 30.356,30.434 0,16.811 -13.588,30.434 -30.356,30.434 -16.77,0 -30.357,-13.623 -30.357,-30.434 z"
         id="path21" />
      <path
         inkscape:connector-curvature="0"
         style="fill:#0000a0"
         d="m 76.727,81.763 c -4.468,2.979 -5.657,20.286 -5.657,20.286 0,0 1.189,17.308 5.657,20.287 4.462,2.985 28.273,4.775 28.273,4.775 0,0 23.812,-1.79 28.272,-4.775 4.469,-2.979 5.658,-20.287 5.658,-20.287 0,0 -1.189,-17.308 -5.658,-20.286 C 128.812,78.776 105,76.986 105,76.986 c 0,0 -23.811,1.79 -28.273,4.777 z"
         id="path23" />
      <polygon
         style="fill:#ff0000"
         points="69.44,39.392 105,3.741 140.56,39.392 105,75.035 "
         id="polygon25" />
    </g>
  </g>
</svg>
