<?xml version="1.0" encoding="UTF-8" standalone="no"?>
<!-- Generator: Adobe Illustrator 13.0.0, SVG Export Plug-In . SVG Version: 6.00 Build 14948)  -->

<svg
   version="1.2"
   id="Layer_3"
   x="0px"
   y="0px"
   width="501.81519"
   height="336.68414"
   viewBox="0 0 501.81516 336.68413"
   xml:space="preserve"
   sodipodi:docname="controller.svg"
   inkscape:version="1.1.2 (0a00cf5339, 2022-02-04)"
   xmlns:inkscape="http://www.inkscape.org/namespaces/inkscape"
   xmlns:sodipodi="http://sodipodi.sourceforge.net/DTD/sodipodi-0.dtd"
   xmlns="http://www.w3.org/2000/svg"
   xmlns:svg="http://www.w3.org/2000/svg"
   xmlns:rdf="http://www.w3.org/1999/02/22-rdf-syntax-ns#"
   xmlns:cc="http://creativecommons.org/ns#"
   xmlns:dc="http://purl.org/dc/elements/1.1/"
   xmlns:ns="&amp;ns_sfw;"><defs
   id="defs17" /><sodipodi:namedview
   id="namedview15"
   pagecolor="#ffffff"
   bordercolor="#666666"
   borderopacity="1.0"
   inkscape:pageshadow="2"
   inkscape:pageopacity="0.0"
   inkscape:pagecheckerboard="0"
   showgrid="false"
   fit-margin-top="0"
   fit-margin-left="0"
   fit-margin-right="0"
   fit-margin-bottom="0"
   inkscape:zoom="1.0263804"
   inkscape:cx="134.94023"
   inkscape:cy="191.44949"
   inkscape:window-width="1920"
   inkscape:window-height="996"
   inkscape:window-x="0"
   inkscape:window-y="0"
   inkscape:window-maximized="1"
   inkscape:current-layer="Layer_3" />
<metadata
   id="metadata55">
	<rdf:RDF>
		<cc:Work
   rdf:about="">
			<dc:format>image/svg+xml</dc:format>
			<dc:type
   rdf:resource="http://purl.org/dc/dcmitype/StillImage" />
			
		</cc:Work>
	</rdf:RDF>
	<ns:sfw>
		<ns:slices />
		<ns:sliceSourceBounds
   x="712.69"
   y="-7652"
   width="493.792"
   height="16383"
   bottomLeftOrigin="true" />
	</ns:sfw>
</metadata>
<path
   id="path853"
   style="fill:#000000"
   d="m 489.75613,0.00228492 c -12.61305,0.03431 -25.22744,0.00305 -37.84102,0.013957 C 304.65902,0.02005272 157.40272,0.01345102 10.146754,0.02376922 4.9645624,0.14603692 0.27051243,4.63673 0.06223243,9.844444 c -0.138548,2.483291 0.0058,4.973111 -0.05024,7.459403 0.0027,103.104603 -0.0072,206.209583 0.01411,309.313963 0.157937,5.15361 4.63585997,9.79722 9.81437797,10.00415 2.4832906,0.13854 4.9731106,-0.006 7.4594026,0.0502 158.108537,-0.005 316.217377,0.003 474.325727,-0.011 5.15459,-0.0936 9.84109,-4.51755 10.12008,-9.68832 0.15212,-2.42602 -0.002,-4.85975 0.0573,-7.2893 -0.003,-103.20435 0.007,-206.40906 -0.0141,-309.613184 -0.15482,-5.155995 -4.63614,-9.79093318 -9.81244,-10.00721438 -0.73857,-0.060265 -1.47976,-0.068231 -2.22037,-0.060847 z M 10.834254,9.652675 c 5.076683,0.0323 10.156607,-0.04518 15.231789,0.03894 53.816349,3.158928 107.634407,6.277676 161.483107,8.834104 12.77531,0.585808 25.55369,1.168741 38.3408,1.398589 12.96877,0.08973 25.93817,0.003 38.90719,0.04198 7.67638,0.02634 15.35327,-0.05038 23.02433,-0.340716 20.89754,-0.701253 41.77857,-1.813303 62.66043,-2.86975 41.46682,-2.136595 82.91808,-4.57664 124.36981,-6.995961 3.73326,-0.199056 7.47503,-0.06058 11.21223,-0.106229 1.8445,0.02481 3.71071,-0.04286 5.5418,0.08107 0.91676,0.516807 0.44473,1.692799 0.55661,2.530078 -0.006,104.6592 0.004,209.31877 -0.0117,313.97773 -0.15068,0.84373 -1.12627,0.85409 -1.79688,0.7871 -159.96424,-0.005 -319.92881,0.003 -479.892839,-0.0109 -0.8628386,-0.12858 -0.8774746,-1.12088 -0.8083216,-1.79578 0.0052,-104.92444 -0.0052,-209.84917 0.0098,-314.773434 0.08186,-0.522995 0.6612756,-0.888597 1.1718746,-0.796876 z m 285.828126,0.0039 c -10.18177,0.419093 -20.33121,0.749645 -30.53477,0.664413 -13.85098,-0.01516 -27.70279,0.049 -41.55321,-0.05344 -6.40008,-0.138157 -12.73785,-0.348635 -19.13273,-0.610978 30.4069,0 60.81381,0 91.22071,0 z m -86.06446,16.017578 c -5.13219,0.216206 -9.80144,4.300845 -10.64702,9.378098 -0.9597,4.88136 1.69411,10.193508 6.17805,12.354584 2.71988,1.347235 5.82569,1.291039 8.7559,1.800493 4.97907,0.640164 9.94307,1.428992 14.93573,1.943387 5.1963,0.15803 10.17833,-3.690982 11.3322,-8.762264 1.23385,-4.766668 -1.04828,-10.150566 -5.30486,-12.614689 -2.86803,-1.739003 -6.32789,-1.658672 -9.53379,-2.196846 -4.91685,-0.633537 -9.82289,-1.380737 -14.75052,-1.90998 -0.32183,-0.0078 -0.64398,-0.0062 -0.96569,0.0072 z m 83.50391,-0.0098 c -4.2929,0.418543 -8.61515,1.120567 -12.85547,1.658203 -2.94355,0.420045 -5.92015,0.680232 -8.82833,1.303715 -4.94635,1.364085 -8.55935,6.390921 -8.25574,11.51767 0.15501,4.942779 3.869,9.502224 8.67587,10.664943 3.22021,0.820812 6.50263,-0.175304 9.71909,-0.495662 4.89105,-0.684364 9.80255,-1.253725 14.67349,-2.060978 5.04692,-1.213114 8.83951,-6.228636 8.61601,-11.418726 -0.0616,-5.10278 -3.95956,-9.870093 -8.9707,-10.891504 -0.90838,-0.207093 -1.84285,-0.296773 -2.77422,-0.277661 z m 93.88477,3.326172 c -5.94673,0.06818 -11.79353,1.815821 -16.99269,4.657992 -26.71912,13.351651 -51.62659,30.659789 -72.41063,52.190978 -18.80531,19.391575 -34.06119,42.149145 -45.22682,66.729205 -1.73701,3.68618 -3.17943,7.55357 -3.7058,11.61518 -1.52026,10.39466 1.93501,21.37579 9.12499,29.03486 7.67826,8.31347 19.52337,12.56875 30.73368,10.91498 10.21728,-1.39396 19.68122,-7.5228 25.0769,-16.31946 1.77657,-2.85968 3.01619,-6.08875 4.4518,-9.02659 4.96816,-10.40668 10.94089,-20.346 17.94271,-29.51394 9.71655,-12.75978 21.48245,-24.08419 34.45211,-33.59049 2.49769,-1.84151 5.05558,-3.62665 7.58743,-5.30222 7.98549,-5.31987 16.36404,-10.02969 24.94799,-14.308597 9.36532,-4.39701 16.48243,-13.194751 18.94153,-23.231232 2.49185,-9.698401 0.52142,-20.403721 -5.19354,-28.617598 -6.01321,-8.800379 -16.21138,-14.559231 -26.85331,-15.163651 -0.95726,-0.06189 -1.91719,-0.08091 -2.87635,-0.06942 z m -176.61133,6.330078 c 6.42798,0.872504 12.86008,1.672278 19.26172,2.615235 1.40894,0.469487 1.61153,2.702917 0.22039,3.326418 -1.06303,0.526524 -2.23536,-0.05104 -3.34481,-0.08328 -5.63464,-0.772327 -11.28325,-1.470591 -16.90683,-2.305642 -1.36549,-0.465662 -1.61123,-2.584363 -0.31446,-3.283204 0.32221,-0.198152 0.70489,-0.305414 1.08399,-0.269531 z m 83.16015,0 c 1.50815,0.04238 2.2786,2.192451 1.09961,3.15625 -0.93583,0.794029 -2.25759,0.533629 -3.37831,0.805739 -5.60012,0.730041 -11.19336,1.543591 -16.79942,2.207933 -1.43887,-0.07255 -2.25253,-2.054128 -1.17188,-3.0625 0.88635,-0.898773 2.26148,-0.6138 3.38802,-0.890185 5.6207,-0.733835 11.23537,-1.553181 16.86198,-2.217237 z m 82.53711,6.134766 c -6.67275,3.880481 -11.37495,10.944285 -12.32776,18.609993 -0.44218,3.272331 -0.25058,6.629883 0.57581,9.827507 -5.58925,-5.205341 -13.59417,-7.633495 -21.13586,-6.452722 -3.05827,0.464456 -6.02033,1.514288 -8.7118,3.034753 11.90171,-8.734132 24.60412,-16.434107 37.71112,-23.123501 1.45974,-0.738499 2.90703,-1.502823 4.39435,-2.185093 -0.16862,0.09635 -0.33724,0.192709 -0.50586,0.289063 z m 12.82618,6.083984 c 6.19569,-0.127829 12.23134,3.765305 14.68897,9.450672 2.53027,5.566973 1.46317,12.561745 -2.67921,17.076672 -3.74561,4.220866 -9.82165,6.186082 -15.32639,4.914957 -5.82276,-1.251089 -10.72818,-6.033496 -12.01479,-11.865412 -1.26274,-5.3147 0.38821,-11.234936 4.34293,-15.030983 2.90165,-2.843871 6.92146,-4.524756 10.98849,-4.545906 z M 139.69949,51.79326 c -15.47582,0.336474 -30.76142,6.100201 -42.610438,16.061041 -12.33667,10.270788 -20.95612,24.938902 -23.75803,40.759119 -2.8456,15.60676 -0.16111,32.18229 7.61951,46.02336 7.84068,14.09087 20.738208,25.29648 35.824638,31.01148 15.57468,5.95941 33.31448,6.02994 48.92374,0.14896 15.8759,-5.90665 29.37869,-17.88428 37.15809,-32.92926 7.41913,-14.20211 9.63052,-31.0223 6.17986,-46.66578 -2.96968,-13.720647 -10.25397,-26.459405 -20.57359,-35.976748 -10.1497,-9.430755 -23.17601,-15.740392 -36.89953,-17.712846 -3.92523,-0.575487 -7.8984,-0.811109 -11.86425,-0.719326 z m 1.73632,9.61914 c 3.74373,-0.0064 7.65524,0.379164 11.22657,1.056641 13.50967,2.526334 25.98689,9.995476 34.71201,20.598084 9.23828,11.095288 14.14836,25.661235 13.56614,40.082645 -0.25393,7.89789 -2.14984,15.72889 -5.47151,22.89544 -0.18401,0.39148 -0.47998,1.03212 -0.68865,1.43394 -7.224,14.68674 -20.78921,26.10895 -36.52557,30.641 -2.77001,0.81251 -5.59991,1.41824 -8.45766,1.82545 -0.55468,0.0775 -1.44919,0.19009 -2.13632,0.26209 -1.16026,0.1193 -2.28505,0.20741 -3.36178,0.25666 -4.13848,0.20459 -8.29636,-0.0416 -12.38862,-0.68476 -0.52801,-0.0866 -1.39773,-0.23652 -2.0518,-0.36903 -0.71497,-0.14067 -1.3897,-0.28106 -1.99532,-0.42965 -0.79556,-0.18325 -1.516,-0.3659 -2.36979,-0.60607 -2.21175,-0.60769 -4.38229,-1.35987 -6.50887,-2.2183 -0.37318,-0.16633 -1.0446,-0.43042 -1.4575,-0.61907 -12.85261,-5.58076 -23.560338,-15.88273 -29.667518,-28.49019 -7.16222,-14.51686 -7.9102,-31.98803 -2.17589,-47.109197 0.50821,-1.37424 1.17947,-2.9132 1.73451,-4.11748 5.57961,-11.95178 15.208388,-21.96766 26.979148,-27.934826 8.33547,-4.249044 17.68216,-6.488566 27.03842,-6.473377 z m 188.42188,9.353516 c -4.7847,4.797593 -7.48128,11.559416 -7.35938,18.330078 0.0563,5.665379 2.09528,11.284486 5.68164,15.669916 -6.75968,-5.130057 -16.16011,-6.523437 -24.0997,-3.5056 -7.39107,2.68949 -13.38139,8.96455 -15.61376,16.51942 -2.20944,7.1273 -1.10043,15.20801 3.04411,21.42622 4.02848,6.16877 10.80577,10.47503 18.13428,11.36223 6.03095,0.77562 12.32823,-0.67714 17.39054,-4.05227 -6.6618,9.13425 -12.38867,18.9384 -17.18359,29.17383 1.90342,-7.04441 0.57038,-14.8706 -3.57084,-20.88077 -4.43049,-6.65464 -12.16866,-10.9151 -20.15204,-11.1702 -8.73534,-0.41405 -17.48273,4.09342 -22.26005,11.40934 -4.8931,7.22644 -5.61913,17.02772 -1.86532,24.90454 3.55889,7.71498 11.18314,13.40275 19.62018,14.5136 3.11316,0.44399 6.30673,0.28106 9.36674,-0.43666 -7.38269,1.95306 -15.56734,0.29904 -21.67824,-4.25769 -6.25181,-4.56073 -10.12791,-12.10329 -10.35414,-19.82173 -0.15971,-4.08504 0.78768,-8.15483 2.48906,-11.85705 5.39413,-11.98837 11.7051,-23.57322 19.01598,-34.50299 5.50971,-8.24053 11.66781,-16.23333 18.26978,-23.707407 5.29558,-5.99384 11.01271,-11.804593 16.97341,-17.230529 4.57561,-4.180261 9.39453,-8.238259 14.33298,-12.065966 -0.0605,0.0599 -0.12109,0.119792 -0.18164,0.179688 z m 18.17773,2.027344 c 6.19058,-0.08855 12.18394,3.857244 14.59094,9.554646 2.43023,5.501774 1.4103,12.353517 -2.60839,16.850307 -3.63048,4.207607 -9.55886,6.253077 -15.0097,5.146507 -5.80089,-1.09585 -10.79704,-5.657957 -12.30624,-11.381697 -1.45444,-5.237328 -0.0576,-11.184838 3.71484,-15.126964 2.96891,-3.165045 7.26891,-5.073311 11.61855,-5.042799 z m 24.90821,9.621093 c 5.24519,4.792067 12.55761,7.210376 19.62472,6.448892 4.09496,-0.4126 8.09337,-1.810959 11.53153,-4.077798 -2.82211,2.166003 -6.18293,3.425602 -9.27778,5.130181 -19.12816,9.940395 -37.04214,22.459222 -52.08911,37.958932 -2.04971,2.10891 -4.04573,4.26999 -5.98468,6.4812 2.83421,-7.2301 2.05972,-15.73913 -2.01488,-22.34856 -0.59726,-0.99444 -1.26792,-1.94489 -1.99488,-2.84871 6.04457,4.61946 14.22104,6.23899 21.5778,4.32037 7.73052,-1.88375 14.35158,-7.65988 17.32787,-15.031187 2.13239,-5.08913 2.5113,-10.881416 1.10409,-16.213007 0.0651,0.0599 0.13021,0.119791 0.19532,0.179687 z M 140.57644,85.13115 c -10.46299,0.181936 -20.68407,5.293106 -27.1721,13.492633 -5.9336,7.379947 -8.73585,17.174677 -7.58864,26.576357 1.12905,9.85007 6.58915,19.09244 14.6515,24.85913 7.72648,5.60374 17.74168,7.91182 27.14088,6.23732 9.81663,-1.68163 18.78743,-7.67924 24.09351,-16.10822 5.23395,-8.18661 6.89913,-18.54216 4.49811,-27.95797 -2.44641,-9.81441 -9.24396,-18.449267 -18.24742,-23.074452 -5.33015,-2.777977 -11.36723,-4.173248 -17.37584,-4.024798 z m 0.86328,9.630863 c 8.48178,-0.0755 16.82388,4.33404 21.58399,11.346837 4.33452,6.2522 5.71933,14.42243 3.70422,21.75772 -2.21945,8.33032 -8.8206,15.34928 -17.0401,17.98848 -5.10915,1.70865 -10.74299,1.76683 -15.89264,0.19016 -0.34009,-0.10221 -1.05855,-0.33402 -1.53881,-0.52109 -7.47069,-2.70984 -13.46269,-9.05612 -15.82586,-16.63313 -2.36385,-7.28731 -1.24726,-15.57252 2.89376,-22.00975 4.31967,-6.86945 11.99475,-11.469507 20.08839,-12.044677 0.67424,-0.057 1.35063,-0.0732 2.02705,-0.0746 z M 312.7698,109.31865 c 6.15642,-0.12849 12.15008,3.72633 14.6233,9.35959 2.5945,5.62985 1.50427,12.7469 -2.74253,17.2842 -3.12887,3.43766 -7.82598,5.4018 -12.47452,5.14918 -0.72981,-0.0268 -1.75041,-0.1307 -2.57813,-0.31641 -5.57559,-1.15657 -10.36538,-5.50139 -11.94949,-10.98673 -1.6335,-5.40705 -0.16436,-11.6429 3.83275,-15.66087 2.92661,-3.01638 7.08235,-4.80638 11.28862,-4.82896 z m -27.47266,43.9414 c 6.17521,-0.0332 12.12803,3.93814 14.49537,9.63749 2.33869,5.42013 1.36188,12.11324 -2.51935,16.5813 -3.61819,4.31077 -9.62565,6.42763 -15.14575,5.30533 -5.79695,-1.09549 -10.792,-5.65174 -12.30248,-11.37189 -1.44929,-5.19559 -0.0874,-11.09266 3.62456,-15.03308 3.00881,-3.2488 7.4111,-5.18794 11.84765,-5.11915 z" /><path
   id="path3"
   d="m 10.599879,4.015957 c -3.6269996,0 -6.5878906,2.95989 -6.5878906,6.58789 V 326.08431 c 0,3.629 2.959891,6.58789 6.5878906,6.58789 H 491.21511 c 3.628,0 6.58789,-2.95989 6.58789,-6.58789 V 10.603847 c 0,-3.627 -2.95889,-6.58789 -6.58789,-6.58789 H 476.14285 25.672144 Z m 0,1.640625 h 14.970703 c 0,0 43.03583,2.578344 89.923828,5.152343 46.888,2.574001 97.59078,5.152344 113.17578,5.152344 h 44.47656 c 16.201,0 66.92616,-2.578344 113.66016,-5.152344 46.734,-2.574 89.43945,-5.152343 89.43945,-5.152343 h 14.96875 c 2.742,0 4.94727,2.206265 4.94727,4.947265 V 326.08431 c 0,2.742 -2.20527,4.94532 -4.94727,4.94532 H 10.599879 c -2.7409996,0 -4.9472656,-2.20332 -4.9472656,-4.94532 V 10.603847 c 0,-2.741 2.206266,-4.947265 4.9472656,-4.947265 z m 43.697263,0 H 447.66433 C 431.79986,6.597374 418.55499,7.41459 386.70535,9.168301 339.97635,11.7423 289.1718,14.320644 273.1448,14.320644 h -44.47656 c -15.404,0 -66.21466,-2.578343 -113.09766,-5.152343 C 83.616512,7.4139 70.262952,6.597144 54.297142,5.656582 Z M 211.47683,29.664394 c -3.78185,-0.121659 -7.13078,2.643907 -7.64453,6.472657 -0.549,4.084 2.34959,7.859203 6.43359,8.408203 l 18.73828,2.537109 c 4.084,0.549 7.85921,-2.350594 8.40821,-6.433594 0.549,-4.084 -2.3496,-7.859203 -6.4336,-8.408203 l -18.74023,-2.513672 c -0.25525,-0.03431 -0.5096,-0.05439 -0.76172,-0.0625 z m 82.65625,0 c -0.25208,0.0081 -0.50653,0.02819 -0.76172,0.0625 l -18.73828,2.511719 c -4.083,0.549 -6.9572,4.324203 -6.4082,8.408203 0.548,4.083 4.3252,6.982594 8.4082,6.433594 l 18.73828,-2.537109 c 4.084,-0.549 6.9562,-4.324204 6.4082,-8.408204 -0.51468,-3.82875 -3.86534,-6.592472 -7.64648,-6.470703 z m -82.69727,1.652344 c 0.1976,0.0066 0.39735,0.02384 0.59766,0.05078 l 18.74024,2.511719 c 3.20499,0.431 5.42904,3.3565 4.99804,6.5625 -0.431,3.204 -3.35845,5.43 -6.56445,5 l -18.73828,-2.511719 c -3.205,-0.43 -5.42805,-3.3575 -4.99805,-6.5625 0.40406,-3.005625 3.00086,-5.149728 5.96484,-5.05078 z m 82.76368,0 c 2.96327,-0.09895 5.56078,2.044141 5.96484,5.048828 0.431,3.205 -1.79305,6.1325 -4.99805,6.5625 l -18.76367,2.511719 c -3.205,0.431 -6.13445,-1.793047 -6.56445,-4.998047 -0.432,-3.205 1.82039,-6.1315 5.02539,-6.5625 l 18.73828,-2.511719 c 0.20025,-0.02694 0.4001,-0.04418 0.59766,-0.05078 z m 94.93945,1.671875 c -0.75814,-0.01232 -1.51824,0.0015 -2.2793,0.04492 -4.058,0.231 -8.12109,1.248297 -11.99609,3.154297 -28.748,14.133 -53.00139,31.47525 -72.77539,51.78125 -19.791,20.285 -34.9988,43.45414 -46.0918,68.49414 -7.005,15.79 0.12892,34.29087 15.91992,41.29687 4.123,1.83 8.44946,2.7158 12.68946,2.7168 12,0.001 23.42947,-6.94337 28.60547,-18.60937 8.40199,-18.895 19.28854,-35.39841 33.68554,-50.19141 14.408,-14.772 32.45161,-27.92222 55.59961,-39.324219 15.499,-7.626999 21.87995,-26.383764 14.25195,-41.884764 -5.3625,-10.899375 -16.23729,-17.293667 -27.60937,-17.478516 z m -0.0176,1.615234 c 10.77423,0.171838 21.0782,6.239375 26.16602,16.578125 7.236,14.706 1.16984,32.472985 -13.53516,39.708985 -23.292,11.472993 -41.46372,24.714903 -56.01172,39.628903 -14.532,14.934 -25.54458,31.62869 -34.01758,50.67969 -4.911,11.068 -15.75214,17.63772 -27.11914,17.63672 -4.017,-0.001 -8.11243,-0.8275 -12.02343,-2.5625 -14.979,-6.648 -21.71827,-24.16453 -15.07227,-39.14453 11.021,-24.875 26.10981,-47.86982 45.75781,-68.007815 19.634,-20.159999 43.71546,-37.386265 72.31446,-51.447265 3.676,-1.809 7.53485,-2.804391 11.38086,-3.025391 0.72106,-0.04144 1.44187,-0.05638 2.16015,-0.04492 z m 0.91602,7.298828 c -11.892,0 -21.53125,9.668547 -21.53125,21.560547 0,11.892 9.64025,21.53125 21.53125,21.53125 11.893,0 21.55859,-9.63925 21.55859,-21.53125 -0.001,-11.893 -9.66659,-21.560547 -21.55859,-21.560547 z m 0,1.640626 c 11.006,0 19.91797,8.912968 19.91797,19.917968 0,11.005 -8.91197,19.892578 -19.91797,19.892578 -11.005,0 -19.89063,-8.887578 -19.89063,-19.892578 0,-11.005 8.88563,-19.917968 19.89063,-19.917968 z M 141.43777,55.771816 c -36.002,0 -65.214848,29.210891 -65.214848,65.212884 0,36.002 29.212848,65.1875 65.214848,65.1875 36.002,0 65.1875,-29.1865 65.1875,-65.1875 0,-36.000993 -29.1855,-65.212884 -65.1875,-65.212884 z m 0,1.640625 c 35.116,0 63.54687,28.456266 63.54687,63.572259 0,35.116 -28.43187,63.54883 -63.54687,63.54883 -35.115,0 -63.574218,-28.43283 -63.574218,-63.54883 0,-35.115993 28.459218,-63.572259 63.574218,-63.572259 z m 206.61133,9.740234 c -11.892,0 -21.5586,9.667594 -21.5586,21.558594 0,11.892001 9.6666,21.558591 21.5586,21.558591 11.892,0 21.53125,-9.66659 21.53125,-21.558591 0,-11.892 -9.63925,-21.558594 -21.53125,-21.558594 z m 0,1.640626 c 11.005,0 19.89257,8.912968 19.89257,19.917968 0,11.006004 -8.88757,19.917971 -19.89257,19.917971 -11.005,0 -19.91797,-8.911967 -19.91797,-19.917971 0,-11.004 8.91297,-19.917968 19.91797,-19.917968 z M 141.43777,89.121425 c -17.579,0 -31.86328,14.285275 -31.86328,31.863275 0,17.578 14.28528,31.83789 31.86328,31.83789 17.578,0 31.83593,-14.25889 31.83594,-31.83789 0,-17.579 -14.25694,-31.863275 -31.83594,-31.863275 z m 0,1.640626 c 16.692,0 30.19531,13.530649 30.19531,30.222649 0,16.692 -13.50331,30.19727 -30.19531,30.19727 -16.692,0 -30.22461,-13.50527 -30.22461,-30.19727 0,-16.692 13.53361,-30.222649 30.22461,-30.222649 z m 171.46679,12.919919 c -11.892,0 -21.55859,9.66759 -21.55859,21.55859 0,11.892 9.66659,21.53321 21.55859,21.53321 11.892,0 21.53321,-9.64121 21.53321,-21.53321 0,-11.892 -9.64221,-21.55859 -21.53321,-21.55859 z m 0,1.64062 c 11.005,0 19.89258,8.91102 19.89258,19.91602 0,11.005 -8.88758,19.89258 -19.89258,19.89258 -11.005,0 -19.91796,-8.88758 -19.91796,-19.89258 0,-11.005 8.91296,-19.91602 19.91796,-19.91602 z m -27.73632,42.29688 c -11.892,0 -21.5586,9.6412 -21.5586,21.5332 0,11.892 9.6666,21.5586 21.5586,21.5586 11.892,0 21.53125,-9.6666 21.53125,-21.5586 10e-4,-11.893 -9.63925,-21.5332 -21.53125,-21.5332 z m 0,1.64062 c 11.005,0 19.89062,8.88463 19.89062,19.89063 0,11.006 -8.88562,19.91797 -19.89062,19.91797 -11.005,0 -19.91797,-8.91197 -19.91797,-19.91797 0,-11.006 8.91397,-19.89063 19.91797,-19.89063 z"
   style="fill:#ffffff" />










</svg>
