<?xml version="1.0" encoding="UTF-8" standalone="no"?>
<!-- Generator: Adobe Illustrator 26.0.1, SVG Export Plug-In . SVG Version: 6.00 Build 0)  -->

<svg
   version="1.1"
   id="Layer_1"
   x="0px"
   y="0px"
   viewBox="0 0 2937.4868 1415.6801"
   xml:space="preserve"
   sodipodi:docname="system (cópia).svg"
   width="2937.4868"
   height="1415.6801"
   inkscape:version="1.1.2 (0a00cf5339, 2022-02-04)"
   xmlns:inkscape="http://www.inkscape.org/namespaces/inkscape"
   xmlns:sodipodi="http://sodipodi.sourceforge.net/DTD/sodipodi-0.dtd"
   xmlns="http://www.w3.org/2000/svg"
   xmlns:svg="http://www.w3.org/2000/svg"><defs
   id="defs175">
	
	

		
	
			
			
			
		
				
				
				
				
				
				
			
					
					
				
					
					
				
						
					
						
					
							
						
							
						
					
				
		
	
			
			
		
				
				
			
				
				
				
				
				
				
				
			</defs><sodipodi:namedview
   id="namedview173"
   pagecolor="#bababa"
   bordercolor="#666666"
   borderopacity="1.0"
   inkscape:pageshadow="2"
   inkscape:pageopacity="0.20784314"
   inkscape:pagecheckerboard="true"
   showgrid="false"
   fit-margin-top="0"
   fit-margin-left="0"
   fit-margin-right="0"
   fit-margin-bottom="0"
   inkscape:zoom="0.27389106"
   inkscape:cx="1203.0331"
   inkscape:cy="691.88093"
   inkscape:window-width="1920"
   inkscape:window-height="996"
   inkscape:window-x="0"
   inkscape:window-y="0"
   inkscape:window-maximized="1"
   inkscape:current-layer="Layer_1" />
<style
   type="text/css"
   id="style2">
	.st0{fill:#FFFFFF;}
	.st1{fill:#C2AC6D;}
	.st2{fill:#FCEA3C;}
	.st3{fill:#299DD8;}
</style>
<path
   id="path849"
   style="fill:#000000"
   class="st1"
   d="m 1774.2929,874.41016 c -8.914,0.17039 -17.8363,0.52841 -26.6914,1.61889 -31.8215,3.74955 -62.7429,14.45875 -90.2787,30.805 -42.9013,25.34154 -77.77,63.54088 -100.4963,107.77245 -11.4655,22.2188 -19.9669,45.9676 -25.1781,70.4228 -12.9821,-11.4141 -29.8134,-18.3642 -47.0758,-19.3701 -14.4468,-0.9053 -29.1193,2.3179 -41.8527,9.2037 -5.4021,2.8813 -10.4636,6.4003 -15.052,10.4535 -7.2213,-33.354 -20.5875,-65.4774 -39.9819,-93.60728 -20.3875,-29.72338 -47.2801,-54.97575 -78.3106,-73.32771 -29.822,-17.72898 -63.2523,-29.22941 -97.5806,-34.10317 -34.8288,-5.01903 -70.5851,-3.67527 -104.9095,4.10317 -30.9316,7.0663 -60.6819,19.57893 -87.015,37.32776 -29.08138,19.50774 -54.02542,45.18272 -72.53293,74.92123 -18.39128,29.3919 -30.63561,62.5184 -36.40664,96.6794 -5.59314,32.6308 -5.69962,66.1711 -0.59265,98.8712 0.82283,5.1613 1.78381,10.3003 2.88846,15.4088 -14.14193,0 -28.28385,0 -42.42578,0 -0.70234,7.2665 -0.95584,14.5707 -0.83789,21.8692 -0.44001,2.2028 -0.89368,4.2371 -1.46426,6.4197 -5.19896,20.0964 -15.75641,38.7715 -30.28184,53.5998 -0.28475,0.2745 -0.85103,0.8471 -1.24355,1.2356 -11.2852,11.1885 -24.97168,20.0435 -40.01621,25.2449 -0.45234,0.1439 -1.24727,0.4171 -1.83203,0.6074 -6.51559,2.1134 -13.27122,3.4825 -20.09375,4.0898 -1.14565,0.095 -2.53972,0.194 -3.78516,0.2481 -1.00849,0.054 -2.28632,0.056 -3.3991,0.068 -11.31155,0.077 -22.62352,-0.018 -33.93527,0.012 -8.27786,-0.021 -16.56232,0.039 -24.83555,-0.1534 -3.16736,-0.6595 -5.52939,-3.9072 -5.16126,-7.1277 -0.0797,-6.2572 0.0178,-12.5152 -0.0297,-18.7727 0.005,-40.2285 0.0101,-80.457 0.0152,-120.6856 8.04671,1.564 15.56375,5.8023 20.96056,11.9885 6.13527,6.8883 10.10189,15.4373 12.77116,24.1983 1.7926,5.8869 3.01728,12.0014 3.81799,18.0333 0.52599,3.9423 0.90283,8.189 1.09914,12.2953 0.38983,8.5339 0.22615,17.0829 0.39021,25.6194 0.53566,4.3003 4.76642,7.7932 9.10586,7.3492 19.25143,-0.079 38.50313,-0.016 57.75469,-0.037 0.44395,-0.1894 0.0832,-1.1835 0.2,-1.7 0,-91.5668 0,-183.1336 0,-274.7004 -22.42904,0 -44.85808,0 -67.28711,0 -0.0944,9.4634 0.12469,18.9287 -0.11328,28.3906 -0.23343,9.9225 -1.40288,19.9983 -4.0055,29.6452 -2.27046,8.2907 -5.66389,16.4178 -10.99125,23.2292 -2.89294,3.6521 -6.38052,6.8594 -10.38411,9.2585 -0.5323,0.3103 -1.34135,0.7749 -2.00701,1.1031 -3.62091,1.8078 -7.52174,3.039 -11.51057,3.7094 0,-44.7468 0,-89.4935 0,-134.24028 20.07447,0.0273 40.15098,-0.0867 60.22373,0.19161 3.9189,0.18349 7.88617,0.55134 11.69473,1.10583 0.92976,0.13706 1.88384,0.28566 2.71826,0.42912 6.11544,1.05339 12.14522,2.66721 17.90625,4.98438 0.38694,0.16777 0.9914,0.40669 1.43772,0.60405 2.15037,0.92258 4.46496,2.06068 6.59555,3.26231 7.55349,4.21219 14.22605,9.98626 19.43548,16.8934 2.67866,3.50732 5.07287,7.40522 7.02539,11.25978 2.69105,5.3127 4.87218,11.1018 6.46335,16.9247 2.08427,7.6348 3.29558,15.5032 3.63821,23.4093 0.0493,1.1767 0.0949,2.6018 0.10275,3.8773 -0.0259,2.3685 -0.0439,4.7742 0.65625,7.064 2.23787,8.1727 10.03341,14.6492 18.58585,14.8232 7.09764,0.1448 14.19754,0.028 21.29617,0.071 9.40677,0 18.81354,0 28.22031,0 0,-60.4004 0,-120.80077 0,-181.20116 -138.42904,0 -276.85807,0 -415.28711,0 -1.41232,0.24035 -2.85591,0.0335 -4.28164,0.11718 -53.67695,10e-6 -107.35391,0 -161.03086,0 0,22.22071 0,44.44141 0,66.66211 14.9577,0.28672 29.92047,-0.0635 44.87695,0.30665 6.1408,0.89029 11.38901,5.04932 14.72494,10.1374 3.32208,4.95603 4.75052,11.03496 4.42921,16.96142 -0.0357,53.9664 -0.029,107.9328 -0.0311,161.8992 -69.57055,-85.3227 -139.13921,-170.64697 -208.71094,-255.96873 -61.46354,0 -122.927078,0 -184.39062,0 0,22.23893 0,44.47787 0,66.7168 8.277768,0.33206 16.561404,-0.0993 24.840102,0.13015 4.176802,0.11462 8.331926,1.03084 12.114481,2.82154 9.795915,4.51634 17.136451,13.54068 20.437537,23.71986 1.674556,5.05191 2.307736,10.40569 2.136927,15.71439 -0.05065,108.11289 -0.0059,216.22629 -0.09406,324.33889 -0.265865,4.5591 -3.080879,8.7528 -6.973857,11.0571 -5.735078,3.869 -12.555763,5.7499 -19.323902,6.8057 -8.094939,1.1056 -16.28407,0.5801 -24.425097,0.7359 -2.904043,0.022 -5.808097,0.042 -8.712128,0.065 0,22.2312 0,44.4623 0,66.6934 69.933594,0 139.867177,0 209.800777,0 0,-22.1738 0,-44.3477 0,-66.5215 -9.42287,-0.197 -18.84895,-0.1648 -28.27149,-0.3789 -7.99131,-0.2396 -16.22422,-0.5831 -24.1325,-2.2965 -1.89713,-0.4148 -4.03017,-1.0143 -5.95734,-1.7386 -4.06093,-1.3823 -7.78819,-4.3726 -9.16526,-8.5447 -1.18124,-3.0683 -1.69193,-6.5302 -1.93044,-9.68 -0.11139,-1.4734 -0.16402,-2.8957 -0.21485,-4.2949 -0.19875,-10.0395 -0.0944,-20.0827 -0.12121,-30.1238 -0.006,-70.6736 -0.005,-141.3471 -0.008,-212.0207 93.54406,114.0666 187.08978,228.1318 280.63281,342.1992 17.55599,0 35.11198,0 52.66797,0 0.0125,-145.1653 0.0172,-290.3313 0.0593,-435.49626 0.4309,-7.8823 5.81701,-15.17013 13.12019,-18.09336 2.49523,-1.08385 5.16296,-1.72425 7.85368,-2.0842 0.36112,-0.0422 1.11521,-0.13417 1.62305,-0.17969 0.62764,-0.067 1.56476,-0.11345 2.31389,-0.15712 2.78791,-0.002 5.59583,-0.2856 8.24892,-1.18486 1.34697,-0.40541 2.62987,-1.04216 3.90242,-1.59142 9.28109,0.0469 18.57147,-0.17348 27.84548,0.20613 4.18406,0.9623 7.38228,4.35541 9.2553,8.07993 1.65796,3.35301 2.04071,7.1775 1.79523,10.86766 -0.037,114.77379 -1.7e-4,229.54779 -0.0874,344.32139 -0.11859,4.714 -0.69763,9.6717 -3.33242,13.7083 -2.38313,3.1878 -6.41061,4.5242 -10.20399,5.0718 -1.73756,0.2678 -3.66795,0.4087 -5.31163,0.4829 -5.80423,0.1528 -11.61158,0 -17.41719,0.048 -8.95469,0 -17.90937,-0.01 -26.86406,-0.01 0,23.1348 0,46.2696 0,69.4043 141.90625,0 283.8125,0 425.71875,0 6.72456,-45.6633 13.44782,-91.3268 20.17187,-136.9902 14.73969,31.8533 36.05993,60.7004 62.51385,83.7999 27.60949,24.1842 60.60059,42.1026 95.79159,52.4672 38.0085,11.2487 78.3866,14.0458 117.6613,8.9849 32.7034,-4.2203 64.6953,-14.3352 93.6384,-30.1822 31.2544,-17.083 58.8057,-40.9154 80.138,-69.446 19.3989,-25.9247 33.6361,-55.6149 42.2247,-86.8113 2.0598,-7.4669 3.7934,-15.0229 5.2177,-22.6367 12.8946,10.887 29.3623,17.5119 46.2331,18.3653 18.0565,1.015 36.4558,-4.3474 50.969,-15.181 1.6356,-1.2059 3.2277,-2.4717 4.7627,-3.8035 6.2994,31.5906 18.0799,62.1798 35.4126,89.3763 18.977,29.9211 44.4033,55.7213 74.0397,75.1399 32.4342,21.3705 69.6367,35.3274 108.0261,41.0753 21.034,3.1698 42.4065,3.8122 63.6266,2.5326 44.5031,-2.3267 88.7204,-11.3469 130.3456,-27.3317 14.9236,-5.7883 29.4152,-12.6536 43.5084,-20.2338 0.016,-48.089 -0.046,-96.1792 0.1103,-144.2675 0.2356,-2.6904 0.5886,-5.69 2.6143,-7.6796 3.3101,-2.6888 7.6696,-3.3907 11.7595,-4.0295 4.92,-0.6864 9.8232,-0.6034 14.7742,-0.662 8.7572,-0.1009 16.7255,-6.8196 18.9225,-15.1957 1.0542,-3.8405 0.4784,-7.8518 0.6217,-11.775 0,-14.5684 -0.01,-29.1368 -0.01,-43.7051 -87.7663,0 -175.5326,0 -263.2988,0 0,23.5032 0,47.0065 0,70.5098 15.3659,0.3824 30.7416,-0.058 46.1054,0.4005 2.2911,0.2232 4.7007,0.3664 6.7461,1.5311 0.9315,1.2714 1.0063,2.9324 1.3348,4.4243 0.936,6.5424 0.503,13.1692 0.5973,19.753 0.01,29.228 0.01,58.456 0.01,87.684 -8.8747,3.8294 -18.5067,5.5646 -28.0958,6.3505 -1.5613,0.1117 -3.1485,0.2049 -4.624,0.2492 -6.0577,0.2129 -12.2579,-0.1244 -18.1767,-1.002 -8.6196,-1.2339 -17.1307,-3.4291 -25.1406,-6.8711 -1.4026,-0.606 -2.9919,-1.3435 -4.4294,-2.0796 -7.2186,-3.6337 -13.8193,-8.5464 -19.1427,-14.6451 -4.4158,-4.9822 -8.0062,-10.6447 -11.0002,-16.5781 -0.4401,-0.8887 -0.9988,-2.022 -1.4595,-3.0167 -5.8062,-12.6154 -9.4521,-26.1095 -12.1405,-39.6989 -3.7871,-19.3699 -5.6514,-39.0626 -6.7203,-58.7531 -0.9151,-18.4038 -1.2659,-36.953 -0.8629,-55.4426 0.1989,-10.2373 0.7821,-20.6383 1.6559,-30.8523 0.8715,-9.9576 2.0851,-19.8875 3.752,-29.7442 0.2498,-1.3735 0.5159,-2.9775 0.7739,-4.352 2.5537,-13.8442 6.0722,-27.687 10.9878,-40.7964 2.9305,-7.7637 6.3938,-15.336 10.5351,-22.5312 0.7666,-1.3118 1.6538,-2.81224 2.5201,-4.16507 4.9323,-7.84886 10.8363,-15.12976 17.8022,-21.26662 0.5579,-0.4813 1.4307,-1.23841 1.9858,-1.68803 1.6148,-1.32934 3.2833,-2.59257 5.0005,-3.78658 0.5446,-0.37821 1.3619,-0.92443 2.0211,-1.35135 11.6164,-7.60867 25.3498,-11.62838 39.1501,-12.50982 1.974,-0.13845 3.8965,-0.22713 5.8163,-0.23453 5.2429,-0.0376 10.4745,0.59144 15.6043,1.65039 0.4848,0.10186 1.2179,0.25385 1.7358,0.37561 1.6961,0.37384 3.3154,0.79117 5.067,1.25525 9.6625,2.57076 18.9922,6.34822 27.7675,11.13476 1.1496,0.64089 2.5071,1.3894 3.7185,2.11129 15.0964,8.86072 28.35,20.75154 39.0628,34.5767 9.4789,12.1607 17.0924,25.7088 23.0571,39.9098 2.6131,6.1633 4.8922,12.4625 6.9758,18.8223 1.1645,3.6053 3.4251,6.816 6.3822,9.1769 4.074,3.307 9.3955,4.9775 14.6278,4.6792 12.5832,-0.046 25.1677,-0.01 37.7501,-0.022 5.4223,-0.3769 9.8807,-5.6915 9.3789,-11.0898 -0.06,-48.2069 -0.013,-96.41383 -0.027,-144.62073 0,-15.59844 0,-31.19687 0,-46.79531 -22.0091,0 -44.0182,0 -66.0273,0 -1.1092,7.10589 -1.8409,14.26409 -2.8745,21.37985 -0.2089,1.10036 -0.3608,2.25384 -0.9419,3.23343 -1.4659,0.34125 -2.9214,0.14148 -4.4056,0.009 -6.3124,-0.85795 -12.0971,-3.68703 -17.9934,-5.92739 -35.0629,-13.7943 -72.6744,-20.67579 -110.2925,-21.52435 -3.3668,-0.0996 -6.7402,-0.093 -10.104,-0.19842 -0.2526,-0.0414 -0.5094,-0.0645 -0.7651,-0.0679 z m 896.0313,6.91015 c -37.7783,0.44204 -75.596,8.19161 -110.085,23.74311 -36.9008,16.59865 -69.7835,42.165 -94.6709,74.09478 -23.5785,30.1945 -40.0626,65.7821 -48.4454,103.1328 -8.0729,35.5712 -9.337,72.6025 -4.3612,108.711 0.9848,6.9057 2.1858,13.7814 3.6699,20.5976 -14.1022,0 -28.2044,0 -42.3067,0 -0.7151,7.2656 -1.0029,14.5696 -0.8769,21.8692 -2.9667,15.0318 -8.9698,29.4305 -17.3887,42.2226 -0.347,0.5041 -0.8678,1.293 -1.2857,1.9043 -11.549,16.8114 -27.4844,30.7649 -46.1463,39.1373 -1.6326,0.7345 -3.1485,1.3598 -4.8409,2.0156 -2.1044,0.8105 -4.2702,1.5561 -6.3451,2.1952 -2.3365,0.7259 -4.8756,1.3834 -7.1535,1.898 -4.1733,0.9324 -8.5853,1.5855 -12.7382,1.8965 -0.9607,0.072 -2.1035,0.1338 -2.9574,0.1712 -7.4876,0.1594 -14.9789,0.083 -22.468,0.085 -12.7468,-0.071 -25.4961,0.1564 -38.2408,-0.1393 -1.112,0.065 -2.2348,-0.1225 -3.1793,-0.7448 -2.1695,-1.27 -3.5662,-3.8041 -3.2837,-6.3301 -0.097,-10.0715 -0.016,-20.1438 -0.045,-30.2157 0.01,-36.4382 0.012,-72.8765 0.018,-109.3148 3.5656,0.708 7.033,1.9173 10.2559,3.5996 1.0005,0.5155 2.1907,1.2175 3.2174,1.8852 7.322,4.8208 12.5649,12.2174 16.2247,20.0725 3.1682,6.7899 5.2514,14.04 6.677,21.3822 0.3512,1.8318 0.6959,3.875 0.9718,5.8007 1.2004,8.1531 1.508,16.1986 1.5555,24.4315 0.078,7.4263 0.1071,14.853 0.1563,22.2795 22.3796,0 44.7591,0 67.1387,0 0,-92.1335 0,-184.267 0,-276.4004 -22.4258,0 -44.8516,0 -67.2774,0 -0.137,9.6115 0.031,19.3205 -0.2422,28.8711 -0.1593,6.1715 -0.6776,12.3364 -1.6816,18.4297 -0.2523,1.5311 -0.5678,3.2768 -0.9058,4.8798 -1.611,7.7102 -4.1052,15.494 -8.0023,22.4694 -1.3017,2.3214 -2.6727,4.4692 -4.3376,6.5738 -4.6916,5.9677 -11.1042,10.6942 -18.442,12.8097 -0.7492,0.2306 -1.6524,0.4856 -2.2544,0.6264 -1.0764,0.2705 -2.1641,0.4916 -3.2571,0.6838 0,-44.7487 0,-89.4974 0,-134.24606 20.0686,0.0237 40.1392,-0.0846 60.2061,0.19135 7.1618,0.3411 14.3122,1.24523 21.2783,2.96685 1.4695,0.36494 3.1494,0.82692 4.6813,1.29758 3.3404,1.02426 6.7631,2.3314 9.8343,3.76492 11.053,5.05841 20.5819,13.36378 27.0923,23.62933 3.1946,4.92991 5.7781,10.24303 7.8198,15.74763 0.5166,1.3904 1.0709,3.0084 1.541,4.5078 2.6572,8.5268 4.2745,17.5646 4.6543,26.3789 0.2384,8.0837 0.07,16.302 0.1953,24.4395 0.01,0.6588 0.016,1.3177 0.023,1.9765 22.8919,0 45.7838,0 68.6757,0 0,-60.4004 0,-120.80075 0,-181.20114 -141.1998,0 -282.3997,0 -423.5996,0 0,22.23047 0,44.46093 0,66.6914 17.3059,0.0916 34.6136,-0.15044 51.918,0.16797 4.2463,0.86389 7.5025,4.26592 9.4336,7.99219 1.8131,3.55657 2.1092,7.65231 1.8496,11.57344 -0.01,114.80374 -0.017,229.60774 -0.067,344.41124 -0.05,1.1366 -0.1317,2.28 -0.2452,3.3153 -0.408,3.6311 -1.2673,7.3965 -3.5509,10.3343 -2.7881,3.1144 -7.0713,4.2294 -11.0822,4.6632 -5.0264,0.5624 -10.0949,0.3062 -15.1414,0.3495 -9.9927,-0.022 -19.9856,0.02 -29.9785,0 -1.0465,0 -2.093,0 -3.1395,0 0,23.1335 0,46.2669 0,69.4004 141.9063,0 283.8125,0 425.7188,0 6.7175,-45.6229 13.4334,-91.2461 20.1504,-136.8691 14.4645,31.1907 35.2157,59.5106 60.953,82.3421 26.4841,23.5778 58.0397,41.3566 91.8129,52.1104 35.9126,11.4756 74.1498,15.2619 111.6658,11.9351 31.2345,-2.7763 62.0555,-10.7612 90.489,-24.0355 29.771,-13.872 56.8055,-33.6088 78.9904,-57.8356 19.9528,-21.7337 35.8916,-47.0801 47.1762,-74.3254 8.4805,-20.3997 14.3228,-41.8637 17.6581,-63.6949 4.7671,-30.9919 4.5893,-62.713 -0.2123,-93.689 -5.4789,-34.6289 -17.3969,-68.3398 -35.7622,-98.2535 -19.6686,-32.10063 -46.6403,-59.7286 -78.4,-79.96559 -31.9133,-20.40357 -68.3811,-33.46321 -105.8729,-38.62917 -14.3818,-2.00349 -28.913,-2.88584 -43.4316,-2.76953 z m -1499.8477,79.2793 c 1.4938,0.003 3.1454,0.0547 4.4356,0.12891 11.5996,0.65778 23.1203,4.09478 32.871,10.48061 11.308,7.3052 20.1822,17.85282 27.0226,29.34267 7.6266,12.8604 13.007,26.9381 17.0627,41.2951 2.7421,9.7461 4.8681,19.6164 6.5704,29.6522 1.0023,5.9577 1.847,11.9985 2.5572,18.0009 2.8817,24.7483 3.5496,49.6058 2.9813,74.5126 -0.2164,8.2732 -0.6002,16.5241 -1.205,24.8018 -1.2057,16.4207 -3.2798,32.9318 -6.6876,49.1007 -1.2534,5.9549 -2.7027,11.92 -4.3936,17.828 -1.6456,5.7782 -3.601,11.6859 -5.7738,17.3784 -1.6667,4.3781 -3.5503,8.742 -5.556,12.8941 -1.9279,3.9866 -4.1326,8.0175 -6.4004,11.7012 -6.6396,10.738 -15.0631,20.6031 -25.6896,27.5651 -3.8914,2.5543 -8.0445,4.7172 -12.3964,6.3743 -0.7445,0.2742 -1.7498,0.6457 -2.6117,0.9217 -12.2141,4.0844 -25.5122,4.624 -38.1051,2.0747 -1.8571,-0.3911 -3.6449,-0.8431 -5.4067,-1.3592 -2.476,-0.7224 -4.9024,-1.6114 -7.271,-2.6313 -0.7939,-0.3515 -1.8434,-0.8166 -2.7206,-1.2569 -11.3715,-5.5455 -20.813,-14.4719 -28.1843,-24.6576 -5.4291,-7.4622 -9.8092,-15.636 -13.5404,-24.0621 -0.3049,-0.7199 -0.7377,-1.7149 -1.0917,-2.5404 -5.5636,-13.2404 -9.457,-27.1265 -12.381,-41.1705 -0.8077,-3.946 -1.5963,-8.0913 -2.2663,-12.1381 -0.715,-4.2492 -1.3693,-8.6966 -1.9182,-12.979 -0.9452,-7.2685 -1.6698,-14.5618 -2.2393,-21.8048 -0.5877,-7.7192 -0.982,-15.5663 -1.2305,-23.2851 -0.3678,-12.1234 -0.3492,-24.2571 -0.01,-36.3809 0.124,-4.1645 0.3035,-8.5238 0.532,-12.6864 0.4443,-8.2916 1.116,-16.4388 1.9827,-24.6861 2.2349,-20.3038 5.9026,-40.6627 12.2817,-60.1874 4.5795,-13.8687 10.5587,-27.3994 18.9493,-39.40729 6.657,-9.49222 14.9973,-17.96746 25.0609,-23.83357 1.3074,-0.76578 2.843,-1.58522 4.2871,-2.2793 9.3915,-4.5575 19.8559,-6.69345 30.2696,-6.7038 0.072,-3.5e-4 0.1432,-0.004 0.2148,-0.003 z m 1503.1895,0 c 1.4635,0.0254 2.8968,0.04 4.2781,0.12325 12.6832,0.66315 25.2749,4.7323 35.591,12.21659 0.4557,0.33858 1.1986,0.86385 1.7522,1.29269 11.2046,8.53567 19.7222,20.13675 26.1975,32.54526 3.0168,5.7616 5.6251,11.7308 7.9351,17.8085 0.3228,0.8898 0.7104,1.8883 1.0357,2.8076 3.396,9.3844 6.1034,19.2599 8.2539,29.0131 2.1893,9.975 3.8916,20.2666 5.1713,30.4879 1.0056,8.1531 1.7816,16.5233 2.3271,24.7926 0.4176,6.2375 0.7123,12.6303 0.8989,18.9371 0.3618,12.4559 0.3315,25.0724 -0.035,37.5863 -0.3954,12.3896 -1.2213,24.992 -2.61,37.3252 -0.6419,5.7046 -1.4074,11.3992 -2.3001,17.0223 -0.9183,5.754 -2.0057,11.5903 -3.2244,17.2193 -0.6376,2.9122 -1.3523,5.9792 -2.0546,8.7676 -2.9511,11.5977 -6.7268,23.171 -11.7315,34.1317 -1.01,2.2234 -2.0774,4.4229 -3.162,6.5322 -6.2509,12.1129 -14.3527,23.5078 -25.0455,32.0951 -7.743,6.3169 -16.9435,10.8237 -26.6906,13.0342 -9.753,2.2338 -19.9563,2.4196 -29.8085,0.7211 -9.3976,-1.6891 -18.4751,-5.3165 -26.2747,-10.8517 -8.5957,-6.0065 -15.7385,-13.9029 -21.5704,-22.5766 -0.2709,-0.4054 -0.734,-1.1138 -1.0785,-1.6352 -8.8241,-13.7274 -14.8437,-29.0708 -19.295,-44.7173 -0.9109,-3.2013 -1.7348,-6.3833 -2.5085,-9.5709 -1.0736,-4.4724 -2.0156,-8.8624 -2.8825,-13.3914 -0.9796,-5.0724 -1.8418,-10.3711 -2.5734,-15.4489 -0.6716,-4.7827 -1.279,-9.4604 -1.7815,-14.293 -1.0952,-10.4407 -1.811,-20.8929 -2.218,-31.3572 -0.5528,-14.4609 -0.5542,-29.1419 -0.062,-43.6159 0.3001,-8.6184 0.8139,-17.3225 1.5617,-25.855 0.4523,-5.1178 1.0133,-10.3306 1.6386,-15.3633 2.8621,-22.2594 7.4251,-44.4662 15.8092,-65.3529 4.957,-12.3071 11.3001,-24.18228 19.8432,-34.39123 0.7571,-0.89465 1.6914,-1.96682 2.5469,-2.90429 7.8036,-8.60394 17.5869,-15.54589 28.6165,-19.32796 7.5184,-2.64832 15.4991,-3.75586 23.4499,-3.80681 z" /><g
   id="g591"
   transform="translate(24.001933)"
   style="fill:#ffffff"><path
     class="st1"
     d="M 472.3,910.2 H 329.1 V 929 h 18.7 c 25,0 45.3,23.3 45.3,48.3 v 232.3 L 149,910.2 H 0 V 929 c 33.3,0 59.5,30 59.5,63.4 v 325.5 c 0,33.3 -35.1,44.3 -59.5,44.3 v 18.8 h 161.8 v -18.8 c -30.3,-0.2 -46.3,-4.3 -56.7,-14.1 C 94.8,1338.3 92,1325.3 92,1307.4 v -305.1 l 316,385.3 h 17.3 v -410 c 0,-24.3 19,-44.9 47,-45.9 z"
     id="path16"
     style="fill:#ffffff" /><circle
     class="st1"
     cx="1455.8"
     cy="1144.1"
     r="54.599998"
     id="circle18"
     style="fill:#ffffff" /><g
     id="g22"
     style="fill:#ffffff">
					<path
   class="st1"
   d="m 1771.6,1160.8 v 22.7 h 17.8 c 28.9,0 37,13.9 37,38.8 v 111.3 c -6.6,8 -29.1,18.2 -61,18.2 -6.5,0 -43.3,-0.7 -70.8,-23.3 -28.8,-23.6 -48.2,-71.5 -48.2,-185.3 0,-148.2 52.1,-210.9 127.7,-210.9 24.6,0 107.9,16.6 143.4,123.7 h 22.2 V 901.5 h -21 c -2.7,20.8 -19.1,32.3 -50.1,19.4 -46.8,-19.5 -88.7,-22.4 -119.4,-22.4 -120.9,0 -223.8,111.9 -223.8,245.6 0,154 116.3,244.2 241.1,244.2 59.2,0 121.9,-13.7 171.6,-38.8 v -127.2 c 0,-29.8 20.8,-38.8 48.8,-38.8 v -22.7 z"
   id="path20"
   style="fill:#ffffff" />
				</g><g
     id="g32"
     style="fill:#ffffff">
					<path
   class="st1"
   d="m 870,1235.7 c -11.7,64.5 -67.3,114.9 -129.7,113.3 h -53.8 c -16.9,0 -30.6,-13.7 -30.6,-30.6 v -165 h 14.8 c 44,0 72.1,36.9 72.1,100.3 H 762 v -112.4 -5.7 -110.3 h -19.3 c 0,55.8 -23.6,96.1 -72.2,96.1 h -14.8 v -183 h 77.4 c 104.2,0 107.8,92.9 107.8,104.9 h 20.8 V 942.4 910.1 H 486.1 v 18.7 h 26.5 c 20.3,0 36.7,19.2 36.7,39.4 v 346.6 c 0,36.5 -23.9,44.8 -44.2,44.8 h -19 v 21.4 h 63.2 317.8 l 21.4,-145.4 H 870 Z"
   id="path24"
   style="fill:#ffffff" />
					<g
   id="g30"
   style="fill:#ffffff">
						<g
   id="g28"
   style="fill:#ffffff">
							<path
   class="st1"
   d="m 1146.4,905.3 c -135.5,0 -239.8,99.8 -239.8,243.2 0,143.4 104.4,243.2 239.8,243.2 135.5,0 239.9,-99.8 239.9,-243.2 0,-143.4 -104.4,-243.2 -239.9,-243.2 z m 0,454.9 c -65.1,0 -117.8,-59.6 -117.8,-211.8 0,-152.2 52.8,-211.8 117.8,-211.8 65.1,0 117.8,59.6 117.8,211.8 0.1,152.2 -52.7,211.8 -117.8,211.8 z"
   id="path26"
   style="fill:#ffffff" />
						</g>
					</g>
				</g><g
     id="g42"
     style="fill:#ffffff">
					<path
   class="st1"
   d="m 2373.3,1235.7 c -11.7,64.5 -67.3,114.9 -129.7,113.3 h -53.8 c -16.9,0 -30.6,-13.7 -30.6,-30.6 v -165 h 14.8 c 44,0 72.1,36.9 72.1,100.3 h 19.3 v -112.4 -5.7 -110.3 H 2246 c 0,55.8 -23.6,96.1 -72.2,96.1 H 2159 v -183 h 77.4 c 104.2,0 107.8,92.9 107.8,104.9 H 2365 V 942.4 910.1 h -375.6 v 18.7 h 26.5 c 20.3,0 36.7,19.2 36.7,39.4 v 346.6 c 0,36.5 -23.9,44.8 -44.2,44.8 h -19 v 21.4 h 63.2 317.8 l 21.4,-145.4 h -18.5 z"
   id="path34"
   style="fill:#ffffff" />
					<g
   id="g40"
   style="fill:#ffffff">
						<g
   id="g38"
   style="fill:#ffffff">
							<path
   class="st1"
   d="m 2649.6,905.3 c -135.5,0 -239.8,99.8 -239.8,243.2 0,143.4 104.4,243.2 239.8,243.2 135.5,0 239.9,-99.8 239.9,-243.2 0,-143.4 -104.4,-243.2 -239.9,-243.2 z m 0,454.9 c -65.1,0 -117.8,-59.6 -117.8,-211.8 0,-152.2 52.8,-211.8 117.8,-211.8 65.1,0 117.8,59.6 117.8,211.8 0.2,152.2 -52.7,211.8 -117.8,211.8 z"
   id="path36"
   style="fill:#ffffff" />
						</g>
					</g>
				</g></g><path
   id="polygon144"
   d="M 1078.4023 12.099609 L 876.50195 213.90039 L 876.50195 561.5 L 1122.3027 807.30078 L 1470.002 807.30078 L 1659.8027 617.5 L 1859.1016 816.80078 L 2061.002 614.90039 L 2061.002 267.40039 L 1815.2012 21.599609 L 1467.502 21.599609 L 1277.7012 211.40039 L 1078.4023 12.099609 z M 1078.4023 72.300781 L 1611.6016 605.40039 L 1452.3027 764.69922 L 1140.002 764.69922 L 919.10156 543.90039 L 919.10156 231.59961 L 1078.4023 72.300781 z M 1678.2012 146.69922 L 1719.9023 151.80078 L 1733.9023 183.30078 L 1710.1016 216.59961 L 1670.1016 210.40039 L 1658.4023 178.90039 L 1678.2012 146.69922 z M 1585.7012 237 L 1625.2012 276.59961 L 1628.9023 335.90039 L 1572.8027 357.5 L 1523.8027 315.80078 L 1529.3027 249.40039 L 1585.7012 237 z M 1902.4023 334.30078 L 1924.7012 452.19922 L 1919.3027 490 L 1875.3027 505.30078 L 1862.8027 567.59961 L 1785.2012 577.19922 L 1746.7012 546.40039 L 1735.7012 480.09961 L 1796.9023 453.69922 L 1806.2012 424.90039 L 1799.8027 352.59961 L 1902.4023 334.30078 z "
   style="fill:#ffffff" /><path
   class="st0"
   d="m 1078.4019,24.1 199.3,199.3 193.3,-193.3 h 340.5 l 240.8,240.8 v 340.5 l -193.3,193.3 -199.3,-199.3 -193.3,193.3 h -340.5 L 885.10193,558 V 217.4 L 1078.4019,24.1 m 0,-24.1 -12.1,12.1 -193.29997,193.3 -5,5 v 7.1 340.5 7.1 l 5,5 240.79997,240.8 5,5 h 7.1 340.5 7.1 l 5,-5 181.3,-181.3 187.2,187.2 12.1,12.1 12.1,-12.1 193.3,-193.3 5,-5 v -7.1 -340.5 -7.1 l -5,-5 -240.8,-240.8 -5,-5 h -7.1 -340.5 -7.1 l -5,5 -181.3,181.3 -187.2,-187.2 z"
   id="path146"
   style="fill:#000000" /><path
   id="polygon152"
   d="M 1184.3027 273.40039 L 1153.002 274.90039 L 1133.7012 314.69922 L 1161.3027 358.90039 L 1201.6016 352.30078 L 1217.502 315.40039 L 1184.3027 273.40039 z M 1031.2012 385.59961 L 1011.002 402 L 1012.7012 425.19922 L 1034.4023 438.59961 L 1067.9023 414.40039 L 1055.7012 388.09961 L 1031.2012 385.59961 z M 1359.6016 484.59961 L 1343.4023 566.69922 L 1318.9023 617.59961 L 1273.8027 650.19922 L 1210.1016 656.80078 L 1146.3027 639.90039 L 1222.9023 688.69922 L 1281.9023 688.30078 L 1321.8027 668.19922 L 1365.4023 612.80078 L 1376.4023 567.40039 L 1359.6016 484.59961 z "
   style="fill:#ffffff" />
</svg>
