<?xml version="1.0" encoding="UTF-8" standalone="no"?>
<!-- Generator: Adobe Illustrator 26.0.1, SVG Export Plug-In . SVG Version: 6.00 Build 0)  -->

<svg
   version="1.1"
   id="Layer_1"
   x="0px"
   y="0px"
   viewBox="0 0 2889.5 1391.7"
   xml:space="preserve"
   sodipodi:docname="system.svg"
   width="2889.5"
   height="1391.7"
   inkscape:version="1.1.2 (0a00cf5339, 2022-02-04)"
   xmlns:inkscape="http://www.inkscape.org/namespaces/inkscape"
   xmlns:sodipodi="http://sodipodi.sourceforge.net/DTD/sodipodi-0.dtd"
   xmlns="http://www.w3.org/2000/svg"
   xmlns:svg="http://www.w3.org/2000/svg"><defs
   id="defs175">
	
	

		
	
			
			
			
		
				
				
				
				
				
				
			</defs><sodipodi:namedview
   id="namedview173"
   pagecolor="#ffffff"
   bordercolor="#666666"
   borderopacity="1.0"
   inkscape:pageshadow="2"
   inkscape:pageopacity="0.0"
   inkscape:pagecheckerboard="0"
   showgrid="false"
   fit-margin-top="0"
   fit-margin-left="0"
   fit-margin-right="0"
   fit-margin-bottom="0"
   inkscape:zoom="0.38734045"
   inkscape:cx="1919.5"
   inkscape:cy="882.94418"
   inkscape:window-width="1920"
   inkscape:window-height="995"
   inkscape:window-x="0"
   inkscape:window-y="0"
   inkscape:window-maximized="1"
   inkscape:current-layer="Layer_1" />
<style
   type="text/css"
   id="style2">
	.st0{fill:#FFFFFF;}
	.st1{fill:#C2AC6D;}
	.st2{fill:#FCEA3C;}
	.st3{fill:#299DD8;}
</style>
<g
   id="g591"><path
     class="st1"
     d="M 472.3,910.2 H 329.1 V 929 h 18.7 c 25,0 45.3,23.3 45.3,48.3 v 232.3 L 149,910.2 H 0 V 929 c 33.3,0 59.5,30 59.5,63.4 v 325.5 c 0,33.3 -35.1,44.3 -59.5,44.3 v 18.8 h 161.8 v -18.8 c -30.3,-0.2 -46.3,-4.3 -56.7,-14.1 C 94.8,1338.3 92,1325.3 92,1307.4 v -305.1 l 316,385.3 h 17.3 v -410 c 0,-24.3 19,-44.9 47,-45.9 z"
     id="path16" /><circle
     class="st1"
     cx="1455.8"
     cy="1144.1"
     r="54.599998"
     id="circle18" /><g
     id="g22">
					<path
   class="st1"
   d="m 1771.6,1160.8 v 22.7 h 17.8 c 28.9,0 37,13.9 37,38.8 v 111.3 c -6.6,8 -29.1,18.2 -61,18.2 -6.5,0 -43.3,-0.7 -70.8,-23.3 -28.8,-23.6 -48.2,-71.5 -48.2,-185.3 0,-148.2 52.1,-210.9 127.7,-210.9 24.6,0 107.9,16.6 143.4,123.7 h 22.2 V 901.5 h -21 c -2.7,20.8 -19.1,32.3 -50.1,19.4 -46.8,-19.5 -88.7,-22.4 -119.4,-22.4 -120.9,0 -223.8,111.9 -223.8,245.6 0,154 116.3,244.2 241.1,244.2 59.2,0 121.9,-13.7 171.6,-38.8 v -127.2 c 0,-29.8 20.8,-38.8 48.8,-38.8 v -22.7 z"
   id="path20" />
				</g><g
     id="g32">
					<path
   class="st1"
   d="m 870,1235.7 c -11.7,64.5 -67.3,114.9 -129.7,113.3 h -53.8 c -16.9,0 -30.6,-13.7 -30.6,-30.6 v -165 h 14.8 c 44,0 72.1,36.9 72.1,100.3 H 762 v -112.4 -5.7 -110.3 h -19.3 c 0,55.8 -23.6,96.1 -72.2,96.1 h -14.8 v -183 h 77.4 c 104.2,0 107.8,92.9 107.8,104.9 h 20.8 V 942.4 910.1 H 486.1 v 18.7 h 26.5 c 20.3,0 36.7,19.2 36.7,39.4 v 346.6 c 0,36.5 -23.9,44.8 -44.2,44.8 h -19 v 21.4 h 63.2 317.8 l 21.4,-145.4 H 870 Z"
   id="path24" />
					<g
   id="g30">
						<g
   id="g28">
							<path
   class="st1"
   d="m 1146.4,905.3 c -135.5,0 -239.8,99.8 -239.8,243.2 0,143.4 104.4,243.2 239.8,243.2 135.5,0 239.9,-99.8 239.9,-243.2 0,-143.4 -104.4,-243.2 -239.9,-243.2 z m 0,454.9 c -65.1,0 -117.8,-59.6 -117.8,-211.8 0,-152.2 52.8,-211.8 117.8,-211.8 65.1,0 117.8,59.6 117.8,211.8 0.1,152.2 -52.7,211.8 -117.8,211.8 z"
   id="path26" />
						</g>
					</g>
				</g><g
     id="g42">
					<path
   class="st1"
   d="m 2373.3,1235.7 c -11.7,64.5 -67.3,114.9 -129.7,113.3 h -53.8 c -16.9,0 -30.6,-13.7 -30.6,-30.6 v -165 h 14.8 c 44,0 72.1,36.9 72.1,100.3 h 19.3 v -112.4 -5.7 -110.3 H 2246 c 0,55.8 -23.6,96.1 -72.2,96.1 H 2159 v -183 h 77.4 c 104.2,0 107.8,92.9 107.8,104.9 H 2365 V 942.4 910.1 h -375.6 v 18.7 h 26.5 c 20.3,0 36.7,19.2 36.7,39.4 v 346.6 c 0,36.5 -23.9,44.8 -44.2,44.8 h -19 v 21.4 h 63.2 317.8 l 21.4,-145.4 h -18.5 z"
   id="path34" />
					<g
   id="g40">
						<g
   id="g38">
							<path
   class="st1"
   d="m 2649.6,905.3 c -135.5,0 -239.8,99.8 -239.8,243.2 0,143.4 104.4,243.2 239.8,243.2 135.5,0 239.9,-99.8 239.9,-243.2 0,-143.4 -104.4,-243.2 -239.9,-243.2 z m 0,454.9 c -65.1,0 -117.8,-59.6 -117.8,-211.8 0,-152.2 52.8,-211.8 117.8,-211.8 65.1,0 117.8,59.6 117.8,211.8 0.2,152.2 -52.7,211.8 -117.8,211.8 z"
   id="path36" />
						</g>
					</g>
				</g></g><g
   id="g168"
   transform="translate(-474.7)">
		<g
   id="g166">
			<g
   id="g148">
				<polygon
   points="2511.7,614.9 2309.8,816.8 2110.5,617.5 1920.7,807.3 1573,807.3 1327.2,561.5 1327.2,213.9 1529.1,12.1 1728.4,211.4 1918.2,21.6 2265.9,21.6 2511.7,267.4 "
   id="polygon144" />
				<path
   class="st0"
   d="m 1529.1,24.1 199.3,199.3 193.3,-193.3 h 340.5 L 2503,270.9 V 611.4 L 2309.7,804.7 2110.4,605.4 1917.1,798.7 H 1576.6 L 1335.8,558 V 217.4 L 1529.1,24.1 m 0,-24.1 -12.1,12.1 -193.3,193.3 -5,5 v 7.1 340.5 7.1 l 5,5 240.8,240.8 5,5 h 7.1 340.5 7.1 l 5,-5 181.3,-181.3 187.2,187.2 12.1,12.1 12.1,-12.1 193.3,-193.3 5,-5 v -7.1 -340.5 -7.1 l -5,-5 -240.8,-240.8 -5,-5 h -7.1 -340.5 -7.1 l -5,5 -181.3,181.3 -187.2,-187.2 z"
   id="path146" />
			</g>
			<g
   id="g164">
				<polyline
   class="st2"
   points="1590.7,764.7 1369.8,543.9 1369.8,231.6 1529.1,72.3 2062.3,605.4 1903,764.7     "
   id="polyline150" />
				<polygon
   points="1652.3,352.3 1612,358.9 1584.4,314.7 1603.7,274.9 1635,273.4 1668.2,315.4 "
   id="polygon152" />
				<polygon
   points="1461.7,402 1481.9,385.6 1506.4,388.1 1518.6,414.4 1485.1,438.6 1463.4,425.2 "
   id="polygon154" />
				<polygon
   points="1673.6,688.7 1597,639.9 1660.8,656.8 1724.5,650.2 1769.6,617.6 1794.1,566.7 1810.3,484.6 1827.1,567.4 1816.1,612.8 1772.5,668.2 1732.6,688.3 "
   id="polygon156" />
				<polygon
   class="st3"
   points="2075.9,276.6 2036.4,237 1980,249.4 1974.5,315.8 2023.5,357.5 2079.6,335.9 "
   id="polygon158" />
				<polygon
   class="st3"
   points="2160.8,216.6 2120.8,210.4 2109.1,178.9 2128.9,146.7 2170.6,151.8 2184.6,183.3 "
   id="polygon160" />
				<polygon
   class="st3"
   points="2197.4,546.4 2186.4,480.1 2247.6,453.7 2256.9,424.9 2250.5,352.6 2353.1,334.3 2375.4,452.2 2370,490 2326,505.3 2313.5,567.6 2235.9,577.2 "
   id="polygon162" />
			</g>
		</g>
	</g>
</svg>
