<?xml version="1.0" encoding="UTF-8" standalone="no"?>
<!-- Generator: Adobe Illustrator 13.0.0, SVG Export Plug-In . SVG Version: 6.00 Build 14948)  -->

<svg
   version="1.2"
   id="Ebene_1"
   x="0px"
   y="0px"
   width="242.66901"
   height="124.988"
   viewBox="48.598 9.613 242.669 124.988"
   xml:space="preserve"
   sodipodi:docname="system.svg"
   inkscape:version="1.1.2 (0a00cf5339, 2022-02-04)"
   xmlns:inkscape="http://www.inkscape.org/namespaces/inkscape"
   xmlns:sodipodi="http://sodipodi.sourceforge.net/DTD/sodipodi-0.dtd"
   xmlns="http://www.w3.org/2000/svg"
   xmlns:svg="http://www.w3.org/2000/svg"
   xmlns:rdf="http://www.w3.org/1999/02/22-rdf-syntax-ns#"
   xmlns:cc="http://creativecommons.org/ns#"
   xmlns:dc="http://purl.org/dc/elements/1.1/"
   xmlns:ns="&amp;ns_sfw;"
   xmlns:a="http://ns.adobe.com/AdobeSVGViewerExtensions/3.0/"><defs
   id="defs140" /><sodipodi:namedview
   id="namedview138"
   pagecolor="#ffffff"
   bordercolor="#666666"
   borderopacity="1.0"
   inkscape:pageshadow="2"
   inkscape:pageopacity="0.0"
   inkscape:pagecheckerboard="0"
   showgrid="false"
   fit-margin-top="5"
   fit-margin-left="10"
   fit-margin-right="5"
   fit-margin-bottom="5"
   inkscape:zoom="4.0626406"
   inkscape:cx="123.19573"
   inkscape:cy="82.212538"
   inkscape:window-width="1920"
   inkscape:window-height="995"
   inkscape:window-x="0"
   inkscape:window-y="0"
   inkscape:window-maximized="1"
   inkscape:current-layer="Ebene_1"
   lock-margins="false" />
<metadata
   id="metadata27">
	<rdf:RDF>
		<cc:Work
   rdf:about="">
			<dc:format>image/svg+xml</dc:format>
			<dc:type
   rdf:resource="http://purl.org/dc/dcmitype/StillImage" />
			
		</cc:Work>
	</rdf:RDF>
	<ns:sfw>
		<ns:slices />
		<ns:sliceSourceBounds
   height="129.104"
   width="354.746"
   y="476.208"
   x="725.634"
   bottomLeftOrigin="true" />
	</ns:sfw>
</metadata>



























<linearGradient
   id="SVGID_1_"
   gradientUnits="userSpaceOnUse"
   x1="200.2363"
   y1="91.424103"
   x2="200.2363"
   y2="23.424101"
   gradientTransform="translate(-117.079,-5.928)">
	<stop
   offset="0"
   style="stop-color:#9B9B9B"
   id="stop43" />
	<stop
   offset="1"
   style="stop-color:#5B5C60"
   id="stop45" />
	<a:midPointStop
   offset="0"
   style="stop-color:#9B9B9B" />
	<a:midPointStop
   offset="0.5"
   style="stop-color:#9B9B9B" />
	<a:midPointStop
   offset="1"
   style="stop-color:#5B5C60" />
</linearGradient>
<path
   fill="url(#SVGID_1_)"
   d="m 63.341,121.714 1.082,-2.569 V 19.996 l -2.705,-3.382 h 33.681 l 9.198,5.546 V 68.285 L 79.573,82.217 v 23.536 h 3.382 z M 79.302,65.309 90.123,58.816 V 32.575 H 79.302 Z"
   id="path48"
   style="fill:url(#SVGID_1_)" />
<linearGradient
   id="SVGID_2_"
   gradientUnits="userSpaceOnUse"
   x1="246.4277"
   y1="91.424103"
   x2="246.4277"
   y2="23.424101"
   gradientTransform="translate(-117.079,-5.928)">
	<stop
   offset="0"
   style="stop-color:#9B9B9B"
   id="stop50" />
	<stop
   offset="1"
   style="stop-color:#5B5C60"
   id="stop52" />
	<a:midPointStop
   offset="0"
   style="stop-color:#9B9B9B" />
	<a:midPointStop
   offset="0.5"
   style="stop-color:#9B9B9B" />
	<a:midPointStop
   offset="1"
   style="stop-color:#5B5C60" />
</linearGradient>
<path
   fill="url(#SVGID_2_)"
   d="m 143.687,16.614 5.952,6.899 v 78.724 l -22.048,18.666 -18.531,-17.179 v -79.67 l 5.681,-7.44 z m -19.343,14.609 v 60.868 l 9.063,7.981 v -68.85 h -9.063 z"
   id="path55"
   style="fill:url(#SVGID_2_)" />
<linearGradient
   id="SVGID_3_"
   gradientUnits="userSpaceOnUse"
   x1="290.79349"
   y1="91.424103"
   x2="290.79349"
   y2="23.424101"
   gradientTransform="translate(-117.079,-5.928)">
	<stop
   offset="0"
   style="stop-color:#9B9B9B"
   id="stop57" />
	<stop
   offset="1"
   style="stop-color:#5B5C60"
   id="stop59" />
	<a:midPointStop
   offset="0"
   style="stop-color:#9B9B9B" />
	<a:midPointStop
   offset="0.5"
   style="stop-color:#9B9B9B" />
	<a:midPointStop
   offset="1"
   style="stop-color:#5B5C60" />
</linearGradient>
<path
   fill="url(#SVGID_3_)"
   d="M 154.507,119.415 V 19.996 l -2.705,-3.382 h 33.68 l 9.198,5.546 v 28.541 l -14.203,8.116 14.203,7.575 v 26.106 l 0.947,0.812 -15.691,11.497 V 72.749 l -10.279,-5.411 v 40.715 l 2.029,2.976 -18.667,13.797 z M 169.385,50.43 180.206,43.937 V 32.575 h -10.821 z"
   id="path62"
   style="fill:url(#SVGID_3_)" />
<linearGradient
   id="SVGID_4_"
   gradientUnits="userSpaceOnUse"
   x1="336.71439"
   y1="91.424103"
   x2="336.71439"
   y2="23.424101"
   gradientTransform="translate(-117.079,-5.928)">
	<stop
   offset="0"
   style="stop-color:#9B9B9B"
   id="stop64" />
	<stop
   offset="1"
   style="stop-color:#5B5C60"
   id="stop66" />
	<a:midPointStop
   offset="0"
   style="stop-color:#9B9B9B" />
	<a:midPointStop
   offset="0.5"
   style="stop-color:#9B9B9B" />
	<a:midPointStop
   offset="1"
   style="stop-color:#5B5C60" />
</linearGradient>
<path
   fill="url(#SVGID_4_)"
   d="m 211.587,32.575 h -12.038 v -12.58 l -2.705,-3.382 h 45.584 l -2.705,3.382 v 12.58 h -13.122 v 77.235 l 2.164,3.247 -18.802,13.526 1.623,-7.305 V 32.575 Z"
   id="path69"
   style="fill:url(#SVGID_4_)" />
<linearGradient
   id="SVGID_5_"
   gradientUnits="userSpaceOnUse"
   x1="380.40381"
   y1="91.424103"
   x2="380.40381"
   y2="23.424101"
   gradientTransform="translate(-117.079,-5.928)">
	<stop
   offset="0"
   style="stop-color:#9B9B9B"
   id="stop71" />
	<stop
   offset="1"
   style="stop-color:#5B5C60"
   id="stop73" />
	<a:midPointStop
   offset="0"
   style="stop-color:#9B9B9B" />
	<a:midPointStop
   offset="0.5"
   style="stop-color:#9B9B9B" />
	<a:midPointStop
   offset="1"
   style="stop-color:#5B5C60" />
</linearGradient>
<path
   fill="url(#SVGID_5_)"
   d="m 275.566,16.614 9.198,5.546 v 13.662 h -16.232 v -3.246 h -9.063 V 52.73 l 25.295,13.662 v 22.319 l -41.256,33.004 1.082,-2.569 V 74.777 h 14.879 v 9.604 l 9.063,-6.628 V 72.207 L 244.591,58.681 V 19.996 l -2.705,-3.382 z"
   id="path76"
   style="fill:url(#SVGID_5_)" />
<linearGradient
   id="SVGID_6_"
   gradientUnits="userSpaceOnUse"
   x1="201.0303"
   y1="132.37131"
   x2="201.0303"
   y2="61.621899"
   gradientTransform="translate(-117.079,-5.928)">
	<stop
   offset="0"
   style="stop-color:#F9DA55"
   id="stop78" />
	<stop
   offset="1"
   style="stop-color:#E04305"
   id="stop80" />
	<a:midPointStop
   offset="0"
   style="stop-color:#F9DA55" />
	<a:midPointStop
   offset="0.5"
   style="stop-color:#F9DA55" />
	<a:midPointStop
   offset="1"
   style="stop-color:#E04305" />
</linearGradient>
<path
   fill="url(#SVGID_6_)"
   d="m 104.579,59.277 v 8.955 L 79.555,82.164 V 105.7 h 3.382 l -19.613,15.961 1.082,-2.569 V 82.277"
   id="path83"
   style="fill:url(#SVGID_6_)" />
<linearGradient
   id="SVGID_7_"
   gradientUnits="userSpaceOnUse"
   x1="246.4106"
   y1="132.37131"
   x2="246.4106"
   y2="61.621899"
   gradientTransform="translate(-117.079,-5.928)">
	<stop
   offset="0"
   style="stop-color:#F9DA55"
   id="stop85" />
	<stop
   offset="1"
   style="stop-color:#E04305"
   id="stop87" />
	<a:midPointStop
   offset="0"
   style="stop-color:#F9DA55" />
	<a:midPointStop
   offset="0.5"
   style="stop-color:#F9DA55" />
	<a:midPointStop
   offset="1"
   style="stop-color:#E04305" />
</linearGradient>
<path
   fill="url(#SVGID_7_)"
   d="m 149.621,81.277 v 20.906 L 127.573,120.849 109.042,103.67 V 58.86 l 15.284,8.333 v 24.844 l 9.063,7.981 V 72.361 Z"
   id="path90"
   style="fill:url(#SVGID_7_)" />
<linearGradient
   id="SVGID_8_"
   gradientUnits="userSpaceOnUse"
   x1="291.38531"
   y1="132.37131"
   x2="291.38531"
   y2="61.621899"
   gradientTransform="translate(-117.079,-5.928)">
	<stop
   offset="0"
   style="stop-color:#F9DA55"
   id="stop92" />
	<stop
   offset="1"
   style="stop-color:#E04305"
   id="stop94" />
	<a:midPointStop
   offset="0"
   style="stop-color:#F9DA55" />
	<a:midPointStop
   offset="0.5"
   style="stop-color:#F9DA55" />
	<a:midPointStop
   offset="1"
   style="stop-color:#E04305" />
</linearGradient>
<path
   fill="url(#SVGID_8_)"
   d="M 169.639,74.61 V 108 l 2.029,2.976 -18.666,13.796 1.487,-5.41 V 81.777 m 36.265,-17.523 3.909,2.085 v 26.105 l 0.947,0.812 -15.691,11.497 V 72.696 l -3.044,-1.602"
   id="path97"
   style="fill:url(#SVGID_8_)" />
<linearGradient
   id="SVGID_9_"
   gradientUnits="userSpaceOnUse"
   x1="336.42719"
   y1="132.37131"
   x2="336.42719"
   y2="61.621899"
   gradientTransform="translate(-117.079,-5.928)">
	<stop
   offset="0"
   style="stop-color:#F9DA55"
   id="stop99" />
	<stop
   offset="1"
   style="stop-color:#E04305"
   id="stop101" />
	<a:midPointStop
   offset="0"
   style="stop-color:#F9DA55" />
	<a:midPointStop
   offset="0.5"
   style="stop-color:#F9DA55" />
	<a:midPointStop
   offset="1"
   style="stop-color:#E04305" />
</linearGradient>
<path
   fill="url(#SVGID_9_)"
   d="m 226.585,72.11 v 37.647 l 2.164,3.247 -18.802,13.526 1.623,-7.305 V 62.694"
   id="path104"
   style="fill:url(#SVGID_9_)" />
<linearGradient
   id="SVGID_10_"
   gradientUnits="userSpaceOnUse"
   x1="381.1987"
   y1="132.37131"
   x2="381.1987"
   y2="61.621899"
   gradientTransform="translate(-117.079,-5.928)">
	<stop
   offset="0"
   style="stop-color:#F9DA55"
   id="stop106" />
	<stop
   offset="1"
   style="stop-color:#E04305"
   id="stop108" />
	<a:midPointStop
   offset="0"
   style="stop-color:#F9DA55" />
	<a:midPointStop
   offset="0.5"
   style="stop-color:#F9DA55" />
	<a:midPointStop
   offset="1"
   style="stop-color:#E04305" />
</linearGradient>
<path
   fill="url(#SVGID_10_)"
   d="m 275.633,61.416 9.114,4.923 v 22.318 l -41.256,33.004 1.082,-2.569 V 74.725 h 14.879 v 9.604 l 9.063,-6.628 v -5.546 l -7.7,-4.351"
   id="path111"
   style="fill:url(#SVGID_10_)" />
<polygon
   fill="#542209"
   points="181.962,87.057 220.213,64.932 221.214,66.664 182.965,88.789 "
   id="polygon113"
   transform="translate(-117.079,-5.928)" />
<polygon
   fill="#542209"
   points="226.737,66.302 227.691,64.544 241.88,72.243 240.929,74 "
   id="polygon115"
   transform="translate(-117.079,-5.928)" />
<polygon
   fill="#542209"
   points="250.956,79.409 251.972,77.686 266.597,86.313 265.58,88.035 "
   id="polygon117"
   transform="translate(-117.079,-5.928)" />
<polygon
   fill="#542209"
   points="271.639,86.906 286.013,79.656 286.916,81.442 272.541,88.691 "
   id="polygon119"
   transform="translate(-117.079,-5.928)" />
<polygon
   fill="#542209"
   points="294.122,75.663 305.496,69.663 306.429,71.434 295.054,77.434 "
   id="polygon121"
   transform="translate(-117.079,-5.928)" />
<polygon
   fill="#542209"
   points="329.037,69.633 330.139,67.964 342.64,76.213 341.537,77.883 "
   id="polygon123"
   transform="translate(-117.079,-5.928)" />
<polygon
   fill="#542209"
   points="377.924,72.513 390.797,66.638 391.629,68.458 378.754,74.334 "
   id="polygon125"
   transform="translate(-117.079,-5.928)" />
<path
   d="M 62.921,118.343 V 20.02 l -4.323,-5.406 h 37.217 l 10.28,6.198 V 68.667 L 81.071,82.598 v 21.154 h 6.1 l -22.884,18.624 -4.666,3.796 z m 1.801,3.452 -1.383,-0.582 z m 1.2,-102.827 v 98.209 l 12.81,-10.425 h -0.66 V 80.835 L 103.093,66.902 V 22.505 L 94.981,17.614 64.836,17.612 Z M 77.8,30.575 h 13.822 v 28.59 L 80.071,66.094 79.3,64.808 80.071,66.094 77.8,67.46 Z m 3,31.583 7.82,-4.691 V 33.575 L 80.8,33.573 Z"
   id="path127" />
<path
   d="m 107.558,103.876 v -80.83 l 6.438,-8.432 h 29.689 v 1.5 -1.5 h 0.685 l 6.768,7.839 v 79.977 l -23.595,19.976 z m 2.999,-79.815 v 78.508 l 17.077,15.83 20.503,-17.356 V 23.568 l -5.14,-5.955 h -27.516 z m 12.286,68.207 v -61.545 -1.5 h 12.063 v 73.672 z m 3,-1.355 6.062,5.339 V 32.223 h -6.062 z m -1.5,-58.69 v -1.5 z"
   id="path129" />
<path
   d="m 153.005,118.708 -0.002,-98.688 -4.324,-5.407 h 37.218 l 10.283,6.199 v 30.259 l -12.602,7.199 12.602,6.721 -0.002,26.316 1.861,1.593 -19.604,14.36 V 73.153 l -7.279,-3.831 v 37.768 l 2.582,3.785 -23.318,17.233 z m 3,0.409 -0.393,1.424 14.02,-10.361 -1.477,-2.168 V 64.353 l 13.28,6.988 -0.002,30.004 11.78,-8.631 -0.036,-0.029 V 66.791 L 177.372,58.362 193.177,49.33 V 22.506 l -8.115,-4.893 h -30.141 l 1.085,1.356 v 99.944 0.204 z m 11.879,-88.542 h 13.821 v 13.709 l -11.549,6.932 -0.772,-1.287 0.772,1.287 -2.272,1.363 z m 2.999,16.705 7.821,-4.693 v -9.013 h -7.821 z"
   id="path131" />
<path
   d="M 210.085,118.615 V 33.574 H 198.047 V 20.02 l -4.323,-5.406 h 51.824 l -4.326,5.408 V 33.574 H 228.1 v 75.282 l 2.716,4.072 -23.173,16.673 z m 3.001,-88.04 v 88.367 l -0.807,3.627 14.433,-10.384 -1.611,-2.421 V 30.575 h 13.12 V 18.969 l 1.084,-1.355 h -39.343 l 1.086,1.355 v 11.606 h 10.538 v 1.5 -1.5 z"
   id="path133" />
<path
   d="M 243.089,118.342 V 72.776 h 17.879 v 8.147 l 6.062,-4.432 V 72.579 L 243.09,59.056 V 20.021 l -4.324,-5.408 h 36.8 v 1.5 -1.5 h 0.417 l 10.283,6.198 v 16.01 h -19.232 v -3.246 h -6.064 v 17.759 l 25.297,13.663 v 23.935 l -46.436,37.14 z m 3.001,-1.116 37.171,-29.737 V 66.785 L 257.967,53.123 V 30.574 h 12.063 l -0.002,3.246 h 13.234 V 22.505 l -8.112,-4.891 -30.147,-0.002 1.087,1.358 -0.002,38.335 23.942,13.526 v 7.181 l -12.063,8.824 V 75.777 H 246.09 Z"
   id="path135" />
</svg>
