<?xml version="1.0" encoding="UTF-8" standalone="no"?>
<!-- Generator: Adobe Illustrator 13.0.0, SVG Export Plug-In . SVG Version: 6.00 Build 14948)  -->

<svg
   version="1.2"
   id="Layer_3"
   x="0px"
   y="0px"
   width="404.44519"
   height="329.00845"
   viewBox="0 0 404.44517 329.00844"
   xml:space="preserve"
   sodipodi:docname="controller.svg"
   inkscape:version="1.1.2 (0a00cf5339, 2022-02-04)"
   xmlns:inkscape="http://www.inkscape.org/namespaces/inkscape"
   xmlns:sodipodi="http://sodipodi.sourceforge.net/DTD/sodipodi-0.dtd"
   xmlns="http://www.w3.org/2000/svg"
   xmlns:svg="http://www.w3.org/2000/svg"
   xmlns:rdf="http://www.w3.org/1999/02/22-rdf-syntax-ns#"
   xmlns:cc="http://creativecommons.org/ns#"
   xmlns:dc="http://purl.org/dc/elements/1.1/"
   xmlns:ns="&amp;ns_sfw;"><defs
   id="defs84">
	
	
	
	

	
	
	
	

	
	
</defs><sodipodi:namedview
   id="namedview82"
   pagecolor="#ffffff"
   bordercolor="#666666"
   borderopacity="1.0"
   inkscape:pageshadow="2"
   inkscape:pageopacity="0.0"
   inkscape:pagecheckerboard="0"
   showgrid="false"
   fit-margin-top="0"
   fit-margin-left="0"
   fit-margin-right="0"
   fit-margin-bottom="0"
   inkscape:zoom="1.0263804"
   inkscape:cx="58.945009"
   inkscape:cy="132.99163"
   inkscape:window-width="1920"
   inkscape:window-height="996"
   inkscape:window-x="0"
   inkscape:window-y="0"
   inkscape:window-maximized="1"
   inkscape:current-layer="Layer_3" />
<metadata
   id="metadata55">
	<rdf:RDF>
		<cc:Work
   rdf:about="">
			<dc:format>image/svg+xml</dc:format>
			<dc:type
   rdf:resource="http://purl.org/dc/dcmitype/StillImage" />
			
		</cc:Work>
	</rdf:RDF>
	<ns:sfw>
		<ns:slices />
		<ns:sliceSourceBounds
   x="-7231"
   y="-7652"
   width="16383"
   height="16383"
   bottomLeftOrigin="true" />
	</ns:sfw>
</metadata>
<path
   id="path935"
   style="fill:#000000"
   d="m 71.316334,0.01629145 c -13.64516,0.2854916 -27.10041,5.70768935 -37.13935,14.95296955 -10.37504,9.434728 -17.09391,22.803262 -18.3464,36.782072 -0.79425,8.335397 0.2934,16.84089 3.09317,24.720037 -0.16324,1.106384 0.60571,2.034028 0.85124,3.067628 2.79351,7.623897 5.6127,15.185898 7.75572,23.044412 2.03476,7.56577 3.41762,15.55205 1.98679,23.35671 -0.58979,3.49808 -1.83224,6.83681 -3.26731,10.06665 -7.16189,17.08677 -13.7355,34.49212 -18.0999298,52.52758 -6.203937,25.20294 -8.20109597,51.25121 -8.14928597136,77.14874 0.0131800014,8.46647 0.19724700136,16.93603 0.65691700136,25.38952 0.79348497,8.7196 3.17604897,17.54466 8.40137897,24.69505 4.8996898,6.8014 12.5430298,11.58264 20.8416498,12.86226 4.81594,0.81893 9.81036,0.28442 14.39852,-1.36403 10.96094,-3.76164 19.96716,-12.48142 24.50357,-23.09787 2.35675,-5.37848 3.50324,-11.19807 4.04269,-17.02148 4.13976,-34.82764 8.02236,-69.67646 12.49736,-104.45442 0.69983,-5.19601 1.34114,-10.40742 2.21523,-15.60365 0.27801,-1.53628 0.55499,-2.85435 0.93061,-4.36638 1.39246,-5.48735 3.58054,-10.99019 7.56571,-15.12572 2.89688,-3.04034 6.777396,-5.05099 10.893846,-5.82229 0.74074,-0.14795 1.4719,-0.25736 2.1137,-0.33589 3.92408,-0.40539 7.86898,-0.62559 11.81235,-0.72885 1.18049,-0.0224 2.3615,-0.013 3.54143,0.0257 0.012,18.84693 -0.0338,37.69535 0.0328,56.54135 0.3102,5.37608 4.96844,10.15141 10.37345,10.44738 2.45389,0.1674 4.91678,-3e-5 7.37464,0.0641 42.36084,-7.3e-4 84.72212,0.01 127.08268,-0.0169 5.42465,-0.19759 10.31698,-4.82847 10.67293,-10.27145 0.19183,-2.39207 0.005,-4.79577 0.075,-7.19296 10e-4,-16.52318 0.003,-33.04635 0.004,-49.56953 5.24745,-0.14717 10.4981,0.23471 15.71774,0.74545 5.46088,0.62807 10.73178,3.35114 14.0803,7.76307 4.01134,5.13219 5.92152,11.54419 7.05317,17.86887 1.19742,7.2192 2.05183,14.47894 3.01543,21.75083 2.64658,20.87749 5.0676,41.78793 7.53132,62.70179 1.58519,13.52563 3.12723,27.05738 4.79857,40.57217 1.48378,10.10736 6.22923,19.85258 13.86999,26.72589 5.89742,5.34606 13.36204,9.1835 21.33594,10.02979 7.52225,0.65077 15.20534,-1.74108 21.2211,-6.25678 5.96847,-4.50638 10.14666,-11.07576 12.43395,-18.14197 2.04949,-6.07614 2.85158,-12.50207 2.95457,-18.89368 1.09003,-29.78076 0.2281,-59.85307 -5.93522,-89.10022 -3.69959,-17.68155 -9.4686,-34.86576 -16.2624,-51.58321 -1.81439,-4.56962 -3.78185,-9.07725 -5.55469,-13.66247 -2.38773,-6.8842 -2.38296,-14.38033 -1.02929,-21.47816 1.61124,-8.60763 4.57157,-16.883694 7.52907,-25.102054 1.09464,-3.02128 2.20815,-6.035665 3.31467,-9.052602 -0.53668,-0.256195 0.17668,-1.009448 0.19011,-1.501389 4.57457,-14.558561 2.98474,-30.943204 -4.38851,-44.314352 -7.02313,-12.934361 -19.21642,-22.9706802 -33.30477,-27.266452 -10.92642,-3.36702835 -22.88606,-3.41893285 -33.79956,0.025552 -5.92547,2.5213958 -11.60837,5.5637098 -17.35017,8.468953 -16.03094,8.236686 -31.93289,16.719879 -47.74358,25.370891 -31.6543,0 -63.3086,0 -94.96289,0 C 136.00322,26.16046 117.15265,16.10097 98.062514,6.5138898 c -3.04021,-1.498911 -6.06126,-3.083208 -9.2588,-4.2189979 -5.66088,-1.67475225 -11.58831,-2.41686835 -17.48711,-2.27857015 z m 1.44726,9.98437555 c 4.57703,0.02822 9.1855,0.615667 13.54967,2.022041 2.52125,1.024079 4.92663,2.318958 7.38203,3.491821 11.956556,5.944065 23.746006,12.217078 35.543246,18.469444 10.74265,5.721183 21.44225,11.52563 32.03287,17.524506 0.36496,1.242358 1.7563,1.856091 2.96679,1.673828 3.33106,1.981744 6.75728,3.897456 9.61893,6.550179 5.65267,5.101299 9.61063,12.02614 11.16623,19.477165 0.071,0.371033 0.2272,1.154783 0.31055,1.685547 1.48176,9.243758 -0.73779,19.038258 -6.19828,26.659802 -1.73626,2.46249 -3.78465,4.7042 -6.07321,6.66442 -0.40994,0.34018 -1.07128,0.89348 -1.60509,1.2934 -7.84019,6.01944 -18.2443,8.62842 -27.98243,6.85728 -28.35362,-6.74939 -56.712126,-13.48199 -85.060316,-20.2519 -12.96688,-4.071594 -23.90826,-14.069754 -29.13811,-26.613937 -5.03583,-11.833782 -4.92872,-25.746554 0.356,-37.47924 0.5721,-1.301811 1.33396,-2.797226 1.94948,-3.899356 0.43913,-0.766552 0.75555,-1.322765 1.23741,-2.081115 6.14744,-9.844356 16.07231,-17.225763 27.25418,-20.321308 4.12437,-1.164563 8.4072,-1.71413 12.69005,-1.722577 z m 258.912106,0 c 10.23319,-0.02218 20.45063,3.37091 28.5669,9.619142 9.15254,6.925131 15.65887,17.283352 17.76703,28.578435 2.06086,10.632967 0.37755,21.968979 -4.84514,31.473182 -5.8449,10.7926 -16.05403,19.21875 -27.86658,22.638904 -28.36786,6.74407 -56.73257,13.50626 -85.10597,20.22401 -10.13141,1.52429 -20.85174,-1.50919 -28.64414,-8.17257 -7.57108,-6.36229 -12.37992,-15.919694 -12.8321,-25.813309 -0.0961,-1.578284 -0.0488,-3.406634 0.0674,-4.827091 0.66537,-8.51035 4.43923,-16.738526 10.51606,-22.742624 2.80612,-2.851364 6.15557,-5.087824 9.63139,-7.034202 4.40927,-2.583125 8.87781,-5.063412 13.34669,-7.541534 1.17367,0.233868 2.57616,-0.339796 2.88672,-1.570312 17.41282,-9.566833 34.97375,-18.870814 52.68727,-27.871281 3.63531,-1.778857 7.20056,-3.740091 10.9843,-5.186623 2.00467,-0.574603 4.15487,-1.010266 6.11165,-1.29392 2.22801,-0.317701 4.47801,-0.477139 6.72849,-0.480207 z M 80.048754,28.203792 c -4.38785,0.07459 -8.78094,-0.04197 -13.16797,0.05859 -3.49164,0.363151 -6.33028,3.737827 -6.05859,7.244922 0,0.950261 0,1.900521 0,2.850781 -2.2967,1.586204 -4.3048,3.592416 -5.88672,5.892579 -2.38051,0.0029 -5.01441,-0.321778 -7.07422,1.140625 -2.15569,1.44777 -3.32326,4.114557 -3.05027,6.681249 0.0353,4.180643 -0.0812,8.368959 0.0751,12.54456 0.41453,3.48199 3.86794,6.196328 7.34312,5.883566 0.90469,0 1.80937,0 2.71406,0 1.5851,2.297626 3.59168,4.305074 5.89063,5.888671 0.005,2.377656 -0.32455,5.011476 1.13867,7.06836 1.44424,2.159674 4.11335,3.329779 6.68125,3.056135 4.18324,-0.03532 8.37415,0.08132 12.55235,-0.07528 3.51,-0.419018 6.22489,-3.924113 5.87968,-7.421092 0,-0.879296 0,-1.758593 0,-2.63789 2.29662,-1.585535 4.30417,-3.591768 5.88672,-5.890625 2.37743,-0.0055 5.01367,0.326298 7.068356,-1.140625 2.16112,-1.441895 3.33252,-4.111535 3.05809,-6.679297 -0.0353,-4.183239 0.0813,-8.37415 -0.0753,-12.552348 -0.41919,-3.510179 -3.927046,-6.222015 -7.423046,-5.87773 -0.87864,0 -1.75729,0 -2.63593,0 -1.58645,-2.295986 -3.59002,-4.307284 -5.89063,-5.888672 -0.005,-2.378344 0.32439,-5.010546 -1.13867,-7.068359 -1.30231,-1.913726 -3.5667,-3.117288 -5.88672,-3.078125 z m 256.552736,0 c -4.39202,0.06799 -8.78829,-0.03595 -13.17969,0.05469 -3.49553,0.371279 -6.33699,3.745182 -6.0586,7.258594 0,0.947005 0,1.89401 0,2.841015 -2.29871,1.583203 -4.30582,3.591533 -5.88867,5.890626 -2.33938,0.02151 -4.91504,-0.333399 -6.95898,1.072265 -2.17974,1.398808 -3.42036,4.041271 -3.16748,6.610937 0.0355,4.231419 -0.0817,8.470457 0.0755,12.696841 0.42457,3.476941 3.86932,6.185395 7.34272,5.87191 0.90469,0 1.80937,0 2.71406,0 1.58508,2.298556 3.59579,4.302065 5.89258,5.888671 0.004,2.378471 -0.32302,5.010033 1.13867,7.06836 1.44681,2.157781 4.11449,3.330578 6.6832,3.056134 4.18129,-0.03532 8.37025,0.08133 12.54649,-0.07528 3.51089,-0.419674 6.22759,-3.924246 5.88359,-7.423045 0,-0.878645 0,-1.757291 0,-2.635937 2.29581,-1.583643 4.30203,-3.588732 5.88281,-5.886719 2.34172,-0.0218 4.91686,0.333272 6.96485,-1.070312 2.17918,-1.406715 3.42231,-4.051336 3.16356,-6.626563 -0.0365,-4.227516 0.0871,-8.462636 -0.0716,-12.685121 -0.42338,-3.477454 -3.87232,-6.18523 -7.34467,-5.873863 -0.90599,0 -1.81197,0 -2.71796,0 -1.58277,-2.298235 -3.592,-4.302334 -5.88868,-5.886719 -0.005,-2.377583 0.32434,-5.01158 -1.13867,-7.068359 -1.29747,-1.908387 -3.55819,-3.120412 -5.87304,-3.078125 z M 74.716724,40.99676 c 0.79559,0.04035 1.58887,0.131791 2.37109,0.283204 0.005,2.145092 -0.0383,4.29107 0.0234,6.435546 -2.03012,-0.668357 -4.27979,-0.687829 -6.31055,-0.01172 0.0442,-2.14039 0.0166,-4.281257 0.0195,-6.421875 1.28153,-0.250045 2.59245,-0.336147 3.89649,-0.285157 z m 256.548826,0.002 c 0.79212,0.04196 1.58248,0.132384 2.36133,0.283203 0.005,2.14578 -0.0326,4.292134 0.0234,6.4375 -2.0325,-0.671785 -4.28474,-0.689532 -6.31836,-0.01172 0.0576,-2.140854 0.0215,-4.282567 0.0254,-6.423828 1.28581,-0.250082 2.59993,-0.336881 3.90821,-0.285156 z m -10.48242,13.345703 c -0.61656,2.002516 -0.62891,4.198036 0.0625,6.183593 -2.1461,-0.05609 -4.29298,-0.02254 -6.43946,-0.02539 -0.40502,-2.063237 -0.40366,-4.206207 0,-6.269532 2.13992,-0.004 4.28048,0.03705 6.41992,-0.02344 l -0.0304,0.09527 z M 64.208914,54.453792 c -0.57828,1.972245 -0.58451,4.124808 0.0976,6.072265 -2.14677,-0.05315 -4.29428,-0.01779 -6.4414,-0.02344 -0.40014,-2.06376 -0.4006,-4.206095 0.002,-6.269532 2.13927,-0.0029 4.27906,0.03392 6.41797,-0.01953 -0.0254,0.08008 -0.0508,0.160157 -0.0762,0.240235 z M 341.75383,54.238948 c 1.60808,0.0093 3.21615,-0.0039 4.82422,-0.002 0.40505,2.062667 0.40356,4.204827 0,6.267578 -2.13392,-0.0042 -4.30864,-0.02013 -6.41797,0.0098 0.64594,-2.036207 0.6352,-4.265534 -0.01,-6.300781 0.53451,0.0085 1.06901,0.01693 1.60352,0.02539 z m -256.496096,0.002 c 1.59442,0.0071 3.18881,-0.0058 4.78321,-0.0039 0.40287,2.062662 0.40118,4.205052 -0.002,6.267578 -2.13926,0.0036 -4.27914,-0.03578 -6.41797,0.02148 0.65418,-2.035821 0.64314,-4.276449 -0.0195,-6.308593 0.55208,0.0078 1.10416,0.01562 1.65624,0.02344 z m 245.203126,2.970703 c 0.31477,-0.02137 0.12684,0.494388 -0.10156,0.240234 -0.0746,-0.08719 0.0294,-0.199611 0.10156,-0.240234 z m -256.537106,0.002 c 0.32007,-0.0171 0.11999,0.486542 -0.0977,0.244141 -0.0837,-0.08429 0.024,-0.21126 0.0977,-0.244141 z m 206.130856,3.84961 c -6.47543,0.20879 -12.54169,4.72118 -14.61719,10.857421 -0.90339,2.529585 -1.12189,5.286453 -0.70508,7.935547 -3.39147,-4.862986 -9.60331,-7.498437 -15.45941,-6.64934 -6.04289,0.794661 -11.41876,5.278238 -13.2412,11.102409 -1.88223,5.705328 -0.28536,12.397188 4.04632,16.580132 4.39576,4.42269 11.44055,5.91309 17.2454,3.62355 5.59782,-2.11096 9.79954,-7.514044 10.36397,-13.484876 0.15169,-1.405544 0.11247,-2.831127 -0.11328,-4.226562 3.30225,4.684733 9.21622,7.308554 14.90402,6.686224 5.41422,-0.50917 10.37405,-3.992932 12.81611,-8.831901 2.49359,-4.79901 2.29626,-10.830167 -0.43919,-15.486558 -2.92751,-5.205369 -8.84784,-8.406931 -14.80047,-8.106046 z m -157.125,0.0019 c -6.45111,0.20825 -12.49575,4.688265 -14.5918,10.791015 -2.10862,5.780529 -0.56436,12.700518 3.86133,16.992188 4.32419,4.371423 11.23303,5.912693 16.99838,3.757737 3.07307,-1.102219 5.7679,-3.187578 7.67545,-5.830003 -0.83109,5.215171 1.02094,10.789579 4.91182,14.384283 4.33781,4.15087 11.05886,5.55162 16.68974,3.45752 5.89812,-2.09949 10.32665,-7.852554 10.67154,-14.129338 0.0885,-1.538349 0.0835,-3.080764 0.13901,-4.620668 -0.7622,-0.04095 -0.58745,-0.974273 -0.85547,-1.496094 -1.90846,-6.16259 -7.79624,-10.874632 -14.25591,-11.257508 -5.56223,-0.507833 -11.21041,2.199304 -14.45112,6.718446 1.07903,-6.359172 -2.08905,-13.191448 -7.66691,-16.44424 -2.72279,-1.65438 -5.94512,-2.464287 -9.12606,-2.323338 z m 90.02539,6.085937 c -4.97214,10.665663 -5.67112,23.24672 -1.83215,34.377763 3.45975,10.23813 10.63068,19.16175 19.89755,24.72501 8.27397,5.01415 18.13945,7.33177 27.7804,6.49974 3.83156,-0.24307 7.49784,-1.45528 11.22842,-2.26462 0,4.20964 0,8.41927 0,12.62891 -1.99805,0 -3.99609,0 -5.99414,0 -0.042,6.25817 0.0761,12.52179 -0.0667,18.77646 -0.36873,2.22997 -2.63696,3.8826 -4.87274,3.61613 -38.57607,-0.003 -77.15297,0.0135 -115.72852,-0.0195 -2.34427,-0.19535 -4.22383,-2.51737 -3.94013,-4.85429 -0.008,-5.83958 -0.008,-11.67917 -0.007,-17.51875 -1.66796,0 -3.33593,0 -5.0039,0 0,-4.20964 0,-8.41927 0,-12.62891 2.99463,0.67736 6.02895,1.54417 9.08932,2.03741 11.96714,1.59696 24.51546,-1.72165 34.07814,-9.10644 9.55052,-7.26409 16.10825,-18.35933 17.73911,-30.259404 1.26761,-8.902282 -0.12118,-18.167848 -3.96517,-26.298521 2.28437,0.75767 4.72739,0.323902 7.08477,0.432793 4.35318,-0.01591 8.71132,0.05886 13.06127,-0.0551 0.54871,-0.05779 1.08676,-0.200617 1.60006,-0.401129 -0.0495,0.104167 -0.099,0.208334 -0.14844,0.3125 z m 120.68359,0.275391 c -0.0363,2.009589 -0.009,4.019555 -0.0117,6.029297 -2.06338,0.404037 -4.20616,0.404579 -6.26954,0 -0.004,-2.141206 0.0369,-4.2831 -0.0234,-6.423828 2.03179,0.686512 4.28629,0.649766 6.3164,-0.02148 -0.004,0.138672 -0.008,0.277344 -0.0117,0.416016 z M 77.103444,67.401058 c -0.0501,2.017719 -0.0139,4.036533 -0.0156,6.054688 -2.06381,0.401054 -4.20611,0.402546 -6.26953,-0.002 -0.005,-2.141859 0.0377,-4.284415 -0.0234,-6.425782 2.03371,0.699404 4.28741,0.65101 6.32227,-0.01563 -0.005,0.129558 -0.009,0.259115 -0.0137,0.388672 z m 46.935546,3.660157 c 3.31884,0.125703 6.1482,3.293017 5.87613,6.611829 -0.15875,3.158697 -2.98695,5.958491 -6.18704,5.891457 -3.0689,0.06849 -5.99339,-2.395849 -6.26393,-5.485908 -0.3894,-2.736675 1.26874,-5.576885 3.85389,-6.564671 0.85821,-0.351527 1.7953,-0.503887 2.72095,-0.452707 z m 157.12109,0 c 3.32338,0.127332 6.15501,3.298398 5.87882,6.621632 -0.16754,3.049514 -2.79782,5.769487 -5.88117,5.877075 -3.02827,0.198655 -6.03854,-2.050501 -6.51569,-5.082657 -0.40304,-1.930638 0.32677,-4.24305 1.63718,-5.500035 1.24034,-1.314194 3.08006,-2.024666 4.88086,-1.916015 z M 153.31242,83.072932 c 3.28797,0.123928 6.09563,3.230589 5.88477,6.517578 -0.11129,3.141258 -2.86849,5.967626 -6.04601,5.979916 -3.03737,0.13468 -5.98868,-2.20449 -6.38905,-5.249116 -0.46385,-2.726943 1.06965,-5.642755 3.63818,-6.717128 0.91175,-0.403754 1.91642,-0.587735 2.91211,-0.53125 z m 98.56836,0 c 3.38542,0.121758 6.24889,3.410779 5.87305,6.78711 -0.25213,2.983426 -2.84409,5.609164 -5.87147,5.706574 -2.99109,0.19558 -5.9396,-1.97404 -6.48981,-4.931612 -0.57085,-2.611597 0.68533,-5.504745 3.0631,-6.769205 1.03844,-0.578082 2.23718,-0.863455 3.42513,-0.792867 z M 38.361254,102.81317 c 5.55652,4.18188 11.86182,7.43804 18.58762,9.25019 22.48902,5.3502 44.978036,10.7004 67.467066,16.05059 0,0.875 0,1.75 0,2.625 -5.73361,-0.17333 -11.46546,0.2875 -17.16797,0.83594 -7.07229,0.91524 -13.903406,4.16635 -18.739036,9.46187 -5.57841,5.99519 -8.68286,13.87052 -10.30784,21.7979 -1.19848,6.00369 -1.8835,12.0703 -2.71314,18.12721 -4.49455,34.78325 -8.3534,69.64424 -12.50933,104.46925 -0.44887,3.67119 -0.79223,7.38339 -1.93092,10.92298 -2.55609,8.62185 -8.67718,16.23268 -16.83403,20.13345 -3.96764,1.96198 -8.51983,3.10222 -12.93222,2.20361 -5.61587,-0.93346 -10.84803,-4.10203 -14.13252,-8.77438 -3.90289,-5.34018 -5.63089,-12.07005 -6.3951,-18.45517 -0.38039,-3.29334 -0.33656,-6.68277 -0.49496,-9.9451 -0.3054598,-9.94391 -0.3632998,-19.89712 -0.0675,-29.84201 0.18673,-6.10109 0.51381,-12.33416 1.00624,-18.47085 0.22832,-2.83828 0.51075,-5.74902 0.80626,-8.54673 1.70263,-15.91492 4.82309,-31.68449 9.48581,-46.99985 4.14396,-13.67931 9.44312,-26.97268 14.96491,-40.14326 2.37355,-5.60113 3.59215,-11.66701 3.63807,-17.74666 0.0874,-5.87446 -0.90479,-11.70916 -2.30168,-17.39734 0.1901,0.14779 0.38021,0.29557 0.57031,0.44336 z m 327.964836,0.89453 c -1.92304,8.15547 -2.7638,16.72688 -1.06535,24.9992 0.83489,4.25563 2.44168,8.30065 4.16181,12.26425 7.00078,16.7591 13.39805,33.84505 17.54576,51.55806 2.76743,11.59793 4.63754,23.47355 5.79528,35.29177 0.89993,9.29191 1.40385,18.64554 1.58598,27.93364 0.20674,9.52392 0.056,19.15448 -0.25199,28.60933 -0.11337,3.80354 -0.28785,7.6202 -1.05779,11.35771 -0.11622,0.58287 -0.24506,1.22188 -0.35079,1.65501 -1.40278,6.18689 -4.13685,12.37142 -9.08868,16.52666 -4.17517,3.50709 -9.73109,5.38421 -15.17788,5.03667 -6.04761,-0.66339 -11.60995,-3.78055 -16.02791,-7.86033 -5.79418,-5.45457 -9.33815,-13.05353 -10.34089,-20.90567 -0.63642,-4.7672 -1.13159,-9.55152 -1.71935,-14.32523 -3.83932,-32.51548 -7.48733,-65.05513 -11.72445,-97.5215 -0.76876,-5.65227 -1.45364,-11.329 -2.66791,-16.90706 -1.79823,-7.86046 -5.13707,-15.63095 -10.95533,-21.36247 -5.02115,-4.97537 -11.85488,-7.94558 -18.86648,-8.59049 -4.5195,-0.45696 -9.06262,-0.70978 -13.60457,-0.77517 -0.82825,-8e-4 -1.65671,0.007 -2.48438,0.0371 0,-0.87305 0,-1.7461 0,-2.61914 22.93801,-5.46359 45.88523,-10.89553 68.81377,-16.39444 6.42804,-2.01639 12.47757,-5.2061 17.80342,-9.32822 -0.10742,0.4401 -0.21484,0.88021 -0.32227,1.32031 z m -96.29687,92.59766 c 0.0839,0.97135 -0.94836,1.67038 -1.84844,1.48242 -44.18914,-0.004 -88.3787,0.01 -132.56758,-0.0137 -0.95518,-0.12287 -1.36309,-1.18316 -1.19921,-2.03633 0,-7.90716 -1e-5,-15.81432 0,-23.72148 2.78931,2.42091 6.51492,3.69341 10.20273,3.49417 38.59203,-0.004 77.18474,0.0155 115.77635,-0.019 3.62654,-0.14163 7.1286,-1.81049 9.63615,-4.41464 0,8.40951 0,16.81901 0,25.22852 z" /><path
   id="path3"
   d="m 72.744064,3.9987138 c -29.364,0.002 -53.16992,23.8059682 -53.16992,53.1679682 9.2e-4,7.271094 1.47723,14.191775 4.11914,20.503906 l -0.30078,0.111329 c 6.16354,16.671799 10.72089,29.625273 10.71289,41.429693 0,5.464 -0.9624,10.69376 -3.1914,16.00976 -15.64801,37.268 -26.9299298,69.16569 -26.9199298,129.80469 0,7.793 0.18427,16.06191 0.57227,24.87891 2.214,27.476 18.5963698,34.79942 29.4843698,35.10742 0.211,0.006 0.42,0.008 0.625,0.008 11.161,-0.004 30.76464,-10.19101 33.80664,-35.04101 2.998,-24.756 12.769,-111.52325 15.375,-124.90625 2.652,-13.379 9.09396,-26.25575 25.751956,-27.71875 5.735,-0.498 9.79253,-0.66411 12.64453,-0.66211 2.854,-0.004 4.50153,0.1604 5.39453,0.3164 0.41436,0.0698 0.63643,0.13478 0.76758,0.17774 v 59.2207 c 0,4.076 3.30386,7.37886 7.38086,7.38086 h 132.85156 c 4.076,-0.002 7.37891,-3.30486 7.37891,-7.38086 l 0.004,-59.21484 c 0.39917,-0.13527 1.95496,-0.50393 6.15625,-0.5 2.852,0 6.91249,0.16406 12.64649,0.66406 16.661,1.461 23.09995,14.3378 25.75195,27.7168 2.607,13.383 12.37695,100.1502 15.37695,124.9082 3.036,24.849 22.64469,35.03597 33.80469,35.04297 0.204,0 0.41205,-0.002 0.62305,-0.01 10.888,-0.306 27.27437,-7.63231 29.48437,-35.07031 0.383,-8.856 0.57027,-17.12697 0.57227,-24.91797 0.012,-60.639 -11.26997,-92.53669 -26.91797,-129.80469 -2.231,-5.317 -3.19141,-10.54281 -3.19141,-16.00781 -0.012,-11.805 4.55085,-24.758644 10.71485,-41.431643 l -0.30078,-0.111329 c 2.64147,-6.311644 4.11657,-13.232032 4.11718,-20.501953 -0.002,-29.366 -23.80597,-53.1699212 -53.16797,-53.1699212 -5.156,-1e-6 -10.13856,0.734562 -14.85156,2.101562 -0.722,0.177 -2.17015,0.838031 -4.53515,1.957031 -11.37912,5.4344172 -41.02619,21.0284612 -61.58204,32.3496102 h -97.00976 c -7.91154,-4.356207 -17.08601,-9.306655 -26.16797,-14.125 -9.662,-5.124 -19.08442,-10.034563 -26.35742,-13.726563 -3.637996,-1.845 -6.738356,-3.3870472 -9.068356,-4.4980472 -2.365,-1.12 -3.8107,-1.781656 -4.5957,-1.972656 -4.654,-1.353 -9.63807,-2.085937 -14.78907,-2.085937 z m 0.002,2.001953 c 4.962,0 9.75701,0.704484 14.29101,2.021484 0.326,0.06 1.95947,0.748797 4.23047,1.841797 13.886226,6.6250162 55.887286,28.8688002 73.929686,39.2734372 v 0.02344 h 0.041 c 2.92658,1.688121 5.36243,3.13277 6.78907,4.072265 10.708,7.233 17.75195,19.487485 17.75195,33.396485 0,11.127003 -4.50683,21.193325 -11.79883,28.486325 -7.293,7.29201 -17.35933,11.79683 -28.48633,11.79883 -2.104,0 -4.16664,-0.16165 -6.18164,-0.47265 L 57.517534,106.03192 c -20.82,-6.482002 -35.94145,-25.908236 -35.93945,-48.865236 0,-14.133 5.72437,-26.915687 14.98437,-36.179687 9.264,-9.259 22.0486,-14.9863282 36.1836,-14.9863282 z m 258.957026,0 c 14.132,0 26.91764,5.7253752 36.18164,14.9843752 9.258,9.264 14.98437,22.049593 14.98437,36.183593 0.004,22.946 -15.10411,42.366421 -35.91211,48.857425 l -85.83988,20.41992 c -2.011,0.308 -4.06806,0.46875 -6.16406,0.46875 -11.129,-0.003 -21.19333,-4.50783 -28.48633,-11.79883 -7.291,-7.29299 -11.79883,-17.357324 -11.79883,-28.486327 -0.002,-13.906 7.04467,-26.159344 17.76367,-33.402344 3.02902,-1.995167 10.08657,-6.015513 18.8086,-10.822265 h 0.0273 v -0.01563 c 7.98502,-4.400336 17.34627,-9.452595 26.56055,-14.339843 9.651,-5.119 19.06717,-10.026985 26.32617,-13.708985 3.627,-1.84 6.71648,-3.374562 9.02148,-4.4765622 2.274,-1.094 3.90788,-1.784172 4.17188,-1.826172 4.597,-1.334 9.39147,-2.038109 14.35547,-2.037109 z M 67.699144,32.223323 c -1.587,0.002 -2.87495,1.288953 -2.87695,2.876953 v 5.480469 c -3.23305,1.761021 -5.89538,4.427165 -7.65625,7.658203 h -5.47852 c -1.59,0 -2.87695,1.286953 -2.87695,2.876953 v 12.509766 c 0,1.587 1.28695,2.873 2.87695,2.875 h 5.47852 c 1.75947,3.230357 4.42435,5.897397 7.65625,7.658203 v 5.480468 c 0.001,1.588003 1.287,2.875002 2.875,2.875 h 12.51172 c 1.588,0 2.87695,-1.286998 2.87695,-2.875 v -5.482421 c 3.23071,-1.761224 5.89518,-4.424976 7.65625,-7.65625 h 5.48047 c 1.587,-0.001 2.87495,-1.287 2.87695,-2.875 V 51.113948 c -0.001,-1.589 -1.28895,-2.875 -2.87695,-2.875 h -5.48047 c -1.7609,-3.231297 -4.42377,-5.896092 -7.65625,-7.658203 v -5.480469 c 0,-1.591 -1.28895,-2.875 -2.87695,-2.875 z m 256.541016,0 c -1.591,0 -2.87696,1.288906 -2.87696,2.878906 v 5.478516 c -3.23389,1.761686 -5.89936,4.426473 -7.66015,7.658203 h -5.47852 c -1.588,0.002 -2.87495,1.288953 -2.87695,2.876953 v 12.509766 c 0.002,1.588 1.28895,2.875 2.87695,2.875 h 5.47656 c 1.76278,3.230024 4.42832,5.895196 7.66016,7.658203 v 5.478515 c 0,1.588 1.28695,2.874956 2.87695,2.876953 h 12.50977 c 1.587,-0.002 2.87395,-1.287953 2.87695,-2.876953 v -5.480468 c 3.22965,-1.759564 5.89353,-4.423101 7.6543,-7.654297 h 5.48242 c 1.589,-0.002 2.875,-1.288953 2.875,-2.876953 l 0.004,-12.511719 c -0.003,-1.588 -1.28991,-2.874953 -2.87891,-2.876953 h -5.48242 c -1.76169,-3.231956 -4.42372,-5.894395 -7.6543,-7.65625 v -5.478516 c 0,-1.59 -1.28604,-2.878906 -2.87304,-2.878906 z m -0.002,2 12.51172,0.002 c 0.481,0 0.87305,0.392953 0.87305,0.876953 v 1.037109 c -2.24191,-0.752737 -4.64049,-1.162109 -7.13281,-1.162109 -2.49054,0 -4.88981,0.409582 -7.13086,1.162109 v -1.037109 c 0.003,-0.484 0.3949,-0.876906 0.8789,-0.878906 z m -256.541006,0.002 h 12.50976 c 0.484,0 0.87496,0.393 0.87696,0.875 v 1.037109 c -2.24149,-0.752446 -4.63971,-1.160156 -7.12891,-1.160156 -2.49235,0 -4.89125,0.407935 -7.13281,1.160156 v -1.037156 c 0,-0.484 0.391,-0.875 0.875,-0.875 z m 6.25781,2.751953 c 2.50862,0 4.9089,0.455198 7.12891,1.283203 v 9.328125 c -0.004,0.736 0.16037,1.486485 0.73437,2.021485 0.578,0.525 1.28469,0.626906 1.97071,0.628906 h 9.27343 c 0.8301,2.218745 1.28331,4.619326 1.28516,7.128906 -0.002,2.512304 -0.45635,4.913183 -1.28516,7.132813 h -9.28906 c -0.712,0 -1.45381,0.145031 -2.00781,0.707031 -0.543,0.568 -0.68164,1.305734 -0.68164,2.052734 v 9.21875 c -2.21932,0.82883 -4.6191,1.28125 -7.12891,1.28125 -2.51283,0 -4.91286,-0.453501 -7.13281,-1.28125 v -9.265625 c -0.006,-0.672 -0.0707,-1.368656 -0.5957,-1.972656 -0.55001,-0.594 -1.30913,-0.740234 -2.07813,-0.740234 h -9.30664 c -0.82936,-2.218433 -1.28125,-4.617528 -1.28125,-7.128907 0,-2.512943 0.45545,-4.915582 1.2832,-7.134765 h 9.32032 c 0.70699,0.003 1.43651,-0.158078 1.97851,-0.705078 0.532,-0.552 0.67969,-1.275188 0.67969,-1.992188 v -9.279297 c 2.2184,-0.829493 4.61985,-1.283203 7.13281,-1.283203 z m 256.535156,0.002 c 2.51027,0 4.91301,0.453654 7.13281,1.283203 l 0.002,9.277344 c -0.002,0.717 0.14964,1.441188 0.68164,1.992188 0.54,0.55 1.27157,0.709078 1.97657,0.705078 l 9.32031,0.002 c 0.82795,2.218577 1.28125,4.61846 1.28125,7.128906 0,2.511906 -0.45454,4.913949 -1.2832,7.132813 h -9.30079 c -0.769,-0.003 -1.52912,0.143281 -2.07812,0.738281 -0.528,0.606 -0.59266,1.300703 -0.59766,1.970703 l -0.002,9.269531 c -2.21729,0.828342 -4.6191,1.283203 -7.12891,1.283203 -2.51176,0 -4.9135,-0.452805 -7.13281,-1.28125 V 67.25862 c -0.001,-0.749 -0.14055,-1.485734 -0.68555,-2.052734 -0.554,-0.561 -1.2949,-0.707078 -2.0039,-0.705078 h -9.28907 c -0.82814,-2.218574 -1.2832,-4.618438 -1.2832,-7.128907 0,-2.513326 0.45373,-4.916739 1.28516,-7.136718 l 9.27344,0.002 c 0.686,-0.004 1.39075,-0.106905 1.96875,-0.628907 0.574,-0.536 0.73742,-1.283437 0.73242,-2.023437 V 38.26062 c 2.21973,-0.827849 4.6188,-1.28125 7.13086,-1.28125 z M 157.3241,42.405058 h 89.77344 c -3.18361,1.768172 -5.94932,3.334696 -8.41992,4.755859 h -72.89063 c -2.41148,-1.386394 -5.38139,-3.04381 -8.46289,-4.755859 z m -92.501946,0.49414 v 4.642578 c 0,0.47 -0.10138,0.59375 -0.10938,0.59375 0,0.004 -0.0988,0.09952 -0.54882,0.103516 h -4.68165 c 1.36112,-2.151346 3.18817,-3.979572 5.33985,-5.339844 z m 256.541006,0 v 4.6875 c -0.004,0.497 -0.0988,0.548641 -0.0918,0.556641 0,0.006 -0.12928,0.0977 -0.61328,0.0957 h -4.63477 c 1.3604,-2.151524 3.18715,-3.980144 5.33984,-5.339844 z m 18.26172,0 c 2.1504,1.360458 3.97596,3.18783 5.33594,5.337891 h -4.67773 c -0.449,-0.002 -0.54688,-0.09952 -0.54688,-0.103516 -0.008,0 -0.10833,-0.12475 -0.11133,-0.59375 z m -256.539056,0.002 c 2.1501,1.359324 3.97756,3.187494 5.33789,5.337891 h -4.63476 c -0.244,0 -0.39729,-0.02483 -0.48829,-0.04883 -0.092,-0.027 -0.125,-0.05278 -0.125,-0.05078 -0.002,10e-7 -0.0858,-0.05573 -0.0898,-0.552734 z m 86.126946,6.259766 h 66.0625 c -1.4731,0.876107 -3.06821,1.813349 -3.95898,2.398437 -11.254,7.602 -18.65039,20.47636 -18.65039,35.06836 0,23.355999 18.93211,42.286159 42.28711,42.285159 2.214,0 4.38972,-0.17 6.51172,-0.5 l 0.0371,-0.006 12.52734,-2.98047 v 70.98047 c -0.006,2.973 -2.40686,5.37486 -5.38086,5.38086 H 135.7968 c -2.972,-0.006 -5.37681,-2.40786 -5.38281,-5.38086 l 0.002,-70.97852 12.51758,2.97852 0.0469,0.008 c 2.124,0.33 4.29867,0.49805 6.51367,0.49805 23.353,0 42.28316,-18.9292 42.28516,-42.283206 -0.002,-14.596 -7.39658,-27.465547 -18.64258,-35.060547 -0.94365,-0.620212 -2.33896,-1.468216 -3.92383,-2.408203 z m 139.00977,1.074219 h 1.03906 c -0.75374,2.242527 -1.16406,4.643792 -1.16406,7.136718 0,2.488675 0.4102,4.887356 1.16211,7.128907 h -1.03711 c -0.481,0 -0.875,-0.394956 -0.875,-0.876953 V 51.113948 c 0,-0.482 0.395,-0.876906 0.875,-0.878906 z m -256.537106,0.002 h 1.03711 c -0.75288,2.24188 -1.16211,4.641954 -1.16211,7.134765 0,2.489498 0.40841,4.888449 1.16016,7.128907 h -1.03516 c -0.484,0 -0.87695,-0.393 -0.87695,-0.875 V 51.115901 c 0,-0.483 0.39195,-0.878906 0.87695,-0.878906 z m 43.5,0.002 h 1.0332 c 0.482,0 0.875,0.394953 0.875,0.876953 v 12.509766 c 0,0.482 -0.393,0.875 -0.875,0.875 h -1.0332 c 0.75258,-2.241706 1.16211,-4.641562 1.16211,-7.132813 0,-2.491047 -0.40968,-4.888933 -1.16211,-7.128906 z m 256.539056,0 h 1.03711 c 0.482,0 0.87695,0.392953 0.87695,0.876953 v 12.509766 c 0,0.484 -0.39295,0.875 -0.87695,0.875 h -1.03711 c 0.75122,-2.240815 1.16181,-4.641562 1.16016,-7.132813 0,-2.488682 -0.40694,-4.887497 -1.16016,-7.128906 z m -167.79097,0.173593 c -1.691,0 -3.06246,1.371453 -3.06446,3.064453 0,0.868 0.36719,1.661797 0.95117,2.216797 l 0.0566,0.05664 10.09765,6.927734 c 0.466,0.372 1.13075,0.619141 1.84375,0.619141 h 16.81055 c 0.71,0 1.37648,-0.247203 1.89648,-0.658204 l 10.03907,-6.888671 0.0605,-0.05469 c 0.585,-0.556 0.95122,-1.34975 0.94922,-2.21875 0,-1.692 -1.3715,-3.064453 -3.0625,-3.064453 z M 73.953054,51.207698 c -3.404,0.002 -6.16011,2.760062 -6.16211,6.164062 0.002,3.401 2.75911,6.157157 6.16211,6.160157 3.403,-0.002 6.16011,-2.758157 6.16211,-6.160157 -0.003,-3.405 -2.76011,-6.162062 -6.16211,-6.164062 z m 256.537106,0.002 c -3.401,0.002 -6.15816,2.758109 -6.16016,6.162109 0.002,3.4 2.75716,6.158157 6.16016,6.160157 3.401,0 6.16011,-2.758157 6.16211,-6.160157 -0.002,-3.404 -2.76111,-6.160109 -6.16211,-6.162109 z m -146.55664,1.205078 h 11.94531 c -0.31688,0.199207 -0.52734,0.551094 -0.52734,0.953125 v 6.28711 c 0,0.621999 0.50299,1.125 1.125,1.125 h 0.28124 c 0.62201,0 1.125,-0.503001 1.125,-1.125 v -6.28711 c 0,-0.402031 -0.21046,-0.753918 -0.52734,-0.953125 h 4.13086 c -0.31747,0.199207 -0.5293,0.551094 -0.5293,0.953125 v 6.28711 c 0,0.621999 0.50496,1.125 1.12696,1.125 h 0.28125 c 0.621,0 1.12695,-0.503001 1.12695,-1.125 v -6.28711 c 0,-0.402421 -0.21353,-0.754023 -0.53125,-0.953125 h 4.13086 c -0.31742,0.199102 -0.5293,0.550704 -0.5293,0.953125 v 6.28711 c 0,0.621999 0.50596,1.125 1.12696,1.125 h 0.27929 c 0.622,0 1.12696,-0.503001 1.12696,-1.125 v -6.28711 c 0,-0.402421 -0.2119,-0.754023 -0.5293,-0.953125 h 11.94531 c 0.585,0 1.0625,0.477453 1.0625,1.064453 0,0.281 -0.10525,0.528703 -0.28125,0.720703 l -9.95312,6.830079 c -0.237,0.183999 -0.45894,0.267578 -0.71094,0.267578 h -16.81055 c -0.254,0 -0.4742,-0.08352 -0.6582,-0.228516 l -10.00781,-6.871094 c -0.176,-0.19 -0.28321,-0.43775 -0.28321,-0.71875 0.002,-0.587 0.47646,-1.064453 1.06446,-1.064453 z m 146.55859,0.792969 c 2.299,0.004 4.15616,1.864109 4.16016,4.162109 -0.004,2.296 -1.86116,4.154203 -4.16016,4.158203 -2.297,-0.004 -4.15716,-1.862203 -4.16016,-4.158203 0.004,-2.298 1.86216,-4.158109 4.16016,-4.162109 z m -256.537106,0.002 c 2.298,0.004 4.15616,1.863109 4.16016,4.162109 -0.004,2.297 -1.86316,4.156157 -4.16016,4.160157 -2.299,-0.005 -4.15811,-1.865157 -4.16211,-4.160157 0.004,-2.3 1.86311,-4.159109 4.16211,-4.162109 z M 280.78508,65.047636 c -6.771,0.002 -12.25972,5.489718 -12.26172,12.261718 0.002,6.772 5.49072,12.259766 12.26172,12.259766 6.771,0 12.25976,-5.489766 12.25976,-12.259766 0,-6.77 -5.48876,-12.259718 -12.25976,-12.261718 z m -157.125,0.002 c -6.77,0.002 -12.25781,5.489716 -12.25781,12.261719 0,6.769998 5.48781,12.255812 12.25781,12.257812 6.772,-0.002 12.25976,-5.487813 12.25976,-12.257812 0,-6.772003 -5.48776,-12.259719 -12.25976,-12.261719 z m -64.177736,1.451172 h 4.66797 c 0.266,-0.002 0.44239,0.02769 0.52539,0.05469 0.063,0.02 0.0703,0.0313 0.0703,0.0293 0,0.004 0.0135,-0.0125 0.0215,0.0625 0.029,0.088 0.0567,0.283453 0.0547,0.564453 v 4.628906 c -2.15162,-1.360924 -3.9793,-3.188733 -5.33985,-5.339843 z m 24.29297,0 h 4.64844 c -1.36017,2.151196 -3.18725,3.979327 -5.33789,5.339843 V 67.25862 c 0,-0.521 0.11123,-0.654297 0.11523,-0.654297 0,-0.004 0.0952,-0.101515 0.57422,-0.103515 z m 232.246096,0 h 4.65234 c 0.474,0.002 0.57227,0.103515 0.57227,0.103515 0.007,0 0.11523,0.134297 0.11523,0.654297 v 4.582031 c -2.15115,-1.360501 -3.97966,-3.189152 -5.33984,-5.339843 z m 24.27734,0 h 4.66406 c -1.36058,2.150511 -3.1876,3.979482 -5.33789,5.339843 v -4.630859 c -0.003,-0.247 0.018,-0.428297 0.043,-0.529297 0.016,-0.071 0.0351,-0.09661 0.0371,-0.09961 0.035,-0.02 0.19075,-0.08208 0.59375,-0.08008 z m -216.63672,0.548828 c 5.666,0.01 10.24781,4.594718 10.25781,10.261719 -0.01,5.663999 -4.59181,10.245812 -10.25781,10.257812 -5.667,-0.012 -10.24976,-4.593812 -10.25976,-10.257812 0.01,-5.667001 4.59476,-10.251719 10.25976,-10.261719 z m 157.1211,0 c 5.666,0.01 10.24976,4.593765 10.25976,10.259765 -0.01,5.665 -4.59376,10.249813 -10.25976,10.257813 -5.665,-0.008 -10.24877,-4.591813 -10.25977,-10.257813 0.012,-5.665 4.59577,-10.248765 10.25977,-10.259765 z m -29.27344,10.009765 c -6.773,0.002 -12.25977,5.488719 -12.25977,12.261719 0,6.768997 5.48877,12.25786 12.25977,12.25586 6.771,0 12.25972,-5.486863 12.26172,-12.25586 -0.002,-6.773 -5.49072,-12.259719 -12.26172,-12.261719 z m -98.57422,0.002 c -6.77,-10e-7 -12.25781,5.488765 -12.25781,12.259765 0,6.770997 5.48781,12.258814 12.25781,12.257814 6.77,0 12.25776,-5.486817 12.25976,-12.257814 h -0.002 c 0,-6.772 -5.48781,-12.259765 -12.25781,-12.259765 z m -71.851556,1.538875 v 1.039062 c -0.002,0.482 -0.39196,0.875 -0.87696,0.875 h -12.50976 c -0.484,0 -0.875,-0.392998 -0.875,-0.875 v -1.037109 c 2.24058,0.751106 4.64043,1.159039 7.13281,1.158203 2.48941,0 4.88843,-0.408129 7.12891,-1.160156 z m 242.277336,0.002 c 2.23988,0.751505 4.64043,1.159321 7.13281,1.160156 2.48989,0 4.8883,-0.407853 7.12891,-1.160156 v 1.035156 c 0,0.484 -0.39205,0.875 -0.87305,0.875 H 324.2382 c -0.484,0 -0.87695,-0.391 -0.87695,-0.875 z m -170.42578,0.458985 c 5.667,0.01 10.24977,4.592765 10.25976,10.259765 -0.01,5.663997 -4.59276,10.245857 -10.25976,10.255857 -5.666,-0.009 -10.24977,-4.59186 -10.25977,-10.255857 0.01,-5.667 4.59377,-10.249765 10.25977,-10.259765 z m 98.57422,0 c 5.666,0.011 10.24972,4.595718 10.26172,10.261718 -0.012,5.664004 -4.59572,10.244864 -10.26172,10.255864 -5.666,-0.011 -10.24977,-4.59286 -10.25977,-10.255864 0.01,-5.666 4.59377,-10.25072 10.25977,-10.261718 z M 28.917894,87.205792 c 6.68464,9.733711 16.49266,17.154588 28.01563,20.738278 l 0.0273,0.01 0.0391,0.01 71.416016,16.99024 v 10.18359 c -0.96656,-0.22022 -2.66885,-0.43791 -6.16016,-0.44922 -2.929,0.002 -7.0424,0.17083 -12.8164,0.67383 -17.869996,1.538 -24.939966,15.68512 -27.542966,29.32812 -2.647,13.64 -12.39249,100.26583 -15.39649,125.04883 -2.856,23.776 -21.69126,33.28725 -31.82226,33.28125 -0.194,0 -0.37869,-0.002 -0.55469,-0.008 -10.129,-0.443 -25.2704998,-6.62933 -27.5624998,-33.23633 -0.382,-8.754 -0.56641,-16.99195 -0.56641,-24.75195 0.01,-60.404 11.1496698,-91.8023 26.7636698,-129.0293 2.33201,-5.56 3.34966,-11.0822 3.34766,-16.7832 -0.006,-9.70718 -2.95181,-19.970157 -7.1875,-32.005858 z m 346.603516,0.0098 c -4.23371,12.032296 -7.17689,22.293428 -7.18555,31.998048 0,5.699 1.01161,11.2232 3.34961,16.7832 15.614,37.225 26.75072,68.6253 26.76172,129.0293 0,7.761 -0.18346,15.99797 -0.56446,24.79297 -2.29099,26.566 -17.43149,32.74831 -27.5625,33.19531 -0.17699,0.006 -0.36173,0.01 -0.55273,0.01 -10.132,0.004 -28.96831,-9.50621 -31.82031,-33.28321 -3.005,-24.783 -12.75044,-111.40982 -15.39844,-125.04882 -2.602,-13.643 -9.67297,-27.78908 -27.54297,-29.33008 -5.777,-0.502 -9.88636,-0.66988 -12.81836,-0.67188 -3.48712,0.0131 -5.18948,0.22961 -6.15625,0.44922 V 124.9502 l 71.45508,-16.99805 0.0254,-0.008 c 11.51926,-3.58164 21.32523,-10.998782 28.00977,-20.728518 z M 133.41984,147.11786 v 14.01172 c 0,5.734 4.64782,10.38281 10.38282,10.38281 h 115.84765 c 5.735,0 10.38082,-4.64781 10.38282,-10.38281 l -0.002,-14.01172 h -1.99609 -0.002 v 14.01172 c -0.01,4.628 -3.75582,8.37086 -8.38282,8.38086 H 143.80461 c -4.632,-0.009 -8.37677,-3.75086 -8.38477,-8.38086 v -14.01172 z"
   style="fill:#ffffff" />




























</svg>
