<?xml version="1.0" encoding="UTF-8" standalone="no"?>
<!-- Generator: Adobe Illustrator 13.0.0, SVG Export Plug-In . SVG Version: 6.00 Build 14948)  -->

<svg
   version="1.1"
   id="svg2"
   x="0px"
   y="0px"
   width="567.64459"
   height="183.79701"
   viewBox="0 0 567.64458 183.79702"
   enable-background="new 0 0 566.929 142.564"
   xml:space="preserve"
   sodipodi:docname="system (cópia).svg"
   inkscape:version="1.1.2 (0a00cf5339, 2022-02-04)"
   xmlns:inkscape="http://www.inkscape.org/namespaces/inkscape"
   xmlns:sodipodi="http://sodipodi.sourceforge.net/DTD/sodipodi-0.dtd"
   xmlns="http://www.w3.org/2000/svg"
   xmlns:svg="http://www.w3.org/2000/svg"
   xmlns:ns="&amp;#38;ns_sfw;"><defs
   id="defs21">
	
	
	
	
	
	
	
	
	
	
	
	
</defs><sodipodi:namedview
   id="namedview19"
   pagecolor="#ffffff"
   bordercolor="#666666"
   borderopacity="1.0"
   inkscape:pageshadow="2"
   inkscape:pageopacity="0.0"
   inkscape:pagecheckerboard="0"
   showgrid="false"
   fit-margin-top="0"
   fit-margin-left="0"
   fit-margin-right="0"
   fit-margin-bottom="0"
   inkscape:zoom="0.32654"
   inkscape:cx="522.14124"
   inkscape:cy="-176.08869"
   inkscape:window-width="1920"
   inkscape:window-height="996"
   inkscape:window-x="0"
   inkscape:window-y="0"
   inkscape:window-maximized="1"
   inkscape:current-layer="svg2" />
<metadata
   id="metadata2">
	<ns:sfw>
		<ns:slices />
		<ns:sliceSourceBounds
   x="677.036"
   y="468.218"
   width="566.929"
   height="142.564"
   bottomLeftOrigin="true" />
	</ns:sfw>
</metadata>
<path
   id="path1010"
   d="m 291.19141,6.324359 c -1.30778,4.371882 -2.72715,8.710925 -3.97601,13.099529 -0.52901,2.079431 -0.87992,4.056332 -1.36415,6.16261 -6.97972,32.139834 -13.95943,64.279668 -20.93914,96.419502 0,-35.763021 0,-71.526042 0,-107.289063 -9.2845,0 -18.56901,0 -27.85351,0 0,42.124349 0,84.248698 0,126.373043 -1.38607,0 -2.77214,0 -4.15821,0 1e-5,-42.124345 0,-84.248694 0,-126.373043 -27.42578,0 -54.85156,0 -82.27734,0 0,3.20638 0,6.41276 0,9.619141 -4.02453,-4.509329 -9.30676,-8.07374 -15.25,-9.417969 -2.508,-0.429602 -5.06371,-0.130535 -7.59336,-0.216797 -10.07174,0 -20.14349,0 -30.215236,0 -10e-7,51.518229 0,103.036458 0,154.554688 9.337236,0 18.674486,0 28.011726,0 0,-13.0267 0,-26.05339 0,-39.08008 3.93745,13.0254 7.87526,26.0507 11.8125,39.07617 9.00325,0 18.00651,0 27.00976,0 -6.24055,-23.60864 -12.48041,-47.21746 -18.7207,-70.826169 4.97194,-3.759032 9.24621,-8.641564 11.63867,-14.441406 0.54766,-2.03765 0.16982,-4.162189 0.28516,-6.240625 0,-12.182161 0,-24.364323 0,-36.546484 2.95898,0 5.91797,0 8.87695,0 0,42.682942 0,85.365884 0,128.048824 9.33529,0 18.67057,0 28.00586,0 0,-42.68359 0,-85.367184 0,-128.050777 3.41862,0 6.83724,0 10.25586,0 0,35.732421 0,71.464847 0,107.197267 3.81963,8.94455 11.41169,16.41363 20.77541,19.32687 7.98798,2.49294 17.0002,2.00172 24.4824,-1.8464 2.31405,-1.22109 4.4681,-2.74589 6.38281,-4.5293 -0.45951,1.67095 -0.1731,3.41797 -0.25195,5.12773 0,0.92683 0,1.85365 0,2.78047 8.96875,0 17.9375,0 26.90625,0 1.11778,-6.40431 2.23569,-12.80859 3.35352,-19.21289 4.08007,0 8.16015,0 12.24023,0 1.06787,6.40427 2.13426,12.80879 3.20313,19.21289 24.48372,-0.002 48.96744,-0.004 73.45117,-0.006 0,-8.82682 0,-17.65364 0,-26.48047 -7.97917,0 -15.95834,0 -23.9375,0 0,-42.68294 0,-85.36588 0,-128.048823 -9.33594,0 -18.67188,0 -28.00782,0 10e-4,40.424479 0.003,80.848958 0.004,121.273433 C 315.1717,97.009196 307.00672,58.026367 298.81259,19.050781 296.91799,12.700543 295.0232,6.350359 293.129,0 c -0.64583,2.108073 -1.29167,4.216146 -1.9375,6.324219 z m 89.7793,10.376953 c 0,50.851562 0,101.703128 0,152.554688 12.99153,0 25.98307,0 38.97461,0 6.49418,-1.58013 12.84038,-4.85545 16.92719,-10.27824 2.62488,-3.49299 4.42975,-7.80912 4.13128,-12.24442 -0.0211,-15.55465 0.0209,-31.11363 -0.0588,-46.66557 -0.40625,-2.606792 -1.46827,-5.130413 -3.16766,-7.159427 2.44034,-2.881083 3.4946,-6.757922 3.22851,-10.492187 0,-15.396485 0,-30.792969 0,-46.189453 -1.2612,-7.005099 -5.92588,-13.035333 -11.75079,-16.946273 -2.88868,-1.950961 -6.00949,-3.664924 -9.38434,-4.579118 -12.96667,0 -25.93334,0 -38.9,0 0,0.666667 0,1.333333 0,2 z m 89.5625,-1.96875 c -8.01883,0.238374 -15.96448,3.602593 -21.47623,9.477714 -3.21755,3.336704 -5.846,7.333925 -7.30255,11.741425 0.14573,22.734987 0.0395,45.470595 0.0505,68.205859 10e-4,14.52638 -0.0514,29.05557 -0.0111,43.58019 0.80515,6.72884 4.68815,13.09976 10.54005,16.59683 6.3254,3.98461 14.00301,5.18881 21.36999,4.88089 6.71686,-0.2238 13.65351,-1.72963 19.16545,-5.75288 5.43947,-3.99467 9.11598,-10.57848 8.91727,-17.40727 0.0288,-18.76044 0.004,-37.52146 0.0123,-56.282133 0,-13.046094 0,-26.092188 0,-39.138281 4.53841,18.222656 9.07683,36.445312 13.61524,54.667964 0,21.31446 0,42.62891 0,63.94336 9.33528,0 18.67057,0 28.00586,0 0,-21.30273 0,-42.60547 0,-63.9082 8.07529,-30.206917 16.14714,-60.414756 24.22461,-90.621093 -9.59831,0 -19.19662,0 -28.79493,0 -3.00738,13.627191 -6.0171,27.253868 -9.02539,40.880859 -3.3137,-13.626978 -6.62824,-27.253752 -9.9414,-40.880859 -9.00912,0 -18.01823,0 -27.02735,0 0.82092,3.302909 1.64252,6.605646 2.46485,9.908203 -5.25963,-5.854392 -12.98292,-9.150956 -20.75227,-9.788527 -1.34124,-0.116209 -2.68942,-0.142567 -4.03484,-0.104051 z M 0.5039062,17.127093 C 10.786477,66.395645 21.053253,115.66874 31.359375,164.93178 c 1.939118,6.28851 3.877406,12.57728 5.81836,18.86523 1.852345,-6.32127 3.793998,-12.61695 5.668372,-18.93066 1.1235,-4.75036 1.997002,-9.55512 3.029808,-14.32537 7.120789,-34.32025 14.241578,-68.640506 21.362367,-102.960762 0,40.55599 0,81.111982 0,121.667972 9.335286,0 18.670573,-1e-5 28.005859,0 0,-51.51042 0,-103.020836 0,-154.531253 -16.544922,0 -33.089844,0 -49.634766,0 -2.846314,16.789389 -5.68849,33.57948 -8.533203,50.369141 -2.873909,-16.789789 -5.751386,-33.578968 -8.623047,-50.369141 -9.484375,0 -18.96875,0 -28.453125,0 0.1679687,0.803385 0.3359375,1.606771 0.5039062,2.410156 z M 129.58789,41.211078 c 0,12.511718 1e-5,25.023437 0,37.535156 -1.33723,0 -2.67447,0 -4.01171,0 0,-12.511719 0,-25.023438 0,-37.535156 1.33724,0 2.67448,0 4.01171,0 z m 344.20118,1.65039 c 0,33.29362 0,66.587242 0,99.880862 -1.33789,0 -2.67578,0 -4.01368,0 10e-6,-33.29362 0,-66.587242 0,-99.880862 1.3379,0 2.67579,0 4.01368,0 z m -60.64649,0.09961 c 0,11.928385 0,23.85677 0,35.785156 -1.37044,0 -2.74088,0 -4.11133,0 0,-11.928386 0,-23.856771 0,-35.785156 1.37045,0 2.74089,0 4.11133,0 z m 0,62.246092 c 0,12.51172 0,25.02344 0,37.53516 -1.38672,0 -2.77344,0 -4.16015,0 0,-12.51172 0,-25.02344 0,-37.53516 1.38671,0 2.77343,0 4.16015,0 z m -119.74414,20.02148 c -0.52223,-0.0718 -1.38138,0.13997 -1.7056,-0.0985 0.30291,-1.75036 0.60582,-3.50072 0.90873,-5.25107 0.26562,1.7832 0.53125,3.5664 0.79687,5.3496 z" /><path
   id="path2952"
   fill="#ce021b"
   d="M 7.3847656,20.717312 37.111766,163.24831 66.684766,20.717312 h -16.006 l -13.567,80.107998 -13.72,-80.107998 z"
   style="fill:#ffffff" /><path
   id="path3726"
   fill="#ce021b"
   d="m 73.239766,20.717312 h 16.006 V 163.24831 h -16.006 z"
   style="fill:#ffffff" /><path
   id="path3728"
   fill="#ce021b"
   d="M 103.56577,20.701312 V 163.25631 h 16.012 V 89.600312 l 22.266,73.651998 h 14.762 l -17.813,-67.396998 c 9.896,-5.938 12.81,-13.71 12.81,-13.71 v -45.283 c -6.558,-14.558 -17.865,-16.161 -17.865,-16.161 z m 16.012,14.51 h 16.012 v 49.536 h -16.012 z"
   style="fill:#ffffff" /><path
   id="path3733"
   fill="#ce021b"
   d="m 156.62477,20.717312 h 47.867 v 14.48 h -16.007 V 163.24731 h -16.006 V 35.199312 h -15.854 z"
   style="fill:#ffffff" /><path
   id="path3735"
   fill="#ce021b"
   d="m 293.05377,20.701312 -30.924,142.401998 v 0.149 h 15.862 l 3.353,-19.213 h 22.366 l 3.202,19.213 h 16.013 z m 0,61.443 7.306,49.084998 h -15.813 z"
   style="fill:#ffffff" /><path
   id="path2882"
   fill="#ce021b"
   d="m 329.33977,20.717312 h 16.008 V 148.76631 h 23.936 v 14.481 h -39.941 z"
   style="fill:#ffffff" /><path
   id="path3660"
   fill="#ce021b"
   d="m 500.53277,20.717312 h 14.635 l 14.938,61.435 13.568,-61.435 h 16.156 l -22.408,83.841998 v 58.688 h -16.006 v -58.687 z"
   style="fill:#ffffff" /><path
   id="path3662"
   fill="#ce021b"
   d="m 471.80777,20.717312 c -18.193,0 -24.041,16.146 -24.041,16.146 0.15,0.229 0,107.180998 0,110.229998 2.412,17.325 24.041,16.155 24.041,16.155 v 0 c 24,0 23.992,-16.155 23.992,-16.155 V 36.862312 c -6.205,-16.944 -23.992,-16.145 -23.992,-16.145 z m -8.031,16.145 h 16.014 V 148.74331 h -16.014 z"
   style="fill:#ffffff" /><path
   id="path3667"
   fill="#ce021b"
   d="m 210.74077,20.717312 h 16.16 V 147.09131 h 16.159 V 20.717312 h 15.853 V 147.09131 c 0,0 -5.183,16.157 -23.323,16.157 -18.14,0 -24.849,-16.157 -24.849,-16.157 z"
   style="fill:#ffffff" /><path
   id="path3669"
   fill="#ce021b"
   d="M 386.97177,20.701312 V 163.25631 h 32.174 c 14.934,-3.89 15.859,-14.513 15.859,-14.513 0,0 -0.023,-38.076 -0.023,-47.918 -1.121,-6.212998 -6.229,-6.421998 -6.229,-6.421998 0,0 -0.021,-1.731 0,-3.102 5.645,-0.433 6.254,-6.556 6.254,-6.556 0,0 -0.023,-38.039 0,-47.885 -2.443,-11.626 -15.861,-16.159 -15.861,-16.159 z m 16.061,16.26 h 16.111 v 47.785 h -16.111 z m -0.049,62.247 h 16.16 v 49.534998 h -16.16 z"
   style="fill:#ffffff" />
</svg>
