<?xml version="1.0" encoding="UTF-8" standalone="no"?>
<!-- Generator: Adobe Illustrator 26.0.1, SVG Export Plug-In . SVG Version: 6.00 Build 0)  -->

<svg
   version="1.1"
   id="Layer_1"
   x="0px"
   y="0px"
   viewBox="0 0 2889.5 1391.7"
   xml:space="preserve"
   sodipodi:docname="system_color.svg"
   width="2889.5"
   height="1391.7"
   inkscape:version="1.1.2 (0a00cf5339, 2022-02-04)"
   xmlns:inkscape="http://www.inkscape.org/namespaces/inkscape"
   xmlns:sodipodi="http://sodipodi.sourceforge.net/DTD/sodipodi-0.dtd"
   xmlns="http://www.w3.org/2000/svg"
   xmlns:svg="http://www.w3.org/2000/svg"><defs
   id="defs175">
	
	

		
	
			
			
			
		
				
				
				
				
				
				
			
		
	
			
			
		
				
				
			
				
				
				
				
				
				
				
			</defs><sodipodi:namedview
   id="namedview173"
   pagecolor="#87838e"
   bordercolor="#666666"
   borderopacity="1.0"
   inkscape:pageshadow="2"
   inkscape:pageopacity="0"
   inkscape:pagecheckerboard="0"
   showgrid="false"
   fit-margin-top="0"
   fit-margin-left="0"
   fit-margin-right="0"
   fit-margin-bottom="0"
   inkscape:zoom="0.19367023"
   inkscape:cx="818.40149"
   inkscape:cy="733.20512"
   inkscape:window-width="1920"
   inkscape:window-height="995"
   inkscape:window-x="0"
   inkscape:window-y="0"
   inkscape:window-maximized="1"
   inkscape:current-layer="Layer_1" />
<style
   type="text/css"
   id="style2">
	.st0{fill:#FFFFFF;}
	.st1{fill:#C2AC6D;}
	.st2{fill:#FCEA3C;}
	.st3{fill:#299DD8;}
</style>
<g
   id="g591"
   style="fill:#ffffff"><path
     class="st1"
     d="M 472.3,910.2 H 329.1 V 929 h 18.7 c 25,0 45.3,23.3 45.3,48.3 v 232.3 L 149,910.2 H 0 V 929 c 33.3,0 59.5,30 59.5,63.4 v 325.5 c 0,33.3 -35.1,44.3 -59.5,44.3 v 18.8 h 161.8 v -18.8 c -30.3,-0.2 -46.3,-4.3 -56.7,-14.1 C 94.8,1338.3 92,1325.3 92,1307.4 v -305.1 l 316,385.3 h 17.3 v -410 c 0,-24.3 19,-44.9 47,-45.9 z"
     id="path16"
     style="fill:#ffffff" /><circle
     class="st1"
     cx="1455.8"
     cy="1144.1"
     r="54.599998"
     id="circle18"
     style="fill:#ffffff" /><g
     id="g22"
     style="fill:#ffffff">
					<path
   class="st1"
   d="m 1771.6,1160.8 v 22.7 h 17.8 c 28.9,0 37,13.9 37,38.8 v 111.3 c -6.6,8 -29.1,18.2 -61,18.2 -6.5,0 -43.3,-0.7 -70.8,-23.3 -28.8,-23.6 -48.2,-71.5 -48.2,-185.3 0,-148.2 52.1,-210.9 127.7,-210.9 24.6,0 107.9,16.6 143.4,123.7 h 22.2 V 901.5 h -21 c -2.7,20.8 -19.1,32.3 -50.1,19.4 -46.8,-19.5 -88.7,-22.4 -119.4,-22.4 -120.9,0 -223.8,111.9 -223.8,245.6 0,154 116.3,244.2 241.1,244.2 59.2,0 121.9,-13.7 171.6,-38.8 v -127.2 c 0,-29.8 20.8,-38.8 48.8,-38.8 v -22.7 z"
   id="path20"
   style="fill:#ffffff" />
				</g><g
     id="g32"
     style="fill:#ffffff">
					<path
   class="st1"
   d="m 870,1235.7 c -11.7,64.5 -67.3,114.9 -129.7,113.3 h -53.8 c -16.9,0 -30.6,-13.7 -30.6,-30.6 v -165 h 14.8 c 44,0 72.1,36.9 72.1,100.3 H 762 v -112.4 -5.7 -110.3 h -19.3 c 0,55.8 -23.6,96.1 -72.2,96.1 h -14.8 v -183 h 77.4 c 104.2,0 107.8,92.9 107.8,104.9 h 20.8 V 942.4 910.1 H 486.1 v 18.7 h 26.5 c 20.3,0 36.7,19.2 36.7,39.4 v 346.6 c 0,36.5 -23.9,44.8 -44.2,44.8 h -19 v 21.4 h 63.2 317.8 l 21.4,-145.4 H 870 Z"
   id="path24"
   style="fill:#ffffff" />
					<g
   id="g30"
   style="fill:#ffffff">
						<g
   id="g28"
   style="fill:#ffffff">
							<path
   class="st1"
   d="m 1146.4,905.3 c -135.5,0 -239.8,99.8 -239.8,243.2 0,143.4 104.4,243.2 239.8,243.2 135.5,0 239.9,-99.8 239.9,-243.2 0,-143.4 -104.4,-243.2 -239.9,-243.2 z m 0,454.9 c -65.1,0 -117.8,-59.6 -117.8,-211.8 0,-152.2 52.8,-211.8 117.8,-211.8 65.1,0 117.8,59.6 117.8,211.8 0.1,152.2 -52.7,211.8 -117.8,211.8 z"
   id="path26"
   style="fill:#ffffff" />
						</g>
					</g>
				</g><g
     id="g42"
     style="fill:#ffffff">
					<path
   class="st1"
   d="m 2373.3,1235.7 c -11.7,64.5 -67.3,114.9 -129.7,113.3 h -53.8 c -16.9,0 -30.6,-13.7 -30.6,-30.6 v -165 h 14.8 c 44,0 72.1,36.9 72.1,100.3 h 19.3 v -112.4 -5.7 -110.3 H 2246 c 0,55.8 -23.6,96.1 -72.2,96.1 H 2159 v -183 h 77.4 c 104.2,0 107.8,92.9 107.8,104.9 H 2365 V 942.4 910.1 h -375.6 v 18.7 h 26.5 c 20.3,0 36.7,19.2 36.7,39.4 v 346.6 c 0,36.5 -23.9,44.8 -44.2,44.8 h -19 v 21.4 h 63.2 317.8 l 21.4,-145.4 h -18.5 z"
   id="path34"
   style="fill:#ffffff" />
					<g
   id="g40"
   style="fill:#ffffff">
						<g
   id="g38"
   style="fill:#ffffff">
							<path
   class="st1"
   d="m 2649.6,905.3 c -135.5,0 -239.8,99.8 -239.8,243.2 0,143.4 104.4,243.2 239.8,243.2 135.5,0 239.9,-99.8 239.9,-243.2 0,-143.4 -104.4,-243.2 -239.9,-243.2 z m 0,454.9 c -65.1,0 -117.8,-59.6 -117.8,-211.8 0,-152.2 52.8,-211.8 117.8,-211.8 65.1,0 117.8,59.6 117.8,211.8 0.2,152.2 -52.7,211.8 -117.8,211.8 z"
   id="path36"
   style="fill:#ffffff" />
						</g>
					</g>
				</g></g><path
   id="polygon144"
   style="fill:#ffffff"
   d="M 1054.4004 12.099609 L 852.5 213.90039 L 852.5 561.5 L 1098.3008 807.30078 L 1446 807.30078 L 1635.8008 617.5 L 1835.0996 816.80078 L 2037 614.90039 L 2037 267.40039 L 1791.1992 21.599609 L 1443.5 21.599609 L 1253.6992 211.40039 L 1054.4004 12.099609 z M 1054.4004 72.300781 L 1587.5996 605.40039 L 1428.3008 764.69922 L 1116 764.69922 L 895.09961 543.90039 L 895.09961 231.59961 L 1054.4004 72.300781 z M 1654.1992 146.69922 L 1695.9004 151.80078 L 1709.9004 183.30078 L 1686.0996 216.59961 L 1646.0996 210.40039 L 1634.4004 178.90039 L 1654.1992 146.69922 z M 1561.6992 237 L 1601.1992 276.59961 L 1604.9004 335.90039 L 1548.8008 357.5 L 1499.8008 315.80078 L 1505.3008 249.40039 L 1561.6992 237 z M 1160.3008 273.40039 L 1129 274.90039 L 1109.6992 314.69922 L 1137.3008 358.90039 L 1177.5996 352.30078 L 1193.5 315.40039 L 1160.3008 273.40039 z M 1878.4004 334.30078 L 1900.6992 452.19922 L 1895.3008 490 L 1851.3008 505.30078 L 1838.8008 567.59961 L 1761.1992 577.19922 L 1722.6992 546.40039 L 1711.6992 480.09961 L 1772.9004 453.69922 L 1782.1992 424.90039 L 1775.8008 352.59961 L 1878.4004 334.30078 z M 1007.1992 385.59961 L 987 402 L 988.69922 425.19922 L 1010.4004 438.59961 L 1043.9004 414.40039 L 1031.6992 388.09961 L 1007.1992 385.59961 z M 1335.5996 484.59961 L 1319.4004 566.69922 L 1294.9004 617.59961 L 1249.8008 650.19922 L 1186.0996 656.80078 L 1122.3008 639.90039 L 1198.9004 688.69922 L 1257.9004 688.30078 L 1297.8008 668.19922 L 1341.4004 612.80078 L 1352.4004 567.40039 L 1335.5996 484.59961 z " /><path
   class="st0"
   d="M 1054.4,24.1 1253.7,223.4 1447,30.1 h 340.5 l 240.8,240.8 V 611.4 L 1835,804.7 1635.7,605.4 1442.4,798.7 H 1101.9 L 861.1,558 V 217.4 L 1054.4,24.1 m 0,-24.1 -12.1,12.1 -193.3,193.3 -5,5 v 7.1 340.5 7.1 l 5,5 240.8,240.8 5,5 h 7.1 340.5 7.1 l 5,-5 181.3,-181.3 187.2,187.2 12.1,12.1 12.1,-12.1 193.3,-193.3 5,-5 v -7.1 -340.5 -7.1 l -5,-5 -240.8,-240.8 -5,-5 h -7.1 -340.5 -7.1 l -5,5 -181.3,181.3 -187.2,-187.2 z"
   id="path146"
   style="fill:#000000" />
</svg>
