<?xml version="1.0" encoding="UTF-8" standalone="no"?>
<svg
   version="1.1"
   viewBox="0 0 270.45142 72.40506"
   id="svg11"
   sodipodi:docname="system (cópia).svg"
   inkscape:version="1.1.2 (0a00cf5339, 2022-02-04)"
   width="270.45142"
   height="72.40506"
   xmlns:inkscape="http://www.inkscape.org/namespaces/inkscape"
   xmlns:sodipodi="http://sodipodi.sourceforge.net/DTD/sodipodi-0.dtd"
   xmlns="http://www.w3.org/2000/svg"
   xmlns:svg="http://www.w3.org/2000/svg">
  <defs
     id="defs15" />
  <sodipodi:namedview
     id="namedview13"
     pagecolor="#505050"
     bordercolor="#ffffff"
     borderopacity="1"
     inkscape:pageshadow="0"
     inkscape:pageopacity="0"
     inkscape:pagecheckerboard="1"
     showgrid="false"
     inkscape:zoom="1.983381"
     inkscape:cx="50.671051"
     inkscape:cy="16.386161"
     inkscape:window-width="1920"
     inkscape:window-height="996"
     inkscape:window-x="0"
     inkscape:window-y="0"
     inkscape:window-maximized="1"
     inkscape:current-layer="svg11"
     fit-margin-top="0"
     fit-margin-left="0"
     fit-margin-right="0"
     fit-margin-bottom="0" />
  <g
     transform="matrix(0.44,0,0,0.438203,3.2257045,3.2123837)"
     id="g842"
     style="fill:#000000;fill-opacity:1;stroke:#000000;stroke-width:14.6641;stroke-linejoin:round;stroke-miterlimit:4;stroke-dasharray:none">
    <path
       d="m 254.61,81.768 c -15.747,15.753 -15.747,41.283 0,57.039 15.753,15.744 41.283,15.744 57.036,0 13.62,-13.623 15.456,-34.56 5.523,-50.157 l -21.696,21.696 c -0.018,3.144 -1.218,6.279 -3.612,8.673 -4.824,4.815 -12.642,4.815 -17.466,0 -4.815,-4.824 -4.815,-12.639 0,-17.463 4.824,-4.818 12.642,-4.818 17.466,0 l 0.369,0.393 19.797,-19.794 -0.378,-0.387 c -15.756,-15.744 -41.286,-15.744 -57.039,0 z"
       id="path828"
       style="fill:#000000;fill-opacity:1;stroke:#000000;stroke-width:14.6641;stroke-linejoin:round;stroke-miterlimit:4;stroke-dasharray:none" />
    <path
       d="M 97.473,150.453 194.946,39.498 H 154.272 L 91.968,102.93 c -1.902,1.935 -4.989,1.935 -6.891,0 -1.899,-1.932 -1.899,-5.079 0,-7.02 L 140.493,39.498 H 0 Z"
       id="path830"
       style="fill:#000000;fill-opacity:1;stroke:#000000;stroke-width:14.6641;stroke-linejoin:round;stroke-miterlimit:4;stroke-dasharray:none" />
    <path
       d="m 532.485,110.106 -33.756,39.687 h 27.582 l 26.28,-26.754 c 1.524,-1.551 3.993,-1.551 5.517,0 1.521,1.545 1.521,4.056 0,5.613 l -20.766,21.147 H 600 L 566.247,110.109 600,70.422 h -27.582 l -26.28,26.757 c -1.524,1.557 -3.99,1.557 -5.514,0 -1.524,-1.548 -1.524,-4.056 0,-5.613 L 561.39,70.422 h -62.661 z"
       id="path832"
       style="fill:#000000;fill-opacity:1;stroke:#000000;stroke-width:14.6641;stroke-linejoin:round;stroke-miterlimit:4;stroke-dasharray:none" />
    <path
       d="m 377.127,70.419 v 79.377 h 25.332 V 98.205 h 19.209 l 23.628,-27.786 h -27.579 l -26.289,26.757 c -1.515,1.557 -3.984,1.557 -5.505,0 -1.524,-1.545 -1.524,-4.056 0,-5.613 l 20.763,-21.144 z"
       id="path834"
       style="fill:#000000;fill-opacity:1;stroke:#000000;stroke-width:14.6641;stroke-linejoin:round;stroke-miterlimit:4;stroke-dasharray:none" />
    <path
       d="m 358.239,70.758 h 15.309 L 398.835,44.625 H 358.242 V 0 L 296.49,70.758 h 27.006 L 341.988,53.58 c 1.524,-1.548 3.993,-1.548 5.505,0 1.524,1.557 1.524,4.065 0,5.616 L 332.91,74.052 v 75.744 h 25.335 V 70.758 Z"
       id="path836"
       style="fill:#000000;fill-opacity:1;stroke:#000000;stroke-width:14.6641;stroke-linejoin:round;stroke-miterlimit:4;stroke-dasharray:none" />
    <path
       d="m 168.189,81.768 c -15.744,15.753 -15.744,41.283 0,57.039 15.753,15.744 41.283,15.744 57.036,0 13.623,-13.623 15.459,-34.56 5.523,-50.157 l -21.696,21.696 c -0.015,3.144 -1.218,6.279 -3.612,8.673 -3.96,3.951 -9.927,4.656 -14.601,2.133 l 36.774,-36.774 c -0.633,-0.756 -4.683,-4.773 -5.901,-5.736 -15.828,-12.543 -38.898,-11.499 -53.523,3.126 z m 17.118,33.276 c -1.866,-4.476 -0.978,-9.843 2.667,-13.488 3.648,-3.645 9.015,-4.536 13.491,-2.667 z"
       id="path838"
       style="fill:#000000;fill-opacity:1;stroke:#000000;stroke-width:14.6641;stroke-linejoin:round;stroke-miterlimit:4;stroke-dasharray:none" />
    <path
       d="m 443.085,81.768 c -15.744,15.753 -15.744,41.283 0,57.039 15.756,15.744 41.286,15.744 57.039,0 13.623,-13.623 15.459,-34.56 5.526,-50.157 l -21.696,21.696 c -0.018,3.144 -1.215,6.279 -3.612,8.673 -3.957,3.951 -9.927,4.656 -14.601,2.133 l 36.774,-36.774 c -0.636,-0.756 -4.686,-4.773 -5.901,-5.736 -15.831,-12.543 -38.901,-11.499 -53.529,3.126 z m 17.121,33.276 c -1.869,-4.476 -0.981,-9.843 2.667,-13.488 3.645,-3.645 9.015,-4.536 13.488,-2.667 z"
       id="path840"
       style="fill:#000000;fill-opacity:1;stroke:#000000;stroke-width:14.6641;stroke-linejoin:round;stroke-miterlimit:4;stroke-dasharray:none" />
  </g>
  <g
     transform="matrix(0.44,0,0,0.438203,3.2257045,3.2123837)"
     id="g9"
     style="fill:#ffffff;fill-opacity:1">
    <path
       d="m 254.61,81.768 c -15.747,15.753 -15.747,41.283 0,57.039 15.753,15.744 41.283,15.744 57.036,0 13.62,-13.623 15.456,-34.56 5.523,-50.157 l -21.696,21.696 c -0.018,3.144 -1.218,6.279 -3.612,8.673 -4.824,4.815 -12.642,4.815 -17.466,0 -4.815,-4.824 -4.815,-12.639 0,-17.463 4.824,-4.818 12.642,-4.818 17.466,0 l 0.369,0.393 19.797,-19.794 -0.378,-0.387 c -15.756,-15.744 -41.286,-15.744 -57.039,0 z"
       id="path3"
       style="fill:#ffffff;fill-opacity:1" />
    <path
       d="M 97.473,150.453 194.946,39.498 H 154.272 L 91.968,102.93 c -1.902,1.935 -4.989,1.935 -6.891,0 -1.899,-1.932 -1.899,-5.079 0,-7.02 L 140.493,39.498 H 0 Z"
       id="path5"
       style="fill:#ffffff;fill-opacity:1" />
    <path
       d="m 532.485,110.106 -33.756,39.687 h 27.582 l 26.28,-26.754 c 1.524,-1.551 3.993,-1.551 5.517,0 1.521,1.545 1.521,4.056 0,5.613 l -20.766,21.147 H 600 L 566.247,110.109 600,70.422 h -27.582 l -26.28,26.757 c -1.524,1.557 -3.99,1.557 -5.514,0 -1.524,-1.548 -1.524,-4.056 0,-5.613 L 561.39,70.422 h -62.661 z"
       id="path7"
       style="fill:#ffffff;fill-opacity:1" />
    <path
       d="m 377.127,70.419 v 79.377 h 25.332 V 98.205 h 19.209 l 23.628,-27.786 h -27.579 l -26.289,26.757 c -1.515,1.557 -3.984,1.557 -5.505,0 -1.524,-1.545 -1.524,-4.056 0,-5.613 l 20.763,-21.144 z"
       id="path9"
       style="fill:#ffffff;fill-opacity:1" />
    <path
       d="m 358.239,70.758 h 15.309 L 398.835,44.625 H 358.242 V 0 L 296.49,70.758 h 27.006 L 341.988,53.58 c 1.524,-1.548 3.993,-1.548 5.505,0 1.524,1.557 1.524,4.065 0,5.616 L 332.91,74.052 v 75.744 h 25.335 V 70.758 Z"
       id="path11"
       style="fill:#ffffff;fill-opacity:1" />
    <path
       d="m 168.189,81.768 c -15.744,15.753 -15.744,41.283 0,57.039 15.753,15.744 41.283,15.744 57.036,0 13.623,-13.623 15.459,-34.56 5.523,-50.157 l -21.696,21.696 c -0.015,3.144 -1.218,6.279 -3.612,8.673 -3.96,3.951 -9.927,4.656 -14.601,2.133 l 36.774,-36.774 c -0.633,-0.756 -4.683,-4.773 -5.901,-5.736 -15.828,-12.543 -38.898,-11.499 -53.523,3.126 z m 17.118,33.276 c -1.866,-4.476 -0.978,-9.843 2.667,-13.488 3.648,-3.645 9.015,-4.536 13.491,-2.667 z"
       id="path13"
       style="fill:#ffffff;fill-opacity:1" />
    <path
       d="m 443.085,81.768 c -15.744,15.753 -15.744,41.283 0,57.039 15.756,15.744 41.286,15.744 57.039,0 13.623,-13.623 15.459,-34.56 5.526,-50.157 l -21.696,21.696 c -0.018,3.144 -1.215,6.279 -3.612,8.673 -3.957,3.951 -9.927,4.656 -14.601,2.133 l 36.774,-36.774 c -0.636,-0.756 -4.686,-4.773 -5.901,-5.736 -15.831,-12.543 -38.901,-11.499 -53.529,3.126 z m 17.121,33.276 c -1.869,-4.476 -0.981,-9.843 2.667,-13.488 3.645,-3.645 9.015,-4.536 13.488,-2.667 z"
       id="path15"
       style="fill:#ffffff;fill-opacity:1" />
  </g>
</svg>
