<?xml version="1.0" encoding="UTF-8" standalone="no"?>
<!-- Generator: Adobe Illustrator 13.0.0, SVG Export Plug-In . SVG Version: 6.00 Build 14948)  -->

<svg
   version="1.2"
   id="Layer_3"
   x="0px"
   y="0px"
   width="532.70294"
   height="283.29092"
   viewBox="0 0 532.70292 283.29092"
   xml:space="preserve"
   sodipodi:docname="controller.svg"
   inkscape:version="1.1.2 (0a00cf5339, 2022-02-04)"
   xmlns:inkscape="http://www.inkscape.org/namespaces/inkscape"
   xmlns:sodipodi="http://sodipodi.sourceforge.net/DTD/sodipodi-0.dtd"
   xmlns="http://www.w3.org/2000/svg"
   xmlns:svg="http://www.w3.org/2000/svg"
   xmlns:rdf="http://www.w3.org/1999/02/22-rdf-syntax-ns#"
   xmlns:cc="http://creativecommons.org/ns#"
   xmlns:dc="http://purl.org/dc/elements/1.1/"
   xmlns:ns="&amp;ns_sfw;"><defs
   id="defs31" /><sodipodi:namedview
   id="namedview29"
   pagecolor="#ffffff"
   bordercolor="#666666"
   borderopacity="1.0"
   inkscape:pageshadow="2"
   inkscape:pageopacity="0.0"
   inkscape:pagecheckerboard="0"
   showgrid="false"
   fit-margin-top="0"
   fit-margin-left="0"
   fit-margin-right="0"
   fit-margin-bottom="0"
   inkscape:zoom="0.72576052"
   inkscape:cx="99.89521"
   inkscape:cy="59.937126"
   inkscape:window-width="1920"
   inkscape:window-height="996"
   inkscape:window-x="0"
   inkscape:window-y="0"
   inkscape:window-maximized="1"
   inkscape:current-layer="Layer_3" />
<metadata
   id="metadata55">
	<rdf:RDF>
		<cc:Work
   rdf:about="">
			<dc:format>image/svg+xml</dc:format>
			<dc:type
   rdf:resource="http://purl.org/dc/dcmitype/StillImage" />
			
		</cc:Work>
	</rdf:RDF>
	<ns:sfw>
		<ns:slices />
		<ns:sliceSourceBounds
   x="700.139"
   y="407.693"
   width="524.713"
   height="275.166"
   bottomLeftOrigin="true" />
	</ns:sfw>
</metadata>
<path
   id="line3"
   style="fill:#000000"
   d="m 161.86489,0.00461001 c -5.51061,0.359918 -11.03701,0.561681 -16.55375,0.860311 C 134.8625,1.393699 124.40958,1.882926 113.9645,2.453829 c -1.75532,0.215605 -3.28773,1.530005 -3.86328,3.1875 -10.815003,0.638882 -21.634223,1.253752 -32.437503,2.052734 -0.83946,0.08544 -1.6057,0.571788 -2.27539,0.984375 -2.07497,-1.112765 -4.45636,-0.403422 -6.67281,-0.352906 -1.71074,0.121438 -3.42821,0.278075 -5.13124,0.347863 -1.843251,0.218753 -3.707821,0.304159 -5.559236,0.47184 0.145332,0.07955 -0.825939,0.01189 -1.21686,0.09896 -8.783451,0.739471 -17.566041,1.60186 -26.271931,3.000036 -4.044542,0.730491 -8.168898,1.741484 -11.650038,4.014614 -3.216635,2.117405 -5.587535,5.344732 -6.940347,8.926875 C 9.8305112,30.505455 9.0292012,36.21344 8.0149802,41.813917 4.8462782,60.934858 3.2252982,80.272204 2.0113692,99.604224 0.35379917,127.0773 -0.21601783,154.61192 0.07109917,182.13232 c 0.192258,13.13649 0.594133,26.27377 1.43245803,39.38596 0.612429,8.02918 1.625759,16.13857 4.427582,23.73342 2.39434,6.47061 6.3087328,12.43598 11.6391728,16.86066 7.068224,5.94732 15.906822,9.31025 24.789604,11.46632 11.22796,2.726 22.790911,3.53163 34.266181,4.54128 26.398683,2.09695 52.870823,3.10079 79.337053,3.88098 32.8527,0.92628 65.71925,1.35456 98.58494,1.28213 23.22216,-0.0154 46.4454,0.0831 69.66618,-0.22729 32.80052,-0.41708 65.60038,-1.20684 98.36613,-2.80341 16.59594,-0.84159 33.19013,-1.88671 49.71589,-3.65365 10.96908,-1.24249 22.04142,-3.17884 32.14477,-7.807 6.77334,-3.12266 12.99484,-7.72722 17.28157,-13.89504 4.73864,-6.74785 7.10881,-14.84232 8.30348,-22.92125 1.4984,-9.76484 1.64266,-19.66394 2.09332,-29.51478 0.85246,-23.16635 0.68863,-46.36068 0.0369,-69.53024 -0.78296,-25.40537 -2.20437,-50.820806 -5.31404,-76.058171 -1.11413,-8.645858 -2.34479,-17.293496 -4.28546,-25.797608 -1.14833,-4.821288 -2.92477,-9.786788 -6.69499,-13.196333 -3.88721,-3.525853 -9.15704,-4.865323 -14.20473,-5.703658 -6.03206,-0.997192 -12.11746,-1.630229 -18.19703,-2.254804 -7.91025,-0.739501 -15.83455,-1.35583 -23.7612,-1.876159 -0.85613,-0.0094 -1.69693,0.336498 -2.45312,0.621093 -1.6895,-1.358022 -3.95023,-0.982876 -5.94531,-1.302734 -0.78892,-0.19974 -1.58508,-0.07471 -2.37291,-0.106127 C 409.40182,4.687996 369.83441,2.714829 330.24239,1.534776 312.57222,1.018662 294.89418,0.77400001 277.21646,0.85149901 257.1432,0.88066901 237.06709,0.71697601 216.99724,1.177189 199.63464,1.549646 182.27896,2.168814 164.9274,2.891333 164.51082,2.351652 164.50033,1.676562 164.15591,1.10227 163.6522,0.34817101 162.7603,-0.04780399 161.8649,0.00461401 Z M 283.14614,10.531954 c 11.69393,-0.0083 23.38772,0.10641 35.07842,0.386507 29.3784,0.672211 58.77102,1.958086 88.13743,3.505321 13.9346,0.736461 27.90265,1.565491 41.84469,2.490984 -4.03152,11.072177 -7.89588,22.203658 -11.76953,33.332032 0.1292,-5.848037 -1.31294,-11.951061 -5.1289,-16.513672 -4.57153,-5.639195 -11.18676,-9.155981 -17.91114,-11.582175 -11.68592,-4.13875 -24.08416,-5.654517 -36.37499,-6.700706 -14.13459,-1.161127 -28.32725,-1.164782 -42.49859,-1.392838 -29.55448,-0.321904 -59.11123,-0.189175 -88.66684,-0.210508 -22.71296,0.01185 -45.42873,0.03511 -68.13687,0.55312 -13.54974,0.282032 -27.1255,1.063035 -40.51195,3.266571 -8.404,1.430502 -16.80844,3.488398 -24.47725,7.300735 -5.61004,2.831466 -10.87662,6.910616 -13.836443,12.568535 -2.00405,3.912468 -2.69032,8.363731 -2.6621,12.722656 -3.895,-11.122755 -7.74314,-22.263194 -11.76954,-33.339843 33.694893,-2.223674 67.405083,-3.928298 101.159693,-5.156576 21.73597,-0.762269 43.5029,-1.303855 65.27,-1.22916 10.75131,0.0022 21.5026,-0.0093 32.25391,-9.83e-4 z M 72.351217,23.655001 c 6.49355,18.042127 12.72331,36.177795 19.07147,54.271273 0.37917,1.08601 0.75834,2.17202 1.13751,3.25802 -7.02383,-6.6166 -16.3263,-10.778114 -25.96123,-11.469633 -9.463987,-0.734906 -19.126813,1.806974 -27.027179,7.063653 -1.253001,0.82107 -2.658229,1.69149 -4.228387,1.39036 -2.376212,-0.40707 -4.206944,-2.21885 -5.673828,-4.01563 -0.91424,-1.03875 -1.46036,-2.363015 -2.449322,-3.327914 -2.112587,-1.936709 -5.911572,-1.416855 -7.329975,1.107215 -1.236896,1.860439 -0.766364,4.392429 0.599327,6.049539 2.924291,4.39124 7.086703,8.31959 12.342079,9.58523 0.453201,0.14961 1.527927,0.0402 0.726563,0.63086 -5.741926,7.05587 -8.859672,16.194776 -8.544961,25.293566 0.26804,10.19878 4.845439,20.18973 12.389397,27.05833 7.241461,6.67916 17.12733,10.40175 26.981197,10.07474 9.967689,-0.2493 19.761099,-4.58768 26.611049,-11.84042 1.50956,-1.58048 2.88664,-3.28925 4.10238,-5.10576 -1.55714,11.67315 -4.81584,23.33451 -11.14983,33.36143 -1.24564,1.96062 -2.6035,3.85057 -4.08454,5.64053 -0.39829,0.48526 -1.01037,1.19782 -1.51674,1.75084 -6.71779,7.53088 -15.7914,12.73719 -25.464854,15.44562 -2.36921,0.72133 -4.816336,1.14418 -7.216434,1.72617 -2.755982,0.95445 -4.055681,4.65411 -2.415258,7.09104 1.176063,2.02466 3.854778,2.75613 6.006341,2.01584 11.716401,-2.30552 23.035875,-7.38715 31.915245,-15.46554 8.90356,-8.00781 15.16235,-18.64002 18.925483,-29.94042 3.90583,-11.56635 5.47139,-23.79279 5.84434,-35.95558 5.79926,16.37208 11.56118,32.76128 17.81818,48.96614 2.70817,6.97744 5.8454,13.82846 10.00837,20.07011 6.14848,9.34912 14.43405,17.4157 24.39415,22.61609 10.17232,5.36365 21.75664,7.67293 33.20302,7.62959 38.67618,0.0201 77.3527,0.009 116.02901,0.005 12.01806,-0.0165 24.03682,0.0249 36.05443,-0.0278 12.08646,-0.2461 24.27532,-3.23213 34.61011,-9.63309 9.76284,-5.97383 17.61445,-14.73772 23.32834,-24.59429 5.08855,-8.6878 8.34277,-18.26028 11.90499,-27.63179 7.30954,-19.73488 14.21392,-39.6171 21.20393,-59.467286 1.90891,-5.46202 3.81781,-10.92405 5.72672,-16.38607 6.83805,1.52775 14.33347,-0.34321 19.6215,-4.95006 5.60001,-4.762265 8.63744,-12.352646 7.80794,-19.664799 -0.75601,-7.606837 -5.62454,-14.689451 -12.53881,-17.992562 2.40412,-6.797221 4.80054,-13.608533 7.32421,-20.373047 8.26013,0.615112 16.59501,1.236922 24.78516,2.128907 5.42132,0.647271 10.87322,1.19513 16.21041,2.378205 2.59409,0.632769 5.44984,1.51888 7.00776,3.858466 1.71175,2.555209 2.3467,5.628753 3.06308,8.571922 0.0898,0.411654 0.25733,1.192977 0.37281,1.748513 0.72189,3.636277 1.32074,7.285437 1.8941,10.893331 0.65737,4.26165 1.21293,8.438149 1.73347,12.770248 1.74738,14.510536 2.87432,28.992196 3.70907,43.577202 1.51408,26.95226 2.05081,54.01558 1.69185,81.05573 -0.17872,10.80494 -0.53939,21.56685 -1.15205,32.36725 -0.50054,7.69738 -1.14464,15.48583 -3.49269,22.87619 -1.68319,5.29574 -4.53238,10.31275 -8.7463,14.00039 -5.0979,4.62305 -11.61927,7.28138 -18.14676,9.18512 -5.36594,1.52117 -10.87738,2.50095 -16.36231,3.20614 -8.77705,1.11067 -17.60656,1.79899 -26.36855,2.46238 -18.74975,1.34384 -37.56067,2.18709 -56.38897,2.84285 -31.65929,1.05652 -63.41833,1.62838 -95.12765,1.75367 -22.75204,0.004 -45.50428,0.0366 -68.25617,-0.0321 -30.36137,-0.18933 -60.73865,-0.76435 -91.05929,-1.81335 -20.97757,-0.77196 -41.907693,-1.71683 -62.802513,-3.45997 -10.037457,-0.89607 -20.227052,-1.68368 -30.113203,-4.0338 -7.522614,-1.83156 -15.097343,-4.49921 -21.097413,-9.55124 -4.640495,-3.84309 -7.755645,-9.24693 -9.506868,-14.95916 -1.027668,-3.25563 -1.707894,-6.82985 -2.175097,-10.04174 -0.673631,-4.7985 -1.025546,-9.70671 -1.290487,-14.4711 -0.339483,-6.69669 -0.613601,-13.54303 -0.803258,-20.26785 -0.5753348,-20.99058 -0.3778178,-41.99625 0.230464,-62.98371 0.327365,-10.35536 0.769898,-20.85613 1.395956,-31.21364 0.703224,-11.566326 1.590126,-23.081636 2.844278,-34.620338 0.889129,-8.085265 1.956283,-16.357594 3.351899,-24.363152 0.806236,-4.273109 1.43721,-8.625436 2.996443,-12.706695 0.724351,-1.889952 1.74965,-3.788623 3.561274,-4.836021 2.295959,-1.398712 5.010397,-1.854234 7.604957,-2.394256 7.424411,-1.236813 14.926832,-1.997876 22.387882,-2.682462 5.25746,-0.464888 10.576079,-0.860023 15.869033,-1.253742 0.69791,1.916016 1.39583,3.832031 2.09375,5.748047 z M 279.02504,23.520235 c 25.91984,0.02282 51.8436,-0.0098 77.75765,0.610638 4.13937,0.09718 8.2548,0.242763 12.4298,0.488727 2.90756,0.157692 6.00213,0.396933 8.87896,0.636963 9.94679,0.938938 19.95785,2.147273 29.51873,5.168228 5.41214,1.782199 10.89315,4.053801 15.01549,8.11473 1.96344,1.928757 3.35873,4.446241 3.74104,7.188669 0.84666,5.096639 0.0138,10.295797 -1.1092,15.283361 -1.93102,8.202785 -5.15947,16.017833 -8.4933,23.731423 -1.71503,4.05546 -3.13135,8.23009 -4.71716,12.3371 -7.29514,19.428996 -14.5837,38.868766 -22.61444,58.008766 -2.54001,5.98839 -5.14576,11.98525 -8.65466,17.48379 -2.94415,4.76651 -6.29611,9.38076 -10.69081,12.91941 -6.12029,5.06537 -13.92147,7.56005 -21.66428,8.78711 -2.84095,0.45238 -5.84787,0.76652 -8.62828,0.93835 -7.85011,0.44689 -15.71622,0.17558 -23.57383,0.25204 -39.15072,-0.003 -78.30169,0.0147 -117.45225,-0.0234 -7.74609,-0.15275 -15.73835,-0.83456 -23.23874,-3.17817 -5.80408,-1.80326 -11.29171,-4.81862 -15.58079,-9.16588 -4.69262,-4.71671 -8.17054,-10.46969 -11.33309,-16.27957 -2.46767,-4.7802 -4.49885,-9.76988 -6.61672,-14.71101 -4.75978,-11.46949 -9.32029,-23.18682 -13.7507,-34.82031 -3.94189,-10.33532 -7.75648,-20.719356 -11.67671,-31.062076 -3.5876,-8.33462 -7.22714,-16.723271 -9.23806,-25.606932 -1.06782,-4.958216 -1.89012,-10.126956 -0.97271,-15.176186 0.44253,-2.42059 1.55601,-4.70609 3.28152,-6.471167 3.5816,-3.775902 8.4151,-6.039889 13.22891,-7.815685 8.33544,-2.92381 17.11129,-4.313884 25.85871,-5.318616 1.17798,-0.121929 2.60583,-0.281603 3.88273,-0.400583 4.07157,-0.385367 8.16243,-0.681903 12.18942,-0.893524 9.95783,-0.496998 19.93025,-0.621753 29.89832,-0.760014 28.10674,-0.363372 56.21623,-0.233994 84.32445,-0.266192 z m 12.06641,0.664063 c -39.06182,0.0059 -78.12388,-0.0091 -117.18555,0.0098 -4.36747,0.177478 -8.18182,4.247007 -7.91365,8.641405 -0.0431,30.97574 -0.006,61.951561 -0.0197,92.927337 0.011,17.66581 -0.009,35.3322 0.0213,52.99766 0.24292,4.2923 4.25385,7.96552 8.56016,7.76959 59.95897,0.008 119.91799,0.0218 179.87694,0.003 1.90001,-0.0822 3.82897,0.15743 5.70744,-0.19022 3.88402,-0.82933 6.83723,-4.68428 6.56059,-8.6586 10e-4,-48.51957 0.0166,-97.039576 -0.0124,-145.558867 -0.13792,-4.384956 -4.24549,-8.188972 -8.63843,-7.92566 -22.31887,-0.02725 -44.63776,-0.01357 -66.95664,-0.01507 z m 65.93164,9.679687 c 10e-4,47.665369 -8e-4,95.330725 -0.006,142.996085 -60.45508,0.003 -120.91015,0.001 -181.36523,-0.008 -0.001,-47.66211 7.7e-4,-95.324216 0.006,-142.986322 60.45502,-0.0046 120.91018,-6.51e-4 181.36523,-0.002 z m -171.42187,3.75586 c -1.40236,0.09375 -2.89985,0.03527 -4.1211,0.857421 -1.95052,1.139608 -3.04032,3.46583 -2.77931,5.694922 0.004,41.144446 -0.0161,82.290622 0.0215,123.433982 0.16898,3.03732 3.17333,5.48175 6.17422,5.15625 54.60131,-0.002 109.20361,0.0112 163.8043,-0.0156 3.08393,-0.0988 5.59977,-3.141 5.26758,-6.18007 -0.004,-41.23533 0.0161,-82.472416 -0.0215,-123.706641 -0.16562,-3.038873 -3.17303,-5.4836 -6.17422,-5.158203 -53.70299,0 -107.40599,0 -161.10898,0 -0.3473,-0.0722 -0.70709,-0.09973 -1.0625,-0.08203 z m 263.77929,4.576171 c -0.14011,0.653538 -0.30724,1.277737 -1.1037,1.218227 -0.62428,0.136894 -1.24857,0.273787 -1.87286,0.41068 -0.2359,-0.514794 -1.07156,-0.924575 -0.75296,-1.536454 0.26199,-0.527275 0.21175,-1.349847 0.68459,-1.677693 0.57456,-0.217496 1.19353,-0.63847 1.55944,0.09975 0.49516,0.495165 0.99033,0.99033 1.48549,1.485494 z M 344.29262,47.37961 c 0,38.566404 0,77.13281 0,115.69922 -51.9707,-1e-5 -103.9414,0 -155.91211,0 0,-38.56641 0,-77.132816 0,-115.69922 51.97071,0 103.94141,0 155.91211,0 z m 107.15625,3.447266 c 1.01175,0.809377 1.86634,1.815825 2.49805,2.947266 -0.97618,-0.595004 -2.10069,-0.952501 -3.24219,-1.019532 0.22396,-0.660807 0.44792,-1.321614 0.67188,-1.982422 z m -4.70312,14.802734 c 1.32996,0.795154 2.92676,1.167511 4.46875,0.962891 -1.66658,1.267094 -3.76516,1.918923 -5.84961,1.939453 0.35091,-1.03776 0.70182,-2.075521 1.05273,-3.113281 0.10938,0.07031 0.21875,0.140625 0.32813,0.210937 z m -9.5,5.560547 c 1.05872,0.27562 1.71809,1.606897 1.11914,2.568357 -1.14779,-0.19791 -2.29557,-0.39583 -3.44336,-0.59375 -0.1877,-1.2758 1.11853,-2.282847 2.32422,-1.974607 z m -289.87696,7.070317 c -4.09195,0.15183 -7.62657,3.93248 -7.49023,8.02929 -0.0496,4.10797 3.57302,7.85367 7.69336,7.88281 4.12418,0.22067 8.00113,-3.29227 8.19336,-7.41796 0.37586,-4.18164 -3.11437,-8.25457 -7.31836,-8.47461 -0.35808,-0.0273 -0.71906,-0.0331 -1.07813,-0.0195 z m 339.7793,1.52734 c -2.59119,0.0127 -5.20579,0.26211 -7.67495,1.09608 -6.39086,2.01094 -11.75037,7.03041 -14.11043,13.30853 -1.01157,2.64426 -1.51529,5.47812 -1.50368,8.308276 -3.40093,2.64751 -6.66472,5.46987 -9.80274,8.42383 -7.21428,-2.39493 -15.60858,-0.79151 -21.38087,4.17284 -5.43714,4.55164 -8.51679,11.7859 -7.89628,18.86497 0.24353,3.21138 1.21297,6.36029 2.77325,9.17508 -5.59801,9.0269 -10.43688,18.68573 -12.88886,29.07418 -1.33691,5.82043 -1.86918,12.07959 0.10719,17.82024 1.54326,4.40619 5.05012,8.15064 9.51371,9.64602 5.33084,1.88335 11.19322,1.07695 16.46028,-0.6197 7.87294,-2.52923 15.01971,-6.88795 21.66094,-11.74137 11.72589,-8.64561 21.92404,-19.24336 30.77042,-30.7868 7.58684,-9.98738 14.20796,-20.83082 18.59554,-32.61805 2.35573,-6.45066 4.04377,-13.31675 3.57765,-20.2296 -0.36042,-4.776726 -2.1799,-9.669146 -5.94531,-12.796866 -1.73557,-1.47432 -3.80925,-2.56158 -6.02539,-3.09766 -3.7223,-4.50416 -9.33271,-7.38058 -15.15039,-7.86719 -0.34756,-0.0994 -0.71732,-0.14351 -1.08008,-0.13281 z m -423.871095,8.95703 c 1.340306,0.0148 2.682232,0.0938 4.007812,0.29883 0.007,3.85026 -0.0293,7.7007 0.0234,11.550776 -1.33592,1.33118 -2.662462,2.68024 -4.001956,4.01172 -1.333654,-1.33172 -2.663797,-2.66693 -3.99414,-4.00195 0.03157,-3.856826 0.0028,-7.716156 0.01367,-11.574216 1.306877,-0.19846 2.630021,-0.27869 3.951172,-0.28516 z m 423.533205,4.11133 c 4.35492,0.16291 8.25816,3.77945 8.76595,8.108226 0.568,3.9498 -1.67032,8.12053 -5.32982,9.75112 -3.57026,1.6735 -8.15715,0.8563 -10.82675,-2.08201 -2.76407,-2.93344 -3.34197,-7.69381 -1.23528,-11.154086 1.74633,-2.98267 5.15306,-4.87997 8.6259,-4.62325 z m 18.56641,9.492186 c 0.97663,4.73997 -0.12835,9.79115 -1.37305,14.23242 -2.47029,8.21067 -6.43903,15.89378 -10.94262,23.16014 -7.12747,11.28791 -15.74256,21.63371 -25.4926,30.74903 -6.87112,6.3061 -14.30594,12.11763 -22.62431,16.39649 -4.20012,2.07362 -8.67683,3.88198 -13.39945,4.18262 -2.47819,0.12649 -5.38748,-0.41913 -6.81326,-2.67085 -1.74043,-2.69775 -1.68964,-6.07597 -1.46814,-9.16113 0.5398,-5.35809 2.29141,-10.51231 4.32827,-15.4688 0.18964,-0.44027 0.51009,-1.19991 0.76454,-1.76345 2.20309,-4.93646 4.84171,-9.66826 7.70421,-14.25022 5.45295,3.94641 13.0482,4.65064 19.12281,1.73766 6.21781,-2.87475 10.62476,-9.30492 10.95727,-16.16149 0.34875,-5.52516 -1.89763,-11.13703 -5.92383,-14.92969 2.88172,-2.70727 5.86525,-5.3074 8.96094,-7.76758 2.98842,6.16067 9.5075,10.43534 16.36589,10.62042 6.62611,0.30075 13.25757,-3.1652 16.79323,-8.77892 1.97901,-3.06262 2.99636,-6.71529 2.98932,-10.35517 0.0169,0.0762 0.0339,0.15234 0.0508,0.22852 z m -453.628912,6.11523 c 1.294253,1.26956 2.573309,2.55969 3.857421,3.8418 -1.323567,1.32747 -2.647135,2.65495 -3.970703,3.98242 -3.526693,-0.0432 -7.056772,-0.002 -10.585156,-0.0176 -0.600121,0.0383 -1.265781,0.13614 -1.127632,-0.66934 -0.303903,-2.4111 -0.26669,-4.865 0.105367,-7.26621 3.861331,-0.009 7.722902,0.0331 11.583984,-0.0273 0.04557,0.0521 0.09115,0.10417 0.136719,0.15625 z m 23.873049,-0.12695 c 3.6574,0.0413 7.31509,-0.005 10.97265,0.0137 0.40232,2.62361 0.3984,5.30932 -0.0117,7.93164 -3.85091,0.007 -7.702,-0.03 -11.55273,0.0234 -1.31537,-1.34668 -2.67664,-2.65562 -4.00195,-3.9961 1.33724,-1.32877 2.67448,-2.65755 4.01172,-3.98632 0.19401,0.005 0.38802,0.009 0.58203,0.0137 z m -8.31836,15.70117 c -0.0487,3.85411 -0.002,7.71097 -0.0195,11.56641 -2.633389,0.396 -5.325773,0.38229 -7.958988,-0.008 -0.0087,-3.85221 0.03312,-7.70467 -0.02734,-11.55664 1.344322,-1.32178 2.664041,-2.67605 4.005859,-4.0039 1.333333,1.33398 2.666659,2.66797 3.999999,4.00195 z m 379.898443,-1.16992 c 3.99666,-0.0862 7.85613,2.93129 8.89062,6.64258 1.27049,3.98498 -0.53988,8.67817 -4.16405,10.77186 -3.52249,2.15446 -8.44974,1.61451 -11.3672,-1.33241 -3.01608,-2.90001 -3.72802,-7.88417 -1.53781,-11.47154 1.67126,-2.83314 4.86664,-4.71029 8.17844,-4.61049 z m -299.38672,60.94336 c 4.37877,5.94813 9.99364,11.06738 16.63415,14.37114 8.2908,4.23266 17.60654,5.96237 26.82092,6.623 -2.77202,0.0258 -5.70103,-0.10964 -8.35937,-0.40625 -9.22022,-0.95269 -18.32033,-4.28354 -25.49177,-10.24662 -3.70722,-3.02467 -6.92743,-6.61653 -9.71721,-10.49557 l 0.0592,0.0806 z m 236.86718,0.25 c -4.44895,6.10352 -10.06718,11.45263 -16.78273,14.9874 -7.8372,4.18927 -16.82213,5.74465 -25.63834,5.75793 -0.79362,0.0145 -1.30966,0.0172 -0.20697,-0.0496 8.82617,-0.68588 17.72772,-2.38668 25.71502,-6.33516 6.35888,-3.14226 11.90264,-7.83283 16.20456,-13.46005 0.34158,-0.42746 0.66347,-0.8701 0.99557,-1.30486 -0.0957,0.13477 -0.1914,0.26953 -0.28711,0.4043 z" />
























<path
   id="path867"
   d="m 160.49184,4.115938 -45.84961,2.283204 c -0.463,0.014 -0.82945,0.401234 -0.81445,0.865234 0,0.009 -0.001,0.01934 0,0.02734 l 0.0996,2.132812 c -12.88009,0.731252 -25.100033,1.481959 -35.509773,2.197266 -0.14,0.01 -0.27358,0.05486 -0.39258,0.130859 0.162,-0.104 -0.0198,0.0081 -0.13086,0.08008 -0.11199,0.071 -0.27692,0.174844 -0.41992,0.339844 -0.12296,0.141944 -0.20825,0.367075 -0.26758,0.603516 l -2.95117,0.142578 c -0.10176,-0.158772 -0.16144,-0.345944 -0.31445,-0.464844 -0.323,-0.251 -0.71556,-0.367922 -1.10156,-0.419922 -0.052,-0.005 -0.10521,-0.005 -0.15821,0 l 0.0195,0.0078 c -12.747004,0.911 -22.583911,1.731281 -28.003911,2.363281 -11.929,1.392 -18.884187,2.148141 -23.492187,5.119141 -2.303,1.484999 -3.964656,3.537562 -5.222656,6.351562 -1.257,2.813 -2.154969,6.395172 -3.042969,11.076172 C 4.1610542,83.232859 3.0013512,163.51538 4.5933512,202.93038 c 0.795,19.674 1.138375,35.51726 8.1093748,47.32226 6.971,11.805 20.522984,19.25986 47.083984,22.25586 52.991,5.979 156.34625,6.77344 179.03125,6.77344 h 55.06446 c 22.682,0 126.00809,-0.79544 178.99609,-6.77344 26.562,-2.996 40.11494,-10.44986 47.08594,-22.25586 6.971,-11.806 7.34072,-27.64726 8.13672,-47.32226 1.593,-39.422 0.40495,-119.700521 -8.37305,-165.978519 -0.888,-4.681 -1.78597,-8.263172 -3.04297,-11.076172 -1.258,-2.813 -2.92061,-4.866563 -5.22461,-6.351562 -4.606,-2.97 -11.53484,-3.726141 -23.46484,-5.119141 -5.421,-0.632 -15.25986,-1.452281 -28.00586,-2.363281 -0.062,-0.007 -0.1226,-0.007 -0.1836,0 -0.388,0.052 -0.77751,0.167921 -1.10351,0.419922 -0.15236,0.118391 -0.20489,0.302035 -0.30469,0.458984 l -2.93164,-0.146484 c -0.0651,-0.235631 -0.15667,-0.460006 -0.2793,-0.601563 -0.135,-0.166 -0.27772,-0.270797 -0.38671,-0.341797 -0.109,-0.072 -0.32016,-0.182125 -0.16016,-0.07813 -0.119,-0.076 -0.25353,-0.120859 -0.39453,-0.130859 -44.489,-3.057 -117.84474,-6.771485 -165.92774,-6.771485 l -43.9375,0.002 c -23.65256,0 -53.44711,0.908429 -82.89453,2.185547 l -0.0957,-2.132812 c -0.028,-0.463 -0.42763,-0.81611 -0.89063,-0.787109 h -0.008 z m -0.75586,1.732422 0.0645,1.253906 c -15.17057,0.665726 -30.15336,1.428549 -44.19922,2.21875 l -0.0645,-1.294921 z m 84.64453,0.683594 h 43.93555 c 47.896,0 121.02581,3.694141 165.50781,6.744141 -3.632,9.292 -14.87081,41.989781 -26.50781,75.300779 -11.657,33.376996 -23.67703,67.344466 -28.58203,78.480466 -5.339,12.129 -11.75164,22.57361 -20.68164,29.97461 -8.933,7.398 -20.3855,11.7832 -36.0625,11.7832 h -53.14844 -44.98828 -53.14844 c -15.679,0 -27.15689,-4.3852 -36.08789,-11.7832 -8.937,-7.4 -15.32011,-17.84856 -20.66211,-29.97656 -4.905,-11.137 -16.94847,-45.10152 -28.60547,-78.478516 C 93.708257,55.267876 82.470497,22.572048 78.839497,13.278048 123.3225,10.226048 196.47251,6.531954 244.38051,6.531954 Z m -171.656253,7.181641 0.002,0.0098 c 0.1,0.023 0.19293,0.06312 0.21093,0.07813 0.025,0.019 0.0669,0.03794 0.13086,0.210938 v 0.02539 c 3.548,9.066 15.33374,43.158188 27.427743,77.742191 12.093,34.582996 24.47087,69.647476 29.42187,81.021476 9.888,22.716 28.14375,41.83789 61.46875,41.83789 h 50.76172 48.37305 50.76172 c 33.323,0 51.57975,-19.12189 61.46875,-41.83789 5.635,-12.946 20.9182,-56.60739 34.4082,-95.275386 0.007,-0.013 0.0213,-0.0153 0.0273,-0.0273 0.234,-0.422 0.51885,-0.74797 0.83985,-0.91797 0.331,-0.176 0.72436,-0.26439 1.44336,-0.0254 h 0.0254 c 1.761,0.548 3.62745,0.86523 5.56445,0.86523 10.335,0 18.71289,-8.403279 18.71289,-18.738279 0,-7.928 -4.89962,-14.756125 -11.89062,-17.453125 -0.734,-0.283 -1.10077,-0.617313 -1.25977,-0.945313 -0.159,-0.328 -0.19427,-0.758312 0.0527,-1.445312 4.141,-11.778 7.37412,-20.772641 8.95312,-24.806641 v -0.02539 c 0.064,-0.172 0.10686,-0.191937 0.13086,-0.210937 0.017,-0.012 0.10755,-0.05712 0.18555,-0.07813 12.683,0.907 22.5037,1.738328 27.8457,2.361328 11.928,1.392 18.7302,2.243469 22.7832,4.855469 2.025,1.306 3.4308,3.044578 4.5918,5.642578 1.161,2.597 2.03506,6.05164 2.91406,10.68164 8.717,45.958998 9.93466,126.318188 8.34766,165.617188 -0.796,19.687 -1.25339,35.25477 -7.90039,46.50977 -6.646,11.255 -19.50917,18.50075 -45.82617,21.46875 -52.766,5.953 -156.17536,6.74609 -178.81836,6.74609 h -55.06446 c -22.643,0 -126.05031,-0.79309 -178.820312,-6.74609 -26.319,-2.973 -39.207516,-10.22061 -45.853516,-21.47461 -6.6459998,-11.256 -7.0799998,-26.81886 -7.8749998,-46.50586 -1.587,-39.298 -0.396688,-119.65919 8.3203128,-165.617191 0.878,-4.631 1.779453,-8.08364 2.939453,-10.68164 1.161,-2.598 2.565797,-4.336578 4.591797,-5.642578 4.051999,-2.612 10.828859,-3.465422 22.755859,-4.857422 5.341,-0.623 15.164656,-1.454328 27.847653,-2.361328 z m 4.7461,0.734375 c 3.6824,9.496784 14.77418,41.677833 26.302733,74.679684 11.66,33.378996 23.63577,67.253376 28.63477,78.609376 5.396,12.256 11.9039,22.93417 21.1289,30.57617 9.225,7.644 21.17002,12.17969 37.16602,12.17969 h 53.14844 44.98437 53.14844 c 15.995,0 27.91467,-4.53569 37.13867,-12.17969 9.227,-7.643 15.73391,-18.32017 21.12891,-30.57617 5.001,-11.356 16.97672,-45.23038 28.63672,-78.609376 11.52759,-32.999946 22.64515,-65.181992 26.32812,-74.679684 l 2.42383,0.117187 c -1.67051,4.33639 -4.60011,12.481583 -8.54102,23.697266 -0.004,0.011 0.004,0.01539 0,0.02539 -0.338,0.952 -0.396,1.916469 0,2.730469 0.398,0.822 1.19574,1.405203 2.17774,1.783203 6.35,2.45 10.81445,8.64786 10.81445,15.88086 0,9.427 -7.6042,17.058589 -17.0332,17.058589 -1.767,0 -3.46641,-0.2881 -5.06641,-0.7871 v 0.0254 c -1.051,-0.348 -2.01386,-0.28754 -2.75586,0.10546 -0.741,0.393 -1.21483,1.03735 -1.54883,1.65235 -0.03,0.042 -0.0561,0.0849 -0.0781,0.13086 -13.499,38.691996 -28.87716,82.539946 -34.41016,95.251946 -9.726,22.344 -27.23192,40.83984 -59.91992,40.83984 h -50.76172 -48.37109 -50.76172 c -32.687,0 -50.19392,-18.49584 -59.91992,-40.83984 -4.855,-11.155 -17.30449,-46.31262 -29.39649,-80.890616 C 90.212887,57.32913 78.868267,24.553695 75.019177,14.56711 Z m 162.263673,3.394531 c -32.078,0 -64.39295,0.336172 -76.37695,1.076172 -10.753,0.664 -23.31816,1.775625 -34.41016,4.515625 -11.091,2.739 -20.77423,7.077203 -25.61524,14.408203 -4.913003,7.439 -3.21693,18.877766 -0.21093,29.134765 3.006,10.255998 7.47751,19.496958 8.47851,22.126958 1.046,2.745 7.33069,19.887506 14.30469,37.978506 6.975,18.091 14.59052,37.08016 18.47852,43.91016 4.92,8.645 9.94104,16.23095 18.37304,21.62695 8.432,5.396 20.19057,8.53125 38.47657,8.53125 h 42.7539 44.72461 42.72852 c 18.286,0 30.04556,-3.13625 38.47656,-8.53125 8.432,-5.396 13.45105,-12.98195 18.37305,-21.62695 3.888,-6.831 11.50351,-25.81916 18.47851,-43.91016 6.976,-18.091 13.28308,-35.232506 14.33008,-37.978506 1.002,-2.629 5.44417,-11.87096 8.45117,-22.126958 3.006,-10.256 4.72845,-21.694765 -0.18554,-29.134765 -4.82101,-7.333 -14.5038,-11.670156 -25.5918,-14.410156 -11.095,-2.74 -23.65916,-3.850672 -34.41016,-4.513672 -11.984,-0.74 -44.31834,-1.076172 -76.40234,-1.076172 h -53.20117 z m 0.01,1.679687 -0.01,0.002 h 53.20312 c 32.066,0 64.47083,0.346171 76.29883,1.076171 10.716,0.661 23.18575,1.767938 34.09375,4.460938 10.909,2.694 20.18319,6.982219 24.61719,13.699219 4.364,6.608 2.957,17.655187 0,27.742187 -2.957,10.086997 -7.30683,19.058097 -8.42383,21.996097 -1.076,2.821 -7.36108,19.90251 -14.33008,37.97851 -6.968,18.075 -14.6577,37.19678 -18.3457,43.67578 -4.887,8.583 -9.73727,15.87488 -17.82227,21.04688 -8.086,5.174 -19.49293,8.26953 -37.58593,8.26953 h -42.72852 -44.72461 -42.7539 c -18.093,0 -29.4736,-3.09553 -37.5586,-8.26953 -8.085,-5.173 -12.93526,-12.46388 -17.82226,-21.04688 -3.687,-6.479 -11.40405,-25.60078 -18.37305,-43.67578 -6.963,-18.074 -13.21992,-35.15751 -14.29492,-37.97851 -1.119,-2.938 -5.49517,-11.9081 -8.45117,-21.996097 -2.957,-10.086 -4.364,-21.133187 0,-27.742187 4.435,-6.717 13.71114,-11.006219 24.61914,-13.699219 10.908,-2.694 23.40309,-3.800891 34.12109,-4.462891 11.827,-0.73 44.20548,-1.076172 76.27148,-1.076172 z m -65.33593,8.66211 c -2.43,0 -4.4336,1.978203 -4.4336,4.408203 V 178.12961 c 0,2.431 2.0036,4.41015 4.4336,4.41015 h 183.88476 c 2.431,0 4.41016,-1.98015 4.41016,-4.41015 V 32.592501 c 0,-2.43 -1.98016,-4.408203 -4.41016,-4.408203 z m 0,1.679687 h 183.88476 c 1.523,0 2.73047,1.206516 2.73047,2.728516 V 178.12961 c 0,1.522 -1.20747,2.73046 -2.73047,2.73046 h -183.885 c -1.523,0 -2.75586,-1.20846 -2.75586,-2.73046 V 32.592501 c 0,-1.522 1.23186,-2.728516 2.75586,-2.728516 z m 9.91992,11.835938 c -0.893,0 -1.62695,0.733953 -1.62695,1.626953 V 167.13547 c 0,0.892 0.73395,1.62695 1.62695,1.62695 h 164.01367 c 0.894,0 1.62695,-0.73495 1.62695,-1.62695 V 43.328829 c 0,-0.894 -0.73295,-1.626953 -1.62695,-1.626953 H 184.32778 Z m 0.0527,1.679687 h 163.9119 V 167.07883 H 184.38051 Z m 265.02149,0.330078 c -0.28775,-0.0025 -0.58436,0.04147 -0.88086,0.167969 -0.591,0.253 -1.0155,0.785094 -1.3125,1.496094 -0.01,0.018 -0.0174,0.03473 -0.0254,0.05273 l -8.24024,24.382813 v 0.02539 c -0.185,0.505 -0.2944,0.944235 -0.3164,1.365235 -0.023,0.429 0.0571,0.863984 0.28906,1.208981 0.463,0.69 1.1365,0.86896 1.8125,1.12696 0.025,0.01 0.0511,0.0203 0.0781,0.0273 1.427,0.432 2.92033,0.65625 4.48633,0.65625 8.605,0 15.61914,-6.983844 15.61914,-15.589844 0,-6.86 -4.43751,-12.692343 -10.60351,-14.777344 -0.028,-0.009 -0.0541,-0.01739 -0.0801,-0.02539 -0.2595,-0.0645 -0.53842,-0.114688 -0.82617,-0.117188 z m -0.006,1.6875 c 0.10512,7.5e-4 0.24161,0.01664 0.41211,0.05664 0.013,0.004 0.0104,-0.003 0.0254,0 5.456,1.881 9.39648,7.068781 9.39648,13.175781 0,7.698 -6.2385,13.910154 -13.9375,13.910154 -1.401,0 -2.74362,-0.19412 -4.01562,-0.578122 -0.606,-0.24 -0.94771,-0.438657 -0.97071,-0.472657 -0.011,-0.018 -0.0373,-0.01759 -0.0273,-0.183593 0.009,-0.166 0.0793,-0.465579 0.23633,-0.892579 v -0.02539 L 448.75759,46.03 c 0.011,-0.024 0.0164,-0.0034 0.0254,-0.02539 v -0.02539 c 0.179,-0.389 0.31753,-0.519735 0.39453,-0.552735 0.04,-0.017 0.11362,-0.03005 0.21875,-0.0293 z m 0.93945,11.34375 c -1.62,0 -2.9375,1.344844 -2.9375,2.964844 0,1.621 1.3175,2.939453 2.9375,2.939453 1.62,0 2.9668,-1.319453 2.9668,-2.939453 0,-1.621 -1.3468,-2.964844 -2.9668,-2.964844 z M 63.304338,73.590544 c -8.17,0 -15.70714,2.58822 -21.99414,6.82422 -2.41,1.624 -4.536375,2.00442 -6.484375,1.73242 -1.948,-0.272 -3.745047,-1.22001 -5.248047,-2.41601 -3.007,-2.392 -4.830078,-5.66797 -4.830078,-5.66797 -0.229,-0.407 -0.745344,-0.55127 -1.152344,-0.32227 -0.407,0.229 -0.551266,0.74535 -0.322266,1.15235 10e-4,0.003 0.0019,0.007 0.0039,0.01 0,0 1.951343,3.49463 5.277343,6.14063 1.662,1.322 3.692156,2.4572 6.035157,2.7832 2.343,0.326 4.963062,-0.20248 7.664062,-2.02148 6.036,-4.067 13.236828,-6.53516 21.048828,-6.53516 20.480002,0 37.060552,16.58155 37.060552,37.060546 0,10.772 -0.55747,29.18115 -7.48047,46.03515 -6.923,16.854 -20.09297,32.13508 -45.667972,36.95508 -0.457,0.086 -0.757875,0.52547 -0.671876,0.98047 0.085,0.459 0.525422,0.75983 0.982422,0.67383 0.001,0 0.0019,-0.002 0.0039,-0.002 26.110999,-4.921 39.854689,-20.75752 46.929689,-37.97852 7.074997,-17.223 7.583977,-35.83701 7.583977,-46.66601 0,-21.383996 -17.352277,-38.738286 -38.738276,-38.738286 z m 0,4.43555 c -18.936,0 -34.304687,15.36969 -34.304687,34.304686 0,18.936 15.369687,34.30469 34.304687,34.30469 18.934999,0 34.304689,-15.36869 34.304689,-34.30469 0,-18.930996 -15.36969,-34.300776 -34.304689,-34.300776 z m 0,1.67969 c 18.026999,0 32.624999,14.59604 32.624999,32.623046 0,18.02799 -14.597,32.625 -32.624999,32.625 -18.028,0 -32.625,-14.59701 -32.625,-32.625 -0.001,-18.022996 14.597,-32.621096 32.625,-32.621096 z m 0,2.02148 c -16.886,0 -30.576172,13.71656 -30.576172,30.601566 0,16.887 13.691172,30.57812 30.576172,30.57812 16.885999,0 30.603519,-13.69213 30.603519,-30.57812 -0.001,-16.885006 -13.71752,-30.601566 -30.603519,-30.601566 z m 84.513672,0.52344 c -2.173,0 -3.9375,1.78889 -3.9375,3.96289 0,2.174 1.7635,3.96289 3.9375,3.96289 2.174,0 3.96289,-1.78789 3.96289,-3.96289 0,-2.174 -1.78889,-3.96289 -3.96289,-3.96289 z m 338.44922,1.57422 c -10.152,0 -18.39844,8.24839 -18.39844,18.400386 0,0.189 -0.006,0.36278 0,0.55078 0.001,0.009 0,0.0174 0,0.0254 0.001,0.479 0.048,0.93277 0,1.25977 -0.049,0.333 -0.12879,0.48925 -0.34179,0.65625 -3.986,3.023 -8.02488,6.49618 -12.04688,10.36718 -0.492,0.335 -0.88648,0.27574 -1.52148,0.0527 -0.008,-0.004 -0.0184,0.003 -0.0254,0 -2.112,-0.845 -4.41522,-1.3125 -6.82422,-1.3125 -10.15,0 -18.40039,8.24744 -18.40039,18.39844 0,3.652 1.07606,7.05692 2.91406,9.91992 v 0.0254 c 0.215,0.331 0.32714,0.58645 0.36914,0.81445 0.037,0.206 0.0295,0.42438 -0.10547,0.73438 -0.015,0.034 -0.007,0.0411 -0.0254,0.0781 -6.972,10.869 -11.63423,21.35186 -13.49023,30.13086 -1.861,8.8 -0.94322,16.02627 3.67578,19.94727 2.9,2.462 6.90114,3.27247 11.49414,2.73047 4.592,-0.541 9.82459,-2.4286 15.43359,-5.4336 11.217,-6.011 23.92211,-16.55033 35.53711,-30.23633 11.616,-13.686 19.96136,-27.92765 24.06836,-39.97265 2.054,-6.022 3.04599,-11.49524 2.83399,-16.11524 -0.212,-4.62 -1.66641,-8.432526 -4.56641,-10.894526 -1.274,-1.081 -2.7522,-1.83859 -4.4082,-2.30859 -0.061,-0.012 -0.12355,-0.0186 -0.18555,-0.0176 -0.248,-0.011 -0.92509,-0.17272 -1.49609,-0.76172 -3.369,-4.286 -8.61828,-7.0332 -14.48829,-7.0332 z m -422.937501,0.91797 v 0.002 c 3.013998,0.008 5.943128,0.43691 7.953128,1.12891 v 14.777336 0.0781 c 0.009,0.417 0.32332,0.76245 0.73632,0.81445 l -8.712886,8.71875 -8.714843,-8.71875 c 0.17,-0.031 0.325312,-0.11238 0.445312,-0.23438 l 0.05273,-0.0547 c 0.156999,-0.162 0.242328,-0.37852 0.236328,-0.60352 V 85.873754 c 2.033,-0.716 4.989906,-1.13886 8.003906,-1.13086 z m 9.615238,0.31445 c 8.22058,2.90463 14.73132,9.41557 17.63476,17.636716 -0.0536,-0.012 -0.10779,-0.0262 -0.16406,-0.0273 h -14.67188 v -1.07618 c 0.003,-0.464 -0.36903,-0.84365 -0.83203,-0.84765 -0.0139,7.7e-4 -0.0286,0.003 -0.043,0.004 0.004,-0.22792 -0.0805,-0.45773 -0.25976,-0.62695 -0.154,-0.145996 -0.35927,-0.227506 -0.57227,-0.228506 h -1.07617 v -14.67383 c 4.8e-4,-0.0548 -0.006,-0.10763 -0.0156,-0.16016 z m -19.283207,0.002 c -0.0095,0.052 -0.0161,0.10407 -0.01563,0.15821 v 14.67187 h -1.076172 c -0.463,0.004 -0.837984,0.383656 -0.833984,0.847656 1.2e-5,0.003 -3.7e-5,0.005 0,0.008 0,0 -0.002,0 -0.002,0 -0.07134,-0.003 -0.143344,0.004 -0.214844,0.0195 l 0.002,-0.0117 c -0.392,0.087 -0.66625,0.43885 -0.65625,0.83985 v 1.07617 H 36.191057 c -0.04737,9.9e-4 -0.0912,0.0148 -0.136719,0.0234 2.898104,-8.218036 9.395659,-14.727246 17.607422,-17.632816 z m 432.60547,0.44727 c 5.375,0 10.14213,2.52203 13.20313,6.45703 0.023,0.028 0.0501,0.0531 0.0781,0.0781 0.832,0.856 1.73411,1.13503 2.41211,1.20703 0.008,0.001 0.0223,-10e-4 0.0273,0 1.44,0.411 2.70229,1.08309 3.77929,1.99609 2.461,2.089 3.76489,5.371546 3.96289,9.685546 0.198,4.314 -0.74786,9.62672 -2.75586,15.51172 -4.015,11.768 -12.25095,25.87187 -23.75195,39.42187 -11.501,13.55 -24.07806,23.9688 -35.03906,29.8418 -5.48,2.937 -10.54108,4.71861 -14.83008,5.22461 -4.29,0.507 -7.74799,-0.24789 -10.20899,-2.33789 -3.91899,-3.326 -4.94843,-9.81436 -3.14843,-18.31836 1.798,-8.504 6.39164,-18.86386 13.30664,-29.63086 0.019,-0.025 0.0357,-0.0521 0.0527,-0.0801 0.315,-0.639 0.39407,-1.31862 0.28906,-1.89063 -0.10599,-0.57099 -0.3669,-1.01201 -0.6289,-1.41601 -1.67,-2.602 -2.625,-5.7043 -2.625,-9.0293 0,-9.245 7.4748,-16.71875 16.7168,-16.71875 2.201,0 4.29865,0.43503 6.22265,1.20703 h 0.0254 c 0.854,0.302 2.03431,0.46868 3.07032,-0.23632 0.036,-0.023 0.0705,-0.0491 0.10351,-0.0781 4.012,-3.87 8.05648,-7.33284 12.02149,-10.33984 0.60599,-0.475 0.8847,-1.17377 0.9707,-1.75977 0.087,-0.586 0.0273,-1.11848 0.0273,-1.52148 v -0.0254 c -0.006,-0.177 0,-0.34739 0,-0.52539 0,-9.244996 7.47475,-16.718746 16.71875,-16.718746 z m 0,1.65234 c -8.304,0 -15.03906,6.76241 -15.03906,15.066406 0,8.304 6.73506,15.03906 15.03906,15.03906 8.303,0 15.06445,-6.73506 15.06445,-15.03906 0,-8.301996 -6.76145,-15.066406 -15.06445,-15.066406 z m 0,1.67969 c 7.396,0 13.38672,5.99072 13.38672,13.386716 0,7.396 -5.99072,13.35937 -13.38672,13.35937 -7.396,0 -13.35937,-5.96337 -13.35937,-13.35937 -0.001,-7.395996 5.96237,-13.386716 13.35937,-13.386716 z m -404.380863,3.51367 v 0.002 c -0.361,0 -0.72704,0.12253 -0.99804,0.39453 l -2.99219,2.99023 c -0.541,0.541 -0.542,1.45214 0,1.99414 0.541,0.539 1.42775,0.539 1.96875,0 l 3.01953,-2.99219 c 0.545,-0.54 0.544,-1.45314 0,-1.99414 -0.27,-0.271 -0.63705,-0.39453 -0.99805,-0.39453 z m -37.16406,0.002 c -0.361,0 -0.728047,0.12353 -0.998047,0.39453 -0.54,0.541 -0.54,1.45414 0,1.99414 l 3.019531,2.99218 c 0.542,0.54001 1.425797,0.54001 1.966797,0 0.541,-0.54099 0.541,-1.45514 0,-1.99414 l -2.990234,-2.99218 c -0.271,-0.26 -0.637047,-0.38672 -0.998047,-0.38672 z m 7.820312,11.222646 v 0.0117 l 8.714844,8.71289 -8.714844,8.74024 c -0.03,-0.172 -0.112328,-0.33013 -0.236328,-0.45313 l -0.07813,-0.0586 c -0.151,-0.159 -0.359125,-0.25177 -0.578125,-0.25977 H 36.847307 c -0.713,-2.033 -1.134953,-4.96647 -1.126953,-7.98047 0.008,-3.012 0.435953,-5.94312 1.126953,-7.95312 h 14.802734 0.05273 c 0.435,0.002 0.798844,-0.32677 0.839843,-0.75977 z m 21.550778,0.0469 c 0.0302,0.15326 0.10227,0.2956 0.20899,0.41015 l 0.0781,0.0801 c 0.155,0.15 0.36117,0.23433 0.57617,0.23633 h 14.80469 c 0.714,2.033 1.13591,4.98891 1.12891,8.00391 -0.008,3.003 -0.44091,5.91678 -1.12891,7.92578 h -14.80469 -0.0508 c -0.417,-0.005 -0.77484,0.29798 -0.83984,0.70898 l -8.70898,-8.68359 z m -10.767574,8.66992 c -3.64e-4,0.0157 -5.14e-4,0.0312 0,0.0469 -0.01501,-3.8e-4 -0.02986,0.005 -0.04492,0.006 4.28e-4,-0.0169 5.82e-4,-0.0339 0,-0.0508 0.01498,4e-4 0.02994,-0.002 0.04492,-0.002 z m -0.02148,2.08398 v 0.004 l 8.712889,8.71484 c -0.16,0.036 -0.30592,0.11638 -0.41992,0.23438 l -0.0781,0.0508 c -0.156,0.161 -0.24132,0.37851 -0.23632,0.60351 v 14.80274 c -2.033,0.715 -4.98891,1.11052 -8.003909,1.10352 -3.014,-0.008 -5.943125,-0.41052 -7.953125,-1.10352 v -14.80274 -0.0527 c 0.003,-0.426 -0.312375,-0.78684 -0.734375,-0.83984 z m 383.798827,2.80469 c -8.304,0 -15.03906,6.73506 -15.03906,15.03906 0,8.304 6.73606,15.06446 15.03906,15.06446 8.304,0 15.06445,-6.76046 15.06445,-15.06446 0,-8.303 -6.76045,-15.03906 -15.06445,-15.03906 z m 0,1.67969 c 7.396,0 13.38672,5.96337 13.38672,13.35937 0,7.396 -5.98872,13.38477 -13.38672,13.38477 -7.396,0 -13.35938,-5.98877 -13.35938,-13.38477 -10e-4,-7.396 5.96438,-13.35937 13.35938,-13.35937 z m -356.511718,3.0664 c -2.89691,8.23144 -9.412,14.74641 -17.64258,17.6504 0.009,-0.0518 0.0143,-0.10421 0.0137,-0.15821 v -14.64648 h 1.07618 c 0.464,0.012 0.84932,-0.35341 0.86132,-0.81641 5.6e-4,-0.0219 -0.005,-0.0428 -0.006,-0.0644 0.21359,0.003 0.42777,-0.0763 0.59376,-0.23633 0.162,-0.156 0.25385,-0.3697 0.25585,-0.5957 v -1.10352 h 14.67188 c 0.0603,-0.001 0.11857,-0.0157 0.17578,-0.0293 z m -54.544921,0.01 c 0.04815,0.009 0.09444,0.023 0.144531,0.0234 h 14.671875 v 1.10351 c 0.003,0.464 0.382656,0.83603 0.847656,0.83203 0,0 0.002,0 0.002,0 -0.0099,0.22254 0.0675,0.44801 0.234375,0.6211 0.163,0.169 0.388047,0.26086 0.623047,0.25586 h 1.076172 v 14.64648 c 0,0.0532 0.006,0.10534 0.01563,0.15625 -8.220972,-2.90356 -14.722051,-9.41302 -17.615234,-17.63867 z m 11.693359,4.56641 c -0.361,0 -0.726094,0.12353 -0.996094,0.39453 l -2.992187,3.01758 v 0.0254 c -0.524,0.542 -0.560391,1.4074 -0.02539,1.9414 0.541,0.543 1.452141,0.54 1.994141,0 l 2.992187,-2.99023 c 0.541,-0.541 0.542,-1.4541 0,-1.9961 -0.271,-0.27 -0.611656,-0.39257 -0.972656,-0.39257 z m 31.156252,0 c -0.361,0 -0.72805,0.12453 -0.99805,0.39453 -0.543,0.541 -0.541,1.45314 0,1.99414 l 2.99219,2.99219 c 0.541,0.542 1.45314,0.543 1.99414,0 0.545,-0.541 0.54,-1.42875 0,-1.96875 l -2.99024,-3.01563 c -0.271,-0.271 -0.63704,-0.39453 -0.99804,-0.39453 z"
   style="fill:#ffffff" /></svg>
