<?xml version="1.0" encoding="UTF-8" standalone="no"?>
<!-- Generator: Adobe Illustrator 25.4.1, SVG Export Plug-In . SVG Version: 6.00 Build 0)  -->

<svg
   version="1.1"
   id="Layer_1"
   x="0px"
   y="0px"
   viewBox="0 0 3839 950.2"
   style="enable-background:new 0 0 3839 950.2;"
   xml:space="preserve"
   sodipodi:docname="system_color.svg"
   inkscape:version="1.1.2 (0a00cf5339, 2022-02-04)"
   xmlns:inkscape="http://www.inkscape.org/namespaces/inkscape"
   xmlns:sodipodi="http://sodipodi.sourceforge.net/DTD/sodipodi-0.dtd"
   xmlns="http://www.w3.org/2000/svg"
   xmlns:svg="http://www.w3.org/2000/svg"><defs
   id="defs167">
	
	
	

		
		
		
		
		
		
		
		
		
		
		
		
		
		
		
		
		
		
		
		
		
		
		
		
		
		
	
		
	
			
		
				
				
			
		
		
		
	
		
		
		
	
		
		
		
	</defs><sodipodi:namedview
   id="namedview165"
   pagecolor="#848588"
   bordercolor="#666666"
   borderopacity="1.0"
   inkscape:pageshadow="2"
   inkscape:pageopacity="0"
   inkscape:pagecheckerboard="true"
   showgrid="false"
   inkscape:zoom="0.099700445"
   inkscape:cx="907.71912"
   inkscape:cy="-1258.7707"
   inkscape:window-width="1920"
   inkscape:window-height="996"
   inkscape:window-x="0"
   inkscape:window-y="0"
   inkscape:window-maximized="1"
   inkscape:current-layer="Layer_1" />
<style
   type="text/css"
   id="style2">
	.st0{fill:#FFFFFF;}
	.st1{fill:#912620;}
	.st2{fill:#008471;}
	.st3{fill:#005090;}
	.st4{fill:#B22D2A;}
	.st5{fill:#B32D2A;}
	.st6{fill:#B42D2A;}
	.st7{fill:#B52D2A;}
	.st8{fill:#B62D2A;}
	.st9{fill:#B72D29;}
	.st10{fill:#B82D29;}
	.st11{fill:#B92D29;}
	.st12{fill:#BA2D29;}
	.st13{fill:#BB2D29;}
	.st14{fill:#BC2D29;}
	.st15{fill:#BD2D29;}
	.st16{fill:#BE2D29;}
	.st17{fill:#BF2D29;}
	.st18{fill:#C02D29;}
	.st19{fill:#C12D28;}
	.st20{fill:#C22D28;}
	.st21{fill:#C32D28;}
	.st22{fill:#C42D28;}
	.st23{fill:#C52D28;}
	.st24{fill:#C62D28;}
	.st25{fill:#C72D28;}
	.st26{fill:#C82D28;}
	.st27{fill:#C92D28;}
	.st28{fill:#CA2D28;}
	.st29{fill:#CA2E27;}
	.st30{fill:#CB2E27;}
	.st31{fill:#CC2E27;}
	.st32{fill:#CD2E27;}
	.st33{fill:#CE2E27;}
	.st34{fill:#CF2E27;}
	.st35{fill:#D02E27;}
	.st36{fill:#D12E27;}
	.st37{fill:#D22E27;}
	.st38{fill:#D32E27;}
	.st39{fill:#D42E26;}
	.st40{fill:#D52E26;}
	.st41{fill:#D62E26;}
	.st42{fill:#D72E26;}
	.st43{fill:#D82E26;}
	.st44{fill:#D92E26;}
	.st45{fill:#DA2E26;}
	.st46{fill:#DB2E26;}
	.st47{fill:#DC2E26;}
	.st48{fill:#DD2E26;}
	.st49{fill:#DE2E25;}
	.st50{fill:#DF2E25;}
	.st51{fill:#E02E25;}
	.st52{fill:#E12E25;}
	.st53{fill:#E22E25;}
	.st54{fill:#009588;}
	.st55{fill:#009587;}
	.st56{fill:#019486;}
	.st57{fill:#019485;}
	.st58{fill:#019384;}
	.st59{fill:#029383;}
	.st60{fill:#029382;}
	.st61{fill:#029281;}
	.st62{fill:#039280;}
	.st63{fill:#03917F;}
	.st64{fill:#03917E;}
	.st65{fill:#03917D;}
	.st66{fill:#04907C;}
	.st67{fill:#04907B;}
	.st68{fill:#048F7A;}
	.st69{fill:#058F79;}
	.st70{fill:#058F78;}
	.st71{fill:#058E77;}
	.st72{fill:#068E76;}
	.st73{fill:#068D75;}
	.st74{fill:#068D74;}
	.st75{fill:#078D73;}
	.st76{fill:#078C72;}
	.st77{fill:#078C71;}
	.st78{fill:#088B70;}
	.st79{fill:#088B6F;}
	.st80{fill:#088B6E;}
	.st81{fill:#088A6D;}
	.st82{fill:#098A6C;}
	.st83{fill:#09896B;}
	.st84{fill:#09896A;}
	.st85{fill:#0A8969;}
	.st86{fill:#0A8868;}
	.st87{fill:#0A8867;}
	.st88{fill:#0B8766;}
	.st89{fill:#0B8765;}
	.st90{fill:#0B8764;}
	.st91{fill:#0C8663;}
	.st92{fill:#0C8662;}
	.st93{fill:#0C8561;}
	.st94{fill:#0D8560;}
	.st95{fill:#0D845F;}
	.st96{fill:#0D845E;}
	.st97{fill:#0E835D;}
	.st98{fill:#0E835C;}
	.st99{fill:#0E835B;}
	.st100{fill:#0F825A;}
	.st101{fill:#0F8259;}
	.st102{fill:#0F8158;}
	.st103{fill:#108157;}
	.st104{fill:#108156;}
	.st105{fill:#108055;}
	.st106{fill:#118054;}
	.st107{fill:#117F53;}
	.st108{fill:#117F52;}
	.st109{fill:#117F51;}
	.st110{fill:#127E50;}
	.st111{fill:#127E4F;}
	.st112{fill:#127D4E;}
	.st113{fill:#137D4D;}
	.st114{fill:#137D4C;}
	.st115{fill:#137C4B;}
	.st116{fill:#147C4A;}
	.st117{fill:#147B49;}
	.st118{fill:#147B48;}
	.st119{fill:#157B47;}
	.st120{fill:#157A46;}
	.st121{fill:#157A45;}
	.st122{fill:#167944;}
	.st123{fill:#167943;}
	.st124{fill:#167942;}
	.st125{fill:#167841;}
	.st126{fill:#177840;}
	.st127{fill:#17773F;}
	.st128{fill:#17773E;}
	.st129{fill:#18773D;}
	.st130{fill:#18763C;}
	.st131{fill:#18763B;}
	.st132{fill:#19753A;}
	.st133{fill:#197539;}
	.st134{fill:#005EAA;}
	.st135{fill:#005EAB;}
	.st136{fill:#015FAC;}
	.st137{fill:#015FAD;}
	.st138{fill:#0160AE;}
	.st139{fill:#0260AF;}
	.st140{fill:#0261B0;}
	.st141{fill:#0261B1;}
	.st142{fill:#0362B2;}
	.st143{fill:#0362B3;}
	.st144{fill:#0362B4;}
	.st145{fill:#0463B5;}
	.st146{fill:#0463B6;}
	.st147{fill:#0464B7;}
	.st148{fill:#0564B8;}
	.st149{fill:#0565B9;}
	.st150{fill:#0565BA;}
	.st151{fill:#0666BB;}
	.st152{fill:#0666BC;}
	.st153{fill:#0666BD;}
	.st154{fill:#0767BE;}
	.st155{fill:#0767BF;}
	.st156{fill:#0768BF;}
	.st157{fill:#0768C0;}
	.st158{fill:#0869C1;}
	.st159{fill:#0869C2;}
	.st160{fill:#0869C3;}
	.st161{fill:#096AC4;}
	.st162{fill:#096AC5;}
	.st163{fill:#096BC6;}
	.st164{fill:#0A6BC7;}
	.st165{fill:#0A6CC8;}
	.st166{fill:#0A6CC9;}
	.st167{fill:#0B6DCA;}
	.st168{fill:#0B6DCB;}
	.st169{fill:#0B6DCC;}
	.st170{fill:#0C6ECD;}
	.st171{fill:#0C6ECE;}
	.st172{fill:#0C6FCF;}
	.st173{fill:#0D6FD0;}
	.st174{fill:#0D70D1;}
	.st175{fill:#0D70D2;}
	.st176{fill:#0E71D3;}
	.st177{fill:#0E71D4;}
	.st178{fill:#0058B7;}
	.st179{fill:#0058B6;}
	.st180{fill:#0057B5;}
	.st181{fill:#0057B4;}
	.st182{fill:#0057B3;}
	.st183{fill:#0057B2;}
	.st184{fill:#0056B1;}
	.st185{fill:#0056B0;}
	.st186{fill:#0056AF;}
	.st187{fill:#0056AE;}
	.st188{fill:#0055AD;}
	.st189{fill:#0055AC;}
	.st190{fill:#0055AB;}
	.st191{fill:#0055AA;}
	.st192{fill:#0054A9;}
	.st193{fill:#0054A8;}
	.st194{fill:#0054A7;}
	.st195{fill:#0054A6;}
	.st196{fill:#0053A5;}
	.st197{fill:#0053A4;}
	.st198{fill:#0053A3;}
	.st199{fill:#0053A2;}
	.st200{fill:#0052A1;}
	.st201{fill:#0052A0;}
	.st202{fill:#00529F;}
	.st203{fill:#00529E;}
	.st204{fill:#00519D;}
	.st205{fill:#00519C;}
	.st206{fill:#00519B;}
	.st207{fill:#00519A;}
	.st208{fill:#005099;}
	.st209{fill:#005098;}
	.st210{fill:#005097;}
	.st211{fill:#005096;}
	.st212{fill:#004F95;}
	.st213{fill:#004F94;}
	.st214{fill:#004F93;}
	.st215{fill:#004F92;}
	.st216{fill:#004E91;}
	.st217{fill:#004E90;}
	.st218{fill:#004E8F;}
	.st219{fill:#004E8E;}
	.st220{fill:#004D8D;}
	.st221{fill:#004D8C;}
	.st222{fill:#004D8B;}
	.st223{fill:#004D8A;}
	.st224{fill:#004C89;}
	.st225{fill:#004C88;}
	.st226{fill:#008472;}
	.st227{fill:#008572;}
	.st228{fill:#008671;}
	.st229{fill:#008771;}
	.st230{fill:#008871;}
	.st231{fill:#008970;}
	.st232{fill:#008A70;}
	.st233{fill:#008B6F;}
	.st234{fill:#008C6F;}
	.st235{fill:#008D6F;}
	.st236{fill:#008E6E;}
	.st237{fill:#008F6E;}
	.st238{fill:#00906D;}
	.st239{fill:#00916D;}
	.st240{fill:#00926D;}
	.st241{fill:#00936C;}
	.st242{fill:#00946C;}
	.st243{fill:#00956B;}
	.st244{fill:#00966B;}
	.st245{fill:#00976B;}
	.st246{fill:#00986A;}
	.st247{fill:#00996A;}
	.st248{fill:#D60700;}
	.st249{fill:#034693;}
	.st250{fill:url(#SVGID_1_);}
	.st251{fill:url(#SVGID_00000158020887012343810220000009321575274651498881_);}
	.st252{fill:url(#SVGID_00000091736581665965496830000014822813125172276630_);}
	.st253{fill:url(#SVGID_00000046329176638500519590000018321469757716025238_);}
	.st254{fill:url(#SVGID_00000004527042209056595590000011786575711801045915_);}
	.st255{fill:url(#SVGID_00000081640359202083664400000010913655975073833889_);}
	.st256{fill:url(#SVGID_00000167357484182165831550000002224730126930221213_);}
	.st257{fill:url(#SVGID_00000024699150645449435220000017509024545970573973_);}
	.st258{fill:url(#SVGID_00000093134530250908980170000005322038731010597053_);}
	.st259{fill:url(#SVGID_00000155829615659436810330000001025962786487748004_);}
	.st260{fill:url(#SVGID_00000090266021602280770420000002769907653521892998_);}
	.st261{fill:url(#SVGID_00000153701399761574873850000008589613473225431482_);}
	.st262{fill:url(#SVGID_00000100378589555051337490000013264741871964830120_);}
	.st263{fill:url(#SVGID_00000004510248322496242900000013938038893122233785_);}
	.st264{fill:url(#SVGID_00000133492550596299583150000001398694405173693585_);}
	.st265{fill:url(#SVGID_00000047747789841014810370000004736732262167277227_);}
	.st266{fill:url(#SVGID_00000151504604682498737560000015423017904207632550_);}
	.st267{fill:url(#SVGID_00000084518580048902394990000016637109329908843695_);}
	.st268{fill:url(#SVGID_00000094599114905330910430000012271044168135139764_);}
	.st269{fill:url(#SVGID_00000005967526760580301920000005376890999577866649_);}
	.st270{fill:url(#SVGID_00000065063674212389669760000006003638971083546301_);}
	.st271{fill:url(#SVGID_00000068670217327371718110000001132445224553631167_);}
	.st272{fill:url(#SVGID_00000029029640278118289510000008317963943648318620_);}
	.st273{fill:url(#SVGID_00000070828417998814155090000000545647297493645500_);}
	.st274{fill:url(#SVGID_00000170957310348808585700000013511141016374320771_);}
	.st275{fill:url(#SVGID_00000085935100459149585820000016465540807076119742_);}
	.st276{fill:url(#SVGID_00000133525110172654398370000005160139247198580610_);}
	.st277{fill:url(#SVGID_00000026142517307773823600000000989511876739897268_);}
	.st278{fill:url(#SVGID_00000073684408170337059720000011238115063828968580_);}
	.st279{fill:url(#SVGID_00000160150824852690045950000007756770103663982216_);}
	.st280{fill:url(#SVGID_00000010299238533748533780000017169148685287755157_);}
	.st281{fill:url(#SVGID_00000112612194407178833290000002111028605864575885_);}
	.st282{fill:url(#SVGID_00000033337516255549277980000003860760101026778008_);}
	.st283{fill:url(#SVGID_00000119112749094612363700000002060910634720673154_);}
	.st284{fill:url(#SVGID_00000066488165254265326520000005083472568435853972_);}
	.st285{fill:url(#SVGID_00000168107861025895585160000000160333558143281065_);}
	.st286{fill:url(#SVGID_00000132769377388337782310000007836211162234346422_);}
	.st287{fill:url(#SVGID_00000048467149059670964370000015645522717108792469_);}
	.st288{fill:url(#SVGID_00000052813296798473744080000010266617472105483407_);}
	.st289{fill:url(#SVGID_00000117648621743818411060000004982612015175117243_);}
	.st290{fill:url(#SVGID_00000013151264545067520870000009247486541647624599_);}
	.st291{fill:url(#SVGID_00000070116511131038700530000001972580272245790120_);}
	.st292{fill:url(#SVGID_00000083778367548697899610000006025310147655824541_);}
	.st293{fill:url(#SVGID_00000086690183103253964390000013528280362241012352_);}
	.st294{fill:url(#SVGID_00000044155221900271586890000008755197876310432656_);}
	.st295{fill:url(#SVGID_00000077282461130035538140000012210420580280468865_);}
	.st296{fill:url(#SVGID_00000150075823897501456550000010721161756820411786_);}
	.st297{fill:url(#SVGID_00000115499137191106644040000001471119411836685954_);}
	.st298{fill:url(#SVGID_00000093167399842650796390000003000247927993574583_);}
	.st299{fill:url(#SVGID_00000153672888567203124080000011873272202641612191_);}
	.st300{fill:url(#SVGID_00000008114236314545038410000011993534931261319608_);}
	.st301{fill:url(#SVGID_00000051341726133405030930000004018190286478890150_);}
	.st302{fill:url(#SVGID_00000024693346884940639040000004424033374418701984_);}
	.st303{fill:url(#SVGID_00000029732788224270133740000008475034498920830891_);}
	.st304{fill:url(#SVGID_00000018948153751997311970000001735644317095233410_);}
	.st305{fill:url(#SVGID_00000016043994651880239650000001389596225218165121_);}
	.st306{fill:url(#SVGID_00000074403118351650299380000005730097653973619384_);}
	.st307{fill:url(#SVGID_00000147939559499476599460000010602606736143891331_);}
	.st308{fill:url(#SVGID_00000064342120716067347370000005430592697603683742_);}
	.st309{fill:url(#SVGID_00000030486013458251934280000011104146036140958140_);}
	.st310{fill:url(#SVGID_00000083089786590047850640000015104034412064909749_);}
	.st311{fill:url(#SVGID_00000110435545624135756580000013004007356547161222_);}
	.st312{fill:url(#SVGID_00000036959919348819352520000011664501210436527256_);}
	.st313{fill:url(#SVGID_00000171718572520997047410000000752769017886925456_);}
	.st314{fill:url(#SVGID_00000073688420294056266470000009183570718713826480_);}
	.st315{fill:url(#SVGID_00000120561084199696373690000015667954617718035611_);}
	.st316{fill:url(#SVGID_00000001649886904481564050000009893993427277132164_);}
	.st317{fill:url(#SVGID_00000036946512676366736550000001096813594318223497_);}
	.st318{fill:url(#SVGID_00000122682588202848736860000002889705017961523890_);}
	.st319{fill:url(#SVGID_00000129927681017278077700000001073518148998507943_);}
	.st320{fill:url(#SVGID_00000060751324007442318720000017717898756280329092_);}
	.st321{fill:url(#SVGID_00000134939904179513544980000011621097383405171080_);}
	.st322{fill:url(#SVGID_00000126317798505687697900000013073076038309514911_);}
	.st323{fill:url(#SVGID_00000093158625808966917960000011076968559749320625_);}
	.st324{fill:url(#SVGID_00000006686726737321060200000013516894410501099687_);}
	.st325{fill:url(#SVGID_00000137833648739235680260000004710461228470936963_);}
	.st326{fill:url(#SVGID_00000137126715967512970220000009569356386622234279_);}
	.st327{fill:url(#SVGID_00000027606804715534601650000002961292935387119526_);}
	.st328{fill:url(#SVGID_00000149340411379469677960000009848894033619393440_);}
	.st329{fill:url(#SVGID_00000070835676186891241650000003865720328341961637_);}
	.st330{fill:url(#SVGID_00000145749276514198041240000007020350792085258913_);}
	.st331{fill:url(#SVGID_00000005979774710127359400000006174954398133635751_);}
	.st332{fill:url(#SVGID_00000155861802176329985160000015006822123489990038_);}
	.st333{fill:url(#SVGID_00000076604117708415550800000013145486354906776212_);}
	.st334{fill:url(#SVGID_00000031914361081318559180000017787738805806377857_);}
	.st335{fill:url(#SVGID_00000170957781136370227730000011252996559542087356_);}
	.st336{fill:url(#SVGID_00000021838985524940590830000013210310831853101720_);}
	.st337{fill:url(#SVGID_00000029736963609513811340000015159042836924293301_);}
	.st338{fill:url(#SVGID_00000165920601135648998860000010853238959001576841_);}
	.st339{fill:url(#SVGID_00000120559009979230630890000002042138424235420048_);}
	.st340{fill:url(#SVGID_00000146495176904464167310000014676825580015876788_);}
	.st341{fill:url(#SVGID_00000032644046981737766240000011713889694261694373_);}
	.st342{fill:url(#SVGID_00000014599710385680931480000016005680637435624603_);}
	.st343{fill:url(#SVGID_00000098929316249190562260000005191004816965948819_);}
	.st344{fill:url(#SVGID_00000153699451460997935780000015159767527123119495_);}
	.st345{fill:url(#SVGID_00000166658024451474815710000004106936803187789713_);}
	.st346{fill:#034693;stroke:#FFFFFF;stroke-width:25.205;stroke-miterlimit:10;}
	.st347{fill:url(#SVGID_00000101808874162406497600000007231326677468610489_);}
	.st348{fill:url(#SVGID_00000002368745503722952620000002991599823679091374_);}
	.st349{fill:url(#SVGID_00000007419066995894404710000015172176305815049362_);}
	.st350{fill:url(#SVGID_00000077286695186778768320000017114109669664699067_);}
	.st351{fill:url(#SVGID_00000140715523356572417850000008045140760931771533_);}
	.st352{fill:url(#SVGID_00000126316363418433076810000011898974009760057743_);}
	.st353{fill:url(#SVGID_00000084517395780126037030000011873726681913927081_);}
	.st354{fill:url(#SVGID_00000009561738021326478620000001025160426794616724_);}
</style>
<path
   id="path2383"
   class="st248"
   d="M 613.5 456.30078 C 583.8 456.30078 547.7 473.8 509 507 C 470.8 539.8 433.89961 584.59922 402.09961 636.69922 C 364.69961 697.79922 339.39922 761.50078 330.69922 815.80078 C 321.49922 873.20078 332.10039 914.29961 360.40039 931.59961 C 369.60039 937.29961 380.29922 940.09961 392.19922 940.09961 C 421.89922 940.09961 457.99922 922.60039 496.69922 889.40039 C 534.89922 856.60039 571.79961 811.79922 603.59961 759.69922 C 640.99961 698.59922 666.3 634.89961 675 580.59961 C 684.2 523.19961 673.60078 482.10078 645.30078 464.80078 C 636.10078 459.10078 625.4 456.30078 613.5 456.30078 z M 941.09961 456.30078 C 911.39961 456.30078 875.29961 473.8 836.59961 507 C 798.39961 539.8 761.49922 584.59922 729.69922 636.69922 C 692.29922 697.79922 667.00078 761.50078 658.30078 815.80078 C 649.10078 873.20078 659.7 914.29961 688 931.59961 C 697.2 937.29961 707.90078 940.09961 719.80078 940.09961 C 749.40078 940.09961 785.60039 922.60039 824.40039 889.40039 C 862.60039 856.60039 899.50078 811.79922 931.30078 759.69922 C 988.50078 665.89922 1016.3992 567.4 1002.1992 509 C 997.19922 488.4 987.30039 473.60078 972.90039 464.80078 C 963.70039 459.10078 952.99961 456.30078 941.09961 456.30078 z M 286 456.40039 C 256.3 456.40039 220.2 473.89961 181.5 507.09961 C 143.3 539.89961 106.39961 584.70078 74.599609 636.80078 C 37.199609 697.90078 11.899219 761.60039 3.1992188 815.90039 C -6.0007812 873.30039 4.6003906 914.39961 32.900391 931.59961 C 42.100391 937.29961 52.799219 940.09961 64.699219 940.09961 C 94.399219 940.09961 130.49922 922.6 169.19922 889.5 C 207.39922 856.7 244.29961 811.90078 276.09961 759.80078 C 313.49961 698.70078 338.8 634.99922 347.5 580.69922 C 356.7 523.29922 346.10078 482.20039 317.80078 464.90039 C 308.60078 459.20039 297.9 456.40039 286 456.40039 z "
   style="fill:#000000" /><path
   class="st0"
   d="M 2875,66 C 2862.9,27.5 2826.6,0 2784.8,0 2743,0 2706.7,27.5 2694.6,66 l -31.9,94.6 V 5.5 h -167.1 c -29.7,0 -57.2,12.1 -78.1,31.9 V 5.5 H 2246 c -31.9,0 -60.5,13.2 -81.4,35.2 V 5.5 H 2002 c -69.3,0 -126.5,57.2 -126.5,126.5 0,33 13.2,63.8 34.1,85.8 h -34.1 v 147.4 h 162.7 c 46.2,0 85.8,-24.2 108.9,-61.6 18.7,36.3 56.1,61.6 100.1,61.6 h 172.6 v -31.9 c 19.8,19.8 47.3,31.9 78.1,31.9 H 2975 Z"
   id="path4"
   style="fill:#000000" /><g
   id="g28"
   style="fill:#ffffff">
					<g
   id="g10"
   style="fill:#ffffff">
						<path
   class="st249"
   d="M 2038.2,244.1 H 1900.7 V 287 h 137.5 c 26.4,0 48.4,-22 48.4,-48.4 0,-26.4 -22,-48.4 -48.4,-48.4 H 2003 c -31.9,0 -58.3,-26.4 -58.3,-58.3 0,-31.9 26.4,-58.3 58.3,-58.3 h 136.4 V 30.8 h -137.5 c -56.1,0 -101.2,45.1 -101.2,101.2 0,56.1 45.1,101.2 101.2,101.2 h 35.2 c 3.3,0 5.5,2.2 5.5,5.5 0,3.2 -2.2,5.4 -4.4,5.4 z"
   id="path6"
   style="fill:#ffffff" />
						<path
   class="st249"
   d="m 2001.9,127.6 h 137.5 v -44 h -137.5 c -26.4,0 -48.4,22 -48.4,48.4 0,26.4 22,48.4 48.4,48.4 h 35.2 c 31.9,0 58.3,26.4 58.3,58.3 0,31.9 -26.4,58.3 -58.3,58.3 h -136.4 v 42.9 h 137.5 c 56.1,0 101.2,-45.1 101.2,-101.2 0,-56.1 -45.1,-101.2 -101.2,-101.2 H 2003 c -3.3,0 -5.5,-2.2 -5.5,-5.5 0,-2.2 2.2,-4.4 4.4,-4.4 z"
   id="path8"
   style="fill:#ffffff" />
					</g>
					<g
   id="g18"
   style="fill:#ffffff">
						<path
   class="st249"
   d="m 2495.6,83.6 c -18.7,0 -33,14.3 -33,33 v 137.5 c 0,18.7 14.3,33 33,33 h 89 v -96.9 h -68.2 v 42.9 h 25.3 v 9.9 h -25.3 c -5.5,0 -9.9,-4.4 -9.9,-9.9 v -96.7 c 0,-5.5 4.4,-9.9 9.9,-9.9 h 122.1 V 83.6 Z"
   id="path12"
   style="fill:#ffffff" />
						<path
   class="st249"
   d="m 2766.1,287 h 100.1 L 2798,84.7 c -2.2,-5.5 -6.6,-9.9 -13.2,-9.9 -5.5,0 -11,4.4 -13.2,8.8 l -88,256.2 h 50.6 L 2765,248.5 V 287 Z m 17.6,-92.4 14.3,44 h -29.7 z"
   id="path14"
   style="fill:#ffffff" />
						<path
   class="st249"
   d="m 2850.8,75.9 c -8.8,-28.6 -35.2,-50.6 -67.1,-50.6 -31.9,0 -58.3,20.9 -66,49.5 l -80.3,235.3 V 137.5 h -121 v 42.9 h 79.2 V 297 h -99 c -24.2,0 -42.9,-19.8 -42.9,-42.9 V 116.6 c 0,-24.2 19.8,-42.9 42.9,-42.9 h 141.9 V 30.8 h -143 c -47.3,0 -85.8,38.5 -85.8,85.8 v 137.5 c 0,47.3 38.5,85.8 85.8,85.8 h 177.1 l 89.1,-258.4 c 3.3,-9.9 12.1,-16.5 23.1,-16.5 11,0 19.8,6.6 23.1,16.5 l 72.6,215.5 h -114.4 v 42.9 h 173.7 v 0 z"
   id="path16"
   style="fill:#ffffff" />
					</g>
					<g
   id="g26"
   style="fill:#ffffff">
						<path
   class="st249"
   d="m 2246.1,296.9 c -24.2,0 -42.9,-19.8 -42.9,-42.9 V 116.5 c 0,-24.2 19.8,-42.9 42.9,-42.9 h 147.4 V 30.8 h -147.4 c -47.3,0 -85.8,38.5 -85.8,85.8 v 137.5 c 0,47.3 38.5,85.8 85.8,85.8 h 147.4 V 297 Z"
   id="path20"
   style="fill:#ffffff" />
						<path
   class="st249"
   d="m 2256,234.2 h 106.7 v -42.9 h -149.6 v 63.8 c 0,18.7 14.3,33 33,33 h 147.4 v -42.9 h -127.6 c -5.5,-1.1 -9.9,-5.5 -9.9,-11 z"
   id="path22"
   style="fill:#ffffff" />
						<path
   class="st249"
   d="m 2362.6,137.5 h -106.7 c 0,-5.5 4.4,-9.9 9.9,-9.9 h 126.5 v -44 H 2246 c -18.7,0 -33,14.3 -33,33 v 63.8 h 149.6 z"
   id="path24"
   style="fill:#ffffff" />
					</g>
				</g><path
   id="path36"
   class="st248"
   d="m 285.0332,476.42383 c -2.85261,0.0569 -5.77395,0.3293 -8.51758,0.74805 -0.52421,0.0858 -1.66542,0.26842 -2.13921,0.35483 -12.15819,2.22223 -23.66579,7.09084 -34.52721,12.87736 -12.41426,6.64195 -24.15498,14.82032 -35.23203,23.5995 -6.42153,5.07904 -12.64795,10.4188 -18.65251,15.88754 -7.62822,6.96974 -15.08805,14.34647 -22.23162,21.89875 -15.68793,16.62174 -30.30877,34.4505 -43.76462,52.99568 -4.8534,6.67231 -9.64285,13.56627 -14.22259,20.4356 -15.922103,23.90145 -30.351803,48.84151 -42.92905,74.70417 -13.250343,27.37187 -24.452753,55.71079 -32.442954,85.07939 -2.618246,9.69237 -4.893071,19.65169 -6.638563,29.55329 -0.523673,2.95277 -1.004511,6.04794 -1.434482,8.93029 -0.608115,4.26507 -1.136071,8.68907 -1.513672,12.88867 -0.285275,3.23643 -0.500374,6.47858 -0.638671,9.72461 -0.02732,0.78032 -0.05948,1.86591 -0.08866,2.76344 -0.09156,3.29417 -0.07819,6.78375 0.03592,10.15453 0.06974,2.04208 0.19928,4.39079 0.355469,6.42188 0.865373,10.80693 2.914625,21.69402 7.646349,31.52294 3.484703,7.26259 8.760583,13.87515 15.817009,17.92552 1.890879,1.10273 3.885868,2.02101 5.940939,2.77224 0.469237,0.16481 1.248257,0.4371 1.851126,0.61547 5.01156,1.58032 10.317995,1.97413 15.545358,1.74 1.016113,-0.0528 2.296296,-0.13007 3.409373,-0.25146 11.333881,-1.14277 22.208364,-4.99976 32.487574,-9.77001 14.01045,-6.60664 26.99887,-15.19536 39.29847,-24.56749 5.78481,-4.43293 11.42088,-9.09355 16.83779,-13.8544 13.91637,-12.26126 26.96475,-25.48979 39.2207,-39.40625 8.12801,-9.22599 16.03468,-18.87845 23.50769,-28.65572 9.5542,-12.48446 18.58425,-25.36682 27.16028,-38.54155 8.95624,-13.79636 17.48679,-28.0065 25.39379,-42.48027 11.83583,-21.6475 22.41487,-44.10026 31.33341,-67.15021 6.53921,-16.91778 12.18808,-34.28151 16.52567,-51.90825 1.51079,-6.09759 2.87526,-12.37707 4.02636,-18.55978 3.31522,-17.92979 5.21008,-36.31116 3.73639,-54.58117 -0.97556,-10.98802 -3.15999,-22.0699 -8.21881,-31.96122 -3.63825,-7.09711 -9.07611,-13.45463 -16.15738,-17.27831 -6.3186,-3.4534 -13.63025,-4.78506 -20.78006,-4.62766 z"
   style="fill:#ffffff" /><path
   id="path38"
   class="st239"
   d="m 612.94336,476.31445 c -12.12369,0.21864 -23.90403,3.88639 -34.91359,8.7533 -16.95845,7.55395 -32.41059,18.08535 -46.90248,29.60383 -17.12999,13.71828 -32.89118,29.08727 -47.59637,45.36053 -9.50432,10.53067 -18.59052,21.54671 -27.19303,32.75891 -16.49982,21.57478 -31.52009,44.27024 -45.13672,67.76757 -10.34582,17.93466 -19.95674,36.47027 -28.41504,55.43327 -3.34498,7.49426 -6.60893,15.24192 -9.59068,22.88357 -5.12549,13.08065 -9.7146,26.37556 -13.60561,39.87652 -1.09995,3.83733 -2.21705,7.95209 -3.19579,11.81718 -4.75623,18.94303 -8.22716,38.30597 -8.82163,57.86307 -0.24549,8.4235 0.0858,16.88038 1.29477,25.226 0.0727,0.47965 0.20791,1.31754 0.30457,1.93444 1.66012,9.71394 4.52165,19.44471 10.0841,27.6847 4.14243,6.14103 9.98606,11.22898 16.91944,13.94966 7.61185,3.07513 16.19379,3.35465 24.15478,2.29448 3.36103,-0.43042 6.85075,-1.1709 10.02344,-1.99414 1.51604,-0.40864 2.84965,-0.77965 4.37222,-1.26715 14.21125,-4.51305 27.42199,-11.703 39.82852,-19.88955 5.73932,-3.80324 11.37186,-7.88346 16.74058,-12.0547 14.31663,-11.16264 27.67194,-23.52389 40.28133,-36.57375 20.21318,-21.00889 38.5191,-43.95145 55.10729,-67.9617 17.15377,-24.8557 32.61716,-50.88799 46.09636,-77.91589 4.01998,-8.08631 7.8511,-16.25082 11.47213,-24.48374 7.42259,-16.87572 14.05136,-34.24324 19.53117,-51.93725 6.57593,-21.43153 11.69546,-43.53547 13.6797,-65.94956 0.30543,-3.66232 0.53624,-7.3712 0.65046,-10.94913 0.1318,-4.20312 0.11174,-8.4546 -0.0517,-12.58864 -0.0537,-1.03279 -0.11496,-2.28652 -0.1971,-3.44295 -0.17262,-2.53375 -0.44009,-5.23732 -0.74141,-7.64614 -1.24553,-9.49674 -3.5829,-18.98412 -8.09184,-27.48959 -1.35297,-2.50002 -3.02941,-5.04835 -4.74605,-7.1608 -0.58683,-0.72163 -1.15795,-1.38829 -1.83811,-2.11974 -4.64407,-5.08242 -10.80207,-8.73059 -17.48012,-10.39573 -3.9195,-1.01554 -7.9782,-1.44431 -12.02357,-1.38688 z"
   style="fill:#ffffff" /><path
   id="path40"
   class="st249"
   d="m 938.68555,476.36328 c -4.54492,0.22534 -8.92364,0.88915 -13.3754,1.92144 -2.08538,0.48022 -4.44545,1.13922 -6.63242,1.81098 -5.09812,1.59418 -10.19799,3.63662 -14.96679,5.83008 -13.54267,6.27329 -26.14911,14.4097 -38.05967,23.36639 -17.89427,13.53594 -34.3437,28.96274 -49.64675,45.40645 -4.56471,4.90913 -9.01921,9.92068 -13.40395,15.03419 -21.41974,25.03492 -40.553,52.13048 -57.60923,80.35973 -11.82457,19.57845 -22.69367,39.88219 -32.25497,60.72165 -4.33945,9.43211 -8.44519,19.09093 -12.23832,28.80886 -9.00439,23.16474 -16.47343,47.15421 -21.08373,71.65881 -1.47178,7.89862 -2.70928,16.1132 -3.4503,24.13892 -0.36191,3.92183 -0.61354,7.73363 -0.75504,11.66711 -0.0765,2.37389 -0.12335,4.93261 -0.10582,7.37968 0.0889,11.96281 1.32806,24.22373 5.30398,35.64748 2.82232,8.16324 7.27947,16.00759 14.00888,21.56854 6.54268,5.39935 15.00678,8.19784 23.44432,8.35513 10.37163,0.35018 20.61232,-2.21383 30.27321,-5.79858 12.75725,-4.78108 24.66677,-11.57055 35.95629,-19.14444 1.05947,-0.72732 2.20051,-1.48846 3.28735,-2.2512 13.57815,-9.45231 26.35099,-20.24843 38.37867,-31.67067 13.25083,-12.60499 25.6746,-26.06337 37.375,-40.11524 2.05017,-2.47776 4.20353,-5.09789 6.21872,-7.62219 17.53918,-21.84627 33.41326,-45.00734 47.79104,-69.04578 12.72832,-21.30137 24.29064,-43.43351 34.32513,-66.17695 4.9257,-11.17828 9.55664,-22.70644 13.67603,-34.23281 3.37523,-9.42664 6.48091,-18.99955 9.1922,-28.6 1.65298,-5.88997 3.23604,-12.02425 4.59223,-17.99435 1.20524,-5.24676 2.29618,-10.67888 3.21637,-15.84549 1.7446,-10.07462 3.03519,-20.25428 3.49196,-30.51453 0.1157,-2.54394 0.17722,-4.92786 0.18633,-7.47843 0.0446,-11.93648 -1.03658,-24.00574 -4.63852,-35.4367 -2.64575,-8.2599 -6.78566,-16.29721 -13.28001,-22.18948 -6.31969,-5.72842 -14.67648,-9.0514 -23.17626,-9.47586 -2.01074,-0.12663 -4.02711,-0.16818 -6.04053,-0.0827 z"
   style="fill:#ffffff" /><g
   id="g67"
   style="fill:#ffffff">
			<linearGradient
   id="SVGID_1_"
   gradientUnits="userSpaceOnUse"
   x1="2274.1633"
   y1="507.7309"
   x2="2274.1633"
   y2="901.70892">
				<stop
   offset="0.2309"
   style="stop-color:#FF2727"
   id="stop60" />
				<stop
   offset="0.8932"
   style="stop-color:#FFC600"
   id="stop62" />
			</linearGradient>
			<path
   class="st250"
   d="m 2404,507.7 h -168 c -22.9,0 -42.4,16.7 -45.8,39.4 l -45.3,301.5 c -4.2,27.9 17.5,53.1 45.8,53.1 h 26.6 127.6 l 11.9,-79.5 h -127.4 l 11.3,-75.3 h 107 l 11.7,-79.5 h -106.8 l 12.1,-80.3 h 127.7 z"
   id="path65"
   style="fill:#ffffff" />
		</g><g
   id="g76"
   style="fill:#ffffff">
			
				<linearGradient
   id="SVGID_00000119089015202661850300000005307222903963343510_"
   gradientUnits="userSpaceOnUse"
   x1="3051.6667"
   y1="507.7309"
   x2="3051.6667"
   y2="901.70892">
				<stop
   offset="0.2309"
   style="stop-color:#FF2727"
   id="stop69" />
				<stop
   offset="0.8932"
   style="stop-color:#FFC600"
   id="stop71" />
			</linearGradient>
			<path
   style="fill:#ffffff"
   d="m 3181.5,507.7 h -168 c -22.9,0 -42.4,16.7 -45.8,39.4 l -45.3,301.5 c -4.2,27.9 17.5,53.1 45.8,53.1 h 26.6 127.6 l 11.9,-79.5 h -127.4 l 11.3,-75.3 h 107 l 11.7,-79.5 H 3030 l 12.1,-80.3 h 127.7 z"
   id="path74" />
		</g><g
   id="g85"
   style="fill:#ffffff">
			
				<linearGradient
   id="SVGID_00000160901449844240173520000005944375933913194654_"
   gradientUnits="userSpaceOnUse"
   x1="1549.3574"
   y1="506.34641"
   x2="1549.3574"
   y2="901.70892">
				<stop
   offset="0.2309"
   style="stop-color:#FF2727"
   id="stop78" />
				<stop
   offset="0.8932"
   style="stop-color:#FFC600"
   id="stop80" />
			</linearGradient>
			<path
   style="fill:#ffffff"
   d="m 1605.7,506.3 c -22.3,0 -44.5,11.8 -55.1,37.1 l -148.2,358.3 h 86 l 30.7,-74.1 h 90.8 l 6.6,74.1 h 79.8 L 1666,561.1 c -3.1,-35.2 -31.6,-54.8 -60.3,-54.8 z m -53.7,241.8 41.8,-101 9,101 z"
   id="path83" />
		</g><g
   id="g94"
   style="fill:#ffffff">
			
				<linearGradient
   id="SVGID_00000044164380136982423800000008705052370891603361_"
   gradientUnits="userSpaceOnUse"
   x1="1931.5243"
   y1="507.7309"
   x2="1931.5243"
   y2="902.20343">
				<stop
   offset="0.2309"
   style="stop-color:#FF2727"
   id="stop87" />
				<stop
   offset="0.8932"
   style="stop-color:#FFC600"
   id="stop89" />
			</linearGradient>
			<path
   style="fill:#ffffff"
   d="M 2022.9,538.9 1930,733.7 1898.7,553.8 c -5.3,-30.8 -30.1,-46.1 -54.8,-46.1 -25.2,0 -50.3,15.8 -55.1,47.4 l -52.1,346.6 H 1817 L 1845.6,712.1 1873,869 c 3.8,21.5 21.7,33.2 39.8,33.2 14.2,0 28.6,-7.2 36,-22.8 l 73,-153.3 -26.4,175.6 h 80.4 l 49.8,-331.5 c 5.7,-38 -24.4,-62.5 -54.7,-62.5 -18.8,0 -37.7,9.5 -48,31.2 z"
   id="path92" />
		</g><g
   id="g103"
   style="fill:#ffffff">
			
				<linearGradient
   id="SVGID_00000103261674846397733910000017335472056580688816_"
   gradientUnits="userSpaceOnUse"
   x1="1235.3085"
   y1="486.46979"
   x2="1235.3085"
   y2="910.01581">
				<stop
   offset="0.2309"
   style="stop-color:#FF2727"
   id="stop96" />
				<stop
   offset="0.8932"
   style="stop-color:#FFC600"
   id="stop98" />
			</linearGradient>
			<path
   style="fill:#ffffff"
   d="m 1415.1,588.2 c 0,0 -53.1,-101.8 -153,-101.8 -123.9,0 -205.8,124.2 -210.1,216.7 -7.5,158.6 117.6,206.9 172.1,206.9 109.6,0 169.8,-100.1 193.2,-178.3 7.4,-24.7 -11.2,-49.5 -37,-49.5 h -33.1 -91.1 l -32.9,79.5 h 92.7 c -20.4,36.5 -56.8,63.4 -99.6,63.4 -21.7,0 -86.9,-19.6 -82.4,-115.5 3,-64.3 53.9,-143.2 128.3,-143.2 49.3,0 82.2,58.8 82.2,58.8 z"
   id="path101" />
		</g><g
   id="g112"
   style="fill:#ffffff">
			
				<linearGradient
   id="SVGID_00000035495049903568141650000018265508600159006608_"
   gradientUnits="userSpaceOnUse"
   x1="2708.4536"
   y1="486.46951"
   x2="2708.4536"
   y2="910.01562">
				<stop
   offset="0.2309"
   style="stop-color:#FF2727"
   id="stop105" />
				<stop
   offset="0.8932"
   style="stop-color:#FFC600"
   id="stop107" />
			</linearGradient>
			<path
   style="fill:#ffffff"
   d="m 2888.3,588.2 c 0,0 -53.1,-101.8 -153,-101.8 -123.9,0 -205.8,124.2 -210.1,216.7 -7.5,158.6 117.6,206.9 172.1,206.9 109.6,0 169.8,-100.1 193.2,-178.3 7.4,-24.7 -11.2,-49.5 -37,-49.5 h -33.1 -91.1 l -32.9,79.5 h 92.7 c -20.4,36.5 -56.8,63.4 -99.6,63.4 -21.7,0 -86.9,-19.6 -82.4,-115.5 3,-64.3 53.9,-143.2 128.3,-143.2 49.3,0 82.2,58.8 82.2,58.8 z"
   id="path110" />
		</g><g
   id="g121"
   style="fill:#ffffff">
			
				<linearGradient
   id="SVGID_00000025444108780240831480000010193383402727289781_"
   gradientUnits="userSpaceOnUse"
   x1="3654.7007"
   y1="507.73071"
   x2="3654.7007"
   y2="901.80798">
				<stop
   offset="0.2309"
   style="stop-color:#FF2727"
   id="stop114" />
				<stop
   offset="0.8932"
   style="stop-color:#FFC600"
   id="stop116" />
			</linearGradient>
			<path
   style="fill:#ffffff"
   d="m 3764.2,791 c 0,0 0,0 -1.1,-4.9 v -0.2 c -0.7,-3.4 -2,-9.1 -4,-18.5 -5.1,-23.6 -22.8,-28.9 -22.8,-28.9 65.8,-36.8 62.6,-104.9 62.6,-109.5 0,-67.3 -62.9,-121.3 -115,-121.3 h -29.1 -41.1 c -22.7,0 -42,16.4 -45.7,38.9 l -57.4,355.1 h 80.5 l 22.7,-140.5 h 36.1 c 15.1,0 28.2,10.6 31.3,25.3 l 24.9,115.3 H 3788 Z M 3661.8,681.7 h -35.1 l 15.1,-94.5 h 33.1 c 15.7,0 31.2,15.7 34.7,34.5 5.3,27.9 -16.3,60 -47.8,60 z"
   id="path119" />
		</g><path
   d="m 2236,487.7 c -15.9,0 -31.3,5.7 -43.3,16 -12.1,10.4 -20,24.7 -22.3,40.5 L 2125,845.6 c -2.8,19.1 2.8,38.5 15.4,53.1 12.6,14.6 30.9,23 50.3,23 h 26.6 127.6 17.3 l 2.6,-17.1 11.9,-79.5 3.4,-23 h -23.3 -104.1 L 2258,767 h 89.7 17.3 l 2.5,-17.2 11.7,-79.5 3.4,-23 h -23.2 -83.5 l 6,-40.2 h 110.4 17.3 l 2.5,-17.1 11.7,-79.3 3.4,-23 H 2404 Z m 156.2,99.4 h -127.7 l -12.1,80.3 h 106.8 l -11.7,79.5 h -107 l -11.3,75.3 h 127.4 l -11.9,79.5 h -127.6 -26.6 c -28.3,0 -50,-25.2 -45.8,-53.1 L 2190,547.1 c 3.4,-22.7 22.8,-39.4 45.8,-39.4 h 168 z"
   id="path123" /><path
   d="m 3204.8,487.7 h -23.3 -168 c -15.9,0 -31.3,5.7 -43.3,16 -12.1,10.4 -20,24.7 -22.3,40.5 l -45.3,301.5 c -2.8,19.1 2.8,38.5 15.4,53.1 12.6,14.6 30.9,23 50.3,23 h 26.6 127.6 17.3 l 2.6,-17.1 11.9,-79.5 3.4,-23 h -23.3 -104.1 l 5.3,-35.1 h 89.7 17.3 l 2.5,-17.2 11.7,-79.5 3.4,-23 h -23.2 -83.5 l 6,-40.2 h 110.4 17.3 l 2.5,-17.1 11.7,-79.3 z m -35.1,99.4 H 3042 l -12.1,80.3 h 106.8 l -11.7,79.5 h -107 l -11.3,75.3 h 127.4 l -11.9,79.5 H 2994.6 2968 c -28.3,0 -50,-25.2 -45.8,-53.1 l 45.3,-301.5 c 3.4,-22.7 22.8,-39.4 45.8,-39.4 h 168 z"
   id="path125" /><g
   id="g129">
			<polygon
   points="1593.9,647.2 1552,748.1 1602.9,748.1 "
   id="polygon127" />
		</g><g
   id="g133">
			<polygon
   points="3371.1,748.1 3362.1,647.2 3320.3,748.1 "
   id="polygon131" />
		</g><path
   d="m 3140.5,921.8 h 30 86 13.4 l 5.1,-12.4 25.5,-61.7 h 59 l 5,55.8 1.6,18.3 h 18.4 79.8 21.9 l -1.9,-21.9 -30.3,-340.6 c -1.9,-21.6 -11.8,-40.9 -27.7,-54.2 -14.5,-12.2 -33.2,-18.9 -52.6,-18.9 -32.7,0 -60.9,18.9 -73.6,49.4 v 0 0 L 3152,894 Z m 178.3,-378.4 c 10.6,-25.3 32.9,-37.1 55.1,-37.1 28.7,0 57.2,19.6 60.3,54.8 l 30.3,340.6 h -79.8 l -6.6,-74.1 h -90.8 l -30.7,74.1 h -86 z"
   id="path135" /><path
   d="m 2129.2,514.1 c -14.2,-16.5 -36,-26.4 -58.3,-26.4 -28.7,0 -53.4,15.9 -66.1,42.6 L 1939,668.2 1918.5,550.4 c -3.4,-19.4 -12.9,-35.7 -27.6,-47 -13.1,-10.1 -29.8,-15.7 -46.9,-15.7 -17.5,0 -34.4,5.7 -47.6,16.2 -14.9,11.7 -24.3,28.4 -27.3,48.3 l -52.1,346.6 -0.4,2.9 -0.2,-1.7 -30.4,-340.6 c -1.9,-21.6 -11.8,-40.9 -27.7,-54.2 -14.5,-12.2 -33.2,-18.9 -52.6,-18.9 -15.3,0 -30.1,4.2 -42.6,12.2 -13.7,8.6 -24.4,21.5 -31,37.3 v 0 0 l -148.2,358.2 -11.5,27.8 h 30 86 13.4 l 5.1,-12.4 25.5,-61.7 h 59 l 5,55.8 1.6,18.3 h 18.4 79.8 17.1 4.8 18.5 80.3 17.3 l 2.6,-17.1 10.2,-67.5 6.2,35.3 c 2.6,15.1 10.2,27.9 21.9,37 10.6,8.3 23.9,12.8 37.6,12.8 11,0 21.6,-2.9 30.9,-8.4 10,-6 18.1,-14.9 23.3,-25.9 l 14.9,-31.3 -6.3,42.1 -3.5,23.1 h 23.3 80.4 17.3 l 2.6,-17.1 49.8,-331.5 c 3.4,-22.2 -2.4,-43.2 -16.2,-59.2 z m -512.7,387.6 -6.6,-74.1 h -90.8 l -30.7,74.1 h -86 l 148.2,-358.3 c 10.6,-25.3 32.8,-37.1 55.1,-37.1 28.7,0 57.2,19.6 60.3,54.8 l 30.3,340.6 z m 509.1,-331.5 -49.8,331.5 h -80.4 l 26.4,-175.6 -73,153.3 c -7.4,15.6 -21.8,22.8 -36,22.8 -18.1,0 -36,-11.8 -39.8,-33.2 L 1845.6,712.2 1817,901.8 h -80.3 l 52.1,-346.6 c 4.7,-31.5 29.9,-47.4 55.1,-47.4 24.7,0 49.4,15.3 54.8,46.1 L 1930,733.8 2022.9,539 c 10.3,-21.7 29.2,-31.2 48,-31.2 30.3,-0.1 60.4,24.5 54.7,62.4 z"
   id="path137" /><path
   d="m 1367.8,863.7 c 40,-44 60.2,-98 68.7,-126.2 5.4,-17.9 2,-36.7 -9.1,-51.7 -11.2,-15 -28.4,-23.7 -47.1,-23.7 h -33.1 -91.1 -13.4 l -5.1,12.4 -32.9,79.5 -11.5,27.8 h 30.1 51.5 c -16.8,14.9 -37.1,23.2 -58.4,23.2 -6.1,0 -25.2,-3.5 -40.6,-19.6 -16,-16.7 -23.3,-42 -21.7,-74.9 1.4,-28.7 13.7,-60.2 33,-84.1 20.8,-25.8 47.5,-40 75.3,-40 18.2,0 34.3,12.4 44.6,22.7 12.3,12.4 19.7,25.2 20,25.8 l 9.5,17.2 17.4,-9.2 70.8,-37 17.8,-9.3 -9.3,-17.8 c -0.6,-1.2 -15,-28.5 -42.7,-55.9 -16.5,-16.3 -34.3,-29.3 -53,-38.6 -23.9,-12 -49.1,-18 -75,-18 -32.7,0 -64.3,7.8 -93.8,23.1 -26.4,13.7 -50.4,33.1 -71.4,57.6 -38.3,44.7 -62.6,102.6 -65,155.1 -1.7,35.5 2.8,68.3 13.4,97.3 9.4,25.8 23.6,48.8 42.2,68.3 19.5,20.4 44.1,37.1 71.2,48.1 22.4,9.1 45.6,14.1 65.3,14.1 29,0 56.6,-6.4 82,-18.9 22.1,-10.9 42.9,-26.9 61.4,-47.3 z M 1224.1,910 c -54.5,0 -179.6,-48.3 -172.1,-206.9 4.4,-92.5 86.2,-216.7 210.1,-216.7 99.9,0 153,101.8 153,101.8 l -70.8,37 c 0,0 -32.8,-58.8 -82.2,-58.8 -74.4,0 -125.2,78.8 -128.3,143.2 -4.5,95.9 60.7,115.5 82.4,115.5 42.8,0 79.3,-26.9 99.6,-63.4 h -92.7 l 32.9,-79.5 h 91.1 33.1 c 25.8,0 44.4,24.8 37,49.5 -23.3,78.2 -83.6,178.3 -193.1,178.3 z"
   id="path139" /><path
   d="m 2841,863.7 c 40,-44 60.2,-98 68.7,-126.2 5.4,-17.9 2,-36.7 -9.1,-51.7 -11.2,-15 -28.4,-23.7 -47.1,-23.7 h -33.1 -91.1 -13.4 l -5.1,12.4 -32.9,79.5 -11.5,27.8 h 30.1 51.5 c -16.8,14.9 -37.1,23.2 -58.4,23.2 -6.1,0 -25.2,-3.5 -40.6,-19.6 -16,-16.7 -23.3,-41.9 -21.7,-74.9 1.4,-28.7 13.7,-60.2 33,-84 20.8,-25.8 47.5,-40 75.3,-40 18.2,0 34.3,12.4 44.6,22.7 12.3,12.4 19.7,25.2 20,25.8 l 9.5,17.2 17.4,-9.2 70.8,-37 17.8,-9.3 -9.3,-17.8 c -0.6,-1.2 -15,-28.5 -42.7,-55.9 -16.5,-16.3 -34.3,-29.3 -53,-38.6 -23.9,-12 -49.1,-18 -75,-18 -32.7,0 -64.3,7.8 -93.8,23.1 -26.4,13.7 -50.4,33.1 -71.4,57.6 -38.3,44.7 -62.6,102.6 -65,155.1 -1.7,35.5 2.8,68.3 13.4,97.3 9.4,25.8 23.6,48.8 42.2,68.3 19.5,20.4 44.1,37.1 71.2,48.1 22.4,9.1 45.6,14.1 65.3,14.1 29,0 56.6,-6.4 82,-18.9 22,-11 42.8,-27 61.4,-47.4 z M 2697.2,910 c -54.5,0 -179.6,-48.3 -172.1,-206.9 4.4,-92.5 86.2,-216.7 210.1,-216.7 99.9,0 153,101.8 153,101.8 l -70.8,37 c 0,0 -32.8,-58.8 -82.2,-58.8 -74.4,0 -125.2,78.8 -128.3,143.2 -4.5,95.9 60.7,115.5 82.4,115.5 42.8,0 79.3,-26.9 99.6,-63.4 h -92.7 l 32.9,-79.5 h 91.1 33.1 c 25.8,0 44.4,24.8 37,49.5 C 2867,809.9 2806.8,910 2697.2,910 Z"
   id="path141" /><path
   d="m 3661.6,790.7 24.9,115.3 3.4,15.8 h 16.2 81.9 24.9 l -5.2,-24.3 -23.9,-110.8 v 0 l -1,-4.9 -0.1,-0.2 -2.3,-10.6 -1.7,-7.9 c -1.8,-8.5 -5.1,-16.3 -9.7,-23 18.9,-15.9 33,-36.2 41.4,-59.7 5.8,-16.4 8.8,-34.1 8.5,-51.1 v -0.4 c 0,-19 -4.2,-37.8 -12.5,-55.7 -7.6,-16.4 -18.1,-31.3 -31.5,-44.4 -12.6,-12.4 -27.4,-22.7 -42.8,-29.9 -16.1,-7.4 -32.8,-11.3 -48.4,-11.3 h -29.1 -41.1 c -15.8,0 -31,5.6 -43,15.8 -12,10.2 -20,24.4 -22.5,39.9 l -57.4,355.1 -3.8,23.3 h 23.6 80.5 17.1 l 2.7,-16.9 20,-123.7 h 19 c 5.8,0.2 10.7,4.1 11.9,9.6 z m -47.8,-29.5 -22.7,140.5 h -80.5 L 3568,546.6 c 3.7,-22.4 22.9,-38.9 45.7,-38.9 h 41.1 29.1 c 52.1,0 115,54 115,121.3 0,4.5 3.2,72.7 -62.6,109.5 0,0 17.8,5.3 22.8,28.9 2,9.4 3.3,15.1 4,18.5 v 0.2 c 1.1,4.9 1.1,4.9 1.1,4.9 l 23.9,110.8 h -81.9 l -24.9,-115.3 c -3.2,-14.7 -16.2,-25.3 -31.3,-25.3 z"
   id="path143" /><g
   id="g147">
			<path
   d="m 3674.9,587.1 h -33.1 l -15.1,94.5 h 35.1 c 31.5,0 53.1,-32 47.9,-60 -3.5,-18.7 -19.1,-34.5 -34.8,-34.5 z m 7.6,64.2 c -3.2,3.8 -10.1,10.3 -20.7,10.3 h -11.6 l 8.7,-54.4 h 16 c 4.7,0 13,7.6 15,18.1 v 0 0 c 1.6,8.6 -1.2,18.6 -7.4,26 z"
   id="path145" />
		</g><g
   id="g158"
   style="fill:#ffffff">
			
				<linearGradient
   id="SVGID_00000064326309501987600300000013686704326279603134_"
   gradientUnits="userSpaceOnUse"
   x1="3317.5229"
   y1="506.34641"
   x2="3317.5229"
   y2="901.70892">
				<stop
   offset="0.2309"
   style="stop-color:#FF2727"
   id="stop151" />
				<stop
   offset="0.8932"
   style="stop-color:#FFC600"
   id="stop153" />
			</linearGradient>
			<path
   style="fill:#ffffff"
   d="m 3373.9,506.3 c -22.2,0 -44.5,11.8 -55.1,37.1 l -148.2,358.3 h 86 l 30.7,-74.1 h 90.8 l 6.6,74.1 h 79.8 l -30.3,-340.6 c -3.2,-35.2 -31.6,-54.8 -60.3,-54.8 z m -53.6,241.8 41.8,-101 9,101 z"
   id="path156" />
		</g>
</svg>
