<?xml version="1.0" encoding="UTF-8" standalone="no"?>
<svg
   width="523.29926"
   height="328.51535"
   version="1.1"
   id="svg72"
   sodipodi:docname="controller.svg"
   inkscape:version="1.1.2 (0a00cf5339, 2022-02-04)"
   xmlns:inkscape="http://www.inkscape.org/namespaces/inkscape"
   xmlns:sodipodi="http://sodipodi.sourceforge.net/DTD/sodipodi-0.dtd"
   xmlns="http://www.w3.org/2000/svg"
   xmlns:svg="http://www.w3.org/2000/svg"
   xmlns:rdf="http://www.w3.org/1999/02/22-rdf-syntax-ns#"
   xmlns:cc="http://creativecommons.org/ns#"
   xmlns:dc="http://purl.org/dc/elements/1.1/">
  <defs
     id="defs76" />
  <sodipodi:namedview
     pagecolor="#ffffff"
     bordercolor="#666666"
     borderopacity="1"
     objecttolerance="10"
     gridtolerance="10"
     guidetolerance="10"
     inkscape:pageopacity="0"
     inkscape:pageshadow="2"
     inkscape:window-width="1920"
     inkscape:window-height="996"
     id="namedview74"
     showgrid="false"
     inkscape:zoom="1.3906434"
     inkscape:cx="286.55801"
     inkscape:cy="149.21151"
     inkscape:window-x="0"
     inkscape:window-y="0"
     inkscape:window-maximized="1"
     inkscape:current-layer="svg72"
     fit-margin-top="0"
     fit-margin-left="0"
     fit-margin-right="0"
     fit-margin-bottom="0"
     inkscape:pagecheckerboard="0" />
  <title
     id="title2">joystick purple</title>
  <metadata
     id="metadata7">image/svg+xml<rdf:RDF>
  <cc:Work
     rdf:about="">
    <dc:format>image/svg+xml</dc:format>
    <dc:type
       rdf:resource="http://purl.org/dc/dcmitype/StillImage" />
    <dc:title>joystick purple</dc:title>
  </cc:Work>
</rdf:RDF>
</metadata>
  <rect
     style="fill:#7f3f00;stroke:#ffffff;stroke-width:3"
     x="220.17245"
     y="107.15547"
     width="3"
     height="0"
     id="svg_2" />
  <g
     id="g1099"
     style="stroke:#000000;stroke-width:10.1;stroke-miterlimit:4;stroke-dasharray:none"
     transform="translate(3.5567243,3.5500002)">
    <path
       id="path1019"
       d="m 149.20363,50.984379 c 22.30687,14.34495 37.0957,39.36616 37.0957,67.857421 0,9.57887 -1.67932,18.76371 -4.74414,27.28711 0.46926,-0.0127 0.93587,-0.0352 1.40821,-0.0352 28.25801,0 51.16601,22.90802 51.16601,51.16602 0,7.53161 -1.6422,14.67617 -4.56445,21.11523 h 55.8418 c -2.9224,-6.43919 -4.5625,-13.58342 -4.5625,-21.11523 0,-28.258 22.90801,-51.16602 51.16601,-51.16602 0.95273,0 1.898,0.0306 2.83789,0.082 -3.07551,-8.53644 -4.75976,-17.73773 -4.75976,-27.33398 0,-28.491261 14.78909,-53.512471 37.0957,-67.857421 h -91.78516 c -0.57999,0.956 -1.65539,1.5957 -2.85937,1.5957 h -30.44531 c -1.19998,0 -2.21299,-0.6437 -2.79297,-1.5957 z m 341.80859,60.250001 c 0.23449,2.50517 0.36133,5.04095 0.36133,7.60742 0,44.53799 -36.10456,80.64258 -80.64258,80.64258 -9.70334,0 -19.0044,-1.71597 -27.62109,-4.85743 0.0442,0.87208 0.0664,1.74975 0.0664,2.63282 0,8.73389 -2.19442,16.95315 -6.05274,24.14648 9.58955,19.13675 24.01649,47.47519 37.5,72.06836 29.83999,54.423 108.61981,15.27996 99.29883,-31.74805 -5.37707,-27.12545 -12.41542,-90.0048 -22.91016,-150.49218 z m -465.798823,1.98047 c -10.544725,60.21464 -17.608107,119.75246 -23,148.00195 -8.988499,47.09299 69.711784,86.68081 99.550783,32.25781 13.19325,-24.0627 27.24175,-51.62239 36.83203,-70.74023 -4.3177,-7.50321 -6.79883,-16.19636 -6.79883,-25.47461 0,-0.72061 0.0252,-1.43509 0.0547,-2.14844 -8.21595,2.82143 -17.02209,4.37305 -26.19531,4.37305 -44.536999,0 -80.642581,-36.10459 -80.642581,-80.64258 0,-1.89252 0.07095,-3.76701 0.199218,-5.62695 z"
       style="fill:none;fill-opacity:1;fill-rule:evenodd;stroke:#000000;stroke-width:10.1;stroke-linecap:round;stroke-linejoin:round;stroke-miterlimit:4;stroke-dasharray:none;stroke-opacity:1"
       inkscape:connector-curvature="0" />
    <path
       id="path1021"
       d="m 408.3423,1.5 c -15.96253,0 -25.25985,4.048774 -29.21094,9.613281 6.63115,-3.044153 16.81552,-4.607421 29.21094,-4.607421 12.39598,0 22.58121,1.562997 29.21289,4.607421 C 433.60412,5.548773 424.30484,1.5 408.3423,1.5 Z"
       style="fill:none;fill-opacity:1;fill-rule:evenodd;stroke:#000000;stroke-width:10.1;stroke-miterlimit:4;stroke-dasharray:none;stroke-opacity:1"
       inkscape:connector-curvature="0" />
    <path
       id="path1023"
       d="m 105.51808,1.5 c -15.964039,0 -25.261669,4.049902 -29.212889,9.615235 6.63138,-3.045097 16.81681,-4.609375 29.212889,-4.609375 12.39522,0 22.5794,1.563043 29.21094,4.607421 C 130.77801,5.548773 121.48159,1.5 105.51808,1.5 Z"
       style="fill:none;fill-opacity:1;fill-rule:evenodd;stroke:#000000;stroke-width:10.1;stroke-miterlimit:4;stroke-dasharray:none;stroke-opacity:1"
       inkscape:connector-curvature="0" />
    <path
       id="path1025"
       d="m 105.51808,6.50586 c -20.993989,0 -35.731389,4.447952 -37.400389,13.068359 -1.27419,6.58516 -2.8244,16.744149 -4.96679,30.74219 12.34307,-7.6727 26.90308,-12.11524 42.505859,-12.11524 15.47195,0 29.92073,4.36391 42.19726,11.91797 C 145.73016,36.24004 144.1886,26.128279 142.92043,19.574219 141.25142,10.953812 126.51309,6.50586 105.51808,6.50586 Z"
       style="fill:none;fill-opacity:1;fill-rule:evenodd;stroke:#000000;stroke-width:10.1;stroke-miterlimit:4;stroke-dasharray:none;stroke-opacity:1"
       inkscape:connector-curvature="0" />
    <path
       id="path1027"
       d="m 105.65676,38.201169 c -44.536999,0 -80.642581,36.10363 -80.642581,80.640631 0,44.53799 36.105582,80.64258 80.642581,80.64258 9.17322,0 17.97933,-1.55166 26.19531,-4.37305 1.10804,-26.7928 22.81314,-48.25366 49.70312,-48.98242 3.06485,-8.52336 4.74414,-17.70824 4.74414,-27.28711 0,-44.537001 -36.10458,-80.640631 -80.64257,-80.640631 z"
       style="fill:none;fill-opacity:1;fill-rule:evenodd;stroke:#000000;stroke-width:10.1;stroke-linecap:round;stroke-linejoin:round;stroke-miterlimit:4;stroke-dasharray:none;stroke-opacity:1"
       inkscape:connector-curvature="0" />
    <path
       id="path1029"
       d="m 408.3423,6.50586 c -20.995,0 -35.73239,4.447952 -37.40039,13.068359 -1.32379,6.837484 -2.91826,17.35566 -5.21289,32.34375 12.85397,-8.66044 28.33706,-13.7168 45.00195,-13.7168 14.44867,0 27.99786,3.81787 39.72657,10.47266 C 448.46381,35.645205 446.9695,25.90058 445.74465,19.574219 444.07665,10.953812 429.3373,6.50586 408.3423,6.50586 Z"
       style="fill:none;fill-opacity:1;fill-rule:evenodd;stroke:#000000;stroke-width:10.1;stroke-miterlimit:4;stroke-dasharray:none;stroke-opacity:1"
       inkscape:connector-curvature="0" />
    <path
       d="m 234.12874,197.26047 c 0,28.25799 -22.90799,51.16601 -51.166,51.16601 -28.259,0 -51.166,-22.90802 -51.166,-51.16601 0,-28.258 22.907,-51.166 51.166,-51.166 28.25801,0 51.166,22.908 51.166,51.166 z"
       id="path1031"
       stroke-miterlimit="4"
       inkscape:connector-curvature="0"
       style="fill:none;fill-opacity:1;fill-rule:evenodd;stroke:#000000;stroke-width:10.1;stroke-linecap:round;stroke-linejoin:round;stroke-miterlimit:4;stroke-dasharray:none;stroke-opacity:1" />
    <path
       d="m 222.44875,197.26047 c 0,21.80801 -17.67801,39.487 -39.48601,39.487 -21.808,0 -39.487,-17.67899 -39.487,-39.487 0,-21.808 17.679,-39.487 39.487,-39.487 21.808,0 39.48601,17.679 39.48601,39.487 z"
       id="path1033"
       stroke-miterlimit="4"
       inkscape:connector-curvature="0"
       style="fill:none;fill-opacity:1;fill-rule:evenodd;stroke:#000000;stroke-width:10.1;stroke-linecap:round;stroke-linejoin:round;stroke-miterlimit:4;stroke-dasharray:none;stroke-opacity:1" />
    <path
       id="path1035"
       d="m 217.44374,197.26047 c 0,19.043 -15.43798,34.48099 -34.481,34.48099 -19.04401,0 -34.48199,-15.43799 -34.48199,-34.48099 0,-19.04401 15.43798,-34.482 34.48199,-34.482 19.04302,0 34.481,15.43799 34.481,34.482 z"
       stroke-miterlimit="4"
       inkscape:connector-curvature="0"
       style="fill:none;fill-opacity:1;fill-rule:evenodd;stroke:#000000;stroke-width:10.1;stroke-linecap:round;stroke-linejoin:round;stroke-miterlimit:4;stroke-dasharray:none;stroke-opacity:1" />
    <path
       id="path1037"
       d="m 410.73097,38.201169 c -44.53699,0 -80.64257,36.10363 -80.64257,80.640631 0,9.59627 1.68622,18.79757 4.76172,27.33398 0.0366,0.002 0.0727,0.006 0.10937,0.008 0.085,0.005 0.16898,0.0143 0.25391,0.0195 0.11321,0.007 0.22485,0.0197 0.33789,0.0273 0.50515,0.0342 1.00845,0.0769 1.50976,0.125 0.12332,0.0117 0.24816,0.0183 0.3711,0.0312 0.75202,0.0776 1.49898,0.16994 2.24023,0.28125 0.5959,0.0895 1.18445,0.20069 1.77344,0.31055 0.21429,0.04 0.43118,0.0726 0.64453,0.11523 0.52055,0.10402 1.03422,0.22382 1.54883,0.34375 0.008,0.002 0.0156,0.004 0.0234,0.006 0.01,0.002 0.0196,0.004 0.0293,0.006 0.15366,0.0355 0.30698,0.0726 0.46094,0.10742 0.10229,0.0234 0.2052,0.045 0.30664,0.0703 0.006,0.002 0.0131,0.002 0.0195,0.004 0.007,0.002 0.013,0.004 0.0195,0.006 0.46218,0.11592 0.91791,0.2466 1.375,0.375 0.0143,0.004 0.0287,0.008 0.043,0.0117 0.0149,0.004 0.0301,0.008 0.0449,0.0117 0.0111,0.003 0.0221,0.007 0.0332,0.01 0.0222,0.006 0.0442,0.0133 0.0664,0.0195 0.0866,0.0248 0.17335,0.0491 0.25977,0.0742 0.17013,0.0477 0.34096,0.0935 0.50976,0.14453 0.47573,0.14378 0.94625,0.29989 1.41602,0.45704 0.29426,0.0984 0.58901,0.19523 0.88086,0.29882 0.45155,0.16031 0.89817,0.3294 1.34375,0.50196 0.003,0.001 0.006,0.003 0.01,0.004 0.003,0.001 0.007,0.003 0.01,0.004 0.30055,0.11648 0.60066,0.2335 0.89844,0.35547 0.002,0.001 0.005,9.4e-4 0.008,0.002 0.002,7.8e-4 0.004,0.001 0.006,0.002 0.18499,0.0758 0.36689,0.15841 0.55078,0.23633 0.2436,0.10459 0.48823,0.20728 0.73047,0.31446 0.30396,0.13444 0.60738,0.26999 0.9082,0.41015 0.002,8.7e-4 0.004,0.001 0.006,0.002 0.002,8.8e-4 0.004,0.001 0.006,0.002 0.40431,0.18853 0.80467,0.38334 1.20313,0.58203 0.01,0.005 0.0197,0.009 0.0293,0.0137 0.009,0.005 0.0182,0.009 0.0273,0.0137 0.26017,0.13014 0.51787,0.26398 0.77539,0.39844 0.0369,0.0193 0.0745,0.0373 0.11133,0.0566 10e-4,6.8e-4 0.003,10e-4 0.004,0.002 10e-4,6.8e-4 0.003,0.001 0.004,0.002 0.37474,0.19674 0.74604,0.39783 1.11523,0.60351 0.0135,0.008 0.0276,0.014 0.041,0.0215 0.003,0.001 0.005,0.002 0.008,0.004 0.003,0.002 0.005,0.004 0.008,0.006 0.31225,0.17448 0.62153,0.35242 0.92969,0.53321 0.003,0.002 0.006,0.004 0.01,0.006 0.003,0.002 0.006,0.004 0.01,0.006 0.14365,0.0844 0.28499,0.1721 0.42774,0.25782 0.21913,0.13091 0.43948,0.25997 0.65625,0.39453 0.007,0.004 0.0146,0.007 0.0215,0.0117 0.006,0.004 0.0131,0.008 0.0195,0.0117 0.11042,0.0688 0.21869,0.14072 0.32813,0.21093 0.16863,0.10871 0.33763,0.21691 0.50586,0.32618 4.6e-4,2.9e-4 0.001,-3e-4 0.002,0 0,0 0.002,0.002 0.002,0.002 0.39017,0.25348 0.77939,0.50774 1.16211,0.77148 0.27088,0.18664 0.53566,0.38058 0.80274,0.57227 0.35783,0.25689 0.71741,0.51164 1.06836,0.77734 0.003,0.003 0.006,0.005 0.01,0.008 0.003,0.003 0.006,0.005 0.01,0.008 0.16466,0.12518 0.32504,0.25588 0.48828,0.38281 0.1456,0.11555 0.29206,0.23008 0.4375,0.3457 0.30238,0.24043 0.60753,0.47754 0.9043,0.72461 0.32047,0.26679 0.63151,0.54396 0.94531,0.81836 0.2898,0.25347 0.5832,0.50187 0.86719,0.76172 0.21068,0.19275 0.41365,0.39364 0.62109,0.58984 0.0345,0.0332 0.0688,0.0666 0.10351,0.0996 0.036,0.0343 0.0715,0.0691 0.10743,0.10352 0.29819,0.28255 0.59875,0.56247 0.88867,0.85352 0.54009,0.54204 1.06849,1.09445 1.58398,1.66015 0.24641,0.27045 0.48007,0.55242 0.72071,0.82813 0.28075,0.32162 0.56513,0.64011 0.83789,0.96875 0.24289,0.2927 0.47465,0.59429 0.71093,0.89257 0.003,0.003 0.005,0.007 0.008,0.01 0.003,0.003 0.005,0.006 0.008,0.01 0.0458,0.0577 0.0907,0.11622 0.13672,0.17382 0.20084,0.25193 0.40336,0.50258 0.59765,0.75977 0.003,0.004 0.007,0.008 0.01,0.0117 0.003,0.004 0.005,0.008 0.008,0.0117 0.0135,0.0179 0.0256,0.0368 0.0391,0.0547 0.23197,0.31022 0.45565,0.62643 0.68165,0.94141 0.22024,0.30694 0.44267,0.61186 0.65624,0.92383 0.22978,0.33566 0.44997,0.67818 0.67188,1.01953 0.20803,0.31995 0.41812,0.63805 0.61914,0.96289 0.004,0.006 0.008,0.0116 0.0117,0.0176 0.004,0.006 0.006,0.0119 0.01,0.0176 0.0314,0.0509 0.0605,0.10331 0.0918,0.15429 0.17644,0.2906 0.34947,0.58325 0.52149,0.87696 0.19706,0.33642 0.39444,0.6724 0.58398,1.01367 0.005,0.009 0.0105,0.0181 0.0156,0.0273 0.005,0.009 0.0105,0.0181 0.0156,0.0273 0.13263,0.23995 0.2589,0.48368 0.38672,0.72656 0.041,0.0779 0.084,0.15453 0.125,0.23242 0.19832,0.37684 0.39487,0.7544 0.58398,1.13672 0.003,0.007 0.007,0.013 0.01,0.0195 0.003,0.006 0.007,0.0116 0.01,0.0176 0.12202,0.24741 0.2383,0.49795 0.35546,0.74805 0.0444,0.0947 0.0906,0.18835 0.13477,0.2832 0.16776,0.35994 0.33262,0.7215 0.49219,1.08594 0.16181,0.36962 0.31938,0.74111 0.47265,1.11523 0.15337,0.3743 0.30258,0.75022 0.44727,1.12891 0.005,0.0137 0.0104,0.0273 0.0156,0.041 0.005,0.0143 0.0102,0.0287 0.0156,0.043 0.12872,0.33847 0.25533,0.67761 0.37695,1.01953 0.15297,0.43 0.29775,0.86361 0.43946,1.29883 8.2e-4,0.003 10e-4,0.005 0.002,0.008 0,0 0,0.002 0,0.002 4.8e-4,0.002 10e-4,0.004 0.002,0.006 0.10275,0.31579 0.20604,0.63073 0.30274,0.94921 0.14214,0.4681 0.27336,0.94039 0.40234,1.41407 0.001,0.005 0.003,0.009 0.004,0.0137 0.001,0.005 0.003,0.009 0.004,0.0137 1.6e-4,6.1e-4 -1.6e-4,0.001 0,0.002 0.0853,0.31332 0.1726,0.62569 0.25195,0.94141 5.2e-4,0.002 0.001,0.004 0.002,0.006 5e-4,0.002 0.001,0.004 0.002,0.006 0.0421,0.16867 0.0766,0.3405 0.11719,0.50976 0.0696,0.29924 0.14065,0.59789 0.20703,0.89844 0.0724,0.32796 0.15066,0.65411 0.2168,0.98438 0,0 0,0.002 0,0.002 0,0 0,0.002 0,0.002 0.10253,0.51255 0.19025,1.03088 0.27734,1.54883 0.004,0.0261 0.009,0.052 0.0137,0.0781 0.004,0.0229 0.008,0.0455 0.0117,0.0684 0.0226,0.1368 0.0469,0.27298 0.0684,0.41015 0.0183,0.1067 0.0385,0.21283 0.0547,0.32031 0.0772,0.51345 0.13745,1.03246 0.19922,1.55079 0.004,0.032 0.008,0.0637 0.0117,0.0957 0.004,0.0313 0.008,0.0624 0.0117,0.0937 0.025,0.2165 0.0559,0.43112 0.0781,0.64844 0.006,0.0502 0.0126,0.1 0.0176,0.15039 0.0821,0.82557 0.14704,1.65552 0.18945,2.49218 8.61665,3.14141 17.91775,4.85743 27.62109,4.85743 44.53802,0 80.64258,-36.10459 80.64258,-80.64258 0,-44.537001 -36.10456,-80.640631 -80.64258,-80.640631 z"
       style="fill:none;fill-opacity:1;fill-rule:evenodd;stroke:#000000;stroke-width:10.1;stroke-linecap:round;stroke-linejoin:round;stroke-miterlimit:4;stroke-dasharray:none;stroke-opacity:1"
       inkscape:connector-curvature="0" />
    <path
       id="path1039"
       d="m 394.17775,59.245469 c -3.267,0 -5.91601,2.65 -5.91601,5.91701 v 31.17799 h -31.24399 c -3.26801,0 -5.85102,2.649 -5.85001,5.916001 v 33.172 c 0,3.268 2.582,5.917 5.85001,5.917 h 31.24399 v 31.178 c 0,3.267 2.64901,5.916 5.91601,5.916 h 33.17298 c 3.26702,0 5.85,-2.649 5.85,-5.916 v -31.178 h 31.24399 c 3.26703,0 5.85004,-2.649 5.85004,-5.917 v -33.172 c 0,-3.267001 -2.58301,-5.916001 -5.85004,-5.916001 h -31.24399 v -31.17799 c 0,-3.26701 -2.58298,-5.91701 -5.85,-5.91701 z"
       stroke-miterlimit="4"
       inkscape:connector-curvature="0"
       style="fill:none;fill-opacity:1;fill-rule:evenodd;stroke:#000000;stroke-width:10.1;stroke-linecap:round;stroke-linejoin:round;stroke-miterlimit:4;stroke-dasharray:none;stroke-opacity:1" />
    <rect
       id="rect1041"
       width="24.748762"
       height="14.181875"
       x="198.5345"
       y="119.965"
       rx="1.568628"
       ry="1.568628"
       stroke-miterlimit="4"
       style="fill:none;fill-opacity:1;fill-rule:evenodd;stroke:#000000;stroke-width:10.1;stroke-linecap:round;stroke-linejoin:round;stroke-miterlimit:4;stroke-dasharray:none;stroke-opacity:1" />
    <path
       d="m 312.82375,127.05547 -18.07501,7.091 c -1.72101,0.67599 -3.33701,-1.48801 -3.33701,-3.33701 v -7.50799 c 0,-1.84799 1.616,-4.01199 3.33701,-3.336 z"
       id="path1043"
       stroke-miterlimit="4"
       inkscape:connector-curvature="0"
       style="fill:none;fill-opacity:1;fill-rule:evenodd;stroke:#000000;stroke-width:10.1;stroke-linecap:round;stroke-linejoin:round;stroke-miterlimit:4;stroke-dasharray:none;stroke-opacity:1" />
    <path
       id="path1045"
       d="m 277.14675,164.72546 c 0,9.32201 -7.55701,16.879 -16.879,16.879 -9.323,0 -16.88001,-7.55699 -16.88001,-16.879 0,-9.32199 7.55701,-16.87999 16.88001,-16.87999 9.32199,0 16.879,7.558 16.879,16.87999 z"
       stroke-miterlimit="4"
       inkscape:connector-curvature="0"
       style="fill:none;fill-opacity:1;fill-rule:evenodd;stroke:#000000;stroke-width:10.1;stroke-linecap:round;stroke-linejoin:round;stroke-miterlimit:4;stroke-dasharray:none;stroke-opacity:1" />
    <path
       id="path1047"
       d="m 428.24974,81.302479 c 0,9.67498 -7.84301,17.51899 -17.51901,17.51899 -9.67499,0 -17.518,-7.84401 -17.518,-17.51899 0,-9.67501 7.84301,-17.51901 17.518,-17.51901 9.676,0 17.51901,7.844 17.51901,17.51901 z"
       stroke-miterlimit="4"
       inkscape:connector-curvature="0"
       style="fill:none;fill-opacity:1;fill-rule:evenodd;stroke:#000000;stroke-width:10.1;stroke-linecap:round;stroke-linejoin:round;stroke-miterlimit:4;stroke-dasharray:none;stroke-opacity:1" />
    <path
       d="m 428.24974,156.66147 c 0,9.675 -7.84301,17.518 -17.51901,17.518 -9.67499,0 -17.518,-7.843 -17.518,-17.518 0,-9.676 7.84301,-17.519 17.518,-17.519 9.676,0 17.51901,7.84301 17.51901,17.519 z"
       id="path1049"
       stroke-miterlimit="4"
       inkscape:connector-curvature="0"
       style="fill:none;fill-opacity:1;fill-rule:evenodd;stroke:#000000;stroke-width:10.1;stroke-linecap:round;stroke-linejoin:round;stroke-miterlimit:4;stroke-dasharray:none;stroke-opacity:1" />
    <path
       d="m 430.89174,118.98148 c 0,-9.67501 7.84299,-17.51902 17.51901,-17.51902 9.67496,0 17.51798,7.84401 17.51798,17.51902 0,9.67599 -7.84302,17.51899 -17.51798,17.51899 -9.67602,0 -17.51901,-7.843 -17.51901,-17.51899 z"
       id="path1051"
       stroke-miterlimit="4"
       inkscape:connector-curvature="0"
       style="fill:none;fill-opacity:1;fill-rule:evenodd;stroke:#000000;stroke-width:10.1;stroke-linecap:round;stroke-linejoin:round;stroke-miterlimit:4;stroke-dasharray:none;stroke-opacity:1" />
    <path
       id="path1053"
       d="m 355.53273,118.98148 c 0,-9.67501 7.844,-17.51902 17.51901,-17.51902 9.67499,0 17.51899,7.84401 17.51899,17.51902 0,9.67599 -7.844,17.51899 -17.51899,17.51899 -9.67501,0 -17.51901,-7.843 -17.51901,-17.51899 z"
       stroke-miterlimit="4"
       inkscape:connector-curvature="0"
       style="fill:none;fill-opacity:1;fill-rule:evenodd;stroke:#000000;stroke-width:10.1;stroke-linecap:round;stroke-linejoin:round;stroke-miterlimit:4;stroke-dasharray:none;stroke-opacity:1" />
    <path
       d="m 88.723741,58.219469 c -3.267,0 -5.91701,2.65 -5.91701,5.917 v 31.178 h -31.24399 c -3.267,0 -5.849999,2.649 -5.849999,5.916001 v 33.173 c 0,3.267 2.582999,5.916 5.849999,5.916 h 31.24399 v 31.178 c 0,3.26699 2.65001,5.917 5.91701,5.917 h 33.171999 c 3.267,0 5.85,-2.65001 5.85,-5.917 v -31.178 h 31.245 c 3.267,0 5.85001,-2.649 5.85001,-5.916 v -33.173 c 0,-3.267001 -2.58301,-5.916001 -5.85001,-5.916001 h -31.245 v -31.178 c 0,-3.267 -2.583,-5.917 -5.85,-5.917 z"
       id="path1055"
       stroke-miterlimit="4"
       inkscape:connector-curvature="0"
       style="fill:none;fill-opacity:1;fill-rule:evenodd;stroke:#000000;stroke-width:10.1;stroke-linecap:round;stroke-linejoin:round;stroke-miterlimit:4;stroke-dasharray:none;stroke-opacity:1" />
    <path
       id="path1057"
       d="m 332.01027,146.09375 c -28.258,0 -51.16601,22.90802 -51.16601,51.16602 0,28.25799 22.90801,51.16601 51.16601,51.16601 28.25803,0 51.16602,-22.90802 51.16602,-51.16601 0,-0.88307 -0.0222,-1.76074 -0.0664,-2.63282 -0.0424,-0.83666 -0.10732,-1.66661 -0.18945,-2.49218 -0.0267,-0.26797 -0.0632,-0.53268 -0.0957,-0.79883 -0.004,-0.0314 -0.008,-0.0624 -0.0117,-0.0937 -0.0646,-0.55056 -0.12904,-1.10141 -0.21094,-1.64649 -0.0368,-0.24503 -0.0817,-0.48702 -0.12305,-0.73046 -0.004,-0.0229 -0.008,-0.0455 -0.0117,-0.0684 -0.0908,-0.54494 -0.18317,-1.08995 -0.29101,-1.62891 -1.3e-4,-6.3e-4 1.2e-4,-0.001 0,-0.002 -0.0661,-0.33027 -0.14437,-0.65642 -0.2168,-0.98438 -0.0664,-0.30055 -0.1374,-0.5992 -0.20703,-0.89844 -0.0411,-0.17125 -0.0763,-0.34504 -0.11914,-0.51562 -5e-4,-0.002 -0.001,-0.004 -0.002,-0.006 -0.0794,-0.31572 -0.16666,-0.62809 -0.25195,-0.94141 -10e-4,-0.005 -0.002,-0.0104 -0.004,-0.0156 -0.13009,-0.4783 -0.26274,-0.95512 -0.40625,-1.42774 -0.0967,-0.31848 -0.19999,-0.63342 -0.30274,-0.94921 -8.3e-4,-0.003 -10e-4,-0.005 -0.002,-0.008 -0.14246,-0.43779 -0.28755,-0.87412 -0.44141,-1.30664 -0.12162,-0.34192 -0.24823,-0.68106 -0.37695,-1.01953 -0.005,-0.0143 -0.0102,-0.0287 -0.0156,-0.043 -0.14957,-0.3925 -0.30399,-0.78212 -0.46289,-1.16992 -0.15327,-0.37412 -0.31084,-0.74561 -0.47265,-1.11523 -0.15957,-0.36444 -0.32443,-0.726 -0.49219,-1.08594 -0.16091,-0.3453 -0.32199,-0.69015 -0.49023,-1.03125 -0.003,-0.006 -0.007,-0.0116 -0.01,-0.0176 -0.19218,-0.38893 -0.39205,-0.77299 -0.59375,-1.15625 -0.16882,-0.32084 -0.33656,-0.64209 -0.51172,-0.95898 -0.005,-0.009 -0.0105,-0.0181 -0.0156,-0.0273 -0.19443,-0.35057 -0.39726,-0.69555 -0.59961,-1.04101 -0.20229,-0.34539 -0.4034,-0.69099 -0.61329,-1.03125 -0.004,-0.006 -0.006,-0.0119 -0.01,-0.0176 -0.20459,-0.33091 -0.419,-0.65463 -0.63086,-0.98047 -0.22191,-0.34135 -0.44211,-0.68387 -0.67188,-1.01953 -0.21357,-0.31197 -0.43599,-0.61689 -0.65624,-0.92383 -0.23906,-0.33319 -0.47412,-0.66882 -0.72071,-0.99609 -0.003,-0.004 -0.005,-0.008 -0.008,-0.0117 -0.24422,-0.32348 -0.5003,-0.63765 -0.75195,-0.95508 -0.003,-0.003 -0.005,-0.006 -0.008,-0.01 -0.23628,-0.29828 -0.46804,-0.59987 -0.71093,-0.89257 -0.27276,-0.32864 -0.55714,-0.64713 -0.83789,-0.96875 -0.24064,-0.27571 -0.4743,-0.55768 -0.72071,-0.82813 -0.51549,-0.5657 -1.04389,-1.1181 -1.58398,-1.66015 -0.28992,-0.29105 -0.59048,-0.57097 -0.88867,-0.85352 -0.0359,-0.0344 -0.0714,-0.0692 -0.10743,-0.10352 -0.24157,-0.22978 -0.47859,-0.46437 -0.7246,-0.68945 -0.28399,-0.25985 -0.57739,-0.50825 -0.86719,-0.76172 -0.3138,-0.2744 -0.62483,-0.55157 -0.94531,-0.81836 -0.29677,-0.24707 -0.60192,-0.48418 -0.9043,-0.72461 -0.14544,-0.11562 -0.2919,-0.23015 -0.4375,-0.3457 -0.16653,-0.12949 -0.32988,-0.26316 -0.49805,-0.39062 -0.003,-0.003 -0.006,-0.005 -0.01,-0.008 -0.35095,-0.2657 -0.71053,-0.52045 -1.06836,-0.77734 -0.26708,-0.19169 -0.53186,-0.38563 -0.80274,-0.57227 -0.38272,-0.26374 -0.77194,-0.518 -1.16211,-0.77148 -7.5e-4,-4.9e-4 -0.001,-0.001 -0.002,-0.002 -0.28406,-0.18451 -0.56756,-0.36985 -0.85547,-0.54883 -0.007,-0.004 -0.0146,-0.007 -0.0215,-0.0117 -0.35815,-0.22232 -0.72005,-0.43865 -1.08399,-0.65235 -0.003,-0.002 -0.006,-0.004 -0.01,-0.006 -0.31417,-0.18441 -0.62886,-0.36708 -0.94727,-0.54493 -0.003,-0.001 -0.005,-0.002 -0.008,-0.004 -0.38243,-0.21354 -0.76785,-0.42105 -1.15625,-0.625 -10e-4,-6.8e-4 -0.003,-0.001 -0.004,-0.002 -0.30445,-0.1598 -0.60994,-0.31689 -0.91797,-0.4707 -0.01,-0.005 -0.0197,-0.009 -0.0293,-0.0137 -0.39846,-0.19869 -0.79882,-0.3935 -1.20313,-0.58203 -0.002,-8.7e-4 -0.004,-0.001 -0.006,-0.002 -0.30265,-0.14105 -0.60822,-0.27683 -0.91406,-0.4121 -0.4248,-0.18794 -0.8505,-0.37414 -1.28125,-0.55079 -0.002,-7.7e-4 -0.004,-0.001 -0.006,-0.002 -0.30344,-0.12434 -0.60969,-0.24268 -0.91602,-0.36133 -0.003,-0.001 -0.006,-0.003 -0.01,-0.004 -0.44558,-0.17256 -0.8922,-0.34165 -1.34375,-0.50196 -0.29185,-0.10359 -0.5866,-0.20041 -0.88086,-0.29882 -0.46977,-0.15715 -0.94029,-0.31326 -1.41602,-0.45704 -0.1688,-0.051 -0.33963,-0.0968 -0.50976,-0.14453 -0.11963,-0.0348 -0.23939,-0.0696 -0.35938,-0.10351 -0.0149,-0.004 -0.03,-0.008 -0.0449,-0.0117 -0.47098,-0.1333 -0.94145,-0.26694 -1.41797,-0.38672 -0.007,-0.002 -0.013,-0.004 -0.0195,-0.006 -0.27008,-0.0676 -0.54464,-0.12418 -0.8164,-0.1875 -0.008,-0.002 -0.0156,-0.004 -0.0234,-0.006 -0.51461,-0.11993 -1.02828,-0.23973 -1.54883,-0.34375 -0.21335,-0.0426 -0.43024,-0.0753 -0.64453,-0.11523 -0.58899,-0.10986 -1.17754,-0.22106 -1.77344,-0.31055 -1.46592,-0.22014 -2.95496,-0.37203 -4.45898,-0.46484 -0.0849,-0.005 -0.16887,-0.0147 -0.25391,-0.0195 -0.0366,-0.002 -0.0727,-0.006 -0.10937,-0.008 -0.94053,-0.0515 -1.88647,-0.082 -2.83985,-0.082 z"
       style="fill:none;fill-opacity:1;fill-rule:evenodd;stroke:#000000;stroke-width:10.1;stroke-linecap:round;stroke-linejoin:round;stroke-miterlimit:4;stroke-dasharray:none;stroke-opacity:1"
       inkscape:connector-curvature="0" />
    <path
       id="path1059"
       d="m 371.49773,197.26047 c 0,21.80801 -17.67899,39.487 -39.487,39.487 -21.80798,0 -39.48599,-17.67899 -39.48599,-39.487 0,-21.808 17.67801,-39.487 39.48599,-39.487 21.80801,0 39.487,17.679 39.487,39.487 z"
       stroke-miterlimit="4"
       inkscape:connector-curvature="0"
       style="fill:none;fill-opacity:1;fill-rule:evenodd;stroke:#000000;stroke-width:10.1;stroke-linecap:round;stroke-linejoin:round;stroke-miterlimit:4;stroke-dasharray:none;stroke-opacity:1" />
    <path
       d="m 366.49275,197.26047 c 0,19.043 -15.43802,34.48099 -34.48202,34.48099 -19.043,0 -34.48099,-15.43799 -34.48099,-34.48099 0,-19.04401 15.43799,-34.482 34.48099,-34.482 19.044,0 34.48202,15.43799 34.48202,34.482 z"
       id="path1061"
       stroke-miterlimit="4"
       inkscape:connector-curvature="0"
       style="fill:none;fill-opacity:1;fill-rule:evenodd;stroke:#000000;stroke-width:10.1;stroke-linecap:round;stroke-linejoin:round;stroke-miterlimit:4;stroke-dasharray:none;stroke-opacity:1" />
    <g
       id="g1071"
       style="fill:none;fill-opacity:1;stroke:#000000;stroke-width:10.1;stroke-miterlimit:4;stroke-dasharray:none;stroke-opacity:1"
       transform="translate(-53.384259,-62.394531)">
      <path
         id="path1063"
         d="m 158.661,126.892 -8.049,7.644 h 16.097 z"
         stroke-miterlimit="4"
         inkscape:connector-curvature="0"
         style="fill:none;fill-opacity:1;fill-rule:evenodd;stroke:#000000;stroke-width:10.1;stroke-linecap:round;stroke-linejoin:round;stroke-miterlimit:4;stroke-dasharray:none;stroke-opacity:1" />
      <path
         d="m 158.661,233.53101 -8.049,-7.64402 h 16.097 z"
         id="path1065"
         stroke-miterlimit="4"
         inkscape:connector-curvature="0"
         style="fill:none;fill-opacity:1;fill-rule:evenodd;stroke:#000000;stroke-width:10.1;stroke-linecap:round;stroke-linejoin:round;stroke-miterlimit:4;stroke-dasharray:none;stroke-opacity:1" />
      <path
         d="m 211.981,180.211 -7.645,-8.04801 v 16.097 z"
         id="path1067"
         stroke-miterlimit="4"
         inkscape:connector-curvature="0"
         style="fill:none;fill-opacity:1;fill-rule:evenodd;stroke:#000000;stroke-width:10.1;stroke-linecap:round;stroke-linejoin:round;stroke-miterlimit:4;stroke-dasharray:none;stroke-opacity:1" />
      <path
         id="path1069"
         d="m 105.341,180.211 7.645,-8.04801 v 16.097 z"
         stroke-miterlimit="4"
         inkscape:connector-curvature="0"
         style="fill:none;fill-opacity:1;fill-rule:evenodd;stroke:#000000;stroke-width:10.1;stroke-linecap:round;stroke-linejoin:round;stroke-miterlimit:4;stroke-dasharray:none;stroke-opacity:1" />
    </g>
    <rect
       id="rect1073"
       width="20.056198"
       height="20.056198"
       x="363.02371"
       y="108.95361"
       stroke-miterlimit="4"
       style="fill:none;fill-opacity:1;fill-rule:evenodd;stroke:#000000;stroke-width:10.1;stroke-miterlimit:4;stroke-dasharray:none;stroke-opacity:1" />
    <path
       id="path1075"
       d="m 421.89675,88.399479 h -22.331 l 11.16498,-19.30701 z"
       stroke-miterlimit="4"
       inkscape:connector-curvature="0"
       style="fill:none;fill-opacity:1;fill-rule:evenodd;stroke:#000000;stroke-width:10.1;stroke-miterlimit:4;stroke-dasharray:none;stroke-opacity:1" />
    <path
       id="path1077"
       d="m 436.39775,118.98148 c 0,-6.63401 5.37799,-12.013 12.013,-12.013 6.63397,0 12.01297,5.37899 12.01297,12.013 0,6.63499 -5.379,12.013 -12.01297,12.013 -6.63501,0 -12.013,-5.37801 -12.013,-12.013 z"
       stroke-miterlimit="4"
       inkscape:connector-curvature="0"
       style="fill:none;fill-opacity:1;fill-rule:evenodd;stroke:#000000;stroke-width:10.1;stroke-linecap:round;stroke-linejoin:round;stroke-miterlimit:4;stroke-dasharray:none;stroke-opacity:1" />
    <path
       id="path1079"
       d="m 401.84273,147.94847 18.09,18.09 m 0,-18.09 -18.09,18.09"
       stroke-miterlimit="4"
       inkscape:connector-curvature="0"
       style="fill:none;fill-opacity:1;fill-rule:evenodd;stroke:#000000;stroke-width:10.1;stroke-miterlimit:4;stroke-dasharray:none;stroke-opacity:1" />
    <g
       id="g1089"
       style="fill:none;fill-opacity:1;stroke:#000000;stroke-width:10.1;stroke-miterlimit:4;stroke-dasharray:none;stroke-opacity:1"
       transform="translate(-53.384259,-62.394531)">
      <path
         d="m 178.487,168.27499 c -0.71401,0.061 -1.367,0.42401 -1.795,0.99701 l -7.446,9.44 c -0.69301,0.902 -0.69301,2.157 0,3.058 l 7.446,9.506 c 0.472,0.62599 1.20999,0.995 1.994,0.998 l 17.284,0.066 c 0.672,0.005 1.317,-0.26 1.79199,-0.734 0.47501,-0.475 0.73902,-1.121 0.73401,-1.79201 V 171.134 c 0.011,-1.37401 -1.086,-2.5 -2.459,-2.526 l -17.285,-0.33301 c -0.088,-0.004 -0.177,-0.004 -0.265,0 z"
         id="path1081"
         stroke-miterlimit="4"
         inkscape:connector-curvature="0"
         style="fill:none;fill-opacity:1;fill-rule:evenodd;stroke:#000000;stroke-width:10.1;stroke-linecap:round;stroke-linejoin:round;stroke-miterlimit:4;stroke-dasharray:none;stroke-opacity:1" />
      <path
         id="path1083"
         d="m 138.83501,168.086 c 0.71299,0.061 1.36599,0.42399 1.79499,0.99699 l 7.445,9.44 c 0.694,0.90201 0.694,2.157 0,3.058 l -7.445,9.50602 c -0.472,0.62599 -1.21,0.99499 -1.994,0.998 l -17.285,0.066 c -0.671,0.005 -1.316,-0.25999 -1.791,-0.73399 -0.475,-0.47501 -0.74,-1.12101 -0.735,-1.79201 v -18.67999 c -0.01,-1.37401 1.087,-2.5 2.46,-2.526 l 17.284,-0.33301 c 0.089,-0.004 0.178,-0.004 0.26601,0 z"
         stroke-miterlimit="4"
         inkscape:connector-curvature="0"
         style="fill:none;fill-opacity:1;fill-rule:evenodd;stroke:#000000;stroke-width:10.1;stroke-linecap:round;stroke-linejoin:round;stroke-miterlimit:4;stroke-dasharray:none;stroke-opacity:1" />
      <path
         id="path1085"
         d="m 170.597,200.037 c -0.061,-0.71299 -0.424,-1.36599 -0.99699,-1.795 L 160.16,190.797 c -0.902,-0.693 -2.15699,-0.693 -3.05799,0 l -9.50602,7.445 c -0.62599,0.473 -0.99499,1.211 -0.99699,1.995 l -0.067,17.284 c -0.005,0.671 0.26001,1.317 0.735,1.792 0.47501,0.474 1.11999,0.739 1.791,0.734 h 18.681 c 1.373,0.01 2.49901,-1.086 2.526,-2.45999 l 0.332,-17.28402 c 0.005,-0.088 0.005,-0.17698 0,-0.26599 z"
         stroke-miterlimit="4"
         inkscape:connector-curvature="0"
         style="fill:none;fill-opacity:1;fill-rule:evenodd;stroke:#000000;stroke-width:10.1;stroke-linecap:round;stroke-linejoin:round;stroke-miterlimit:4;stroke-dasharray:none;stroke-opacity:1" />
      <path
         d="m 170.786,160.386 c -0.061,0.713 -0.424,1.366 -0.997,1.795 l -9.44,7.44501 c -0.901,0.69299 -2.157,0.69299 -3.058,0 l -9.506,-7.44501 c -0.626,-0.47301 -0.99501,-1.211 -0.99701,-1.995 l -0.067,-17.28401 c -0.005,-0.67099 0.26001,-1.31698 0.735,-1.79199 0.47501,-0.474 1.12001,-0.739 1.791,-0.73399 h 18.681 c 1.37301,-0.01 2.49901,1.086 2.52601,2.45999 l 0.332,17.284 c 0.005,0.088 0.005,0.177 0,0.266 z"
         id="path1087"
         stroke-miterlimit="4"
         inkscape:connector-curvature="0"
         style="fill:none;fill-opacity:1;fill-rule:evenodd;stroke:#000000;stroke-width:10.1;stroke-linecap:round;stroke-linejoin:round;stroke-miterlimit:4;stroke-dasharray:none;stroke-opacity:1" />
    </g>
    <rect
       id="rect1091"
       width="4.431643"
       height="5.7447219"
       x="177.21196"
       y="51.996849"
       ry="1.568628"
       stroke-miterlimit="4"
       style="fill:none;fill-opacity:1;stroke:#000000;stroke-width:10.1;stroke-miterlimit:4;stroke-dasharray:none;stroke-opacity:1" />
    <rect
       ry="1.568628"
       y="51.996849"
       x="191.16341"
       height="5.7447219"
       width="4.431643"
       id="rect1093"
       stroke-miterlimit="4"
       style="fill:none;fill-opacity:1;stroke:#000000;stroke-width:10.1;stroke-miterlimit:4;stroke-dasharray:none;stroke-opacity:1" />
    <rect
       id="rect1095"
       width="4.431643"
       height="5.7447219"
       x="203.63771"
       y="51.996849"
       ry="1.568628"
       stroke-miterlimit="4"
       style="fill:none;fill-opacity:1;stroke:#000000;stroke-width:10.1;stroke-miterlimit:4;stroke-dasharray:none;stroke-opacity:1" />
    <rect
       ry="1.568628"
       y="51.996849"
       x="214.4706"
       height="5.7447219"
       width="4.431643"
       id="rect1097"
       stroke-miterlimit="4"
       style="fill:none;fill-opacity:1;stroke:#000000;stroke-width:10.1;stroke-miterlimit:4;stroke-dasharray:none;stroke-opacity:1" />
  </g>
  <g
     id="g981"
     style="stroke:#ffffff"
     transform="translate(3.5567243,3.5500002)">
    <path
       id="rect3225"
       d="m 149.20363,50.984379 c 22.30687,14.34495 37.0957,39.36616 37.0957,67.857421 0,9.57887 -1.67932,18.76371 -4.74414,27.28711 0.46926,-0.0127 0.93587,-0.0352 1.40821,-0.0352 28.25801,0 51.16601,22.90802 51.16601,51.16602 0,7.53161 -1.6422,14.67617 -4.56445,21.11523 h 55.8418 c -2.9224,-6.43919 -4.5625,-13.58342 -4.5625,-21.11523 0,-28.258 22.90801,-51.16602 51.16601,-51.16602 0.95273,0 1.898,0.0306 2.83789,0.082 -3.07551,-8.53644 -4.75976,-17.73773 -4.75976,-27.33398 0,-28.491261 14.78909,-53.512471 37.0957,-67.857421 h -91.78516 c -0.57999,0.956 -1.65539,1.5957 -2.85937,1.5957 h -30.44531 c -1.19998,0 -2.21299,-0.6437 -2.79297,-1.5957 z m 341.80859,60.250001 c 0.23449,2.50517 0.36133,5.04095 0.36133,7.60742 0,44.53799 -36.10456,80.64258 -80.64258,80.64258 -9.70334,0 -19.0044,-1.71597 -27.62109,-4.85743 0.0442,0.87208 0.0664,1.74975 0.0664,2.63282 0,8.73389 -2.19442,16.95315 -6.05274,24.14648 9.58955,19.13675 24.01649,47.47519 37.5,72.06836 29.83999,54.423 108.61981,15.27996 99.29883,-31.74805 -5.37707,-27.12545 -12.41542,-90.0048 -22.91016,-150.49218 z m -465.798823,1.98047 c -10.544725,60.21464 -17.608107,119.75246 -23,148.00195 -8.988499,47.09299 69.711784,86.68081 99.550783,32.25781 13.19325,-24.0627 27.24175,-51.62239 36.83203,-70.74023 -4.3177,-7.50321 -6.79883,-16.19636 -6.79883,-25.47461 0,-0.72061 0.0252,-1.43509 0.0547,-2.14844 -8.21595,2.82143 -17.02209,4.37305 -26.19531,4.37305 -44.536999,0 -80.642581,-36.10459 -80.642581,-80.64258 0,-1.89252 0.07095,-3.76701 0.199218,-5.62695 z"
       style="fill:none;fill-opacity:1;fill-rule:evenodd;stroke:#ffffff;stroke-width:1.4;stroke-linecap:round;stroke-linejoin:round;stroke-miterlimit:4;stroke-dasharray:none;stroke-opacity:1"
       inkscape:connector-curvature="0" />
    <path
       id="path3258"
       d="m 408.3423,1.5 c -15.96253,0 -25.25985,4.048774 -29.21094,9.613281 6.63115,-3.044153 16.81552,-4.607421 29.21094,-4.607421 12.39598,0 22.58121,1.562997 29.21289,4.607421 C 433.60412,5.548773 424.30484,1.5 408.3423,1.5 Z"
       style="fill:none;fill-opacity:1;fill-rule:evenodd;stroke:#ffffff;stroke-width:1.4;stroke-miterlimit:4;stroke-dasharray:none;stroke-opacity:1"
       inkscape:connector-curvature="0" />
    <path
       id="path3234"
       d="m 105.51808,1.5 c -15.964039,0 -25.261669,4.049902 -29.212889,9.615235 6.63138,-3.045097 16.81681,-4.609375 29.212889,-4.609375 12.39522,0 22.5794,1.563043 29.21094,4.607421 C 130.77801,5.548773 121.48159,1.5 105.51808,1.5 Z"
       style="fill:none;fill-opacity:1;fill-rule:evenodd;stroke:#ffffff;stroke-width:1.4;stroke-miterlimit:4;stroke-dasharray:none;stroke-opacity:1"
       inkscape:connector-curvature="0" />
    <path
       id="path3229"
       d="m 105.51808,6.50586 c -20.993989,0 -35.731389,4.447952 -37.400389,13.068359 -1.27419,6.58516 -2.8244,16.744149 -4.96679,30.74219 12.34307,-7.6727 26.90308,-12.11524 42.505859,-12.11524 15.47195,0 29.92073,4.36391 42.19726,11.91797 C 145.73016,36.24004 144.1886,26.128279 142.92043,19.574219 141.25142,10.953812 126.51309,6.50586 105.51808,6.50586 Z"
       style="fill:none;fill-opacity:1;fill-rule:evenodd;stroke:#ffffff;stroke-width:1.4;stroke-miterlimit:4;stroke-dasharray:none;stroke-opacity:1"
       inkscape:connector-curvature="0" />
    <path
       id="path2416"
       d="m 105.65676,38.201169 c -44.536999,0 -80.642581,36.10363 -80.642581,80.640631 0,44.53799 36.105582,80.64258 80.642581,80.64258 9.17322,0 17.97933,-1.55166 26.19531,-4.37305 1.10804,-26.7928 22.81314,-48.25366 49.70312,-48.98242 3.06485,-8.52336 4.74414,-17.70824 4.74414,-27.28711 0,-44.537001 -36.10458,-80.640631 -80.64257,-80.640631 z"
       style="fill:none;fill-opacity:1;fill-rule:evenodd;stroke:#ffffff;stroke-width:1.4;stroke-linecap:round;stroke-linejoin:round;stroke-miterlimit:4;stroke-dasharray:none;stroke-opacity:1"
       inkscape:connector-curvature="0" />
    <path
       id="path3260"
       d="m 408.3423,6.50586 c -20.995,0 -35.73239,4.447952 -37.40039,13.068359 -1.32379,6.837484 -2.91826,17.35566 -5.21289,32.34375 12.85397,-8.66044 28.33706,-13.7168 45.00195,-13.7168 14.44867,0 27.99786,3.81787 39.72657,10.47266 C 448.46381,35.645205 446.9695,25.90058 445.74465,19.574219 444.07665,10.953812 429.3373,6.50586 408.3423,6.50586 Z"
       style="fill:none;fill-opacity:1;fill-rule:evenodd;stroke:#ffffff;stroke-width:1.4;stroke-miterlimit:4;stroke-dasharray:none;stroke-opacity:1"
       inkscape:connector-curvature="0" />
    <path
       d="m 234.12874,197.26047 c 0,28.25799 -22.90799,51.16601 -51.166,51.16601 -28.259,0 -51.166,-22.90802 -51.166,-51.16601 0,-28.258 22.907,-51.166 51.166,-51.166 28.25801,0 51.166,22.908 51.166,51.166 z"
       id="path3208"
       stroke-miterlimit="4"
       inkscape:connector-curvature="0"
       style="fill:none;fill-opacity:1;fill-rule:evenodd;stroke:#ffffff;stroke-width:1.4;stroke-linecap:round;stroke-linejoin:round;stroke-miterlimit:4;stroke-dasharray:none;stroke-opacity:1" />
    <path
       d="m 222.44875,197.26047 c 0,21.80801 -17.67801,39.487 -39.48601,39.487 -21.808,0 -39.487,-17.67899 -39.487,-39.487 0,-21.808 17.679,-39.487 39.487,-39.487 21.808,0 39.48601,17.679 39.48601,39.487 z"
       id="path3212"
       stroke-miterlimit="4"
       inkscape:connector-curvature="0"
       style="fill:none;fill-opacity:1;fill-rule:evenodd;stroke:#ffffff;stroke-width:1.4;stroke-linecap:round;stroke-linejoin:round;stroke-miterlimit:4;stroke-dasharray:none;stroke-opacity:1" />
    <path
       id="path3210"
       d="m 217.44374,197.26047 c 0,19.043 -15.43798,34.48099 -34.481,34.48099 -19.04401,0 -34.48199,-15.43799 -34.48199,-34.48099 0,-19.04401 15.43798,-34.482 34.48199,-34.482 19.04302,0 34.481,15.43799 34.481,34.482 z"
       stroke-miterlimit="4"
       inkscape:connector-curvature="0"
       style="fill:none;fill-opacity:1;fill-rule:evenodd;stroke:#ffffff;stroke-width:1.4;stroke-linecap:round;stroke-linejoin:round;stroke-miterlimit:4;stroke-dasharray:none;stroke-opacity:1" />
    <path
       id="path3221"
       d="m 410.73097,38.201169 c -44.53699,0 -80.64257,36.10363 -80.64257,80.640631 0,9.59627 1.68622,18.79757 4.76172,27.33398 0.0366,0.002 0.0727,0.006 0.10937,0.008 0.085,0.005 0.16898,0.0143 0.25391,0.0195 0.11321,0.007 0.22485,0.0197 0.33789,0.0273 0.50515,0.0342 1.00845,0.0769 1.50976,0.125 0.12332,0.0117 0.24816,0.0183 0.3711,0.0312 0.75202,0.0776 1.49898,0.16994 2.24023,0.28125 0.5959,0.0895 1.18445,0.20069 1.77344,0.31055 0.21429,0.04 0.43118,0.0726 0.64453,0.11523 0.52055,0.10402 1.03422,0.22382 1.54883,0.34375 0.008,0.002 0.0156,0.004 0.0234,0.006 0.01,0.002 0.0196,0.004 0.0293,0.006 0.15366,0.0355 0.30698,0.0726 0.46094,0.10742 0.10229,0.0234 0.2052,0.045 0.30664,0.0703 0.006,0.002 0.0131,0.002 0.0195,0.004 0.007,0.002 0.013,0.004 0.0195,0.006 0.46218,0.11592 0.91791,0.2466 1.375,0.375 0.0143,0.004 0.0287,0.008 0.043,0.0117 0.0149,0.004 0.0301,0.008 0.0449,0.0117 0.0111,0.003 0.0221,0.007 0.0332,0.01 0.0222,0.006 0.0442,0.0133 0.0664,0.0195 0.0866,0.0248 0.17335,0.0491 0.25977,0.0742 0.17013,0.0477 0.34096,0.0935 0.50976,0.14453 0.47573,0.14378 0.94625,0.29989 1.41602,0.45704 0.29426,0.0984 0.58901,0.19523 0.88086,0.29882 0.45155,0.16031 0.89817,0.3294 1.34375,0.50196 0.003,0.001 0.006,0.003 0.01,0.004 0.003,0.001 0.007,0.003 0.01,0.004 0.30055,0.11648 0.60066,0.2335 0.89844,0.35547 0.002,0.001 0.005,9.4e-4 0.008,0.002 0.002,7.8e-4 0.004,0.001 0.006,0.002 0.18499,0.0758 0.36689,0.15841 0.55078,0.23633 0.2436,0.10459 0.48823,0.20728 0.73047,0.31446 0.30396,0.13444 0.60738,0.26999 0.9082,0.41015 0.002,8.7e-4 0.004,0.001 0.006,0.002 0.002,8.8e-4 0.004,0.001 0.006,0.002 0.40431,0.18853 0.80467,0.38334 1.20313,0.58203 0.01,0.005 0.0197,0.009 0.0293,0.0137 0.009,0.005 0.0182,0.009 0.0273,0.0137 0.26017,0.13014 0.51787,0.26398 0.77539,0.39844 0.0369,0.0193 0.0745,0.0373 0.11133,0.0566 10e-4,6.8e-4 0.003,10e-4 0.004,0.002 10e-4,6.8e-4 0.003,0.001 0.004,0.002 0.37474,0.19674 0.74604,0.39783 1.11523,0.60351 0.0135,0.008 0.0276,0.014 0.041,0.0215 0.003,0.001 0.005,0.002 0.008,0.004 0.003,0.002 0.005,0.004 0.008,0.006 0.31225,0.17448 0.62153,0.35242 0.92969,0.53321 0.003,0.002 0.006,0.004 0.01,0.006 0.003,0.002 0.006,0.004 0.01,0.006 0.14365,0.0844 0.28499,0.1721 0.42774,0.25782 0.21913,0.13091 0.43948,0.25997 0.65625,0.39453 0.007,0.004 0.0146,0.007 0.0215,0.0117 0.006,0.004 0.0131,0.008 0.0195,0.0117 0.11042,0.0688 0.21869,0.14072 0.32813,0.21093 0.16863,0.10871 0.33763,0.21691 0.50586,0.32618 4.6e-4,2.9e-4 0.001,-3e-4 0.002,0 0,0 0.002,0.002 0.002,0.002 0.39017,0.25348 0.77939,0.50774 1.16211,0.77148 0.27088,0.18664 0.53566,0.38058 0.80274,0.57227 0.35783,0.25689 0.71741,0.51164 1.06836,0.77734 0.003,0.003 0.006,0.005 0.01,0.008 0.003,0.003 0.006,0.005 0.01,0.008 0.16466,0.12518 0.32504,0.25588 0.48828,0.38281 0.1456,0.11555 0.29206,0.23008 0.4375,0.3457 0.30238,0.24043 0.60753,0.47754 0.9043,0.72461 0.32047,0.26679 0.63151,0.54396 0.94531,0.81836 0.2898,0.25347 0.5832,0.50187 0.86719,0.76172 0.21068,0.19275 0.41365,0.39364 0.62109,0.58984 0.0345,0.0332 0.0688,0.0666 0.10351,0.0996 0.036,0.0343 0.0715,0.0691 0.10743,0.10352 0.29819,0.28255 0.59875,0.56247 0.88867,0.85352 0.54009,0.54204 1.06849,1.09445 1.58398,1.66015 0.24641,0.27045 0.48007,0.55242 0.72071,0.82813 0.28075,0.32162 0.56513,0.64011 0.83789,0.96875 0.24289,0.2927 0.47465,0.59429 0.71093,0.89257 0.003,0.003 0.005,0.007 0.008,0.01 0.003,0.003 0.005,0.006 0.008,0.01 0.0458,0.0577 0.0907,0.11622 0.13672,0.17382 0.20084,0.25193 0.40336,0.50258 0.59765,0.75977 0.003,0.004 0.007,0.008 0.01,0.0117 0.003,0.004 0.005,0.008 0.008,0.0117 0.0135,0.0179 0.0256,0.0368 0.0391,0.0547 0.23197,0.31022 0.45565,0.62643 0.68165,0.94141 0.22024,0.30694 0.44267,0.61186 0.65624,0.92383 0.22978,0.33566 0.44997,0.67818 0.67188,1.01953 0.20803,0.31995 0.41812,0.63805 0.61914,0.96289 0.004,0.006 0.008,0.0116 0.0117,0.0176 0.004,0.006 0.006,0.0119 0.01,0.0176 0.0314,0.0509 0.0605,0.10331 0.0918,0.15429 0.17644,0.2906 0.34947,0.58325 0.52149,0.87696 0.19706,0.33642 0.39444,0.6724 0.58398,1.01367 0.005,0.009 0.0105,0.0181 0.0156,0.0273 0.005,0.009 0.0105,0.0181 0.0156,0.0273 0.13263,0.23995 0.2589,0.48368 0.38672,0.72656 0.041,0.0779 0.084,0.15453 0.125,0.23242 0.19832,0.37684 0.39487,0.7544 0.58398,1.13672 0.003,0.007 0.007,0.013 0.01,0.0195 0.003,0.006 0.007,0.0116 0.01,0.0176 0.12202,0.24741 0.2383,0.49795 0.35546,0.74805 0.0444,0.0947 0.0906,0.18835 0.13477,0.2832 0.16776,0.35994 0.33262,0.7215 0.49219,1.08594 0.16181,0.36962 0.31938,0.74111 0.47265,1.11523 0.15337,0.3743 0.30258,0.75022 0.44727,1.12891 0.005,0.0137 0.0104,0.0273 0.0156,0.041 0.005,0.0143 0.0102,0.0287 0.0156,0.043 0.12872,0.33847 0.25533,0.67761 0.37695,1.01953 0.15297,0.43 0.29775,0.86361 0.43946,1.29883 8.2e-4,0.003 10e-4,0.005 0.002,0.008 0,0 0,0.002 0,0.002 4.8e-4,0.002 10e-4,0.004 0.002,0.006 0.10275,0.31579 0.20604,0.63073 0.30274,0.94921 0.14214,0.4681 0.27336,0.94039 0.40234,1.41407 0.001,0.005 0.003,0.009 0.004,0.0137 0.001,0.005 0.003,0.009 0.004,0.0137 1.6e-4,6.1e-4 -1.6e-4,0.001 0,0.002 0.0853,0.31332 0.1726,0.62569 0.25195,0.94141 5.2e-4,0.002 0.001,0.004 0.002,0.006 5e-4,0.002 0.001,0.004 0.002,0.006 0.0421,0.16867 0.0766,0.3405 0.11719,0.50976 0.0696,0.29924 0.14065,0.59789 0.20703,0.89844 0.0724,0.32796 0.15066,0.65411 0.2168,0.98438 0,0 0,0.002 0,0.002 0,0 0,0.002 0,0.002 0.10253,0.51255 0.19025,1.03088 0.27734,1.54883 0.004,0.0261 0.009,0.052 0.0137,0.0781 0.004,0.0229 0.008,0.0455 0.0117,0.0684 0.0226,0.1368 0.0469,0.27298 0.0684,0.41015 0.0183,0.1067 0.0385,0.21283 0.0547,0.32031 0.0772,0.51345 0.13745,1.03246 0.19922,1.55079 0.004,0.032 0.008,0.0637 0.0117,0.0957 0.004,0.0313 0.008,0.0624 0.0117,0.0937 0.025,0.2165 0.0559,0.43112 0.0781,0.64844 0.006,0.0502 0.0126,0.1 0.0176,0.15039 0.0821,0.82557 0.14704,1.65552 0.18945,2.49218 8.61665,3.14141 17.91775,4.85743 27.62109,4.85743 44.53802,0 80.64258,-36.10459 80.64258,-80.64258 0,-44.537001 -36.10456,-80.640631 -80.64258,-80.640631 z"
       style="fill:none;fill-opacity:1;fill-rule:evenodd;stroke:#ffffff;stroke-width:1.4;stroke-linecap:round;stroke-linejoin:round;stroke-miterlimit:4;stroke-dasharray:none;stroke-opacity:1"
       inkscape:connector-curvature="0" />
    <path
       id="path3219"
       d="m 394.17775,59.245469 c -3.267,0 -5.91601,2.65 -5.91601,5.91701 v 31.17799 h -31.24399 c -3.26801,0 -5.85102,2.649 -5.85001,5.916001 v 33.172 c 0,3.268 2.582,5.917 5.85001,5.917 h 31.24399 v 31.178 c 0,3.267 2.64901,5.916 5.91601,5.916 h 33.17298 c 3.26702,0 5.85,-2.649 5.85,-5.916 v -31.178 h 31.24399 c 3.26703,0 5.85004,-2.649 5.85004,-5.917 v -33.172 c 0,-3.267001 -2.58301,-5.916001 -5.85004,-5.916001 h -31.24399 v -31.17799 c 0,-3.26701 -2.58298,-5.91701 -5.85,-5.91701 z"
       stroke-miterlimit="4"
       inkscape:connector-curvature="0"
       style="fill:none;fill-opacity:1;fill-rule:evenodd;stroke:#ffffff;stroke-width:1.4;stroke-linecap:round;stroke-linejoin:round;stroke-miterlimit:4;stroke-dasharray:none;stroke-opacity:1" />
    <rect
       id="rect3236"
       width="24.748762"
       height="14.181875"
       x="198.5345"
       y="119.965"
       rx="1.568628"
       ry="1.568628"
       stroke-miterlimit="4"
       style="fill:none;fill-opacity:1;fill-rule:evenodd;stroke:#ffffff;stroke-width:1.4;stroke-linecap:round;stroke-linejoin:round;stroke-miterlimit:4;stroke-dasharray:none;stroke-opacity:1" />
    <path
       d="m 312.82375,127.05547 -18.07501,7.091 c -1.72101,0.67599 -3.33701,-1.48801 -3.33701,-3.33701 v -7.50799 c 0,-1.84799 1.616,-4.01199 3.33701,-3.336 z"
       id="rect3238"
       stroke-miterlimit="4"
       inkscape:connector-curvature="0"
       style="fill:none;fill-opacity:1;fill-rule:evenodd;stroke:#ffffff;stroke-width:1.4;stroke-linecap:round;stroke-linejoin:round;stroke-miterlimit:4;stroke-dasharray:none;stroke-opacity:1" />
    <path
       id="path3242"
       d="m 277.14675,164.72546 c 0,9.32201 -7.55701,16.879 -16.879,16.879 -9.323,0 -16.88001,-7.55699 -16.88001,-16.879 0,-9.32199 7.55701,-16.87999 16.88001,-16.87999 9.32199,0 16.879,7.558 16.879,16.87999 z"
       stroke-miterlimit="4"
       inkscape:connector-curvature="0"
       style="fill:none;fill-opacity:1;fill-rule:evenodd;stroke:#ffffff;stroke-width:1.4;stroke-linecap:round;stroke-linejoin:round;stroke-miterlimit:4;stroke-dasharray:none;stroke-opacity:1" />
    <path
       id="path3244"
       d="m 428.24974,81.302479 c 0,9.67498 -7.84301,17.51899 -17.51901,17.51899 -9.67499,0 -17.518,-7.84401 -17.518,-17.51899 0,-9.67501 7.84301,-17.51901 17.518,-17.51901 9.676,0 17.51901,7.844 17.51901,17.51901 z"
       stroke-miterlimit="4"
       inkscape:connector-curvature="0"
       style="fill:none;fill-opacity:1;fill-rule:evenodd;stroke:#ffffff;stroke-width:1.4;stroke-linecap:round;stroke-linejoin:round;stroke-miterlimit:4;stroke-dasharray:none;stroke-opacity:1" />
    <path
       d="m 428.24974,156.66147 c 0,9.675 -7.84301,17.518 -17.51901,17.518 -9.67499,0 -17.518,-7.843 -17.518,-17.518 0,-9.676 7.84301,-17.519 17.518,-17.519 9.676,0 17.51901,7.84301 17.51901,17.519 z"
       id="path3246"
       stroke-miterlimit="4"
       inkscape:connector-curvature="0"
       style="fill:none;fill-opacity:1;fill-rule:evenodd;stroke:#ffffff;stroke-width:1.4;stroke-linecap:round;stroke-linejoin:round;stroke-miterlimit:4;stroke-dasharray:none;stroke-opacity:1" />
    <path
       d="m 430.89174,118.98148 c 0,-9.67501 7.84299,-17.51902 17.51901,-17.51902 9.67496,0 17.51798,7.84401 17.51798,17.51902 0,9.67599 -7.84302,17.51899 -17.51798,17.51899 -9.67602,0 -17.51901,-7.843 -17.51901,-17.51899 z"
       id="path3248"
       stroke-miterlimit="4"
       inkscape:connector-curvature="0"
       style="fill:none;fill-opacity:1;fill-rule:evenodd;stroke:#ffffff;stroke-width:1.4;stroke-linecap:round;stroke-linejoin:round;stroke-miterlimit:4;stroke-dasharray:none;stroke-opacity:1" />
    <path
       id="path3250"
       d="m 355.53273,118.98148 c 0,-9.67501 7.844,-17.51902 17.51901,-17.51902 9.67499,0 17.51899,7.84401 17.51899,17.51902 0,9.67599 -7.844,17.51899 -17.51899,17.51899 -9.67501,0 -17.51901,-7.843 -17.51901,-17.51899 z"
       stroke-miterlimit="4"
       inkscape:connector-curvature="0"
       style="fill:none;fill-opacity:1;fill-rule:evenodd;stroke:#ffffff;stroke-width:1.4;stroke-linecap:round;stroke-linejoin:round;stroke-miterlimit:4;stroke-dasharray:none;stroke-opacity:1" />
    <path
       d="m 88.723741,58.219469 c -3.267,0 -5.91701,2.65 -5.91701,5.917 v 31.178 h -31.24399 c -3.267,0 -5.849999,2.649 -5.849999,5.916001 v 33.173 c 0,3.267 2.582999,5.916 5.849999,5.916 h 31.24399 v 31.178 c 0,3.26699 2.65001,5.917 5.91701,5.917 h 33.171999 c 3.267,0 5.85,-2.65001 5.85,-5.917 v -31.178 h 31.245 c 3.267,0 5.85001,-2.649 5.85001,-5.916 v -33.173 c 0,-3.267001 -2.58301,-5.916001 -5.85001,-5.916001 h -31.245 v -31.178 c 0,-3.267 -2.583,-5.917 -5.85,-5.917 z"
       id="rect3214"
       stroke-miterlimit="4"
       inkscape:connector-curvature="0"
       style="fill:none;fill-opacity:1;fill-rule:evenodd;stroke:#ffffff;stroke-width:1.4;stroke-linecap:round;stroke-linejoin:round;stroke-miterlimit:4;stroke-dasharray:none;stroke-opacity:1" />
    <path
       id="path3289"
       d="m 332.01027,146.09375 c -28.258,0 -51.16601,22.90802 -51.16601,51.16602 0,28.25799 22.90801,51.16601 51.16601,51.16601 28.25803,0 51.16602,-22.90802 51.16602,-51.16601 0,-0.88307 -0.0222,-1.76074 -0.0664,-2.63282 -0.0424,-0.83666 -0.10732,-1.66661 -0.18945,-2.49218 -0.0267,-0.26797 -0.0632,-0.53268 -0.0957,-0.79883 -0.004,-0.0314 -0.008,-0.0624 -0.0117,-0.0937 -0.0646,-0.55056 -0.12904,-1.10141 -0.21094,-1.64649 -0.0368,-0.24503 -0.0817,-0.48702 -0.12305,-0.73046 -0.004,-0.0229 -0.008,-0.0455 -0.0117,-0.0684 -0.0908,-0.54494 -0.18317,-1.08995 -0.29101,-1.62891 -1.3e-4,-6.3e-4 1.2e-4,-0.001 0,-0.002 -0.0661,-0.33027 -0.14437,-0.65642 -0.2168,-0.98438 -0.0664,-0.30055 -0.1374,-0.5992 -0.20703,-0.89844 -0.0411,-0.17125 -0.0763,-0.34504 -0.11914,-0.51562 -5e-4,-0.002 -0.001,-0.004 -0.002,-0.006 -0.0794,-0.31572 -0.16666,-0.62809 -0.25195,-0.94141 -10e-4,-0.005 -0.002,-0.0104 -0.004,-0.0156 -0.13009,-0.4783 -0.26274,-0.95512 -0.40625,-1.42774 -0.0967,-0.31848 -0.19999,-0.63342 -0.30274,-0.94921 -8.3e-4,-0.003 -10e-4,-0.005 -0.002,-0.008 -0.14246,-0.43779 -0.28755,-0.87412 -0.44141,-1.30664 -0.12162,-0.34192 -0.24823,-0.68106 -0.37695,-1.01953 -0.005,-0.0143 -0.0102,-0.0287 -0.0156,-0.043 -0.14957,-0.3925 -0.30399,-0.78212 -0.46289,-1.16992 -0.15327,-0.37412 -0.31084,-0.74561 -0.47265,-1.11523 -0.15957,-0.36444 -0.32443,-0.726 -0.49219,-1.08594 -0.16091,-0.3453 -0.32199,-0.69015 -0.49023,-1.03125 -0.003,-0.006 -0.007,-0.0116 -0.01,-0.0176 -0.19218,-0.38893 -0.39205,-0.77299 -0.59375,-1.15625 -0.16882,-0.32084 -0.33656,-0.64209 -0.51172,-0.95898 -0.005,-0.009 -0.0105,-0.0181 -0.0156,-0.0273 -0.19443,-0.35057 -0.39726,-0.69555 -0.59961,-1.04101 -0.20229,-0.34539 -0.4034,-0.69099 -0.61329,-1.03125 -0.004,-0.006 -0.006,-0.0119 -0.01,-0.0176 -0.20459,-0.33091 -0.419,-0.65463 -0.63086,-0.98047 -0.22191,-0.34135 -0.44211,-0.68387 -0.67188,-1.01953 -0.21357,-0.31197 -0.43599,-0.61689 -0.65624,-0.92383 -0.23906,-0.33319 -0.47412,-0.66882 -0.72071,-0.99609 -0.003,-0.004 -0.005,-0.008 -0.008,-0.0117 -0.24422,-0.32348 -0.5003,-0.63765 -0.75195,-0.95508 -0.003,-0.003 -0.005,-0.006 -0.008,-0.01 -0.23628,-0.29828 -0.46804,-0.59987 -0.71093,-0.89257 -0.27276,-0.32864 -0.55714,-0.64713 -0.83789,-0.96875 -0.24064,-0.27571 -0.4743,-0.55768 -0.72071,-0.82813 -0.51549,-0.5657 -1.04389,-1.1181 -1.58398,-1.66015 -0.28992,-0.29105 -0.59048,-0.57097 -0.88867,-0.85352 -0.0359,-0.0344 -0.0714,-0.0692 -0.10743,-0.10352 -0.24157,-0.22978 -0.47859,-0.46437 -0.7246,-0.68945 -0.28399,-0.25985 -0.57739,-0.50825 -0.86719,-0.76172 -0.3138,-0.2744 -0.62483,-0.55157 -0.94531,-0.81836 -0.29677,-0.24707 -0.60192,-0.48418 -0.9043,-0.72461 -0.14544,-0.11562 -0.2919,-0.23015 -0.4375,-0.3457 -0.16653,-0.12949 -0.32988,-0.26316 -0.49805,-0.39062 -0.003,-0.003 -0.006,-0.005 -0.01,-0.008 -0.35095,-0.2657 -0.71053,-0.52045 -1.06836,-0.77734 -0.26708,-0.19169 -0.53186,-0.38563 -0.80274,-0.57227 -0.38272,-0.26374 -0.77194,-0.518 -1.16211,-0.77148 -7.5e-4,-4.9e-4 -0.001,-0.001 -0.002,-0.002 -0.28406,-0.18451 -0.56756,-0.36985 -0.85547,-0.54883 -0.007,-0.004 -0.0146,-0.007 -0.0215,-0.0117 -0.35815,-0.22232 -0.72005,-0.43865 -1.08399,-0.65235 -0.003,-0.002 -0.006,-0.004 -0.01,-0.006 -0.31417,-0.18441 -0.62886,-0.36708 -0.94727,-0.54493 -0.003,-0.001 -0.005,-0.002 -0.008,-0.004 -0.38243,-0.21354 -0.76785,-0.42105 -1.15625,-0.625 -10e-4,-6.8e-4 -0.003,-0.001 -0.004,-0.002 -0.30445,-0.1598 -0.60994,-0.31689 -0.91797,-0.4707 -0.01,-0.005 -0.0197,-0.009 -0.0293,-0.0137 -0.39846,-0.19869 -0.79882,-0.3935 -1.20313,-0.58203 -0.002,-8.7e-4 -0.004,-0.001 -0.006,-0.002 -0.30265,-0.14105 -0.60822,-0.27683 -0.91406,-0.4121 -0.4248,-0.18794 -0.8505,-0.37414 -1.28125,-0.55079 -0.002,-7.7e-4 -0.004,-0.001 -0.006,-0.002 -0.30344,-0.12434 -0.60969,-0.24268 -0.91602,-0.36133 -0.003,-0.001 -0.006,-0.003 -0.01,-0.004 -0.44558,-0.17256 -0.8922,-0.34165 -1.34375,-0.50196 -0.29185,-0.10359 -0.5866,-0.20041 -0.88086,-0.29882 -0.46977,-0.15715 -0.94029,-0.31326 -1.41602,-0.45704 -0.1688,-0.051 -0.33963,-0.0968 -0.50976,-0.14453 -0.11963,-0.0348 -0.23939,-0.0696 -0.35938,-0.10351 -0.0149,-0.004 -0.03,-0.008 -0.0449,-0.0117 -0.47098,-0.1333 -0.94145,-0.26694 -1.41797,-0.38672 -0.007,-0.002 -0.013,-0.004 -0.0195,-0.006 -0.27008,-0.0676 -0.54464,-0.12418 -0.8164,-0.1875 -0.008,-0.002 -0.0156,-0.004 -0.0234,-0.006 -0.51461,-0.11993 -1.02828,-0.23973 -1.54883,-0.34375 -0.21335,-0.0426 -0.43024,-0.0753 -0.64453,-0.11523 -0.58899,-0.10986 -1.17754,-0.22106 -1.77344,-0.31055 -1.46592,-0.22014 -2.95496,-0.37203 -4.45898,-0.46484 -0.0849,-0.005 -0.16887,-0.0147 -0.25391,-0.0195 -0.0366,-0.002 -0.0727,-0.006 -0.10937,-0.008 -0.94053,-0.0515 -1.88647,-0.082 -2.83985,-0.082 z"
       style="fill:none;fill-opacity:1;fill-rule:evenodd;stroke:#ffffff;stroke-width:1.4;stroke-linecap:round;stroke-linejoin:round;stroke-miterlimit:4;stroke-dasharray:none;stroke-opacity:1"
       inkscape:connector-curvature="0" />
    <path
       id="path3291"
       d="m 371.49773,197.26047 c 0,21.80801 -17.67899,39.487 -39.487,39.487 -21.80798,0 -39.48599,-17.67899 -39.48599,-39.487 0,-21.808 17.67801,-39.487 39.48599,-39.487 21.80801,0 39.487,17.679 39.487,39.487 z"
       stroke-miterlimit="4"
       inkscape:connector-curvature="0"
       style="fill:none;fill-opacity:1;fill-rule:evenodd;stroke:#ffffff;stroke-width:1.4;stroke-linecap:round;stroke-linejoin:round;stroke-miterlimit:4;stroke-dasharray:none;stroke-opacity:1" />
    <path
       d="m 366.49275,197.26047 c 0,19.043 -15.43802,34.48099 -34.48202,34.48099 -19.043,0 -34.48099,-15.43799 -34.48099,-34.48099 0,-19.04401 15.43799,-34.482 34.48099,-34.482 19.044,0 34.48202,15.43799 34.48202,34.482 z"
       id="path3293"
       stroke-miterlimit="4"
       inkscape:connector-curvature="0"
       style="fill:none;fill-opacity:1;fill-rule:evenodd;stroke:#ffffff;stroke-width:1.4;stroke-linecap:round;stroke-linejoin:round;stroke-miterlimit:4;stroke-dasharray:none;stroke-opacity:1" />
    <g
       id="g3289"
       style="fill:none;fill-opacity:1;stroke:#ffffff;stroke-width:1.4;stroke-miterlimit:4;stroke-dasharray:none;stroke-opacity:1"
       transform="translate(-53.384259,-62.394531)">
      <path
         id="path3273"
         d="m 158.661,126.892 -8.049,7.644 h 16.097 z"
         stroke-miterlimit="4"
         inkscape:connector-curvature="0"
         style="fill:none;fill-opacity:1;fill-rule:evenodd;stroke:#ffffff;stroke-width:1.4;stroke-linecap:round;stroke-linejoin:round;stroke-miterlimit:4;stroke-dasharray:none;stroke-opacity:1" />
      <path
         d="m 158.661,233.53101 -8.049,-7.64402 h 16.097 z"
         id="path3295"
         stroke-miterlimit="4"
         inkscape:connector-curvature="0"
         style="fill:none;fill-opacity:1;fill-rule:evenodd;stroke:#ffffff;stroke-width:1.4;stroke-linecap:round;stroke-linejoin:round;stroke-miterlimit:4;stroke-dasharray:none;stroke-opacity:1" />
      <path
         d="m 211.981,180.211 -7.645,-8.04801 v 16.097 z"
         id="path3303"
         stroke-miterlimit="4"
         inkscape:connector-curvature="0"
         style="fill:none;fill-opacity:1;fill-rule:evenodd;stroke:#ffffff;stroke-width:1.4;stroke-linecap:round;stroke-linejoin:round;stroke-miterlimit:4;stroke-dasharray:none;stroke-opacity:1" />
      <path
         id="path3305"
         d="m 105.341,180.211 7.645,-8.04801 v 16.097 z"
         stroke-miterlimit="4"
         inkscape:connector-curvature="0"
         style="fill:none;fill-opacity:1;fill-rule:evenodd;stroke:#ffffff;stroke-width:1.4;stroke-linecap:round;stroke-linejoin:round;stroke-miterlimit:4;stroke-dasharray:none;stroke-opacity:1" />
    </g>
    <rect
       id="rect3307"
       width="20.056198"
       height="20.056198"
       x="363.02371"
       y="108.95361"
       stroke-miterlimit="4"
       style="fill:none;fill-opacity:1;fill-rule:evenodd;stroke:#ffffff;stroke-width:1.4;stroke-miterlimit:4;stroke-dasharray:none;stroke-opacity:1" />
    <path
       id="path3309"
       d="m 421.89675,88.399479 h -22.331 l 11.16498,-19.30701 z"
       stroke-miterlimit="4"
       inkscape:connector-curvature="0"
       style="fill:none;fill-opacity:1;fill-rule:evenodd;stroke:#ffffff;stroke-width:1.4;stroke-miterlimit:4;stroke-dasharray:none;stroke-opacity:1" />
    <path
       id="path3311"
       d="m 436.39775,118.98148 c 0,-6.63401 5.37799,-12.013 12.013,-12.013 6.63397,0 12.01297,5.37899 12.01297,12.013 0,6.63499 -5.379,12.013 -12.01297,12.013 -6.63501,0 -12.013,-5.37801 -12.013,-12.013 z"
       stroke-miterlimit="4"
       inkscape:connector-curvature="0"
       style="fill:none;fill-opacity:1;fill-rule:evenodd;stroke:#ffffff;stroke-width:1.4;stroke-linecap:round;stroke-linejoin:round;stroke-miterlimit:4;stroke-dasharray:none;stroke-opacity:1" />
    <path
       id="path3313"
       d="m 401.84273,147.94847 18.09,18.09 m 0,-18.09 -18.09,18.09"
       stroke-miterlimit="4"
       inkscape:connector-curvature="0"
       style="fill:none;fill-opacity:1;fill-rule:evenodd;stroke:#ffffff;stroke-width:1.4;stroke-miterlimit:4;stroke-dasharray:none;stroke-opacity:1" />
    <g
       id="g5204"
       style="fill:none;fill-opacity:1;stroke:#ffffff;stroke-width:1.4;stroke-miterlimit:4;stroke-dasharray:none;stroke-opacity:1"
       transform="translate(-53.384259,-62.394531)">
      <path
         d="m 178.487,168.27499 c -0.71401,0.061 -1.367,0.42401 -1.795,0.99701 l -7.446,9.44 c -0.69301,0.902 -0.69301,2.157 0,3.058 l 7.446,9.506 c 0.472,0.62599 1.20999,0.995 1.994,0.998 l 17.284,0.066 c 0.672,0.005 1.317,-0.26 1.79199,-0.734 0.47501,-0.475 0.73902,-1.121 0.73401,-1.79201 V 171.134 c 0.011,-1.37401 -1.086,-2.5 -2.459,-2.526 l -17.285,-0.33301 c -0.088,-0.004 -0.177,-0.004 -0.265,0 z"
         id="path3322"
         stroke-miterlimit="4"
         inkscape:connector-curvature="0"
         style="fill:none;fill-opacity:1;fill-rule:evenodd;stroke:#ffffff;stroke-width:1.4;stroke-linecap:round;stroke-linejoin:round;stroke-miterlimit:4;stroke-dasharray:none;stroke-opacity:1" />
      <path
         id="path3324"
         d="m 138.83501,168.086 c 0.71299,0.061 1.36599,0.42399 1.79499,0.99699 l 7.445,9.44 c 0.694,0.90201 0.694,2.157 0,3.058 l -7.445,9.50602 c -0.472,0.62599 -1.21,0.99499 -1.994,0.998 l -17.285,0.066 c -0.671,0.005 -1.316,-0.25999 -1.791,-0.73399 -0.475,-0.47501 -0.74,-1.12101 -0.735,-1.79201 v -18.67999 c -0.01,-1.37401 1.087,-2.5 2.46,-2.526 l 17.284,-0.33301 c 0.089,-0.004 0.178,-0.004 0.26601,0 z"
         stroke-miterlimit="4"
         inkscape:connector-curvature="0"
         style="fill:none;fill-opacity:1;fill-rule:evenodd;stroke:#ffffff;stroke-width:1.4;stroke-linecap:round;stroke-linejoin:round;stroke-miterlimit:4;stroke-dasharray:none;stroke-opacity:1" />
      <path
         id="path3332"
         d="m 170.597,200.037 c -0.061,-0.71299 -0.424,-1.36599 -0.99699,-1.795 L 160.16,190.797 c -0.902,-0.693 -2.15699,-0.693 -3.05799,0 l -9.50602,7.445 c -0.62599,0.473 -0.99499,1.211 -0.99699,1.995 l -0.067,17.284 c -0.005,0.671 0.26001,1.317 0.735,1.792 0.47501,0.474 1.11999,0.739 1.791,0.734 h 18.681 c 1.373,0.01 2.49901,-1.086 2.526,-2.45999 l 0.332,-17.28402 c 0.005,-0.088 0.005,-0.17698 0,-0.26599 z"
         stroke-miterlimit="4"
         inkscape:connector-curvature="0"
         style="fill:none;fill-opacity:1;fill-rule:evenodd;stroke:#ffffff;stroke-width:1.4;stroke-linecap:round;stroke-linejoin:round;stroke-miterlimit:4;stroke-dasharray:none;stroke-opacity:1" />
      <path
         d="m 170.786,160.386 c -0.061,0.713 -0.424,1.366 -0.997,1.795 l -9.44,7.44501 c -0.901,0.69299 -2.157,0.69299 -3.058,0 l -9.506,-7.44501 c -0.626,-0.47301 -0.99501,-1.211 -0.99701,-1.995 l -0.067,-17.28401 c -0.005,-0.67099 0.26001,-1.31698 0.735,-1.79199 0.47501,-0.474 1.12001,-0.739 1.791,-0.73399 h 18.681 c 1.37301,-0.01 2.49901,1.086 2.52601,2.45999 l 0.332,17.284 c 0.005,0.088 0.005,0.177 0,0.266 z"
         id="path3334"
         stroke-miterlimit="4"
         inkscape:connector-curvature="0"
         style="fill:none;fill-opacity:1;fill-rule:evenodd;stroke:#ffffff;stroke-width:1.4;stroke-linecap:round;stroke-linejoin:round;stroke-miterlimit:4;stroke-dasharray:none;stroke-opacity:1" />
    </g>
    <rect
       id="rect3383"
       width="4.431643"
       height="5.7447219"
       x="177.21196"
       y="51.996849"
       ry="1.568628"
       stroke-miterlimit="4"
       style="fill:none;fill-opacity:1;stroke:#ffffff;stroke-width:1.4;stroke-miterlimit:4;stroke-dasharray:none;stroke-opacity:1" />
    <rect
       ry="1.568628"
       y="51.996849"
       x="191.16341"
       height="5.7447219"
       width="4.431643"
       id="rect3385"
       stroke-miterlimit="4"
       style="fill:none;fill-opacity:1;stroke:#ffffff;stroke-width:1.4;stroke-miterlimit:4;stroke-dasharray:none;stroke-opacity:1" />
    <rect
       id="rect3387"
       width="4.431643"
       height="5.7447219"
       x="203.63771"
       y="51.996849"
       ry="1.568628"
       stroke-miterlimit="4"
       style="fill:none;fill-opacity:1;stroke:#ffffff;stroke-width:1.4;stroke-miterlimit:4;stroke-dasharray:none;stroke-opacity:1" />
    <rect
       ry="1.568628"
       y="51.996849"
       x="214.4706"
       height="5.7447219"
       width="4.431643"
       id="rect3389"
       stroke-miterlimit="4"
       style="fill:none;fill-opacity:1;stroke:#ffffff;stroke-width:1.4;stroke-miterlimit:4;stroke-dasharray:none;stroke-opacity:1" />
  </g>
</svg>
