<?xml version="1.0" encoding="UTF-8" standalone="no"?>
<svg
   version="1.0"
   viewBox="0 0 272.05527 64.07412"
   id="svg5"
   sodipodi:docname="system.svg"
   width="272.05527"
   height="64.07412"
   inkscape:version="1.1.2 (0a00cf5339, 2022-02-04)"
   xmlns:inkscape="http://www.inkscape.org/namespaces/inkscape"
   xmlns:sodipodi="http://sodipodi.sourceforge.net/DTD/sodipodi-0.dtd"
   xmlns:xlink="http://www.w3.org/1999/xlink"
   xmlns="http://www.w3.org/2000/svg"
   xmlns:svg="http://www.w3.org/2000/svg">
  <defs
     id="defs9">
    <linearGradient
       inkscape:collect="always"
       id="linearGradient844">
      <stop
         style="stop-color:#ffffff;stop-opacity:1;"
         offset="0"
         id="stop840" />
      <stop
         style="stop-color:#bebebe;stop-opacity:1"
         offset="1"
         id="stop842" />
    </linearGradient>
    <linearGradient
       inkscape:collect="always"
       xlink:href="#linearGradient844"
       id="linearGradient1053"
       gradientUnits="userSpaceOnUse"
       x1="127.86427"
       y1="4.0479503"
       x2="128.26067"
       y2="38.551723"
       spreadMethod="reflect" />
  </defs>
  <sodipodi:namedview
     id="namedview7"
     pagecolor="#ffffff"
     bordercolor="#666666"
     borderopacity="1.0"
     inkscape:pageshadow="2"
     inkscape:pageopacity="0.0"
     inkscape:pagecheckerboard="0"
     showgrid="false"
     fit-margin-top="0"
     fit-margin-left="0"
     fit-margin-right="0"
     fit-margin-bottom="0"
     inkscape:zoom="2.6705655"
     inkscape:cx="127.50109"
     inkscape:cy="-17.03759"
     inkscape:window-width="1920"
     inkscape:window-height="996"
     inkscape:window-x="0"
     inkscape:window-y="0"
     inkscape:window-maximized="1"
     inkscape:current-layer="svg5" />
  <path
     id="path31"
     style="fill:#000000;fill-opacity:1"
     d="m 172.74963,0.00430283 c -10.96153,0.057936 -21.92827,-0.00664 -32.89178,0.037437 -3.6709,-0.1190591 -7.42435,0.2863061 -10.80619,1.79852347 -4.58726,1.9120401 -8.1735,5.9566078 -9.59274,10.7118947 -0.94352,2.859329 -1.05738,5.895058 -0.97645,8.879487 -0.0152,8.206937 0.0479,16.415802 -0.0473,24.621485 -0.13501,1.537053 -0.73999,3.471821 -2.46093,3.826172 -1.87799,0.363157 -3.80396,0.0497 -5.70235,0.161994 -8.81622,0.01395 -17.636098,-0.03785 -26.450002,0.03722 -2.397873,0.222806 -4.155118,2.689287 -3.826859,5.030074 0.071,1.946701 -0.186398,3.934822 0.199944,5.851748 0.59685,2.092118 2.886172,3.351978 4.989025,3.067421 11.682199,-0.01843 23.365912,0.04795 35.047142,-0.04374 5.39661,-0.232712 10.92006,-2.39325 14.34271,-6.70628 3.10165,-3.822612 4.22619,-8.89139 4.01577,-13.730469 0.0249,-8.538131 -0.0595,-17.078674 0.0526,-25.615234 0.13588,-1.547847 0.79974,-3.489276 2.55056,-3.780299 1.85379,-0.325313 3.74768,-0.03524 5.61858,-0.141462 8.91204,-0.011 17.8267,0.03143 26.7371,-0.03136 2.4347,-0.187626 4.25448,-2.687647 3.90771,-5.0609359 -0.0505,-1.8489514 0.11829,-3.7205917 -0.11474,-5.5542981 -0.4748,-2.0347495 -2.53576,-3.45214077 -4.59179,-3.35937497 z M 69.489857,0.02774033 C 47.69049,0.02939033 25.89022,0.01654833 4.0914202,0.04336533 1.6504231,0.14917753 -0.27998863,2.6023899 0.03345437,4.9949259 c 0.074344,1.9801355 -0.1871366,4.0005671 0.1980064,5.9519201 0.6140337,2.143189 2.98533773,3.376116 5.12245943,3.071116 20.7848268,0.0021 41.5702138,-0.01299 62.3546868,0.0215 1.376199,0.0592 2.572192,1.113412 2.830078,2.46289 0.558132,1.996605 0.50549,4.236812 -0.370331,6.130356 -0.584919,1.096466 -1.854159,1.588116 -3.04959,1.492691 -6.464057,0.05996 -12.929756,0.0068 -19.394532,0.02427 -10.456426,0.01164 -20.914443,-0.03088 -31.369854,0.04113 -5.896135,0.328448 -11.3781656,4.065774 -14.0350836,9.310427 -1.93902523,3.612485 -2.46271413,7.796174 -2.28564913,11.844096 0.028136,5.000776 -0.066402,10.008297 0.057775,15.004688 0.3150901,2.351608 2.77250153,4.001743 5.07265613,3.677589 3.7983843,-0.02967 7.6042056,0.0672 11.3977086,-0.06387 2.337557,-0.383386 3.91878,-2.839055 3.586465,-5.132076 0.03735,-5.634965 -0.08112,-11.275403 0.07067,-16.906797 0.190719,-1.656505 1.170156,-3.675805 3.063099,-3.753803 1.904027,-0.117174 3.816412,0.01568 5.724247,-0.0416 14.501187,-0.01235 29.003437,0.03503 43.503946,-0.03615 5.471477,-0.206461 11.100592,-2.38694 14.532375,-6.798115 3.771076,-4.76725 4.648774,-11.314832 3.403393,-17.147667 C 89.336173,9.0180952 85.887587,4.3811953 81.098777,2.1430423 77.514701,0.38295083 73.439319,-0.08611957 69.489857,0.02774033 Z m 181.236333,0 c -21.86963,0.00256 -43.74056,-0.013475 -65.60938,0.019531 -2.44586,0.1230232 -4.33189,2.60705457 -4.00716,4.99257607 0.0708,1.9594927 -0.1753,3.9558446 0.19076,5.8882836 0.58478,2.110444 2.89408,3.377601 5.00664,3.089831 20.81543,0.0021 41.6314,-0.01299 62.44648,0.0215 1.38476,0.06457 2.58658,1.127116 2.84961,2.484375 0.5573,1.992095 0.50444,4.23419 -0.38414,6.118553 -0.59125,1.083529 -1.84717,1.570526 -3.03578,1.483009 -6.31383,0.06193 -12.62952,0.0101 -18.94414,0.02904 -14.70726,0.0052 -29.41582,-0.0019 -44.12227,0.02955 -2.44643,0.117322 -4.33613,2.600933 -4.00716,4.986717 0.0773,1.991968 -0.19567,4.025616 0.2181,5.985939 0.6373,2.04707 2.88354,3.243119 4.9543,2.972638 20.77627,0.0058 41.55283,-0.02064 62.3289,0.0215 1.40619,0.05271 2.49811,1.207028 2.80579,2.526909 0.64502,2.078237 0.65798,4.330095 0.31279,6.462772 -0.26891,1.350232 -1.21424,2.743674 -2.70612,2.832407 -1.92323,0.209336 -3.86492,0.0036 -5.79605,0.08408 -19.36676,0.0024 -38.73487,-0.01296 -58.10078,0.01961 -2.4337,0.102337 -4.32601,2.549056 -4.01635,4.926559 0.0738,1.981213 -0.18636,4.002108 0.19799,5.954301 0.60223,2.138646 2.96799,3.377287 5.09844,3.070324 22.2799,-0.0099 44.56058,0.02895 66.83999,-0.02781 5.60283,-0.152787 11.327,-2.475481 14.81743,-6.981972 3.20102,-4.03779 4.32934,-9.379725 3.90577,-14.441686 -0.24794,-4.042823 -1.41622,-8.100129 -3.76905,-11.43136 3.77053,-4.900737 4.60446,-11.588526 3.18359,-17.498048 -1.16282,-4.6687568 -4.23005,-8.8946332 -8.5259,-11.1400097 -3.68621,-2.01403417 -7.98269,-2.59764517 -12.1323,-2.47911597 z" />
  <path
     id="path30"
     style="fill:url(#linearGradient1053);fill-opacity:1"
     d="m 4.4507952,4.0277403 c -0.242,0 -0.4179687,0.1827188 -0.4179687,0.3867188 v 5.2128906 c 0,0.213 0.1759687,0.3906253 0.4179687,0.3906253 H 67.081654 c 5.295,0 7.808594,3.793078 7.808594,9.080077 0,5.267001 -2.513594,9.052735 -7.808594,9.052735 H 17.534779 c -7.6949994,0 -13.5019525,6.421453 -13.5019525,14.939453 v 16.533203 c 0,0.226 0.1769218,0.404297 0.4199218,0.404297 H 15.74181 c 0.221,0 0.40625,-0.178297 0.40625,-0.404297 V 43.09024 c 0,-5.254 3.038266,-8.960938 7.447266,-8.960938 h 47.494141 c 10.66,0 15.886718,-6.509343 15.886718,-15.027343 0,-8.505 -5.226718,-15.0742187 -15.886718,-15.0742187 z m 133.9472648,0 c -10.681,0 -15.91601,6.5563127 -15.91601,15.0703117 V 44.96524 c 0,5.283 -2.50955,9.076172 -7.81055,9.076172 H 84.382435 c -0.213,0 -0.388671,0.175 -0.388671,0.375 v 5.21875 c 0,0.213 0.175671,0.392578 0.388671,0.392578 h 34.283205 c 10.677,0 15.92383,-6.528875 15.92383,-15.046875 V 19.098052 c 0,-5.286999 2.49322,-9.08789 7.82422,-9.08789 h 30.61328 c 0.24,0 0.42969,-0.1698123 0.42969,-0.3828123 V 4.4144591 c 0,-0.204 -0.18969,-0.3867188 -0.42969,-0.3867188 z m 47.10547,0 c -0.227,0 -0.39453,0.1822969 -0.39453,0.4042969 v 5.1953125 c 0,0.213 0.16753,0.3906253 0.39453,0.3906253 h 62.6211 c 5.279,0 7.82812,3.793078 7.82812,9.080077 0,5.267001 -2.53212,9.052735 -7.82812,9.052735 h -0.0781 l -62.54297,0.01367 c -0.227,0 -0.39453,0.161437 -0.39453,0.398437 v 5.189453 c 0,0.209 0.16753,0.376953 0.39453,0.376953 h 62.6211 c 6.905,0.08 7.81445,6.761688 7.81445,10.179688 l 0.0137,0.642578 c 0,5.296 -2.54912,9.105469 -7.82812,9.105469 h -62.6211 c -0.227,0 -0.39453,0.163 -0.39453,0.375 v 5.203125 c 0,0.213 0.16753,0.392578 0.39453,0.392578 h 66.62305 c 10.70094,2e-6 15.90619,-7.05717 15.90619,-15.07617 V 44.30899 c 0,-5.114 -1.64289,-9.997469 -4.96289,-12.980469 -0.149,-0.166 -0.149,-0.451281 0,-0.613281 3.32,-2.732 4.96289,-6.849281 4.96289,-11.613281 0,-8.505 -5.21525,-15.0742187 -15.90625,-15.0742187 z" />
</svg>
