<?xml version="1.0" encoding="UTF-8" standalone="no"?>
<!-- Generator: Adobe Illustrator 13.0.0, SVG Export Plug-In . SVG Version: 6.00 Build 14948)  -->

<svg
   version="1.2"
   id="Layer_3"
   x="0px"
   y="0px"
   width="318.03958"
   height="330.03372"
   viewBox="0 0 318.03957 330.03371"
   xml:space="preserve"
   sodipodi:docname="controller.svg"
   inkscape:version="1.1.2 (0a00cf5339, 2022-02-04)"
   xmlns:inkscape="http://www.inkscape.org/namespaces/inkscape"
   xmlns:sodipodi="http://sodipodi.sourceforge.net/DTD/sodipodi-0.dtd"
   xmlns="http://www.w3.org/2000/svg"
   xmlns:svg="http://www.w3.org/2000/svg"
   xmlns:rdf="http://www.w3.org/1999/02/22-rdf-syntax-ns#"
   xmlns:cc="http://creativecommons.org/ns#"
   xmlns:dc="http://purl.org/dc/elements/1.1/"
   xmlns:ns="&amp;ns_sfw;"><defs
   id="defs82">
	
	

	
	

	
	

		
		
		
		
		
		
	
		
		
		
		
		
		
	</defs><sodipodi:namedview
   id="namedview80"
   pagecolor="#ffffff"
   bordercolor="#666666"
   borderopacity="1.0"
   inkscape:pageshadow="2"
   inkscape:pageopacity="0.0"
   inkscape:pagecheckerboard="0"
   showgrid="false"
   fit-margin-top="0"
   fit-margin-left="0"
   fit-margin-right="0"
   fit-margin-bottom="0"
   inkscape:zoom="1.451521"
   inkscape:cx="-14.812048"
   inkscape:cy="138.8199"
   inkscape:window-width="1920"
   inkscape:window-height="996"
   inkscape:window-x="0"
   inkscape:window-y="0"
   inkscape:window-maximized="1"
   inkscape:current-layer="Layer_3" />
<metadata
   id="metadata55">
	<rdf:RDF>
		<cc:Work
   rdf:about="">
			<dc:format>image/svg+xml</dc:format>
			<dc:type
   rdf:resource="http://purl.org/dc/dcmitype/StillImage" />
			
		</cc:Work>
	</rdf:RDF>
	<ns:sfw>
		<ns:slices />
		<ns:sliceSourceBounds
   x="805.998"
   y="-7652"
   width="310.002"
   height="16383"
   bottomLeftOrigin="true" />
	</ns:sfw>
</metadata>
<path
   id="path960"
   style="fill:#000000"
   d="m 301.4375,0.0187606 c -95.93847,-0.01308 -191.87798,-0.0045 -287.81677,0.0025 -6.10481,0.06497 -11.80744,4.656383 -13.18399,10.6029474 -0.72802,3.009485 -0.29723,6.127672 -0.41721,9.187929 0,46.067578 0,92.135153 0,138.202733 0.87435,0 1.7487,0 2.62305,0 -1.51073,2.21834 -2.32809,4.85207 -2.64258,7.49023 0.0463,10.57089 0.007,21.14926 0.0203,31.72305 0.005,39.80212 -0.007,79.60469 0.0177,119.40653 0.16528,6.02259 4.71899,11.59862 10.58972,12.96168 3.04533,0.72696 6.19731,0.30046 9.29293,0.41656 94.90046,-0.004 189.80117,0.009 284.70147,-0.0135 5.95803,-0.16185 11.48976,-4.60619 12.92927,-10.39174 0.7958,-3.06912 0.34984,-6.26469 0.46809,-9.39399 0,-48.61641 0,-97.23282 0,-145.84922 -0.41738,-0.49965 -0.29924,-1.2273 -0.55664,-1.81641 -0.43738,-1.60933 -1.14057,-3.14538 -2.06445,-4.5332 0.87435,0 1.74869,0 2.62304,0 -0.002,-48.2072 0.0127,-96.414844 -0.0165,-144.621759 -0.16491,-6.0208904 -4.71716,-11.5959584 -10.58549,-12.9610974 -1.95199,-0.493484 -3.98455,-0.445877 -5.98195,-0.413236 z m 2.75781,9.9960934 c 2.22734,0.0605 4.10662,2.24214 3.80782,4.460156 0.039,42.965341 0.005,85.93073 0.0164,128.89609 0,1.54792 0,3.09583 0,4.64375 -9.17578,0.003 -18.35156,0.001 -27.52734,-0.008 -0.0795,-1.80406 0.0799,-3.61363 -0.0673,-5.41351 -0.19256,-3.1346 -2.81403,-5.82395 -5.90141,-6.24456 -1.57944,-0.22302 -3.18072,0.005 -4.77033,-0.0964 -1.93966,-0.0416 -4.03115,0.0636 -5.61221,1.33547 -2.06951,1.47481 -3.16984,4.09334 -2.90195,6.60643 0.0651,2.14445 -0.24843,4.35281 0.32159,6.44734 0.39409,0.70625 -0.85725,0.23887 -1.26915,0.37305 -67.98645,0 -135.97291,0 -203.95937,0 0.81244,-1.89915 0.34955,-3.98294 0.49219,-5.97656 0.0324,-1.98295 0.003,-4.13378 -1.27429,-5.77615 -1.46427,-2.12223 -4.11903,-3.26435 -6.669,-2.98882 -2.17082,0.0668 -4.4094,-0.25761 -6.5261,0.34097 -3.08771,0.98039 -5.14209,4.28051 -4.78553,7.48214 0.0185,1.30612 -0.0462,2.61235 -0.009,3.91842 -9.18034,0 -18.36068,0 -27.54102,0 0.002,-44.79228 -0.006,-89.584841 0.0176,-134.376949 0.16441,-2.172256 2.32716,-3.8818134 4.47656,-3.621097 96.56055,-6.49e-4 193.12109,-0.0013 289.68164,-0.002 z M 49.80078,12.249229 c -2.14956,0.09066 -4.31711,-0.116425 -6.45617,0.117101 -3.43292,0.545149 -6.09256,3.955451 -5.77674,7.421535 0.0704,2.230404 -0.22617,4.508576 0.27393,6.701599 0.87967,3.165125 4.19863,5.357651 7.4523,5.018353 2.20586,-0.07524 4.46933,0.244926 6.62973,-0.311322 3.13698,-0.946401 5.24345,-4.277993 4.88189,-7.515177 -0.0671,-2.172637 0.24007,-4.402494 -0.30963,-6.529745 -0.87589,-2.848735 -3.71893,-4.920132 -6.69531,-4.902344 z m 223.66797,0 c -2.15022,0.09064 -4.31841,-0.116399 -6.45812,0.117101 -3.43151,0.546894 -6.09085,3.955456 -5.77479,7.421535 0.0707,2.229723 -0.22652,4.507382 0.27392,6.699646 0.87697,3.166488 4.19656,5.359954 7.45035,5.020306 2.20586,-0.07524 4.46933,0.244926 6.62973,-0.311322 3.13384,-0.949531 5.24483,-4.276974 4.8819,-7.515177 -0.0752,-2.20336 0.26297,-4.474971 -0.34267,-6.624131 -0.90531,-2.800222 -3.72003,-4.824239 -6.66032,-4.807958 z m -70.21289,4.097657 c -40.19138,0.0059 -80.38299,-0.0091 -120.57422,0.0098 -4.5122,0.171731 -8.53017,4.234678 -8.46535,8.78358 -0.0737,5.468035 -0.008,10.938427 -0.0307,16.407436 0.006,33.253322 -0.0133,66.507148 0.0195,99.760148 0.2288,4.43182 4.19488,8.3201 8.65171,8.35526 0.94241,0.0287 1.91246,0.16544 2.8386,0.0991 0.54542,-0.19182 1.18186,-0.006 1.76359,-0.0832 49.32482,-0.005 98.65004,0.0118 147.97461,-0.0176 4.53481,-0.19897 8.53276,-4.34759 8.38974,-8.91692 0.0658,-7.38794 0.008,-14.77707 0.0287,-22.16551 -0.003,-31.275991 0.0124,-62.552723 -0.0238,-93.828269 -0.1914,-4.62319 -4.51253,-8.640519 -9.15515,-8.38431 -10.47234,-0.03954 -20.9448,-0.0142 -31.41719,-0.01944 z m 23.26367,17 c 0,33.110677 0,66.221349 0,99.332024 -45,0 -90,0 -135,0 6.5e-4,-33.110675 10e-4,-66.221347 0.002,-99.332024 44.99935,0 89.9987,0 134.99805,0 z M 29.43164,74.270714 c -2.79808,0.144197 -5.2359,2.66792 -5.18555,5.486328 -0.088,2.593908 1.87717,5.038692 4.43164,5.509765 2.6695,0.626967 5.61615,-1.067216 6.39649,-3.701171 0.92894,-2.561065 -0.40553,-5.635011 -2.87696,-6.751953 -0.85246,-0.39277 -1.82715,-0.628407 -2.76562,-0.542969 z m 11.625,0 c -2.79808,0.144197 -5.2359,2.66792 -5.18555,5.486328 -0.088,2.593908 1.87717,5.038692 4.43164,5.509765 2.6695,0.626967 5.61615,-1.067216 6.39649,-3.701171 0.92894,-2.561065 -0.40553,-5.635011 -2.87696,-6.751953 -0.85246,-0.39277 -1.82715,-0.628407 -2.76562,-0.542969 z m 11.625,0 c -2.79808,0.144197 -5.2359,2.66792 -5.18555,5.486328 -0.088,2.593908 1.87717,5.038692 4.43164,5.509765 2.6695,0.626967 5.61615,-1.067216 6.39649,-3.701171 0.92894,-2.561065 -0.40553,-5.635011 -2.87696,-6.751953 -0.85246,-0.39277 -1.82715,-0.628407 -2.76562,-0.542969 z m 211.93555,0 c -2.79725,0.144357 -5.23257,2.667515 -5.1836,5.484375 -0.0788,2.521252 1.76577,4.921911 4.23662,5.464077 2.72921,0.758162 5.82557,-0.973566 6.60518,-3.698452 0.98457,-2.747536 -0.67586,-6.043961 -3.44338,-6.933362 -0.70556,-0.224799 -1.47294,-0.401895 -2.21482,-0.316638 z m 11.625,0 c -2.79725,0.144357 -5.23257,2.667515 -5.1836,5.484375 -0.0788,2.521252 1.76577,4.921911 4.23662,5.464077 2.72921,0.758162 5.82557,-0.973566 6.60518,-3.698452 0.98457,-2.747536 -0.67586,-6.043961 -3.44338,-6.933362 -0.70556,-0.224799 -1.47294,-0.401895 -2.21482,-0.316638 z m 11.625,0 c -2.79725,0.144357 -5.23257,2.667515 -5.1836,5.484375 -0.0788,2.521252 1.76577,4.921911 4.23662,5.464077 2.72921,0.758162 5.82557,-0.973566 6.60518,-3.698452 0.98457,-2.747536 -0.67586,-6.043961 -3.44338,-6.933362 -0.70556,-0.224799 -1.47294,-0.401895 -2.21482,-0.316638 z m -258.43555,11.375 c -2.79808,0.144197 -5.2359,2.66792 -5.18555,5.486331 -0.088,2.59391 1.87717,5.03869 4.43164,5.50976 2.6695,0.62697 5.61615,-1.06721 6.39649,-3.70117 0.92894,-2.56106 -0.40553,-5.63501 -2.87696,-6.751952 -0.85246,-0.39277 -1.82715,-0.628407 -2.76562,-0.542969 z m 11.625,0 c -2.79808,0.144197 -5.2359,2.66792 -5.18555,5.486331 -0.088,2.59391 1.87717,5.03869 4.43164,5.50976 2.6695,0.62697 5.61615,-1.06721 6.39649,-3.70117 0.92894,-2.56106 -0.40553,-5.63501 -2.87696,-6.751952 -0.85246,-0.39277 -1.82715,-0.628407 -2.76562,-0.542969 z m 11.625,0 c -2.79808,0.144197 -5.2359,2.66792 -5.18555,5.486331 -0.088,2.59391 1.87717,5.03869 4.43164,5.50976 2.6695,0.62697 5.61615,-1.06721 6.39649,-3.70117 0.92894,-2.56106 -0.40553,-5.63501 -2.87696,-6.751952 -0.85246,-0.39277 -1.82715,-0.628407 -2.76562,-0.542969 z m 211.93555,0 c -2.79725,0.144357 -5.23257,2.667515 -5.1836,5.484371 -0.0788,2.52126 1.76577,4.92191 4.23662,5.46408 2.72921,0.75816 5.82557,-0.97356 6.60518,-3.69845 0.98457,-2.74754 -0.67586,-6.043962 -3.44338,-6.933363 -0.70556,-0.224799 -1.47294,-0.401895 -2.21482,-0.316638 z m 11.625,0 c -2.79725,0.144357 -5.23257,2.667515 -5.1836,5.484371 -0.0788,2.52126 1.76577,4.92191 4.23662,5.46408 2.72921,0.75816 5.82557,-0.97356 6.60518,-3.69845 0.98457,-2.74754 -0.67586,-6.043962 -3.44338,-6.933363 -0.70556,-0.224799 -1.47294,-0.401895 -2.21482,-0.316638 z m 11.625,0 c -2.79725,0.144357 -5.23257,2.667515 -5.1836,5.484371 -0.0788,2.52126 1.76577,4.92191 4.23662,5.46408 2.72921,0.75816 5.82557,-0.97356 6.60518,-3.69845 0.98457,-2.74754 -0.67586,-6.043962 -3.44338,-6.933363 -0.70556,-0.224799 -1.47294,-0.401895 -2.21482,-0.316638 z M 17.06836,160.99922 c 6.81634,0.0435 13.63417,3.3e-4 20.45117,0.0156 0,3.77734 0,7.55469 0,11.33203 -7.5462,-0.0183 -15.09644,0.0556 -22.64006,-0.0528 -2.57665,-0.31225 -4.76573,-2.74988 -4.84627,-5.25968 -0.27316,-3.08941 2.45221,-6.08244 5.57855,-6.00299 0.48442,-0.0359 0.97113,-0.0307 1.45661,-0.0322 z m 137.08594,0.0156 c -0.68466,1.63074 -0.2548,3.43149 -0.39258,5.14258 0.0214,1.80859 -0.16315,3.82175 1.04687,5.32812 0.0847,0.32432 1.12102,0.92377 0.48906,0.86133 -35.92604,0 -71.85208,0 -107.77812,0 0,-3.77734 0,-7.55469 0,-11.33203 35.54492,0 71.08984,0 106.63477,0 z m 116.36718,0 c 0,3.77799 0,7.55599 0,11.33398 -35.85416,0 -71.70833,0 -107.5625,0 1.4938,-1.32608 2.02492,-3.41487 1.80078,-5.34765 -0.0397,-1.87642 0.19553,-3.7977 -0.23437,-5.63867 -0.35854,-0.68303 0.95137,-0.20602 1.37109,-0.34766 34.875,0 69.75,0 104.625,0 z m 16.81641,0 c 0.0688,3.7762 -0.0354,7.55637 0.043,11.33398 -2.28646,0 -4.57292,0 -6.85938,0 0,-3.77799 0,-7.55599 0,-11.33398 2.27214,0 4.54427,0 6.81641,0 z m 15.73242,0.0371 c 2.95901,0.35134 5.34778,3.30823 4.90907,6.2666 -0.27894,2.51344 -2.38826,4.74595 -4.93837,4.97559 -0.0722,-3.74839 0.0326,-7.50036 -0.043,-11.25 z m 4.95117,62.4375 c -1.2166,-5.5504 -6.27332,-10.02014 -11.9623,-10.41946 -2.44752,-0.22844 -4.9581,0.21872 -7.15488,1.32961 2.18178,-4.48293 1.5424,-10.15396 -1.59071,-14.03346 -2.60878,-3.38778 -6.88602,-5.38758 -11.16197,-5.1759 -5.80965,0.13174 -11.19487,4.5022 -12.54889,10.14972 -0.75579,2.88874 -0.46286,6.01955 0.72539,8.75105 -4.29461,-1.86057 -9.54594,-1.28883 -13.2878,1.54659 -3.96503,2.83383 -6.13499,7.93964 -5.38055,12.75927 0.62906,4.77993 4.02008,9.07419 8.55507,10.7332 3.19591,1.20242 6.85151,1.17619 10.00586,-0.14843 -2.1722,5.03982 -0.82042,11.3256 3.21707,15.03627 4.20051,4.07519 11.16233,4.84365 16.1424,1.76626 4.86801,-2.79303 7.54543,-8.85862 6.33348,-14.33925 -0.18548,-0.94651 -0.48942,-1.86837 -0.8824,-2.74844 4.38883,2.11887 9.90903,1.63934 13.81867,-1.29361 2.59962,-1.90234 4.45257,-4.77412 5.17156,-7.90951 -0.004,28.94848 0.008,57.89762 -0.006,86.8457 -0.15777,2.16677 -2.28815,3.94634 -4.45625,3.65938 -42.96534,0.039 -85.93073,0.005 -128.89609,0.0164 -53.65857,-0.003 -107.31733,0.004 -160.97578,-0.0117 -2.18532,-0.14536 -3.93203,-2.31521 -3.66602,-4.48047 -6.5e-4,-44.74544 -0.001,-89.49088 -0.002,-134.23633 2.49846,0.99172 5.21613,1.16647 7.875,1.06055 18.98878,0.003 37.99441,-0.005 56.97266,0.004 -1.00431,1.5832 -1.17227,3.49167 -1.0807,5.31914 -0.0331,39.60974 -0.0145,79.21953 -0.003,118.82929 0.0777,4.18083 3.95946,7.82164 8.13555,7.64063 51.60798,-0.004 103.21641,0.0101 154.8241,-0.0185 4.15229,-0.14191 7.73144,-4.02336 7.52475,-8.17606 -0.003,-40.0399 0.0186,-80.08039 -0.0176,-120.11992 -0.0655,-1.22706 -0.45665,-2.42852 -1.08594,-3.48047 19.97192,-0.0111 39.9445,0.0195 59.91602,-0.0176 1.68907,-0.0782 3.3662,-0.42968 4.9414,-1.04492 0,14.06901 0,28.13802 0,42.20703 z m -81.37695,-26.60156 c 0,32.91731 0,65.83463 0,98.75195 -45.08333,0 -90.16667,0 -135.25,0 0,-32.91732 0,-65.83464 0,-98.75195 45.08333,0 90.16667,0 135.25,0 z m 50.20313,8.29492 c 2.29674,0.0276 4.04787,2.69319 3.08762,4.802 -0.73838,1.89572 -3.24371,2.83996 -4.99192,1.72144 -1.74215,-0.96498 -2.34401,-3.48357 -1.08399,-5.06641 0.6895,-0.92016 1.82124,-1.54214 2.98829,-1.45703 z M 46.4082,206.49723 c -4.62188,0.0622 -9.24794,-0.0342 -13.86914,0.0508 -3.09994,0.32897 -5.5723,3.37184 -5.26953,6.47344 0,2.51927 0,5.03854 0,7.55781 -3.03062,0.0262 -6.07298,-0.0903 -9.09588,0.0885 -3.04293,0.44376 -5.30031,3.54331 -4.96638,6.57044 0.0379,4.50365 -0.0833,9.01579 0.0743,13.51395 0.39382,3.09065 3.52061,5.41229 6.58639,5.07316 2.46849,0 4.93698,0 7.40547,0 0.0258,3.02871 -0.0896,6.06904 0.0879,9.09012 0.43786,3.03061 3.49682,5.25831 6.50587,4.99581 1.24503,0.15579 2.4794,-0.1207 3.73007,-0.0283 3.28467,-0.0204 6.57784,0.0725 9.85693,-0.0736 3.08106,-0.39351 5.39574,-3.51229 5.06534,-6.56881 0,-2.47305 0,-4.94609 0,-7.41914 3.02996,-0.0262 6.07166,0.0898 9.09392,-0.0866 3.04235,-0.44854 5.30252,-3.54287 4.96834,-6.57238 -0.0379,-4.50366 0.0833,-9.0158 -0.0743,-13.51396 -0.39382,-3.09065 -3.52061,-5.41229 -6.58639,-5.07315 -2.46849,0 -4.93698,0 -7.40547,0 -0.0262,-3.03062 0.0903,-6.07299 -0.0885,-9.09588 -0.42741,-2.84866 -3.16298,-5.0428 -6.01887,-4.98225 z m -3.88476,10.01563 c 0.0299,3.07006 -0.0869,6.14962 0.0859,9.21346 0.40001,2.91854 3.3183,5.11908 6.22818,4.84904 2.58216,0 5.16432,0 7.74648,0 0,1.75065 0,3.5013 0,5.25195 -3.11473,0.0324 -6.24029,-0.0927 -9.34789,0.0923 -2.86618,0.43618 -4.99271,3.31741 -4.71656,6.17881 0,2.59649 0,5.19297 0,7.78946 -1.75,0 -3.5,0 -5.25,0 -0.0281,-3.13935 0.0916,-6.29053 -0.0964,-9.42204 -0.42758,-2.82995 -3.28699,-4.89254 -6.09851,-4.63506 -2.62188,-0.003 -5.24375,-0.007 -7.86563,-0.005 0,-1.75 0,-3.5 0,-5.25 3.08554,-0.0289 6.18166,0.0863 9.26018,-0.089 2.90365,-0.41126 5.07829,-3.333 4.80232,-6.22662 0,-2.58229 0,-5.16458 0,-7.74687 1.75065,0 3.50131,0 5.25196,0 z m 240.04296,4.39062 c -1.60512,3.47135 -1.59999,7.61018 -0.0391,11.0957 -3.42338,-1.64559 -7.5663,-1.77485 -11.0625,-0.26953 1.44377,-3.35116 1.40591,-7.29063 -0.0664,-10.625 3.54812,1.49537 7.74762,1.43149 11.20703,-0.28515 z m -23.36523,2.11328 c 2.28809,0.041 4.0241,2.69895 3.06677,4.80031 -0.7421,1.92198 -3.31194,2.86071 -5.05302,1.68045 -1.75894,-1.00485 -2.27593,-3.60842 -0.92124,-5.14998 0.68932,-0.85987 1.79433,-1.41534 2.90749,-1.33078 z m 35.81641,0 c 2.29927,0.0277 4.04818,2.70188 3.08205,4.80994 -0.73724,1.88598 -3.22285,2.82176 -4.96877,1.72522 -1.74209,-0.95491 -2.36107,-3.44826 -1.13086,-5.04688 0.68627,-0.94297 1.837,-1.56965 3.01758,-1.48828 z m -18.16992,17.66602 c 2.30129,0.0275 4.05157,2.70185 3.084,4.81189 -0.74212,1.88269 -3.22394,2.82038 -4.97072,1.72326 -1.74455,-0.95566 -2.3584,-3.4569 -1.12305,-5.05273 0.68652,-0.94197 1.83044,-1.56119 3.00977,-1.48242 z m -22.11915,34.0039 c -4.49541,0.14356 -8.5204,3.98354 -8.83387,8.47844 -0.44861,4.1531 2.30335,8.40424 6.28309,9.68172 -3.57689,1.20039 -6.24271,4.71313 -6.32218,8.5025 -0.20988,4.32355 2.98128,8.52443 7.22453,9.43109 4.08337,0.98941 8.67702,-1.1552 10.47618,-4.96694 2.00465,-3.90193 0.74735,-9.12942 -2.84923,-11.65806 -0.77407,-0.56499 -1.63483,-1.01016 -2.54297,-1.3164 3.8482,-1.20466 6.595,-5.16338 6.33192,-9.19422 -0.0907,-3.66898 -2.56366,-7.12423 -6.02411,-8.36269 -1.19072,-0.45012 -2.47193,-0.64568 -3.74336,-0.59544 z m 0.6211,8.67774 c 0.83917,0.1414 0.4817,1.587 -0.33789,1.2793 -0.8736,-0.23528 -0.48045,-1.4295 0.33789,-1.2793 z m -0.0215,17.66406 c 0.87231,0.11683 0.5085,1.61036 -0.33203,1.27539 -0.84013,-0.22869 -0.4614,-1.41571 0.33203,-1.27539 z" /><path
   id="path3"
   d="m 14.02148,4.0129006 c -5.523,0 -10.00195,4.478 -10.00195,10.0000004 V 154.01485 h 37.5 v 1 H 15.68555 c -6.441,0 -11.66402,5.22202 -11.66602,11.66602 4e-5,0.1138 0.0299,0.21901 0.0332,0.33203 h -0.0312 v 149 c 0,5.522 4.475,10 10,10 h 289.99805 c 5.522,0 10,-4.478 10,-10 v -149 h -0.0352 c 0.003,-0.11302 0.0332,-0.21825 0.0332,-0.33203 0,-6.444 -5.22111,-11.66602 -11.66211,-11.66602 h -25.83399 v -1.00195 l 37.5,0.002 V 14.012901 c 0,-5.5220004 -4.47895,-10.0000004 -10.00195,-10.0000004 z m 0,2.001953 h 289.99805 c 4.418,0.008 7.991,3.582 8,8.0000004 V 152.01485 h -37.49805 v 3 H 43.51953 v -3 h -37.5 l 0.002,-137.999996 c 0.006,-4.4180004 3.58,-7.9920004 8,-8.0000004 z M 44.5625,16.262901 c -1.658,0 -3,1.344 -3,3 v 5.25 c 0,1.656 1.342,3 3,3 h 5.25 c 1.659,0 3,-1.344 3,-3 v -5.25 c 0,-1.657 -1.342,-3 -3,-3 z m 223.66601,0 c -1.657,0 -2.99804,1.344 -2.99804,3 v 5.25 c 0,1.656 1.34104,3 2.99804,3 h 5.25196 c 1.656,0 2.99604,-1.342 2.99804,-3 v -5.25 c -0.002,-1.658 -1.34204,-3 -2.99804,-3 z m -223.66796,2 h 5.25 c 0.552,0.001 0.998,0.45 1,1 v 5.25 c -10e-4,0.55 -0.448,1 -1,1 h -5.25 c -0.551,0 -0.998,-0.45 -1,-1 v -5.25 c 0.002,-0.549 0.449,-0.998 1,-1 z m 223.66796,0 h 5.25196 c 0.549,0.002 0.99604,0.449 0.99804,1 v 5.251953 c -0.002,0.551 -0.44904,0.998047 -0.99804,0.998047 h -5.25196 c -0.553,0 -0.998,-0.445047 -1,-0.998047 v -5.251953 c 0.002,-0.552 0.447,-0.998 1,-1 z M 83.18945,20.346886 c -2.765,0 -5.0009,2.239 -5.0039,5 V 140.68087 c 0.003,2.762 2.2389,5 5.0039,5 v -0.002 h 151.66602 c 2.763,0 4.99609,-2.239 4.99609,-5 V 25.346886 c 0,-2.762 -2.23309,-5 -4.99609,-5 z m 0,2 h 151.66602 c 1.655,0.004 2.996,1.343 3,3 V 140.67891 c -0.004,1.656 -1.345,2.996 -3,3 H 83.18945 c -1.658,-0.004 -2.9989,-1.344 -3.0039,-3 V 25.346886 c 0.005,-1.655 1.3449,-2.996 3.0039,-3 z m 5.33203,5 c -1.658,0 -3,1.343 -3,3 l -0.002,105.333984 c 0.002,1.65799 1.34395,2.99799 3.00195,3 h 140.99805 c 1.657,0 3,-1.344 3,-3 V 30.346886 c 0,-1.656 -1.343,-3 -3,-3 z m 0,2 h 140.99805 c 0.554,0.002 0.998,0.448 1,1 V 135.67891 c -0.002,0.553 -0.446,0.998 -1,1 H 88.52148 c -0.552,-0.002 -0.99995,-0.451 -1.00195,-1 l 0.002,-105.332024 c 0,-0.551 0.448,-0.998 1,-1 z M 29.80273,78.262901 a 1.563,1.563 0 0 0 -1.56445,1.5625 1.563,1.563 0 0 0 1.56445,1.564453 1.563,1.563 0 0 0 1.5625,-1.564453 1.563,1.563 0 0 0 -1.5625,-1.5625 z m 11.625,0 a 1.563,1.563 0 0 0 -1.56445,1.5625 1.563,1.563 0 0 0 1.56445,1.564453 1.563,1.563 0 0 0 1.5625,-1.564453 1.563,1.563 0 0 0 -1.5625,-1.5625 z m 11.625,0 a 1.563,1.563 0 0 0 -1.56445,1.5625 1.563,1.563 0 0 0 1.56445,1.564453 1.563,1.563 0 0 0 1.5625,-1.564453 1.563,1.563 0 0 0 -1.5625,-1.5625 z m 211.93555,0 a 1.563,1.563 0 0 0 -1.5625,1.5625 1.563,1.563 0 0 0 1.5625,1.564453 1.563,1.563 0 0 0 1.56445,-1.564453 1.563,1.563 0 0 0 -1.56445,-1.5625 z m 11.625,0 a 1.563,1.563 0 0 0 -1.5625,1.5625 1.563,1.563 0 0 0 1.5625,1.564453 1.563,1.563 0 0 0 1.56445,-1.564453 1.563,1.563 0 0 0 -1.56445,-1.5625 z m 11.625,0 a 1.563,1.563 0 0 0 -1.5625,1.5625 1.563,1.563 0 0 0 1.5625,1.564453 1.563,1.563 0 0 0 1.56445,-1.564453 1.563,1.563 0 0 0 -1.56445,-1.5625 z M 29.80273,89.637905 a 1.563,1.563 0 0 0 -1.56445,1.5625 1.563,1.563 0 0 0 1.56445,1.56445 1.563,1.563 0 0 0 1.5625,-1.56445 1.563,1.563 0 0 0 -1.5625,-1.5625 z m 11.625,0 a 1.563,1.563 0 0 0 -1.56445,1.5625 1.563,1.563 0 0 0 1.56445,1.56445 1.563,1.563 0 0 0 1.5625,-1.56445 1.563,1.563 0 0 0 -1.5625,-1.5625 z m 11.625,0 a 1.563,1.563 0 0 0 -1.56445,1.5625 1.563,1.563 0 0 0 1.56445,1.56445 1.563,1.563 0 0 0 1.5625,-1.56445 1.563,1.563 0 0 0 -1.5625,-1.5625 z m 211.93555,0 a 1.563,1.563 0 0 0 -1.5625,1.5625 1.563,1.563 0 0 0 1.5625,1.56445 1.563,1.563 0 0 0 1.56445,-1.56445 1.563,1.563 0 0 0 -1.56445,-1.5625 z m 11.625,0 a 1.563,1.563 0 0 0 -1.5625,1.5625 1.563,1.563 0 0 0 1.5625,1.56445 1.563,1.563 0 0 0 1.56445,-1.56445 1.563,1.563 0 0 0 -1.56445,-1.5625 z m 11.625,0 a 1.563,1.563 0 0 0 -1.5625,1.5625 1.563,1.563 0 0 0 1.5625,1.56445 1.563,1.563 0 0 0 1.56445,-1.56445 1.563,1.563 0 0 0 -1.56445,-1.5625 z M 44.56055,140.26485 c -1.657,0 -2.99805,1.342 -2.99805,3 v 5.25 c 0,1.656 1.34105,3 2.99805,3 h 5.25195 c 1.656,0 2.998,-1.344 3,-3 v -5.25 c -0.002,-1.658 -1.344,-3 -3,-3 z m 223.66796,0 c -1.657,0 -2.99804,1.34305 -2.99804,2.99805 v 5.25195 c 0,1.656 1.34104,2.99805 2.99804,2.99805 h 5.25196 c 1.656,0 2.99604,-1.34005 2.99804,-2.99805 v -5.25195 c -0.002,-1.658 -1.34204,-2.99805 -2.99804,-2.99805 z m 0,1.99805 h 5.25196 c 0.549,0.002 0.99604,0.451 0.99804,1 v 5.25195 c -0.002,0.551 -0.44904,0.99805 -0.99804,0.99805 h -5.25196 c -0.553,0 -0.998,-0.44605 -1,-0.99805 v -5.25195 c 0.002,-0.551 0.447,-0.998 1,-1 z m -223.66796,0.002 h 5.25195 c 0.55,0 0.998,0.44705 1,0.99805 v 5.25195 c -0.003,0.549 -0.45,0.99605 -1,0.99805 h -5.25195 c -0.552,-0.002 -0.99805,-0.44905 -0.99805,-0.99805 v -5.25195 c 0,-0.551 0.44605,-0.99805 0.99805,-0.99805 z m -28.875,14.75 h 25.83398 v 19.33203 H 15.68555 v 0.002 c -5.338,-0.01 -9.65502,-4.32796 -9.66602,-9.66796 0.011,-5.338 4.32902,-9.65702 9.66602,-9.66602 z m 27.83398,0 h 231.00195 v 19.33398 l -231.00195,-0.002 z m 233.00195,0 h 25.83399 c 5.337,0.01 9.65311,4.33001 9.66211,9.66602 -0.009,5.34 -4.32511,9.65596 -9.66211,9.66796 h -25.83399 z m 15.83399,2.66797 c -0.552,0 -1,0.447 -1,1 v 12 c 0,0.553 0.448,1 1,1 h 0.33203 c 0.552,0 1,-0.447 1,-1 v -12 c 0,-0.553 -0.448,-1 -1,-1 z m 5.33398,0 c -0.552,0 -1,0.447 -1,1 v 12 c 0,0.553 0.448,1 1,1 h 0.33203 c 0.552,0 1,-0.447 1,-1 v -12 c 0,-0.553 -0.448,-1 -1,-1 z m -138.41797,1.83203 c -0.828,0 -1.5,0.67 -1.5,1.5 v 5.25 c 0,0.828 0.672,1.5 1.5,1.5 0.828,0 1.5,-0.672 1.5,-1.5 v -5.25 c 0,-0.83 -0.672,-1.5 -1.5,-1.5 z m 152.75,11.69141 v 142.80664 c -0.01,4.42 -3.58295,7.99195 -8.00195,8.00195 H 14.02148 c -4.418,-0.01 -7.99395,-3.58195 -8.00195,-8.00195 V 173.21211 c 2.09767,3.09734 5.64489,5.13477 9.66602,5.13477 h 286.66992 c 4.02364,0 7.56963,-2.04002 9.66601,-5.14062 z m -75.75195,9.18164 -154.49805,0.002 c -2.21,0 -4,1.78905 -4,3.99805 v 119.75195 c 0,2.207 1.79,3.998 4,4 l 154.49805,-0.002 c 2.21,0 4,-1.79105 4,-3.99805 v -119.752 c 0,-2.209 -1.79,-3.998 -4,-4 z m -154.49805,2 h 154.49805 c 1.104,0.002 1.998,0.896 2,2 l 0.002,119.75195 h -0.002 c -0.002,1.102 -0.896,1.99605 -2,1.99805 H 81.77148 c -1.104,-0.002 -1.99895,-0.89405 -2.00195,-1.99805 v -119.752 c 0.003,-1.104 0.89795,-1.998 2.00195,-2 z m 5.62305,6.5 c -1.104,0 -1.99805,0.89495 -1.99805,2.00195 v 106.75 c 0,1.102 0.89405,1.99805 1.99805,1.99805 h 143.25 c 1.104,0 2,-0.89405 2,-1.99805 v -106.75 c 0,-1.107 -0.896,-2.00195 -2,-2.00195 z m 0,2 h 143.25 v 0.002 106.75 h -143.25 v -106.75 z m 189.29297,6.29101 c -5.246,0 -9.49805,4.254 -9.49805,9.5 0,5.248 4.25205,9.5 9.49805,9.5 5.247,0 9.5,-4.254 9.5,-9.5 0,-5.246 -4.253,-9.5 -9.5,-9.5 z m 0,2 c 4.144,0.008 7.493,3.357 7.5,7.5 -0.007,4.143 -3.356,7.49394 -7.5,7.50196 -4.142,-0.008 -7.492,-3.35896 -7.5,-7.50196 0.008,-4.142 3.358,-7.492 7.5,-7.5 z M 33.27148,210.5149 c -1.105,0 -2.00195,0.89405 -2.00195,1.99805 v 12.0625 h -12.0625 c -1.105,0 -2,0.896 -2,2 v 13.25 c 0,1.103 0.895,2 2,2 h 12.0625 v 12.0625 c 0,1.105 0.89695,2 2.00195,2 v -0.002 h 13.24805 c 1.104,0 2,-0.89404 2,-1.99804 v -12.0625 h 12.0625 c 1.106,0 2,-0.896 2,-2 v -13.25 c 0,-1.104 -0.895,-2 -2,-2 h -12.0625 v -12.0625 c 0,-1.103 -0.895,-1.99805 -2,-1.99805 z m 0,1.99805 h 13.25 v 12.12695 c -0.008,0.527 0.16961,1.10447 0.59961,1.48047 0.426,0.372 0.92141,0.45508 1.31641,0.45508 h 12.14648 v 13.25 H 48.375 c -0.546,-0.018 -1.16795,0.20482 -1.50195,0.67382 -0.329,0.457 -0.34752,0.89222 -0.35352,1.19922 v 12.18946 H 33.27148 V 241.6399 c 0.01,-0.447 -0.10867,-1.07575 -0.63867,-1.46875 -0.517,-0.353 -0.94884,-0.3307 -1.33984,-0.3457 H 19.20898 V 226.5774 h 12.1875 c 0.529,0.014 1.11599,-0.20286 1.45899,-0.63086 0.342,-0.424 0.41401,-0.89062 0.41601,-1.26562 z m 225.75,4.5 c -5.245,0 -9.5,4.254 -9.5,9.5 0,5.248 4.255,9.5 9.5,9.5 5.246,0 9.5,-4.254 9.5,-9.5 0,-5.246 -4.254,-9.5 -9.5,-9.5 z m 35.83594,0 c -5.248,0 -9.5,4.254 -9.5,9.5 0,5.248 4.252,9.5 9.5,9.5 5.245,0 9.49805,-4.252 9.49805,-9.5 0,-5.246 -4.25305,-9.5 -9.49805,-9.5 z m -35.83594,2 c 4.143,0.006 7.492,3.358 7.5,7.5 -0.008,4.144 -3.357,7.49195 -7.5,7.50195 -4.142,-0.01 -7.491,-3.35795 -7.5,-7.50195 0.007,-4.141 3.358,-7.494 7.5,-7.5 z m 35.83594,0 c 4.142,0.008 7.49205,3.358 7.49805,7.5 -0.006,4.144 -3.35605,7.49195 -7.49805,7.50195 -4.144,-0.01 -7.49295,-3.35795 -7.50195,-7.50195 0.007,-4.141 3.35795,-7.492 7.50195,-7.5 z m -18.16992,15.66601 c -5.246,0 -9.49805,4.25189 -9.49805,9.50196 0,5.246 4.25205,9.49804 9.49805,9.49804 5.247,0 9.5,-4.25405 9.5,-9.49804 0,-5.25 -4.253,-9.50196 -9.5,-9.50196 z m 0,2 c 4.144,0.008 7.493,3.35594 7.5,7.50196 -0.007,4.141 -3.356,7.49 -7.5,7.5 -4.142,-0.01 -7.492,-3.35902 -7.5,-7.5 0.008,-4.145 3.358,-7.49396 7.5,-7.50196 z m -21.49805,42 c -2.947,0 -5.33398,2.38799 -5.33398,5.33399 0,2.947 2.38398,5.33203 5.33398,5.33203 2.943,0 5.33008,-2.38703 5.33008,-5.33203 0,-2.946 -2.38708,-5.33399 -5.33008,-5.33399 z m 0,2 c 1.84,0.004 3.32608,1.49199 3.33008,3.33399 -0.004,1.84 -1.49008,3.33003 -3.33008,3.33203 -1.843,-0.002 -3.33194,-1.49203 -3.33594,-3.33203 0.004,-1.84 1.49294,-3.32999 3.33594,-3.33399 z m -0.002,15.66797 c -2.945,0 -5.33203,2.38698 -5.33203,5.33399 0,2.94499 2.38503,5.33203 5.33203,5.33203 2.945,0 5.33203,-2.38704 5.33203,-5.33203 0,-2.94701 -2.38703,-5.33399 -5.33203,-5.33399 z m 0,2 c 1.841,0.004 3.33003,1.49199 3.33203,3.33399 -0.002,1.83999 -1.49103,3.32803 -3.33203,3.33203 -1.842,-0.004 -3.32899,-1.49204 -3.33399,-3.33203 0.005,-1.842 1.49199,-3.32999 3.33399,-3.33399 z"
   style="fill:#ffffff" />



















</svg>
