<?xml version="1.0" encoding="UTF-8" standalone="no"?>
<!-- Generator: Adobe Illustrator 13.0.0, SVG Export Plug-In . SVG Version: 6.00 Build 14948)  -->

<svg
   version="1.2"
   id="svg101576"
   x="0px"
   y="0px"
   width="559.09668"
   height="90.278206"
   viewBox="0 0 559.09666 90.278204"
   xml:space="preserve"
   sodipodi:docname="system.svg"
   inkscape:version="1.1.2 (0a00cf5339, 2022-02-04)"
   xmlns:inkscape="http://www.inkscape.org/namespaces/inkscape"
   xmlns:sodipodi="http://sodipodi.sourceforge.net/DTD/sodipodi-0.dtd"
   xmlns="http://www.w3.org/2000/svg"
   xmlns:svg="http://www.w3.org/2000/svg"><path
   id="path1074"
   d="m 515.51562,0.01100808 c -10.09375,0.2482157 -20.37668,1.45373872 -29.70653,5.53398412 -5.68154,2.5108894 -11.0146,6.5106308 -13.79932,12.1945318 -0.44169,0.926083 -0.8162,1.885377 -1.10743,2.86914 C 465.84883,14.119929 458.89073,9.2990613 451.39453,6.0344456 445.73216,3.6188351 439.64722,2.4050001 433.58789,1.477805 427.37042,0.58166108 421.09182,0.16223988 414.81112,0.15510688 c -17.30342,0.00428 -34.60715,-0.00128 -51.91073,4.324e-4 0,1.62695322 0,3.25390632 0,4.88085942 -2.52497,-2.8724186 -6.27226,-4.63267592 -10.10929,-4.61894862 -6.3118,-0.013726 -12.62655,-0.00874 -18.93954,-0.013538 -4.12194,0.028664 -8.24866,-0.039833 -12.36754,0.076732 -5.10311,0.5107289 -9.69173,4.17896792 -11.443,8.97958312 -2.52236,-3.9862351 -6.50993,-7.0393225 -11.08411,-8.2553918 -2.9209,-0.85158582 -5.98603,-0.86532642 -9.00105,-0.79734262 -15.75044,0.00148 -31.49549,-0.00242 -47.24492,-0.00195 0,6.18619802 0,12.37239622 0,18.55859422 -6.36383,-6.186308 -12.72852,-12.37173 -19.0918,-18.55859422 -40.71484,1e-7 -81.42969,0 -122.14453,0 0,6.18619802 0,12.37239622 0,18.55859422 C 95.110784,12.777825 88.746097,6.5924035 82.382812,0.40553928 c -16.348958,1e-7 -32.697916,0 -49.046874,0 0,6.18619802 -10e-7,12.37239572 0,18.55859372 C 26.972753,12.777835 20.608787,6.5923423 14.246094,0.40553928 c -4.7486982,1e-7 -9.4973961,0 -14.246094,0 C 0,16.648378 0,32.891216 0,49.134055 c 6.265625,0 12.53125,0 18.796875,0 0,-6.321615 0,-12.643229 0,-18.964844 6.4993,6.321665 12.998997,12.642922 19.498047,18.964844 16.216146,0 32.432292,0 48.648437,0 0,-6.321615 0,-12.643229 0,-18.964844 6.4993,6.321665 12.998997,12.642922 19.498051,18.964844 4.58268,0 9.16536,0 13.74804,0 0,-10.138021 0,-20.276042 0,-30.414063 4.02995,0 8.0599,0 12.08985,0 0,10.13737 0,20.27474 0,30.41211 6.35416,0 12.70833,0 19.0625,0 0,-10.13737 0,-20.27474 0,-30.41211 4.02994,0 8.05989,0 12.08984,0 0,10.13737 0,20.27474 0,30.41211 21.58427,-9.34e-4 43.16571,9.56e-4 64.74805,0.002 0,-6.323568 0,-12.647136 0,-18.970703 6.50189,6.323627 13.00426,12.646773 19.50586,18.970703 15.60848,-0.02588 31.21791,0.06384 46.82812,-0.04883 6.20808,-0.312183 12.22564,-3.717231 15.53125,-9.007813 0.74735,1.982697 1.93919,3.794587 3.47266,5.257813 -2.87737,2.69003 -4.46195,6.649465 -4.29716,10.580006 0.0177,6.817993 -0.0605,13.637029 0.0333,20.454645 -0.27244,6.763028 5.34866,13.055937 12.03147,13.789567 4.07646,0.2207 8.16569,0.05579 12.24725,0.107843 6.86685,-0.02 13.73823,0.07193 20.60206,-0.08558 3.36909,-0.321881 6.52972,-2.061054 8.76592,-4.57695 0,1.498047 0,2.996094 0,4.494141 18.63065,-0.01591 37.2623,0.05189 55.89229,-0.05802 9.76859,-0.319333 19.58581,-1.49876 28.93853,-4.42661 6.8453,-2.347726 13.2301,-6.085376 18.5852,-10.956777 1.31273,-1.219386 2.54888,-2.520694 3.70117,-3.892578 0,5.363282 0,10.726563 0,16.089844 10.96866,1.998442 22.08585,3.299197 33.24509,3.365778 11.5339,0.204192 23.26112,-0.323837 34.36325,-3.716157 6.38935,-2.00177 12.6589,-5.252621 16.91314,-10.557824 3.56902,-4.510771 5.16254,-10.488168 4.34945,-16.179299 -0.67699,-5.320263 -3.48878,-10.272044 -7.56549,-13.731978 -5.34408,-4.735735 -12.007,-7.570917 -18.54199,-10.24499 -7.6341,-3.049093 -15.53858,-5.41154 -23.04097,-8.789532 -1.4217,-0.674511 -2.99768,-1.376259 -4.04475,-2.519045 2.1764,-1.496457 4.90073,-1.756751 7.44927,-2.092289 3.29797,-0.291346 6.61572,-0.190676 9.85733,0.07623 0.68108,0.05546 1.3273,0.136653 1.90629,0.197703 7.26081,0.911175 14.2917,3.034983 21.48952,4.297017 1.4755,0.27603 2.951,0.552015 4.4265,0.827983 -0.046,-8.129555 -0.09,-16.259121 -0.13672,-24.388672 -8.38211,-1.5882219 -16.82066,-3.19607302 -25.37912,-3.29668452 -3.26289,-0.1079072 -6.52843,-0.1158069 -9.79276,-0.091987 z M 293.60742,18.729758 c 1.43453,0.311127 1.78995,1.961736 2.13743,3.169772 0.57193,2.48239 0.40218,5.184211 -0.61204,7.529447 -0.36036,0.813737 -1.1234,1.526575 -2.07573,1.374465 -4.90449,0.02473 -9.81019,0.0088 -14.71528,0.01421 0,-4.031901 0,-8.063802 0,-12.095704 5.08834,0.0054 10.17823,-0.01064 15.26562,0.0078 z m -84.31445,-0.0098 c 0.20436,0.424934 0.0298,1.228758 0.0879,1.8 0,3.432552 0,6.865105 0,10.297657 -1.56185,0 -3.1237,0 -4.68555,0 0,-4.032552 0,-8.065105 0,-12.097657 1.53255,0 3.06511,0 4.59766,0 z m 138.58984,0 c 0,4.032552 0,8.065105 0,12.097657 -6.71614,0 -13.43229,0 -20.14843,0 -10e-6,-4.032552 0,-8.065105 0,-12.097657 6.71614,0 13.43229,0 20.14843,0 z m 61.16407,3.990235 c 7.36819,0.03702 14.98629,1.010471 21.52144,4.631493 4.46432,2.494944 8.08885,6.713343 9.25582,11.758392 1.19857,4.707757 0.97663,9.806062 -0.73234,14.360115 -1.7438,4.335877 -5.27063,7.798766 -9.44516,9.824865 -6.46715,3.281159 -13.85558,4.079224 -21.01422,4.089533 -2.82083,0.02023 -5.64165,-5.21e-4 -8.4625,0.0036 0,-14.889322 0,-29.778645 0,-44.667968 2.95899,0 5.91797,0 8.87696,0 z m 70.39257,21.169922 c 5.07223,3.899124 10.99337,6.473816 16.87312,8.890638 7.16149,2.891838 14.56509,5.201733 21.53704,8.550768 1.30761,0.682509 2.6627,1.405214 3.64453,2.52539 0.21034,1.205021 -1.09712,1.861125 -1.9831,2.328443 -2.61277,1.213038 -5.55238,1.42897 -8.39031,1.586171 -3.14368,0.08065 -6.44118,-0.06602 -9.47815,-0.28766 -6.9518,-0.592709 -13.92457,-1.475637 -20.64649,-3.402344 -1.85187,-0.564626 -3.6734,-1.226785 -5.46289,-1.964844 2.64785,-5.758205 3.82757,-12.154378 3.59571,-18.478516 0.10351,0.08398 0.20703,0.167969 0.31054,0.251954 z m -116.53906,2.28125 c -0.18509,-0.385561 -1.13577,-0.745176 -0.51053,-1.10156 0.56283,-0.803364 0.55944,-0.274833 0.51053,0.455075 0,0.215495 0,0.43099 0,0.646485 z m -15.01758,13.691406 c 0,4.031901 0,8.063802 0,12.095703 -6.71614,0 -13.43229,0 -20.14843,0 -10e-6,-4.031901 0,-8.063802 0,-12.095703 6.71614,0 13.43229,0 20.14843,0 z" /><defs
   id="defs18" /><sodipodi:namedview
   id="namedview16"
   pagecolor="#ffffff"
   bordercolor="#666666"
   borderopacity="1.0"
   inkscape:pageshadow="2"
   inkscape:pageopacity="0.0"
   inkscape:pagecheckerboard="0"
   showgrid="false"
   inkscape:zoom="1.30616"
   inkscape:cx="233.89171"
   inkscape:cy="-3.4452134"
   inkscape:window-width="1920"
   inkscape:window-height="996"
   inkscape:window-x="0"
   inkscape:window-y="0"
   inkscape:window-maximized="1"
   inkscape:current-layer="svg101576"
   fit-margin-top="0"
   fit-margin-left="0"
   fit-margin-right="0"
   fit-margin-bottom="0" />
<path
   id="path100608"
   fill="#999999"
   d="m 353.884,76.369954 c 0,0.83 -0.682,1.578 -1.521,1.578 h -29.102 c -0.848,0 -1.527,-0.748 -1.527,-1.578 v -21.022 c 0,-0.832 0.682,-1.496 1.527,-1.496 h 29.102 c 0.84,0 1.521,0.664 1.521,1.496 z m -1.263,-28.834 H 323 c -4.287,0 -7.787,3.49 -7.787,7.813 v 21.104 c 0,4.236 3.5,7.813 7.787,7.813 h 29.621 c 4.297,0 7.787,-3.574 7.787,-7.813 v -21.105 c 0,-4.322 -3.491,-7.812 -7.787,-7.812" />
<path
   id="path100618"
   fill="#c91818"
   d="m 12.797,15.958954 c 0,0 0,26.758 0,27.174 -0.357,0 -6.433,0 -6.797,0 0,-0.416 0,-36.3139996 0,-36.7289996 0.382,0 5.633,0 5.808,0 L 39.337,33.159954 c 0,0 0,-26.3409996 0,-26.7559996 0.374,0 5.442,0 5.442,0 0,0 0.964,0 1.264,0 0,0.416 0,36.3129996 0,36.7289996 -0.366,0 -5.127,0 -5.311,0 l -27.935,-27.174" />
<path
   id="path100622"
   fill="#c91818"
   d="m 80.943,15.958954 c 0,0 0,26.758 0,27.174 -0.366,0 -6.423,0 -6.797,0 0,-0.416 0,-36.3129996 0,-36.7289996 0.382,0 5.625,0 5.8,0 l 27.529,26.7559996 c 0,0 0,-26.3409996 0,-26.7559996 0.374,0 5.451,0 5.451,0 0,0 0.972,0 1.263,0 0,0.416 0,36.3129996 0,36.7289996 -0.374,0 -5.127,0 -5.31,0 l -27.936,-27.174" />
<path
   id="path100626"
   fill="#c91818"
   d="m 222.179,15.958954 c 0,0 0,26.758 0,27.174 -0.375,0 -6.424,0 -6.797,0 0,-0.416 0,-36.3129996 0,-36.7289996 0.382,0 5.635,0 5.8,0 l 27.529,26.7559996 c 0,0 0,-26.3409996 0,-26.7559996 0.374,0 5.45,0 5.45,0 0,0 0.973,0 1.264,0 0,0.416 0,36.3129996 0,36.7289996 -0.374,0 -5.127,0 -5.301,0 l -27.945,-27.174" />
<path
   id="path100630"
   fill="#c91818"
   d="m 62.23,6.4039544 c 0,0 0.964,0 1.255,0 0,0.416 0,36.3129996 0,36.7289996 -0.356,0 -6.431,0 -6.797,0 0,-0.416 0,-36.3129996 0,-36.7289996 0.374,0 5.542,0 5.542,0" />
<path
   id="path100634"
   fill="#c91818"
   d="m 160.482,6.4039544 c 0,0 0.947,0 1.246,0 0,0.333 0,5.9829996 0,6.3149996 -0.398,0 -16.386,0 -16.386,0 0,0 0,29.997 0,30.413 -0.366,0 -6.697,0 -7.063,0 0,-0.416 0,-30.413 0,-30.413 0,0 -15.986,0 -16.386,0 0,-0.332 0,-5.9829996 0,-6.3149996 0.406,0 38.589,0 38.589,0" />
<path
   id="path100638"
   fill="#c91818"
   d="m 204.023,6.4039544 c 0,0 0.98,0 1.271,0 0,0.333 0,5.9829996 0,6.3149996 -0.391,0 -29.134,0 -29.134,0 v 8.226 c 0,0 22.153,0 22.536,0 0,0.416 0,5.9 0,6.316 -0.383,0 -22.536,0 -22.536,0 v 9.555 c 0,0 28.743,0 29.134,0 0,0.333 0,5.9 0,6.315 -0.391,0 -35.474,0 -35.863,0 0,-0.416 0,-36.3129996 0,-36.7289996 0.39,0.002 34.592,0.002 34.592,0.002" />
<path
   id="path100642"
   fill="#c91818"
   d="m 293.216,36.816954 h -20.874 v -24.096 h 20.874 c 6.531,0 8.852,6.479 8.852,12.049 -0.002,5.482 -2.318,12.047 -8.852,12.047 z m 11.153,-25.01 c -2.658,-3.5729996 -6.59,-5.4009996 -11.344,-5.4009996 0,0 -26.838,0 -27.238,0 0,0.416 0,36.3129996 0,36.7289996 0.398,0 27.238,0 27.238,0 4.754,0 8.686,-1.911 11.344,-5.401 2.492,-3.24 3.813,-7.728 3.813,-12.962 -0.001,-5.239 -1.321,-9.725 -3.813,-12.965" />
<path
   id="path100646"
   fill="#c91818"
   d="m 353.884,35.320954 c 0,0.748 -0.682,1.496 -1.521,1.496 h -29.102 c -0.848,0 -1.527,-0.748 -1.527,-1.496 v -21.105 c 0,-0.831 0.682,-1.496 1.527,-1.496 h 29.102 c 0.84,0 1.521,0.665 1.521,1.496 z M 352.621,6.4039544 H 323 c -4.287,0 -7.787,3.49 -7.787,7.8129996 v 21.104 c 0,4.321 3.5,7.813 7.787,7.813 h 29.621 c 4.297,0 7.787,-3.49 7.787,-7.813 v -21.105 c 0,-4.3199996 -3.491,-7.8119996 -7.787,-7.8119996" />
<path
   id="path100656"
   fill="#c91818"
   d="m 476.017,68.726954 c 7.045,2.824 21.928,5.066 33.545,5.066 12.713,0 17.973,-4.32 17.973,-9.806 0,-4.985 -4.887,-7.811 -18.92,-12.963 -18.771,-6.896 -32.541,-12.38 -32.541,-24.762 0,-12.713 16.57,-20.2739996 41.822,-20.2739996 13.561,0 18.215,0.831 26.822,2.41 l 0.066,12.1309996 c -8.459,-1.578 -15.955,-4.321 -27.598,-4.321 -12.479,0 -17.799,3.988 -17.799,8.063 0,5.9 8.191,8.725 22.563,13.876 20,7.146 31.127,12.629 31.127,24.68 0,12.463 -13.938,21.438 -45.361,21.438 -12.904,0 -21.805,-0.832 -31.699,-2.492 v -13.046" />
<path
   id="path100660"
   fill="#c91818"
   d="M 409.125,16.708954 H 394.17 v 56.671 h 14.955 c 22.961,0 37.443,-9.89 37.443,-28.252 0,-18.365 -14.483,-28.419 -37.443,-28.419 z m 40.144,61.905 c -7.396,3.324 -21.391,5.484 -33.621,5.484 H 368.9 V 6.1549544 h 46.748 c 12.23,0 26.225,2.16 33.637,5.4839996 18.008,8.143 23.873,21.188 23.873,33.485 0,12.302 -5.817,25.347 -23.889,33.49" />


</svg>
