<?xml version="1.0" encoding="UTF-8" standalone="no"?>
<svg
   viewBox="0 0 1758.6 493.19999"
   version="1.1"
   id="svg45"
   sodipodi:docname="system_color.svg"
   inkscape:version="1.1.2 (0a00cf5339, 2022-02-04)"
   width="1758.6"
   height="493.20001"
   inkscape:export-filename="/home/leon/Leon/Programmering/EmulationStation-DE/emulationstation-de/themes/slate-DE/cps/images/logo.png"
   inkscape:export-xdpi="32.700729"
   inkscape:export-ydpi="32.700729"
   xmlns:inkscape="http://www.inkscape.org/namespaces/inkscape"
   xmlns:sodipodi="http://sodipodi.sourceforge.net/DTD/sodipodi-0.dtd"
   xmlns="http://www.w3.org/2000/svg"
   xmlns:svg="http://www.w3.org/2000/svg">
  <defs
     id="defs49" />
  <sodipodi:namedview
     id="namedview47"
     pagecolor="#ffffff"
     bordercolor="#666666"
     borderopacity="1.0"
     inkscape:pageshadow="2"
     inkscape:pageopacity="0.0"
     inkscape:pagecheckerboard="0"
     showgrid="false"
     inkscape:zoom="0.44332731"
     inkscape:cx="598.88031"
     inkscape:cy="-15.789688"
     inkscape:window-width="1920"
     inkscape:window-height="995"
     inkscape:window-x="0"
     inkscape:window-y="0"
     inkscape:window-maximized="1"
     inkscape:current-layer="svg45"
     width="17595px" />
  <linearGradient
     id="a"
     gradientUnits="userSpaceOnUse"
     x1="317.84"
     y1="224.944"
     x2="317.84"
     y2="60.902">
    <stop
       offset="0"
       stop-color="#eb6101"
       id="stop2" />
    <stop
       offset="1"
       stop-color="#9a4400"
       id="stop4" />
  </linearGradient>
  <linearGradient
     id="b"
     gradientUnits="userSpaceOnUse"
     x1="216.145"
     y1="254.308"
     x2="216.145"
     y2="30.393">
    <stop
       offset="0"
       stop-color="#eb6101"
       id="stop9" />
    <stop
       offset="1"
       stop-color="#9a4400"
       id="stop11" />
  </linearGradient>
  <linearGradient
     id="c"
     gradientUnits="userSpaceOnUse"
     x1="80.224998"
     y1="306.48001"
     x2="80.224998">
    <stop
       offset="0"
       stop-color="#eb6101"
       id="stop16" />
    <stop
       offset="1"
       stop-color="#9a4400"
       id="stop18" />
  </linearGradient>
  <linearGradient
     id="d"
     gradientUnits="userSpaceOnUse"
     x1="270.914"
     y1="224.944"
     x2="270.914"
     y2="30.393">
    <stop
       offset="0"
       stop-color="#029205"
       id="stop23" />
    <stop
       offset="1"
       stop-color="#d6edd9"
       id="stop25" />
  </linearGradient>
  <linearGradient
     id="e"
     gradientUnits="userSpaceOnUse"
     x1="153.621"
     y1="254.308"
     x2="153.621">
    <stop
       offset="0"
       stop-color="#029205"
       id="stop30" />
    <stop
       offset="1"
       stop-color="#d6edd9"
       id="stop32" />
  </linearGradient>
  <path
     id="rect4789_00000023279678385123697860000008904562164264106648_"
     style="clip-rule:evenodd;fill:#ffffff;fill-rule:evenodd;stroke-width:0.458072"
     class="st0"
     d="M 206.18555 350.33008 C 166.79136 350.33008 134.86416 382.30414 134.81836 421.74414 C 134.81836 461.13832 166.74556 493.11133 206.18555 493.11133 L 1552.3223 493.11133 C 1591.7165 493.11133 1623.6895 461.18413 1623.6895 421.74414 C 1623.6895 382.30414 1591.7173 350.33008 1552.2773 350.33008 L 206.18555 350.33008 z M 854.3125 388.12109 C 865.35203 388.12109 874.01014 391.0992 881.06445 396.7793 L 872.03906 409.51367 C 866.08413 405.34521 859.57942 403.09961 853.85352 403.09961 C 849.50183 403.09961 847.34961 404.97917 847.34961 407.26953 L 847.34961 407.45117 C 847.34961 410.42864 849.59406 411.71212 858.57227 413.77344 C 873.50541 417.02576 882.80469 421.83482 882.80469 434.01953 L 882.80469 434.20312 C 882.80469 447.48722 872.31521 455.36719 856.51172 455.36719 C 845.05993 455.36719 834.06615 451.74748 826.0957 444.60156 L 836.12695 432.59961 C 842.53996 437.73002 849.68489 440.38672 857.19727 440.38672 C 862.00703 440.38672 864.61914 438.7376 864.61914 435.94336 L 864.61914 435.76172 C 864.61914 433.05909 862.4649 431.59257 853.66992 429.53125 C 839.83615 426.37055 829.16406 422.47726 829.16406 409.10156 L 829.16406 408.91797 C 829.16406 396.82487 838.73805 388.12109 854.3125 388.12109 z M 1031.6777 388.12109 C 1042.7172 388.12109 1051.3754 391.0992 1058.4297 396.7793 L 1049.4043 409.51367 C 1043.4494 405.34521 1036.9446 403.09961 1031.2188 403.09961 C 1026.8671 403.09961 1024.7148 404.97917 1024.7148 407.26953 L 1024.7148 407.45117 C 1024.7148 410.42864 1026.9593 411.71212 1035.9375 413.77344 C 1050.8706 417.02576 1060.1699 421.83482 1060.1699 434.01953 L 1060.1699 434.20312 C 1060.1699 447.48722 1049.6804 455.36719 1033.877 455.36719 C 1022.4252 455.36719 1011.4771 451.74748 1003.4609 444.60156 L 1013.4922 432.59961 C 1019.9052 437.73002 1027.0521 440.38672 1034.5645 440.38672 C 1039.3742 440.38672 1041.9844 438.7376 1041.9844 435.94336 L 1041.9844 435.76172 C 1041.9844 433.05909 1039.8321 431.59257 1031.0371 429.53125 C 1017.2033 426.37055 1006.5293 422.47726 1006.5293 409.10156 L 1006.5293 408.91797 C 1006.5293 396.82487 1016.1033 388.12109 1031.6777 388.12109 z M 613.41211 388.76172 L 630.77344 388.76172 L 658.44141 454.2207 L 639.10938 454.2207 L 634.39258 442.63281 L 609.33594 442.63281 L 604.70898 454.2207 L 585.74414 454.2207 L 613.41211 388.76172 z M 415.52539 389.2207 L 443.375 389.2207 C 459.81978 389.2207 470.40234 397.64885 470.40234 412.07812 L 470.40234 412.26172 C 470.40234 427.60713 458.62892 435.66992 442.45898 435.66992 L 433.52734 435.66992 L 433.52734 454.26758 L 415.52539 454.26758 L 415.52539 389.2207 z M 505.90234 389.2207 L 523.9043 389.2207 L 523.9043 438.46289 L 555.375 438.46289 L 555.375 454.26758 L 505.85742 454.26758 L 505.90234 389.2207 z M 676.53516 389.2207 L 697.05664 389.2207 L 710.43164 412.90234 L 723.89844 389.2207 L 744.05469 389.2207 L 719.36328 429.62305 L 719.36328 454.2207 L 701.26953 454.2207 L 701.22461 429.89844 L 676.53516 389.2207 z M 910.70117 389.2207 L 931.22266 389.2207 L 944.59766 412.90234 L 958.06641 389.2207 L 978.2207 389.2207 L 953.53125 429.62305 L 953.53125 454.2207 L 935.4375 454.2207 L 935.39062 429.89844 L 910.70117 389.2207 z M 1091.3184 389.2207 L 1148.3477 389.2207 L 1148.3477 405.02344 L 1128.834 405.02344 L 1128.834 454.26758 L 1110.832 454.26758 L 1110.832 405.02344 L 1091.3184 405.02344 L 1091.3184 389.2207 z M 1184.123 389.2207 L 1236.4355 389.2207 L 1236.4355 404.56641 L 1201.9883 404.56641 L 1201.9883 414.41406 L 1233.1836 414.41406 L 1233.1836 428.61523 L 1201.9883 428.61523 L 1201.9883 438.92188 L 1236.8945 438.92188 L 1236.8945 454.26758 L 1184.123 454.26758 L 1184.123 389.2207 z M 1273.998 389.2207 L 1292.9609 389.2207 L 1308.4902 414.36914 L 1324.0195 389.2207 L 1343.0742 389.2207 L 1343.0742 454.2207 L 1325.1641 454.2207 L 1325.1641 416.88867 L 1308.5371 442.35742 L 1308.1699 442.35742 L 1291.6328 417.07227 L 1291.6328 454.2207 L 1273.998 454.2207 L 1273.998 389.2207 z M 433.57227 404.33789 L 433.57227 421.51562 L 442.09375 421.56055 C 448.50676 421.56055 452.40039 418.21634 452.40039 413.08594 L 452.40039 412.90234 C 452.40039 407.31386 448.50657 404.33789 442.00195 404.33789 L 433.57227 404.33789 z M 621.97852 410.10938 L 614.64844 428.61523 L 629.21484 428.61523 L 621.97852 410.10938 z " />
  <path
     class="st2"
     d="M 690.45979,76.861452 V 186.29484 c 0,0 73.7038,-30.69082 73.7038,-74.02443 0,-53.548606 -73.7038,-35.408958 -73.7038,-35.408958"
     id="path27"
     style="fill:#231f20;stroke-width:0.458072" />
  <path
     class="st2"
     d="m 1260.5762,71.318782 c -32.1567,0 -75.307,18.918367 -75.307,94.500238 0,75.58187 38.4322,94.50024 75.307,94.50024 36.829,0 76.0857,-23.63651 76.0857,-94.50024 0,-70.863731 -43.9291,-94.500238 -76.0857,-94.500238"
     id="path29"
     style="fill:#231f20;stroke-width:0.458072" />
  <polyline
     class="st2"
     points="887.6,363.5 1000.5,363.5 942.4,200.2 887.6,363.5   "
     id="polyline31"
     style="fill:#231f20"
     transform="matrix(0.45807194,0,0,0.45807194,0.00799029,0.08859535)" />
  <path
     class="st1"
     d="M 690.45979,76.861452 V 186.29484 c 0,0 73.7038,-30.69082 73.7038,-74.02443 0,-53.548606 -73.7038,-35.408958 -73.7038,-35.408958"
     id="path35"
     style="fill:#ffffff;stroke-width:0.458072" />
  <path
     class="st1"
     d="m 1260.5762,71.318782 c -32.1567,0 -75.307,18.918367 -75.307,94.500238 0,75.58187 38.4322,94.50024 75.307,94.50024 36.829,0 76.0857,-23.63651 76.0857,-94.50024 0,-70.863731 -43.9291,-94.500238 -76.0857,-94.500238"
     id="path37"
     style="fill:#ffffff;stroke-width:0.458072" />
  <polyline
     class="st1"
     points="887.6,363.5 1000.5,363.5 942.4,200.2 887.6,363.5   "
     id="polyline39"
     style="fill:#ffffff"
     transform="matrix(0.45807194,0,0,0.45807194,0.00799029,0.08859535)" />
  <path
     id="path41"
     style="fill:#ffffff;stroke-width:0.458072"
     class="st3"
     d="M 1266.4844 0.087890625 C 1213.9894 0.087890625 1156.64 19.923998 1121.002 62.662109 C 1095.4874 23.817609 1050.8244 0.45507812 987.65625 0.45507812 C 926.27464 0.45507812 883.26286 28.260976 851.97656 70.541016 C 829.34785 29.635192 809.28402 8.3339844 731.22852 8.3339844 L 580.66016 8.3339844 L 580.66016 77.640625 C 580.66016 77.640625 587.80522 79.610349 592.01953 84.511719 C 594.58473 87.443379 595.13477 91.976969 595.13477 96.099609 C 595.13477 100.22226 594.76953 246.94336 594.76953 246.94336 C 588.49392 243.78267 582.2168 231.96484 582.2168 231.96484 L 495.96289 8.3339844 L 388.54492 8.3339844 L 294.54883 257.20508 L 294.54883 201.54883 L 227.71484 201.54883 C 227.71484 201.54883 219.88209 225.68945 190.10742 225.68945 C 157.99657 225.68945 128.9104 198.93815 127.07812 151.71094 C 125.56649 110.7593 161.56958 89.91601 174.44141 99.71875 C 190.932 112.31573 172.88477 129.63086 172.88477 129.63086 L 227.76172 167.42188 L 310.90234 79.244141 C 310.90234 79.244141 270.91271 1.234375 169.72461 1.234375 C 63.864179 1.234375 0.0078125 76.907664 0.0078125 165.86523 C 0.0078125 254.8228 81.912076 324.90713 183.87891 324.86133 L 734.38867 324.86133 L 734.38867 258.5332 C 734.38867 258.5332 716.70703 255.60165 716.70703 247.31055 C 716.70703 242.72983 718.81392 241.12512 722.98242 240.20898 C 776.66842 228.11588 821.4226 196.00604 831.5918 186.29492 C 853.0296 275.75637 929.71114 324.86133 1019.0352 324.86133 L 1119.4434 324.86133 L 1119.4434 269.75586 C 1119.4434 269.75586 1176.4746 332.74023 1261.7676 332.74023 C 1328.4628 332.74023 1380.1797 287.07031 1380.1797 287.07031 L 1380.1797 325.04492 L 1521.7227 325.04492 L 1521.7227 266.5957 L 1608.0234 266.5957 L 1608.0234 324.9082 L 1758.5918 324.9082 L 1758.5918 247.72266 C 1758.5918 247.72266 1752.7287 248.45611 1748.377 244.5625 C 1744.6208 241.21857 1743.1087 236.68371 1742.2383 232.33203 L 1721.3047 98.482422 C 1719.4266 86.389322 1723.6861 81.167515 1734.2676 76.037109 L 1734.2676 8.3339844 L 1584.4785 8.3339844 L 1573.1191 47.316406 L 1557.8184 8.3339844 L 1412.748 8.3339844 L 1412.748 80.021484 C 1384.8514 31.420051 1330.9809 0.087890625 1266.4844 0.087890625 z M 1260.5762 30.458984 C 1343.7162 30.458984 1406.1523 89.046155 1406.1523 164.67383 C 1406.1523 240.30151 1345.2737 302.37109 1260.5762 302.37109 C 1175.8787 302.37109 1115 240.2557 1115 164.67383 C 1115 89.091955 1177.4361 30.458984 1260.5762 30.458984 z M 168.16602 31.283203 C 232.47932 31.283203 271.27734 80.572266 271.27734 80.572266 L 227.5332 126.6543 C 225.24285 129.08208 221.4402 129.31027 218.875 127.20312 L 211.45312 121.11133 C 211.13248 120.83649 210.94922 120.3787 210.94922 119.7832 C 210.94922 118.22576 215.25586 114.28688 215.25586 106.82031 C 215.25586 99.307933 213.69771 68.25 165.875 68.25 C 118.05229 68.25 96.84375 113.14013 96.84375 150.15234 C 96.84375 187.16456 119.61125 254.91406 194.09375 254.91406 C 237.42736 254.91406 246.63477 230.49805 246.63477 230.49805 L 261.52148 230.49805 L 261.52148 294.16992 L 179.93945 294.16992 C 82.690776 294.16992 28.591797 217.81114 28.591797 162.70508 C 28.591797 78.190806 101.7914 31.283203 168.16602 31.283203 z M 998.69727 31.695312 C 1062.9647 31.741122 1101.8086 81.029297 1101.8086 81.029297 L 1058.0625 127.11133 C 1055.7721 129.53911 1051.9695 129.76924 1049.4043 127.66211 L 1041.9844 121.56836 C 1041.6638 121.29352 1041.4805 120.83573 1041.4805 120.24023 C 1041.4805 118.68279 1045.7871 114.74391 1045.7871 107.27734 C 1045.7871 99.764966 1044.229 68.707031 996.40625 68.707031 C 948.58355 68.707031 927.375 113.59912 927.375 150.61133 C 927.375 187.62355 950.14059 255.37305 1024.623 255.37305 C 1067.9566 255.37305 1077.1641 230.95703 1077.1641 230.95703 L 1092.0508 230.95703 L 1092.0508 294.62891 L 1010.4688 294.62891 C 913.21999 294.62891 859.12109 218.26905 859.12109 163.11719 C 859.12109 78.602908 932.32257 31.695312 998.69727 31.695312 z M 408.51562 38.246094 L 475.57812 38.246094 L 557.16016 252.44141 C 559.49635 258.35054 563.4356 263.84631 567.375 268.56445 C 571.26861 273.28259 580.70508 276.44336 580.70508 276.44336 L 580.70508 294.94922 L 482.26562 294.94922 L 482.26562 276.03125 C 482.26562 276.03125 488.54242 276.85517 491.70312 271.3125 C 494.86382 265.81564 494.86236 261.46366 492.48047 255.9668 C 490.14427 250.46994 473.6543 206.72461 473.6543 206.72461 L 393.26367 206.72461 C 393.26367 206.72461 376.77228 250.83793 375.21484 254.77734 C 373.65739 258.71676 373.65739 265.03803 375.21484 268.93164 C 377.82585 275.48207 386.98633 276.44336 386.98633 276.44336 L 386.98633 294.94922 L 308.19922 294.94922 L 308.19922 276.44336 C 308.19922 276.44336 315.34564 273.9697 320.70508 268.56445 C 326.61421 262.65532 328.58203 256.33398 328.58203 256.33398 L 408.51562 38.246094 z M 612.03711 38.246094 L 737.50391 38.246094 C 783.76921 38.246094 830.03516 54.781471 830.03516 108.33008 C 830.03516 161.87869 796.3211 180.75125 767.2793 194.12695 C 733.7942 209.60978 689.63477 221.70312 689.63477 221.70312 L 689.63477 262.60938 C 689.63477 262.60938 690.00201 265.35715 693.94141 270.12109 C 697.83501 274.83923 702.18555 276.03125 702.18555 276.03125 L 702.18555 294.94922 L 611.21289 294.94922 L 611.21289 276.44336 C 611.21289 276.44336 616.71099 275.25192 620.65039 271.3125 C 624.58979 267.37308 625.36719 262.65625 625.36719 262.65625 L 625.36719 77.59375 C 625.36719 77.59375 625.73404 69.715384 622.61914 66.554688 C 619.45844 63.39399 612.03711 59.087891 612.03711 59.087891 L 612.03711 38.246094 z M 1607.1543 38.246094 L 1704.7676 38.246094 L 1704.7676 53.591797 C 1704.7676 53.591797 1698.2636 56.339148 1695.332 59.912109 C 1691.8048 64.217985 1691.8053 67.425586 1692.584 73.701172 C 1693.3627 80.022565 1718.4654 250.88261 1719.2441 257.1582 C 1720.0228 263.47959 1720.8469 267.00768 1722.4043 271.35938 C 1723.9617 275.66524 1731.4277 279.23828 1731.4277 279.23828 L 1731.4277 295.08789 L 1637.707 295.08789 L 1637.707 278.04688 C 1637.707 278.04688 1645.9517 276.85544 1648.6543 272.91602 C 1651.4028 268.9766 1652.594 266.59395 1651.7695 260.31836 C 1650.9908 253.99697 1628.6367 110.71289 1628.6367 110.71289 L 1587.8691 237.50781 L 1538.4883 237.50781 L 1498.0859 118.5918 L 1477.7031 258.76172 C 1477.7031 258.76172 1476.9243 267.14389 1480.0391 271.72461 C 1484.345 278.046 1492.1777 278.04687 1492.1777 278.04688 L 1492.1777 294.94922 L 1411.0078 294.94922 L 1411.0078 276.85547 C 1411.0078 276.85547 1417.4654 275.84842 1422.1836 270.35156 C 1426.9017 264.8547 1427.6816 257.75391 1427.6816 257.75391 L 1457.2715 72.921875 C 1457.2715 72.921875 1459.0595 66.005514 1457.0898 62.890625 C 1455.0285 59.592507 1443.9434 56.751953 1443.9434 56.751953 L 1443.9434 38.429688 L 1444.0801 38.429688 L 1537.3887 38.429688 L 1571.1035 143.00781 L 1607.1543 38.246094 z M 1260.6211 71.365234 C 1228.4186 71.365234 1185.3145 90.237556 1185.3145 165.86523 C 1185.3145 241.4471 1223.7463 260.36523 1260.6211 260.36523 C 1297.4501 260.36523 1336.707 236.72896 1336.707 165.86523 C 1336.707 95.001506 1292.7777 71.365234 1260.6211 71.365234 z M 713.7793 73.945312 C 700.82355 74.31007 690.45898 76.861328 690.45898 76.861328 L 690.45898 186.29492 C 690.45898 186.29492 764.16406 155.60314 764.16406 112.26953 C 764.16406 78.801654 735.37221 73.337384 713.7793 73.945312 z M 431.69531 91.794922 L 406.5918 166.59766 L 458.35547 166.59766 L 431.69531 91.794922 z " />
</svg>
