<?xml version="1.0" encoding="UTF-8" standalone="no"?>
<!-- Generator: Adobe Illustrator 13.0.0, SVG Export Plug-In . SVG Version: 6.00 Build 14948)  -->

<svg
   version="1.2"
   id="Layer_3"
   x="0px"
   y="0px"
   width="592.99854"
   height="260.26254"
   viewBox="0 0 592.99851 260.26254"
   xml:space="preserve"
   sodipodi:docname="controller.svg"
   inkscape:version="1.1.2 (0a00cf5339, 2022-02-04)"
   xmlns:inkscape="http://www.inkscape.org/namespaces/inkscape"
   xmlns:sodipodi="http://sodipodi.sourceforge.net/DTD/sodipodi-0.dtd"
   xmlns="http://www.w3.org/2000/svg"
   xmlns:svg="http://www.w3.org/2000/svg"
   xmlns:rdf="http://www.w3.org/1999/02/22-rdf-syntax-ns#"
   xmlns:cc="http://creativecommons.org/ns#"
   xmlns:dc="http://purl.org/dc/elements/1.1/"
   xmlns:ns="&amp;ns_sfw;"><defs
   id="defs28" /><sodipodi:namedview
   id="namedview26"
   pagecolor="#ffffff"
   bordercolor="#666666"
   borderopacity="1.0"
   inkscape:pageshadow="2"
   inkscape:pageopacity="0.0"
   inkscape:pagecheckerboard="0"
   showgrid="false"
   fit-margin-top="0"
   fit-margin-left="0"
   fit-margin-right="0"
   fit-margin-bottom="0"
   inkscape:zoom="1.0263804"
   inkscape:cx="239.19008"
   inkscape:cy="194.37238"
   inkscape:window-width="1920"
   inkscape:window-height="996"
   inkscape:window-x="0"
   inkscape:window-y="0"
   inkscape:window-maximized="1"
   inkscape:current-layer="Layer_3" />
<metadata
   id="metadata55">
	<rdf:RDF>
		<cc:Work
   rdf:about="">
			<dc:format>image/svg+xml</dc:format>
			<dc:type
   rdf:resource="http://purl.org/dc/dcmitype/StillImage" />
			
		</cc:Work>
	</rdf:RDF>
	<ns:sfw>
		<ns:slices />
		<ns:sliceSourceBounds
   x="-7231"
   y="-7652"
   width="16383"
   height="16383"
   bottomLeftOrigin="true" />
	</ns:sfw>
</metadata>
<path
   id="path864"
   style="fill:#000000"
   d="m 187.48433,0.0215633 c -20.74075,-0.01796 -41.4818,-0.0028 -62.22266,-0.0078 -0.78227,0.143758 -1.79387,0.07055 -2.66191,0.146172 -18.54841,0.782504 -37.103579,5.116426 -53.562338,13.8429147 -0.744437,0.303679 -1.382729,1.016846 -2.232787,0.833179 -1.252617,-0.05945 -2.433468,1.011302 -2.378907,2.285156 -1.151263,1.31167 -1.630216,3.08138 -1.677734,4.796875 C 40.629391,35.041573 22.606754,54.959959 11.811399,78.308467 2.7926996,97.698687 -1.1589657,119.38482 0.29366557,140.71285 1.6847379,161.70691 8.3506562,182.33218 19.574823,200.1333 c 12.927474,20.61281 31.817624,37.44095 53.822552,47.83489 18.548756,8.8072 39.244715,13.0041 59.758735,12.19637 19.90788,-0.73892 39.63151,-6.18419 57.05315,-15.85869 5.62828,-3.09405 11.00699,-6.63926 16.06422,-10.59851 3.24897,-2.49328 7.27198,-3.9205 11.36498,-4.04037 5.053,-0.06 10.10971,-0.002 15.16422,-0.0227 47.51396,0.002 95.02835,-0.0119 142.54202,0.0201 4.6529,0.10323 9.15213,2.02616 12.67251,5.02747 8.94477,6.83753 18.89892,12.3165 29.33565,16.51451 23.18135,9.24836 49.08566,11.47572 73.51446,6.38272 20.69135,-4.24529 40.25443,-13.77682 56.39116,-27.40094 16.42666,-13.80086 29.34674,-31.75913 37.08482,-51.7776 8.45972,-21.73516 10.77715,-45.79862 6.69149,-68.75681 C 587.61434,90.131127 579.5124,71.463237 567.63805,55.597731 557.57912,42.125911 544.86651,30.646484 530.4394,22.013723 c -0.37072,-0.328006 -0.12664,-0.98975 -0.30746,-1.454898 -0.21609,-1.249788 -0.72765,-2.456552 -1.53043,-3.443539 -0.0273,-1.495723 -1.60366,-2.631941 -3.03515,-2.240235 C 512.20414,7.4725743 497.30254,3.0456143 482.17677,1.1433973 c -8.41768,-1.110491 -16.92248,-1.196861 -25.39985,-1.124329 -18.96242,0.0072 -37.92571,-0.03591 -56.88768,0.02581 -3.15448,0.110558 -6.54757,1.149149 -8.49281,3.789158 -30.5332,0 -61.0664,0 -91.5996,0 0,0.741536 -10e-6,1.483073 0,2.224609 -2.10482,0 -4.20964,0 -6.31446,0 0,-0.741536 0,-1.483073 0,-2.224609 -30.61588,0 -61.23177,0 -91.84765,0 -2.05245,-2.72192 -5.59262,-3.775589 -8.87989,-3.786079 -1.75577,-0.07618 -3.51378,-0.03934 -5.2705,-0.02642 z M 138.65229,13.755938 c 48.30012,0.0096 96.60027,9.28e-4 144.90039,0.0039 0,0.741536 0,1.483073 0,2.224609 8.72136,0 17.44271,0 26.16407,0 0,-0.741536 0,-1.483073 0,-2.224609 52.37233,0.0025 104.74492,-0.01329 157.11709,0.01959 3.82012,0.06171 7.83597,0.328383 11.71795,0.77611 1.5585,0.180935 3.33883,0.420872 4.89275,0.672285 11.57728,1.821788 23.07888,5.464032 33.65822,10.704833 20.2763,9.981994 37.56221,25.915888 49.16447,45.310428 9.68833,16.078483 15.40166,34.515856 16.56084,53.249176 0.12532,1.99598 0.21346,4.19685 0.22691,6.27442 0.0294,2.90652 -0.0413,5.82802 -0.21887,8.66145 -0.15433,2.43733 -0.37637,4.92175 -0.67429,7.26122 -0.27849,2.32051 -0.6689,4.83485 -1.12038,7.23279 -0.26973,1.42113 -0.52593,2.71498 -0.85502,4.15891 -3.10006,13.84921 -8.75548,27.11293 -16.56342,38.96199 -0.99942,1.50746 -2.15094,3.16634 -3.26172,4.69531 -1.94188,2.65214 -3.95556,5.18338 -6.07363,7.63988 -3.61556,4.17648 -7.52657,8.09335 -11.67442,11.74098 -1.0219,0.88781 -2.23333,1.91561 -3.35547,2.82617 -4.61112,3.72987 -9.37421,7.04115 -14.46152,10.05014 -1.26328,0.73749 -2.36587,1.37016 -3.67037,2.0743 -15.73069,8.5667 -33.44455,13.42885 -51.33881,14.15681 -0.5933,0.0204 -1.47382,0.057 -2.10303,0.0673 -2.69569,0.0721 -5.5985,0.0244 -8.1626,-0.081 -0.76899,-0.0416 -1.73839,-0.0935 -2.38293,-0.12835 -4.41212,-0.28789 -8.84181,-0.80537 -13.13466,-1.5729 -9.48671,-1.66915 -18.75689,-4.53998 -27.54686,-8.47648 -1.1014,-0.49491 -2.41654,-1.1043 -3.58519,-1.68006 -3.47699,-1.69794 -6.86742,-3.57158 -10.16286,-5.59924 -0.87539,-0.54105 -1.96856,-1.23775 -2.91406,-1.85742 -2.52058,-1.62066 -4.90692,-3.4309 -7.2836,-5.25135 -5.19841,-3.95895 -11.74431,-5.97864 -18.25584,-5.94419 -23.25221,0.0364 -46.50528,0.004 -69.75782,0.0141 -29.01719,0.009 -58.0349,-0.008 -87.05176,0.024 -6.78671,0.15288 -13.42071,2.80643 -18.60822,7.15327 -8.20082,6.21576 -17.28944,11.24159 -26.83567,15.06755 -8.72676,3.48905 -17.87774,5.90806 -27.18365,7.21985 -0.54812,0.0719 -1.42035,0.19145 -2.10104,0.27283 -6.54478,0.79348 -13.1542,1.04375 -19.74076,0.76623 -0.57669,-0.0329 -1.64401,-0.0892 -2.20703,-0.11523 -2.02366,-0.13402 -4.04135,-0.30434 -6.00195,-0.5293 -1.41966,-0.16702 -2.63169,-0.3213 -4.04492,-0.52539 -0.65033,-0.11047 -1.61497,-0.24623 -2.38819,-0.38516 -1.54413,-0.26277 -3.08008,-0.55137 -4.53197,-0.85894 -10.708358,-2.23985 -21.092696,-6.00192 -30.767347,-11.10746 -0.820113,-0.44458 -1.891387,-1.01496 -2.795205,-1.53025 -2.498317,-1.4015 -4.938184,-2.89856 -7.271818,-4.4497 -9.693882,-6.41058 -18.576269,-14.39369 -26.015842,-23.42854 -3.124018,-3.76628 -6.170412,-7.99551 -8.760885,-12.07979 -2.695754,-4.27408 -5.124597,-8.71578 -7.261718,-13.29492 -0.35596,-0.79433 -0.847952,-1.84309 -1.231131,-2.7464 -3.661462,-8.39437 -6.308631,-17.22544 -7.927073,-26.23798 -0.111922,-0.7105 -0.299207,-1.71484 -0.420286,-2.54714 -0.781983,-4.99089 -1.231207,-10.03235 -1.3726818,-15.08176 -0.03154,-1.37295 -0.05402,-2.97732 -0.03529,-4.44217 0.01592,-1.95236 0.07931,-3.84242 0.1983368,-5.83665 0.614278,-10.77431 2.7338,-21.45762 6.258825,-31.656733 0.41736,-1.18185 0.917759,-2.59021 1.408347,-3.84652 5.363112,-13.977556 13.458486,-26.88702 23.632668,-37.864418 2.600734,-2.793328 5.458997,-5.60966 8.377794,-8.183194 1.616124,-1.432522 3.121887,-2.696111 4.838272,-4.063079 13.95273,-11.117709 30.626432,-19.105615 48.138054,-22.899862 2.93338,-0.654006 5.89691,-1.163579 8.8705,-1.596052 0.40731,-0.04729 1.19087,-0.153042 1.7422,-0.22271 3.06019,-0.388656 6.134,-0.648988 9.15544,-0.791246 5.35865,-0.208212 10.72678,-0.112904 16.08868,-0.144247 z m 322.67188,3.61914 c -20.59991,0.67264 -40.97575,7.074482 -58.24805,18.324219 -18.64328,12.091591 -33.67305,29.69237 -42.59634,50.05124 -8.84156,20.041413 -11.6845,42.651053 -8.19274,64.268793 3.00371,18.82974 10.83686,36.86066 22.56022,51.89979 13.1891,17.00436 31.23417,30.21304 51.48672,37.5155 23.46837,8.51783 49.73976,9.07317 73.53438,1.50121 17.11175,-5.38684 32.88725,-14.90706 45.66834,-27.49157 2.27449,-2.23728 4.45721,-4.56774 6.54137,-6.98324 1.02276,0.12245 1.90475,-0.74573 2.27037,-1.6489 1.8934,-3.00387 3.73424,-6.04293 5.81066,-8.92625 11.80135,-17.36458 18.63542,-38.04974 19.50893,-59.02639 0.85526,-19.12634 -3.13764,-38.461353 -11.62974,-55.629463 -10.29406,-20.92557 -27.1349,-38.560856 -47.57891,-49.785339 -16.92627,-9.352781 -36.26811,-14.246859 -55.60237,-14.143388 -1.17762,-0.0079 -2.35523,-0.01586 -3.53284,-0.02387 z m 4.1289,9.857422 c 5.39779,0.0059 10.92123,0.435081 16.17579,1.263672 3.78674,0.594303 7.58632,1.402825 11.34119,2.430307 0.74442,0.203852 1.68851,0.469444 2.2992,0.656084 8.52902,2.54336 16.72273,6.193817 24.32445,10.821812 0.52514,0.337158 1.33408,0.818725 1.96104,1.2322 1.61165,1.030055 3.2682,2.155483 4.73449,3.214551 12.9378,9.276716 23.69786,21.556872 31.21267,35.590361 0.2295,0.43086 0.61839,1.18182 0.90897,1.73532 1.90208,3.71905 3.58163,7.55103 5.02853,11.46976 0.51258,1.40338 1.07247,3.03317 1.55287,4.540883 2.78845,8.81917 4.38733,18.00932 4.7694,27.25013 0.0251,0.76142 0.0661,1.82717 0.072,2.70654 0.05,3.21515 -0.0553,6.43188 -0.28096,9.63916 -0.0667,0.85832 -0.16723,2.0051 -0.26964,2.97123 -0.16395,1.54338 -0.34644,3.02117 -0.56765,4.48769 -0.22679,1.49494 -0.47846,2.993 -0.75152,4.38956 -0.72267,3.75807 -1.71089,7.68363 -2.88189,11.42106 -2.53408,8.07265 -6.04849,15.83771 -10.46289,23.05664 -0.63981,1.02679 -1.40635,2.26249 -2.13344,3.34699 -0.37793,0.34091 -0.49108,1.23491 -1.08161,1.14262 -3.60322,-0.30586 -7.17095,2.44602 -7.72228,6.03507 -0.23652,1.2851 -0.0983,2.63851 0.39631,3.84836 -3.10646,3.5649 -6.55671,7.00178 -10.05468,10.0586 -14.67383,12.85393 -33.00978,21.48995 -52.29189,24.49714 -6.98199,1.10334 -14.07477,1.48248 -21.13585,1.17864 -0.6561,-0.0433 -1.61942,-0.0796 -2.40098,-0.13728 -3.93134,-0.25696 -8.04976,-0.77106 -12.01047,-1.50518 -1.85707,-0.34148 -3.67478,-0.7303 -5.56285,-1.18501 -6.53068,-1.57992 -12.90526,-3.80002 -19.01007,-6.60613 -0.82492,-0.38027 -1.86908,-0.8742 -2.68775,-1.28744 -1.57465,-0.77824 -3.26945,-1.67386 -4.79434,-2.53392 -7.42856,-4.18224 -14.3518,-9.26513 -20.55112,-15.11809 -1.42816,-1.34526 -2.95463,-2.87714 -4.35937,-4.35547 -14.54398,-15.38395 -24.27816,-35.27622 -27.31971,-56.24013 -3.06546,-20.53388 0.0771,-41.9812 9.12377,-60.685173 4.28758,-8.91419 9.85055,-17.210972 16.44985,-24.578604 0.48465,-0.531564 1.17141,-1.2967 1.75241,-1.903164 7.53178,-8.000848 16.33628,-14.798669 25.97415,-20.075351 1.45412,-0.788448 3.11207,-1.653478 4.67854,-2.408424 9.16797,-4.441042 18.9982,-7.503212 29.05974,-9.089623 1.29438,-0.199327 2.82365,-0.410253 4.21484,-0.576172 2.90065,-0.33265 5.89255,-0.549176 8.72267,-0.640698 1.19226,-0.0405 2.38523,-0.05269 3.57811,-0.05852 z m -2.25195,29.296875 c -1.14017,0.09089 -2.31637,0.06162 -3.43445,0.231313 -0.67317,0.285809 -1.46828,0.250497 -2.18078,0.462047 -5.50064,1.145239 -10.60693,3.829126 -14.88816,7.437992 -18.24836,14.23112 -36.53042,28.42039 -54.74623,42.692353 -7.53799,6.30864 -11.88338,16.18297 -11.53082,25.99841 0.25321,9.58679 5.00448,18.93134 12.60139,24.78541 7.31591,5.7133 17.12277,8.08682 26.23797,6.30416 5.68895,-1.06352 11.01346,-3.73816 15.42894,-7.45697 18.30415,-14.26826 36.64164,-28.49346 54.91208,-42.80194 7.62768,-6.37969 11.98399,-16.411523 11.51918,-26.336793 -0.34971,-9.29666 -4.91002,-18.330624 -12.19074,-24.124874 -6.07395,-4.890362 -13.93588,-7.492055 -21.72838,-7.191108 z M 127.0644,60.962969 c -15.2482,0.33714 -30.321433,5.812689 -42.2295,15.343931 -12.507456,9.932127 -21.523037,24.19702 -24.980929,39.8018 -3.683297,16.31362 -1.378396,33.92364 6.522929,48.67849 7.654462,14.43965 20.457351,26.07489 35.58721,32.26654 16.23747,6.71183 34.99349,7.04093 51.45499,0.89863 14.96913,-5.53777 27.93305,-16.3004 36.11366,-30.00713 7.47511,-12.4094 10.95448,-27.16215 9.83732,-41.6044 C 198.3786,112.8023 193.36811,99.592177 185.11128,88.814527 175.5631,76.282382 161.75,67.040979 146.46618,63.162407 140.14026,61.54071 133.59249,60.809315 127.0644,60.962969 Z m 1.78125,9.904297 c 10.90203,-0.02618 21.78625,2.978843 31.14649,8.564451 0.53599,0.32715 1.349,0.82551 1.97851,1.23633 13.24094,8.5673 22.94097,22.461023 26.25932,37.892733 3.17036,14.3577 0.96856,29.86155 -6.27327,42.67837 -0.46074,0.82702 -0.94962,1.6379 -1.44503,2.44453 -0.27452,0.43831 -0.74257,1.17291 -1.10978,1.71251 -7.54837,11.34066 -19.00829,20.02379 -32.0058,24.13047 -4.17115,1.33603 -8.48741,2.21458 -12.84731,2.62967 -0.58387,0.0555 -1.50758,0.12552 -2.22267,0.16729 -11.60527,0.68012 -23.38065,-2.05304 -33.484463,-7.80625 -12.219489,-6.89934 -21.873288,-18.17781 -26.84198,-31.29816 -5.548384,-14.50632 -5.199032,-31.13838 0.90653,-45.41444 0.152528,-0.34659 0.454397,-1.05202 0.682534,-1.53253 5.038213,-11.016103 13.488673,-20.411253 23.84481,-26.680363 0.338619,-0.20011 1.004216,-0.60336 1.479706,-0.86565 9.075813,-5.15745 19.497893,-7.867519 29.932403,-7.858961 z m 335.33789,1.90039 c 6.53513,-0.164316 12.90548,3.927535 15.53279,9.903291 2.63865,5.75654 1.67311,12.97866 -2.47078,17.786323 -3.2659,3.87818 -8.35374,6.19078 -13.4331,5.96469 -5.17427,-0.0882 -10.33205,-2.9097 -13.2832,-7.224613 -3.92909,-5.55111 -3.95465,-13.51643 -0.0627,-19.0918 3.01204,-4.480752 8.31109,-7.340542 13.71698,-7.337891 z m -328.83398,3.066407 c -6.84036,0.0043 -13.68251,-0.03531 -20.52178,0.02173 -4.66898,0.307627 -8.77358,4.479444 -8.81221,9.195064 -0.0871,3.39957 0.001,6.80186 -0.0332,10.20274 0,4.33151 0,8.663023 0,12.994533 -7.913203,0.0203 -15.829206,-0.0527 -23.740619,0.0491 -4.848395,0.37794 -8.943126,4.94812 -8.693808,9.82437 -0.004,9.36679 -0.05158,18.73563 0.02232,28.10117 0.335076,4.82505 4.817069,8.98787 9.683212,8.79131 7.575779,0.0586 15.152652,0.007 22.728895,0.0251 0.0213,7.92283 -0.0548,15.84857 0.0508,23.76954 0.39198,4.76192 4.83569,8.82164 9.64025,8.62334 7.22292,0.0579 14.44692,0.005 21.6703,0.0275 2.08044,-0.0439 4.17248,0.0647 6.24482,-0.11498 4.5482,-0.64448 8.29444,-4.95241 8.11094,-9.57647 0.0586,-7.57578 0.007,-15.15266 0.0251,-22.7289 7.91256,-0.0202 15.82789,0.0526 23.73867,-0.049 4.84918,-0.37808 8.94351,-4.94969 8.6938,-9.82644 0.004,-9.36679 0.0516,-18.73563 -0.0223,-28.10117 -0.33386,-4.82483 -4.81646,-8.98489 -9.68126,-8.78936 -7.57578,-0.0586 -15.15266,-0.007 -22.7289,-0.0251 -0.0213,-7.92283 0.0548,-15.848573 -0.0508,-23.769533 -0.39142,-4.76261 -4.83589,-8.821971 -9.64024,-8.625301 -2.22751,-0.05045 -4.45611,-0.02676 -6.68398,-0.01923 z m 304.04883,4.189454 c -2.9162,7.51893 -2.20574,16.35414 1.99258,23.255093 3.85344,6.53241 10.58661,11.29862 18.06512,12.63466 2.43059,0.45191 4.92442,0.55657 7.38566,0.329 -10.84375,8.44857 -21.6875,16.89713 -32.53125,25.3457 2.67911,-7.4139 1.82663,-16.00207 -2.30948,-22.71985 -4.02088,-6.76822 -11.16959,-11.57338 -18.9727,-12.67019 -2.45557,-0.36028 -4.961,-0.38836 -7.4229,-0.0709 11.30224,-8.798803 22.6019,-17.601003 33.9082,-26.394533 -0.0384,0.097 -0.0768,0.19401 -0.11523,0.29102 z m -321.39258,8.30273 c 1.06536,0.0333 2.13444,0.004 3.20117,0.0137 -1.01843,2.18308 -2.16229,4.52062 -3.23437,6.76758 4.8e-4,-2.2585 -8e-4,-4.53256 0.0332,-6.78125 z m 21.7168,0.0137 c -0.009,2.24569 -0.001,4.49226 -0.004,6.73829 -1.07878,-2.2461 -2.15755,-4.49219 -3.23633,-6.73829 1.08008,0 2.16016,0 3.24024,0 z m -7.125,14.853523 c -2.49675,0 -4.99349,0 -7.49024,0 1.24805,-2.61068 2.4961,-5.221353 3.74414,-7.832033 1.2487,2.61068 2.4974,5.221353 3.7461,7.832033 z m 387.70507,-4.615233 c -7.2988,0.24129 -14.4423,3.056173 -20.03116,7.740863 -18.41149,14.35969 -36.85985,28.67347 -55.23799,43.07503 -7.54191,6.31192 -11.88826,16.19356 -11.5297,26.014 0.25296,9.32116 4.74914,18.41358 11.99139,24.28527 7.42482,6.09715 17.61052,8.65386 27.03216,6.75362 5.62081,-1.08679 10.87694,-3.7448 15.24677,-7.421 18.27497,-14.24452 36.58138,-28.44959 54.8305,-42.7267 7.58555,-6.30605 11.96416,-16.21461 11.60937,-26.06468 -0.25195,-9.50302 -4.91961,-18.76717 -12.40286,-24.62942 -6.04156,-4.78452 -13.80634,-7.325843 -21.50848,-7.026983 z M 118.02339,112.20519 c 1.57055,0.91011 3.41508,0.99312 5.18203,0.91286 4.60132,-0.0258 9.20769,0.0649 13.80573,-0.0572 0.94614,-0.10704 1.86645,-0.4102 2.70364,-0.86156 0.036,1.88656 -0.165,3.93182 0.96094,5.57617 1.27341,2.07589 3.7555,3.21392 6.15976,3.00297 0.3954,0.13788 1.74414,-0.31675 1.30231,0.33544 -1.08831,1.99972 -0.71719,4.31828 -0.77359,6.4944 0.0161,4.06919 -0.0612,8.14415 0.0577,12.2096 0.10911,0.93741 0.40726,1.85036 0.85926,2.6783 -1.91749,0.0184 -4.0007,-0.13919 -5.65039,1.03515 -2.00637,1.25891 -3.11475,3.6646 -2.90562,6.00703 -0.11618,0.3965 0.22985,1.56563 -0.17641,1.47539 -1.54007,-0.85903 -3.32867,-0.92137 -5.04531,-0.84646 -4.60188,0.0272 -9.20951,-0.0677 -13.80766,0.0594 -0.95095,0.10914 -1.87688,0.41526 -2.71539,0.87499 -0.0326,-1.94176 0.16781,-4.06296 -1.03655,-5.73123 -1.23865,-1.95276 -3.58561,-3.02288 -5.87147,-2.85067 -0.51717,-0.0412 -1.22642,0.0311 -1.62909,-0.0665 0.90089,-1.55197 0.97701,-3.37606 0.90106,-5.12188 -0.0267,-4.61217 0.0674,-9.23007 -0.0593,-13.8385 -0.11083,-0.94593 -0.41458,-1.8665 -0.87103,-2.70173 2.01078,-0.0427 4.22477,0.21232 5.94227,-1.06687 1.81969,-1.18857 2.79606,-3.39934 2.6104,-5.54561 0.004,-0.66693 0.0123,-1.33385 0.01,-2.0008 z m 403.40429,2.59961 c 6.4655,-0.0976 12.74669,3.94394 15.36833,9.84985 2.67326,5.77472 1.71063,13.04407 -2.46646,17.86545 -5.53632,6.7962 -16.36167,7.96775 -23.16586,2.43815 -4.50899,-3.39214 -7.01544,-9.18579 -6.46252,-14.79417 0.4249,-5.808 4.16909,-11.19753 9.43187,-13.67402 2.26174,-1.09993 4.77645,-1.70063 7.29464,-1.68526 z m -393.34179,0.22265 c -6.51319,0.21548 -12.62738,4.682 -14.83581,10.81053 -2.2494,5.872 -0.76531,12.96509 3.68499,17.41748 4.33005,4.52219 11.3314,6.21686 17.24455,4.14146 6.06667,-2.00272 10.7006,-7.76427 11.24384,-14.14675 0.65836,-6.19453 -2.53602,-12.60213 -7.89472,-15.78673 -2.8099,-1.73153 -6.14764,-2.58105 -9.44285,-2.43599 z m 281.45117,0.81055 c 6.53413,0.0708 12.74887,4.40085 15.1512,10.46718 2.36291,5.72958 1.25763,12.73748 -2.86683,17.38905 -3.24222,3.78273 -8.36028,6.01649 -13.26093,5.79416 -6.50155,-0.10494 -12.6739,-4.41216 -15.07277,-10.44751 -2.33711,-5.6596 -1.30194,-12.56902 2.70521,-17.22355 3.242,-3.86041 8.29229,-6.17853 13.34412,-5.97933 z m -150.17188,4.6113 c -3.35929,0.5476 -6.88058,0.47414 -10.05872,1.83647 -2.51889,0.96839 -4.65761,2.65641 -6.65035,4.43626 -8.06565,6.78403 -16.17625,13.51314 -24.19452,20.35129 -4.91598,4.62498 -6.69179,12.22622 -4.36299,18.55894 2.17787,6.27569 8.19398,11.00987 14.82251,11.58344 5.04053,0.53227 10.22534,-1.28605 13.92065,-4.73612 8.41318,-7.07172 16.88147,-14.07827 25.24537,-21.20703 4.99135,-4.69278 6.73932,-12.4523 4.26203,-18.83846 -1.77128,-4.77342 -5.7398,-8.66024 -10.52694,-10.37932 0.1212,-0.6854 -0.35715,-1.01038 -0.89649,-1.29883 -0.41605,-0.39747 -1.0298,-0.3716 -1.56055,-0.30664 z m -173.603514,0.33203 c 2.179909,0.0137 4.360749,0.002 6.541015,0.006 -2.258769,1.08576 -4.520851,2.15943 -6.77539,3.25586 -0.0034,-1.09253 -0.0077,-2.18522 0.02734,-3.27734 0.06901,0.005 0.13802,0.0104 0.207031,0.0156 z m 86.412114,0.006 c -0.014,1.07401 -0.002,2.1499 -0.006,3.22461 -2.2423,-1.07961 -4.49879,-2.13623 -6.73828,-3.22461 2.24804,0 4.49609,0 6.74414,0 z m 146.01953,0.23633 c -4.41483,0.11227 -8.64571,2.08744 -11.83823,5.09077 -8.30722,6.98649 -16.6597,13.91772 -24.91888,20.95903 -4.99462,4.69472 -6.74097,12.46139 -4.25649,18.84834 2.26468,6.16595 8.2499,10.77171 14.80949,11.30172 5.04757,0.51172 10.21711,-1.34747 13.90378,-4.80807 8.38536,-7.04922 16.8232,-14.03854 25.16095,-21.14276 4.91686,-4.62706 6.69498,-12.22995 4.36301,-18.56481 -2.21889,-6.38994 -8.41683,-11.17886 -15.17814,-11.63102 -0.67973,-0.0606 -1.3635,-0.0675 -2.04549,-0.0532 z m 178.2832,1.03711 c -2.82895,7.28894 -2.26126,15.81941 1.62315,22.61855 3.67962,6.62469 10.26999,11.56297 17.69664,13.12429 2.6709,0.57293 5.42907,0.73119 8.14896,0.48177 -10.85742,8.45768 -21.71484,16.91536 -32.57226,25.37304 2.70937,-7.46355 1.82519,-16.11879 -2.36218,-22.86873 -4.03394,-6.71703 -11.15765,-11.47907 -18.92789,-12.55402 -2.44718,-0.3562 -4.9426,-0.38034 -7.39548,-0.0636 11.29854,-8.79178 22.59492,-17.58649 33.89453,-26.37696 -0.0351,0.0885 -0.0703,0.17709 -0.10547,0.26563 z m -367.22656,2.89048 c 3.43365,0.11951 6.4159,3.26733 6.33271,6.70742 0.0162,3.22253 -2.54918,6.24375 -5.77176,6.62545 -2.86097,0.42782 -5.9018,-1.15509 -7.07323,-3.8242 -1.34213,-2.88418 -0.36346,-6.66952 2.36016,-8.38743 1.21298,-0.81498 2.69406,-1.21182 4.15212,-1.12124 z m 35.87305,6.69727 c -2.61524,1.25586 -5.23047,2.51172 -7.84571,3.76758 0,-2.50651 0,-5.01302 0,-7.51953 2.61524,1.25065 5.23047,2.5013 7.84571,3.75195 z m -64.70313,3.76562 c -2.606121,-1.2513 -5.212241,-2.5026 -7.818361,-3.7539 2.60612,-1.25196 5.21224,-2.50391 7.818361,-3.75586 0,2.50325 0,5.00651 0,7.50976 z m 155.86133,0.31641 c 1.96272,0.22711 3.21213,2.71991 2.07617,4.38281 -0.78482,1.13489 -2.04408,1.8153 -3.02991,2.7588 -7.7409,6.46254 -15.43173,12.98873 -23.21964,19.39147 -1.67925,1.04269 -4.18318,-0.15828 -4.32857,-2.15613 -0.16635,-1.26023 0.5821,-2.41657 1.60587,-3.08483 8.32386,-6.95909 16.61206,-13.96213 24.97259,-20.87517 0.5669,-0.36033 1.25932,-0.49736 1.92349,-0.41695 z m 62.98633,0.004 c 1.97871,0.23225 3.20831,2.76926 2.03711,4.42382 -0.82176,1.1253 -2.07979,1.82622 -3.08118,2.7781 -7.69765,6.43147 -15.35564,12.91214 -23.08971,19.29779 -1.64384,1.06475 -4.15759,-0.0542 -4.36528,-2.03139 -0.21932,-1.28812 0.53901,-2.4983 1.59124,-3.18014 8.32198,-6.95912 16.60913,-13.9612 24.9687,-20.87319 0.57258,-0.3654 1.26852,-0.49668 1.93912,-0.41499 z m -147.09961,6.77343 c -2.25496,-0.0184 -4.51187,-0.002 -6.76758,-0.008 2.2572,-1.08007 4.51237,-2.16355 6.76758,-3.24805 0,1.08529 0,2.17058 0,3.25586 z m -86.414067,-3.11914 c 2.183984,1.02519 4.358551,2.07609 6.53711,3.11524 -2.258514,0.004 -4.51697,-0.007 -6.775391,-0.0273 0.0332,-1.06794 0.0036,-2.13965 0.01367,-3.20898 0.07487,0.0404 0.149739,0.0807 0.224609,0.12109 z m 380.886717,18.49414 c 6.54847,0.0673 12.77021,4.43079 15.14735,10.5207 2.32661,5.72617 1.22057,12.71341 -2.90488,17.34729 -3.71073,4.31723 -9.70628,6.49263 -15.32378,5.56813 -6.07554,-0.91127 -11.45993,-5.41123 -13.34968,-11.27084 -1.86285,-5.54127 -0.62636,-12.02077 3.27066,-16.40426 3.24927,-3.72867 8.2026,-5.95689 13.16033,-5.76102 z m -334.04296,2.20899 c -1.24935,2.61263 -2.4987,5.22526 -3.74805,7.83789 -1.2526,-2.61263 -2.50521,-5.22526 -3.75781,-7.83789 2.50195,0 5.0039,0 7.50586,0 z m -13.35547,10.75195 c 0.66004,1.3681 1.30848,2.74347 1.98242,4.10547 -1.08926,0.003 -2.1787,0.009 -3.26758,-0.0254 0.0455,-2.24334 0.007,-4.48982 0.0195,-6.73438 0.42188,0.88477 0.84375,1.76954 1.26563,2.6543 z m 20.47656,4.10742 c -1.06924,-0.009 -2.1394,-10e-4 -3.20898,-0.004 1.06966,-2.23633 2.13932,-4.47266 3.20898,-6.70899 0,2.23763 0,4.47526 0,6.71289 z" /><path
   id="path3"
   d="m 129.26167,4.0137503 v 0.002 c -22.057,0 -42.806645,4.732469 -60.806645,14.8554687 -0.007,0.004 -0.0213,-0.004 -0.0293,0 v 0.0293 c -0.983,0.542 -1.520906,1.496547 -1.628906,2.435547 -0.09731,0.851702 -0.02728,1.759394 -0.0098,2.847656 C 29.321832,45.570325 4.0058066,85.811177 4.0058066,132.03133 c 0,68.594 55.6345624,124.22656 124.2265634,124.22656 27.078,0 52.12316,-8.65618 72.53516,-23.36718 l 0.0293,-0.0293 2.55664,-1.95508 v -0.0293 h 0.0293 c 4.11,-3.281 9.30261,-5.23242 14.97461,-5.23242 h 45.83008 64.62695 45.83008 c 5.674,0 10.86561,1.95142 14.97461,5.23242 h 0.0312 v 0.0293 l 2.55469,1.95508 0.0312,0.0293 c 20.411,14.711 45.4562,23.36718 72.5332,23.36718 68.595,0 124.22656,-55.63456 124.22656,-124.22656 0,-46.218983 -25.31324,-86.45665 -62.77539,-107.843752 0.0174,-1.090191 0.0896,-1.996821 -0.008,-2.849609 -0.108,-0.94 -0.646,-1.8955 -1.625,-2.4375 -0.007,-0.004 0.007,-0.0263 0,-0.0293 -0.008,-0.004 -0.0223,0.004 -0.0293,0 C 506.55226,8.7481693 485.80372,4.0157003 463.74772,4.0157003 h -62.63282 -0.008 c -1.49324,4.29e-4 -3.21013,0.127356 -4.68164,0.78125 -1.21161,0.538404 -2.24923,1.585749 -2.58398,3.03711 h -64.09375 -24.99024 -0.96093 v 0.96289 1.2617187 H 289.4819 v -1.2617187 -0.96289 h -0.96289 -25.25976 -64.08594 c -0.33478,-1.451361 -1.37155,-2.498706 -2.58399,-3.03711 -1.481,-0.654 -3.20431,-0.783203 -4.69531,-0.783203 z m 0,1.925781 h 62.63867 c 1.36,0 2.8742,0.17186 3.9082,0.63086 0.70327,0.312184 1.15432,0.676554 1.38282,1.263672 h -68.95703 -0.002 c -21.5764,0 -41.861195,5.5177087 -59.544923,15.1953117 -0.02055,-0.617003 -0.03529,-1.142309 0.0039,-1.482422 0.068,-0.59 0.09511,-0.689187 0.66211,-0.992187 h 0.03125 c 17.677,-9.946 38.080953,-14.6152347 59.876953,-14.6152347 z m 271.85156,0 h 62.63867 c 21.793,0 42.19605,4.6701877 59.87305,14.6171877 h 0.0312 c 0.566,0.303 0.59316,0.402187 0.66016,0.992187 0.0393,0.34133 0.0265,0.865903 0.006,1.484375 C 506.63655,13.353285 486.349,7.8340633 464.76948,7.8340633 h -68.94336 c 0.22879,-0.585886 0.6784,-0.949894 1.38086,-1.261719 1.029,-0.459 2.54025,-0.632813 3.90625,-0.632813 z m -272.88086,3.820313 h 135.02344 24.29687 v 1.2636717 0.960937 h 0.96289 16.23829 0.96289 V 11.023516 9.7598443 h 24.02734 135.02148 c 67.55601,0 122.30079,54.7204837 122.30079,122.2714857 0,67.555 -54.74879,122.30078 -122.30079,122.30078 -26.65699,0 -51.29857,-8.53086 -71.39257,-23.00586 h -0.0293 l -2.52539,-1.95312 c -4.438,-3.543 -10.06269,-5.6543 -16.17969,-5.6543 H 328.80854 264.1855 218.35347 c -6.117,0 -11.74074,2.1113 -16.17774,5.6543 l -2.52539,1.95312 h -0.0312 c -20.084,14.483 -44.71877,23.00977 -71.38476,23.00977 -67.552008,0 -122.300789,-54.74578 -122.300789,-122.30078 0,-67.552006 54.749781,-122.2714897 122.300789,-122.2714897 z m 337.0918,11.5449217 v 0.002 h -0.002 c -61.001,0 -110.48243,49.487375 -110.48243,110.484374 0,61 49.48343,110.45508 110.48243,110.45508 34.631,0 65.54187,-15.92415 85.79687,-40.86915 l 0.0879,-0.11914 0.0625,-0.12109 0.21094,-0.51172 0.48047,-1.14258 -1.23242,-0.18164 c -0.691,-0.095 -1.23243,-0.65681 -1.23243,-1.38281 0,-0.795 0.61811,-1.41406 1.41211,-1.41406 0.663,0 1.22177,0.42748 1.38477,1.02148 l 0.57031,2.13672 1.17383,-1.86328 0.54101,-0.90234 0.0293,-0.0606 c 13.317,-18.248 21.17188,-40.73188 21.17188,-65.04688 0,-60.999992 -49.45508,-110.484367 -110.45508,-110.484367 z m -0.002,1.925781 c 59.96,0 108.52929,48.604547 108.52929,108.560553 0,23.837 -7.69575,45.84795 -20.71875,63.75195 -0.6,-0.564 -1.34356,-0.96289 -2.22656,-0.96289 -1.834,0 -3.33789,1.50784 -3.33789,3.33984 0,1.184 0.74359,2.05153 1.68359,2.64453 -19.908,24.258 -50.09764,39.75782 -83.93164,39.75782 -59.96,0 -108.56054,-48.57125 -108.56054,-108.53125 0,-59.960006 48.60354,-108.5586 108.56054,-108.5586 z m -1.16211,37.279297 c -0.57544,0.0043 -1.14961,0.02759 -1.72461,0.06641 v 0.0059 c -5.524,0.373001 -10.97978,2.330376 -15.67578,5.984376 l -55.27344,43.06445 c -12.508,9.742 -14.76349,27.81917 -5.02149,40.32617 9.742,12.509 27.81913,14.73319 40.32813,4.99219 l 55.27344,-43.04492 c 12.51,-9.739 14.76343,-27.813268 5.02343,-40.322266 C 481.37943,64.25278 472.79158,60.44541 464.16006,60.509889 Z m 0.0351,1.90625 c 8.04997,-0.06218 16.03274,3.497265 21.36524,10.345703 9.104,11.689 6.99854,28.519093 -4.68946,37.621093 l -55.27343,43.0625 c -11.688,9.103 -28.5191,6.9966 -37.6211,-4.6914 -9.104,-11.689 -6.99659,-28.5171 4.69141,-37.6211 l 55.27344,-43.033202 c 4.382,-3.413 9.49553,-5.274047 14.64453,-5.623047 0.5365,-0.03644 1.07271,-0.0564 1.60937,-0.06055 z m -335.35742,2.525391 c -36.827002,0 -66.699221,29.875172 -66.699221,66.701175 0,36.827 29.873219,66.70117 66.699221,66.70117 36.827,0 66.73047,-29.87617 66.73047,-66.70117 0,-36.827003 -29.90247,-66.701176 -66.73047,-66.701175 z m 335.52149,1.896484 c -12.55901,0 -22.73438,10.203672 -22.73438,22.763668 0,12.557003 10.17638,22.765633 22.73438,22.765633 12.55799,0 22.76562,-10.20863 22.76562,-22.765633 0,-12.559996 -10.20762,-22.763668 -22.76562,-22.763668 z m -335.52149,0.0293 c 35.787,0 64.80664,28.988441 64.80664,64.773441 0,35.786 -29.01964,64.77734 -64.80664,64.77734 -35.787002,0 -64.775393,-28.99134 -64.775393,-64.77734 10e-4,-35.787 28.990391,-64.773441 64.775393,-64.773441 z m 335.52159,1.894528 c 11.518,0 20.83984,9.32184 20.83984,20.83984 0,11.518003 -9.32185,20.837893 -20.83984,20.837893 -11.518,0 -20.81055,-9.31989 -20.81055,-20.837893 10e-4,-11.518 9.29155,-20.83984 20.81055,-20.83984 z m -348.75391,11.06641 c -3.101,0 -5.62305,2.524 -5.62305,5.625 v 26.222653 c 0,0.3016 -0.0233,0.45332 -0.0293,0.51953 -0.0725,0.0163 -0.23922,0.0527 -0.60156,0.0527 H 83.187447 c -3.1,0 -5.654297,2.55134 -5.654297,5.65234 v 27.48438 c 0,3.102 2.554297,5.65429 5.654297,5.65429 h 26.074223 c 0.456,0 0.60486,0.0981 0.63086,0.1211 0.025,0.023 0.0898,0.0825 0.0898,0.48047 v 26.19336 c 0,3.102 2.524,5.62304 5.625,5.62304 h 26.49414 c 3.1,0 5.62305,-2.52104 5.62305,-5.62304 v -26.25391 c 0,-0.293 0.0478,-0.37992 0.0898,-0.41992 0.042,-0.041 0.18227,-0.1221 0.57227,-0.1211 h 26.13281 c 3.1,0 5.65235,-2.55329 5.65235,-5.65429 v -27.48438 c 0,-3.1 -2.55235,-5.65234 -5.65235,-5.65234 h -26.16406 c -0.319,0 -0.45272,-0.0631 -0.51172,-0.1211 -0.059,-0.059 -0.11914,-0.15617 -0.11914,-0.45117 V 85.453167 c 0,-3.1 -2.524,-5.625 -5.625,-5.625 z m 0,1.92382 h 26.49414 c 2.06,0 3.69922,1.63922 3.69922,3.69922 v 26.222663 c 0,0.677 0.2094,1.36098 0.6914,1.83398 0.481,0.472 1.17824,0.66211 1.86524,0.66211 h 26.16406 c 2.06,0 3.72852,1.66852 3.72852,3.72852 v 27.48437 c 0,2.06 -1.66852,3.72852 -3.72852,3.72852 h -26.13281 c -0.716,0 -1.40353,0.18911 -1.89453,0.66211 -0.491,0.476 -0.69141,1.16069 -0.69141,1.80469 v 26.2539 c 0,2.06 -1.64022,3.69727 -3.69922,3.69727 h -26.49414 c -2.06,0 -3.69922,-1.63827 -3.69922,-3.69727 v -26.19336 c 0,-0.704 -0.1917,-1.44078 -0.7207,-1.92578 -0.529,-0.485 -1.21378,-0.60156 -1.92578,-0.60156 H 83.1894 c -2.06,0 -3.728516,-1.66852 -3.728515,-3.72852 v -27.48437 c 0,-2.06 1.668515,-3.72852 3.728515,-3.72852 h 26.16211 c 0.828,0 1.56917,-0.10936 2.07617,-0.69336 0.507,-0.583 0.48047,-1.21173 0.48047,-1.80273 V 85.451247 c 0,-2.06 1.63827,-3.70022 3.69727,-3.69922 z m 2.07031,0.66211 c -3.101,0 -5.62305,2.525 -5.62305,5.625 V 114.2618 c 0,0.32097 -0.0279,0.48462 -0.0312,0.55078 -0.0739,0.0163 -0.24105,0.0488 -0.5996,0.0488 H 85.257759 c -3.099999,0 -5.654296,2.525 -5.654296,5.625 v 22.31445 c 0,3.1 2.554297,5.62305 5.654296,5.62305 h 26.072271 c 0.457,0 0.60586,0.0991 0.63086,0.12109 0.025,0.022 0.0918,0.11177 0.0918,0.50977 v 26.19336 c 0,3.102 2.52205,5.625 5.62305,5.625 h 22.34375 c 3.1,0 5.625,-2.523 5.625,-5.625 v -26.28125 c 0,-0.294 0.0478,-0.35063 0.0898,-0.39063 0.042,-0.041 0.18231,-0.15039 0.57031,-0.15039 h 26.13281 c 3.1,0 5.6543,-2.524 5.6543,-5.625 v -22.31445 c 0,-3.1 -2.5543,-5.62305 -5.6543,-5.62305 H 146.2753 c -0.32,0 -0.45272,-0.0924 -0.51172,-0.15039 -0.059,-0.057 -0.12109,-0.15417 -0.12109,-0.45117 V 88.041067 c 0,-3.101 -2.52305,-5.625 -5.62305,-5.625 z m 0,1.92578 h 22.34375 c 2.06,0 3.69922,1.63922 3.69922,3.69922 V 114.2618 c 0,0.678 0.20941,1.35998 0.69141,1.83398 0.481,0.473 1.18023,0.69141 1.86523,0.69141 h 26.16406 c 2.06,0 3.72852,1.63922 3.72852,3.69922 v 22.31445 c 0,2.06 -1.66852,3.69922 -3.72852,3.69922 h -26.13476 c -0.714,0 -1.40353,0.21545 -1.89453,0.68945 -0.491,0.476 -0.69141,1.1304 -0.69141,1.77539 v 26.28321 c 0,2.061 -1.63822,3.69922 -3.69922,3.69922 h -22.34375 c -2.06,0 -3.69922,-1.63922 -3.69922,-3.69922 v -26.19336 c 0,-0.705 -0.19365,-1.43883 -0.72265,-1.92383 -0.529,-0.484 -1.21379,-0.63086 -1.92579,-0.63086 H 85.257759 c -2.060999,0 -3.728515,-1.63922 -3.728515,-3.69922 v -22.3164 c 0,-2.06 1.668515,-3.69727 3.728515,-3.69727 h 26.164071 c 0.828,0 1.56721,-0.10841 2.07421,-0.69141 0.507,-0.584 0.48047,-1.24398 0.48047,-1.83398 V 88.039137 c 10e-4,-2.061 1.63922,-3.69922 3.69922,-3.69922 z m 11.16211,2.22461 c -1.408,0 -2.63834,0.79608 -3.27734,1.95508 v 0.0293 l -0.0293,0.0312 -7.27734,15.214843 c -0.225,0.482 -0.36133,1.02775 -0.36133,1.59375 0,2.061 1.69976,3.73047 3.75976,3.73047 h 14.4043 c 2.061,0 3.75781,-1.66947 3.75781,-3.73047 0,-0.573 -0.13037,-1.13704 -0.35937,-1.62304 l -7.33789,-15.277353 -0.0293,-0.0605 -0.0312,-0.0293 c -0.657,-1.09 -1.86075,-1.83499 -3.21875,-1.83399 z m 0,1.92383 c 0.656,0 1.2395,0.36405 1.5625,0.87305 l 0.0312,0.0293 7.27734,15.216793 c 0.112,0.237 0.17969,0.49825 0.17969,0.78125 0,1.021 -0.81398,1.80469 -1.83398,1.80469 h -14.4043 c -1.021,0 -1.83594,-0.78369 -1.83594,-1.80469 0,-0.28 0.0716,-0.54525 0.18164,-0.78125 l 7.2461,-15.156253 0.0312,-0.0605 c 0.32,-0.533 0.89045,-0.90335 1.56445,-0.90235 z m 392.42773,14.070323 c -0.57541,0.004 -1.15137,0.0275 -1.72656,0.0664 -5.522,0.373 -11.00726,2.33042 -15.69726,5.98242 l -55.27344,43.06446 c -12.508,9.743 -14.76448,27.81717 -5.02148,40.32617 9.742,12.507 27.81812,14.73319 40.32812,4.99219 l 55.27148,-43.03321 c 12.509,-9.742 14.76744,-27.81912 5.02344,-40.32812 -5.7075,-7.3275 -14.27306,-11.13563 -22.9043,-11.07031 z m 0.004,1.89843 c 8.04925,-0.0615 16.03367,3.49828 21.36524,10.34766 9.104,11.688 7.02784,28.51709 -4.66016,37.62109 l -55.27539,43.0625 c -11.688,9.103 -28.51714,6.9956 -37.61914,-4.6914 -9.103,-11.689 -7.02489,-28.51714 4.66211,-37.61914 l 55.30273,-43.03516 c 4.382,-3.416 9.46424,-5.275 14.61524,-5.625 0.53643,-0.0364 1.07275,-0.0564 1.60937,-0.0605 z m 0.19531,4.42188 c -12.558,0 -22.76757,10.20667 -22.76757,22.76367 0,12.559 10.20957,22.76562 22.76757,22.76562 12.559,0 22.76368,-10.20662 22.76368,-22.76562 0,-12.557 -10.20568,-22.76367 -22.76368,-22.76367 z m -112.38086,1.01953 c -12.558,0 -22.76367,10.20762 -22.76367,22.76562 0,12.558 10.20567,22.76563 22.76367,22.76563 12.559,0 22.76563,-10.20763 22.76563,-22.76563 0,-12.558 -10.20663,-22.76562 -22.76563,-22.76562 z m 112.38086,0.9043 c 11.518,0 20.83985,9.32284 20.83985,20.83984 0,11.519 -9.32185,20.83984 -20.83985,20.83984 -11.518,0 -20.84179,-9.32184 -20.84179,-20.83984 0,-11.517 9.32379,-20.83984 20.84179,-20.83984 z m -112.38086,1.01953 c 11.519,0 20.8418,9.32379 20.8418,20.84179 0,11.518 -9.3228,20.83985 -20.8418,20.83985 -11.517,0 -20.83984,-9.32185 -20.83984,-20.83985 0,-11.518 9.32284,-20.84179 20.83984,-20.84179 z m -280.24609,7.18945 c -6.97,0 -12.63086,5.66186 -12.63086,12.63086 0,6.969 5.66186,12.62891 12.63086,12.62891 6.969,0 12.66016,-5.65991 12.66016,-12.62891 0,-6.969 -5.69116,-12.63086 -12.66016,-12.63086 z m -26.25195,1.68555 c -0.571,0 -1.10675,0.13033 -1.59375,0.36133 l -15.306646,7.33789 h -0.0293 l -0.06055,0.0293 c -1.089,0.656 -1.802734,1.86175 -1.802734,3.21875 0,1.408 0.765828,2.63735 1.923828,3.27735 l 0.0293,0.0312 h 0.03125 l 15.214842,7.27539 v 0.0312 c 0.482,0.225 1.0297,0.33008 1.5957,0.33007 2.06,0 3.75781,-1.66751 3.75781,-3.72851 v -14.4043 c -0.001,-2.062 -1.69976,-3.75976 -3.75976,-3.75976 z m 52.5332,0 c -2.061,0 -3.75781,1.69776 -3.75781,3.75976 v 14.40235 c 0,2.061 1.69681,3.73047 3.75781,3.73046 0.57,0 1.1067,-0.12932 1.5957,-0.36132 l 15.30469,-7.33789 h 0.0312 l 0.0586,-0.0312 c 1.08899,-0.657 1.80468,-1.8598 1.80468,-3.2168 0,-1.408 -0.76483,-2.6403 -1.92383,-3.2793 l -0.0293,-0.0293 h -0.0312 l -15.21485,-7.27735 c -0.485,-0.226 -1.0307,-0.35937 -1.5957,-0.35937 z m -26.28125,0.24023 c 5.929,0 10.73633,4.77508 10.73633,10.70508 0,5.929 -4.80733,10.70703 -10.73633,10.70703 -5.929,0 -10.70508,-4.77803 -10.70508,-10.70703 0,-5.93 4.77608,-10.70508 10.70508,-10.70508 z m -26.25195,1.6836 c 1.021,0 1.83398,0.81393 1.83398,1.83593 v 14.40235 c 0,1.022 -0.81298,1.80664 -1.83398,1.80664 -0.269,0 -0.52296,-0.0494 -0.75196,-0.15039 h -0.0293 l -15.156255,-7.27735 c -0.007,-0.004 -0.02425,0.003 -0.03125,0 -0.554001,-0.314 -0.900391,-0.90475 -0.900391,-1.59375 0,-0.643 0.320547,-1.1769 0.810547,-1.5039 l 15.277349,-7.33789 c 0.236,-0.114 0.49925,-0.18164 0.78125,-0.18164 z m 52.5332,0 c 0.268,0 0.52395,0.0776 0.75195,0.18164 0.008,0.004 0.0203,-0.004 0.0293,0 l 15.15625,7.24804 0.0312,0.0293 c 0.542,0.315 0.90039,0.8805 0.90039,1.5625 0,0.646 -0.31155,1.20916 -0.81055,1.53516 -0.019,0.011 -0.0425,0.0183 -0.0625,0.0293 l -15.21484,7.3086 c -0.24,0.124 -0.50006,0.16211 -0.78906,0.16211 -1.021,0 -1.83399,-0.78274 -1.83399,-1.80274 v -14.40625 c 0,-1.022 0.81399,-1.83398 1.83399,-1.83398 z m 163.92774,2.39257 c -0.5411,-0.01 -1.08363,0.0149 -1.62305,0.0703 -2.605,0.27 -5.1546,1.29265 -7.3086,3.09765 l -25.20312,21.14063 c -5.744,4.816 -6.49859,13.38395 -1.68359,19.12695 4.813,5.744 13.41225,6.49855 19.15625,1.68555 l 25.19335,-21.11328 c 5.74501,-4.816 6.49855,-13.38296 1.68555,-19.12696 -2.63287,-3.14212 -6.40639,-4.81291 -10.21679,-4.88086 z m -62.9668,0.002 c -0.54432,-0.01 -1.09019,0.0142 -1.63281,0.0703 l 0.002,-0.002 c -2.605,0.27 -5.15264,1.29265 -7.30664,3.09765 l -25.20508,21.14063 c -5.744,4.816 -6.49659,13.38395 -1.68359,19.12695 4.815,5.744 13.41225,6.49855 19.15625,1.68555 l 25.20117,-21.11133 c 5.743,-4.816 6.49954,-13.38295 1.68555,-19.12695 -2.63288,-3.14213 -6.40659,-4.81291 -10.2168,-4.88086 z m -0.3125,1.91992 c 0.37307,-0.003 0.74764,0.0102 1.11914,0.043 2.972,0.262 5.8655,1.67739 7.9375,4.15039 4.147,4.947 3.47334,12.27297 -1.47266,16.41797 l -25.17187,21.11132 c -4.947,4.147 -12.30322,3.50364 -16.44922,-1.44336 -4.146,-4.947 -3.50364,-12.27296 1.44336,-16.41796 l 25.19922,-21.11133 c 2.16562,-1.813 4.78302,-2.72569 7.39453,-2.75 z m 62.97461,0 c 0.373,-0.003 0.74581,0.0102 1.11719,0.043 2.971,0.262 5.86745,1.67739 7.93945,4.15039 4.146,4.947 3.47339,12.27297 -1.47461,16.41797 l -25.17188,21.11132 c -4.947,4.147 -12.30422,3.50264 -16.44922,-1.44336 -4.146,-4.947 -3.50364,-12.27296 1.44336,-16.41796 l 25.20313,-21.11133 c 2.16475,-1.813 4.78156,-2.72569 7.39258,-2.75 z m -62.94727,2.83984 c -1.98473,0.0189 -3.98531,0.7105 -5.61719,2.07813 l -25.16992,21.11132 c -3.73,3.12701 -4.24028,8.72118 -1.11328,12.45118 3.126,3.729 8.72017,4.20803 12.45117,1.08203 l 25.20118,-21.11133 c 3.73,-3.126 4.20898,-8.72017 1.08398,-12.45117 -1.563,-1.865 -3.73038,-2.92895 -5.98438,-3.12695 h -0.002 c -0.28175,-0.0248 -0.56607,-0.0359 -0.84961,-0.0332 z m 62.97656,0 c -1.97929,0.0189 -3.95709,0.7105 -5.58984,2.07813 l -25.20117,21.11132 c -3.724,3.12001 -4.22028,8.68897 -1.11328,12.41797 v 0.0312 c 3.126,3.73 8.72117,4.20904 12.45117,1.08204 l 25.20117,-21.11133 c 3.729,-3.126 4.20803,-8.71822 1.08203,-12.44922 -1.563,-1.863 -3.73037,-2.92795 -5.98437,-3.12695 -0.28188,-0.0248 -0.56295,-0.0359 -0.84571,-0.0332 z m -62.96679,1.92969 c 0.22031,-0.002 0.44028,0.006 0.66015,0.0254 l -0.002,0.004 c 1.76,0.155 3.46241,0.96954 4.69141,2.43554 2.458,2.934 2.0912,7.28514 -0.8418,9.74414 l -25.20117,21.10938 c -2.933,2.457 -7.28514,2.0912 -9.74414,-0.8418 -2.458,-2.933 -2.05996,-7.28519 0.87304,-9.74219 l 25.20313,-21.11328 c 1.28362,-1.07537 2.81911,-1.60812 4.36133,-1.62109 z m 62.97265,0.002 c 0.22035,-0.002 0.44028,0.008 0.66016,0.0273 1.76,0.155 3.46241,0.96954 4.69141,2.43554 2.458,2.934 2.09025,7.28514 -0.84375,9.74414 l -25.19922,21.10938 c -2.931,2.457 -7.28514,2.0912 -9.74414,-0.8418 -2.459,-2.933 -2.05996,-7.28519 0.87304,-9.74219 l 25.19922,-21.11132 c 1.28363,-1.07538 2.82088,-1.60879 4.36328,-1.6211 z m 147.41016,20.23438 c -12.559,0 -22.76367,10.20662 -22.76367,22.76562 0,12.559 10.20467,22.73438 22.76367,22.73438 12.559,0 22.73437,-10.17638 22.73438,-22.73438 0,-12.558 -10.17538,-22.76562 -22.73438,-22.76562 z m 0,1.92578 c 11.519,0 20.81055,9.32184 20.81055,20.83984 0,11.519 -9.29155,20.81055 -20.81055,20.81055 -11.519,0 -20.83984,-9.29155 -20.83984,-20.81055 0.001,-11.518 9.32184,-20.83984 20.83984,-20.83984 z m -344.53711,0.29883 c -2.061,0 -3.75976,1.69676 -3.75977,3.75976 0,0.57 0.12933,1.10475 0.36133,1.59375 l 7.33789,15.30664 0.0293,0.0312 0.0312,0.0293 c 0.657,1.087 1.8305,1.83398 3.1875,1.83398 1.407,0 2.66959,-0.79607 3.30859,-1.95507 v -0.0293 h 0.0293 l 7.27734,-15.2168 v -0.0312 c 0.225,-0.482 0.35938,-0.9975 0.35938,-1.5625 0,-2.061 -1.69781,-3.75976 -3.75781,-3.75976 z m -0.008,1.91601 0.008,0.01 h 14.4043 c 1.021,0 1.83398,0.81298 1.83398,1.83398 0,0.279 -0.0707,0.51696 -0.17969,0.75196 l -7.24804,15.15625 c -0.01,0.018 -0.0183,0.0415 -0.0293,0.0605 -0.317,0.531 -0.91975,0.90235 -1.59375,0.90235 -0.633,0 -1.17391,-0.33246 -1.50391,-0.81446 l -0.0293,-0.0605 c -0.008,-0.012 -0.0232,-0.0183 -0.0312,-0.0293 l -7.28516,-15.19531 c -0.004,-0.009 0.004,-0.0203 0,-0.0293 -0.105,-0.229 -0.17969,-0.47795 -0.17969,-0.75195 0,-1.021 0.81399,-1.83399 1.83399,-1.83399 z"
   style="fill:#ffffff" />





















</svg>
