<?xml version="1.0" encoding="UTF-8" standalone="no"?>
<svg
   viewBox="-236.252 381.062 534.16284 106.44406"
   version="1.1"
   id="svg16"
   sodipodi:docname="system (cópia).svg"
   width="534.16284"
   height="106.44405"
   inkscape:version="1.1.2 (0a00cf5339, 2022-02-04)"
   xmlns:inkscape="http://www.inkscape.org/namespaces/inkscape"
   xmlns:sodipodi="http://sodipodi.sourceforge.net/DTD/sodipodi-0.dtd"
   xmlns="http://www.w3.org/2000/svg"
   xmlns:svg="http://www.w3.org/2000/svg">
  <defs
     id="defs20" />
  <sodipodi:namedview
     id="namedview18"
     pagecolor="#ffffff"
     bordercolor="#666666"
     borderopacity="1.0"
     inkscape:pageshadow="2"
     inkscape:pageopacity="0.0"
     inkscape:pagecheckerboard="0"
     showgrid="false"
     fit-margin-top="0"
     fit-margin-left="0"
     fit-margin-right="0"
     fit-margin-bottom="0"
     inkscape:zoom="1.3963952"
     inkscape:cx="228.80342"
     inkscape:cy="-74.835548"
     inkscape:window-width="1920"
     inkscape:window-height="996"
     inkscape:window-x="0"
     inkscape:window-y="0"
     inkscape:window-maximized="1"
     inkscape:current-layer="svg16" />
  <path
     id="ellipse1205"
     d="m -73.300069,381.08225 c -4.165837,0.0275 -8.336217,-0.0561 -12.5,0.0488 -5.066843,0.48233 -9.543811,4.4348 -10.769534,9.35546 -0.37141,0.84918 -0.39993,1.78263 -0.58326,2.68056 -0.75164,3.5602 -1.52289,7.12199 -2.17064,10.7003 -0.28336,2.29498 -0.1825,4.69722 0.59179,6.89063 1.32579,3.52289 3.399262,6.86655 5.379672,10.13917 1.151302,1.88412 2.315514,3.76048 3.438691,5.66161 -4.306641,0 -8.613283,0 -12.91992,0 -1.24588,7.31331 -2.58191,14.61333 -3.75406,21.93749 -0.31925,3.08448 1.03181,6.2862 3.47281,8.20118 -1.65755,0 -3.3151,0 -4.97265,0 -1e-5,10.26953 -1e-5,20.53906 0,30.8086 135.332674,-1e-5 270.66536,0 405.99804,0 0,-10.26954 0,-20.53907 0,-30.8086 -5.86588,0 -11.73177,0 -17.59765,0 3.02641,-1.96352 5.1126,-5.2963 5.49165,-8.8912 3.48007,-18.60372 6.98962,-37.20158 10.43194,-55.81165 0.59864,-4.05407 -1.6064,-8.44116 -5.42746,-10.07519 -2.8162,-1.26377 -5.96864,-0.72205 -8.95395,-0.83775 -3.65741,0.0229 -7.3191,-0.0514 -10.97383,0.0533 -3.28391,0.31786 -6.33662,2.12865 -8.35742,4.71094 -1.54282,-2.88449 -4.71779,-4.69546 -7.96558,-4.74825 -9.11713,-0.0377 -18.23694,-0.004 -27.35512,-0.0154 -3.50898,0 -7.01797,0 -10.52695,0 -0.87015,4.70383 -1.74092,9.40754 -2.61133,14.11133 -0.58014,-4.70377 -1.15962,-9.40762 -1.74024,-14.11133 -25.12695,0 -50.2539,0 -75.38086,0 -0.87015,4.70383 -1.74092,9.40754 -2.61132,14.11133 -0.58014,-4.70377 -1.15962,-9.40762 -1.74024,-14.11133 -14.47461,0 -28.94922,0 -43.423829,0 -0.891814,4.75409 -1.778336,9.50917 -2.667968,14.26367 -0.586631,-4.75455 -1.172826,-9.50916 -1.759766,-14.26367 -5.184245,0 -10.36849,0 -15.552734,0 -4.748522,25.20553 -9.504742,50.40976 -14.253907,75.61523 -4.128255,0 -8.25651,0 -12.384765,0 1.748016,-9.54075 3.564239,-19.07271 5.200395,-28.63124 0.0758,-1.86836 -0.306354,-3.80115 -1.352739,-5.37462 2.032183,-1.33042 3.658813,-3.43226 3.929214,-5.90058 1.58809,-8.33684 3.255916,-16.66088 4.764086,-25.01116 0.523282,-4.07362 -1.79723,-8.43191 -5.676744,-9.95359 -2.734382,-1.14732 -5.752038,-0.62487 -8.628275,-0.74404 -13.839062,0 -27.678125,0 -41.51718723,0 -0.225315,1.15167 -0.45183337,2.3032 -0.67578127,3.45507 -1.8330444,-2.35684 -4.8522545,-3.53258 -7.7925225,-3.46177 -11.740339,0.0167 -23.48217,10e-4 -35.223102,0.007 -3.792219,21.00392 -7.584652,42.00781 -11.376954,63.01172 -0.534464,-0.01 -1.068991,0.008 -1.603515,0.002 3.699414,-21.00452 7.397229,-42.00933 11.097656,-63.01367 -5.611979,0 -11.223958,0 -16.835937,0 -0.206897,1.20379 -0.412259,2.40791 -0.621094,3.61133 -1.82999,-2.492 -4.978956,-3.71073 -8.01326,-3.62137 -0.508056,-0.0125 -1.015864,0.002 -1.52385,0.01 z m -109.332031,9.49804 c -7.37215,0.27266 -14.33614,4.00795 -19.23352,9.42808 -4.18269,4.4824 -7.02243,10.00229 -9.39088,15.60606 -0.97283,2.16637 -1.94571,4.33271 -2.91857,6.49907 3.21133,-1.21853 6.39644,-2.50259 9.57481,-3.80201 2.54625,-1.04768 5.42648,-1.35059 8.08135,-0.52868 3.93683,1.15628 7.00181,4.18709 9.34331,7.43827 2.28733,3.28128 3.92864,7.00545 4.89116,10.8846 -3.87623,-3.29913 -8.85586,-4.9358 -13.76176,-5.9774 -7.59982,-1.50008 -15.51362,-1.44075 -23.09148,0.1662 -4.5471,1.04424 -9.11914,2.65089 -12.76533,5.64814 -2.65006,2.17346 -4.64031,5.4927 -4.31389,9.01717 0.28642,3.83757 3.05585,6.99447 6.18413,8.98128 4.83698,3.042 10.51238,4.47277 16.13904,5.12952 8.13485,0.87185 16.55453,0.33204 24.27618,-2.51358 0.74549,-0.36138 1.00011,-0.3584 0.3292,0.31625 -1.86402,2.44848 -2.66567,5.78405 -1.63096,8.7408 1.11831,3.62675 4.2542,6.14905 7.46499,7.90677 5.3492,2.80621 11.40668,3.96139 17.3852,4.39282 7.00621,0.41354 14.15141,-0.27226 20.80616,-2.5775 3.5922,-1.31168 7.14178,-3.18037 9.63672,-6.14843 2.09501,-2.53134 3.06713,-6.11788 1.92135,-9.27613 -0.44714,-0.66435 0.50955,-0.46765 0.93485,-0.62676 4.63521,-0.78039 9.05834,-3.03305 12.18214,-6.57911 3.98469,-4.3754 5.94702,-10.24813 6.39135,-16.0766 0.35026,-4.85663 -0.27911,-9.8698 -2.31501,-14.32242 -2.12,-4.37574 -6.24242,-7.434 -10.60568,-9.34824 -6.55285,-2.82752 -14.2864,-2.81194 -20.77863,0.18949 -4.55261,2.01535 -8.44409,5.32135 -11.52724,9.19992 1.7249,-6.4826 1.55067,-13.57725 -1.03338,-19.80982 -1.79475,-4.13615 -5.42637,-7.16937 -9.36465,-9.18546 -3.94087,-2.00006 -8.39714,-2.95175 -12.81096,-2.7723 z m 428.58399,6.51563 c -2.86253,15.25137 -5.6897,30.48476 -8.60742,45.72461 -0.17358,0.50773 -0.79312,1.1153 -0.45177,0.18338 2.82116,-15.30266 5.64232,-30.60533 8.46348,-45.90799 0.19857,0 0.39714,0 0.59571,0 z m 31.19531,0.11328 c -2.7344,15.21652 -5.42565,30.44226 -8.20117,45.65039 -0.18106,0.51151 -0.76095,1.12168 -0.45334,0.21519 2.65052,-14.88825 5.2636,-29.78508 7.95835,-44.6642 0.16605,-0.4244 0.24055,-1.05885 0.70983,-1.25411 z m -294.634769,0.16016 c -1.068042,5.07355 -2.104876,10.15374 -3.21289,15.21875 -0.590246,-0.0304 0.07579,-1.09683 0.02334,-1.57074 0.882193,-4.54934 1.764386,-9.09868 2.646579,-13.64801 0.180989,0 0.361979,0 0.542968,0 z m 54.173828,0 c -0.902362,4.27738 -1.787017,8.55841 -2.707031,12.83203 0.815104,-4.27344 1.630209,-8.54688 2.445313,-12.82031 0.08725,-0.004 0.174134,-0.0176 0.261718,-0.0117 z m -117.048828,0.46484 c -0.531753,3.09136 -1.066647,6.18226 -1.599609,9.27344 -0.675801,-0.67987 -0.247822,-1.74581 -0.162292,-2.57785 0.335959,-1.75071 0.628217,-3.53797 0.964919,-5.20583 0.166522,-0.67952 0.221328,-1.49121 0.867295,-1.90968 -0.02344,0.13997 -0.04687,0.27995 -0.07031,0.41992 z m 99.869141,-0.12109 c -0.848307,4.52474 -1.696615,9.04948 -2.544922,13.57421 -2.179687,0 -4.359375,10e-6 -6.539062,0 0.897786,-4.52473 1.795572,-9.04947 2.693359,-13.57421 2.130208,0 4.260417,0 6.390625,0 z m 133.537108,0 c -3.46365,19.66143 -6.9264,39.32303 -10.39062,58.98437 -0.53421,-0.0689 -1.39847,0.13583 -1.73343,-0.0983 3.70086,-19.6287 7.40171,-39.2574 11.10257,-58.8861 0.34049,0 0.68099,0 1.02148,0 z m 18.34375,0 c -0.41796,2.13932 -0.83593,4.27864 -1.2539,6.41797 0.38411,-2.13933 0.76823,-4.27865 1.15234,-6.41797 h 0.1 z m 22.18164,0 c -0.85286,4.52474 -1.70572,9.04948 -2.55859,13.57421 -1.722,0 -3.44401,10e-6 -5.16601,0 0.88346,-4.52473 1.76692,-9.04947 2.65039,-13.57421 1.6914,0 3.38281,0 5.07421,0 z m -262.240232,15.47656 c -0.706046,4.10086 -1.411469,8.20182 -2.117188,12.30273 -2.203018,-4.19903 -4.618286,-8.28391 -7.132812,-12.30273 3.083333,0 6.166666,0 9.25,0 z m 53.246093,43.09765 c 0.03222,0.77483 -0.993986,0.26462 -1.480078,0.41016 -4.109505,0 -8.21901,0 -12.328515,0 1.86914,-9.84505 3.738281,-19.6901 5.607421,-29.53516 3.125665,-0.0405 6.263911,0.11785 9.38086,-0.11914 1.7614,-0.25722 3.450807,-0.94909 4.916016,-1.95507 -2.031902,10.39974 -4.063803,20.79948 -6.095704,31.19921 z m 29.523438,-29.74023 c -0.96875,5.16471 -1.9375,10.32943 -2.90625,15.49414 -2.0716147,0 -4.1432293,0 -6.2148439,0 0.8671875,-5.16471 1.734375,-10.32943 2.6015625,-15.49414 2.1731771,0 4.3463544,0 6.5195314,0 z m 174.035161,0 c -0.97331,5.16471 -1.94662,10.32943 -2.91992,15.49414 -1.61914,0 -3.23828,0 -4.85743,0 0.88217,-5.16471 1.76433,-10.32943 2.64649,-15.49414 1.71029,0 3.42057,0 5.13086,0 z m -157.29688,0.61719 c 0.368022,1.94899 -0.358494,3.84628 -0.628293,5.75692 -1.478983,7.93 -3.003303,15.8515 -4.510379,23.77628 -0.821436,0.17933 -0.09323,-0.92729 -0.157852,-1.37599 1.769218,-9.38125 3.508724,-18.79836 5.296524,-28.15721 z m -117.386719,5.44726 c 0.435178,0.8319 -0.0717,1.78663 -0.113312,2.66674 -0.338602,1.99569 -0.724282,3.98235 -1.052703,5.97975 -0.155432,0.70113 -0.25835,1.72984 -0.673828,2.45117 -0.535826,0.58631 -0.222596,-0.39334 -0.1599,-0.70582 0.638586,-3.52319 1.277173,-7.04638 1.915759,-10.56957 l 0.04272,0.0904 z m -79.562501,1.14649 c -1.26006,2.89883 -2.58312,5.77055 -3.86914,8.6582 3.21132,-1.21852 6.39644,-2.50258 9.57481,-3.80201 2.54625,-1.04768 5.42647,-1.35058 8.08135,-0.52868 3.90459,1.14525 6.95104,4.14036 9.28628,7.35613 1.73259,2.44048 3.08347,5.19612 4.06342,7.98823 -5.23905,-3.45676 -11.51514,-4.94584 -17.69334,-5.54718 -6.81506,-0.62527 -13.78059,-0.18994 -20.37892,1.68586 -1.25183,0.37145 -2.48719,0.79914 -3.69532,1.29492 1.93009,-2.16977 3.02105,-5.15871 2.49836,-8.06203 -0.18999,-1.20579 -0.61675,-2.37481 -1.25031,-3.41844 3.92274,-0.4767 7.87675,-1.52109 11.14057,-3.83266 0.79446,-0.53195 1.54401,-1.162 2.24224,-1.79234 z m 242.921876,22.93945 c -1.253255,0 -2.50651,0 -3.759765,0 0.898437,-4.47851 1.796875,-8.95703 2.695312,-13.43555 0.354818,4.47852 0.709636,8.95704 1.064453,13.43555 z m 47.853524,0 c -1.25326,0 -2.50652,0 -3.75977,0 0.89844,-4.47851 1.79687,-8.95703 2.69531,-13.43555 0.35482,4.47852 0.70964,8.95704 1.06446,13.43555 z m 79.73046,0 c -1.25325,0 -2.50651,0 -3.75976,0 0.89844,-4.47851 1.79687,-8.95703 2.69531,-13.43555 0.35482,4.47852 0.70964,8.95704 1.06445,13.43555 z m -278.410155,-3.68359 c 0.602908,1.43368 1.556242,2.72958 2.789062,3.68359 -2.188802,0 -4.377604,0 -6.566406,0 1.494597,-0.99372 2.778194,-2.30857 3.716797,-3.83984 l 0.03613,0.0932 z m 325.175785,0.6289 c 0.59252,1.17924 1.43218,2.23992 2.47265,3.05469 -1.95833,0 -3.91666,0 -5.875,0 1.2951,-0.85226 2.43023,-1.94847 3.32813,-3.21289 l 0.0425,0.0905 z m 34.66992,8.77735 c 0.10704,0.67373 -0.31323,1.28966 -0.79883,1.69726 -0.0165,-0.47617 -0.70313,-1.37019 -0.29053,-1.57876 0.34681,-0.0216 0.80383,-0.18337 1.08936,-0.1185 z m -6.99805,0.0254 c -0.14901,0.63426 -0.46244,1.35612 -0.76577,0.35991 -0.60904,-0.72043 0.36045,-0.26548 0.76577,-0.35991 z m -183.416015,0.55469 c 0.10712,0.66708 -0.257226,1.35054 -0.791016,1.72265 -0.192708,-0.61328 -0.385416,-1.22656 -0.578124,-1.83984 0.45638,0.0391 0.91276,0.0781 1.36914,0.11719 z m -6.941406,-0.043 c -0.02982,0.43934 -0.442837,1.58157 -0.733818,0.6705 -0.670081,-0.74185 -0.198201,-0.80046 0.578765,-0.67654 l 0.09992,0.004 z m -108.88086,9.01953 c 0.724632,0.2611 1.623855,0.97685 1.260798,1.8351 -0.02967,0.54019 -0.777508,1.47247 -0.75052,0.42672 -0.159897,-0.74367 -0.402363,-1.56321 -0.510278,-2.26182 z m 86.496094,5.85156 c 0.679476,0.28455 1.090325,0.9816 1.132813,1.69531 -0.696582,0.62708 -1.893447,0.63934 -2.554688,-0.0527 0.06453,-0.74601 0.65267,-1.55489 1.421875,-1.64258 z m -139.05664,0.44141 c 0.253128,0.42361 0.858608,1.23272 0.144844,1.49973 -0.698447,0.33962 -1.758801,0.28922 -2.203438,-0.42747 0.09598,-0.75608 0.794822,-1.579 1.591511,-1.40138 0.155694,0.1097 0.311388,0.21941 0.467083,0.32912 z m 207.869147,0 c 0.27951,0.41729 0.82525,1.23138 0.13845,1.50585 -0.69565,0.33883 -1.79335,0.30516 -2.19509,-0.45898 0.10765,-0.74508 0.79882,-1.55353 1.5877,-1.37613 0.15631,0.10975 0.31262,0.2195 0.46894,0.32926 z m 143.74414,-0.29883 c 0.99557,0.34921 1.60996,1.55981 1.10937,2.5332 -0.38012,0.67299 -1.14886,0.92948 -1.88437,0.8125 -0.5712,0.0307 -1.01729,-0.56654 -1.39916,-0.91452 -0.43312,-0.63868 0.50432,-0.98519 0.80468,-1.46751 0.44967,-0.28935 0.75282,-1.23002 1.36948,-0.96367 z M 88.4929,478.66621 c 1.12216,0.51452 1.469953,2.28961 0.341757,2.99018 -0.612747,0.48526 -1.466944,0.31367 -2.106549,0.0201 -0.383302,-0.42289 -1.151222,-0.96261 -0.3532,-1.40039 0.555607,-0.57958 1.111213,-1.15916 1.66682,-1.73875 0.150391,0.043 0.300782,0.0859 0.451172,0.12891 z" />
  <ellipse
     cx="-207.18605"
     cy="444.25171"
     rx="25.076"
     ry="11.212"
     fill="#007544"
     id="ellipse2"
     style="fill:#ffffff" />
  <path
     d="m -137.22105,462.8207 c 0,6.192 -11.227,11.212 -25.076,11.212 -13.849,0 -25.076,-5.02 -25.076,-11.212 0,-6.192 11.227,-11.211 25.076,-11.211 13.85,0 25.076,5.019 25.076,11.211 z"
     fill="#fed01b"
     id="path4"
     style="fill:#ffffff" />
  <path
     d="m -134.20305,455.4637 c -3.018,-12.557 -13.963,-26.431 -28.094,-20.4 11.506,-26.541 33.221,-22.319 40.761,-13.27 5.873,7.046 5.732,31.146 -12.667,33.67 z"
     fill="#ba2318"
     id="path6"
     style="fill:#ffffff" />
  <path
     d="m -178.39605,435.1617 c -3.019,-12.557 -13.963,-26.431 -28.094,-20.4 11.506,-26.541 33.222,-22.319 40.761,-13.27 5.872,7.047 5.73,31.146 -12.667,33.67 z"
     fill="#0a2a8d"
     id="path8"
     style="fill:#ffffff" />
  <path
     d="m -84.784053,385.0837 c -3.73,0 -7.355,3.089 -8.021,6.917 v 0.206 l -0.068,0.068 v 0.206 l -0.068,0.137 v 0.137 l -0.068,0.137 v 0.205 l -0.068,0.137 v 0.206 l -0.068,0.205 -0.068,0.206 -0.068,0.41 -0.136,0.48 -0.068,0.479 -0.136,0.48 -0.068,0.547 -0.136,0.548 -0.136,0.617 -0.136,0.548 -0.204,1.164 -0.136,0.616 -0.136,0.548 -0.068,0.548 -0.136,0.548 -0.135,0.548 -0.068,0.548 -0.068,0.479 -0.136,0.411 -0.068,0.479 v 0.206 l -0.068,0.137 v 0.342 l -0.068,0.206 v 0.273 l -0.068,0.137 v 0.137 c -0.071,1.674 0.161,3.96 0.679,4.384 0.659,3.688 12.858,20.757 12.507,23.356 -0.33,2.607 -1.768,10.274 -1.768,10.274 -0.442,2.586 -2.192,4.658 -4.758,4.658 -2.566,0 -4.316,-2.065 -3.875,-4.658 l 2.311,-12.74 h -9.108 l -3.058997,17.671 c -0.624,3.589 1.788,6.438 5.369997,6.438 h 12.982 c 3.596,0 7.022,-2.849 7.681,-6.438 0,0 3.345,-16.506 3.33,-17.671 -0.014,-1.172 -0.34,-1.301 -0.34,-1.301 0,-1.342 -10.855,-19.397 -11.963,-20.068 -0.477,-0.283 -0.87,-2.07 -0.883,-3.15 -0.021,-1.074 1.427,-8.288 1.427,-8.288 0.442,-2.585 2.872,-4.658 5.437,-4.658 2.566,0 3.637,2.072 3.195,4.658 l -1.971,11.438 h 9.177 l 3.194,-17.192 c 0.722,-3.829 -1.708,-6.917 -5.437,-6.917 h -13.456 z m 25.013,0 -10.876,63.15 c -0.624,3.589 1.788,6.438 5.37,6.438 h 12.982 c 3.596,0 7.083,-2.849 7.749,-6.438 l 11.623,-63.15 h -8.157 l -11.08,61.369 c -0.161,0.89 -1.02,1.644 -1.903,1.644 h -6.457 c -0.905,0 -1.507,-0.747 -1.36,-1.644 l 10.808,-61.369 z m 31.268,0 -13.119,69.588 h 8.7 l 5.982,-31.506 h 11.08 c 3.603,0 7.022,-2.871 7.68,-6.439 l 4.758,-24.726 c 0.715,-3.836 -1.708,-6.917 -5.437,-6.917 z m 31.063,0 -13.595,69.588 h 19.576 l 1.36,-8.63 H 0.24894697 L 4.190947,422.5487 h 9.652 l 1.36,-7.26 h -9.652 l 4.283,-21.575 h 9.652 l 1.36,-8.63 z m 23.382,0 -13.05,69.588 h 8.7 l 5.914,-31.506 h 6.185 c 0.813,0.762 0.907,2.17 1.019,2.876 0.161,1.024 0.33,2.332 0.204,3.356 -0.112,1.017 -4.758,25.273 -4.758,25.273 h 8.7 c 0,0 4.894,-26.425 4.894,-26.849 0.014,-0.431 10e-4,-1.786 -0.476,-2.534 -0.316,-0.48 -0.865,-1.584 -1.496,-1.986 -1.213,-0.784 -2.583,-1.301 -2.583,-1.301 h -0.612 c 2.489,-0.989 7.184,-2.618 7.681,-5.274 l 4.758,-24.726 c 0.722,-3.836 -1.708,-6.917 -5.438,-6.917 z m 46.562,0 -13.119,69.588 h 9.992 l 8.088,-40.342 3.195,40.342 h 8.701 l 13.119003,-69.588 h -9.992003 l -6.797,36.369 -4.486,-36.369 z m 34.530003,0 -13.119003,69.588 h 8.700003 l 13.118,-69.588 z m 13.254,0 -13.118,69.588 h 10.06 l 8.088,-40.342 3.195,40.342 h 8.7 l 13.118,-69.588 h -10.06 l -6.729,36.369 -4.486,-36.369 z m 33.715,0 -1.632,8.63 h 5.438 l -10.74,60.958 h 9.924 l 10.944,-60.958 h 5.234 l 1.36,-8.63 z m 23.926,0 -13.595,69.588 h 19.576 l 1.359,-8.63 h -9.652 l 4.01,-23.493 h 9.652 l 1.36,-7.26 h -9.652 l 4.214,-21.575 h 9.652 l 1.359,-8.63 z m 22.091,0 -13.119,69.588 h 10.06 l 8.088,-40.342 3.195,40.342 h 8.701 l 13.118,-69.588 h -10.06 l -6.729,36.369 -4.486,-36.369 z m 34.598,0 -13.119,69.588 h 19.848 c 3.603,0 7.083,-2.849 7.749,-6.438 l 10.536,-56.233 c 0.715,-3.836 -1.708,-6.917 -5.438,-6.917 z m 37.317,0 c -3.73,0 -7.287,3.089 -7.953,6.917 l -9.72,56.233 c -0.631,3.589 1.726,6.438 5.301,6.438 h 14.343 c 3.596,0 7.083,-2.849 7.749,-6.438 l 10.536,-56.233 c 0.722,-3.829 -1.715,-6.917 -5.438,-6.917 z m -29.908,8.013 h 4.01 c 2.566,0 4.316,2.072 3.875,4.658 l -8.565,45.548 c -0.449,2.586 -2.94,4.726 -5.506,4.726 h -3.942 z m 35.006,0 h 0.272 c 2.566,0 4.248,2.072 3.806,4.658 l -8.157,45.548 c -0.442,2.578 -2.804,4.726 -5.37,4.726 -2.566,0 -3.637,-2.141 -3.195,-4.726 l 8.088,-45.548 0.068,-0.205 0.068,-0.206 0.068,-0.274 0.068,-0.205 0.068,-0.274 0.068,-0.206 0.068,-0.205 0.136,-0.205 0.068,-0.206 0.136,-0.205 0.068,-0.206 0.136,-0.205 0.136,-0.137 0.136,-0.206 0.136,-0.205 0.204,-0.137 0.136,-0.137 0.136,-0.137 0.204,-0.137 0.204,-0.137 0.136,-0.137 0.204,-0.137 0.204,-0.068 0.204,-0.137 0.136,-0.069 0.272,-0.068 0.204,-0.069 h 0.204 l 0.204,-0.068 h 0.272 z m -297.176003,0.274 h 4.214 c 0.925,0 2.887,2.135 2.719,3.082 l -3.603,17.191 c -0.168,0.89 -1.36,2.945 -2.243,2.945 h -5.234 l -0.068,-0.068 h -0.272 v -0.069 h -0.136 l -0.068,-0.068 h -0.068 l -0.068,-0.069 -0.068,-0.068 h -0.068 v -0.069 l -0.068,-0.068 -0.068,-0.069 v -0.068 l -0.068,-0.069 -0.068,-0.068 v -0.137 l -0.068,-0.068 v -0.137 l -0.068,-0.069 v -0.068 c 0,-0.113 -0.014,-0.284 0,-0.411 l 4.078,-21.027 c 0.374,-0.311 0.831,-0.548 1.293,-0.548 z m 54.174,0 h 4.214 c 0.925,0 2.901,2.135 2.719,3.082 l -3.602,17.123 c -0.161,0.897 -2.373,3.013 -3.263,3.013 h -3.738 c -0.771,0 -1.303,-0.512 -1.36,-1.232 0,-0.113 -0.014,-0.277 0,-0.411 l 4.011,-21.027 0.068,-0.068 0.068,-0.069 0.136,-0.068 h 0.068 l 0.068,-0.069 0.068,-0.068 h 0.068 l 0.068,-0.069 h 0.068 l 0.136,-0.068 h 0.204 v -0.069 z m -138.119997,67.328 v 22.808 h 397.999 v -22.808 z m 290.635,2.398 h 3.396 c 0.822,0 1.412,0.651 1.247,1.507 l -0.762,3.836 h -1.871 l 0.416,-2.534 c 0.093,-0.573 -0.246,-1.027 -0.832,-1.027 -0.579,0 -1.147,0.451 -1.247,1.027 l -0.346,1.849 c -0.057,0.11 0.115,0.63 0.208,0.685 0.257,0.146 2.702,4.154 2.702,4.452 0.057,0.149 0.091,0.219 0.07,0.274 -0.072,0.502 -0.763,3.904 -0.763,3.904 -0.15,0.781 -0.918,1.438 -1.732,1.438 h -2.91 c -0.808,0 -1.328,-0.657 -1.178,-1.438 l 0.692,-3.904 h 2.009 l -0.485,2.808 c -0.093,0.573 0.246,1.096 0.832,1.096 0.557,0 1.154,-0.52 1.247,-1.096 l 0.415,-2.26 c -0.371,-0.946 -2.822,-4.386 -2.979,-5.206 -0.108,-0.091 -0.153,-0.586 -0.139,-0.959 0.021,-0.408 0.554,-2.945 0.554,-2.945 h 0.069 v -0.206 l 0.07,-0.137 v -0.068 l 0.069,-0.069 v -0.068 l 0.069,-0.069 v -0.068 l 0.07,-0.069 0.069,-0.068 v -0.069 h 0.07 l 0.069,-0.068 0.07,-0.069 0.069,-0.068 v -0.069 h 0.07 l 0.069,-0.068 0.07,-0.069 h 0.069 l 0.07,-0.068 h 0.069 l 0.07,-0.068 h 0.208 z m 15.936,0 h 2.494 l 0.347,5.822 3.187,-5.822 h 2.495 l -5.128,8.904 -1.247,6.507 h -2.217 l 1.108,-6.986 z m 22.658,0 h 3.397 c 0.822,0 1.397,0.651 1.247,1.507 l -0.762,3.836 h -1.871 l 0.416,-2.534 c 0.093,-0.573 -0.245,-1.027 -0.831,-1.027 -0.579,0 -1.154,0.451 -1.247,1.027 l -0.347,1.849 c -0.071,0.11 0.094,0.63 0.208,0.685 0.243,0.146 2.702,4.154 2.702,4.452 0.071,0.149 0.069,0.219 0.069,0.274 -0.093,0.502 -0.693,3.904 -0.693,3.904 -0.15,0.781 -0.925,1.438 -1.732,1.438 h -2.98 c -0.807,0 -1.327,-0.657 -1.178,-1.438 l 0.693,-3.904 h 2.009 l -0.485,2.808 c -0.093,0.573 0.267,1.096 0.831,1.096 0.579,0 1.133,-0.52 1.247,-1.096 l 0.416,-2.26 c -0.378,-0.946 -2.822,-4.386 -2.979,-5.206 -0.107,-0.091 -0.153,-0.586 -0.139,-0.959 0.022,-0.408 0.554,-2.945 0.554,-2.945 l 0.07,-0.069 v -0.137 l 0.069,-0.137 v -0.068 l 0.07,-0.069 v -0.068 l 0.069,-0.069 v -0.068 l 0.07,-0.069 0.069,-0.068 v -0.069 h 0.07 l 0.069,-0.068 0.07,-0.069 0.069,-0.068 0.07,-0.069 0.069,-0.068 0.069,-0.069 h 0.07 l 0.069,-0.068 h 0.07 l 0.069,-0.068 h 0.209 z m 16.145,0 h 4.643 l -0.347,1.849 h -1.178 l -2.425,13.562 h -2.287 l 2.425,-13.562 h -1.178 z m 18.153,0 h 4.157 l -0.346,1.849 h -2.148 l -0.97,4.863 h 2.217 l -0.346,1.576 h -2.148 l -0.901,5.205 h 2.148 l -0.277,1.918 h -4.435 z m 17.115,0 h 2.564 l 0.416,8.904 3.949,-8.835 2.494,-0.069 -2.633,15.411 h -1.94 l 1.247,-8.151 -3.464,8.151 h -1.386 l -0.416,-8.356 -1.524,8.356 h -2.287 z m -372.154003,0.548 h 4.088 l -0.277,1.917 h -2.218 l -0.901,4.795 h 2.148 l -0.277,1.644 h -2.217 l -0.832,5.206 h 2.148 l -0.347,1.917 h -4.435 z m 19.124,0 h 1.94 l 1.04,8.082 1.524,-8.082 h 2.287 l -2.98,15.479 h -1.94 l -0.762,-8.972 -1.802,8.972 h -2.287 z m 20.787,0 h 4.573 l -0.277,1.917 h -1.178 l -2.495,13.562 h -2.217 l 2.425,-13.562 h -1.247 z m 20.163,0 h 4.157 l -0.346,1.917 h -2.148 l -0.97,4.795 h 2.148 l -0.277,1.644 h -2.148 l -0.901,5.206 h 2.148 l -0.277,1.917 h -4.435 z m 19.54,0 h 4.435 c 0.822,0 1.342,0.72 1.178,1.575 l -1.04,5.48 c -0.114,0.593 -1.167,1.078 -1.732,1.301 h 0.278 v 0.068 h 0.278 l 0.07,0.069 h 0.208 v 0.068 h 0.139 v 0.069 h 0.07 c 0.092,0.166 0.139,0.66 0.139,0.753 0,0.091 -1.109,6.096 -1.109,6.096 h -2.009 c 0,0 1.073,-5.392 1.109,-5.616 0.021,-0.24 -0.027,-0.53 -0.07,-0.754 -0.014,-0.165 -0.022,-0.448 -0.208,-0.616 h -1.386 l -1.316,6.986 h -2.009 z m 19.817,0 h 4.642 l -0.277,1.917 h -1.178 l -2.494,13.562 h -2.218 l 2.425,-13.562 h -1.247 z m 23.073,0 h 2.633 l -0.832,15.479 h -2.633 l 0.347,-3.561 h -1.594 l -1.317,3.561 h -2.356 z m 18.431,0 h 2.009 l -2.98,15.479 h -1.94 z m 17.877,0 h 1.94 l 1.04,8.082 1.524,-8.082 h 2.218 l -2.91,15.479 h -2.009 l -0.693,-8.972 -1.802,8.972 h -2.288 z m 22.934,0 h 2.564 l 0.416,8.972 3.95,-8.904 h 2.494 l -2.633,15.411 h -1.94 l 1.247,-8.15 -3.464,8.15 h -1.386 l -0.416,-8.356 -1.525,8.356 h -2.217 z m 25.153003,0 h 4.088 l -0.277,1.917 h -2.218 l -0.9,4.795 h 2.148 l -0.277,1.644 h -2.218 l -0.901,5.206 h 2.218 l -0.347,1.917 h -4.365 z m 20.093,0 h 1.94 l 1.039,8.082 1.525,-8.082 h 2.217 l -2.91,15.479 h -1.94 l -0.762,-8.972 -1.801,8.972 h -2.287 z m 20.579,0 h 4.643 l -0.347,1.917 h -1.178 l -2.425,13.562 h -2.218 l 2.425,-13.562 h -1.247 z m -166.086003,1.849 c -0.108,0 -0.199,0.063 -0.277,0.137 l -0.901,4.658 v 0.068 c 0,0.149 0.106,0.274 0.277,0.274 h 0.832 c 0.207,0 0.726,-0.412 0.762,-0.616 l 0.763,-3.836 c 0.036,-0.22 -0.347,-0.685 -0.554,-0.685 z m 41.019,4.657 -1.455,3.904 h 1.109 z"
     id="path10"
     style="fill:#ffffff"
     sodipodi:nodetypes="cccccccccccccccccccccccccccccccccccccccccsccccssccccccsccccsccccssccccsscccccccsccsccccccccccccccccccccccccccccccscccccccccccccccccccccccccccccccccccccccccccccccccccccccccccccccsccscsccssccsscsccscccsccscccccccccccccccccccccccccccccccccssccsccccccccccccccccccccsccscsccssccccccccccccccccccccccsccccsccccccssccccscccccccccccccccccccccccccccccccccccccccccsccccsccccccssccccsccccccccccccccccccccccccccccccccccccccccccccccccccccccccccccccccccccccccccccccccccccccccccccccccccccccccccccccccsccccccccccccsccccccccccccccccccccccccccccccccccccccccccccccccccccccccccccccccccccccccccccccccccccccccccsccsssccsscccc" />
</svg>
