<?xml version="1.0" encoding="UTF-8" standalone="no"?>
<!-- Generator: Adobe Illustrator 13.0.0, SVG Export Plug-In . SVG Version: 6.00 Build 14948)  -->

<svg
   xmlns:dc="http://purl.org/dc/elements/1.1/"
   xmlns:cc="http://creativecommons.org/ns#"
   xmlns:rdf="http://www.w3.org/1999/02/22-rdf-syntax-ns#"
   xmlns:svg="http://www.w3.org/2000/svg"
   xmlns="http://www.w3.org/2000/svg"
   xmlns:sodipodi="http://sodipodi.sourceforge.net/DTD/sodipodi-0.dtd"
   xmlns:inkscape="http://www.inkscape.org/namespaces/inkscape"
   version="1.2"
   id="Layer_3"
   x="0px"
   y="0px"
   width="598.189px"
   height="350.26px"
   viewBox="0 0 598.189 350.26"
   xml:space="preserve"
   sodipodi:docname="controller.svg"
   inkscape:version="0.92.5 (2060ec1f9f, 2020-04-08)"><metadata
   id="metadata23"><rdf:RDF><cc:Work
       rdf:about=""><dc:format>image/svg+xml</dc:format><dc:type
         rdf:resource="http://purl.org/dc/dcmitype/StillImage" /></cc:Work></rdf:RDF></metadata><defs
   id="defs21" /><sodipodi:namedview
   pagecolor="#ffffff"
   bordercolor="#666666"
   borderopacity="1"
   objecttolerance="10"
   gridtolerance="10"
   guidetolerance="10"
   inkscape:pageopacity="0"
   inkscape:pageshadow="2"
   inkscape:window-width="1680"
   inkscape:window-height="965"
   id="namedview19"
   showgrid="false"
   inkscape:zoom="0.67378517"
   inkscape:cx="277.5743"
   inkscape:cy="175.13"
   inkscape:window-x="0"
   inkscape:window-y="0"
   inkscape:window-maximized="1"
   inkscape:current-layer="Layer_3" />















<g
   id="g846"
   transform="translate(55.867493,37.840675)"><path
     style="fill:#f4f4f4;stroke-width:0.80991483"
     inkscape:connector-curvature="0"
     d="m 174.2733,35.594807 c -0.1393,0 -0.14254,0.01539 -0.24459,0.02511 -0.10124,0.01053 -0.2454,0.02997 -0.41549,0.04941 -0.34016,0.03807 -0.82773,0.0737 -1.44165,0.146594 -1.22702,0.146595 -2.96914,0.362032 -5.18102,0.635783 -4.42456,0.545883 -10.67468,1.33393 -18.1348,2.272621 -14.91863,1.877383 -34.70728,4.392168 -54.475683,6.916673 -19.76921,2.524504 -39.531132,5.048199 -54.427895,6.989565 -7.447976,0.971087 -13.677031,1.80125 -18.085397,2.395728 -2.204588,0.297238 -3.963723,0.534543 -5.181025,0.708675 -0.612296,0.08747 -1.081237,0.166843 -1.420591,0.220297 -0.169272,0.02754 -0.310197,0.05426 -0.415486,0.0737 -0.05183,0.0097 -0.07775,0.01458 -0.121487,0.0243 -0.04374,0.0097 -0.06155,-0.0089 -0.196,0.04859 C 10.711818,57.731398 8.031,61.544477 8.031,65.951223 V 237.27169 c 0,5.89537 4.789026,10.68197 10.680347,10.68197 H 467.71678 c 5.89132,0 10.70626,-4.78984 10.70626,-10.68035 V 65.952843 c 0,-4.230995 -2.48158,-7.902338 -6.0614,-9.629077 -0.13688,-0.06641 -0.1466,-0.06074 -0.19519,-0.07289 -0.0486,-0.01215 -0.11663,-0.03726 -0.17089,-0.04941 -0.11015,-0.02187 -0.24298,-0.04455 -0.4163,-0.07289 -0.34502,-0.0575 -0.82692,-0.129587 -1.44165,-0.219487 -1.23512,-0.181421 -2.99506,-0.428445 -5.20856,-0.732973 -4.4359,-0.607436 -10.68359,-1.437599 -18.16072,-2.420026 -14.95346,-1.964853 -34.77774,-4.521754 -54.61903,-7.063267 -19.84292,-2.541512 -39.6915,-5.054678 -54.67573,-6.94097 -7.49252,-0.94274 -13.77989,-1.748606 -18.2328,-2.296918 -2.22565,-0.274561 -3.99126,-0.489189 -5.22962,-0.635783 -0.6204,-0.0737 -1.09663,-0.107719 -1.44165,-0.146595 -0.17332,-0.01944 -0.31101,-0.03888 -0.4163,-0.0494 -0.10448,-0.01053 -0.1393,-0.0243 -0.26889,-0.0243 v 1.563946 c -0.0826,0 0.005,-0.0089 0.098,0 0.0923,0.0089 0.24621,0.02997 0.41549,0.0494 0.33935,0.03807 0.80019,0.09881 1.41816,0.170892 1.2335,0.146595 3.00559,0.361222 5.22962,0.635784 4.44967,0.548312 10.74028,1.32988 18.2328,2.27343 14.98261,1.885482 34.83119,4.400268 54.67249,6.94097 19.83886,2.539893 39.66962,5.098414 54.62146,7.063267 7.47552,0.982427 13.73373,1.837697 18.15829,2.444323 2.21269,0.303718 3.96535,0.528875 5.18184,0.708676 0.60905,0.0899 1.09257,0.166032 1.41735,0.220297 0.16198,0.02673 0.28671,0.05669 0.36608,0.07289 0.007,0.0032 0.017,-0.0024 0.0235,0 0.0243,0.0049 0.0429,0.02268 0.0502,0.02511 2.99912,1.491863 5.08222,4.601936 5.08222,8.187429 V 237.27655 c 0,5.04496 -4.09412,9.11721 -9.13989,9.11721 H 18.705677 c -5.049819,0 -9.1188307,-4.06658 -9.1188307,-9.12045 V 65.950414 c 0,-3.754765 2.2685717,-6.981466 5.4993217,-8.382619 0.0162,-0.0032 0.02187,0.0049 0.04859,0 0.0818,-0.01539 0.204098,-0.04859 0.366891,-0.0737 0.324776,-0.05103 0.812345,-0.108529 1.417351,-0.195999 1.210823,-0.172512 2.954569,-0.436544 5.156728,-0.732973 4.403507,-0.592858 10.613123,-1.400343 18.0611,-2.370621 14.895143,-1.940556 34.659494,-4.489358 54.428705,-7.013862 19.768407,-2.525315 39.557867,-5.014993 54.475687,-6.892375 7.4593,-0.938691 13.68837,-1.726739 18.10969,-2.273431 2.21107,-0.272941 3.98316,-0.489189 5.20533,-0.635783 0.61148,-0.07289 1.08366,-0.133636 1.41735,-0.170892 0.16684,-0.01863 0.30128,-0.03969 0.39119,-0.04941 0.0907,-0.0089 0.19436,0 0.098,0 v -1.564755 z"
     id="path3" /><path
     style="fill:#f4f4f4;stroke-width:0.80991483"
     inkscape:connector-curvature="0"
     d="m 176.79052,26.625 c -1.0213,0 -1.89196,0.47704 -2.39492,1.172757 -0.50296,0.696526 -0.68438,1.563945 -0.68438,2.420025 v 61.832136 c 0,38.385102 31.12179,69.531992 69.50689,69.531992 38.38591,0 69.532,-31.14689 69.532,-69.531992 V 30.218592 c 0,-0.895766 -0.18628,-1.772904 -0.70787,-2.46862 -0.52401,-0.694097 -1.40034,-1.122542 -2.44837,-1.122542 H 176.7889 Z m 0,1.564755 H 309.5963 c 0.67709,0 0.96461,0.179801 1.19786,0.489189 0.23083,0.308577 0.39119,0.85689 0.39119,1.539648 v 61.832136 c 0,37.540362 -30.42931,67.967242 -67.96805,67.967242 -37.54117,0 -67.94294,-30.42769 -67.94294,-67.967242 V 30.218592 c 0,-0.614725 0.14902,-1.180046 0.39119,-1.515351 0.24216,-0.334494 0.5313,-0.511866 1.12659,-0.511866 z"
     id="path5" /><path
     style="fill:#f4f4f4;stroke-width:0.80991483"
     inkscape:connector-curvature="0"
     d="m 76.442074,135.45892 c -3.507741,0 -6.924771,0.43007 -10.191158,1.22216 -15.566562,3.77016 -27.833532,15.98853 -31.673338,31.52675 -0.821254,3.3247 -1.247269,6.78627 -1.247269,10.36286 0,3.43566 0.387949,6.79113 1.148459,9.99678 3.723178,15.69372 16.021735,28.06435 31.674148,31.89282 3.295544,0.80668 6.748211,1.22216 10.289158,1.22216 3.497212,0 6.910193,-0.41224 10.167671,-1.19786 15.857325,-3.82928 28.288705,-16.41373 31.893635,-32.35691 0.69491,-3.072 1.05127,-6.27603 1.05127,-9.55618 0,-3.55553 -0.43492,-7.00739 -1.24646,-10.31427 -3.81308,-15.52849 -16.02173,-27.7412 -31.552661,-31.55185 -3.303642,-0.80991 -6.762788,-1.24646 -10.314265,-1.24727 z m 0,1.56476 c 3.42513,8.1e-4 6.740111,0.4171 9.923076,1.19705 14.96237,3.67135 26.75311,15.44265 30.42688,30.4042 0.78238,3.18459 1.19786,6.51901 1.19786,9.94657 0,3.16352 -0.35717,6.25497 -1.02697,9.2144 -3.47291,15.36165 -15.44183,27.49418 -30.720067,31.18496 -3.13923,0.75646 -6.428294,1.14927 -9.800779,1.14927 -3.415411,0 -6.723103,-0.39686 -9.897969,-1.17357 -15.080613,-3.68916 -26.939386,-15.62488 -30.524879,-30.74518 -0.732973,-3.0882 -1.124972,-6.31571 -1.124972,-9.62988 0,-3.45024 0.406578,-6.79114 1.197864,-9.99435 3.699691,-14.97209 15.526877,-26.74663 30.52488,-30.37991 3.148948,-0.76294 6.442062,-1.17275 9.825076,-1.17356 z"
     id="path7" /><path
     style="fill:#f4f4f4;stroke-width:0.80991483"
     inkscape:connector-curvature="0"
     d="m 76.442074,135.45892 c -3.507741,0 -6.924771,0.43007 -10.191158,1.22216 h -0.0243 -0.0494 c -0.704626,0.23974 -1.33069,0.67385 -1.734838,1.31935 -0.404957,0.64632 -0.56289,1.44246 -0.56289,2.42003 v 23.68191 c 0,0.76051 -0.131207,1.23512 -0.318297,1.46676 -0.18547,0.23082 -0.515106,0.43978 -1.466756,0.43978 H 38.291037 c -0.849601,0 -1.580954,0.0486 -2.248323,0.36608 -0.66737,0.32073 -1.154939,0.95003 -1.441649,1.76157 v 0.0227 l -0.0243,0.0502 c -0.821254,3.32389 -1.246459,6.78465 -1.246459,10.36286 0,3.43566 0.387949,6.79032 1.148459,9.99678 h 0.0243 c 0.211387,0.81963 0.577469,1.55746 1.247268,2.00373 0.6698,0.44464 1.505632,0.56127 2.541513,0.56127 h 23.779909 c 0.75889,0 1.167087,0.14578 1.393053,0.36689 0.225966,0.2211 0.415486,0.66089 0.415486,1.56475 v 23.65761 c 0,1.13146 0.205719,1.9762 0.635784,2.59011 0.430064,0.61311 1.048029,0.9314 1.563945,1.12416 h 0.04941 l 0.0243,0.0243 c 3.295544,0.80587 6.748211,1.22216 10.289158,1.22216 3.497212,0 6.909383,-0.41143 10.166861,-1.19786 h 0.0243 c 0.639023,-0.17737 1.271566,-0.55722 1.71054,-1.19787 0.438974,-0.63902 0.660081,-1.50158 0.660081,-2.565 v -23.68109 c 0,-0.72812 0.180611,-1.17357 0.439784,-1.44246 0.259172,-0.26889 0.689237,-0.46408 1.51535,-0.46408 h 23.633313 c 1.22216,0 2.15114,-0.31425 2.78611,-0.90306 0.63497,-0.59043 0.93788,-1.35094 1.12416,-2.07743 v -0.0235 c 0.69491,-3.072 1.05046,-6.27603 1.05046,-9.55618 0,-3.55472 -0.43411,-7.0082 -1.24646,-10.31427 v -0.0243 c -0.21949,-0.80019 -0.62201,-1.47728 -1.29586,-1.83283 -0.67304,-0.35475 -1.42626,-0.39119 -2.41922,-0.39119 H 90.983285 c -0.927353,0 -1.361467,-0.20086 -1.588243,-0.43979 -0.227586,-0.23892 -0.391189,-0.67546 -0.391189,-1.46675 v -23.6811 c 0,-0.94274 -0.05912,-1.70487 -0.415486,-2.37143 -0.357173,-0.66656 -1.029402,-1.11849 -1.80854,-1.34365 h -0.0243 c -3.303642,-0.81072 -6.762788,-1.24727 -10.314265,-1.24727 z m 0,1.56476 c 3.417031,0 6.723103,0.41953 9.898779,1.19705 0.0073,0.002 0.01701,-0.002 0.0243,0 0.508627,0.15146 0.686808,0.29319 0.830973,0.56208 0.147405,0.27537 0.244594,0.79939 0.244594,1.63765 v 23.68191 c 0,0.98567 0.182231,1.90897 0.806675,2.56662 0.624445,0.65603 1.584194,0.90386 2.737513,0.90386 h 23.609012 c 0.92654,0 1.45542,0.098 1.68624,0.21949 0.22597,0.11825 0.35313,0.25593 0.51349,0.83097 0.002,0.007 -0.002,0.0162 0,0.0235 0.77833,3.17892 1.19786,6.502 1.19786,9.92308 0,3.16352 -0.35798,6.25497 -1.02697,9.2144 -0.15388,0.588 -0.34097,1.0213 -0.63497,1.29505 -0.30129,0.28023 -0.76861,0.48919 -1.73565,0.48919 H 90.960607 c -1.092575,0 -2.015878,0.30534 -2.639512,0.95327 -0.624445,0.64712 -0.879568,1.54127 -0.879568,2.51722 v 23.6819 c 0,0.8407 -0.174941,1.37119 -0.390379,1.68463 -0.217057,0.31505 -0.491618,0.46165 -0.85608,0.56127 -3.124651,0.7516 -6.395087,1.15008 -9.752184,1.15008 -3.388683,0 -6.671268,-0.38471 -9.824267,-1.15008 -0.01296,-0.005 -0.01053,-0.0178 -0.0243,-0.0227 -0.362842,-0.1393 -0.598527,-0.27699 -0.781568,-0.53778 -0.18952,-0.27051 -0.366891,-0.75241 -0.366891,-1.68544 v -23.65842 c 0,-1.12497 -0.244594,-2.04098 -0.879568,-2.66462 -0.635783,-0.62282 -1.529929,-0.82935 -2.492917,-0.82935 H 38.291847 c -0.891716,0 -1.386574,-0.13606 -1.661945,-0.3183 -0.273751,-0.18547 -0.450313,-0.42844 -0.610676,-1.05127 -0.732973,-3.0882 -1.124972,-6.31571 -1.124972,-9.62988 0,-3.42432 0.393619,-6.74011 1.173567,-9.92308 h 0.0243 c 0.203289,-0.57585 0.360412,-0.74836 0.635784,-0.87957 0.274561,-0.1312 0.780757,-0.196 1.563945,-0.196 h 23.805016 c 1.200294,0 2.129266,-0.30695 2.688917,-1.00105 0.558032,-0.6941 0.659271,-1.57771 0.659271,-2.46862 v -23.68191 c 0,-0.80343 0.127966,-1.28452 0.318296,-1.58905 0.183851,-0.29319 0.451123,-0.47461 0.903865,-0.63579 0.01458,-0.004 0.0097,-0.0186 0.0243,-0.0243 3.124651,-0.74917 6.394277,-1.14603 9.750564,-1.14603 z"
     id="path9" /><path
     style="fill:#f4f4f4;stroke-width:0.80991483"
     inkscape:connector-curvature="0"
     d="m 76.442074,166.9152 c -6.425864,0 -11.657104,5.23124 -11.657104,11.65711 0,6.42748 5.23124,11.65872 11.657104,11.65872 6.426674,0 11.657914,-5.23205 11.657914,-11.65872 0,-6.42668 -5.23205,-11.65711 -11.657914,-11.65711 z m 0,1.56314 c 5.581123,0 10.093968,4.51203 10.093968,10.09397 0,5.58112 -4.512845,10.09235 -10.093968,10.09235 -5.580313,0 -10.093158,-4.51123 -10.093158,-10.09235 0,-5.58194 4.512845,-10.09397 10.093158,-10.09397 z"
     id="circle11" /><path
     style="fill:#f4f4f4;stroke-width:0.80991483"
     inkscape:connector-curvature="0"
     d="m 51.464301,72.181088 c -5.89132,0 -10.681156,4.789026 -10.681156,10.680347 v 45.507495 c 0,2.55285 0.528064,4.41565 1.417351,5.7431 0.890096,1.32664 2.151944,2.05071 3.446187,2.34633 2.580389,0.58881 5.222331,-0.34017 6.623484,-1.19787 0.0065,-0.004 0.01782,0.004 0.0243,0 7.148308,-3.99612 15.372183,-6.28089 24.1468,-6.28089 27.395363,0 49.588653,22.19248 49.588653,49.58785 0,16.56276 -8.10887,31.22302 -20.57832,40.22847 l -0.0737,0.0494 -0.0486,0.0745 -1.46676,1.63684 -0.0494,0.0494 c -1.47567,1.50158 -2.39492,3.57415 -2.39492,5.8411 0,4.58412 3.72642,8.31054 8.30891,8.31054 h 6.45259 272.01313 0.78238 22.68085 c 20.71115,0 37.51445,-16.80411 37.51445,-37.51526 0,-7.46174 -2.17867,-14.41729 -5.9383,-20.26083 -0.005,-0.009 0.005,-0.017 0,-0.0235 -0.36203,-0.61068 -0.51348,-0.77104 -0.51348,-2.39573 V 82.862245 c 0,-5.891321 -4.78984,-10.680347 -10.68116,-10.680347 H 341.7823 c -3.50288,0 -6.30842,1.398723 -8.16475,3.642187 -1.85389,2.243464 -2.78529,5.288744 -2.78529,8.626403 v 7.185564 c 0,48.398078 -39.21851,87.592288 -87.61659,87.592288 -48.39727,0 -87.61577,-39.19502 -87.61577,-87.592288 v -7.185564 c 0,-3.540948 -0.64145,-6.56517 -2.24833,-8.773807 -1.61092,-2.203779 -4.1994,-3.490733 -7.67961,-3.490733 H 51.454582 Z m 0,1.563946 h 94.216579 c 3.11979,0 5.11137,1.025352 6.4283,2.834702 1.31692,1.810159 1.93083,4.521754 1.93083,7.869132 v 7.185564 c 0,49.242818 39.93852,89.157038 89.17972,89.157038 49.24282,0 89.18053,-39.91422 89.18053,-89.157038 v -7.185564 c 0,-3.04852 0.84798,-5.748776 2.41841,-7.649646 1.57204,-1.89682 3.87058,-3.050949 6.9685,-3.050949 h 90.25853 c 5.04496,0 9.1164,4.069822 9.1164,9.115592 v 91.698555 c 0,1.80125 0.35474,2.58525 0.73216,3.22589 h 0.0243 v 0.0235 c 3.60898,5.60461 5.69451,12.26454 5.69451,19.42904 0,19.86559 -16.0841,35.95212 -35.95212,35.95212 h -21.89847 -0.78238 -272.79308 -6.45259 c -3.73775,0 -6.74578,-3.00802 -6.74578,-6.74497 0,-1.86928 0.75727,-3.54176 1.97943,-4.76635 l 0.0243,-0.0235 v -0.0251 l 1.36876,-1.56476 c 0.0178,-0.013 0.03,-0.0356 0.0486,-0.0486 12.82986,-9.29296 21.1898,-24.40112 21.1898,-41.45063 0,-28.24092 -22.91249,-51.1526 -51.152596,-51.1526 -9.053228,0 -17.575152,2.37224 -24.952666,6.50118 h -0.0243 c -1.028592,0.63255 -3.51422,1.47405 -5.475024,1.02698 -0.979997,-0.22354 -1.827978,-0.71921 -2.492918,-1.71054 -0.66494,-0.99215 -1.148459,-2.51965 -1.148459,-4.86354 V 82.865484 c -0.0049,-5.043339 4.064962,-9.113161 9.111541,-9.113161 z"
     id="path13" /><path
     style="fill:#f4f4f4;stroke-width:0.80991483"
     inkscape:connector-curvature="0"
     d="m 359.5316,175.00058 c -12.98537,0 -23.53694,10.54995 -23.53694,23.53694 0,12.98374 10.54995,23.53612 23.53694,23.53612 12.98293,0 23.50858,-10.55076 23.50858,-23.53612 0.002,-12.98456 -10.52322,-23.53694 -23.50858,-23.53694 z m 0,1.56476 c 12.13819,0 21.94626,9.83236 21.94626,21.97218 0,12.13819 -9.80807,21.97137 -21.94626,21.97137 -12.14063,0 -21.97137,-9.83318 -21.97137,-21.97137 0,-12.13982 9.83074,-21.97218 21.97137,-21.97218 z"
     id="circle15" /><path
     style="fill:#f4f4f4;stroke-width:0.80991483"
     inkscape:connector-curvature="0"
     d="m 359.5316,178.59094 c -11.00432,0 -19.94253,8.93984 -19.94253,19.94334 0,11.00269 8.93821,19.94172 19.94253,19.94172 11.00269,0 19.94172,-8.93903 19.94172,-19.94172 0,-11.0035 -8.93903,-19.94334 -19.94172,-19.94334 z m 0,1.56394 c 10.15633,0 18.37615,8.21983 18.37615,18.37778 0,10.15714 -8.21982,18.37777 -18.37615,18.37777 -10.15795,0 -18.37859,-8.22063 -18.37859,-18.37777 0,-10.15714 8.22064,-18.37778 18.37859,-18.37778 z"
     id="circle17" /><path
     style="fill:#f4f4f4;stroke-width:0.80991483"
     inkscape:connector-curvature="0"
     d="m 359.5316,168.9165 c -16.35137,0 -29.62183,13.27046 -29.62183,29.62102 0,16.35218 13.27046,29.62101 29.62183,29.62101 h 54.81827 c 16.35137,0 29.62102,-13.26883 29.62102,-29.62101 0,-16.35056 -13.26965,-29.62102 -29.62102,-29.62102 z m 0,1.56395 h 54.81827 c 15.50663,0 28.05707,12.54882 28.05707,28.05707 0,15.50825 -12.54882,28.05707 -28.05707,28.05707 H 359.5316 c -15.50663,0 -28.05788,-12.54801 -28.05788,-28.05707 0.002,-15.50744 12.55125,-28.05707 28.05788,-28.05707 z"
     id="path19" /><path
     style="fill:#f4f4f4;stroke-width:0.80991483"
     inkscape:connector-curvature="0"
     d="m 414.34663,175.00058 c -12.98374,0 -23.53612,10.54995 -23.53612,23.53694 0,12.98374 10.55076,23.53612 23.53612,23.53612 12.98537,0 23.51102,-10.55076 23.51102,-23.53612 0,-12.98537 -10.52646,-23.53694 -23.51102,-23.53694 z m 0,1.56476 c 12.13981,0 21.94707,9.83236 21.94707,21.97218 0,12.13819 -9.80726,21.97137 -21.94707,21.97137 -12.13981,0 -21.97218,-9.83318 -21.97218,-21.97137 0,-12.13982 9.83318,-21.97218 21.97218,-21.97218 z"
     id="circle21" /><path
     style="fill:#f4f4f4;stroke-width:0.80991483"
     inkscape:connector-curvature="0"
     d="m 414.34663,178.59094 c -11.0035,0 -19.94334,8.93984 -19.94334,19.94334 0,11.00269 8.93984,19.94172 19.94334,19.94172 11.0035,0 19.94334,-8.93903 19.94334,-19.94172 0,-11.0035 -8.93984,-19.94334 -19.94334,-19.94334 z m 0,1.56394 c 10.15714,0 18.37859,8.21983 18.37859,18.37778 0,10.15714 -8.22145,18.37777 -18.37859,18.37777 -10.15714,0 -18.3794,-8.22063 -18.3794,-18.37777 0,-10.15714 8.22226,-18.37778 18.3794,-18.37778 z"
     id="circle23" /><path
     style="fill:#f4f4f4;stroke-width:0.80991483"
     inkscape:connector-curvature="0"
     d="m 205.04764,190.95429 c -4.02852,0 -7.30705,3.30283 -7.30705,7.33296 0,4.02933 3.27934,7.30706 7.30705,7.30706 h 20.38312 c 4.02852,0 7.30705,-3.28016 7.30705,-7.30706 0,-4.03013 -3.27853,-7.33296 -7.30705,-7.33296 z m 0,1.56475 h 20.38312 c 3.18297,0 5.74311,2.58282 5.74311,5.76821 0,3.18297 -2.56014,5.74311 -5.74311,5.74311 h -20.38312 c -3.18297,0 -5.74392,-2.55933 -5.74392,-5.74311 0,-3.18377 2.56014,-5.76821 5.74392,-5.76821 z"
     id="path29" /><path
     style="fill:#f4f4f4;stroke-width:0.80991483"
     inkscape:connector-curvature="0"
     d="m 205.04764,186.88041 c -6.28737,0 -11.38822,5.12676 -11.38822,11.41413 0,6.28656 5.10085,11.38983 11.38822,11.38983 h 20.38312 c 6.28737,0 11.41332,-5.10327 11.41332,-11.38983 0,-6.28737 -5.12595,-11.41413 -11.41332,-11.41413 z m 0,1.56476 h 20.38312 c 5.44182,0 9.84938,4.40675 9.84938,9.84937 0,5.44182 -4.40756,9.82427 -9.84938,9.82427 h -20.38312 c -5.44263,0 -9.82427,-4.38326 -9.82427,-9.82427 0,-5.44262 4.38245,-9.84937 9.82427,-9.84937 z"
     id="path31" /><path
     style="fill:#f4f4f4;stroke-width:0.80991483"
     inkscape:connector-curvature="0"
     d="m 261.45091,190.95429 c -4.02851,0 -7.30624,3.30283 -7.30624,7.33296 0,4.02933 3.27935,7.30706 7.30624,7.30706 h 20.38313 c 4.03014,0 7.30786,-3.28016 7.30786,-7.30706 0,-4.03013 -3.27934,-7.33296 -7.30786,-7.33296 z m 0,1.56475 h 20.38313 c 3.18216,0 5.74473,2.58444 5.74473,5.76821 0,3.18297 -2.56014,5.74311 -5.74473,5.74311 h -20.38313 c -3.18215,0 -5.7431,-2.55933 -5.7431,-5.74311 0,-3.18377 2.56095,-5.76821 5.7431,-5.76821 z"
     id="path33" /><path
     style="fill:#f4f4f4;stroke-width:0.80991483"
     inkscape:connector-curvature="0"
     d="m 261.45091,186.88041 c -6.28736,0 -11.41332,5.12676 -11.41332,11.41413 0,6.28656 5.12596,11.38983 11.41332,11.38983 h 20.38313 c 6.28899,0 11.38902,-5.10327 11.38902,-11.38983 0,-6.28737 -5.10003,-11.41413 -11.38902,-11.41413 z m 0,1.56476 h 20.38313 c 5.44425,0 9.82427,4.40675 9.82427,9.84937 0,5.44182 -4.38002,9.82427 -9.82427,9.82427 h -20.38313 c -5.44262,0 -9.84856,-4.38326 -9.84856,-9.82427 0,-5.44262 4.40594,-9.84937 9.84856,-9.84937 z"
     id="path35" /><path
     style="fill:#f4f4f4;stroke-width:0.80991483"
     inkscape:connector-curvature="0"
     d="m 76.442074,116.22021 c -10.976775,0 -21.315338,2.85414 -30.281095,7.84564 l -2.248323,1.24646 -0.684378,0.39119 0.366891,0.68438 2.517215,4.49664 0.391189,0.68438 0.684378,-0.36689 2.248324,-1.27076 c 7.998718,-4.45048 17.193681,-6.96526 27.005799,-6.96526 15.371373,8.1e-4 29.250076,6.20718 39.323796,16.27685 10.07048,10.07291 16.30034,23.95161 16.30115,39.32299 -0.002,17.73146 -8.3,33.50455 -21.21329,43.69895 l -2.02883,1.58986 -0.61068,0.48919 0.48919,0.61068 3.20159,4.05767 0.48919,0.61068 0.61068,-0.48919 2.02883,-1.58824 c 14.46265,-11.40927 23.75643,-29.13021 23.75562,-48.9796 -0.002,-34.423 -27.92344,-62.34481 -62.347246,-62.34562 z m 0,1.56394 c 33.579876,0.002 60.780866,27.20261 60.782486,60.78087 8.1e-4,19.3602 -9.06862,36.63164 -23.16923,47.75662 l -1.41735,1.09825 -2.22403,-2.8347 1.41735,-1.09987 c 13.2737,-10.47867 21.79886,-26.70451 21.80048,-44.9203 -8.1e-4,-15.79496 -6.41534,-30.07133 -16.76686,-40.42528 -10.35476,-10.34909 -24.631127,-16.73932 -40.423656,-16.74013 -10.082629,0 -19.540004,2.61036 -27.763879,7.18557 l -1.563946,0.87956 -1.759945,-3.153 1.564756,-0.87956 c 8.73979,-4.86435 18.81675,-7.64884 29.523824,-7.64803 z"
     id="path37" /></g>
</svg>