<?xml version="1.0" encoding="UTF-8" standalone="no"?>
<!-- Generator: Adobe Illustrator 13.0.0, SVG Export Plug-In . SVG Version: 6.00 Build 14948)  -->

<svg
   xmlns:ns="&amp;#38;#38;#38;ns_sfw;"
   xmlns:dc="http://purl.org/dc/elements/1.1/"
   xmlns:cc="http://creativecommons.org/ns#"
   xmlns:rdf="http://www.w3.org/1999/02/22-rdf-syntax-ns#"
   xmlns:svg="http://www.w3.org/2000/svg"
   xmlns="http://www.w3.org/2000/svg"
   xmlns:sodipodi="http://sodipodi.sourceforge.net/DTD/sodipodi-0.dtd"
   xmlns:inkscape="http://www.inkscape.org/namespaces/inkscape"
   version="1.2"
   id="Layer_3"
   x="0px"
   y="0px"
   width="598.189px"
   height="350.26px"
   viewBox="0 0 598.189 350.26"
   xml:space="preserve"
   sodipodi:docname="controller.svg"
   inkscape:version="0.92.5 (2060ec1f9f, 2020-04-08)"><defs
   id="defs29"><pattern
     y="0"
     x="0"
     height="6"
     width="6"
     patternUnits="userSpaceOnUse"
     id="EMFhbasepattern" /></defs><sodipodi:namedview
   pagecolor="#ffffff"
   bordercolor="#666666"
   borderopacity="1"
   objecttolerance="10"
   gridtolerance="10"
   guidetolerance="10"
   inkscape:pageopacity="0"
   inkscape:pageshadow="2"
   inkscape:window-width="1680"
   inkscape:window-height="965"
   id="namedview27"
   showgrid="false"
   inkscape:zoom="1.3475703"
   inkscape:cx="260.47753"
   inkscape:cy="235.71597"
   inkscape:window-x="0"
   inkscape:window-y="0"
   inkscape:window-maximized="1"
   inkscape:current-layer="Layer_3" />
<metadata
   id="metadata55">
	<rdf:RDF>
		<cc:Work
   rdf:about="">
			<dc:format>image/svg+xml</dc:format>
			<dc:type
   rdf:resource="http://purl.org/dc/dcmitype/StillImage" />
			<dc:title />
		</cc:Work>
	</rdf:RDF>
	<ns:sfw>
		<ns:slices />
		<ns:sliceSourceBounds
   height="242.633"
   width="579.431"
   y="412.108"
   x="675.286"
   bottomLeftOrigin="true" />
	</ns:sfw>
</metadata>
<path
   id="path3"
   fill="#F4F4F4"
   d="M122.598,85.096c-20.463,0-39.631,5.67-55.979,15.504l0.982,1.607  C83.662,92.545,102.485,87,122.598,87c58.999,0,106.813,47.811,106.813,106.812c0,43.56-26.068,81.02-63.448,97.642l0.773,1.727  c38.051-16.923,64.579-55.05,64.579-99.365c0-60.027-48.687-108.717-108.717-108.717L122.598,85.096z"
   style="fill:#f2f2f2" />
<path
   id="path5"
   fill="#F4F4F4"
   d="M251.371,166.311c-5.066,0-9.196,4.132-9.196,9.196c0,5.067,4.13,9.196,9.196,9.196h19.999  c5.066,0,9.196-4.129,9.196-9.196c0-5.065-4.13-9.196-9.196-9.196H251.371z M251.371,168.215h19.999  c4.037,0,7.292,3.257,7.292,7.292c0,4.038-3.255,7.292-7.292,7.292h-19.999c-4.036,0-7.292-3.254-7.292-7.292  C244.079,171.472,247.334,168.215,251.371,168.215z"
   style="fill:#ececec" />
<path
   id="path7"
   d="M298.263,59.889c-53.215,0-102.584,4.418-143.324,11.963  c-40.715,7.541-72.803,18.156-91.571,30.771c-0.011,0.007-0.02,0.022-0.03,0.03l-0.357,0.208v0.03  c-29.565,19.43-49.1,52.896-49.1,90.914c0,60.025,48.687,108.717,108.717,108.717c16.731,0,32.593-3.781,46.753-10.535l0.089-0.06  l0.06-0.06l0.06-0.029c36.176-17.553,79.873-28.659,132.667-28.659h2.738c52.799,0,96.498,11.106,132.667,28.659  c0.032,0.016,0.059,0.044,0.09,0.06l0.06,0.029c0.009,0.004,0.022-0.004,0.029,0l0.03,0.06  c14.161,6.755,30.021,10.535,46.754,10.535c60.025,0,108.717-48.687,108.717-108.717c0-38.02-19.534-71.489-49.104-90.917v-0.03  l-0.357-0.208c-0.012-0.007-0.019-0.022-0.03-0.03c-18.751-12.612-50.834-23.227-91.556-30.768  c-40.74-7.544-90.108-11.963-143.324-11.963h-10.656H298.263z M298.263,61.793h10.654c53.11,0,102.365,4.415,142.963,11.933  c40.599,7.519,72.549,18.165,90.888,30.504l0.03,0.03l0.357,0.208c0.011,0.008,0.018,0.021,0.029,0.03  c29.033,19.091,48.211,51.957,48.211,89.31c0,58.998-47.811,106.812-106.813,106.812c-16.396,0-31.919-3.697-45.801-10.297  l-0.03-0.028c-0.02-0.011-0.039-0.021-0.06-0.03h-0.029l-0.066-0.028c-36.465-17.733-80.5-28.961-133.648-28.961h-2.738  c-53.152,0-97.213,11.229-133.687,28.957l-0.03,0.029h-0.03l-0.089,0.06l-0.06,0.03c-13.865,6.581-29.367,10.267-45.741,10.267  c-59.001,0-106.813-47.807-106.813-106.813c0-37.35,19.178-70.213,48.211-89.305c0.012-0.007,0.019-0.022,0.029-0.03l0.357-0.208  l0.03-0.03c18.339-12.34,50.291-22.986,90.888-30.504c40.597-7.519,89.861-11.934,142.962-11.934L298.263,61.793z"
   style="fill:#f2f2f2"
   fill="#F4F4F4" />
<path
   id="path9"
   fill="#F4F4F4"
   d="M484.595,85.096c-60.028,0-108.717,48.687-108.717,108.717c0,44.319,26.528,82.446,64.578,99.365  l0.773-1.727c-37.369-16.627-63.443-54.091-63.443-97.65c0-58.999,47.81-106.813,106.813-106.813  c20.112,0,38.936,5.546,54.996,15.208l0.981-1.6c-16.342-9.833-35.512-15.504-55.978-15.504L484.595,85.096z"
   style="fill:#f2f2f2" />
<path
   id="path11"
   fill="#F4F4F4"
   d="M335.822,166.311c-5.064,0-9.195,4.132-9.195,9.196c0,5.067,4.131,9.196,9.195,9.196h19.999  c5.065,0,9.195-4.13,9.195-9.196c0-5.064-4.13-9.196-9.195-9.196H335.822z M335.822,168.215h19.999c4.037,0,7.291,3.257,7.291,7.292  c0,4.038-3.254,7.292-7.291,7.292h-19.999c-4.035,0-7.291-3.254-7.291-7.292C328.531,171.472,331.787,168.215,335.822,168.215z"
   style="fill:#ececec" />
<g
   id="g13"
   style="fill:#ececec">
	<path
   fill="#F4F4F4"
   d="M95.819,171.386c0-26.145,21.194-47.337,47.339-47.337l0,0V125v0.953c-12.549,0-23.902,5.084-32.127,13.308   l0,0c-8.222,8.224-13.306,19.576-13.306,32.125l0,0c0,12.549,5.084,23.901,13.306,32.125l0,0   c8.226,8.224,19.578,13.308,32.127,13.308l0,0c12.549,0,23.902-5.084,32.125-13.308l0,0c8.224-8.224,13.308-19.576,13.308-32.125   l0,0c0-12.549-5.084-23.902-13.308-32.125l0,0c-8.223-8.224-19.576-13.308-32.125-13.308l0,0V125v-0.951   c26.144,0,47.336,21.192,47.338,47.337l0,0c-0.002,26.144-21.194,47.336-47.338,47.338l0,0   C117.014,218.722,95.819,197.529,95.819,171.386L95.819,171.386z"
   id="path8"
   style="fill:#ececec" />
	<path
   fill="#F4F4F4"
   d="M130.323,216.261v-29.646c0-0.936-0.215-1.517-0.508-1.839l0,0c-0.292-0.318-0.742-0.545-1.645-0.552l0,0   H98.422v-1.906h29.748c1.234-0.007,2.337,0.369,3.064,1.188l0,0c0.725,0.816,0.994,1.907,0.994,3.109l0,0v29.646H130.323   L130.323,216.261z"
   id="path10"
   style="fill:#ececec" />
	<path
   fill="#F4F4F4"
   d="M98.359,160.455v-1.904h29.536c1.092,0.002,1.672-0.229,1.948-0.49l0,0   c0.275-0.254,0.472-0.691,0.478-1.597l0,0v-29.848h1.904v29.848c0.006,1.166-0.281,2.249-1.092,2.996l0,0   c-0.813,0.741-1.921,0.993-3.238,0.995l0,0H98.359L98.359,160.455z"
   id="path12"
   style="fill:#ececec" />
	<path
   fill="#F4F4F4"
   d="M155.155,159.324c-0.775-0.776-1.067-1.841-1.065-2.929l0,0V126.55h0.002h1.904v29.846   c0.002,0.782,0.195,1.271,0.505,1.58l0,0c0.312,0.312,0.866,0.573,1.921,0.577l0,0h29.645v1.905h-29.645c-0.008,0-0.015,0-0.023,0   l0,0C157.051,160.457,155.924,160.095,155.155,159.324L155.155,159.324z"
   id="path14"
   style="fill:#ececec" />
	<path
   fill="#F4F4F4"
   d="M154.091,216.26v-29.611c-0.004-1.298,0.326-2.436,1.12-3.229l0,0c0.795-0.793,1.916-1.105,3.145-1.104l0,0   l29.61,0.003v1.904h-29.61c-0.944,0.002-1.481,0.226-1.797,0.544l0,0c-0.318,0.317-0.558,0.869-0.562,1.882l0,0v29.611H154.091   L154.091,216.26z"
   id="path16"
   style="fill:#ececec" />
</g>
<path
   id="circle25"
   fill="#F4F4F4"
   d="M143.158,161.13c-5.653,0-10.267,4.614-10.267,10.266c0,5.653,4.614,10.237,10.267,10.237  c5.653,0,10.267-4.584,10.267-10.237S148.812,161.13,143.158,161.13z M143.158,163.034c4.624,0,8.363,3.739,8.363,8.362  c0,4.624-3.739,8.333-8.363,8.333c-4.624,0-8.362-3.709-8.362-8.333S138.535,163.034,143.158,163.034z"
   style="fill:#f2f2f2" />
<path
   id="circle27"
   fill="#F4F4F4"
   d="M143.158,104.291c-37.047,0-67.109,30.062-67.109,67.109s30.062,67.08,67.109,67.08  c37.048,0,67.109-30.032,67.109-67.08C210.268,134.353,180.205,104.291,143.158,104.291z M143.158,106.195  c36.018,0,65.205,29.186,65.205,65.204c0,36.018-29.186,65.176-65.205,65.176c-36.018,0-65.205-29.157-65.205-65.176  C77.954,135.382,107.14,106.195,143.158,106.195z"
   style="fill:#ececec" />
<path
   id="circle29"
   fill="#F4F4F4"
   d="M429.036,185.062c-13.567,0-24.611,11.015-24.611,24.581  c0,13.567,11.043,24.612,24.611,24.612c13.566,0,24.58-11.044,24.58-24.612C453.616,196.076,442.603,185.062,429.036,185.062z   M429.036,186.966c12.538,0,22.676,10.141,22.676,22.677c0,12.538-10.139,22.707-22.676,22.707  c-12.538,0-22.707-10.169-22.707-22.707C406.329,197.105,416.498,186.966,429.036,186.966z"
   style="fill:#f2f2f2" />
<path
   id="circle31"
   fill="#F4F4F4"
   d="M472.747,146.759c-13.566,0-24.581,11.014-24.581,24.581  c0,13.566,11.015,24.581,24.581,24.581c13.567,0,24.581-11.015,24.581-24.581C497.328,157.773,486.314,146.759,472.747,146.759z   M472.747,148.663c12.538,0,22.677,10.139,22.677,22.677c0,12.538-10.14,22.677-22.677,22.677c-12.539,0-22.677-10.14-22.677-22.677  C450.07,158.801,460.21,148.663,472.747,148.663z"
   style="fill:#f2f2f2" />
<path
   id="circle33"
   fill="#F4F4F4"
   d="M524.649,119.319c-13.567,0-24.582,11.014-24.582,24.582  c0,13.566,11.015,24.611,24.582,24.611c13.566,0,24.58-11.044,24.58-24.611C549.229,130.333,538.216,119.319,524.649,119.319z   M524.649,121.223c12.537,0,22.677,10.14,22.677,22.678s-10.141,22.706-22.677,22.706c-12.539,0-22.678-10.168-22.678-22.706  C501.972,131.362,512.112,121.223,524.649,121.223z"
   style="fill:#f2f2f2" />
<path
   id="polyline35"
   fill="#F4F4F4"
   d="M315.081,262.467v3.987h-22.975v-3.958h-1.905v4.911v0.952h0.953h24.88h0.952v-0.952v-4.94  H315.081z"
   style="fill:#f2f2f2" />
<path
   id="path37"
   fill="#F4F4F4"
   d="M359.603,265.856l-1.515,1.162c5.073,6.614,13.05,10.862,22.022,10.862  c4.678,0,9.107-1.168,12.976-3.214L392.192,273c-3.602,1.905-7.719,2.976-12.082,2.976c-8.37,0-15.779-3.956-20.506-10.118  L359.603,265.856z"
   style="fill:#f2f2f2" />
<g
   aria-label="Panasonic"
   style="font-style:normal;font-weight:normal;font-size:18.9053688px;line-height:1.25;font-family:sans-serif;letter-spacing:0px;word-spacing:0px;fill:#f2f2f2;fill-opacity:1;stroke:none;stroke-width:0.47263423"
   id="text838"><path
     d="m 251.24211,90.249101 h 5.89869 q 2.63088,0 4.03401,1.172355 1.41236,1.163123 1.41236,3.323209 0,2.169317 -1.41236,3.341672 -1.40313,1.163123 -4.03401,1.163123 h -2.34471 v 4.78173 h -3.55398 z m 3.55398,2.575488 v 3.849384 h 1.96624 q 1.03388,0 1.59698,-0.498482 0.5631,-0.507712 0.5631,-1.430826 0,-0.923114 -0.5631,-1.421595 -0.5631,-0.498481 -1.59698,-0.498481 z"
     style="font-style:normal;font-variant:normal;font-weight:bold;font-stretch:normal;font-family:sans-serif;-inkscape-font-specification:'sans-serif Bold';fill:#f2f2f2;stroke-width:0.47263423"
     id="path849" /><path
     d="m 269.07666,99.378696 q -1.03388,0 -1.56006,0.350783 -0.51694,0.350781 -0.51694,1.033891 0,0.62771 0.4154,0.98773 0.42463,0.35078 1.17235,0.35078 0.93235,0 1.5693,-0.66464 0.63695,-0.67387 0.63695,-1.680068 v -0.378476 z m 5.04944,-1.246204 v 5.898698 h -3.33244 v -1.53237 q -0.66465,0.94158 -1.49545,1.37544 -0.8308,0.42463 -2.02162,0.42463 -1.60622,0 -2.61241,-0.93234 -0.99696,-0.94158 -0.99696,-2.43702 0,-1.818537 1.2462,-2.667802 1.25544,-0.849264 3.93247,-0.849264 h 1.94777 v -0.258472 q 0,-0.784647 -0.61849,-1.144661 -0.61849,-0.369246 -1.92931,-0.369246 -1.06158,0 -1.97546,0.212316 -0.91388,0.212317 -1.69853,0.636949 v -2.5201 q 1.06158,-0.258472 2.13239,-0.387708 1.07081,-0.138467 2.14163,-0.138467 2.79703,0 4.034,1.107736 1.24621,1.098505 1.24621,3.581681 z"
     style="font-style:normal;font-variant:normal;font-weight:bold;font-stretch:normal;font-family:sans-serif;-inkscape-font-specification:'sans-serif Bold';fill:#f2f2f2;stroke-width:0.47263423"
     id="path852" /><path
     d="m 287.59432,97.735553 v 6.295637 h -3.3232 v -1.02466 -3.793995 q 0,-1.338514 -0.0646,-1.846227 -0.0554,-0.507713 -0.20309,-0.747722 -0.19385,-0.32309 -0.52617,-0.498482 -0.33232,-0.184622 -0.75696,-0.184622 -1.03388,0 -1.62468,0.803109 -0.59079,0.793877 -0.59079,2.206241 v 5.086358 h -3.30475 V 93.692315 h 3.30475 v 1.513907 q 0.74772,-0.904652 1.58776,-1.329284 0.84003,-0.433863 1.85546,-0.433863 1.79084,0 2.71395,1.098505 0.93234,1.098505 0.93234,3.193973 z"
     style="font-style:normal;font-variant:normal;font-weight:bold;font-stretch:normal;font-family:sans-serif;-inkscape-font-specification:'sans-serif Bold';fill:#f2f2f2;stroke-width:0.47263423"
     id="path854" /><path
     d="m 295.29309,99.378696 q -1.03389,0 -1.56006,0.350783 -0.51695,0.350781 -0.51695,1.033891 0,0.62771 0.41541,0.98773 0.42463,0.35078 1.17235,0.35078 0.93235,0 1.56929,-0.66464 0.63695,-0.67387 0.63695,-1.680068 v -0.378476 z m 5.04943,-1.246204 v 5.898698 h -3.33244 v -1.53237 q -0.66464,0.94158 -1.49544,1.37544 -0.8308,0.42463 -2.02162,0.42463 -1.60622,0 -2.61241,-0.93234 -0.99697,-0.94158 -0.99697,-2.43702 0,-1.818537 1.24621,-2.667802 1.25543,-0.849264 3.93246,-0.849264 h 1.94777 v -0.258472 q 0,-0.784647 -0.61848,-1.144661 -0.61849,-0.369246 -1.92931,-0.369246 -1.06158,0 -1.97546,0.212316 -0.91389,0.212317 -1.69853,0.636949 v -2.5201 q 1.06158,-0.258472 2.13239,-0.387708 1.07081,-0.138467 2.14162,-0.138467 2.79704,0 4.03401,1.107736 1.2462,1.098505 1.2462,3.581681 z"
     style="font-style:normal;font-variant:normal;font-weight:bold;font-stretch:normal;font-family:sans-serif;-inkscape-font-specification:'sans-serif Bold';fill:#f2f2f2;stroke-width:0.47263423"
     id="path856" /><path
     d="m 311.49374,94.015405 v 2.510869 q -1.06158,-0.443094 -2.04932,-0.664641 -0.98773,-0.221548 -1.86469,-0.221548 -0.94157,0 -1.40313,0.24001 -0.45232,0.230778 -0.45232,0.720029 0,0.396938 0.34155,0.609255 0.35078,0.212316 1.2462,0.313858 l 0.58156,0.08308 q 2.53857,0.323089 3.41552,1.06158 0.87696,0.738491 0.87696,2.317012 0,1.65238 -1.21851,2.48318 -1.21851,0.8308 -3.63707,0.8308 -1.02465,0 -2.12316,-0.16616 -1.08927,-0.15693 -2.24316,-0.48002 v -2.51087 q 0.98773,0.48002 2.02161,0.72003 1.04312,0.24001 2.11393,0.24001 0.96927,0 1.45852,-0.2677 0.48925,-0.2677 0.48925,-0.79388 0,-0.44309 -0.34155,-0.65541 -0.33232,-0.22155 -1.33851,-0.34155 l -0.58156,-0.07385 q -2.20625,-0.276934 -3.09243,-1.024657 -0.88619,-0.747722 -0.88619,-2.270859 0,-1.643143 1.12619,-2.437021 1.1262,-0.793877 3.45245,-0.793877 0.91388,0 1.92008,0.138467 1.00619,0.138467 2.18778,0.433863 z"
     style="font-style:normal;font-variant:normal;font-weight:bold;font-stretch:normal;font-family:sans-serif;-inkscape-font-specification:'sans-serif Bold';fill:#f2f2f2;stroke-width:0.47263423"
     id="path858" /><path
     d="m 319.58945,95.806246 q -1.09851,0 -1.68007,0.793878 -0.57233,0.784646 -0.57233,2.270859 0,1.486217 0.57233,2.280087 0.58156,0.78465 1.68007,0.78465 1.08004,0 1.65237,-0.78465 0.57233,-0.79387 0.57233,-2.280087 0,-1.486213 -0.57233,-2.270859 -0.57233,-0.793878 -1.65237,-0.793878 z m 0,-2.363171 q 2.66779,0 4.16324,1.440057 1.50467,1.440057 1.50467,3.987851 0,2.547797 -1.50467,3.987847 -1.49545,1.44006 -4.16324,1.44006 -2.67703,0 -4.19094,-1.44006 -1.50468,-1.44005 -1.50468,-3.987847 0,-2.547794 1.50468,-3.987851 1.51391,-1.440057 4.19094,-1.440057 z"
     style="font-style:normal;font-variant:normal;font-weight:bold;font-stretch:normal;font-family:sans-serif;-inkscape-font-specification:'sans-serif Bold';fill:#f2f2f2;stroke-width:0.47263423"
     id="path860" /><path
     d="m 338.05172,97.735553 v 6.295637 h -3.32321 v -1.02466 -3.793995 q 0,-1.338514 -0.0646,-1.846227 -0.0554,-0.507713 -0.20308,-0.747722 -0.19386,-0.32309 -0.52618,-0.498482 -0.33232,-0.184622 -0.75695,-0.184622 -1.03389,0 -1.62468,0.803109 -0.5908,0.793877 -0.5908,2.206241 v 5.086358 h -3.30474 V 93.692315 h 3.30474 v 1.513907 q 0.74773,-0.904652 1.58776,-1.329284 0.84003,-0.433863 1.85546,-0.433863 1.79084,0 2.71395,1.098505 0.93235,1.098505 0.93235,3.193973 z"
     style="font-style:normal;font-variant:normal;font-weight:bold;font-stretch:normal;font-family:sans-serif;-inkscape-font-specification:'sans-serif Bold';fill:#f2f2f2;stroke-width:0.47263423"
     id="path862" /><path
     d="m 341.11646,93.692315 h 3.30474 v 10.338875 h -3.30474 z m 0,-4.024775 h 3.30474 v 2.695492 h -3.30474 z"
     style="font-style:normal;font-variant:normal;font-weight:bold;font-stretch:normal;font-family:sans-serif;-inkscape-font-specification:'sans-serif Bold';fill:#f2f2f2;stroke-width:0.47263423"
     id="path864" /><path
     d="m 355.95089,94.015405 v 2.695492 q -0.67387,-0.461557 -1.35698,-0.683104 -0.67387,-0.221547 -1.40313,-0.221547 -1.38467,0 -2.16008,0.81234 -0.76619,0.803109 -0.76619,2.252397 0,1.449287 0.76619,2.261627 0.77541,0.80311 2.16008,0.80311 0.77542,0 1.46775,-0.23078 0.70157,-0.23078 1.29236,-0.6831 v 2.70472 q -0.77541,0.28617 -1.57852,0.42463 -0.79388,0.1477 -1.59699,0.1477 -2.79703,0 -4.37556,-1.43082 -1.57852,-1.44006 -1.57852,-3.997087 0,-2.557025 1.57852,-3.987851 1.57853,-1.440057 4.37556,-1.440057 0.81234,0 1.59699,0.147698 0.79387,0.138467 1.57852,0.424632 z"
     style="font-style:normal;font-variant:normal;font-weight:bold;font-stretch:normal;font-family:sans-serif;-inkscape-font-specification:'sans-serif Bold';fill:#f2f2f2;stroke-width:0.47263423"
     id="path866" /></g>

















<circle
   style="opacity:1;fill:none;fill-opacity:1;stroke:#f2f2f2;stroke-width:1.23570478;stroke-linejoin:round;stroke-miterlimit:4;stroke-dasharray:none"
   id="path959"
   cx="472.74701"
   cy="171.34"
   r="7.5609102" /><path
   style="opacity:1;fill:#f2f2f2;fill-opacity:1;stroke:none;stroke-width:0.52893567;stroke-linejoin:round;stroke-miterlimit:4;stroke-dasharray:none"
   d="m 293.78943,242.10407 v 7.78645 h 19.61414 v -7.78645 z m 15.09165,1.25549 c 0.65869,0 1.24873,0.22974 1.76862,0.68923 0.52012,0.45948 0.7788,1.11262 0.7788,1.95989 0,0.79413 -0.24453,1.43094 -0.73629,1.9098 -0.49176,0.47873 -1.09273,0.71807 -1.80202,0.71807 -0.76657,0 -1.39056,-0.25431 -1.87184,-0.7621 -0.48127,-0.50802 -0.72263,-1.14004 -0.72263,-1.89613 0,-0.76831 0.25256,-1.39769 0.76059,-1.88703 0.50686,-0.48843 1.11549,-0.73173 1.82477,-0.73173 z m -11.34644,0.0349 c 0.51678,0 0.95099,0.10935 1.30558,0.32791 0.35551,0.21845 0.53286,0.49833 0.53286,0.84105 4.6e-4,0.6739 -0.62746,1.08039 -1.88247,1.22057 v 0.0152 c 0.69327,0.0129 1.20596,0.15162 1.53634,0.41445 0.33049,0.26271 0.49491,0.5794 0.49491,0.95186 0,0.41591 -0.18673,0.75908 -0.56322,1.02929 -0.37568,0.2709 -0.87744,0.40686 -1.50143,0.40686 -0.53926,0 -0.95582,-0.10815 -1.25093,-0.32337 -0.29499,-0.21522 -0.44178,-0.46054 -0.44178,-0.73628 0,-0.18294 0.0651,-0.33113 0.19736,-0.44329 0.13222,-0.11205 0.29203,-0.167 0.47669,-0.167 0.17326,0 0.32148,0.0483 0.44481,0.14574 0.12416,0.0984 0.18521,0.22818 0.18521,0.38864 0,0.21441 -0.14342,0.3938 -0.43114,0.53893 -0.0564,0.0282 -0.085,0.0616 -0.085,0.0972 0,0.0661 0.0808,0.12293 0.2429,0.17307 0.16127,0.0499 0.32568,0.0744 0.49491,0.0744 0.5539,0 0.83041,-0.40639 0.83041,-1.22057 0,-0.80612 -0.33239,-1.20994 -0.9974,-1.20994 l -0.5526,0.0228 c -0.11125,0 -0.16699,-0.0408 -0.16699,-0.12297 0,-0.0944 0.0592,-0.1427 0.1761,-0.1427 l 0.40078,0.0167 c 0.41038,0 0.68638,-0.0917 0.82586,-0.27478 0.14018,-0.18213 0.2095,-0.44185 0.2095,-0.7788 0,-0.34663 -0.0523,-0.60225 -0.15789,-0.76513 -0.10559,-0.16369 -0.28723,-0.24443 -0.54348,-0.24443 -0.13937,0 -0.27054,0.0224 -0.3932,0.0699 -0.12254,0.0468 -0.18521,0.0937 -0.18521,0.13967 0,0.0425 0.0409,0.0862 0.12145,0.13208 0.21118,0.13464 0.31729,0.28161 0.31729,0.43873 0,0.15481 -0.059,0.27692 -0.17762,0.36891 -0.1185,0.0911 -0.2509,0.13663 -0.39926,0.13663 -0.17084,0 -0.32313,-0.0525 -0.45696,-0.15637 -0.13384,-0.10478 -0.20191,-0.23302 -0.20191,-0.38864 0,-0.26433 0.14811,-0.49345 0.44633,-0.68619 0.29822,-0.19355 0.68166,-0.28996 1.14922,-0.28996 z m 2.54892,0.0349 h 2.91328 c 0.84243,0 1.50993,0.23851 2.00089,0.71656 0.49084,0.47724 0.73628,1.08012 0.73628,1.80808 0,0.37718 -0.0747,0.7329 -0.22468,1.0642 -0.14997,0.33211 -0.37961,0.63474 -0.69074,0.90633 -0.31125,0.27169 -0.63067,0.44699 -0.95793,0.52527 -0.32739,0.0781 -0.72968,0.11689 -1.20692,0.11689 h -2.57018 v -0.25201 h 0.72719 v -4.63483 h -0.72719 z m 8.78083,0.18065 c -0.26191,0 -0.47125,0.0619 -0.62699,0.18522 -0.15562,0.12415 -0.25123,0.32179 -0.28996,0.5951 -0.0378,0.27321 -0.0577,0.8076 -0.0577,1.60162 0,0.78595 0.0156,1.30668 0.0486,1.56063 0.0322,0.25395 0.12002,0.45647 0.26112,0.60725 0.14109,0.15066 0.36256,0.22468 0.66493,0.22468 0.25073,0 0.4554,-0.0596 0.61332,-0.18065 0.15816,-0.12174 0.25801,-0.31876 0.29755,-0.59207 0.0403,-0.27343 0.0592,-0.81097 0.0592,-1.61225 0,-0.78675 -0.0164,-1.30476 -0.0486,-1.55456 -0.0329,-0.25084 -0.11667,-0.45252 -0.25201,-0.60572 -0.13545,-0.15309 -0.35905,-0.22925 -0.66949,-0.22925 z m -6.65242,0.0698 v 4.63483 h 0.45392 c 0.69407,0 1.1142,-0.18142 1.25853,-0.545 0.14431,-0.36427 0.21557,-0.98625 0.21557,-1.8673 0,-0.68923 -0.0451,-1.18548 -0.13359,-1.48624 -0.0878,-0.30133 -0.22249,-0.4994 -0.40231,-0.59359 -0.17983,-0.0944 -0.40812,-0.1427 -0.68467,-0.1427 z"
   id="rect2312-3"
   inkscape:connector-curvature="0" /><g
   transform="matrix(0.12158361,0,0,0.12158361,290.83015,212.30878)"
   id="g856"
   style="fill:#f2f2f2;stroke:none"><path
     inkscape:connector-curvature="0"
     id="polygon25"
     style="fill:#f2f2f2;stroke:none"
     d="M 105,75.035 69.44,39.392 105,3.741 140.56,39.392 Z m -28.273,6.728 c -4.468,2.979 -5.657,20.286 -5.657,20.286 0,0 1.189,17.308 5.657,20.287 4.462,2.985 28.273,4.775 28.273,4.775 0,0 23.812,-1.79 28.272,-4.775 4.469,-2.979 5.658,-20.287 5.658,-20.287 0,0 -1.189,-17.308 -5.658,-20.286 C 128.812,78.776 105,76.986 105,76.986 c 0,0 -23.811,1.79 -28.273,4.777 z m -2.084,79.363 c 0,-16.812 13.587,-30.434 30.357,-30.434 16.769,0 30.356,13.622 30.356,30.434 0,16.811 -13.588,30.434 -30.356,30.434 -16.77,0 -30.357,-13.623 -30.357,-30.434 z m -5.356,59.076 c 0,-3.461 15.986,-6.266 35.713,-6.266 19.727,0 35.714,2.805 35.714,6.266 0,3.462 -15.986,6.266 -35.714,6.266 -19.728,0 -35.713,-2.804 -35.713,-6.266 z" /></g><rect
   style="opacity:1;fill:none;fill-opacity:1;stroke:#f2f2f2;stroke-width:1.17835486;stroke-linejoin:round;stroke-miterlimit:4;stroke-dasharray:none"
   id="rect2312"
   width="18.965462"
   height="39.970219"
   x="294.11377"
   y="209.9203" /><path
   id="path851"
   d="M 98.650467,77.294222 193.7409,56.274232 c 2.0019,-1.00095 5.00476,1.00095 5.00476,3.00285 l 2.0019,7.00667 c -15.01428,1.00095 -30.02856,4.0038 -43.04093,6.00571 -24.02284,4.0038 -44.04188,10.00951 -61.058063,16.01523 l -1.00095,-6.00572 c -1.00095,-2.0019 1.00095,-5.00475 3.00285,-5.00475 z"
   style="fill:none;stroke:#ececec;stroke-width:1.601;stroke-linecap:round;stroke-linejoin:round;stroke-miterlimit:4;stroke-dasharray:none;stroke-opacity:1"
   inkscape:connector-curvature="0" /><path
   id="path853"
   d="m 510.04167,77.294222 -95.09042,-21.01999 c -2.00191,0 -5.00476,1.00095 -5.00476,4.0038 l -2.00191,6.00572 c 15.01428,2.0019 30.02856,4.0038 43.04093,7.00666 24.02284,4.00381 44.04188,9.00856 61.05806,15.01428 l 1.00095,-5.00476 c 1.00095,-3.00286 -1.00095,-5.00476 -3.00285,-6.00571 z"
   style="fill:none;stroke:#f2f2f2;stroke-width:1.601;stroke-linecap:round;stroke-linejoin:round;stroke-miterlimit:4;stroke-dasharray:none;stroke-opacity:1"
   inkscape:connector-curvature="0" /></svg>