<?xml version="1.0" encoding="UTF-8" standalone="no"?>
<!-- Generator: Adobe Illustrator 15.0.0, SVG Export Plug-In . SVG Version: 6.00 Build 0)  -->

<svg
   version="1.1"
   x="0px"
   y="0px"
   width="522.04156"
   height="175.883"
   viewBox="0 0 522.04155 175.883"
   id="svg27"
   sodipodi:docname="system_color.svg"
   inkscape:version="1.1.2 (0a00cf5339, 2022-02-04)"
   xmlns:inkscape="http://www.inkscape.org/namespaces/inkscape"
   xmlns:sodipodi="http://sodipodi.sourceforge.net/DTD/sodipodi-0.dtd"
   xmlns="http://www.w3.org/2000/svg"
   xmlns:svg="http://www.w3.org/2000/svg"
   xmlns:rdf="http://www.w3.org/1999/02/22-rdf-syntax-ns#"
   xmlns:cc="http://creativecommons.org/ns#"
   xmlns:dc="http://purl.org/dc/elements/1.1/">
  <metadata
     id="metadata33">
    <rdf:RDF>
      <cc:Work
         rdf:about="">
        <dc:format>image/svg+xml</dc:format>
        <dc:type
           rdf:resource="http://purl.org/dc/dcmitype/StillImage" />
        <dc:title>3DO Logo</dc:title>
      </cc:Work>
    </rdf:RDF>
  </metadata>
  <defs
     id="defs31" />
  <sodipodi:namedview
     pagecolor="#ffffff"
     bordercolor="#666666"
     borderopacity="1"
     objecttolerance="10"
     gridtolerance="10"
     guidetolerance="10"
     inkscape:pageopacity="0"
     inkscape:pageshadow="2"
     inkscape:window-width="1920"
     inkscape:window-height="995"
     id="namedview29"
     showgrid="false"
     fit-margin-top="0"
     fit-margin-left="0"
     fit-margin-right="0"
     fit-margin-bottom="0"
     inkscape:zoom="0.92709555"
     inkscape:cx="92.223504"
     inkscape:cy="124.04331"
     inkscape:window-x="0"
     inkscape:window-y="0"
     inkscape:window-maximized="1"
     inkscape:current-layer="svg27"
     inkscape:pagecheckerboard="0" />
  <title
     id="title2">3DO Logo</title>
  <radialGradient
     id="SVGID_1_"
     cx="109.1953"
     cy="155.1304"
     r="36.6576"
     gradientUnits="userSpaceOnUse">
    <stop
       offset="0.5225"
       stop-color="#FFE41B"
       id="stop14" />
    <stop
       offset="0.8933"
       stop-color="#716A13"
       id="stop16" />
    <stop
       offset="1"
       stop-color="#49482E"
       id="stop18" />
  </radialGradient>
  <path
     inkscape:connector-curvature="0"
     id="path8"
     d="m 57.548157,80.819031 v 0.510942 c 23.103779,0.430266 40.164618,5.024899 51.174833,13.783897 11.01406,8.75516 16.52301,19.34279 16.52301,31.75521 0,13.86073 -6.25808,25.30506 -18.80496,34.30992 -12.51999,9.02792 -29.204345,13.53803 -49.999283,13.53803 -17.971314,0 -31.858936,-3.60348 -41.693601,-10.77587 C 4.9173326,156.76877 8.5109988e-8,148.60139 8.5109988e-8,139.41212 8.5109988e-8,133.3154 2.2012747,128.37117 6.6076656,124.63323 c 4.4063914,-3.7341 9.6963654,-5.58578 15.8507144,-5.58578 5.774024,0 10.745139,1.64039 14.855722,4.8866 4.137474,3.28078 6.177399,7.60266 6.177399,12.95025 0,7.1455 -4.782874,13.13466 -14.371673,17.97132 -1.878574,0.94121 -2.846674,2.01303 -2.846674,3.20011 0,2.20127 2.685324,4.13363 8.086707,5.80475 5.374491,1.66344 10.852706,2.47019 16.492272,2.47019 18.459205,0 27.698412,-13.56492 27.698412,-40.6986 0,-26.864775 -11.094732,-40.29524 -33.257303,-40.29524 L 26.88782,86.085955 c -3.707207,0 -5.589624,-1.367633 -5.589624,-4.106741 0,-3.146324 1.963092,-4.72909 5.858541,-4.72909 l 13.403573,0.510941 c 13.676331,0 22.834862,-3.034916 27.483278,-9.135482 4.671466,-6.069832 6.984149,-14.721264 6.984149,-25.950453 0,-11.55189 -1.747958,-20.068864 -5.266924,-25.497138 -3.518966,-5.455165 -9.565748,-8.16354 -18.105772,-8.16354 -4.644574,0 -9.024073,0.7760165 -13.111606,2.358783 -4.083691,1.559716 -6.150507,3.092541 -6.150507,4.625366 0,1.417575 1.344583,2.900458 4.029907,4.429441 7.037933,4.487066 10.58379,9.350615 10.58379,14.586805 0,5.159358 -1.959249,9.239207 -5.912324,12.304857 -3.949232,3.034916 -8.382515,4.563899 -13.326739,4.563899 -5.693349,0 -10.772032,-1.747958 -15.232206,-5.209299 -4.460174,-3.492075 -6.7190736,-7.790899 -6.7190736,-12.977148 0,-8.80894 4.9711156,-16.438489 14.9095056,-22.861754 9.93839,-6.4501575 22.673513,-9.6694736 38.25531,-9.6694736 17.222189,0 31.72832,3.6495827 43.545282,10.9333816 11.8477,7.279957 17.76002,16.599839 17.76002,28.021112 0.0154,22.458379 -20.914025,36.027143 -62.738243,40.698609 z"
     style="fill:#ffffff;stroke-width:3.84167" />
  <path
     inkscape:connector-curvature="0"
     id="path10"
     d="M 214.89391,10.704785 V 165.17433 h 15.12464 c 23.13067,0 37.09898,-6.06983 41.90875,-18.18644 4.80976,-12.13967 7.20312,-32.88082 7.20312,-62.242676 0,-22.969321 -1.48288,-39.492327 -4.43328,-49.515233 C 271.76979,25.187866 267.28272,18.576359 261.28972,15.437718 255.29671,12.291393 247.671,10.708627 238.45485,10.708627 H 214.89391 Z M 168.17541,165.17433 V 10.704785 H 143.94602 V 2.3491615 h 97.08659 c 28.0749,0 50.31813,7.9522485 66.67982,23.8836375 16.35782,15.904497 24.55209,35.99641 24.55209,60.256531 0,12.569931 -2.49324,24.42147 -7.49125,35.46242 -4.99801,11.06784 -12.68134,21.14069 -23.04999,30.19165 -10.37254,9.05481 -21.01009,14.88262 -31.91658,17.49111 -10.91034,2.60465 -24.28703,3.89929 -40.19153,3.89929 h -85.66915 v -8.35947 z"
     style="fill:#ffffff;stroke-width:3.84167" />
  <path
     inkscape:connector-curvature="0"
     id="path12"
     d="m 468.89983,88.008709 c 0,-26.21937 -0.54168,-43.495342 -1.6135,-51.820233 -1.09872,-8.359465 -3.89545,-15.074697 -8.40557,-20.180271 -4.51396,-5.101732 -11.95526,-7.6564404 -22.30087,-7.6564404 -8.72827,0 -15.68552,2.0706584 -20.87561,6.1812404 -5.18625,4.137475 -8.40557,10.74514 -9.69637,19.85373 -1.26006,9.104749 -1.90546,26.891662 -1.90546,53.353058 0,26.192477 0.53783,43.545287 1.63655,52.008477 1.07566,8.46319 3.97996,15.20915 8.68216,20.23405 4.7022,5.02106 12.08588,7.52198 22.16257,7.52198 8.35563,0 15.17842,-2.01303 20.44151,-6.04678 5.27076,-4.0568 8.57075,-10.61068 9.88844,-19.71927 1.34075,-9.11243 1.98615,-27.02612 1.98615,-53.729541 z M 350.96452,87.282634 c 0,-25.604704 8.43246,-46.55715 25.36268,-62.865022 C 393.21901,8.140473 413.50684,-1.725964e-5 437.14461,-1.725964e-5 c 21.95128,0 41.58988,7.65644035964 58.91579,22.96932125964 17.3336,15.31288 25.98119,37.098968 25.98119,65.335213 0,26.465233 -8.16738,47.686603 -24.55593,63.644883 -16.38854,15.95444 -36.40362,23.93358 -60.0414,23.93358 -25.54707,0 -46.3689,-8.49008 -62.40786,-25.41262 -16.03895,-16.93023 -24.07188,-37.99024 -24.07188,-63.187726 z"
     style="fill:#ffffff;stroke-width:3.84167" />
</svg>
