<?xml version="1.0" encoding="UTF-8" standalone="no"?>
<!-- Generator: Adobe Illustrator 13.0.0, SVG Export Plug-In . SVG Version: 6.00 Build 14948)  -->

<svg
   version="1.2"
   id="Layer_2"
   x="0px"
   y="0px"
   width="590.83044"
   height="252.26471"
   viewBox="0 0 590.83042 252.2647"
   xml:space="preserve"
   sodipodi:docname="controller.svg"
   inkscape:version="1.1.2 (0a00cf5339, 2022-02-04)"
   xmlns:inkscape="http://www.inkscape.org/namespaces/inkscape"
   xmlns:sodipodi="http://sodipodi.sourceforge.net/DTD/sodipodi-0.dtd"
   xmlns="http://www.w3.org/2000/svg"
   xmlns:svg="http://www.w3.org/2000/svg"><defs
   id="defs97">
	
	
	
	

	
	
	
	
</defs><sodipodi:namedview
   id="namedview95"
   pagecolor="#ffffff"
   bordercolor="#666666"
   borderopacity="1.0"
   inkscape:pageshadow="2"
   inkscape:pageopacity="0.0"
   inkscape:pagecheckerboard="0"
   showgrid="false"
   fit-margin-top="0"
   fit-margin-left="0"
   fit-margin-right="0"
   fit-margin-bottom="0"
   inkscape:zoom="0.36288026"
   inkscape:cx="-152.94301"
   inkscape:cy="464.34049"
   inkscape:window-width="1920"
   inkscape:window-height="996"
   inkscape:window-x="0"
   inkscape:window-y="0"
   inkscape:window-maximized="1"
   inkscape:current-layer="Layer_2" />

<path
   id="path2211"
   style="fill:#000000"
   d="m 479.4989,0.01926379 c -124.01953,-0.008 -248.03907,-0.01327 -372.0586,0.0078 -1.20597,0.04912 -2.30269,0.298954 -3.43945,0.375 -13.416341,-0.03422 -26.836571,-0.03899 -40.253903,0.02539 -10.314625,0.44749 -20.20785,6.20057901 -25.752074,14.90221521 -2.070834,2.957317 -3.836532,6.120095 -5.856928,9.105277 -2.421998,2.706252 -4.429243,5.7531 -6.429119,8.775824 C 17.910912,45.366708 12.443861,58.865938 8.2059324,72.628628 4.0208247,86.463208 1.1606332,100.73969 0.23913534,115.17746 c -0.2985475,6.0604 -0.2772446,12.13397 -0.1536777,18.19889 0.3423136,11.23112 2.11562376,22.37946 4.63894616,33.31461 2.9885216,12.65336 7.0927542,25.067 12.5330332,36.88297 3.934817,8.42364 8.591757,16.5726 14.461503,23.8064 0.717077,0.91212 1.631306,1.66331 2.565708,2.31727 3.332842,5.30307 6.494989,10.94038 11.487662,14.89185 6.130933,4.99094 14.107221,7.62104 22.003934,7.28923 12.34281,0.0132 24.689902,-0.0212 37.030036,0.0217 3.56933,0.63831 7.20846,0.21594 10.8098,0.34348 122.53132,-0.002 245.06297,0.007 367.59407,-0.0138 5.06418,-0.095 10.11131,-2.36126 13.30321,-6.33965 3.67694,-3.92431 6.88333,-8.26227 10.50683,-12.22981 2.25371,-2.00637 5.37627,-2.7775 8.33964,-2.53489 12.22643,0.016 24.45487,0.10395 36.68008,0.0253 3.33755,-0.21856 6.32113,-2.31327 8.10964,-5.07193 8.45944,-10.90648 14.40988,-23.52543 19.13256,-36.4316 5.40601,-14.92492 9.10005,-30.48704 10.79831,-46.27414 0.67753,-6.37305 0.79597,-12.7874 0.73658,-19.19117 0.0387,-7.74451 -0.55462,-15.48617 -1.74645,-23.13813 -2.34016,-15.588392 -6.5826,-30.887062 -12.50469,-45.492062 -4.41222,-10.72429 -9.8519,-21.125976 -17.08764,-30.23094 -0.65683,-0.881319 -1.50508,-1.609357 -2.27575,-2.362608 -3.26042,-5.201577 -6.32059,-10.725722 -11.07076,-14.7477632 -6.21721,-5.32438 -14.47238,-8.17263301 -22.65039,-7.82231701 -12.45866,-0.01337 -24.92174,0.02159 -37.37764,-0.02199 -2.17307,-0.43002 -4.40127,-0.37644 -6.60478,-0.347103 z M 108.29187,14.015358 c 124.8933,0.0052 249.78682,-3.3e-5 374.68,0.01175 1.2819,-0.0012 2.46272,0.697639 3.17451,1.745055 3.8672,4.137484 7.18519,8.757559 11.09074,12.857531 4.82369,4.520919 11.53772,6.859825 18.12271,6.505789 11.32368,-0.03169 22.64738,-0.05234 33.9711,-0.05957 6.2103,8.005005 10.74189,17.166355 14.56813,26.506745 2.02131,4.98004 3.80777,10.0969 5.34507,15.18311 2.07266,6.84067 3.76048,13.79713 5.07899,20.82187 0.26048,0.7994 -0.22393,0.0909 -0.53884,-0.26363 -3.22947,-3.77043 -7.70939,-6.43927 -12.55296,-7.51762 -3.65123,-6.36878 -8.92241,-11.7973 -15.16992,-15.65039 -1.53391,-8.45641 -8.16378,-15.77845 -16.4853,-18.00623 -5.92934,-1.69403 -12.52899,-0.9163 -17.85064,2.22302 -5.28414,3.01288 -9.29118,8.17428 -10.8223,14.06844 -0.15721,0.5132 -0.13269,1.14332 -0.76168,1.29484 -6.14348,3.65175 -11.39698,8.79505 -15.14454,14.88282 -6.40125,1.17345 -12.17723,5.2367 -15.54882,10.78906 -0.009,-25.15048 0.0132,-50.30171 -0.0158,-75.45171 -0.20776,-4.789691 -4.78366,-8.855102 -9.56272,-8.518996 -110.09513,0.005 -220.19046,-0.0047 -330.28547,0.0094 -4.82792,0.115699 -9.01135,4.673455 -8.70047,9.496851 0.004,62.633315 -0.0109,125.267407 0.0213,187.900237 0.0477,1.22355 0.38414,2.42903 0.93188,3.52125 -6.86746,0.7905 -12.70745,6.74477 -13.43892,13.60979 -0.34981,2.80277 0.10611,5.69221 1.24556,8.27302 -1.45724,-0.0586 -3.15689,0.16446 -4.27539,-0.99023 -3.98376,-4.25781 -7.473227,-8.9483 -11.396483,-13.25977 -4.869423,-4.78875 -11.823775,-7.25732 -18.618749,-6.87012 -11.287876,0.0263 -22.575752,0.0634 -33.863673,0.0557 -2.552779,-3.26163 -4.795495,-6.757 -6.837891,-10.35742 3.65058,-0.96084 6.483522,-4.3644 6.708985,-8.14063 0.282685,-3.79229 -2.004202,-7.64675 -5.550782,-9.08203 -2.87594,-1.25339 -6.371729,-0.82258 -8.912109,0.99609 -0.895463,-2.19662 -1.786901,-4.5962 -2.552734,-6.71484 -0.566896,-1.63503 -1.138244,-3.26846 -1.667969,-4.91601 3.993482,-0.17825 7.649052,-3.25717 8.439366,-7.18407 0.78286,-3.442 -0.63937,-7.24157 -3.499913,-9.31398 -2.732605,-2.0516 -6.649735,-2.36556 -9.667969,-0.75977 -1.258461,-5.64435 -2.282033,-11.3439 -2.976562,-17.08594 -0.162528,-1.365 -0.335841,-2.9646 -0.464491,-4.42387 -0.110427,-1.17114 -0.211803,-2.55835 -0.281603,-3.60152 -0.06855,-1.2144 -0.111347,-2.20593 -0.146484,-3.42773 -0.0426,-1.65859 -0.04692,-3.53598 -0.06009,-5.27921 -0.0033,-5.69173 -0.02627,-11.39616 0.602798,-17.06156 0.588454,-6.0637 1.616037,-12.215692 2.847914,-18.092822 3.114097,-14.44144 7.700939,-28.62147 14.278397,-41.87051 2.789181,-5.52392 5.929504,-10.902145 9.74504,-15.785744 12.377577,-0.04655 24.756518,0.09768 37.133184,0.0067 7.117003,-0.414921 13.888048,-4.224067 18.095405,-9.954479 3.020616,-3.568177 5.855483,-7.32377 9.213493,-10.583991 0.7102,-0.411684 1.54979,-0.514396 2.35675,-0.534673 z m 416.57226,0.369141 c 5.47133,-0.07085 10.86977,2.508424 14.36719,6.695312 -8.86796,-0.0045 -17.73961,0.09691 -26.60525,-0.01324 -3.102,-0.301155 -5.86589,-2.208241 -7.623,-4.727755 -0.5385,-0.65144 -1.077,-1.30288 -1.6155,-1.95432 7.15885,0 14.31771,0 21.47656,0 z m -459.357417,0.002 c 7.313151,0 14.626302,0 21.939453,0 -1.328168,1.530617 -2.526668,3.202378 -4.045055,4.549921 -2.218879,1.766938 -5.14434,2.417612 -7.935022,2.197241 -8.106901,-0.01793 -16.213803,-0.03587 -24.320704,-0.0538 3.452263,-4.255114 8.896977,-6.735321 14.361328,-6.693359 z M 455.45202,29.43728 c 0,59.338548 0,118.67709 0,178.01563 -106.85612,-6.5e-4 -213.71224,-0.001 -320.56836,-0.002 0,-59.33789 0,-118.675782 0,-178.01368 106.85612,0 213.71224,0 320.56836,0 z M 100.87976,49.968488 c -2.371187,-0.0406 -4.756801,0.68353 -6.598125,2.2017 -3.318114,2.57339 -4.754251,7.31737 -3.276831,11.27139 0.268973,0.74895 0.629267,1.46655 1.068315,2.13042 -12.708541,-6.63816 -28.244677,-7.53635 -41.646154,-2.45134 -10.922152,4.05012 -20.367047,11.93334 -26.275788,21.97484 -5.440962,9.11571 -7.957544,19.937552 -7.055549,30.518272 0.915123,11.31347 5.669622,22.28494 13.379418,30.62682 8.655648,9.45393 20.926196,15.55022 33.723073,16.53844 -7.555698,2.3015 -14.018416,7.99476 -17.114278,15.27848 -3.425082,7.88317 -2.893449,17.39103 1.558704,24.76801 4.565407,7.76862 13.163313,13.03192 22.189766,13.38009 8.344806,0.42912 16.801468,-3.20373 22.166307,-9.62471 5.714715,-6.69338 7.905562,-16.23844 5.550385,-24.73452 -2.190483,-8.23781 -8.430962,-15.30822 -16.411775,-18.35684 -1.483466,-0.5824 -3.018968,-1.0327 -4.581687,-1.34527 10.327176,-1.81533 20.046832,-6.8864 27.421239,-14.34257 8.32594,-8.34484 13.71473,-19.59392 14.80567,-31.34713 1.23681,-12.53659 -2.25843,-25.505862 -9.79527,-35.620852 -2.99541,-4.06522 -6.60217,-7.67466 -10.642577,-10.70117 3.091457,0.0916 6.193037,0.11918 9.285157,-0.0195 5.12993,-0.5625 9.26814,-5.61846 8.76039,-10.7622 -0.26456,-5.13264 -5.04255,-9.58625 -10.20413,-9.35484 -2.10187,-0.0474 -4.20443,-6.9e-4 -6.30626,-0.0275 z m 382.9707,0 c -2.37119,-0.0406 -4.7568,0.68353 -6.59813,2.2017 -3.31811,2.57339 -4.75425,7.31737 -3.27683,11.27139 1.42094,4.047 5.59742,7.0248 9.92651,6.73428 2.76094,-0.004 5.54073,0.14944 8.28829,-0.15269 4.90394,-0.86506 8.69661,-5.80194 8.165,-10.77219 -0.32173,-5.09262 -5.07084,-9.48398 -10.19857,-9.255 -2.10188,-0.0474 -4.20444,-6.9e-4 -6.30627,-0.0275 z m 39.99414,19.32812 c 4.67169,0.18846 8.77119,4.48664 8.60807,9.18667 0.0127,3.93132 -2.73656,7.73186 -6.56381,8.76167 -3.33735,1.00068 -7.21514,-0.0299 -9.47804,-2.71605 -2.40447,-2.6994 -3.05092,-6.85618 -1.37467,-10.09351 1.54808,-3.17975 5.01293,-5.35154 8.57518,-5.14391 0.0778,0.002 0.15551,0.003 0.23327,0.005 z m -455.410153,9.11719 c 2.07646,0.0104 4.158108,0.10528 6.212891,0.41797 -0.0073,3.80078 0.03027,7.60183 -0.03125,11.40234 -2.073561,2.06824 -4.083018,4.19934 -6.138672,6.28516 -2.063376,-2.11967 -4.132941,-4.23338 -6.179687,-6.36914 0.01829,-3.77341 0.0065,-7.54688 0.0078,-11.32032 2.027351,-0.30477 4.080595,-0.40127 6.128906,-0.41601 z m 21.246094,2.00195 c 4.156235,2.87188 7.752712,6.56246 10.466799,10.82617 -3.833294,-2e-5 -7.667108,-0.0439 -11.500002,0.0273 -5.2e-5,-3.84478 0.0058,-7.69123 -0.002,-11.53711 0.345052,0.22786 0.690104,0.45573 1.035156,0.68359 z m -41.371094,0.41211 c -0.01093,3.46871 -0.03293,6.9379 0.0293,10.40625 -3.84282,8e-5 -7.68732,-0.006 -11.53125,0.002 2.94126,-4.6053 6.894761,-8.56373 11.503907,-11.5 -6.52e-4,0.36394 -0.0013,0.72787 -0.002,1.0918 z m 454.667963,8.82422 c 3.59896,6.53728 10.48138,11.182582 17.93593,11.869212 7.54262,0.79222 15.41292,-2.349342 20.19534,-8.265992 0.90832,-1.09261 1.71827,-2.26867 2.4078,-3.51142 0.71601,0.66732 1.39888,1.37015 2.04492,2.10546 -6.88099,3.54682 -11.79275,10.703272 -12.42895,18.442812 -0.72835,7.64062 2.58213,15.57388 8.67318,20.28404 0.98143,0.78497 2.02937,1.48847 3.12881,2.09737 -0.66876,0.7145 -1.37018,1.39942 -2.10937,2.04102 -3.48657,-6.74921 -10.43511,-11.61919 -18.01938,-12.38148 -7.60031,-0.86608 -15.56764,2.27249 -20.39207,8.24039 -0.90857,1.09409 -1.72027,2.27131 -2.40886,3.51609 -0.71283,-0.67004 -1.39561,-1.37194 -2.04297,-2.10547 6.88137,-3.55401 11.8235,-10.71842 12.40727,-18.47761 0.17675,-2.08311 0.15277,-4.1761 0.2021,-6.26458 -0.58593,-0.14136 -0.57662,-0.70476 -0.70965,-1.18498 -1.44653,-6.254872 -5.67113,-11.778172 -11.26496,-14.906812 0.66371,-0.71189 1.36683,-1.3863 2.09375,-2.03321 0.0957,0.17839 0.19141,0.35677 0.28711,0.53516 z M 489.51062,102.2263 c 4.6854,-0.002 8.92093,4.15256 8.96484,8.84765 0.14032,3.89374 -2.40101,7.7789 -6.15137,8.977 -3.44566,1.23384 -7.5974,0.20401 -9.93918,-2.64631 -2.52991,-2.82323 -3.0095,-7.26246 -1.05593,-10.526 1.54326,-2.77371 4.57942,-4.6272 7.76367,-4.64844 0.13932,-10e-4 0.27864,-0.003 0.41797,-0.004 z m 67.26172,1.05273 c 4.63301,0.17977 8.69693,4.39335 8.6296,9.04764 0.006,3.09011 -1.57895,6.1973 -4.22726,7.83908 -0.2644,0.16882 -0.86424,0.52101 -1.30482,0.69035 -3.42264,1.4961 -7.74362,0.70955 -10.274,-2.08676 -2.63168,-2.70859 -3.36616,-7.09955 -1.56241,-10.452 1.48959,-2.99018 4.67767,-5.05678 8.03935,-5.04792 0.23301,-0.003 0.46644,0.007 0.69954,0.01 z m -464.08008,1.95899 c 2.781901,4.8e-4 5.563803,-8.1e-4 8.3457,-0.002 0.61297,4.08472 0.54789,8.25337 0.004,12.3418 -3.800136,-0.009 -7.600587,0.0324 -11.400391,-0.0352 -2.066571,-2.07522 -4.19873,-4.08371 -6.283204,-6.14062 2.121896,-2.06573 4.23783,-4.13769 6.378907,-6.18359 0.985026,0.007 1.970052,0.013 2.955078,0.0195 z m -45.419922,-0.004 c 2.082049,2.08316 4.223553,4.10566 6.320313,6.17383 -2.118401,2.06404 -4.234312,4.13073 -6.371094,6.17578 -3.769504,-0.0183 -7.539063,-0.007 -11.308594,-0.008 -0.611118,-4.08464 -0.550967,-8.25389 -0.002,-12.3418 3.787109,0 7.574219,0 11.361328,0 z M 576.8153,124.6305 c -0.0164,5.49937 0.0104,11.00994 -0.57324,16.48592 -0.73591,7.59563 -2.07858,15.1247 -3.81348,22.55315 -3.1451,-1.7248 -7.28016,-1.38433 -10.06143,0.89716 -3.22619,2.5385 -4.36444,7.35428 -2.54403,11.04815 1.37863,2.9621 4.46043,5.02151 7.71484,5.21289 -1.06732,3.17983 -2.23087,6.35507 -3.44005,9.36178 -0.11091,1.00892 -0.67951,0.26303 -1.20847,-0.0234 -3.15564,-1.95393 -7.48532,-1.72803 -10.37962,0.61303 -3.0625,2.36606 -4.32845,6.76229 -2.92772,10.38137 1.02193,2.86945 3.6742,5.0377 6.54766,5.75512 -2.03136,3.56847 -4.25498,7.03779 -6.80078,10.26367 -12.39061,0.046 -24.78306,-0.0937 -37.17244,-0.004 -7.08883,0.43372 -13.83484,4.22445 -18.03003,9.93345 -3.04142,3.57117 -5.86889,7.3575 -9.25287,10.61374 -1.28217,0.67411 -2.78271,0.5219 -4.18138,0.52157 2.24446,-4.95686 1.66409,-11.07282 -1.5702,-15.46569 -2.42057,-3.37974 -6.23002,-5.78492 -10.33801,-6.38978 0.78326,-1.15259 0.74522,-2.5818 0.65176,-3.90664 0.045,-29.69775 0.004,-59.39558 0.0143,-89.09336 3.24195,5.35529 8.7213,9.29884 14.83984,10.63867 3.65322,6.36865 8.92327,11.80068 15.17188,15.6543 1.50838,8.34005 7.97646,15.56224 16.1289,17.91601 7.81364,2.36346 16.84537,0.27058 22.67729,-5.48474 3.28583,-3.14706 5.61579,-7.28048 6.60201,-11.72229 6.3675,-3.65565 11.79946,-8.9243 15.65235,-15.17383 6.89499,-1.26407 13.06622,-5.8826 16.28515,-12.10156 0.003,0.50521 0.005,1.01042 0.008,1.51562 z M 71.182494,129.068 c 1.157823,1.19766 2.315059,2.39588 3.472657,3.59375 -0.0183,3.76886 -0.0065,7.53776 -0.0078,11.30665 -4.08528,0.61222 -8.254969,0.54949 -12.34375,0.002 -5.33e-4,-3.78841 -0.01432,-7.5769 0.01563,-11.36524 2.067292,-2.08664 4.091305,-4.21568 6.150391,-6.31054 0.904297,0.92448 1.808593,1.84896 2.71289,2.77343 z m -22.896484,2.86524 c 0.0461,3.71241 -0.004,7.42556 0.01953,11.13867 -4.604018,-2.94044 -8.561763,-6.89267 -11.498047,-11.5 3.831335,-0.005 7.663102,0.0365 11.494141,-0.0254 -0.0052,0.12891 -0.01042,0.25781 -0.01563,0.38672 z m 44.078125,-0.37305 c 2.592075,0.0386 5.184958,0.0129 7.777345,0.0156 -2.938181,4.60497 -6.893593,8.55913 -11.498048,11.49804 -0.0048,-3.83198 0.03648,-7.6644 -0.02539,-11.49609 1.248244,0.0552 2.49744,-0.0213 3.746094,-0.0176 z m 430.435545,4.66016 c 4.66854,0.18589 8.76705,4.47297 8.61199,9.1718 0.0268,3.8134 -2.55194,7.48952 -6.19701,8.66049 -3.65196,1.29103 -8.06586,-0.008 -10.31809,-3.19255 -2.26355,-2.96064 -2.47824,-7.32939 -0.36431,-10.42848 1.76209,-2.77345 4.97915,-4.44271 8.26742,-4.21126 z m -450.666014,39.3789 c 5.888119,-0.096 11.50553,4.22924 12.909786,9.95136 1.328554,5.00796 -0.542574,10.72616 -4.700982,13.85865 -3.916223,3.07302 -9.604533,3.748 -14.055758,1.44741 -4.3526,-2.13971 -7.411804,-6.75815 -7.437179,-11.64061 -0.117649,-4.76321 2.483753,-9.51544 6.680891,-11.825 1.998586,-1.15223 4.29483,-1.78381 6.603242,-1.79181 z m 274.361324,45.90039 c -3.30993,2.73649 -5.20543,7.07912 -4.87305,11.3711 0.1297,1.8664 0.64248,3.70384 1.48633,5.37305 -31.37109,0 -62.74218,0 -94.11328,0 3.28907,-2.26098 4.35889,-7.18357 2.16992,-10.55469 -1.59445,-2.67012 -4.83184,-4.10514 -7.88867,-3.76563 -2.52114,9.1e-4 -5.28169,-0.3215 -7.48828,1.17578 -3.00382,1.8882 -4.54284,5.89234 -3.29883,9.26368 0.52085,1.57209 1.59371,2.93871 2.94922,3.88086 -2.86393,0 -5.72786,0 -8.5918,0 2.3223,-4.44609 1.95078,-10.16375 -1.03984,-14.21075 -0.68656,-0.95699 -1.49886,-1.82216 -2.39961,-2.58027 41.04883,-6.5e-4 82.09766,-10e-4 123.14648,-0.002 z m 24.61524,-0.0488 c -0.33357,0.16626 -0.64518,0.78108 -0.95519,0.73763 -0.3279,-0.37808 -1.26715,-0.91253 -0.2163,-0.73763 0.3905,0 0.78099,0 1.17149,0 z m 27.8125,0 c -0.86358,0.95762 -1.60553,2.02585 -2.20704,3.16601 -0.75405,-1.19362 -1.70217,-2.26539 -2.78906,-3.16601 1.66537,0 3.33073,0 4.9961,0 z m -235.9375,0.002 c -3.50512,2.8612 -5.43552,7.52724 -4.87272,12.02851 0.1823,1.65645 0.67705,3.27635 1.42936,4.76251 -1.29818,0 -2.59636,0 -3.89453,0 2.17306,-4.80827 1.71231,-10.71196 -1.30071,-15.06386 -0.40673,-0.60563 -0.8537,-1.18482 -1.34187,-1.72716 3.32682,0 6.65364,0 9.98047,0 z m 37.63671,0 c -3.47678,2.83929 -5.40872,7.45299 -4.88168,11.92325 0.17451,1.69216 0.66824,3.35117 1.43832,4.86777 -2.65625,0 -5.31249,0 -7.96874,0 2.353,-4.49727 1.93786,-10.29878 -1.14487,-14.3518 -0.66476,-0.90096 -1.43834,-1.72257 -2.29849,-2.43922 4.95182,0 9.90364,0 14.85546,0 z m 257.38086,8.75195 c 2.92967,0.0105 5.8649,-0.0218 8.79102,0.0508 1.20701,0.31927 1.72933,2.07863 0.6731,2.87285 -0.9001,0.78811 -2.15607,0.31071 -3.22779,0.43642 -5.24222,-0.0142 -10.4899,0.0668 -15.72851,-0.0632 -1.17961,-0.3657 -1.63261,-2.11619 -0.57227,-2.87891 0.85406,-0.73029 2.05652,-0.29526 3.07187,-0.41239 2.33087,0.005 4.66172,-0.002 6.99258,-0.006 z m -320.70703,0.004 c 1.52006,0.0507 3.06163,-0.0711 4.56836,0.0879 1.14069,0.39372 1.57066,2.04886 0.56641,2.82617 -0.83804,0.76661 -2.02542,0.30656 -3.03476,0.42987 -5.29824,0.005 -10.6024,0.0661 -15.89688,-0.0412 -1.18908,-0.34033 -1.66946,-2.07385 -0.63867,-2.86328 0.83857,-0.76219 2.04835,-0.32327 3.0621,-0.43987 3.79115,-9.1e-4 7.5823,-0.002 11.37344,4.2e-4 z m 273.38672,0.002 c 5.88688,0.0154 11.77779,-0.0411 17.66211,0.0391 1.2333,0.2779 1.78913,2.05444 0.73047,2.86719 -0.8719,0.79863 -2.11411,0.32045 -3.16601,0.44733 -5.26306,-0.008 -10.53154,0.0586 -15.79102,-0.0645 -1.20955,-0.35389 -1.65179,-2.16134 -0.55078,-2.90624 0.30995,-0.25422 0.70916,-0.41945 1.11523,-0.38282 z m -333.695308,0.91016 c 3.530012,-0.0692 6.870028,1.92898 8.837565,4.79963 0.539822,0.65338 1.079644,1.30676 1.619466,1.96013 -7.627832,-0.0154 -15.259712,0.0653 -22.88484,-0.0833 -4.836428,-0.43394 -9.433034,-2.90229 -12.540941,-6.62177 8.322916,-0.0182 16.645833,-0.0365 24.96875,-0.0547 z" /><path
   id="path4"
   d="m 108.21765,6.0114518 c -1.51324,0.0039 -2.89344,0.278325 -4.14649,0.691406 V 6.3844988 H 65.412963 c -9.246,0 -17.398109,4.7189062 -22.162109,11.8789062 -1.84,2.605 -5.161688,8.081812 -6.054688,9.507812 l 0.15625,0.09766 c -0.291632,0.194748 -0.615028,0.335633 -0.849609,0.617187 -18.513,22.505997 -30.4505155,65.230597 -30.4785155,93.558596 v 8.16797 c 0.028,28.329 11.9655155,71.05359 30.4785155,93.55859 0.503592,0.6048 1.173133,0.94158 1.884765,1.16016 1.069687,1.72558 4.038499,6.60027 5.802735,9.09375 4.748,7.138 12.896578,11.85546 22.142578,11.85546 l 38.660155,0.002 v -0.0703 c 1.00969,0.24917 2.07084,0.42867 3.22461,0.43165 h 374.39258 c 3.488,-0.009 6.42296,-1.26854 8.16796,-3.01954 2.174,-2.201 4.78448,-5.29776 7.02539,-8.00976 2.222,-2.693 4.15269,-5.06878 4.67969,-5.55078 2.96,-2.782 6.87838,-4.54297 11.23438,-4.54297 -0.002,0 28.30112,0.0781 37.32812,0.0781 1.217,0 2.4563,-0.43573 3.2793,-1.42773 18.515,-22.505 30.44856,-65.23059 30.47851,-93.55859 v -8.16797 c -0.03,-28.328999 -11.96251,-71.053599 -30.47851,-93.558596 -0.37001,-0.445091 -0.84348,-0.742631 -1.3418,-0.974609 -1.00208,-1.609062 -4.11211,-6.722355 -5.91406,-9.271485 -4.748,-7.136 -12.89748,-11.8554682 -22.14648,-11.8554682 h -38.65821 v 0.179687 c -1.12808,-0.321324 -2.33295,-0.549704 -3.65429,-0.552734 z m 0,2.003906 h 374.39258 c 2.99,-0.006 5.47704,1.129781 6.74804,2.4257812 2.081,2.105 4.6763,5.18386 6.9043,7.88086 2.252,2.715 4.05756,4.976375 4.85156,5.734375 3.291,3.096 7.70052,5.084031 12.60352,5.082031 0.041,0 28.30712,-0.07813 37.32812,-0.07813 0.751,-0.003 1.40033,0.282172 1.73633,0.701172 18.074,21.860996 30.04853,64.493156 30.01953,92.285153 v 8.16797 c 0.029,27.791 -11.94653,70.42515 -30.01953,92.28515 -0.336,0.42 -0.98533,0.70118 -1.73633,0.70118 -9.021,0 -37.28817,-0.0781 -37.32617,-0.0781 -4.906,0 -9.31347,1.98699 -12.60547,5.08399 -0.794,0.757 -2.59956,3.01837 -4.85156,5.73437 -2.227,2.696 -4.8233,5.77291 -6.9043,7.87891 -1.27,1.294 -3.75804,2.42983 -6.74804,2.42383 H 108.21765 c -2.99,0.006 -5.47814,-1.12983 -6.74414,-2.42383 -2.082997,-2.107 -4.679203,-5.18291 -6.908203,-7.87891 -2.251,-2.715 -4.05561,-4.97637 -4.84961,-5.73437 -3.292,-3.097 -7.700515,-5.08399 -12.603515,-5.08399 -0.04,0 -28.307125,0.0782 -37.328125,0.0762 -0.754,0.002 -1.402282,-0.27921 -1.738282,-0.69922 -18.069999,-21.86 -30.0475306,-64.49415 -30.0195306,-92.28515 v -8.16797 c -0.028,-27.791997 11.9495326,-70.425157 30.0195306,-92.285153 0.339001,-0.419 0.987282,-0.703172 1.738282,-0.701172 9.021,0 37.288218,0.07813 37.324218,0.07813 4.905001,0.002 9.315422,-1.986031 12.607422,-5.082031 0.794,-0.757 2.59861,-3.019375 4.84961,-5.734375 2.228,-2.697 4.825206,-5.77586 6.908203,-7.88086 1.268,-1.2960002 3.75414,-2.4317812 6.74414,-2.4257812 z m 381.74609,0.369141 h 34.95899 c 8.558,0 16.08609,4.3623282 20.49609,10.9863282 1.42647,2.016465 3.55443,5.460555 4.93164,7.689453 -9.54736,0.0028 -36.63477,0.07617 -36.63477,0.07617 -4.354,-0.002 -8.27242,-1.759016 -11.23242,-4.541016 -0.528,-0.485 -2.45764,-2.862734 -4.67969,-5.552734 -2.24099,-2.712 -4.85043,-5.808766 -7.02343,-8.0097662 -0.23399,-0.234653 -0.54133,-0.433216 -0.81641,-0.648437 z m -424.550777,0.002 h 35.451167 c -0.27449,0.214886 -0.58102,0.412252 -0.81445,0.646484 -2.172997,2.2010002 -4.784389,5.2987662 -7.025389,8.0097662 -2.222,2.69 -4.152687,5.067734 -4.679687,5.552734 -2.962,2.782 -6.878422,4.539016 -11.232422,4.541016 0.002,0 -27.93643,-0.07728 -37.123047,-0.07813 1.375904,-2.228138 3.501418,-5.666842 4.912109,-7.664063 4.429,-6.647 11.956719,-11.0098122 20.511719,-11.0078122 z M 130.03601,21.43728 c -1.741,0 -3.15235,1.411344 -3.15235,3.152344 V 212.30247 c 0,1.741 1.41335,3.15039 3.15235,3.15039 h 330.26757 c 1.73801,0 3.14844,-1.40939 3.14844,-3.15039 h 0.002 V 24.589577 c -0.002,-1.741 -1.4094,-3.152344 -3.1504,-3.152344 z m 0,2 h 330.26757 c 0.63201,0.002 1.14644,0.516344 1.14844,1.152344 V 212.30247 c -0.002,0.635 -0.51243,1.14839 -1.14844,1.15039 l -330.26757,-0.002 c -0.638,0 -1.15035,-0.51244 -1.15235,-1.14844 V 24.589577 c 0.002,-0.636 0.51635,-1.150344 1.15235,-1.152344 z m -29.48828,32.541015 c -2.268997,0 -4.109376,1.83938 -4.109376,4.10938 0,2.269 1.840379,4.10937 4.109376,4.10937 h 6.75781 c 2.27,0 4.10937,-1.84037 4.10937,-4.10937 0,-2.27 -1.83937,-4.10938 -4.10937,-4.10938 z m 382.9707,0 c -2.269,0 -4.10938,1.83938 -4.10938,4.10938 0,2.269 1.83938,4.10937 4.10938,4.10937 h 6.75781 c 2.269,0 4.10938,-1.84037 4.10938,-4.10937 0,-2.27 -1.83938,-4.10938 -4.10938,-4.10938 z m 39.76172,5.29492 c -9.10557,0 -16.55146,7.08431 -17.13867,16.04297 -7.4886,3.6038 -13.62267,9.5592 -17.44922,16.91602 -9.20845,0.32099 -16.57227,7.880055 -16.57227,17.164055 0,9.10298 7.08147,16.55055 16.03906,17.14062 3.60332,7.48636 9.5616,13.62241 16.91602,17.44922 0.31989,9.20572 7.87649,16.57324 17.16406,16.57422 9.10587,0 16.55077,-7.08471 17.14063,-16.03906 7.48578,-3.60413 13.62119,-9.5624 17.44726,-16.91797 9.2082,-0.3222 16.57422,-7.88256 16.57617,-17.16602 -0.002,-9.10586 -7.08496,-16.550495 -16.04101,-17.138665 -3.6021,-7.488 -9.55969,-13.62258 -16.91602,-17.44922 -0.3222,-9.20913 -7.88158,-16.57617 -17.16601,-16.57617 z m 0,2.00196 c 8.384,0.014 15.16667,6.79664 15.17969,15.18164 -0.013,8.384 -6.79569,15.16273 -15.17969,15.17773 -8.384,-0.014 -15.16274,-6.79373 -15.17774,-15.17773 0.015,-8.385 6.79374,-15.16664 15.17774,-15.18164 z m -454.802734,2.58203 c -25.155,0 -45.548781,20.3938 -45.550781,45.548825 0.002,25.155 20.395781,45.54682 45.550781,45.54882 25.155,-0.002 45.546874,-20.39382 45.546874,-45.54882 0,-25.155005 -20.390874,-45.548825 -45.546874,-45.548825 z m -0.002,2 c 12.028,0.002 22.908963,4.87386 30.79297,12.75586 7.882004,7.882 12.753914,18.76301 12.753914,30.791005 0,12.028 -4.87091,22.90897 -12.753914,30.79297 -7.884007,7.883 -18.76497,12.75586 -30.79297,12.75586 -12.027,0 -22.909969,-4.87286 -30.792969,-12.75586 -7.882,-7.884 -12.753906,-18.76497 -12.753906,-30.79297 0,-12.027995 4.871906,-22.908005 12.753906,-30.791005 7.883,-7.882 18.765969,-12.75386 30.792969,-12.75586 z m -0.07617,2.55859 c -3.951,0 -7.846687,0.36686 -11.554687,1.38086 -0.706,0.177 -1.23861,0.5632 -1.59961,0.9082 -0.591,0.599 -0.941406,1.39182 -0.941406,2.25782 v 16.36914 c 0,1.304 0.48525,2.50315 1.28125,3.41015 l 9.490234,9.751955 0.04297,0.0351 c 0.89,0.733 2.04125,1.17188 3.28125,1.17188 h 0.152344 0.002 c 1.241245,-4.7e-4 2.390675,-0.44126 3.283203,-1.17188 l 0.04492,-0.0391 9.451172,-9.708975 c 0.833,-0.949 1.314453,-2.14918 1.314453,-3.45118 v -16.36914 c 0,-0.864 -0.347156,-1.65751 -0.910156,-2.22851 -0.39,-0.374 -0.924672,-0.75846 -1.638672,-0.93946 -3.697,-1.009 -7.592875,-1.37695 -11.546875,-1.37695 z m 0.002,1.99805 h 0.150391 c 3.829,0 7.55225,0.3595 11.03125,1.3125 0.355,0.098 0.505812,0.21145 0.757812,0.43945 0.181,0.184 0.306641,0.46592 0.306641,0.79492 v 16.36914 c 0,0.807 -0.292203,1.53275 -0.783203,2.09375 l -9.324219,9.578125 c -0.547525,0.43762 -1.232065,0.69678 -1.988281,0.69922 h -0.150391 c -0.75,0 -1.432562,-0.25746 -1.976562,-0.68946 l -9.369141,-9.626945 c -0.454,-0.521 -0.75,-1.24969 -0.75,-2.05469 v -16.36914 c 0,-0.326 0.128844,-0.60917 0.339844,-0.82617 0.219,-0.199 0.369797,-0.3112 0.716797,-0.4082 3.49,-0.954 7.210062,-1.3125 11.039062,-1.3125 z m 437.736334,7.13476 c 0.56403,8.97912 8.01916,16.08789 17.14258,16.08789 8.93972,0 16.28158,-6.82772 17.10351,-15.55273 6.29306,3.49126 11.44596,8.79976 14.74414,15.21094 -8.97823,0.56424 -16.08596,8.021075 -16.08789,17.142565 0.002,8.9385 6.83032,16.2824 15.55469,17.10352 -3.49292,6.29558 -8.80165,11.4471 -15.21289,14.74609 -0.56417,-8.98096 -8.02108,-16.08984 -17.14258,-16.08984 -8.94094,0 -16.2806,6.82762 -17.10156,15.55273 -6.29132,-3.49042 -11.44288,-8.79687 -14.74609,-15.20898 8.97989,-0.56506 16.08792,-8.02334 16.08984,-17.14453 h -0.002 c 0,-8.93944 -6.82775,-16.280155 -15.55274,-17.099605 3.49181,-6.29497 8.79841,-11.44849 15.21094,-14.74805 z m -16.83789,16.66993 c 8.381,0.014 15.16469,6.794725 15.17969,15.177725 -0.015,8.383 -6.79869,15.16664 -15.17969,15.18164 -8.384,-0.014 -15.16574,-6.79864 -15.17774,-15.18164 0.011,-8.384 6.79074,-15.163735 15.17774,-15.177725 z M 32.034057,97.234108 c -0.865,0 -1.660469,0.34816 -2.230469,0.91016 -0.374,0.393 -0.758453,0.92462 -0.939453,1.64062 -1.01,3.698002 -1.376953,7.591922 -1.376953,11.544922 v 0.15235 c 0,3.952 0.367812,7.84864 1.382812,11.55664 0.176,0.704 0.560344,1.2357 0.902344,1.5957 0.605,0.594 1.397719,0.94341 2.261719,0.94141 l 16.36914,0.002 c 1.303,0 2.500157,-0.48625 3.410157,-1.28125 l 9.753906,-9.49219 0.03516,-0.041 c 0.731,-0.891 1.171875,-2.04025 1.171875,-3.28125 l -0.002,-0.15235 c 0.002,-1.242 -0.439922,-2.39025 -1.169922,-3.28125 l -0.03711,-0.043 -9.712891,-9.457032 c -0.949,-0.832 -2.146219,-1.31445 -3.449219,-1.31445 z m 56.515625,0 c -1.303,0 -2.50115,0.4833 -3.410157,1.2793 l -9.755859,9.494142 -0.0332,0.041 c -0.731,0.891 -1.171875,2.04025 -1.171875,3.28125 v 0.15235 c 0,1.24 0.441875,2.39025 1.171875,3.28125 l 0.0332,0.0391 9.714844,9.45898 c 0.951,0.832 2.148172,1.31646 3.451172,1.31446 l 16.371088,0.002 c 0.861,0 1.65647,-0.34711 2.23047,-0.91211 0.372,-0.392 0.7565,-0.92367 0.9375,-1.63867 1.01,-3.697 1.37695,-7.59192 1.37695,-11.54492 v -0.15235 c 0,-3.953 -0.36781,-7.84864 -1.38281,-11.556642 -0.176,-0.704 -0.55834,-1.23565 -0.90234,-1.59765 -0.603,-0.592 -1.39572,-0.94141 -2.26172,-0.94141 z m 467.669918,0.0234 c 8.385,0.015 15.16664,6.795682 15.18164,15.179682 -0.015,8.384 -6.79664,15.16465 -15.18164,15.18165 -8.382,-0.017 -15.16273,-6.79764 -15.17773,-15.18165 0.015,-8.384 6.79573,-15.164682 15.17773,-15.179682 z m -524.187496,1.9766 h 16.371093 c 0.805,0 1.529797,0.2932 2.091797,0.783202 l 9.585938,9.33203 c 0.433,0.547 0.689406,1.23047 0.691406,1.98047 v 0.15235 c -0.002,0.755 -0.260266,1.44131 -0.697266,1.98633 l -9.61914,9.35937 c -0.523,0.453 -1.247735,0.74805 -2.052735,0.74805 H 32.032104 c -0.327,0 -0.612125,-0.12594 -0.828125,-0.33594 -0.196,-0.22 -0.30925,-0.3747 -0.40625,-0.7207 -0.955,-3.491 -1.3125,-7.20907 -1.3125,-11.03907 v -0.15039 c 0,-3.83 0.359546,-7.54925 1.310546,-11.03125 0.101,-0.356002 0.212454,-0.506812 0.439454,-0.757812 0.187,-0.179 0.469875,-0.30664 0.796875,-0.30664 z m 56.517578,0 h 16.369138 c 0.325,0 0.61408,0.12889 0.83008,0.33789 0.195,0.22 0.30529,0.37075 0.40429,0.718752 0.953,3.49 1.3125,7.20906 1.3125,11.03906 v 0.15039 c 0,3.83 -0.35954,7.54835 -1.31054,11.02735 -0.101,0.359 -0.21146,0.50867 -0.43946,0.76367 -0.183,0.177 -0.46787,0.30464 -0.79687,0.30664 l -16.369138,-0.002 c -0.807,0 -1.533703,-0.29521 -2.095703,-0.78321 l -9.585938,-9.33398 c -0.433,-0.543 -0.6855,-1.22456 -0.6875,-1.97656 v -0.15235 c 10e-4,-0.753 0.2545,-1.43351 0.6875,-1.97851 l 9.625,-9.369142 c 0.525,-0.455 1.251641,-0.74805 2.056641,-0.74805 z m -19.998047,17.875002 -0.152344,0.002 c -1.24,0 -2.389297,0.44092 -3.279297,1.16993 l -0.04883,0.0391 -9.451172,9.70898 c -0.832,0.948 -1.316406,2.14622 -1.316406,3.44922 v 16.36914 c 0,0.866 0.350203,1.65952 0.908203,2.22852 0.396,0.376 0.926672,0.75745 1.638672,0.93945 3.7,1.012 7.596828,1.37791 11.548828,1.37891 l 0.152344,-0.002 c 3.951,0 7.850646,-0.3649 11.55664,-1.3789 0.706002,-0.179 1.236657,-0.56125 1.597657,-0.90625 0.592,-0.603 0.943406,-1.39672 0.941406,-2.26172 l 0.002,-16.36914 c 0,-1.303 -0.486203,-2.50116 -1.283203,-3.41016 l -9.488281,-9.75195 -0.04297,-0.0352 c -0.892,-0.728 -2.042203,-1.16992 -3.283203,-1.16992 z m -0.152344,2.00195 h 0.152344 c 0.748,0 1.433562,0.2555 1.976562,0.6875 l 9.369141,9.62696 c 0.455,0.521 0.748,1.24673 0.75,2.05273 v 16.36914 c -0.002,0.326 -0.127844,0.61108 -0.339844,0.83008 -0.217,0.194 -0.37175,0.30725 -0.71875,0.40625 -3.489,0.953 -7.209109,1.3125 -11.037109,1.3125 h -0.152344 c -3.829,0 -7.549297,-0.35959 -11.029297,-1.30859 -0.355,-0.101 -0.509718,-0.21536 -0.761719,-0.44336 -0.176999,-0.186 -0.304687,-0.47088 -0.304687,-0.79688 v -16.36914 c 0,-0.806 0.295109,-1.53175 0.787109,-2.09375 l 9.330078,-9.58594 c 0.545001,-0.432 1.227516,-0.6875 1.978516,-0.6875 z m 453.839839,11.08789 c 8.385,0.015 15.16564,6.79464 15.18164,15.18164 h -0.002 c -0.013,8.384 -6.79469,15.16274 -15.17969,15.17774 -8.383,-0.015 -15.16469,-6.79374 -15.17969,-15.17774 0.015,-8.387 6.79669,-15.16664 15.17969,-15.18164 z M 22.178588,166.68138 c -1.739,0 -3.148437,1.40939 -3.148437,3.15039 0,1.738 1.409437,3.14648 3.148437,3.14648 1.739,0 3.148437,-1.40848 3.148437,-3.14648 1e-6,-1.742 -1.409437,-3.15039 -3.148437,-3.15039 z m 49.978516,0.91601 c -11.771,0.002 -21.314407,9.54536 -21.316407,21.31836 0.002,11.771 9.545407,21.31536 21.316407,21.31836 11.773,-0.003 21.314406,-9.54736 21.316406,-21.31836 -0.002,-11.773 -9.543406,-21.31636 -21.316406,-21.31836 z m 495.931636,0.95703 a 3.1489999,3.1489999 0 0 0 -3.14844,3.14844 3.1489999,3.1489999 0 0 0 3.14844,3.14844 3.1489999,3.1489999 0 0 0 3.14844,-3.14844 3.1489999,3.1489999 0 0 0 -3.14844,-3.14844 z m -495.931636,1.04492 c 10.667,0.018 19.297406,8.64841 19.316406,19.31641 -0.019,10.667 -8.649406,19.29545 -19.316406,19.31445 -10.665,-0.018 -19.295457,-8.64745 -19.314453,-19.31445 0.019,-10.668 8.649453,-19.29841 19.314453,-19.31641 z M 558.15319,194.822 a 3.1489999,3.1489999 0 0 0 -3.14843,3.14844 3.1489999,3.1489999 0 0 0 3.14843,3.15039 3.1489999,3.1489999 0 0 0 3.14844,-3.15039 3.1489999,3.1489999 0 0 0 -3.14844,-3.14844 z m -525.914055,0.0469 a 3.1489999,3.1489999 0 0 0 -3.148438,3.14843 3.1489999,3.1489999 0 0 0 3.148438,3.14844 3.1489999,3.1489999 0 0 0 3.148437,-3.14844 3.1489999,3.1489999 0 0 0 -3.148437,-3.14843 z m 91.724605,27.33984 c -5.346,0 -9.67773,4.33469 -9.67773,9.67969 0,5.347 4.33073,9.67773 9.67773,9.67773 v 0.004 h 17.35742 c 5.347,-0.002 9.67769,-4.33464 9.67969,-9.68164 -0.002,-5.345 -4.33269,-9.67969 -9.67969,-9.67969 z m 286.64258,0 c -5.348,0 -9.68164,4.33269 -9.68164,9.67969 0,5.346 4.33364,9.67968 9.68164,9.67968 h 17.35742 c 5.345,0 9.67769,-4.33368 9.67969,-9.67968 -0.002,-5.347 -4.33469,-9.67969 -9.67969,-9.67969 z m 38.40039,0 c -5.345,0 -9.67773,4.33469 -9.67773,9.67969 0,5.347 4.33273,9.67773 9.67773,9.67773 h 17.35937 c 5.345,0 9.67769,-4.33073 9.67969,-9.67773 -0.002,-5.347 -4.33468,-9.67969 -9.67969,-9.67969 z m -325.04297,2 17.35742,0.002 c 4.241,0.006 7.67169,3.43674 7.67969,7.67774 -0.009,4.242 -3.43969,7.67268 -7.67969,7.67968 h -17.35742 c -4.243,-0.007 -7.67369,-3.43768 -7.67969,-7.67968 0.006,-4.242 3.43669,-7.67169 7.67969,-7.67969 z m 325.04297,0 h 17.35937 c 4.24001,0.008 7.67169,3.44069 7.67969,7.67969 -0.008,4.242 -3.44069,7.67264 -7.67969,7.68164 h -17.35937 c -4.238,-0.009 -7.67073,-3.44064 -7.67773,-7.68164 0.007,-4.24 3.44073,-7.67169 7.67773,-7.67969 z m -38.40039,0.002 h 17.35742 c 4.239,0.006 7.67169,3.43674 7.67969,7.67774 -0.008,4.24 -3.44169,7.67264 -7.67969,7.68164 l -17.35742,-0.004 c -4.243,-0.006 -7.67364,-3.43673 -7.68164,-7.67773 0.008,-4.241 3.43864,-7.67174 7.68164,-7.67774 z m -238.81836,0.0352 c -4.283,0 -7.75777,3.47181 -7.75977,7.75781 0.002,4.287 3.47577,7.75777 7.75977,7.75977 h 5.17383 c 4.285,-0.002 7.75581,-3.47477 7.75781,-7.75977 -0.002,-4.286 -3.47281,-7.75781 -7.75781,-7.75781 z m 37.63672,0 c -4.285,0 -7.75977,3.47181 -7.75977,7.75781 0,4.285 3.47377,7.75777 7.75977,7.75977 h 5.17187 c 4.285,-0.002 7.75977,-3.47477 7.75977,-7.75977 0,-4.286 -3.47377,-7.75781 -7.75977,-7.75781 z m 145.93164,0 c -4.287,0 -7.76172,3.47181 -7.76172,7.75781 0,4.285 3.47472,7.75777 7.76172,7.75977 h 5.17383 c 4.283,-0.002 7.75781,-3.47277 7.75781,-7.75977 0,-4.286 -3.47481,-7.75781 -7.75781,-7.75781 z m 24.57617,0 c -4.283,0 -7.75976,3.47181 -7.75976,7.75781 0,4.287 3.47476,7.75777 7.75976,7.75977 h 5.17578 c 4.285,-0.002 7.75581,-3.47477 7.75781,-7.75977 -0.002,-4.286 -3.47481,-7.75781 -7.75781,-7.75781 z m -302.818355,0.875 c 4.352,0 8.268469,1.76097 11.230469,4.54297 0.528,0.483 2.457687,2.85878 4.679687,5.55078 2.241,2.712 4.852392,5.80876 7.025389,8.00976 0.23747,0.23829 0.54819,0.44004 0.82812,0.65821 l -34.546868,-0.002 c -8.555,0.002 -16.084094,-4.36132 -20.496094,-10.98632 -1.425655,-2.01789 -3.555071,-5.46933 -4.929687,-7.69727 9.837301,-0.004 36.208984,-0.0762 36.208984,-0.0762 z m 94.673825,1.125 h 5.17383 c 3.179,0.004 5.75181,2.57781 5.75781,5.75781 -0.006,3.182 -2.57781,5.75377 -5.75781,5.75977 h -5.17383 c -3.178,-0.006 -5.75377,-2.57977 -5.75977,-5.75977 0.007,-3.18 2.57977,-5.75381 5.75977,-5.75781 z m 37.63672,0 h 5.17187 c 3.179,0.004 5.75382,2.57781 5.75782,5.75781 -0.004,3.182 -2.57782,5.75377 -5.75782,5.75977 h -5.17187 c -3.18,-0.006 -5.75572,-2.57777 -5.76172,-5.75977 0.007,-3.18 2.57972,-5.75381 5.76172,-5.75781 z m 145.93164,0 h 5.17383 c 3.18,0.004 5.75381,2.57781 5.75781,5.75781 -0.004,3.18 -2.57781,5.75377 -5.75781,5.75977 h -5.17383 c -3.182,-0.006 -5.75672,-2.57777 -5.76172,-5.75977 0.005,-3.18 2.57972,-5.75381 5.76172,-5.75781 z m 24.57617,0 h 5.17578 c 3.18,0.004 5.75182,2.57781 5.75781,5.75781 -0.006,3.182 -2.58081,5.75377 -5.75781,5.75977 h -5.17578 c -3.178,-0.006 -5.75476,-2.57977 -5.75976,-5.75977 0.005,-3.18 2.57976,-5.75381 5.75976,-5.75781 z m -139.96484,3.66601 c -1.046,0 -1.89453,0.84749 -1.89453,1.89649 0,1.044 0.84853,1.89258 1.89453,1.89258 h 4.45508 c 1.047,0 1.89453,-0.84858 1.89453,-1.89258 0,-1.048 -0.84853,-1.89649 -1.89453,-1.89649 z"
   style="fill:#ffffff" />




































</svg>
