<?xml version="1.0" encoding="UTF-8" standalone="no"?>
<!-- Generator: Adobe Illustrator 13.0.0, SVG Export Plug-In . SVG Version: 6.00 Build 14948)  -->

<svg
   version="1.2"
   id="svg4237"
   sodipodi:version="0.32"
   inkscape:version="1.1.2 (0a00cf5339, 2022-02-04)"
   sodipodi:docname="system.svg"
   x="0px"
   y="0px"
   width="578.92969"
   height="197.04643"
   viewBox="0 0 578.92967 197.04642"
   xml:space="preserve"
   xmlns:inkscape="http://www.inkscape.org/namespaces/inkscape"
   xmlns:sodipodi="http://sodipodi.sourceforge.net/DTD/sodipodi-0.dtd"
   xmlns="http://www.w3.org/2000/svg"
   xmlns:svg="http://www.w3.org/2000/svg"><defs
   id="defs28" />
<sodipodi:namedview
   id="base"
   bordercolor="#666666"
   inkscape:cx="-23.233509"
   inkscape:zoom="0.49497475"
   inkscape:cy="-225.26402"
   pagecolor="#ffffff"
   borderopacity="1.0"
   inkscape:window-x="0"
   inkscape:pageshadow="2"
   inkscape:current-layer="layer1"
   inkscape:window-width="1920"
   inkscape:window-y="0"
   inkscape:pageopacity="0.0"
   inkscape:window-height="996"
   inkscape:document-units="px"
   inkscape:pagecheckerboard="0"
   showgrid="false"
   fit-margin-top="0"
   fit-margin-left="0"
   fit-margin-right="0"
   fit-margin-bottom="0"
   inkscape:window-maximized="1">
	</sodipodi:namedview>
<g
   id="layer1"
   transform="translate(8.3222656,-484.72461)"
   inkscape:groupmode="layer"
   inkscape:label="Ebene 1"><path
   id="path925"
   d="m -8.3222656,486.72461 c 0,5.6595 0,11.31901 0,16.97851 56.5507816,0 113.1015656,10e-6 169.6523456,0 0,8.80665 0,17.61329 0,26.41993 -56.55078,0 -113.101564,0 -169.6523456,0 0,21.46028 0,42.92057 0,64.38086 6.3261718,0 12.6523437,0 18.9785156,0 0,-15.13282 0,-30.26563 0,-45.39844 56.551432,0 113.10286,0 169.6543,0 0,-21.46029 0,-42.92057 0,-64.38086 -62.87761,0 -125.755211,0 -188.6328156,0 0,0.66667 0,1.33333 0,2 z m 266.6933556,0 c 0,29.59961 0,59.19922 0,88.79883 -30.02018,0 -60.04036,0 -90.06054,0 0,6.32682 0,12.65364 0,18.98047 36.47591,0 72.95182,0 109.42773,0 0,-30.26693 0,-60.53386 0,-90.80079 30.02018,0 60.04037,10e-6 90.06055,0 0,-6.32617 0,-12.65234 0,-18.97851 -36.47591,0 -72.95182,0 -109.42774,0 0,0.66667 0,1.33333 0,2 z m 123.60547,0 c 0,5.6595 0,11.31901 0,16.97851 56.54948,0 113.09896,10e-6 169.64844,0 0,8.80665 0,17.61329 0,26.41993 -56.54948,0 -113.09896,0 -169.64844,0 0,21.46028 0,42.92057 0,64.38086 6.32617,0 12.65235,0 18.97852,0 0,-15.13347 0,-30.26693 0,-45.40039 56.55078,0 113.10156,0 169.65234,0 0,-21.45964 0,-42.91928 0,-64.37891 -62.87695,0 -125.7539,0 -188.63086,0 0,0.66667 0,1.33333 0,2 z M 178.15234,630.5332 c -5.04387,0.0812 -10.30514,2.24599 -13.17539,6.53946 -0.56104,0.82617 -1.02858,1.71592 -1.38711,2.64804 -1.88932,0 -3.77864,0 -5.66796,0 -0.91632,2.46823 -1.83336,4.93619 -2.75,7.4043 -0.92829,-2.46814 -1.85815,-4.93568 -2.78516,-7.4043 -4.73287,-0.0174 -9.47488,0.0348 -14.20207,-0.0258 -3.6776,-0.92539 -7.66529,-0.73876 -11.21357,0.61452 -0.83903,0.32991 -1.64258,0.74655 -2.40467,1.22772 0,-3.41016 0,-6.82031 0,-10.23047 -4.80404,0 -9.60808,0 -14.41211,0 -0.12429,0.41042 0.32403,1.66549 -0.43164,1.14453 -4.18518,-1.55794 -8.71276,-1.07502 -13.080863,-1.14131 -3.674869,-0.002 -7.34974,-0.003 -11.024609,-0.003 -10e-7,13.99675 0,27.99349 0,41.99024 4.936848,-0.005 9.873698,-0.009 14.810542,-0.0137 0,-4.4095 0,-8.81901 0,-13.22851 3.29717,-0.0276 6.66652,-0.376 9.71485,-1.71289 0,4.98307 0,9.96614 0,14.94922 4.80794,0 9.61588,0 14.42383,0 -0.15773,-0.78783 0.14417,-0.82964 0.7539,-0.46094 3.85638,1.51666 8.28329,1.33051 12.08594,-0.26172 1.27626,0.6666 2.71506,0.98409 4.14844,1.03125 0.001,2.22657 -0.007,4.45313 -0.0117,6.67969 3.60005,0.75984 7.32416,2.12278 11.02282,1.15908 3.55418,-0.87151 6.13488,-3.84944 7.64064,-7.04947 1.28924,-2.79585 2.30938,-5.70742 3.42052,-8.57641 2.13934,4.31497 6.59646,7.11394 11.26367,7.91406 5.0041,0.83467 10.45866,0.26596 14.78321,-2.54687 0.69812,-0.47742 1.36839,-0.99704 1.97656,-1.58594 1.44083,2.41664 4.08334,3.97189 6.86979,4.21189 2.83475,0.31367 5.60377,-0.56108 8.30794,-1.28416 0.33636,-0.28949 0.83166,0.30376 1.24954,0.34772 3.83037,1.50003 8.21553,1.23853 11.98289,-0.26959 2.92107,1.48428 6.41204,1.17099 9.38711,0.0115 0.57923,-0.33548 1.08742,-0.21877 1.5914,0.18379 2.64752,1.35441 5.77488,1.2723 8.59766,0.57813 1.21865,0.0472 2.52446,-0.15748 3.79492,-0.082 2.93685,0 5.8737,0 8.81055,0 0.0293,-0.62462 -0.0582,-1.47034 0.043,-1.95899 4.78435,3.09869 11.22164,3.38204 16.26367,0.72656 0.067,0.54384 -0.29912,1.52074 0.6,1.23243 4.63789,0 9.27578,0 13.91367,0 0.0545,-6.51107 -0.0871,-13.0278 0.084,-19.53516 0.0942,0.0655 0.025,1.01512 0.0378,1.42964 0.003,6.0341 0.005,12.06908 0.003,18.10356 4.8418,0 9.68359,0 14.52539,0 -0.0596,-7.52673 0.0982,-15.05813 -0.10123,-22.58177 -0.43095,-5.01823 -4.15945,-9.55139 -9.01383,-10.91626 -2.91563,-0.92262 -6.10501,-0.84592 -9.01775,0.0254 -1.64458,-0.25126 -3.31213,-0.01 -4.96797,-0.0957 -2.02175,0 -4.04349,0 -6.06523,0 -0.0818,0.41954 0.28564,1.55506 -0.45313,0.92774 -4.93067,-2.25023 -11.03746,-2.05697 -15.6582,0.86133 0,-3.40105 0,-6.80209 0,-10.20313 -4.9375,0 -9.875,0 -14.8125,0 0,0.80469 0,1.60938 0,2.41406 -3.84506,0 -7.69011,0 -11.53516,0 0,2.00065 0,4.00131 0,6.00196 -1.00195,0 -2.00391,0 -3.00586,0 0.22265,0.93715 -0.30073,0.68 -0.91589,0.39173 -3.88535,-1.36387 -8.24807,-1.29713 -12.13294,0.036 -0.48069,0.17871 -0.95477,0.37522 -1.41601,0.59961 0.089,-0.69813 0.0633,-1.28151 -0.8,-1.02734 -1.05821,0 -2.11641,0 -3.17461,0 0,-2.00065 0,-4.00131 0,-6.00196 -4.8405,0 -9.68099,0 -14.52149,0 0.18006,0.9578 -0.22076,0.62258 -0.73045,0.13241 -3.15839,-2.51736 -7.26418,-3.44687 -11.2383,-3.31991 z m 145.03321,0.77344 c -5.28516,0 -10.57032,0 -15.85547,0 0,13.99675 0,27.99349 0,41.99024 4.9362,-0.005 9.87239,-0.009 14.80859,-0.0137 0,-4.4108 0,-8.82161 0,-13.23242 2.43486,-0.0233 4.89169,-0.19072 7.25,-0.83398 0.54328,4.70706 2.87758,9.37532 6.92965,11.99608 4.83451,3.24096 11.46279,3.54056 16.57426,0.75978 0.12024,0.48587 -0.35611,1.56835 0.5,1.31836 4.67252,0 9.34505,0 14.01758,0 0.0596,-6.0496 -0.10087,-12.10321 0.10257,-18.14997 0.12294,-0.38986 -0.008,-1.10257 0.40133,-1.25824 0.61418,-0.0562 1.2315,-0.0561 1.84766,-0.0469 0.0282,3.96594 -0.11067,7.94243 0.13911,11.9009 0.45473,3.66493 3.20947,7.03583 6.88433,7.81589 2.94875,0.76359 5.99936,-0.004 8.85351,-0.78515 0.40849,-0.34148 0.80189,-0.13886 1.22275,0.0658 3.849,1.51156 8.26686,1.32449 12.06241,-0.25917 2.24042,1.17762 4.91417,1.255 7.33008,0.69336 1.50064,0.0745 3.00895,-0.004 4.51562,0.0256 1.99944,0.0212 4.01561,-0.0752 6.00415,0.0735 4.34948,1.12092 9.2045,0.35523 12.8982,-2.23574 0,0.72005 -10e-6,1.4401 0,2.16016 4.84049,0 9.68098,0 14.52148,0 0.0282,-0.60794 -0.055,-1.41271 0.0391,-1.9043 3.69556,2.42149 8.40921,2.98496 12.6812,2.08789 3.63985,-0.75064 6.94811,-2.96008 8.95817,-6.09652 2.09764,-3.18082 2.85536,-6.97633 4.14185,-10.50965 0.3626,-1.09158 0.72529,-2.18313 1.08792,-3.27469 -0.88672,0.0937 -1.77344,0.1875 -2.66015,0.28125 -0.51258,-4.75064 -2.69116,-9.57848 -6.78125,-12.27148 -5.16813,-3.42412 -12.42649,-3.29004 -17.4668,0.31836 0,-3.53842 0,-7.07683 0,-10.61524 -4.8405,0 -9.68099,0 -14.52148,0 8e-5,3.57487 -10e-4,7.14974 -0.002,10.72461 -3.05994,-2.28489 -7.00636,-3.21825 -10.78125,-2.8125 0,-2.63737 0,-5.27474 0,-7.91211 -4.84049,0 -9.68099,0 -14.52148,0 0,3.54232 0,7.08464 0,10.62695 -2.83343,-2.21427 -6.57605,-2.90311 -10.09817,-2.79435 -2.01892,0.0908 -4.02941,0.48806 -5.91746,1.21232 0.29367,-0.9033 -0.6386,-0.58067 -1.2,-0.6289 -0.95742,0 -1.91484,0 -2.87226,0 0,-2.00065 0,-4.00131 0,-6.00196 -4.8405,0 -9.68099,0 -14.52149,0 -0.004,1.79036 0.008,3.59636 -0.006,5.37696 -1.99861,0.0229 -4.02957,0.0841 -5.95507,0.67578 -1.65526,-0.13243 -3.32255,-0.004 -4.9836,-0.0527 -1.97422,0 -3.94844,0 -5.92266,0 -0.10084,0.39115 0.29776,1.59053 -0.40234,1.01172 -4.11154,-1.97176 -9.02627,-2.11029 -13.2832,-0.51367 -1.23373,-3.55301 -4.11157,-6.45992 -7.65625,-7.72266 -2.66137,-1.01012 -5.53893,-1.24336 -8.36328,-1.18945 z m -133.61328,16.56641 c 0.8248,0.29547 1.05788,1.29296 0.92365,2.04649 -0.40539,0.5519 -0.64086,1.32068 -1.42169,1.39335 -0.56128,0.0163 -0.99127,-0.72158 -1.49953,-1.00981 -0.69079,-0.2734 -0.5335,-0.95037 -0.29295,-1.49675 0.34622,-0.4609 0.83027,-0.98392 1.46857,-0.979 0.28344,-0.10573 0.54147,-0.0152 0.82195,0.0457 z m 3.69531,3.41992 c 0.39766,0.97204 -0.25744,2.11846 -1.24219,2.40625 -0.56185,-0.55664 -1.1237,-1.11328 -1.68555,-1.66992 0.22191,-0.67264 1.08951,-0.7528 1.61328,-1.14844 0.43816,0.13737 0.87631,0.27474 1.31446,0.41211 z m 151.82226,2.08594 c 0.45323,-0.0475 1.08382,0.0153 1.09571,0.61132 0.53782,1.76268 0.65077,3.83951 -0.31641,5.4668 -0.58889,0.40824 -1.58929,0.13824 -1.64844,-0.65625 -0.56173,-1.67165 -0.51909,-3.62726 0.30078,-5.19726 0.14648,-0.14966 0.35875,-0.23671 0.56836,-0.22461 z m 75.16016,0.0117 c 0.91668,-0.0297 1.04251,1.15402 1.16992,1.82813 0.17813,1.35505 0.271,2.89089 -0.44531,4.10352 -0.50115,0.58618 -1.60813,0.34953 -1.67977,-0.47712 -0.58128,-1.64734 -0.62199,-3.63761 0.3243,-5.15374 0.15388,-0.18091 0.37326,-0.37367 0.63086,-0.30079 z m -159.35352,-0.002 c 0.49294,-0.0797 1.11395,0.0817 1.125,0.69141 0.47249,1.73405 0.52463,3.72868 -0.35742,5.33398 -0.52588,0.46768 -1.54445,0.23631 -1.59706,-0.54636 -0.54569,-1.68884 -0.50753,-3.626 0.23573,-5.2427 0.13981,-0.17754 0.36643,-0.28413 0.59375,-0.23633 z m 123.04493,2.38867 c 0.34738,0.57173 0.29459,1.13002 -0.0929,1.66467 -0.24586,0.29847 -1.06194,1.09546 -1.24982,0.40768 -0.50426,-0.82881 -1.00853,-1.65761 -1.51279,-2.48641 0.55468,-0.255 1.11119,-0.66548 1.65692,-0.15899 0.39951,0.19102 0.79903,0.38204 1.19855,0.57305 z m -205.61719,3.44922 c 0.33646,0.11613 1.59124,0.36187 1.29618,0.42782 -0.86381,-0.0228 -1.89854,0.052 -2.59501,-0.52938 -0.33154,-0.49912 1.03481,0.13546 1.29883,0.10156 z" />
	<path
   id="path6905"
   fill="#0895ff"
   d="m 100.923,651.636 c 5.332,0 8.531,-1.087 8.531,-6.155 0,-3.752 -2.327,-5.76 -7.658,-5.76 h -7.368 v 11.915 z m -9.306,15.655 v -29.984 h 10.955 c 7.755,0 9.792,3.878 9.792,8.375 0,6.699 -6.011,8.366 -11.537,8.366 h -6.399 v 13.242 l -2.811,0.001" />
	<path
   id="path6907"
   fill="#0895ff"
   d="m 116.143,667.291 h 2.424 v -29.984 h -2.424 z" />
	<path
   id="path6909"
   fill="#0895ff"
   d="m 138.925,655.958 c -2.132,0.872 -4.362,1.047 -6.494,1.213 -3.782,0.289 -6.107,1.666 -6.107,4.575 0,2.637 2.327,3.878 4.654,3.878 3.974,0 7.949,-1.92 7.949,-6.292 z m -4.265,-1.241 c 0.969,-0.087 2.521,-0.339 3.296,-0.718 0.873,-0.369 0.969,-1.492 0.969,-2.238 0,-2.54 -1.551,-4.372 -5.428,-4.372 -3.393,0 -5.816,1.124 -6.302,4.867 h -2.521 c 0.388,-5.081 4.168,-7.126 8.919,-7.126 4.362,0 7.756,1.716 7.756,6.708 v 11.741 c 0,1.957 0.581,2.414 2.617,1.666 v 1.959 c -0.291,0.126 -1.163,0.416 -1.938,0.416 -0.389,0 -0.679,-0.038 -1.066,-0.125 -1.745,-0.242 -2.037,-1.706 -2.037,-3.21 -2.037,2.338 -4.944,3.588 -8.046,3.588 -3.781,0 -7.175,-2.046 -7.175,-6.204 0,-3.616 2.521,-5.826 7.562,-6.495 l 3.394,-0.457" />
	<path
   id="path6911"
   fill="#0895ff"
   d="m 147.553,673.156 c 0.679,0.126 1.356,0.262 2.036,0.262 2.909,0 3.296,-4.09 4.265,-5.962 l -8.434,-21.735 h 2.812 l 6.98,18.536 6.882,-18.536 h 2.715 L 156.762,667 c -2.037,5.409 -3.393,8.784 -6.883,8.784 -0.873,0 -1.648,-0.125 -2.327,-0.29 l 0.001,-2.338" />
	<path
   id="path6913"
   fill="#0895ff"
   d="m 170.722,658.334 c 0.485,5.37 3.976,7.328 8.628,7.328 5.332,0 7.562,-2.906 7.562,-6.204 0,-9.287 -18.226,-3.121 -18.226,-14.898 0,-4.171 3.393,-8.038 10.179,-8.038 6.689,0 10.082,4.071 9.985,8.959 h -2.617 c 0,-4.587 -3.587,-6.544 -7.368,-6.544 -5.817,0 -7.853,3.537 -7.368,6.62 1.26,7.736 18.323,2.161 18.323,13.775 0,5.508 -4.072,8.746 -10.955,8.746 -6.302,0 -10.955,-3.238 -10.955,-9.743 l 2.812,-0.001" />
	<path
   id="path6915"
   fill="#0895ff"
   d="m 202.812,667.37 c -0.582,0.125 -1.648,0.504 -2.909,0.504 -2.424,0 -3.781,-1.086 -3.781,-4.294 v -15.783 h -3.103 v -2.074 h 3.103 v -6.001 h 2.521 v 6.001 h 3.975 v 2.074 h -3.975 v 14.785 c 0,2.133 0,3.043 2.132,3.043 0.679,0 1.356,-0.126 2.037,-0.29 v 2.035" />
	<path
   id="path6917"
   fill="#0895ff"
   d="m 221.52,655.958 c -2.132,0.872 -4.264,1.047 -6.398,1.213 -3.78,0.289 -6.107,1.666 -6.107,4.575 0,2.637 2.327,3.878 4.655,3.878 3.974,0 7.851,-1.92 7.851,-6.292 z m -4.168,-1.241 c 0.873,-0.087 2.425,-0.339 3.297,-0.718 0.776,-0.369 0.872,-1.492 0.872,-2.238 0,-2.54 -1.454,-4.372 -5.332,-4.372 -3.489,0 -5.816,1.124 -6.301,4.867 h -2.521 c 0.387,-5.081 4.168,-7.126 8.821,-7.126 4.364,0 7.853,1.716 7.853,6.708 v 11.741 c 0,1.957 0.486,2.414 2.619,1.666 v 1.959 c -0.389,0.126 -1.262,0.416 -1.939,0.416 -0.388,0 -0.775,-0.038 -1.164,-0.125 -1.648,-0.242 -1.939,-1.706 -1.939,-3.21 -2.134,2.338 -4.943,3.588 -8.046,3.588 -3.781,0 -7.271,-2.046 -7.271,-6.204 0,-3.616 2.521,-5.826 7.562,-6.495 l 3.489,-0.457" />
	<path
   id="path6919"
   fill="#0895ff"
   d="m 238.778,667.37 c -0.581,0.125 -1.649,0.504 -2.908,0.504 -2.423,0 -3.781,-1.086 -3.781,-4.294 v -15.783 h -3.006 v -2.074 h 3.006 v -6.001 h 2.521 v 6.001 h 3.975 v 2.074 h -3.975 v 14.785 c 0,2.133 0,3.043 2.132,3.043 0.678,0 1.358,-0.126 2.037,-0.29 v 2.035" />
	<path
   id="path6921"
   fill="#0895ff"
   d="m 246.243,667.291 h -2.425 v -21.569 h 2.425 z m -2.619,-26.283 v -3.701 h 2.812 v 3.701 h -2.812" />
	<path
   id="path6923"
   fill="#0895ff"
   d="m 260.978,647.389 c -5.235,0 -7.271,4.449 -7.271,9.112 0,5.371 2.521,9.122 7.271,9.122 5.234,0 7.368,-4.498 7.368,-9.122 0,-5.08 -2.036,-9.112 -7.368,-9.112 z m -9.985,9.111 c 0,-6.281 3.393,-11.371 9.985,-11.371 6.785,0 10.082,5.04 10.082,11.371 0,6.837 -3.975,11.372 -10.082,11.372 -5.429,-0.086 -9.985,-3.829 -9.985,-11.372" />
	<path
   id="path6925"
   fill="#0895ff"
   d="m 277.071,667.291 h -2.521 v -21.569 h 2.521 v 2.995 c 1.938,-2.123 3.975,-3.587 6.883,-3.587 2.713,0 5.041,0.833 6.592,3.083 1.064,1.552 1.162,3.169 1.162,4.953 v 14.124 h -2.521 v -14.076 c 0,-3.866 -1.647,-5.825 -5.623,-5.825 -3.103,0 -5.235,1.996 -6.01,4.196 -0.486,1.377 -0.486,2.59 -0.486,4.092 v 11.614" />
	
	<path
   id="path6929"
   fill="#0895ff"
   d="m 322.634,651.636 c 5.332,0 8.627,-1.087 8.627,-6.155 0,-3.752 -2.422,-5.76 -7.754,-5.76 h -7.369 v 11.915 z m -9.304,15.655 v -29.984 h 10.955 c 7.756,0 9.789,3.878 9.789,8.375 0,6.699 -5.914,8.366 -11.535,8.366 h -6.4 v 13.242 l -2.809,0.001" />
	<path
   id="path6931"
   fill="#0895ff"
   d="m 345.222,647.389 c -5.234,0 -7.365,4.449 -7.365,9.112 0,5.371 2.615,9.122 7.365,9.122 5.236,0 7.369,-4.498 7.369,-9.122 -0.097,-5.08 -2.037,-9.112 -7.369,-9.112 z m -9.984,9.111 c 0,-6.281 3.297,-11.371 9.984,-11.371 6.787,0 9.986,5.04 9.986,11.371 0,6.837 -3.975,11.372 -9.986,11.372 -5.525,-0.086 -9.984,-3.829 -9.984,-11.372" />
	<path
   id="path6933"
   fill="#0895ff"
   d="m 361.414,667.291 h -2.521 v -21.569 h 2.521 v 4.044 h 0.098 c 1.354,-3.463 3.393,-4.635 6.98,-4.635 v 2.716 c -5.625,-0.126 -7.076,4.032 -7.076,8.86 v 10.584" />
	<path
   id="path6935"
   fill="#0895ff"
   d="m 382.451,667.37 c -0.582,0.125 -1.648,0.504 -2.813,0.504 -2.52,0 -3.879,-1.086 -3.879,-4.294 v -15.783 h -3.004 v -2.074 h 3.004 v -6.001 h 2.521 v 6.001 h 4.072 v 2.074 h -4.072 v 14.785 c 0,2.133 0.098,3.043 2.133,3.043 0.682,0 1.455,-0.126 2.037,-0.29 v 2.035" />
	<path
   id="path6937"
   fill="#0895ff"
   d="m 400.384,655.958 c -2.133,0.872 -4.266,1.047 -6.398,1.213 -3.781,0.289 -6.107,1.666 -6.107,4.575 0,2.637 2.328,3.878 4.652,3.878 3.977,0 7.854,-1.92 7.854,-6.292 v -3.374 z m -4.17,-1.241 c 0.871,-0.087 2.424,-0.339 3.297,-0.718 0.777,-0.369 0.873,-1.492 0.873,-2.238 0,-2.54 -1.455,-4.372 -5.332,-4.372 -3.488,0 -5.816,1.124 -6.301,4.867 h -2.521 c 0.387,-5.081 4.17,-7.126 8.822,-7.126 4.363,0 7.854,1.716 7.854,6.708 v 11.741 c 0,1.957 0.482,2.414 2.617,1.666 v 1.959 c -0.389,0.126 -1.262,0.416 -1.938,0.416 -0.389,0 -0.777,-0.038 -1.164,-0.125 -1.646,-0.242 -1.938,-1.706 -1.938,-3.21 -2.135,2.338 -4.945,3.588 -8.051,3.588 -3.777,0 -7.27,-2.046 -7.27,-6.204 0,-3.616 2.52,-5.826 7.561,-6.495 l 3.491,-0.457" />
	<path
   id="path6939"
   fill="#0895ff"
   d="m 420.162,665.623 c 4.168,0 7.27,-3.043 7.369,-8.452 0.191,-5.41 -2.23,-9.782 -7.369,-9.782 -4.557,0 -7.271,4.158 -7.271,9.026 -0.003,5.214 2.521,9.208 7.271,9.208 z m -7.274,1.668 h -2.52 v -29.984 h 2.52 v 11.865 c 1.555,-2.618 4.654,-4.043 7.66,-4.043 6.59,0 9.598,5.38 9.598,11.42 0,6.359 -2.715,11.323 -9.693,11.323 -2.813,0 -6.01,-1.541 -7.561,-4.372 v 0 3.791" />
	<path
   id="path6941"
   fill="#0895ff"
   d="m 435.673,667.291 h 2.52 v -29.984 h -2.52 z" />
	<path
   id="path6943"
   fill="#0895ff"
   d="m 459.908,654.999 c 0,-4.198 -2.326,-7.61 -6.785,-7.61 -4.459,0 -6.787,3.538 -7.271,7.61 z m -14.057,2.093 c 0,4.654 2.521,8.532 7.271,8.532 3.199,0 5.816,-1.794 6.494,-4.953 h 2.811 c -1.26,4.07 -3.779,7.203 -9.305,7.203 -6.885,0 -9.891,-4.915 -9.891,-11.282 0,-6.293 3.686,-11.461 9.891,-11.461 5.914,0 9.5,4.218 9.5,11.962 l -16.771,-10e-4" />
	<path
   id="path6945"
   fill="#0895ff"
   d="M -2.322,490.726 H 174.31 v 52.38 H 4.657 v 45.398 h -6.979 v -52.38 H 167.33 v -38.42 H -2.322 v -6.978" />
	<path
   id="path6947"
   fill="#0895ff"
   d="m 394.956,543.106 v 45.398 h -6.98 v -52.38 h 169.65 v -38.42 h -169.65 v -6.979 h 176.631 v 52.38 H 394.956" />
	<path
   id="path6949"
   fill="#0895ff"
   d="m 264.371,490.726 v 90.798 H 174.31 v 6.98 h 97.428 v -90.8 H 361.8 v -6.979 h -97.429" />
</g>
</svg>
