<?xml version="1.0" encoding="UTF-8" standalone="no"?>
<!-- Generator: Adobe Illustrator 24.2.3, SVG Export Plug-In . SVG Version: 6.00 Build 0)  -->

<svg
   version="1.1"
   id="Layer_1"
   x="0px"
   y="0px"
   viewBox="0 0 431.04449 304.14264"
   xml:space="preserve"
   sodipodi:docname="controller.svg"
   width="431.04449"
   height="304.14264"
   inkscape:version="1.1.2 (0a00cf5339, 2022-02-04)"
   xmlns:inkscape="http://www.inkscape.org/namespaces/inkscape"
   xmlns:sodipodi="http://sodipodi.sourceforge.net/DTD/sodipodi-0.dtd"
   xmlns="http://www.w3.org/2000/svg"
   xmlns:svg="http://www.w3.org/2000/svg"
   xmlns:rdf="http://www.w3.org/1999/02/22-rdf-syntax-ns#"
   xmlns:cc="http://creativecommons.org/ns#"
   xmlns:dc="http://purl.org/dc/elements/1.1/"><metadata
   id="metadata217"><rdf:RDF><cc:Work
       rdf:about=""><dc:format>image/svg+xml</dc:format><dc:type
         rdf:resource="http://purl.org/dc/dcmitype/StillImage" /></cc:Work></rdf:RDF></metadata><defs
   id="defs215">
	
	

		
		
		
		
		
		
		
		
		
		
		
		
		
		
	
			
		
			
			
		
			
		
				
			
			
			
		
				
			
				
			
				
			
				
			
				
			
			
		
			
		
			
		
			
		
			
		
			
		
			
			
			
		
				
				
				
				
			
					
				
					
				
					
				
					
				
			
		
			
		
			
		
				
			
				
			
					
				
					
				
	

		
		
		
		
		
		
		
		
		
		
		
		
		
		
	
			
			
			
		
				
				
				
				
			
					
				</defs><sodipodi:namedview
   pagecolor="#ffffff"
   bordercolor="#666666"
   borderopacity="1"
   objecttolerance="10"
   gridtolerance="10"
   guidetolerance="10"
   inkscape:pageopacity="0"
   inkscape:pageshadow="2"
   inkscape:window-width="1920"
   inkscape:window-height="996"
   id="namedview213"
   showgrid="false"
   fit-margin-top="0"
   fit-margin-left="0"
   fit-margin-right="0"
   fit-margin-bottom="0"
   inkscape:zoom="1.0630631"
   inkscape:cx="166.02966"
   inkscape:cy="37.15678"
   inkscape:window-x="0"
   inkscape:window-y="0"
   inkscape:window-maximized="1"
   inkscape:current-layer="Layer_1"
   inkscape:pagecheckerboard="0" />
<style
   type="text/css"
   id="style2">
	.st0{fill:#FFFFFF;}
	.st1{fill:#FFFFFF;stroke:#FFFFFF;stroke-width:0.25;stroke-miterlimit:10;}
	.st2{stroke:#000000;stroke-width:0.25;stroke-miterlimit:10;}
	.st3{fill:none;stroke:#000000;stroke-width:2;stroke-miterlimit:10;}
</style>



<path
   id="path1539"
   style="fill:#000000;stroke:none;stroke-width:0.25;stroke-miterlimit:10"
   class="st2"
   d="m 135.34212,0.01087134 c -2.95938,0.1971511 -5.92876,0.3112198 -8.85704,0.8191528 C 115.79297,2.4458493 105.37482,5.5403578 95.250693,9.290791 c -7.990368,3.032641 -15.843772,6.713738 -22.645618,11.94949 -1.849676,1.467946 -3.70444,3.057012 -4.926182,5.101515 -1.428891,3.032488 -2.786168,6.11623 -4.239117,9.126106 -3.299722,2.276266 -5.833696,5.444375 -8.40848,8.471208 -2.074403,2.492574 -3.978531,5.185462 -5.099675,8.252817 -5.311106,12.451959 -10.394888,25.012444 -14.772689,37.827183 -8.396704,23.8111 -16.716733,47.66838 -23.688477,71.94401 -5.0796737,18.37338 -8.6505975,37.17328 -10.55323281,56.1423 -1.0272074,10.24551 -1.4192339,20.62825 0.038779,30.85405 1.35033131,10.02092 3.91791681,19.99035 8.59689601,28.99945 2.7785548,5.30721 6.5335908,10.19238 11.4252838,13.71348 6.801363,5.21795 14.444871,9.51026 22.754564,11.7623 2.500735,0.66742 5.25253,1.08418 7.712601,0.0314 3.226772,-1.21879 6.088912,-3.2089 8.910425,-5.15626 8.283256,-5.91096 15.066556,-13.63519 21.188188,-21.69877 4.61271,-6.10632 9.198021,-12.2346 13.912442,-18.26435 6.236219,-8.00034 12.606839,-15.99713 19.505869,-23.49405 4.9385,-5.32284 11.17174,-9.56914 18.20151,-11.55112 3.7128,-1.09256 7.60061,-1.45655 11.45959,-1.33423 47.68028,-0.0179 95.3608,-0.092 143.04093,-0.002 5.61999,0.009 11.3968,0.73599 16.43253,3.38655 5.35814,2.6972 9.57618,7.08132 13.63407,11.39856 7.32434,7.92864 13.65477,16.69141 20.33442,25.15238 8.66301,11.05005 17.10574,22.40702 27.50532,31.92448 3.87219,3.52003 8.0132,6.85774 12.75408,9.13495 2.16667,1.03101 4.61539,1.40734 6.9892,1.04698 6.08983,-0.68979 11.50764,-3.86112 16.58633,-7.08467 6.8557,-4.35424 13.26846,-9.66386 17.83122,-16.45473 3.72961,-5.4539 6.09396,-11.70534 7.76071,-18.0648 3.95212,-14.76671 4.21166,-30.27491 2.69232,-45.40882 -1.45507,-14.21865 -4.32791,-28.24863 -7.60835,-42.14621 -4.34716,-18.14259 -9.65615,-36.04541 -15.55758,-53.7394 -6.10522,-18.13689 -12.81423,-36.065262 -19.77194,-53.890205 -2.19588,-5.554247 -4.35068,-11.134076 -6.8867,-16.543494 -2.53818,-4.836765 -6.40709,-8.793319 -10.30018,-12.554323 -0.9399,-0.911784 -1.99411,-1.732777 -2.87171,-2.69016 -1.5472,-3.632946 -3.02697,-7.365534 -5.37987,-10.567341 -1.858,-2.464939 -4.15297,-4.589146 -6.79495,-6.190974 -4.0218,-2.601209 -8.25223,-4.872444 -12.5538,-6.971646 C 334.10026,7.886943 325.21837,5.3740571 316.3063,3.224824 310.08254,1.7721594 303.78985,0.46452764 297.40271,0.02574144 292.01233,-0.21248236 286.63989,1.2941132 281.96792,3.944237 c -2.41327,1.3054219 -4.55729,2.7748898 -7.03905,3.9330641 -0.65665,0.3897018 -1.37636,0.5233975 -2.13206,0.4427037 -38.57901,0.00851 -77.16031,0.085403 -115.73789,0.00728 -0.96864,-0.1781385 -1.81488,-0.7820482 -2.71559,-1.1673225 -3.96364,-1.9451913 -7.69125,-4.3928917 -11.83236,-5.9601327 -2.29486,-0.80695306 -4.72972,-1.27867826 -7.16885,-1.18895826 z M 297.14095,9.7823557 c 5.40538,0.3477023 10.7142,1.5235463 15.99106,2.6867633 3.42784,0.786849 6.96706,1.703638 10.25894,2.668705 3.78103,1.127327 7.44323,2.288381 11.1384,3.765366 1.83421,0.730188 3.63715,1.537023 5.41043,2.404556 -11.7731,-4.678558 -24.15119,-7.790064 -36.69423,-9.514671 -4.83006,-0.591002 -9.78823,-0.217893 -14.42882,1.278343 -2.20194,0.650859 -4.38098,1.38001 -6.60351,1.958984 3.63524,-2.072367 7.24616,-4.531859 11.49288,-5.0948711 1.13514,-0.1757756 2.28851,-0.2324011 3.43485,-0.1531752 z m -160.61328,-0.00195 c 3.28328,0.2999623 6.07074,2.2516993 8.93096,3.7125383 0.3694,0.214704 1.45134,0.738161 0.48702,0.354474 -5.46587,-2.002346 -11.394,-2.211146 -17.13978,-1.711696 -11.03986,1.005482 -21.91504,3.540305 -32.385625,7.152496 4.270945,-1.704769 8.810285,-3.228284 13.093755,-4.542969 7.23646,-2.135335 14.60333,-3.993636 22.12886,-4.726478 1.5572,-0.1416453 3.12273,-0.1263969 4.6781,-0.2462651 0.0689,0.00263 0.13781,0.00527 0.20671,0.0079 z m 4.41602,12.6933593 c 3.59639,1.048242 6.96902,3.043714 10.79188,3.191534 13.5707,0.04586 27.1436,0.0073 40.71515,0.02088 4.32122,1.6e-4 8.64245,3.2e-4 12.96367,4.8e-4 -0.74299,0.387076 -1.45211,0.89766 -1.82031,1.675781 -1.28158,0.47967 -2.44049,1.24895 -3.28197,2.3378 -4.63167,4.981727 -6.32171,12.53513 -4.06987,18.979757 0.84613,2.515086 2.184,4.914693 4.05691,6.799631 0.368,0.296609 0.87869,0.359338 1.00977,0.886719 1.19314,1.686178 3.08622,2.675571 4.83725,3.67853 6.92291,3.569459 15.8341,2.852976 22.0457,-1.871016 0.95566,-0.694617 1.82543,-1.566135 2.3026,-2.662983 1.45561,-0.989668 2.32107,-2.604391 3.18945,-4.089844 3.10085,-5.796779 2.91101,-13.225415 -0.61984,-18.793759 -1.06961,-1.714308 -2.36433,-3.347239 -3.96529,-4.58084 -0.60092,-0.313723 -1.2827,-0.510128 -1.61171,-1.143904 -0.44924,-0.475024 -0.95074,-0.921762 -1.53753,-1.217825 16.88803,-0.01537 33.77669,0.01741 50.66434,-0.02804 4.37103,-0.142062 8.63279,-1.267457 12.78292,-2.571567 -5.05393,3.85049 -9.14152,8.767597 -13.4075,13.432772 -6.1249,6.760633 -12.36095,13.448855 -19.14004,19.560379 -2.54619,2.036868 -5.76872,2.918769 -8.92679,3.457396 -2.37808,0.632288 -4.69134,1.498714 -7.04806,2.211559 -4.32277,1.386248 -8.64523,2.773428 -12.96784,4.160159 7.06868,0.477898 14.12968,1.069381 21.20117,1.5 5.48936,-0.69915 10.94587,-2.843266 14.88342,-6.830102 8.33523,-7.528616 15.83087,-15.910539 23.47884,-24.117831 3.22694,-3.275145 6.52926,-6.727633 10.82329,-8.57941 3.56394,-1.342109 7.46829,-1.149213 11.19726,-0.851563 4.31251,0.452305 8.55543,1.409969 12.7168,2.611328 1.27644,0.377996 2.77784,0.833147 4.12773,1.286108 4.71681,1.515218 9.45875,3.355123 13.97383,5.180689 3.7615,1.541611 7.50895,3.211377 11.10156,4.972656 6.40222,3.190218 12.68158,6.72184 18.34766,11.111329 2.36092,2.889257 3.43356,6.521029 4.92272,9.880517 4.71077,11.499411 9.09603,23.172465 13.42967,34.857905 6.04851,16.3312 11.74585,32.79936 16.67901,49.50453 2.56842,8.61219 4.97276,17.26982 7.15805,26.01291 2.46459,9.90062 4.69093,20.06232 6.4063,30.12877 1.38525,8.11464 2.42962,16.29889 2.79097,24.52748 0.0395,1.03911 0.0915,2.34906 0.10741,3.49307 0.23588,11.82344 -1.03582,23.79874 -4.94726,35.00888 -0.23034,0.64949 -0.57775,1.57182 -0.88969,2.31581 -2.37559,5.9839 -6.34852,11.27663 -11.30589,15.36822 -1.15105,0.98001 -2.35447,1.89654 -3.5759,2.78667 -0.42814,0.29403 -1.13055,0.80478 -1.67639,1.16528 -3.42581,2.24838 -6.87647,4.55147 -10.71062,6.05001 -1.02719,0.39087 -2.08846,0.69495 -3.16963,0.89213 -7.3301,-11.05446 -15.67557,-21.44702 -24.94544,-30.92877 -11.59487,-12.14861 -23.31114,-24.19671 -35.55592,-35.69569 -4.12179,-3.80017 -8.22431,-7.67797 -12.88242,-10.82282 -6.38,-4.01676 -13.95277,-5.50192 -21.35317,-6.2296 -10.06054,-0.94084 -20.17723,-0.56175 -30.26618,-0.65132 -37.4844,0.003 -74.96921,-0.0146 -112.45336,0.0208 -11.23373,0.21481 -22.59386,3.14836 -32.00054,9.42064 -6.20223,4.25781 -11.49555,9.66013 -16.725639,15.02658 -5.302636,5.54971 -10.540304,11.16109 -15.855088,16.70016 -9.295431,9.86045 -18.588272,19.72801 -27.614533,29.83701 -3.537206,4.08367 -6.724665,8.46223 -9.648496,13.00265 -5.761949,-1.5986 -11.067939,-4.5251 -15.990234,-7.86914 -3.193438,-2.23121 -6.346538,-4.65758 -8.595644,-7.88676 -2.471719,-3.39206 -4.297259,-7.32914 -5.748106,-11.15621 -0.534389,-1.37605 -1.053335,-3.00149 -1.519532,-4.49414 -1.226717,-4.0361 -2.160723,-8.15878 -2.835937,-12.32222 -0.08412,-0.613 -0.239819,-1.54471 -0.334129,-2.28462 -0.8320905,-6.01526 -1.1019764,-12.10481 -0.8123558,-18.17046 0.055156,-1.02323 0.1083198,-2.31746 0.1894188,-3.44368 0.190939,-3.1302 0.468575,-6.29257 0.790577,-9.33894 0.817849,-7.77531 1.992946,-15.60486 3.377426,-23.23887 1.166519,-6.37909 2.518878,-12.77907 4.025869,-18.98802 2.913938,-12.09137 6.714694,-23.92362 10.503128,-35.74306 5.902892,-18.22082 12.278059,-36.28415 18.692658,-54.329677 3.788349,-10.305592 7.969674,-20.46632 12.322109,-30.543015 0.56698,-1.066731 1.261921,-2.093353 2.33001,-2.711654 9.391646,-6.902049 20.016212,-11.888572 30.788336,-16.223631 7.272752,-2.897389 14.838132,-5.560561 22.568362,-7.1875 5.01285,-1.011224 10.24268,-1.607815 15.30289,-0.594025 3.20747,0.792645 5.89805,2.857299 8.32016,5.017853 0.3662,0.337236 1.00191,0.904677 1.45713,1.350671 5.06888,4.933472 9.61395,10.36842 14.55953,15.420546 4.49479,4.669717 9.07381,9.279774 14.01479,13.478514 3.71171,2.792982 8.27438,4.302697 12.85539,4.819187 6.94592,-0.51068 13.89182,-1.021514 20.83777,-1.531809 -6.71873,-2.122256 -13.40667,-4.341279 -20.13867,-6.419921 -3.74522,-0.533943 -7.55548,-1.875456 -10.19199,-4.702733 -8.15696,-7.513454 -15.49959,-15.840398 -22.95164,-24.035814 -2.86663,-3.030042 -5.79497,-6.05644 -9.247,-8.429422 0.23242,0.05664 0.46484,0.113281 0.69727,0.169922 z m 184.34179,16.351562 c -6.5541,0.06621 -12.95677,3.786956 -16.13945,9.538028 -3.40867,5.990334 -3.10924,13.813327 0.61655,19.591535 3.7001,5.963841 10.70668,9.733994 17.73775,9.368484 6.34664,-0.222957 12.45708,-3.887636 15.56703,-9.438176 3.45525,-5.98805 3.18991,-13.843943 -0.53928,-19.646803 -3.61083,-5.828989 -10.36199,-9.604949 -17.2426,-9.413068 z m 0.31446,9.734375 c 5.10525,-0.111269 9.86868,4.219153 10.15051,9.336465 0.3022,3.623747 -1.77992,7.320432 -5.10874,8.83089 -3.74371,1.756927 -8.48352,0.758203 -11.30469,-2.234956 -2.81738,-2.847955 -3.77888,-7.527401 -1.83624,-11.114243 1.55705,-2.938125 4.76025,-4.882681 8.09916,-4.818156 z m -220.30079,2.685547 c -10.619737,0.178592 -21.056818,5.412008 -27.428325,13.932606 -5.438976,7.150805 -7.811817,16.560089 -6.295444,25.426873 1.511005,9.251664 7.163233,17.665942 15.011776,22.752682 8.400613,5.53568 19.183393,7.21327 28.885203,4.58109 9.3034,-2.48383 17.52692,-8.90904 21.95462,-17.48913 4.39645,-8.391711 4.94851,-18.700174 1.38036,-27.486812 -3.82734,-9.655303 -12.3063,-17.255471 -22.25055,-20.188177 -3.63801,-1.107459 -7.45692,-1.612072 -11.25764,-1.529132 z m 190.58008,15.359372 c -6.56117,0.06656 -12.98993,3.784208 -16.15475,9.560607 -3.3698,5.95772 -3.08507,13.713264 0.58411,19.471837 3.68183,5.997015 10.69623,9.803365 17.74642,9.457785 6.28463,-0.20823 12.34404,-3.79361 15.49456,-9.246511 3.49501,-5.897946 3.35305,-13.677406 -0.23088,-19.503484 -3.56441,-6.010652 -10.42658,-9.934435 -17.43946,-9.740234 z M 105.9183,67.473762 c 7.13014,-0.184393 14.23007,4.062962 17.20283,10.587889 2.54807,5.44815 1.91616,12.228311 -1.64406,17.086436 -3.74379,5.296003 -10.39284,8.282453 -16.83647,7.723313 -6.467218,-0.47159 -12.654728,-4.464371 -15.398778,-10.395692 -1.796754,-3.8269 -2.154872,-8.338839 -0.852827,-12.37304 0.176601,-0.554539 0.473913,-1.402676 0.782812,-2.041834 2.802733,-6.109307 9.210041,-10.281108 15.903593,-10.558155 0.28056,-0.01801 0.56197,-0.01893 0.8429,-0.02892 z m 247.91796,0.769531 c -6.75898,0.04024 -13.31012,4.103065 -16.31434,10.164478 -3.07826,6.05315 -2.50804,13.71902 1.33986,19.300661 3.76946,5.656958 10.59508,9.163908 17.40495,8.722568 6.43827,-0.31461 12.57017,-4.23638 15.47898,-10.002353 3.28221,-6.267603 2.55875,-14.324195 -1.64512,-19.990276 -3.68194,-5.132815 -9.92534,-8.364768 -16.26433,-8.195078 z m -170.30664,3.746094 c -5.84508,0.1567 -11.24303,4.558588 -12.61949,10.234866 -1.42104,5.280369 0.74402,11.292839 5.2152,14.446774 4.46033,3.305862 10.98169,3.444183 15.55859,0.28711 4.52098,-2.970085 6.94804,-8.79255 5.78519,-14.089533 -1.11124,-5.730263 -6.27698,-10.408751 -12.11885,-10.830082 -0.60428,-0.0632 -1.2138,-0.06664 -1.82064,-0.04914 z m 62.66016,0.0098 c -5.81214,0.157363 -11.1863,4.509669 -12.59506,10.144269 -1.46232,5.277626 0.67188,11.316567 5.13405,14.496459 4.47993,3.360765 11.07339,3.498275 15.67438,0.293268 4.48837,-2.972242 6.87884,-8.766959 5.72875,-14.036528 -1.10521,-5.736655 -6.27327,-10.427506 -12.12149,-10.848332 -0.60427,-0.0632 -1.21379,-0.06664 -1.82063,-0.04914 z m 50.38477,4.335938 c 5.00246,0.102499 9.54201,4.416951 9.77403,9.440074 0.26209,3.668911 -1.92238,7.38118 -5.32697,8.821768 -3.89103,1.710735 -8.75845,0.487111 -11.47636,-2.75403 -2.56871,-2.908586 -3.29599,-7.424251 -1.35852,-10.85827 1.64161,-2.963633 4.99518,-4.850615 8.38782,-4.649542 z m 57.94531,1.65039 c 4.36569,0.107535 8.39391,3.486608 9.31445,7.746094 0.11137,0.435058 0.23658,1.248153 0.23869,1.839499 0.12955,3.525827 -1.99258,7.047802 -5.27675,8.410686 -3.70482,1.613443 -8.3023,0.482702 -10.95413,-2.533388 -2.66297,-2.898872 -3.45079,-7.506897 -1.45312,-10.978516 1.6108,-2.855843 4.84205,-4.679699 8.13086,-4.484375 z m -170.35742,3.72461 c 2.5351,-0.0631 4.55009,2.801983 3.63631,5.167683 -0.69114,2.09968 -3.32358,3.314815 -5.32192,2.270001 -1.9521,-0.87172 -2.88753,-3.452972 -1.80853,-5.330262 0.68357,-1.24006 2.03938,-2.190822 3.49414,-2.107422 z m 62.82031,0.01367 c 2.43854,0.05594 4.31474,2.769431 3.51367,5.074218 -0.64388,2.073938 -3.14851,3.345255 -5.16844,2.450296 -1.97462,-0.775436 -3.05026,-3.262309 -2.11281,-5.198343 0.65319,-1.417843 2.17778,-2.461773 3.76758,-2.326171 z m -27.42578,13.771484 c -2.71786,0.03655 -5.4431,-0.08268 -8.15625,0.08008 -4.87694,0.571067 -9.11161,4.615771 -9.82617,9.488271 -0.83467,4.79981 1.8,9.95599 6.20117,12.0625 2.37545,1.22533 5.11027,1.25168 7.71757,1.16644 2.68728,-0.0503 5.39373,0.15178 8.06695,-0.16689 4.95199,-0.82293 9.02506,-5.26713 9.36001,-10.28664 0.45736,-4.84961 -2.57439,-9.781716 -7.125,-11.537118 -1.9703,-0.803191 -4.13989,-0.865511 -6.23828,-0.806641 z m 105.14453,-0.0059 c -6.88964,0.02704 -13.58356,4.17811 -16.60785,10.380051 -3.11401,6.18374 -2.40966,14.0189 1.6336,19.61948 4.00688,5.77486 11.21674,9.17722 18.22798,8.42819 6.5248,-0.58967 12.58525,-4.85237 15.26171,-10.84656 2.929,-6.32589 1.94018,-14.1952 -2.34333,-19.6746 -3.75398,-4.974216 -9.92499,-8.053163 -16.17211,-7.906561 z m 0.79492,9.746091 c 4.88705,0.1766 9.31426,4.32675 9.64867,9.23538 0.31143,3.47323 -1.53077,7.05808 -4.64124,8.68596 -3.72428,2.031 -8.66594,1.17374 -11.6133,-1.83775 -2.81779,-2.73665 -3.89579,-7.24437 -2.19592,-10.85541 1.47474,-3.21061 4.9293,-5.37269 8.47013,-5.23418 0.11056,0.002 0.22111,0.004 0.33166,0.006 z m -167.08398,9.6543 c -11.46327,0.20913 -22.70975,5.54922 -30.12211,14.29635 -6.49726,7.55815 -10.04219,17.59228 -9.63415,27.56001 0.35305,10.36738 4.95354,20.49189 12.4889,27.61449 7.58604,7.26356 18.04748,11.42529 28.55525,11.29868 10.41428,-0.0436 20.7422,-4.2461 28.19794,-11.52409 7.55383,-7.2772 12.1206,-17.58646 12.27287,-28.08941 0.23177,-10.30997 -3.73309,-20.62672 -10.79631,-28.13951 -7.48133,-8.07956 -18.33498,-12.93413 -29.35666,-13.02003 -0.53508,-0.0146 -1.07054,0.004 -1.60573,0.004 z m 112.59375,0.54687 c -10.55578,0.18124 -20.8453,5.54433 -27.10914,14.03094 -5.64731,7.50998 -8.0403,17.36107 -6.44745,26.62387 1.60864,9.7753 7.61688,18.71114 16.05871,23.89535 7.71205,4.81006 17.33827,6.40535 26.18955,4.33552 9.54299,-2.18179 18.01131,-8.58753 22.71295,-17.17301 4.98522,-8.95389 5.7051,-20.13902 1.8877,-29.65249 -3.82078,-9.71963 -12.20824,-17.53027 -22.22201,-20.54065 -3.57744,-1.09582 -7.33015,-1.60801 -11.07031,-1.51953 z m -109.9668,11.25 c 1.70318,0.0626 3.4343,0.16733 5.06445,0.70313 0,7.04882 0,14.09765 0,21.14648 7.0612,0.008 14.12248,-0.0221 21.1836,0.0176 0.68062,2.52646 0.70231,5.18282 0.71459,7.78464 -0.0585,1.89149 -0.15131,3.82204 -0.73608,5.63333 -7.05388,0.0558 -14.10808,0.006 -21.16211,0.0234 0.001,7.06055 0.004,14.1211 -0.006,21.18165 -2.57375,0.68629 -5.27709,0.71621 -7.9264,0.71344 -1.84763,-0.068 -3.73319,-0.1513 -5.50328,-0.73102 -0.0565,-7.05426 -0.006,-14.10943 -0.0234,-21.16407 -7.05468,-0.007 -14.10949,0.0268 -21.16406,-0.0215 -0.87495,-2.95322 -0.80002,-6.09285 -0.64291,-9.13998 0.0975,-1.43744 0.20102,-2.89618 0.62533,-4.27994 7.06026,-0.0413 14.12112,-0.005 21.18164,-0.0176 0.007,-7.05208 -0.0216,-14.10424 0.0176,-21.15625 2.69035,-0.86195 5.58876,-0.75388 8.37695,-0.69336 z m 15.12891,1.77149 c 4.20867,2.58713 7.81747,6.15196 10.42968,10.34765 -3.58457,0.009 -7.17062,-0.006 -10.75586,0 -0.008,-3.51561 0.0224,-7.03132 -0.006,-10.54687 0.11068,0.0664 0.22136,0.13281 0.33204,0.19922 z m -33.24415,1.06836 c -0.0169,3.09025 -0.007,6.18099 -0.01,9.27148 -3.56705,0.008 -7.13418,-0.0219 -10.70117,0.006 0.6706,-1.06976 1.29112,-1.94828 2.08789,-2.95703 2.39098,-2.99703 5.31305,-5.57322 8.60351,-7.54297 0.007,0.40755 0.013,0.8151 0.0195,1.22266 z m 129.93165,2.3789 c 6.83489,0.29812 13.24858,4.79537 15.92366,11.08314 2.56306,5.84098 1.81007,12.99856 -1.99202,18.13561 -3.63956,5.06194 -9.95525,8.07287 -16.18653,7.59169 -3.65161,-0.23309 -7.19559,-1.63869 -10.08496,-3.87099 -0.19997,-0.1678 -0.77333,-0.61279 -1.10068,-0.92859 -1.28785,-1.15896 -2.40305,-2.55155 -3.26693,-3.94713 -3.57404,-5.69671 -3.6376,-13.38065 -0.11509,-19.11805 3.23492,-5.42538 9.38321,-9.02015 15.72616,-8.96471 0.36537,-0.003 0.73099,0.0141 1.09639,0.019 z m -139.02539,39.80274 c 3.02495,0.041 6.05085,0.006 9.07617,0.0176 0.009,3.50715 -0.0256,7.01444 0.01,10.52149 -4.33098,-2.59302 -8.03657,-6.22814 -10.70508,-10.51367 0.53969,-0.0104 1.07937,-0.0211 1.61915,-0.0254 z m 52.67773,0.17187 c -2.67573,4.24014 -6.36535,7.83374 -10.66992,10.40234 -0.0203,-3.51578 0.006,-7.03254 -0.004,-10.54882 3.58983,-0.008 7.17978,0.0247 10.76953,-0.01 l -0.0522,0.0853 z" /><path
   id="path110"
   style="fill:#ffffff;stroke:none;stroke-width:0.25;stroke-miterlimit:10"
   class="st2"
   d="m 296.35412,4.0055588 c -6.66,0 -11.051,2.58032 -15.291,5.07032 -0.58,0.34 -1.16,0.67953 -1.75,1.0195302 -3.29,1.879999 -4.5289,2.190229 -4.8789,2.240229 l -0.291,-0.0195 c -40.03999,0.04 -116.15897,0.09 -117.70897,0 -1.19,-0.08 -4.56109,-1.890309 -8.12109,-3.8203092 -1.36,-0.73 -2.79977,-1.50953 -4.25977,-2.26953 -5.29,-2.76 -8.93922,-2.23985 -9.69922,-2.08985 -3.4,-0.09 -16.15008,1.13938 -35.580086,8.1093792 -20.13,7.23 -27.05008,14.80023 -27.58008,15.99023 -0.42,0.96 -3.92054,8.54016 -4.56054,9.91016 l -2.07032,1.43945 c -2.2,1.74 -8.68914,9.03047 -10.11914,12.23047 l -0.01,0.01 c -0.09,0.2 -8.64954,20.01921 -13.26953,33.19921 l -2.15039,6.0918 c -5.64,15.940002 -15.07024,42.618982 -22.49024,67.708982 -8.6800003,29.38 -12.8695303,61.47024 -12.5195303,77.99024 0.38,18.06 5.92875,40.56062 17.4687503,50.14062 11.62,9.64 23.20992,13.16016 26.66992,13.16016 0.12,0 0.23133,-2.3e-4 0.36133,0.01 3.25,-0.27 11.76969,-6.31977 15.92969,-10.25977 4.3,-4.08 7.70883,-7.30062 16.54883,-19.14062 6.36,-8.52 22.201016,-29.4011 31.791016,-39.3711 8.31,-8.63 18.86071,-13.38867 29.72071,-13.38867 l 17.10937,-0.01 c 34.93,-0.02 116.73035,-0.0802 128.65035,0.01 14.53,0.12 22.0296,5.12031 30.7696,14.32031 6.15,6.47 9.3593,10.60938 17.1093,20.60938 3.53,4.55 8.0011,10.32008 14.1211,18.08008 21.31,27.01 31.2695,28.95929 31.6895,29.02929 2.15,0.37 7.0003,0.20961 15.3203,-4.90039 9.06,-5.56 19.1491,-12.68859 24.2891,-27.05859 5.86,-16.38 7.021,-35.91094 3.541,-59.71094 -3.28,-22.49 -10.0807,-49.7593 -20.2207,-81.0293 -8.4,-25.87998 -24.9503,-68.690312 -28.0703,-74.820312 -3.1,-6.11 -11.5189,-13.35023 -12.8789,-14.49023 -0.55,-1.37 -3.5412,-8.77016 -5.4512,-10.91016 -0.24,-0.27 -0.4502,-0.5293 -0.6602,-0.7793 -1.56,-1.9 -3.0489,-3.70078 -14.6289,-9.80078 -12.91,-6.7999992 -38.9102,-12.4699992 -46.7402,-12.4999992 z m -0.02,1.74024 h 0.08 c 7.68,0.03 33.2397,5.6107802 45.9297,12.3007792 11.27,5.94 12.6494,7.60914 14.1094,9.36914 0.22,0.27 0.4411,0.54008 0.7011,0.83008 1.1898,1.32885 2.8949,5.14792 4.1289,8.07226 -2.0936,-1.28554 -5.7466,-3.38039 -14.4199,-7.58203 -11.07,-5.36 -22.999,-9.20023 -36.459,-11.74023 -5.215,-0.985 -8.8115,-1.51782 -12.1015,-1.47657 -3.29,0.0412 -6.2746,0.6568 -10.2696,1.9668 -7.52,2.47 -10.47,2.4707 -13.5,2.4707 H 152.68425 c -2.22,0 -3.83086,-0.65046 -5.88086,-1.48046 -2.59,-1.05 -5.81938,-2.35079 -11.35938,-2.55079 -10.25,-0.34 -30.31937,3.32969 -47.359376,10.92969 -10.22103,4.56493 -15.80151,7.7069 -18.72266,9.50781 1.23292,-2.66978 3.06877,-6.6392 3.41211,-7.40625 0.55,-1.1 7.39008,-8.17054 26.58008,-15.06054 C 118.63417,6.9761888 131.40347,5.7561888 134.38347,5.8961888 h 0.13086 l 0.11914,-0.0293 c 0.03,-0.01 3.42133,-0.7918 8.61133,1.9082 1.45,0.76 2.87851,1.53172 4.22851,2.2617202 4.63,2.499999 7.33008,3.929529 8.83008,4.019529 1.86,0.12 111.06013,0.01 117.66013,0 0.58,0.13 2.0114,-0.0612 6.1914,-2.451169 0.6,-0.34 1.1796,-0.67929 1.7696,-1.02929 4.23,-2.4800002 8.2301,-4.8300802 14.4101,-4.8300802 z m 2.0723,11.5195292 c 3.1649,-0.0354 6.6377,0.47969 11.6777,1.42969 13.31,2.51 25.0895,6.31156 36.0195,11.60156 12.7286,6.1628 16.2835,8.71004 16.4336,8.82617 l 0.076,0.0625 c 0.066,0.0527 4.1218,3.53622 7.8027,7.62109 -4.5046,-3.2015 -12.6312,-8.34 -24.5429,-13.46093 -17.6,-7.56 -30.7588,-11.22852 -40.2188,-11.22852 h -0.25 c -8.35,0.06 -12.3106,1.23828 -23.8906,14.23828 -11.24,12.62 -16.8203,17.95008 -21.5703,22.33008 -4.35,4.02 -11.27962,4.74 -11.34962,4.75 0.01,0 6.97952,-0.64023 11.51952,-4.74023 4.81,-4.34 10.1494,-9.34922 21.6094,-21.94922 11.33,-12.46 15.5714,-13.86969 23.6914,-13.92969 h 0.2402 c 9.36,0 22.4295,3.65969 39.9395,11.17969 14.8385,6.36934 23.6301,12.65923 26.9492,15.25781 1.0632,1.35215 2.0297,2.71727 2.6895,4.01172 3.11,6.1 19.5909,48.760312 27.9609,74.570312 10.11,31.18 16.8901,58.34023 20.1601,80.74023 3.43,23.51 2.2991,42.76915 -3.4609,58.86915 -4.95,13.84 -14.3486,20.51015 -23.5586,26.16015 -7.3281,4.49783 -11.533,4.84405 -13.4453,4.69922 -1.2584,-1.99195 -10.0513,-15.61868 -21.9062,-28.22852 -13.41,-14.26999 -41.3085,-42.98078 -50.8985,-49.55078 -9.74,-6.67 -25.7205,-6.66992 -39.8105,-6.66992 H 149.18425 c -11.39,0 -21.50961,2.66063 -30.09961,7.89063 -7.15,4.36 -16.05142,13.82922 -23.191416,21.44922 -1.68,1.79 -3.23914,3.45086 -4.61914,4.88085 -7.08,7.31 -26.02039,27.59102 -32.40039,34.79102 -5.96443,6.72286 -10.61848,14.35785 -11.27539,15.44922 -3.55853,-0.2519 -14.2851,-3.79301 -25.01367,-12.69922 -11.06,-9.18 -16.4798503,-31.75008 -16.8398503,-48.83008 -0.35,-16.39 3.81922,-48.2607 12.4492203,-77.4707 7.4,-25.04 16.83094,-51.70109 22.46094,-67.621092 l 2.14844,-6.09961 c 4.58,-13.05 13.0407,-32.68008 13.2207,-33.08008 0.35528,-0.79015 1.14356,-1.94385 2.08203,-3.19922 3.20708,-2.52696 11.98334,-8.86278 27.02735,-15.32031 17.509996,-7.52 30.581406,-11.17969 39.941406,-11.17969 h 0.23829 c 8.12,0.06 12.3614,1.46969 23.6914,13.92969 11.46,12.6 16.79938,17.60922 21.60938,21.94922 4.55,4.1 11.51953,4.74023 11.51953,4.74023 -0.07,-0.01 -6.99961,-0.73 -11.34961,-4.75 -4.75,-4.38 -10.33031,-9.71008 -21.57031,-22.33008 -11.58,-13 -15.53868,-14.17828 -23.88868,-14.23828 h -0.25 c -9.46,0 -22.62071,3.66852 -40.220706,11.22852 -12.84765,5.52328 -20.92226,10.85841 -25.16406,13.96875 2.16904,-2.65509 4.6397,-5.33696 5.90429,-6.32813 l 2.41016,-1.67969 0.006,-0.0117 c 1.1327,-0.81659 6.52076,-4.48802 20.7832,-10.84961 16.790006,-7.49 36.559856,-11.1293 46.589856,-10.7793 5.23,0.19 8.18148,1.36992 10.77148,2.41992 2.13,0.86 3.9693,1.59961 6.5293,1.59961 h 122.02927 c 2.8,-0.04 6.0813,0.0112 13.8613,-2.54883 3.81,-1.25 6.6671,-1.83574 9.8321,-1.87109 z m -82.7422,9.74023 c -3.3,0 -6.06078,0.87078 -8.55078,2.30078 -0.03,0.02 -0.0393,0.0501 -0.0293,0.0801 0.01,0.03 0.0501,0.0393 0.0801,0.0293 2.81,-0.69 7.26851,1.55094 8.47851,2.21094 0.01,0 0.0213,0.01 0.0312,0.01 0.01,0 0.0193,2.4e-4 0.0293,-0.01 0.46,-0.26 5.28094,-2.87071 8.46094,-2.22071 0.03,0 0.0701,7.1e-4 0.0801,-0.0293 0.01,-0.03 -0.001,-0.0701 -0.0312,-0.0801 -2.52,-1.43 -5.23883,-2.29102 -8.54883,-2.29102 z m 10.87304,4.38282 c -0.79835,8.5e-4 -2.6796,0.5557 -6.4746,4.1582 -0.02,0.01 -0.0293,0.0288 -0.0293,0.0488 0,0.01 0.01,0.031 0.0195,0.041 3.28,3.72 9.63062,12.6193 8.39062,16.2793 -0.01,0.03 -0.0105,0.0601 0.0195,0.0801 0.03,0.01 0.0698,7e-4 0.0898,-0.0293 2.09,-2.61 3.33008,-5.87992 3.33008,-9.41992 0,-4.32 -1.85961,-8.24055 -4.84961,-11.06055 0,0 -0.01,2.4e-4 -0.0195,-0.01 l 0.0195,0.0195 c 0.006,0.006 -0.1332,-0.10782 -0.4961,-0.10742 z m -21.91406,0.0371 c -0.36545,-10e-4 -0.50625,0.11446 -0.5,0.11133 l 0.0312,-0.0312 c -0.01,0.01 -0.0215,0.01 -0.0215,0.01 -3.01,2.84 -4.87891,6.78086 -4.87891,11.13086 0,3.56 1.24961,6.85047 3.34961,9.48047 0.02,0.03 0.0598,0.0393 0.0898,0.0293 0.03,-0.02 0.0295,-0.0501 0.0195,-0.0801 -1.25,-3.69 5.1414,-12.62915 8.4414,-16.36915 0.01,-0.01 0.0195,-0.031 0.0195,-0.041 0,-0.02 -0.0113,-0.0388 -0.0312,-0.0488 -3.8225,-3.62312 -5.71553,-4.18883 -6.51953,-4.19141 z m 11.04102,8.13086 c -0.02,0 -0.0408,0.009 -0.0508,0.0293 -4.91,3.56 -13.31,12.35961 -10.75,14.84961 2.89,2.41 6.66078,3.87109 10.80078,3.87109 4.14,0 7.90883,-1.46109 10.79883,-3.87109 2.56,-2.49 -5.84,-11.28961 -10.75,-14.84961 -0.01,-0.02 -0.0288,-0.0293 -0.0488,-0.0293 z m 109.7266,3.26758 c -3.8483,0.079 -7.4305,1.51836 -10.168,4.16211 -2.88,2.78 -4.4688,6.54961 -4.4688,10.59961 0,8.39 6.8896,15.46024 15.3496,15.74024 0.18,0.01 0.3591,0.01 0.5391,0.01 3.94,0 7.6202,-1.45992 10.4102,-4.16992 2.87,-2.78 4.4609,-6.54961 4.4609,-10.59961 0,-8.39 -6.8896,-15.45023 -15.3496,-15.74023 -0.2588,-0.007 -0.5169,-0.007 -0.7734,-0.002 z m 0.2324,1.73242 c 0.16,0 0.3204,-2.3e-4 0.4804,0.01 7.54,0.25 13.67,6.53 13.67,14 0,3.58 -1.3995,6.90937 -3.9395,9.35937 -2.57,2.49 -5.9697,3.77993 -9.6797,3.66993 -7.54,-0.26 -13.6718,-6.53977 -13.6718,-14.00977 0,-3.57 1.4014,-6.89961 3.9414,-9.34961 2.47,-2.38 5.7192,-3.67969 9.1992,-3.67969 z m -219.47853,10.67969 c -17.100016,0 -31.009776,13.43899 -31.009776,29.95899 0,16.520002 13.90976,29.960932 31.009776,29.960932 17.1,0 31.00976,-13.44093 31.00976,-29.960932 0,-16.52 -13.90976,-29.95899 -31.00976,-29.95899 z m 0,0.86914 c 16.62,0 30.15039,13.05156 30.15039,29.10156 0,16.040002 -13.53039,29.089852 -30.15039,29.089852 -16.620016,0 -30.140636,-13.04985 -30.140636,-29.089852 0,-16.05 13.52062,-29.10156 30.140636,-29.10156 z m 0,5.6211 c -13.390016,0 -24.281266,10.52875 -24.281266,23.46875 0,12.94 10.89125,23.470702 24.281266,23.470702 13.38,0 24.26929,-10.530702 24.27929,-23.470702 0,-12.94 -10.88929,-23.46875 -24.27929,-23.46875 z m 0,1.74023 c 12.43,0 22.53906,9.74852 22.53906,21.72852 0,11.98 -10.10906,21.730462 -22.53906,21.730462 -12.430016,0 -22.541026,-9.740462 -22.541026,-21.730462 0,-11.98 10.11101,-21.72852 22.541026,-21.72852 z m 189.83983,7.13672 c -3.8268,0.0779 -7.4344,1.50859 -10.1719,4.15234 -2.87,2.78 -4.459,6.54961 -4.459,10.59961 0,8.39 6.8897,15.450242 15.3497,15.740242 0.18,0.01 0.361,0.01 0.541,0.01 3.94,0 7.6086,-1.460152 10.3886,-4.160152 2.88,-2.78 4.4707,-6.54961 4.4707,-10.59961 0,-8.39 -6.8896,-15.45024 -15.3496,-15.74024 -0.2568,-0.007 -0.5144,-0.007 -0.7695,-0.002 z m 57.9531,1.63867 c -3.8101,0.0695 -7.284,1.49688 -9.9746,4.09375 -2.86,2.76 -4.4297,6.50125 -4.4297,10.53125 0,8.31 6.7794,15.298132 15.1094,15.578132 0.18,0.01 0.3513,0.0117 0.5313,0.0117 3.86,0 7.4687,-1.44156 10.2187,-4.101562 2.85,-2.76 4.4199,-6.49929 4.4199,-10.52929 0,-8.31 -6.7793,-15.30008 -15.1093,-15.58008 -0.2569,-0.008 -0.5117,-0.009 -0.7657,-0.004 z m -57.7148,0.084 c 0.16,0 0.3207,0.01 0.4707,0.01 7.54,0.26 13.6699,6.53977 13.6699,14.00977 0,3.57 -1.3994,6.89961 -3.9394,9.34961 -2.57,2.49 -5.95,3.79187 -9.67,3.67187 -7.54,-0.25 -13.6699,-6.53 -13.6699,-14 0,-3.58 1.3995,-6.91133 3.9395,-9.36133 2.46,-2.38 5.7092,-3.67968 9.1992,-3.67968 z m 57.9512,1.65039 c 0.16,0 0.3189,0.01 0.4589,0.01 7.41,0.25 13.4414,6.46961 13.4414,13.84961 0,3.55 -1.3903,6.85125 -3.9003,9.28125 -2.53,2.44 -5.8905,3.719612 -9.4805,3.599612 -7.41,-0.25 -13.4297,-6.469612 -13.4297,-13.849612 0,-3.55 1.3904,-6.85125 3.9004,-9.28125 2.42,-2.34 5.5998,-3.60937 9.0098,-3.60937 z m -170.06058,2 c -5.31,0 -9.62891,4.32843 -9.62891,9.64843 0,5.31 4.31891,9.63086 9.62891,9.63086 5.3,0 9.62086,-4.32086 9.63086,-9.63086 0,-5.32 -4.32086,-9.64843 -9.63086,-9.64843 z m 62.66015,0.01 c -5.31,0 -9.6289,4.33039 -9.6289,9.65039 0,5.31 4.3189,9.62891 9.6289,9.62891 5.31,0 9.63083,-4.31891 9.63083,-9.62891 0,-5.32 -4.32083,-9.65039 -9.63083,-9.65039 z m -62.66015,1.71875 c 4.35,0 7.89062,3.54992 7.89062,7.91992 0,4.35 -3.54062,7.89063 -7.89062,7.89063 -4.35,0 -7.88868,-3.54063 -7.88868,-7.89063 0,-4.37 3.53868,-7.91992 7.88868,-7.91992 z m 62.66015,0.0117 c 4.35,0 7.90063,3.54992 7.89063,7.91992 0,4.35 -3.54063,7.88867 -7.89063,7.88867 -4.35,0 -7.89062,-3.53867 -7.89062,-7.88867 0,-4.37 3.54062,-7.91992 7.89062,-7.91992 z m 78.01753,21.77148 c -3.8493,0.0576 -7.4402,1.524222 -10.1777,4.167972 -2.88,2.78 -4.4707,6.54961 -4.4707,10.59961 0,8.39 6.8816,15.45024 15.3516,15.74024 0.18,0.01 0.359,0.01 0.539,0.01 3.94,0 7.6102,-1.45992 10.4102,-4.16992 2.87,-2.78 4.4609,-6.54961 4.4609,-10.59961 0,-8.39 -6.8818,-15.450232 -15.3418,-15.740232 -0.2587,-0.009 -0.5148,-0.0117 -0.7715,-0.008 z m -111.95698,0.008 c -4.09,0 -7.40039,3.310372 -7.40039,7.400392 0,4.09 3.31039,7.40039 7.40039,7.40039 h 8.7207 c 4.08,0 7.39844,-3.32039 7.39844,-7.40039 0,-4.09002 -3.30844,-7.400392 -7.39844,-7.400392 z m 112.18948,1.730472 c 0.16,0 0.3204,-2.4e-4 0.4804,0.01 7.54,0.26 13.67,6.53977 13.67,14.00977 0,3.57 -1.4014,6.89961 -3.9414,9.34961 -2.57,2.49 -6,3.77992 -9.67,3.66992 -7.54,-0.25 -13.6797,-6.53 -13.6797,-14 0,-3.58 1.4014,-6.90938 3.9414,-9.35938 2.46,-2.37998 5.7093,-3.67968 9.1993,-3.67968 z m -165.61917,17.65039 c -20.28,0 -36.76953,16.32867 -36.76953,36.38867 0,20.07 16.49953,36.39062 36.76953,36.39062 20.27,0 36.76953,-16.32062 36.76953,-36.39062 0,-20.07 -16.49953,-36.38867 -36.76953,-36.38867 z m 112.44917,0.54882 c -1.0643,0 -2.1154,0.0545 -3.1523,0.16016 -1.0369,0.10568 -2.0602,0.26262 -3.0645,0.46875 -1.0042,0.20613 -1.9906,0.46035 -2.957,0.76172 -0.9664,0.30137 -1.9126,0.6496 -2.8359,1.04102 -0.9233,0.39135 -1.8242,0.82655 -2.6992,1.30273 -0.875,0.47618 -1.7235,0.99308 -2.545,1.54883 -0.82146,0.55575 -1.61607,1.15114 -2.37886,1.78125 -0.7628,0.6301 -1.49449,1.2949 -2.19336,1.99414 -0.69888,0.69924 -1.3644,1.43216 -1.99414,2.19531 -0.62975,0.76315 -1.22389,1.55706 -1.7793,2.37891 -0.55541,0.82184 -1.07101,1.67155 -1.54687,2.54687 -0.47586,0.87532 -0.91163,1.77565 -1.30274,2.69922 -0.39111,0.92357 -0.73792,1.87129 -1.03906,2.83789 -0.30115,0.9666 -0.55575,1.95262 -0.76172,2.95703 -0.20597,1.00442 -0.36316,2.0255 -0.46875,3.0625 -0.10559,1.03701 -0.16016,2.08992 -0.16016,3.1543 0,1.06437 0.0546,2.11729 0.16016,3.1543 0.10559,1.037 0.26278,2.05808 0.46875,3.0625 0.20597,1.00441 0.46057,1.99043 0.76172,2.95703 0.30114,0.9666 0.64795,1.91432 1.03906,2.83789 0.39111,0.92357 0.82688,1.8239 1.30274,2.69922 0.47586,0.87531 0.99146,1.72503 1.54687,2.54687 0.55541,0.82185 1.14955,1.61576 1.7793,2.37891 0.62974,0.76315 1.29526,1.49607 1.99414,2.19531 0.69887,0.69924 1.43056,1.36404 2.19336,1.99414 0.76279,0.63011 1.5574,1.2255 2.37886,1.78125 0.8215,0.55575 1.67,1.07265 2.545,1.54883 0.875,0.47618 1.7759,0.91135 2.6992,1.30273 0.9233,0.39139 1.8695,0.73965 2.8359,1.04102 0.9664,0.30137 1.9528,0.55559 2.957,0.76172 1.0043,0.20613 2.0276,0.36307 3.0645,0.46875 1.0369,0.10567 2.088,0.16015 3.1523,0.16015 1.0644,0 2.1173,-0.0545 3.1543,-0.16015 1.0371,-0.10568 2.0581,-0.26262 3.0625,-0.46875 1.0045,-0.20613 1.9905,-0.46035 2.9571,-0.76172 0.9666,-0.30137 1.9143,-0.64963 2.8379,-1.04102 0.9235,-0.39138 1.8239,-0.82655 2.6992,-1.30273 0.8753,-0.47618 1.7251,-0.99308 2.5469,-1.54883 0.8217,-0.55575 1.6158,-1.15114 2.3789,-1.78125 0.763,-0.6301 1.4942,-1.2949 2.1933,-1.99414 0.6991,-0.69924 1.3662,-1.43216 1.9961,-2.19531 0.6299,-0.76315 1.2238,-1.55706 1.7793,-2.37891 0.5555,-0.82184 1.071,-1.67156 1.5469,-2.54687 0.4759,-0.87532 0.9117,-1.77565 1.3027,-2.69922 0.3911,-0.92357 0.7381,-1.87129 1.0391,-2.83789 0.3009,-0.9666 0.556,-1.95262 0.7617,-2.95703 0.2057,-1.00442 0.3617,-2.0255 0.4668,-3.0625 0.1051,-1.03701 0.1588,-2.08993 0.1582,-3.1543 0,-1.06438 -0.055,-2.11729 -0.1602,-3.1543 -0.1056,-1.037 -0.2627,-2.05808 -0.4687,-3.0625 -0.206,-1.00441 -0.4605,-1.99043 -0.7617,-2.95703 -0.3012,-0.9666 -0.6479,-1.91432 -1.0391,-2.83789 -0.3911,-0.92357 -0.8268,-1.8239 -1.3027,-2.69922 -0.4759,-0.87532 -0.9934,-1.72503 -1.5488,-2.54687 -0.5555,-0.82185 -1.1495,-1.61576 -1.7793,-2.37891 -0.6298,-0.76315 -1.2953,-1.49607 -1.9942,-2.19531 -0.6989,-0.69924 -1.4305,-1.36404 -2.1933,-1.99414 -0.7629,-0.63011 -1.5574,-1.2255 -2.3789,-1.78125 -0.8216,-0.55575 -1.6699,-1.07265 -2.545,-1.54883 -0.875,-0.47618 -1.7758,-0.91137 -2.6992,-1.30273 -0.9233,-0.39142 -1.8695,-0.73965 -2.8359,-1.04102 -0.9664,-0.30137 -1.9528,-0.55559 -2.9571,-0.76172 -1.0042,-0.20613 -2.0275,-0.36307 -3.0644,-0.46875 -1.0369,-0.10568 -2.088,-0.16016 -3.1524,-0.16016 z m -112.44917,0.32032 c 19.79,0 35.90039,15.92953 35.90039,35.51953 0,19.59 -16.10039,35.53125 -35.90039,35.53125 -19.8,0 -35.90039,-15.94125 -35.90039,-35.53125 0,-19.58 16.11039,-35.51953 35.90039,-35.51953 z m 112.44917,0.55078 c 1.035,0 2.0582,0.0536 3.0665,0.15625 1.0082,0.10269 2.002,0.25476 2.9785,0.45508 0.9764,0.20031 1.9354,0.44737 2.875,0.74023 0.9396,0.29287 1.8601,0.63138 2.7578,1.01172 0.8977,0.38034 1.7723,0.80288 2.623,1.26562 0.8507,0.46275 1.676,0.96579 2.4746,1.50586 0.7987,0.54008 1.571,1.11814 2.3125,1.73047 0.7416,0.61233 1.4534,1.25799 2.1328,1.9375 0.6795,0.67952 1.3273,1.39119 1.9395,2.13282 0.6122,0.7416 1.1886,1.51382 1.7285,2.3125 0.5399,0.79866 1.0433,1.62397 1.5059,2.4746 0.4626,0.85064 0.8854,1.72748 1.2656,2.625 0.3802,0.89753 0.717,1.81651 1.0098,2.75586 0.2927,0.93935 0.54,1.89891 0.7402,2.875 0.2002,0.9761 0.3544,1.96879 0.457,2.97657 0.1027,1.00777 0.1543,2.03007 0.1543,3.06445 0,1.03437 -0.053,2.05668 -0.1562,3.06445 -0.1027,1.00777 -0.2547,2.00046 -0.4551,2.97657 -0.2003,0.97608 -0.4473,1.93565 -0.7402,2.875 -0.2929,0.93933 -0.6314,1.85833 -1.0118,2.75585 -0.3803,0.89753 -0.8028,1.77437 -1.2656,2.625 -0.4628,0.85064 -0.9657,1.67595 -1.5058,2.47461 -0.5402,0.79867 -1.1181,1.57088 -1.7305,2.3125 -0.6124,0.74163 -1.2599,1.4533 -1.9395,2.13282 -0.6795,0.67951 -1.3911,1.32516 -2.1328,1.9375 -0.7417,0.61233 -1.5137,1.1904 -2.3125,1.73046 -0.7987,0.54008 -1.6239,1.04312 -2.4746,1.50586 -0.8507,0.46275 -1.7255,0.88529 -2.623,1.26563 -0.8976,0.38034 -1.8184,0.71885 -2.7578,1.01172 -0.9394,0.29286 -1.8989,0.53992 -2.875,0.74023 -0.9762,0.20032 -1.9688,0.35239 -2.9766,0.45508 -1.0078,0.10269 -2.0301,0.15625 -3.0645,0.15625 -1.0343,0 -2.0567,-0.0536 -3.0644,-0.15625 -1.0077,-0.10269 -2.0006,-0.25476 -2.9766,-0.45508 -0.9759,-0.20031 -1.9358,-0.44737 -2.875,-0.74023 -0.9391,-0.29287 -1.8585,-0.63138 -2.7558,-1.01172 -0.8973,-0.38034 -1.7708,-0.80288 -2.6211,-1.26563 -0.8504,-0.46274 -1.6763,-0.96577 -2.4746,-1.50586 -0.79841,-0.54007 -1.56924,-1.11813 -2.31057,-1.73046 -0.74133,-0.61234 -1.45361,-1.25799 -2.13282,-1.9375 -0.67921,-0.67952 -1.32547,-1.39119 -1.9375,-2.13282 -0.61203,-0.74162 -1.19068,-1.51383 -1.73047,-2.3125 -0.53979,-0.79866 -1.04142,-1.62397 -1.5039,-2.47461 -0.46249,-0.85063 -0.88552,-1.72747 -1.26563,-2.625 -0.38011,-0.89752 -0.71708,-1.81651 -1.00976,-2.75585 -0.29267,-0.93935 -0.54006,-1.89892 -0.74024,-2.875 -0.20018,-0.97611 -0.35441,-1.9688 -0.45703,-2.97657 -0.10262,-1.00777 -0.15429,-2.03008 -0.1543,-3.06445 0,-1.03438 0.0517,-2.05668 0.1543,-3.06445 0.10262,-1.00778 0.25685,-2.00047 0.45703,-2.97657 0.20018,-0.97609 0.44757,-1.93565 0.74024,-2.875 0.29268,-0.93935 0.62965,-1.85833 1.00976,-2.75586 0.38011,-0.89752 0.80314,-1.77436 1.26563,-2.625 0.46248,-0.85063 0.96411,-1.67594 1.5039,-2.4746 0.53979,-0.79867 1.11844,-1.5709 1.73047,-2.3125 0.61203,-0.74166 1.25829,-1.4533 1.9375,-2.13282 0.67921,-0.67951 1.39149,-1.32517 2.13282,-1.9375 0.74133,-0.61233 1.51216,-1.19039 2.31057,-1.73047 0.7983,-0.54007 1.6242,-1.04311 2.4746,-1.50586 0.8503,-0.46274 1.7238,-0.88528 2.6211,-1.26562 0.8973,-0.38034 1.8167,-0.71885 2.7558,-1.01172 0.9392,-0.29286 1.8991,-0.53992 2.875,-0.74023 0.976,-0.20032 1.9689,-0.35239 2.9766,-0.45508 1.0077,-0.1027 2.0301,-0.15625 3.0644,-0.15625 z m -112.9394,0.59961 c -8.08,0 -12,1.88929 -12,5.77929 v 16.1211 h -16.58008 c -4.78,0 -5.33008,7.37969 -5.33008,12.92969 0,8.08 1.88927,12 5.7793,12 h 16.12109 v 16.11914 c 0,3.89 3.93,5.78125 12,5.78125 5.55,0 12.92969,-0.55055 12.92969,-5.31055 v -16.58008 h 16.14062 c 3.89,0 5.7793,-3.93 5.7793,-12 0,-5.55 -0.56008,-12.92969 -5.33008,-12.92969 H 171.8439 v -16.58007 c 0,-4.78 -7.37968,-5.33008 -12.92968,-5.33008 z m -0.01,1.74023 c 7.43,0 11.19922,1.20985 11.19922,3.58985 v 18.31054 h 18.31055 c 2.38,0 3.58984,3.76922 3.58984,11.19922 0,6.81 -1.35906,10.25977 -4.03906,10.25977 h -17.86133 v 18.31054 c 0,2.38 -3.76922,3.58985 -11.19922,3.58985 -6.81,0 -10.25976,-1.36102 -10.25976,-4.04102 v -17.85937 h -17.86133 c -2.68001,0 -4.03906,-3.44977 -4.03906,-10.25977 0,-7.43 1.20984,-11.19922 3.58984,-11.19922 h 18.31055 v -17.86133 c 0,-2.68 3.44976,-4.03906 10.25976,-4.03906 z m 112.94917,3.5 c -0.8331,0 -1.657,0.0423 -2.4687,0.125 -0.8117,0.0827 -1.6103,0.20584 -2.3965,0.36719 -0.7862,0.16135 -1.5598,0.36176 -2.3164,0.59766 -0.7566,0.2359 -1.4978,0.50809 -2.2207,0.81445 -0.7229,0.30636 -1.4281,0.6468 -2.1133,1.01953 -0.6851,0.37273 -1.3489,0.77787 -1.9922,1.21289 -0.6433,0.43502 -1.2659,0.89936 -1.8632,1.39258 -0.5974,0.49322 -1.1695,1.01516 -1.7168,1.5625 -0.54738,0.54733 -1.06932,1.11943 -1.56254,1.7168 -0.49322,0.59736 -0.95756,1.21998 -1.39258,1.86328 -0.43502,0.6433 -0.84016,1.30703 -1.21289,1.99218 -0.37274,0.68516 -0.71317,1.39036 -1.01953,2.11329 -0.30636,0.72292 -0.57855,1.4641 -0.81445,2.2207 -0.2359,0.7566 -0.43631,1.53024 -0.59766,2.3164 -0.16136,0.78621 -0.28447,1.58479 -0.36719,2.39649 -0.0827,0.8117 -0.125,1.63562 -0.125,2.46875 0,0.83312 0.0423,1.65705 0.125,2.46875 0.0827,0.8117 0.20583,1.61029 0.36719,2.39648 0.16135,0.7862 0.36176,1.55981 0.59766,2.31641 0.2359,0.7566 0.50809,1.49778 0.81445,2.2207 0.30636,0.72293 0.64679,1.42813 1.01953,2.11328 0.37273,0.68516 0.77787,1.34889 1.21289,1.99219 0.43502,0.6433 0.89936,1.26592 1.39258,1.86328 0.49322,0.59736 1.01516,1.16947 1.56254,1.7168 0.5473,0.54733 1.1194,1.06928 1.7168,1.5625 0.5973,0.49322 1.2199,0.95756 1.8632,1.39258 0.6433,0.43502 1.3071,0.84016 1.9922,1.21289 0.6852,0.37273 1.3904,0.71317 2.1133,1.01953 0.7229,0.30636 1.4641,0.57855 2.2207,0.81445 0.7566,0.2359 1.5302,0.43631 2.3164,0.59766 0.7862,0.16135 1.5848,0.28447 2.3965,0.36719 0.8117,0.0827 1.6356,0.125 2.4687,0.125 0.8332,0 1.6571,-0.0423 2.4688,-0.125 0.8117,-0.0827 1.6103,-0.20584 2.3965,-0.36719 0.7862,-0.16135 1.5598,-0.36176 2.3164,-0.59766 0.7566,-0.2359 1.4978,-0.50809 2.2207,-0.81445 0.7229,-0.30636 1.4281,-0.6468 2.1133,-1.01953 0.6851,-0.37273 1.3489,-0.77787 1.9922,-1.21289 0.6433,-0.43502 1.2659,-0.89936 1.8632,-1.39258 0.5974,-0.49322 1.1695,-1.01517 1.7168,-1.5625 0.5474,-0.54733 1.0693,-1.11944 1.5625,-1.7168 0.4933,-0.59736 0.9576,-1.21998 1.3926,-1.86328 0.435,-0.6433 0.8402,-1.30703 1.2129,-1.99219 0.3727,-0.68515 0.7132,-1.39035 1.0195,-2.11328 0.3064,-0.72292 0.5786,-1.4641 0.8145,-2.2207 0.2359,-0.7566 0.4363,-1.53021 0.5976,-2.31641 0.1614,-0.78619 0.2845,-1.58478 0.3672,-2.39648 0.083,-0.8117 0.125,-1.63563 0.125,-2.46875 0,-0.83313 -0.042,-1.65705 -0.125,-2.46875 -0.083,-0.8117 -0.2058,-1.61029 -0.3672,-2.39649 -0.1613,-0.78619 -0.3617,-1.5598 -0.5976,-2.3164 -0.2359,-0.7566 -0.5081,-1.49778 -0.8145,-2.2207 -0.3063,-0.72293 -0.6468,-1.42813 -1.0195,-2.11329 -0.3727,-0.68515 -0.7779,-1.34888 -1.2129,-1.99218 -0.435,-0.6433 -0.8993,-1.26592 -1.3926,-1.86328 -0.4932,-0.59737 -1.0151,-1.16947 -1.5625,-1.7168 -0.5473,-0.54734 -1.1194,-1.06928 -1.7168,-1.5625 -0.5973,-0.49322 -1.2199,-0.95756 -1.8632,-1.39258 -0.6433,-0.43502 -1.3071,-0.84016 -1.9922,-1.21289 -0.6852,-0.37273 -1.3904,-0.71317 -2.1133,-1.01953 -0.7229,-0.30636 -1.4641,-0.57855 -2.2207,-0.81445 -0.7566,-0.2359 -1.5302,-0.43631 -2.3164,-0.59766 -0.7862,-0.16135 -1.5848,-0.28447 -2.3965,-0.36719 -0.8117,-0.0827 -1.6356,-0.125 -2.4688,-0.125 z m 0,1.74024 c 0.7738,0 1.5393,0.0385 2.293,0.11523 0.7538,0.0768 1.4966,0.19205 2.2266,0.3418 0.7299,0.14975 1.446,0.33578 2.1484,0.55468 0.7024,0.21896 1.3895,0.47154 2.0606,0.75586 0.671,0.28433 1.3269,0.5994 1.9629,0.94532 0.6359,0.34592 1.2526,0.72127 1.8496,1.125 0.597,0.40372 1.1741,0.83523 1.7285,1.29297 0.5543,0.45773 1.0859,0.94126 1.5937,1.44921 0.5079,0.50796 0.9916,1.04133 1.4492,1.59571 0.4576,0.55437 0.8894,1.13151 1.293,1.72851 0.4036,0.59701 0.7792,1.21377 1.125,1.84961 0.3458,0.63584 0.6612,1.29005 0.9453,1.96094 0.2842,0.67089 0.5371,1.35841 0.7559,2.06055 0.2188,0.70213 0.4031,1.41884 0.5527,2.14843 0.1497,0.7296 0.2651,1.47136 0.3418,2.22461 0.077,0.75326 0.1153,1.51789 0.1153,2.29102 0,0.77312 -0.039,1.53775 -0.1153,2.29102 -0.077,0.75325 -0.192,1.49501 -0.3418,2.2246 -0.1497,0.7296 -0.3357,1.44631 -0.5547,2.14844 -0.2189,0.70214 -0.4715,1.38966 -0.7558,2.06055 -0.2844,0.67088 -0.5994,1.32509 -0.9453,1.96094 -0.346,0.63584 -0.7232,1.2526 -1.127,1.84961 -0.4038,0.597 -0.8352,1.17414 -1.293,1.72851 -0.4578,0.55438 -0.9412,1.08775 -1.4492,1.5957 -0.508,0.50796 -1.0393,0.99149 -1.5937,1.44922 -0.5545,0.45774 -1.1315,0.88925 -1.7285,1.29297 -0.5971,0.40373 -1.2157,0.77908 -1.8516,1.125 -0.6359,0.34592 -1.29,0.66099 -1.9609,0.94531 -0.671,0.28433 -1.3584,0.53693 -2.0606,0.75586 -0.7022,0.21894 -1.4188,0.40494 -2.1484,0.55469 -0.7296,0.14975 -1.4714,0.26503 -2.2246,0.3418 -0.7533,0.0768 -1.5179,0.11523 -2.2911,0.11523 -0.7731,0 -1.5377,-0.0385 -2.291,-0.11523 -0.7532,-0.0767 -1.495,-0.19218 -2.2246,-0.3418 -0.7296,-0.14962 -1.4463,-0.33397 -2.1484,-0.55273 -0.7021,-0.21877 -1.3897,-0.47173 -2.0606,-0.75586 -0.6709,-0.28413 -1.3251,-0.59961 -1.9609,-0.94531 -0.6358,-0.34573 -1.2526,-0.72149 -1.8496,-1.125 -0.597,-0.40352 -1.1742,-0.83543 -1.7285,-1.29297 -0.5544,-0.45755 -1.0878,-0.94143 -1.5957,-1.44922 -0.508,-0.5078 -0.9915,-1.03949 -1.4492,-1.59375 -0.45777,-0.55427 -0.88928,-1.12962 -1.29301,-1.72656 -0.40372,-0.59696 -0.77907,-1.2157 -1.125,-1.85157 -0.34592,-0.63587 -0.66098,-1.28993 -0.94531,-1.96093 -0.28432,-0.67101 -0.53692,-1.35819 -0.75586,-2.06055 -0.21893,-0.70236 -0.40495,-1.41851 -0.55469,-2.14844 -0.14975,-0.72993 -0.26503,-1.47283 -0.3418,-2.22656 -0.0768,-0.75373 -0.11523,-1.51922 -0.11523,-2.29297 0,-0.77313 0.0385,-1.53776 0.11523,-2.29102 0.0768,-0.75325 0.19205,-1.49501 0.3418,-2.22461 0.14974,-0.72959 0.33576,-1.4463 0.55469,-2.14843 0.21894,-0.70214 0.47154,-1.38966 0.75586,-2.06055 0.28433,-0.67089 0.59939,-1.3251 0.94531,-1.96094 0.34593,-0.63584 0.72128,-1.2526 1.125,-1.84961 0.40373,-0.597 0.83524,-1.17414 1.29301,-1.72851 0.4577,-0.55438 0.9412,-1.08775 1.4492,-1.59571 0.5079,-0.50795 1.0413,-0.99148 1.5957,-1.44921 0.5543,-0.45774 1.1315,-0.88925 1.7285,-1.29297 0.597,-0.40373 1.2138,-0.77908 1.8496,-1.125 0.6358,-0.34592 1.29,-0.66099 1.9609,-0.94532 0.6709,-0.28432 1.3585,-0.53691 2.0606,-0.75586 0.7021,-0.21893 1.4188,-0.40493 2.1484,-0.55468 0.7296,-0.14975 1.4714,-0.26503 2.2246,-0.3418 0.7533,-0.0768 1.5179,-0.11523 2.291,-0.11523 z m -122.66987,86.83984 h 121.08987 c 13.97,0 29.8003,-4.7e-4 39.3203,6.51953 9.53,6.52 37.3697,35.17992 50.7597,49.41992 10.9977,11.69259 19.2222,24.10181 21.3575,27.41602 -1.2876,-0.38218 -10.8849,-3.82114 -30.1075,-28.19531 -6.12,-7.75 -10.5793,-13.52032 -14.1093,-18.07032 -7.78,-10.05 -11.0107,-14.21023 -17.2207,-20.74023 -9.07,-9.54 -16.8596,-14.73938 -32.0196,-14.85938 -11.93,-0.09 -93.73988,-0.0317 -128.66988,-0.0117 l -17.11133,0.0117 c -11.34,0 -22.32875,4.93993 -30.96875,13.91993 -9.65001,10.03 -25.539696,30.98929 -31.929696,39.52929 -8.76,11.71 -12.11133,14.89016 -16.36133,18.91016 -4.46716,4.2351 -11.92559,9.15964 -14.52734,9.66797 1.0453,-1.70555 5.24036,-8.48175 10.84766,-14.79883 6.37,-7.19 25.30109,-27.46953 32.37109,-34.76953 1.39,-1.43 2.94891,-3.10063 4.62891,-4.89063 7.109996,-7.57 15.950006,-16.99882 23.000006,-21.29882 8.45,-5.15 18.42039,-7.75977 29.65039,-7.75977 z" />
</svg>
