<?xml version="1.0" encoding="UTF-8" standalone="no"?>
<svg
   height="576.60199"
   viewBox="0 0 495.59 91.536"
   width="3121.8301"
   version="1.1"
   id="svg37"
   sodipodi:docname="system_color.svg"
   inkscape:version="1.1.2 (0a00cf5339, 2022-02-04)"
   xmlns:inkscape="http://www.inkscape.org/namespaces/inkscape"
   xmlns:sodipodi="http://sodipodi.sourceforge.net/DTD/sodipodi-0.dtd"
   xmlns:xlink="http://www.w3.org/1999/xlink"
   xmlns="http://www.w3.org/2000/svg"
   xmlns:svg="http://www.w3.org/2000/svg">
  <defs
     id="defs41" />
  <sodipodi:namedview
     id="namedview39"
     pagecolor="#939894"
     bordercolor="#666666"
     borderopacity="1.0"
     inkscape:pageshadow="2"
     inkscape:pageopacity="0"
     inkscape:pagecheckerboard="0"
     showgrid="false"
     inkscape:zoom="0.67362269"
     inkscape:cx="103.17348"
     inkscape:cy="322.13879"
     inkscape:window-width="1920"
     inkscape:window-height="995"
     inkscape:window-x="0"
     inkscape:window-y="0"
     inkscape:window-maximized="1"
     inkscape:current-layer="svg37" />
  <linearGradient
     id="a">
    <stop
       offset="0"
       stop-color="#f36917"
       id="stop2" />
    <stop
       offset=".5"
       stop-color="#c24a13"
       id="stop4" />
    <stop
       offset="1"
       stop-color="#682c19"
       id="stop6" />
  </linearGradient>
  <linearGradient
     id="c"
     gradientTransform="matrix(0,-177.22168,177.22168,0,220.334,-349.89)"
     gradientUnits="userSpaceOnUse"
     spreadMethod="pad"
     x1="0"
     x2="1"
     xlink:href="#a"
     y1="0"
     y2="0" />
  <linearGradient
     id="b">
    <stop
       offset="0"
       stop-color="#f0f9e8"
       id="stop10" />
    <stop
       offset=".511"
       stop-color="#599b77"
       id="stop12" />
    <stop
       offset="1"
       stop-color="#458055"
       id="stop14" />
  </linearGradient>
  <linearGradient
     id="d"
     gradientTransform="matrix(-0.1483316,106.23462,-106.23462,-0.1483316,270.95731,-507.15212)"
     gradientUnits="userSpaceOnUse"
     spreadMethod="pad"
     x1="0"
     x2="1"
     xlink:href="#b"
     y1="0"
     y2="0" />
  <linearGradient
     id="e"
     gradientTransform="matrix(0,-91.23962,91.23962,0,305.833,-398.549)"
     gradientUnits="userSpaceOnUse"
     spreadMethod="pad"
     x1="0"
     x2="1"
     xlink:href="#a"
     y1="0"
     y2="0" />
  <linearGradient
     id="f"
     gradientTransform="matrix(0,104.76566,-104.76566,0,336.416,-506.85)"
     gradientUnits="userSpaceOnUse"
     spreadMethod="pad"
     x1="0"
     x2="1"
     xlink:href="#b"
     y1="0"
     y2="0" />
  <linearGradient
     id="g"
     gradientTransform="matrix(0,-77.85007,77.85007,0,373.666,-412.034)"
     gradientUnits="userSpaceOnUse"
     spreadMethod="pad"
     x1="0"
     x2="1"
     xlink:href="#a"
     y1="0"
     y2="0" />
  <g
     id="g1173"
     transform="matrix(1.0819237,0,0,1.0725391,368.4436,122.10244)"
     style="stroke:none">
    <path
       class="st0"
       d="m -261.96329,-97.555863 -1.53988,6.508781 c 0.17462,0.762003 0.42863,1.508132 0.71438,2.238385 0.127,0.317502 0.254,0.619128 0.381,0.920755 l 1.85738,-7.874038 h 17.65309 l -10.0648,42.561077 h -16.06558 c -0.127,0.0635 -0.23812,0.127 -0.36512,0.1905 -0.42863,0.206376 -0.88901,0.412752 -1.36526,0.492128 -0.381,0.0635 -0.80963,0.01588 -1.07951,-0.269877 -0.15875,-0.15875 -0.23812,-0.365126 -0.30162,-0.587377 -0.0476,-0.190501 -0.0953,-0.381002 -0.11113,-0.571503 l -0.60325,2.540012 h 21.3361 l 10.90618,-46.148843 z"
       style="fill:#ffffff;stroke:none;stroke-width:0.158751"
       id="path2" />
    <path
       class="st0"
       d="m -320.36769,-113.84369 -20.17722,85.344403 h 21.3361 l 10.58868,-44.767711 c -0.11113,-0.238126 -0.22226,-0.460377 -0.31751,-0.698504 -0.20637,-0.460377 -0.39687,-0.920754 -0.53975,-1.397006 -0.0952,-0.333377 -0.17462,-0.682628 -0.23812,-1.016005 l -10.90618,46.085343 h -17.65308 l 19.33584,-81.75664 h 16.8752 c 0.11113,-0.15875 0.23813,-0.3175 0.39688,-0.4445 0.23812,-0.1905 0.52388,-0.30163 0.8255,-0.3175 0.39688,-0.0159 0.76201,0.11113 1.06363,0.36513 0.127,0.0953 0.23813,0.22225 0.34925,0.33337 l 0.39688,-1.73038 z"
       style="fill:#ffffff;stroke:none;stroke-width:0.158751"
       id="path4" />
    <path
       class="st0"
       d="m -269.51982,-104.46152 c 0.39687,-0.30163 0.92075,-0.4445 1.41288,-0.39688 0.47625,0.0476 0.92075,0.20638 1.23825,0.58738 0.22225,0.254 0.381,0.55563 0.57151,0.8255 l 0.53975,-2.25426 h -21.35198 l -5.01652,21.240854 c 0.127,0.206376 0.23812,0.428627 0.3175,0.650878 0.30163,0.777879 0.41275,1.619258 0.5715,2.444761 0.0317,0.158751 0.0635,0.333377 0.0952,0.492128 l 5.44515,-23.050611 h 15.63695 c 0.15875,-0.1905 0.33338,-0.381 0.53976,-0.53975 z"
       style="fill:#ffffff;stroke:none;stroke-width:0.158751"
       id="path6" />
    <path
       class="st0"
       d="m -276.01273,-64.297581 c -0.22225,-0.984255 -0.3175,-2.000259 -0.4445,-3.000389 -0.0318,-0.206376 -0.0476,-0.396877 -0.0794,-0.603253 l -5.2229,22.082229 c 0.0635,0.142876 0.11113,0.269877 0.17463,0.412752 0.26987,0.698504 0.52388,1.412882 0.74613,2.12726 h 0.3175 l 4.76252,-20.14547 c -0.11112,-0.285751 -0.1905,-0.571502 -0.254,-0.873129 z"
       style="fill:#ffffff;stroke:none;stroke-width:0.158751"
       id="path8" />
    <path
       class="st0"
       d="m -281.83888,-45.549117 -0.11113,0.492127 h -14.74794 c -0.95251,0.666753 -2.12726,1.111255 -3.25439,0.698503 -0.47626,-0.174626 -0.79376,-0.539752 -1.07951,-0.936629 -0.0794,-0.127001 -0.17462,-0.254001 -0.254,-0.365127 l -0.5715,2.413012 h 20.84397 c -0.254,-0.793754 -0.52388,-1.555758 -0.8255,-2.301886 z"
       style="fill:#ffffff;stroke:none;stroke-width:0.158751"
       id="path10" />
    <path
       class="st0"
       d="m -300.41272,-112.04981 17.55783,66.99282 h -17.62133 l -17.55783,-66.99282 h 17.62133 m 1.38113,-1.79388 h -21.3361 l 18.49446,70.564708 h 21.3361 z"
       style="fill:#ffffff;stroke:none;stroke-width:0.158751"
       id="path12" />
    <path
       class="st0"
       d="m -267.15444,-103.90589 13.28744,50.704987 h -17.62133 l -13.28744,-50.704987 h 17.62133 m 1.38113,-1.79389 h -21.3361 l 14.22407,54.29276 h 21.3361 z"
       style="fill:#ffffff;stroke:none;stroke-width:0.158751"
       id="path14" />
  </g>
  <g
     fill="#242021"
     stroke-width="0.296"
     id="g35"
     style="fill:#ffffff">
    <path
       d="m 163.892,59.212 c -1.38,-1.984 -1.568,-3.024 5.571,-27.606 -12.016,0.099 -13.108,0 -13.108,0 l 2.383,-6.467 h 34.956 l -1.986,6.467 h -10.725 c 0,0 0.01,0.047 -7.945,28.822 -6.96,-0.025 -8.022,0.398 -9.146,-1.216 z m 44.102,-28.002 -6.355,23.435 h 6.355 l 6.356,-23.436 z m 18.066,-4.572 c 1.186,1.791 0.595,2.781 -8.135,33.79 -27.02,0.173 -26.425,-0.025 -27.815,-1.614 -1.575,-1.8 -0.596,-2.988 7.954,-33.675 27.458,0.004 26.813,-0.286 27.996,1.499 z m -0.587,33.79 c -0.687,-0.568 0.894,-2.443 9.534,-35.289 43.844,-0.145 41.46,-0.584 42.95,1.65 0.852,1.278 0.736,2.033 -7.597,33.639 -14.3,-0.122 -12.215,0 -12.215,0 l 7.15,-30.41 h -4.071 l -7.945,30.41 h -12.314 l 8.342,-30.41 h -3.973 l -8.341,30.41 z m 50.994,-1.314 c -0.446,-1.639 0,-1.349 8.591,-33.975 12.413,-0.294 11.916,0 11.916,0 0,0 -0.406,2.095 -9.93,35.289 -8.491,-0.122 -10.155,0.234 -10.577,-1.314 z m 17.33,1.314 1.887,-6.64 h 18.918 c 0,0 0.248,-1.327 2.631,-10.265 -17.08,-0.05 -17.537,0.797 -18.868,-1.39 -0.605,-0.997 0.19,-1.799 4.17,-16.994 26.606,0.1 31.382,0 31.382,0 l -1.589,5.672 -17.875,0.15 c 0,0 -0.209,-0.35 -2.384,6.604 17.876,-0.05 17.125,0.093 18.025,0.992 1.34,1.34 0.894,2.086 -4.52,21.87 -33.566,0.177 -31.777,0 -31.777,0 z M 340.372,25.14 c -9.831,33.418 -9.592,33.006 -8.49,34.42 1.042,1.342 2.68,0.775 44.539,0.897 8.342,-32.298 9.334,-35.318 9.334,-35.318 H 373.442 L 364.9,56.036 h -4.37 l 8.54,-30.897 h -11.916 l -8.54,30.698 h -4.37 l 8.541,-30.698 h -12.414 z m 80.142,0 c 4.569,33.072 4.718,33.428 5.76,34.47 0.894,0.895 0.943,0.845 23.883,0.845 8.49,-33.517 0.447,-1.796 8.888,-35.316 H 446.73 l -7.3,30.351 h -2.63 l -3.576,-30.35 c 0,0 -3.029,-0.146 -12.711,0 z m 75.076,0 c 0,0 -1.34,0.003 -30.189,0 -8.69,33.966 -8.69,33.798 -7.945,34.719 0.745,0.921 1.788,0.596 30.19,0.569 0.645,-4.144 0.794,-6.23 0.794,-6.23 h -18.322 l 2.433,-10.278 16.038,-0.15 1.44,-6.205 h -15.89 l 1.788,-6.754 H 494.4 l 1.191,-5.672 z m -94.144,5.783 -3.53,13.37 h 8.238 l -1.073,-13.37 z m 18.67,29.534 h -12.314 l -1.093,-8.791 h -9.634 l -2.58,8.791 h -12.117 c 0,0 0.001,-1.054 9.733,-35.318 19.912,-0.147 20.657,-0.137 21.7,1.65 0.893,1.34 1.049,3.336 6.305,33.668 z m -281.637,-29.534 -3.531,13.37 h 8.238 l -1.073,-13.37 z m 18.669,29.534 h -12.314 l -1.093,-8.791 h -9.633 l -2.58,8.791 H 119.41 c 0,0 0.002,-1.054 9.733,-35.318 19.912,-0.147 20.657,-0.137 21.7,1.65 0.893,1.34 1.05,3.336 6.305,33.668 z"
       id="path33"
       style="fill:#ffffff" />
  </g>
</svg>
