<?xml version="1.0" encoding="UTF-8" standalone="no"?>
<svg
   height="624.87305"
   viewBox="0 0 526.79333 99.199067"
   width="3318.3867"
   version="1.1"
   id="svg37"
   sodipodi:docname="system.svg"
   inkscape:version="1.1.2 (0a00cf5339, 2022-02-04)"
   xmlns:inkscape="http://www.inkscape.org/namespaces/inkscape"
   xmlns:sodipodi="http://sodipodi.sourceforge.net/DTD/sodipodi-0.dtd"
   xmlns:xlink="http://www.w3.org/1999/xlink"
   xmlns="http://www.w3.org/2000/svg"
   xmlns:svg="http://www.w3.org/2000/svg">
  <defs
     id="defs41" />
  <sodipodi:namedview
     id="namedview39"
     pagecolor="#ffffff"
     bordercolor="#666666"
     borderopacity="1.0"
     inkscape:pageshadow="2"
     inkscape:pageopacity="0.0"
     inkscape:pagecheckerboard="0"
     showgrid="false"
     inkscape:zoom="0.33681134"
     inkscape:cx="2450.927"
     inkscape:cy="43.050807"
     inkscape:window-width="1920"
     inkscape:window-height="996"
     inkscape:window-x="0"
     inkscape:window-y="0"
     inkscape:window-maximized="1"
     inkscape:current-layer="svg37"
     fit-margin-top="0"
     fit-margin-left="0"
     fit-margin-right="0"
     fit-margin-bottom="0" />
  <linearGradient
     id="a">
    <stop
       offset="0"
       stop-color="#f36917"
       id="stop2" />
    <stop
       offset=".5"
       stop-color="#c24a13"
       id="stop4" />
    <stop
       offset="1"
       stop-color="#682c19"
       id="stop6" />
  </linearGradient>
  <linearGradient
     id="c"
     gradientTransform="matrix(0,-177.22168,177.22168,0,220.334,-349.89)"
     gradientUnits="userSpaceOnUse"
     spreadMethod="pad"
     x1="0"
     x2="1"
     xlink:href="#a"
     y1="0"
     y2="0" />
  <linearGradient
     id="b">
    <stop
       offset="0"
       stop-color="#f0f9e8"
       id="stop10" />
    <stop
       offset=".511"
       stop-color="#599b77"
       id="stop12" />
    <stop
       offset="1"
       stop-color="#458055"
       id="stop14" />
  </linearGradient>
  <linearGradient
     id="d"
     gradientTransform="matrix(-0.1483316,106.23462,-106.23462,-0.1483316,270.95731,-507.15212)"
     gradientUnits="userSpaceOnUse"
     spreadMethod="pad"
     x1="0"
     x2="1"
     xlink:href="#b"
     y1="0"
     y2="0" />
  <linearGradient
     id="e"
     gradientTransform="matrix(0,-91.23962,91.23962,0,305.833,-398.549)"
     gradientUnits="userSpaceOnUse"
     spreadMethod="pad"
     x1="0"
     x2="1"
     xlink:href="#a"
     y1="0"
     y2="0" />
  <linearGradient
     id="f"
     gradientTransform="matrix(0,104.76566,-104.76566,0,336.416,-506.85)"
     gradientUnits="userSpaceOnUse"
     spreadMethod="pad"
     x1="0"
     x2="1"
     xlink:href="#b"
     y1="0"
     y2="0" />
  <linearGradient
     id="g"
     gradientTransform="matrix(0,-77.85007,77.85007,0,373.666,-412.034)"
     gradientUnits="userSpaceOnUse"
     spreadMethod="pad"
     x1="0"
     x2="1"
     xlink:href="#a"
     y1="0"
     y2="0" />
  <path
     id="path2315"
     style="fill:#000000;stroke-width:0.35277"
     d="m 498.83431,25.126958 c -16.75901,0.0032 -33.51816,0.0067 -50.27717,0.0099 -1.5961,6.636778 -3.19287,13.273156 -4.78918,19.909885 -0.77254,-6.604845 -1.54702,-13.209397 -2.31833,-19.814387 -6.39411,-0.171626 -12.80033,-0.213719 -19.1893,0.02356 -1.12973,0.27804 -1.254,1.697226 -0.91623,2.617215 -1.50237,-1.792007 -3.88304,-2.645718 -6.18415,-2.557684 -5.63151,-0.391346 -11.28095,-0.142679 -16.92091,-0.184797 -1.39858,0.01 -2.79714,0.01904 -4.19572,0.02946 -0.21453,0.348517 -0.20731,1.702748 -0.59749,1.250162 -1.06941,-1.183985 -2.7608,-1.573245 -4.29401,-1.332637 -22.06817,0.119412 -44.13695,0.02502 -66.20527,0.07503 -5.88477,1.4e-5 -11.77179,-0.02563 -17.65514,0.02511 -0.48436,0.08147 -0.87725,0.44783 -1.08769,0.87902 -1.40799,-1.223022 -3.381,-1.123574 -5.12033,-1.03684 -4.05074,0.03784 -8.1017,0.07549 -12.15125,0.186965 -0.30323,1.116153 -0.59255,2.344839 -0.9063,3.390818 -1.08853,-1.959651 -3.24549,-3.233228 -5.48714,-3.244159 -5.12426,-0.533915 -10.2842,-0.242113 -15.4258,-0.310059 -8.8026,0.03891 -17.61198,-0.0016 -26.40936,0.227893 -1.85756,0.480292 -2.69141,2.486652 -2.94124,4.214956 l -0.61732,2.32235 c -0.11868,-2.831224 -2.10959,-5.710496 -5.02205,-6.175775 -3.1698,-0.64591 -6.42599,-0.348203 -9.6376,-0.476873 -6.0447,-0.01189 -12.09942,-0.104015 -18.13727,0.119372 -0.59833,0.108913 -1.1547,-0.302528 -1.78191,-0.128985 -13.21654,-0.01053 -26.43302,-0.01338 -39.64956,-0.0096 -0.52235,1.421205 -1.0485,2.841095 -1.57231,4.261775 -0.97428,-2.110325 -3.04203,-3.707787 -5.38698,-3.901486 -3.34295,-0.504671 -6.73896,-0.307795 -10.10827,-0.387575 -3.41359,-0.0062 -6.78332,0.0028 -10.17989,0.03287 -0.91906,0.105477 -2.09618,-0.06095 -2.66279,0.836232 -0.67516,1.03172 -0.67549,2.326421 -1.1218,3.453759 -3.24516,11.617593 -6.64966,23.193252 -9.53063,34.905631 -0.2366,2.375108 2.36572,4.318355 4.60346,3.757619 h 14.25594 c 0.85879,-2.930704 1.72019,-5.860425 2.58002,-8.790823 h 3.4181 c 0.35776,2.930374 0.71816,5.860257 1.07435,8.790823 h 20.21654 c -0.1299,-0.752116 -0.26176,-1.50372 -0.39254,-2.255688 1.28809,1.469294 3.24288,2.171939 5.16623,2.180653 2.90391,0.191122 5.82302,-0.02851 8.72446,0.02481 1.16053,-0.256098 1.16188,-1.644894 1.47899,-2.556446 2.41198,-8.747581 4.82391,-17.495284 7.23587,-26.242863 h 7.332 c -1.94652,6.980433 -4.13663,13.911492 -5.52651,21.029514 -0.29164,3.341501 2.20995,6.75232 5.58263,7.222849 3.0723,0.684695 6.25275,0.388309 9.35048,0.565239 6.73276,0.08039 13.46599,0.0092 20.19886,-0.0186 0.27984,-1.013992 0.55709,-2.028969 0.83592,-3.04324 0.54697,1.97711 2.64655,3.461871 4.70361,3.066494 9.87161,2e-6 19.74316,0 29.61477,0 0.28696,-0.244779 0.34499,-0.623043 0.7305,-0.279365 1.53967,0.645147 3.21878,0.09935 4.82299,0.248669 3.92357,0.01 7.84724,0.0218 11.77081,0.0307 0.2009,-0.690615 0.35225,-1.585271 0.58601,-2.152436 1.19493,1.445544 3.11969,2.02614 4.94204,1.977872 3.4514,0.255621 6.93645,0.06814 10.36841,0.192238 0.67964,-0.01294 1.02748,-0.661502 1.06476,-1.263185 0.10342,-0.763524 0.27089,-0.711779 0.64027,-0.123714 1.1511,1.265454 2.97188,1.635021 4.60872,1.403022 10.99445,0.03451 21.98862,-0.01872 32.98295,-0.05922 0.18658,-0.699291 0.37294,-1.398556 0.56059,-2.097557 1.41695,1.594418 3.69566,2.083159 5.70108,2.010431 6.07972,0.227868 12.16888,0.08803 18.25262,0.138286 8.77917,0.0074 17.55826,0.0044 26.33743,0.0016 0.21257,-0.267546 0.16013,-1.027853 0.36649,-1.047384 1.15484,1.108985 2.8643,1.274178 4.37494,1.047384 h 13.26251 c 0.85878,-2.930704 1.72019,-5.860426 2.58002,-8.790823 h 3.41995 c 0.35776,2.930374 0.71785,5.860257 1.07406,8.790823 h 20.22491 c 0.039,-0.307955 -0.44409,-1.421328 -0.0781,-1.222568 1.35659,0.90772 3.10223,1.10905 4.63198,1.039012 6.39448,0.261293 12.79919,0.146373 19.1983,0.171462 1.11403,-0.06722 2.30294,0.08815 3.35702,-0.31192 1.07202,-0.543334 1.75236,-1.624072 2.12701,-2.732559 0.82465,1.781642 2.72073,2.920577 4.67075,2.922936 2.81205,0.271305 5.64241,0.07258 8.46278,0.15286 7.27405,-0.02005 14.55162,-0.01414 21.82358,-0.05023 1.8292,-0.3362 2.77531,-2.351065 2.68171,-4.066436 0.45482,-3.257099 0.8009,-6.526479 1.10349,-9.800999 h -17.70907 c 0.21028,-0.88737 0.42069,-1.774495 0.63097,-2.661866 5.35352,-0.05772 10.70701,-0.112244 16.06049,-0.172082 1.0048,-4.304633 2.00887,-8.609325 3.01347,-12.914002 h 2.86744 c 0.92994,-4.440865 1.86053,-8.88163 2.79115,-13.322351 h -6.27746 c -1.1e-4,0 0,0 0,0 z m -160.37082,13.314598 -0.48647,1.644248 c -0.56133,-0.676002 -1.26782,-1.227492 -2.05074,-1.624714 0.84571,-0.0065 1.69152,-0.01302 2.53721,-0.01953 z m -176.97266,0.788793 c 0.52278,0.0085 1.0455,0.01697 1.56828,0.02543 2.06249,0.0082 4.12506,0.01191 6.18756,0.004 -1.66302,5.954928 -3.56648,11.863088 -4.62517,17.964879 -1.02843,-6.000702 -2.05539,-12.0018 -3.13067,-17.994336 z m 138.81822,9.24227 c 0.0814,0.10612 0.16264,0.212312 0.24402,0.318432 1.49067,1.823667 3.94773,2.683081 6.26073,2.420018 3.43761,0.08306 6.87589,0.0028 10.31353,-0.03535 -0.2259,0.870443 -0.45157,1.740885 -0.67747,2.611326 -5.88346,0 -11.76702,2e-6 -17.65048,0 0.50324,-1.771484 1.00642,-3.542944 1.50967,-5.314429 z" />
  <path
     id="path2313"
     style="fill:#000000;stroke-width:0.35277"
     d="m 23.949739,0 -0.0586,0.24401727 C 15.927997,33.147915 7.9619411,66.051215 -0.00147059,98.955048 10.1756,99.037838 20.352752,99.117526 30.529834,99.199065 c 2.707929,-11.001081 5.413912,-22.002458 8.121093,-33.003723 1.449288,5.770815 2.898027,11.541784 4.347661,17.312513 h 28.679626 c 0.918702,-3.677062 1.83718,-7.354236 2.755813,-11.031316 0.157338,0.616589 0.31699,1.232541 0.472842,1.849508 h 28.339801 c 4.87184,-18.769523 9.74906,-37.537624 14.62305,-56.306597 H 90.473125 C 89.692335,15.016077 88.907862,12.013692 88.12938,9.0097251 H 60.064914 C 59.161199,12.517368 58.253452,16.024061 57.348168,19.531303 55.688904,13.020992 54.03301,6.5097855 52.371704,0 Z M 498.83431,9.9219219 h 27.9606 z" />
  <g
     stroke-width="0.683"
     id="g31"
     transform="translate(4.8369484,3.7910157)">
    <path
       d="m 187.667,-350.224 42.833,-176.888 22.5,90.555 -21.333,86.667 z"
       fill="url(#c)"
       transform="matrix(0.5165,0,0,0.5165,-96.93,272.254)"
       id="path21"
       style="fill:url(#c)" />
    <path
       d="M 230.5,-527.112 H 274 l 37.334,146.89 h -44 z"
       fill="url(#d)"
       transform="matrix(0.5165,0,0,0.5165,-96.93,272.254)"
       id="path23"
       style="fill:url(#d)" />
    <path
       d="m 300.332,-509.667 22.002,85.446 -11,44 -22.001,-87 z"
       fill="url(#e)"
       transform="matrix(0.5165,0,0,0.5165,-96.93,272.254)"
       id="path25"
       style="fill:url(#e)" />
    <path
       d="m 300.332,-509.667 28.735,111.666 H 372.5 l -29.23,-111.666 z"
       fill="url(#f)"
       transform="matrix(0.5165,0,0,0.5165,-96.93,272.254)"
       id="path27"
       style="fill:url(#f)" />
    <path
       d="m 397,-492.223 -24.5,94.222 -22.166,-84.555 3.333,-9.667 z"
       fill="url(#g)"
       transform="matrix(0.5165,0,0,0.5165,-96.93,272.254)"
       id="path29"
       style="fill:url(#g)" />
  </g>
  <g
     fill="#242021"
     stroke-width="0.296"
     id="g35"
     style="fill:#ffffff"
     transform="translate(4.8369484,3.7910157)">
    <path
       d="m 163.892,59.212 c -1.38,-1.984 -1.568,-3.024 5.571,-27.606 -12.016,0.099 -13.108,0 -13.108,0 l 2.383,-6.467 h 34.956 l -1.986,6.467 h -10.725 c 0,0 0.01,0.047 -7.945,28.822 -6.96,-0.025 -8.022,0.398 -9.146,-1.216 z m 44.102,-28.002 -6.355,23.435 h 6.355 l 6.356,-23.436 z m 18.066,-4.572 c 1.186,1.791 0.595,2.781 -8.135,33.79 -27.02,0.173 -26.425,-0.025 -27.815,-1.614 -1.575,-1.8 -0.596,-2.988 7.954,-33.675 27.458,0.004 26.813,-0.286 27.996,1.499 z m -0.587,33.79 c -0.687,-0.568 0.894,-2.443 9.534,-35.289 43.844,-0.145 41.46,-0.584 42.95,1.65 0.852,1.278 0.736,2.033 -7.597,33.639 -14.3,-0.122 -12.215,0 -12.215,0 l 7.15,-30.41 h -4.071 l -7.945,30.41 h -12.314 l 8.342,-30.41 h -3.973 l -8.341,30.41 z m 50.994,-1.314 c -0.446,-1.639 0,-1.349 8.591,-33.975 12.413,-0.294 11.916,0 11.916,0 0,0 -0.406,2.095 -9.93,35.289 -8.491,-0.122 -10.155,0.234 -10.577,-1.314 z m 17.33,1.314 1.887,-6.64 h 18.918 c 0,0 0.248,-1.327 2.631,-10.265 -17.08,-0.05 -17.537,0.797 -18.868,-1.39 -0.605,-0.997 0.19,-1.799 4.17,-16.994 26.606,0.1 31.382,0 31.382,0 l -1.589,5.672 -17.875,0.15 c 0,0 -0.209,-0.35 -2.384,6.604 17.876,-0.05 17.125,0.093 18.025,0.992 1.34,1.34 0.894,2.086 -4.52,21.87 -33.566,0.177 -31.777,0 -31.777,0 z M 340.372,25.14 c -9.831,33.418 -9.592,33.006 -8.49,34.42 1.042,1.342 2.68,0.775 44.539,0.897 8.342,-32.298 9.334,-35.318 9.334,-35.318 H 373.442 L 364.9,56.036 h -4.37 l 8.54,-30.897 h -11.916 l -8.54,30.698 h -4.37 l 8.541,-30.698 h -12.414 z m 80.142,0 c 4.569,33.072 4.718,33.428 5.76,34.47 0.894,0.895 0.943,0.845 23.883,0.845 8.49,-33.517 0.447,-1.796 8.888,-35.316 H 446.73 l -7.3,30.351 h -2.63 l -3.576,-30.35 c 0,0 -3.029,-0.146 -12.711,0 z m 75.076,0 c 0,0 -1.34,0.003 -30.189,0 -8.69,33.966 -8.69,33.798 -7.945,34.719 0.745,0.921 1.788,0.596 30.19,0.569 0.645,-4.144 0.794,-6.23 0.794,-6.23 h -18.322 l 2.433,-10.278 16.038,-0.15 1.44,-6.205 h -15.89 l 1.788,-6.754 H 494.4 l 1.191,-5.672 z m -94.144,5.783 -3.53,13.37 h 8.238 l -1.073,-13.37 z m 18.67,29.534 h -12.314 l -1.093,-8.791 h -9.634 l -2.58,8.791 h -12.117 c 0,0 0.001,-1.054 9.733,-35.318 19.912,-0.147 20.657,-0.137 21.7,1.65 0.893,1.34 1.049,3.336 6.305,33.668 z m -281.637,-29.534 -3.531,13.37 h 8.238 l -1.073,-13.37 z m 18.669,29.534 h -12.314 l -1.093,-8.791 h -9.633 l -2.58,8.791 H 119.41 c 0,0 0.002,-1.054 9.733,-35.318 19.912,-0.147 20.657,-0.137 21.7,1.65 0.893,1.34 1.05,3.336 6.305,33.668 z"
       id="path33"
       style="fill:#ffffff" />
  </g>
</svg>
