<?xml version="1.0" encoding="UTF-8" standalone="no"?>
<!-- Generator: Adobe Illustrator 13.0.0, SVG Export Plug-In . SVG Version: 6.00 Build 14948)  -->

<svg
   version="1.2"
   id="Layer_3"
   x="0px"
   y="0px"
   width="591.35931"
   height="315.39658"
   viewBox="0 0 591.35929 315.39657"
   xml:space="preserve"
   sodipodi:docname="controller.svg"
   inkscape:version="1.1.2 (0a00cf5339, 2022-02-04)"
   xmlns:inkscape="http://www.inkscape.org/namespaces/inkscape"
   xmlns:sodipodi="http://sodipodi.sourceforge.net/DTD/sodipodi-0.dtd"
   xmlns="http://www.w3.org/2000/svg"
   xmlns:svg="http://www.w3.org/2000/svg"
   xmlns:rdf="http://www.w3.org/1999/02/22-rdf-syntax-ns#"
   xmlns:cc="http://creativecommons.org/ns#"
   xmlns:dc="http://purl.org/dc/elements/1.1/"
   xmlns:ns="&amp;ns_sfw;"><defs
   id="defs29" /><sodipodi:namedview
   id="namedview27"
   pagecolor="#ffffff"
   bordercolor="#666666"
   borderopacity="1.0"
   inkscape:pageshadow="2"
   inkscape:pageopacity="0.0"
   inkscape:pagecheckerboard="0"
   showgrid="false"
   fit-margin-top="0"
   fit-margin-left="0"
   fit-margin-right="0"
   fit-margin-bottom="0"
   inkscape:zoom="1.0263804"
   inkscape:cx="280.11058"
   inkscape:cy="208.98685"
   inkscape:window-width="1920"
   inkscape:window-height="996"
   inkscape:window-x="0"
   inkscape:window-y="0"
   inkscape:window-maximized="1"
   inkscape:current-layer="Layer_3" />
<metadata
   id="metadata55">
	<rdf:RDF>
		<cc:Work
   rdf:about="">
			<dc:format>image/svg+xml</dc:format>
			<dc:type
   rdf:resource="http://purl.org/dc/dcmitype/StillImage" />
			
		</cc:Work>
	</rdf:RDF>
	<ns:sfw>
		<ns:slices />
		<ns:sliceSourceBounds
   x="-7231"
   y="-7652"
   width="16383"
   height="16383"
   bottomLeftOrigin="true" />
	</ns:sfw>
</metadata>
<path
   id="path865"
   style="fill:#000000"
   d="m 298.959,0.00936612 c -8.3643,0.01028 -16.69374,-0.06509 -25.03675,0.233767 -0.74371,0.01721 -1.45092,0.03327 -2.08787,0.08453 -30.65685,1.19105198 -61.22182,5.71286098 -90.78235,13.97620188 -0.93555,0.297665 -1.78383,0.843685 -2.47779,1.533629 -2.74417,-0.470564 -5.31903,0.852197 -7.89987,1.546845 C 138.4931,27.473449 107.59827,42.379065 80.872982,63.085813 64.909623,75.442761 50.481629,89.85444 38.571576,106.17527 23.742289,126.3522 12.332182,149.13389 5.7264068,173.31561 c -5.06563389,18.65404 -7.1896242,38.28748 -4.6541213,57.51797 2.0473381,15.46116 7.341924,30.62359 16.2831165,43.46948 4.990823,7.24921 11.157276,13.6286 17.924797,19.23262 9.993846,8.42215 21.370975,15.50068 33.997622,19.16324 10.868947,3.16475 22.510261,3.49773 33.572979,1.14324 13.17499,-2.733 25.39947,-8.67532 37.10625,-15.13616 9.01788,-4.9679 17.82097,-10.33936 27.04478,-14.92603 6.36727,-3.08471 12.90279,-5.80485 19.41668,-8.56116 15.64599,-6.51628 31.76645,-12.23588 48.17721,-16.27194 10.30675,-2.52648 20.79138,-4.39567 31.37696,-5.22657 0.72725,-0.0445 1.7976,-0.12865 2.53392,-0.17276 7.3226,-0.44244 14.66224,-0.2059 21.99303,-0.26857 9.29931,0.0174 18.59989,-0.0498 27.89834,0.0676 5.86603,0.16988 11.91809,0.73126 17.80345,1.57425 3.10509,0.44077 6.17964,0.96379 9.30251,1.55727 0.99929,0.19484 2.12425,0.41545 3.15675,0.63538 3.87816,0.79844 7.90296,1.75165 11.74181,2.75807 14.10725,3.68281 27.8802,8.54892 41.37683,14.04405 1.66573,0.68993 3.55304,1.45784 5.22852,2.17015 5.11316,2.17515 10.26174,4.36198 15.24687,6.68362 5.27417,2.4739 10.3355,5.32313 15.3797,8.16201 12.99454,7.34431 25.90001,15.13741 40.10335,19.96078 10.11516,3.45697 20.91879,5.24081 31.60599,4.21723 11.5667,-1.0541 22.69558,-5.24914 32.55503,-11.30274 8.43082,-5.14826 16.1231,-11.46215 23.06682,-18.47504 11.14511,-11.51358 18.91571,-26.1145 22.8205,-41.62076 4.7782,-18.664 4.44756,-38.35202 0.88109,-57.19463 -4.45497,-23.47094 -13.78378,-45.87562 -26.3003,-66.16977 C 550.72613,101.5157 536.12236,84.524125 519.23537,70.207227 493.39029,48.128991 462.90523,31.89234 430.88456,20.746551 398.51365,9.4580071 364.51588,3.1318601 330.34162,0.87816512 c -10.44575,-0.677608 -20.91545,-0.932146 -31.38262,-0.868799 z m 3.17578,9.91015598 c 5.41336,0.01452 10.90327,0.07021 16.24036,0.2869959 13.58424,0.505493 27.14104,1.714649 40.6034,3.59777 6.00613,0.84803 12.13051,1.853259 18.14239,2.993962 4.39376,0.83305 8.91732,1.7829 13.258,2.759944 3.57256,0.819122 7.13452,1.683962 10.68359,2.599609 -2.42332,2.649832 -5.03512,5.117274 -7.52344,7.703125 -1.04832,1.070054 -2.45268,1.762259 -3.96158,1.814816 -3.79176,0.287373 -7.41331,-1.134879 -11.11647,-1.690936 -12.88603,-2.384761 -25.8877,-4.080244 -38.90024,-5.597638 -9.86676,-1.1193 -19.75991,-2.129024 -29.68884,-2.459857 -6.97055,-0.129373 -13.94281,-0.0058 -20.91412,-0.05686 -5.97247,-0.04959 -11.94691,0.120635 -17.898,0.639244 -15.16443,1.195695 -30.26828,3.08793 -45.312,5.324466 -6.55291,0.954933 -13.07685,2.110908 -19.54273,3.544345 -2.33777,0.396587 -4.96423,0.719895 -7.10678,-0.528387 -1.89497,-1.275312 -3.19075,-3.221427 -4.92002,-4.692133 -1.33695,-1.314581 -2.62379,-2.679273 -3.89117,-4.06073 6.3046,-1.628516 12.76764,-3.114645 19.07617,-4.396484 17.5858,-3.550751 35.4179,-5.863893 53.32227,-6.988281 4.08911,-0.250506 8.42561,-0.46395 12.52886,-0.58616 8.97038,-0.2970109 17.94683,-0.1759029 26.92035,-0.2068089 z M 417.39064,26.794522 c 27.27876,8.538734 53.60454,20.561209 77.12606,36.890415 9.96357,6.907043 19.50538,14.655142 28.25771,23.129853 1.88477,1.82602 3.71338,3.66586 5.48884,5.51826 2.60786,2.71858 5.12695,5.52159 7.57661,8.38335 0.78329,0.93072 1.73224,2.05366 2.55666,3.07716 10.92511,13.36575 20.16449,28.11423 27.36522,43.80565 5.02732,10.97314 9.12127,22.60607 11.85626,34.44578 0.19403,0.83679 0.41397,1.79661 0.58524,2.64382 1.16628,5.47258 2.05611,11.04126 2.60212,16.55323 1.73357,17.39244 0.18552,35.56284 -6.53158,51.8977 -4.61846,11.25316 -11.74711,21.49312 -20.86538,29.56283 -8.85224,8.0452 -18.83864,15.11775 -30.1351,19.26243 -8.87434,3.24504 -18.53508,4.34412 -27.90064,3.02955 -12.16632,-1.63973 -23.55311,-6.66262 -34.32231,-12.35001 -13.41162,-7.09329 -26.18982,-15.42989 -40.19284,-21.36672 -18.91894,-8.37379 -38.27763,-15.91426 -58.33407,-21.10305 -16.05178,-4.16799 -32.57333,-6.86993 -49.19172,-6.80091 -13.21606,0.0294 -26.43258,-0.0457 -39.64846,0.0446 -19.64876,0.485 -39.02606,4.66652 -57.75161,10.4447 -15.64093,4.84055 -30.84664,10.97339 -45.81054,17.59345 -16.48879,7.03995 -31.35339,17.44809 -47.57947,25.10069 -1.5881,0.74685 -3.20486,1.48025 -4.73959,2.12765 -8.72943,3.72838 -18.018819,6.43505 -27.550077,6.81463 -0.428543,0.0179 -1.032214,0.0334 -1.56122,0.0396 -9.811896,0.11957 -19.555129,-2.44805 -28.261136,-6.91421 -9.833341,-5.01984 -18.587261,-11.95191 -26.41421,-19.69355 -8.878948,-9.02155 -15.430942,-20.23904 -19.281012,-32.27754 -0.326725,-1.01393 -0.69814,-2.28229 -1.022035,-3.40127 -0.775622,-2.7858 -1.424318,-5.60567 -1.964293,-8.44639 -0.06546,-0.40306 -0.2067,-1.18275 -0.301166,-1.72997 -0.640106,-3.75751 -1.052122,-7.55122 -1.302349,-11.35401 -0.02567,-0.53656 -0.08287,-1.61946 -0.115235,-2.16211 -0.4914045,-11.46909 0.655562,-22.97441 2.998047,-34.20117 0.230152,-1.10716 0.542969,-2.52553 0.802683,-3.62067 4.599025,-19.64187 12.712894,-38.37942 23.23052,-55.56293 3.078137,-5.00461 6.466513,-10.03857 10.018927,-14.80949 2.69492,-3.63941 5.633455,-7.32765 8.626631,-10.82705 6.451708,-7.57691 13.633883,-14.76692 21.197195,-21.343879 13.52415,-11.788116 28.46681,-21.907874 44.24709,-30.423877 12.37418,-6.672767 25.47657,-12.465608 38.69994,-17.27038 5.51774,-2.006011 11.08942,-3.863158 16.70826,-5.565557 4.33964,4.8659 8.76785,9.666768 13.53933,14.114311 2.72538,2.431664 6.15391,4.095411 9.80247,4.489204 4.2919,0.568421 8.57854,-0.362242 12.74137,-1.321463 3.86651,-0.778666 7.93108,-1.461377 11.82308,-2.067208 15.56871,-2.363166 31.2036,-4.331854 46.89844,-5.634766 4.00203,-0.307518 8.16027,-0.59084 12.23369,-0.625049 7.0846,-0.04429 14.16975,0.0021 21.25459,-0.0209 4.7798,-0.01761 9.55607,0.19282 14.28906,0.57954 3.3967,0.265233 6.9753,0.58169 10.3872,0.931205 6.23517,0.633159 12.41008,1.34483 18.59259,2.140171 8.14766,1.03786 16.28117,2.180601 24.42008,3.552052 3.78048,0.610305 7.51886,1.44632 11.2692,2.208743 4.97517,0.866166 10.4221,0.544239 14.78015,-2.230609 2.92766,-1.847641 5.18917,-4.518629 7.66172,-6.899115 2.87504,-2.983895 5.60702,-6.100871 8.32656,-9.225885 0.9375,0.289714 1.875,0.579427 2.8125,0.869141 z m 0.86719,20.351562 c -15.91173,0.167347 -31.89477,3.958308 -45.81798,11.761592 -15.1644,8.431951 -27.58865,21.649551 -35.133,37.268584 -7.65255,15.74472 -10.35282,33.63437 -8.86716,51.00702 2.02745,23.74002 11.46494,46.54797 25.61663,65.60787 17.36401,23.33673 41.78989,41.60498 69.54086,50.58509 18.32773,5.93947 38.18283,7.74089 57.13515,3.88826 16.26519,-3.25865 31.71914,-10.9486 43.71051,-22.47014 11.17857,-10.63859 19.30684,-24.38073 23.46299,-39.22905 5.14613,-18.14355 4.68149,-37.61666 -0.0333,-55.79815 C 541.47527,124.937 527.43205,102.35117 508.86705,84.77302 490.33915,67.179232 467.0412,54.35729 441.89923,49.37584 434.12183,47.833052 426.18779,47.063182 418.25787,47.146084 Z M 162.23635,50.163662 C 139.45688,50.523586 117.18194,58.50191 98.371121,71.14928 79.328858,83.952068 63.509984,101.51404 52.752667,121.78166 42.944524,140.33982 37.442672,161.4184 38.453481,182.473 c 0.718951,15.07717 4.951175,30.11636 13.086119,42.89761 8.124402,12.84231 20.058222,23.24052 33.928159,29.46268 13.285042,6.0239 28.100091,8.31864 42.615301,7.39496 22.93433,-1.41187 45.03895,-10.35404 63.51201,-23.83433 16.08372,-11.73324 29.64048,-26.92577 39.45824,-44.24574 10.39748,-18.38289 16.52653,-39.40617 16.22405,-60.60477 -0.21794,-15.07622 -3.85831,-30.22585 -11.40359,-43.34308 -4.26764,-7.451817 -9.79439,-14.154942 -16.18157,-19.886357 -2.8488,-2.371059 -5.75991,-4.696396 -8.88642,-6.704627 -11.10596,-7.278264 -24.03778,-11.603544 -37.22451,-12.940002 -3.76755,-0.390486 -7.55771,-0.548319 -11.34492,-0.505682 z m 257.54101,6.894532 c 22.05092,0.07045 43.75098,7.325652 62.229,19.178983 16.61611,10.664683 30.87922,24.998933 41.396,41.713593 0.43551,0.72365 1.04707,1.67969 1.52891,2.5064 1.03117,1.71491 2.00265,3.46468 2.95547,5.22407 0.30889,0.58905 0.76628,1.45338 1.12431,2.15559 1.26522,2.50572 2.4523,5.03547 3.52854,7.56228 1.57309,3.68154 2.89263,7.25111 4.09129,11.05361 1.08326,3.44537 2.03084,7.08582 2.75976,10.5293 1.74743,8.32514 2.54714,16.861 2.19727,25.36524 -0.0458,0.97612 -0.1095,2.20531 -0.19917,3.28176 -0.64904,8.45887 -2.46412,16.84708 -5.57427,24.74753 -0.21749,0.55749 -0.48214,1.20065 -0.74185,1.81938 -0.64498,1.52066 -1.25564,2.8689 -2.01168,4.3922 -7.39543,15.00593 -19.96182,27.3837 -35.08024,34.54817 -2.88893,1.38881 -5.86615,2.58969 -8.89865,3.62697 -0.59236,0.18972 -1.49007,0.49683 -2.20741,0.70978 -7.21925,2.24291 -14.88275,3.47808 -22.33751,3.82147 -3.1106,0.13963 -6.21834,0.12659 -9.26923,-0.0211 -19.94492,-0.97088 -39.39529,-7.6913 -56.27888,-18.23163 -1.40202,-0.8736 -2.78869,-1.7719 -4.15502,-2.70038 5.30454,0.82694 10.81578,0.28261 15.84961,-1.58789 17.30774,8.68789 37.30175,12.50811 56.51326,9.37202 14.36071,-2.3027 28.11757,-8.76546 38.6959,-18.80338 10.02574,-9.41881 17.13118,-21.82582 20.42366,-35.1663 1.12557,-4.43322 1.81938,-8.98339 2.19921,-13.5293 6.30384,-6.5953 9.47581,-16.03259 8.41773,-25.09702 -0.9906,-9.2269 -6.31019,-17.87397 -14.11666,-22.89855 -1.63928,-1.06983 -3.37576,-1.99538 -5.18974,-2.73294 -4.68173,-9.07038 -10.71074,-17.43129 -17.73633,-24.83008 6.1e-4,-7.99996 -4.33481,-15.82401 -11.09624,-20.093898 -5.76585,-3.731354 -13.17921,-4.774682 -19.75141,-2.831884 -13.73702,-6.762109 -29.04641,-10.546644 -44.39595,-10.214199 -15.27597,0.286278 -30.60116,4.871865 -43.05062,13.837863 -12.34407,8.807388 -21.67181,21.698878 -26.30644,36.127878 -5.21492,15.96602 -4.97837,33.42995 -0.52712,49.54415 2.9975,10.93337 7.8912,21.32479 14.25864,30.6965 -1.21994,5.24563 -1.02959,10.79931 0.48047,15.96484 -11.41274,-12.82076 -20.39597,-27.86569 -25.84375,-44.16406 -0.31183,-0.95396 -0.70579,-2.16877 -1.02389,-3.23023 -5.22918,-17.33265 -6.39325,-36.14056 -1.72331,-53.73422 3.36082,-12.8247 9.95584,-24.83874 19.27287,-34.302822 8.90409,-9.164888 20.20879,-15.895147 32.40877,-19.638105 2.87889,-0.894061 5.91139,-1.652506 8.77615,-2.216883 6.05665,-1.20313 12.23511,-1.765943 18.40855,-1.754696 z m -256.18554,3.017578 c 1.78108,0.0017 3.50146,0.04718 5.21697,0.15111 1.29793,0.07868 2.47301,0.179225 3.72639,0.303968 0.85136,0.09579 1.97767,0.225295 2.93311,0.364987 1.44967,0.202523 2.89304,0.450277 4.24352,0.713893 1.90328,0.372888 3.60168,0.777487 5.46656,1.278068 12.30622,3.306704 23.73593,9.963839 32.45608,19.28372 7.50904,7.916702 12.98761,17.669442 16.13598,28.100112 1.47325,4.79365 2.45374,9.7322 3.02646,14.71235 0.0386,0.43744 0.13722,1.30134 0.17736,1.74808 0.14272,1.49286 0.2432,3.19298 0.31093,4.56246 0.12672,3.20462 0.10397,6.57452 -0.0977,9.67774 -1.35111,21.9432 -9.89188,43.10308 -22.80574,60.76921 -6.76822,9.26046 -14.74368,17.6381 -23.66496,24.84797 -0.66576,0.52904 -1.55366,1.24395 -2.32143,1.82525 -15.79315,12.16546 -34.60623,20.70852 -54.44833,23.30624 -3.22327,0.41741 -6.46728,0.67448 -9.71657,0.75719 -1.1641,0.0237 -2.57547,0.0356 -3.83663,0.0108 -3.98547,-0.0676 -7.96529,-0.41933 -11.90165,-1.04598 -0.83246,-0.14058 -1.94319,-0.33109 -2.87798,-0.52066 -5.47611,-1.08611 -10.83297,-2.77576 -15.92671,-5.06332 -0.36949,-0.17144 -1.06905,-0.48526 -1.568406,-0.73125 -2.495957,-1.1974 -4.917334,-2.54806 -7.253859,-4.03243 -0.363476,-0.24732 -1.051015,-0.67742 -1.529603,-1.01064 -11.384273,-7.64882 -20.267478,-18.86066 -25.322709,-31.5932 -2.900729,-7.19433 -4.64158,-14.83213 -5.366438,-22.5485 -0.03333,-0.39281 -0.108462,-1.20874 -0.134909,-1.62921 -0.148348,-1.9935 -0.222747,-3.80812 -0.250399,-5.81454 -0.07921,-7.04256 0.63614,-14.08648 2.029839,-20.98789 0.140809,-0.62194 0.324109,-1.55521 0.497443,-2.30006 5.275118,-23.34444 18.074579,-44.67323 35.181113,-61.28424 1.077771,-1.0477 2.101553,-2.00639 3.247972,-3.0456 13.347606,-12.130436 29.294336,-21.519413 46.618436,-26.657191 8.91006,-2.636175 18.38702,-4.141881 27.75586,-4.148437 z m -6.49414,5.509766 c -18.94866,0.359951 -37.4543,7.054374 -53.0802,17.606871 C 85.753609,95.5414 71.001665,113.117 62.277621,133.38473 c -6.652315,15.51657 -9.700298,32.7907 -7.390882,49.59534 1.757472,12.775 6.802086,25.20667 15.129555,35.11992 7.821222,9.39432 18.362546,16.46142 29.996966,20.1976 14.36253,4.67761 30.00939,4.53682 44.58246,0.87974 20.28533,-5.05565 38.65986,-16.61898 52.91211,-31.80273 14.30739,-15.21348 24.70142,-34.3344 28.54292,-54.93718 2.72391,-14.56877 2.01567,-29.95336 -3.21453,-43.89806 -4.39624,-11.75087 -12.14078,-22.27019 -22.26646,-29.713472 -9.68599,-7.187427 -21.37587,-11.496817 -33.3428,-12.774412 -3.36213,-0.374655 -6.74717,-0.511853 -10.12928,-0.465938 z m 1.14257,9.916015 c 1.26302,-0.003 2.49681,0.02 3.62606,0.07868 4.94941,0.232258 9.87547,1.012606 14.64347,2.364683 0.78996,0.229448 1.85286,0.548576 2.7383,0.852219 10.45707,3.463821 19.83774,10.123955 26.45906,18.938675 6.24201,8.18385 9.95603,18.12265 11.33194,28.28137 0.049,0.43191 0.13982,1.04951 0.18933,1.53 0.24135,2.12899 0.38676,4.24829 0.43923,6.32301 0.0741,2.9148 -0.006,5.68977 -0.26185,8.6051 -0.0821,1.05575 -0.19789,2.09864 -0.31298,3.05703 -1.14985,9.34138 -3.87321,18.46277 -7.80177,27.00634 -0.5064,1.10241 -1.14033,2.41404 -1.73405,3.5802 -6.26351,12.29264 -15.11433,23.40879 -25.60935,32.45477 -8.58282,7.39003 -18.36832,13.41339 -28.92418,17.5412 -0.41441,0.15118 -1.07408,0.41455 -1.49289,0.56538 -2.8314,1.0495 -5.77431,1.96543 -8.61844,2.7022 -10.69139,2.77875 -22.16977,3.43183 -32.93359,1.28516 -2.3335,-0.46279 -4.72661,-1.10465 -6.89248,-1.80902 -1.12164,-0.36899 -2.13333,-0.73541 -3.279549,-1.18128 -1.51184,-0.59206 -3.176055,-1.33768 -4.515475,-2.00384 -6.433221,-3.17987 -12.22446,-7.65033 -16.927734,-13.07031 -0.496745,-0.56981 -1.165843,-1.37663 -1.699596,-2.06292 -6.141763,-7.7764 -10.022093,-17.2057 -11.637045,-26.95374 -2.240338,-13.31192 -0.525759,-27.09317 3.850312,-39.79975 0.161848,-0.43945 0.434416,-1.21643 0.638672,-1.78516 0.190388,-0.50428 0.500487,-1.33364 0.746515,-1.96094 6.582535,-16.7288 17.742018,-31.53858 31.6203,-42.91436 3.19814,-2.61049 6.59348,-5.07537 10.01853,-7.24762 13.80042,-8.763396 29.89835,-14.289983 46.33926,-14.377073 z m 267.85547,4.314453 c 11.1594,-0.05669 22.27345,2.319616 32.58203,6.546874 -5.11225,5.15227 -7.69819,12.69256 -6.73846,19.8969 0.93751,7.74585 5.91361,14.85475 12.87019,18.38906 7.34246,3.84088 16.69298,3.50549 23.69292,-0.9568 3.54523,-2.19846 6.49504,-5.3429 8.4859,-9.00689 2.85462,3.42577 5.48144,7.04176 7.84961,10.82031 -8.65631,0.18465 -17.14694,4.1317 -22.85176,10.6486 -4.706,5.31698 -7.54531,12.26227 -7.86504,19.35921 -5.3073,-5.99309 -12.94717,-9.87637 -20.9414,-10.49219 -8.63567,-0.73454 -17.52008,2.27252 -23.88368,8.16936 -6.50117,5.92662 -10.35644,14.65647 -10.24022,23.46461 0.0116,2.07816 0.23915,4.15418 0.66296,6.1883 -6.45166,-5.32316 -15.07222,-7.92071 -23.39011,-6.97554 -8.95025,0.94142 -17.37419,5.94761 -22.46731,13.37007 -5.81966,-9.8761 -9.8772,-20.82246 -11.6211,-32.16406 4.30549,4.71671 10.53198,7.62406 16.92513,7.7957 7.34218,0.27243 14.71387,-3.04088 19.35783,-8.7407 4.70042,-5.64089 6.58102,-13.49583 4.91661,-20.65168 -1.75542,-7.88431 -7.74905,-14.66232 -15.37673,-17.3356 -7.35957,-2.65851 -16.0001,-1.4542 -22.28377,3.23697 -0.34575,0.23695 -0.98557,0.89446 -0.55999,0.0845 0.43145,-1.20961 0.87932,-2.37177 1.34846,-3.47822 2.97062,-7.06827 7.23183,-13.60234 12.58848,-19.09459 0.61326,-0.62169 1.42225,-1.43669 2.14464,-2.10223 7.84215,-7.31876 17.64472,-12.458462 28.06434,-14.956359 0.52399,-0.124993 1.38599,-0.328445 2.04413,-0.461785 1.43263,-0.309381 2.87804,-0.55539 4.32697,-0.774543 0.55675,-0.08013 1.45251,-0.201722 2.14168,-0.278679 2.75088,-0.320235 5.39928,-0.476534 8.21769,-0.500618 z m 50.51563,9.298824 c 5.77844,0.23662 11.12805,4.43088 12.75159,9.98096 1.53933,4.95754 0.10796,10.71011 -3.66099,14.30149 -3.72065,3.66514 -9.53526,4.9863 -14.46665,3.25053 -4.99523,-1.68877 -8.85815,-6.34519 -9.45468,-11.60403 -0.63469,-4.86136 1.42116,-9.99125 5.342,-12.96662 2.67554,-2.07876 6.10315,-3.16154 9.48873,-2.96233 z m -337.45703,0.53125 c -14.55606,0.0717 -29.00333,5.56177 -39.931809,15.17729 -11.228763,9.76367 -18.748919,23.7137 -20.575859,38.49491 -1.795547,13.83817 1.251212,28.27117 8.627414,40.13088 7.887741,12.8416 20.631174,22.62546 35.118644,26.81573 14.71774,4.32174 31.0475,2.91181 44.75877,-3.99119 13.70191,-6.81679 24.68531,-18.91333 30.08488,-33.23992 5.63655,-14.76912 5.28425,-31.71976 -1.02617,-46.22112 -6.02097,-14.0018 -17.42905,-25.59374 -31.35481,-31.7987 -8.04855,-3.61015 -16.88097,-5.44965 -25.70106,-5.36788 z m 287.04492,2.81641 c -8.17449,0.0558 -16.1047,4.68418 -20.24805,11.71875 -4.17817,6.91201 -4.52831,15.96145 -0.83917,23.15535 3.53441,7.11676 10.79097,12.2493 18.70636,13.09856 7.65556,0.93355 15.66021,-2.11175 20.74696,-7.91298 5.14415,-5.70408 7.25735,-13.95883 5.47758,-21.43319 -1.82482,-8.03458 -8.05941,-14.90399 -15.91684,-17.41834 -2.55037,-0.83893 -5.2421,-1.25051 -7.92684,-1.20815 z m -301.4668,9.51758 c -1.00771,2.26185 -0.66126,4.79845 -0.89695,7.19886 -0.14789,2.94237 -0.26421,5.88619 -0.4136,8.82848 -5.50949,-2.23022 -11.03008,-4.43317 -16.52734,-6.69336 3.74424,-3.09009 7.92553,-5.65004 12.38281,-7.57422 0.29831,-0.11342 0.96538,-0.41044 1.42453,-0.58038 1.3679,-0.53362 2.75544,-1.01772 4.16141,-1.4411 -0.0436,0.0872 -0.0872,0.17448 -0.13086,0.26172 z m 302.64649,0.41601 c 5.85221,0.23712 11.26144,4.5373 12.81328,10.18671 1.43593,4.9127 -0.004,10.55652 -3.72541,14.09692 -3.74754,3.68919 -9.61708,4.99661 -14.56845,3.20951 -4.82978,-1.6862 -8.57354,-6.14583 -9.27854,-11.22949 -0.7706,-4.99248 1.30832,-10.3395 5.37755,-13.37294 2.65245,-2.03883 6.04096,-3.08452 9.38157,-2.89071 z m -267.92188,1.08594 c 6.18152,2.54968 11.8426,6.33463 16.58984,11.04102 -5.70229,1.69421 -11.38983,3.44075 -17.12109,5.03711 0.19179,-4.7999 0.52178,-9.59864 0.59961,-14.40039 -0.0515,-0.62815 -0.20708,-1.24657 -0.44531,-1.83008 0.12565,0.0508 0.2513,0.10156 0.37695,0.15234 z m -20.16016,3.85938 c 3.4388,-0.0258 6.87956,0.36205 10.23047,1.13281 -0.2164,5.36347 -0.59123,10.72397 -0.65922,16.09132 0.14431,5.6961 2.34106,11.54997 6.80058,15.25801 4.04841,3.45775 9.47161,4.83172 14.70576,4.8906 4.24758,0.19671 8.49515,0.39343 12.74273,0.59015 0.4866,3.61443 0.50393,7.28908 0.0957,10.91211 -0.0502,0.46216 -0.12316,0.9914 -0.20766,1.55747 -0.16134,1.09096 -0.37431,2.1741 -0.61851,3.24917 -5.43562,-0.2173 -10.86855,-0.58917 -16.30811,-0.65498 -5.73087,0.17409 -11.56341,2.59477 -15.11846,7.20808 -3.46892,4.35694 -4.76094,10.02959 -4.86054,15.50158 -0.18229,3.83854 -0.36459,7.67709 -0.54688,11.51563 -5.22027,0.70857 -10.56799,0.46768 -15.70312,-0.70898 0.19859,-5.22954 0.57083,-10.45592 0.60742,-15.68946 -0.15587,-5.53314 -2.04633,-11.25317 -6.19861,-15.07509 -4.06189,-3.79494 -9.72174,-5.36071 -15.17612,-5.4745 -4.26962,-0.20027 -8.53924,-0.40053 -12.808862,-0.6008 -0.698459,-5.22596 -0.463804,-10.5773 0.707031,-15.71875 5.373211,0.21946 10.743581,0.59233 16.121091,0.6543 5.38789,-0.14247 10.96912,-1.97828 14.67325,-6.04228 3.77906,-4.06433 5.27408,-9.7197 5.43839,-15.15247 0.20693,-4.35175 0.41386,-8.7035 0.62078,-13.05525 1.81041,-0.24702 3.63607,-0.36942 5.46289,-0.38867 z m -35.59375,9.69726 c 1.47,4.97077 2.94977,9.93768 4.48633,14.88867 -4.77903,-0.18993 -9.556209,-0.52381 -14.337887,-0.58789 -0.710196,0.0497 -1.403866,0.23877 -2.058594,0.51368 1.00955,-2.50988 2.23867,-4.92928 3.617188,-7.25586 0.208652,-0.32134 0.619318,-1.01854 0.925126,-1.47177 0.802509,-1.24868 1.674518,-2.45122 2.578778,-3.62784 0.2053,-0.24133 0.64899,-0.82389 0.96803,-1.19483 1.000779,-1.20928 2.057059,-2.37281 3.162829,-3.48681 0.2194,0.74088 0.4388,1.48177 0.6582,2.22265 z m 76.22852,1.79883 c 4.17639,5.21521 7.395,11.28419 9.25977,17.66602 -1.60603,-0.99029 -3.52591,-1.06569 -5.35493,-1.09352 -3.65539,-0.17663 -7.31207,-0.32479 -10.96734,-0.50414 2.22569,-5.51103 4.4546,-11.02076 6.68164,-16.53125 0.12695,0.1543 0.25391,0.30859 0.38086,0.46289 z m -56.64844,1.70117 c -0.10458,3.25476 -0.75097,6.83372 -3.25168,9.14324 -2.66465,2.32364 -6.41846,2.52591 -9.78472,2.34772 -1.10056,0.15202 -0.38082,-0.36927 0.0862,-0.7971 4.23695,-4.08292 8.63686,-7.99104 13.02048,-11.91456 -0.0234,0.4069 -0.0469,0.8138 -0.0703,1.2207 z m 36.86719,1.66016 c 3.78832,4.26087 7.66673,8.44027 11.51758,12.64453 -2.60297,-0.13095 -5.32078,-0.13864 -7.69716,-1.36127 -2.60047,-1.15153 -4.34721,-3.709 -4.86803,-6.45933 -0.44042,-2.05417 -0.37278,-4.17085 -0.23169,-6.25362 0.42644,0.47656 0.85287,0.95313 1.2793,1.42969 z m 143.27344,1.59766 c -11.46554,0.0143 -22.93268,-0.0383 -34.39721,0.036 -6.42731,0.35268 -12.3528,4.95878 -14.30596,11.08954 -1.94854,5.77384 -0.29116,12.59139 4.17489,16.75936 3.26828,3.189 7.92435,4.78864 12.46148,4.51947 11.37055,-0.0186 22.74298,0.0482 34.11232,-0.0439 6.40982,-0.39442 12.296,-5.02354 14.21315,-11.15095 1.99452,-5.95146 0.11584,-12.9854 -4.63878,-17.10095 -3.13799,-2.81953 -7.41246,-4.29873 -11.61989,-4.10857 z m 77.32617,2.88476 c 5.78473,0.23479 11.13771,4.43618 12.75887,9.99228 1.50498,4.89894 0.14107,10.57203 -3.54092,14.16477 -3.71757,3.75795 -9.61284,5.13236 -14.60253,3.37207 -4.99481,-1.69515 -8.85707,-6.35433 -9.44663,-11.61769 -0.62783,-4.86738 1.43756,-10.00449 5.37409,-12.96966 2.66438,-2.0715 6.08727,-3.13721 9.45712,-2.94177 z m 124.89453,8.73438 c 5.71638,-0.0368 11.37638,2.38178 15.37305,6.45507 0.1799,0.1797 0.67144,0.70212 0.95741,1.04713 5.06414,5.74473 6.60207,14.28381 3.95192,21.45615 -2.60277,7.30219 -9.41527,12.91945 -17.10858,13.98115 -6.54709,0.9972 -13.50712,-1.18052 -18.2404,-5.83297 -4.81654,-4.60456 -7.27652,-11.5246 -6.42182,-18.13661 0.8041,-6.84681 5.1067,-13.16784 11.20789,-16.3912 3.14434,-1.69379 6.7084,-2.58993 10.28053,-2.57872 z m -366.66211,0.27343 c -6.3536,0.20196 -12.25398,4.78777 -14.07815,10.86824 -1.83982,5.69243 0.0131,12.36502 4.55984,16.26382 4.44495,3.97843 11.26914,5.00016 16.67057,2.44942 5.39703,-2.42559 9.11095,-8.15879 9.0411,-14.08734 0.0576,-6.19256 -3.98528,-12.18893 -9.77478,-14.41139 -2.03085,-0.81245 -4.23413,-1.17636 -6.41858,-1.08275 z m 131.47656,1.91602 c 11.39264,0.0188 22.78815,-0.0279 34.17916,0.0233 1.62498,0.19916 2.65909,2.25702 1.7017,3.63492 -0.59091,0.95601 -1.75731,1.27811 -2.81797,1.14263 -11.2789,-0.015 -22.56096,0.039 -33.83788,-0.0354 -1.74109,-0.24466 -2.63671,-2.63017 -1.39688,-3.91969 0.54141,-0.5999 1.36091,-0.95058 2.17187,-0.8457 z m -130.48437,7.98828 c 3.0618,0.079 5.63658,3.08248 5.26158,6.121 -0.22818,2.77437 -2.76457,5.14582 -5.57363,5.04395 -2.76965,0.0246 -5.35933,-2.25453 -5.52194,-5.04972 -0.24703,-2.5153 1.34806,-5.09441 3.79493,-5.83593 0.65476,-0.21841 1.34978,-0.31247 2.03906,-0.2793 z m 310.63867,9.24023 c 7.12296,-0.0606 14.10636,3.74219 17.98574,9.70639 4.21518,6.31129 4.71455,14.8798 1.24959,21.63435 -3.19034,6.34344 -9.64642,10.9579 -16.73101,11.71625 -6.42801,0.77835 -13.15622,-1.49497 -17.73286,-6.09133 -4.74028,-4.64627 -7.13011,-11.54798 -6.24211,-18.13024 0.84468,-6.79892 5.13341,-13.05904 11.1982,-16.25898 3.13996,-1.69501 6.70407,-2.58768 10.27245,-2.57644 z M 90.142599,165.66952 c 1.604162,1.0305 3.53486,1.28748 5.402951,1.26996 3.658171,0.17412 7.31774,0.31643 10.97595,0.48981 -2.22723,5.5358 -4.51338,11.04783 -6.656249,16.61719 -4.464055,-5.38308 -7.81365,-11.68487 -9.761715,-18.40235 z m 20.464841,1.98242 c 3.27199,0.27195 6.78365,1.64925 8.42188,4.67383 1.55443,2.80098 1.64044,6.11933 1.45703,9.24024 -4.17071,-4.77015 -8.52209,-9.32323 -12.68555,-14.06836 0.93555,0.0514 1.87109,0.10286 2.80664,0.15429 z m 56.71289,2.61914 c 1.11586,0.0143 2.24014,0.0724 3.32227,0.13282 -1.19661,0.72292 -2.41461,1.42569 -3.37823,2.45611 -3.70992,3.41379 -7.45927,6.78443 -11.21357,10.14936 0.0633,-2.80341 0.45374,-5.69416 1.93453,-8.13383 1.16896,-2.06778 3.17144,-3.63103 5.4933,-4.17462 1.24966,-0.34151 2.5511,-0.42884 3.8417,-0.42984 z m 20.28906,0.17969 c -1.1405,2.8464 -2.54774,5.58296 -4.17773,8.17969 -0.20146,0.31539 -0.60471,0.96103 -0.90514,1.39267 -1.8022,2.68766 -3.87349,5.19288 -6.14955,7.49209 -1.76907,-5.68685 -3.41052,-11.41278 -5.23047,-17.08398 4.75144,0.16632 9.50004,0.53175 14.25391,0.56055 0.77131,-0.0722 1.53218,-0.27092 2.23242,-0.60352 z m 294.82422,7.90039 c 5.51342,5.98576 13.39446,9.75112 21.54092,10.10349 4.60068,0.24138 9.25082,-0.54886 13.51963,-2.27927 -1.71385,8.7708 -5.19363,17.29662 -10.32617,24.57422 -3.80753,5.45167 -8.53436,10.25126 -13.89453,14.18359 -0.86579,0.62579 -1.94706,1.38578 -2.932,2.0172 -6.91938,4.47914 -14.74799,7.49615 -22.83363,9.04726 -2.10683,0.39657 -4.42195,0.74106 -6.63029,0.95053 -13.58747,1.31439 -27.40811,-1.17246 -39.96346,-6.42514 6.48144,-5.87027 10.34796,-14.52078 10.31164,-23.27416 0.007,-2.17351 -0.2213,-4.34679 -0.66711,-6.47389 6.3939,5.28309 14.91932,7.88726 23.17383,7.02344 9.12741,-0.87927 17.72394,-6.00232 22.85699,-13.5989 3.27346,-4.78923 5.16694,-10.50156 5.44184,-16.29368 0.13411,0.14844 0.26823,0.29687 0.40234,0.44531 z m -362.12695,7.20313 c -0.14786,3.71548 -0.41627,7.43308 -0.41445,11.15034 0.0662,0.84731 0.28514,1.68391 0.64687,2.45317 -6.41666,-2.56428 -12.31309,-6.42994 -17.20703,-11.31054 5.70166,-1.71747 11.41258,-3.40251 17.10156,-5.16211 -0.0423,0.95638 -0.0846,1.91276 -0.12695,2.86914 z m 37.67188,-0.42774 c 4.82249,2.02956 9.6931,3.94002 14.54296,5.90235 -5.34487,4.41344 -11.57971,7.75829 -18.23828,9.69726 1.17393,-1.88981 1.1215,-4.16683 1.21325,-6.30596 0.16699,-3.37424 0.29837,-6.75024 0.48011,-10.12372 0.66732,0.27669 1.33464,0.55338 2.00196,0.83007 z m 241.78515,0.47657 c 7.4072,-0.0694 14.65642,4.04913 18.43951,10.40959 3.93974,6.44833 4.16464,14.99665 0.44585,21.59324 -3.15213,5.77702 -9.04256,9.99229 -15.57257,10.94462 -6.21016,0.97516 -12.81602,-0.87384 -17.5314,-5.05442 -5.13134,-4.42719 -7.9633,-11.36202 -7.34059,-18.1177 0.54974,-6.88791 4.62381,-13.38603 10.62877,-16.82229 3.29533,-1.9313 7.1096,-2.96796 10.93043,-2.95304 z" /><path
   id="ellipse3"
   d="m 287.65822,4.0093661 0.0176,0.002 c -33.468,0 -69.87239,4.177593 -105.27539,14.0585929 -0.688,0.200001 -1.3105,0.718297 -1.4375,1.404297 -0.0206,0.111247 0.0272,0.199616 0.0273,0.304688 -0.008,0.0072 -0.0135,0.01208 -0.0273,0.02344 -0.093,0.077 -0.28711,0.202828 -0.53711,0.298828 -0.33994,0.131219 -0.7745,0.214356 -1.09961,0.25 -0.99777,-0.684027 -2.25046,-0.755678 -3.30664,-0.429687 -41.118,12.326 -80.551514,32.513922 -111.978514,63.044922 C 34.144036,112.0124 13.345817,150.6208 6.4668167,188.0328 c -6.87899999,37.415 0.1997188,73.74002 26.2617193,97.91602 28.719,26.641 53.623688,28.93925 76.054684,22.28125 22.432,-6.658 42.45975,-22.074 61.96875,-30.625 18.913,-8.288 63.78838,-28.32422 106.23438,-28.32422 h 37.38476 c 42.446,0 87.31942,20.03622 106.23243,28.32422 19.509,8.551 39.5085,23.968 61.9375,30.625 22.432,6.658 47.37089,4.35775 76.08789,-22.28125 26.063,-24.178 33.13776,-60.50402 26.25976,-97.91602 -6.883,-37.412 -27.67817,-76.0204 -57.57617,-105.066403 -60.007,-58.296 -149.1473,-78.9570309 -223.6543,-78.9570309 z m 0.0176,1.914062 h 15.99219 c 34.192,0 71.46673,4.4692339 107.55273,14.8652339 -0.27,0.313001 -7.82915,9.077735 -11.03515,12.052735 -1.78,1.652 -3.31808,3.584156 -5.83008,4.785156 -2.512,1.201 -6.06314,1.751125 -11.99414,0.328125 -12.383,-2.971 -57.57525,-9.001953 -75.28125,-9.001953 h -22.78906 c -17.70801,0 -62.9023,6.031953 -75.2793,9.001953 -5.931,1.424 -9.47919,0.870922 -11.99219,-0.330078 -2.512,-1.2 -4.05103,-3.132156 -5.83203,-4.785156 -2.90863,-2.700491 -8.77457,-9.243586 -10.24024,-10.882813 0.0556,-0.01967 0.11084,-0.03925 0.16602,-0.06055 0.25234,-0.09695 0.50024,-0.211537 0.73438,-0.355468 0.55136,0.634762 5.69656,6.546985 9.01562,9.628906 1.587,1.474 3.04448,3.653984 5.77148,5.083984 2.72701,1.43 6.62404,1.967516 12.83204,0.478516 11.909,-2.858 57.56407,-8.941406 74.83007,-8.941406 h 22.78907 c 17.265,0 62.91808,6.083406 74.83008,8.941406 6.20699,1.489 10.07378,0.951484 12.80078,-0.478516 2.727,-1.43 4.21773,-3.610984 5.80273,-5.083984 3.492,-3.242 9.09375,-9.662109 9.09375,-9.66211 l -1.4668,-1.255859 c 0,0 -5.60211,6.438719 -8.91211,9.511719 -1.812,1.684 -3.13081,3.633453 -5.38281,4.814453 -2.253,1.181 -5.54937,1.722828 -11.48437,0.298828 -12.378,-2.97 -57.5723,-9.001953 -75.2793,-9.001953 h -22.78906 c -17.708,0 -62.90135,6.031953 -75.27735,9.001953 -5.937,1.424 -9.23332,0.882172 -11.48632,-0.298828 -2.252,-1.182 -3.56982,-3.131453 -5.38282,-4.814453 -3.292,-3.057 -9.1395,-9.786797 -9.1875,-9.841797 35.19,-9.816 71.41494,-13.9980469 104.71094,-13.9980469 z M 180.99807,19.862881 c 5.1e-4,0.0099 10e-4,0.01944 0.002,0.0293 h -0.006 c 7.2e-4,-0.01106 0.003,-0.01967 0.004,-0.0293 z m 230.73047,1.046875 c 41.97799,12.164 82.3179,32.416594 114.2539,63.433594 29.607,28.762 50.23716,67.05044 57.03516,104.02344 6.798,36.969 -0.20241,72.53759 -25.69141,96.18359 -28.357,26.306 -52.24617,28.37928 -74.20117,21.86328 -21.954,-6.518 -41.89352,-21.84015 -61.72852,-30.53515 -18.892,-8.279 -63.96576,-28.50196 -107.00976,-28.50196 h -37.38477 c -43.046,0 -88.11981,20.22296 -107.00781,28.50196 -19.837,8.695 -39.77747,24.01915 -61.73047,30.53515 -21.964998,6.518 -45.855841,4.43986 -74.214841,-21.86914 C 8.5608485,260.90452 1.5623949,225.33293 8.3593945,188.36093 15.156395,151.40093 35.785599,113.10726 65.392599,84.347256 96.549598,54.079256 135.68371,34.0066 176.55471,21.7496 c 0.767,-0.236 1.51936,-0.135625 1.94336,0.359375 0,0 7.84918,8.876578 11.36718,12.142578 1.62,1.504 3.3566,3.705235 6.3086,5.115235 2.953,1.409999 7.06629,1.940218 13.27929,0.449218 11.911,-2.858 57.56408,-8.943359 74.83008,-8.943359 h 22.79102 c 17.265,0 62.91712,6.084359 74.82812,8.943359 6.214,1.491 10.3283,0.960782 13.2793,-0.449218 2.953,-1.41 4.69055,-3.611235 6.31055,-5.115235 3.538,-3.284 11.30664,-12.380859 11.30664,-12.380859 l -1.07617,-0.958985 z m 5.12109,30.263672 v 0.002 c -23.602,0.603 -45.64272,9.222469 -61.76172,26.230469 -36.844,38.876003 -28.55975,106.500553 18.15625,151.060553 46.713,44.563 114.46378,49.43359 151.30078,10.55859 36.843,-38.876 28.58905,-106.5025 -18.12695,-151.062503 -26.28,-25.067999 -59.22936,-37.563062 -89.56836,-36.789062 z m 0.14844,1.916016 c 29.785,-0.746 62.18137,11.515 88.10937,36.249996 46.096,43.972 54.0152,110.40505 18.0332,148.37305 -35.982,37.966 -102.49003,33.35381 -148.58203,-10.61719 -46.096,-43.973 -54.04845,-110.40604 -18.06445,-148.373044 15.744,-16.611 37.33791,-25.052812 60.50391,-25.632812 z m -253.33789,1.064453 c -29.93125,-8.73e-4 -62.34793,14.163 -87.072269,40.917973 -41.65,45.062 -45.997844,109.07507 -9.339844,142.95507 36.658003,33.89 100.155643,24.53852 141.806643,-20.52148 41.651,-45.058 45.95892,-109.07389 9.29492,-142.962891 l -0.004,0.0078 C 203.45422,60.785413 184.13945,54.154494 163.66018,54.153897 Z m -0.0781,1.921875 c 20.07194,-0.01194 38.96263,6.468922 53.47266,19.880859 h -0.008 c 35.728,33.013999 31.67857,95.810859 -9.39843,140.255859 -41.086,44.445 -103.38261,53.43306 -139.099611,20.41406 C 32.829848,203.61855 36.914114,140.82569 77.996114,96.37069 102.38855,69.980288 134.24615,56.093227 163.58205,56.075772 Z m -5.30078,13.498047 c -24.63968,0.07618 -51.35819,11.822734 -71.769531,33.904301 -34.378,37.191 -38.13025,89.90532 -8.03125,117.73632 30.099001,27.822 82.362231,19.94491 116.740231,-17.24609 34.37545,-37.18932 38.12779,-89.90043 8.03321,-117.73242 C 191.02621,74.932428 175.13999,69.521693 158.28127,69.573819 Z m -0.084,1.927734 c 16.45077,-0.06409 31.9105,5.198047 43.75391,16.146487 l 0.002,-0.006 c 29.154,26.95 25.67629,78.44934 -8.13671,115.02734 -33.814,36.579 -84.88321,44.08672 -114.033207,17.13672 C 50.627224,192.86524 54.104989,141.36571 87.917989,104.78671 107.99386,83.065553 134.15386,71.59522 158.19728,71.501553 Z m 268.83985,2.408203 c -0.92831,-0.0058 -1.85378,0.0041 -2.77735,0.0293 l -0.004,-0.0039 c -18.995,0.519 -36.87286,7.616156 -50.00586,21.535153 -25.33776,26.856971 -24.6459,70.201891 -0.89258,103.910161 -0.73614,2.48105 -1.13672,5.10606 -1.13672,7.82422 0,15.183 12.33263,27.51367 27.51563,27.51367 3.96228,0 7.72453,-0.8462 11.12695,-2.35742 33.02618,17.2533 71.60992,14.12941 95.04688,-10.71094 11.6043,-12.29019 17.73146,-28.08043 18.70312,-44.77344 5.23839,-5.00379 8.50781,-12.04949 8.50781,-19.86133 0,-11.97184 -7.67,-22.16696 -18.35742,-25.94531 -4.69311,-9.4137 -11.03046,-18.38197 -18.92383,-26.45508 0.0307,-0.45287 0.0508,-0.9086 0.0508,-1.36914 0,-11.069001 -8.99936,-20.068357 -20.06836,-20.068357 -2.49698,0 -4.88698,0.462487 -7.09374,1.298828 -13.46649,-6.929756 -27.82107,-10.479098 -41.69141,-10.566406 z m 0.41015,1.910156 c 12.94963,0.149306 26.34753,3.403903 39.02344,9.677738 -6.36693,3.3673 -10.71679,10.05544 -10.71679,17.74804 0,11.069 8.99936,20.07032 20.06835,20.07032 9.77568,0 17.93336,-7.02201 19.70704,-16.28711 6.81744,7.17489 12.37702,15.04952 16.66796,23.27539 -2.11254,-0.52059 -4.31791,-0.80274 -6.58984,-0.80274 -15.184,0 -27.51758,12.33167 -27.51758,27.51367 0,15.18201 12.33358,27.48633 27.51758,27.48633 6.39438,0 12.27835,-2.18704 16.95313,-5.84765 -1.28187,15.59817 -7.21907,30.19518 -18.05664,41.68164 -22.47645,23.82238 -59.38128,27.15252 -91.49024,10.95898 8.47103,-4.69069 14.20703,-13.72344 14.20703,-24.08984 0,-15.183 -12.30237,-27.51563 -27.48437,-27.51563 -11.62756,0 -21.57631,7.23626 -25.60157,17.44336 -22.53146,-32.92232 -22.84014,-74.55023 1.4961,-100.34179 13.46803,-14.275536 32.12042,-21.197796 51.8164,-20.970708 z m 48.375,9.271488 c 10.034,0 18.1543,8.12029 18.1543,18.15429 0,10.035 -8.11829,18.15625 -18.1543,18.15625 -10.03399,0 -18.15234,-8.12125 -18.15234,-18.15625 -10e-4,-10.034 8.11734,-18.15429 18.15234,-18.15429 z m -336.13671,8.55273 c -31.77,0 -57.541018,25.77297 -57.541018,57.54297 0,31.771 25.771018,57.54297 57.541018,57.54297 31.771,0 57.54297,-25.77197 57.54297,-57.54297 0,-31.769 -25.77297,-57.54297 -57.54297,-57.54297 z m 0,1.91602 c 30.737,0 55.6289,24.8929 55.6289,55.6289 0,30.737 -24.8919,55.62891 -55.6289,55.62891 -30.736,0 -55.626956,-24.89191 -55.626956,-55.62891 -0.001,-30.736 24.890956,-55.6289 55.626956,-55.6289 z m 286.90625,0.89843 c -11.07,0 -20.03907,8.99936 -20.03907,20.06836 0,11.069 8.96907,20.06641 20.03907,20.06641 11.069,0 20.0664,-8.99741 20.0664,-20.06641 0,-11.069 -8.9974,-20.06836 -20.0664,-20.06836 z m 0,1.91407 c 10.035,0 18.15234,8.11929 18.15234,18.15429 0,10.035 -8.11734,18.15235 -18.15234,18.15235 -10.035,0 -18.12696,-8.11835 -18.12696,-18.15235 0,-10.035 8.09196,-18.15429 18.12696,-18.15429 z m -287.62305,3.05859 c -3.00638,0.0434 -5.95486,0.35681 -8.81836,0.91406 -0.01,0.002 -0.0213,-0.002 -0.0312,0 v 0.0312 c -0.575,0.104 -1.18969,0.39978 -1.55469,0.92578 -0.372,0.539 -0.50111,1.20761 -0.53711,1.97461 l -0.74804,15.76172 c -0.243,5.26 -1.77833,9.06197 -4.48633,11.54297 -2.708,2.482 -6.68014,3.7147 -11.99414,3.4707 l -15.460939,-0.71875 c -0.775,-0.035 -1.378906,-0.049 -2.003906,0.20899 -0.626,0.258 -1.107703,0.84184 -1.345703,1.46484 v 0.0606 0.0293 c -1.106,3.758 -1.78661,7.6982 -1.97461,11.7832 -0.179,3.901 0.0953,7.71248 0.779297,11.39648 v 0.0293 c 0.298,1.385 1.643047,2.48627 3.498047,2.57227 l 15.314454,0.6875 c 5.126,0.234 8.92783,1.86731 11.42383,4.69531 2.497,2.827 3.751,6.94786 3.5,12.38086 l -0.65821,14.56445 c -0.043,0.931 0.0108,1.65274 0.29883,2.30274 0.288,0.651 0.84755,1.12995 1.43555,1.37695 l 0.0606,0.0293 h 0.0605 c 3.726,1.087 7.61411,1.76031 11.66211,1.94531 3.958,0.183 7.84217,-0.10355 11.57617,-0.81055 h 0.0293 l 0.0312,-0.0273 c 0.64,-0.161 1.28208,-0.52667 1.70508,-1.13867 0.422,-0.61 0.61225,-1.39104 0.65625,-2.33204 l 0.68945,-14.50585 c 0.246,-5.325 1.88147,-9.33819 4.60547,-11.99219 2.724,-2.652 6.56808,-3.99353 11.45508,-3.76953 l 15.67187,0.71875 c 0.858,0.041 1.58144,0.0452 2.27344,-0.29883 0.692,-0.342 1.15655,-1.01392 1.43555,-1.79492 v -0.0293 -0.0312 c 1.035,-3.632 1.67251,-7.45858 1.85351,-11.39258 0.182,-3.951 -0.10264,-7.81792 -0.80664,-11.54492 v -0.0293 l -0.0469,-0.0566 c -0.163,-0.536 -0.41269,-1.12994 -0.92969,-1.58594 -0.516,-0.456 -1.2428,-0.70904 -2.0918,-0.74804 l -16.17383,-0.7461 c -4.83199,-0.223 -8.54081,-1.81492 -11.00781,-4.54492 -2.467,-2.73 -3.76029,-6.66531 -3.52929,-11.69531 l 0.71679,-15.43164 c 0.034,-0.73 0.12341,-1.36316 -0.0586,-2.03516 -0.181,-0.672 -0.80864,-1.30769 -1.55664,-1.55468 h -0.0293 c -3.7796,-1.12129 -7.75202,-1.8134 -11.86523,-2.00391 h -0.008 c -1.01135,-0.0465 -2.01608,-0.0633 -3.01562,-0.0488 z m 0.0156,1.91016 c 0.96713,-0.0139 1.94193,-3.3e-4 2.91993,0.0449 v 0.006 c 3.9603,0.18213 7.78742,0.86749 11.42382,1.94531 0.233,0.074 0.22849,0.055 0.27149,0.20899 0.046,0.173 0.034,0.69454 0,1.43554 l -0.71875,15.43164 c -0.249,5.405 1.17911,9.90831 4.03711,13.07032 2.857,3.162 7.10626,4.93282 12.32226,5.17382 l 16.17969,0.74805 c 0.548,0.025 0.78474,0.14253 0.92774,0.26953 0.136,0.12 0.22212,0.35645 0.32812,0.68945 0.005,0.018 0.0252,0.0113 0.0312,0.0293 0.659,3.546 0.92105,7.21756 0.74805,10.97656 -0.173,3.767 -0.77963,7.41077 -1.76563,10.88477 -0.196,0.551 -0.28722,0.63975 -0.44922,0.71875 -0.161,0.08 -0.5847,0.15514 -1.3457,0.11914 l -15.67187,-0.7168 c -5.29,-0.242 -9.74863,1.24664 -12.89063,4.30664 -3.141,3.062 -4.91383,7.6033 -5.17383,13.2793 l -0.68945,14.5 c -0.033,0.715 -0.18313,1.1367 -0.32813,1.3457 -0.146,0.211 -0.28665,0.28038 -0.59765,0.35938 -3.57,0.671 -7.27745,0.95234 -11.06445,0.77734 -3.862,-0.177 -7.57,-0.79617 -11.125,-1.82617 -0.01,-0.001 -0.0223,0.004 -0.0313,0 -0.28899,-0.123 -0.33796,-0.17742 -0.41796,-0.35742 -0.084,-0.188 -0.1581,-0.6658 -0.1211,-1.4668 l 0.65821,-14.56445 c 0.267,-5.773 -1.08152,-10.44552 -3.97852,-13.72852 -2.896,-3.28 -7.27753,-5.07026 -12.76953,-5.32226 l -15.314453,-0.71875 c -1.217,-0.056 -1.590079,-0.52763 -1.705078,-1.01563 -0.002,-0.009 0.002,-0.0223 0,-0.0312 -0.653001,-3.531 -0.919047,-7.20226 -0.748047,-10.94726 0.18,-3.908 0.803468,-7.68044 1.855468,-11.27344 0.012,-0.031 0.0193,-0.002 0.0293,-0.0293 0.002,-0.01 -0.003,-0.0223 0,-0.0312 0.091,-0.223 0.136281,-0.28612 0.238282,-0.32812 0.118999,-0.049 0.530562,-0.0925 1.226562,-0.0606 l 15.433586,0.71875 c 5.654,0.26 10.20414,-1.07852 13.36914,-3.97851 3.165,-2.89901 4.85624,-7.29463 5.11524,-12.89063 l 0.74805,-15.73242 c 0.026,-0.558 0.13398,-0.84903 0.20898,-0.95703 0.075,-0.108 0.0848,-0.14469 0.29883,-0.17969 h 0.0293 c 2.75849,-0.5385 5.60448,-0.84114 8.50585,-0.88281 z m -31.44531,12.56054 0.56836,1.91407 1.88281,6.33984 0.44922,1.46484 1.10547,-1.04687 4.24805,-3.85742 1.13672,-1.01758 -1.40625,-0.56836 -6.16016,-2.48047 z m 67.44336,3.10938 -1.91406,0.56836 -6.33984,1.91406 -1.4668,0.41797 1.01758,1.13672 3.88672,4.24609 1.01757,1.10742 0.56836,-1.40625 2.48242,-6.13086 z m -64.48242,0.15039 2.90039,1.16601 -2.0332,1.82422 z m 269.46289,1.58203 c -11.069,0 -20.06641,8.99936 -20.06641,20.06836 0,11.07 8.99741,20.06836 20.06641,20.06836 11.069,0 20.06836,-8.99936 20.06836,-20.06836 10e-4,-11.069 -8.99836,-20.06836 -20.06836,-20.06836 z m -208.27148,1.25781 -1.13672,2.8711 -1.82422,-2.00196 z m 208.27148,0.65625 c 10.035,0 18.1543,8.1203 18.1543,18.1543 0,10.034 -8.1193,18.1543 -18.1543,18.1543 -10.036,0 -18.15234,-8.1203 -18.15234,-18.1543 0,-10.035 8.11634,-18.1543 18.15234,-18.1543 z m -109.84961,5.13868 c -6.732,0 -12.20117,5.47112 -12.20117,12.20312 0,6.733 5.46917,12.20117 12.20117,12.20117 h 34.15625 c 6.732,0 12.20117,-5.46817 12.20117,-12.20117 0,-6.732 -5.46917,-12.20312 -12.20117,-12.20312 z m 0,1.91406 h 34.15625 c 5.697,0 10.28711,4.59106 10.28711,10.28906 0,5.698 -4.59011,10.28711 -10.28711,10.28711 H 270.1133 c -5.698,0 -10.28711,-4.58911 -10.28711,-10.28711 0,-5.698 4.58911,-10.28906 10.28711,-10.28906 z m 235.49414,1.70508 c 14.147,0 25.59961,11.4516 25.59961,25.5996 0,14.148 -11.45261,25.57227 -25.59961,25.57227 -14.148,0 -25.60351,-11.42427 -25.60351,-25.57227 0,-14.14799 11.45451,-25.5996 25.60351,-25.5996 z m -235.49414,0.27734 c -4.586,0 -8.31445,3.72845 -8.31445,8.31445 0,4.586 3.72945,8.31446 8.31445,8.31446 h 34.15625 c 4.587,0 8.34375,-3.72946 8.34375,-8.31446 0,-4.585 -3.75675,-8.31445 -8.34375,-8.31445 z m 0,1.91406 h 34.15625 c 3.553,0 6.42969,2.84744 6.42969,6.39844 0,3.551 -2.87669,6.40039 -6.42969,6.40039 H 270.1133 c -3.551,0 -6.40039,-2.84939 -6.40039,-6.40039 -0.001,-3.551 2.84939,-6.39844 6.40039,-6.39844 z m -130.42773,6.06641 c -6.336,0 -11.48438,5.17962 -11.48438,11.51562 0,6.336 5.14838,11.48243 11.48438,11.48243 6.337,0 11.48437,-5.14643 11.48437,-11.48243 0,-6.336 -5.14737,-11.51562 -11.48437,-11.51562 z m 0,1.91406 c 5.303,0 9.57031,4.29956 9.57031,9.60156 0,5.303 -4.26731,9.56836 -9.57031,9.56836 -5.302,0 -9.57032,-4.26636 -9.57032,-9.56836 0,-5.302 4.26832,-9.60156 9.57032,-9.60156 z m 310.89062,7.33203 c -15.182,0 -27.51562,12.33067 -27.51562,27.51367 0,15.184 12.33362,27.51563 27.51562,27.51563 15.184,0 27.48633,-12.33163 27.48633,-27.51563 0,-15.183 -12.30333,-27.51367 -27.48633,-27.51367 z m 0,1.91406 c 14.147,0 25.57227,11.45161 25.57227,25.59961 0,14.148 -11.42527,25.60157 -25.57227,25.60157 -14.147,0 -25.60156,-11.45257 -25.60156,-25.60157 0,-14.149 11.45356,-25.59961 25.60156,-25.59961 z m -342.37695,23.11329 -0.56836,1.40429 -2.48242,6.13282 -0.7168,1.85351 1.88477,-0.56836 6.33984,-1.88476 1.46484,-0.44922 -1.01562,-1.13672 -3.88867,-4.2168 z m 60.73437,2.8125 -1.10742,1.01757 -4.24609,3.85743 -1.13672,1.01757 1.43555,0.59766 6.13085,2.45312 1.85352,0.74805 -0.59766,-1.91406 -1.88476,-6.3418 z m -60.10742,0.71484 1.82617,2.00586 -2.99218,0.89648 z m 59.15039,2.72461 0.89649,2.99219 -2.89844,-1.16797 z m 231.75977,1.4043 c 14.148,0 25.57226,11.45256 25.57226,25.60156 0,14.149 -11.42426,25.59961 -25.57226,25.59961 -14.148,0 -25.60157,-11.45061 -25.60157,-25.59961 0,-14.149 11.45257,-25.60156 25.60157,-25.60156 z"
   style="fill:#ffffff" />






















</svg>
