<?xml version="1.0" encoding="UTF-8" standalone="no"?>
<!-- Generator: Adobe Illustrator 13.0.0, SVG Export Plug-In . SVG Version: 6.00 Build 14948)  -->

<svg
   version="1.2"
   id="Ebene_1"
   x="0px"
   y="0px"
   width="1107.1927"
   height="139.1586"
   viewBox="-373.657 52.361 1107.1928 139.1586"
   xml:space="preserve"
   sodipodi:docname="system.svg"
   inkscape:version="1.1.2 (0a00cf5339, 2022-02-04)"
   xmlns:inkscape="http://www.inkscape.org/namespaces/inkscape"
   xmlns:sodipodi="http://sodipodi.sourceforge.net/DTD/sodipodi-0.dtd"
   xmlns="http://www.w3.org/2000/svg"
   xmlns:svg="http://www.w3.org/2000/svg"
   xmlns:ns="&amp;ns_sfw;"><defs
   id="defs26">
	
	
	
	
	
	
	
	
	

	
	
	
</defs><sodipodi:namedview
   id="namedview24"
   pagecolor="#ffffff"
   bordercolor="#666666"
   borderopacity="1.0"
   inkscape:pageshadow="2"
   inkscape:pageopacity="0.0"
   inkscape:pagecheckerboard="0"
   showgrid="false"
   fit-margin-top="0"
   fit-margin-left="0"
   fit-margin-right="0"
   fit-margin-bottom="0"
   inkscape:zoom="0.73681592"
   inkscape:cx="523.19716"
   inkscape:cy="-30.536799"
   inkscape:window-width="1920"
   inkscape:window-height="996"
   inkscape:window-x="0"
   inkscape:window-y="0"
   inkscape:window-maximized="1"
   inkscape:current-layer="Ebene_1" />
<metadata
   id="metadata2">
	<ns:sfw>
		<ns:slices />
		<ns:sliceSourceBounds
   height="123.153"
   width="891.18"
   y="447.639"
   x="352.163"
   bottomLeftOrigin="true" />
	</ns:sfw>
</metadata>

<g
   id="g904"
   transform="translate(99.999994)"><path
     id="path843"
     d="m 278.16648,52.378893 c -9.4195,0.262738 -18.81901,1.535326 -27.95744,3.838546 -11.1349,2.916014 -21.60098,8.050497 -31.10619,14.496883 -1.93323,1.275134 -3.81131,2.647999 -5.75473,3.896993 -2.43578,0.696314 -5.13714,0.754966 -7.25801,2.30205 -3.88726,2.476437 -5.49187,8.101024 -3.11425,12.135754 1.80379,3.28652 4.94911,5.47482 7.52079,8.10586 5.53101,5.187001 10.98335,10.464371 16.61762,15.537011 3.40043,2.65148 8.6198,3.18271 12.15768,0.50331 3.26757,-2.31684 4.35012,-6.74628 3.5412,-10.52669 -0.21418,-1.09757 0.8066,-1.91509 1.42581,-2.684831 2.44307,-2.4182 5.44831,-4.16033 8.36856,-5.93096 3.07874,-1.7738 6.32089,-3.26598 9.6742,-4.4415 0.7198,-0.25827 1.90143,-0.63081 2.63476,-0.847661 5.12761,-1.503416 10.49957,-2.212553 15.8418,-1.9375 0.44695,0.03068 1.08807,0.05062 1.5788,0.09233 5.32908,0.385585 10.73945,1.397111 15.49689,3.924311 1.45284,0.83287 3.0254,1.87216 3.6171,3.51318 0.1402,1.59836 -1.01395,2.93356 -1.9097,4.13639 -2.18617,2.649781 -5.14185,4.511121 -8.16004,6.075981 -0.37081,0.1809 -0.94052,0.48798 -1.36894,0.69068 -5.15798,2.5137 -10.62252,4.41647 -15.92985,6.4938 -8.9205,3.40691 -17.94842,6.65776 -26.85064,10.17117 -10.40997,4.31216 -20.65592,9.27408 -29.7488,15.98958 -4.68712,3.59417 -9.04483,7.65753 -12.7717,12.24656 -0.50006,0.65965 -0.99221,1.32586 -1.45312,2.01368 1.81592,-10.03424 -1.56623,-20.85063 -8.822,-28.02718 -2.97807,-3.06654 -6.37025,-5.72668 -10.03933,-7.91814 3.08592,-2.19937 5.63546,-5.15296 7.22101,-8.6052 3.98495,-8.038131 4.08823,-17.830861 0.39506,-25.99347 -3.22821,-7.284164 -9.21276,-13.035798 -15.99889,-17.04771 -7.75775,-4.539373 -16.28063,-7.783769 -25.11592,-9.459773 -12.66238,-2.651461 -25.70944,-2.886771 -38.57609,-1.986703 -11.11187,0.855868 -22.210368,2.890272 -32.645249,6.879429 -7.227297,2.782482 -13.90991,6.740217 -20.901716,10.031376 -0.767855,0.415882 -1.587612,0.681426 -2.470612,0.625805 -1.954374,0.0021 -3.944173,0.277485 -5.679017,1.230103 -3.807933,1.971463 -5.790894,6.850626 -4.367325,10.910146 0.960806,3.244115 3.78235,5.343101 5.986654,7.723256 5.342277,5.42204 10.627727,10.902751 15.970889,16.321481 3.042698,2.70853 7.78469,3.4199 11.384334,1.41033 3.531242,-1.83698 5.647518,-5.89067 5.366135,-9.830751 0.105241,-0.53806 0.892334,-0.71219 1.262771,-1.10871 4.2867,-3.03186 9.106254,-5.23962 14.114866,-6.78003 8.175,-2.543078 16.76041,-3.486589 25.28943,-3.753167 6.04927,-0.0044 12.10679,1.028784 17.80908,3.043517 2.28499,0.92625 4.57446,2.23975 5.91553,4.38031 -2.56852,2.94697 -6.22416,4.75702 -10.02149,5.51953 -5.46558,1.124681 -11.05381,1.529221 -16.62639,1.582321 -3.28124,0.035 -6.57823,0.1888 -9.8488,-0.13692 -1.55305,-0.16107 -3.03606,-0.73326 -4.29563,-1.652641 -3.61826,-2.37941 -8.896072,-1.84832 -11.832978,1.382961 -2.039628,2.15094 -2.72716,5.19923 -2.678977,8.08754 0.04561,7.2544 -0.137242,14.51628 0.159574,21.76551 0.569376,4.68295 5.119693,8.59802 9.879351,8.10334 2.28887,-0.10711 4.35849,-1.26874 6.13772,-2.62829 1.93518,-0.98264 4.17862,-1.01947 6.29823,-1.21219 4.01167,-0.20494 8.14093,-0.20429 12.21923,-0.12564 6.4279,0.10579 12.86616,1.03464 18.99527,2.99829 3.34607,1.14746 6.69575,2.64963 9.27895,5.12283 1.01223,0.98005 1.29684,2.79104 0.19531,3.82031 -1.92368,2.76881 -4.87778,4.71779 -8.10744,5.61969 -6.81177,2.36922 -14.05498,3.1657 -21.23045,3.36273 -1.38416,0.0299 -2.99982,0.0463 -4.47461,0.0469 -1.49569,-0.009 -2.92726,-0.0312 -4.30435,-0.10375 -8.89868,-0.37116 -17.71607,-1.95532 -26.305019,-4.27125 -1.009196,-0.26925 -2.254861,-0.6736 -3.344911,-1.02755 -5.37476,-1.77178 -10.753716,-3.98688 -15.102355,-7.69706 -0.785282,-0.95536 -0.713025,-2.29941 -1.347656,-3.34375 -1.712572,-3.62744 -5.671989,-6.1004 -9.707031,-5.80469 -3.683538,0.18616 -7.0706,2.50569 -8.793697,5.73396 -3.976488,6.44622 -7.959561,12.89101 -11.784428,19.42815 -1.429176,2.55074 -3.092598,5.17689 -3.118433,8.20351 -0.196271,4.12466 2.891278,8.00862 6.863171,8.98004 2.317744,0.61014 4.756602,0.36751 7.057996,-0.18746 1.925213,0.31477 3.630914,1.34516 5.454761,1.98613 9.370936,4.00963 19.164004,6.99941 29.149142,9.03104 13.53096,2.82944 27.40425,3.97153 41.21774,3.5689 7.11762,-0.23992 14.23359,-0.7955 21.27935,-1.84439 11.97223,-1.9207 23.90506,-5.36559 34.27429,-11.80144 4.37407,-2.70723 8.58408,-5.81586 11.89229,-9.7918 -0.91833,3.80212 -1.48584,7.7154 -1.45181,11.63099 0.15923,3.52766 2.05834,7.1232 5.36392,8.62487 3.19676,1.54598 6.82444,0.9614 10.24571,1.07213 41.69929,-0.006 83.39932,-0.0188 125.09816,0.0134 1.54621,0.15645 3.33108,0.0183 4.52065,1.20761 3.2958,2.45042 8.17583,2.80858 11.56322,0.33771 1.12695,-0.79474 2.06637,-1.85247 2.73047,-3.06055 1.90264,1.1743 4.18297,1.36964 6.36596,1.32509 14.41643,-0.0394 28.83628,0.0894 43.25116,-0.0651 4.05566,-0.25798 8.02037,-3.275 8.64847,-7.41198 0.2111,-1.10736 0.16699,-2.25322 -0.0527,-3.35584 9.38973,-9.95113 19.06831,-19.62369 28.79101,-29.24805 9.60594,9.72458 19.16956,19.49087 28.73438,29.25586 -0.75669,3.76247 1.14612,7.96425 4.66575,9.61949 3.10311,1.64504 6.70776,1.11557 10.07761,1.20497 13.13219,-0.0105 26.26652,0.0515 39.39727,-0.0734 4.46006,-0.32853 8.6184,-4.09622 8.78441,-8.67353 0.27067,-4.24093 -2.82142,-8.27949 -6.85603,-9.43437 -2.57166,-1.0667 -5.61209,-1.32014 -7.64643,-3.4106 -2.45976,-2.21721 -4.57468,-4.78136 -6.96062,-7.07544 -9.63057,-9.94195 -19.61471,-19.53393 -29.19269,-29.52731 -3.69119,-4.05651 -7.53357,-7.97304 -11.44115,-11.82123 11.53669,-11.96437 23.41481,-23.593651 35.04316,-35.466611 2.62272,-2.621287 5.1851,-5.313145 7.90369,-7.832121 1.72569,-1.366143 3.90003,-1.880968 5.97929,-2.435121 2.99234,-0.892373 5.94518,-2.766076 7.10902,-5.793491 1.84795,-4.19748 -0.0618,-9.636048 -4.19336,-11.673828 -3.03191,-1.609838 -6.55521,-1.098994 -9.84922,-1.191753 -13.30004,0.0085 -26.60217,-0.05128 -39.90081,0.06348 -4.00762,0.223864 -7.91393,3.214995 -8.53253,7.294459 -0.23546,1.246771 -0.14537,2.538837 0.16147,3.765456 -7.75391,7.816406 -15.50782,15.632812 -23.26172,23.449218 -7.70573,-7.792317 -15.41146,-15.584635 -23.11719,-23.376953 0.91854,-3.300431 -0.26742,-7.096978 -3.03906,-9.15625 -2.449,-1.904632 -5.69245,-2.204148 -8.68711,-2.043114 -14.33311,0.0129 -28.66898,-0.06043 -43.00029,0.06674 -4.58417,0.37577 -8.52167,4.577227 -8.43956,9.206847 -0.13474,4.392609 3.30659,8.45512 7.56882,9.320127 2.42364,0.751852 5.16262,1.148581 6.97779,3.098106 2.35907,2.215031 4.48003,4.667729 6.81035,6.912839 11.77959,11.994519 23.61886,23.93019 35.43797,35.88573 -3.76501,3.67926 -7.24882,7.63375 -10.94535,11.38113 -8.28502,8.46141 -16.69757,16.79552 -25.00102,25.23736 -3.68567,3.7008 -7.31561,7.45951 -11.05168,11.10807 -2.17684,1.91418 -4.85386,3.32569 -7.75,3.70312 -0.55613,0.14973 -1.10807,0.32523 -1.63086,0.56836 -0.0231,-3.81573 0.0283,-7.63718 -0.1171,-11.44887 -0.38039,-3.83351 -3.17295,-7.48658 -7.03915,-8.28355 -3.2757,-0.76017 -6.81896,0.40519 -9.21289,2.71289 -1.53665,0.44034 -3.18394,0.2281 -4.76797,0.28357 -24.56693,0.006 -49.13386,0.006 -73.70078,-0.008 6.25238,-2.79057 12.72875,-5.04134 19.29167,-6.97922 6.73394,-2.00086 13.4726,-3.98979 20.10931,-6.29768 8.44334,-2.90807 16.9811,-5.81151 24.68915,-10.40347 6.17474,-3.6787 11.96609,-8.27717 16.10713,-14.21416 3.75891,-5.40646 5.94745,-11.9196 5.96909,-18.520911 0.0609,-6.67774 -1.75141,-13.387401 -5.22885,-19.09237 -3.46416,-5.412055 -8.39467,-9.770009 -13.80976,-13.164127 -6.23792,-3.813159 -13.15131,-6.376372 -20.13809,-8.441186 -9.7305,-2.793818 -19.87769,-4.114671 -29.99942,-3.923984 z M -30.644062,55.56444 c -11.312173,0.297914 -22.479405,6.428994 -28.263096,16.247269 -2.67911,4.561423 -3.874063,9.768973 -5.682792,14.694572 -4.210746,12.384618 -8.421492,24.769239 -12.632237,37.153859 0.0058,-13.75719 0.04882,-27.514311 0.003,-41.27148 -0.0063,-8.315102 3.12e-4,-16.630209 -9.99e-4,-24.945314 -21.455732,0.01297 -42.912784,-0.05284 -64.367644,0.06021 -10.96315,0.514357 -21.56264,5.792078 -28.72611,14.08237 0,-4.71224 0,-9.424479 0,-14.136719 -21.97862,0.01189 -43.95848,-0.05392 -65.93631,0.05074 -11.89993,0.531634 -23.37585,6.689382 -30.509,16.21098 -0.009,-5.421875 -0.0171,-10.843752 -0.0273,-16.265625 -20.80352,0.0091 -41.60819,-0.06384 -62.41096,0.04413 -14.19632,0.590432 -27.89239,8.158791 -35.98489,19.832981 -7.19077,10.214958 -10.05513,23.381867 -7.62713,35.648347 1.89163,9.81248 7.00394,18.99082 14.41165,25.70696 -5.08138,0.001 -10.16276,0.004 -15.24414,0.004 0.0168,17.61263 0.0168,35.22526 0,52.83789 20.91287,-0.0308 41.8271,0.0226 62.73902,-0.11573 14.54098,-0.66065 28.53912,-8.64224 36.48619,-20.84288 0.93464,-1.40783 1.79035,-2.86814 2.5658,-4.36952 3.82327,9.24041 11.12938,16.99991 20.19711,21.24508 6.15699,2.91657 13.02896,4.23208 19.82789,3.95039 20.43112,0.008 40.86224,0.0171 61.29336,0.0233 0.007,-4.81652 -0.0325,-9.76375 0.004,-14.49804 6.42931,7.60053 15.69763,12.73954 25.57127,14.06981 4.33536,0.66903 8.72808,0.33787 13.09318,0.40782 57.658209,0.013 115.304405,0.003 172.962503,0.007 C 28.154063,153.0266 15.260619,114.63896 2.2678758,76.286102 -1.7053519,66.016103 -11.370833,58.414289 -22.096765,56.301827 -24.902581,55.715301 -27.78012,55.48736 -30.644062,55.56444 Z m -244.328128,54.62695 c 0,2.64193 0,5.28386 0,7.92579 -2.00812,-2.8933 -4.34491,-5.55702 -6.94922,-7.92774 2.31641,6.5e-4 4.63281,10e-4 6.94922,0.002 z m 94.73438,0.006 c 0.002,9.48828 0.004,18.97657 0.006,28.46485 -0.65495,0 -1.3099,0 -1.96485,0 0,-9.48828 0,-18.97657 0,-28.46485 0.653,0 1.30599,0 1.95899,0 z m 150.933591,30.21094 c 0.549654,0.28185 -0.189231,0.8933 -0.320312,0.39258 6.99e-4,-0.11106 0.158944,-0.6719 0.320312,-0.39258 z" /><g
     id="g10"
     transform="translate(3.7211717,-11.117201)">
	<path
   fill="#aa0000"
   d="m 341.373,193.968 c -2.26,-2.385 -8.34,-2.6 -9.285,-2.6 -42.588,0 -85.172,-0.002 -127.764,0.002 -4.329,0 -5.108,0.531 -4.578,-4.957 0.868,-8.979 4.167,-17.322 10.688,-23.766 1.249,-1.271 1.666,-1.699 4.52,-4.287 12.092,-10.957 36.181,-19.742 36.181,-19.742 0,0 20.16,-7.443 31.48,-11.896 5.084,-2 10.049,-4.311 14.577,-7.445 16.421,-12.943 7.894,-25.79 -13.755,-28.781 -15.163,-2.17 -28.979,1.533 -41.748,9.677 -1.667,1.063 -3.074,2.125 -4.684,3.281 -2.856,2.414 -5.307,5.229 -5.836,8.34 -0.286,1.681 -0.013,2.838 0.021,3.112 0.108,0.871 0.375,2.25 -0.272,2.884 -0.778,0.76 -2.394,-0.002 -3.111,-0.681 -6.58,-6.219 -13.172,-12.424 -19.759,-18.637 -0.412,-0.389 -1.173,-1.221 -1.173,-1.221 0,0 -0.72,-0.834 -0.745,-1.406 -0.029,-0.644 0.604,-1.249 1.36,-1.485 3.589,-0.661 5.245,-0.873 7.399,-2.448 5.797,-4.237 11.855,-8.025 18.325,-11.18 8.651,-4.219 17.747,-6.726 27.272,-8.01 7.325,-0.988 28.84,-4.338 53.973,6.837 6.629,2.907 12.313,7.024 16.598,12.831 2.535,3.437 12.098,22.281 -7.383,37.333 -6.963,5.588 -15.271,9.038 -23.674,11.971 -7.188,2.512 -12.465,4.396 -24.227,7.795 -8.932,2.658 -15.342,4.736 -25.563,9.586 -8.129,3.855 -13.465,8.543 -13.465,8.543 0,0 -2.662,2.053 -2.147,3.658 0.446,1.395 2.668,1.254 3.975,1.258 31.445,0.02 62.892,0.014 94.337,0.016 3.254,0 6.408,-0.229 8.893,-2.783 0.361,-0.373 1.318,-0.574 1.75,-0.356 0.414,0.207 0.703,1.061 0.707,1.633 0.049,7.365 0.051,14.894 0.008,22.258 -0.006,0.716 -0.238,0.972 -0.596,1.179 -0.538,0.308 -1.678,0.142 -2.299,-0.513 z"
   id="path4" />
	<path
   fill="#aa0000"
   d="m 107.1,193.042 c -5.159,-0.314 -10.332,-0.979 -15.427,-1.879 -20.739,-3.656 -30.385,-8.555 -36.174,-10.826 -2.766,-1.086 -5.47,-2.113 -8.476,-1.012 -0.343,0.127 -0.745,0.119 -1.121,0.127 -1.911,0.021 -2.496,-0.723 -1.666,-2.428 0.989,-2.031 2.148,-3.984 3.317,-5.926 3.167,-5.252 6.376,-10.479 9.57,-15.718 0.147,-0.239 0.315,-0.471 0.46,-0.715 0.651,-1.09 1.366,-2.101 2.858,-1.892 1.403,0.197 1.706,1.354 2,2.451 0.642,2.388 2.099,4.166 4.016,5.646 4.536,3.511 9.659,5.873 15.033,7.748 6.969,2.431 14.143,3.953 21.429,5.097 8.627,1.354 17.299,1.526 25.961,1.024 7.342,-0.428 14.576,-1.752 21.498,-4.457 4.213,-1.646 7.409,-4.553 9.968,-8.104 3.395,-4.711 2.004,-11.188 -2.622,-14.871 -6.284,-5.002 -13.592,-6.979 -21.333,-8.31 -6.96,-1.192 -13.912,-1.065 -20.879,-0.976 -3.271,0.043 -11.09,0.354 -14.087,3.136 -1.104,0.972 -1.979,1.045 -2.504,0.571 -0.525,-0.477 -0.548,-1.229 -0.554,-1.885 -0.059,-6.802 -0.066,-13.604 -0.021,-20.401 0.015,-2.229 1.054,-2.902 2.78,-1.693 2.18,1.527 4.599,2.195 7.125,2.519 4.196,0.539 17.892,0.063 20.69,-0.303 7.481,-0.978 6.828,-0.859 11.194,-2.029 4.673,-1.252 9.131,-4.53 11.458,-7.241 0.038,-0.043 0.076,-0.089 0.113,-0.134 3.244,-3.907 2.154,-8.405 -0.864,-11.626 -2.898,-3.09 -6.541,-5.069 -10.597,-6.267 -6.647,-1.96 -13.456,-3.032 -20.365,-2.707 -12.507,0.588 -24.774,2.497 -36.083,8.316 -2.589,1.332 -5.016,3.008 -7.407,4.686 -2.042,1.433 -3.07,3.531 -3.128,6.056 -0.03,1.313 0.18,2.815 -1.379,3.39 -1.573,0.578 -2.388,-0.791 -3.285,-1.701 -5.76,-5.853 -11.496,-11.727 -17.238,-17.598 -0.33,-0.337 -0.698,-0.658 -0.942,-1.053 -0.694,-1.123 -0.267,-2.054 1.063,-2.208 1.488,-0.172 3.082,0.063 4.464,-0.387 2.042,-0.665 3.952,-1.753 5.895,-2.707 5.165,-2.533 10.195,-5.386 15.502,-7.57 8.405,-3.458 17.25,-5.316 26.285,-6.437 8.648,-1.073 23.906,-1.519 34.944,0.111 7.378,1.115 14.691,2.597 21.539,5.649 6.041,2.692 11.94,5.698 16.45,10.779 3.26,3.672 5.449,7.775 6.183,12.751 0.704,4.771 -0.081,9.127 -2.12,13.406 -1.404,2.946 -3.504,4.854 -6.393,6.588 -5.668,3.397 -9.024,4.248 -9.741,4.687 -1.14,0.692 -1.19,1.616 -0.027,2.282 1.046,0.601 2.248,0.953 3.413,1.315 6.821,2.13 12.679,5.873 17.563,11.002 3.567,3.744 5.68,8.23 6.39,13.535 0.726,5.435 -0.549,10.236 -2.896,14.957 -1.827,3.677 -4.856,6.263 -8.043,8.605 -6.444,4.744 -13.622,7.955 -21.316,10.232 -5.727,1.691 -11.531,2.842 -17.409,3.619 -20.096,2.202 -30.361,1.064 -35.064,0.776 z"
   id="path6" />
	<path
   fill="#aa0000"
   d="m 383.914,72.788 c 6.705,0 13.41,0 20.117,0.001 0.66,0 1.328,-0.05 1.98,0.028 1.494,0.178 1.725,0.81 0.787,2.032 -1.676,2.182 -1.662,2.417 0.246,4.435 0.063,0.069 0.133,0.134 0.199,0.201 9.354,9.465 18.715,18.931 28.074,28.396 0.465,0.472 0.898,0.979 1.438,1.361 0.939,0.676 1.945,0.688 2.869,-0.056 0.514,-0.412 0.969,-0.897 1.434,-1.369 9.24,-9.317 18.48,-18.638 27.719,-27.96 0.334,-0.335 0.682,-0.659 0.977,-1.026 1.232,-1.531 1.203,-2.073 0.053,-3.714 -1.035,-1.398 -1.035,-2.249 1.076,-2.302 0.461,-0.012 0.939,-0.026 1.412,-0.026 13.6,0 27.199,-0.003 40.799,0.005 0.844,0 1.711,-0.01 2.525,0.169 0.348,0.076 0.771,0.6 0.83,0.971 0.057,0.367 -0.199,1.01 -0.504,1.162 -0.918,0.461 -1.902,0.855 -2.906,1.075 -3.807,0.832 -6.908,2.712 -9.66,5.516 -11.838,12.063 -23.799,24.003 -35.695,36.012 -2.98,3.016 -5.918,6.092 -8.842,9.17 -1.85,1.944 -1.854,2.862 0.021,4.78 3.295,3.36 6.68,6.634 9.959,10.009 2.43,2.5 4.688,5.17 7.137,7.647 6.508,6.582 13.096,13.082 19.613,19.652 4.387,4.422 8.736,8.881 13.047,13.377 2.482,2.594 5.373,4.4 8.861,5.293 1.271,0.322 2.514,0.807 3.715,1.338 0.326,0.146 0.666,0.764 0.617,1.109 -0.051,0.354 -0.516,0.813 -0.891,0.932 -0.613,0.193 -1.301,0.195 -1.955,0.195 -13.883,0.01 -27.766,0.008 -41.648,0.002 -0.563,0 -1.15,0.012 -1.684,-0.141 -0.883,-0.252 -1.217,-0.783 -0.67,-1.699 0.459,-0.771 1.186,-1.648 1.102,-2.402 -0.092,-0.801 -0.914,-1.588 -1.559,-2.242 -10.768,-10.99 -21.557,-21.961 -32.342,-32.934 -0.396,-0.404 -0.795,-0.809 -1.203,-1.201 -2.383,-2.303 -3.256,-2.332 -5.645,0.043 -6.895,6.857 -13.801,13.715 -20.633,20.641 -4.438,4.498 -8.764,9.107 -13.129,13.68 -1.645,1.722 -1.645,1.83 -0.395,4.113 0.713,1.306 0.443,1.879 -1.045,2.092 -0.646,0.095 -1.316,0.058 -1.98,0.058 -13.41,0.002 -26.818,0.019 -40.229,-0.022 -1.205,-0.004 -3.223,0.323 -3.326,-1.144 -0.211,-1.533 1.641,-1.61 2.729,-1.867 4.885,-1.143 8.611,-3.928 12.064,-7.471 11.008,-11.291 22.199,-22.397 33.279,-33.619 3.439,-3.483 6.729,-7.119 10.127,-10.646 1.311,-1.354 2.764,-2.567 4.104,-3.896 2.799,-2.776 2.813,-3.519 0.117,-6.235 -8.166,-8.261 -16.348,-16.498 -24.508,-24.763 -6.633,-6.715 -13.291,-13.408 -19.84,-20.205 -2.521,-2.617 -5.482,-4.244 -8.967,-5.059 -0.643,-0.15 -1.273,-0.349 -1.904,-0.544 -0.896,-0.277 -2.004,-0.489 -1.881,-1.71 0.125,-1.243 1.217,-1.243 2.188,-1.241 0.568,0.001 1.135,-0.002 1.701,-0.002 6.712,10e-4 13.419,10e-4 20.125,10e-4 z"
   id="path8" />
</g><g
     id="g21"
     transform="translate(3.7211717,-11.117201)">
	<path
   id="path2898_1_"
   fill="#0584db"
   d="m -369.356,194.63 52.284,-0.042 c 21.383,0 38.716,-17.33 38.716,-38.716 0,-21.38 -17.332,-38.713 -38.716,-38.713 l -13.576,0.065 c -1.083,0 -1.958,-0.878 -1.958,-1.957 0,-1.089 0.876,-1.964 1.958,-1.964 l 52.156,0.007 0.031,-16.392 h -52.198 c -10.117,0 -18.314,8.201 -18.314,18.313 0,10.115 8.197,18.313 18.314,18.313 l 13.642,0.153 c 12.244,0 22.168,9.922 22.168,22.163 0,12.248 -9.923,22.17 -22.168,22.17 h -52.319 l -0.02,16.6" />
	<path
   id="path2900_1_"
   fill="#0584db"
   d="m -369.336,174.172 h 52.319 c 10.117,0 18.313,-8.195 18.313,-18.313 0,-10.109 -8.198,-18.31 -18.313,-18.31 l -13.642,-0.148 c -12.245,0 -22.168,-9.922 -22.168,-22.171 0,-12.242 9.924,-22.165 22.168,-22.165 l 52.198,-0.023 -0.031,-16.479 -52.156,-0.016 c -21.382,0 -38.715,17.335 -38.715,38.72 0,21.379 17.332,38.71 38.715,38.71 l 13.495,0.011 c 1.047,0 1.892,0.848 1.892,1.896 0,1.044 -0.845,1.895 -1.892,1.895 l -52.203,0.02 0.02,16.373" />
	<path
   id="path2902_1_"
   fill="#0584db"
   d="m -237.837,178.134 c -9.057,0 -16.487,-7.256 -16.487,-16.482 v -52.407 c 0,-8.885 7.431,-16.233 16.487,-16.233 l 55.806,0.015 -0.004,-16.459 -55.802,-0.011 c -18.148,0 -32.856,14.714 -32.856,32.856 v 52.239 c 0,18.143 14.709,32.853 32.856,32.853 l 55.574,0.023 -0.02,-16.416 -55.554,0.022" />
	<path
   id="path2904_1_"
   fill="#0584db"
   d="m -250.323,109.412 c 0,-6.92 5.563,-12.529 12.486,-12.529 h 55.806 l -0.004,16.433 h -48.078 c -3.851,10e-4 -3.897,3.873 -3.897,3.873 h 40.089 l 0.012,16.38 h -56.444 l 0.03,-24.157" />
	<path
   id="path2906_1_"
   fill="#0584db"
   d="m -237.837,174.15 c -6.905,0 -12.502,-5.6 -12.502,-12.499 l -0.011,-24.17 h 56.445 l -0.013,16.429 h -40.095 c 0.046,3.866 3.899,3.871 3.899,3.871 h 47.851 l -0.02,16.349 -55.554,0.02" />
	<path
   id="path2908_1_"
   fill="#0584db"
   d="m -142.932,178.092 c -9.06,0 -16.442,-7.386 -16.442,-16.44 v -52.239 c 0,-9.053 7.34,-16.399 16.397,-16.399 l 54.028,-0.01 0.007,-16.442 -54.162,-0.003 c -18.147,0 -32.855,14.712 -32.855,32.855 v 52.24 c 0,18.143 14.84,32.852 32.984,32.852 l 54.033,0.024 -0.003,-77.356 h -46.439 v 16.396 h 30.023 v 44.528 l -37.571,-0.006" />
	<path
   id="path2910_1_"
   fill="#0584db"
   d="m -155.507,161.651 c 0,6.916 5.609,12.614 12.529,12.614 l 33.744,0.002 v -36.823 h -26.11 v 16.45 h 9.691 l 0.04,3.872 -9.642,-0.014 c -2.13,0 -3.856,-1.729 -3.856,-3.858 l -0.06,-36.745 c 0,0 -0.01,-3.831 3.873,-3.911 h 46.396 l -0.046,-16.399 -54.028,0.042 c -6.919,0 -12.527,5.611 -12.527,12.528 v 52.242" />
	<path
   id="path2912_1_"
   fill="#0584db"
   d="m -38.173,96.609 c 0.728,-2.088 2.716,-3.593 5.051,-3.593 2.342,0 4.336,1.511 5.057,3.605 l 26.207,77.729 h -38.378 l 0.04,-18.279 h 12.84 l -5.795,-17.212 -18.807,55.651 h -19.386 l 33.171,-97.901" />
	<path
   id="path2914_1_"
   fill="#0584db"
   d="m 3.443,178.097 h -43.62 v 16.418 H 26.236 L -8.312,91.994 c -3.026,-9.996 -12.989,-17.333 -24.82,-17.333 -11.818,0 -21.777,7.333 -24.811,17.314 l -34.865,102.536 h 17.388 l 33.823,-99.679 c 1.383,-3.298 4.638,-5.62 8.438,-5.62 3.797,0 7.042,2.302 8.428,5.59 l 28.174,83.295" />
</g></g>
</svg>
