<?xml version="1.0" encoding="UTF-8" standalone="no"?>
<!-- Generator: Adobe Illustrator 13.0.0, SVG Export Plug-In . SVG Version: 6.00 Build 14948)  -->

<svg
   version="1.2"
   id="Layer_3"
   x="0px"
   y="0px"
   width="509.39395"
   height="335.27014"
   viewBox="0 0 509.39393 335.27013"
   xml:space="preserve"
   sodipodi:docname="controller.svg"
   inkscape:version="1.1.2 (0a00cf5339, 2022-02-04)"
   xmlns:inkscape="http://www.inkscape.org/namespaces/inkscape"
   xmlns:sodipodi="http://sodipodi.sourceforge.net/DTD/sodipodi-0.dtd"
   xmlns="http://www.w3.org/2000/svg"
   xmlns:svg="http://www.w3.org/2000/svg"
   xmlns:rdf="http://www.w3.org/1999/02/22-rdf-syntax-ns#"
   xmlns:cc="http://creativecommons.org/ns#"
   xmlns:dc="http://purl.org/dc/elements/1.1/"
   xmlns:ns="&amp;ns_sfw;"><defs
   id="defs31" /><sodipodi:namedview
   id="namedview29"
   pagecolor="#ffffff"
   bordercolor="#666666"
   borderopacity="1.0"
   inkscape:pageshadow="2"
   inkscape:pageopacity="0.0"
   inkscape:pagecheckerboard="0"
   showgrid="false"
   fit-margin-top="0"
   fit-margin-left="0"
   fit-margin-right="0"
   fit-margin-bottom="0"
   inkscape:zoom="1.0263804"
   inkscape:cx="169.04064"
   inkscape:cy="200.21817"
   inkscape:window-width="1920"
   inkscape:window-height="996"
   inkscape:window-x="0"
   inkscape:window-y="0"
   inkscape:window-maximized="1"
   inkscape:current-layer="Layer_3" />
<metadata
   id="metadata55">
	<rdf:RDF>
		<cc:Work
   rdf:about="">
			<dc:format>image/svg+xml</dc:format>
			<dc:type
   rdf:resource="http://purl.org/dc/dcmitype/StillImage" />
			
		</cc:Work>
	</rdf:RDF>
	<ns:sfw>
		<ns:slices />
		<ns:sliceSourceBounds
   x="-7231"
   y="-7652"
   width="16383"
   height="16383"
   bottomLeftOrigin="true" />
	</ns:sfw>
</metadata>
<path
   id="path867"
   style="fill:#000000"
   d="m 405.72086,0.01515746 c -7.71891,0.1892934 -15.49711,1.04787474 -22.87341,3.41553754 -1.99581,0.7887205 -3.76073,2.1862001 -4.92542,3.9946191 -3.94386,1.527111 -7.84864,3.2793659 -11.33722,5.6881019 -3.49083,2.778755 -5.14021,7.134211 -6.29195,11.30475 -1.9474,7.296468 -2.49743,14.865711 -2.96848,22.374335 -4.4238,2.885696 -8.59568,6.156576 -12.46094,9.75586 -60.11393,-10e-7 -120.22787,-10e-7 -180.3418,0 -3.86302,-3.598582 -8.03443,-6.866589 -12.45703,-9.75 -0.50672,-8.03546 -1.09098,-16.162699 -3.41406,-23.914063 -1.15793,-3.717651 -2.84217,-7.547879 -6.0557,-9.93341 -2.88788,-1.996651 -6.10877,-3.4596889 -9.33088,-4.8275559 -0.60595,-0.330225 -1.40909,-0.407647 -1.90089,-0.867181 C 129.67809,4.6910996 126.78077,3.1909172 123.827,2.620661 113.45707,-0.04747094 102.60889,-0.49080454 91.975018,0.45262236 c -5.28941,0.5220476 -10.58103,1.41301804 -15.62721,3.10941014 -1.86538,0.7990309 -3.42829,2.2603926 -4.38476,4.0468746 -3.73428,1.413581 -7.43179,2.9966429 -10.86106,5.0485419 -3.10189,2.234158 -4.46092,5.992544 -5.57619,9.492599 -2.445937,8.057287 -3.287703,16.469117 -4.482674,24.771359 -17.833465,11.640972 -31.436713,29.628536 -37.667864,50.003166 -1.234056,4.003457 -2.197621,8.090957 -2.875105,12.225347 -1.0430824,0.60141 -1.1585274,1.89812 -1.1247124,2.9832 -2.776036,44.01914 -5.402179,88.04775 -7.920612,132.08233 C 0.92285864,254.13036 0.28612664,264.04217 3.8863865e-4,273.96787 -0.05365136,288.73961 5.5302456,303.43223 15.336941,314.47434 c 9.778223,11.12064 23.685334,18.56314 38.408984,20.30849 7.549143,0.93593 15.360513,0.60878 22.637723,-1.72832 6.46289,-2.11656 12.27393,-6.03635 16.80732,-11.08958 6.979522,-7.57836 11.494452,-16.94526 16.329972,-25.93647 11.87612,-22.31929 23.37244,-44.84216 35.48164,-67.0378 1.67381,-3.03812 3.31684,-6.03356 5.04023,-8.9939 3.01138,-5.06155 6.00804,-10.35061 10.63899,-14.12809 3.77368,-3.10546 8.76153,-4.03966 13.5063,-4.3945 6.86155,-0.44198 13.74315,-0.38121 20.61557,-0.43976 17.14206,0.001 34.28318,0.24099 51.42537,0.21466 16.40176,-10e-4 32.80371,0.0213 49.2049,-0.14019 11.70466,-0.079 23.41275,-0.16154 35.11504,0.12893 5.14058,0.19005 10.62214,0.42187 15.35337,2.79017 4.6415,2.48201 7.83896,6.86646 10.59927,11.2165 0.76224,1.19333 1.47587,2.37334 2.15256,3.52798 5.91113,10.24711 11.4164,20.72143 16.96872,31.16544 9.4377,17.88692 18.74522,35.84249 28.31324,53.65963 4.26634,7.94038 9.00024,15.87557 15.84479,21.88336 5.33561,4.75496 12.06596,7.81981 19.08948,9.03171 10.20344,1.69437 20.82349,0.49399 30.50825,-3.07983 13.04459,-4.79449 24.2905,-14.22037 31.38058,-26.16409 5.83367,-9.69631 8.81902,-21.0459 8.62591,-32.35352 -0.18788,-5.62431 -0.52615,-11.24418 -0.80235,-16.86534 -2.15561,-39.49654 -4.53424,-78.98187 -6.97007,-118.46257 -0.6007,-9.54682 -1.20123,-19.09365 -1.80203,-28.64046 -0.58553,0.24507 -1.08871,0.38069 -1.02523,-0.40199 -3.28067,-19.402286 -13.02262,-37.628887 -27.29211,-51.17308 -4.05355,-3.869724 -8.4569,-7.374579 -13.14555,-10.444453 -1.2514,-8.573353 -2.09818,-17.278781 -4.72337,-25.575223 -1.05519,-3.239676 -2.47753,-6.648272 -5.34889,-8.686496 -2.11829,-1.384911 -4.47456,-2.351086 -6.76418,-3.4107919 -1.34407,-0.583978 -2.70206,-1.13627 -4.07762,-1.641942 -1.32808,-2.546439 -3.92424,-4.2683186 -6.71916,-4.7861462 -8.12238,-2.22982644 -16.59381,-2.94354584 -24.99373,-2.81151044 z M 101.64274,11.981954 c 9.80492,0.03767 19.70755,1.60075 28.75976,5.472657 0.97895,0.416108 2.1751,0.964107 3.21212,1.493606 1.31778,0.78542 2.93248,1.268774 3.87264,2.545954 2.19589,3.533907 2.82779,7.735412 3.54024,11.761221 0.39179,2.587402 0.68084,5.189443 0.90039,7.796875 -18.01518,-8.799052 -38.94272,-11.427223 -58.582502,-7.420941 -7.48477,1.509311 -14.78181,3.9532 -21.66164,7.266644 0.37139,-2.730882 0.7868,-5.470461 1.27081,-8.113094 0.73229,-3.659588 1.46949,-7.369978 2.98694,-10.798545 0.37505,-0.774096 0.80386,-1.609888 1.68805,-1.880285 10.46761,-5.390027 22.25303,-8.113225 34.013192,-8.124092 z m 306.09179,0.002 c 2.22128,0.0161 4.26343,0.08673 6.47656,0.275391 1.80886,0.151808 3.6094,0.385863 5.4043,0.654297 0.36205,0.06857 1.14622,0.192825 1.67051,0.288173 2.41834,0.442943 4.81787,0.990768 7.18301,1.662999 0.76261,0.222867 1.8069,0.532866 2.66797,0.814453 3.93597,1.305622 7.80596,2.86652 11.43945,4.873047 1.4784,2.029351 2.03291,4.54501 2.69864,6.922269 1.11499,4.406704 1.82087,8.983827 2.43222,13.425387 -17.1258,-8.283216 -36.85188,-11.003923 -55.59182,-7.770884 -8.5336,1.462771 -16.85951,4.133776 -24.64646,7.919322 0.48519,-5.547223 1.11347,-11.155789 2.92942,-16.447687 0.64596,-1.728404 1.41037,-3.712862 3.23655,-4.490447 9.23642,-5.238788 19.87697,-7.552053 30.41215,-8.044288 0.42763,-0.01679 1.22977,-0.03953 1.80078,-0.05859 0.62891,-0.0077 1.25781,-0.01628 1.88672,-0.02344 z M 101.6525,41.519064 c 16.42088,-0.03544 32.81652,4.967421 46.38506,14.224615 0.97039,0.655124 2.10377,1.469136 2.93135,2.082025 0.93919,0.711326 1.68416,1.280215 2.59412,2.010942 12.66914,10.232992 22.26789,24.246317 27.06277,39.821977 5.26885,16.975787 4.90322,35.659517 -1.10806,52.393637 -0.13969,0.3834 -0.4597,1.26982 -0.59888,1.62831 -6.62773,17.45855 -19.38949,32.48889 -35.51429,41.90152 -10.73852,6.30589 -22.93171,10.10178 -35.34582,11.05611 -0.85375,0.0612 -1.99647,0.1325 -2.96094,0.17188 -17.053232,0.7403 -34.310292,-3.94443 -48.581102,-13.32559 -2.959688,-1.91716 -5.783573,-4.04073 -8.469678,-6.3248 -0.391385,-0.34142 -1.049813,-0.90457 -1.532695,-1.34482 -5.743971,-5.14403 -10.759246,-11.09585 -14.879415,-17.61222 -0.25411,-0.42897 -0.711218,-1.13938 -1.031512,-1.68797 -1.961249,-3.26988 -3.683751,-6.68162 -5.169659,-10.19289 -0.180083,-0.46258 -0.515904,-1.23926 -0.74065,-1.83268 -7.874103,-19.8545 -7.605103,-42.78099 0.7566,-62.437644 7.502776,-17.863821 21.515423,-32.886807 38.811879,-41.61947 4.72839,-2.403851 9.69513,-4.333378 14.79717,-5.782073 0.77834,-0.221032 1.84584,-0.504091 2.74023,-0.726562 6.4888,-1.600506 13.17002,-2.408874 19.853522,-2.404297 z m 306.09961,0 c 16.41562,-0.03315 32.80496,4.966935 46.37001,14.220232 2.41974,1.633969 4.74057,3.411582 6.97569,5.289533 0.34197,0.306603 0.96776,0.831489 1.41448,1.231238 2.46274,2.178684 4.7897,4.509707 6.98005,6.962122 0.34022,0.390216 0.91529,1.037876 1.3333,1.538832 10.44006,12.248505 17.16696,27.618112 19.0059,43.611489 1.89234,15.78337 -0.83078,32.10699 -7.89538,46.35892 -7.35711,14.93453 -19.31872,27.5511 -33.85788,35.66654 -0.79991,0.43805 -1.8442,1.00958 -2.75489,1.47063 -5.15023,2.62828 -10.57974,4.70453 -16.16308,6.20515 -0.67529,0.17842 -1.65538,0.42898 -2.45234,0.61452 -2.93985,0.70158 -6.10506,1.24899 -8.98711,1.59837 -9.70168,1.15743 -19.60747,0.62302 -29.11523,-1.63867 -0.39408,-0.0959 -1.18593,-0.2847 -1.57807,-0.39117 -4.19923,-1.08276 -8.31271,-2.49512 -12.29108,-4.22016 -0.77015,-0.34247 -1.80337,-0.80386 -2.6621,-1.2168 -6.25967,-3.01003 -12.1496,-6.79309 -17.4668,-11.26367 -0.39596,-0.33924 -1.06092,-0.89869 -1.5481,-1.33703 -11.87584,-10.462 -20.68662,-24.37684 -24.93523,-39.63177 -2.74178,-9.79098 -3.63666,-20.08755 -2.69441,-30.20893 0.0423,-0.43512 0.12983,-1.2454 0.18946,-1.82422 1.68364,-14.772567 7.50115,-29.032752 16.60109,-40.78793 10.25225,-13.354339 24.6664,-23.473101 40.75315,-28.465746 8.00391,-2.522738 16.38823,-3.781538 24.77857,-3.78148 z m 24.41992,6.779297 c -14.91987,0.0087 -29.84065,-0.01483 -44.75996,0.01405 -4.03214,0.186238 -7.5084,3.954109 -7.28899,8.001184 -0.005,11.591927 -0.007,23.183854 -0.006,34.775781 -11.89964,0.01246 -23.80089,-0.03533 -35.69951,0.03544 -3.9891,0.290334 -7.30264,4.09007 -7.06417,8.080577 0.0133,14.967737 -0.0366,29.937087 0.0355,44.903807 0.29292,3.98747 4.08998,7.30145 8.08058,7.0622 11.54922,0 23.09844,0 34.64765,0 0.0125,11.90876 -0.0353,23.81913 0.0354,35.72686 0.29231,3.98821 4.08916,7.30323 8.08058,7.06418 14.97686,-0.0132 29.95531,0.0365 44.93116,-0.0354 4.04009,-0.29245 7.36811,-4.18731 7.0622,-8.2213 0,-11.51081 0,-23.02162 0,-34.53242 11.90095,-0.0124 23.80349,0.0352 35.70343,-0.0353 4.03989,-0.2919 7.36723,-4.18792 7.06026,-8.2213 -0.0149,-14.91957 0.0399,-29.84073 -0.0353,-44.759287 -0.29053,-4.040702 -4.18413,-7.369767 -8.21945,-7.064147 -11.50234,0 -23.00468,0 -34.50703,0 -0.0141,-11.909414 0.0387,-23.820418 -0.0352,-35.728823 -0.29829,-3.976986 -4.03949,-7.267999 -8.0214,-7.066098 z m -308.73242,2.324218 c -14.70474,0.02798 -29.410912,-0.01431 -44.115232,0.02344 -4.02083,0.212131 -7.43908,4.0049 -7.19727,8.032422 0,11.276953 0,22.553906 0,33.830859 -11.61031,0.01379 -23.223283,-0.03799 -34.831915,0.0374 -3.961399,0.253328 -7.255263,4.028773 -7.019674,7.9833 0.01469,14.66937 -0.03938,29.34077 0.03761,44.00887 0.280025,3.94305 4.041602,7.21573 7.982726,6.98019 11.277734,0 22.555473,0 33.833203,0 0.0146,11.62805 -0.0397,23.25829 0.0388,34.88496 0.30068,4.00547 4.1652,7.29632 8.16513,6.99396 14.57903,-0.0105 29.159452,0.031 43.737602,-0.0311 4.04705,-0.24439 7.40365,-4.13686 7.0956,-8.1728 0,-11.22435 0,-22.4487 0,-33.67305 11.6229,-0.0139 23.24781,0.0381 34.86942,-0.0376 3.95072,-0.28353 7.24933,-4.04137 7.00951,-7.99835 -0.0147,-14.6643 0.0394,-29.33062 -0.0376,-43.993637 -0.28957,-3.95302 -4.06646,-7.209562 -8.01202,-6.980191 -11.27643,0 -22.55287,0 -33.8293,0 -0.0146,-11.628702 0.0397,-23.259588 -0.0388,-34.886911 -0.29932,-3.841505 -3.84433,-7.040446 -7.68779,-7.001762 z m 269.82422,7.417969 c -1.2464,1.051209 -2.39568,2.214702 -3.4375,3.46875 0.002,-1.162122 -0.004,-2.324289 0.0137,-3.486328 1.15231,-0.01155 2.30468,-0.0079 3.45703,-0.0098 z m 37.25,-0.02539 c -0.007,1.149802 0.013,2.371737 -0.01,3.476563 -1.0441,-1.259051 -2.20425,-2.418581 -3.45117,-3.476563 1.15365,0 2.30729,0 3.46094,0 z M 96.506018,60.343283 c -3.16108,3.147717 -6.31115,6.31023 -9.44532,9.482422 -0.40365,0.355208 -0.78839,0.798884 -0.8789,1.345703 -1.67649,0.648343 -3.17052,1.744532 -4.32813,3.115235 -6.9e-4,-4.642583 0.006,-9.285159 0.0137,-13.927735 4.8795,-0.0286 9.75912,-0.01393 14.63868,-0.01563 z m 21.574222,0 c 1.12174,0.0039 2.24348,0.0078 3.36523,0.01172 0.001,4.638021 0.003,9.276042 0.004,13.914063 -0.9556,-1.170822 -2.20298,-2.071471 -3.51407,-2.791414 -3.71057,-3.711049 -7.42026,-7.422967 -11.13047,-11.134368 3.75847,-0.0018 7.51693,-0.0022 11.2754,0 z m 293.00585,1.285157 c 6.31912,0.267207 12.23465,4.52112 14.53975,10.404727 2.29477,5.654749 1.19595,12.545996 -2.87174,17.123202 -3.62447,4.213897 -9.43628,6.405294 -14.93947,5.573309 -5.95248,-0.81323 -11.28674,-5.095282 -13.28341,-10.7742 -1.90907,-5.223456 -1.03538,-11.383894 2.38691,-15.791882 3.28962,-4.326024 8.72667,-6.889482 14.16796,-6.535156 z m -75.29296,4.632812 c -11.42093,14.111699 -18.54303,31.661781 -20.08696,49.757498 -1.59441,17.88877 2.11046,36.23691 10.69421,52.02707 2.5384,4.71086 5.49773,9.1949 8.82048,13.38926 -53.68164,0 -107.36328,0 -161.04492,0 9.83941,-12.41146 16.38828,-27.39969 18.77636,-43.05896 2.65919,-17.04255 0.43637,-34.82051 -6.41504,-50.655934 -3.30171,-7.703833 -7.69049,-14.934681 -12.94921,-21.458934 54.06836,0 108.13672,0 162.20508,0 z M 90.304838,80.17922 c 7.74205,0.02413 15.487852,-0.01893 23.228522,0.02148 0.84474,0.225619 0.742,1.19972 0.71029,1.873437 -0.0142,4.515502 0.0349,9.031227 -0.0306,13.546486 -3.23563,3.36461 -6.42602,6.779237 -9.62791,10.178477 -0.71539,0.67685 -1.27933,1.53631 -2.07326,2.11059 -0.90386,0.46654 -2.00622,0.0725 -2.551442,-0.74642 -3.60243,-3.83575 -7.2319,-7.643917 -10.85286,-11.462567 -0.11049,-1.450397 0.012,-2.914319 -0.0411,-4.370705 0.031,-3.530596 -0.0851,-7.078489 0.0685,-10.598048 0.20396,-0.421263 0.7201,-0.636378 1.16992,-0.552734 z M 430.51383,96.294453 c -0.17703,0.67685 0.26703,1.11772 0.71075,1.5567 0.79418,0.95966 1.50892,1.982 2.28925,2.953067 0.91523,0.007 1.90329,-0.0132 2.77344,0.01 -5.51705,4.55324 -9.08481,11.40209 -9.51751,18.55527 -0.57688,8.03605 2.77325,16.25771 8.87582,21.53518 0.61094,0.44003 0.75104,0.67866 -0.15245,0.55408 -0.7125,0 -1.425,0 -2.1375,0 -0.93037,1.41589 -2.08802,2.73197 -2.8418,4.23282 -0.0917,0.37405 0.20599,1.82339 -0.19206,1.35117 -4.66206,-5.55576 -11.67631,-9.07593 -18.93643,-9.3593 -7.42841,-0.35575 -14.95296,2.58534 -20.10198,7.96672 -0.50574,0.52148 -0.99165,1.06228 -1.45117,1.625 -0.0498,-0.8141 0.0974,-1.70998 -0.0708,-2.47489 -1.11704,-1.11382 -2.23352,-2.22819 -3.34909,-3.34347 -0.78451,0 -1.56901,0 -2.35352,0 5.65426,-4.63407 9.26283,-11.68756 9.57285,-19.00518 0.38477,-7.41374 -2.5195,-14.93563 -7.8635,-20.10348 -0.54755,-0.54186 -1.12197,-1.05663 -1.71716,-1.54564 0.98242,0 1.96484,0 2.94726,0 0.80474,-1.563197 2.23548,-2.762037 2.83204,-4.422257 0.0781,-0.41459 -0.22922,-1.882523 0.32276,-1.002511 4.56211,5.342428 11.30665,8.768938 18.33221,9.176508 7.98784,0.54195 16.14209,-2.7897 21.40533,-8.835627 0.39732,-0.480865 0.78354,-1.02719 0.62329,-0.0247 0,0.20026 0,0.40052 0,0.60078 z M 80.548978,100.4175 c 0.73321,1.41669 2.04068,2.38333 3.06446,3.57226 -1.07141,-0.95524 -2.05919,-2.02739 -3.20311,-2.88709 -0.81491,-0.0687 -0.22846,-0.83112 0.0618,-0.8328 l 0.0462,0.0887 z m 42.830082,0.41797 c -1.49287,0.75127 -2.52983,2.10673 -3.76953,3.1875 1.01119,-1.09647 2.07886,-2.15868 3.03785,-3.29204 0.27019,-0.827897 0.31808,-0.37419 0.73168,0.10454 z m 227.16211,-0.0234 c -1.25945,1.04762 -2.42242,2.20873 -3.47851,3.46094 0.002,-1.15431 -0.003,-2.30865 0.0117,-3.46289 1.14341,-0.006 2.38442,-0.0275 3.46679,0.002 z m 122.73633,-0.008 c 0,1.1556 0,2.31119 0,3.46679 -1.05752,-1.25656 -2.22785,-2.41631 -3.49023,-3.46679 1.16341,0 2.32682,0 3.49023,0 z m -309.94726,1.42578 c 6.5e-4,4.87565 0.001,9.7513 0.002,14.62695 -3.69978,-3.74132 -7.45834,-7.43286 -11.19922,-11.12695 -0.66487,-1.33697 -1.59579,-2.5451 -2.74023,-3.50586 4.64583,0.002 9.29166,0.004 13.9375,0.006 z m -109.423835,0.01 c -1.152235,0.93025 -2.015982,2.16206 -2.742586,3.43204 -3.720139,3.7197 -7.441197,7.43848 -11.161711,11.15781 6.51e-4,-4.86328 0.0013,-9.72656 0.002,-14.58985 4.634115,0 9.268229,0 13.902344,0 z m 313.285155,2.25586 c 6.30832,-0.12347 12.45792,3.73987 15.1292,9.44754 2.80794,5.75012 1.90273,13.10794 -2.30873,17.94799 -3.53382,4.19198 -9.21354,6.43666 -14.65977,5.75768 -6.16647,-0.6757 -11.74862,-5.09092 -13.7559,-10.97266 -1.96835,-5.55825 -0.75737,-12.13258 3.20107,-16.5323 3.091,-3.50922 7.7066,-5.65617 12.39413,-5.64825 z m 85.74219,0 c 6.29756,-0.12103 12.43627,3.72971 15.11488,9.42247 2.81879,5.75356 1.92029,13.12118 -2.29453,17.96905 -3.51847,4.17001 -9.15907,6.42419 -14.58363,5.76934 -6.10696,-0.63415 -11.65597,-4.95359 -13.72342,-10.74308 -2.11407,-5.67049 -0.8688,-12.46052 3.24492,-16.92687 3.0817,-3.41871 7.62914,-5.49868 12.24178,-5.49091 z M 61.062658,109.4254 c 4.73386,0.0281 9.48484,-0.0268 14.20898,0.0273 3.59962,3.46816 7.3012,6.84814 10.88381,10.32774 0.43442,0.73058 1.52081,0.93285 1.55955,1.9125 0.17055,0.95889 -0.47005,1.76466 -1.20422,2.28434 -3.7301,3.53022 -7.46021,7.06044 -11.19031,10.59066 -1.37584,0.11756 -2.76547,-0.0226 -4.14727,0.0375 -3.58084,-0.0218 -7.16963,0.0595 -10.74531,-0.0531 -0.94433,-0.42671 -0.49833,-1.60854 -0.59589,-2.40664 0.0161,-7.36436 -0.0423,-14.73469 0.0412,-22.09531 0.168,-0.46176 0.72255,-0.7065 1.18946,-0.625 z m 67.796872,-0.0137 c 4.62516,0.0618 9.25514,-0.0133 13.88086,0.0293 0.80803,0.18527 0.77855,1.10634 0.72469,1.7539 -0.0177,7.60134 0.0456,15.20973 -0.0431,22.80664 -0.39609,0.93383 -1.54485,0.52221 -2.32031,0.60574 -4.33529,-0.004 -8.67067,0.0182 -13.00586,-0.0198 -3.5699,-3.42758 -7.1956,-6.80354 -10.80396,-10.19326 -0.6813,-0.73716 -1.87691,-1.32395 -1.71297,-2.50404 0.0473,-1.18495 1.271,-1.70021 1.94879,-2.5064 3.48303,-3.30968 6.95733,-6.64213 10.46462,-9.91739 0.28654,-0.0445 0.57764,-0.0532 0.86719,-0.0547 z m -21.61914,7.08984 c -1.85288,3.42619 -1.87011,7.81202 0.0996,11.19336 -3.44427,-1.9832 -7.931122,-2.01459 -11.365232,0.01 1.91642,-3.41327 1.98052,-7.82233 0.0508,-11.24414 0.40641,0.0162 0.93295,0.44961 1.41098,0.57325 3.187052,1.26169 6.935032,0.99286 9.907382,-0.71583 -0.0345,0.0612 -0.069,0.12239 -0.10352,0.18359 z m 56.09375,16.57031 c -0.004,2.91016 -0.008,5.82032 -0.0117,8.73047 -4.64062,6.5e-4 -9.28125,0.001 -13.92187,0.002 1.16129,-0.94443 2.03733,-2.18728 2.76211,-3.47696 3.72297,-3.72274 7.44638,-7.44502 11.16953,-11.16757 6.5e-4,1.9707 0.001,3.9414 0.002,5.9121 z M 42.869296,130.05617 c 2.382395,2.34314 4.715724,4.74719 7.070312,7.11719 0.327913,0.39733 1.017959,0.27462 1.101559,0.85037 0.668586,1.45546 1.658234,2.76382 2.882816,3.79611 -4.639974,0 -9.279948,0 -13.919922,0 -6.51e-4,-4.8763 -0.0013,-9.7526 -0.002,-14.6289 0.955729,0.95507 1.911458,1.91015 2.867188,2.86523 z m 58.937504,5.85352 c 1.28449,0.16527 1.87785,1.511 2.77758,2.27767 3.2089,3.39833 6.41781,6.79666 9.62671,10.19498 0.11725,1.3784 -0.0246,2.77054 0.0375,4.15508 -0.0206,3.56408 0.0571,7.13486 -0.0512,10.69453 -0.43628,0.9338 -1.61276,0.47977 -2.41054,0.58222 -7.36823,-0.0161 -14.742812,0.0422 -22.107042,-0.0412 -0.93071,-0.40062 -0.52463,-1.54376 -0.60438,-2.32032 0.0118,-4.35743 -0.0336,-8.71507 0.0302,-13.07226 3.45469,-3.5922 6.86534,-7.23406 10.27176,-10.87551 0.693192,-0.70014 1.286372,-1.71502 2.429412,-1.59519 z m 245.5664,2.44921 c 0.97838,1.11532 2.03758,2.16068 3.18555,3.10157 -1.16147,-0.002 -2.32299,0.003 -3.48437,-0.0137 -0.0146,-1.15359 -0.01,-2.30728 -0.0117,-3.46093 0.10351,0.12435 0.20703,0.2487 0.31054,0.37304 z m 125.9043,3.09961 c -1.15597,-10e-4 -2.32454,0.003 -3.47266,-0.002 1.25633,-1.04418 2.42089,-2.19714 3.47266,-3.44727 0,1.14974 0,2.29948 0,3.44922 z m -350.72266,1.23047 c 0.48811,0.326 0.94646,0.51309 0.35943,1.03742 -0.23036,-0.0332 -0.45099,-0.76444 -0.74095,-1.03299 -0.8227,-1.03467 -1.8219,-1.91628 -2.70051,-2.90482 1.02735,0.9668 2.05469,1.9336 3.08203,2.90039 z m -41.562502,0.22266 c -0.36966,0.2769 -0.46098,1.28579 -0.89316,0.56038 -0.56449,-0.43108 0.65023,-0.5228 0.87787,-0.8772 0.93262,-0.88612 1.86429,-1.77324 2.79654,-2.65974 -0.92708,0.99218 -1.85416,1.98437 -2.78125,2.97656 z m 132.052742,-0.70117 c -4.39321,-0.0585 -8.31537,4.00403 -8.09838,8.39414 0.0192,4.37506 -0.0802,8.75607 0.0652,13.12734 0.49386,4.03801 4.35964,7.32131 8.43281,7.09386 7.03471,-0.0193 14.07426,0.0562 21.1059,-0.0513 2.27242,-0.23635 4.38964,-1.52963 5.70152,-3.39026 1.32085,-0.41077 1.8055,-1.91782 1.60731,-3.17421 -0.0385,-4.96918 0.0827,-9.94473 -0.0721,-14.90977 -0.49308,-4.0383 -4.35873,-7.3169 -8.43086,-7.09177 -6.77045,6.4e-4 -13.54089,0.001 -20.31133,0.002 z m 66.67383,0.008 c -4.14787,0.15249 -7.73981,4.01407 -7.53933,8.17109 0.0213,4.53062 -0.0673,9.06713 0.0609,13.59398 0.35451,3.19071 2.85485,5.96759 5.94916,6.76227 0.75294,0.96667 2.16974,0.95214 3.16314,0.37624 3.33901,-1.40649 6.8872,-2.21308 10.31953,-3.35273 4.75415,-1.4554 9.5072,-2.91361 14.25952,-4.37507 1.53777,-1.12433 3.00618,-2.48665 3.63712,-4.33755 1.47689,-3.79118 -0.47302,-8.59429 -4.309,-10.07846 -2.15417,-0.64889 -4.33538,-1.21777 -6.49845,-1.84506 -5.76781,-1.60639 -11.52112,-3.2764 -17.30535,-4.81538 -0.57258,-0.0997 -1.15743,-0.11323 -1.73721,-0.0993 z m 130.34375,5.15625 c 6.32815,-0.12387 12.49178,3.76529 15.15358,9.49884 2.76175,5.71816 1.87373,13.00039 -2.27441,17.83008 -3.18287,3.84703 -8.2713,6.1437 -13.20535,5.94647 -6.51914,-0.0681 -12.71427,-4.425 -15.05039,-10.50194 -2.22392,-5.58029 -1.16975,-12.34185 2.78263,-16.89361 3.08424,-3.65155 7.80667,-5.8855 12.59394,-5.87984 z m -177.91602,4.54883 c -0.003,3.06314 0.0177,6.1264 -0.01,9.18945 -5.82812,-0.004 -11.65633,0.021 -17.48438,-0.0156 0.004,-3.05794 -0.0141,-6.11597 0.008,-9.17383 5.82878,0 11.65756,0 17.48633,0 z m 50.15234,0.68945 c 4.47198,1.2278 8.9337,2.49755 13.4004,3.74609 -4.60157,1.41993 -9.20313,2.83985 -13.80469,4.25977 -9.9e-4,-2.71027 -0.0158,-5.42064 0.004,-8.13086 0.13347,0.0417 0.26693,0.0833 0.40039,0.125 z m 211.98047,24.35352 c 1.66463,27.51952 3.27691,55.04228 4.75977,82.57226 0.21871,5.27997 0.66212,10.6422 0.60731,15.96214 -0.29887,11.16634 -4.37441,22.18739 -11.4405,30.84308 -7.72475,9.63904 -19.02194,16.33757 -31.20345,18.42076 -6.41112,1.10851 -13.08861,1.15129 -19.41873,-0.45983 -5.36892,-1.42287 -10.23173,-4.50775 -13.95478,-8.61321 -5.80369,-6.23706 -9.64251,-13.93496 -13.64628,-21.37203 -11.79296,-22.11056 -23.24045,-44.40424 -35.14152,-66.45653 -3.64072,-6.67233 -7.24065,-13.38556 -11.40543,-19.75105 -1.15801,-1.72114 -2.39309,-3.39144 -3.7306,-4.97763 12.01478,7.35228 25.74238,11.84964 39.77013,13.09215 15.31662,1.38206 30.96932,-1.11159 45.06898,-7.26504 17.24889,-7.45551 32.06168,-20.35723 41.88971,-36.36625 2.60808,-4.21854 4.87352,-8.65005 6.7575,-13.2382 0.36263,5.86979 0.72526,11.73958 1.08789,17.60938 z M 16.468905,160.01711 c 7.209463,17.14085 19.710662,32.00471 35.385571,42.01409 13.872752,8.91407 30.174022,13.99656 46.658032,14.51171 16.334962,0.55649 32.812102,-3.26434 47.165982,-11.10207 1.35773,-0.74043 2.70241,-1.50603 4.02089,-2.31436 -4.01404,4.73971 -7.03104,10.20494 -10.10578,15.57236 -7.95115,14.26389 -15.48537,28.75763 -23.09318,43.20494 -6.58201,12.53296 -13.1282,25.06604 -19.836062,37.5384 -3.62012,6.6216 -7.48491,13.31301 -13.12514,18.44211 -3.69156,3.37839 -8.28678,5.7234 -13.17986,6.76212 -5.68492,1.22849 -11.60382,1.13674 -17.329912,0.2345 -11.067327,-1.78059 -21.48112,-7.3024 -29.161688,-15.46761 -8.325186,-8.76948 -13.468251,-20.52472 -14.0585234,-32.61769 -0.05024,-0.88173 -0.06836,-1.65102 -0.07861,-2.58944 0.05063,-4.50497 0.3884224,-9.00181 0.5804244,-13.50245 1.328015,-25.32465 2.838177,-50.68906 4.343814,-76.02364 0.513958,-8.43601 1.020916,-16.87245 1.550371,-25.3075 0.08789,0.21484 0.175781,0.42968 0.263672,0.64453 z m 65.673833,10.04297 c 0.94175,1.05909 2.1371,1.85743 3.36469,2.53062 3.61516,3.74616 7.30941,7.41211 10.98882,11.09438 -4.88217,0.005 -9.76432,-0.002 -14.64648,-0.01 -0.002,-4.65495 -0.004,-9.3099 -0.006,-13.96484 0.0996,0.11653 0.19922,0.23307 0.29883,0.34961 z m 39.310542,5.80078 c -0.005,2.60677 -0.0104,5.21354 -0.0156,7.82031 -4.87761,0.004 -9.75521,0.008 -14.63282,0.004 3.75782,-3.75782 7.51563,-7.51563 11.27344,-11.27344 1.28821,-0.6498 2.44746,-1.56191 3.375,-2.66797 0,2.03906 0,4.07813 0,6.11719 z m 268.71485,5.30469 c 0.9605,1.109 2.00297,2.14707 3.13085,3.08593 -1.153,-0.002 -2.30604,0.003 -3.45898,-0.0117 -0.0142,-1.16206 -0.01,-2.32421 -0.0117,-3.48632 0.11328,0.13737 0.22656,0.27474 0.33985,0.41211 z m 40.3457,3.08203 c -1.15365,0 -2.30729,0 -3.46094,0 1.25691,-1.0527 2.41084,-2.22404 3.46094,-3.48243 0,1.16081 0,2.32162 0,3.48243 z m -256.68164,-0.8125 c 0,2.57161 0,5.14323 0,7.71484 53.91081,0 107.82161,0 161.73242,0 0,-3.0944 0,-6.1888 0,-9.2832 3.51711,4.39446 7.433,8.47051 11.68555,12.1582 -6.75146,-2.47284 -14.04829,-2.43711 -21.13993,-2.60659 -14.18045,-0.2162 -28.36303,-0.0179 -42.54394,0.055 -16.87675,0.0984 -33.75402,0.068 -50.63095,0.0363 -17.9237,-0.0384 -35.8507,-0.40827 -53.77244,-0.004 -5.73782,0.17433 -11.58845,0.51751 -17.02602,2.51736 4.2568,-3.68768 8.17579,-7.76523 11.69531,-12.16211 0,0.52474 0,1.04948 0,1.57422 z" /><path
   id="circle3"
   d="m 407.74039,3.99172 v 0.00195 c -8.766,0 -16.77665,1.1270469 -22.97265,2.998047 h -0.0274 c -1.367,0.442 -2.37139,1.241766 -3.02539,2.009765 -0.327,0.383 -0.54966,0.761657 -0.72266,1.0976569 -0.10245,0.200142 -0.19245,0.359833 -0.25195,0.546875 -3.94924,1.39273 -7.63271,3.097885 -10.96875,5.103515 -2.243,1.347 -3.745,4.02786 -4.875,7.25586 -1.128,3.229 -1.86181,7.054015 -2.38281,10.791015 -0.519,3.737 -0.82858,7.38886 -1.01758,10.25586 -0.095,1.433 -0.15284,2.667234 -0.21484,3.615234 -0.0483,0.748371 -0.0917,1.12955 -0.12696,1.419922 -5.30655,3.29872 -10.23105,7.147892 -14.70898,11.460938 H 163.04313 v 0.101562 c -4.5047,-4.353346 -9.46404,-8.236369 -14.81055,-11.560547 -0.0355,-0.289948 -0.0786,-0.672483 -0.12695,-1.421875 -0.061,-0.948 -0.12085,-2.182234 -0.21485,-3.615234 -0.19,-2.866 -0.49858,-6.51886 -1.01758,-10.25586 -0.519,-3.736 -1.25381,-7.563015 -2.38281,-10.791015 -1.129,-3.229 -2.60665,-5.90886 -4.84765,-7.25586 -3.34083,-2.008173 -7.03485,-3.713901 -10.99415,-5.107421 -0.0596,-0.185468 -0.14828,-0.346222 -0.25,-0.544922 -0.163,-0.3359999 -0.3867,-0.7136569 -0.7207,-1.0976569 -0.651,-0.768 -1.65244,-1.565812 -3.02344,-2.007812 h -0.0273 c -6.19704,-1.8700001 -14.2067,-2.998047 -22.9727,-2.998047 h -0.006 c -8.937002,0 -17.073212,1.1674687 -23.324212,3.105469 h -0.0273 -0.0254 c -1.329,0.466 -2.16634,1.363969 -2.65234,2.167969 -0.243,0.401999 -0.39781,0.7946559 -0.50782,1.0976559 -0.0743,0.204815 -0.0979,0.292138 -0.1289,0.398437 -3.95503,1.376902 -7.67058,3.015068 -11.08984,4.851563 -1.877,1.009 -3.05266,3.353312 -4.09766,6.320312 -1.045,2.968 -1.87397,6.624594 -2.54297,10.308594 -1.3173,7.26585 -2.069697,14.756639 -2.546875,17.074219 C 32.60529,63.203775 17.0919,86.587975 13.888827,113.74953 l -0.591797,-0.0449 -0.01367,-0.006 c -0.96,14.776 -3.274469,52.66864 -5.3554694,87.93164 -1.041,17.635 -2.037812,34.6187 -2.757812,47.7207 -0.721,13.11 -1.177735,22.27025 -1.177735,24.53125 0,31.678 25.7058134,57.38477 57.3828164,57.38477 10.802,0 18.65468,-2.99871 24.92968,-8.22071 6.274,-5.222 10.97441,-12.60448 15.69141,-21.39648 8.933,-16.649 19.28242,-36.63631 28.35742,-53.82031 9.074,-17.185 16.91592,-31.63621 20.66992,-37.03321 3.798,-5.459 7.15105,-8.66885 11.24805,-10.63085 4.097,-1.962 9.01064,-2.67993 15.93164,-2.91993 13.863,-0.478 46.76489,0 57.83789,0 h 37.30078 c 11.072,0 43.97785,-0.478 57.83985,0 6.921,0.24 11.83659,0.95793 15.93359,2.91993 4.097,1.96299 7.47644,5.17285 11.27344,10.63085 3.754,5.396 11.56853,19.84821 20.64453,37.03321 9.076,17.185 19.44781,37.17131 28.38281,53.82031 4.718,8.792 9.39202,16.17448 15.66602,21.39648 6.274,5.222 14.12769,8.22071 24.92969,8.22071 31.678,0 57.38476,-25.70577 57.38476,-57.38477 0,-2.264 -0.45769,-11.42134 -1.17969,-24.52734 -0.72,-13.106 -1.68946,-30.0838 -2.73047,-47.7168 -2.08199,-35.266 -4.42181,-73.16159 -5.38281,-87.93359 l -0.60742,0.0469 c -3.20682,-27.162064 -18.71958,-50.548978 -40.82031,-64.435541 -0.47811,-2.31758 -1.22958,-9.80837 -2.54688,-17.074219 -0.668,-3.685 -1.47062,-7.340594 -2.51562,-10.308594 -1.046,-2.968 -2.248,-5.312312 -4.125,-6.320312 -3.4129,-1.832894 -7.12046,-3.4667 -11.06641,-4.841797 -0.0283,-0.09237 -0.0564,-0.188175 -0.13672,-0.408203 -0.111,-0.303 -0.26662,-0.6956569 -0.51562,-1.0976569 -0.488,-0.805 -1.31849,-1.702968 -2.64649,-2.167968 h -0.0273 C 424.84086,5.1591887 416.68425,3.99172 407.74625,3.99172 Z m -306.0918,1.7148441 c 8.607,0 16.47985,1.114968 22.46485,2.917968 0.008,10e-4 0.0203,-0.002 0.0273,0 0.80232,0.263983 1.42713,0.704001 1.89258,1.15625 -7.43432,-2.289015 -15.71217,-3.509765 -24.38477,-3.509765 v -0.002 c -8.764582,0 -17.018652,1.411934 -24.474612,3.7675779 0.33487,-0.5093629 0.83362,-1.0082409 1.63282,-1.3046879 0.021,-0.009 0.0317,-0.01839 0.0527,-0.02539 6.026,-1.861 14.02706,-3 22.789062,-3 z m 306.09571,0 c 8.762,0 16.76406,1.139 22.78906,3 0.017,0.005 0.0347,0.01939 0.0527,0.02539 0.8032,0.297585 1.3027,0.797996 1.63672,1.3085939 -7.45754,-2.3577359 -15.71281,-3.7708539 -24.48242,-3.7714839 h -0.006 c -8.67775,5.49e-4 -16.95059,1.222884 -24.38086,3.515625 0.46635,-0.453175 1.09181,-0.894598 1.89649,-1.160157 0.007,-0.002 0.0193,0.002 0.0273,0 5.98,-1.803 13.8538,-2.917968 22.4668,-2.917968 z m -306.09766,2.27539 c 14.19,0 27.28128,3.3272819 37.11328,9.2382809 1.636,0.983001 3.05605,3.294704 4.12305,6.345704 1.067,3.051 1.79273,6.798703 2.30273,10.470703 0.51,3.671 0.80224,7.273094 0.99024,10.121093 0.094,1.424 0.15384,2.656235 0.21484,3.615235 0.006,0.08586 0.0104,0.136105 0.0156,0.216797 -13.13099,-7.731424 -28.42104,-12.183594 -44.75779,-12.183594 -16.436172,0 -31.816932,4.50421 -45.001952,12.322266 0.5195,-3.357776 1.17395,-9.434106 2.29102,-15.589844 0.66,-3.637 1.47089,-7.198625 2.46289,-10.015625 0.992,-2.816 2.24926,-4.834156 3.32226,-5.410156 10.108,-5.429 22.83983,-9.1308599 36.923832,-9.1308599 z m 306.09375,0.002 c 14.083,0 26.84413,3.7018599 36.95313,9.1308599 1.072,0.576 2.30297,2.592203 3.29296,5.408203 0.99201,2.816 1.80485,6.378625 2.46485,10.015625 1.11478,6.156261 1.7707,12.234367 2.29101,15.591797 -13.18484,-7.819923 -28.56489,-12.324266 -45.00195,-12.324266 -16.33613,0 -31.62836,4.451499 -44.75976,12.181641 0.005,-0.07938 0.0102,-0.128521 0.0156,-0.212891 0.063,-0.959 0.12084,-2.192234 0.21484,-3.615234 0.188,-2.848 0.48024,-6.450094 0.99024,-10.121094 0.511,-3.671 1.23573,-7.418703 2.30273,-10.470703 1.066,-3.052 2.48705,-5.362703 4.12305,-6.345703 9.833,-5.911 22.92328,-9.2382819 37.11328,-9.2382819 z M 101.64859,37.519111 c 47.882,0 86.67969,38.794687 86.67969,86.679689 0,47.882 -38.79369,86.68164 -86.67969,86.68164 -47.882998,0 -86.681638,-38.79964 -86.681638,-86.68164 0,-47.880002 38.79764,-86.679689 86.681638,-86.679689 z m 306.0918,0 c 47.883,0 86.67969,38.794687 86.67969,86.679689 0,47.882 -38.79369,86.68164 -86.67969,86.68164 -47.883,0 -86.68164,-38.79564 -86.68164,-86.68164 0,-47.881002 38.79664,-86.679689 86.68164,-86.679689 z m 24.68555,14.779297 -44.50586,0.002 c -2.09,0 -3.80274,1.712734 -3.80274,3.802734 v 38.826172 l -0.13281,0.160156 h -38.82812 c -2.091,0 -3.80274,1.713737 -3.80274,3.802737 v 44.478513 c 0,2.089 1.71374,3.80078 3.80274,3.80078 h 38.88086 l 0.0801,0.0527 v 38.93555 c 0,2.089 1.71374,3.80273 3.80274,3.80273 h 44.5039 c 2.09,0 3.80274,-1.71473 3.80274,-3.80273 v -38.88086 l 0.0801,-0.10547 h 38.88281 c 2.09,0 3.80078,-1.71374 3.80078,-3.80274 V 98.894117 c 0,-2.09 -1.71178,-3.800781 -3.80078,-3.800781 h -38.85547 l -0.10547,-0.134765 V 56.101095 c 0,-2.089 -1.71473,-3.802734 -3.80273,-3.802734 z m -44.50586,1.716796 h 44.5039 c 1.162,0 2.08985,0.924891 2.08985,2.087891 V 95.251532 95.5445 l 0.1875,0.21484 0.50781,0.69532 0.26953,0.34961 h 0.42774 39.2832 c 1.162,0 2.08789,0.92489 2.08789,2.08789 v 44.47651 c 0,1.163 -0.92489,2.08984 -2.08789,2.08984 h -39.33594 -0.42969 l -0.26757,0.375 -0.48243,0.69532 -0.16015,0.21289 v 0.26953 39.14648 c 0,1.161 -0.92489,2.08985 -2.08789,2.08985 h -44.50586 c -1.162,0 -2.08789,-0.92885 -2.08789,-2.08985 v -39.2539 -0.375 l -0.24024,-0.24024 -0.5625,-0.56445 -0.26953,-0.26758 h -0.34765 -39.25586 c -1.162,0 -2.08985,-0.92684 -2.08985,-2.08984 V 98.890153 c 0,-1.162 0.92785,-2.08789 2.08985,-2.08789 h 39.25586 0.42773 l 0.24024,-0.34765 0.58984,-0.72266 0.16016,-0.242186 v -0.292969 -39.09375 c 10e-4,-1.163 0.92584,-2.087891 2.08984,-2.087891 z M 79.877108,54.630439 c -2.055,0 -3.75,1.694047 -3.75,3.748047 V 96.34724 l -0.13281,0.1621 H 37.996249 c -2.054,0 -3.720704,1.66571 -3.720703,3.72071 v 43.56836 c 0,2.056 1.666703,3.7207 3.720703,3.7207 h 38.078129 l 0.0547,0.0547 v 38.07617 c 0,2.056 1.69305,3.74805 3.74805,3.74805 h 43.539062 c 2.055,0 3.75,-1.69205 3.75,-3.74805 V 147.6285 l 0.0801,-0.10743 h 38.04883 c 2.054,0 3.75,-1.66765 3.75,-3.72265 v -43.56641 c 0,-2.054 -1.696,-3.7207 -3.75,-3.7207 h -38.02149 l -0.10742,-0.13477 V 58.378439 c 0,-2.055 -1.696,-3.748047 -3.75,-3.748047 z m 330.294922,1.257812 c -12.334,0 -22.35742,10.024375 -22.35742,22.359375 0,12.334 10.02342,22.357424 22.35742,22.357424 12.334,0 22.35938,-10.022424 22.35938,-22.357424 0.001,-12.335 -10.02538,-22.359375 -22.35938,-22.359375 z M 79.877108,56.343329 h 43.539062 c 1.128,0 2.03516,0.907157 2.03516,2.035157 v 38.292964 0.29493 l 0.1875,0.24023 0.50976,0.66992 0.26758,0.34766 h 0.42774 38.45312 c 1.128,0 2.03516,0.87981 2.03516,2.00781 v 43.56641 c 0,1.129 -0.90716,2.00781 -2.03516,2.00781 h -38.50586 -0.45508 l -0.24218,0.375 -0.48047,0.66992 -0.16211,0.21289 v 0.29492 38.29102 c 0,1.128 -0.90716,2.03516 -2.03516,2.03516 H 79.877108 c -1.128,0 -2.03516,-0.90716 -2.03516,-2.03516 v -38.42578 -0.34766 l -0.24023,-0.24023 -0.55078,-0.54883 -0.23828,-0.26563 H 76.463048 38.00992 c -1.126999,0 -2.007812,-0.87881 -2.007812,-2.00781 v -43.5664 c 0,-1.128 0.880812,-2.00977 2.007812,-2.00977 h 38.451168 0.40235 l 0.26758,-0.34766 0.56445,-0.72265 0.16016,-0.21485 V 96.65778 58.396064 c 0,-1.128 0.90715,-2.035156 2.03515,-2.035156 z m 330.294922,1.257813 c 11.408,0 20.64649,9.238484 20.64649,20.646484 0,11.409 -9.23749,20.644534 -20.64649,20.644534 -11.409,0 -20.64453,-9.235534 -20.64453,-20.644534 0.001,-11.408 9.23653,-20.646484 20.64453,-20.646484 z m -308.52344,3.242187 -0.58984,0.615235 -6.880862,6.853515 -1.44531,1.47461 h 2.06055 13.736322 2.0625 l -1.47265,-1.47461 -6.85547,-6.853515 z m 63.03125,1.417969 h 180.02344 c -15.67608,15.951623 -25.35937,37.811242 -25.35937,61.937502 0,48.808 39.58548,88.39648 88.39648,88.39648 45.57665,0 83.09953,-34.51831 87.87109,-78.83203 1.16112,18.49963 2.552,40.7133 4.16211,67.98242 1.04,17.632 2.01047,34.6138 2.73047,47.7168 0.72,13.103 1.17774,22.40387 1.17774,24.42187 0,30.75201 -24.91792,55.66993 -55.66992,55.66993 -10.489,0 -17.84704,-2.84132 -23.83204,-7.82032 -5.983,-4.979 -10.57971,-12.18515 -15.26171,-20.91015 -8.926,-16.634 -19.27743,-36.57553 -28.35743,-53.76953 -9.079,-17.194 -16.84929,-31.57066 -20.77929,-37.22266 -3.889,-5.589 -7.48507,-9.09775 -11.91407,-11.21875 -4.431,-2.122 -9.6189,-2.83808 -16.6289,-3.08008 -13.994,-0.482 -46.87053,0 -57.89453,0 h -37.29883 c -11.023,0 -43.89658,-0.482 -57.89258,0 -7.009,0.242 -12.19795,0.95808 -16.62695,3.08008 -4.43,2.121 -8.02702,5.62975 -11.91602,11.21875 -3.931,5.651 -11.70029,20.02666 -20.77929,37.22266 -9.08001,17.193 -19.43443,37.13653 -28.35743,53.76953 -4.683002,8.726 -9.279672,15.93215 -15.263672,20.91015 -5.984,4.979 -13.34203,7.82032 -23.83203,7.82032 -30.74,0 -55.6582034,-24.91888 -55.6582034,-55.67188 0,-2.019 0.459687,-11.31692 1.179687,-24.41992 0.72,-13.102 1.689469,-30.0848 2.730469,-47.7168 1.6075514,-27.24107 2.9948554,-49.40746 4.1562504,-67.9082 4.805443,44.27502 42.310377,78.75781 87.863279,78.75781 48.809,0 88.39454,-39.58448 88.39454,-88.39648 -0.004,-24.12488 -9.68736,-45.985295 -25.36329,-61.937502 z m -63.0039,1.019531 4.79101,4.791016 h -9.613282 z m -11.703132,11.189453 -0.004,0.002 c -3.644,0 -6.61133,2.992625 -6.61133,6.640625 v 14.404299 c 0,1.175 0.29203,2.28123 0.83203,3.24023 l 0.0527,0.082 0.0801,0.0801 11.40821,12.048834 0.0254,0.0527 0.0273,-0.0254 c 1.389,1.716 3.48628,2.83789 5.863282,2.83789 2.428,0 4.5847,-1.18865 5.9707,-2.97265 l 0.0274,0.0273 0.0547,-0.0801 11.40625,-12.078124 0.082,-0.0801 0.0527,-0.13281 c 0.464,-0.904 0.72266,-1.917 0.72266,-3 V 81.110861 c 0,-3.648 -2.96728,-6.640626 -6.61328,-6.640626 z m -0.004,1.714844 h 23.375002 c 2.721,0 4.90039,2.206735 4.90039,4.927735 V 95.51716 c 0,0.788 -0.18182,1.51292 -0.50782,2.16992 l -11.35351,12.02148 -0.0273,0.0273 -0.0274,0.0547 c -1.072,1.415 -2.76854,2.33007 -4.68554,2.33007 -1.866012,0 -3.501132,-0.87265 -4.578132,-2.22265 l -0.0273,-0.0274 -0.0273,-0.0273 -11.35351,-11.96875 c -0.383,-0.699 -0.58985,-1.50242 -0.58985,-2.35742 l -0.006,-14.404299 c 0,-2.721 2.18039,-4.925782 4.90039,-4.925782 z M 367.30279,98.78083 c -12.334,0 -22.35742,10.02437 -22.35742,22.35937 0,12.333 10.02342,22.33204 22.35742,22.33204 12.334,0 22.35938,-9.99904 22.35938,-22.33204 0,-12.334 -10.02538,-22.35937 -22.35938,-22.35937 z m 85.74024,0 c -12.331,0 -22.33204,10.02623 -22.33204,22.36523 0,12.334 9.99904,22.33204 22.33204,22.33204 12.334,0 22.35937,-9.99804 22.35937,-22.33204 0,-12.334 -10.02437,-22.35937 -22.35937,-22.35937 z m -85.74014,1.71284 c 11.409,0 20.64649,9.23748 20.64649,20.64648 0,11.408 -9.23649,20.61719 -20.64649,20.61719 -11.408,0 -20.64453,-9.20919 -20.64453,-20.61719 10e-4,-11.408 9.23653,-20.64648 20.64453,-20.64648 z m 85.74024,0 c 11.407,0 20.64453,9.23748 20.64453,20.64648 0,11.408 -9.23653,20.61719 -20.64453,20.61719 -11.409,0 -20.61915,-9.20919 -20.61915,-20.61719 0,-11.408 9.21115,-20.64648 20.61915,-20.64648 z m -392.277352,3.20508 -0.008,0.0176 c -3.646,0 -6.640626,2.96723 -6.640626,6.61523 v 23.375 c 0,3.647 2.994626,6.61328 6.640626,6.61328 h 14.40625 c 1.174,0 2.28123,-0.31547 3.24023,-0.85547 l 0.0801,-0.0273 0.0801,-0.0801 12.05078,-11.4082 c 0.02,-0.016 0.0337,-0.0367 0.0527,-0.0527 1.71,-1.39 2.78515,-3.51962 2.78515,-5.89062 0,-2.428 -1.16231,-4.55831 -2.94531,-5.94531 l 0.0332,-0.043 -0.0801,-0.0527 -12.07617,-11.4082 -0.10742,-0.0801 -0.10742,-0.0527 c -0.903,-0.462 -1.91405,-0.72461 -2.99805,-0.72461 z m 67.394532,0.0176 c -1.175,0 -2.28123,0.29007 -3.24023,0.83007 l -0.10742,0.0527 -0.0801,0.0801 -12.02344,11.4082 -0.0527,0.0527 c -1.709,1.389 -2.8125,3.49424 -2.8125,5.86524 0,2.435 1.15526,4.61105 2.94726,5.99805 l 0.0527,0.0254 12.10351,11.43359 0.0801,0.082 0.10742,0.0527 c 0.905,0.464 1.94139,0.72265 3.02539,0.72265 h 14.40625 c 3.646,0 6.61328,-2.96528 6.61328,-6.61328 v -23.37695 c 0,-3.646 -2.96628,-6.61328 -6.61328,-6.61328 z m -67.402342,1.71484 h 14.40625 c 0.798,0 1.53326,0.20016 2.19726,0.53516 0.007,0.004 0.0184,-0.004 0.0254,0 l 11.9707,11.29882 0.0254,0.0527 0.0547,0.0273 c 1.415,1.072 2.30273,2.74316 2.30273,4.66016 0,1.866 -0.84431,3.52947 -2.19531,4.60547 l -0.0273,0.0273 -0.0273,0.0273 -11.99609,11.35351 c -0.698,0.382 -1.47408,0.58789 -2.33008,0.58789 h -14.40625 c -2.72,0 -4.92578,-2.17844 -4.92578,-4.89844 v -23.37695 c 0,-2.722 2.20478,-4.90039 4.92578,-4.90039 z m 67.402342,0 h 14.4043 c 2.72,0 4.90039,2.18039 4.90039,4.90039 v 23.375 c 0,2.722 -2.18039,4.90039 -4.90039,4.90039 h -14.4043 c -0.77,0 -1.49757,-0.19676 -2.14257,-0.50976 l -12.05079,-11.35354 -0.0527,-0.0273 -0.0254,-0.0254 c -1.415,-1.074 -2.33008,-2.77055 -2.33008,-4.68555 0,-1.867 0.87266,-3.50408 2.22266,-4.58008 l 0.0273,-0.0273 0.0254,-0.0254 11.91602,-11.32813 h 0.0273 c 0.705,-0.391 1.51481,-0.61428 2.38281,-0.61328 z m 25.73243,7.65039 v 2.0625 13.73633 2.06055 l 1.47265,-1.47266 6.85352,-6.85547 0.61718,-0.61523 -0.61718,-0.58985 -6.85352,-6.88086 z m -104.488288,0.002 -1.447266,1.44532 -6.880859,6.88281 -0.587891,0.58789 0.587891,0.61523 6.880859,6.85547 1.447266,1.47266 v -2.06055 -13.73828 z m 106.201178,4.12305 4.81835,4.81836 -4.81835,4.79297 z m -107.914069,0.0391 v 9.54688 l -3.320312,-6.21094 z M 101.64859,130.193 c -2.428002,0 -4.585652,1.16331 -5.972652,2.94531 -0.016,0.02 -0.0367,0.0347 -0.0527,0.0547 l -11.40625,12.10351 -0.0801,0.0801 -0.0547,0.10742 c -0.465,0.905 -0.72266,1.94139 -0.72266,3.02539 v 14.40626 c 0,3.64599 2.96824,6.61523 6.61524,6.61523 h 23.375002 c 3.646,0 6.61328,-2.96823 6.61328,-6.61523 v -14.40626 c 0,-1.175 -0.31647,-2.28123 -0.85547,-3.24023 l -0.0547,-0.10547 -0.0527,-0.0547 -11.40625,-12.04882 c -0.016,-0.02 -0.0377,-0.0347 -0.0527,-0.0547 -1.39,-1.71 -3.52058,-2.8115 -5.89258,-2.8125 z m 0,1.71484 h 0.01 c 1.86299,0.003 3.52164,0.87504 4.59375,2.22266 l 0.0273,0.0254 0.0273,0.0273 11.35351,12.02344 c 0.367,0.688 0.58985,1.46474 0.58985,2.30273 v 14.4043 c 0,2.721 -2.18039,4.90039 -4.90039,4.90039 H 89.974908 c -2.721,0 -4.90039,-2.17939 -4.90039,-4.90039 v -14.4043 c 0,-0.78899 0.17981,-1.54026 0.50781,-2.19726 l 11.32812,-11.99609 0.0274,-0.0527 0.0332,-0.0254 c 1.07016,-1.41257 2.76477,-2.32694 4.677732,-2.33008 z m 308.52344,9.75 c -12.334,0 -22.35742,10.02633 -22.35742,22.36133 0,12.335 10.02342,22.35938 22.35742,22.35938 12.334,0 22.35938,-10.02438 22.35938,-22.35938 0,-12.335 -10.02538,-22.36133 -22.35938,-22.36133 z m 0,1.71485 c 11.408,0 20.64649,9.23553 20.64649,20.64453 0,11.407 -9.23749,20.64648 -20.64649,20.64648 -11.409,0 -20.64453,-9.23848 -20.64453,-20.64648 0.001,-11.408 9.23653,-20.64453 20.64453,-20.64453 z m -197.02734,2.83593 c -2.32,0 -4.20508,1.91147 -4.20508,4.23047 v 12.15625 c 0,2.321 1.88508,4.23047 4.20508,4.23047 h 20.51172 c 2.017,0 3.63297,-1.476 4.04297,-3.375 h 0.16015 v -0.85547 -12.1582 c 0,-2.319 -1.88312,-4.22852 -4.20312,-4.22852 z m 67.02344,0 c -2.188,0 -3.99024,1.80128 -3.99024,3.98828 v 12.80079 c 0,2.188 1.80524,3.99023 3.99024,3.99023 0.567,0 1.09207,-0.162 1.58007,-0.375 v 0.0273 l 0.13477,-0.0547 21.93164,-6.72071 0.0801,-0.0254 0.0527,-0.0547 c 1.26,-0.668 2.11524,-1.99082 2.11524,-3.50782 0,-1.486 -0.81716,-2.79947 -2.03516,-3.48047 l -0.0801,-0.0527 -0.10742,-0.0273 -22.30469,-6.26563 c -0.026,-0.009 -0.0541,-0.0174 -0.0801,-0.0254 -0.40601,-0.14 -0.83811,-0.2168 -1.28711,-0.2168 z m -67.02344,1.71485 h 20.51172 c 1.395,0 2.49023,1.12362 2.49023,2.51562 v 11.30078 0.85743 c 0,1.395 -1.09623,2.51562 -2.49023,2.51562 h -20.51172 c -1.394,0 -2.49219,-1.12062 -2.49219,-2.51562 v -12.15821 c 0.001,-1.393 1.09819,-2.51562 2.49219,-2.51562 z m 67.02344,0 c 0.276,0 0.53339,0.0438 0.77539,0.13281 l 0.0273,0.0273 h 0.0254 l 22.25391,6.23828 c 0.665,0.39501 1.09765,1.11808 1.09765,1.95508 0,0.847 -0.47334,1.56313 -1.15234,1.95313 l -21.95703,6.77539 h -0.0527 l -0.0547,0.0254 c -0.298,0.143 -0.61185,0.24219 -0.96485,0.24219 -1.26,0 -2.27344,-1.01339 -2.27343,-2.27539 v -12.80079 c 9.9e-4,-1.26099 1.01639,-2.27443 2.27539,-2.27343 z m -187.439462,26.32226 1.44531,1.47266 6.880862,6.85547 0.58985,0.61523 0.61523,-0.61523 6.85547,-6.85547 1.47266,-1.47266 h -2.0625 -13.734382 z m 4.12305,1.71289 H 106.465 l -4.79297,4.82032 z m 80.980472,9.47657 v 1.71484 h 153.73242 v -1.71484 z"
   style="fill:#ffffff" />
























</svg>
