<?xml version="1.0" encoding="UTF-8" standalone="no"?>
<!-- Generator: Adobe Illustrator 13.0.0, SVG Export Plug-In . SVG Version: 6.00 Build 14948)  -->

<svg
   version="1.1"
   id="svg2"
   x="0px"
   y="0px"
   width="560.90613"
   height="128.76758"
   viewBox="0.25 0 560.90613 128.76758"
   enable-background="new 0.25 0 567.927 113.032"
   xml:space="preserve"
   sodipodi:docname="system (cópia).svg"
   inkscape:version="1.1.2 (0a00cf5339, 2022-02-04)"
   xmlns:inkscape="http://www.inkscape.org/namespaces/inkscape"
   xmlns:sodipodi="http://sodipodi.sourceforge.net/DTD/sodipodi-0.dtd"
   xmlns="http://www.w3.org/2000/svg"
   xmlns:svg="http://www.w3.org/2000/svg"
   xmlns:ns="&amp;#38;ns_sfw;"><defs
   id="defs20">
	

	
	
	
	
</defs><sodipodi:namedview
   id="namedview18"
   pagecolor="#ffffff"
   bordercolor="#666666"
   borderopacity="1.0"
   inkscape:pageshadow="2"
   inkscape:pageopacity="0.0"
   inkscape:pagecheckerboard="0"
   showgrid="false"
   fit-margin-top="0"
   fit-margin-left="0"
   fit-margin-right="0"
   fit-margin-bottom="0"
   inkscape:zoom="0.92197164"
   inkscape:cx="159.98323"
   inkscape:cy="39.58907"
   inkscape:window-width="1920"
   inkscape:window-height="996"
   inkscape:window-x="0"
   inkscape:window-y="0"
   inkscape:window-maximized="1"
   inkscape:current-layer="svg2" />
<metadata
   id="metadata2">
	<ns:sfw>
		<ns:slices />
		<ns:sliceSourceBounds
   x="677.036"
   y="482.984"
   width="567.927"
   height="113.032"
   bottomLeftOrigin="true" />
	</ns:sfw>
</metadata>
<path
   id="path997"
   d="m 58.441406,65.912109 c -0.142827,0.508813 0.349614,1.473014 -0.378815,1.562043 C 43.8668,72.297142 29.655582,77.07579 15.454774,81.882481 10.600716,83.76874 5.9535983,86.995754 3.6314793,91.790719 2.1199442,94.968226 1.5955446,98.946981 3.3590424,102.13199 c 1.9697512,3.31718 5.6678361,5.03503 9.2022746,6.17482 5.740469,1.7921 11.725812,2.58922 17.647389,3.53537 4.349191,0.67996 8.72552,1.2988 13.138541,1.25544 0.90882,0.006 2.026969,-0.0256 2.797284,-0.0547 0.905808,-0.045 1.812367,-0.0962 2.583948,-0.16354 2.006741,-0.1626 4.22748,-0.47091 6.062537,-0.81107 1.216938,-0.24082 2.433629,-0.48289 3.65039,-0.72461 0,1.52799 0,3.05599 0,4.58398 8.356733,2.71887 16.713772,5.4368 25.070313,8.15625 0.725369,0.96344 1.990555,1.39556 3.15155,1.06059 1.223028,0.32606 2.444039,0.71514 3.676575,1.02926 0.0268,-0.81315 0.05345,-1.6263 0.08008,-2.43945 18.285138,-6.35299 36.534838,-12.8085 54.783448,-19.26411 4.48179,-1.66114 8.97098,-4.02829 11.82598,-7.988576 2.06414,-2.814002 2.60257,-6.6917 1.19212,-9.910267 -1.69916,-4.228283 -5.66507,-7.020437 -9.73319,-8.735489 -7.23136,-3.041459 -15.11714,-3.978281 -22.86601,-4.64656 -1.00469,0.0811 -2.21596,-0.430455 -2.43282,-1.488206 -0.43205,-0.871697 0.19725,-1.766643 0.68946,-2.46875 3.20439,-5.341322 4.26,-11.646541 4.52539,-17.785156 0.0221,-0.557376 0.047,-1.43851 0.0449,-2.126172 0.0583,-5.461751 -0.95058,-10.985798 -3.40967,-15.892841 -2.75245,-5.659004 -7.3178,-10.275163 -12.58358,-13.64676 -5.59338,-3.61441 -11.89252,-5.981427 -18.291908,-7.726805 -1.299057,-0.350558 -2.8338,-0.757823 -4.223469,-1.130183 C 79.436991,8.1633966 68.942665,5.3686978 58.441406,2.5976562 c 0,21.1048178 0,42.2096358 0,63.3144528 z M 167.88867,98.25 c 6.02604,0 12.05209,0 18.07813,0 0,-7.123047 0,-14.246094 0,-21.369141 4.66727,-0.09266 9.33464,-0.180766 14.00195,-0.271484 3.30606,-1.469586 6.69922,-3.153176 8.97266,-6.070313 0.44511,-0.400701 0.95216,-0.617132 1.55724,-0.545648 0.63596,-0.215142 1.01062,0.213565 1.3744,0.668695 0.894,0.868881 0.44567,2.21512 0.55078,3.320703 0,8.089063 0,16.178125 0,24.267188 6.02604,0 12.05208,0 18.07812,0 0,-3.167969 0,-6.335937 0,-9.503906 1.63796,1.861243 3.1044,3.881678 4.8679,5.627184 1.994,1.792565 4.45636,3.190743 7.12514,3.62089 2.88557,0.234524 5.78833,0.170579 8.68196,0.232266 7.51904,0.05212 15.03829,0.0087 22.55743,0.01966 0.012,-9.314259 -0.0214,-18.63242 0.019,-27.944241 0.33481,-1.935904 0.66963,-3.871808 1.00444,-5.807712 0.9745,1.85506 2.07129,3.656387 2.96786,5.545686 2.71061,7.954812 5.42096,15.909716 8.13175,23.86447 -3.1803,8.235853 -6.38005,16.464233 -9.51172,24.718753 2.85094,0.63783 5.75477,1.2837 8.69524,1.02238 2.77228,-0.0475 5.54451,-0.0978 8.31648,-0.16105 7.8157,-19.626329 15.63188,-39.252464 23.44727,-58.878911 1.77608,2.754746 3.36914,5.718347 5.92586,7.852361 2.24481,2.051061 5.12234,3.283154 8.10297,3.780927 1.48646,0.279558 3.02928,0.437973 4.43752,0.574966 1.15965,0.109722 2.31923,0.220104 3.47896,0.328855 0.76892,1.133311 1.34635,2.433123 1.27539,3.832031 -0.1552,1.670004 0.21846,3.389883 -0.2481,5.02271 -0.21396,0.720794 -0.71064,1.301538 -1.10346,1.928462 -6.75782,0.07524 -13.51563,0.151086 -20.27344,0.226563 0,4.700521 0,9.401041 0,14.101562 8.22613,-0.06928 16.47,0.184411 24.6461,-0.284784 5.60145,-0.51301 10.66474,-4.272265 13.11487,-9.288278 0.51783,-0.945047 1.03566,-1.890094 1.55348,-2.835141 1.46743,2.877111 2.67663,6.000243 5.0773,8.261822 2.25566,2.314169 5.35234,3.738975 8.57389,3.969658 3.31054,0.283075 6.63859,0.08517 9.95661,0.17706 0.9797,0.0038 1.95939,0.0076 2.93908,0.01138 0,-2.669922 0,-5.339844 0,-8.009766 1.72356,1.677705 3.25874,3.562782 5.13733,5.072094 2.74698,2.117779 6.27551,2.989286 9.70592,2.855765 9.24772,0.119508 18.49645,0.04436 27.74464,0.06238 0.002,-3.739583 0.003,-7.479167 0.004,-11.21875 1.64394,2.188292 3.1249,4.50558 4.8869,6.600789 2.49832,2.765273 6.13472,4.389997 9.85003,4.513485 3.25024,0.192234 6.5098,0.03775 9.76385,0.106695 7.10846,0.0018 14.21692,0.0018 21.32539,-2.66e-4 -0.0147,-4.001396 0.0276,-8.002628 0.0508,-12.003906 1.72579,2.079699 3.25767,4.329088 5.13847,6.274404 4.11804,4.036053 10.03121,5.885704 15.72752,5.619153 4.41529,-0.01445 9.04299,-0.344703 12.93358,-2.644599 2.51055,-1.37435 4.54123,-3.447348 6.25675,-5.709508 0.8738,-1.069791 1.74761,-2.139582 2.62141,-3.209372 -0.0147,3.891277 -0.0297,7.782553 -0.0449,11.673828 6.14258,0 12.28516,0 18.42774,0 0,-12.561198 0,-25.122396 0,-37.683594 1.94465,0.116215 3.95037,-0.06638 5.80434,0.656873 1.14472,2.519186 1.29832,5.372414 1.33192,8.117782 0.20038,9.634799 0.12958,19.272652 0.14303,28.908939 6.02474,0 12.04948,0 18.07422,0 -0.0558,-9.585866 0.11753,-19.174725 -0.18945,-28.757813 -0.0699,-5.7899 -1.30279,-12.083839 -5.29767,-16.574052 -3.77037,-4.242557 -9.54373,-6.351794 -15.15144,-6.255019 -7.6446,-0.171372 -15.29178,-0.09848 -22.93761,-0.147491 -0.0164,4.046874 -0.0327,8.093749 -0.0488,12.140625 -1.64456,-2.055368 -3.11324,-4.258377 -4.88444,-6.20814 -3.71628,-3.802296 -9.08533,-5.543255 -14.30603,-5.752123 -5.27594,-0.31699 -10.85538,0.310774 -15.43062,3.143857 -2.28126,1.401906 -4.05949,3.444509 -5.60071,5.603093 -0.87268,1.141417 -1.74536,2.282834 -2.61804,3.42425 0,-8.718099 0,-17.436198 0,-26.154296 -6.02604,0 -12.05209,0 -18.07813,0 0,4.617187 0,9.234375 0,13.851562 -3.07619,-0.04993 -6.15234,-0.102655 -9.22851,-0.154297 0,-2.398437 0,-4.796875 0,-7.195312 -6.02539,0 -12.05078,0 -18.07617,0 7.4e-4,2.329427 0.002,4.658854 0.002,6.988281 -6.83722,0.16053 -13.67741,0.156013 -20.51367,0.359375 -0.90005,0.03296 -2.16041,0.08134 -3.04102,0.117187 -2.55304,0.08142 -5.14281,0.247959 -7.55839,1.154233 -2.64622,0.873831 -4.9794,2.468634 -7.01577,4.344369 -0.7689,0.654112 -1.5378,1.308224 -2.3067,1.962336 0,-2.591797 0,-5.183594 0,-7.775391 -3.68424,0 -7.36849,0 -11.05273,0 0,-2.383463 0,-4.766927 0,-7.15039 -6.9349,0 -13.86979,0 -20.80469,0 4e-4,-2.166016 -0.001,-4.332032 -0.002,-6.498047 -6.96021,0.04154 -13.92712,-0.130263 -20.8817,0.207198 -5.93118,0.211195 -11.94909,3.240374 -14.94938,8.483821 -0.99502,1.561 -1.652,3.298409 -2.27635,5.031637 -3.3747,-0.04418 -6.77138,-0.213945 -10.13086,0.167969 -1.66655,0.292434 -3.24575,1.390884 -3.72604,3.073201 -2.42933,5.955374 -4.70197,11.973858 -7.04544,17.963908 -2.40523,-7.091912 -4.80734,-14.184879 -7.21094,-21.277344 -4.89264,0.02225 -9.78833,-0.08979 -14.67773,0.144532 -1.24607,-0.559063 -2.63216,-0.09277 -3.94255,-0.21465 -7.73329,0.15237 -15.48282,0.04467 -23.19846,0.650241 -4.6965,0.561202 -9.1879,2.977366 -12.01772,6.804154 -1.51331,2.092072 -2.95813,4.234515 -4.44479,6.346192 0,-9.128255 0,-18.25651 0,-27.384765 -6.02604,0 -12.05208,0 -18.07812,0 0,3.234375 0,6.468749 0,9.703124 -1.81515,-1.938384 -3.42578,-4.081245 -5.41978,-5.843319 -2.70117,-2.323778 -6.22085,-3.632347 -9.78411,-3.64498 -3.98896,-0.227157 -8.20479,-0.204291 -12.29221,-0.214825 -5.67967,0.01854 -11.35936,-0.0092 -17.03906,0 0,21.846354 0,43.692708 0,65.539062 z M 357.72266,47.603516 c 0.0332,6.76498 0.0675,13.529955 0.10351,20.294922 -1.66898,-2.088045 -3.1694,-4.317394 -4.96023,-6.303805 -2.05818,-2.203406 -4.8587,-3.579662 -7.78995,-4.184601 -3.16749,-0.681978 -6.42171,-0.789183 -9.61115,-1.33972 -0.98897,-0.648646 -1.50273,-1.813149 -1.36718,-2.980468 -0.0282,-1.775286 -0.17722,-3.643401 0.66688,-5.278295 0.0535,-0.73288 0.87783,-0.519073 1.38865,-0.690133 2.66848,-0.224121 5.35922,-0.195061 8.03896,-0.227994 2.89301,-0.03009 5.79419,0.04339 8.68171,0.03639 1.33952,-0.236841 2.11937,-1.501344 3.14529,-2.275542 0.56067,-0.505201 1.12135,-1.010402 1.68202,-1.515602 0.007,1.488281 0.0143,2.976562 0.0215,4.464844 z m -168.64063,-0.71875 c 1.76532,0.01497 3.53859,-6.02e-4 5.27735,0.355468 0.76952,1.288514 1.2043,2.743463 1.24218,4.246094 0.15446,2.880838 0.45927,5.940447 -0.33789,8.697266 -0.22986,1.436798 -1.6039,2.661822 -3.09375,2.388672 -2.06638,0.09187 -4.13545,0.03696 -6.20312,0.04883 0,-5.24349 0,-10.486979 0,-15.730469 1.03841,-0.002 2.07682,-0.0042 3.11523,-0.0059 z M 383.8418,62.90625 c -0.89238,4.862552 -0.46254,9.829047 -0.58661,14.741797 -0.0165,2.139803 0.0292,4.279151 0.0729,6.418359 -2.44401,0.0041 -4.88801,0.01127 -7.33203,0.01563 -0.20185,-7.813708 -0.10205,-15.630381 -0.0508,-23.445312 2.78385,-0.04741 5.5677,-0.0941 8.35157,-0.140625 -0.1517,0.803385 -0.30339,1.606771 -0.45508,2.410156 z m 63.53125,-2.365234 c 2.4095,0 4.81901,0 7.22851,0 0,7.845703 0,15.691406 0,23.537109 -3.01302,-0.01017 -6.02605,-0.007 -9.03906,0.0059 -0.24739,-7.845271 -0.17865,-15.695092 -0.18945,-23.542968 0.66666,0 1.33333,0 2,0 z m -38.92383,2.097656 c 0,7.145833 0,14.291667 0,21.4375 -2.35807,-0.0047 -4.71615,-0.0087 -7.07422,-0.01367 -0.20406,-6.286548 -0.40366,-12.604194 0.23718,-18.87174 0.15712,-1.548356 0.71265,-3.008074 1.36243,-4.40951 1.82638,-0.03922 3.6482,-0.172619 5.47461,-0.216797 0,0.691406 0,1.382813 0,2.074219 z m -154.93945,-1.94336 c 1.39036,0.09571 2.23283,1.57591 2.00976,2.873047 0.0345,6.831804 0.0607,13.665506 0.0898,20.498047 -2.42418,0.01509 -4.84872,0.03306 -7.27149,-0.06836 -0.27655,-5.269357 -0.35539,-10.561996 0.0166,-15.828391 0.20921,-1.948498 0.28678,-3.951326 0.89503,-5.824434 0.40333,-1.16398 1.67921,-1.790646 2.86051,-1.607631 0.46934,0.02088 0.93539,-0.108937 1.39979,-0.04228 z m 240.8457,-0.0059 c 1.23531,-0.151103 2.55941,0.435804 3.04933,1.627165 1.2329,3.113012 0.83765,6.532753 1.00822,9.803623 0.0384,3.535209 0.20807,7.221418 -1.1181,10.565306 -0.65579,1.131909 -2.01929,1.502589 -3.25035,1.391423 -0.93867,0.07905 -1.94168,-0.171373 -2.67277,-0.740802 -1.36406,-2.086763 -1.30288,-4.663801 -1.49133,-7.05405 -0.13915,-3.728323 -0.14585,-7.479978 0.27383,-11.190321 0.17445,-1.463766 0.77317,-2.825062 1.55664,-4.060547 0.87626,-0.171666 1.74373,-0.383583 2.64453,-0.341797 z" /><g
   id="g5"
   transform="translate(6.0055745,7.7929688)"
   style="fill:#ffffff">
	<path
   id="path2998_1_"
   fill="#777777"
   d="m 165.884,28.918 v 28.77 28.77 h 5.039 5.039 V 60.776 35.095 h 6.186 c 4.461,0 6.475,0.12 7.233,0.438 1.496,0.625 3.036,2.529 3.667,4.521 0.331,1.047 0.604,3.313 0.701,5.831 0.2,5.154 -0.398,8.356 -1.971,10.433 -1.641,2.168 -2.645,2.51 -7.284,2.51 h -3.982 v 3.119 3.127 l 6.257,-0.121 6.258,-0.121 2.214,-1.047 c 4.045,-1.908 6.982,-5.811 8.167,-10.84 0.662,-2.808 0.652,-9.086 -0.021,-12.099 -0.646,-2.896 -1.991,-5.813 -3.504,-7.579 -0.633,-0.738 -1.857,-1.797 -2.712,-2.347 -2.933,-1.882 -4.062,-2.001 -18.356,-2.001 h -12.931 z m 44.535,0 v 28.77 28.77 h 5.038 5.039 v -28.77 -28.77 h -5.039 z m 126.372,0 c -4.514,0.001 -9.158,0.16 -10.32,0.346 -2.623,0.418 -5.682,1.805 -7.416,3.372 -1.748,1.579 -3.234,3.949 -4.043,6.44 -0.502,1.548 -0.66,2.959 -0.68,5.933 -0.029,4.103 0.316,5.851 1.727,8.614 0.916,1.798 3.361,4.393 5.039,5.363 1.949,1.13 4.441,1.728 8.729,2.072 3.26,0.265 4.02,0.426 5.08,1.129 0.834,0.551 1.563,1.453 2.184,2.711 0.869,1.771 0.918,2.142 0.914,5.953 -0.004,3.801 -0.057,4.176 -0.896,5.771 -0.566,1.084 -1.385,2.032 -2.242,2.603 l -1.354,0.896 -8.563,0.103 -8.555,0.092 v 3.077 3.068 h 9.73 c 5.92,0 10.412,-0.146 11.459,-0.367 3.984,-0.838 7.299,-3.42 8.908,-6.938 1.355,-2.963 1.834,-6.008 1.656,-10.575 -0.188,-4.816 -0.9,-7.44 -2.824,-10.32 -2.391,-3.575 -5.064,-4.801 -11.855,-5.423 -2.512,-0.23 -5.086,-0.635 -5.719,-0.904 -1.398,-0.592 -2.705,-2.082 -3.281,-3.738 -0.566,-1.633 -0.561,-6.361 0.021,-8.359 0.57,-1.973 2.305,-3.79 4.135,-4.338 0.883,-0.266 3.852,-0.396 8.848,-0.396 H 345 v -3.09 -3.09 h -8.209 z m 115.806,0 v 4.227 4.226 h 5.039 5.039 v -4.226 -4.227 h -5.039 z m -96.902,6.502 0.104,20.723 c 0.09,20.398 0.105,20.754 0.803,22.604 0.393,1.033 1.229,2.58 1.857,3.443 1.293,1.76 2.973,2.994 5.1,3.738 1.023,0.359 2.764,0.498 6.064,0.51 l 4.633,0.02 V 83.37 80.282 h -3.027 c -2.881,0 -3.068,-0.039 -3.891,-0.895 -0.508,-0.529 -1.006,-1.563 -1.207,-2.52 -0.221,-1.033 -0.313,-6.406 -0.256,-14.791 l 0.092,-13.166 5.445,-0.092 5.445,-0.092 V 45.65 42.57 h -5.527 -5.525 V 38.994 35.42 h -5.049 z m 69.596,0 v 20.469 c 0,19.797 0.023,20.54 0.672,22.512 0.771,2.348 2.338,4.672 4.043,5.973 0.65,0.498 1.939,1.166 2.863,1.482 1.289,0.445 2.73,0.582 6.156,0.59 l 4.469,0.01 V 83.368 80.28 h -2.885 c -2.41,0 -3.02,-0.104 -3.727,-0.662 -0.467,-0.365 -0.996,-1.205 -1.18,-1.867 -0.205,-0.74 -0.336,-6.584 -0.336,-15.105 V 48.748 h 5.537 5.535 l -0.094,-3.007 -0.092,-3.008 -5.445,-0.09 -5.439,-0.093 V 38.985 35.42 h -5.039 z m -8.889,7.069 -10.758,0.174 c -11.568,0.178 -12.766,0.32 -16.162,2.042 -3.799,1.925 -6.447,5.663 -7.648,10.788 -0.502,2.138 -0.59,3.979 -0.59,12.109 0,9.23 0.027,9.661 0.742,11.428 1.441,3.561 3.586,5.76 6.674,6.826 1.361,0.471 2.781,0.58 7.457,0.588 l 5.771,0.012 v -3.09 -3.088 h -4.043 c -3.828,0 -4.088,-0.047 -4.998,-0.813 -0.602,-0.506 -1.092,-1.35 -1.32,-2.256 -0.453,-1.793 -0.475,-15.938 -0.031,-19.361 0.631,-4.865 1.727,-7.146 4.014,-8.371 0.787,-0.42 2.146,-0.57 5.977,-0.67 l 4.957,-0.132 v 18.896 18.885 h 5.199 5.201 V 74.315 c 0,-6.674 -0.104,-16.566 -0.225,-21.982 z M 263.73,42.5 252.922,42.662 c -11.746,0.181 -13.433,0.396 -16.64,2.113 -3.725,1.994 -6.385,5.936 -7.508,11.123 -0.713,3.295 -1.047,16.791 -0.498,20.054 0.48,2.846 1.811,5.713 3.404,7.334 1.172,1.192 3.117,2.368 4.743,2.864 0.447,0.138 3.481,0.259 6.745,0.272 l 5.932,0.031 V 83.365 80.28 h -4.154 c -4.687,0 -5.303,-0.221 -6.187,-2.234 -0.395,-0.896 -0.549,-2.662 -0.65,-7.416 -0.146,-6.756 0.324,-14.085 1.056,-16.52 0.657,-2.185 1.881,-3.863 3.321,-4.57 1.052,-0.516 2.019,-0.613 6.125,-0.62 l 4.875,-0.011 0.082,18.773 0.082,18.771 h 5.039 5.039 v -21.98 z m 10.85,0.071 c -2.928,0 -5.319,0.037 -5.313,0.082 0.004,0.045 3.346,9.857 7.426,21.811 l 7.416,21.738 -4.176,10.771 c -2.295,5.927 -4.175,10.817 -4.175,10.868 0,0.051 1.993,0.051 4.429,0 l 4.43,-0.092 12.951,-32.508 c 7.127,-17.879 12.963,-32.542 12.963,-32.588 0.002,-0.045 -2.102,-0.082 -4.684,-0.082 -3.404,0 -4.766,0.113 -4.947,0.408 -0.137,0.223 -2.627,6.543 -5.525,14.049 -2.896,7.504 -5.396,13.688 -5.564,13.744 -0.17,0.057 -2.473,-6.266 -5.107,-14.049 l -4.796,-14.152 z m 178.017,0 v 21.942 21.942 h 5.039 5.039 V 64.513 42.571 h -5.039 z m 60.951,0.162 -0.094,21.861 h 0.012 l -0.092,21.861 h 5.211 5.201 V 67.571 48.676 l 4.957,0.133 c 5.262,0.137 6.141,0.356 7.619,1.939 1.156,1.24 1.984,3.499 2.354,6.439 0.191,1.539 0.348,8.603 0.348,16.011 v 13.258 h 5.037 5.037 l -0.01,-12.922 c -0.002,-13.705 -0.242,-16.957 -1.563,-20.673 -1.797,-5.053 -5.104,-8.049 -10.482,-9.508 -1.779,-0.483 -3.68,-0.567 -12.811,-0.59 z m -25.478,0.092 c -2.842,0 -5.674,0.357 -7.709,1.057 -2.709,0.932 -4.41,2.023 -6.117,3.921 -1.852,2.06 -3.193,4.849 -3.98,8.259 -0.479,2.09 -0.596,3.845 -0.564,8.938 0.023,5.358 0.133,6.729 0.711,8.849 0.979,3.596 2.26,6.017 4.205,7.985 1.916,1.938 4.748,3.422 7.936,4.146 1.434,0.324 3.422,0.427 6.461,0.345 5.238,-0.14 7.73,-0.814 10.787,-2.904 2.563,-1.752 4.5,-4.517 5.598,-7.996 1.57,-4.967 1.846,-13.155 0.641,-19.198 -0.586,-2.936 -2.01,-6.119 -3.598,-8.056 -1.492,-1.821 -3.936,-3.418 -6.551,-4.287 -2.117,-0.702 -4.978,-1.059 -7.82,-1.059 z m 0.123,6.054 c 1.475,0 2.953,0.285 4.113,0.873 1.514,0.768 2.465,2.104 3.291,4.632 0.541,1.653 0.676,3.158 0.803,8.625 0.166,7.142 -0.162,10.507 -1.27,13.043 -0.781,1.793 -2.045,3.187 -3.434,3.779 -0.596,0.254 -2.156,0.446 -3.605,0.446 -2.055,0 -2.844,-0.146 -3.992,-0.75 -0.902,-0.478 -1.773,-1.295 -2.336,-2.204 -1.469,-2.371 -1.953,-5.48 -1.973,-12.484 -0.016,-6.668 0.328,-9.347 1.557,-12.06 0.416,-0.92 1.256,-2.043 1.879,-2.52 1.184,-0.903 3.07,-1.38 4.967,-1.38 z"
   style="fill:#ffffff" />
</g>


<g
   id="g3"
   transform="translate(-55.680025,-305.07503)"
   style="fill:#ffffff">
	<path
   id="path7"
   fill="#de0029"
   d="m 142.207,336.374 -0.099,89.525 -23.986,-7.801 v -105.23 l 30.618,8.096 c 19.599,5.267 31.592,15.507 31.398,33.45 -0.195,20.873 -9.849,29.257 -28.667,23.796 v -41.154 c -0.002,-4.976 -9.264,-5.267 -9.264,-0.682 z"
   style="fill:#ffffff" />
	<path
   id="path9"
   fill="#f3c202"
   d="m 107.102,400.738 -11.311,3.805 c -7.314,2.537 -13.554,-3.412 -6.826,-5.854 l 5.46,-1.947 -20.575,-6.537 c -6.338,2.148 -12.288,6.73 -11.896,13.168 0.39,6.533 15.309,8.097 26.815,9.947 10.726,1.754 20.477,0.779 29.351,-2.342 v -6.73 z m 35.2,25.162 20.965,-7.313 -21.16,-6.729 v 13.557 z"
   style="fill:#ffffff" />
	<path
   id="path11"
   fill="#326db3"
   d="m 198.08,406.299 0.389,-0.099 c 9.167,-3.219 13.067,-7.707 12.092,-11.898 -1.56,-7.021 -12.773,-10.826 -30.033,-12.094 -12.384,-0.877 -24.572,1.854 -36.468,5.947 l -1.95,0.686 21.355,6.633 12.48,-4.197 c 13.067,-2.436 18.333,1.854 5.755,5.854 l -6.242,2.146 z m -79.958,-31.013 -9.459,3.217 9.459,2.926 z"
   style="fill:#ffffff" />
	<path
   id="path13"
   fill="#00aa9e"
   d="m 163.268,418.585 34.812,-12.287 -22.624,-7.021 -33.348,11.41 v 1.17 z m -45.146,-21.552 -11.019,3.705 11.019,3.512 z m 23.985,5.755 v -13.945 l 21.355,6.631 z m -47.682,-6.046 23.696,-8.484 v -6.826 l -9.459,-2.928 -34.324,11.605 c -0.097,0 -0.292,0.096 -0.487,0.096 z"
   style="fill:#ffffff" />
</g>
</svg>
