<?xml version="1.0" encoding="UTF-8" standalone="no"?>
<!-- Generator: Adobe Illustrator 24.2.3, SVG Export Plug-In . SVG Version: 6.00 Build 0)  -->

<svg
   xmlns:dc="http://purl.org/dc/elements/1.1/"
   xmlns:cc="http://creativecommons.org/ns#"
   xmlns:rdf="http://www.w3.org/1999/02/22-rdf-syntax-ns#"
   xmlns:svg="http://www.w3.org/2000/svg"
   xmlns="http://www.w3.org/2000/svg"
   xmlns:sodipodi="http://sodipodi.sourceforge.net/DTD/sodipodi-0.dtd"
   xmlns:inkscape="http://www.inkscape.org/namespaces/inkscape"
   version="1.1"
   id="Layer_1"
   x="0px"
   y="0px"
   viewBox="0 0 423.09457 296.13144"
   xml:space="preserve"
   sodipodi:docname="0a5a18bf-2a6c-474d-a7b9-857a488cdf46.svg"
   width="423.09457"
   height="296.13144"
   inkscape:version="0.92.5 (2060ec1f9f, 2020-04-08)"><metadata
   id="metadata217"><rdf:RDF><cc:Work
       rdf:about=""><dc:format>image/svg+xml</dc:format><dc:type
         rdf:resource="http://purl.org/dc/dcmitype/StillImage" /><dc:title></dc:title></cc:Work></rdf:RDF></metadata><defs
   id="defs215">
	
	
</defs><sodipodi:namedview
   pagecolor="#ffffff"
   bordercolor="#666666"
   borderopacity="1"
   objecttolerance="10"
   gridtolerance="10"
   guidetolerance="10"
   inkscape:pageopacity="0"
   inkscape:pageshadow="2"
   inkscape:window-width="1680"
   inkscape:window-height="965"
   id="namedview213"
   showgrid="false"
   fit-margin-top="0"
   fit-margin-left="0"
   fit-margin-right="0"
   fit-margin-bottom="0"
   inkscape:zoom="0.7516991"
   inkscape:cx="34.755419"
   inkscape:cy="52.152696"
   inkscape:window-x="0"
   inkscape:window-y="0"
   inkscape:window-maximized="1"
   inkscape:current-layer="Layer_1" />
<style
   type="text/css"
   id="style2">
	.st0{fill:#FFFFFF;}
	.st1{fill:#FFFFFF;stroke:#FFFFFF;stroke-width:0.25;stroke-miterlimit:10;}
	.st2{stroke:#000000;stroke-width:0.25;stroke-miterlimit:10;}
	.st3{fill:none;stroke:#000000;stroke-width:2;stroke-miterlimit:10;}
</style>



<g
   id="g1174"
   transform="translate(-181.98976,-121.88178)"><g
     style="fill:#f2f2f2;stroke:none"
     id="g108">
	<g
   style="fill:#f2f2f2;stroke:none"
   id="g106">
		<g
   style="fill:#f2f2f2;stroke:none"
   id="g12">
			<path
   style="fill:#f2f2f2;stroke:none;stroke-width:0.25;stroke-miterlimit:10"
   id="path10"
   d="m 226.15,418 c -3.46,0 -15.05,-3.52 -26.67,-13.16 -11.54,-9.58 -17.09,-32.08 -17.47,-50.14 -0.35,-16.52 3.84,-48.61 12.52,-77.99 7.42,-25.09 16.85,-51.77 22.49,-67.71 l 2.15,-6.09 c 4.62,-13.18 13.18,-33 13.27,-33.2 l 0.01,-0.01 c 1.43,-3.2 7.92,-10.49 10.12,-12.23 l 2.07,-1.44 c 0.64,-1.37 4.14,-8.95 4.56,-9.91 0.53,-1.19 7.45,-8.76 27.58,-15.99 19.43,-6.97 32.18,-8.2 35.58,-8.11 0.76,-0.15 4.41,-0.67 9.7,2.09 1.46,0.76 2.9,1.54 4.26,2.27 3.56,1.93 6.93,3.74 8.12,3.82 1.55,0.09 77.67,0.04 117.71,0 l 0.29,0.02 c 0.35,-0.05 1.59,-0.36 4.88,-2.24 0.59,-0.34 1.17,-0.68 1.75,-1.02 4.24,-2.49 8.63,-5.07 15.29,-5.07 0.03,0 0.06,0 0.09,0 7.83,0.03 33.83,5.7 46.74,12.5 11.58,6.1 13.07,7.9 14.63,9.8 0.21,0.25 0.42,0.51 0.66,0.78 1.91,2.14 4.9,9.54 5.45,10.91 1.35,1.14 9.78,8.38 12.88,14.49 3.12,6.13 19.67,48.94 28.07,74.82 10.14,31.27 16.94,58.54 20.22,81.03 3.48,23.8 2.32,43.33 -3.54,59.71 -5.14,14.37 -15.23,21.5 -24.29,27.06 -8.32,5.11 -13.17,5.27 -15.32,4.9 -0.42,-0.07 -10.38,-2.02 -31.69,-29.03 -6.12,-7.76 -10.59,-13.53 -14.12,-18.08 -7.75,-10 -10.96,-14.14 -17.11,-20.61 -8.74,-9.2 -16.24,-14.2 -30.77,-14.32 -11.92,-0.09 -93.72,-0.03 -128.65,-0.01 l -17.11,0.01 c -10.86,0 -21.41,4.76 -29.72,13.39 -9.59,9.97 -25.43,30.85 -31.79,39.37 -8.84,11.84 -12.25,15.06 -16.55,19.14 -4.16,3.94 -12.68,9.99 -15.93,10.26 C 226.38,418 226.27,418 226.15,418 Z m 7.88,-247.6 c -0.18,0.4 -8.64,20.03 -13.22,33.08 l -2.15,6.1 c -5.63,15.92 -15.06,42.58 -22.46,67.62 -8.63,29.21 -12.8,61.08 -12.45,77.47 0.36,17.08 5.78,39.65 16.84,48.83 11.48,9.53 23.07,12.97 25.75,12.75 2.33,-0.2 10.26,-5.42 14.88,-9.8 4.25,-4.02 7.6,-7.2 16.36,-18.91 6.39,-8.54 22.28,-29.5 31.93,-39.53 8.64,-8.98 19.63,-13.92 30.97,-13.92 l 17.11,-0.01 c 34.93,-0.02 116.74,-0.08 128.67,0.01 15.16,0.12 22.95,5.32 32.02,14.86 6.21,6.53 9.44,10.69 17.22,20.74 3.53,4.55 7.99,10.32 14.11,18.07 20.56,26.07 30.52,28.38 30.61,28.4 1.54,0.24 5.99,0.32 14.12,-4.67 9.21,-5.65 18.61,-12.32 23.56,-26.16 5.76,-16.1 6.89,-35.36 3.46,-58.87 -3.27,-22.4 -10.05,-49.56 -20.16,-80.74 -8.37,-25.81 -24.85,-68.47 -27.96,-74.57 -3.15,-6.18 -12.52,-14 -12.62,-14.08 l -0.17,-0.14 -0.08,-0.21 c -0.93,-2.36 -3.67,-8.87 -5.21,-10.59 -0.26,-0.29 -0.48,-0.56 -0.7,-0.83 -1.46,-1.76 -2.84,-3.43 -14.11,-9.37 -12.69,-6.69 -38.25,-12.27 -45.93,-12.3 -0.03,0 -0.06,0 -0.08,0 -6.18,0 -10.18,2.35 -14.41,4.83 -0.59,0.35 -1.17,0.69 -1.77,1.03 -4.18,2.39 -5.61,2.58 -6.19,2.45 -6.6,0.01 -115.8,0.12 -117.66,0 -1.5,-0.09 -4.2,-1.52 -8.83,-4.02 -1.35,-0.73 -2.78,-1.5 -4.23,-2.26 -5.19,-2.7 -8.58,-1.92 -8.61,-1.91 l -0.12,0.03 h -0.13 c -2.98,-0.14 -15.75,1.08 -35.03,8 -19.19,6.89 -26.03,13.96 -26.58,15.06 -0.47,1.05 -4.67,10.14 -4.67,10.14 l -0.1,0.21 -2.41,1.68 c -2.22,1.74 -8.32,8.75 -9.57,11.53 z"
   class="st1"
   inkscape:connector-curvature="0" />
		</g>
		<g
   style="fill:#f2f2f2;stroke:none"
   id="g16">
			<path
   style="fill:#f2f2f2;stroke:none;stroke-width:0.25;stroke-miterlimit:10"
   id="path14"
   d="m 362.15,213.14 c -5.31,0 -9.63,-4.32 -9.63,-9.63 0,-5.32 4.32,-9.65 9.63,-9.65 5.31,0 9.63,4.33 9.63,9.65 -0.01,5.31 -4.32,9.63 -9.63,9.63 z m 0,-17.55 c -4.35,0 -7.89,3.55 -7.89,7.92 0,4.35 3.54,7.89 7.89,7.89 4.35,0 7.89,-3.54 7.89,-7.89 0,-4.37 -3.54,-7.92 -7.89,-7.92 z"
   class="st1"
   inkscape:connector-curvature="0" />
		</g>
		<g
   style="fill:#f2f2f2;stroke:none"
   id="g20">
			<path
   style="fill:#f2f2f2;stroke:none;stroke-width:0.25;stroke-miterlimit:10"
   id="path18"
   d="m 424.81,213.15 c -5.31,0 -9.63,-4.32 -9.63,-9.63 0,-5.32 4.32,-9.65 9.63,-9.65 5.31,0 9.63,4.33 9.63,9.65 0,5.31 -4.32,9.63 -9.63,9.63 z m 0,-17.55 c -4.35,0 -7.89,3.55 -7.89,7.92 0,4.35 3.54,7.89 7.89,7.89 4.35,0 7.89,-3.54 7.89,-7.89 0.01,-4.37 -3.53,-7.92 -7.89,-7.92 z"
   class="st1"
   inkscape:connector-curvature="0" />
		</g>
		<g
   style="fill:#f2f2f2;stroke:none"
   id="g24">
			<path
   style="fill:#f2f2f2;stroke:none;stroke-width:0.25;stroke-miterlimit:10"
   id="path22"
   d="m 475.25,218.99 c -0.18,0 -0.36,0 -0.54,-0.01 -8.46,-0.29 -15.35,-7.35 -15.35,-15.74 0,-4.05 1.59,-7.82 4.46,-10.6 2.92,-2.82 6.83,-4.26 10.94,-4.15 8.46,0.29 15.35,7.35 15.35,15.74 0,4.05 -1.59,7.82 -4.47,10.6 -2.78,2.7 -6.45,4.16 -10.39,4.16 z m -1.02,-28.78 c -3.49,0 -6.74,1.3 -9.2,3.68 -2.54,2.45 -3.94,5.78 -3.94,9.36 0,7.47 6.13,13.75 13.67,14 3.72,0.12 7.1,-1.18 9.67,-3.67 2.54,-2.45 3.94,-5.78 3.94,-9.35 0,-7.47 -6.13,-13.75 -13.67,-14.01 -0.15,0 -0.31,-0.01 -0.47,-0.01 z"
   class="st1"
   inkscape:connector-curvature="0" />
		</g>
		<g
   style="fill:#f2f2f2;stroke:none"
   id="g28">
			<path
   style="fill:#f2f2f2;stroke:none;stroke-width:0.25;stroke-miterlimit:10"
   id="path26"
   d="m 504.65,191.22 c -0.18,0 -0.36,0 -0.54,-0.01 -8.46,-0.28 -15.35,-7.35 -15.35,-15.74 0,-4.05 1.59,-7.82 4.47,-10.6 2.92,-2.82 6.8,-4.27 10.94,-4.16 8.46,0.29 15.35,7.35 15.35,15.74 0,4.05 -1.59,7.82 -4.46,10.6 -2.79,2.71 -6.47,4.17 -10.41,4.17 z m -1.01,-28.78 c -3.48,0 -6.73,1.3 -9.2,3.68 -2.54,2.45 -3.94,5.78 -3.94,9.35 0,7.47 6.13,13.75 13.67,14.01 3.71,0.11 7.11,-1.18 9.68,-3.67 2.54,-2.45 3.94,-5.78 3.94,-9.36 0,-7.47 -6.13,-13.75 -13.67,-14 -0.17,-0.01 -0.33,-0.01 -0.48,-0.01 z"
   class="st1"
   inkscape:connector-curvature="0" />
		</g>
		<g
   style="fill:#f2f2f2;stroke:none"
   id="g32">
			<path
   style="fill:#f2f2f2;stroke:none;stroke-width:0.25;stroke-miterlimit:10"
   id="path30"
   d="m 504.04,247.89 c -0.18,0 -0.36,0 -0.54,-0.01 -8.47,-0.29 -15.35,-7.35 -15.35,-15.74 0,-4.05 1.59,-7.82 4.47,-10.6 2.92,-2.82 6.81,-4.3 10.95,-4.16 8.46,0.29 15.34,7.35 15.34,15.74 0,4.05 -1.59,7.82 -4.46,10.6 -2.79,2.71 -6.47,4.17 -10.41,4.17 z m -1.01,-28.78 c -3.49,0 -6.74,1.3 -9.2,3.68 -2.54,2.45 -3.94,5.78 -3.94,9.36 0,7.47 6.14,13.75 13.68,14 3.67,0.11 7.1,-1.18 9.67,-3.67 2.54,-2.45 3.94,-5.78 3.94,-9.35 0,-7.47 -6.13,-13.75 -13.67,-14.01 -0.16,-0.01 -0.32,-0.01 -0.48,-0.01 z"
   class="st1"
   inkscape:connector-curvature="0" />
		</g>
		<g
   style="fill:#f2f2f2;stroke:none"
   id="g36">
			<path
   style="fill:#f2f2f2;stroke:none;stroke-width:0.25;stroke-miterlimit:10"
   id="path34"
   d="m 533.18,220.34 c -0.18,0 -0.35,0 -0.53,-0.01 -8.33,-0.28 -15.11,-7.27 -15.11,-15.58 0,-4.03 1.57,-7.77 4.43,-10.53 2.87,-2.77 6.63,-4.21 10.74,-4.09 8.33,0.28 15.11,7.27 15.11,15.58 0,4.03 -1.57,7.77 -4.42,10.53 -2.75,2.66 -6.36,4.1 -10.22,4.1 z m -0.99,-28.48 c -3.41,0 -6.59,1.27 -9.01,3.61 -2.51,2.43 -3.9,5.73 -3.9,9.28 0,7.38 6.02,13.6 13.43,13.85 3.59,0.12 6.95,-1.16 9.48,-3.6 2.51,-2.43 3.9,-5.73 3.9,-9.28 0,-7.38 -6.03,-13.6 -13.43,-13.85 -0.16,0 -0.32,-0.01 -0.47,-0.01 z"
   class="st1"
   inkscape:connector-curvature="0" />
		</g>
		<g
   style="fill:#f2f2f2;stroke:none"
   id="g46">
			<g
   style="fill:#f2f2f2;stroke:none"
   id="g40">
				<path
   style="fill:#f2f2f2;stroke:none;stroke-width:0.25;stroke-miterlimit:10"
   id="path38"
   d="m 284.18,233.04 c -17.1,0 -31.01,-13.44 -31.01,-29.96 0,-16.52 13.91,-29.96 31.01,-29.96 17.1,0 31.01,13.44 31.01,29.96 0,16.52 -13.91,29.96 -31.01,29.96 z m 0,-59.05 c -16.62,0 -30.14,13.05 -30.14,29.1 0,16.04 13.52,29.09 30.14,29.09 16.62,0 30.15,-13.05 30.15,-29.09 0,-16.05 -13.53,-29.1 -30.15,-29.1 z"
   class="st1"
   inkscape:connector-curvature="0" />
			</g>
			<g
   style="fill:#f2f2f2;stroke:none"
   id="g44">
				<path
   style="fill:#f2f2f2;stroke:none;stroke-width:0.25;stroke-miterlimit:10"
   id="path42"
   d="m 284.18,226.55 c -13.39,0 -24.28,-10.53 -24.28,-23.47 0,-12.94 10.89,-23.47 24.28,-23.47 13.39,0 24.28,10.53 24.28,23.47 -0.01,12.94 -10.89,23.47 -24.28,23.47 z m 0,-45.2 c -12.43,0 -22.54,9.75 -22.54,21.73 0,11.99 10.11,21.73 22.54,21.73 12.43,0 22.54,-9.75 22.54,-21.73 0,-11.98 -10.11,-21.73 -22.54,-21.73 z"
   class="st1"
   inkscape:connector-curvature="0" />
			</g>
		</g>
		<g
   style="fill:#f2f2f2;stroke:none"
   id="g56">
			<g
   style="fill:#f2f2f2;stroke:none"
   id="g50">
				<path
   style="fill:#f2f2f2;stroke:none;stroke-width:0.25;stroke-miterlimit:10"
   id="path48"
   d="m 449.9,299.09 c -17.03,0 -30.88,-13.86 -30.88,-30.89 0,-17.03 13.85,-30.89 30.88,-30.89 17.03,0 30.88,13.86 30.88,30.89 0,17.03 -13.86,30.89 -30.88,30.89 z m 0,-60.91 c -16.55,0 -30.01,13.47 -30.01,30.02 0,16.55 13.46,30.02 30.01,30.02 16.55,0 30.02,-13.47 30.02,-30.02 -0.01,-16.55 -13.47,-30.02 -30.02,-30.02 z"
   class="st1"
   inkscape:connector-curvature="0" />
			</g>
			<g
   style="fill:#f2f2f2;stroke:none"
   id="g54">
				<path
   style="fill:#f2f2f2;stroke:none;stroke-width:0.25;stroke-miterlimit:10"
   id="path52"
   d="m 449.9,292.38 c -13.33,0 -24.18,-10.85 -24.18,-24.18 0,-13.33 10.85,-24.18 24.18,-24.18 13.33,0 24.18,10.85 24.18,24.18 -0.01,13.33 -10.85,24.18 -24.18,24.18 z m 0,-46.62 c -12.37,0 -22.44,10.07 -22.44,22.44 0,12.38 10.07,22.44 22.44,22.44 12.37,0 22.44,-10.07 22.44,-22.44 0,-12.37 -10.07,-22.44 -22.44,-22.44 z"
   class="st1"
   inkscape:connector-curvature="0" />
			</g>
		</g>
		<g
   style="fill:#f2f2f2;stroke:none"
   id="g60">
			<path
   style="fill:#f2f2f2;stroke:none;stroke-width:0.25;stroke-miterlimit:10"
   id="path58"
   d="m 337.44,309.54 c -20.27,0 -36.77,-16.32 -36.77,-36.39 0,-20.06 16.49,-36.39 36.77,-36.39 20.27,0 36.77,16.32 36.77,36.39 0,20.07 -16.5,36.39 -36.77,36.39 z m 0,-71.91 c -19.79,0 -35.9,15.94 -35.9,35.52 0,19.59 16.1,35.53 35.9,35.53 19.8,0 35.9,-15.94 35.9,-35.53 0,-19.59 -16.1,-35.52 -35.9,-35.52 z"
   class="st1"
   inkscape:connector-curvature="0" />
		</g>
		<g
   style="fill:#f2f2f2;stroke:none"
   id="g64">
			<path
   style="fill:#f2f2f2;stroke:none;stroke-width:0.25;stroke-miterlimit:10"
   id="path62"
   d="m 336.94,307.51 c -8.07,0 -12,-1.89 -12,-5.78 v -16.12 h -16.12 c -3.89,0 -5.78,-3.92 -5.78,-12 0,-5.55 0.55,-12.93 5.33,-12.93 h 16.58 v -16.12 c 0,-3.89 3.92,-5.78 12,-5.78 5.55,0 12.93,0.55 12.93,5.33 v 16.58 h 16.58 c 4.77,0 5.33,7.38 5.33,12.93 0,8.07 -1.89,12 -5.78,12 h -16.12 v 16.58 c -0.02,4.76 -7.4,5.31 -12.95,5.31 z m -28.57,-45.09 c -2.38,0 -3.59,3.77 -3.59,11.2 0,6.81 1.36,10.26 4.04,10.26 h 17.86 v 17.86 c 0,2.68 3.45,4.04 10.26,4.04 7.43,0 11.2,-1.21 11.2,-3.59 V 283.88 H 366 c 2.68,0 4.04,-3.45 4.04,-10.26 0,-7.43 -1.21,-11.2 -3.59,-11.2 h -18.31 v -18.31 c 0,-2.38 -3.77,-3.59 -11.2,-3.59 -6.81,0 -10.26,1.36 -10.26,4.04 v 17.86 z"
   class="st1"
   inkscape:connector-curvature="0" />
		</g>
		<g
   style="fill:#f2f2f2;stroke:none"
   id="g68">
			<path
   style="fill:#f2f2f2;stroke:none;stroke-width:0.25;stroke-miterlimit:10"
   id="path66"
   d="m 245.85,157.29 -1.03,-1.4 c 0.96,-0.7 6.47,-4.54 21.27,-11.15 17.04,-7.6 37.11,-11.27 47.36,-10.93 5.54,0.2 8.77,1.5 11.36,2.55 2.05,0.83 3.66,1.48 5.88,1.48 h 121.85 c 3.03,0 5.98,0 13.5,-2.47 7.99,-2.62 11.94,-2.46 22.37,-0.49 13.46,2.54 25.39,6.38 36.46,11.74 13.17,6.38 16.69,8.97 16.83,9.07 l -1.04,1.39 c -0.03,-0.03 -3.6,-2.63 -16.55,-8.9 -10.93,-5.29 -22.71,-9.09 -36.02,-11.6 -10.08,-1.9 -13.89,-2.06 -21.51,0.44 -7.78,2.56 -11.06,2.51 -13.86,2.55 H 330.69 c -2.56,0 -4.4,-0.74 -6.53,-1.6 -2.59,-1.05 -5.54,-2.23 -10.77,-2.42 -10.03,-0.35 -29.8,3.29 -46.59,10.78 -14.64,6.53 -20.02,10.28 -20.95,10.96 z"
   class="st1"
   inkscape:connector-curvature="0" />
		</g>
		<g
   style="fill:#f2f2f2;stroke:none"
   id="g72">
			<path
   style="fill:#f2f2f2;stroke:none;stroke-width:0.25;stroke-miterlimit:10"
   id="path70"
   d="M 560.63,417.36 C 560.54,417.21 551.02,402 538.36,388.54 524.97,374.3 497.13,345.64 487.6,339.12 478.08,332.6 462.25,332.6 448.28,332.6 H 327.19 c -11.23,0 -21.2,2.61 -29.65,7.76 -7.05,4.3 -15.89,13.73 -23,21.3 -1.68,1.79 -3.24,3.46 -4.63,4.89 -7.07,7.3 -26,27.58 -32.37,34.77 -6.32,7.12 -11.57,15.92 -11.63,16.01 l -0.75,-0.44 c 0.05,-0.09 5.35,-8.96 11.72,-16.14 6.38,-7.2 25.32,-27.48 32.4,-34.79 1.38,-1.43 2.94,-3.09 4.62,-4.88 7.14,-7.62 16.04,-17.09 23.19,-21.45 8.59,-5.23 18.71,-7.89 30.1,-7.89 h 121.09 c 14.09,0 30.07,0 39.81,6.67 9.59,6.57 37.49,35.28 50.9,49.55 12.72,13.53 22.29,28.8 22.38,28.96 z"
   class="st1"
   inkscape:connector-curvature="0" />
		</g>
		<g
   style="fill:#f2f2f2;stroke:none"
   id="g104">
			<g
   style="fill:#f2f2f2;stroke:none"
   id="g90">
				<g
   style="fill:#f2f2f2;stroke:none"
   id="g76">
					<path
   style="fill:#f2f2f2;stroke:none"
   id="path74"
   d="m 382.16,149.39 c -0.01,0.01 -0.02,0.01 -0.02,0.01 -3.01,2.84 -4.88,6.78 -4.88,11.13 0,3.56 1.25,6.85 3.35,9.48 0.02,0.03 0.06,0.04 0.09,0.03 0.03,-0.02 0.03,-0.05 0.02,-0.08 -1.25,-3.69 5.14,-12.63 8.44,-16.37 0.01,-0.01 0.02,-0.03 0.02,-0.04 0,-0.02 -0.01,-0.04 -0.03,-0.05 -5.56,-5.27 -7.04,-4.07 -7.02,-4.08"
   class="st0"
   inkscape:connector-curvature="0" />
				</g>
				<g
   style="fill:#f2f2f2;stroke:none"
   id="g80">
					<path
   style="fill:#f2f2f2;stroke:none"
   id="path78"
   d="m 405.02,149.36 c 0.01,0.01 0.02,0.01 0.02,0.01 2.99,2.82 4.85,6.74 4.85,11.06 0,3.54 -1.24,6.81 -3.33,9.42 -0.02,0.03 -0.06,0.04 -0.09,0.03 -0.03,-0.02 -0.03,-0.05 -0.02,-0.08 1.24,-3.66 -5.11,-12.56 -8.39,-16.28 -0.01,-0.01 -0.02,-0.03 -0.02,-0.04 0,-0.02 0.01,-0.04 0.03,-0.05 5.52,-5.24 6.99,-4.03 6.97,-4.05"
   class="st0"
   inkscape:connector-curvature="0" />
				</g>
				<g
   style="fill:#f2f2f2;stroke:none"
   id="g84">
					<path
   style="fill:#f2f2f2;stroke:none"
   id="path82"
   d="m 393.67,144.89 c 3.31,0 6.03,0.86 8.55,2.29 0.03,0.01 0.04,0.05 0.03,0.08 -0.01,0.03 -0.05,0.03 -0.08,0.03 -3.18,-0.65 -8,1.96 -8.46,2.22 -0.01,0.01 -0.02,0.01 -0.03,0.01 -0.01,0 -0.02,-0.01 -0.03,-0.01 -1.21,-0.66 -5.67,-2.9 -8.48,-2.21 -0.03,0.01 -0.07,0 -0.08,-0.03 -0.01,-0.03 0,-0.06 0.03,-0.08 2.5,-1.43 5.25,-2.3 8.55,-2.3"
   class="st0"
   inkscape:connector-curvature="0" />
				</g>
				<g
   style="fill:#f2f2f2;stroke:none"
   id="g88">
					<path
   style="fill:#f2f2f2;stroke:none"
   id="path86"
   d="m 393.67,157.44 c 0.02,0 0.04,0.01 0.05,0.03 4.91,3.56 13.31,12.36 10.75,14.85 v 0 0 0 c -2.89,2.41 -6.66,3.87 -10.8,3.87 -4.13,0 -7.91,-1.46 -10.8,-3.87 v 0 0 0 c -2.56,-2.49 5.84,-11.29 10.75,-14.85 0.01,-0.02 0.03,-0.03 0.05,-0.03"
   class="st0"
   inkscape:connector-curvature="0" />
				</g>
			</g>
			<g
   style="fill:#f2f2f2;stroke:none"
   id="g96">
				<g
   style="fill:#f2f2f2;stroke:none"
   id="g94">
					<path
   style="fill:#f2f2f2;stroke:none;stroke-width:0.25;stroke-miterlimit:10"
   id="path92"
   d="m 348.62,176.58 c -4.81,-4.34 -10.15,-9.35 -21.61,-21.95 -11.33,-12.46 -15.57,-13.87 -23.69,-13.93 -0.08,0 -0.16,0 -0.24,0 -9.36,0 -22.43,3.66 -39.94,11.18 -19.15,8.22 -28.49,16.5 -28.58,16.58 l -0.47,-0.52 c 0.09,-0.08 9.51,-8.43 28.77,-16.71 17.6,-7.56 30.76,-11.23 40.22,-11.23 0.08,0 0.17,0 0.25,0 8.35,0.06 12.31,1.24 23.89,14.24 11.24,12.62 16.82,17.95 21.57,22.33 4.35,4.02 11.28,4.74 11.35,4.75 0,0 -6.97,-0.64 -11.52,-4.74 z"
   class="st1"
   inkscape:connector-curvature="0" />
				</g>
			</g>
			<g
   style="fill:#f2f2f2;stroke:none"
   id="g102">
				<g
   style="fill:#f2f2f2;stroke:none"
   id="g100">
					<path
   style="fill:#f2f2f2;stroke:none;stroke-width:0.25;stroke-miterlimit:10"
   id="path98"
   d="m 438.13,176.58 c 4.81,-4.34 10.15,-9.35 21.61,-21.95 11.33,-12.46 15.57,-13.87 23.69,-13.93 0.08,0 0.16,0 0.24,0 9.36,0 22.43,3.66 39.94,11.18 19.15,8.22 28.49,16.5 28.58,16.58 l 0.47,-0.52 c -0.09,-0.08 -9.51,-8.43 -28.77,-16.71 -17.6,-7.56 -30.76,-11.23 -40.22,-11.23 -0.08,0 -0.17,0 -0.25,0 -8.35,0.06 -12.31,1.24 -23.89,14.24 -11.24,12.62 -16.82,17.95 -21.57,22.33 -4.35,4.02 -11.28,4.74 -11.35,4.75 0,0 6.97,-0.64 11.52,-4.74 z"
   class="st1"
   inkscape:connector-curvature="0" />
				</g>
			</g>
		</g>
	</g>
</g><g
     id="g206"
     style="fill:#f2f2f2;stroke:none">
		<g
   id="g112"
   style="fill:#f2f2f2;stroke:none">
			<path
   class="st2"
   d="m 226.18,418 c -3.46,0 -15.05,-3.52 -26.67,-13.16 -11.54,-9.58 -17.09,-32.08 -17.47,-50.14 -0.35,-16.52 3.84,-48.61 12.52,-77.99 7.42,-25.09 16.85,-51.77 22.49,-67.71 l 2.15,-6.09 c 4.62,-13.18 13.18,-33 13.27,-33.2 l 0.01,-0.01 c 1.43,-3.2 7.92,-10.49 10.12,-12.23 l 2.07,-1.44 c 0.64,-1.37 4.14,-8.95 4.56,-9.91 0.53,-1.19 7.45,-8.76 27.58,-15.99 19.43,-6.97 32.18,-8.2 35.58,-8.11 0.76,-0.15 4.41,-0.67 9.7,2.09 1.46,0.76 2.9,1.54 4.26,2.27 3.56,1.93 6.93,3.74 8.12,3.82 1.55,0.09 77.67,0.04 117.71,0 l 0.29,0.02 c 0.35,-0.05 1.59,-0.36 4.88,-2.24 0.59,-0.34 1.17,-0.68 1.75,-1.02 4.24,-2.49 8.63,-5.07 15.29,-5.07 0.03,0 0.06,0 0.09,0 7.83,0.03 33.83,5.7 46.74,12.5 11.58,6.1 13.07,7.9 14.63,9.8 0.21,0.25 0.42,0.51 0.66,0.78 1.91,2.14 4.9,9.54 5.45,10.91 1.36,1.14 9.78,8.38 12.88,14.49 3.12,6.13 19.67,48.94 28.07,74.82 10.14,31.27 16.94,58.54 20.22,81.03 3.48,23.8 2.32,43.33 -3.54,59.71 -5.14,14.37 -15.23,21.5 -24.29,27.06 -8.32,5.11 -13.17,5.27 -15.32,4.9 -0.42,-0.07 -10.38,-2.02 -31.69,-29.03 -6.12,-7.76 -10.59,-13.53 -14.12,-18.08 -7.75,-10 -10.96,-14.14 -17.11,-20.61 -8.74,-9.2 -16.24,-14.2 -30.77,-14.32 -11.92,-0.09 -93.72,-0.03 -128.65,-0.01 l -17.11,0.01 c -10.86,0 -21.41,4.76 -29.72,13.39 -9.59,9.97 -25.43,30.85 -31.79,39.37 -8.84,11.84 -12.25,15.06 -16.55,19.14 -4.16,3.94 -12.68,9.99 -15.93,10.26 C 226.41,418 226.3,418 226.18,418 Z m 7.88,-247.6 c -0.18,0.4 -8.64,20.03 -13.22,33.08 l -2.15,6.1 c -5.63,15.92 -15.06,42.58 -22.46,67.62 -8.63,29.21 -12.8,61.08 -12.45,77.47 0.36,17.08 5.78,39.65 16.84,48.83 11.48,9.53 23.07,12.97 25.75,12.75 2.33,-0.2 10.26,-5.42 14.88,-9.8 4.25,-4.02 7.6,-7.2 16.36,-18.91 6.39,-8.54 22.28,-29.5 31.93,-39.53 8.64,-8.98 19.63,-13.92 30.97,-13.92 l 17.11,-0.01 c 34.93,-0.02 116.74,-0.08 128.67,0.01 15.16,0.12 22.95,5.32 32.02,14.86 6.21,6.53 9.44,10.69 17.22,20.74 3.53,4.55 7.99,10.32 14.11,18.07 20.56,26.07 30.52,28.38 30.61,28.4 1.54,0.24 5.99,0.32 14.12,-4.67 9.21,-5.65 18.61,-12.32 23.56,-26.16 5.76,-16.1 6.89,-35.36 3.46,-58.87 -3.27,-22.4 -10.05,-49.56 -20.16,-80.74 -8.37,-25.81 -24.85,-68.47 -27.96,-74.57 -3.15,-6.18 -12.52,-14 -12.62,-14.08 l -0.17,-0.14 -0.08,-0.21 c -0.93,-2.36 -3.67,-8.87 -5.21,-10.59 -0.26,-0.29 -0.48,-0.56 -0.7,-0.83 -1.46,-1.76 -2.84,-3.43 -14.11,-9.37 -12.69,-6.69 -38.25,-12.27 -45.93,-12.3 -0.03,0 -0.06,0 -0.08,0 -6.18,0 -10.18,2.35 -14.41,4.83 -0.59,0.35 -1.17,0.69 -1.77,1.03 -4.18,2.39 -5.61,2.58 -6.19,2.45 -6.6,0.01 -115.8,0.12 -117.66,0 -1.5,-0.09 -4.2,-1.52 -8.83,-4.02 -1.35,-0.73 -2.78,-1.5 -4.23,-2.26 -5.19,-2.7 -8.58,-1.92 -8.61,-1.91 l -0.12,0.03 h -0.13 c -2.98,-0.14 -15.75,1.08 -35.03,8 -19.19,6.89 -26.03,13.96 -26.58,15.06 -0.47,1.05 -4.67,10.14 -4.67,10.14 l -0.1,0.21 -2.41,1.68 c -2.22,1.74 -8.32,8.75 -9.57,11.53 z"
   id="path110"
   style="fill:#f2f2f2;stroke:none;stroke-width:0.25;stroke-miterlimit:10"
   inkscape:connector-curvature="0" />
		</g>
		<g
   id="g116"
   style="fill:#f2f2f2;stroke:none">
			<path
   class="st2"
   d="m 362.18,213.14 c -5.31,0 -9.63,-4.32 -9.63,-9.63 0,-5.32 4.32,-9.65 9.63,-9.65 5.31,0 9.63,4.33 9.63,9.65 -0.01,5.31 -4.33,9.63 -9.63,9.63 z m 0,-17.55 c -4.35,0 -7.89,3.55 -7.89,7.92 0,4.35 3.54,7.89 7.89,7.89 4.35,0 7.89,-3.54 7.89,-7.89 0,-4.37 -3.54,-7.92 -7.89,-7.92 z"
   id="path114"
   style="fill:#f2f2f2;stroke:none;stroke-width:0.25;stroke-miterlimit:10"
   inkscape:connector-curvature="0" />
		</g>
		<g
   id="g120"
   style="fill:#f2f2f2;stroke:none">
			<path
   class="st2"
   d="m 424.84,213.15 c -5.31,0 -9.63,-4.32 -9.63,-9.63 0,-5.32 4.32,-9.65 9.63,-9.65 5.31,0 9.63,4.33 9.63,9.65 0,5.31 -4.32,9.63 -9.63,9.63 z m 0,-17.55 c -4.35,0 -7.89,3.55 -7.89,7.92 0,4.35 3.54,7.89 7.89,7.89 4.35,0 7.89,-3.54 7.89,-7.89 0.01,-4.37 -3.54,-7.92 -7.89,-7.92 z"
   id="path118"
   style="fill:#f2f2f2;stroke:none;stroke-width:0.25;stroke-miterlimit:10"
   inkscape:connector-curvature="0" />
		</g>
		<g
   id="g124"
   style="fill:#f2f2f2;stroke:none">
			<path
   class="st2"
   d="m 475.28,218.99 c -0.18,0 -0.36,0 -0.54,-0.01 -8.46,-0.29 -15.35,-7.35 -15.35,-15.74 0,-4.05 1.59,-7.82 4.46,-10.6 2.92,-2.82 6.83,-4.26 10.94,-4.15 8.46,0.29 15.35,7.35 15.35,15.74 0,4.05 -1.59,7.82 -4.47,10.6 -2.78,2.7 -6.45,4.16 -10.39,4.16 z m -1.02,-28.78 c -3.49,0 -6.74,1.3 -9.2,3.68 -2.54,2.45 -3.94,5.78 -3.94,9.36 0,7.47 6.13,13.75 13.67,14 3.72,0.12 7.1,-1.18 9.67,-3.67 2.54,-2.45 3.94,-5.78 3.94,-9.35 0,-7.47 -6.13,-13.75 -13.67,-14.01 -0.15,0 -0.31,-0.01 -0.47,-0.01 z"
   id="path122"
   style="fill:#f2f2f2;stroke:none;stroke-width:0.25;stroke-miterlimit:10"
   inkscape:connector-curvature="0" />
		</g>
		<g
   id="g128"
   style="fill:#f2f2f2;stroke:none">
			<path
   class="st2"
   d="m 504.68,191.22 c -0.18,0 -0.36,0 -0.54,-0.01 -8.46,-0.28 -15.35,-7.35 -15.35,-15.74 0,-4.05 1.59,-7.82 4.47,-10.6 2.92,-2.82 6.8,-4.27 10.94,-4.16 8.46,0.29 15.35,7.35 15.35,15.74 0,4.05 -1.59,7.82 -4.46,10.6 -2.79,2.71 -6.47,4.17 -10.41,4.17 z m -1.02,-28.78 c -3.48,0 -6.73,1.3 -9.2,3.68 -2.54,2.45 -3.94,5.78 -3.94,9.35 0,7.47 6.13,13.75 13.67,14.01 3.71,0.11 7.11,-1.18 9.68,-3.67 2.54,-2.45 3.94,-5.78 3.94,-9.36 0,-7.47 -6.13,-13.75 -13.67,-14 -0.16,-0.01 -0.32,-0.01 -0.48,-0.01 z"
   id="path126"
   style="fill:#f2f2f2;stroke:none;stroke-width:0.25;stroke-miterlimit:10"
   inkscape:connector-curvature="0" />
		</g>
		<g
   id="g132"
   style="fill:#f2f2f2;stroke:none">
			<path
   class="st2"
   d="m 504.07,247.89 c -0.18,0 -0.36,0 -0.54,-0.01 -8.47,-0.29 -15.35,-7.35 -15.35,-15.74 0,-4.05 1.59,-7.82 4.47,-10.6 2.92,-2.82 6.81,-4.3 10.95,-4.16 8.46,0.29 15.34,7.35 15.34,15.74 0,4.05 -1.59,7.82 -4.46,10.6 -2.8,2.71 -6.47,4.17 -10.41,4.17 z m -1.01,-28.78 c -3.49,0 -6.74,1.3 -9.2,3.68 -2.54,2.45 -3.94,5.78 -3.94,9.36 0,7.47 6.14,13.75 13.68,14 3.67,0.11 7.1,-1.18 9.67,-3.67 2.54,-2.45 3.94,-5.78 3.94,-9.35 0,-7.47 -6.13,-13.75 -13.67,-14.01 -0.16,-0.01 -0.32,-0.01 -0.48,-0.01 z"
   id="path130"
   style="fill:#f2f2f2;stroke:none;stroke-width:0.25;stroke-miterlimit:10"
   inkscape:connector-curvature="0" />
		</g>
		<g
   id="g136"
   style="fill:#f2f2f2;stroke:none">
			<path
   class="st2"
   d="m 533.21,220.34 c -0.18,0 -0.35,0 -0.53,-0.01 -8.33,-0.28 -15.11,-7.27 -15.11,-15.58 0,-4.03 1.57,-7.77 4.43,-10.53 2.87,-2.77 6.63,-4.21 10.74,-4.09 8.33,0.28 15.11,7.27 15.11,15.58 0,4.03 -1.57,7.77 -4.42,10.53 -2.75,2.66 -6.36,4.1 -10.22,4.1 z m -1,-28.48 c -3.41,0 -6.59,1.27 -9.01,3.61 -2.51,2.43 -3.9,5.73 -3.9,9.28 0,7.38 6.02,13.6 13.43,13.85 3.59,0.12 6.95,-1.16 9.48,-3.6 2.51,-2.43 3.9,-5.73 3.9,-9.28 0,-7.38 -6.03,-13.6 -13.44,-13.85 -0.14,0 -0.3,-0.01 -0.46,-0.01 z"
   id="path134"
   style="fill:#f2f2f2;stroke:none;stroke-width:0.25;stroke-miterlimit:10"
   inkscape:connector-curvature="0" />
		</g>
		<g
   id="g146"
   style="fill:#f2f2f2;stroke:none">
			<g
   id="g140"
   style="fill:#f2f2f2;stroke:none">
				<path
   class="st2"
   d="m 284.21,233.04 c -17.1,0 -31.01,-13.44 -31.01,-29.96 0,-16.52 13.91,-29.96 31.01,-29.96 17.1,0 31.01,13.44 31.01,29.96 0,16.52 -13.91,29.96 -31.01,29.96 z m 0,-59.05 c -16.62,0 -30.14,13.05 -30.14,29.1 0,16.04 13.52,29.09 30.14,29.09 16.62,0 30.15,-13.05 30.15,-29.09 0,-16.05 -13.53,-29.1 -30.15,-29.1 z"
   id="path138"
   style="fill:#f2f2f2;stroke:none;stroke-width:0.25;stroke-miterlimit:10"
   inkscape:connector-curvature="0" />
			</g>
			<g
   id="g144"
   style="fill:#f2f2f2;stroke:none">
				<path
   class="st2"
   d="m 284.21,226.55 c -13.39,0 -24.28,-10.53 -24.28,-23.47 0,-12.94 10.89,-23.47 24.28,-23.47 13.39,0 24.28,10.53 24.28,23.47 -0.01,12.94 -10.9,23.47 -24.28,23.47 z m 0,-45.2 c -12.43,0 -22.54,9.75 -22.54,21.73 0,11.99 10.11,21.73 22.54,21.73 12.43,0 22.54,-9.75 22.54,-21.73 0,-11.98 -10.11,-21.73 -22.54,-21.73 z"
   id="path142"
   style="fill:#f2f2f2;stroke:none;stroke-width:0.25;stroke-miterlimit:10"
   inkscape:connector-curvature="0" />
			</g>
		</g>
		<g
   id="g156"
   style="fill:#f2f2f2;stroke:none">
			<g
   id="g150"
   style="fill:#f2f2f2;stroke:none">
				<path
   class="st2"
   d="m 449.92,299.09 c -17.03,0 -30.88,-13.86 -30.88,-30.89 0,-17.03 13.85,-30.89 30.88,-30.89 17.03,0 30.88,13.86 30.88,30.89 0.01,17.03 -13.85,30.89 -30.88,30.89 z m 0,-60.91 c -16.55,0 -30.01,13.47 -30.01,30.02 0,16.55 13.46,30.02 30.01,30.02 16.55,0 30.02,-13.47 30.02,-30.02 0,-16.55 -13.46,-30.02 -30.02,-30.02 z"
   id="path148"
   style="fill:#f2f2f2;stroke:none;stroke-width:0.25;stroke-miterlimit:10"
   inkscape:connector-curvature="0" />
			</g>
			<g
   id="g154"
   style="fill:#f2f2f2;stroke:none">
				<path
   class="st2"
   d="m 449.92,292.38 c -13.33,0 -24.18,-10.85 -24.18,-24.18 0,-13.33 10.85,-24.18 24.18,-24.18 13.33,0 24.18,10.85 24.18,24.18 0,13.33 -10.85,24.18 -24.18,24.18 z m 0,-46.62 c -12.37,0 -22.44,10.07 -22.44,22.44 0,12.38 10.07,22.44 22.44,22.44 12.37,0 22.44,-10.07 22.44,-22.44 0,-12.37 -10.06,-22.44 -22.44,-22.44 z"
   id="path152"
   style="fill:#f2f2f2;stroke:none;stroke-width:0.25;stroke-miterlimit:10"
   inkscape:connector-curvature="0" />
			</g>
		</g>
		<g
   id="g160"
   style="fill:#f2f2f2;stroke:none">
			<path
   class="st2"
   d="m 337.47,309.54 c -20.27,0 -36.77,-16.32 -36.77,-36.39 0,-20.06 16.49,-36.39 36.77,-36.39 20.27,0 36.77,16.32 36.77,36.39 0,20.07 -16.5,36.39 -36.77,36.39 z m 0,-71.91 c -19.79,0 -35.9,15.94 -35.9,35.52 0,19.59 16.1,35.53 35.9,35.53 19.8,0 35.9,-15.94 35.9,-35.53 0,-19.59 -16.11,-35.52 -35.9,-35.52 z"
   id="path158"
   style="fill:#f2f2f2;stroke:none;stroke-width:0.25;stroke-miterlimit:10"
   inkscape:connector-curvature="0" />
		</g>
		<g
   id="g164"
   style="fill:#f2f2f2;stroke:none">
			<path
   class="st2"
   d="m 336.97,307.51 c -8.07,0 -12,-1.89 -12,-5.78 v -16.12 h -16.12 c -3.89,0 -5.78,-3.92 -5.78,-12 0,-5.55 0.55,-12.93 5.33,-12.93 h 16.58 v -16.12 c 0,-3.89 3.92,-5.78 12,-5.78 5.55,0 12.93,0.55 12.93,5.33 v 16.58 h 16.58 c 4.77,0 5.33,7.38 5.33,12.93 0,8.07 -1.89,12 -5.78,12 H 349.9 v 16.58 c 0,4.76 -7.38,5.31 -12.93,5.31 z M 308.4,262.42 c -2.38,0 -3.59,3.77 -3.59,11.2 0,6.81 1.36,10.26 4.04,10.26 h 17.86 v 17.86 c 0,2.68 3.45,4.04 10.26,4.04 7.43,0 11.2,-1.21 11.2,-3.59 v -18.31 h 17.86 c 2.68,0 4.04,-3.45 4.04,-10.26 0,-7.43 -1.21,-11.2 -3.59,-11.2 h -18.31 v -18.31 c 0,-2.38 -3.77,-3.59 -11.2,-3.59 -6.81,0 -10.26,1.36 -10.26,4.04 v 17.86 H 308.4 Z"
   id="path162"
   style="fill:#f2f2f2;stroke:none;stroke-width:0.25;stroke-miterlimit:10"
   inkscape:connector-curvature="0" />
		</g>
		<g
   id="g168"
   style="fill:#f2f2f2;stroke:none">
			<path
   class="st2"
   d="m 245.88,157.29 -1.03,-1.4 c 0.96,-0.7 6.47,-4.54 21.27,-11.15 17.04,-7.6 37.11,-11.27 47.36,-10.93 5.54,0.2 8.77,1.5 11.36,2.55 2.05,0.83 3.66,1.48 5.88,1.48 h 121.85 c 3.03,0 5.98,0 13.5,-2.47 7.99,-2.62 11.94,-2.46 22.37,-0.49 13.46,2.54 25.39,6.38 36.46,11.74 13.17,6.38 16.69,8.97 16.83,9.07 l -1.04,1.39 c -0.03,-0.03 -3.6,-2.63 -16.55,-8.9 -10.93,-5.29 -22.71,-9.09 -36.02,-11.6 -10.08,-1.9 -13.89,-2.06 -21.51,0.44 -7.78,2.56 -11.06,2.51 -13.86,2.55 H 330.72 c -2.56,0 -4.4,-0.74 -6.53,-1.6 -2.59,-1.05 -5.54,-2.23 -10.77,-2.42 -10.03,-0.35 -29.8,3.29 -46.59,10.78 -14.64,6.53 -20.02,10.28 -20.95,10.96 z"
   id="path166"
   style="fill:#f2f2f2;stroke:none;stroke-width:0.25;stroke-miterlimit:10"
   inkscape:connector-curvature="0" />
		</g>
		<g
   id="g172"
   style="fill:#f2f2f2;stroke:none">
			<path
   class="st2"
   d="M 560.66,417.36 C 560.57,417.21 551.05,402 538.39,388.54 525,374.3 497.16,345.64 487.63,339.12 478.11,332.6 462.28,332.6 448.31,332.6 H 327.22 c -11.23,0 -21.2,2.61 -29.65,7.76 -7.05,4.3 -15.89,13.73 -23,21.3 -1.68,1.79 -3.24,3.46 -4.63,4.89 -7.07,7.3 -26,27.58 -32.37,34.77 -6.32,7.12 -11.57,15.92 -11.63,16.01 l -0.75,-0.44 c 0.05,-0.09 5.35,-8.96 11.72,-16.14 6.38,-7.2 25.32,-27.48 32.4,-34.79 1.38,-1.43 2.94,-3.09 4.62,-4.88 7.14,-7.62 16.04,-17.09 23.19,-21.45 8.59,-5.23 18.71,-7.89 30.1,-7.89 h 121.09 c 14.09,0 30.07,0 39.81,6.67 9.59,6.57 37.49,35.28 50.9,49.55 12.72,13.53 22.29,28.8 22.38,28.96 z"
   id="path170"
   style="fill:#f2f2f2;stroke:none;stroke-width:0.25;stroke-miterlimit:10"
   inkscape:connector-curvature="0" />
		</g>
		<g
   id="g204"
   style="fill:#f2f2f2;stroke:none">
			<g
   id="g190"
   style="fill:#f2f2f2;stroke:none">
				<g
   id="g176"
   style="fill:#f2f2f2;stroke:none">
					<path
   d="m 382.19,149.39 c -0.01,0.01 -0.02,0.01 -0.02,0.01 -3.01,2.84 -4.88,6.78 -4.88,11.13 0,3.56 1.25,6.85 3.35,9.48 0.02,0.03 0.06,0.04 0.09,0.03 0.03,-0.02 0.03,-0.05 0.02,-0.08 -1.25,-3.69 5.14,-12.63 8.44,-16.37 0.01,-0.01 0.02,-0.03 0.02,-0.04 0,-0.02 -0.01,-0.04 -0.03,-0.05 -5.56,-5.27 -7.04,-4.07 -7.02,-4.08"
   id="path174"
   style="fill:#f2f2f2;stroke:none"
   inkscape:connector-curvature="0" />
				</g>
				<g
   id="g180"
   style="fill:#f2f2f2;stroke:none">
					<path
   d="m 405.05,149.36 c 0.01,0.01 0.02,0.01 0.02,0.01 2.99,2.82 4.85,6.74 4.85,11.06 0,3.54 -1.24,6.81 -3.33,9.42 -0.02,0.03 -0.06,0.04 -0.09,0.03 -0.03,-0.02 -0.03,-0.05 -0.02,-0.08 1.24,-3.66 -5.11,-12.56 -8.39,-16.28 -0.01,-0.01 -0.02,-0.03 -0.02,-0.04 0,-0.02 0.01,-0.04 0.03,-0.05 5.52,-5.24 6.99,-4.03 6.97,-4.05"
   id="path178"
   style="fill:#f2f2f2;stroke:none"
   inkscape:connector-curvature="0" />
				</g>
				<g
   id="g184"
   style="fill:#f2f2f2;stroke:none">
					<path
   d="m 393.7,144.89 c 3.31,0 6.03,0.86 8.55,2.29 0.03,0.01 0.04,0.05 0.03,0.08 -0.01,0.03 -0.05,0.03 -0.08,0.03 -3.18,-0.65 -8,1.96 -8.46,2.22 -0.01,0.01 -0.02,0.01 -0.03,0.01 -0.01,0 -0.02,-0.01 -0.03,-0.01 -1.21,-0.66 -5.67,-2.9 -8.48,-2.21 -0.03,0.01 -0.07,0 -0.08,-0.03 -0.01,-0.03 0,-0.06 0.03,-0.08 2.49,-1.43 5.25,-2.3 8.55,-2.3"
   id="path182"
   style="fill:#f2f2f2;stroke:none"
   inkscape:connector-curvature="0" />
				</g>
				<g
   id="g188"
   style="fill:#f2f2f2;stroke:none">
					<path
   d="m 393.7,157.44 c 0.02,0 0.04,0.01 0.05,0.03 4.91,3.56 13.31,12.36 10.75,14.85 v 0 0 0 c -2.89,2.41 -6.66,3.87 -10.8,3.87 -4.14,0 -7.91,-1.46 -10.8,-3.87 v 0 0 0 c -2.56,-2.49 5.84,-11.29 10.75,-14.85 0.01,-0.02 0.03,-0.03 0.05,-0.03"
   id="path186"
   style="fill:#f2f2f2;stroke:none"
   inkscape:connector-curvature="0" />
				</g>
			</g>
			<g
   id="g196"
   style="fill:#f2f2f2;stroke:none">
				<g
   id="g194"
   style="fill:#f2f2f2;stroke:none">
					<path
   class="st2"
   d="m 348.65,176.58 c -4.81,-4.34 -10.15,-9.35 -21.61,-21.95 -11.33,-12.46 -15.57,-13.87 -23.69,-13.93 -0.08,0 -0.16,0 -0.24,0 -9.36,0 -22.43,3.66 -39.94,11.18 -19.15,8.22 -28.49,16.5 -28.58,16.58 l -0.47,-0.52 c 0.09,-0.08 9.51,-8.43 28.77,-16.71 17.6,-7.56 30.76,-11.23 40.22,-11.23 0.08,0 0.17,0 0.25,0 8.35,0.06 12.31,1.24 23.89,14.24 11.24,12.62 16.82,17.95 21.57,22.33 4.35,4.02 11.28,4.74 11.35,4.75 0,0 -6.97,-0.64 -11.52,-4.74 z"
   id="path192"
   style="fill:#f2f2f2;stroke:none;stroke-width:0.25;stroke-miterlimit:10"
   inkscape:connector-curvature="0" />
				</g>
			</g>
			<g
   id="g202"
   style="fill:#f2f2f2;stroke:none">
				<g
   id="g200"
   style="fill:#f2f2f2;stroke:none">
					<path
   class="st2"
   d="m 438.15,176.58 c 4.81,-4.34 10.15,-9.35 21.61,-21.95 11.33,-12.46 15.57,-13.87 23.69,-13.93 0.08,0 0.16,0 0.24,0 9.36,0 22.43,3.66 39.94,11.18 19.15,8.22 28.49,16.5 28.58,16.58 l 0.47,-0.52 c -0.09,-0.08 -9.51,-8.43 -28.77,-16.71 -17.6,-7.56 -30.76,-11.23 -40.22,-11.23 -0.08,0 -0.17,0 -0.25,0 -8.35,0.06 -12.31,1.24 -23.89,14.24 -11.24,12.62 -16.82,17.95 -21.57,22.33 -4.35,4.02 -11.28,4.74 -11.35,4.75 0.01,0 6.98,-0.64 11.52,-4.74 z"
   id="path198"
   style="fill:#f2f2f2;stroke:none;stroke-width:0.25;stroke-miterlimit:10"
   inkscape:connector-curvature="0" />
				</g>
			</g>
		</g>
	</g><path
     class="st3"
     d="m 399.62,232.18 h -8.72 c -4.09,0 -7.4,-3.31 -7.4,-7.4 v 0 c 0,-4.09 3.31,-7.4 7.4,-7.4 h 8.72 c 4.09,0 7.4,3.31 7.4,7.4 v 0 c 0,4.08 -3.32,7.4 -7.4,7.4 z"
     id="path208"
     style="fill:none;stroke:#ececec;stroke-width:2;stroke-miterlimit:10"
     inkscape:connector-curvature="0" /></g>
</svg>