<?xml version="1.0" encoding="UTF-8" standalone="no"?>
<!-- Generator: Adobe Illustrator 13.0.0, SVG Export Plug-In . SVG Version: 6.00 Build 14948)  -->

<svg
   version="1.2"
   id="Layer_3"
   x="0px"
   y="0px"
   width="157.49254"
   height="351.99887"
   viewBox="0 0 157.49253 351.99886"
   xml:space="preserve"
   inkscape:version="1.1.2 (0a00cf5339, 2022-02-04)"
   sodipodi:docname="controller.svg"
   xmlns:inkscape="http://www.inkscape.org/namespaces/inkscape"
   xmlns:sodipodi="http://sodipodi.sourceforge.net/DTD/sodipodi-0.dtd"
   xmlns="http://www.w3.org/2000/svg"
   xmlns:svg="http://www.w3.org/2000/svg"
   xmlns:rdf="http://www.w3.org/1999/02/22-rdf-syntax-ns#"
   xmlns:cc="http://creativecommons.org/ns#"
   xmlns:dc="http://purl.org/dc/elements/1.1/"
   xmlns:ns="ns_sfw"><defs
     id="defs30" /><sodipodi:namedview
     pagecolor="#ffffff"
     bordercolor="#666666"
     borderopacity="1"
     objecttolerance="10"
     gridtolerance="10"
     guidetolerance="10"
     inkscape:pageopacity="0"
     inkscape:pageshadow="2"
     inkscape:window-width="1920"
     inkscape:window-height="996"
     id="namedview28"
     showgrid="false"
     inkscape:zoom="3.4238939"
     inkscape:cx="-8.0317909"
     inkscape:cy="92.438612"
     inkscape:window-x="0"
     inkscape:window-y="0"
     inkscape:window-maximized="1"
     inkscape:current-layer="Layer_3"
     showguides="true"
     inkscape:guide-bbox="true"
     inkscape:pagecheckerboard="0"
     fit-margin-top="0"
     fit-margin-left="0"
     fit-margin-right="0"
     fit-margin-bottom="0"><sodipodi:guide
       position="79.794839,268.49268"
       orientation="1,0"
       id="guide4186" /><sodipodi:guide
       position="195.85977,251.55794"
       orientation="0,1"
       id="guide4188" /></sodipodi:namedview><metadata
     id="metadata55"><rdf:RDF><cc:Work
         rdf:about=""><dc:format>image/svg+xml</dc:format><dc:type
           rdf:resource="http://purl.org/dc/dcmitype/StillImage" /></cc:Work></rdf:RDF><ns:sfw><ns:slices /><ns:sliceSourceBounds
         x="-7231"
         y="-7652"
         width="16383"
         height="16383"
         bottomLeftOrigin="true" /></ns:sfw></metadata><path
     id="path860"
     style="fill:#000000"
     d="M 141.47319,0.01197874 C 97.054602,0.00279574 52.635842,0.00352774 8.2173322,0.01393174 3.8103222,0.15499742 -0.12529781,4.1684725 0.03309219,8.6145053 c -0.067,7.5426487 -0.008,15.0863927 -0.0286,22.6295047 0.005,104.17849 -0.007,208.35714 0.008,312.53554 0.14387,4.41319 4.16870001,8.34025 8.61620001,8.18617 7.5093198,0.0671 15.0197298,0.008 22.5295098,0.0287 39.44029,-0.006 78.881158,0.0132 118.321088,-0.0195 4.43856,-0.23494 8.25263,-4.40164 7.99181,-8.8582 0.0436,-31.45972 0.005,-62.91954 0.018,-94.3793 -0.002,-80.15202 0.003,-160.30435 -0.013,-240.4561874 -0.0749,-4.4804031 -4.20206,-8.46033858 -8.70314,-8.2488923 -2.43274,-0.0509773 -4.86639,-0.028476 -7.29946,-0.0203017 z M 9.2153822,9.1350256 c 17.8554698,0 35.7109398,0 53.5664098,0 -10.47955,4.2575034 -19.15026,12.7229954 -23.66912,23.0917824 -4.62785,10.348826 -4.97922,22.492552 -1.0276,33.111743 3.82952,10.536876 11.86612,19.440621 21.92862,24.373462 10.17095,5.104809 22.34154,5.965477 33.15416,2.445714 10.703328,-3.38771 19.927908,-11.079159 25.273178,-20.941443 5.38424,-9.724217 6.79432,-21.517266 3.98346,-32.259862 -2.72789,-10.792023 -9.777,-20.374705 -19.19138,-26.294559 -2.15777,-1.366177 -4.430078,-2.552344 -6.791168,-3.5268374 17.305988,0 34.611978,0 51.917968,0 0,28.9641924 0,57.9283854 0,86.8925784 -1.93359,0 -3.86719,0 -5.80078,0 -1.03958,-0.65548 -2.30193,-0.211537 -3.44922,-0.335938 -42.152988,0 -84.305988,0 -126.458978,0 0.31784,0.781906 -0.89409,0.270897 -1.32969,0.416016 -0.7293,0 -1.4585898,0 -2.1878898,0 -0.004,-28.990886 -3.2e-4,-57.981772 0.01,-86.9726564 z M 79.990772,21.037369 c 9.0279,-0.07059 17.92429,4.485099 23.179248,11.821089 4.95597,6.77832 6.67505,15.786998 4.56049,23.913901 -2.0666,8.168611 -7.916958,15.287704 -15.573328,18.826993 -7.823,3.694518 -17.33118,3.615295 -25.04191,-0.33716 -7.27257,-3.642718 -12.87732,-10.490477 -14.86118,-18.394401 -2.02984,-7.82117 -0.61498,-16.485953 3.94808,-23.174381 4.73569,-7.069486 12.73816,-11.87479 21.24169,-12.542396 0.84668,-0.07651 1.69696,-0.108108 2.54691,-0.113645 z m 54.119138,84.154291 c 0,14.98503 0,29.97005 0,44.95508 3.03516,0 6.07031,0 9.10547,0 0.0247,6.76693 0.0495,13.53385 0.0742,20.30078 -2.53524,-2.10812 -5.87166,-3.16159 -9.15742,-2.96708 -7.24557,0.0208 -14.49402,-0.0599 -21.73774,0.0569 -4.32385,0.37149 -8.32038,3.12479 -10.31187,6.96486 -2.07579,-4.0494 -6.382778,-6.87284 -10.954138,-6.99349 -2.52905,-0.0831 -5.06156,0.0151 -7.59235,-0.0285 -5.1691,0.015 -10.34059,-0.036 -15.5082,0.0435 -4.55466,0.35057 -8.7735,3.3367 -10.68555,7.47461 -1.95904,-4.23616 -6.31213,-7.29062 -11.00451,-7.47734 -2.46164,-0.11437 -4.92806,0.0128 -7.39197,-0.0407 -5.30244,0.0151 -10.60726,-0.0366 -15.9082,0.0434 -5.68365,0.41366 -10.77803,5.00096 -11.6759,10.6473 -0.43316,2.72043 -0.11832,5.48487 -0.21544,8.22497 0.032,5.21786 -0.0804,10.44024 0.0749,15.65508 0.40728,4.03348 2.88928,7.74558 6.36523,9.79882 -3.52595,2.23865 -5.82772,6.25153 -5.93164,10.4336 -0.0438,3.48781 0.008,6.97712 -0.0142,10.46601 0.0152,3.87209 -0.0637,7.7495 0.0806,11.61797 0.45748,4.47005 3.49861,8.53818 7.55664,10.37891 -4.17953,1.88243 -7.24921,6.07742 -7.57254,10.67736 -0.1685,2.58789 -0.005,5.18408 -0.0642,7.77576 0.031,4.99939 -0.0846,10.00426 0.0801,15 0.41986,4.02065 2.90221,7.72153 6.375,9.75977 -4.06748,1.95656 -6.99032,6.12977 -7.27207,10.65603 -0.14204,2.5458 0.001,5.09823 -0.0521,7.64709 0.0273,4.9844 -0.0776,9.97331 0.0742,14.95469 0.55273,5.70087 5.31645,10.69796 11.01743,11.41724 2.59454,0.3274 5.21527,0.064 7.82163,0.15365 5.60528,-0.0239 11.21441,0.0662 16.81719,-0.065 4.48197,-0.41267 8.59369,-3.38823 10.47852,-7.46094 1.33129,3.47039 4.19269,6.33991 7.69726,7.60352 -18.51497,-0.003 -37.02995,-0.007 -55.5449198,-0.01 0,-66.02148 0,-132.04297 0,-198.06445 3.0227898,0 6.0455698,0 9.0683598,0 0,-13.19987 0,-26.39974 0,-39.59961 38.63607,0 77.27213,0 115.908198,0 z M 24.311082,177.32057 c 7.21247,0.0124 14.42721,-0.0247 21.63827,0.0184 1.68932,0.17936 2.99705,1.87301 2.76096,3.55618 -0.007,6.75767 0.0581,13.51908 -0.0379,20.2744 -0.24741,1.69809 -2.01864,2.85325 -3.67929,2.61164 -7.14518,-0.029 -14.29465,0.0625 -21.43708,-0.0522 -1.67888,-0.26958 -2.80968,-2.02691 -2.57081,-3.67366 0.0337,-6.74166 -0.0724,-13.48888 0.0602,-20.22695 0.28666,-1.4748 1.7625,-2.62004 3.26562,-2.50781 z m 44.99024,0 c 7.21247,0.0124 14.4272,-0.0247 21.63827,0.0184 1.68931,0.17936 2.99705,1.87301 2.76096,3.55618 -0.007,6.75767 0.0581,13.51908 -0.0379,20.2744 -0.24741,1.69809 -2.01863,2.85325 -3.67928,2.61164 -7.14519,-0.029 -14.29466,0.0625 -21.43708,-0.0522 -1.67888,-0.26958 -2.80969,-2.02691 -2.57082,-3.67366 0.0337,-6.74166 -0.0724,-13.48888 0.0602,-20.22695 0.28666,-1.4748 1.76251,-2.62004 3.26563,-2.50781 z m 44.496088,0 c 7.21247,0.0124 14.4272,-0.0247 21.63827,0.0184 1.68932,0.17936 2.99705,1.87301 2.76096,3.55618 -0.007,6.75767 0.0581,13.51908 -0.0379,20.2744 -0.24741,1.69809 -2.01864,2.85325 -3.67929,2.61164 -7.14518,-0.029 -14.29466,0.0625 -21.43708,-0.0522 -1.67818,-0.27053 -2.81182,-2.02606 -2.57277,-3.67366 0.0337,-6.74166 -0.0724,-13.48888 0.0602,-20.22695 0.28739,-1.47355 1.76479,-2.62135 3.26758,-2.50781 z m -56.308588,29.06445 c 1.10842,2.20956 2.84517,4.10316 4.96093,5.38477 -2.01115,1.27579 -3.68601,3.11287 -4.73828,5.23828 -1.13062,-2.263 -2.92012,-4.19587 -5.09961,-5.48242 2.03621,-1.32782 3.71363,-3.21642 4.74024,-5.42383 0.0456,0.0944 0.0911,0.1888 0.13672,0.2832 z m 44.712888,0.41992 c 1.12882,2.05422 2.80339,3.80831 4.8164,5.01172 -1.9613,1.17401 -3.61942,2.8539 -4.74414,4.8457 -1.11154,-2.07074 -2.781738,-3.84004 -4.791008,-5.06054 1.93332,-1.23112 3.553058,-2.96409 4.611328,-5 0.0358,0.0677 0.0716,0.13541 0.10742,0.20312 z m 41.24219,6.29297 c -0.56384,-0.48112 -1.1698,-0.91311 -1.8086,-1.28906 0.63648,-0.37198 1.23721,-0.80392 1.79883,-1.28125 0.003,0.85677 0.007,1.71354 0.01,2.57031 z m -118.638678,6.49414 c 7.21247,0.0124 14.42721,-0.0247 21.63827,0.0184 1.69086,0.18147 2.99823,1.87101 2.76292,3.55617 -0.007,6.75768 0.0581,13.51909 -0.0379,20.2744 -0.24792,1.69894 -2.02099,2.85038 -3.68123,2.61164 -7.14519,-0.029 -14.29466,0.0625 -21.43709,-0.0522 -1.67888,-0.26957 -2.80968,-2.0269 -2.57081,-3.67365 0.0336,-6.74166 -0.0724,-13.48888 0.0602,-20.22696 0.28666,-1.47479 1.76251,-2.62004 3.26562,-2.50781 z m 44.74414,0 c 7.21182,0.0124 14.42591,-0.0247 21.63632,0.0184 1.69086,0.18147 2.99823,1.87101 2.76291,3.55617 -0.007,6.75768 0.0581,13.51909 -0.0379,20.2744 -0.24792,1.69894 -2.021,2.85038 -3.68124,2.61164 -7.14453,-0.029 -14.29335,0.0625 -21.43513,-0.0522 -1.67818,-0.27053 -2.81181,-2.02606 -2.57277,-3.67365 0.0337,-6.74166 -0.0724,-13.48888 0.0602,-20.22696 0.28738,-1.47354 1.76479,-2.62135 3.26757,-2.50781 z m 44.248048,0.2461 c 7.21247,0.0124 14.4272,-0.0247 21.63827,0.0184 1.69115,0.18141 2.99622,1.87386 2.76096,3.55813 -0.007,6.75702 0.0581,13.51778 -0.0379,20.27245 -0.2475,1.69876 -2.01738,2.85531 -3.67929,2.61359 -7.14575,-0.0296 -14.29612,0.0638 -21.43891,-0.0532 -1.67776,-0.27127 -2.80808,-2.02875 -2.57094,-3.67465 0.0337,-6.73837 -0.0725,-13.48256 0.0602,-20.21719 0.28051,-1.47775 1.76409,-2.62931 3.26758,-2.51757 z m -56.072258,28.79882 c 1.37715,2.75697 3.73655,5.0285 6.58203,6.22852 -2.79159,1.20215 -5.16031,3.38675 -6.53321,6.10352 -1.32133,-2.72412 -3.59979,-4.98589 -6.36328,-6.23438 2.71245,-1.24143 4.99242,-3.43482 6.31446,-6.09766 z m 44.480458,0.68946 c 1.37798,2.51785 3.58723,4.58188 6.22071,5.73437 -2.60187,1.08867 -4.83624,3.03453 -6.27149,5.46289 -1.40581,-2.50135 -3.633058,-4.54688 -6.281248,-5.66601 2.62922,-1.13018 4.873978,-3.13674 6.279298,-5.63086 l 0.0468,0.0884 z m 41.39454,6.17968 c -0.002,0.67383 -0.004,1.34766 -0.006,2.02149 -1.06288,-0.97632 -2.28235,-1.78458 -3.60352,-2.36719 1.31175,-0.54451 2.53264,-1.30912 3.59961,-2.24609 0.003,0.86393 0.007,1.72786 0.01,2.59179 z m -118.794928,7.91797 c 7.21247,0.0124 14.42721,-0.0247 21.63827,0.0184 1.69086,0.18147 2.99823,1.87101 2.76292,3.55617 -0.007,6.75768 0.0581,13.51909 -0.0379,20.2744 -0.24792,1.69894 -2.02099,2.85039 -3.68123,2.61164 -7.14519,-0.029 -14.29466,0.0625 -21.43709,-0.0522 -1.67888,-0.26958 -2.80968,-2.02691 -2.57081,-3.67366 0.0336,-6.74166 -0.0724,-13.48888 0.0602,-20.22695 0.28666,-1.4748 1.76251,-2.62005 3.26562,-2.50782 z m 44.74414,0.2461 c 7.21181,0.0125 14.42593,-0.0249 21.6363,0.0186 1.71639,0.17945 3.01196,1.91361 2.76477,3.61268 -0.009,6.73878 0.0562,13.48135 -0.0399,20.21774 -0.24803,1.69803 -2.01955,2.8556 -3.68108,2.61361 -7.1451,-0.0296 -14.29482,0.0638 -21.43695,-0.0532 -1.67831,-0.27125 -2.80861,-2.0281 -2.57095,-3.67465 0.0337,-6.73837 -0.0725,-13.48256 0.0602,-20.21719 0.28107,-1.47837 1.76277,-2.62995 3.26757,-2.51757 z m 43.999998,0.24804 c 7.21247,0.0124 14.42721,-0.0247 21.63827,0.0184 1.69086,0.18147 2.99823,1.87101 2.76292,3.55617 -0.007,6.75768 0.0581,13.51909 -0.0379,20.27441 -0.24792,1.69893 -2.02099,2.85038 -3.68123,2.61163 -7.14519,-0.029 -14.29466,0.0625 -21.43709,-0.0522 -1.67888,-0.26958 -2.80968,-2.02691 -2.57081,-3.67366 0.0336,-6.74166 -0.0724,-13.48888 0.0602,-20.22695 0.28666,-1.4748 1.76251,-2.62005 3.26562,-2.50782 z m -55.824208,28.79883 c 1.27458,2.57291 3.44503,4.71851 6,5.97266 -2.77392,1.29055 -5.09659,3.55806 -6.38477,6.33984 -1.03582,-2.75598 -3.13183,-5.13117 -5.58789,-6.62695 2.52061,-1.24469 4.63628,-3.30739 5.91016,-5.81641 l 0.0431,0.0902 z m 44.490228,1.13867 c 1.30715,2.17234 3.24004,3.97137 5.52344,5.08008 -2.43903,1.08064 -4.48611,2.98436 -5.81836,5.28711 -1.30291,-2.33076 -3.318538,-4.26346 -5.722658,-5.43164 2.41356,-1.11397 4.477388,-2.97544 5.828128,-5.26562 0.0632,0.11002 0.1263,0.22005 0.18945,0.33007 z m 40.98047,5.51758 c 0,0.56445 0,1.12891 0,1.69336 -0.90403,-0.80854 -1.92083,-1.49005 -3.00977,-2.02344 1.08354,-0.50671 2.10376,-1.15008 3.01367,-1.92773 -0.001,0.7526 -0.003,1.50521 -0.004,2.25781 z m -119.257808,7.11328 c 7.21247,0.0124 14.4272,-0.0247 21.63826,0.0184 1.68932,0.17935 2.99706,1.873 2.76097,3.55617 -0.007,6.75768 0.0581,13.51909 -0.0379,20.2744 -0.24741,1.6981 -2.01863,2.85326 -3.67928,2.61164 -7.14519,-0.029 -14.29466,0.0625 -21.43708,-0.0522 -1.67819,-0.27054 -2.81182,-2.02607 -2.57277,-3.67366 0.0337,-6.74166 -0.0724,-13.48888 0.0602,-20.22695 0.28738,-1.47355 1.76479,-2.62136 3.26758,-2.50782 z m 45.36328,0.85938 c 7.21247,0.0124 14.4272,-0.0247 21.63827,0.0184 1.69115,0.18141 2.99622,1.87386 2.76096,3.55813 -0.007,6.75702 0.0581,13.51778 -0.0379,20.27245 -0.24749,1.69876 -2.01737,2.85531 -3.67928,2.61359 -7.14519,-0.029 -14.29466,0.0625 -21.43708,-0.0522 -1.67823,-0.27091 -2.81047,-2.02849 -2.57082,-3.67561 0.0337,-6.74101 -0.0724,-13.48757 0.0602,-20.225 0.28772,-1.47388 1.76172,-2.62274 3.26563,-2.50976 z m 44.001948,0.24805 c 7.21247,0.0124 14.4272,-0.0247 21.63827,0.0184 1.68931,0.17936 2.99705,1.873 2.76096,3.55617 -0.007,6.75768 0.0581,13.51909 -0.0379,20.27441 -0.24741,1.69809 -2.01864,2.85325 -3.67929,2.61164 -7.14518,-0.029 -14.29466,0.0625 -21.43708,-0.0522 -1.67818,-0.27053 -2.81182,-2.02607 -2.57277,-3.67366 0.0337,-6.74166 -0.0724,-13.48888 0.0602,-20.22695 0.28739,-1.47355 1.76479,-2.62136 3.26758,-2.50781 z m -11.40234,29.82226 c 1.41075,2.40223 3.5841,4.36217 6.15429,5.45117 -4.35416,0 -8.708328,0 -13.062498,0 2.82129,-1.03937 5.257398,-3.07855 6.787108,-5.66601 0.0404,0.0716 0.0807,0.14323 0.1211,0.21484 z m 41.29687,5.44922 c -1.19531,0 -2.39062,0 -3.58594,0 1.31186,-0.55399 2.5192,-1.34256 3.58594,-2.2832 0,0.76106 0,1.52213 0,2.2832 z" /><path
     id="path3"
     style="fill:#ffffff"
     d="m 8.6587422,4.0061194 c -2.5621,0 -4.6543,2.0753772 -4.6543,4.6386718 V 343.33815 c 0,2.56269 2.0928,4.65625 4.6543,4.65625 H 148.85015 c 2.5627,0 4.63867,-2.09356 4.63867,-4.65625 V 8.6447912 c 0,-2.5626961 -2.07597,-4.6386718 -4.63867,-4.6386718 z m 0,1.1289062 H 148.85015 c 1.95285,0 3.50976,1.5569218 3.50976,3.5097656 V 343.33815 c 0,1.95344 -1.55811,3.52734 -3.50976,3.52734 H 8.6587422 c -1.95224,-6e-4 -3.52599,-1.5745 -3.52539,-3.52734 V 8.6447912 c 0,-1.9534424 1.57315,-3.5097656 3.52539,-3.5097656 z M 79.600152,9.8108069 c -22.21257,0 -40.24024,18.0257191 -40.24024,40.2382811 0,22.212562 18.02767,40.240234 40.24024,40.240235 22.212558,0 40.238278,-18.027673 40.238278,-40.240235 0,-22.212562 -18.02572,-40.2382811 -40.238278,-40.2382811 z m 0,1.8300781 c 21.223088,0 38.408198,17.185111 38.408198,38.408203 0,21.223092 -17.18511,38.408203 -38.408198,38.408203 -21.2231,0 -38.40821,-17.185111 -38.40821,-38.408203 0,-21.223092 17.18511,-38.408203 38.40821,-38.408203 z m 0.37695,3.841797 c -18.87299,0 -34.18945,15.316463 -34.18945,34.189453 0,18.87299 15.31646,34.189453 34.18945,34.189453 18.87299,0 34.189448,-15.316463 34.189448,-34.189453 0,-18.87299 -15.316458,-34.189453 -34.189448,-34.189453 z m 0,1.554687 c 18.03228,0 32.634758,14.602484 32.634758,32.634766 0,18.032282 -14.602478,32.632812 -32.634758,32.632812 -18.03228,0 -32.63281,-14.60053 -32.63281,-32.632812 0,-18.032282 14.60053,-32.634766 32.63281,-32.634766 z m -62.96485,82.654297 v 1.499994 H 138.10991 v 44.95508 h 9.08984 l 0.41016,112.07227 -0.41211,33.45507 v 51.63672 h 1.5 v -51.62695 l 0.41211,-33.45703 -0.41601,-113.58008 h -9.08399 V 99.691666 Z M 143.44194,100.0276 v 1.17383 38.33593 1.17383 h 0.56446 7.20703 v -2.34765 l -5.91211,-0.0781 v -35.98633 l 5.91211,0.0781 v -2.34961 h -7.20703 z m -137.0117178,0.0801 v 2.34766 l 5.9121098,-0.0781 v 35.98828 l -5.9121098,0.0781 v 2.34766 h 7.2070298 0.56446 v -1.17383 -38.33593 -1.17384 h -0.56446 z m 17.7285198,71.37305 c -4.97827,0 -9.01367,4.03541 -9.01367,9.01368 v 20.11328 c 0,4.97828 4.0354,9.01367 9.01367,9.01367 h 21.38672 c 4.97828,0 9.01367,-4.03539 9.01367,-9.01367 v -20.11328 c 0,-4.97827 -4.03539,-9.01368 -9.01367,-9.01368 z m 44.99023,0 c -4.97827,0 -9.01367,4.0354 -9.01367,9.01368 v 20.11328 c 0,4.97828 4.0354,9.01367 9.01367,9.01367 h 21.38672 c 4.97828,0 9.01367,-4.03539 9.01367,-9.01367 v -20.11328 c 0,-4.97828 -4.03539,-9.01368 -9.01367,-9.01368 z m 44.496098,0 c -4.97827,0 -9.01563,4.0354 -9.01563,9.01368 v 20.11328 c 0,4.97828 4.03736,9.01367 9.01563,9.01367 h 21.38672 c 4.97828,0 9.01367,-4.03539 9.01367,-9.01367 v -20.11328 c 0,-4.97828 -4.03539,-9.01368 -9.01367,-9.01368 z m -89.486328,1.83985 h 21.38672 c 3.99088,0 7.17383,3.18295 7.17383,7.17383 v 20.11328 c 0,3.99088 -3.18295,7.17383 -7.17383,7.17383 h -21.38672 c -3.99087,0 -7.17383,-3.18295 -7.17383,-7.17383 v -20.11328 c 0,-3.99088 3.18296,-7.17383 7.17383,-7.17383 z m 44.99023,0 h 21.38672 c 3.99088,0 7.17383,3.18295 7.17383,7.17383 v 20.11328 c 0,3.99088 -3.18295,7.17383 -7.17383,7.17383 h -21.38672 c -3.99087,0 -7.17382,-3.18295 -7.17382,-7.17383 v -20.11328 c 0,-3.99088 3.18295,-7.17383 7.17382,-7.17383 z m 44.496098,0 h 21.38672 c 3.99088,0 7.17382,3.18295 7.17382,7.17383 v 20.11328 c 0,3.99088 -3.18294,7.17383 -7.17382,7.17383 h -21.38672 c -3.99088,0 -7.17578,-3.18295 -7.17578,-7.17383 v -20.11328 c 0,-3.99088 3.1849,-7.17383 7.17578,-7.17383 z m -88.992188,40.43164 c -4.97828,0 -9.01367,4.03539 -9.01367,9.01367 v 20.11328 c 0,4.97828 4.03539,9.01367 9.01367,9.01367 h 21.38672 c 4.97827,0 9.01562,-4.03539 9.01562,-9.01367 v -20.11328 c 0,-4.97828 -4.03735,-9.01367 -9.01562,-9.01367 z m 44.74414,0 c -4.97828,0 -9.01562,4.0354 -9.01562,9.01367 v 20.11328 c 0,4.97828 4.03734,9.01367 9.01562,9.01367 h 21.38477 c 4.97827,0 9.01562,-4.03539 9.01562,-9.01367 v -20.11328 c 0,-4.97827 -4.03735,-9.01367 -9.01562,-9.01367 z m 44.248048,0.24609 c -4.97827,0 -9.01563,4.03736 -9.01563,9.01563 v 20.11132 c 0,4.97829 4.03736,9.01563 9.01563,9.01563 h 21.38672 c 4.97828,0 9.01367,-4.03733 9.01367,-9.01563 v -20.11133 c 0,-4.97827 -4.03539,-9.01563 -9.01367,-9.01563 z m -88.992188,1.59375 h 21.38672 c 3.99087,0 7.17578,3.18295 7.17578,7.17383 v 20.11328 c 0,3.99087 -3.18491,7.17383 -7.17578,7.17383 h -21.38672 c -3.99088,0 -7.17383,-3.18296 -7.17383,-7.17383 v -20.11328 c 0,-3.99088 3.18295,-7.17383 7.17383,-7.17383 z m 44.74414,0 h 21.38477 c 3.99087,0 7.17578,3.18296 7.17578,7.17383 v 20.11328 c 0,3.99088 -3.18491,7.17383 -7.17578,7.17383 h -21.38477 c -3.99088,0 -7.17578,-3.18295 -7.17578,-7.17383 v -20.11328 c 0,-3.99087 3.1849,-7.17383 7.17578,-7.17383 z m 44.248048,0.2461 h 21.38672 c 3.99088,0 7.17382,3.18491 7.17382,7.17578 v 20.11132 c 0,3.99089 -3.18294,7.17579 -7.17382,7.17579 h -21.38672 c -3.99088,0 -7.17578,-3.18491 -7.17578,-7.17579 v -20.11133 c 0,-3.99087 3.1849,-7.17578 7.17578,-7.17578 z m -88.992188,41.74609 c -4.97828,0 -9.01367,4.0354 -9.01367,9.01367 v 20.11328 c 0,4.97828 4.03539,9.01367 9.01367,9.01367 h 21.38672 c 4.97827,0 9.01562,-4.03539 9.01562,-9.01367 v -20.11328 c 0,-4.97827 -4.03735,-9.01367 -9.01562,-9.01367 z m 44.74414,0.24609 c -4.97828,0 -9.01562,4.03736 -9.01562,9.01563 v 20.11133 c 0,4.97829 4.03734,9.01562 9.01562,9.01562 h 21.38477 c 4.97827,0 9.01562,-4.03733 9.01562,-9.01562 v -20.11133 c 0,-4.97827 -4.03735,-9.01563 -9.01562,-9.01563 z m 43.999998,0.24805 c -4.97828,0 -9.01367,4.0354 -9.01367,9.01367 v 20.11328 c 0,4.97828 4.03539,9.01368 9.01367,9.01368 h 21.38672 c 4.97827,0 9.01562,-4.0354 9.01562,-9.01368 v -20.11328 c 0,-4.97827 -4.03735,-9.01367 -9.01562,-9.01367 z m -88.744138,1.3457 h 21.38672 c 3.99087,0 7.17578,3.18296 7.17578,7.17383 v 20.11328 c 0,3.99088 -3.18491,7.17383 -7.17578,7.17383 h -21.38672 c -3.99088,0 -7.17383,-3.18295 -7.17383,-7.17383 v -20.11328 c 0,-3.99087 3.18295,-7.17383 7.17383,-7.17383 z m 44.74414,0.2461 h 21.38477 c 3.99087,0 7.17578,3.18491 7.17578,7.17578 v 20.11133 c 0,3.99088 -3.18491,7.17578 -7.17578,7.17578 h -21.38477 c -3.99088,0 -7.17578,-3.1849 -7.17578,-7.17578 v -20.11133 c 0,-3.99087 3.1849,-7.17578 7.17578,-7.17578 z m 43.999998,0.24804 h 21.38672 c 3.99087,0 7.17578,3.18296 7.17578,7.17383 v 20.11328 c 0,3.99087 -3.18491,7.17383 -7.17578,7.17383 h -21.38672 c -3.99088,0 -7.17383,-3.18296 -7.17383,-7.17383 v -20.11328 c 0,-3.99087 3.18295,-7.17383 7.17383,-7.17383 z m -89.611328,40.72852 c -4.97827,0 -9.01562,4.03539 -9.01562,9.01367 v 20.11328 c 0,4.97828 4.03735,9.01367 9.01562,9.01367 h 21.38672 c 4.97827,0 9.01367,-4.03539 9.01367,-9.01367 v -20.11328 c 0,-4.97828 -4.0354,-9.01367 -9.01367,-9.01367 z m 45.36328,0.85937 c -4.97827,0 -9.01367,4.03736 -9.01367,9.01563 v 20.11133 c 0,4.97828 4.0354,9.01562 9.01367,9.01562 h 21.38672 c 4.97828,0 9.01367,-4.03734 9.01367,-9.01562 v -20.11133 c 0,-4.97827 -4.03539,-9.01563 -9.01367,-9.01563 z m 44.001958,0.24805 c -4.97827,0 -9.01563,4.0354 -9.01563,9.01367 v 20.11328 c 0,4.97828 4.03736,9.01368 9.01563,9.01368 h 21.38672 c 4.97828,0 9.01367,-4.0354 9.01367,-9.01368 v -20.11329 c 0,-4.97827 -4.03539,-9.01367 -9.01367,-9.01367 z m -89.365238,0.73242 h 21.38672 c 3.99087,0 7.17383,3.18295 7.17383,7.17383 v 20.11328 c 0,3.99087 -3.18296,7.17383 -7.17383,7.17383 h -21.38672 c -3.99087,0 -7.17578,-3.18296 -7.17578,-7.17383 v -20.11328 c 0,-3.99088 3.18491,-7.17383 7.17578,-7.17383 z m 45.36328,0.85938 h 21.38672 c 3.99088,0 7.17383,3.18491 7.17383,7.17578 v 20.11133 c 0,3.99088 -3.18295,7.17578 -7.17383,7.17578 h -21.38672 c -3.99087,0 -7.17382,-3.1849 -7.17382,-7.17578 v -20.11133 c 0,-3.99087 3.18295,-7.17578 7.17382,-7.17578 z m 44.001958,0.24805 h 21.38672 c 3.99088,0 7.17382,3.18294 7.17382,7.17382 v 20.11328 c 0,3.99087 -3.18294,7.17383 -7.17382,7.17383 h -21.38672 c -3.99088,0 -7.17578,-3.18296 -7.17578,-7.17383 v -20.11329 c 0,-3.99088 3.1849,-7.17382 7.17578,-7.17382 z" /></svg>
