<?xml version="1.0" encoding="UTF-8" standalone="no"?>
<!-- Generator: Adobe Illustrator 16.0.3, SVG Export Plug-In . SVG Version: 6.00 Build 0)  -->

<svg
   version="1.1"
   id="Ebene_1"
   x="0px"
   y="0px"
   width="566.929px"
   height="178.654px"
   viewBox="0 0 566.929 178.654"
   enable-background="new 0 0 566.929 178.654"
   xml:space="preserve"
   sodipodi:docname="system_color.svg"
   inkscape:version="1.1.2 (0a00cf5339, 2022-02-04)"
   xmlns:inkscape="http://www.inkscape.org/namespaces/inkscape"
   xmlns:sodipodi="http://sodipodi.sourceforge.net/DTD/sodipodi-0.dtd"
   xmlns="http://www.w3.org/2000/svg"
   xmlns:svg="http://www.w3.org/2000/svg"><defs
   id="defs24">
	
	
		<linearGradient
   id="SVGID_1_"
   gradientUnits="userSpaceOnUse"
   x1="7.4766"
   y1="846.3237"
   x2="561.1177"
   y2="846.3237"
   gradientTransform="translate(-0.0947,-757.002)">
		<stop
   offset="0"
   style="stop-color:#F090A7"
   id="stop4" />
		<stop
   offset="0.1495"
   style="stop-color:#EF7B75"
   id="stop6" />
		<stop
   offset="0.2564"
   style="stop-color:#EE6E5E"
   id="stop8" />
		<stop
   offset="0.5894"
   style="stop-color:#FCE72C"
   id="stop10" />
		<stop
   offset="0.8131"
   style="stop-color:#ACDEE4"
   id="stop12" />
		<stop
   offset="1"
   style="stop-color:#A3DDF2"
   id="stop14" />
	</linearGradient>
	
</defs><sodipodi:namedview
   id="namedview22"
   pagecolor="#505050"
   bordercolor="#ffffff"
   borderopacity="1"
   inkscape:pageshadow="0"
   inkscape:pageopacity="0"
   inkscape:pagecheckerboard="1"
   showgrid="false"
   inkscape:zoom="1.30616"
   inkscape:cx="204.7988"
   inkscape:cy="72.349483"
   inkscape:window-width="1920"
   inkscape:window-height="996"
   inkscape:window-x="0"
   inkscape:window-y="0"
   inkscape:window-maximized="1"
   inkscape:current-layer="Ebene_1" />
<path
   fill="url(#SVGID_1_)"
   d="m 279.773,91.536 v 22.885 h -64.96 c -7.426,0 -7.01,7.381 0,7.381 0,0 28.543,0 42.814,0 33.358,0 33.348,49.458 0,49.458 -22.392,0 -67.174,0 -67.174,0 v -22.145 c 0,0 42.814,0 64.221,0 7.687,0 7.166,-7.382 0,-7.382 -13.287,0 -39.861,0 -39.861,0 -34.278,0 -34.157,-50.197 0,-50.197 21.653,0 64.96,0 64.96,0 z m 149.115,0 h 76.033 c 13.646,0 25.805,10.596 25.836,25.1 v 54.625 h -27.313 v -47.242 c 0,-7.886 -4.689,-9.484 -10.336,-9.597 H 456.2 v 56.839 H 428.886 V 91.536 Z m -71.603,22.234 c -7.258,0.043 -10.336,4.6 -10.336,10.246 v 14.764 c 0,6.133 5.273,10.334 10.336,10.334 h 30.266 c 3.59,0 9.598,-2.43 9.598,-10.334 v -14.764 c 0,-4.968 -3.021,-10.463 -9.598,-10.427 z M 346.949,91.536 h 50.936 c 16.17,0 26.574,11.012 26.574,24.359 v 29.525 c 0,20.938 -18.09,25.838 -26.574,25.838 h -50.936 c -19.133,0 -27.313,-15.396 -27.313,-25.838 v -29.525 c 0,-17.002 15.215,-24.359 27.313,-24.359 z m -59.793,0 h 27.313 v 79.724 h -27.313 z m -131.399,0 h 27.313 v 79.724 h -27.313 z m -124.016,0 h 30.266 l 29.527,51.673 34.695,-51.673 h 25.099 l -47.244,79.726 H 79.269 Z M 275.345,7.382 h 86.367 v 19.932 h -59.793 v 7.382 h 59.793 v 19.932 h -59.793 c 0,7.327 5.384,10.334 11.072,10.334 h 48.721 v 21.407 h -62.746 c -14.059,0 -23.724,-11.67 -23.691,-24.359 z m -69.391,0 h 26.575 v 47.244 c 0,6.786 5.115,10.404 11.073,10.334 h 28.79 v 21.407 h -41.339 c -11.737,0 -25.098,-5.275 -25.098,-24.359 z M 451.035,7.381 H 391.24 c -17.203,0 -24.32,15.824 -24.359,24.359 v 29.527 c 0,19.149 15.754,25.948 24.359,25.837 h 59.795 V 64.959 h -45.77 c -3.258,0 -11.072,-2.411 -11.072,-9.597 V 39.861 c 0,-7.384 5.559,-10.335 11.072,-10.335 h 45.77 z m 42.814,22.235 c -7.258,0.042 -10.336,4.6 -10.336,10.245 v 14.765 c 0,6.133 5.273,10.334 10.336,10.334 h 30.266 c 3.59,0 9.598,-2.431 9.598,-10.334 V 39.863 c 0,-4.965 -3.025,-10.463 -9.598,-10.424 z M 483.513,7.382 h 50.938 c 16.166,0 26.572,11.012 26.572,24.359 v 29.527 c 0,20.938 -18.09,25.837 -26.572,25.837 H 483.513 C 464.382,87.105 456.2,71.71 456.2,61.268 V 31.741 C 456.201,14.74 471.416,7.382 483.513,7.382 Z M 133.611,29.616 c -7.257,0.043 -10.334,4.6 -10.334,10.246 v 14.765 c 0,6.133 5.273,10.334 10.334,10.334 h 30.266 c 3.588,0 9.596,-2.431 9.596,-10.334 V 39.863 c 0,-4.965 -3.025,-10.463 -9.596,-10.424 z M 123.277,7.382 h 50.935 c 16.167,0 26.576,11.012 26.576,24.359 v 29.527 c 0,20.938 -18.091,25.837 -26.576,25.837 H 123.277 C 104.145,87.105 96.702,71.71 96.702,61.268 V 31.741 c 0,-17.001 14.477,-24.359 26.575,-24.359 z m -31.742,0 H 31.742 c -17.204,0 -24.321,15.824 -24.36,24.359 v 29.527 c 0,19.149 15.753,25.948 24.36,25.837 H 91.535 V 64.961 H 45.029 c -3.256,0 -11.073,-2.412 -11.073,-9.597 V 39.863 c 0,-7.384 5.559,-10.335 11.073,-10.335 h 46.506 z"
   id="path17"
   style="fill:#ffffff" />
</svg>
